# Generated from Nova1492 GX by tools/nova1492/GxObjConverter
mtllib datan_common_mobbody34x_b11d19b1.mtl
o datan_common_mobbody34x_b11d19b1_mesh00
v -0.302713 0.000026 0.239773
v -0.208768 0.347696 0.16536
v -0.208768 0.347696 -0.16536
v -0.302713 0.000026 -0.239773
v 0.302713 0.000026 0.239773
v 0.302713 0.000026 -0.239773
v 0.208768 0.347696 -0.16536
v 0.208768 0.347696 0.16536
vt 0.523516 0.046781
vt 0.59618 0.453219
vt 0.90382 0.453219
vt 0.976485 0.046781
vt 0.523516 0.046781
vt 0.976485 0.046781
vt 0.90382 0.453219
vt 0.59618 0.453219
vn -0.845199 0.320003 0.428061
vn -0.350704 0.610111 0.710472
vn -0.554083 0.783737 -0.280622
vn -0.4226 0.297431 -0.856122
vn 0.664721 0.323727 0.673311
vn 0.664721 0.323727 -0.673311
vn 0.573924 0.576762 -0.581341
vn 0.34153 0.873888 0.345944
usemtl datan_common_mobbody34x_b11d19b1
f 1/1/1 2/2/2 3/3/3
f 3/3/3 4/4/4 1/1/1
f 5/5/5 6/6/6 7/7/7
f 7/7/7 8/8/8 5/5/5
f 4/4/4 3/3/3 7/7/7
f 7/7/7 6/6/6 4/4/4
f 3/3/3 2/2/2 8/8/8
f 8/8/8 7/7/7 3/3/3
f 2/2/2 1/1/1 5/5/5
f 5/5/5 8/8/8 2/2/2
o datan_common_mobbody34x_b11d19b1_mesh01
v 0 0.194192 0
v -0.184687 0.060009 -0
v 0 0.194192 0.423385
v -0.184687 0.060009 0.423385
v 0.184687 0.060008 -0
v 0.184687 0.060008 0.423385
v 0.114143 -0.157104 -0
v 0.114143 -0.157104 0.423385
v -0.114143 -0.157104 -0
v -0.114143 -0.157104 0.423385
v -0.133794 0.155353 0.84677
v -0.279299 0.048007 0.821113
v 0.011711 0.048007 0.872426
v -0.043867 -0.125684 0.862626
v -0.223721 -0.125684 0.830913
v -0.217026 0.021214 1.460923
v -0.184878 -0.077727 1.460923
v -0.080846 -0.077727 1.460923
v -0.132862 0.082363 1.460923
v -0.048698 0.021214 1.460923
v -0.015874 0.031879 1.13153
v -0.132862 0.116876 1.13153
v -0.132862 0.082363 1.460923
v -0.048698 0.021214 1.460923
v -0.24985 0.031879 1.13153
v -0.217026 0.021214 1.460923
v -0.205165 -0.105649 1.13153
v -0.184878 -0.077727 1.460923
v -0.060559 -0.105649 1.13153
v -0.080846 -0.077727 1.460923
v -0.044488 0.028751 0.822138
v -0.132975 0.09304 0.822138
v -0.132975 0.066457 1.137073
v -0.06977 0.020537 1.137073
v -0.221462 0.028751 0.822138
v -0.19618 0.020536 1.137073
v -0.187663 -0.075271 0.822138
v -0.172038 -0.053765 1.137073
v -0.078287 -0.075271 0.822138
v -0.093912 -0.053765 1.137073
vt 0.976485 0.953219
vt 0.976484 0.816901
vt 0.757656 0.953219
vt 0.757656 0.816901
vt 0.976485 0.816901
vt 0.757656 0.816901
vt 0.976484 0.546781
vt 0.757656 0.546781
vt 0.976484 0.546781
vt 0.757656 0.546781
vt 0.523516 0.953219
vt 0.523516 0.816901
vt 0.523516 0.816901
vt 0.523516 0.546781
vt 0.523516 0.546781
vt 0.023516 0.786276
vt 0.112949 0.546781
vt 0.387051 0.546781
vt 0.242344 0.953219
vt 0.476485 0.816901
vt 0.023516 0.305738
vt 0.023516 0.405935
vt 0.476484 0.405935
vt 0.476484 0.275113
vt 0.023516 0.275113
vt 0.476484 0.275113
vt 0.023516 0.094065
vt 0.476484 0.094065
vt 0.023516 0.094065
vt 0.476484 0.094065
vt 0.976719 0.316901
vt 0.976719 0.453219
vt 0.523281 0.453219
vt 0.523281 0.286276
vt 0.976719 0.286276
vt 0.523281 0.286276
vt 0.976719 0.046781
vt 0.523281 0.046781
vt 0.976719 0.046781
vt 0.523281 0.046781
vn 0.18372 0.758598 -0.625121
vn -0.790569 0.486625 -0.371748
vn -0.011289 0.996901 0.077852
vn -0.945895 0.310676 -0.093616
vn 0.778243 0.059693 -0.62512
vn 0.930925 0.311455 0.190722
vn 0.672499 -0.218508 -0.707107
vn 0.944676 -0.306944 0.115642
vn -0.527552 -0.171411 -0.83205
vn -0.939169 -0.307875 -0.152234
vn -0.293705 0.737156 0.608555
vn -0.984504 0.075616 0.158219
vn 0.475801 0.366831 0.799406
vn 0.674181 -0.248731 0.695422
vn -0.465606 -0.09937 0.879396
vn 0 0 1
vn 0 0 1
vn 0 0 1
vn 0 0 1
vn 0 0 1
vn 0.815675 0.502077 -0.28739
vn -0.192654 0.795492 -0.574523
vn 0.234166 0.966904 0.10131
vn 0.991941 0.076085 0.101311
vn -0.816092 0.062597 -0.574522
vn -0.84722 0.521493 0.10131
vn -0.700325 -0.227547 -0.676585
vn -0.947658 -0.307912 0.084465
vn 0.547441 -0.177874 -0.817722
vn 0.947657 -0.307914 0.084467
vn 0.848746 0.522441 0.081762
vn -0.234588 0.96865 0.081762
vn 0.234583 0.968652 0.081761
vn 0.993733 0.076226 0.081761
vn -0.993733 0.076222 0.081762
vn -0.848748 0.522438 0.081762
vn -0.948846 -0.308301 0.068128
vn -0.948846 -0.308301 0.068128
vn 0.948847 -0.308299 0.068129
vn 0.948848 -0.308297 0.068128
usemtl datan_common_mobbody34x_b11d19b1
f 9/9/9 10/10/10 11/11/11
f 11/11/11 10/10/10 12/12/12
f 13/13/13 9/9/9 14/14/14
f 14/14/14 9/9/9 11/11/11
f 15/15/15 13/13/13 16/16/16
f 16/16/16 13/13/13 14/14/14
f 10/10/10 17/17/17 12/12/12
f 12/12/12 17/17/17 18/18/18
f 11/11/11 12/12/12 19/19/19
f 19/19/19 12/12/12 20/20/20
f 14/14/14 11/11/11 21/21/21
f 21/21/21 11/11/11 19/19/19
f 16/16/16 14/14/14 22/22/22
f 22/22/22 14/14/14 21/21/21
f 12/12/12 18/18/18 20/20/20
f 20/20/20 18/18/18 23/23/23
f 17/17/17 13/13/13 15/15/15
f 17/17/17 9/9/9 13/13/13
f 17/17/17 10/10/10 9/9/9
f 22/22/22 21/21/21 23/23/23
f 21/21/21 19/19/19 23/23/23
f 19/19/19 20/20/20 23/23/23
f 24/24/24 25/25/25 26/26/26
f 27/27/27 24/24/24 26/26/26
f 28/28/28 27/27/27 26/26/26
f 29/29/29 30/30/30 31/31/31
f 29/29/29 31/31/31 32/32/32
f 30/30/30 33/33/33 34/34/34
f 30/30/30 34/34/34 31/31/31
f 33/33/33 35/35/35 36/36/36
f 33/33/33 36/36/36 34/34/34
f 37/37/37 29/29/29 32/32/32
f 37/37/37 32/32/32 38/38/38
f 33/33/33 37/37/37 35/35/35
f 30/30/30 37/37/37 33/33/33
f 29/29/29 37/37/37 30/30/30
f 39/39/39 40/40/40 41/41/41
f 39/39/39 41/41/41 42/42/42
f 40/40/40 43/43/43 44/44/44
f 40/40/40 44/44/44 41/41/41
f 43/43/43 45/45/45 46/46/46
f 43/43/43 46/46/46 44/44/44
f 47/47/47 39/39/39 42/42/42
f 47/47/47 42/42/42 48/48/48
o datan_common_mobbody34x_b11d19b1_mesh02
v -0.075511 0.257061 -0.593812
v -0.100881 0.275905 -0.590174
v -0.04572 0.271785 -0.27734
v 0.038 0.209599 -0.289345
v -0.125964 0.257061 -0.584915
v -0.128496 0.209599 -0.259987
v -0.116097 0.22657 -0.585304
v -0.095935 0.108981 -0.261268
v -0.084916 0.22657 -0.590802
v 0.006965 0.108981 -0.279412
v 0.0178 -0.060569 0.082895
v 0.090249 -0.063284 0.006975
v -0.076246 -0.063284 0.036333
v -0.061921 -0.067677 -0.068364
v 0.040979 -0.067677 -0.086508
vt 0.976485 0.317131
vt 0.976485 0.453438
vt 0.757656 0.453438
vt 0.757656 0.286506
vt 0.976485 0.286496
vt 0.757656 0.286496
vt 0.976484 0.047005
vt 0.757656 0.047006
vt 0.976484 0.047011
vt 0.757656 0.047012
vt 0.523516 0.453438
vt 0.523516 0.286506
vt 0.523516 0.286497
vt 0.523515 0.047006
vt 0.523515 0.047012
vn 0.68468 0.461147 -0.564408
vn -0.29779 0.750087 -0.590501
vn 0.093812 0.923325 0.372385
vn 0.961574 0.268462 -0.057475
vn -0.821757 0.030408 -0.569027
vn -0.946779 0.293108 0.133029
vn -0.404448 -0.725598 -0.556713
vn -0.633625 -0.67493 -0.37814
vn 0.258464 -0.37192 -0.891556
vn 0.471056 -0.713895 -0.518132
vn 0.283774 0.729379 0.622477
vn 0.987643 0.019494 -0.155502
vn -0.721721 0.440797 0.533682
vn -0.77815 -0.525234 -0.344401
vn 0.238168 -0.694977 -0.678442
usemtl datan_common_mobbody34x_b11d19b1
f 49/49/49 50/50/50 51/51/51
f 49/49/49 51/51/51 52/52/52
f 50/50/50 53/53/53 54/54/54
f 50/50/50 54/54/54 51/51/51
f 53/53/53 55/55/55 56/56/56
f 53/53/53 56/56/56 54/54/54
f 55/55/55 57/57/57 58/58/58
f 55/55/55 58/58/58 56/56/56
f 57/57/57 49/49/49 52/52/52
f 57/57/57 52/52/52 58/58/58
f 52/52/52 51/51/51 59/59/59
f 52/52/52 59/59/59 60/60/60
f 51/51/51 54/54/54 61/61/61
f 51/51/51 61/61/61 59/59/59
f 54/54/54 56/56/56 62/62/62
f 54/54/54 62/62/62 61/61/61
f 56/56/56 58/58/58 63/63/63
f 56/56/56 63/63/63 62/62/62
f 58/58/58 52/52/52 60/60/60
f 58/58/58 60/60/60 63/63/63
f 53/53/53 57/57/57 55/55/55
f 50/50/50 57/57/57 53/53/53
f 49/49/49 57/57/57 50/50/50
o datan_common_mobbody34x_b11d19b1_mesh03
v 0.184687 0.060009 -0
v 0 0.194192 -0
v 0 0.194192 0.423385
v 0.184687 0.060009 0.423385
v -0.184687 0.060008 -0
v -0.184687 0.060009 0.423385
v -0.114143 -0.157104 -0
v -0.114143 -0.157104 0.423385
v 0.114143 -0.157104 -0
v 0.114143 -0.157104 0.423385
v 0.133794 0.155353 0.84677
v 0.279299 0.048007 0.821113
v -0.011711 0.048007 0.872426
v 0.043867 -0.125684 0.862626
v 0.223721 -0.125683 0.830913
v 0.049032 0.021214 1.460923
v 0.08118 -0.077727 1.460923
v 0.185212 -0.077727 1.460923
v 0.133196 0.082363 1.460923
v 0.21736 0.021214 1.460923
v 0.250184 0.031879 1.13153
v 0.133196 0.116876 1.13153
v 0.133196 0.082363 1.460923
v 0.21736 0.021214 1.460923
v 0.016208 0.031879 1.13153
v 0.049032 0.021214 1.460923
v 0.060893 -0.105649 1.13153
v 0.08118 -0.077727 1.460923
v 0.205499 -0.105649 1.13153
v 0.185212 -0.077727 1.460923
v 0.221177 0.028751 0.822138
v 0.13269 0.09304 0.822138
v 0.13269 0.066457 1.137073
v 0.195895 0.020537 1.137073
v 0.044203 0.028751 0.822138
v 0.069485 0.020536 1.137073
v 0.078002 -0.075271 0.822138
v 0.093627 -0.053765 1.137073
v 0.187378 -0.075271 0.822138
v 0.171753 -0.053765 1.137073
vt 0.976484 0.816901
vt 0.976484 0.953219
vt 0.757656 0.953219
vt 0.757656 0.816901
vt 0.976484 0.816901
vt 0.757656 0.816901
vt 0.976484 0.546781
vt 0.757656 0.546781
vt 0.976484 0.546781
vt 0.757656 0.546781
vt 0.523516 0.953219
vt 0.523516 0.816901
vt 0.523516 0.816901
vt 0.523516 0.546781
vt 0.523516 0.546781
vt 0.023516 0.786276
vt 0.112949 0.546781
vt 0.387051 0.546781
vt 0.242344 0.953219
vt 0.476485 0.816901
vt 0.023516 0.305738
vt 0.023516 0.405935
vt 0.476484 0.405935
vt 0.476484 0.275113
vt 0.023516 0.275113
vt 0.476484 0.275113
vt 0.023516 0.094065
vt 0.476484 0.094065
vt 0.023516 0.094065
vt 0.476484 0.094065
vt 0.976719 0.316901
vt 0.976719 0.453219
vt 0.523281 0.453219
vt 0.523281 0.286276
vt 0.976719 0.286276
vt 0.523281 0.286276
vt 0.976719 0.046781
vt 0.523281 0.046781
vt 0.976719 0.046781
vt 0.523281 0.046781
vn 0.790569 0.486625 -0.371748
vn -0.183719 0.758598 -0.625121
vn 0.01129 0.996901 0.077852
vn 0.945895 0.310676 -0.093616
vn -0.778243 0.059693 -0.62512
vn -0.930924 0.311457 0.190722
vn -0.672499 -0.218508 -0.707107
vn -0.944676 -0.306943 0.115642
vn 0.527552 -0.171411 -0.83205
vn 0.939169 -0.307876 -0.152233
vn 0.293705 0.737156 0.608555
vn 0.984504 0.075616 0.158219
vn -0.4758 0.366831 0.799406
vn -0.674182 -0.248731 0.695422
vn 0.465606 -0.09937 0.879396
vn 0 0 1
vn 0 0 1
vn 0 0 1
vn 0 0 1
vn 0 0 1
vn 0.815675 0.502077 -0.28739
vn -0.192654 0.795492 -0.574523
vn 0.234166 0.966904 0.10131
vn 0.991941 0.076085 0.101311
vn -0.816092 0.062597 -0.574522
vn -0.84722 0.521493 0.10131
vn -0.700325 -0.227547 -0.676585
vn -0.947658 -0.307912 0.084465
vn 0.547441 -0.177874 -0.817722
vn 0.947658 -0.307914 0.084467
vn 0.848747 0.522441 0.081762
vn -0.234588 0.96865 0.081762
vn 0.234583 0.968652 0.081761
vn 0.993733 0.076226 0.081761
vn -0.993733 0.076222 0.081762
vn -0.848748 0.522438 0.081762
vn -0.948846 -0.308301 0.068128
vn -0.948846 -0.308301 0.068128
vn 0.948847 -0.308299 0.068129
vn 0.948848 -0.308297 0.068128
usemtl datan_common_mobbody34x_b11d19b1
f 64/64/64 65/65/65 66/66/66
f 64/64/64 66/66/66 67/67/67
f 65/65/65 68/68/68 69/69/69
f 65/65/65 69/69/69 66/66/66
f 68/68/68 70/70/70 71/71/71
f 68/68/68 71/71/71 69/69/69
f 72/72/72 64/64/64 67/67/67
f 72/72/72 67/67/67 73/73/73
f 67/67/67 66/66/66 74/74/74
f 67/67/67 74/74/74 75/75/75
f 66/66/66 69/69/69 76/76/76
f 66/66/66 76/76/76 74/74/74
f 69/69/69 71/71/71 77/77/77
f 69/69/69 77/77/77 76/76/76
f 73/73/73 67/67/67 75/75/75
f 73/73/73 75/75/75 78/78/78
f 68/68/68 72/72/72 70/70/70
f 65/65/65 72/72/72 68/68/68
f 64/64/64 72/72/72 65/65/65
f 76/76/76 77/77/77 78/78/78
f 74/74/74 76/76/76 78/78/78
f 75/75/75 74/74/74 78/78/78
f 79/79/79 80/80/80 81/81/81
f 82/82/82 79/79/79 81/81/81
f 83/83/83 82/82/82 81/81/81
f 84/84/84 85/85/85 86/86/86
f 84/84/84 86/86/86 87/87/87
f 85/85/85 88/88/88 89/89/89
f 85/85/85 89/89/89 86/86/86
f 88/88/88 90/90/90 91/91/91
f 88/88/88 91/91/91 89/89/89
f 92/92/92 84/84/84 87/87/87
f 92/92/92 87/87/87 93/93/93
f 88/88/88 92/92/92 90/90/90
f 85/85/85 92/92/92 88/88/88
f 84/84/84 92/92/92 85/85/85
f 94/94/94 95/95/95 96/96/96
f 94/94/94 96/96/96 97/97/97
f 95/95/95 98/98/98 99/99/99
f 95/95/95 99/99/99 96/96/96
f 98/98/98 100/100/100 101/101/101
f 98/98/98 101/101/101 99/99/99
f 102/102/102 94/94/94 97/97/97
f 102/102/102 97/97/97 103/103/103
o datan_common_mobbody34x_b11d19b1_mesh04
v 0.123532 0.260547 -0.589051
v 0.098448 0.279391 -0.59431
v 0.043287 0.275272 -0.281476
v 0.126064 0.213086 -0.264123
v 0.073079 0.260547 -0.597948
v -0.040432 0.213086 -0.293481
v 0.082484 0.230057 -0.594938
v -0.009397 0.112467 -0.283548
v 0.113665 0.230057 -0.589439
v 0.093503 0.112467 -0.265404
v -0.020232 -0.057082 0.078759
v 0.073814 -0.059797 0.032197
v -0.092681 -0.059797 0.002839
v -0.043411 -0.06419 -0.090644
v 0.059489 -0.06419 -0.0725
vt 0.976485 0.317131
vt 0.976485 0.453438
vt 0.757656 0.453438
vt 0.757656 0.286506
vt 0.976485 0.286496
vt 0.757656 0.286496
vt 0.976484 0.047005
vt 0.757656 0.047006
vt 0.976484 0.047011
vt 0.757656 0.047012
vt 0.523516 0.453438
vt 0.523516 0.286506
vt 0.523516 0.286497
vt 0.523515 0.047006
vt 0.523515 0.047012
vn 0.836431 0.461141 -0.296196
vn -0.07785 0.750086 -0.656742
vn -0.039209 0.923326 0.382011
vn 0.923242 0.268462 0.274869
vn -0.577566 0.030398 -0.815778
vn -0.93518 0.293109 -0.198811
vn -0.189633 -0.725605 -0.661466
vn -0.466081 -0.674931 -0.572046
vn 0.54782 -0.371924 -0.749377
vn 0.619861 -0.713894 -0.325773
vn 0.053759 0.729379 0.681994
vn 0.981265 0.019496 0.191673
vn -0.860728 0.440795 0.254651
vn -0.61343 -0.525235 -0.589773
vn 0.455847 -0.694978 -0.556067
usemtl datan_common_mobbody34x_b11d19b1
f 104/104/104 105/105/105 106/106/106
f 104/104/104 106/106/106 107/107/107
f 105/105/105 108/108/108 109/109/109
f 105/105/105 109/109/109 106/106/106
f 108/108/108 110/110/110 111/111/111
f 108/108/108 111/111/111 109/109/109
f 110/110/110 112/112/112 113/113/113
f 110/110/110 113/113/113 111/111/111
f 112/112/112 104/104/104 107/107/107
f 112/112/112 107/107/107 113/113/113
f 107/107/107 106/106/106 114/114/114
f 107/107/107 114/114/114 115/115/115
f 106/106/106 109/109/109 116/116/116
f 106/106/106 116/116/116 114/114/114
f 109/109/109 111/111/111 117/117/117
f 109/109/109 117/117/117 116/116/116
f 111/111/111 113/113/113 118/118/118
f 111/111/111 118/118/118 117/117/117
f 113/113/113 107/107/107 115/115/115
f 113/113/113 115/115/115 118/118/118
f 108/108/108 112/112/112 110/110/110
f 105/105/105 112/112/112 108/108/108
f 104/104/104 112/112/112 105/105/105
