# Generated from Nova1492 GX by tools/nova1492/GxObjConverter
mtllib datan_common_mobbody31_1a23de3a.mtl
o datan_common_mobbody31_1a23de3a
v -0.193789 0.000004 0.317495
v 0 0.000004 0.317495
v 0 0.148017 0.406394
v -0.24805 0.148017 0.406394
v 0.193789 0.000004 0.317495
v 0.24805 0.148017 0.406394
v 0 0.356176 0.325115
v -0.19844 0.356176 0.325115
v 0.19844 0.356176 0.325115
v 0 0.430113 0.156305
v -0.095404 0.430113 0.156305
v 0.095404 0.430113 0.156305
v -0.193789 0.000004 -0.317495
v -0.24805 0.148017 -0.406394
v 0 0.148017 -0.406394
v 0 0.000004 -0.317495
v 0.24805 0.148017 -0.406394
v 0.193789 0.000004 -0.317495
v -0.19844 0.356176 -0.325115
v 0 0.356176 -0.325115
v 0.19844 0.356176 -0.325115
v -0.095404 0.430113 -0.156306
v 0 0.430113 -0.156306
v 0.095404 0.430113 -0.156306
v 0.431607 0.148017 0
v 0.337193 0.000004 0
v 0.345286 0.356176 -0
v 0.166003 0.430113 -0
v 0.24805 0.148017 0.406394
v 0.193789 0.000004 0.317495
v 0.19844 0.356176 0.325115
v 0.095404 0.430113 0.156305
v 0 0.430113 -0
v -0.166003 0.430113 -0
v 0 0.430113 0.156305
v -0.095404 0.430113 0.156305
v -0.345286 0.356176 -0
v -0.431607 0.148017 0
v -0.337193 0.000004 0
v -0.19844 0.356176 0.325115
v -0.24805 0.148017 0.406394
v -0.193789 0.000004 0.317495
v -0.335782 0.422489 -0.393138
v -0.000019 0.422489 -0.043872
v -0.000019 0.422489 -0.497355
v -0.335782 0.422489 -0.670908
v 0.335744 0.422489 -0.393138
v 0.335744 0.422489 -0.670908
v -0.40965 0.273792 -0.394177
v -0.000019 0.343424 -0.051922
v 0.409612 0.273792 -0.394177
v 0.409612 0.218413 -0.666371
v -0.000019 0.253014 -0.496301
v -0.40965 0.218413 -0.666371
v -0.013463 0.403004 0.215856
v -0.037301 0.631676 -0.103384
v -0.067032 0.759333 -0.642726
v -0.038092 0.403004 -0.487613
v -0.020392 1.083264 0.076672
v -0.036426 1.083264 -0.057138
v 0.012271 0.403004 0.215856
v 0.0369 0.403004 -0.487613
v 0.06584 0.759333 -0.642726
v 0.036109 0.631676 -0.103384
v 0.035234 1.083264 -0.057138
v 0.0192 1.083264 0.076672
vt 0.287367 0.023516
vt 0.371172 0.023515
vt 0.371172 0.169352
vt 0.261758 0.169352
vt 0.462633 0.023515
vt 0.488242 0.169352
vt 0.371172 0.395985
vt 0.285172 0.395985
vt 0.464828 0.395985
vt 0.371172 0.476485
vt 0.333801 0.476485
vt 0.416199 0.476484
vt 0.71999 0.524054
vt 0.737912 0.66952
vt 0.737912 0.66952
vt 0.712334 0.524054
vt 0.737912 0.684833
vt 0.712334 0.524054
vt 0.714526 0.895633
vt 0.714526 0.895633
vt 0.714526 0.895633
vt 0.673613 0.975946
vt 0.673613 0.975946
vt 0.673613 0.975946
vt 0.62864 0.684833
vt 0.62864 0.524054
vt 0.62864 0.895633
vt 0.62864 0.975947
vt 0.511713 0.684833
vt 0.537291 0.524054
vt 0.535098 0.895633
vt 0.583668 0.975947
vt 0.62864 0.975947
vt 0.62864 0.975947
vt 0.583668 0.975947
vt 0.583668 0.975947
vt 0.62864 0.910945
vt 0.62864 0.684833
vt 0.62864 0.524054
vt 0.535098 0.910945
vt 0.511713 0.684833
vt 0.537291 0.524054
vt 0.011758 0.484141
vt 0.011758 0.484141
vt 0.238242 0.48414
vt 0.238242 0.476484
vt 0.011758 0.476484
vt 0.238242 0.476483
vt 0.011758 0.023517
vt 0.011758 0.023516
vt 0.011758 0.023516
vt 0.238242 0.023515
vt 0.238242 0.023515
vt 0.238242 0.023516
vt 0.011758 0.023516
vt 0.011758 0.242344
vt 0.238242 0.242344
vt 0.238242 0.023516
vt 0.011758 0.476485
vt 0.238242 0.476484
vt 0.011758 0.023516
vt 0.238242 0.023516
vt 0.238242 0.242344
vt 0.011758 0.242344
vt 0.238242 0.476484
vt 0.011758 0.476485
vn 0 -0.514884 0.85726
vn 0 -0.514884 0.85726
vn 0 -0.084206 0.996448
vn 0 0.077902 0.996961
vn 0 -0.514884 0.85726
vn 0 -0.244101 0.96975
vn 0 0.692622 0.721301
vn 0 0.784806 0.619742
vn 0 0.587409 0.80929
vn 0 0.915993 0.401195
vn 0 0.915993 0.401195
vn 0 0.915993 0.401195
vn -0.292507 -0.568889 -0.768639
vn -0.534246 -0.0966 -0.839792
vn 0 -0.084206 -0.996448
vn 0 -0.514884 -0.85726
vn 0.548511 -0.101561 -0.829953
vn 0.585015 -0.56432 -0.582496
vn -0.407881 0.747615 -0.524123
vn 0 0.692621 -0.721302
vn 0.314016 0.747687 -0.585113
vn -0.193466 0.9624 -0.190674
vn 0 0.978773 -0.204949
vn 0.077371 0.9767 -0.200177
vn 0.99588 -0.090491 0.005906
vn 0.836372 -0.533503 0.125922
vn 0.696143 0.71675 -0.040685
vn 0.192831 0.980802 -0.029032
vn 0.885261 -0.237561 0.399848
vn 0.787891 -0.502579 0.355869
vn 0.743547 0.57823 0.33584
vn 0.255586 0.959869 0.115441
vn 0 1 0
vn -0.192831 0.980802 0.029032
vn 0 1 0
vn -0.127793 0.99012 0.057721
vn -0.696143 0.71675 0.040685
vn -0.99588 -0.090491 -0.005906
vn -0.836372 -0.533503 -0.125922
vn -0.573171 0.777466 0.258886
vn -0.908815 0.074541 0.410487
vn -0.787891 -0.502578 0.355869
vn -0.621325 0.771068 0.139321
vn -0.152994 0.823024 0.547015
vn -0.096396 0.719128 -0.68816
vn -0.042449 0.546729 -0.836233
vn 0.717551 0.537075 0.443476
vn 0.447175 0.840945 -0.304707
vn -0.825447 0.261621 0.500191
vn 0.317747 0.071604 0.945468
vn 0.89024 0.394398 0.227865
vn 0.055094 0.079829 -0.995285
vn 0.168403 -0.062461 -0.983737
vn -0.775142 0.334694 -0.53585
vn -0.899609 0.318519 0.298747
vn -0.753877 0.302861 0.583048
vn -0.812808 0.336881 -0.475241
vn -0.447001 -0.38731 -0.806338
vn -0.446014 0.111864 0.888008
vn -0.568998 0.817527 -0.088832
vn 0.712626 0.542655 0.444623
vn 0.707179 -0.329701 -0.625455
vn 0.807937 -0.008989 -0.589201
vn 0.74724 0.004419 0.66454
vn 0.57285 0.787115 -0.228677
vn 0.457667 0.746477 0.483025
usemtl datan_common_mobbody31_1a23de3a
f 1/1/1 2/2/2 3/3/3
f 3/3/3 4/4/4 1/1/1
f 2/2/2 5/5/5 6/6/6
f 6/6/6 3/3/3 2/2/2
f 4/4/4 3/3/3 7/7/7
f 7/7/7 8/8/8 4/4/4
f 3/3/3 6/6/6 9/9/9
f 9/9/9 7/7/7 3/3/3
f 8/8/8 7/7/7 10/10/10
f 10/10/10 11/11/11 8/8/8
f 7/7/7 9/9/9 12/12/12
f 12/12/12 10/10/10 7/7/7
f 13/13/13 14/14/14 15/15/15
f 15/15/15 16/16/16 13/13/13
f 16/16/16 15/15/15 17/17/17
f 17/17/17 18/18/18 16/16/16
f 14/14/14 19/19/19 20/20/20
f 20/20/20 15/15/15 14/14/14
f 15/15/15 20/20/20 21/21/21
f 21/21/21 17/17/17 15/15/15
f 19/19/19 22/22/22 23/23/23
f 23/23/23 20/20/20 19/19/19
f 20/20/20 23/23/23 24/24/24
f 24/24/24 21/21/21 20/20/20
f 18/18/18 17/17/17 25/25/25
f 25/25/25 26/26/26 18/18/18
f 17/17/17 21/21/21 27/27/27
f 27/27/27 25/25/25 17/17/17
f 21/21/21 24/24/24 28/28/28
f 28/28/28 27/27/27 21/21/21
f 26/26/26 25/25/25 29/29/29
f 29/29/29 30/30/30 26/26/26
f 25/25/25 27/27/27 31/31/31
f 31/31/31 29/29/29 25/25/25
f 27/27/27 28/28/28 32/32/32
f 32/32/32 31/31/31 27/27/27
f 24/24/24 23/23/23 33/33/33
f 33/33/33 28/28/28 24/24/24
f 23/23/23 22/22/22 34/34/34
f 34/34/34 33/33/33 23/23/23
f 28/28/28 33/33/33 35/35/35
f 35/35/35 32/32/32 28/28/28
f 33/33/33 34/34/34 36/36/36
f 36/36/36 35/35/35 33/33/33
f 22/22/22 19/19/19 37/37/37
f 37/37/37 34/34/34 22/22/22
f 19/19/19 14/14/14 38/38/38
f 38/38/38 37/37/37 19/19/19
f 14/14/14 13/13/13 39/39/39
f 39/39/39 38/38/38 14/14/14
f 34/34/34 37/37/37 40/40/40
f 40/40/40 36/36/36 34/34/34
f 37/37/37 38/38/38 41/41/41
f 41/41/41 40/40/40 37/37/37
f 38/38/38 39/39/39 42/42/42
f 42/42/42 41/41/41 38/38/38
f 43/43/43 44/44/44 45/45/45
f 45/45/45 46/46/46 43/43/43
f 44/44/44 47/47/47 48/48/48
f 48/48/48 45/45/45 44/44/44
f 49/49/49 50/50/50 44/44/44
f 44/44/44 43/43/43 49/49/49
f 50/50/50 51/51/51 47/47/47
f 47/47/47 44/44/44 50/50/50
f 51/51/51 52/52/52 48/48/48
f 48/48/48 47/47/47 51/51/51
f 52/52/52 53/53/53 45/45/45
f 45/45/45 48/48/48 52/52/52
f 53/53/53 54/54/54 46/46/46
f 46/46/46 45/45/45 53/53/53
f 54/54/54 49/49/49 43/43/43
f 43/43/43 46/46/46 54/54/54
f 55/55/55 56/56/56 57/57/57
f 57/57/57 58/58/58 55/55/55
f 56/56/56 59/59/59 60/60/60
f 60/60/60 57/57/57 56/56/56
f 61/61/61 62/62/62 63/63/63
f 63/63/63 64/64/64 61/61/61
f 64/64/64 63/63/63 65/65/65
f 65/65/65 66/66/66 64/64/64
