# Generated from Nova1492 GX by tools/nova1492/GxObjConverter
mtllib datan_common_moblegs36x_75997fd9.mtl
o datan_common_moblegs36x_75997fd9
v 0 -0.006226 0.003145
v 0 0.000063 0.003145
v 0 0.000063 -0.003145
v 0 -0.006226 -0.003145
v 0.006289 -0.006226 0.003145
v 0.006289 -0.006226 -0.003145
v 0.006289 0.000063 -0.003145
v 0.006289 0.000063 0.003145
v 0 -0.006226 -0.003145
v 0.006289 -0.006226 -0.003145
vt 0.03125 0.96875
vt 0.03125 0.96875
vt 0.03125 0.96875
vt 0.046563 0.953438
vt 0.03125 0.96875
vt 0.03125 0.96875
vt 0.03125 0.96875
vt 0.046563 0.953438
vt 0.03125 0.96875
vt 0.046563 0.953438
vn -0.894427 0 0.447214
vn -0.447214 0 0.894427
vn -0.894427 0 -0.447214
vn -1 0 0
vn 0.707107 0 0.707107
vn 1 0 0
vn 0.707107 0 -0.707107
vn 0.707107 0 0.707107
vn 0 0 -1
vn 0 0 -1
usemtl datan_common_moblegs36x_75997fd9
f 1/1/1 2/2/2 3/3/3
f 3/3/3 4/4/4 1/1/1
f 5/5/5 6/6/6 7/7/7
f 7/7/7 8/8/8 5/5/5
f 9/9/9 3/3/3 7/7/7
f 7/7/7 10/10/10 9/9/9
