# Generated from Nova1492 GX by tools/nova1492/GxObjConverter
mtllib datan_common_moblegs31_7a686f89.mtl
o datan_common_moblegs31_7a686f89
v -0.286036 -0.447695 -0.361318
v -0.286036 -0.201303 -0.361318
v 0.286036 -0.201303 -0.361318
v 0.286036 -0.447695 -0.361318
v -0.143018 0.000018 -0.361318
v 0.143018 0.000018 -0.361318
v -0.08009 -0.28111 1.713368
v 0.08009 -0.28111 1.713368
v 0.08009 -0.21212 1.677305
v -0.08009 -0.21212 1.677305
v 0.040045 -0.15575 1.613813
v -0.040045 -0.15575 1.613813
v 0.286036 -0.201303 0.577708
v 0.286036 -0.447695 0.577708
v 0.143018 0.000018 0.577708
v 0.16018 -0.207914 0.765851
v 0.16018 -0.345893 0.765851
v 0.08009 -0.095173 0.765851
v -0.143018 0.000018 0.577708
v -0.08009 -0.095173 0.765851
v -0.286036 -0.201303 0.577708
v -0.286036 -0.447695 0.577708
v -0.16018 -0.207914 0.765851
v -0.16018 -0.345893 0.765851
v -0.54161 -0.860409 1.563256
v 0.000004 -0.860409 2.248741
v 0.000004 -0.552737 2.175629
v -0.570056 -0.552737 1.59957
v 0.549999 -0.860409 1.542754
v 0.610423 -0.552737 1.589448
v 0.000004 -0.213813 1.848522
v -0.514816 -0.269474 1.441982
v 0.504409 -0.269474 1.461272
v 1.029644 -0.860409 1.243505
v 1.132608 -0.552737 1.243505
v 0.92668 -0.347539 1.243505
v -1.029636 -0.860409 1.243505
v -1.1326 -0.552737 1.243505
v -0.926672 -0.347539 1.243505
v -0.514816 -0.269474 1.441982
v 0.000004 -0.213813 1.848522
v 0.000004 -0.177993 1.243505
v -0.926672 -0.347539 1.243505
v 0.000004 -0.213813 0.042031
v -0.926672 -0.347539 1.048175
v 0.92668 -0.347539 1.243505
v 0.92668 -0.347539 1.048175
v 1.029644 -0.860409 1.243505
v 1.029644 -0.860409 1.048175
v 1.132608 -0.552737 1.048175
v 1.132608 -0.552737 1.243505
v 0.000004 -0.860409 -0.021502
v 0.000004 -0.552737 -0.087765
v -1.029636 -0.860409 1.048175
v -1.1326 -0.552737 1.048175
v -1.029636 -0.860409 1.243505
v -1.1326 -0.552737 1.243505
v 0.504409 -0.269474 1.461272
v 0.67159 -0.860409 -1.105756
v -0.000001 -0.860409 -0.852016
v -0.000001 -0.599207 -0.930724
v 0.738749 -0.599207 -1.184464
v -0.671592 -0.860409 -1.105756
v -0.738751 -0.599207 -1.184464
v -0.000001 -0.240765 -0.852016
v 0.470112 -0.338006 -1.055023
v -0.470114 -0.338006 -1.055023
v -0.470114 -0.338006 -0.21089
v -0.000001 -0.240765 -0.21089
v -0.000001 -0.240765 -0.852016
v -0.470114 -0.338006 -1.055023
v 0.470112 -0.338006 -0.21089
v 0.470112 -0.338006 -1.055023
v 0.67159 -0.860409 -0.21089
v 0.67159 -0.860409 -1.105756
v 0.738749 -0.599207 -1.184464
v 0.738749 -0.599207 -0.237126
v -0.671592 -0.860409 -1.105756
v -0.671592 -0.860409 -0.21089
v -0.738751 -0.599207 -0.237126
v -0.738751 -0.599207 -1.184464
v -0.001027 -0.158549 -1.461907
v -0.116262 -0.067474 -1.461907
v 0.001054 0.016023 -1.461907
v 0.11629 -0.075052 -1.461907
v 0.363377 -0.274737 -0.956492
v -0.003238 -0.622642 -0.956492
v 0.003266 0.104742 -0.956492
v 0.000502 -0.198774 -0.197281
v 0.054519 -0.255695 -0.197281
v -0.363349 -0.243163 -0.956492
v -0.05449 -0.250959 -0.197281
vt 0.193397 0.348315
vt 0.193397 0.348315
vt 0.308282 0.348315
vt 0.308282 0.344486
vt 0.216376 0.344486
vt 0.277647 0.344486
vt 0.237512 0.081398
vt 0.264167 0.081398
vt 0.264167 0.078448
vt 0.229855 0.078448
vt 0.255589 0.086734
vt 0.238433 0.086734
vt 0.308282 0.221944
vt 0.308282 0.221944
vt 0.277647 0.221944
vt 0.281323 0.197392
vt 0.281323 0.197392
vt 0.264167 0.197392
vt 0.216376 0.221944
vt 0.229855 0.197392
vt 0.185741 0.221944
vt 0.185741 0.221944
vt 0.2127 0.197392
vt 0.2127 0.197392
vt 0.268697 0.761758
vt 0.496172 0.761758
vt 0.496172 0.865513
vt 0.256348 0.87317
vt 0.734941 0.761758
vt 0.761173 0.865513
vt 0.496172 0.988242
vt 0.28033 0.975743
vt 0.715149 0.968087
vt 0.943168 0.761758
vt 0.987868 0.865513
vt 0.898468 0.947475
vt 0.056832 0.761758
vt 0.012132 0.87317
vt 0.101532 0.947475
vt 0.143945 0.108989
vt 0.246172 0.063628
vt 0.246172 0.134872
vt 0.056038 0.134872
vt 0.246172 0.291557
vt 0.056038 0.160345
vt 0.443962 0.134872
vt 0.443962 0.160345
vt 0.473595 0.142528
vt 0.473595 0.160345
vt 0.487915 0.160345
vt 0.487915 0.134872
vt 0.246172 0.299842
vt 0.246172 0.308484
vt 0.034061 0.160345
vt 0.012085 0.160345
vt 0.026405 0.134872
vt 0.012085 0.134872
vt 0.357382 0.100777
vt 0.533878 0.511758
vt 0.746172 0.511758
vt 0.746172 0.6028
vt 0.511882 0.610457
vt 0.966122 0.511758
vt 0.988118 0.6028
vt 0.753828 0.738242
vt 0.599863 0.701499
vt 0.907794 0.701499
vt 0.153127 0.332512
vt 0.246172 0.332512
vt 0.246172 0.408522
vt 0.145471 0.435015
vt 0.346873 0.324856
vt 0.346873 0.435015
vt 0.397687 0.332512
vt 0.397687 0.441635
vt 0.404416 0.451906
vt 0.404416 0.32828
vt 0.102314 0.441635
vt 0.102314 0.332512
vt 0.095584 0.335936
vt 0.087928 0.451906
vt 0.870837 0.491945
vt 0.841366 0.491945
vt 0.871507 0.491945
vt 0.916291 0.488117
vt 0.988242 0.294728
vt 0.87778 0.294728
vt 0.879876 0.294728
vt 0.878985 0.011882
vt 0.896389 0.011882
vt 0.761758 0.294728
vt 0.861268 0.011883
vn -1 0 0
vn -1 0 0
vn 0.81523 0.579138 0
vn 1 0 0
vn -0.81523 0.579138 0
vn -0 1 0
vn -0.995097 0.045818 0.087651
vn 0.995787 0.04248 0.081266
vn 0.773746 0.629517 0.070894
vn -0.995097 0.045818 0.087651
vn -0 0.997458 0.071257
vn -0.766756 0.636718 0.081696
vn 0.709568 0.50407 0.492369
vn 0.831178 0 0.556007
vn -0 0.892293 0.451456
vn 0.773746 0.629517 0.070894
vn 0.995787 0.04248 0.081266
vn -0 0.997458 0.071257
vn -0.70957 0.504071 0.492364
vn -0.766756 0.636718 0.081696
vn -0.831178 0 0.556007
vn -0.831178 0 0.556007
vn -0.995097 0.045818 0.087651
vn -0.996447 0 0.084226
vn -0.542023 -0.147755 0.827273
vn 0.682687 0.168934 0.710915
vn 0.532461 0.587822 0.609057
vn -0.463767 0.498065 0.732701
vn 0.537644 -0.228754 0.811549
vn 0.46769 0.5037 0.726329
vn 0.532461 0.587822 0.609057
vn -0.454981 0.456599 0.764532
vn 0.46769 0.5037 0.726329
vn 0.521211 -0.174426 0.835413
vn 0.483054 0.484772 0.729147
vn 0.46769 0.5037 0.726329
vn -0.526458 -0.176182 0.831746
vn -0.454981 0.456599 0.764532
vn -0.454981 0.456599 0.764532
vn -0.179958 0.983583 -0.013436
vn 0.153684 0.986393 0.058399
vn 0.179973 0.983665 -0.003639
vn -0.70585 0.708361 0
vn -0.729181 0.244738 -0.639061
vn -0.70585 0.708361 0
vn 0.179973 0.983665 -0.003639
vn 0.61692 0.619115 -0.485908
vn 0.948307 -0.317356 0
vn 0.689061 -0.230598 -0.687037
vn 0.61692 0.619115 -0.485908
vn 0.70585 0.708361 -0
vn -0.700098 -0.150336 -0.698042
vn -0.729181 0.244738 -0.639061
vn -0.948307 -0.317356 -0
vn -0.70585 0.708361 0
vn -0.948307 -0.317356 0
vn -0.70585 0.708361 0
vn 0.179973 0.983665 -0.003639
vn -0.318446 -0.197497 -0.927139
vn 0.312406 -0.274075 -0.909552
vn 0.353103 0.200658 -0.913813
vn -0.385208 0.060172 -0.920866
vn 0.347158 -0.187616 -0.918848
vn 0.321942 0.13339 -0.937316
vn 0.353103 0.200658 -0.913813
vn -0.385208 0.060172 -0.920866
vn 0.353103 0.200658 -0.913813
vn -0.697114 0.71696 0
vn 0.202558 0.97927 -0
vn 0.202558 0.97927 -0
vn -0.697114 0.71696 0
vn 0.697114 0.71696 -0
vn 0.697114 0.71696 -0
vn 0.968499 -0.249016 0
vn 0.968499 -0.249016 0
vn 0.697114 0.71696 0
vn 0.697114 0.71696 -0
vn -0.968499 -0.249016 -0
vn -0.968499 -0.249016 0
vn -0.697114 0.71696 0
vn -0.697114 0.71696 0
vn -0.502459 -0.635749 -0.585969
vn -0.623676 -0.591845 -0.510635
vn -0.683097 0.719833 -0.123368
vn 0.72291 0.686014 -0.082378
vn 0.698897 0.66324 0.267686
vn -0.623676 -0.591845 -0.510635
vn -0.661556 0.697141 0.276293
vn -0.661556 0.697141 0.276293
vn 0.698897 0.66324 0.267686
vn -0.623676 -0.591845 -0.510635
vn -0.661556 0.697141 0.276293
usemtl datan_common_moblegs31_7a686f89
f 1/1/1 2/2/2 3/3/3
f 3/3/3 4/4/4 1/1/1
f 2/2/2 5/5/5 6/6/6
f 6/6/6 3/3/3 2/2/2
f 7/7/7 8/8/8 9/9/9
f 9/9/9 10/10/10 7/7/7
f 10/10/10 9/9/9 11/11/11
f 11/11/11 12/12/12 10/10/10
f 4/4/4 3/3/3 13/13/13
f 13/13/13 14/14/14 4/4/4
f 3/3/3 6/6/6 15/15/15
f 15/15/15 13/13/13 3/3/3
f 14/14/14 13/13/13 16/16/16
f 16/16/16 17/17/17 14/14/14
f 13/13/13 15/15/15 18/18/18
f 18/18/18 16/16/16 13/13/13
f 17/17/17 16/16/16 9/9/9
f 9/9/9 8/8/8 17/17/17
f 16/16/16 18/18/18 11/11/11
f 11/11/11 9/9/9 16/16/16
f 6/6/6 5/5/5 19/19/19
f 19/19/19 15/15/15 6/6/6
f 15/15/15 19/19/19 20/20/20
f 20/20/20 18/18/18 15/15/15
f 18/18/18 20/20/20 12/12/12
f 12/12/12 11/11/11 18/18/18
f 5/5/5 2/2/2 21/21/21
f 21/21/21 19/19/19 5/5/5
f 2/2/2 1/1/1 22/22/22
f 22/22/22 21/21/21 2/2/2
f 19/19/19 21/21/21 23/23/23
f 23/23/23 20/20/20 19/19/19
f 21/21/21 22/22/22 24/24/24
f 24/24/24 23/23/23 21/21/21
f 20/20/20 23/23/23 10/10/10
f 10/10/10 12/12/12 20/20/20
f 23/23/23 24/24/24 7/7/7
f 7/7/7 10/10/10 23/23/23
f 25/25/25 26/26/26 27/27/27
f 27/27/27 28/28/28 25/25/25
f 26/26/26 29/29/29 30/30/30
f 30/30/30 27/27/27 26/26/26
f 28/28/28 27/27/27 31/31/31
f 31/31/31 32/32/32 28/28/28
f 27/27/27 30/30/30 33/33/33
f 33/33/33 31/31/31 27/27/27
f 29/29/29 34/34/34 35/35/35
f 35/35/35 30/30/30 29/29/29
f 30/30/30 35/35/35 36/36/36
f 36/36/36 33/33/33 30/30/30
f 37/37/37 25/25/25 28/28/28
f 28/28/28 38/38/38 37/37/37
f 38/38/38 28/28/28 32/32/32
f 32/32/32 39/39/39 38/38/38
f 40/40/40 41/41/41 42/42/42
f 42/42/42 43/43/43 40/40/40
f 43/43/43 42/42/42 44/44/44
f 44/44/44 45/45/45 43/43/43
f 42/42/42 46/46/46 47/47/47
f 47/47/47 44/44/44 42/42/42
f 48/48/48 49/49/49 50/50/50
f 50/50/50 51/51/51 48/48/48
f 51/51/51 50/50/50 47/47/47
f 47/47/47 46/46/46 51/51/51
f 49/49/49 52/52/52 53/53/53
f 53/53/53 50/50/50 49/49/49
f 52/52/52 54/54/54 55/55/55
f 55/55/55 53/53/53 52/52/52
f 50/50/50 53/53/53 44/44/44
f 44/44/44 47/47/47 50/50/50
f 53/53/53 55/55/55 45/45/45
f 45/45/45 44/44/44 53/53/53
f 54/54/54 56/56/56 57/57/57
f 57/57/57 55/55/55 54/54/54
f 55/55/55 57/57/57 43/43/43
f 43/43/43 45/45/45 55/55/55
f 42/42/42 41/41/41 58/58/58
f 46/46/46 42/42/42 58/58/58
f 59/59/59 60/60/60 61/61/61
f 61/61/61 62/62/62 59/59/59
f 60/60/60 63/63/63 64/64/64
f 64/64/64 61/61/61 60/60/60
f 62/62/62 61/61/61 65/65/65
f 65/65/65 66/66/66 62/62/62
f 61/61/61 64/64/64 67/67/67
f 67/67/67 65/65/65 61/61/61
f 68/68/68 69/69/69 70/70/70
f 70/70/70 71/71/71 68/68/68
f 69/69/69 72/72/72 73/73/73
f 73/73/73 70/70/70 69/69/69
f 74/74/74 75/75/75 76/76/76
f 76/76/76 77/77/77 74/74/74
f 77/77/77 76/76/76 73/73/73
f 73/73/73 72/72/72 77/77/77
f 78/78/78 79/79/79 80/80/80
f 80/80/80 81/81/81 78/78/78
f 81/81/81 80/80/80 68/68/68
f 68/68/68 71/71/71 81/81/81
f 82/82/82 83/83/83 84/84/84
f 84/84/84 85/85/85 82/82/82
f 82/82/82 85/85/85 86/86/86
f 86/86/86 87/87/87 82/82/82
f 85/85/85 84/84/84 88/88/88
f 88/88/88 86/86/86 85/85/85
f 86/86/86 88/88/88 89/89/89
f 89/89/89 90/90/90 86/86/86
f 84/84/84 83/83/83 91/91/91
f 91/91/91 88/88/88 84/84/84
f 88/88/88 91/91/91 92/92/92
