# Generated from Nova1492 GX by tools/nova1492/GxObjConverter
mtllib datan_common_mop06-legs_238cb289.mtl
o datan_common_mop06-legs_238cb289
v -0.165164 0.378119 0.798384
v 0.165164 0.378119 0.798384
v 0.165164 0.378119 0.645739
v -0.165164 0.378119 0.645739
v 0.165164 0.241723 0.645739
v -0.165164 0.241723 0.645739
v -0.165164 0.378119 0.645739
v 0.165164 0.378119 0.645739
v -0.215876 0.417826 0.474075
v -0.215876 0.417826 0.829898
v -0.170178 0.417826 0.829898
v -0.170178 0.417826 0.801491
v -0.170178 0.417826 0.474075
v -0.170178 0.245807 0.875037
v -0.215876 0.245807 0.875037
v -0.215876 -0.202399 0.875037
v 0.214897 -0.202399 0.875037
v 0.214897 0.245807 0.875037
v 0.169199 0.245807 0.875037
v 0.214897 -0.202399 0.875037
v 0.214898 -0.202399 0.010884
v 0.214898 0.245807 0.010884
v 0.214897 0.245807 0.474075
v 0.214897 0.245807 0.875037
v -0.215876 -0.202399 0.010884
v -0.215876 -0.202399 0.875037
v -0.215876 0.245807 0.875037
v -0.215876 0.245807 0.474075
v -0.215876 0.245807 0.010884
v 0.214897 0.417826 0.829898
v 0.214897 0.417826 0.474075
v 0.169199 0.417826 0.474075
v 0.169199 0.417826 0.801491
v 0.169199 0.417826 0.829898
v -0.170178 0.245807 0.474075
v 0.169199 0.245807 0.474075
v 0.214897 0.245807 0.474075
v 0.214898 0.245807 0.010884
v -0.215876 0.245807 0.010884
v -0.215876 0.245807 0.474075
v -0.170178 0.245807 0.84663
v 0.169199 0.245807 0.84663
v -0.170178 0.417826 0.829898
v -0.215876 0.417826 0.829898
v 0.169199 0.417826 0.829898
v 0.214897 0.417826 0.829898
v 0.214897 0.417826 0.474075
v 0.214897 0.417826 0.829898
v 0.214897 0.245807 0.474075
v 0.169199 0.245807 0.474075
v 0.169199 0.417826 0.474075
v 0.214897 0.417826 0.474075
v 0.169199 0.245807 0.474075
v 0.169199 0.245807 0.84663
v 0.169199 0.417826 0.801491
v 0.169199 0.417826 0.474075
v 0.169199 0.245807 0.84663
v -0.170178 0.245807 0.84663
v -0.170178 0.417826 0.801491
v 0.169199 0.417826 0.801491
v -0.170178 0.245807 0.84663
v -0.170178 0.245807 0.474075
v -0.170178 0.417826 0.474075
v -0.170178 0.417826 0.801491
v -0.170178 0.245807 0.474075
v -0.215876 0.245807 0.474075
v -0.215876 0.417826 0.474075
v -0.170178 0.417826 0.474075
v -0.215876 0.417826 0.829898
v -0.215876 0.417826 0.474075
v 0.411469 -0.200411 0.008549
v 0.307036 0.289154 0.00855
v 0.411469 0.243791 0.00855
v 0.207642 0.243791 0.00855
v 0.207642 -0.200411 0.008549
v 0.411469 -0.200411 0.805947
v 0.207642 -0.024977 0.805947
v 0.207642 -0.200411 0.805947
v 0.307036 0.020385 0.805947
v 0.411469 -0.024977 0.805947
v 0.307036 0.317057 0.163288
v 0.207642 0.243791 0.00855
v 0.207642 0.271694 0.163288
v 0.307036 0.289154 0.00855
v 0.411469 -0.200411 0.008549
v 0.411469 -0.024977 0.805947
v 0.411469 -0.200411 0.805947
v 0.411469 0.271694 0.163288
v 0.411469 0.243791 0.00855
v 0.411469 0.243791 0.00855
v 0.411469 0.271694 0.163288
v 0.307036 0.020385 0.805947
v 0.207642 -0.024977 0.805947
v 0.411469 -0.024977 0.805947
v 0.382273 -0.134359 0.747079
v 0.347432 -0.022115 0.893917
v 0.416861 -0.062659 0.820931
v 0.208824 -0.12497 0.8192
v 0.243413 -0.05327 0.893051
v 0.278254 -0.165515 0.746214
v 0.382273 -0.134359 0.747079
v 0.400776 -0.513543 1.086188
v 0.278254 -0.165515 0.746214
v 0.466051 -0.493992 1.086732
v 0.278254 -0.165515 0.746214
v 0.357206 -0.4881 1.131989
v 0.208824 -0.12497 0.8192
v 0.400776 -0.513543 1.086188
v 0.378912 -0.443106 1.178334
v 0.243413 -0.05327 0.893051
v 0.444187 -0.423555 1.178877
v 0.347432 -0.022115 0.893917
v 0.487757 -0.448998 1.133076
v 0.416861 -0.062659 0.820931
v 0.444187 -0.423555 1.178877
v 0.466051 -0.493992 1.086732
v 0.487757 -0.448998 1.133076
v 0.357206 -0.4881 1.131989
v 0.400776 -0.513543 1.086188
v 0.378912 -0.443106 1.178334
v -0.420027 -0.200411 0.008549
v -0.420027 0.243791 0.00855
v -0.315595 0.289154 0.00855
v -0.216201 0.243791 0.00855
v -0.216201 -0.200411 0.008549
v -0.420027 -0.200411 0.805947
v -0.216201 -0.200411 0.805947
v -0.216201 -0.024977 0.805947
v -0.315595 0.020385 0.805947
v -0.420027 -0.024977 0.805947
v -0.315595 0.317057 0.163288
v -0.216201 0.271694 0.163288
v -0.216201 0.243791 0.00855
v -0.315595 0.289154 0.00855
v -0.420027 -0.200411 0.008549
v -0.420027 -0.200411 0.805947
v -0.420027 -0.024977 0.805947
v -0.420027 0.271694 0.163288
v -0.420027 0.243791 0.00855
v -0.420027 0.243791 0.00855
v -0.420027 0.271694 0.163288
v -0.315595 0.020385 0.805947
v -0.216201 -0.024977 0.805947
v -0.420027 -0.024977 0.805947
v -0.410608 -0.097553 0.77778
v -0.40488 -0.033776 0.865479
v -0.310828 -0.022895 0.918649
v -0.222504 -0.075789 0.88412
v -0.228231 -0.139566 0.796422
v -0.322284 -0.150447 0.743252
v -0.410608 -0.097553 0.77778
v -0.322284 -0.150447 0.743252
v -0.43948 -0.515714 1.066614
v -0.494906 -0.482521 1.088282
v -0.322284 -0.150447 0.743252
v -0.228231 -0.139566 0.796422
v -0.380458 -0.508886 1.09998
v -0.43948 -0.515714 1.066614
v -0.222504 -0.075789 0.88412
v -0.376864 -0.468864 1.155014
v -0.310828 -0.022895 0.918649
v -0.432291 -0.435671 1.176682
v -0.40488 -0.033776 0.865479
v -0.491312 -0.442499 1.143316
v -0.432291 -0.435671 1.176682
v -0.491312 -0.442499 1.143316
v -0.494906 -0.482521 1.088282
v -0.43948 -0.515714 1.066614
v -0.380458 -0.508886 1.09998
v -0.376864 -0.468864 1.155014
vt 0.278648 0.4802
vt 0.278648 0.402844
vt 0.313617 0.402844
vt 0.313617 0.4802
vt 0.349462 0.402622
vt 0.349463 0.480027
vt 0.317421 0.480028
vt 0.313592 0.398795
vt 0.189587 0.477706
vt 0.13821 0.477707
vt 0.13821 0.47384
vt 0.144765 0.470012
vt 0.189587 0.470011
vt 0.09849 0.474226
vt 0.09849 0.478158
vt 0.015794 0.478158
vt 0.015794 0.405011
vt 0.09849 0.405011
vt 0.09849 0.412771
vt 0.015539 0.401958
vt 0.015538 0.246744
vt 0.098352 0.246743
vt 0.098353 0.328163
vt 0.098353 0.401958
vt 0.015538 0.246744
vt 0.015539 0.401958
vt 0.098353 0.401958
vt 0.098353 0.328163
vt 0.098352 0.242915
vt 0.138209 0.408995
vt 0.189586 0.408995
vt 0.189586 0.412862
vt 0.144764 0.412862
vt 0.134381 0.412862
vt 0.220853 0.329725
vt 0.160315 0.329725
vt 0.151647 0.329725
vt 0.151169 0.258084
vt 0.22947 0.258289
vt 0.229521 0.327811
vt 0.220854 0.401819
vt 0.156487 0.401819
vt 0.131697 0.470398
vt 0.131697 0.478158
vt 0.131698 0.412771
vt 0.131698 0.405011
vt 0.131605 0.328163
vt 0.131606 0.39365
vt 0.212878 0.408969
vt 0.212878 0.412857
vt 0.193684 0.412857
vt 0.189856 0.405141
vt 0.229889 0.416387
vt 0.229889 0.485804
vt 0.261583 0.476929
vt 0.261582 0.412559
vt 0.163573 0.468488
vt 0.163572 0.420141
vt 0.181414 0.420141
vt 0.181415 0.468488
vt 0.229889 0.485804
vt 0.229889 0.416387
vt 0.261582 0.416387
vt 0.261583 0.476929
vt 0.212878 0.473992
vt 0.212878 0.47788
vt 0.193684 0.47788
vt 0.189856 0.470164
vt 0.131606 0.39365
vt 0.131605 0.328163
vt 0.335071 0.017555
vt 0.230602 0.057507
vt 0.243015 0.017556
vt 0.23864 0.104931
vt 0.334525 0.10493
vt 0.011076 0.104948
vt 0.043631 0.017625
vt 0.011075 0.017625
vt 0.05304 0.0571
vt 0.043632 0.104948
vt 0.196675 0.057393
vt 0.226816 0.017522
vt 0.196759 0.017519
vt 0.22677 0.057383
vt 0.226871 0.220625
vt 0.057026 0.159228
vt 0.057026 0.220627
vt 0.193169 0.104915
vt 0.226871 0.104876
vt 0.226819 0.104933
vt 0.192935 0.104933
vt 0.056912 0.057291
vt 0.057002 0.017549
vt 0.057006 0.104942
vt 0.243075 0.182198
vt 0.315975 0.133825
vt 0.268651 0.133826
vt 0.315976 0.234398
vt 0.341552 0.182197
vt 0.264823 0.234398
vt 0.367567 0.024149
vt 0.484703 0.01513
vt 0.367567 0.014664
vt 0.484703 0.023752
vt 0.367568 0.107283
vt 0.484704 0.094011
vt 0.367783 0.093777
vt 0.484704 0.107397
vt 0.484704 0.074877
vt 0.363739 0.074662
vt 0.484704 0.059498
vt 0.363739 0.059469
vt 0.484703 0.039333
vt 0.363739 0.039719
vt 0.470481 0.165624
vt 0.437553 0.14823
vt 0.449805 0.165624
vt 0.470481 0.12318
vt 0.445977 0.12318
vt 0.482734 0.144402
vt 0.335071 0.017555
vt 0.243015 0.017556
vt 0.230602 0.057507
vt 0.23864 0.104931
vt 0.334525 0.10493
vt 0.011076 0.104948
vt 0.011075 0.017625
vt 0.043631 0.017625
vt 0.05304 0.0571
vt 0.043632 0.104948
vt 0.196675 0.057393
vt 0.196759 0.017519
vt 0.226816 0.017522
vt 0.22677 0.057383
vt 0.226871 0.220625
vt 0.057026 0.220627
vt 0.057026 0.159228
vt 0.193169 0.104915
vt 0.226871 0.104876
vt 0.226819 0.104933
vt 0.192935 0.104933
vt 0.056912 0.057291
vt 0.057002 0.017549
vt 0.057006 0.104942
vt 0.243075 0.182198
vt 0.268651 0.133826
vt 0.315975 0.133825
vt 0.341552 0.182197
vt 0.315976 0.234398
vt 0.264823 0.234398
vt 0.367567 0.024149
vt 0.367567 0.014664
vt 0.484703 0.01513
vt 0.484703 0.023752
vt 0.367568 0.107283
vt 0.367783 0.093777
vt 0.484704 0.094011
vt 0.484704 0.107397
vt 0.363739 0.074662
vt 0.484704 0.074877
vt 0.363739 0.059469
vt 0.484704 0.059498
vt 0.363739 0.039719
vt 0.484703 0.039333
vt 0.470481 0.165624
vt 0.449805 0.165624
vt 0.437553 0.14823
vt 0.445977 0.12318
vt 0.470481 0.12318
vt 0.482734 0.144402
vn 0 1 0
vn 0 1 0
vn 0 1 0
vn 0 1 0
vn 0 0 -1
vn 0 0 -1
vn 0 0 -1
vn 0 0 -1
vn 0.000003 1 -0
vn 0 1 0
vn 0.000003 1 -0.000001
vn 0.000002 1 -0.000001
vn 0 1 0
vn -0 0.153499 0.988149
vn 0 0.170454 0.985366
vn -0 -0 1
vn 0 -0 1
vn -0 0.085227 0.996362
vn 0 0.253813 0.967253
vn 1 0 0
vn 1 -0 0
vn 1 0 0
vn 1 0 0
vn 1 0 0
vn -1 -0 -0
vn -1 0 -0
vn -1 -0 -0
vn -1 -0 -0
vn -1 0 -0
vn -0 1 -0
vn 0 1 0
vn -0 1 0
vn -0 1 -0.000001
vn 0 1 -0.000001
vn 0 1 0
vn 0 1 0
vn 0 1 0
vn -0 1 0
vn -0 1 0
vn -0 1 0
vn 0 1 0
vn 0 1 0
vn 0 0.253813 0.967253
vn 0 0.253813 0.967253
vn 0 0.253813 0.967253
vn 0 0.253813 0.967253
vn 1 0 0
vn 1 0 0
vn 0 0 -1
vn 0 0 -1
vn 0 0 -1
vn 0 0 -1
vn -1 0 0
vn -1 0 0
vn -1 0 0
vn -1 0 0
vn 0 -0.253813 -0.967253
vn 0 -0.253813 -0.967253
vn 0 -0.253813 -0.967253
vn 0 -0.253813 -0.967253
vn 1 0 0
vn 1 0 0
vn 1 0 0
vn 1 0 0
vn 0 0 -1
vn 0 0 -1
vn 0 0 -1
vn 0 0 -1
vn -1 0 0
vn -1 0 0
vn 0 0 -1
vn 0 0 -1
vn 0 0 -1
vn -0 0 -1
vn 0 0 -1
vn -0 -0 1
vn 0 -0 1
vn -0 -0 1
vn -0 -0 1
vn -0 -0 1
vn -0.009306 0.999669 0.024001
vn -0.409719 0.897733 -0.161884
vn -0.405804 0.889156 0.211483
vn -0.00909 0.984087 -0.177456
vn 1 0 0
vn 1 0 0
vn 1 0 0
vn 1 0 0
vn 1 0 0
vn 0.393067 0.904915 -0.16318
vn 0.389263 0.896158 0.213015
vn -0.008593 0.907894 0.419112
vn -0.382808 0.838769 0.387202
vn 0.366875 0.844618 0.389902
vn -0.219241 0.749345 -0.624833
vn -0.219241 0.749345 -0.624832
vn -0.21924 0.749345 -0.624832
vn -0.219241 0.749345 -0.624832
vn -0.219242 0.749345 -0.624832
vn -0.219241 0.749344 -0.624833
vn 0.504419 -0.527853 -0.683325
vn 0.200111 -0.647692 -0.735153
vn 0.200111 -0.647692 -0.735153
vn 0.78209 -0.321804 -0.533645
vn -0.719844 -0.597891 -0.352635
vn -0.885454 -0.452614 -0.105414
vn -0.955251 -0.227755 0.188743
vn -0.719844 -0.597891 -0.352635
vn -0.747376 0.203153 0.632581
vn -0.469704 0.409203 0.782261
vn 0.155436 0.596441 0.787463
vn 0.502904 0.577631 0.642985
vn 0.920169 0.333963 0.20435
vn 0.989965 0.109104 -0.089807
vn 0.219241 -0.749346 0.624832
vn 0.21924 -0.749345 0.624833
vn 0.21924 -0.749345 0.624833
vn 0.219241 -0.749346 0.624832
vn 0.21924 -0.749345 0.624833
vn 0.219243 -0.749347 0.62483
vn -0 0 -1
vn -0 0 -1
vn -0 0 -1
vn 0 0 -1
vn 0 0 -1
vn 0 -0 1
vn 0 -0 1
vn -0 -0 1
vn 0 -0 1
vn 0 -0 1
vn 0.009306 0.999669 0.024001
vn 0.405804 0.889156 0.211483
vn 0.409718 0.897733 -0.161885
vn 0.00909 0.984087 -0.177456
vn -1 0 0
vn -1 0 0
vn -1 0 0
vn -1 0 0
vn -1 0 0
vn -0.393067 0.904915 -0.16318
vn -0.389263 0.896158 0.213015
vn 0.008592 0.907894 0.419112
vn 0.382807 0.838769 0.387202
vn -0.366875 0.844618 0.389902
vn 0.238619 0.777915 -0.581299
vn 0.238619 0.777915 -0.5813
vn 0.238619 0.777915 -0.581299
vn 0.238619 0.777915 -0.581299
vn 0.238619 0.777915 -0.581299
vn 0.238619 0.777915 -0.581299
vn -0.784023 -0.276546 -0.555725
vn -0.545898 -0.450331 -0.70654
vn -0.545898 -0.450331 -0.70654
vn -0.949488 -0.04282 -0.310868
vn 0.421413 -0.673164 -0.607669
vn 0.877282 -0.463642 -0.124149
vn 0.677393 -0.613203 -0.40635
vn 0.421413 -0.673164 -0.607669
vn 0.746241 0.153371 0.647767
vn 0.911705 -0.080355 0.40291
vn -0.149934 0.555426 0.817938
vn 0.215421 0.471261 0.855282
vn -0.915065 0.340467 0.216191
vn -0.715177 0.490028 0.498392
vn -0.238618 -0.777916 0.581299
vn -0.238619 -0.777916 0.581298
vn -0.238619 -0.777915 0.581299
vn -0.238619 -0.777914 0.581301
vn -0.238618 -0.777915 0.5813
vn -0.238616 -0.777915 0.581301
usemtl datan_common_mop06-legs_238cb289
f 1/1/1 2/2/2 3/3/3
f 3/3/3 4/4/4 1/1/1
f 5/5/5 6/6/6 7/7/7
f 7/7/7 8/8/8 5/5/5
f 9/9/9 10/10/10 11/11/11
f 9/9/9 11/11/11 12/12/12
f 9/9/9 12/12/12 13/13/13
f 14/14/14 15/15/15 16/16/16
f 16/16/16 17/17/17 18/18/18
f 14/14/14 16/16/16 18/18/18
f 14/14/14 18/18/18 19/19/19
f 20/20/20 21/21/21 22/22/22
f 20/20/20 22/22/22 23/23/23
f 20/20/20 23/23/23 24/24/24
f 25/25/25 26/26/26 27/27/27
f 25/25/25 27/27/27 28/28/28
f 25/25/25 28/28/28 29/29/29
f 30/30/30 31/31/31 32/32/32
f 30/30/30 32/32/32 33/33/33
f 30/30/30 33/33/33 34/34/34
f 34/34/34 33/33/33 12/12/12
f 12/12/12 11/11/11 34/34/34
f 35/35/35 36/36/36 37/37/37
f 38/38/38 39/39/39 40/40/40
f 37/37/37 38/38/38 40/40/40
f 35/35/35 37/37/37 40/40/40
f 36/36/36 35/35/35 41/41/41
f 41/41/41 42/42/42 36/36/36
f 15/15/15 14/14/14 43/43/43
f 43/43/43 44/44/44 15/15/15
f 14/14/14 19/19/19 45/45/45
f 45/45/45 43/43/43 14/14/14
f 19/19/19 18/18/18 46/46/46
f 46/46/46 45/45/45 19/19/19
f 24/24/24 23/23/23 47/47/47
f 47/47/47 48/48/48 24/24/24
f 49/49/49 50/50/50 51/51/51
f 51/51/51 52/52/52 49/49/49
f 53/53/53 54/54/54 55/55/55
f 55/55/55 56/56/56 53/53/53
f 57/57/57 58/58/58 59/59/59
f 59/59/59 60/60/60 57/57/57
f 61/61/61 62/62/62 63/63/63
f 63/63/63 64/64/64 61/61/61
f 65/65/65 66/66/66 67/67/67
f 67/67/67 68/68/68 65/65/65
f 28/28/28 27/27/27 69/69/69
f 69/69/69 70/70/70 28/28/28
f 71/71/71 72/72/72 73/73/73
f 71/71/71 74/74/74 72/72/72
f 71/71/71 75/75/75 74/74/74
f 76/76/76 77/77/77 78/78/78
f 76/76/76 79/79/79 77/77/77
f 76/76/76 80/80/80 79/79/79
f 81/81/81 82/82/82 83/83/83
f 82/82/82 81/81/81 84/84/84
f 85/85/85 86/86/86 87/87/87
f 85/85/85 88/88/88 86/86/86
f 85/85/85 89/89/89 88/88/88
f 81/81/81 90/90/90 84/84/84
f 90/90/90 81/81/81 91/91/91
f 83/83/83 92/92/92 81/81/81
f 92/92/92 83/83/83 93/93/93
f 92/92/92 91/91/91 81/81/81
f 91/91/91 92/92/92 94/94/94
f 95/95/95 96/96/96 97/97/97
f 96/96/96 98/98/98 99/99/99
f 95/95/95 98/98/98 96/96/96
f 95/95/95 100/100/100 98/98/98
f 101/101/101 102/102/102 103/103/103
f 102/102/102 101/101/101 104/104/104
f 105/105/105 106/106/106 107/107/107
f 106/106/106 105/105/105 108/108/108
f 107/107/107 109/109/109 110/110/110
f 109/109/109 107/107/107 106/106/106
f 110/110/110 111/111/111 112/112/112
f 111/111/111 110/110/110 109/109/109
f 112/112/112 113/113/113 114/114/114
f 113/113/113 112/112/112 111/111/111
f 114/114/114 104/104/104 101/101/101
f 104/104/104 114/114/114 113/113/113
f 115/115/115 116/116/116 117/117/117
f 116/116/116 118/118/118 119/119/119
f 115/115/115 118/118/118 116/116/116
f 115/115/115 120/120/120 118/118/118
f 121/121/121 122/122/122 123/123/123
f 121/121/121 123/123/123 124/124/124
f 121/121/121 124/124/124 125/125/125
f 126/126/126 127/127/127 128/128/128
f 126/126/126 128/128/128 129/129/129
f 126/126/126 129/129/129 130/130/130
f 131/131/131 132/132/132 133/133/133
f 133/133/133 134/134/134 131/131/131
f 135/135/135 136/136/136 137/137/137
f 135/135/135 137/137/137 138/138/138
f 135/135/135 138/138/138 139/139/139
f 131/131/131 134/134/134 140/140/140
f 140/140/140 141/141/141 131/131/131
f 132/132/132 131/131/131 142/142/142
f 142/142/142 143/143/143 132/132/132
f 142/142/142 131/131/131 141/141/141
f 141/141/141 144/144/144 142/142/142
f 145/145/145 146/146/146 147/147/147
f 147/147/147 148/148/148 149/149/149
f 145/145/145 147/147/147 149/149/149
f 145/145/145 149/149/149 150/150/150
f 151/151/151 152/152/152 153/153/153
f 153/153/153 154/154/154 151/151/151
f 155/155/155 156/156/156 157/157/157
f 157/157/157 158/158/158 155/155/155
f 156/156/156 159/159/159 160/160/160
f 160/160/160 157/157/157 156/156/156
f 159/159/159 161/161/161 162/162/162
f 162/162/162 160/160/160 159/159/159
f 161/161/161 163/163/163 164/164/164
f 164/164/164 162/162/162 161/161/161
f 163/163/163 151/151/151 154/154/154
f 154/154/154 164/164/164 163/163/163
f 165/165/165 166/166/166 167/167/167
f 167/167/167 168/168/168 169/169/169
f 165/165/165 167/167/167 169/169/169
f 165/165/165 169/169/169 170/170/170
