# Generated from Nova1492 GX by tools/nova1492/GxObjConverter
mtllib datan_common_moblegs39_e971e388.mtl
o datan_common_moblegs39_e971e388
v 0.157069 -0.008633 0.189495
v -0.157069 -0.008633 0.189495
v 0 -0.083079 0.525335
v 0 -0.392257 0.992405
v 0.327246 -0.2612 0.189495
v 0.260414 -0.008633 0.09544
v 0 -0.244355 0.848505
v 0.369788 -0.2612 -1.149941
v -0.369788 -0.2612 -1.149941
v -0.260414 -0.008633 -1.149941
v 0.260414 -0.008633 -1.149941
v -0.327246 -0.2612 0.189495
v -0.260414 -0.008633 0.09544
v -0.792005 0.022206 0.263699
v -0.247892 -0.13845 0.253958
v -0.263527 -0.025154 0.01174
v -0.305774 -0.14442 -1.068027
v -0.792005 0.012414 -0.836962
v -0.792005 0.105379 -0.637778
v -0.792005 0.105849 0.082201
v -1.092622 -0.049349 0.099555
v -0.25699 -0.013585 -0.7254
v -1.092622 -0.047824 -0.629475
v 0.247892 -0.13845 0.253958
v 0.792005 0.022206 0.263699
v 0.263527 -0.025154 0.01174
v 0.792005 0.012414 -0.836962
v 0.305774 -0.14442 -1.068027
v 0.792005 0.105379 -0.637778
v 0.792005 0.105849 0.082201
v 1.092622 -0.049349 0.099555
v 0.25699 -0.013585 -0.7254
v 1.092622 -0.047824 -0.629475
vt 0.920898 0.685579
vt 0.829102 0.685579
vt 0.875 0.61738
vt 0.878828 0.511882
vt 0.974774 0.685579
vt 0.953616 0.706823
vt 0.878828 0.544385
vt 0.988242 0.991945
vt 0.761758 0.991946
vt 0.796384 0.991946
vt 0.961272 0.988117
vt 0.775226 0.693236
vt 0.796384 0.714479
vt 0.184086 0.511882
vt 0.488118 0.515422
vt 0.479161 0.595777
vt 0.454961 0.988118
vt 0.184087 0.911815
vt 0.184087 0.83944
vt 0.17643 0.577831
vt 0.011882 0.571525
vt 0.482906 0.871278
vt 0.011883 0.836423
vt 0.488118 0.515422
vt 0.184086 0.511882
vt 0.479161 0.595777
vt 0.184087 0.911815
vt 0.454961 0.988118
vt 0.184087 0.83944
vt 0.17643 0.577831
vt 0.011882 0.571525
vt 0.482906 0.871278
vt 0.011883 0.836423
vn 0.214061 0.941544 0.260139
vn -0.06349 0.991463 0.113886
vn -0.074178 0.928526 0.363781
vn 0.443737 0.61948 0.647567
vn 0.919403 0.325503 0.220784
vn 0.657969 0.723812 0.207783
vn -0.104037 0.827993 0.551002
vn 0.671059 0.236776 -0.702579
vn -0.658261 0.28506 -0.696731
vn -0.590879 0.518442 -0.618127
vn 0.25083 0.928639 -0.273339
vn -0.907333 0.362018 0.213751
vn -0.495003 0.83967 0.223444
vn -0.247355 0.955403 0.161312
vn 0.024831 0.988944 0.146198
vn 0.020976 0.999742 -0.008716
vn -0.125204 0.748759 -0.65091
vn -0.377877 0.682487 -0.625637
vn -0.386775 0.794233 -0.468614
vn -0.305998 0.944341 -0.120768
vn -0.669572 0.727965 -0.147446
vn -0.046343 0.900994 -0.431349
vn -0.619945 0.660186 -0.424056
vn -0.024831 0.988944 0.146198
vn 0.247355 0.955403 0.161312
vn -0.020976 0.999742 -0.008716
vn 0.377877 0.682487 -0.625637
vn 0.125204 0.748759 -0.65091
vn 0.386775 0.794233 -0.468614
vn 0.305998 0.944341 -0.120768
vn 0.669572 0.727965 -0.147446
vn 0.046343 0.900994 -0.431349
vn 0.619945 0.660186 -0.424056
usemtl datan_common_moblegs39_e971e388
f 1/1/1 2/2/2 3/3/3
f 4/4/4 5/5/5 6/6/6
f 6/6/6 7/7/7 4/4/4
f 8/8/8 9/9/9 10/10/10
f 10/10/10 11/11/11 8/8/8
f 12/12/12 4/4/4 7/7/7
f 7/7/7 13/13/13 12/12/12
f 2/2/2 6/6/6 11/11/11
f 11/11/11 10/10/10 13/13/13
f 6/6/6 5/5/5 8/8/8
f 8/8/8 11/11/11 6/6/6
f 12/12/12 13/13/13 10/10/10
f 10/10/10 9/9/9 12/12/12
f 2/2/2 1/1/1 6/6/6
f 7/7/7 3/3/3 13/13/13
f 2/2/2 13/13/13 3/3/3
f 3/3/3 7/7/7 1/1/1
f 6/6/6 1/1/1 7/7/7
f 11/11/11 13/13/13 2/2/2
f 14/14/14 15/15/15 16/16/16
f 17/17/17 18/18/18 19/19/19
f 14/14/14 20/20/20 21/21/21
f 14/14/14 16/16/16 20/20/20
f 19/19/19 22/22/22 17/17/17
f 19/19/19 18/18/18 23/23/23
f 20/20/20 19/19/19 21/21/21
f 23/23/23 21/21/21 19/19/19
f 16/16/16 22/22/22 20/20/20
f 19/19/19 20/20/20 22/22/22
f 24/24/24 25/25/25 26/26/26
f 27/27/27 28/28/28 29/29/29
f 30/30/30 25/25/25 31/31/31
f 26/26/26 25/25/25 30/30/30
f 32/32/32 29/29/29 28/28/28
f 27/27/27 29/29/29 33/33/33
