# Generated from Nova1492 GX by tools/nova1492/GxObjConverter
mtllib datan_common_mop16-legs_457916a6.mtl
o datan_common_mop16-legs_457916a6
v -0.186481 -0.034787 0.240323
v -0.110842 0.047846 0.240323
v -0.110842 -0.004663 0.240323
v -0.110842 -0.13494 0.240323
v -0.159307 -0.133005 0.240323
v 0.125918 -0.13494 0.240323
v 0.125918 -0.004663 0.240323
v 0.007538 0.10765 0.076521
v 0.125918 0.047846 0.076521
v 0.125918 -0.004663 0.076521
v -0.110842 -0.004663 0.076521
v -0.110842 0.047846 0.076521
v 0.007538 -0.129268 0.427056
v 0.174383 -0.133005 0.427056
v 0.201557 -0.034787 0.427056
v 0.125918 0.047846 0.427056
v 0.007538 0.10765 0.427056
v -0.110842 0.047846 0.427056
v -0.186481 -0.034787 0.427056
v -0.159307 -0.133005 0.427056
v 0.174383 -0.133005 0.240323
v 0.201557 -0.034787 0.240323
v 0.201557 -0.034787 0.427056
v 0.174383 -0.133005 0.427056
v 0.125918 0.047846 0.240323
v 0.125918 0.047846 0.427056
v -0.110842 0.047846 0.240323
v -0.110842 0.047846 0.427056
v 0.007538 0.10765 0.427056
v 0.007538 0.10765 0.240323
v -0.186481 -0.034787 0.240323
v -0.159307 -0.133005 0.240323
v -0.159307 -0.133005 0.427056
v -0.186481 -0.034787 0.427056
v 0.007538 0.10765 0.240323
v 0.007538 0.10765 0.427056
v 0.201557 -0.034787 0.240323
v 0.174383 -0.133005 0.240323
v 0.125918 0.047846 0.240323
v -0.110842 0.047846 0.240323
v -0.110842 0.047846 0.076521
v -0.110842 -0.004663 0.076521
v -0.110842 -0.004663 0.240323
v 0.007538 0.10765 0.240323
v 0.007538 0.10765 0.076521
v 0.007538 0.10765 0.240323
v 0.125918 0.047846 0.240323
v 0.125918 0.047846 0.076521
v 0.007538 0.10765 0.076521
v 0.125918 -0.004663 0.240323
v 0.125918 -0.004663 0.076521
v -0.060785 -0.388435 -0.057913
v -0.060785 -0.139986 0.150932
v 0.076953 -0.139986 0.150932
v 0.076953 -0.388435 -0.057913
v -0.060785 -0.100799 0.42498
v -0.060785 -0.238138 0.614011
v 0.076953 -0.238138 0.614011
v 0.076953 -0.100799 0.42498
v -0.060785 -0.633909 0.667803
v 0.076953 -0.633909 0.667803
v -0.060785 -0.905612 0.428961
v 0.076953 -0.905612 0.428961
v -0.060785 -0.790434 0.056416
v 0.076953 -0.790434 0.056416
v 0.076953 -0.139986 0.384587
v 0.076953 -0.277325 0.573619
v 0.076953 -0.610655 0.60972
v 0.076953 -0.859104 0.384587
v 0.076953 -0.790434 0.056416
v 0.076953 -0.388435 -0.057913
v 0.076953 -0.139986 0.150932
v -0.060785 -0.388435 -0.057913
v -0.060785 -0.790434 0.056416
v -0.060785 -0.859103 0.384587
v -0.060785 -0.610655 0.60972
v -0.060785 -0.277325 0.573619
v -0.060785 -0.139986 0.384587
v -0.060785 -0.139986 0.150932
v -0.060785 -0.139986 0.384587
v -0.060785 -0.277325 0.573619
v -0.060785 -0.238138 0.614011
v -0.060785 -0.100799 0.42498
v -0.060785 -0.610655 0.60972
v -0.060785 -0.633909 0.667803
v -0.060785 -0.859103 0.384587
v -0.060785 -0.905612 0.428961
v 0.076953 -0.859104 0.384587
v 0.076953 -0.905612 0.428961
v 0.076953 -0.610655 0.60972
v 0.076953 -0.633909 0.667803
v 0.076953 -0.277325 0.573619
v 0.076953 -0.238138 0.614011
v 0.076953 -0.139986 0.384587
v 0.076953 -0.100799 0.42498
v 0.07408 -0.003184 -0.050364
v 0.16546 -0.003183 -0.050364
v 0.16546 -0.16011 0.009056
v 0.07408 -0.161527 0.00913
v 0.07408 -0.003184 -0.050364
v 0.074245 -0.003143 0.234855
v 0.165506 -0.003143 0.234758
v 0.16546 -0.003183 -0.050364
v 0.07408 -0.384334 0.426415
v 0.07408 -0.557151 0.445133
v 0.16546 -0.557151 0.445133
v 0.16546 -0.384334 0.426415
v 0.07408 -0.685961 0.328411
v 0.16546 -0.685961 0.328411
v 0.07408 -0.685961 0.207271
v 0.07408 -0.614756 0.109266
v 0.16546 -0.614756 0.109266
v 0.16546 -0.685961 0.207271
v 0.07408 -0.614756 0.109266
v 0.16546 -0.614756 0.109266
v 0.165646 -0.139518 0.235385
v 0.074575 -0.13884 0.235388
v 0.165646 -0.139518 0.235385
v 0.16546 -0.384334 0.426415
v 0.16546 -0.557151 0.445133
v 0.16546 -0.685961 0.328411
v 0.16546 -0.685961 0.207271
v 0.16546 -0.614756 0.109266
v 0.16546 -0.16011 0.009056
v 0.16546 -0.003183 -0.050364
v 0.165506 -0.003143 0.234758
v 0.165506 -0.003143 0.234758
v 0.074245 -0.003143 0.234855
v 0.07408 -0.003184 -0.050364
v 0.07408 -0.161527 0.00913
v 0.006069 -0.161543 0.009162
v 0.006069 -0.0032 -0.050332
v 0.006069 -0.003159 0.234858
v 0.006069 -0.138856 0.235391
v 0.006069 -0.0032 -0.050332
v 0.006069 -0.003159 0.234858
v -0.15328 -0.16011 0.009056
v -0.15328 -0.003183 -0.050364
v -0.061899 -0.003184 -0.050364
v -0.061899 -0.161527 0.00913
v -0.153326 -0.003143 0.234758
v -0.062065 -0.003143 0.234855
v -0.061899 -0.003184 -0.050364
v -0.15328 -0.003183 -0.050364
v -0.15328 -0.557151 0.445133
v -0.061899 -0.557151 0.445133
v -0.061899 -0.384334 0.426415
v -0.15328 -0.384334 0.426415
v -0.15328 -0.685961 0.328411
v -0.061899 -0.685961 0.328411
v -0.15328 -0.614756 0.109266
v -0.061899 -0.614756 0.109266
v -0.061899 -0.685961 0.207271
v -0.15328 -0.685961 0.207271
v -0.061899 -0.614756 0.109266
v -0.15328 -0.614756 0.109266
v -0.153466 -0.139518 0.235385
v -0.062395 -0.13884 0.235388
v -0.153466 -0.139518 0.235385
v -0.15328 -0.16011 0.009056
v -0.15328 -0.614756 0.109266
v -0.15328 -0.685961 0.207271
v -0.15328 -0.685961 0.328411
v -0.15328 -0.557151 0.445133
v -0.15328 -0.384334 0.426415
v -0.153326 -0.003143 0.234758
v -0.15328 -0.003183 -0.050364
v -0.153326 -0.003143 0.234758
v -0.062065 -0.003143 0.234855
v 0.006111 -0.161543 0.009162
v -0.061899 -0.161527 0.00913
v -0.061899 -0.003184 -0.050364
v 0.006111 -0.0032 -0.050332
v 0.006111 -0.003159 0.234858
v 0.006111 -0.138856 0.235391
v 0.006111 -0.0032 -0.050332
v 0.006111 -0.003159 0.234858
v 0.063674 -0.249866 -0.349627
v 0.063674 -0.415379 -0.349627
v -0.042944 -0.415379 -0.349627
v -0.042944 -0.249866 -0.349627
v -0.042944 -0.415379 -0.349627
v 0.063674 -0.415379 -0.349627
v 0.088952 -0.459556 0.057977
v -0.068222 -0.459556 0.057977
v -0.042944 -0.415379 -0.349627
v -0.068222 -0.459556 0.057977
v -0.068222 -0.271765 0.057977
v -0.042944 -0.249866 -0.349627
v -0.042944 -0.084352 -0.410666
v -0.068222 -0.083975 0.057977
v 0.010365 -0.046878 0.057977
v 0.010365 -0.047256 -0.410666
v 0.063674 -0.084352 -0.410666
v 0.088952 -0.083975 0.057977
v 0.088952 -0.17787 0.057977
v 0.063674 -0.167109 -0.410666
v -0.042944 -0.167109 -0.410666
v 0.063674 -0.167109 -0.410666
v -0.068222 -0.17787 0.057977
v -0.042944 -0.167109 -0.410666
v 0.063674 -0.249866 -0.349627
v 0.088952 -0.271765 0.057977
v 0.088952 -0.459556 0.057977
v 0.063674 -0.415379 -0.349627
v -0.042944 -0.084352 -0.410666
v 0.010365 -0.047256 -0.410666
v 0.063674 -0.084352 -0.410666
v 0.010365 -0.047256 -0.410666
v 0.010365 -0.046878 0.057977
v 0.028918 -0.221417 -0.531399
v 0.028918 -0.351499 -0.464847
v -0.017849 -0.351499 -0.464847
v -0.017849 -0.21979 -0.53196
v -0.017849 -0.351499 -0.464847
v 0.028918 -0.351499 -0.464847
v 0.040006 -0.379622 -0.343296
v -0.028937 -0.379622 -0.343296
v -0.017849 -0.351499 -0.464847
v -0.028937 -0.379622 -0.343296
v -0.028937 -0.230186 -0.343296
v -0.017849 -0.21979 -0.53196
v 0.005535 -0.129075 -0.553969
v 0.005535 -0.128835 -0.343258
v 0.040006 -0.232396 -0.342704
v 0.028918 -0.221417 -0.531399
v 0.040006 -0.379622 -0.343296
v 0.028918 -0.351499 -0.464847
v 0.005535 -0.129075 -0.553969
v 0.005535 -0.128835 -0.343258
v 0.005535 -0.129075 -0.553969
vt 0.711199 0.062213
vt 0.694143 0.099834
vt 0.694143 0.077323
vt 0.694143 0.011977
vt 0.706298 0.012948
vt 0.634763 0.011977
vt 0.634763 0.073495
vt 0.662539 0.129832
vt 0.634763 0.103662
vt 0.634763 0.077323
vt 0.694143 0.077323
vt 0.694143 0.103662
vt 0.557395 0.014356
vt 0.597325 0.012481
vt 0.604141 0.057919
vt 0.587084 0.099367
vt 0.557395 0.129365
vt 0.527705 0.099367
vt 0.508735 0.061747
vt 0.51555 0.012481
vt 0.576306 0.375907
vt 0.576306 0.310568
vt 0.506479 0.310568
vt 0.506479 0.375907
vt 0.57822 0.252377
vt 0.506479 0.252377
vt 0.576306 0.248484
vt 0.506479 0.248484
vt 0.506479 0.16902
vt 0.57822 0.16902
vt 0.576306 0.310503
vt 0.576306 0.375842
vt 0.506479 0.375842
vt 0.506479 0.310503
vt 0.57822 0.169085
vt 0.506479 0.169085
vt 0.615793 0.058385
vt 0.622608 0.012948
vt 0.634763 0.099834
vt 0.586461 0.252312
vt 0.647478 0.252312
vt 0.647478 0.285462
vt 0.586461 0.285462
vt 0.586461 0.16902
vt 0.649392 0.16902
vt 0.586461 0.169085
vt 0.586461 0.248549
vt 0.647478 0.248549
vt 0.649392 0.169085
vt 0.586461 0.285526
vt 0.649392 0.285526
vt 0.781469 0.836398
vt 0.780349 0.930768
vt 0.744649 0.930769
vt 0.745265 0.836398
vt 0.515289 0.966021
vt 0.515289 0.909057
vt 0.549701 0.909057
vt 0.551615 0.966021
vt 0.515289 0.752299
vt 0.551615 0.752299
vt 0.515289 0.646649
vt 0.551614 0.646649
vt 0.783381 0.676601
vt 0.745263 0.676601
vt 0.644664 0.935271
vt 0.605196 0.881049
vt 0.597293 0.753277
vt 0.646578 0.655189
vt 0.71842 0.6823
vt 0.743449 0.837182
vt 0.697729 0.935271
vt 0.741535 0.837182
vt 0.716506 0.6823
vt 0.646578 0.655189
vt 0.597293 0.749449
vt 0.605196 0.881049
vt 0.646578 0.935271
vt 0.697729 0.935271
vt 0.611534 0.943648
vt 0.572066 0.893254
vt 0.563224 0.908725
vt 0.604606 0.959119
vt 0.564163 0.761654
vt 0.551448 0.752474
vt 0.613448 0.663566
vt 0.603734 0.645204
vt 0.613448 0.659738
vt 0.603734 0.645204
vt 0.564163 0.757826
vt 0.551448 0.748645
vt 0.572066 0.889426
vt 0.563224 0.904897
vt 0.613448 0.943648
vt 0.604606 0.959119
vt 0.975486 0.434083
vt 0.962964 0.434083
vt 0.962964 0.344956
vt 0.977399 0.345161
vt 0.944176 0.554539
vt 0.903221 0.554492
vt 0.903245 0.532387
vt 0.94609 0.532401
vt 0.889044 0.51304
vt 0.848752 0.51304
vt 0.848752 0.490902
vt 0.890958 0.490902
vt 0.825391 0.51304
vt 0.825391 0.490902
vt 0.97582 0.035048
vt 0.97582 0.085217
vt 0.963298 0.085217
vt 0.963298 0.035048
vt 0.977399 0.089027
vt 0.962963 0.089027
vt 0.958862 0.490849
vt 0.960944 0.512899
vt 0.880991 0.358309
vt 0.830763 0.226502
vt 0.825948 0.131215
vt 0.858356 0.060706
vt 0.891727 0.061184
vt 0.916671 0.096973
vt 0.945201 0.347164
vt 0.959439 0.434549
vt 0.882809 0.433448
vt 0.992649 0.490889
vt 0.992649 0.512993
vt 0.977574 0.434086
vt 0.977574 0.345236
vt 0.989607 0.345238
vt 0.989607 0.434086
vt 0.992645 0.53808
vt 0.96094 0.537986
vt 0.946082 0.579625
vt 0.90322 0.579578
vt 0.962964 0.344956
vt 0.962964 0.434083
vt 0.975486 0.434083
vt 0.977399 0.345161
vt 0.903245 0.532387
vt 0.903221 0.554492
vt 0.944176 0.554539
vt 0.94609 0.532401
vt 0.848752 0.490902
vt 0.848752 0.51304
vt 0.889044 0.51304
vt 0.890958 0.490902
vt 0.825391 0.490902
vt 0.825391 0.51304
vt 0.963298 0.085217
vt 0.97582 0.085217
vt 0.97582 0.035048
vt 0.963298 0.035048
vt 0.977399 0.089027
vt 0.962963 0.089027
vt 0.958862 0.490849
vt 0.960944 0.512899
vt 0.882905 0.358309
vt 0.943287 0.347164
vt 0.916671 0.100801
vt 0.891727 0.061184
vt 0.858356 0.060706
vt 0.825948 0.131215
vt 0.830763 0.226502
vt 0.882809 0.433448
vt 0.959439 0.434549
vt 0.992649 0.490889
vt 0.992649 0.512993
vt 0.989607 0.345238
vt 0.977574 0.345236
vt 0.977574 0.434086
vt 0.989607 0.434086
vt 0.992645 0.53808
vt 0.96094 0.537986
vt 0.946082 0.579625
vt 0.90322 0.579578
vt 0.805848 0.367262
vt 0.805848 0.302529
vt 0.826369 0.302529
vt 0.828283 0.367262
vt 0.706703 0.253095
vt 0.706703 0.225193
vt 0.797503 0.217671
vt 0.799417 0.260618
vt 0.706468 0.285581
vt 0.797677 0.265395
vt 0.797677 0.347373
vt 0.706468 0.35738
vt 0.692523 0.436835
vt 0.797677 0.437007
vt 0.797677 0.48193
vt 0.692523 0.481758
vt 0.692523 0.43218
vt 0.797677 0.432353
vt 0.797677 0.393278
vt 0.692523 0.398195
vt 0.828283 0.406084
vt 0.805848 0.406084
vt 0.799591 0.390276
vt 0.692523 0.395193
vt 0.706468 0.356553
vt 0.797677 0.346546
vt 0.797677 0.264568
vt 0.706468 0.284754
vt 0.828283 0.440364
vt 0.817065 0.45573
vt 0.805848 0.440364
vt 0.692523 0.480931
vt 0.797677 0.481104
vt 0.787618 0.14889
vt 0.788098 0.072977
vt 0.807434 0.0731
vt 0.808862 0.149968
vt 0.760357 0.024912
vt 0.760357 0.043444
vt 0.730653 0.048598
vt 0.730653 0.019758
vt 0.76031 0.073401
vt 0.730639 0.056873
vt 0.730639 0.140867
vt 0.779896 0.146977
vt 0.784412 0.202023
vt 0.730612 0.202164
vt 0.730617 0.145131
vt 0.780482 0.151584
vt 0.730611 0.058608
vt 0.762087 0.075136
vt 0.797902 0.201742
vt 0.730639 0.20043
vt 0.785595 0.200289
vn -0 0 -1
vn -0 0 -1
vn -0 0 -1
vn -0 0 -1
vn -0 -0 -1
vn -0 0 -1
vn -0 0 -1
vn -0 0 -1
vn -0 0 -1
vn -0 0 -1
vn -0 0 -1
vn -0 0 -1
vn -0 -0 1
vn -0 -0 1
vn -0 -0 1
vn -0 -0 1
vn 0 -0 1
vn 0 -0 1
vn 0 -0 1
vn 0 -0 1
vn 0.963792 -0.266656 0
vn 0.972361 0.233485 0
vn 0.972361 0.233485 0
vn 0.963792 -0.266656 0
vn 0.651499 0.75865 0
vn 0.554522 0.832169 0
vn -0.554522 0.832169 0
vn -0.651499 0.75865 0
vn -0.450917 0.892566 0
vn -0.450917 0.892566 0
vn -0.97236 0.233485 0
vn -0.963792 -0.266655 0
vn -0.963792 -0.266655 0
vn -0.97236 0.233485 0
vn 0.450917 0.892566 0
vn 0.450917 0.892566 0
vn 0 0 -1
vn 0 0 -1
vn 0 0 -1
vn -0.851739 0.523967 0
vn -0.851739 0.523967 0
vn -1 0 0
vn -1 0 0
vn -0.450917 0.892566 0
vn -0.450917 0.892566 0
vn 0.450917 0.892566 0
vn 0.93963 0.342191 0
vn 0.729123 0.684382 0
vn 0.450917 0.892566 0
vn 1 0 0
vn 1 0 0
vn 0 0.376587 -0.926381
vn 0 0.64346 -0.76548
vn 0 0.64346 -0.76548
vn 0 0.035806 -0.999359
vn 0 0.809017 0.587785
vn 0 0.386975 0.92209
vn 0 0.628962 0.777436
vn 0 0.809017 0.587785
vn -0 -0.429527 0.903054
vn -0 -0.141586 0.989926
vn 0 -0.660227 0.751067
vn -0 -0.660227 0.751067
vn 0 -0.273555 -0.961857
vn 0 -0.273555 -0.961857
vn 1 -0 -0
vn 1 -0 -0
vn 1 -0 -0
vn 1 -0 -0
vn 1 -0 -0
vn 1 -0 -0
vn 1 -0 -0
vn -1 0 0
vn -1 0 0
vn -1 0 0
vn -1 0 0
vn -1 0 0
vn -1 0 0
vn -1 0 0
vn -1 0 0
vn -1 0 -0
vn -1 0 -0
vn -1 0 0
vn -1 0 -0
vn -1 0 -0
vn -0.447214 -0.617433 -0.64713
vn -0.894427 -0.308716 -0.323565
vn 0.894427 -0.308717 -0.323565
vn 0.447213 -0.617433 -0.64713
vn 1 -0 -0
vn 1 -0 -0
vn 1 -0 -0
vn 1 -0 -0
vn 1 0 0
vn 1 0 -0
vn 0.002348 -0.352916 -0.935652
vn 0.000003 -0.354111 -0.935203
vn 0.001817 -0.284937 -0.958545
vn 0.003632 -0.284443 -0.958686
vn -0.000082 1 -0.000142
vn -0.000159 1 -0.000143
vn -0.000004 1 -0.000141
vn -0.000008 1 -0.00014
vn 0.001198 0.375476 0.926831
vn 0 -0.446395 0.894836
vn 0 -0.164831 0.986322
vn 0 0.375792 0.926704
vn 0 -0.67148 0.741022
vn 0 -0.67148 0.741022
vn 0 -0.809017 -0.587786
vn 0 -0.809017 -0.587786
vn 0 -0.809017 -0.587786
vn 0 -0.809017 -0.587786
vn 0.001276 -0.215492 -0.976505
vn 0 -0.215247 -0.97656
vn 0.00164 0.431775 0.90198
vn 0.001207 0.130522 0.991445
vn 1 0.000063 -0.000078
vn 0.999999 0.000122 0.00113
vn 1 -0.000082 0.000723
vn 1 -0.000216 0.000066
vn 1 0 0
vn 1 -0.000179 -0.000308
vn 1 0.00026 -0.000628
vn 1 -0.000062 -0.000163
vn 1 0.000478 -0.000539
vn 0.000573 0.004264 0.999991
vn 0.000553 0.00393 0.999992
vn -0.000364 -0.351721 -0.936105
vn -0.000364 -0.351721 -0.936105
vn -0.000364 -0.351721 -0.936105
vn -0.000364 -0.351721 -0.936105
vn 0.000037 0.003928 0.999992
vn 0.000036 0.003928 0.999992
vn -0.000238 1 -0.000143
vn -0.000238 1 -0.000143
vn -0.001817 -0.284937 -0.958545
vn -0.000003 -0.354111 -0.935203
vn -0.002348 -0.352916 -0.935652
vn -0.003632 -0.284443 -0.958686
vn 0.000004 1 -0.000141
vn 0.000159 1 -0.000143
vn 0.000082 1 -0.000142
vn 0.000008 1 -0.00014
vn 0 -0.164831 0.986322
vn 0 -0.446395 0.894836
vn -0.001198 0.375476 0.926831
vn 0 0.375792 0.926704
vn 0 -0.67148 0.741022
vn 0 -0.67148 0.741022
vn 0 -0.809017 -0.587786
vn 0 -0.809017 -0.587786
vn 0 -0.809017 -0.587786
vn 0 -0.809017 -0.587786
vn -0.001276 -0.215492 -0.976505
vn 0 -0.215247 -0.97656
vn -0.00164 0.431775 0.90198
vn -0.001207 0.130522 0.991445
vn -1 0.000063 -0.000078
vn -1 0.00026 -0.000628
vn -1 -0.000179 -0.000307
vn -1 0 0
vn -1 -0.000216 0.000066
vn -1 -0.000082 0.000723
vn -0.999999 0.000122 0.00113
vn -1 0.000478 -0.000539
vn -1 -0.000062 -0.000163
vn -0.000573 0.004264 0.999991
vn -0.000553 0.00393 0.999992
vn 0.000364 -0.351721 -0.936105
vn 0.000364 -0.351721 -0.936105
vn 0.000364 -0.351721 -0.936105
vn 0.000364 -0.351721 -0.936105
vn -0.000037 0.003928 0.999992
vn -0.000036 0.003928 0.999992
vn 0.000238 1 -0.000143
vn 0.000238 1 -0.000143
vn 0 -0.312429 -0.949941
vn 0 0 -1
vn 0 0 -1
vn 0 -0.312429 -0.949941
vn 0 -0.994178 -0.107751
vn 0 -0.994178 -0.107751
vn 0 -0.994178 -0.107751
vn 0 -0.994178 -0.107751
vn -0.998083 -0 -0.061898
vn -0.998083 -0 -0.061898
vn -0.998083 -0 -0.061898
vn -0.998136 -0.013461 -0.059523
vn -0.756372 0.65347 -0.029652
vn -0.935741 0.349016 -0.050754
vn -0.500747 0.865507 -0.012248
vn -0.571189 0.820819 -0.000661
vn 0.951302 0.303917 -0.051557
vn 0.756304 0.653408 -0.032598
vn 0.998374 -0.010095 -0.056099
vn 0.99832 -0.020192 -0.054312
vn 0 -0.414091 -0.910235
vn 0 -0.154144 -0.988048
vn -0.998292 -0.013461 -0.056844
vn -0.998441 -0.013461 -0.054164
vn 0.99814 -0.010095 -0.060118
vn 0.998083 0 -0.061897
vn 0.998083 0 -0.061897
vn 0.998083 0 -0.061897
vn 0 -0 -1
vn 0 0 -1
vn 0 0 -1
vn 0.500691 0.865475 -0.01615
vn 0.426874 0.904311 -0.000729
vn -0.000557 -0.384348 -0.923188
vn 0 -0.455466 -0.890253
vn -0.002548 -0.454739 -0.890621
vn -0.000837 -0.347654 -0.937623
vn 0 -0.974263 -0.225417
vn 0 -0.974263 -0.225416
vn 0 -0.974263 -0.225417
vn 0 -0.974263 -0.225417
vn -0.997019 -0.015375 -0.075605
vn -0.995865 0 -0.090844
vn -0.993103 0.098324 -0.063865
vn -0.98266 0.182414 -0.033232
vn 0.960951 0.275853 -0.021887
vn 0.948818 0.315822 -0.00036
vn 0.982032 0.185543 -0.034452
vn 0.995732 0.061483 -0.06883
vn 0.99639 -0.026189 -0.080759
vn 0.993314 -0.052582 -0.102776
vn 0.003433 -0.236605 -0.9716
vn -0.958064 0.285919 -0.019094
vn -0.968364 0.249544 -0.000285
usemtl datan_common_mop16-legs_457916a6
f 1/1/1 2/2/2 3/3/3
f 1/1/1 3/3/3 4/4/4
f 1/1/1 4/4/4 5/5/5
f 6/6/6 4/4/4 3/3/3
f 3/3/3 7/7/7 6/6/6
f 8/8/8 9/9/9 10/10/10
f 8/8/8 10/10/10 11/11/11
f 8/8/8 11/11/11 12/12/12
f 13/13/13 14/14/14 15/15/15
f 13/13/13 15/15/15 16/16/16
f 13/13/13 16/16/16 17/17/17
f 13/13/13 17/17/17 18/18/18
f 13/13/13 18/18/18 19/19/19
f 13/13/13 19/19/19 20/20/20
f 21/21/21 22/22/22 23/23/23
f 23/23/23 24/24/24 21/21/21
f 25/25/25 26/26/26 23/23/23
f 23/23/23 22/22/22 25/25/25
f 27/27/27 28/28/28 29/29/29
f 29/29/29 30/30/30 27/27/27
f 31/31/31 32/32/32 33/33/33
f 33/33/33 34/34/34 31/31/31
f 35/35/35 36/36/36 26/26/26
f 26/26/26 25/25/25 35/35/35
f 31/31/31 34/34/34 28/28/28
f 28/28/28 27/27/27 31/31/31
f 37/37/37 38/38/38 6/6/6
f 37/37/37 6/6/6 7/7/7
f 37/37/37 7/7/7 39/39/39
f 40/40/40 41/41/41 42/42/42
f 42/42/42 43/43/43 40/40/40
f 40/40/40 44/44/44 45/45/45
f 45/45/45 41/41/41 40/40/40
f 46/46/46 47/47/47 48/48/48
f 48/48/48 49/49/49 46/46/46
f 47/47/47 50/50/50 51/51/51
f 51/51/51 48/48/48 47/47/47
f 52/52/52 53/53/53 54/54/54
f 54/54/54 55/55/55 52/52/52
f 56/56/56 57/57/57 58/58/58
f 58/58/58 59/59/59 56/56/56
f 57/57/57 60/60/60 61/61/61
f 61/61/61 58/58/58 57/57/57
f 60/60/60 62/62/62 63/63/63
f 63/63/63 61/61/61 60/60/60
f 64/64/64 52/52/52 55/55/55
f 55/55/55 65/65/65 64/64/64
f 66/66/66 67/67/67 68/68/68
f 68/68/68 69/69/69 70/70/70
f 66/66/66 68/68/68 70/70/70
f 66/66/66 70/70/70 71/71/71
f 66/66/66 71/71/71 72/72/72
f 73/73/73 74/74/74 75/75/75
f 73/73/73 75/75/75 76/76/76
f 76/76/76 77/77/77 78/78/78
f 73/73/73 76/76/76 78/78/78
f 73/73/73 78/78/78 79/79/79
f 80/80/80 81/81/81 82/82/82
f 82/82/82 83/83/83 80/80/80
f 81/81/81 84/84/84 85/85/85
f 85/85/85 82/82/82 81/81/81
f 84/84/84 86/86/86 87/87/87
f 87/87/87 85/85/85 84/84/84
f 86/86/86 88/88/88 89/89/89
f 89/89/89 87/87/87 86/86/86
f 88/88/88 90/90/90 91/91/91
f 91/91/91 89/89/89 88/88/88
f 90/90/90 92/92/92 93/93/93
f 93/93/93 91/91/91 90/90/90
f 92/92/92 94/94/94 95/95/95
f 95/95/95 93/93/93 92/92/92
f 96/96/96 97/97/97 98/98/98
f 98/98/98 99/99/99 96/96/96
f 100/100/100 101/101/101 102/102/102
f 102/102/102 103/103/103 100/100/100
f 104/104/104 105/105/105 106/106/106
f 106/106/106 107/107/107 104/104/104
f 105/105/105 108/108/108 109/109/109
f 109/109/109 106/106/106 105/105/105
f 110/110/110 111/111/111 112/112/112
f 112/112/112 113/113/113 110/110/110
f 114/114/114 99/99/99 98/98/98
f 98/98/98 115/115/115 114/114/114
f 104/104/104 107/107/107 116/116/116
f 116/116/116 117/117/117 104/104/104
f 118/118/118 119/119/119 120/120/120
f 118/118/118 120/120/120 121/121/121
f 121/121/121 122/122/122 123/123/123
f 118/118/118 121/121/121 123/123/123
f 118/118/118 123/123/123 124/124/124
f 124/124/124 125/125/125 126/126/126
f 126/126/126 118/118/118 124/124/124
f 117/117/117 116/116/116 127/127/127
f 127/127/127 128/128/128 117/117/117
f 129/129/129 130/130/130 131/131/131
f 131/131/131 132/132/132 129/129/129
f 117/117/117 128/128/128 133/133/133
f 133/133/133 134/134/134 117/117/117
f 101/101/101 100/100/100 135/135/135
f 135/135/135 136/136/136 101/101/101
f 137/137/137 138/138/138 139/139/139
f 139/139/139 140/140/140 137/137/137
f 141/141/141 142/142/142 143/143/143
f 143/143/143 144/144/144 141/141/141
f 145/145/145 146/146/146 147/147/147
f 147/147/147 148/148/148 145/145/145
f 149/149/149 150/150/150 146/146/146
f 146/146/146 145/145/145 149/149/149
f 151/151/151 152/152/152 153/153/153
f 153/153/153 154/154/154 151/151/151
f 137/137/137 140/140/140 155/155/155
f 155/155/155 156/156/156 137/137/137
f 157/157/157 148/148/148 147/147/147
f 147/147/147 158/158/158 157/157/157
f 159/159/159 160/160/160 161/161/161
f 161/161/161 162/162/162 163/163/163
f 159/159/159 161/161/161 163/163/163
f 159/159/159 163/163/163 164/164/164
f 159/159/159 164/164/164 165/165/165
f 166/166/166 167/167/167 160/160/160
f 160/160/160 159/159/159 166/166/166
f 168/168/168 157/157/157 158/158/158
f 158/158/158 169/169/169 168/168/168
f 170/170/170 171/171/171 172/172/172
f 172/172/172 173/173/173 170/170/170
f 174/174/174 169/169/169 158/158/158
f 158/158/158 175/175/175 174/174/174
f 176/176/176 143/143/143 142/142/142
f 142/142/142 177/177/177 176/176/176
f 178/178/178 179/179/179 180/180/180
f 180/180/180 181/181/181 178/178/178
f 182/182/182 183/183/183 184/184/184
f 184/184/184 185/185/185 182/182/182
f 186/186/186 187/187/187 188/188/188
f 188/188/188 189/189/189 186/186/186
f 190/190/190 191/191/191 192/192/192
f 192/192/192 193/193/193 190/190/190
f 194/194/194 195/195/195 196/196/196
f 196/196/196 197/197/197 194/194/194
f 178/178/178 181/181/181 198/198/198
f 198/198/198 199/199/199 178/178/178
f 189/189/189 188/188/188 200/200/200
f 200/200/200 201/201/201 189/189/189
f 202/202/202 203/203/203 204/204/204
f 204/204/204 205/205/205 202/202/202
f 202/202/202 197/197/197 196/196/196
f 196/196/196 203/203/203 202/202/202
f 199/199/199 198/198/198 206/206/206
f 199/199/199 206/206/206 207/207/207
f 199/199/199 207/207/207 208/208/208
f 201/201/201 200/200/200 191/191/191
f 191/191/191 190/190/190 201/201/201
f 209/209/209 210/210/210 195/195/195
f 195/195/195 194/194/194 209/209/209
f 211/211/211 212/212/212 213/213/213
f 213/213/213 214/214/214 211/211/211
f 215/215/215 216/216/216 217/217/217
f 217/217/217 218/218/218 215/215/215
f 219/219/219 220/220/220 221/221/221
f 221/221/221 222/222/222 219/219/219
f 223/223/223 224/224/224 225/225/225
f 225/225/225 226/226/226 223/223/223
f 226/226/226 225/225/225 227/227/227
f 227/227/227 228/228/228 226/226/226
f 211/211/211 214/214/214 229/229/229
f 222/222/222 221/221/221 230/230/230
f 230/230/230 231/231/231 222/222/222
