# Generated from Nova1492 GX by tools/nova1492/GxObjConverter
mtllib datan_common_king1-legs_614d4b0e.mtl
o datan_common_king1-legs_614d4b0e
v -0.12966 0.532204 0.051481
v 0.12966 0.532204 0.051481
v 0.137745 0.531918 -0.031238
v -0.137745 0.531918 -0.031238
v -0.113549 0.143941 0.086053
v 0.113549 0.143941 0.086053
v 0.113549 0.269239 0.100662
v -0.113549 0.269239 0.100662
v 0.113549 0.385261 0.169738
v -0.113549 0.385261 0.169738
v 0.113549 0.143941 0.086053
v 0.137745 0.143941 -0.117012
v 0.137745 0.300329 -0.111593
v 0.113549 0.269239 0.100662
v 0.137745 0.445196 -0.079957
v 0.113549 0.385261 0.169738
v 0.137745 0.531918 -0.031238
v 0.12966 0.532204 0.051481
v 0.137745 0.445196 -0.079957
v -0.137745 0.445196 -0.079957
v -0.137745 0.143941 -0.117012
v -0.113549 0.143941 0.086053
v -0.113549 0.269239 0.100662
v -0.137745 0.300329 -0.111593
v -0.113549 0.385261 0.169738
v -0.137745 0.445196 -0.079957
v -0.12966 0.532204 0.051481
v -0.137745 0.531918 -0.031238
v 0.186823 0.461216 0.084767
v 0.186823 0.525532 0.047634
v -0.186823 0.525532 0.047634
v -0.186823 0.461216 0.084766
v 0.186823 0.525532 -0.026632
v -0.186823 0.525532 -0.026632
v 0.186823 0.461216 -0.063764
v -0.186823 0.461216 -0.063764
v 0.186823 0.3969 -0.026632
v -0.186823 0.3969 -0.026632
v 0.186823 0.3969 0.047634
v -0.186823 0.3969 0.047634
v 0.186823 0.461216 0.084767
v 0.186823 0.525532 -0.026632
v 0.186823 0.525532 0.047634
v 0.186823 0.461216 -0.063764
v 0.186823 0.3969 -0.026632
v 0.186823 0.3969 0.047634
v -0.186823 0.461216 0.084766
v -0.186823 0.525532 0.047634
v -0.186823 0.525532 -0.026632
v -0.186823 0.461216 -0.063764
v -0.186823 0.3969 -0.026632
v -0.186823 0.3969 0.047634
v -0.180711 0.151941 -0.033036
v 0.180711 0.151941 -0.033036
v 0.180711 0.350724 0.020228
v -0.180711 0.350724 0.020228
v -0.180711 0.178046 -0.130461
v 0.180711 0.178046 -0.130461
v 0.180711 0.178046 -0.130461
v 0.180711 0.376829 -0.077197
v 0.180711 0.350724 0.020228
v 0.180711 0.151941 -0.033036
v 0.180711 0.376829 -0.077197
v -0.180711 0.376829 -0.077197
v -0.180711 0.350724 0.020228
v 0.180711 0.350724 0.020228
v -0.180711 0.376829 -0.077197
v -0.180711 0.178046 -0.130461
v -0.180711 0.151941 -0.033036
v -0.180711 0.350724 0.020228
v 0.323495 0.003077 0.179901
v 0.323495 0.157644 0.090661
v -0.323495 0.157644 0.090661
v -0.323495 0.003077 0.179901
v 0.323495 0.157644 -0.087818
v -0.323495 0.157644 -0.087818
v 0.323495 0.003077 -0.177057
v -0.323495 0.003077 -0.177057
v 0.323495 -0.15149 -0.087818
v -0.323495 -0.15149 -0.087818
v 0.323495 -0.15149 0.090661
v -0.323495 -0.15149 0.090661
v 0.323495 0.003077 0.179901
v 0.323495 0.157644 -0.087818
v 0.323495 0.157644 0.090661
v 0.323495 0.003077 -0.177057
v 0.323495 -0.15149 -0.087818
v 0.323495 -0.15149 0.090661
v -0.323495 0.003077 0.179901
v -0.323495 0.157644 0.090661
v -0.323495 0.157644 -0.087818
v -0.323495 0.003077 -0.177057
v -0.323495 -0.15149 -0.087818
v -0.323495 -0.15149 0.090661
v -0.154625 -0.231094 -0.366346
v -0.168886 -0.12042 -0.613995
v 0.168886 -0.12042 -0.613995
v 0.154625 -0.231094 -0.366346
v -0.269168 0.527208 -0.294926
v -0.123977 0.527208 -0.294926
v -0.123977 0.585494 -0.527748
v -0.269168 0.585494 -0.527748
v -0.123977 1.127824 -0.142525
v 0.123977 1.127824 -0.142525
v 0.123977 0.796742 -0.418959
v -0.123977 0.796742 -0.418959
v 0.123977 0.527208 -0.294926
v 0.269168 0.527208 -0.294926
v 0.269168 0.585494 -0.527748
v 0.123977 0.585494 -0.527748
v 0.154625 -0.231094 -0.366346
v 0.168886 -0.12042 -0.613995
v 0.217857 0.097502 -0.6053
v 0.217857 0.078854 -0.3601
v 0.269168 0.585494 -0.527748
v 0.269168 0.527208 -0.294926
v -0.217857 0.097502 -0.6053
v 0.217857 0.097502 -0.6053
v 0.156285 0.158289 -0.714186
v -0.156285 0.158289 -0.714186
v -0.156285 0.592799 -0.642889
v 0.156285 0.592799 -0.642889
v -0.168886 -0.12042 -0.613995
v -0.154625 -0.231094 -0.366346
v -0.217857 0.078854 -0.3601
v -0.217857 0.097502 -0.6053
v -0.269168 0.527208 -0.294926
v -0.269168 0.585494 -0.527748
v 0.269168 0.585494 -0.527748
v -0.269168 0.585494 -0.527748
v -0.123977 0.585494 -0.527748
v -0.123977 0.527208 -0.294926
v -0.123977 1.127824 -0.142525
v -0.123977 0.796742 -0.418959
v 0.123977 0.527208 -0.294926
v 0.123977 0.585494 -0.527748
v 0.123977 0.796742 -0.418959
v 0.123977 1.127824 -0.142525
v -0.123977 0.494125 -0.155493
v 0.123977 0.494125 -0.155493
v 0.123977 1.127244 0.029657
v -0.123977 1.127244 0.029657
v -0.123977 0.527208 -0.294926
v -0.123977 0.494125 -0.155493
v -0.123977 1.127244 0.029657
v 0.123977 0.494125 -0.155493
v 0.123977 0.527208 -0.294926
v 0.123977 1.127244 0.029657
v -0.123977 0.796742 -0.418959
v 0.123977 0.796742 -0.418959
v -0.272154 -0.269365 -0.103449
v -0.330147 -0.270604 -0.354345
v 0.330147 -0.270604 -0.354345
v 0.272154 -0.269365 -0.103449
v -0.272154 0.519873 -0.045596
v 0.272154 0.519873 -0.045596
v 0.330147 0.667489 -0.264341
v -0.330147 0.667489 -0.264341
v -0.272154 -0.269365 -0.103449
v 0.272154 -0.269365 -0.103449
v 0.272154 0.008966 -0.1278
v -0.272154 0.008966 -0.1278
v 0.272154 0.287297 -0.103449
v -0.272154 0.287297 -0.103449
v 0.272154 0.519873 -0.045596
v -0.272154 0.519873 -0.045596
v 0.330147 0.008966 -0.382567
v 0.272154 0.008966 -0.1278
v 0.330147 0.331536 -0.354345
v 0.272154 0.287297 -0.103449
v 0.330147 0.667489 -0.264341
v 0.272154 0.519873 -0.045596
v 0.330147 -0.270604 -0.354345
v -0.330147 -0.270604 -0.354345
v -0.330147 0.008966 -0.382567
v 0.330147 0.008966 -0.382567
v -0.330147 0.331536 -0.354346
v 0.330147 0.331536 -0.354345
v -0.330147 0.667489 -0.264341
v 0.330147 0.667489 -0.264341
v -0.272154 0.008966 -0.1278
v -0.330147 0.008966 -0.382567
v -0.272154 0.287297 -0.103449
v -0.330147 0.331536 -0.354346
v -0.272154 0.519873 -0.045596
v -0.330147 0.667489 -0.264341
vt 0.050585 0.993934
vt 0.11176 0.993934
vt 0.113727 0.997556
vt 0.046704 0.993728
vt 0.054505 0.719848
vt 0.10784 0.719848
vt 0.10784 0.80613
vt 0.052591 0.809958
vt 0.10784 0.892084
vt 0.052591 0.892084
vt 0.184986 0.720505
vt 0.232448 0.720505
vt 0.23113 0.829147
vt 0.17952 0.810616
vt 0.223438 0.933332
vt 0.162278 0.894056
vt 0.212038 0.993071
vt 0.190809 0.993277
vt 0.113727 0.935188
vt 0.048618 0.935188
vt 0.232448 0.720505
vt 0.184986 0.720505
vt 0.181434 0.806788
vt 0.23113 0.832975
vt 0.162278 0.894056
vt 0.223438 0.933332
vt 0.190809 0.993277
vt 0.212038 0.993071
vt 0.125667 0.946709
vt 0.125667 0.99045
vt 0.036388 0.99045
vt 0.034474 0.946709
vt 0.125667 0.99045
vt 0.036388 0.99045
vt 0.125667 0.946709
vt 0.036388 0.946709
vt 0.125667 0.900455
vt 0.036388 0.900455
vt 0.125667 0.900455
vt 0.036388 0.900455
vt 0.185299 0.948681
vt 0.210918 0.988478
vt 0.193658 0.988478
vt 0.219501 0.948681
vt 0.210472 0.902427
vt 0.192414 0.902427
vt 0.185299 0.948681
vt 0.193658 0.988478
vt 0.210918 0.988478
vt 0.219501 0.948681
vt 0.210472 0.902427
vt 0.192414 0.902427
vt 0.037875 0.725601
vt 0.12418 0.725601
vt 0.12418 0.863418
vt 0.035961 0.867246
vt 0.037875 0.74306
vt 0.12418 0.74306
vt 0.234859 0.745032
vt 0.222194 0.881633
vt 0.201135 0.862438
vt 0.212316 0.725836
vt 0.135413 0.876633
vt 0.030007 0.876633
vt 0.030007 0.821843
vt 0.135413 0.821843
vt 0.224108 0.881633
vt 0.234859 0.745032
vt 0.21423 0.725836
vt 0.199221 0.866266
vt 0.158917 0.618936
vt 0.158917 0.725874
vt 0.003428 0.725874
vt 0.003428 0.618936
vt 0.158917 0.729702
vt 0.003428 0.729702
vt 0.158917 0.618936
vt 0.003428 0.618936
vt 0.158917 0.509484
vt 0.003428 0.509484
vt 0.158917 0.509484
vt 0.003428 0.509484
vt 0.162167 0.618542
vt 0.225349 0.726532
vt 0.183866 0.726532
vt 0.247048 0.618542
vt 0.225349 0.508038
vt 0.181952 0.508038
vt 0.162167 0.618542
vt 0.183866 0.726532
vt 0.225349 0.726532
vt 0.247048 0.618542
vt 0.225349 0.508038
vt 0.181952 0.508038
vt 0.437032 0.519958
vt 0.435205 0.555044
vt 0.47658 0.555044
vt 0.474752 0.519958
vt 0.392553 0.521576
vt 0.392553 0.521576
vt 0.39314 0.592447
vt 0.39314 0.596275
vt 0.44096 0.993934
vt 0.470824 0.993934
vt 0.470824 0.881351
vt 0.439046 0.881351
vt 0.392553 0.521576
vt 0.392553 0.521576
vt 0.39314 0.592447
vt 0.39314 0.596276
vt 0.376322 0.519958
vt 0.406165 0.558872
vt 0.40505 0.631666
vt 0.373607 0.628938
vt 0.395346 0.807075
vt 0.36549 0.786582
vt 0.427014 0.635494
vt 0.482856 0.635494
vt 0.474965 0.656867
vt 0.43682 0.656867
vt 0.43682 0.805816
vt 0.474965 0.809644
vt 0.406165 0.558872
vt 0.376322 0.519958
vt 0.375521 0.62511
vt 0.40505 0.635494
vt 0.36549 0.786582
vt 0.395346 0.807075
vt 0.489432 0.807075
vt 0.420438 0.807075
vt 0.395346 0.807075
vt 0.367404 0.786582
vt 0.348343 0.991962
vt 0.381155 0.881351
vt 0.367404 0.786582
vt 0.395346 0.807075
vt 0.381155 0.877523
vt 0.346429 0.991962
vt 0.27972 0.77495
vt 0.309699 0.77495
vt 0.309699 0.992415
vt 0.27972 0.992415
vt 0.365772 0.787879
vt 0.347652 0.776247
vt 0.325541 0.991758
vt 0.349566 0.776247
vt 0.365772 0.787879
vt 0.325541 0.991758
vt 0.387773 0.689825
vt 0.387773 0.689825
vt 0.34261 0.504645
vt 0.372869 0.508038
vt 0.372869 0.508038
vt 0.340696 0.508474
vt 0.260903 0.784762
vt 0.328757 0.784762
vt 0.336386 0.832894
vt 0.253515 0.836723
vt 0.260422 0.507816
vt 0.328516 0.507816
vt 0.328516 0.600536
vt 0.260422 0.604365
vt 0.328516 0.703542
vt 0.260422 0.703542
vt 0.328516 0.784003
vt 0.260422 0.784003
vt 0.376488 0.604365
vt 0.343818 0.604365
vt 0.372869 0.717782
vt 0.340696 0.702228
vt 0.361328 0.835905
vt 0.335191 0.784003
vt 0.496525 0.507381
vt 0.414056 0.507381
vt 0.414056 0.600536
vt 0.496525 0.604365
vt 0.412142 0.71844
vt 0.496525 0.71844
vt 0.412142 0.837012
vt 0.496525 0.837012
vt 0.343818 0.604365
vt 0.376488 0.604365
vt 0.340696 0.702227
vt 0.372869 0.717782
vt 0.335191 0.784003
vt 0.361327 0.835905
vn 0 0.959415 0.281997
vn 0 0.823177 0.567785
vn 0 0.942987 -0.332829
vn 0 0.749747 -0.661724
vn 0 -0.115811 0.993271
vn 0 -0.115811 0.993271
vn 0 -0.25268 0.96755
vn 0 -0.387234 0.921982
vn 0 -0.156665 0.987652
vn 0 0.293566 0.955939
vn 0.993346 -0.008543 0.114848
vn 0.992967 -0.0041 0.118317
vn 0.993483 -0.013686 0.113157
vn 0.994374 -0.02907 0.101859
vn 0.994831 -0.040655 0.093054
vn 0.995116 -0.042903 0.088906
vn 0.995062 -0.039236 0.091168
vn 0.994776 -0.030726 0.097343
vn 0 0.489782 -0.871845
vn 0 0.489782 -0.871845
vn -0.993268 -0.00885 0.115504
vn -0.992881 -0.013794 0.118307
vn -0.993383 -0.026564 0.111733
vn -0.994284 -0.02864 0.102851
vn -0.994726 -0.040353 0.094296
vn -0.995033 -0.03792 0.092038
vn -0.994636 -0.046866 0.092211
vn -0.99375 -0.054675 0.097326
vn -0 0.188982 0.981981
vn -0 0.944911 0.327327
vn -0 0.755929 0.654654
vn -0 -0.188982 0.981981
vn 0 0.755929 -0.654654
vn -0 0.944911 -0.327327
vn 0 -0.188982 -0.981981
vn 0 0.188982 -0.981981
vn 0 -0.944911 -0.327327
vn 0 -0.755929 -0.654654
vn -0 -0.755929 0.654654
vn 0 -0.944911 0.327327
vn 1 0 0
vn 1 0 0
vn 1 0 0
vn 1 -0 0
vn 1 0 0
vn 1 0 -0
vn -1 -0 -0
vn -1 -0 -0
vn -1 -0 -0
vn -1 0 -0
vn -1 0 -0
vn -1 0 -0
vn 0 -0.66347 0.748203
vn 0 -0.979698 0.20048
vn 0 -0.258819 0.965926
vn 0 -0.258819 0.965926
vn 0 -0.965926 -0.258819
vn 0 -0.965926 -0.258819
vn 1 0 0
vn 1 0 0
vn 1 0 0
vn 1 0 0
vn 0 0.965926 0.258819
vn 0 0.965926 0.258819
vn 0 0.965926 0.258819
vn 0 0.965926 0.258819
vn -1 0 0
vn -1 0 0
vn -1 0 0
vn -1 0 0
vn -0 0.188982 0.981981
vn -0 0.944911 0.327327
vn -0 0.755929 0.654654
vn -0 -0.188982 0.981981
vn 0 0.755929 -0.654654
vn 0 0.944911 -0.327327
vn 0 -0.188982 -0.981981
vn 0 0.188982 -0.981981
vn 0 -0.944911 -0.327327
vn 0 -0.755929 -0.654654
vn -0 -0.755929 0.654654
vn -0 -0.944911 0.327327
vn 1 0 0
vn 1 0 0
vn 1 0 0
vn 1 0 0
vn 1 0 0
vn 1 0 0
vn -1 0 -0
vn -1 -0 -0
vn -1 -0 -0
vn -1 0 -0
vn -1 0 -0
vn -1 0 -0
vn 0 -0.776132 -0.63057
vn 0 -0.449112 -0.893475
vn 0 -0.449112 -0.893475
vn 0 -0.776132 -0.63057
vn -0.000001 0.977698 -0.210018
vn -0.000001 0.977698 -0.210018
vn -0.000001 0.92545 0.37887
vn -0.000001 0.523882 0.851791
vn -0 0.40342 -0.915015
vn -0 0.40342 -0.915015
vn 0.114129 0.452189 -0.88459
vn -0.114965 0.475502 -0.87217
vn 0.000001 0.977698 -0.210018
vn 0.000001 0.977698 -0.210018
vn 0.000001 0.92545 0.37887
vn 0.000001 0.523882 0.851791
vn 0.868571 -0.286921 -0.404056
vn 0.861992 -0.293354 -0.413417
vn 0.879528 -0.257351 -0.400252
vn 0.88899 -0.226259 -0.398126
vn 0.894741 -0.198811 -0.399892
vn 0.890953 -0.200939 -0.407218
vn -0.280012 -0.200193 -0.938891
vn 0.294386 -0.374743 -0.87915
vn 0.200914 -0.187701 -0.961458
vn -0.209515 -0.43793 -0.874254
vn -0.310082 0.1769 -0.934107
vn 0.317706 0.266328 -0.910018
vn -0.869595 -0.287538 -0.401407
vn -0.869615 -0.278373 -0.407772
vn -0.879426 -0.260344 -0.398537
vn -0.88766 -0.231879 -0.397859
vn -0.894999 -0.198865 -0.399285
vn -0.893327 -0.19306 -0.405827
vn 0.525477 0.193212 -0.828579
vn -0.525477 0.193212 -0.828579
vn -0.914733 -0.104619 -0.39028
vn -0.914733 -0.104619 -0.39028
vn -0.914733 -0.104619 -0.39028
vn -0.914733 -0.104619 -0.39028
vn 0.914733 -0.104619 -0.39028
vn 0.914733 -0.104619 -0.39028
vn 0.914733 -0.104619 -0.39028
vn 0.914733 -0.104619 -0.39028
vn 0 -0.59536 0.803459
vn 0 -0.59536 0.803459
vn 0 -0.59536 0.803459
vn 0 -0.59536 0.803459
vn -0.914733 -0.104619 -0.39028
vn -0.914733 -0.104619 -0.39028
vn -0.914733 -0.104619 -0.39028
vn 0.914733 -0.104619 -0.39028
vn 0.914733 -0.104619 -0.39028
vn 0.914733 -0.104619 -0.390279
vn 0.000001 -0.777803 0.628508
vn -0.000001 -0.777803 0.628508
vn -0.383653 -0.879877 -0.280404
vn -0.830216 -0.516112 -0.210643
vn 0.384126 -0.879698 -0.280319
vn 0.830223 -0.516098 -0.210647
vn -0 0.983185 0.182612
vn 0 0.983185 0.182612
vn -0 0.983185 0.182612
vn -0 0.983185 0.182612
vn 0 -0.04773 0.99886
vn 0 -0.04773 0.99886
vn 0 -0.14713 0.989117
vn -0 -0.243002 0.970026
vn -0 -0.409933 0.912116
vn -0 -0.48144 0.876479
vn -0 -0.547492 0.836811
vn 0 -0.547492 0.836811
vn 0.973283 -0.106632 -0.203346
vn 0.971543 -0.120411 -0.203975
vn 0.967805 -0.145448 -0.205421
vn 0.966002 -0.15699 -0.205411
vn 0.963809 -0.16885 -0.206304
vn 0.964557 -0.167763 -0.203682
vn 0 -0.149405 -0.988776
vn 0 -0.149405 -0.988776
vn 0 -0.106289 -0.994335
vn 0 -0.062728 -0.998031
vn 0 0.021521 -0.999768
vn 0 0.062387 -0.998052
vn 0 0.103147 -0.994666
vn 0 0.103147 -0.994666
vn -0.973283 -0.106646 -0.203342
vn -0.971659 -0.119433 -0.203997
vn -0.968033 -0.144177 -0.205243
vn -0.96592 -0.156844 -0.205908
vn -0.963689 -0.168627 -0.207048
vn -0.963537 -0.171098 -0.205723
usemtl datan_common_king1-legs_614d4b0e
f 1/1/1 2/2/2 3/3/3
f 3/3/3 4/4/4 1/1/1
f 5/5/5 6/6/6 7/7/7
f 7/7/7 8/8/8 5/5/5
f 8/8/8 7/7/7 9/9/9
f 9/9/9 10/10/10 8/8/8
f 10/10/10 9/9/9 2/2/2
f 2/2/2 1/1/1 10/10/10
f 11/11/11 12/12/12 13/13/13
f 13/13/13 14/14/14 11/11/11
f 14/14/14 13/13/13 15/15/15
f 15/15/15 16/16/16 14/14/14
f 16/16/16 15/15/15 17/17/17
f 17/17/17 18/18/18 16/16/16
f 19/19/19 20/20/20 4/4/4
f 4/4/4 3/3/3 19/19/19
f 21/21/21 22/22/22 23/23/23
f 23/23/23 24/24/24 21/21/21
f 24/24/24 23/23/23 25/25/25
f 25/25/25 26/26/26 24/24/24
f 26/26/26 25/25/25 27/27/27
f 27/27/27 28/28/28 26/26/26
f 29/29/29 30/30/30 31/31/31
f 29/29/29 31/31/31 32/32/32
f 30/30/30 33/33/33 34/34/34
f 30/30/30 34/34/34 31/31/31
f 33/33/33 35/35/35 36/36/36
f 33/33/33 36/36/36 34/34/34
f 35/35/35 37/37/37 38/38/38
f 35/35/35 38/38/38 36/36/36
f 37/37/37 39/39/39 40/40/40
f 37/37/37 40/40/40 38/38/38
f 39/39/39 29/29/29 32/32/32
f 39/39/39 32/32/32 40/40/40
f 41/41/41 42/42/42 43/43/43
f 41/41/41 44/44/44 42/42/42
f 41/41/41 45/45/45 44/44/44
f 41/41/41 46/46/46 45/45/45
f 47/47/47 48/48/48 49/49/49
f 47/47/47 49/49/49 50/50/50
f 47/47/47 50/50/50 51/51/51
f 47/47/47 51/51/51 52/52/52
f 53/53/53 54/54/54 55/55/55
f 55/55/55 56/56/56 53/53/53
f 57/57/57 58/58/58 54/54/54
f 54/54/54 53/53/53 57/57/57
f 59/59/59 60/60/60 61/61/61
f 61/61/61 62/62/62 59/59/59
f 63/63/63 64/64/64 65/65/65
f 65/65/65 66/66/66 63/63/63
f 67/67/67 68/68/68 69/69/69
f 69/69/69 70/70/70 67/67/67
f 71/71/71 72/72/72 73/73/73
f 71/71/71 73/73/73 74/74/74
f 72/72/72 75/75/75 76/76/76
f 72/72/72 76/76/76 73/73/73
f 75/75/75 77/77/77 78/78/78
f 75/75/75 78/78/78 76/76/76
f 77/77/77 79/79/79 80/80/80
f 77/77/77 80/80/80 78/78/78
f 79/79/79 81/81/81 82/82/82
f 79/79/79 82/82/82 80/80/80
f 81/81/81 71/71/71 74/74/74
f 81/81/81 74/74/74 82/82/82
f 83/83/83 84/84/84 85/85/85
f 83/83/83 86/86/86 84/84/84
f 83/83/83 87/87/87 86/86/86
f 83/83/83 88/88/88 87/87/87
f 89/89/89 90/90/90 91/91/91
f 89/89/89 91/91/91 92/92/92
f 89/89/89 92/92/92 93/93/93
f 89/89/89 93/93/93 94/94/94
f 95/95/95 96/96/96 97/97/97
f 97/97/97 98/98/98 95/95/95
f 99/99/99 100/100/100 101/101/101
f 101/101/101 102/102/102 99/99/99
f 103/103/103 104/104/104 105/105/105
f 105/105/105 106/106/106 103/103/103
f 107/107/107 108/108/108 109/109/109
f 109/109/109 110/110/110 107/107/107
f 111/111/111 112/112/112 113/113/113
f 113/113/113 114/114/114 111/111/111
f 114/114/114 113/113/113 115/115/115
f 115/115/115 116/116/116 114/114/114
f 97/97/97 96/96/96 117/117/117
f 117/117/117 118/118/118 97/97/97
f 119/119/119 120/120/120 121/121/121
f 121/121/121 122/122/122 119/119/119
f 123/123/123 124/124/124 125/125/125
f 125/125/125 126/126/126 123/123/123
f 126/126/126 125/125/125 127/127/127
f 127/127/127 128/128/128 126/126/126
f 106/106/106 105/105/105 122/122/122
f 122/122/122 121/121/121 106/106/106
f 122/122/122 118/118/118 119/119/119
f 118/118/118 122/122/122 129/129/129
f 118/118/118 117/117/117 120/120/120
f 120/120/120 119/119/119 118/118/118
f 117/117/117 130/130/130 121/121/121
f 121/121/121 120/120/120 117/117/117
f 131/131/131 132/132/132 133/133/133
f 133/133/133 134/134/134 131/131/131
f 135/135/135 136/136/136 137/137/137
f 137/137/137 138/138/138 135/135/135
f 139/139/139 140/140/140 141/141/141
f 141/141/141 142/142/142 139/139/139
f 143/143/143 144/144/144 145/145/145
f 145/145/145 133/133/133 143/143/143
f 146/146/146 147/147/147 138/138/138
f 138/138/138 148/148/148 146/146/146
f 102/102/102 101/101/101 149/149/149
f 110/110/110 109/109/109 150/150/150
f 121/121/121 130/130/130 106/106/106
f 122/122/122 105/105/105 129/129/129
f 151/151/151 152/152/152 153/153/153
f 153/153/153 154/154/154 151/151/151
f 155/155/155 156/156/156 157/157/157
f 157/157/157 158/158/158 155/155/155
f 159/159/159 160/160/160 161/161/161
f 161/161/161 162/162/162 159/159/159
f 162/162/162 161/161/161 163/163/163
f 163/163/163 164/164/164 162/162/162
f 164/164/164 163/163/163 165/165/165
f 165/165/165 166/166/166 164/164/164
f 154/154/154 153/153/153 167/167/167
f 167/167/167 168/168/168 154/154/154
f 168/168/168 167/167/167 169/169/169
f 169/169/169 170/170/170 168/168/168
f 170/170/170 169/169/169 171/171/171
f 171/171/171 172/172/172 170/170/170
f 173/173/173 174/174/174 175/175/175
f 175/175/175 176/176/176 173/173/173
f 176/176/176 175/175/175 177/177/177
f 177/177/177 178/178/178 176/176/176
f 178/178/178 177/177/177 179/179/179
f 179/179/179 180/180/180 178/178/178
f 152/152/152 151/151/151 181/181/181
f 181/181/181 182/182/182 152/152/152
f 182/182/182 181/181/181 183/183/183
f 183/183/183 184/184/184 182/182/182
f 184/184/184 183/183/183 185/185/185
f 185/185/185 186/186/186 184/184/184
