# Generated from Nova1492 GX by tools/nova1492/GxObjConverter
mtllib datan_common_mobbody34x_b11d19b1.mtl
o datan_common_mobbody34x_b11d19b1
v 0 0.194192 0
v -0.184687 0.060009 -0
v 0 0.194192 0.423385
v -0.184687 0.060009 0.423385
v 0.184687 0.060008 -0
v 0.184687 0.060008 0.423385
v 0.114143 -0.157104 -0
v 0.114143 -0.157104 0.423385
v -0.114143 -0.157104 -0
v -0.114143 -0.157104 0.423385
v -0.133794 0.155353 0.84677
v -0.279299 0.048007 0.821113
v 0.011711 0.048007 0.872426
v -0.043867 -0.125684 0.862626
v -0.223721 -0.125684 0.830913
v -0.217026 0.021214 1.460923
v -0.184878 -0.077727 1.460923
v -0.080846 -0.077727 1.460923
v -0.132862 0.082363 1.460923
v -0.048698 0.021214 1.460923
v -0.015874 0.031879 1.13153
v -0.132862 0.116876 1.13153
v -0.132862 0.082363 1.460923
v -0.048698 0.021214 1.460923
v -0.24985 0.031879 1.13153
v -0.217026 0.021214 1.460923
v -0.205165 -0.105649 1.13153
v -0.184878 -0.077727 1.460923
v -0.060559 -0.105649 1.13153
v -0.080846 -0.077727 1.460923
v -0.044488 0.028751 0.822138
v -0.132975 0.09304 0.822138
v -0.132975 0.066457 1.137073
v -0.06977 0.020537 1.137073
v -0.221462 0.028751 0.822138
v -0.19618 0.020536 1.137073
v -0.187663 -0.075271 0.822138
v -0.172038 -0.053765 1.137073
v -0.078287 -0.075271 0.822138
v -0.093912 -0.053765 1.137073
vt 0.976485 0.953219
vt 0.976484 0.816901
vt 0.757656 0.953219
vt 0.757656 0.816901
vt 0.976485 0.816901
vt 0.757656 0.816901
vt 0.976484 0.546781
vt 0.757656 0.546781
vt 0.976484 0.546781
vt 0.757656 0.546781
vt 0.523516 0.953219
vt 0.523516 0.816901
vt 0.523516 0.816901
vt 0.523516 0.546781
vt 0.523516 0.546781
vt 0.023516 0.786276
vt 0.112949 0.546781
vt 0.387051 0.546781
vt 0.242344 0.953219
vt 0.476485 0.816901
vt 0.023516 0.305738
vt 0.023516 0.405935
vt 0.476484 0.405935
vt 0.476484 0.275113
vt 0.023516 0.275113
vt 0.476484 0.275113
vt 0.023516 0.094065
vt 0.476484 0.094065
vt 0.023516 0.094065
vt 0.476484 0.094065
vt 0.976719 0.316901
vt 0.976719 0.453219
vt 0.523281 0.453219
vt 0.523281 0.286276
vt 0.976719 0.286276
vt 0.523281 0.286276
vt 0.976719 0.046781
vt 0.523281 0.046781
vt 0.976719 0.046781
vt 0.523281 0.046781
vn 0.18372 0.758598 -0.625121
vn -0.790569 0.486625 -0.371748
vn -0.011289 0.996901 0.077852
vn -0.945895 0.310676 -0.093616
vn 0.778243 0.059693 -0.62512
vn 0.930925 0.311455 0.190722
vn 0.672499 -0.218508 -0.707107
vn 0.944676 -0.306944 0.115642
vn -0.527552 -0.171411 -0.83205
vn -0.939169 -0.307875 -0.152234
vn -0.293705 0.737156 0.608555
vn -0.984504 0.075616 0.158219
vn 0.475801 0.366831 0.799406
vn 0.674181 -0.248731 0.695422
vn -0.465606 -0.09937 0.879396
vn 0 0 1
vn 0 0 1
vn 0 0 1
vn 0 0 1
vn 0 0 1
vn 0.815675 0.502077 -0.28739
vn -0.192654 0.795492 -0.574523
vn 0.234166 0.966904 0.10131
vn 0.991941 0.076085 0.101311
vn -0.816092 0.062597 -0.574522
vn -0.84722 0.521493 0.10131
vn -0.700325 -0.227547 -0.676585
vn -0.947658 -0.307912 0.084465
vn 0.547441 -0.177874 -0.817722
vn 0.947657 -0.307914 0.084467
vn 0.848746 0.522441 0.081762
vn -0.234588 0.96865 0.081762
vn 0.234583 0.968652 0.081761
vn 0.993733 0.076226 0.081761
vn -0.993733 0.076222 0.081762
vn -0.848748 0.522438 0.081762
vn -0.948846 -0.308301 0.068128
vn -0.948846 -0.308301 0.068128
vn 0.948847 -0.308299 0.068129
vn 0.948848 -0.308297 0.068128
usemtl datan_common_mobbody34x_b11d19b1
f 1/1/1 2/2/2 3/3/3
f 3/3/3 2/2/2 4/4/4
f 5/5/5 1/1/1 6/6/6
f 6/6/6 1/1/1 3/3/3
f 7/7/7 5/5/5 8/8/8
f 8/8/8 5/5/5 6/6/6
f 2/2/2 9/9/9 4/4/4
f 4/4/4 9/9/9 10/10/10
f 3/3/3 4/4/4 11/11/11
f 11/11/11 4/4/4 12/12/12
f 6/6/6 3/3/3 13/13/13
f 13/13/13 3/3/3 11/11/11
f 8/8/8 6/6/6 14/14/14
f 14/14/14 6/6/6 13/13/13
f 4/4/4 10/10/10 12/12/12
f 12/12/12 10/10/10 15/15/15
f 9/9/9 5/5/5 7/7/7
f 9/9/9 1/1/1 5/5/5
f 9/9/9 2/2/2 1/1/1
f 14/14/14 13/13/13 15/15/15
f 13/13/13 11/11/11 15/15/15
f 11/11/11 12/12/12 15/15/15
f 16/16/16 17/17/17 18/18/18
f 19/19/19 16/16/16 18/18/18
f 20/20/20 19/19/19 18/18/18
f 21/21/21 22/22/22 23/23/23
f 21/21/21 23/23/23 24/24/24
f 22/22/22 25/25/25 26/26/26
f 22/22/22 26/26/26 23/23/23
f 25/25/25 27/27/27 28/28/28
f 25/25/25 28/28/28 26/26/26
f 29/29/29 21/21/21 24/24/24
f 29/29/29 24/24/24 30/30/30
f 25/25/25 29/29/29 27/27/27
f 22/22/22 29/29/29 25/25/25
f 21/21/21 29/29/29 22/22/22
f 31/31/31 32/32/32 33/33/33
f 31/31/31 33/33/33 34/34/34
f 32/32/32 35/35/35 36/36/36
f 32/32/32 36/36/36 33/33/33
f 35/35/35 37/37/37 38/38/38
f 35/35/35 38/38/38 36/36/36
f 39/39/39 31/31/31 34/34/34
f 39/39/39 34/34/34 40/40/40
