# Generated from Nova1492 GX by tools/nova1492/GxObjConverter
mtllib datan_common_mobmis39_6061c461.mtl
o datan_common_mobmis39_6061c461
v -0.628816 -0.123729 -6.993993
v -0.628816 -0.123729 -0
v 0.628816 -0.123729 -6.993993
v 0.628816 -0.123729 -0
v -0.628816 0.123729 -0
v 0.628816 0.123729 -0
v 0.628816 0.123729 -6.993993
v -0.628816 0.123729 -6.993993
vt 0.448744 0.880879
vt 0.448744 0.994121
vt 0.380879 0.880879
vt 0.380879 0.994121
vt 0.448744 0.994121
vt 0.380879 0.994121
vt 0.380879 0.880879
vt 0.448744 0.880879
vn 0 1 0
vn 0 0.707107 -0.707107
vn 0 1 0
vn 0 0.707107 -0.707107
vn 0 0.894427 -0.447214
vn 0 0.447214 -0.894427
vn 0 1 0
vn 0 1 0
usemtl datan_common_mobmis39_6061c461
f 1/1/1 2/2/2 3/3/3
f 4/4/4 3/3/3 2/2/2
f 5/5/5 6/6/6 7/7/7
f 7/7/7 8/8/8 5/5/5
