# Generated from Nova1492 GX by tools/nova1492/GxObjConverter
mtllib datan_common_mob20-body_b8bc7ccd.mtl
o datan_common_mob20-body_b8bc7ccd
v 0 -0 0.318635
v 0 -0.193405 0.429784
v 0.096702 -0.167493 0.429784
v 0.167493 -0.096702 0.429784
v 0.193405 0 0.429784
v 0.167493 0.096702 0.429784
v 0.096702 0.167493 0.429784
v 0 0.193405 0.429784
v 0 -0.412771 0.237342
v 0.206385 -0.35747 0.237342
v 0.35747 -0.206385 0.237342
v 0.412771 0 0.237342
v 0.35747 0.206385 0.237342
v 0.206385 0.35747 0.237342
v 0 0.412771 0.237342
v 0 -0.412771 0.237342
v 0 -0.476626 -0.000971
v 0.238313 -0.412771 -0.000971
v 0.206385 -0.35747 0.237342
v 0.412771 -0.238313 -0.000971
v 0.35747 -0.206385 0.237342
v 0.476626 0 -0.000971
v 0.412771 0 0.237342
v 0.412771 0 0.237342
v 0.476626 0 -0.000971
v 0.41277 0.238313 -0.000971
v 0.35747 0.206385 0.237342
v 0.238313 0.412771 -0.000971
v 0.206385 0.35747 0.237342
v 0 0.476626 -0.000971
v 0 0.412771 0.237342
v 0 -0.412771 -0.239284
v 0.206385 -0.35747 -0.239284
v 0.35747 -0.206385 -0.239284
v 0.412771 0 -0.239284
v 0.412771 0 -0.239284
v 0.35747 0.206385 -0.239284
v 0.206385 0.35747 -0.239284
v 0 0.412771 -0.239284
v 0 -0.412771 -0.239284
v 0 -0.238313 -0.413742
v 0.119157 -0.206385 -0.413742
v 0.206385 -0.35747 -0.239284
v 0.35747 0.206385 -0.239284
v 0.206385 0.119157 -0.413742
v 0.119157 0.206385 -0.413742
v 0.206385 0.35747 -0.239284
v 0 0.238313 -0.413742
v 0 0.412771 -0.239284
v 0 0 -0.477598
v 0.35747 -0.325782 -0.525664
v 0.35747 -0.21747 -0.642106
v 0.35747 -0.206385 -0.239284
v 0.412771 0 -0.239284
v 0.35747 0.206385 -0.239284
v 0.195123 -0.302812 -0.614865
v 0.261179 -0.209284 -0.693035
v 0.119157 -0.206385 -0.413742
v 0.195123 -0.302812 -0.614865
v 0.261179 -0.209284 -0.693035
v 0.206385 0.119157 -0.413742
v 0.195123 -0.302812 -0.614865
v 0.119157 -0.206385 -0.413742
v 0.35747 -0.206385 -0.239284
v -0.096702 -0.167493 0.429784
v -0.167493 -0.096702 0.429784
v -0.193405 0 0.429784
v -0.167493 0.096702 0.429784
v -0.096702 0.167493 0.429784
v -0.206385 -0.35747 0.237342
v -0.35747 -0.206385 0.237342
v -0.412771 0 0.237342
v -0.35747 0.206385 0.237342
v -0.206385 0.35747 0.237342
v 0 -0.412771 0.237342
v -0.238313 -0.412771 -0.000971
v 0 -0.476626 -0.000971
v -0.206385 -0.35747 0.237342
v -0.412771 -0.238313 -0.000971
v -0.35747 -0.206385 0.237342
v -0.476626 0 -0.000971
v -0.412771 0 0.237342
v -0.412771 0 0.237342
v -0.41277 0.238313 -0.000971
v -0.476626 0 -0.000971
v -0.35747 0.206385 0.237342
v -0.238313 0.412771 -0.000971
v -0.206385 0.35747 0.237342
v 0 0.476626 -0.000971
v 0 0.412771 0.237342
v -0.206385 -0.35747 -0.239284
v 0 -0.412771 -0.239284
v -0.35747 -0.206385 -0.239284
v -0.412771 0 -0.239284
v -0.35747 0.206385 -0.239284
v -0.412771 0 -0.239284
v -0.206385 0.35747 -0.239284
v 0 0.412771 -0.239284
v -0.119157 -0.206385 -0.413742
v -0.206385 -0.35747 -0.239284
v -0.35747 0.206385 -0.239284
v -0.119157 0.206385 -0.413742
v -0.206385 0.119157 -0.413742
v -0.206385 0.35747 -0.239284
v -0.35747 -0.325782 -0.525664
v -0.35747 -0.206385 -0.239284
v -0.35747 -0.21747 -0.642106
v -0.412771 0 -0.239284
v -0.35747 0.206385 -0.239284
v -0.195123 -0.302812 -0.614865
v -0.261179 -0.209284 -0.693035
v -0.119157 -0.206385 -0.413742
v -0.195123 -0.302812 -0.614865
v -0.261179 -0.209284 -0.693035
v -0.206385 0.119157 -0.413742
v -0.195123 -0.302812 -0.614865
v -0.119157 -0.206385 -0.413742
v -0.35747 -0.206385 -0.239284
vt 0.336633 0.766681
vt 0.336633 0.712144
vt 0.36383 0.719035
vt 0.383987 0.738816
vt 0.391549 0.766161
vt 0.38439 0.793725
vt 0.364339 0.81412
vt 0.336633 0.821908
vt 0.336633 0.62454
vt 0.408155 0.643541
vt 0.460272 0.695884
vt 0.479078 0.767216
vt 0.459722 0.838315
vt 0.40756 0.890232
vt 0.336633 0.909309
vt 0.487127 0.557275
vt 0.563269 0.549124
vt 0.563242 0.621726
vt 0.490031 0.623783
vt 0.563567 0.691777
vt 0.490818 0.690643
vt 0.56354 0.764379
vt 0.488356 0.756105
vt 0.487932 0.774452
vt 0.564073 0.7663
vt 0.564047 0.838902
vt 0.490836 0.84096
vt 0.564373 0.908954
vt 0.491624 0.907821
vt 0.564347 0.981556
vt 0.489163 0.973282
vt 0.638453 0.557398
vt 0.635991 0.62286
vt 0.636778 0.68972
vt 0.639682 0.756228
vt 0.639258 0.774574
vt 0.636796 0.840036
vt 0.637584 0.906896
vt 0.640489 0.973404
vt 0.795128 0.622218
vt 0.795127 0.695721
vt 0.758231 0.704131
vt 0.731413 0.634347
vt 0.676583 0.858994
vt 0.731514 0.804951
vt 0.76019 0.829264
vt 0.7303 0.897409
vt 0.795128 0.837579
vt 0.795127 0.911221
vt 0.795128 0.767294
vt 0.883179 0.418561
vt 0.92216 0.455606
vt 0.786369 0.458587
vt 0.786761 0.527994
vt 0.787328 0.598007
vt 0.941741 0.396715
vt 0.958664 0.437016
vt 0.811863 0.35326
vt 0.890668 0.350793
vt 0.954288 0.472925
vt 0.870286 0.591829
vt 0.991262 0.490691
vt 0.976636 0.564507
vt 0.6764 0.668239
vt 0.309435 0.719035
vt 0.289278 0.738816
vt 0.281717 0.766161
vt 0.288876 0.793725
vt 0.308927 0.81412
vt 0.26511 0.643541
vt 0.212993 0.695884
vt 0.194187 0.767216
vt 0.213544 0.838315
vt 0.265706 0.890232
vt 0.181757 0.558915
vt 0.105643 0.623367
vt 0.105615 0.550766
vt 0.178854 0.625423
vt 0.105319 0.693419
vt 0.178068 0.692284
vt 0.105347 0.766021
vt 0.180531 0.757745
vt 0.181826 0.772611
vt 0.105711 0.837062
vt 0.105684 0.76446
vt 0.178922 0.839119
vt 0.105385 0.907113
vt 0.178134 0.905979
vt 0.105412 0.979715
vt 0.180596 0.971441
vt 0.032894 0.624503
vt 0.030431 0.559041
vt 0.032108 0.691363
vt 0.029205 0.757871
vt 0.032962 0.838196
vt 0.0305 0.772734
vt 0.032175 0.905056
vt 0.02927 0.971564
vt 0.832024 0.704131
vt 0.858842 0.634347
vt 0.913672 0.858994
vt 0.830065 0.829264
vt 0.858741 0.804951
vt 0.859955 0.897409
vt 0.883179 0.418561
vt 0.786369 0.458587
vt 0.92216 0.455606
vt 0.786761 0.527994
vt 0.787328 0.598007
vt 0.941741 0.396715
vt 0.958664 0.437016
vt 0.811863 0.35326
vt 0.890668 0.350793
vt 0.954288 0.472925
vt 0.870286 0.591829
vt 0.991262 0.490691
vt 0.976636 0.564507
vt 0.913855 0.668239
vn 0.132338 -0.49389 0.859395
vn -0.174008 -0.649408 0.740264
vn 0.4754 -0.4754 0.740264
vn 0.649408 -0.174009 0.740264
vn 0.649408 0.174009 0.740264
vn 0.4754 0.4754 0.740264
vn 0.174009 0.649408 0.740264
vn -0.174009 0.649408 0.740264
vn -0.174009 -0.649408 0.740264
vn 0.4754 -0.4754 0.740264
vn 0.649408 -0.174008 0.740264
vn 0.649408 0.174008 0.740264
vn 0.4754 0.4754 0.740264
vn 0.174008 0.649408 0.740264
vn -0.174009 0.649408 0.740264
vn 0.250563 -0.935113 0.250563
vn 0.250563 -0.935113 -0.250563
vn 0.684551 -0.68455 -0.250563
vn 0.68455 -0.68455 0.250563
vn 0.935113 -0.250563 -0.250563
vn 0.935113 -0.250563 0.250563
vn 0.935113 -0.250563 -0.250563
vn 0.935113 -0.250563 0.250563
vn 0.935113 0.250563 0.250563
vn 0.935113 0.250563 -0.250563
vn 0.68455 0.68455 -0.250563
vn 0.68455 0.684551 0.250563
vn 0.250563 0.935113 -0.250563
vn 0.250563 0.935113 0.250563
vn 0.250563 0.935113 -0.250563
vn 0.250563 0.935113 0.250563
vn 0.250563 -0.935113 -0.250563
vn 0.68455 -0.68455 -0.250563
vn 0.935113 -0.250563 -0.250563
vn 0.935113 -0.250563 -0.250563
vn 0.935113 0.250563 -0.250563
vn 0.68455 0.684551 -0.250563
vn 0.250563 0.935113 -0.250563
vn 0.250563 0.935113 -0.250563
vn -0.186157 -0.694747 -0.694747
vn -0.069184 -0.258199 -0.963611
vn 0.50859 -0.50859 -0.694747
vn 0.50859 -0.50859 -0.694747
vn 0.50859 0.50859 -0.694747
vn 0.189015 0.189015 -0.963611
vn 0.069184 0.258199 -0.963611
vn 0.186157 0.694747 -0.694747
vn -0.069184 0.258199 -0.963611
vn -0.186157 0.694747 -0.694747
vn -0.069184 0.258199 -0.963611
vn -0.271149 -0.888417 0.370397
vn 0.40423 0.6301 -0.663002
vn -0.271149 -0.888417 0.370397
vn 0.931983 0.249724 -0.262764
vn 0.40423 0.6301 -0.663002
vn 0.261223 -0.706782 -0.657436
vn 0.273821 -0.723258 -0.633972
vn -0.271149 -0.888417 0.370397
vn -0.301507 -0.899151 0.317208
vn -0.862931 0.236002 -0.446826
vn -0.867758 0.232515 -0.439241
vn -0.867758 0.232515 -0.439241
vn -0.867758 0.232515 -0.439241
vn 0.50859 -0.50859 -0.694747
vn -0.4754 -0.4754 0.740264
vn -0.649408 -0.174009 0.740264
vn -0.649408 0.174009 0.740264
vn -0.4754 0.4754 0.740264
vn -0.174009 0.649408 0.740264
vn -0.4754 -0.4754 0.740264
vn -0.649408 -0.174008 0.740264
vn -0.649408 0.174008 0.740264
vn -0.4754 0.4754 0.740264
vn -0.174008 0.649408 0.740264
vn -0.250563 -0.935113 0.250563
vn -0.684551 -0.68455 -0.250563
vn -0.250563 -0.935113 -0.250563
vn -0.68455 -0.68455 0.250563
vn -0.935113 -0.250563 -0.250563
vn -0.935113 -0.250563 0.250563
vn -0.935113 -0.250563 -0.250563
vn -0.935113 -0.250563 0.250563
vn -0.935113 0.250563 0.250563
vn -0.68455 0.68455 -0.250563
vn -0.935113 0.250563 -0.250563
vn -0.68455 0.684551 0.250563
vn -0.250563 0.935113 -0.250563
vn -0.250563 0.935113 0.250563
vn -0.250563 0.935113 -0.250563
vn -0.250563 0.935113 0.250563
vn -0.68455 -0.68455 -0.250563
vn -0.250563 -0.935113 -0.250563
vn -0.935113 -0.250563 -0.250563
vn -0.935113 -0.250563 -0.250563
vn -0.68455 0.684551 -0.250563
vn -0.935113 0.250563 -0.250563
vn -0.250563 0.935113 -0.250563
vn -0.250563 0.935113 -0.250563
vn -0.50859 -0.50859 -0.694747
vn -0.50859 -0.50859 -0.694747
vn -0.50859 0.50859 -0.694747
vn -0.069184 0.258199 -0.963611
vn -0.189015 0.189015 -0.963611
vn -0.186157 0.694747 -0.694747
vn 0.271149 -0.888417 0.370397
vn 0.271149 -0.888417 0.370397
vn -0.40423 0.630101 -0.663002
vn -0.931983 0.249724 -0.262764
vn -0.40423 0.630101 -0.663002
vn -0.261223 -0.706782 -0.657436
vn -0.273821 -0.723258 -0.633972
vn 0.271149 -0.888417 0.370397
vn 0.301507 -0.899151 0.317208
vn 0.862931 0.236002 -0.446826
vn 0.867758 0.232515 -0.439241
vn 0.867758 0.232515 -0.439241
vn 0.867758 0.232515 -0.439241
vn -0.50859 -0.50859 -0.694747
usemtl datan_common_mob20-body_b8bc7ccd
f 1/1/1 2/2/2 3/3/3
f 1/1/1 3/3/3 4/4/4
f 1/1/1 4/4/4 5/5/5
f 1/1/1 5/5/5 6/6/6
f 1/1/1 6/6/6 7/7/7
f 1/1/1 7/7/7 8/8/8
f 2/2/2 9/9/9 10/10/10
f 10/10/10 3/3/3 2/2/2
f 3/3/3 10/10/10 11/11/11
f 11/11/11 4/4/4 3/3/3
f 4/4/4 11/11/11 12/12/12
f 12/12/12 5/5/5 4/4/4
f 5/5/5 12/12/12 13/13/13
f 13/13/13 6/6/6 5/5/5
f 6/6/6 13/13/13 14/14/14
f 14/14/14 7/7/7 6/6/6
f 7/7/7 14/14/14 15/15/15
f 15/15/15 8/8/8 7/7/7
f 16/16/16 17/17/17 18/18/18
f 18/18/18 19/19/19 16/16/16
f 19/19/19 18/18/18 20/20/20
f 20/20/20 21/21/21 19/19/19
f 21/21/21 20/20/20 22/22/22
f 22/22/22 23/23/23 21/21/21
f 24/24/24 25/25/25 26/26/26
f 26/26/26 27/27/27 24/24/24
f 27/27/27 26/26/26 28/28/28
f 28/28/28 29/29/29 27/27/27
f 29/29/29 28/28/28 30/30/30
f 30/30/30 31/31/31 29/29/29
f 17/17/17 32/32/32 33/33/33
f 33/33/33 18/18/18 17/17/17
f 18/18/18 33/33/33 34/34/34
f 34/34/34 20/20/20 18/18/18
f 20/20/20 34/34/34 35/35/35
f 35/35/35 22/22/22 20/20/20
f 25/25/25 36/36/36 37/37/37
f 37/37/37 26/26/26 25/25/25
f 26/26/26 37/37/37 38/38/38
f 38/38/38 28/28/28 26/26/26
f 28/28/28 38/38/38 39/39/39
f 39/39/39 30/30/30 28/28/28
f 40/40/40 41/41/41 42/42/42
f 42/42/42 43/43/43 40/40/40
f 44/44/44 45/45/45 46/46/46
f 46/46/46 47/47/47 44/44/44
f 47/47/47 46/46/46 48/48/48
f 48/48/48 49/49/49 47/47/47
f 50/50/50 42/42/42 41/41/41
f 50/50/50 45/45/45 42/42/42
f 50/50/50 46/46/46 45/45/45
f 50/50/50 48/48/48 46/46/46
f 51/51/51 52/52/52 53/53/53
f 54/54/54 53/53/53 52/52/52
f 55/55/55 54/54/54 52/52/52
f 56/56/56 57/57/57 52/52/52
f 52/52/52 51/51/51 56/56/56
f 58/58/58 59/59/59 51/51/51
f 51/51/51 53/53/53 58/58/58
f 60/60/60 61/61/61 55/55/55
f 55/55/55 52/52/52 60/60/60
f 61/61/61 60/60/60 62/62/62
f 61/61/61 62/62/62 63/63/63
f 42/42/42 64/64/64 43/43/43
f 1/1/1 65/65/65 2/2/2
f 1/1/1 66/66/66 65/65/65
f 1/1/1 67/67/67 66/66/66
f 1/1/1 68/68/68 67/67/67
f 1/1/1 69/69/69 68/68/68
f 1/1/1 8/8/8 69/69/69
f 2/2/2 70/70/70 9/9/9
f 70/70/70 2/2/2 65/65/65
f 65/65/65 71/71/71 70/70/70
f 71/71/71 65/65/65 66/66/66
f 66/66/66 72/72/72 71/71/71
f 72/72/72 66/66/66 67/67/67
f 67/67/67 73/73/73 72/72/72
f 73/73/73 67/67/67 68/68/68
f 68/68/68 74/74/74 73/73/73
f 74/74/74 68/68/68 69/69/69
f 69/69/69 15/15/15 74/74/74
f 15/15/15 69/69/69 8/8/8
f 75/75/75 76/76/76 77/77/77
f 76/76/76 75/75/75 78/78/78
f 78/78/78 79/79/79 76/76/76
f 79/79/79 78/78/78 80/80/80
f 80/80/80 81/81/81 79/79/79
f 81/81/81 80/80/80 82/82/82
f 83/83/83 84/84/84 85/85/85
f 84/84/84 83/83/83 86/86/86
f 86/86/86 87/87/87 84/84/84
f 87/87/87 86/86/86 88/88/88
f 88/88/88 89/89/89 87/87/87
f 89/89/89 88/88/88 90/90/90
f 77/77/77 91/91/91 92/92/92
f 91/91/91 77/77/77 76/76/76
f 76/76/76 93/93/93 91/91/91
f 93/93/93 76/76/76 79/79/79
f 79/79/79 94/94/94 93/93/93
f 94/94/94 79/79/79 81/81/81
f 85/85/85 95/95/95 96/96/96
f 95/95/95 85/85/85 84/84/84
f 84/84/84 97/97/97 95/95/95
f 97/97/97 84/84/84 87/87/87
f 87/87/87 98/98/98 97/97/97
f 98/98/98 87/87/87 89/89/89
f 40/40/40 99/99/99 41/41/41
f 99/99/99 40/40/40 100/100/100
f 101/101/101 102/102/102 103/103/103
f 102/102/102 101/101/101 104/104/104
f 104/104/104 48/48/48 102/102/102
f 48/48/48 104/104/104 49/49/49
f 50/50/50 41/41/41 99/99/99
f 50/50/50 99/99/99 103/103/103
f 50/50/50 103/103/103 102/102/102
f 50/50/50 102/102/102 48/48/48
f 105/105/105 106/106/106 107/107/107
f 108/108/108 107/107/107 106/106/106
f 109/109/109 107/107/107 108/108/108
f 110/110/110 107/107/107 111/111/111
f 107/107/107 110/110/110 105/105/105
f 112/112/112 105/105/105 113/113/113
f 105/105/105 112/112/112 106/106/106
f 114/114/114 109/109/109 115/115/115
f 109/109/109 114/114/114 107/107/107
f 115/115/115 116/116/116 114/114/114
f 115/115/115 117/117/117 116/116/116
f 99/99/99 100/100/100 118/118/118
