# Generated from Nova1492 GX by tools/nova1492/GxObjConverter
mtllib datan_common_mobbody5_d503a723.mtl
o datan_common_mobbody5_d503a723_mesh00
v -0.1 0.000145 0.102441
v -0.1 0.019292 0.102441
v -0.1 0.019292 -0.097559
v -0.1 0.000145 -0.097559
v 0.1 0.000145 0.102441
v 0.1 0.000145 -0.097559
v 0.1 0.019292 -0.097559
v 0.1 0.019292 0.102441
v -0.1 0.000145 -0.097559
v -0.1 0.019292 -0.097559
v 0.1 0.019292 -0.097559
v 0.1 0.000145 -0.097559
v -0.1 0.019292 0.102441
v -0.1 0.000145 0.102441
v 0.1 0.000145 0.102441
v -0.155324 0.363836 0.137437
v -0.257954 0.014668 0.228277
v 0.253666 0.014668 0.228277
v 0.151036 0.363836 0.137437
v -0.257954 0.014668 0.228277
v -0.155324 0.363836 0.137437
v -0.155324 0.363836 -0.133727
v -0.257954 0.014668 -0.224567
v 0.253666 0.014668 0.228277
v 0.253666 0.014668 -0.224567
v 0.151036 0.363836 -0.133727
v 0.151036 0.363836 0.137437
v 0.001902 0.102469 0.343837
v 0.122115 0.218586 0.312723
v 0.001902 0.334703 0.28161
v -0.118311 0.218586 0.312723
v 0.001902 0.021925 0.229031
v 0.1702 0.184489 0.185472
v 0.122115 0.218586 0.312723
v 0.001902 0.102469 0.343837
v 0.001902 0.347053 0.141913
v 0.001902 0.334703 0.28161
v -0.166396 0.184489 0.185472
v -0.118311 0.218586 0.312723
vt 0.488242 0.023517
vt 0.488242 0.476484
vt 0.261758 0.476483
vt 0.261758 0.023516
vt 0.261758 0.023517
vt 0.488242 0.023516
vt 0.488242 0.476483
vt 0.261758 0.476484
vt 0.261758 0.023515
vt 0.488242 0.023515
vt 0.488242 0.476484
vt 0.261758 0.476484
vt 0.261758 0.023515
vt 0.488242 0.023515
vt 0.488242 0.476484
vt 0.511758 0.97141
vt 0.511758 0.639764
vt 0.738242 0.639764
vt 0.738242 0.97141
vt 0.886695 0.322031
vt 0.886695 0.474601
vt 0.988305 0.474601
vt 0.988305 0.306718
vt 0.886695 0.322031
vt 0.988305 0.322031
vt 0.988305 0.474601
vt 0.886695 0.474601
vt 0.783708 0.567417
vt 0.966292 0.567417
vt 0.966292 0.932583
vt 0.783708 0.932583
vt 0.371172 0.523516
vt 0.261758 0.523516
vt 0.261758 0.976484
vt 0.371172 0.976484
vt 0.371172 0.523516
vt 0.371172 0.976484
vt 0.488242 0.523516
vt 0.488242 0.976484
vn -1 0 0
vn -1 0 0
vn -1 0 0
vn -1 0 0
vn 1 0 0
vn 1 0 0
vn 1 0 0
vn 0.707107 0 0.707107
vn 0 0 -1
vn 0 0 -1
vn 0 0 -1
vn 0 0 -1
vn 0 0 1
vn 0 0 1
vn 0 0 1
vn 0 0.25178 0.967785
vn 0 0.25178 0.967785
vn 0 0.25178 0.967785
vn 0 0.25178 0.967785
vn -0.959415 0.281998 0
vn -0.599167 0.800624 0
vn -0.541707 0.794925 -0.273216
vn -0.417373 0.341741 -0.842029
vn 0.959415 0.281998 0
vn 0.655536 0.364713 -0.661255
vn 0.5609 0.604375 -0.565793
vn 0.387568 0.921841 0
vn 0 0.258819 0.965926
vn 0.000004 0.258819 0.965926
vn 0 0.258819 0.965926
vn -0.000004 0.258819 0.965926
vn 0.298821 -0.781225 0.548081
vn 0.896461 0.373325 0.238718
vn 0.896461 -0.203949 0.393399
vn -0.298821 -0.781225 0.548081
vn -0.298821 0.950602 0.084038
vn 0.298821 0.950602 0.084038
vn -0.896461 -0.203949 0.393399
vn -0.896461 0.373325 0.238718
usemtl datan_common_mobbody5_d503a723
f 1/1/1 2/2/2 3/3/3
f 3/3/3 4/4/4 1/1/1
f 5/5/5 6/6/6 7/7/7
f 7/7/7 8/8/8 5/5/5
f 9/9/9 10/10/10 11/11/11
f 11/11/11 12/12/12 9/9/9
f 13/13/13 14/14/14 15/15/15
f 15/15/15 8/8/8 13/13/13
f 16/16/16 17/17/17 18/18/18
f 18/18/18 19/19/19 16/16/16
f 20/20/20 21/21/21 22/22/22
f 22/22/22 23/23/23 20/20/20
f 24/24/24 25/25/25 26/26/26
f 26/26/26 27/27/27 24/24/24
f 23/23/23 22/22/22 26/26/26
f 26/26/26 25/25/25 23/23/23
f 22/22/22 21/21/21 27/27/27
f 27/27/27 26/26/26 22/22/22
f 28/28/28 29/29/29 30/30/30
f 30/30/30 31/31/31 28/28/28
f 32/32/32 33/33/33 34/34/34
f 34/34/34 35/35/35 32/32/32
f 33/33/33 36/36/36 37/37/37
f 37/37/37 34/34/34 33/33/33
f 36/36/36 38/38/38 39/39/39
f 39/39/39 37/37/37 36/36/36
f 38/38/38 32/32/32 35/35/35
f 35/35/35 39/39/39 38/38/38
o datan_common_mobbody5_d503a723_mesh01
v 0.034271 -0.001124 0.000433
v 0.011729 0.031217 -0.007994
v -0.000313 0.019178 0.074436
v -0.027023 0.020418 -0.005374
v -0.02843 -0.018598 0.004672
v 0.009452 -0.031912 0.008261
v 0.009452 -0.031912 0.008261
vt 0.012943 0.232667
vt 0.063298 0.244014
vt 0.122474 0.950509
vt 0.100978 0.259574
vt 0.14397 0.259574
vt 0.189306 0.244014
vt 0.003984 0.244014
vn 0.757394 -0.188299 -0.625219
vn 0.260959 0.52393 -0.8108
vn -0.004053 0.249494 0.968368
vn -0.770192 0.531089 -0.353198
vn -0.451203 -0.506028 -0.735086
vn -0.277573 -0.888362 -0.365741
vn 0.739827 -0.475331 0.476148
usemtl datan_common_mobbody5_d503a723
f 40/40/40 41/41/41 42/42/42
f 41/41/41 43/43/43 42/42/42
f 43/43/43 44/44/44 42/42/42
f 44/44/44 45/45/45 42/42/42
f 46/46/46 40/40/40 42/42/42
f 44/44/44 43/43/43 41/41/41
f 44/44/44 41/41/41 40/40/40
f 44/44/44 40/40/40 45/45/45
