# Generated from Nova1492 GX by tools/nova1492/GxObjConverter
mtllib datan_common_moblegs33y_ba0e4875.mtl
o datan_common_moblegs33y_ba0e4875
v 0.081652 -0.123612 -1.400955
v 0 -0.082085 -1.407904
v 0 0.267535 -0.939533
v 0.218826 0.156241 -0.920909
v -0.081651 -0.123613 -1.400955
v -0.218825 0.156241 -0.920909
v -0.050463 -0.190805 -1.389711
v -0.135241 -0.023835 -0.890774
v 0.050463 -0.190805 -1.389711
v 0.135242 -0.023835 -0.890774
v 0.000001 0.332368 -0.517502
v 0.310732 0.17214 -0.5189
v -0.310731 0.17214 -0.5189
v -0.192042 -0.073907 -0.521346
v 0.192043 -0.073907 -0.521346
v 0 0.219811 0.079777
v 0.362071 0.044927 0.014391
v -0.36207 0.044927 0.014391
v -0.223771 -0.220377 -0.087756
v 0.223772 -0.220377 -0.087756
v 0.049929 -0.069815 -1.326547
v 0.024372 0.273598 -1.245335
v 0.024372 0.341538 -1.191619
v 0.049929 0.074818 -1.144719
v -0.049856 -0.069815 -1.326547
v -0.049856 0.074818 -1.144719
v -0.024299 0.341538 -1.191619
v -0.024299 0.273598 -1.245335
v 0.049962 0.227201 -0.888449
v 0.024405 0.490247 -0.653217
v 0.024405 0.524322 -0.573592
v 0.049962 0.267545 -0.659643
v -0.049824 0.227201 -0.888449
v -0.049824 0.267545 -0.659643
v -0.024266 0.524322 -0.573592
v -0.024266 0.490247 -0.653217
vt 0.404956 0.47095
vt 0.484846 0.470525
vt 0.483611 0.407014
vt 0.396064 0.392127
vt 0.3973 0.47095
vt 0.396064 0.392127
vt 0.263304 0.471638
vt 0.262068 0.392815
vt 0.263304 0.471638
vt 0.262068 0.392815
vt 0.482375 0.312878
vt 0.394829 0.313304
vt 0.394829 0.313304
vt 0.261641 0.313992
vt 0.261641 0.313992
vt 0.480137 0.170084
vt 0.392591 0.170509
vt 0.392591 0.170509
vt 0.261641 0.171198
vt 0.261641 0.171198
vt 0.511758 0.523516
vt 0.511758 0.976485
vt 0.738242 0.976485
vt 0.738242 0.523515
vt 0.511758 0.523516
vt 0.738242 0.523515
vt 0.738242 0.976485
vt 0.511758 0.976485
vt 0.511758 0.523516
vt 0.511758 0.976485
vt 0.738242 0.976485
vt 0.738242 0.523515
vt 0.511758 0.523516
vt 0.738242 0.523515
vt 0.738242 0.976485
vt 0.511758 0.976485
vn 0 -0.165047 -0.986286
vn 0 -0.165047 -0.986286
vn -0.453608 0.880868 -0.13532
vn 0.879516 -0.438977 -0.183714
vn -0 -0.165048 -0.986286
vn -0.885743 -0.425423 -0.185673
vn 0 -0.165048 -0.986286
vn -0.876921 -0.439562 -0.194408
vn 0 -0.165047 -0.986286
vn 0.884404 -0.424699 -0.193545
vn -0.452981 0.876099 0.165101
vn 0.88557 -0.425329 -0.18671
vn -0.89893 -0.398665 -0.181636
vn -0.881878 -0.423341 -0.207541
vn 0.898366 -0.392008 -0.198163
vn -0.452981 0.876099 0.165101
vn 0.898366 -0.392008 -0.198163
vn -0.89893 -0.398665 -0.181636
vn -0.89893 -0.398665 -0.181636
vn 0.898366 -0.392008 -0.198163
vn 0.000016 0.161799 -0.986824
vn 0.000016 0.161799 -0.986824
vn 0.000017 0.346999 -0.937866
vn 0.000088 0.748024 -0.663672
vn 0.000016 0.161799 -0.986824
vn 0.000088 0.748024 -0.663672
vn 0.000017 0.346999 -0.937866
vn 0.000016 0.161799 -0.986824
vn 0.000038 0.576746 -0.816924
vn 0.000038 0.576746 -0.816924
vn 0.00004 0.755106 -0.655603
vn 0.000308 0.258075 0.966125
vn 0.000038 0.576746 -0.816924
vn 0.000308 0.258075 0.966125
vn 0.00004 0.755106 -0.655603
vn 0.000038 0.576746 -0.816924
usemtl datan_common_moblegs33y_ba0e4875
f 1/1/1 2/2/2 3/3/3
f 1/1/1 3/3/3 4/4/4
f 2/2/2 5/5/5 6/6/6
f 2/2/2 6/6/6 3/3/3
f 5/5/5 7/7/7 8/8/8
f 5/5/5 8/8/8 6/6/6
f 9/9/9 1/1/1 4/4/4
f 9/9/9 4/4/4 10/10/10
f 4/4/4 3/3/3 11/11/11
f 4/4/4 11/11/11 12/12/12
f 3/3/3 6/6/6 13/13/13
f 3/3/3 13/13/13 11/11/11
f 6/6/6 8/8/8 14/14/14
f 6/6/6 14/14/14 13/13/13
f 10/10/10 4/4/4 12/12/12
f 10/10/10 12/12/12 15/15/15
f 12/12/12 11/11/11 16/16/16
f 12/12/12 16/16/16 17/17/17
f 11/11/11 13/13/13 18/18/18
f 11/11/11 18/18/18 16/16/16
f 13/13/13 14/14/14 19/19/19
f 13/13/13 19/19/19 18/18/18
f 15/15/15 12/12/12 17/17/17
f 15/15/15 17/17/17 20/20/20
f 5/5/5 9/9/9 7/7/7
f 2/2/2 9/9/9 5/5/5
f 1/1/1 9/9/9 2/2/2
f 21/21/21 22/22/22 23/23/23
f 23/23/23 24/24/24 21/21/21
f 25/25/25 26/26/26 27/27/27
f 27/27/27 28/28/28 25/25/25
f 24/24/24 23/23/23 27/27/27
f 27/27/27 26/26/26 24/24/24
f 23/23/23 22/22/22 28/28/28
f 28/28/28 27/27/27 23/23/23
f 22/22/22 21/21/21 25/25/25
f 25/25/25 28/28/28 22/22/22
f 29/29/29 30/30/30 31/31/31
f 31/31/31 32/32/32 29/29/29
f 33/33/33 34/34/34 35/35/35
f 35/35/35 36/36/36 33/33/33
