# Generated from Nova1492 GX by tools/nova1492/GxObjConverter
mtllib datan_common_mob_ef05-2_71cdc8a0.mtl
o datan_common_mob_ef05-2_71cdc8a0_mesh00
v -0.75 0.75 0
v -0.75 -0.75 -0
v 0.75 0.75 0
v 0.75 -0.75 -0
vt 0.50582 0.49418
vt 0.50582 0.00582
vt 0.99418 0.49418
vt 0.99418 0.00582
vn 0 -0 1
vn 0 -0 1
vn 0 -0 1
vn 0 -0 1
usemtl datan_common_mob_ef05-2_71cdc8a0
f 1/1/1 2/2/2 3/3/3
f 4/4/4 3/3/3 2/2/2
o datan_common_mob_ef05-2_71cdc8a0_mesh01
v -0.75 0.75 0
v -0.75 -0.75 -0
v 0.75 0.75 0
v 0.75 -0.75 -0
vt 0.50582 0.49418
vt 0.50582 0.00582
vt 0.99418 0.49418
vt 0.99418 0.00582
vn 0 -0 1
vn 0 -0 1
vn 0 -0 1
vn 0 -0 1
usemtl datan_common_mob_ef05-2_71cdc8a0
f 5/5/5 6/6/6 7/7/7
f 8/8/8 7/7/7 6/6/6
o datan_common_mob_ef05-2_71cdc8a0_mesh02
v -0.75 0.75 0
v -0.75 -0.75 -0
v 0.75 0.75 0
v 0.75 -0.75 -0
vt 0.50582 0.49418
vt 0.50582 0.00582
vt 0.99418 0.49418
vt 0.99418 0.00582
vn 0 -0 1
vn 0 -0 1
vn 0 -0 1
vn 0 -0 1
usemtl datan_common_mob_ef05-2_71cdc8a0
f 9/9/9 10/10/10 11/11/11
f 12/12/12 11/11/11 10/10/10
o datan_common_mob_ef05-2_71cdc8a0_mesh03
v -0.75 0.75 0
v -0.75 -0.75 -0
v 0.75 0.75 0
v 0.75 -0.75 -0
vt 0.50582 0.49418
vt 0.50582 0.00582
vt 0.99418 0.49418
vt 0.99418 0.00582
vn 0 -0 1
vn 0 -0 1
vn 0 -0 1
vn 0 -0 1
usemtl datan_common_mob_ef05-2_71cdc8a0
f 13/13/13 14/14/14 15/15/15
f 16/16/16 15/15/15 14/14/14
o datan_common_mob_ef05-2_71cdc8a0_mesh04
v -0.75 0.75 0
v -0.75 -0.75 -0
v 0.75 0.75 0
v 0.75 -0.75 -0
vt 0.50582 0.49418
vt 0.50582 0.00582
vt 0.99418 0.49418
vt 0.99418 0.00582
vn 0 -0 1
vn 0 -0 1
vn 0 -0 1
vn 0 -0 1
usemtl datan_common_mob_ef05-2_71cdc8a0
f 17/17/17 18/18/18 19/19/19
f 20/20/20 19/19/19 18/18/18
o datan_common_mob_ef05-2_71cdc8a0_mesh05
v -0.75 0.75 0
v -0.75 -0.75 -0
v 0.75 0.75 0
v 0.75 -0.75 -0
vt 0.50582 0.49418
vt 0.50582 0.00582
vt 0.99418 0.49418
vt 0.99418 0.00582
vn 0 -0 1
vn 0 -0 1
vn 0 -0 1
vn 0 -0 1
usemtl datan_common_mob_ef05-2_71cdc8a0
f 21/21/21 22/22/22 23/23/23
f 24/24/24 23/23/23 22/22/22
o datan_common_mob_ef05-2_71cdc8a0_mesh06
v -1.686925 1.686925 -0.147393
v -1.686925 -1.686925 -0.147393
v 1.686925 1.686925 -0.147393
v 1.686925 -1.686925 -0.147393
vt 0.00582 0.49418
vt 0.00582 0.00582
vt 0.49418 0.49418
vt 0.49418 0.00582
vn 0 -0 1
vn 0 -0 1
vn 0 -0 1
vn 0 -0 1
usemtl datan_common_mob_ef05-2_71cdc8a0
f 25/25/25 26/26/26 27/27/27
f 28/28/28 27/27/27 26/26/26
o datan_common_mob_ef05-2_71cdc8a0_mesh07
v -1.590175 1.590175 -0.147393
v -1.590175 -1.590175 -0.147393
v 1.590175 1.590175 -0.147393
v 1.590175 -1.590175 -0.147393
vt 0.00582 0.49418
vt 0.00582 0.00582
vt 0.49418 0.49418
vt 0.49418 0.00582
vn -0 -0 1
vn -0 -0 1
vn -0 -0 1
vn -0 -0 1
usemtl datan_common_mob_ef05-2_71cdc8a0
f 29/29/29 30/30/30 31/31/31
f 32/32/32 31/31/31 30/30/30
o datan_common_mob_ef05-2_71cdc8a0_mesh08
v -1.431885 1.431885 -0.340849
v -1.431885 -1.431885 -0.340849
v 1.431885 1.431885 -0.340849
v 1.431885 -1.431885 -0.340849
vt 0.50582 0.99418
vt 0.50582 0.50582
vt 0.99418 0.99418
vt 0.99418 0.50582
vn 0 -0 1
vn 0 -0 1
vn 0 -0 1
vn 0 -0 1
usemtl datan_common_mob_ef05-2_71cdc8a0
f 33/33/33 34/34/34 35/35/35
f 36/36/36 35/35/35 34/34/34
