# Generated from Nova1492 GX by tools/nova1492/GxObjConverter
mtllib datan_common_mop17_body_26457712.mtl
o datan_common_mop17_body_26457712
v -0.34305 -0.057851 0.595712
v -0.357868 -0.102308 0.595712
v -0.34305 -0.057851 1.442647
v -0.357868 -0.102308 1.442647
v -0.307278 -0.039436 0.595712
v -0.34305 -0.057851 0.595712
v -0.307278 -0.039436 1.442647
v -0.34305 -0.057851 1.442647
v -0.271505 -0.057851 0.595712
v -0.271506 -0.057851 1.442647
v -0.256688 -0.102308 0.595712
v -0.271505 -0.057851 0.595712
v -0.256688 -0.102308 1.442647
v -0.271506 -0.057851 1.442647
v -0.271505 -0.146765 0.595712
v -0.271506 -0.146765 1.442647
v -0.307278 -0.16518 0.595712
v -0.271505 -0.146765 0.595712
v -0.307278 -0.16518 1.442647
v -0.271506 -0.146765 1.442647
v -0.34305 -0.146765 0.595712
v -0.34305 -0.146765 1.442647
v -0.34305 -0.146765 0.595712
v -0.34305 -0.146765 1.442647
v -0.307278 0.020686 1.908541
v -0.377258 -0.015338 1.908541
v -0.237298 -0.015338 1.908541
v -0.208311 -0.102308 1.908541
v -0.237298 -0.189278 1.908542
v -0.307278 -0.225302 1.908542
v -0.377258 -0.189278 1.908542
v -0.406245 -0.102308 1.908541
v -0.34305 -0.057851 1.442647
v -0.357868 -0.102308 1.442647
v -0.377258 -0.015338 1.475954
v -0.406245 -0.102308 1.475954
v -0.307278 -0.039436 1.442647
v -0.307278 0.020686 1.475954
v -0.271506 -0.057851 1.442647
v -0.237298 -0.015338 1.475954
v -0.256688 -0.102308 1.442647
v -0.208311 -0.102308 1.475954
v -0.271506 -0.146765 1.442647
v -0.237298 -0.189278 1.475954
v -0.307278 -0.16518 1.442647
v -0.307278 -0.225302 1.475954
v -0.34305 -0.146765 1.442647
v -0.377258 -0.189278 1.475954
v -0.377258 -0.015338 1.475954
v -0.406245 -0.102308 1.475954
v -0.377258 -0.015338 1.908541
v -0.406245 -0.102308 1.908541
v -0.307278 0.020686 1.475954
v -0.377258 -0.015338 1.475954
v -0.307278 0.020686 1.908541
v -0.377258 -0.015338 1.908541
v -0.237298 -0.015338 1.475954
v -0.237298 -0.015338 1.908541
v -0.208311 -0.102308 1.475954
v -0.237298 -0.015338 1.475954
v -0.208311 -0.102308 1.908541
v -0.237298 -0.015338 1.908541
v -0.237298 -0.189278 1.475954
v -0.237298 -0.189278 1.908542
v -0.307278 -0.225302 1.475954
v -0.237298 -0.189278 1.475954
v -0.307278 -0.225302 1.908542
v -0.237298 -0.189278 1.908542
v -0.377258 -0.189278 1.475954
v -0.377258 -0.189278 1.908542
v -0.377258 -0.189278 1.475954
v -0.377258 -0.189278 1.908542
v -0.461981 -0.399918 2.259762
v -0.461981 -0.399919 1.498239
v -0.498332 -0.434435 2.259762
v -0.498332 -0.434435 1.498239
v -0.359536 -0.470477 2.259762
v -0.359536 -0.470477 1.498239
v -0.38434 -0.418327 2.259762
v -0.38434 -0.418327 1.885928
v -0.38434 -0.418327 1.498239
v -0.429727 -0.576305 1.498239
v -0.363819 -0.52708 1.498239
v -0.429727 -0.576305 2.259762
v -0.363819 -0.52708 2.259762
v -0.496983 -0.529983 1.498239
v -0.496983 -0.529983 2.259762
v -0.363819 -0.52708 1.498239
v -0.429727 -0.576305 1.498239
v -0.359536 -0.470477 1.498239
v -0.38434 -0.418327 1.498239
v -0.413251 -0.398415 1.498239
v -0.461981 -0.399919 1.498239
v -0.498332 -0.434435 1.498239
v -0.496983 -0.529983 1.498239
v -0.38434 -0.418327 2.259762
v -0.413251 -0.398415 2.259762
v -0.359536 -0.470477 2.259762
v -0.363819 -0.52708 2.259762
v -0.429727 -0.576305 2.259762
v -0.496983 -0.529983 2.259762
v -0.461981 -0.399918 2.259762
v -0.498332 -0.434435 2.259762
v -0.413251 -0.398415 2.259762
v -0.38434 -0.418327 2.259762
v -0.413251 -0.398415 1.885928
v -0.38434 -0.418327 1.885928
v -0.413251 -0.398415 1.498239
v -0.413251 -0.398415 1.885928
v -0.317198 -0.183019 1.498239
v -0.317198 -0.183019 1.885928
v -0.38434 -0.418327 1.498239
v -0.413251 -0.398415 1.498239
v -0.288287 -0.202932 1.498239
v -0.317198 -0.183019 1.498239
v -0.38434 -0.418327 1.885928
v -0.38434 -0.418327 1.498239
v -0.288287 -0.202932 1.885928
v -0.288287 -0.202932 1.498239
v -0.413251 -0.398415 1.885928
v -0.38434 -0.418327 1.885928
v -0.317198 -0.183019 1.885928
v -0.288287 -0.202932 1.885928
v -0.413251 -0.398415 1.498239
v -0.413251 -0.398415 1.885928
v -0.413251 -0.398415 2.259762
vt 0.590366 0.893413
vt 0.60704 0.893413
vt 0.590364 0.514111
vt 0.610867 0.514111
vt 0.570318 0.893413
vt 0.586992 0.893413
vt 0.570317 0.514111
vt 0.590819 0.514111
vt 0.549815 0.893413
vt 0.549814 0.514111
vt 0.529816 0.893413
vt 0.54649 0.893413
vt 0.529815 0.514111
vt 0.550317 0.514111
vt 0.509313 0.893413
vt 0.509312 0.514112
vt 0.651359 0.893412
vt 0.668033 0.893412
vt 0.651357 0.514111
vt 0.67186 0.514111
vt 0.630856 0.893413
vt 0.630855 0.514111
vt 0.63137 0.893413
vt 0.631369 0.514111
vt 0.704143 0.805039
vt 0.682798 0.82465
vt 0.730208 0.805367
vt 0.754966 0.829271
vt 0.754673 0.862747
vt 0.733328 0.886187
vt 0.703436 0.885859
vt 0.682505 0.861955
vt 0.726556 0.735097
vt 0.733427 0.747316
vt 0.730207 0.719252
vt 0.754966 0.743156
vt 0.711276 0.738757
vt 0.704143 0.718924
vt 0.700365 0.750739
vt 0.682798 0.742364
vt 0.700215 0.767852
vt 0.682505 0.77584
vt 0.710914 0.780071
vt 0.703435 0.799744
vt 0.726195 0.780238
vt 0.733328 0.800072
vt 0.737106 0.768257
vt 0.754673 0.776632
vt 0.768966 0.703306
vt 0.79349 0.703306
vt 0.768966 0.516758
vt 0.797318 0.516758
vt 0.746235 0.703307
vt 0.764947 0.703307
vt 0.746235 0.516759
vt 0.768775 0.516759
vt 0.723695 0.703307
vt 0.723695 0.516759
vt 0.701395 0.703306
vt 0.720108 0.703306
vt 0.701395 0.516758
vt 0.723935 0.516758
vt 0.678855 0.703306
vt 0.678855 0.516758
vt 0.842737 0.703306
vt 0.861449 0.703306
vt 0.842736 0.516758
vt 0.865277 0.516758
vt 0.820197 0.703306
vt 0.820196 0.516758
vt 0.819858 0.707135
vt 0.819858 0.516758
vt 0.957659 0.610612
vt 0.957656 0.87943
vt 0.967539 0.610612
vt 0.971364 0.87943
vt 0.905886 0.610611
vt 0.905884 0.879429
vt 0.915982 0.610612
vt 0.919808 0.744454
vt 0.919807 0.883257
vt 0.869789 0.879429
vt 0.888173 0.879429
vt 0.869792 0.610611
vt 0.892004 0.610611
vt 0.989748 0.87943
vt 0.989751 0.610613
vt 0.803384 0.721986
vt 0.829379 0.735377
vt 0.784614 0.730196
vt 0.773561 0.749021
vt 0.773561 0.763825
vt 0.784613 0.78265
vt 0.803384 0.79086
vt 0.833207 0.773642
vt 0.77307 0.744232
vt 0.77307 0.759506
vt 0.780646 0.728636
vt 0.803842 0.720165
vt 0.834614 0.737931
vt 0.834614 0.773464
vt 0.784474 0.782759
vt 0.803842 0.79123
vt 0.939903 0.610612
vt 0.920208 0.610612
vt 0.939902 0.740626
vt 0.920207 0.744454
vt 0.908241 0.517113
vt 0.908241 0.599769
vt 0.944316 0.517113
vt 0.948144 0.603597
vt 0.872032 0.581677
vt 0.878685 0.581677
vt 0.872031 0.516097
vt 0.882513 0.516097
vt 0.992163 0.599769
vt 0.992163 0.517113
vt 0.951788 0.599769
vt 0.951788 0.517113
vt 0.894265 0.517113
vt 0.886258 0.517113
vt 0.894264 0.584229
vt 0.886258 0.588057
vt 0.943907 0.87943
vt 0.943909 0.744455
vt 0.94391 0.610612
vn -0.948693 0.316199 -0
vn -0.948693 -0.316199 -0
vn -0.948694 0.316196 -0
vn -0.948694 -0.316196 -0
vn 0.457693 0.889111 -0
vn -0.457692 0.889111 -0
vn 0.457693 0.889111 -0
vn -0.457692 0.889111 -0
vn 0.457693 0.88911 -0
vn 0.457693 0.889111 -0
vn 0.948694 -0.316196 0
vn 0.948694 0.316196 0
vn 0.948694 -0.316196 0
vn 0.948694 0.316196 0
vn 0.948694 -0.316196 0
vn 0.948694 -0.316196 0
vn -0.457693 -0.889111 0
vn 0.457692 -0.889111 0
vn -0.457693 -0.889111 0
vn 0.457692 -0.889111 0
vn -0.457693 -0.88911 0
vn -0.457693 -0.889111 0
vn -0.948694 -0.316196 -0
vn -0.948694 -0.316196 -0
vn 0 0 1
vn -0.000002 0.000001 1
vn 0 0.000001 1
vn 0.000002 0.000001 1
vn 0 0.000001 1
vn 0 -0 1
vn -0.000002 0.000001 1
vn -0.000002 0.000001 1
vn -0.242041 0.470188 -0.848728
vn -0.557216 -0.18572 -0.809333
vn -0.242041 0.470188 -0.848728
vn -0.557214 -0.185718 -0.809334
vn 0.242041 0.470187 -0.848729
vn 0.242041 0.470187 -0.848729
vn 0.557215 0.185718 -0.809334
vn 0.557215 0.185718 -0.809334
vn 0.557214 -0.185718 -0.809334
vn 0.557214 -0.185718 -0.809334
vn 0.24204 -0.470185 -0.84873
vn 0.24204 -0.470185 -0.84873
vn -0.242041 -0.470187 -0.848729
vn -0.242041 -0.470187 -0.848729
vn -0.557214 -0.185718 -0.809334
vn -0.557214 -0.185718 -0.809334
vn -0.948694 0.316197 -0
vn -0.948694 -0.316196 0
vn -0.948694 0.316197 -0
vn -0.948694 -0.316197 0
vn 0.457693 0.889111 -0
vn -0.457692 0.889111 -0
vn 0.457693 0.889111 -0
vn -0.457692 0.889111 -0
vn 0.457693 0.889111 -0
vn 0.457693 0.889111 -0
vn 0.948694 -0.316196 0
vn 0.948694 0.316196 -0
vn 0.948694 -0.316196 0
vn 0.948694 0.316196 -0
vn 0.948694 -0.316196 0
vn 0.948694 -0.316196 0
vn -0.457693 -0.889111 0
vn 0.457692 -0.889111 0
vn -0.457693 -0.889111 0
vn 0.457692 -0.889111 0
vn -0.457693 -0.889111 0
vn -0.457693 -0.889111 0
vn -0.948694 -0.316197 0
vn -0.948694 -0.316197 0
vn -0.030846 0.999524 -0
vn -0.030846 0.999524 -0
vn -0.999901 -0.014111 -0
vn -0.999901 -0.014111 0
vn 0.99715 -0.075448 0
vn 0.99715 -0.075448 0
vn 0.903059 0.429516 -0
vn 0.903059 0.429516 -0
vn 0.903059 0.429516 -0
vn 0.598398 -0.801199 0
vn 0.99715 -0.075448 0
vn 0.598398 -0.801199 0
vn 0.99715 -0.075448 0
vn -0.999901 -0.014111 -0
vn -0.999901 -0.014111 -0
vn -0 0 -1
vn 0 0 -1
vn -0 0 -1
vn -0 0 -1
vn -0 -0 -1
vn 0 -0 -1
vn 0 0 -1
vn 0 0 -1
vn 0 0 1
vn 0 0 1
vn 0 0 1
vn 0 0 1
vn 0 -0 1
vn 0 0 1
vn 0 0 1
vn 0 0 1
vn 0.567226 0.823562 -0
vn 0.567226 0.823562 -0
vn 0.567226 0.823562 -0
vn 0.567226 0.823562 -0
vn -0.913305 0.407276 -0
vn -0.913305 0.407276 -0
vn -0.913305 0.407276 -0
vn -0.913305 0.407276 -0
vn 0 0 -1
vn 0 -0 -1
vn 0 -0 -1
vn 0 -0 -1
vn 0.913305 -0.407276 0
vn 0.913305 -0.407276 0
vn 0.913305 -0.407276 0
vn 0.913305 -0.407276 0
vn -0 0 1
vn 0 0 1
vn 0 0 1
vn 0 0 1
vn -0.030846 0.999524 -0
vn -0.030847 0.999524 -0
vn -0.030846 0.999524 -0
usemtl datan_common_mop17_body_26457712
f 1/1/1 2/2/2 3/3/3
f 4/4/4 3/3/3 2/2/2
f 5/5/5 6/6/6 7/7/7
f 8/8/8 7/7/7 6/6/6
f 9/9/9 5/5/5 10/10/10
f 7/7/7 10/10/10 5/5/5
f 11/11/11 12/12/12 13/13/13
f 14/14/14 13/13/13 12/12/12
f 15/15/15 11/11/11 16/16/16
f 13/13/13 16/16/16 11/11/11
f 17/17/17 18/18/18 19/19/19
f 20/20/20 19/19/19 18/18/18
f 21/21/21 17/17/17 22/22/22
f 19/19/19 22/22/22 17/17/17
f 2/2/2 23/23/23 4/4/4
f 24/24/24 4/4/4 23/23/23
f 25/25/25 26/26/26 27/27/27
f 28/28/28 27/27/27 29/29/29
f 30/30/30 29/29/29 31/31/31
f 29/29/29 27/27/27 31/31/31
f 27/27/27 26/26/26 31/31/31
f 31/31/31 26/26/26 32/32/32
f 33/33/33 34/34/34 35/35/35
f 36/36/36 35/35/35 34/34/34
f 37/37/37 33/33/33 38/38/38
f 35/35/35 38/38/38 33/33/33
f 39/39/39 37/37/37 40/40/40
f 38/38/38 40/40/40 37/37/37
f 41/41/41 39/39/39 42/42/42
f 40/40/40 42/42/42 39/39/39
f 43/43/43 41/41/41 44/44/44
f 42/42/42 44/44/44 41/41/41
f 45/45/45 43/43/43 46/46/46
f 44/44/44 46/46/46 43/43/43
f 47/47/47 45/45/45 48/48/48
f 46/46/46 48/48/48 45/45/45
f 34/34/34 47/47/47 36/36/36
f 48/48/48 36/36/36 47/47/47
f 49/49/49 50/50/50 51/51/51
f 52/52/52 51/51/51 50/50/50
f 53/53/53 54/54/54 55/55/55
f 56/56/56 55/55/55 54/54/54
f 57/57/57 53/53/53 58/58/58
f 55/55/55 58/58/58 53/53/53
f 59/59/59 60/60/60 61/61/61
f 62/62/62 61/61/61 60/60/60
f 63/63/63 59/59/59 64/64/64
f 61/61/61 64/64/64 59/59/59
f 65/65/65 66/66/66 67/67/67
f 68/68/68 67/67/67 66/66/66
f 69/69/69 65/65/65 70/70/70
f 67/67/67 70/70/70 65/65/65
f 50/50/50 71/71/71 52/52/52
f 72/72/72 52/52/52 71/71/71
f 73/73/73 74/74/74 75/75/75
f 76/76/76 75/75/75 74/74/74
f 77/77/77 78/78/78 79/79/79
f 79/79/79 78/78/78 80/80/80
f 78/78/78 81/81/81 80/80/80
f 82/82/82 83/83/83 84/84/84
f 85/85/85 84/84/84 83/83/83
f 76/76/76 86/86/86 75/75/75
f 87/87/87 75/75/75 86/86/86
f 88/88/88 89/89/89 90/90/90
f 90/90/90 89/89/89 91/91/91
f 92/92/92 91/91/91 93/93/93
f 93/93/93 91/91/91 94/94/94
f 91/91/91 89/89/89 94/94/94
f 89/89/89 95/95/95 94/94/94
f 96/96/96 97/97/97 98/98/98
f 98/98/98 97/97/97 99/99/99
f 100/100/100 99/99/99 101/101/101
f 99/99/99 97/97/97 101/101/101
f 97/97/97 102/102/102 101/101/101
f 102/102/102 103/103/103 101/101/101
f 104/104/104 105/105/105 106/106/106
f 107/107/107 106/106/106 105/105/105
f 108/108/108 109/109/109 110/110/110
f 111/111/111 110/110/110 109/109/109
f 112/112/112 113/113/113 114/114/114
f 115/115/115 114/114/114 113/113/113
f 116/116/116 117/117/117 118/118/118
f 119/119/119 118/118/118 117/117/117
f 120/120/120 121/121/121 122/122/122
f 123/123/123 122/122/122 121/121/121
f 124/124/124 74/74/74 125/125/125
f 125/125/125 74/74/74 126/126/126
