# Generated from Nova1492 GX by tools/nova1492/GxObjConverter
mtllib datan_common_mobbody2_b8b5f539.mtl
o datan_common_mobbody2_b8b5f539
v 0 -0 -0.873873
v 0.326204 0.188334 -0.654188
v 0.326204 -0.188334 -0.654188
v -0 0.376668 -0.654188
v -0.326204 0.188334 -0.654188
v -0.326204 -0.188334 -0.654188
v 0 -0.376668 -0.654188
v 0.278565 0.16083 -0.05358
v 0.278565 -0.160829 -0.05358
v -0 0.321659 -0.05358
v -0.278565 0.16083 -0.05358
v -0.278565 -0.160829 -0.05358
v 0 -0.321659 -0.05358
v 0 0 -0.05358
v 0 0 1.385039
v 0.263166 0 1.385039
v 0 0.263166 1.385039
v -0.263166 0 1.385039
v 0 -0.263165 1.385039
v 0.263166 0 -0.084168
v 0 0.263166 1.385039
v 0.263166 0 1.385039
v 0 0.263165 -0.084168
v -0.263166 0 1.385039
v -0.263166 0 -0.084168
v 0 -0.263165 1.385039
v 0 -0.263165 -0.084168
vt 0.476484 0.75
vt 0.366385 0.859414
vt 0.366385 0.640586
vt 0.351073 0.976485
vt 0.351073 0.874727
vt 0.351073 0.640586
vt 0.351073 0.523515
vt 0.023516 0.842317
vt 0.023516 0.657684
vt 0.023516 0.942291
vt 0.023516 0.85763
vt 0.023516 0.657684
vt 0.023516 0.557711
vt 0.023516 0.757657
vt 0.760729 0.75607
vt 0.976719 0.75607
vt 0.760729 0.974318
vt 0.527168 0.75607
vt 0.760729 0.523281
vt 0.523516 0.382656
vt 0.976485 0.47661
vt 0.976485 0.382656
vt 0.523516 0.476609
vt 0.976485 0.367344
vt 0.523516 0.367344
vt 0.976485 0.273391
vt 0.523516 0.273391
vn 0 0 -1
vn 0.732956 0.57215 -0.367995
vn 0.861974 -0.348684 -0.367994
vn -0.129018 0.920834 -0.367995
vn -0.861974 0.348684 -0.367995
vn -0.732957 -0.572149 -0.367994
vn 0.129018 -0.920834 -0.367994
vn 0.72059 0.24962 0.64687
vn 0.576472 -0.499239 0.64687
vn 0.144118 0.748859 0.646869
vn -0.576472 0.49924 0.64687
vn -0.72059 -0.249619 0.64687
vn -0.144118 -0.748859 0.64687
vn 0 0 1
vn 0 0 1
vn 0 0 1
vn 0 0 1
vn 0 0 1
vn 0 0 1
vn 0.948683 0.316228 -0
vn 0.316227 0.948684 -0
vn 0.948683 -0.316229 0
vn -0.316227 0.948683 -0
vn -0.948683 0.316228 -0
vn -0.948683 -0.316229 0
vn -0.316227 -0.948684 0
vn 0.316227 -0.948684 0
usemtl datan_common_mobbody2_b8b5f539
f 1/1/1 2/2/2 3/3/3
f 1/1/1 4/4/4 2/2/2
f 1/1/1 5/5/5 4/4/4
f 1/1/1 6/6/6 5/5/5
f 1/1/1 7/7/7 6/6/6
f 1/1/1 3/3/3 7/7/7
f 3/3/3 8/8/8 9/9/9
f 3/3/3 2/2/2 8/8/8
f 2/2/2 10/10/10 8/8/8
f 2/2/2 4/4/4 10/10/10
f 4/4/4 11/11/11 10/10/10
f 4/4/4 5/5/5 11/11/11
f 5/5/5 12/12/12 11/11/11
f 5/5/5 6/6/6 12/12/12
f 6/6/6 13/13/13 12/12/12
f 6/6/6 7/7/7 13/13/13
f 7/7/7 9/9/9 13/13/13
f 7/7/7 3/3/3 9/9/9
f 14/14/14 9/9/9 8/8/8
f 14/14/14 8/8/8 10/10/10
f 14/14/14 10/10/10 11/11/11
f 14/14/14 11/11/11 12/12/12
f 14/14/14 12/12/12 13/13/13
f 14/14/14 13/13/13 9/9/9
f 15/15/15 16/16/16 17/17/17
f 15/15/15 17/17/17 18/18/18
f 15/15/15 18/18/18 19/19/19
f 15/15/15 19/19/19 16/16/16
f 20/20/20 21/21/21 22/22/22
f 20/20/20 23/23/23 21/21/21
f 23/23/23 24/24/24 21/21/21
f 23/23/23 25/25/25 24/24/24
f 25/25/25 26/26/26 24/24/24
f 25/25/25 27/27/27 26/26/26
