# Generated from Nova1492 GX by tools/nova1492/GxObjConverter
mtllib datan_common_moblegs2_98ef4e3e.mtl
o datan_common_moblegs2_98ef4e3e
v -0.214133 0.150146 0.103088
v -0.233968 -0.081535 0.186841
v -0.002833 0.206764 0.161703
v -0.078704 0.441324 -0.5114
v -0.214133 0.150146 0.103088
v 0.05775 0.477887 -0.473548
v -0.002833 0.206764 0.161703
v -0.181772 -0.245858 0.086008
v 0.16615 -0.15257 0.182563
v 0.079433 0.002604 0.273885
v 0.079433 0.002604 0.273885
v -0.233968 -0.081535 0.186841
v -0.078704 0.441324 -0.5114
v -0.034306 0.225907 -0.646088
v -0.214133 0.150146 0.103088
v -0.233968 -0.081535 0.186841
v 0.079433 0.002604 0.273885
v 0.190392 0.286115 -0.583757
v -0.002833 0.206764 0.161703
v 0.05775 0.477887 -0.473548
v -0.116958 -0.248801 -0.144794
v -0.034306 0.225907 -0.646088
v 0.230988 -0.155569 -0.048273
v -0.034306 0.225907 -0.646088
v -0.078704 0.441324 -0.5114
v 0.190392 0.286115 -0.583757
v 0.05775 0.477887 -0.473548
v -0.181772 -0.245858 0.086008
v 0.16615 -0.15257 0.182563
v 0.11219 0.416331 -0.843662
v 0.285148 0.41633 -0.797318
v 0.122607 0.053747 -0.190706
v -0.050351 0.053747 -0.23705
v 0.285148 0.41633 -0.797318
v 0.179682 0.543395 -0.749628
v 0.01714 0.180812 -0.143016
v 0.122607 0.053747 -0.190706
v 0.11219 0.416331 -0.843662
v -0.050351 0.053747 -0.23705
vt 0.556522 0.523901
vt 0.511758 0.523901
vt 0.556522 0.726099
vt 0.738242 0.524499
vt 0.564178 0.523901
vt 0.738242 0.725501
vt 0.564178 0.726099
vt 0.50793 0.586303
vt 0.50793 0.586335
vt 0.507929 0.662762
vt 0.511758 0.726099
vt 0.511758 0.662678
vt 0.488117 0.86758
vt 0.488118 0.632421
vt 0.120218 0.976484
vt 0.011883 0.854802
vt 0.011882 0.839669
vt 0.488118 0.632421
vt 0.120218 0.976484
vt 0.488117 0.882892
vt 0.120218 0.523516
vt 0.488118 0.617108
vt 0.120218 0.523516
vt 0.491946 0.632421
vt 0.491945 0.86758
vt 0.491946 0.632421
vt 0.488117 0.86758
vt 0.011883 0.658328
vt 0.011883 0.658397
vt 0.238242 0.19064
vt 0.238242 0.19064
vt 0.011758 0.19064
vt 0.011758 0.182984
vt 0.238242 0.198296
vt 0.238242 0.476651
vt 0.011758 0.476651
vt 0.011758 0.182984
vt 0.238242 0.198296
vt 0.011758 0.198296
vn -0.335677 0.345528 0.876317
vn -0.335917 0.345707 0.876154
vn -0.335917 0.345707 0.876154
vn -0.330817 0.878929 0.343575
vn -0.330818 0.878929 0.343575
vn -0.330818 0.878929 0.343575
vn -0.330818 0.878929 0.343574
vn -0.087098 -0.540975 0.836517
vn -0.087098 -0.540975 0.836517
vn -0.087098 -0.540975 0.836517
vn -0.336158 0.345886 0.875991
vn -0.087098 -0.540975 0.836517
vn -0.969924 -0.051107 -0.237982
vn -0.964195 -0.075168 -0.254319
vn -0.971444 -0.026147 -0.235823
vn -0.964391 -0.066919 -0.255875
vn 0.869407 0.42452 0.252815
vn 0.965132 0.240775 0.102706
vn 0.845913 0.460905 0.268324
vn 0.857518 0.438552 0.268953
vn -0.445417 -0.612274 -0.653241
vn 0.358559 -0.706617 -0.610023
vn 0.749668 -0.481529 -0.454014
vn 0.087094 0.540976 -0.836516
vn 0.087093 0.540976 -0.836517
vn 0.087093 0.540976 -0.836517
vn 0.087093 0.540975 -0.836517
vn -0.954251 -0.123965 -0.272098
vn 0.896389 0.371875 0.241239
vn 0.129408 -0.866025 -0.482964
vn 0.129405 -0.866025 -0.482964
vn 0.129408 -0.866025 -0.482964
vn 0.12941 -0.866025 -0.482964
vn 0.757135 0.451097 0.472502
vn -0.576636 0.76002 0.299769
vn 0.3495 0.760019 0.547924
vn 0.757133 0.451101 0.472503
vn -0.891947 0.451101 0.030635
vn -0.891948 0.451099 0.030633
usemtl datan_common_moblegs2_98ef4e3e
f 1/1/1 2/2/2 3/3/3
f 4/4/4 5/5/5 6/6/6
f 7/7/7 6/6/6 5/5/5
f 8/8/8 9/9/9 10/10/10
f 2/2/2 11/11/11 3/3/3
f 12/12/12 8/8/8 10/10/10
f 13/13/13 14/14/14 15/15/15
f 16/16/16 15/15/15 14/14/14
f 17/17/17 18/18/18 19/19/19
f 20/20/20 19/19/19 18/18/18
f 21/21/21 22/22/22 23/23/23
f 18/18/18 23/23/23 22/22/22
f 24/24/24 25/25/25 26/26/26
f 27/27/27 26/26/26 25/25/25
f 21/21/21 28/28/28 14/14/14
f 23/23/23 18/18/18 29/29/29
f 28/28/28 16/16/16 14/14/14
f 29/29/29 18/18/18 17/17/17
f 30/30/30 31/31/31 32/32/32
f 32/32/32 33/33/33 30/30/30
f 34/34/34 35/35/35 36/36/36
f 36/36/36 37/37/37 34/34/34
f 35/35/35 38/38/38 39/39/39
