# Generated from Nova1492 GX by tools/nova1492/GxObjConverter
mtllib datan_common_mob8-legs_4bdc5909.mtl
o datan_common_mob8-legs_4bdc5909
v 0.182524 -0.271925 0.419203
v 0.12438 -0.146066 -0.419203
v 0.11091 0.135927 -0.320258
v 0.162757 0.187371 0.419203
v -0 0.202469 -0.298546
v -0 0.271925 0.419203
v -0.12438 -0.146066 -0.419203
v -0.182524 -0.271925 0.419203
v -0.162757 0.187371 0.419203
v -0.11091 0.135927 -0.320258
v 0.000174 0.641436 0.823426
v 0.000174 0.53292 1.223617
v 0.2354 0.53292 1.147188
v 0.380778 0.53292 0.947092
v 0.380778 0.53292 0.69976
v 0.2354 0.53292 0.499665
v 0.000174 0.53292 0.423235
v 0.000174 0.295449 1.419082
v 0.350292 0.295449 1.305322
v 0.566677 0.295449 1.007494
v 0.566677 0.295449 0.639358
v 0.350292 0.295449 0.34153
v 0.000174 0.295449 0.22777
v 0.000174 -0.031709 1.470949
v 0.380778 -0.031709 1.347283
v 0.616005 -0.031709 1.023522
v 0.616005 -0.031709 0.623331
v 0.380778 -0.031709 0.299569
v 0.000174 -0.031709 0.175903
v 0.000246 0.53292 1.223617
v 0.000246 0.641436 0.823426
v -0.234981 0.53292 1.147188
v -0.380359 0.53292 0.947092
v -0.380359 0.53292 0.69976
v -0.234981 0.53292 0.499665
v 0.000246 0.53292 0.423235
v 0.000246 0.295449 1.419082
v -0.349872 0.295449 1.305322
v -0.566257 0.295449 1.007494
v -0.566257 0.295449 0.639358
v -0.349872 0.295449 0.34153
v 0.000246 0.295449 0.22777
v 0.000246 -0.031709 1.470949
v -0.380359 -0.031709 1.347283
v -0.615585 -0.031709 1.023522
v -0.615585 -0.031709 0.623331
v -0.380358 -0.031709 0.299569
v 0.000246 -0.031709 0.175903
v -0.298778 -0.338373 1.204035
v 0.000153 -0.338373 1.277848
v 0.000153 -0.046017 1.378358
v -0.36819 -0.046017 1.287405
v 0.299085 -0.338373 1.204035
v 0.368496 -0.046017 1.287405
v 0.445249 -0.338373 0.844988
v 0.548601 -0.046017 0.844988
v 0.299085 -0.338373 0.485942
v 0.368496 -0.046017 0.402572
v 0.000153 -0.338373 0.412129
v 0.000153 -0.046017 0.311619
v -0.298778 -0.338373 0.485942
v -0.36819 -0.046017 0.402572
v -0.444943 -0.338373 0.844988
v -0.548294 -0.046017 0.844988
v 0.625783 0.409132 0.741755
v 0.625783 0.409132 0.896582
v 0.675538 0.302432 0.947316
v 0.675538 0.302431 0.691021
v 0.725293 0.195731 0.896582
v 0.725293 0.195731 0.741755
v 0.501956 0.38866 0.719544
v 0.501956 0.38866 0.918792
v 0.565986 0.251347 0.984082
v 0.630017 0.114033 0.918792
v 0.630016 0.114033 0.719544
v 0.565986 0.251347 0.654254
v -0.306597 0.657176 0.655828
v -0.195791 0.6536 0.54775
v -0.227168 0.583321 0.445227
v -0.410592 0.589241 0.624135
v -0.331163 0.515386 0.413535
v -0.441969 0.518962 0.521612
v -0.255135 0.579696 0.74297
v -0.112538 0.575093 0.603885
v -0.152918 0.48465 0.471948
v -0.286749 0.397224 0.431162
v -0.429346 0.401826 0.570248
v -0.388966 0.492269 0.702185
v -0.058294 0.685117 0.700423
v 0.000092 0.700229 0.756819
v 0.000092 0.670006 0.644026
v 0.058478 0.685117 0.700423
v 0.080448 0.610065 0.720533
v 0.000092 0.630863 0.798151
v 0.000092 0.589267 0.642915
v -0.080264 0.610065 0.720533
v -0.625268 0.409132 0.896582
v -0.625268 0.409132 0.741755
v -0.675023 0.302432 0.947316
v -0.675023 0.302432 0.691021
v -0.724779 0.195731 0.896582
v -0.724779 0.195731 0.741755
v -0.501441 0.38866 0.918792
v -0.501441 0.38866 0.719544
v -0.565472 0.251347 0.984082
v -0.629502 0.114033 0.918792
v -0.629502 0.114033 0.719544
v -0.565472 0.251347 0.654254
v -0.501032 0.101644 1.371902
v -0.375268 0.101644 1.459963
v -0.316726 0.21441 1.464068
v -0.524911 0.21441 1.318295
v -0.340605 0.327177 1.41046
v -0.46637 0.327177 1.322399
v -0.457637 0.038267 1.271529
v -0.29579 0.038267 1.384856
v -0.220452 0.183387 1.390138
v -0.251183 0.328508 1.32115
v -0.41303 0.328508 1.207824
v -0.488368 0.183387 1.202541
v -0.058243 0.202342 1.51176
v 0.000144 0.145946 1.526872
v 0.000144 0.258739 1.496649
v 0.05853 0.202342 1.51176
v 0.0805 0.182232 1.436708
v 0.000144 0.104614 1.457506
v 0.000144 0.259851 1.41591
v -0.080213 0.182232 1.436708
v 0.375366 0.101644 1.462994
v 0.501131 0.101644 1.374932
v 0.316825 0.21441 1.467098
v 0.52501 0.21441 1.321325
v 0.340704 0.327177 1.413491
v 0.466469 0.327177 1.32543
v 0.295889 0.038267 1.387886
v 0.457736 0.038267 1.27456
v 0.220551 0.183387 1.393168
v 0.251282 0.328508 1.324181
v 0.413129 0.328508 1.210854
v 0.488466 0.183387 1.205572
v 0.195708 0.654576 0.55055
v 0.306513 0.658152 0.658627
v 0.227085 0.584297 0.448027
v 0.410508 0.590217 0.626935
v 0.33108 0.516361 0.416335
v 0.441885 0.519938 0.524412
v 0.112455 0.576069 0.606684
v 0.255051 0.580671 0.74577
v 0.152834 0.485626 0.474747
v 0.286666 0.3982 0.433962
v 0.429262 0.402802 0.573048
v 0.388883 0.493245 0.704985
v -0.352512 0.505673 1.16741
v -0.370337 0.538805 1.093909
v -0.433835 0.486651 1.085798
v -0.416011 0.453518 1.159299
v -0.377854 0.385931 1.137031
v -0.402386 0.43153 1.035872
v -0.290462 0.457711 1.148194
v -0.314994 0.50331 1.047035
v -0.073589 0.612324 1.284205
v 0.081238 0.612324 1.284205
v 0.131972 0.662079 1.177505
v -0.124323 0.662079 1.177504
v 0.081238 0.711834 1.070804
v -0.073589 0.711834 1.070804
v -0.0958 0.488497 1.263733
v 0.103448 0.488497 1.263733
v 0.168738 0.552527 1.12642
v 0.103448 0.616558 0.989106
v -0.0958 0.616558 0.989106
v -0.16109 0.552527 1.12642
v 0.385524 0.538805 1.093909
v 0.367699 0.505673 1.16741
v 0.449022 0.486651 1.085798
v 0.431197 0.453518 1.159299
v 0.393041 0.385931 1.137031
v 0.417573 0.43153 1.035872
v 0.305649 0.457711 1.148194
v 0.330181 0.50331 1.047035
vt 0.272993 0.013298
vt 0.587329 0.04979
vt 0.556772 0.131004
vt 0.272993 0.146272
vt 0.544441 0.159825
vt 0.272993 0.179781
vt 0.587329 0.04979
vt 0.272993 0.013298
vt 0.272993 0.146272
vt 0.556772 0.131004
vt 0.016994 0.234033
vt 0.016994 0.136779
vt 0.072797 0.155353
vt 0.105813 0.20398
vt 0.105813 0.264087
vt 0.072797 0.312714
vt 0.016994 0.331288
vt 0.016994 0.07709
vt 0.109243 0.107064
vt 0.166256 0.185535
vt 0.166256 0.282532
vt 0.109243 0.361003
vt 0.016994 0.390976
vt 0.016994 0.015529
vt 0.14267 0.05726
vt 0.228212 0.164982
vt 0.228212 0.303085
vt 0.14267 0.410807
vt 0.016994 0.452537
vt 0.016994 0.136779
vt 0.016994 0.234033
vt 0.072797 0.155353
vt 0.105813 0.20398
vt 0.105813 0.264087
vt 0.072797 0.312714
vt 0.016994 0.331288
vt 0.016994 0.07709
vt 0.109243 0.107064
vt 0.166256 0.185535
vt 0.166256 0.282532
vt 0.109243 0.361003
vt 0.016994 0.390976
vt 0.016994 0.015529
vt 0.14267 0.05726
vt 0.228212 0.164982
vt 0.228212 0.303085
vt 0.14267 0.410807
vt 0.016994 0.452537
vt 0.344573 0.221846
vt 0.300028 0.221846
vt 0.271483 0.298813
vt 0.326372 0.298813
vt 0.344573 0.221846
vt 0.326372 0.298813
vt 0.439996 0.221846
vt 0.439996 0.298813
vt 0.512703 0.221846
vt 0.530904 0.298813
vt 0.54589 0.221846
vt 0.574435 0.298813
vt 0.512703 0.221846
vt 0.530904 0.298813
vt 0.439996 0.221846
vt 0.439996 0.298813
vt 0.444257 0.613483
vt 0.479808 0.613483
vt 0.491457 0.642152
vt 0.432608 0.642152
vt 0.479808 0.67082
vt 0.444257 0.67082
vt 0.439158 0.605258
vt 0.484908 0.605258
vt 0.499899 0.642152
vt 0.484908 0.679045
vt 0.439158 0.679045
vt 0.424166 0.642152
vt 0.445709 0.614124
vt 0.480459 0.614124
vt 0.491846 0.642886
vt 0.434322 0.642886
vt 0.480459 0.671647
vt 0.445709 0.671647
vt 0.440724 0.605872
vt 0.485444 0.605872
vt 0.500098 0.642886
vt 0.485444 0.679899
vt 0.440724 0.679899
vt 0.42607 0.642886
vt 0.53875 0.653474
vt 0.53875 0.622969
vt 0.569255 0.653474
vt 0.569255 0.622969
vt 0.578101 0.613812
vt 0.529903 0.613812
vt 0.578101 0.662631
vt 0.529903 0.662631
vt 0.479808 0.613483
vt 0.444257 0.613483
vt 0.491457 0.642152
vt 0.432608 0.642152
vt 0.479808 0.67082
vt 0.444257 0.67082
vt 0.484908 0.605258
vt 0.439158 0.605258
vt 0.499899 0.642152
vt 0.484908 0.679045
vt 0.439158 0.679045
vt 0.424166 0.642152
vt 0.479305 0.670804
vt 0.445071 0.670804
vt 0.433854 0.642926
vt 0.490523 0.642926
vt 0.445071 0.615049
vt 0.479305 0.615049
vt 0.484216 0.678802
vt 0.440161 0.678802
vt 0.425724 0.642926
vt 0.440161 0.607051
vt 0.484216 0.607051
vt 0.498652 0.642926
vt 0.567944 0.623604
vt 0.567944 0.652471
vt 0.540165 0.623604
vt 0.540165 0.652471
vt 0.531694 0.660398
vt 0.576415 0.660398
vt 0.531694 0.615676
vt 0.576415 0.615676
vt 0.445071 0.670804
vt 0.479305 0.670804
vt 0.433854 0.642926
vt 0.490523 0.642926
vt 0.445071 0.615049
vt 0.479305 0.615049
vt 0.440161 0.678802
vt 0.484216 0.678802
vt 0.425724 0.642926
vt 0.440161 0.607051
vt 0.484216 0.607051
vt 0.498652 0.642926
vt 0.480459 0.614124
vt 0.445709 0.614124
vt 0.491846 0.642886
vt 0.434322 0.642886
vt 0.480459 0.671647
vt 0.445709 0.671647
vt 0.485444 0.605872
vt 0.440724 0.605872
vt 0.500098 0.642886
vt 0.485444 0.679899
vt 0.440724 0.679899
vt 0.42607 0.642886
vt 0.540345 0.652479
vt 0.56686 0.652479
vt 0.56686 0.625964
vt 0.540345 0.625964
vt 0.52962 0.614474
vt 0.577585 0.614474
vt 0.52962 0.663969
vt 0.577585 0.663969
vt 0.446774 0.617953
vt 0.47662 0.617953
vt 0.4864 0.642656
vt 0.436994 0.642656
vt 0.47662 0.667359
vt 0.446774 0.667359
vt 0.439489 0.605512
vt 0.483905 0.605512
vt 0.498459 0.642656
vt 0.483905 0.6798
vt 0.439489 0.6798
vt 0.424935 0.642656
vt 0.56686 0.652479
vt 0.540345 0.652479
vt 0.56686 0.625964
vt 0.540345 0.625964
vt 0.52962 0.614474
vt 0.577585 0.614474
vt 0.52962 0.663969
vt 0.577585 0.663969
vn 0.996282 0.055555 -0.065844
vn 0.995935 0.068215 -0.058828
vn 0.928149 0.362506 -0.084428
vn 0.73429 0.672131 -0.095179
vn 0.171825 0.980123 -0.099171
vn -0.186031 0.97768 -0.09764
vn -0.995923 0.058349 -0.068793
vn -0.997109 0.042913 -0.062708
vn -0.922342 0.376447 -0.087024
vn -0.728735 0.678323 -0.093935
vn 0.124601 0.802308 0.583761
vn 0.113438 0.541365 0.8331
vn 0.231858 0.590396 0.773094
vn 0.382282 0.655815 0.650974
vn 0.423113 0.768524 0.479945
vn 0.279496 0.90745 0.313714
vn 0.15999 0.941419 0.296872
vn 0.158907 0.270995 0.949374
vn 0.306507 0.337345 0.890085
vn 0.564429 0.38894 0.728111
vn 0.725003 0.503591 0.469859
vn 0.653988 0.744525 0.134099
vn 0.380678 0.924494 0.019871
vn 0.165444 0.181675 0.969341
vn 0.271463 0.189146 0.94368
vn 0.569252 0.216251 0.793214
vn 0.79662 0.282056 0.534641
vn 0.877501 0.452835 0.157901
vn 0.660731 0.725554 -0.192371
vn -0.113149 0.541383 0.833127
vn -0.124253 0.802343 0.583787
vn -0.231568 0.590438 0.773149
vn -0.381991 0.6559 0.651059
vn -0.422786 0.768653 0.480026
vn -0.279062 0.907569 0.313756
vn -0.159525 0.941491 0.296894
vn -0.158636 0.271007 0.949416
vn -0.306245 0.337375 0.890164
vn -0.564202 0.389013 0.728248
vn -0.724797 0.503748 0.470007
vn -0.653622 0.744836 0.134155
vn -0.380062 0.924747 0.019876
vn -0.165173 0.181683 0.969386
vn -0.2712 0.189161 0.943753
vn -0.569032 0.216291 0.79336
vn -0.796465 0.282151 0.534822
vn -0.877344 0.453105 0.157995
vn -0.660104 0.726087 -0.192513
vn -0.281139 -0.091126 0.955331
vn 0.043227 -0.076288 0.996148
vn -0.042942 -0.076289 0.996161
vn -0.44541 -0.095723 0.890195
vn 0.445663 -0.09571 0.89007
vn 0.281413 -0.091118 0.955251
vn 0.784837 -0.120708 0.607833
vn 0.687235 -0.105697 0.718704
vn 0.947084 -0.306655 0.094844
vn 0.924997 -0.19865 0.323912
vn -0.424337 -0.753853 -0.501641
vn 0.426647 -0.752949 -0.501039
vn -0.924902 -0.198771 0.324109
vn -0.946981 -0.306945 0.094934
vn -0.687036 -0.105724 0.718891
vn -0.784671 -0.120749 0.608039
vn 0.437963 0.831692 0.341287
vn 0.134429 0.694141 0.707175
vn 0.415901 0.356918 0.836442
vn 0.821934 0.485277 0.298211
vn 0.550659 0.053978 0.832983
vn 0.811751 -0.234691 0.534771
vn -0.075518 0.907472 0.413269
vn 0.000655 0.514647 0.857402
vn 0.173728 0.100824 0.979619
vn 0.454542 -0.336644 0.824659
vn 0.861661 -0.434654 0.261948
vn 0.418594 0.886357 -0.197863
vn -0.232245 0.674061 0.701216
vn 0.283465 0.767746 0.574643
vn 0.144682 0.976251 0.161248
vn -0.552443 0.576989 0.601574
vn -0.397904 0.909669 -0.11906
vn -0.896058 0.234527 0.376932
vn 0.081881 0.550238 0.830983
vn 0.589568 0.641895 0.490287
vn 0.836398 0.547682 -0.021996
vn -0.97175 -0.226478 -0.066402
vn -0.772111 0.049942 0.633522
vn -0.41716 0.304838 0.856184
vn -0.52279 0.557894 0.64455
vn 0.123046 0.650766 0.749242
vn -0.257062 0.96328 0.077532
vn 0.682744 0.610334 0.401688
vn 0.608151 0.342406 0.716178
vn -0.167121 0.369179 0.914209
vn 0.806882 0.527483 -0.265902
vn -0.833909 0.325849 0.445441
vn -0.134116 0.694171 0.707206
vn -0.437588 0.831861 0.341356
vn -0.415651 0.356963 0.836548
vn -0.821757 0.485495 0.298345
vn -0.550434 0.053987 0.833131
vn -0.811584 -0.234785 0.534984
vn -0.000367 0.514647 0.857402
vn 0.075931 0.907444 0.413256
vn -0.173457 0.100828 0.979667
vn -0.45426 -0.336698 0.824793
vn -0.861458 -0.434949 0.262126
vn -0.417723 0.886749 -0.197951
vn -0.564796 -0.041884 0.824167
vn -0.11875 -0.228342 0.966312
vn 0.001031 0.170736 0.985316
vn -0.58778 0.309253 0.747581
vn 0.022194 0.454674 0.890381
vn -0.295873 0.699425 0.650588
vn -0.42514 -0.430955 0.795949
vn 0.169391 -0.220655 0.96053
vn 0.36176 0.223054 0.905194
vn 0.149752 0.705492 0.692716
vn -0.507713 0.731145 0.455692
vn -0.855195 0.116137 0.505127
vn -0.458893 0.054475 0.88682
vn 0.115545 -0.117498 0.986328
vn -0.117104 0.560153 0.82007
vn 0.462529 0.352616 0.813467
vn 0.612968 -0.027577 0.789626
vn -0.201927 -0.417706 0.885859
vn 0.209072 0.778909 0.591262
vn -0.619562 0.37119 0.691636
vn 0.119048 -0.228333 0.966277
vn 0.565023 -0.041876 0.824012
vn -0.000756 0.170736 0.985317
vn 0.587998 0.309193 0.747434
vn -0.021911 0.454677 0.890387
vn 0.296181 0.699355 0.650523
vn -0.169096 -0.220666 0.96058
vn 0.425448 -0.430886 0.795822
vn -0.361507 0.223078 0.90529
vn -0.149436 0.705526 0.692749
vn 0.50802 0.730991 0.455596
vn 0.855319 0.116092 0.504928
vn -0.283135 0.767824 0.574701
vn 0.23255 0.67401 0.701164
vn -0.144126 0.976331 0.161261
vn 0.552696 0.576872 0.601453
vn 0.398672 0.909338 -0.119017
vn 0.896161 0.234416 0.376754
vn -0.589302 0.642049 0.490405
vn -0.08159 0.550252 0.831003
vn -0.836131 0.548088 -0.022013
vn 0.971822 -0.226196 -0.066319
vn 0.772273 0.049926 0.633326
vn 0.417408 0.3048 0.856077
vn 0.027137 0.530384 0.847323
vn -0.187857 0.892526 0.41001
vn -0.700992 0.32201 0.636333
vn -0.26575 0.031573 0.963525
vn -0.483247 -0.239647 0.842046
vn -0.826407 0.529956 0.190256
vn 0.197625 0.155027 0.967942
vn 0.311518 0.807972 0.500137
vn -0.264571 0.376099 0.888004
vn 0.156168 0.21777 0.963425
vn 0.344524 0.539723 0.768116
vn -0.359462 0.607294 0.708506
vn 0.341994 0.767422 0.542314
vn -0.249356 0.898641 0.360923
vn -0.186653 0.051096 0.981096
vn 0.392494 0.108189 0.913369
vn 0.692072 0.36904 0.62036
vn 0.367421 0.909958 0.192297
vn -0.629302 0.692597 0.352547
vn -0.631298 0.260147 0.730607
vn 0.188261 0.892455 0.409977
vn -0.026847 0.530388 0.84733
vn 0.701182 0.321925 0.636166
vn 0.266018 0.031571 0.963451
vn 0.483509 -0.239607 0.841907
vn 0.826607 0.52968 0.190157
vn -0.197356 0.155036 0.967995
vn -0.31117 0.80807 0.500197
usemtl datan_common_mob8-legs_4bdc5909
f 1/1/1 2/2/2 3/3/3
f 3/3/3 4/4/4 1/1/1
f 4/4/4 3/3/3 5/5/5
f 5/5/5 6/6/6 4/4/4
f 7/7/7 8/8/8 9/9/9
f 9/9/9 10/10/10 7/7/7
f 10/10/10 9/9/9 6/6/6
f 6/6/6 5/5/5 10/10/10
f 11/11/11 12/12/12 13/13/13
f 11/11/11 13/13/13 14/14/14
f 11/11/11 14/14/14 15/15/15
f 11/11/11 15/15/15 16/16/16
f 11/11/11 16/16/16 17/17/17
f 12/12/12 18/18/18 19/19/19
f 12/12/12 19/19/19 13/13/13
f 13/13/13 19/19/19 20/20/20
f 13/13/13 20/20/20 14/14/14
f 14/14/14 20/20/20 21/21/21
f 14/14/14 21/21/21 15/15/15
f 15/15/15 21/21/21 22/22/22
f 15/15/15 22/22/22 16/16/16
f 16/16/16 22/22/22 23/23/23
f 16/16/16 23/23/23 17/17/17
f 18/18/18 24/24/24 25/25/25
f 18/18/18 25/25/25 19/19/19
f 19/19/19 25/25/25 26/26/26
f 19/19/19 26/26/26 20/20/20
f 20/20/20 26/26/26 27/27/27
f 20/20/20 27/27/27 21/21/21
f 21/21/21 27/27/27 28/28/28
f 21/21/21 28/28/28 22/22/22
f 22/22/22 28/28/28 29/29/29
f 22/22/22 29/29/29 23/23/23
f 30/30/30 31/31/31 32/32/32
f 32/32/32 31/31/31 33/33/33
f 33/33/33 31/31/31 34/34/34
f 34/34/34 31/31/31 35/35/35
f 35/35/35 31/31/31 36/36/36
f 37/37/37 30/30/30 38/38/38
f 38/38/38 30/30/30 32/32/32
f 38/38/38 32/32/32 39/39/39
f 39/39/39 32/32/32 33/33/33
f 39/39/39 33/33/33 40/40/40
f 40/40/40 33/33/33 34/34/34
f 40/40/40 34/34/34 41/41/41
f 41/41/41 34/34/34 35/35/35
f 41/41/41 35/35/35 42/42/42
f 42/42/42 35/35/35 36/36/36
f 43/43/43 37/37/37 44/44/44
f 44/44/44 37/37/37 38/38/38
f 44/44/44 38/38/38 45/45/45
f 45/45/45 38/38/38 39/39/39
f 45/45/45 39/39/39 46/46/46
f 46/46/46 39/39/39 40/40/40
f 46/46/46 40/40/40 47/47/47
f 47/47/47 40/40/40 41/41/41
f 47/47/47 41/41/41 48/48/48
f 48/48/48 41/41/41 42/42/42
f 49/49/49 50/50/50 51/51/51
f 51/51/51 52/52/52 49/49/49
f 50/50/50 53/53/53 54/54/54
f 54/54/54 51/51/51 50/50/50
f 53/53/53 55/55/55 56/56/56
f 56/56/56 54/54/54 53/53/53
f 55/55/55 57/57/57 58/58/58
f 58/58/58 56/56/56 55/55/55
f 57/57/57 59/59/59 60/60/60
f 60/60/60 58/58/58 57/57/57
f 59/59/59 61/61/61 62/62/62
f 62/62/62 60/60/60 59/59/59
f 61/61/61 63/63/63 64/64/64
f 64/64/64 62/62/62 61/61/61
f 63/63/63 49/49/49 52/52/52
f 52/52/52 64/64/64 63/63/63
f 65/65/65 66/66/66 67/67/67
f 67/67/67 68/68/68 65/65/65
f 68/68/68 67/67/67 69/69/69
f 69/69/69 70/70/70 68/68/68
f 71/71/71 72/72/72 66/66/66
f 66/66/66 65/65/65 71/71/71
f 72/72/72 73/73/73 67/67/67
f 67/67/67 66/66/66 72/72/72
f 73/73/73 74/74/74 69/69/69
f 69/69/69 67/67/67 73/73/73
f 74/74/74 75/75/75 70/70/70
f 70/70/70 69/69/69 74/74/74
f 75/75/75 76/76/76 68/68/68
f 68/68/68 70/70/70 75/75/75
f 76/76/76 71/71/71 65/65/65
f 65/65/65 68/68/68 76/76/76
f 77/77/77 78/78/78 79/79/79
f 79/79/79 80/80/80 77/77/77
f 80/80/80 79/79/79 81/81/81
f 81/81/81 82/82/82 80/80/80
f 83/83/83 84/84/84 78/78/78
f 78/78/78 77/77/77 83/83/83
f 84/84/84 85/85/85 79/79/79
f 79/79/79 78/78/78 84/84/84
f 85/85/85 86/86/86 81/81/81
f 81/81/81 79/79/79 85/85/85
f 86/86/86 87/87/87 82/82/82
f 82/82/82 81/81/81 86/86/86
f 87/87/87 88/88/88 80/80/80
f 80/80/80 82/82/82 87/87/87
f 88/88/88 83/83/83 77/77/77
f 77/77/77 80/80/80 88/88/88
f 89/89/89 90/90/90 91/91/91
f 92/92/92 91/91/91 90/90/90
f 92/92/92 90/90/90 93/93/93
f 94/94/94 93/93/93 90/90/90
f 91/91/91 92/92/92 95/95/95
f 93/93/93 95/95/95 92/92/92
f 89/89/89 91/91/91 96/96/96
f 95/95/95 96/96/96 91/91/91
f 90/90/90 89/89/89 94/94/94
f 96/96/96 94/94/94 89/89/89
f 97/97/97 98/98/98 99/99/99
f 100/100/100 99/99/99 98/98/98
f 99/99/99 100/100/100 101/101/101
f 102/102/102 101/101/101 100/100/100
f 103/103/103 104/104/104 97/97/97
f 98/98/98 97/97/97 104/104/104
f 105/105/105 103/103/103 99/99/99
f 97/97/97 99/99/99 103/103/103
f 106/106/106 105/105/105 101/101/101
f 99/99/99 101/101/101 105/105/105
f 107/107/107 106/106/106 102/102/102
f 101/101/101 102/102/102 106/106/106
f 108/108/108 107/107/107 100/100/100
f 102/102/102 100/100/100 107/107/107
f 104/104/104 108/108/108 98/98/98
f 100/100/100 98/98/98 108/108/108
f 109/109/109 110/110/110 111/111/111
f 111/111/111 112/112/112 109/109/109
f 112/112/112 111/111/111 113/113/113
f 113/113/113 114/114/114 112/112/112
f 115/115/115 116/116/116 110/110/110
f 110/110/110 109/109/109 115/115/115
f 116/116/116 117/117/117 111/111/111
f 111/111/111 110/110/110 116/116/116
f 117/117/117 118/118/118 113/113/113
f 113/113/113 111/111/111 117/117/117
f 118/118/118 119/119/119 114/114/114
f 114/114/114 113/113/113 118/118/118
f 119/119/119 120/120/120 112/112/112
f 112/112/112 114/114/114 119/119/119
f 120/120/120 115/115/115 109/109/109
f 109/109/109 112/112/112 120/120/120
f 121/121/121 122/122/122 123/123/123
f 124/124/124 123/123/123 122/122/122
f 124/124/124 122/122/122 125/125/125
f 126/126/126 125/125/125 122/122/122
f 123/123/123 124/124/124 127/127/127
f 125/125/125 127/127/127 124/124/124
f 121/121/121 123/123/123 128/128/128
f 127/127/127 128/128/128 123/123/123
f 122/122/122 121/121/121 126/126/126
f 128/128/128 126/126/126 121/121/121
f 129/129/129 130/130/130 131/131/131
f 132/132/132 131/131/131 130/130/130
f 131/131/131 132/132/132 133/133/133
f 134/134/134 133/133/133 132/132/132
f 135/135/135 136/136/136 129/129/129
f 130/130/130 129/129/129 136/136/136
f 137/137/137 135/135/135 131/131/131
f 129/129/129 131/131/131 135/135/135
f 138/138/138 137/137/137 133/133/133
f 131/131/131 133/133/133 137/137/137
f 139/139/139 138/138/138 134/134/134
f 133/133/133 134/134/134 138/138/138
f 140/140/140 139/139/139 132/132/132
f 134/134/134 132/132/132 139/139/139
f 136/136/136 140/140/140 130/130/130
f 132/132/132 130/130/130 140/140/140
f 141/141/141 142/142/142 143/143/143
f 144/144/144 143/143/143 142/142/142
f 143/143/143 144/144/144 145/145/145
f 146/146/146 145/145/145 144/144/144
f 147/147/147 148/148/148 141/141/141
f 142/142/142 141/141/141 148/148/148
f 149/149/149 147/147/147 143/143/143
f 141/141/141 143/143/143 147/147/147
f 150/150/150 149/149/149 145/145/145
f 143/143/143 145/145/145 149/149/149
f 151/151/151 150/150/150 146/146/146
f 145/145/145 146/146/146 150/150/150
f 152/152/152 151/151/151 144/144/144
f 146/146/146 144/144/144 151/151/151
f 148/148/148 152/152/152 142/142/142
f 144/144/144 142/142/142 152/152/152
f 153/153/153 154/154/154 155/155/155
f 155/155/155 156/156/156 153/153/153
f 157/157/157 156/156/156 155/155/155
f 155/155/155 158/158/158 157/157/157
f 159/159/159 153/153/153 156/156/156
f 156/156/156 157/157/157 159/159/159
f 160/160/160 154/154/154 153/153/153
f 153/153/153 159/159/159 160/160/160
f 158/158/158 155/155/155 154/154/154
f 154/154/154 160/160/160 158/158/158
f 161/161/161 162/162/162 163/163/163
f 163/163/163 164/164/164 161/161/161
f 164/164/164 163/163/163 165/165/165
f 165/165/165 166/166/166 164/164/164
f 167/167/167 168/168/168 162/162/162
f 162/162/162 161/161/161 167/167/167
f 168/168/168 169/169/169 163/163/163
f 163/163/163 162/162/162 168/168/168
f 169/169/169 170/170/170 165/165/165
f 165/165/165 163/163/163 169/169/169
f 170/170/170 171/171/171 166/166/166
f 166/166/166 165/165/165 170/170/170
f 171/171/171 172/172/172 164/164/164
f 164/164/164 166/166/166 171/171/171
f 172/172/172 167/167/167 161/161/161
f 161/161/161 164/164/164 172/172/172
f 173/173/173 174/174/174 175/175/175
f 176/176/176 175/175/175 174/174/174
f 176/176/176 177/177/177 175/175/175
f 178/178/178 175/175/175 177/177/177
f 174/174/174 179/179/179 176/176/176
f 177/177/177 176/176/176 179/179/179
f 173/173/173 180/180/180 174/174/174
