# Generated from Nova1492 GX by tools/nova1492/GxObjConverter
mtllib datan_common_moblegs31x_fc928f18.mtl
o datan_common_moblegs31x_fc928f18
v -0.3175 -0.496942 -0.401063
v -0.3175 -0.223447 -0.401063
v 0.3175 -0.223447 -0.401063
v 0.3175 -0.496942 -0.401063
v -0.15875 0.00002 -0.401063
v 0.15875 0.00002 -0.401063
v -0.0889 -0.312032 1.901839
v 0.0889 -0.312032 1.901839
v 0.0889 -0.235453 1.861808
v -0.0889 -0.235453 1.861808
v 0.04445 -0.172882 1.791332
v -0.04445 -0.172882 1.791332
v 0.3175 -0.496942 -0.401063
v 0.3175 -0.223447 -0.401063
v 0.3175 -0.223447 0.641256
v 0.3175 -0.496942 0.641256
v 0.15875 0.000021 0.641256
v 0.1778 -0.230784 0.850095
v 0.1778 -0.383941 0.850095
v 0.0889 -0.105643 0.850095
v 0.0889 -0.235453 1.861808
v 0.0889 -0.312032 1.901839
v 0.04445 -0.172882 1.791332
v 0.15875 0.00002 -0.401063
v -0.15875 0.000021 0.641256
v -0.0889 -0.105643 0.850095
v -0.04445 -0.172882 1.791332
v -0.15875 0.00002 -0.401063
v -0.3175 -0.223447 -0.401063
v -0.3175 -0.223447 0.641256
v -0.3175 -0.496942 -0.401063
v -0.3175 -0.496942 0.641256
v -0.1778 -0.230784 0.850095
v -0.1778 -0.383941 0.850095
v 0.745465 -0.955054 -1.227388
v -0.000001 -0.955054 -0.945737
v -0.000001 -0.665121 -1.033104
v 0.820011 -0.665121 -1.314755
v -0.000001 -0.955054 -0.945737
v -0.745467 -0.955054 -1.227388
v -0.820013 -0.665121 -1.314755
v -0.000001 -0.665121 -1.033104
v 0.820011 -0.665121 -1.314755
v -0.000001 -0.26725 -0.945737
v 0.521825 -0.375187 -1.171075
v -0.521827 -0.375187 -1.171075
v -0.000001 -0.26725 -0.945737
v -0.521827 -0.375187 -0.234087
v -0.000001 -0.26725 -0.234087
v -0.000001 -0.26725 -0.945737
v -0.521827 -0.375187 -1.171075
v 0.521825 -0.375187 -0.234087
v 0.521825 -0.375187 -1.171075
v 0.745465 -0.955054 -0.234087
v 0.745465 -0.955054 -1.227388
v 0.820011 -0.665121 -1.314755
v 0.820011 -0.665121 -0.26321
v 0.820011 -0.665121 -1.314755
v -0.745467 -0.955054 -1.227388
v -0.745467 -0.955054 -0.234087
v -0.820013 -0.665121 -0.263209
v -0.820013 -0.665121 -1.314755
v -0.001139 -0.175989 -1.622717
v -0.129051 -0.074896 -1.622716
v 0.001171 0.017786 -1.622716
v 0.129083 -0.083307 -1.622717
v -0.001139 -0.175989 -1.622717
v 0.129083 -0.083307 -1.622717
v 0.403349 -0.304958 -1.061706
v -0.003593 -0.691132 -1.061706
v 0.001171 0.017786 -1.622716
v 0.003625 0.116264 -1.061706
v 0.403349 -0.304958 -1.061706
v 0.000557 -0.220638 -0.218981
v 0.060516 -0.283821 -0.218981
v 0.001171 0.017786 -1.622716
v -0.129051 -0.074896 -1.622716
v -0.403317 -0.26991 -1.061706
v 0.003625 0.116264 -1.061706
v -0.060484 -0.278564 -0.218981
v -0.129051 -0.074896 -1.622716
v -0.001139 -0.175989 -1.622717
v -0.003593 -0.691132 -1.061706
v -0.403317 -0.26991 -1.061706
v -0.601187 -0.955053 1.735213
v 0.000005 -0.955053 2.496102
v 0.000005 -0.613538 2.414948
v -0.632762 -0.613538 1.775522
v 0.000005 -0.955053 2.496102
v 0.6105 -0.955053 1.712456
v 0.67757 -0.613538 1.764287
v 0.000005 -0.613538 2.414948
v -0.632762 -0.613538 1.775522
v 0.000005 -0.237333 2.051859
v -0.571445 -0.299116 1.600599
v 0.559895 -0.299116 1.622011
v 1.142906 -0.955053 1.380289
v 1.257196 -0.613538 1.380289
v 1.028615 -0.385768 1.380289
v -1.142896 -0.955053 1.380289
v -1.257186 -0.613538 1.380289
v -1.257186 -0.613538 1.380289
v -0.571445 -0.299116 1.600599
v -1.028605 -0.385768 1.380289
v -0.571445 -0.299116 1.600599
v 0.000005 -0.237333 2.051859
v 0.000005 -0.197573 1.380289
v -1.028605 -0.385768 1.380289
v 0.000005 -0.237333 0.046653
v -1.028605 -0.385768 1.163473
v 1.028615 -0.385768 1.380289
v 1.028615 -0.385768 1.163473
v 1.142906 -0.955053 1.380289
v 1.142906 -0.955053 1.163473
v 1.257196 -0.613538 1.163473
v 1.257196 -0.613538 1.380289
v 1.028615 -0.385768 1.163473
v 1.028615 -0.385768 1.380289
v 1.142906 -0.955053 1.163473
v 0.000005 -0.955053 -0.023868
v 0.000005 -0.613538 -0.09742
v 0.000005 -0.955053 -0.023868
v -1.142896 -0.955053 1.163473
v -1.257186 -0.613538 1.163473
v 0.000005 -0.613538 -0.09742
v -1.142896 -0.955053 1.163473
v -1.142896 -0.955053 1.380289
v -1.257186 -0.613538 1.380289
v -1.257186 -0.613538 1.163473
v -1.028605 -0.385768 1.380289
v -1.028605 -0.385768 1.163473
v 0.559895 -0.299116 1.622011
v 0.559895 -0.299116 1.622011
vt 0.693397 0.699801
vt 0.693397 0.699801
vt 0.808282 0.699801
vt 0.815938 0.695972
vt 0.724032 0.695972
vt 0.785303 0.695972
vt 0.737512 0.153406
vt 0.764167 0.153406
vt 0.764167 0.155314
vt 0.737512 0.162971
vt 0.763245 0.172153
vt 0.746089 0.172153
vt 0.81211 0.695972
vt 0.81211 0.695972
vt 0.81211 0.454592
vt 0.815938 0.454592
vt 0.785303 0.454592
vt 0.788979 0.404695
vt 0.788979 0.404695
vt 0.771823 0.404695
vt 0.771823 0.162971
vt 0.771823 0.153406
vt 0.763245 0.179809
vt 0.777647 0.695972
vt 0.724032 0.454592
vt 0.737512 0.404695
vt 0.746089 0.179809
vt 0.716376 0.695972
vt 0.693397 0.695972
vt 0.693397 0.454592
vt 0.693397 0.695972
vt 0.693397 0.454592
vt 0.720356 0.404695
vt 0.720356 0.404695
vt 0.033878 0.511758
vt 0.246172 0.511758
vt 0.246172 0.6028
vt 0.011882 0.6028
vt 0.253828 0.511758
vt 0.466122 0.511758
vt 0.488118 0.6028
vt 0.246172 0.610457
vt 0.011882 0.610457
vt 0.246172 0.738242
vt 0.099863 0.701499
vt 0.400137 0.701499
vt 0.253828 0.738242
vt 0.653127 0.663734
vt 0.746172 0.663734
vt 0.746172 0.82611
vt 0.653127 0.879949
vt 0.854529 0.663734
vt 0.854529 0.879949
vt 0.897687 0.663734
vt 0.897687 0.893404
vt 0.904416 0.914277
vt 0.912073 0.670692
vt 0.912073 0.914277
vt 0.602314 0.893404
vt 0.602314 0.663734
vt 0.595584 0.670692
vt 0.595584 0.914277
vt 0.120837 0.491945
vt 0.091366 0.491945
vt 0.121507 0.491945
vt 0.158634 0.488117
vt 0.128493 0.488117
vt 0.166291 0.488117
vt 0.238242 0.302384
vt 0.120124 0.294728
vt 0.129164 0.488117
vt 0.129876 0.302384
vt 0.238242 0.294728
vt 0.121329 0.011882
vt 0.138732 0.011882
vt 0.121507 0.488117
vt 0.083709 0.488117
vt 0.011758 0.302384
vt 0.12222 0.294728
vt 0.103611 0.011883
vt 0.091366 0.488117
vt 0.120837 0.488117
vt 0.120124 0.302384
vt 0.011758 0.294728
vt 0.138129 0.761758
vt 0.246172 0.761758
vt 0.246172 0.865513
vt 0.124396 0.87317
vt 0.253828 0.761758
vt 0.363661 0.761758
vt 0.376569 0.865513
vt 0.246172 0.87317
vt 0.132052 0.87317
vt 0.246172 0.988242
vt 0.143853 0.975743
vt 0.353923 0.968087
vt 0.466122 0.761758
vt 0.488118 0.865513
vt 0.444127 0.947475
vt 0.033878 0.761758
vt 0.011882 0.865513
vt 0.011882 0.87317
vt 0.136197 0.968087
vt 0.055873 0.939818
vt 0.643945 0.21738
vt 0.746172 0.117292
vt 0.746172 0.269982
vt 0.556038 0.269982
vt 0.753828 0.588406
vt 0.556038 0.329406
vt 0.943962 0.277638
vt 0.943962 0.32175
vt 0.973595 0.277638
vt 0.973595 0.32175
vt 0.987915 0.32175
vt 0.987915 0.277638
vt 0.951618 0.32175
vt 0.951618 0.277638
vt 0.965939 0.329406
vt 0.753828 0.605244
vt 0.753828 0.622806
vt 0.746172 0.605244
vt 0.534061 0.329406
vt 0.512085 0.329406
vt 0.746172 0.622806
vt 0.526405 0.32175
vt 0.526405 0.277638
vt 0.512085 0.277638
vt 0.512085 0.32175
vt 0.548382 0.277638
vt 0.556038 0.32175
vt 0.865039 0.200692
vt 0.865039 0.208348
vn -0 -0 -1
vn -0 -0 -1
vn -0 -0 -1
vn -0 -0 -1
vn 0 1 -0.000001
vn 0.815231 0.579136 -0.000001
vn -0.995097 0.045819 0.087651
vn -0 0.463265 0.88622
vn -0 0.747801 0.663923
vn -0.995097 0.045819 0.087651
vn 0 0.747801 0.663923
vn 0 0.747801 0.663923
vn 1 0 0
vn 0.815232 0.579135 0
vn 0.709567 0.504076 0.492365
vn 0.831179 0 0.556006
vn -0 0.89229 0.451462
vn 0.773747 0.629516 0.070895
vn 0.995787 0.042481 0.081266
vn -0 0.997458 0.071255
vn 0.773747 0.629516 0.070895
vn 0.995787 0.042481 0.081266
vn -0 0.997458 0.071255
vn 0 1 -0.000001
vn -0.709565 0.504074 0.492368
vn -0.766758 0.636716 0.081695
vn -0.766758 0.636716 0.081695
vn -0.815232 0.579135 -0.000001
vn -1 0 0
vn -0.831179 0 0.556006
vn -1 0 0
vn -0.831179 0 0.556006
vn -0.995097 0.045819 0.087651
vn -0.996447 0 0.084226
vn -0.318446 -0.197503 -0.927138
vn -0.340177 -0.271314 -0.900371
vn -0.318058 0.203339 -0.926009
vn -0.318446 -0.197503 -0.927138
vn 0.312405 -0.27408 -0.909551
vn 0.347158 -0.187622 -0.918847
vn 0.321941 0.133393 -0.937315
vn 0.353102 0.200661 -0.913813
vn -0.385207 0.060175 -0.920866
vn -0.385207 0.060175 -0.920866
vn -0.385207 0.060175 -0.920866
vn 0.353102 0.200661 -0.913813
vn 0.353102 0.200661 -0.913813
vn -0.697117 0.716958 0
vn 0.202557 0.979271 -0
vn 0.202557 0.979271 -0
vn -0.697117 0.716958 0
vn 0.697117 0.716958 -0
vn 0.697117 0.716958 -0
vn 0.9685 -0.249015 0
vn 0.9685 -0.249015 0
vn 0.9685 -0.249015 0
vn 0.697117 0.716958 -0
vn 0.697117 0.716958 0
vn -0.9685 -0.249015 -0
vn -0.9685 -0.249015 0
vn -0.697117 0.716958 0
vn -0.697117 0.716958 0
vn -0.000004 0.000006 -1
vn -0.000004 0.000006 -1
vn -0.000004 0.000006 -1
vn 0.72291 0.686014 -0.082376
vn 0.5737 -0.604553 -0.552616
vn 0.496043 -0.696961 -0.517868
vn 0.5737 -0.604553 -0.552616
vn 0.5737 -0.604553 -0.552616
vn 0.614034 0.776932 -0.139066
vn 0.698903 0.663233 0.26769
vn 0.698899 0.663237 0.267687
vn -0.661561 0.697137 0.276291
vn 0.698899 0.663237 0.267687
vn -0.683097 0.719833 -0.123369
vn -0.579855 0.81472 -0.000272
vn -0.66156 0.697138 0.276291
vn -0.661561 0.697137 0.276291
vn -0.661561 0.697137 0.276291
vn -0.623676 -0.591845 -0.510635
vn -0.502458 -0.635749 -0.585969
vn -0.623676 -0.591845 -0.510635
vn -0.623676 -0.591845 -0.510635
vn -0.542023 -0.147756 0.827272
vn -0.776259 0.145747 0.613336
vn -0.703064 -0.147121 0.695742
vn -0.526459 -0.176182 0.831746
vn 0.682687 0.168935 0.710915
vn 0.537644 -0.228755 0.811548
vn 0.467691 0.5037 0.726328
vn 0.532461 0.587823 0.609057
vn -0.463767 0.498066 0.732701
vn 0.532461 0.587823 0.609057
vn -0.574909 0.480541 0.662239
vn 0.467691 0.5037 0.726328
vn 0.521212 -0.174427 0.835412
vn 0.483054 0.484774 0.729146
vn 0.467691 0.5037 0.726328
vn -0.526459 -0.176182 0.831746
vn -0.526459 -0.176182 0.831746
vn -0.454981 0.456601 0.764531
vn -0.454981 0.456601 0.764531
vn -0.454981 0.456601 0.764531
vn -0.179957 0.983583 -0.013437
vn 0.153682 0.986393 0.058399
vn 0.179972 0.983665 -0.003641
vn -0.142827 0.989748 0
vn -0.729181 0.244737 -0.639061
vn -0.729181 0.244737 -0.639061
vn 0.179972 0.983665 -0.003641
vn 0.173907 0.984325 -0.029346
vn 0.948306 -0.317356 0
vn 0.948306 -0.317356 0
vn 0.616919 0.619116 -0.485907
vn 0.705849 0.708362 -0
vn 0.616919 0.619116 -0.485907
vn 0.705849 0.708362 -0
vn 0.68906 -0.230598 -0.687037
vn 0.712557 -0.147719 -0.685887
vn 0.683596 0.261024 -0.681589
vn -0.700097 -0.150337 -0.698042
vn -0.700391 -0.23439 -0.674177
vn -0.577228 0.579283 -0.575533
vn -0.729181 0.244737 -0.639061
vn -0.948306 -0.317356 -0
vn -0.948306 -0.317356 0
vn -0.705849 0.708362 0
vn -0.705849 0.708362 0
vn -0.705849 0.708362 0
vn -0.705849 0.708362 0
vn 0.153682 0.986393 0.058399
vn 0.179972 0.983665 -0.003641
usemtl datan_common_moblegs31x_fc928f18
f 1/1/1 2/2/2 3/3/3
f 3/3/3 4/4/4 1/1/1
f 2/2/2 5/5/5 6/6/6
f 6/6/6 3/3/3 2/2/2
f 7/7/7 8/8/8 9/9/9
f 9/9/9 10/10/10 7/7/7
f 10/10/10 9/9/9 11/11/11
f 11/11/11 12/12/12 10/10/10
f 13/13/13 14/14/14 15/15/15
f 15/15/15 16/16/16 13/13/13
f 14/14/14 6/6/6 17/17/17
f 17/17/17 15/15/15 14/14/14
f 16/16/16 15/15/15 18/18/18
f 18/18/18 19/19/19 16/16/16
f 15/15/15 17/17/17 20/20/20
f 20/20/20 18/18/18 15/15/15
f 19/19/19 18/18/18 21/21/21
f 21/21/21 22/22/22 19/19/19
f 18/18/18 20/20/20 23/23/23
f 23/23/23 21/21/21 18/18/18
f 24/24/24 5/5/5 25/25/25
f 25/25/25 17/17/17 24/24/24
f 17/17/17 25/25/25 26/26/26
f 26/26/26 20/20/20 17/17/17
f 20/20/20 26/26/26 27/27/27
f 27/27/27 23/23/23 20/20/20
f 28/28/28 29/29/29 30/30/30
f 30/30/30 25/25/25 28/28/28
f 29/29/29 31/31/31 32/32/32
f 32/32/32 30/30/30 29/29/29
f 25/25/25 30/30/30 33/33/33
f 33/33/33 26/26/26 25/25/25
f 30/30/30 32/32/32 34/34/34
f 34/34/34 33/33/33 30/30/30
f 26/26/26 33/33/33 10/10/10
f 10/10/10 27/27/27 26/26/26
f 33/33/33 34/34/34 7/7/7
f 7/7/7 10/10/10 33/33/33
f 35/35/35 36/36/36 37/37/37
f 37/37/37 38/38/38 35/35/35
f 39/39/39 40/40/40 41/41/41
f 41/41/41 42/42/42 39/39/39
f 43/43/43 37/37/37 44/44/44
f 44/44/44 45/45/45 43/43/43
f 42/42/42 41/41/41 46/46/46
f 46/46/46 47/47/47 42/42/42
f 48/48/48 49/49/49 50/50/50
f 50/50/50 51/51/51 48/48/48
f 49/49/49 52/52/52 53/53/53
f 53/53/53 50/50/50 49/49/49
f 54/54/54 55/55/55 56/56/56
f 56/56/56 57/57/57 54/54/54
f 57/57/57 58/58/58 53/53/53
f 53/53/53 52/52/52 57/57/57
f 59/59/59 60/60/60 61/61/61
f 61/61/61 62/62/62 59/59/59
f 62/62/62 61/61/61 48/48/48
f 48/48/48 51/51/51 62/62/62
f 63/63/63 64/64/64 65/65/65
f 65/65/65 66/66/66 63/63/63
f 67/67/67 68/68/68 69/69/69
f 69/69/69 70/70/70 67/67/67
f 66/66/66 71/71/71 72/72/72
f 72/72/72 73/73/73 66/66/66
f 73/73/73 72/72/72 74/74/74
f 74/74/74 75/75/75 73/73/73
f 76/76/76 77/77/77 78/78/78
f 78/78/78 79/79/79 76/76/76
f 79/79/79 78/78/78 80/80/80
f 80/80/80 74/74/74 79/79/79
f 81/81/81 82/82/82 83/83/83
f 83/83/83 84/84/84 81/81/81
f 85/85/85 86/86/86 87/87/87
f 87/87/87 88/88/88 85/85/85
f 89/89/89 90/90/90 91/91/91
f 91/91/91 92/92/92 89/89/89
f 93/93/93 92/92/92 94/94/94
f 94/94/94 95/95/95 93/93/93
f 92/92/92 91/91/91 96/96/96
f 96/96/96 94/94/94 92/92/92
f 90/90/90 97/97/97 98/98/98
f 98/98/98 91/91/91 90/90/90
f 91/91/91 98/98/98 99/99/99
f 99/99/99 96/96/96 91/91/91
f 100/100/100 85/85/85 88/88/88
f 88/88/88 101/101/101 100/100/100
f 102/102/102 93/93/93 103/103/103
f 103/103/103 104/104/104 102/102/102
f 105/105/105 106/106/106 107/107/107
f 107/107/107 108/108/108 105/105/105
f 108/108/108 107/107/107 109/109/109
f 109/109/109 110/110/110 108/108/108
f 107/107/107 111/111/111 112/112/112
f 112/112/112 109/109/109 107/107/107
f 113/113/113 114/114/114 115/115/115
f 115/115/115 116/116/116 113/113/113
f 116/116/116 115/115/115 117/117/117
f 117/117/117 118/118/118 116/116/116
f 119/119/119 120/120/120 121/121/121
f 121/121/121 115/115/115 119/119/119
f 122/122/122 123/123/123 124/124/124
f 124/124/124 121/121/121 122/122/122
f 115/115/115 121/121/121 109/109/109
f 109/109/109 117/117/117 115/115/115
f 125/125/125 124/124/124 110/110/110
f 110/110/110 109/109/109 125/125/125
f 126/126/126 127/127/127 128/128/128
f 128/128/128 129/129/129 126/126/126
f 129/129/129 128/128/128 130/130/130
f 130/130/130 131/131/131 129/129/129
f 107/107/107 106/106/106 132/132/132
f 111/111/111 107/107/107 133/133/133
