# Generated from Nova1492 GX by tools/nova1492/GxObjConverter
mtllib datan_common_moblegs32x_e31273b6.mtl
o datan_common_moblegs32x_e31273b6_mesh00
v -0.247 -0.042916 0.284531
v 0.247 -0.042916 0.284531
v 0.247 0.000055 -0.273674
v -0.247 0.000055 -0.273674
v -0.247 -0.329393 0.284531
v 0.247 -0.329393 0.284531
v 0.247 -0.186155 0.333886
v -0.247 -0.186155 0.333886
v 0.247 -0.186155 0.333886
v 0.247 -0.042916 0.284531
v -0.247 -0.042916 0.284531
v 0.247 -0.372365 -0.273674
v -0.247 -0.372365 -0.273674
v -0.247 -0.186155 -0.333886
v 0.247 -0.186155 -0.333886
v -0.247 -0.186155 -0.333886
v -0.247 0.000055 -0.273674
v 0.247 0.000055 -0.273674
vt 0.779063 0.937765
vt 0.779063 0.937765
vt 0.96713 0.976484
vt 0.96713 0.976484
vt 0.771407 0.577548
vt 0.771407 0.577548
vt 0.761758 0.742344
vt 0.761758 0.757657
vt 0.761758 0.757656
vt 0.771407 0.922453
vt 0.779063 0.922453
vt 0.974786 0.523515
vt 0.974786 0.523516
vt 0.988242 0.742344
vt 0.988242 0.757656
vt 0.988242 0.757656
vt 0.974786 0.976484
vt 0.974786 0.976484
vn 0 0.99705 0.076754
vn -0 0.99705 0.076754
vn 0 0.99705 0.076754
vn 0 0.99705 0.076754
vn 0 -0.32577 0.945449
vn 0 -0.32577 0.945449
vn 0 -0.32577 0.945449
vn 0 0.325768 0.94545
vn -0 0.325768 0.94545
vn 0 0.325768 0.94545
vn 0 0.325768 0.94545
vn 0 -0.30767 -0.951493
vn -0 -0.30767 -0.951493
vn 0 -0.30767 -0.951493
vn 0 0.30767 -0.951493
vn 0 0.30767 -0.951493
vn 0 0.30767 -0.951493
vn 0 0.30767 -0.951493
usemtl datan_common_moblegs32x_e31273b6
f 1/1/1 2/2/2 3/3/3
f 3/3/3 4/4/4 1/1/1
f 5/5/5 6/6/6 7/7/7
f 7/7/7 8/8/8 5/5/5
f 8/8/8 9/9/9 10/10/10
f 10/10/10 11/11/11 8/8/8
f 12/12/12 13/13/13 14/14/14
f 14/14/14 15/15/15 12/12/12
f 15/15/15 16/16/16 17/17/17
f 17/17/17 18/18/18 15/15/15
o datan_common_moblegs32x_e31273b6_mesh01
v 0.253012 0.090657 0.225942
v 0.498383 0.059189 0.478366
v 0.253012 0.117854 -0.09994
v 0.498383 0.076946 0.05597
v 0.000019 0.143239 0.114476
v 0.000019 0.18621 -0.443729
v 0.253012 -0.090657 0.225942
v 0.498383 -0.059189 0.478366
v 0.253012 0 0.276691
v 0.498383 0 0.503941
v 0.000019 -0.143239 0.114476
v 0.000019 0 0.163831
v 0.253012 0.090657 0.225942
v 0.000019 0.143239 0.114476
v 0.253012 -0.117854 -0.099941
v 0.000019 -0.18621 -0.443729
v 0.253012 0 -0.123523
v 0.000019 0 -0.503941
v 0.498383 -0.076946 0.05597
v 0.498383 0 0.034124
v 0.253012 0.117854 -0.09994
v 0.498383 0.076946 0.05597
v 0.663833 0.015567 0.933106
v 0.691428 0.0122 0.933106
v 0.487936 0.063308 0.465861
v 0.793327 0.044647 0.465861
v 0.487936 0.077706 0.05112
v 0.814708 0.054999 0.05112
v 0.657083 0.116592 -0.236846
v 0.71301 0.095007 -0.236846
v 0.663833 -0.021777 0.933106
v 0.691428 -0.01841 0.933106
v 0.663833 0.015567 0.933106
v 0.487936 -0.069518 0.465861
v 0.663833 -0.021777 0.933106
v 0.657083 -0.122802 -0.236846
v 0.487936 -0.083916 0.05112
v 0.487936 0.077706 0.05112
v 0.71301 -0.101217 -0.236846
v 0.657083 -0.122802 -0.236846
v 0.71301 0.095007 -0.236846
v 0.814708 -0.061209 0.05112
v 0.71301 -0.101217 -0.236846
v 0.814708 0.054999 0.05112
v 0.793327 -0.050857 0.465861
v 0.793327 0.044647 0.465861
v 0.691428 -0.01841 0.933106
vt 0.242518 0.290942
vt 0.011641 0.048828
vt 0.242518 0.588203
vt 0.011641 0.43866
vt 0.488359 0.397855
vt 0.488359 0.917951
vt 0.242518 0.27563
vt 0.011641 0.048828
vt 0.242518 0.226954
vt 0.011641 0.024297
vt 0.488359 0.382543
vt 0.488359 0.335204
vt 0.242518 0.27563
vt 0.488359 0.382543
vt 0.250175 0.603515
vt 0.488359 0.917951
vt 0.250175 0.626134
vt 0.488359 0.975704
vt 0.011641 0.453972
vt 0.011641 0.474926
vt 0.242518 0.603515
vt 0.011641 0.453972
vt 0.619863 0.023766
vt 0.600091 0.023766
vt 0.738242 0.394957
vt 0.527078 0.394957
vt 0.738242 0.73803
vt 0.511758 0.73803
vt 0.6247 0.976234
vt 0.584627 0.976234
vt 0.612207 0.016109
vt 0.600091 0.016109
vt 0.612207 0.016109
vt 0.738242 0.394957
vt 0.619863 0.023766
vt 0.6247 0.976234
vt 0.738242 0.753343
vt 0.738242 0.753343
vt 0.584627 0.983891
vt 0.617044 0.983891
vt 0.584627 0.983891
vt 0.511758 0.753343
vt 0.576971 0.976234
vt 0.511758 0.753343
vt 0.527078 0.41027
vt 0.527078 0.41027
vt 0.600091 0.023766
vn 0.154365 0.984591 0.082171
vn -0.666278 0.295781 0.684535
vn 0.154365 0.984591 0.082171
vn 0.138535 0.989484 0.041597
vn 0.17086 0.982389 0.075625
vn 0.80896 0.180868 -0.559348
vn -0.362746 -0.455194 0.81315
vn -0.647727 -0.302194 0.699377
vn -0.272242 0.470015 0.839625
vn -0.666278 0.295781 0.684535
vn -0.329381 -0.307589 0.892691
vn -0.388614 0.300163 0.871138
vn -0.272242 0.470015 0.839625
vn -0.272242 0.470015 0.839625
vn 0.533035 -0.166008 -0.829647
vn 0.819639 -0.176258 -0.545092
vn 0.548374 0.164081 -0.819978
vn 0.80896 0.180868 -0.559348
vn 0.548969 -0.228285 -0.804064
vn 0.525745 0.232327 -0.818301
vn 0.548374 0.164081 -0.819978
vn 0.548374 0.164081 -0.819978
vn -0.935881 0 0.352318
vn 0.977036 0 0.213076
vn -0.935881 0 0.352318
vn 0.069294 0.99719 0.028462
vn 0.068279 0.982589 0.172792
vn 0.360062 0.932925 0.002455
vn 0 -0 -1
vn 0.942926 0 -0.333003
vn 0 -0 1
vn 0 0 1
vn 0 0 1
vn -0.935881 0 0.352318
vn -0.935881 0 0.352318
vn -0.862254 0 -0.506476
vn -0.862254 0 -0.506476
vn -0.862254 0 -0.506476
vn -0 0 -1
vn 0 -0 -1
vn 0 -0 -1
vn 0.998674 0 0.051484
vn 0.942926 0 -0.333003
vn 0.998674 0 0.051484
vn 0.977036 0 0.213076
vn 0.977036 0 0.213076
vn 0.977036 0 0.213077
usemtl datan_common_moblegs32x_e31273b6
f 19/19/19 20/20/20 21/21/21
f 22/22/22 21/21/21 20/20/20
f 23/23/23 19/19/19 24/24/24
f 21/21/21 24/24/24 19/19/19
f 25/25/25 26/26/26 27/27/27
f 28/28/28 27/27/27 26/26/26
f 29/29/29 25/25/25 30/30/30
f 27/27/27 30/30/30 25/25/25
f 27/27/27 28/28/28 31/31/31
f 20/20/20 31/31/31 28/28/28
f 30/30/30 27/27/27 32/32/32
f 31/31/31 32/32/32 27/27/27
f 33/33/33 34/34/34 35/35/35
f 36/36/36 35/35/35 34/34/34
f 37/37/37 33/33/33 38/38/38
f 35/35/35 38/38/38 33/33/33
f 35/35/35 36/36/36 39/39/39
f 24/24/24 39/39/39 36/36/36
f 38/38/38 35/35/35 40/40/40
f 39/39/39 40/40/40 35/35/35
f 41/41/41 42/42/42 43/43/43
f 44/44/44 43/43/43 42/42/42
f 43/43/43 44/44/44 45/45/45
f 46/46/46 45/45/45 44/44/44
f 45/45/45 46/46/46 47/47/47
f 48/48/48 47/47/47 46/46/46
f 49/49/49 50/50/50 51/51/51
f 42/42/42 51/51/51 50/50/50
f 52/52/52 53/53/53 43/43/43
f 41/41/41 43/43/43 53/53/53
f 54/54/54 55/55/55 47/47/47
f 56/56/56 47/47/47 55/55/55
f 57/57/57 58/58/58 59/59/59
f 47/47/47 59/59/59 58/58/58
f 60/60/60 61/61/61 62/62/62
f 48/48/48 62/62/62 61/61/61
f 63/63/63 60/60/60 64/64/64
f 62/62/62 64/64/64 60/60/60
f 65/65/65 63/63/63 42/42/42
f 64/64/64 42/42/42 63/63/63
o datan_common_moblegs32x_e31273b6_mesh02
v -0.498335 0.059189 0.478366
v -0.252965 0.090657 0.225942
v -0.252965 0.117854 -0.09994
v -0.498335 0.076946 0.05597
v 0.000029 0.143239 0.114476
v 0.000029 0.18621 -0.443729
v -0.498335 -0.059189 0.478366
v -0.252965 -0.090657 0.225942
v -0.252965 0 0.276691
v -0.498335 0 0.503941
v 0.000029 -0.143239 0.114476
v 0.000029 0 0.163831
v -0.252965 0.090657 0.225942
v 0.000029 0.143239 0.114476
v 0.000029 -0.18621 -0.443729
v -0.252965 -0.117854 -0.099941
v -0.252965 0 -0.123523
v 0.000029 0 -0.503941
v -0.498335 -0.076946 0.05597
v -0.498335 0 0.034124
v -0.252965 0.117854 -0.09994
v -0.498335 0.076946 0.05597
v -0.691381 0.0122 0.933106
v -0.663786 0.015567 0.933106
v -0.487889 0.063308 0.465861
v -0.79328 0.044647 0.465861
v -0.487889 0.077706 0.05112
v -0.814661 0.054999 0.05112
v -0.657036 0.116592 -0.236846
v -0.712963 0.095007 -0.236846
v -0.691381 -0.01841 0.933106
v -0.663786 -0.021777 0.933106
v -0.663786 0.015567 0.933106
v -0.663786 -0.021777 0.933106
v -0.487889 -0.069518 0.465861
v -0.487889 -0.083916 0.05112
v -0.657036 -0.122802 -0.236846
v -0.487889 0.077706 0.05112
v -0.657036 -0.122802 -0.236846
v -0.712963 -0.101217 -0.236846
v -0.712963 0.095007 -0.236846
v -0.712963 -0.101217 -0.236846
v -0.814661 -0.061209 0.05112
v -0.814661 0.054999 0.05112
v -0.79328 -0.050857 0.465861
v -0.79328 0.044647 0.465861
v -0.691381 -0.01841 0.933106
vt 0.011641 0.048828
vt 0.242518 0.290942
vt 0.242518 0.588203
vt 0.011641 0.43866
vt 0.488359 0.397855
vt 0.488359 0.917951
vt 0.011641 0.048828
vt 0.242518 0.27563
vt 0.242518 0.226954
vt 0.011641 0.024297
vt 0.488359 0.382543
vt 0.488359 0.335204
vt 0.242518 0.27563
vt 0.488359 0.382543
vt 0.488359 0.917951
vt 0.250175 0.603515
vt 0.250175 0.626134
vt 0.488359 0.975704
vt 0.011641 0.453972
vt 0.011641 0.474926
vt 0.242518 0.603515
vt 0.011641 0.453972
vt 0.600091 0.023766
vt 0.619863 0.023766
vt 0.738242 0.394957
vt 0.527078 0.394957
vt 0.738242 0.73803
vt 0.511758 0.73803
vt 0.6247 0.976234
vt 0.584627 0.976234
vt 0.600091 0.016109
vt 0.612207 0.016109
vt 0.612207 0.016109
vt 0.619863 0.023766
vt 0.738242 0.394957
vt 0.738242 0.753343
vt 0.6247 0.976234
vt 0.738242 0.753343
vt 0.617044 0.983891
vt 0.584627 0.983891
vt 0.584627 0.983891
vt 0.576971 0.976234
vt 0.511758 0.753343
vt 0.511758 0.753343
vt 0.527078 0.41027
vt 0.527078 0.41027
vt 0.600091 0.023766
vn 0.666279 0.29578 0.684533
vn -0.154365 0.984591 0.082171
vn -0.154365 0.984591 0.082171
vn -0.138536 0.989484 0.041597
vn -0.170859 0.982389 0.075625
vn -0.808959 0.180869 -0.55935
vn 0.647729 -0.302194 0.699376
vn 0.362745 -0.455195 0.813151
vn 0.272241 0.470015 0.839625
vn 0.666279 0.29578 0.684533
vn 0.32938 -0.307589 0.892691
vn 0.388613 0.300163 0.871139
vn 0.272241 0.470015 0.839625
vn 0.272241 0.470015 0.839625
vn -0.819638 -0.176259 -0.545094
vn -0.533037 -0.166008 -0.829646
vn -0.548375 0.16408 -0.819977
vn -0.808959 0.180869 -0.55935
vn -0.548971 -0.228284 -0.804063
vn -0.525747 0.232326 -0.8183
vn -0.548375 0.16408 -0.819977
vn -0.548375 0.16408 -0.819977
vn -0.977036 0 0.213077
vn 0.935881 0 0.352318
vn 0.935881 0 0.352318
vn -0.069294 0.99719 0.028462
vn -0.068279 0.982589 0.172792
vn -0.360062 0.932925 0.002455
vn 0 0 -1
vn -0.942926 -0 -0.333003
vn 0 0 1
vn -0 0 1
vn 0 0 1
vn 0.935881 0 0.352318
vn 0.935881 -0 0.352318
vn 0.862254 0 -0.506476
vn 0.862254 0 -0.506476
vn 0.862254 0 -0.506476
vn 0 0 -1
vn 0 0 -1
vn 0 0 -1
vn -0.942926 -0 -0.333003
vn -0.998674 0 0.051484
vn -0.998674 0 0.051484
vn -0.977036 0 0.213077
vn -0.977036 0 0.213077
vn -0.977036 0 0.213077
usemtl datan_common_moblegs32x_e31273b6
f 66/66/66 67/67/67 68/68/68
f 68/68/68 69/69/69 66/66/66
f 67/67/67 70/70/70 71/71/71
f 71/71/71 68/68/68 67/67/67
f 72/72/72 73/73/73 74/74/74
f 74/74/74 75/75/75 72/72/72
f 73/73/73 76/76/76 77/77/77
f 77/77/77 74/74/74 73/73/73
f 75/75/75 74/74/74 78/78/78
f 78/78/78 66/66/66 75/75/75
f 74/74/74 77/77/77 79/79/79
f 79/79/79 78/78/78 74/74/74
f 80/80/80 81/81/81 82/82/82
f 82/82/82 83/83/83 80/80/80
f 81/81/81 84/84/84 85/85/85
f 85/85/85 82/82/82 81/81/81
f 83/83/83 82/82/82 86/86/86
f 86/86/86 71/71/71 83/83/83
f 82/82/82 85/85/85 87/87/87
f 87/87/87 86/86/86 82/82/82
f 88/88/88 89/89/89 90/90/90
f 90/90/90 91/91/91 88/88/88
f 91/91/91 90/90/90 92/92/92
f 92/92/92 93/93/93 91/91/91
f 93/93/93 92/92/92 94/94/94
f 94/94/94 95/95/95 93/93/93
f 96/96/96 97/97/97 98/98/98
f 98/98/98 88/88/88 96/96/96
f 99/99/99 100/100/100 90/90/90
f 90/90/90 89/89/89 99/99/99
f 101/101/101 102/102/102 94/94/94
f 94/94/94 103/103/103 101/101/101
f 104/104/104 105/105/105 106/106/106
f 106/106/106 94/94/94 104/104/104
f 107/107/107 108/108/108 109/109/109
f 109/109/109 95/95/95 107/107/107
f 108/108/108 110/110/110 111/111/111
f 111/111/111 109/109/109 108/108/108
f 110/110/110 112/112/112 88/88/88
f 88/88/88 111/111/111 110/110/110
