# Generated from Nova1492 GX by tools/nova1492/GxObjConverter
mtllib datan_common_king-legs_f234596d.mtl
o datan_common_king-legs_f234596d
v -0.285221 -0.115275 0.104434
v -0.229338 0.124685 0.216329
v -0.229338 0.287552 -0.132939
v -0.285221 0.047592 -0.244834
v -0 0.400571 -0.369822
v -0 0.156408 -0.483677
v 0 0.266107 0.282275
v 0 0.428973 -0.066993
v 0.285221 -0.115275 0.104434
v 0.285221 0.047592 -0.244834
v 0.229339 0.287552 -0.132939
v 0.229339 0.124685 0.216329
v -0 0.156408 -0.483677
v -0 0.400571 -0.369822
v 0 0.428973 -0.066993
v 0 0.266107 0.282275
v -0.041138 -0.323607 0.666553
v 0 -0.564053 0.778675
v 0 -0.182857 0.602048
v 0 -0.564053 0.778675
v 0.041139 -0.323607 0.666553
v 0 -0.182857 0.602048
v -0.272713 -0.30127 0.003734
v -0.261865 -0.133626 0.136117
v -0.272713 0.059062 -0.197627
v -0.168541 -0.108583 -0.33001
v 0 0.192297 -0.423759
v 0 -0.026426 -0.460144
v 0.272713 -0.30127 0.003734
v 0.168542 -0.108583 -0.33001
v 0.272713 0.059062 -0.197627
v 0.261866 -0.133626 0.136117
v 0 -0.026426 -0.460144
v 0 0.192297 -0.423759
v -0.066788 -0.557801 0.545557
v 0 -0.807104 0.636296
v 0 -0.411965 0.493565
v 0 -0.807104 0.636296
v 0.066789 -0.557801 0.545557
v 0 -0.411965 0.493565
v 0 0.001511 0.214138
v 0 0.001511 0.214138
v 0.168542 -0.108583 -0.33001
v 0.272713 -0.30127 0.003734
v -0.05596 -0.776531 0.324104
v 0 -1.041833 0.324104
v 0 -0.621707 0.325126
v 0 -1.041833 0.324104
v 0.05596 -0.776531 0.324104
v 0 -0.621707 0.325126
v -0.22071 -0.145287 0.113725
v -0.233537 -0.214012 -0.099746
v 0 -0.080796 0.237974
v 0.233537 -0.214012 -0.099746
v 0.220711 -0.145287 0.113724
v 0 -0.080796 0.237974
v 0.233537 -0.214012 -0.099746
v -0.141579 -1.171963 -0.168122
v -0.141579 -0.701092 -0.009898
v -0.141579 -0.701092 -0.134283
v -0.141579 -1.171963 -0.292506
v -0.141579 -0.203539 0.057699
v -0.141579 -0.203539 -0.066686
v 0.136456 -1.171963 -0.168122
v 0.136456 -1.171963 -0.292506
v 0.136456 -0.701092 -0.134283
v 0.136456 -0.701092 -0.009898
v 0.136456 -0.203539 -0.066686
v 0.136456 -0.203539 0.057699
v -0.141579 -1.171963 -0.292506
v -0.141579 -0.701092 -0.134283
v 0.136456 -0.701092 -0.134283
v 0.136456 -1.171963 -0.292506
v -0.141579 -0.203539 -0.066686
v 0.136456 -0.203539 -0.066686
v -0.141579 -0.203539 0.057699
v -0.141579 -0.701092 -0.009898
v 0.136456 -0.701092 -0.009898
v 0.136456 -0.203539 0.057699
v -0.141579 -1.171963 -0.168122
v 0.136456 -1.171963 -0.168122
v -0.14245 -1.286781 -0.16863
v -0.14245 -1.179981 -0.16863
v -0.130428 -1.181033 -0.783789
v -0.130428 -1.287833 -0.783789
v 0.137327 -1.286781 -0.16863
v 0.149349 -1.287833 -0.783789
v 0.149349 -1.181033 -0.783789
v 0.137327 -1.179981 -0.16863
v 0.149349 -1.181033 -0.783789
v 0.149349 -1.287833 -0.783789
v -0.130428 -1.181033 -0.783789
v -0.14245 -1.179981 -0.16863
v 0.137327 -1.179981 -0.16863
v 0.149349 -1.181033 -0.783789
v 0.137327 -1.286781 -0.16863
v 0.137327 -1.179981 -0.16863
vt 0.781769 0.693794
vt 0.776005 0.76104
vt 0.678127 0.752651
vt 0.68389 0.685405
vt 0.611418 0.747527
vt 0.617283 0.679103
vt 0.772609 0.800672
vt 0.67473 0.792283
vt 0.781371 0.693867
vt 0.683807 0.684996
vt 0.677745 0.752391
vt 0.775309 0.761262
vt 0.617415 0.678364
vt 0.611247 0.746939
vt 0.674172 0.79211
vt 0.771737 0.800981
vt 0.932461 0.719182
vt 0.987791 0.680294
vt 0.900322 0.742089
vt 0.986879 0.6813
vt 0.931522 0.72003
vt 0.899366 0.742846
vt 0.783149 0.639896
vt 0.791102 0.693765
vt 0.692865 0.693938
vt 0.684912 0.64007
vt 0.625963 0.694648
vt 0.645715 0.64169
vt 0.783 0.639834
vt 0.685038 0.639546
vt 0.692717 0.693593
vt 0.790679 0.693881
vt 0.645943 0.640986
vt 0.625999 0.69399
vt 0.935481 0.652054
vt 0.987211 0.608491
vt 0.905461 0.677675
vt 0.986636 0.609306
vt 0.934848 0.65274
vt 0.904792 0.678287
vt 0.791172 0.733542
vt 0.790563 0.733763
vt 0.684912 0.64007
vt 0.783149 0.639896
vt 0.902344 0.585938
vt 0.948047 0.51695
vt 0.877415 0.621935
vt 0.94801 0.517341
vt 0.902344 0.585938
vt 0.878906 0.621094
vt 0.787635 0.688342
vt 0.749194 0.64603
vt 0.806898 0.718382
vt 0.749111 0.645825
vt 0.787247 0.688428
vt 0.806315 0.718637
vt 0.749194 0.64603
vt 0.548981 0.219303
vt 0.548892 0.322042
vt 0.521954 0.322077
vt 0.522043 0.219339
vt 0.549053 0.430292
vt 0.5224 0.430094
vt 0.548906 0.219297
vt 0.522139 0.219297
vt 0.522117 0.321953
vt 0.549129 0.321953
vt 0.522092 0.430019
vt 0.549104 0.430019
vt 0.522085 0.218917
vt 0.522085 0.321544
vt 0.471739 0.321544
vt 0.471739 0.218917
vt 0.522085 0.429986
vt 0.471739 0.429986
vt 0.549019 0.43025
vt 0.549019 0.321808
vt 0.599366 0.321808
vt 0.599366 0.43025
vt 0.549019 0.219181
vt 0.599365 0.219181
vt 0.457022 0.373318
vt 0.457022 0.393293
vt 0.375362 0.393293
vt 0.375362 0.373318
vt 0.457022 0.456748
vt 0.375362 0.456748
vt 0.375362 0.436773
vt 0.457022 0.436773
vt 0.375362 0.393293
vt 0.375362 0.373318
vt 0.375381 0.393293
vt 0.457024 0.393293
vt 0.457024 0.436759
vt 0.375381 0.436759
vt 0.457022 0.373318
vt 0.457022 0.393293
vn -0.971357 0.135035 0.195528
vn -0.808684 0.409697 0.422112
vn -0.843554 0.536758 -0.017543
vn -0.858769 0.327359 -0.394147
vn -0.68833 0.566392 -0.453213
vn -0.677127 0.310991 -0.666922
vn -0.561254 0.584959 0.585506
vn -0.556289 0.803799 0.210834
vn 0.961614 0.109979 0.251402
vn 0.858769 0.327358 -0.394147
vn 0.843554 0.536757 -0.017544
vn 0.736475 0.486824 0.469687
vn 0.677127 0.31099 -0.666922
vn 0.68833 0.566392 -0.453213
vn 0.556289 0.803799 0.210834
vn 0.549091 0.639555 0.538023
vn -0.549712 0.391194 0.738095
vn -0.714935 0.188946 0.673177
vn -0.311757 0.469657 0.825972
vn 0.55443 0.271917 0.786555
vn 0.674525 0.271016 0.686707
vn 0.366016 0.481889 0.796125
vn -0.770435 -0.546762 -0.327843
vn -0.925118 0.059025 0.375064
vn -0.920707 -0.017556 -0.38986
vn -0.459897 -0.527866 -0.714039
vn -0.659115 0.138921 -0.7391
vn -0.399851 -0.447109 -0.800133
vn 0.989421 -0.133968 0.055673
vn 0.75954 0.017255 -0.650231
vn 0.920707 -0.017556 -0.38986
vn 0.826127 0.239363 0.510118
vn 0.64393 0.125551 -0.754713
vn 0.659114 0.138921 -0.7391
vn -0.548152 0.333904 0.766836
vn -0.852249 -0.334015 0.402624
vn -0.265474 0.429334 0.863247
vn 0.60889 0.122155 0.783793
vn 0.719795 0.154438 0.67679
vn 0.332815 0.453075 0.827017
vn -0.48591 0.487764 0.725243
vn 0.472287 0.493545 0.730314
vn -0 -0.855973 -0.517021
vn -0 -0.839808 -0.542884
vn -0.552413 0.024248 0.833218
vn -0.898714 -0.401844 0.175595
vn -0.21947 0.0729 0.972892
vn 0.647901 -0.136662 0.749365
vn 0.749307 -0.078161 0.657594
vn 0.344246 0.102902 0.933224
vn -0.906158 -0.098709 0.411259
vn -0.691437 -0.474142 -0.545073
vn -0.467699 0.145548 0.871822
vn 0.969447 -0.207727 0.130472
vn 0.72876 0.033667 0.683941
vn 0.515921 0.136266 0.845729
vn -0 -0.455743 -0.890112
vn -1 0 0
vn -1 0 0
vn -1 0 0
vn -1 0 0
vn -1 0 0
vn -1 0 0
vn 1 0 0
vn 1 0 0
vn 1 0 0
vn 1 0 0
vn 1 0 0
vn 1 0 0
vn 0 0.318522 -0.947916
vn 0 0.196703 -0.980463
vn 0 0.258247 -0.966079
vn 0 0.318522 -0.947916
vn -0 0.134622 -0.990897
vn 0 0.134622 -0.990897
vn 0 -0.134622 0.990897
vn 0 -0.258247 0.966079
vn 0 -0.196703 0.980463
vn 0 -0.134622 0.990897
vn 0 -0.318522 0.947916
vn 0 -0.318522 0.947916
vn -0.821482 -0.410819 0.395468
vn -0.450664 -0 0.892694
vn -0.887348 -0 -0.4611
vn -0.332085 -0.664295 -0.66965
vn 0.70696 -0.707094 0.015025
vn 0.70696 -0.707094 0.015025
vn 0.999809 0 0.019539
vn 0.999809 -0 0.019539
vn 0 0 -1
vn 0 0 -1
vn -0 0.999999 -0.00171
vn -0 0.999999 -0.00171
vn -0 0.999999 -0.00171
vn 0 0.999999 -0.00171
vn 0 -0 1
vn 0 -0 1
usemtl datan_common_king-legs_f234596d
f 1/1/1 2/2/2 3/3/3
f 3/3/3 4/4/4 1/1/1
f 4/4/4 3/3/3 5/5/5
f 5/5/5 6/6/6 4/4/4
f 2/2/2 7/7/7 8/8/8
f 8/8/8 3/3/3 2/2/2
f 3/3/3 8/8/8 5/5/5
f 9/9/9 10/10/10 11/11/11
f 11/11/11 12/12/12 9/9/9
f 10/10/10 13/13/13 14/14/14
f 14/14/14 11/11/11 10/10/10
f 12/12/12 11/11/11 15/15/15
f 15/15/15 16/16/16 12/12/12
f 14/14/14 15/15/15 11/11/11
f 17/17/17 18/18/18 19/19/19
f 20/20/20 21/21/21 22/22/22
f 2/2/2 1/1/1 18/18/18
f 18/18/18 17/17/17 2/2/2
f 7/7/7 2/2/2 17/17/17
f 17/17/17 19/19/19 7/7/7
f 9/9/9 12/12/12 21/21/21
f 21/21/21 20/20/20 9/9/9
f 12/12/12 16/16/16 22/22/22
f 22/22/22 21/21/21 12/12/12
f 23/23/23 24/24/24 25/25/25
f 25/25/25 26/26/26 23/23/23
f 26/26/26 25/25/25 27/27/27
f 27/27/27 28/28/28 26/26/26
f 29/29/29 30/30/30 31/31/31
f 31/31/31 32/32/32 29/29/29
f 30/30/30 33/33/33 34/34/34
f 34/34/34 31/31/31 30/30/30
f 35/35/35 36/36/36 37/37/37
f 38/38/38 39/39/39 40/40/40
f 24/24/24 23/23/23 36/36/36
f 36/36/36 35/35/35 24/24/24
f 41/41/41 24/24/24 35/35/35
f 35/35/35 37/37/37 41/41/41
f 29/29/29 32/32/32 39/39/39
f 39/39/39 38/38/38 29/29/29
f 32/32/32 42/42/42 40/40/40
f 40/40/40 39/39/39 32/32/32
f 43/43/43 26/26/26 28/28/28
f 44/44/44 23/23/23 26/26/26
f 44/44/44 26/26/26 43/43/43
f 36/36/36 23/23/23 44/44/44
f 45/45/45 46/46/46 47/47/47
f 48/48/48 49/49/49 50/50/50
f 51/51/51 52/52/52 46/46/46
f 46/46/46 45/45/45 51/51/51
f 53/53/53 51/51/51 45/45/45
f 45/45/45 47/47/47 53/53/53
f 54/54/54 55/55/55 49/49/49
f 49/49/49 48/48/48 54/54/54
f 55/55/55 56/56/56 50/50/50
f 50/50/50 49/49/49 55/55/55
f 46/46/46 52/52/52 57/57/57
f 58/58/58 59/59/59 60/60/60
f 60/60/60 61/61/61 58/58/58
f 59/59/59 62/62/62 63/63/63
f 63/63/63 60/60/60 59/59/59
f 64/64/64 65/65/65 66/66/66
f 66/66/66 67/67/67 64/64/64
f 67/67/67 66/66/66 68/68/68
f 68/68/68 69/69/69 67/67/67
f 70/70/70 71/71/71 72/72/72
f 72/72/72 73/73/73 70/70/70
f 71/71/71 74/74/74 75/75/75
f 75/75/75 72/72/72 71/71/71
f 76/76/76 77/77/77 78/78/78
f 78/78/78 79/79/79 76/76/76
f 77/77/77 80/80/80 81/81/81
f 81/81/81 78/78/78 77/77/77
f 82/82/82 83/83/83 84/84/84
f 84/84/84 85/85/85 82/82/82
f 86/86/86 87/87/87 88/88/88
f 88/88/88 89/89/89 86/86/86
f 85/85/85 84/84/84 90/90/90
f 90/90/90 91/91/91 85/85/85
f 92/92/92 93/93/93 94/94/94
f 94/94/94 95/95/95 92/92/92
f 83/83/83 82/82/82 96/96/96
f 96/96/96 97/97/97 83/83/83
