# Generated from Nova1492 GX by tools/nova1492/GxObjConverter
mtllib datan_common_mob22-body_892d9d87.mtl
o datan_common_mob22-body_892d9d87_mesh00
v 0.114782 0.777477 -0.554749
v -0.16638 0.777477 -0.554749
v -0.232952 0.35694 1.085855
v 0.110393 0.35694 1.085855
v 0.086922 0.679418 -1.677016
v -0.125795 0.679418 -1.677016
v 0.018284 0.232057 1.308445
v -0.150664 0.232057 1.308445
v -0.200841 0.004014 1.308445
v 0.068461 0.004014 1.308445
v 0.212364 -0.106841 0.9362
v 0.216753 0.419109 -0.554749
v 0.188893 0.419109 -1.428283
v 0.188893 0.419109 -1.428283
v -0.227766 0.419109 -1.428283
v -0.227766 0.419109 -1.428283
v -0.268351 0.419109 -0.554749
v -0.334923 -0.106841 0.9362
v -0.188259 0.282802 0.770183
v 0.05588 0.282802 0.770183
v 0.110393 0.35694 1.085855
v -0.232952 0.35694 1.085855
v 0.128387 -0.046731 0.770183
v 0.212364 -0.106841 0.9362
v -0.260767 -0.046731 0.770183
v -0.334923 -0.106841 0.9362
v 0.216753 0.419109 -0.554749
v 0.212364 -0.106841 0.9362
v 0.128387 -0.046731 0.770183
v -0.268351 0.419109 -0.554749
v -0.260767 -0.046731 0.770183
v -0.334923 -0.106841 0.9362
v 0.128387 -0.046731 0.770183
v 0.05588 0.282802 0.770183
v 0.068461 0.004014 1.308445
v -0.188259 0.282802 0.770183
v -0.260767 -0.046731 0.770183
v -0.200841 0.004014 1.308445
v 0.173546 0.70306 -1.215241
v 0.505117 0.70306 -1.215241
v 0.505117 0.70306 -1.814941
v 0.173546 0.70306 -1.814941
v 0.038175 0.303252 -1.215241
v 0.640487 0.303252 -1.215241
v 0.640487 0.303252 -1.215241
v 0.640487 0.303252 -1.428316
v 0.640487 0.303252 -1.428316
v 0.038175 0.303252 -1.428316
v 0.038175 0.303252 -1.428316
v 0.038175 0.303252 -1.215241
v 0.542586 0.335213 -0.065502
v 0.133504 0.372249 -0.001448
v 0.1698 0.051845 0.551853
v 0.542586 0.071897 0.411017
v 0.161681 0.585716 -1.231888
v 0.158168 0.562731 -0.751281
v 0.516978 0.525695 -0.751281
v 0.48166 0.54868 -1.231888
v 0.707327 0.041024 0.208437
v 0.707327 0.23319 -0.172799
v 0.681719 0.390666 -0.770399
v 0.650942 0.374676 -1.217139
v 0.154008 0.004626 0.668099
v 0.395988 0.004626 -0.930224
v 0.395988 0.532564 -1.099003
v 0.263917 0.319797 -0.183596
v -0.206456 0.004626 -0.930224
v -0.206456 0.532564 -1.099003
v -0.206456 0.004626 0.668099
v -0.206456 0.319797 -0.183596
v -0.148125 -0.179092 1.699816
v -0.148125 -0.361449 1.699816
v 0.034232 -0.361449 1.699816
v 0.034232 -0.179092 1.699816
v -0.148125 -0.179092 1.699816
v 0.034232 -0.179092 1.699816
v 0.034232 -0.177892 1.321387
v -0.148125 -0.177892 1.321387
v -0.148125 -0.177892 1.321387
v 0.034232 -0.177892 1.321387
v 0.034232 0.004465 1.290418
v -0.148125 0.004465 1.290418
v 0.034232 -0.361449 1.699816
v 0.034232 -0.354606 1.17327
v 0.034232 0.004465 1.108061
v 0.034232 0.004465 1.290418
v 0.034232 -0.354606 1.17327
v -0.148125 -0.354606 1.17327
v -0.148125 0.004465 1.108061
v 0.034232 0.004465 1.108061
v -0.148125 -0.361449 1.699816
v -0.148125 -0.179092 1.699816
v -0.148125 -0.177892 1.321387
v -0.148125 -0.354606 1.17327
v -0.148125 0.004465 1.290418
v -0.148125 0.004465 1.108061
vt 0.866842 0.67645
vt 0.801867 0.676585
vt 0.794193 0.300673
vt 0.872971 0.30089
vt 0.857295 0.932957
vt 0.808622 0.932847
vt 0.366723 0.559927
vt 0.405277 0.559881
vt 0.416839 0.612114
vt 0.355197 0.612114
vt 0.991439 0.315862
vt 0.950542 0.672155
vt 0.929319 0.871461
vt 0.88062 0.992333
vt 0.785249 0.992333
vt 0.74294 0.872103
vt 0.718984 0.672707
vt 0.680654 0.316744
vt 0.803891 0.219427
vt 0.859976 0.219421
vt 0.872372 0.291579
vt 0.793738 0.291676
vt 0.931494 0.1927
vt 0.961949 0.224663
vt 0.734711 0.192644
vt 0.708622 0.222591
vt 0.535402 0.556346
vt 0.536407 0.215075
vt 0.555629 0.253076
vt 0.64644 0.556346
vt 0.644704 0.253076
vt 0.661678 0.215075
vt 0.283355 0.449408
vt 0.357794 0.436422
vt 0.315585 0.568889
vt 0.413794 0.436516
vt 0.488243 0.448715
vt 0.456739 0.56839
vt 0.417494 0.898468
vt 0.34156 0.898501
vt 0.341356 0.761344
vt 0.417289 0.761311
vt 0.448624 0.989927
vt 0.310758 0.989927
vt 0.249772 0.8985
vt 0.249772 0.849728
vt 0.310349 0.634063
vt 0.448215 0.634063
vt 0.508848 0.849596
vt 0.508848 0.898367
vt 0.585818 0.836223
vt 0.680556 0.845138
vt 0.671613 0.99145
vt 0.585579 0.960833
vt 0.660295 0.575986
vt 0.668393 0.674296
vt 0.586093 0.678179
vt 0.586839 0.579862
vt 0.538521 0.923836
vt 0.538138 0.82623
vt 0.539458 0.681977
vt 0.533746 0.590813
vt 0.006294 0.987029
vt 0.113316 0.654977
vt 0.23425 0.655123
vt 0.128856 0.831139
vt 0.113055 0.517135
vt 0.234124 0.517025
vt 0.005736 0.184087
vt 0.128476 0.340399
vt 0.277671 0.319561
vt 0.277671 0.27782
vt 0.319445 0.277777
vt 0.319466 0.319543
vt 0.319466 0.319543
vt 0.319445 0.277777
vt 0.406098 0.277872
vt 0.40614 0.319526
vt 0.399423 0.368199
vt 0.357682 0.368199
vt 0.357682 0.326459
vt 0.399423 0.326459
vt 0.319435 0.235943
vt 0.439959 0.23751
vt 0.454884 0.319699
vt 0.413144 0.319699
vt 0.498688 0.319844
vt 0.456947 0.319844
vt 0.456947 0.237655
vt 0.498688 0.237655
vt 0.319293 0.415415
vt 0.319293 0.373674
vt 0.405913 0.3734
vt 0.439816 0.413849
vt 0.413002 0.331659
vt 0.454742 0.331659
vn 0.960725 0.273367 -0.047735
vn -0.961356 0.273547 0.031109
vn -0.978179 0.205745 0.028903
vn 0.978753 0.197977 0.053366
vn 0 -0.690847 -0.723001
vn -0.947924 0.312486 -0.061584
vn -0 0.995585 0.09386
vn -0.972838 0.214055 0.088129
vn 0 -0 1
vn 0 -0 1
vn 0.957107 0.272338 0.098888
vn 0.940088 0.339611 -0.029983
vn 0.940088 0.339611 -0.029983
vn -0 -0.690847 -0.723001
vn -0 -0.690847 -0.723001
vn -0.960862 0.273407 -0.044642
vn -0.978179 0.205745 0.028903
vn -0.978179 0.205745 0.028903
vn 0.959694 -0.211163 0.185465
vn -0.933385 -0.278328 0.226554
vn -0.933385 -0.278328 0.226554
vn 0.907499 -0.295777 0.298265
vn -0.901658 -0.198393 0.384256
vn -0.933385 -0.278328 0.226554
vn 0.907499 -0.295777 0.298265
vn 0.907499 -0.295777 0.298265
vn 0 -0.943388 -0.331691
vn -0.01725 -0.942887 -0.332665
vn -0 -0.943388 -0.331691
vn 0.021836 -0.943124 -0.331723
vn 0.021836 -0.943124 -0.331723
vn 0.021836 -0.943124 -0.331723
vn 0.972838 0.214055 0.088129
vn -0 0.995585 0.09386
vn 0.972838 0.214055 0.088129
vn -0.972838 0.214055 0.088129
vn -0.972838 0.214055 0.088129
vn -0.972838 0.214055 0.088129
vn -0.947179 0.320705 0
vn 0.947179 0.320705 -0
vn 0 -0.695156 -0.718859
vn -0.947179 0.320705 0
vn 0 0 1
vn 0 -0 1
vn 0.947179 0.320705 -0
vn 0.947179 0.320705 0
vn 0 -0.695156 -0.718859
vn -0 -0.695156 -0.718859
vn -0.947179 0.320705 0
vn -0.947179 0.320705 0
vn 0.60414 0.773341 0.192245
vn 0.1275 0.956876 0.261022
vn 0.134409 0.867318 0.479264
vn 0.604463 0.697261 0.385294
vn 0.114888 0.992612 0.039028
vn 0.099463 0.963624 0.248064
vn 0.636378 0.752198 0.170946
vn 0.717924 0.692152 -0.074232
vn 0.645954 0.681675 0.343604
vn 0.636378 0.752198 0.170946
vn 0.636378 0.752198 0.170946
vn 0.717924 0.692152 -0.074232
vn 0.980042 0.108447 0.166603
vn 0 -0.304513 -0.952508
vn 0 -0.304513 -0.952508
vn 0.980042 0.108447 0.166603
vn -1 0 0
vn -1 0 0
vn -1 0 0
vn -1 0 0
vn -0.025809 0.002944 0.999663
vn -0.025809 0.002944 0.999663
vn -0.025809 0.002944 0.999663
vn -0.025809 0.002944 0.999663
vn -0.036178 0.639415 0.768011
vn 0.616072 0.004244 0.787679
vn 0.616072 0.004244 0.787679
vn -0.036178 0.639415 0.768011
vn -0.025894 0.079084 0.996532
vn -0.025894 0.079084 0.996532
vn -0.025894 0.079084 0.996532
vn -0.025894 0.079084 0.996532
vn 0.616072 0.004244 0.787679
vn 0.616072 0.004244 0.787679
vn 0.616072 0.004244 0.787679
vn 0.616072 0.004244 0.787679
vn -0.198744 -0.600924 0.774204
vn -0.198744 -0.600924 0.774204
vn -0.198744 -0.600924 0.774204
vn -0.198744 -0.600924 0.774204
vn -0.659178 0.004051 0.751976
vn -0.659178 0.004051 0.751976
vn -0.659178 0.004051 0.751976
vn -0.659178 0.004051 0.751976
vn -0.659178 0.004051 0.751976
vn -0.659178 0.004051 0.751976
usemtl datan_common_mob22-body_892d9d87
f 1/1/1 2/2/2 3/3/3
f 3/3/3 4/4/4 1/1/1
f 5/5/5 6/6/6 2/2/2
f 2/2/2 1/1/1 5/5/5
f 7/7/7 8/8/8 9/9/9
f 9/9/9 10/10/10 7/7/7
f 1/1/1 4/4/4 11/11/11
f 11/11/11 12/12/12 1/1/1
f 5/5/5 1/1/1 12/12/12
f 12/12/12 13/13/13 5/5/5
f 6/6/6 5/5/5 14/14/14
f 14/14/14 15/15/15 6/6/6
f 2/2/2 6/6/6 16/16/16
f 16/16/16 17/17/17 2/2/2
f 3/3/3 2/2/2 17/17/17
f 17/17/17 18/18/18 3/3/3
f 19/19/19 20/20/20 21/21/21
f 21/21/21 22/22/22 19/19/19
f 20/20/20 23/23/23 24/24/24
f 24/24/24 21/21/21 20/20/20
f 25/25/25 19/19/19 22/22/22
f 22/22/22 26/26/26 25/25/25
f 27/27/27 28/28/28 29/29/29
f 30/30/30 27/27/27 29/29/29
f 30/30/30 29/29/29 31/31/31
f 30/30/30 31/31/31 32/32/32
f 33/33/33 34/34/34 7/7/7
f 7/7/7 35/35/35 33/33/33
f 34/34/34 36/36/36 8/8/8
f 8/8/8 7/7/7 34/34/34
f 36/36/36 37/37/37 38/38/38
f 38/38/38 8/8/8 36/36/36
f 39/39/39 40/40/40 41/41/41
f 41/41/41 42/42/42 39/39/39
f 43/43/43 44/44/44 40/40/40
f 40/40/40 39/39/39 43/43/43
f 45/45/45 46/46/46 41/41/41
f 41/41/41 40/40/40 45/45/45
f 47/47/47 48/48/48 42/42/42
f 42/42/42 41/41/41 47/47/47
f 49/49/49 50/50/50 39/39/39
f 39/39/39 42/42/42 49/49/49
f 51/51/51 52/52/52 53/53/53
f 53/53/53 54/54/54 51/51/51
f 55/55/55 56/56/56 57/57/57
f 57/57/57 58/58/58 55/55/55
f 57/57/57 56/56/56 52/52/52
f 52/52/52 51/51/51 57/57/57
f 51/51/51 54/54/54 59/59/59
f 59/59/59 60/60/60 51/51/51
f 58/58/58 57/57/57 61/61/61
f 61/61/61 62/62/62 58/58/58
f 57/57/57 51/51/51 60/60/60
f 60/60/60 61/61/61 57/57/57
f 63/63/63 64/64/64 65/65/65
f 65/65/65 66/66/66 63/63/63
f 64/64/64 67/67/67 68/68/68
f 68/68/68 65/65/65 64/64/64
f 67/67/67 69/69/69 70/70/70
f 70/70/70 68/68/68 67/67/67
f 71/71/71 72/72/72 73/73/73
f 73/73/73 74/74/74 71/71/71
f 75/75/75 76/76/76 77/77/77
f 77/77/77 78/78/78 75/75/75
f 79/79/79 80/80/80 81/81/81
f 81/81/81 82/82/82 79/79/79
f 76/76/76 83/83/83 84/84/84
f 84/84/84 77/77/77 76/76/76
f 77/77/77 84/84/84 85/85/85
f 85/85/85 86/86/86 77/77/77
f 87/87/87 88/88/88 89/89/89
f 89/89/89 90/90/90 87/87/87
f 91/91/91 92/92/92 93/93/93
f 93/93/93 94/94/94 91/91/91
f 94/94/94 93/93/93 95/95/95
f 95/95/95 96/96/96 94/94/94
o datan_common_mob22-body_892d9d87_mesh01
v 0.707519 -0.034346 -0.545871
v 0.581085 0.365009 -0.545871
v 0.581085 0.248041 -0.263484
v 0.581085 -0.034346 -0.146516
v 0.581085 -0.316733 -0.263484
v 0.581085 -0.433702 -0.545871
v 0.581085 -0.316733 -0.828258
v 0.581085 -0.034346 -0.945227
v 0.581085 0.248041 -0.828258
v 0.389685 0.302997 -0.208528
v 0.389685 0.442729 -0.545871
v 0.389685 -0.034346 -0.068795
v 0.389685 -0.511422 -0.545871
v 0.389685 -0.37169 -0.208528
v 0.389685 -0.37169 -0.883214
v 0.389685 -0.034346 -1.022947
v 0.389685 0.302997 -0.883214
v 0.389685 -0.034346 -0.545871
v 0.389685 -0.37169 -0.208528
v 0.389685 -0.034346 -0.068795
v 0.389685 -0.511422 -0.545871
v 0.389685 -0.37169 -0.883214
v 0.389685 -0.034346 -1.022947
v 0.389685 0.302997 -0.883214
v 0.581085 -0.316733 -0.263484
v 0.565042 -0.321446 0.069185
v 0.395552 -0.354766 0.069185
v 0.389685 -0.37169 -0.208528
v 0.581085 -0.034346 -0.146516
v 0.389685 -0.034346 -0.068795
v 0.395552 -0.071645 0.101756
v 0.565042 -0.075079 0.101756
v 0.395552 -0.071645 0.101756
v 0.395552 -0.354766 0.069185
v 0.395552 -0.071645 0.101756
v 0.389685 -0.034346 -0.068795
v 0.389685 -0.37169 -0.208528
v 0.395552 -0.354766 0.069185
v 0.548171 -0.193553 0.070642
v 0.509564 -0.126683 0.407776
v 0.548171 -0.193553 0.407776
v 0.509564 -0.126683 0.070642
v 0.43235 -0.126683 0.407776
v 0.43235 -0.126683 0.070642
v 0.393743 -0.193553 0.407776
v 0.393743 -0.193553 0.070642
v 0.43235 -0.260422 0.407776
v 0.43235 -0.260422 0.070642
v 0.509564 -0.260422 0.070642
v 0.509564 -0.260422 0.407776
v 0.470957 -0.193552 0.403242
v 0.529564 -0.092042 0.403242
v 0.588171 -0.193552 0.403242
v 0.41235 -0.092042 0.403242
v 0.353743 -0.193552 0.403242
v 0.41235 -0.295063 0.403242
v 0.529564 -0.295063 0.403242
v 0.588171 -0.193552 0.403242
v 0.529564 -0.092042 0.890375
v 0.588171 -0.193552 0.890375
v 0.41235 -0.092042 0.890375
v 0.353743 -0.193552 0.890375
v 0.353743 -0.193552 0.403242
v 0.41235 -0.295063 0.890375
v 0.41235 -0.295063 0.403242
v 0.529564 -0.295063 0.403242
v 0.529564 -0.295063 0.890375
v 0.470957 -0.193552 0.890375
v 0.588171 -0.193552 0.890375
v 0.353743 -0.193552 0.890375
v 0.41235 -0.295063 0.890375
v 0.529564 -0.295063 0.890375
vt 0.158688 0.13752
vt 0.158688 0.227069
vt 0.095368 0.200841
vt 0.069139 0.13752
vt 0.095368 0.074199
vt 0.158688 0.047971
vt 0.222009 0.074199
vt 0.248238 0.13752
vt 0.222009 0.200841
vt 0.070255 0.225953
vt 0.158688 0.262584
vt 0.033625 0.13752
vt 0.158688 0.012456
vt 0.070255 0.049086
vt 0.247122 0.049086
vt 0.283752 0.13752
vt 0.247122 0.225953
vt 0.400185 0.137728
vt 0.477375 0.060486
vt 0.509385 0.137691
vt 0.400148 0.028528
vt 0.322943 0.060538
vt 0.290985 0.137764
vt 0.322995 0.21497
vt 0.645995 0.047943
vt 0.569754 0.046824
vt 0.568532 0.007971
vt 0.63202 0.004526
vt 0.619348 0.112636
vt 0.592406 0.151383
vt 0.553849 0.140799
vt 0.562587 0.103174
vt 0.523817 0.099097
vt 0.531898 0.034366
vt 0.552786 0.160371
vt 0.59175 0.151502
vt 0.62439 0.228443
vt 0.560792 0.22511
vt 0.083007 0.650796
vt 0.065289 0.573631
vt 0.083007 0.573628
vt 0.065289 0.650799
vt 0.047624 0.573625
vt 0.047624 0.650793
vt 0.030018 0.573625
vt 0.030018 0.650793
vt 0.012361 0.573647
vt 0.012361 0.650815
vt 0.100681 0.650808
vt 0.100681 0.57364
vt 0.920316 0.088654
vt 0.897092 0.075233
vt 0.920316 0.061825
vt 0.897093 0.10206
vt 0.920316 0.115484
vt 0.943551 0.102069
vt 0.943551 0.07524
vt 0.897085 0.048381
vt 0.785615 0.075238
vt 0.785582 0.048381
vt 0.785616 0.102065
vt 0.785587 0.128871
vt 0.89709 0.128871
vt 0.785574 0.155699
vt 0.897076 0.155699
vt 0.897068 0.021538
vt 0.785566 0.021538
vt 0.762393 0.088665
vt 0.762393 0.061836
vt 0.762393 0.115495
vt 0.739158 0.10208
vt 0.739158 0.07525
vn 0.898618 0.161361 -0.407981
vn 0.583258 0.549388 -0.598317
vn 0.888928 0.326543 0.321213
vn 0.888928 0.326543 0.321213
vn 0.692459 -0.706185 -0.147656
vn 0.568665 -0.579937 -0.583347
vn 0.515743 -0.229629 -0.825397
vn 0.52014 0.191071 -0.832434
vn 0.583258 0.549388 -0.598317
vn 0.888928 0.326543 0.321213
vn 0.583258 0.549388 -0.598317
vn 0.888928 0.326543 0.321213
vn 0.568665 -0.579937 -0.583347
vn 0.692459 -0.706185 -0.147656
vn 0.515743 -0.229629 -0.825397
vn 0.52014 0.191071 -0.832434
vn 0.583258 0.549388 -0.598317
vn -0.650909 -0.047631 -0.75766
vn -0.650909 -0.047631 -0.75766
vn -0.650909 -0.047631 -0.75766
vn -0.650909 -0.047631 -0.75766
vn -0.650909 -0.047631 -0.75766
vn -0.650909 -0.047631 -0.75766
vn -0.650909 -0.047631 -0.75766
vn 0.95023 -0.033664 -0.309726
vn 0.95023 -0.033664 -0.309726
vn 0.595374 -0.718873 -0.35882
vn 0.595374 -0.718873 -0.35882
vn 0.95023 -0.033664 -0.309726
vn 0.525205 0.801209 -0.286747
vn 0.472766 0.81745 -0.32904
vn 0.953153 -0.02662 -0.301316
vn 0.746326 -0.20997 0.631594
vn 0.760913 -0.226156 0.608166
vn -0.665364 -0.052183 -0.744693
vn -0.671724 -0.067928 -0.737681
vn -0.665364 -0.052183 -0.744693
vn -0.665364 -0.052183 -0.744693
vn 0.877261 -0.335631 -0.343169
vn 0.431457 0.785175 -0.444236
vn 0.877261 -0.335631 -0.343169
vn 0.431457 0.785175 -0.444236
vn -0.423292 0.587687 -0.689528
vn -0.423292 0.587687 -0.689528
vn -0.401876 -0.640264 -0.654643
vn -0.401875 -0.640265 -0.654643
vn -0.401875 -0.640265 -0.654643
vn -0.401875 -0.640265 -0.654643
vn 0.877261 -0.335631 -0.343169
vn 0.877261 -0.335631 -0.343169
vn 0.324502 -0.021004 -0.945652
vn 0.431457 0.785175 -0.444236
vn 0.324502 -0.021004 -0.945652
vn -0.423291 0.587687 -0.689528
vn 0.324502 -0.021004 -0.945652
vn 0.324502 -0.021004 -0.945652
vn 0.324502 -0.021004 -0.945652
vn 0.877261 -0.335631 -0.343169
vn 0.759168 -0.049139 0.649037
vn 0.877261 -0.335631 -0.343169
vn 0.759168 -0.049139 0.649037
vn -0.401876 -0.640264 -0.654643
vn -0.401876 -0.640264 -0.654643
vn -0.401876 -0.640264 -0.654643
vn -0.401876 -0.640264 -0.654643
vn 0.877261 -0.335631 -0.343169
vn 0.877261 -0.335631 -0.343169
vn 0.759168 -0.049139 0.649037
vn 0.759168 -0.049139 0.649037
vn 0.759168 -0.049139 0.649037
vn 0.759168 -0.049139 0.649037
vn 0.759168 -0.049139 0.649037
usemtl datan_common_mob22-body_892d9d87
f 97/97/97 98/98/98 99/99/99
f 97/97/97 99/99/99 100/100/100
f 97/97/97 100/100/100 101/101/101
f 97/97/97 101/101/101 102/102/102
f 97/97/97 102/102/102 103/103/103
f 97/97/97 103/103/103 104/104/104
f 97/97/97 104/104/104 105/105/105
f 97/97/97 105/105/105 98/98/98
f 106/106/106 99/99/99 98/98/98
f 98/98/98 107/107/107 106/106/106
f 108/108/108 100/100/100 99/99/99
f 99/99/99 106/106/106 108/108/108
f 109/109/109 102/102/102 101/101/101
f 101/101/101 110/110/110 109/109/109
f 111/111/111 103/103/103 102/102/102
f 102/102/102 109/109/109 111/111/111
f 112/112/112 104/104/104 103/103/103
f 103/103/103 111/111/111 112/112/112
f 113/113/113 105/105/105 104/104/104
f 104/104/104 112/112/112 113/113/113
f 107/107/107 98/98/98 105/105/105
f 105/105/105 113/113/113 107/107/107
f 114/114/114 115/115/115 116/116/116
f 114/114/114 117/117/117 115/115/115
f 114/114/114 118/118/118 117/117/117
f 114/114/114 119/119/119 118/118/118
f 114/114/114 120/120/120 119/119/119
f 121/121/121 122/122/122 123/123/123
f 123/123/123 124/124/124 121/121/121
f 125/125/125 126/126/126 127/127/127
f 127/127/127 128/128/128 125/125/125
f 128/128/128 129/129/129 130/130/130
f 130/130/130 122/122/122 128/128/128
f 125/125/125 128/128/128 122/122/122
f 122/122/122 121/121/121 125/125/125
f 131/131/131 132/132/132 133/133/133
f 133/133/133 134/134/134 131/131/131
f 135/135/135 136/136/136 137/137/137
f 135/135/135 138/138/138 136/136/136
f 138/138/138 139/139/139 136/136/136
f 138/138/138 140/140/140 139/139/139
f 140/140/140 141/141/141 139/139/139
f 140/140/140 142/142/142 141/141/141
f 142/142/142 143/143/143 141/141/141
f 142/142/142 144/144/144 143/143/143
f 145/145/145 137/137/137 146/146/146
f 145/145/145 135/135/135 137/137/137
f 147/147/147 148/148/148 149/149/149
f 147/147/147 150/150/150 148/148/148
f 147/147/147 151/151/151 150/150/150
f 147/147/147 152/152/152 151/151/151
f 147/147/147 153/153/153 152/152/152
f 147/147/147 149/149/149 153/153/153
f 154/154/154 155/155/155 156/156/156
f 154/154/154 148/148/148 155/155/155
f 148/148/148 157/157/157 155/155/155
f 148/148/148 150/150/150 157/157/157
f 150/150/150 158/158/158 157/157/157
f 150/150/150 159/159/159 158/158/158
f 159/159/159 160/160/160 158/158/158
f 159/159/159 161/161/161 160/160/160
f 162/162/162 156/156/156 163/163/163
f 162/162/162 154/154/154 156/156/156
f 164/164/164 165/165/165 155/155/155
f 164/164/164 155/155/155 157/157/157
f 164/164/164 157/157/157 166/166/166
f 164/164/164 166/166/166 167/167/167
f 164/164/164 167/167/167 168/168/168
f 164/164/164 168/168/168 165/165/165
o datan_common_mob22-body_892d9d87_mesh02
v -1 1 0
v -1 -1 -0
v 1 1 0
v 1 -1 -0
vt 0.00582 0.99418
vt 0.00582 0.50582
vt 0.49418 0.99418
vt 0.49418 0.50582
vn 0 -0 1
vn 0 -0 1
vn 0 -0 1
vn 0 -0 1
usemtl datan_common_mob22-body_892d9d87
f 169/169/169 170/170/170 171/171/171
f 172/172/172 171/171/171 170/170/170
o datan_common_mob22-body_892d9d87_mesh03
v -1 1 0
v -1 -1 -0
v 1 1 0
v 1 -1 -0
vt 0.50582 0.99418
vt 0.50582 0.50582
vt 0.99418 0.99418
vt 0.99418 0.50582
vn 0 -0 1
vn 0 -0 1
vn 0 -0 1
vn 0 -0 1
usemtl datan_common_mob22-body_892d9d87
f 173/173/173 174/174/174 175/175/175
f 176/176/176 175/175/175 174/174/174
o datan_common_mob22-body_892d9d87_mesh04
v -1 1 0
v -1 -1 -0
v 1 1 0
v 1 -1 -0
vt 0.00582 0.99418
vt 0.00582 0.50582
vt 0.49418 0.99418
vt 0.49418 0.50582
vn 0 -0 1
vn 0 -0 1
vn 0 -0 1
vn 0 -0 1
usemtl datan_common_mob22-body_892d9d87
f 177/177/177 178/178/178 179/179/179
f 180/180/180 179/179/179 178/178/178
o datan_common_mob22-body_892d9d87_mesh05
v -1 1 0
v -1 -1 -0
v 1 1 0
v 1 -1 -0
vt 0.00582 0.99418
vt 0.00582 0.50582
vt 0.49418 0.99418
vt 0.49418 0.50582
vn 0 -0 1
vn 0 -0 1
vn 0 -0 1
vn 0 -0 1
usemtl datan_common_mob22-body_892d9d87
f 181/181/181 182/182/182 183/183/183
f 184/184/184 183/183/183 182/182/182
o datan_common_mob22-body_892d9d87_mesh06
v -1 1 0
v -1 -1 -0
v 1 1 0
v 1 -1 -0
vt 0.00582 0.99418
vt 0.00582 0.50582
vt 0.49418 0.99418
vt 0.49418 0.50582
vn 0 -0 1
vn 0 -0 1
vn 0 -0 1
vn 0 -0 1
usemtl datan_common_mob22-body_892d9d87
f 185/185/185 186/186/186 187/187/187
f 188/188/188 187/187/187 186/186/186
o datan_common_mob22-body_892d9d87_mesh07
v -1 1 0
v -1 -1 -0
v 1 1 0
v 1 -1 -0
vt 0.50582 0.99418
vt 0.50582 0.50582
vt 0.99418 0.99418
vt 0.99418 0.50582
vn 0 -0 1
vn 0 -0 1
vn 0 -0 1
vn 0 -0 1
usemtl datan_common_mob22-body_892d9d87
f 189/189/189 190/190/190 191/191/191
f 192/192/192 191/191/191 190/190/190
o datan_common_mob22-body_892d9d87_mesh08
v -1 1 0
v -1 -1 -0
v 1 1 0
v 1 -1 -0
vt 0.50582 0.99418
vt 0.50582 0.50582
vt 0.99418 0.99418
vt 0.99418 0.50582
vn 0 -0 1
vn 0 -0 1
vn 0 -0 1
vn 0 -0 1
usemtl datan_common_mob22-body_892d9d87
f 193/193/193 194/194/194 195/195/195
f 196/196/196 195/195/195 194/194/194
o datan_common_mob22-body_892d9d87_mesh09
v -1 1 0
v -1 -1 -0
v 1 1 0
v 1 -1 -0
vt 0.00582 0.99418
vt 0.00582 0.50582
vt 0.49418 0.99418
vt 0.49418 0.50582
vn 0 -0 1
vn 0 -0 1
vn 0 -0 1
vn 0 -0 1
usemtl datan_common_mob22-body_892d9d87
f 197/197/197 198/198/198 199/199/199
f 200/200/200 199/199/199 198/198/198
