# Generated from Nova1492 GX by tools/nova1492/GxObjConverter
mtllib datan_common_moblegs35x_52abfb8d.mtl
o datan_common_moblegs35x_52abfb8d_mesh00
v 1.07778 -0.020977 0.367775
v 1.147856 -0.023661 0.330997
v 1.07778 -0.020977 -0.367775
v 1.147856 -0.023661 -0.330997
v 0.831013 -0.011526 0.257185
v 0.831013 -0.011526 -0.257185
v 0.000007 0.023138 0.492524
v 0.000007 0.023138 -0.492524
v 1.07778 -0.299621 0.367775
v 1.147856 -0.296937 0.330997
v 1.114502 -0.160299 0.510477
v 1.244648 -0.160299 0.425398
v 0.831013 -0.309072 0.257185
v 0.829033 -0.160299 0.356977
v 0.000007 -0.343736 0.492524
v -0.000103 -0.160299 0.632991
v 1.07778 -0.020977 0.367775
v 1.147856 -0.023661 0.330997
v 0.831013 -0.011526 0.257185
v 0.831013 -0.309072 -0.257185
v 0.000007 -0.343736 -0.492524
v 0.829033 -0.160299 -0.356977
v -0.000103 -0.160299 -0.632991
v 1.07778 -0.299621 -0.367775
v 1.114502 -0.160299 -0.510477
v 0.831013 -0.011526 -0.257185
v 1.07778 -0.020977 -0.367775
v 1.147856 -0.296937 0.330997
v 1.147856 -0.296937 -0.330997
v 1.244648 -0.160299 -0.425398
v -1.07778 -0.020977 -0.367775
v -1.147856 -0.023661 0.330997
v -1.07778 -0.020977 0.367775
v -1.147856 -0.023661 -0.330997
v -0.831013 -0.011526 -0.257185
v -0.831013 -0.011526 0.257185
v -0.000007 0.024606 -0.492524
v -0.000007 0.024606 0.492524
v -1.114502 -0.160299 0.510477
v -1.147856 -0.296937 0.330997
v -1.07778 -0.299621 0.367775
v -1.244648 -0.160299 0.425398
v -0.829033 -0.160299 0.356977
v -0.831013 -0.309072 0.257185
v 0.000103 -0.160299 0.632992
v -0.000007 -0.345204 0.492524
v -1.07778 -0.020977 0.367775
v -1.147856 -0.023661 0.330997
v -0.831013 -0.011526 0.257185
v -0.829033 -0.160299 -0.356977
v -0.000007 -0.345204 -0.492524
v -0.831013 -0.309072 -0.257185
v 0.000103 -0.160299 -0.632992
v -1.114502 -0.160299 -0.510477
v -1.07778 -0.299621 -0.367775
v -0.831013 -0.011526 -0.257185
v -1.07778 -0.020977 -0.367775
v -1.147856 -0.296937 -0.330997
v -1.147856 -0.296937 0.330997
v -1.244648 -0.160299 -0.425398
v -1.0458 -0.123746 -1.067161
v -1.072815 -0.104118 -1.067161
v -1.167569 0.083353 -0.356821
v -0.962258 -0.065813 -0.356821
v -1.099829 -0.123746 -1.067161
v -1.37288 -0.065813 -0.356821
v -1.099829 -0.123746 -1.067161
v -1.089511 -0.155503 -1.067161
v -1.294458 -0.307171 -0.356821
v -1.056119 -0.155503 -1.067161
v -1.0458 -0.123746 -1.067161
v -0.962258 -0.065813 -0.356821
v -1.04068 -0.307171 -0.356821
v -1.167569 -0.017695 -0.003974
v -1.058361 -0.097039 -0.003974
v -1.276777 -0.097039 -0.003974
v -1.235063 -0.225421 -0.003974
v -1.099829 -0.123746 -1.067161
v -1.056119 -0.155503 -1.067161
v -1.089511 -0.155503 -1.067161
v -1.072815 -0.104118 -1.067161
v -1.0458 -0.123746 -1.067161
v -1.276777 -0.097039 -0.003974
v -1.235063 -0.225421 -0.003974
v -1.100075 -0.225421 -0.003974
v 1.111037 -0.123745 -1.038771
v 1.084022 -0.104118 -1.038771
v 1.167749 0.083353 -0.328431
v 1.37306 -0.065813 -0.328431
v 1.057008 -0.123745 -1.038771
v 0.962438 -0.065813 -0.328431
v 1.057008 -0.123745 -1.038771
v 1.067326 -0.155503 -1.038771
v 1.04086 -0.307171 -0.328431
v 1.100718 -0.155503 -1.038771
v 1.111037 -0.123745 -1.038771
v 1.37306 -0.065813 -0.328431
v 1.294638 -0.307171 -0.328431
v 1.167749 -0.017695 0.024416
v 1.276957 -0.097039 0.024416
v 1.058541 -0.097039 0.024416
v 1.235243 -0.225421 0.024416
v 1.057008 -0.123745 -1.038771
v 1.100718 -0.155503 -1.038771
v 1.067326 -0.155503 -1.038771
v 1.084022 -0.104118 -1.038771
v 1.111037 -0.123745 -1.038771
v 1.058541 -0.097039 0.024416
v 1.100255 -0.225421 0.024416
v 1.235243 -0.225421 0.024416
vt 0.429021 0.77349
vt 0.440071 0.745374
vt 0.429021 0.226511
vt 0.440071 0.254625
vt 0.320873 0.688949
vt 0.320873 0.31105
vt 0.023557 0.868854
vt 0.023557 0.131146
vt 0.429021 0.788802
vt 0.440071 0.760687
vt 0.427523 0.882579
vt 0.476485 0.817539
vt 0.320873 0.704261
vt 0.320129 0.765235
vt 0.023557 0.868854
vt 0.023516 0.976235
vt 0.413708 0.788802
vt 0.440071 0.760687
vt 0.320873 0.704261
vt 0.320873 0.295738
vt 0.023557 0.131146
vt 0.320129 0.219452
vt 0.023516 0.023765
vt 0.413708 0.211198
vt 0.427523 0.117422
vt 0.320873 0.295738
vt 0.413708 0.211198
vt 0.455384 0.745374
vt 0.455384 0.254625
vt 0.476484 0.18246
vt 0.429021 0.226511
vt 0.440071 0.745374
vt 0.429021 0.77349
vt 0.440071 0.254625
vt 0.320873 0.31105
vt 0.320873 0.688949
vt 0.023557 0.131146
vt 0.023557 0.868854
vt 0.427523 0.882579
vt 0.440071 0.760687
vt 0.429021 0.788802
vt 0.476484 0.81754
vt 0.320129 0.765235
vt 0.320873 0.704261
vt 0.023516 0.976235
vt 0.023557 0.868854
vt 0.413708 0.788802
vt 0.440071 0.760687
vt 0.320873 0.704261
vt 0.320129 0.219452
vt 0.023557 0.131146
vt 0.320873 0.295738
vt 0.023516 0.023765
vt 0.427523 0.117422
vt 0.413708 0.211198
vt 0.320873 0.295738
vt 0.413708 0.211198
vt 0.455384 0.254625
vt 0.455384 0.745374
vt 0.476484 0.18246
vt 0.976719 0.812929
vt 0.976719 0.976484
vt 0.691879 0.976484
vt 0.691879 0.812929
vt 0.976719 0.812929
vt 0.691879 0.812929
vt 0.976719 0.797617
vt 0.976719 0.523516
vt 0.691879 0.523516
vt 0.976719 0.523516
vt 0.976719 0.797617
vt 0.691879 0.797617
vt 0.691879 0.523516
vt 0.523281 0.976485
vt 0.523281 0.812929
vt 0.523281 0.812929
vt 0.523281 0.523516
vt 0.992031 0.797617
vt 0.992031 0.523516
vt 0.992031 0.523516
vt 0.992031 0.976484
vt 0.992031 0.812929
vt 0.507969 0.797617
vt 0.507969 0.523516
vt 0.507969 0.523516
vt 0.976719 0.812929
vt 0.976719 0.976484
vt 0.70861 0.976484
vt 0.70861 0.812929
vt 0.976719 0.812929
vt 0.70861 0.812929
vt 0.976719 0.797617
vt 0.976719 0.523516
vt 0.70861 0.523516
vt 0.976719 0.523516
vt 0.976719 0.797617
vt 0.70861 0.797617
vt 0.70861 0.523516
vt 0.523281 0.976485
vt 0.523281 0.812929
vt 0.523281 0.812929
vt 0.523281 0.523516
vt 0.992031 0.797617
vt 0.992031 0.523516
vt 0.992031 0.523516
vt 0.992031 0.976484
vt 0.992031 0.812929
vt 0.507969 0.797617
vt 0.507969 0.523516
vt 0.507969 0.523516
vn 0.038271 0.999267 0
vn 0.816006 0.578044 -0
vn 0.038271 0.999267 0
vn 0.816006 0.578044 -0
vn 0.041677 0.999131 0
vn 0.041677 0.999131 0
vn 0.250524 0.536989 0.805531
vn 0.24274 0.589698 -0.770281
vn -0.373916 -0.6137 0.695384
vn 0.393565 -0.694734 0.602039
vn -0.29148 0.645888 0.705597
vn 0.816006 0.578044 0
vn 0.266972 -0.534384 0.801973
vn 0.250524 0.536989 0.805531
vn 0.24274 -0.589698 0.770281
vn 0.255552 0.587689 0.767668
vn -0.29148 0.645888 0.705597
vn 0.357376 0.688874 0.630663
vn 0.250524 0.536989 0.805531
vn -0.406621 -0.51265 -0.756207
vn 0.255552 -0.587689 -0.767668
vn -0.330146 0.528848 -0.781872
vn 0.24274 0.589698 -0.770281
vn -0.29148 -0.645888 -0.705597
vn -0.373916 0.613699 -0.695385
vn -0.330146 0.528848 -0.781872
vn -0.330146 0.528848 -0.781872
vn 0.816006 -0.578044 0
vn 0.816006 -0.578044 0
vn 0.816006 0.578044 -0
vn -0.038271 0.999267 0
vn -0.816006 0.578044 0
vn -0.038271 0.999267 0
vn -0.816006 0.578044 0
vn -0.043439 0.999056 0
vn -0.043439 0.999056 0
vn -0.244201 0.586514 -0.772248
vn -0.251414 0.536853 0.805345
vn 0.29148 0.645888 0.705597
vn -0.393565 -0.694734 0.602039
vn 0.373916 -0.6137 0.695384
vn -0.816006 0.578044 0
vn -0.251414 0.536853 0.805345
vn -0.266973 -0.534384 0.801973
vn -0.256253 0.584625 0.769772
vn -0.244201 -0.586514 0.772248
vn 0.29148 0.645888 0.705597
vn -0.357376 0.688874 0.630663
vn -0.251414 0.536853 0.805345
vn 0.330146 0.528848 -0.781872
vn -0.256253 -0.584625 -0.769772
vn 0.406621 -0.51265 -0.756207
vn -0.244201 0.586514 -0.772248
vn 0.373916 0.613699 -0.695385
vn 0.29148 -0.645888 -0.705597
vn 0.330146 0.528848 -0.781872
vn 0.330146 0.528848 -0.781872
vn -0.816006 -0.578044 -0
vn -0.816006 -0.578044 0
vn -0.816006 0.578044 0
vn 0.58249 0.801735 -0.133893
vn -0.564233 0.776606 -0.280224
vn -0.572616 0.788141 0.225707
vn 0.572616 0.788141 0.225709
vn -0.564256 0.776586 -0.280233
vn -0.926514 -0.301044 0.225708
vn -0.900331 -0.292535 -0.322224
vn -0.900335 -0.292524 -0.322222
vn -0.926514 -0.301043 0.225708
vn 0.947506 -0.307864 -0.086327
vn 0.947502 -0.307878 -0.086325
vn 0.947506 -0.307864 -0.086327
vn 0.947506 -0.307864 -0.086327
vn 0 0 1
vn 0 0 1
vn -0.926514 -0.301044 0.225708
vn -0.926514 -0.301044 0.225708
vn -0 -0 -1
vn -0 0 -1
vn -0 -0 -1
vn -0 0 -1
vn -0 0 -1
vn 0 0 1
vn -0 0 1
vn 0 0 1
vn 0.565601 0.778489 -0.272123
vn -0.581762 0.800733 -0.142756
vn -0.572616 0.788141 0.225707
vn 0.572616 0.788141 0.225709
vn -0.581768 0.800729 -0.142756
vn -0.572614 0.788142 0.225708
vn -0.946203 -0.30744 -0.100898
vn -0.94621 -0.30742 -0.100893
vn -0.946203 -0.30744 -0.100898
vn 0.904324 -0.293833 -0.309614
vn 0.904322 -0.293838 -0.309613
vn 0.926515 -0.301043 0.225708
vn 0.926514 -0.301044 0.225709
vn 0 0 1
vn 0 0 1
vn -0.572616 0.788141 0.225707
vn 0.926514 -0.301044 0.225709
vn -0 -0 -1
vn -0 0 -1
vn -0 -0 -1
vn -0 0 -1
vn -0 0 -1
vn 0 0 1
vn -0 0 1
vn 0 0 1
usemtl datan_common_moblegs35x_52abfb8d
f 1/1/1 2/2/2 3/3/3
f 4/4/4 3/3/3 2/2/2
f 5/5/5 1/1/1 6/6/6
f 3/3/3 6/6/6 1/1/1
f 7/7/7 5/5/5 8/8/8
f 6/6/6 8/8/8 5/5/5
f 9/9/9 10/10/10 11/11/11
f 12/12/12 11/11/11 10/10/10
f 13/13/13 9/9/9 14/14/14
f 11/11/11 14/14/14 9/9/9
f 15/15/15 13/13/13 16/16/16
f 14/14/14 16/16/16 13/13/13
f 11/11/11 12/12/12 17/17/17
f 18/18/18 17/17/17 12/12/12
f 14/14/14 11/11/11 19/19/19
f 17/17/17 19/19/19 11/11/11
f 16/16/16 14/14/14 7/7/7
f 19/19/19 7/7/7 14/14/14
f 20/20/20 21/21/21 22/22/22
f 23/23/23 22/22/22 21/21/21
f 24/24/24 20/20/20 25/25/25
f 22/22/22 25/25/25 20/20/20
f 22/22/22 23/23/23 26/26/26
f 8/8/8 26/26/26 23/23/23
f 25/25/25 22/22/22 27/27/27
f 26/26/26 27/27/27 22/22/22
f 28/28/28 29/29/29 12/12/12
f 30/30/30 12/12/12 29/29/29
f 12/12/12 30/30/30 2/2/2
f 4/4/4 2/2/2 30/30/30
f 31/31/31 32/32/32 33/33/33
f 32/32/32 31/31/31 34/34/34
f 35/35/35 33/33/33 36/36/36
f 33/33/33 35/35/35 31/31/31
f 37/37/37 36/36/36 38/38/38
f 36/36/36 37/37/37 35/35/35
f 39/39/39 40/40/40 41/41/41
f 40/40/40 39/39/39 42/42/42
f 43/43/43 41/41/41 44/44/44
f 41/41/41 43/43/43 39/39/39
f 45/45/45 44/44/44 46/46/46
f 44/44/44 45/45/45 43/43/43
f 47/47/47 42/42/42 39/39/39
f 42/42/42 47/47/47 48/48/48
f 49/49/49 39/39/39 43/43/43
f 39/39/39 49/49/49 47/47/47
f 38/38/38 43/43/43 45/45/45
f 43/43/43 38/38/38 49/49/49
f 50/50/50 51/51/51 52/52/52
f 51/51/51 50/50/50 53/53/53
f 54/54/54 52/52/52 55/55/55
f 52/52/52 54/54/54 50/50/50
f 56/56/56 53/53/53 50/50/50
f 53/53/53 56/56/56 37/37/37
f 57/57/57 50/50/50 54/54/54
f 50/50/50 57/57/57 56/56/56
f 42/42/42 58/58/58 59/59/59
f 58/58/58 42/42/42 60/60/60
f 32/32/32 60/60/60 42/42/42
f 60/60/60 32/32/32 34/34/34
f 61/61/61 62/62/62 63/63/63
f 61/61/61 63/63/63 64/64/64
f 62/62/62 65/65/65 66/66/66
f 62/62/62 66/66/66 63/63/63
f 67/67/67 68/68/68 69/69/69
f 67/67/67 69/69/69 66/66/66
f 70/70/70 71/71/71 72/72/72
f 70/70/70 72/72/72 73/73/73
f 64/64/64 63/63/63 74/74/74
f 64/64/64 74/74/74 75/75/75
f 63/63/63 66/66/66 76/76/76
f 63/63/63 76/76/76 74/74/74
f 66/66/66 69/69/69 77/77/77
f 66/66/66 77/77/77 76/76/76
f 78/78/78 79/79/79 80/80/80
f 81/81/81 79/79/79 78/78/78
f 82/82/82 79/79/79 81/81/81
f 83/83/83 84/84/84 85/85/85
f 74/74/74 83/83/83 85/85/85
f 75/75/75 74/74/74 85/85/85
f 86/86/86 87/87/87 88/88/88
f 86/86/86 88/88/88 89/89/89
f 87/87/87 90/90/90 91/91/91
f 87/87/87 91/91/91 88/88/88
f 92/92/92 93/93/93 94/94/94
f 92/92/92 94/94/94 91/91/91
f 95/95/95 96/96/96 97/97/97
f 95/95/95 97/97/97 98/98/98
f 89/89/89 88/88/88 99/99/99
f 89/89/89 99/99/99 100/100/100
f 88/88/88 91/91/91 101/101/101
f 88/88/88 101/101/101 99/99/99
f 98/98/98 97/97/97 100/100/100
f 98/98/98 100/100/100 102/102/102
f 103/103/103 104/104/104 105/105/105
f 106/106/106 104/104/104 103/103/103
f 107/107/107 104/104/104 106/106/106
f 108/108/108 109/109/109 110/110/110
f 99/99/99 108/108/108 110/110/110
f 100/100/100 99/99/99 110/110/110
o datan_common_moblegs35x_52abfb8d_mesh01
v -0.844673 -0.014661 -0.273817
v -0.838477 0 -0.287104
v -0.380402 0 -0.177355
v -0.426377 -0.108786 -0.078762
v 0.055299 0 -0.107302
v 0.036408 -0.108786 -0.000169
v -0.850869 0 -0.260529
v -0.472352 0 0.019831
v -0.426377 0.108786 -0.078762
v -0.844673 0.014661 -0.273817
v 0.017518 0 0.106964
v 0.036408 0.108786 -0.000169
v -0.844673 -0.014661 -0.273817
v -0.426377 -0.108786 -0.078762
v -0.472352 0 0.019831
v 0.055299 0 -0.107302
v -0.380402 0 -0.177355
v -0.426377 0.108786 -0.078762
v 0.036408 0.108786 -0.000169
v -0.838477 0 -0.287104
v -0.844673 0.014661 -0.273817
v -0.838477 0 -0.287104
v -0.844673 -0.014661 -0.273817
v -0.850869 0 -0.260529
vt 0.649028 0.539189
vt 0.649028 0.976719
vt 0.818078 0.976719
vt 0.833391 0.539189
vt 0.976719 0.976719
vt 0.976719 0.539188
vt 0.649028 0.539189
vt 0.818078 0.539189
vt 0.818078 0.976719
vt 0.649028 0.976719
vt 0.976719 0.539188
vt 0.976719 0.976719
vt 0.649028 0.531533
vt 0.818078 0.531533
vt 0.818078 0.531533
vt 0.976719 0.992031
vt 0.833391 0.992031
vt 0.833391 0.992031
vt 0.976719 0.992031
vt 0.649028 0.992031
vt 0.649028 0.992031
vt 0.641372 0.976719
vt 0.641372 0.539189
vt 0.641372 0.539189
vn 0.166422 -0.699866 -0.694617
vn 0.166423 -0.699858 -0.694624
vn 0.114407 -0.693243 -0.711565
vn 0.118391 -0.707099 -0.697133
vn 0.118391 -0.707099 -0.697133
vn -0.118392 -0.707099 0.697134
vn -0.425125 -0.69988 0.573966
vn -0.120524 0.694129 0.70969
vn -0.120524 0.694129 0.70969
vn -0.90631 -0.000012 -0.422614
vn -0.125933 -0.694888 0.708005
vn -0.120524 0.694129 0.70969
vn -0.425125 -0.69988 0.573966
vn -0.125933 -0.694888 0.708005
vn -0.125933 -0.694888 0.708005
vn 0.118391 0.707099 -0.697133
vn 0.166422 0.699866 -0.694617
vn 0.166422 0.699866 -0.694617
vn 0.118391 0.707099 -0.697133
vn 0.166423 0.699858 -0.694624
vn 0.166422 0.699866 -0.694617
vn -0.90631 -0.000012 -0.422614
vn -0.90631 0.000012 -0.422614
vn -0.90631 -0.000012 -0.422614
usemtl datan_common_moblegs35x_52abfb8d
f 111/111/111 112/112/112 113/113/113
f 113/113/113 114/114/114 111/111/111
f 114/114/114 113/113/113 115/115/115
f 115/115/115 116/116/116 114/114/114
f 117/117/117 118/118/118 119/119/119
f 119/119/119 120/120/120 117/117/117
f 118/118/118 121/121/121 122/122/122
f 122/122/122 119/119/119 118/118/118
f 123/123/123 124/124/124 125/125/125
f 125/125/125 117/117/117 123/123/123
f 124/124/124 116/116/116 121/121/121
f 121/121/121 125/125/125 124/124/124
f 126/126/126 127/127/127 128/128/128
f 128/128/128 129/129/129 126/126/126
f 127/127/127 130/130/130 131/131/131
f 131/131/131 128/128/128 127/127/127
f 132/132/132 133/133/133 134/134/134
f 134/134/134 120/120/120 132/132/132
o datan_common_moblegs35x_52abfb8d_mesh02
v 0.851795 0 -0.277762
v 0.857991 -0.014661 -0.264474
v 0.39372 0 -0.168013
v 0.439695 -0.108786 -0.06942
v -0.04198 0 -0.097959
v -0.02309 -0.108786 0.009173
v 0.48567 0 0.029173
v 0.864187 0 -0.251187
v 0.439695 0.108786 -0.06942
v 0.857991 0.014661 -0.264474
v -0.004199 0 0.116306
v -0.02309 0.108786 0.009173
v 0.439695 -0.108786 -0.06942
v 0.857991 -0.014661 -0.264474
v 0.48567 0 0.029173
v 0.39372 0 -0.168013
v -0.04198 0 -0.097959
v 0.439695 0.108786 -0.06942
v -0.02309 0.108786 0.009173
v 0.851795 0 -0.277762
v 0.857991 0.014661 -0.264474
v 0.857991 -0.014661 -0.264474
v 0.851795 0 -0.277762
v 0.864187 0 -0.251187
vt 0.64343 0.95006
vt 0.64343 0.523281
vt 0.812423 0.95006
vt 0.827735 0.523281
vt 0.976719 0.950059
vt 0.976719 0.523281
vt 0.812423 0.523281
vt 0.64343 0.523281
vt 0.812423 0.95006
vt 0.64343 0.95006
vt 0.976719 0.523281
vt 0.976719 0.950059
vt 0.812423 0.507969
vt 0.64343 0.507969
vt 0.812423 0.507969
vt 0.827735 0.957716
vt 0.976719 0.957715
vt 0.827735 0.957716
vt 0.976719 0.965372
vt 0.64343 0.965372
vt 0.64343 0.965372
vt 0.635774 0.523281
vt 0.635774 0.95006
vt 0.635774 0.523281
vn -0.166418 -0.699882 -0.694601
vn -0.16642 -0.699865 -0.694617
vn -0.114409 -0.693244 -0.711564
vn -0.118392 -0.707095 -0.697137
vn -0.118392 -0.707095 -0.697137
vn 0.118391 -0.707099 0.697133
vn 0.120524 0.694129 0.70969
vn 0.425137 -0.69986 0.573981
vn 0.120524 0.694129 0.70969
vn 0.90631 0.000016 -0.422614
vn 0.125933 -0.694888 0.708005
vn 0.120524 0.694129 0.70969
vn 0.125933 -0.694888 0.708005
vn 0.425137 -0.69986 0.573981
vn 0.125933 -0.694888 0.708005
vn -0.16642 0.699865 -0.694617
vn -0.118392 0.707095 -0.697137
vn -0.16642 0.699865 -0.694617
vn -0.118392 0.707095 -0.697137
vn -0.166418 0.699882 -0.694601
vn -0.16642 0.699865 -0.694617
vn 0.90631 -0.000016 -0.422614
vn 0.90631 0.000016 -0.422614
vn 0.90631 0.000016 -0.422614
usemtl datan_common_moblegs35x_52abfb8d
f 135/135/135 136/136/136 137/137/137
f 138/138/138 137/137/137 136/136/136
f 137/137/137 138/138/138 139/139/139
f 140/140/140 139/139/139 138/138/138
f 141/141/141 142/142/142 143/143/143
f 144/144/144 143/143/143 142/142/142
f 145/145/145 141/141/141 146/146/146
f 143/143/143 146/146/146 141/141/141
f 147/147/147 148/148/148 149/149/149
f 142/142/142 149/149/149 148/148/148
f 140/140/140 147/147/147 145/145/145
f 149/149/149 145/145/145 147/147/147
f 150/150/150 151/151/151 152/152/152
f 153/153/153 152/152/152 151/151/151
f 154/154/154 150/150/150 155/155/155
f 152/152/152 155/155/155 150/150/150
f 156/156/156 157/157/157 158/158/158
f 144/144/144 158/158/158 157/157/157
