# Generated from Nova1492 GX by tools/nova1492/GxObjConverter
mtllib datan_common_moblegs32_0421fe4f.mtl
o datan_common_moblegs32_0421fe4f
v -0.448951 0.053324 0.43096
v -0.227896 0.081673 0.203552
v -0.227896 0.106175 -0.090036
v -0.448951 0.069321 0.050423
v 0.000026 0.129044 0.103132
v 0.000026 0.167757 -0.399756
v -0.448951 -0.053324 0.43096
v -0.227896 -0.081673 0.203552
v -0.227896 0 0.249271
v -0.448951 0 0.454001
v 0.000026 -0.129044 0.103132
v 0.000026 0 0.147596
v -0.227896 0.081673 0.203552
v 0.000026 0.129044 0.103132
v 0.000026 -0.167757 -0.399756
v -0.227896 -0.106175 -0.090036
v -0.227896 0 -0.111282
v 0.000026 0 -0.454001
v -0.448951 -0.069321 0.050423
v -0.448951 0 0.030742
v -0.227896 0.106175 -0.090036
v -0.448951 0.069321 0.050423
v -0.622866 0.010991 0.840635
v -0.598006 0.014025 0.840635
v -0.43954 0.057035 0.419694
v -0.714666 0.040223 0.419694
v -0.43954 0.070005 0.046053
v -0.733928 0.049549 0.046053
v -0.591924 0.105038 -0.213375
v -0.642309 0.085593 -0.213375
v -0.622866 -0.016585 0.840635
v -0.598006 -0.019619 0.840635
v -0.598006 0.014025 0.840635
v -0.598006 -0.019619 0.840635
v -0.43954 -0.062629 0.419694
v -0.43954 -0.075599 0.046053
v -0.591924 -0.110632 -0.213375
v -0.43954 0.070005 0.046053
v -0.591924 -0.110632 -0.213375
v -0.642309 -0.091187 -0.213375
v -0.642309 0.085593 -0.213375
v -0.642309 -0.091187 -0.213375
v -0.733928 -0.055143 0.046053
v -0.733928 0.049549 0.046053
v -0.714666 -0.045817 0.419694
v -0.714666 0.040223 0.419694
v -0.622866 -0.016585 0.840635
vt 0.011641 0.048828
vt 0.242518 0.290942
vt 0.242518 0.588203
vt 0.011641 0.43866
vt 0.488359 0.397855
vt 0.488359 0.917951
vt 0.011641 0.048828
vt 0.242518 0.27563
vt 0.242518 0.226954
vt 0.011641 0.024297
vt 0.488359 0.382543
vt 0.488359 0.335204
vt 0.242518 0.27563
vt 0.488359 0.382543
vt 0.488359 0.917951
vt 0.250175 0.603515
vt 0.250175 0.626134
vt 0.488359 0.975704
vt 0.011641 0.453972
vt 0.011641 0.474926
vt 0.242518 0.603515
vt 0.011641 0.453972
vt 0.600091 0.023766
vt 0.619863 0.023766
vt 0.738242 0.394957
vt 0.527078 0.394957
vt 0.738242 0.73803
vt 0.511758 0.73803
vt 0.6247 0.976234
vt 0.584627 0.976234
vt 0.600091 0.016109
vt 0.612207 0.016109
vt 0.612207 0.016109
vt 0.619863 0.023766
vt 0.738242 0.394957
vt 0.738242 0.753343
vt 0.6247 0.976234
vt 0.738242 0.753343
vt 0.617044 0.983891
vt 0.584627 0.983891
vt 0.584627 0.983891
vt 0.576971 0.976234
vt 0.511758 0.753343
vt 0.511758 0.753343
vt 0.527078 0.41027
vt 0.527078 0.41027
vt 0.600091 0.023766
vn 0.666276 0.295784 0.684535
vn -0.154365 0.984591 0.082171
vn -0.154365 0.984591 0.082171
vn -0.138535 0.989484 0.041596
vn -0.170859 0.982389 0.075626
vn -0.80896 0.180868 -0.559349
vn 0.647727 -0.302197 0.699376
vn 0.362745 -0.455189 0.813154
vn 0.272245 0.470008 0.839628
vn 0.666276 0.295784 0.684535
vn 0.329381 -0.30759 0.892691
vn 0.388611 0.300164 0.871139
vn 0.272245 0.470008 0.839628
vn 0.272245 0.470008 0.839628
vn -0.819638 -0.176258 -0.545093
vn -0.533034 -0.166015 -0.829647
vn -0.548372 0.164081 -0.819979
vn -0.80896 0.180868 -0.559349
vn -0.548966 -0.228284 -0.804067
vn -0.525745 0.232325 -0.818302
vn -0.548372 0.164081 -0.819979
vn -0.548372 0.164081 -0.819979
vn -0.977036 0 0.213075
vn 0.93588 0 0.352318
vn 0.93588 0 0.352318
vn -0.069291 0.99719 0.028462
vn -0.068277 0.982589 0.172793
vn -0.360045 0.932932 0.002466
vn 0 0 -1
vn -0.942926 -0 -0.333002
vn 0 0 1
vn -0 0 1
vn 0 0 1
vn 0.93588 0 0.352318
vn 0.93588 -0 0.352318
vn 0.862255 0 -0.506475
vn 0.862255 0 -0.506475
vn 0.862255 0 -0.506475
vn 0 0 -1
vn 0 0 -1
vn 0 0 -1
vn -0.942926 -0 -0.333002
vn -0.998674 0 0.051484
vn -0.998674 0 0.051484
vn -0.977036 0 0.213075
vn -0.977036 0 0.213075
vn -0.977036 0 0.213075
usemtl datan_common_moblegs32_0421fe4f
f 1/1/1 2/2/2 3/3/3
f 3/3/3 4/4/4 1/1/1
f 2/2/2 5/5/5 6/6/6
f 6/6/6 3/3/3 2/2/2
f 7/7/7 8/8/8 9/9/9
f 9/9/9 10/10/10 7/7/7
f 8/8/8 11/11/11 12/12/12
f 12/12/12 9/9/9 8/8/8
f 10/10/10 9/9/9 13/13/13
f 13/13/13 1/1/1 10/10/10
f 9/9/9 12/12/12 14/14/14
f 14/14/14 13/13/13 9/9/9
f 15/15/15 16/16/16 17/17/17
f 17/17/17 18/18/18 15/15/15
f 16/16/16 19/19/19 20/20/20
f 20/20/20 17/17/17 16/16/16
f 18/18/18 17/17/17 21/21/21
f 21/21/21 6/6/6 18/18/18
f 17/17/17 20/20/20 22/22/22
f 22/22/22 21/21/21 17/17/17
f 23/23/23 24/24/24 25/25/25
f 25/25/25 26/26/26 23/23/23
f 26/26/26 25/25/25 27/27/27
f 27/27/27 28/28/28 26/26/26
f 28/28/28 27/27/27 29/29/29
f 29/29/29 30/30/30 28/28/28
f 31/31/31 32/32/32 33/33/33
f 33/33/33 23/23/23 31/31/31
f 34/34/34 35/35/35 25/25/25
f 25/25/25 24/24/24 34/34/34
f 36/36/36 37/37/37 29/29/29
f 29/29/29 38/38/38 36/36/36
f 39/39/39 40/40/40 41/41/41
f 41/41/41 29/29/29 39/39/39
f 42/42/42 43/43/43 44/44/44
f 44/44/44 30/30/30 42/42/42
f 43/43/43 45/45/45 46/46/46
f 46/46/46 44/44/44 43/43/43
f 45/45/45 47/47/47 23/23/23
