# Generated from Nova1492 GX by tools/nova1492/GxObjConverter
mtllib datan_common_mob_ef05_e82e9232.mtl
o datan_common_mob_ef05_e82e9232_mesh00
v -0.75 0.75 0
v -0.75 -0.75 -0
v 0.75 0.75 0
v 0.75 -0.75 -0
vt 0.00582 0.49418
vt 0.00582 0.00582
vt 0.49418 0.49418
vt 0.49418 0.00582
vn 0 -0 1
vn 0 -0 1
vn 0 -0 1
vn 0 -0 1
usemtl datan_common_mob_ef05_e82e9232
f 1/1/1 2/2/2 3/3/3
f 4/4/4 3/3/3 2/2/2
o datan_common_mob_ef05_e82e9232_mesh01
v -0.75 0.75 0
v -0.75 -0.75 -0
v 0.75 0.75 0
v 0.75 -0.75 -0
vt 0.00582 0.49418
vt 0.00582 0.00582
vt 0.49418 0.49418
vt 0.49418 0.00582
vn 0 -0 1
vn 0 -0 1
vn 0 -0 1
vn 0 -0 1
usemtl datan_common_mob_ef05_e82e9232
f 5/5/5 6/6/6 7/7/7
f 8/8/8 7/7/7 6/6/6
o datan_common_mob_ef05_e82e9232_mesh02
v -0.75 0.75 0
v -0.75 -0.75 -0
v 0.75 0.75 0
v 0.75 -0.75 -0
vt 0.00582 0.49418
vt 0.00582 0.00582
vt 0.49418 0.49418
vt 0.49418 0.00582
vn 0 -0 1
vn 0 -0 1
vn 0 -0 1
vn 0 -0 1
usemtl datan_common_mob_ef05_e82e9232
f 9/9/9 10/10/10 11/11/11
f 12/12/12 11/11/11 10/10/10
o datan_common_mob_ef05_e82e9232_mesh03
v -0.75 0.75 0
v -0.75 -0.75 -0
v 0.75 0.75 0
v 0.75 -0.75 -0
vt 0.00582 0.49418
vt 0.00582 0.00582
vt 0.49418 0.49418
vt 0.49418 0.00582
vn 0 -0 1
vn 0 -0 1
vn 0 -0 1
vn 0 -0 1
usemtl datan_common_mob_ef05_e82e9232
f 13/13/13 14/14/14 15/15/15
f 16/16/16 15/15/15 14/14/14
o datan_common_mob_ef05_e82e9232_mesh04
v -0.75 0.75 0
v -0.75 -0.75 -0
v 0.75 0.75 0
v 0.75 -0.75 -0
vt 0.00582 0.49418
vt 0.00582 0.00582
vt 0.49418 0.49418
vt 0.49418 0.00582
vn 0 -0 1
vn 0 -0 1
vn 0 -0 1
vn 0 -0 1
usemtl datan_common_mob_ef05_e82e9232
f 17/17/17 18/18/18 19/19/19
f 20/20/20 19/19/19 18/18/18
o datan_common_mob_ef05_e82e9232_mesh05
v -0.75 0.75 0
v -0.75 -0.75 -0
v 0.75 0.75 0
v 0.75 -0.75 -0
vt 0.00582 0.49418
vt 0.00582 0.00582
vt 0.49418 0.49418
vt 0.49418 0.00582
vn 0 -0 1
vn 0 -0 1
vn 0 -0 1
vn 0 -0 1
usemtl datan_common_mob_ef05_e82e9232
f 21/21/21 22/22/22 23/23/23
f 24/24/24 23/23/23 22/22/22
o datan_common_mob_ef05_e82e9232_mesh06
v -1.009869 0.011486 -0.219617
v -0.009869 0.011486 -0.219617
v -1.009869 1.011486 -0.219616
v -0.009869 1.011486 -0.219616
vt 0.50582 0.99418
vt 0.50582 0.50582
vt 0.99418 0.99418
vt 0.99418 0.50582
vn 0 -0 1
vn 0 -0 1
vn 0 -0 1
vn 0 -0 1
usemtl datan_common_mob_ef05_e82e9232
f 25/25/25 26/26/26 27/27/27
f 28/28/28 27/27/27 26/26/26
o datan_common_mob_ef05_e82e9232_mesh07
v -1.009869 0.011486 -0.219617
v -0.009869 0.011486 -0.219617
v -1.009869 1.011486 -0.219616
v -0.009869 1.011486 -0.219616
vt 0.50582 0.49418
vt 0.50582 0.00582
vt 0.99418 0.49418
vt 0.99418 0.00582
vn 0 -0 1
vn 0 -0 1
vn 0 -0 1
vn 0 -0 1
usemtl datan_common_mob_ef05_e82e9232
f 29/29/29 30/30/30 31/31/31
f 32/32/32 31/31/31 30/30/30
o datan_common_mob_ef05_e82e9232_mesh08
v -0.722207 -0.705963 -0.219617
v -0.0151 0.001143 -0.219617
v -1.429314 0.001144 -0.219616
v -0.722207 0.70825 -0.219616
vt 0.50582 0.49418
vt 0.50582 0.00582
vt 0.99418 0.49418
vt 0.99418 0.00582
vn 0 -0 1
vn 0 -0 1
vn 0 -0 1
vn 0 -0 1
usemtl datan_common_mob_ef05_e82e9232
f 33/33/33 34/34/34 35/35/35
f 36/36/36 35/35/35 34/34/34
o datan_common_mob_ef05_e82e9232_mesh09
v -0.722207 -0.705963 -0.219617
v -0.0151 0.001143 -0.219617
v -1.429314 0.001143 -0.219616
v -0.722207 0.70825 -0.219616
vt 0.50582 0.99418
vt 0.50582 0.50582
vt 0.99418 0.99418
vt 0.99418 0.50582
vn 0 -0 1
vn 0 -0 1
vn 0 -0 1
vn 0 -0 1
usemtl datan_common_mob_ef05_e82e9232
f 37/37/37 38/38/38 39/39/39
f 40/40/40 39/39/39 38/38/38
o datan_common_mob_ef05_e82e9232_mesh10
v -0.705963 0.722207 -0.219617
v 0.001143 0.0151 -0.219617
v 0.001144 1.429314 -0.219616
v 0.70825 0.722207 -0.219616
vt 0.50582 0.49418
vt 0.50582 0.00582
vt 0.99418 0.49418
vt 0.99418 0.00582
vn -0 -0 1
vn -0 -0 1
vn -0 -0 1
vn -0 -0 1
usemtl datan_common_mob_ef05_e82e9232
f 41/41/41 42/42/42 43/43/43
f 44/44/44 43/43/43 42/42/42
o datan_common_mob_ef05_e82e9232_mesh11
v -0.705963 0.722207 -0.219617
v 0.001143 0.0151 -0.219617
v 0.001143 1.429314 -0.219616
v 0.70825 0.722207 -0.219616
vt 0.50582 0.99418
vt 0.50582 0.50582
vt 0.99418 0.99418
vt 0.99418 0.50582
vn -0 -0 1
vn -0 -0 1
vn -0 -0 1
vn -0 -0 1
usemtl datan_common_mob_ef05_e82e9232
f 45/45/45 46/46/46 47/47/47
f 48/48/48 47/47/47 46/46/46
o datan_common_mob_ef05_e82e9232_mesh12
v 0.011486 1.009869 -0.219617
v 0.011486 0.009869 -0.219617
v 1.011486 1.009869 -0.219616
v 1.011486 0.009869 -0.219616
vt 0.50582 0.49418
vt 0.50582 0.00582
vt 0.99418 0.49418
vt 0.99418 0.00582
vn -0 -0 1
vn -0 -0 1
vn -0 -0 1
vn -0 -0 1
usemtl datan_common_mob_ef05_e82e9232
f 49/49/49 50/50/50 51/51/51
f 52/52/52 51/51/51 50/50/50
o datan_common_mob_ef05_e82e9232_mesh13
v 0.011486 1.009869 -0.219617
v 0.011486 0.009869 -0.219617
v 1.011486 1.009869 -0.219616
v 1.011486 0.009869 -0.219616
vt 0.50582 0.99418
vt 0.50582 0.50582
vt 0.99418 0.99418
vt 0.99418 0.50582
vn -0 -0 1
vn -0 -0 1
vn -0 -0 1
vn -0 -0 1
usemtl datan_common_mob_ef05_e82e9232
f 53/53/53 54/54/54 55/55/55
f 56/56/56 55/55/55 54/54/54
o datan_common_mob_ef05_e82e9232_mesh14
v 0.722207 0.705963 -0.219617
v 0.0151 -0.001143 -0.219617
v 1.429314 -0.001144 -0.219616
v 0.722207 -0.70825 -0.219616
vt 0.50582 0.49418
vt 0.50582 0.00582
vt 0.99418 0.49418
vt 0.99418 0.00582
vn -0 0 1
vn -0 0 1
vn -0 0 1
vn -0 0 1
usemtl datan_common_mob_ef05_e82e9232
f 57/57/57 58/58/58 59/59/59
f 60/60/60 59/59/59 58/58/58
o datan_common_mob_ef05_e82e9232_mesh15
v 0.722207 0.705963 -0.219617
v 0.0151 -0.001143 -0.219617
v 1.429314 -0.001144 -0.219616
v 0.722207 -0.70825 -0.219616
vt 0.50582 0.99418
vt 0.50582 0.50582
vt 0.99418 0.99418
vt 0.99418 0.50582
vn -0 0 1
vn -0 0 1
vn -0 0 1
vn -0 0 1
usemtl datan_common_mob_ef05_e82e9232
f 61/61/61 62/62/62 63/63/63
f 64/64/64 63/63/63 62/62/62
o datan_common_mob_ef05_e82e9232_mesh16
v 1.009869 -0.011486 -0.219617
v 0.009869 -0.011486 -0.219617
v 1.009869 -1.011486 -0.219616
v 0.009869 -1.011486 -0.219616
vt 0.50582 0.49418
vt 0.50582 0.00582
vt 0.99418 0.49418
vt 0.99418 0.00582
vn -0 0 1
vn -0 0 1
vn -0 0 1
vn -0 0 1
usemtl datan_common_mob_ef05_e82e9232
f 65/65/65 66/66/66 67/67/67
f 68/68/68 67/67/67 66/66/66
o datan_common_mob_ef05_e82e9232_mesh17
v 1.009869 -0.011486 -0.219617
v 0.009869 -0.011486 -0.219617
v 1.009869 -1.011486 -0.219616
v 0.009869 -1.011486 -0.219616
vt 0.50582 0.99418
vt 0.50582 0.50582
vt 0.99418 0.99418
vt 0.99418 0.50582
vn -0 0 1
vn -0 0 1
vn -0 0 1
vn -0 0 1
usemtl datan_common_mob_ef05_e82e9232
f 69/69/69 70/70/70 71/71/71
f 72/72/72 71/71/71 70/70/70
o datan_common_mob_ef05_e82e9232_mesh18
v 0.705964 -0.722207 -0.219617
v -0.001143 -0.0151 -0.219617
v -0.001143 -1.429314 -0.219616
v -0.70825 -0.722207 -0.219616
vt 0.50582 0.49418
vt 0.50582 0.00582
vt 0.99418 0.49418
vt 0.99418 0.00582
vn 0 0 1
vn 0 0 1
vn 0 0 1
vn 0 0 1
usemtl datan_common_mob_ef05_e82e9232
f 73/73/73 74/74/74 75/75/75
f 76/76/76 75/75/75 74/74/74
o datan_common_mob_ef05_e82e9232_mesh19
v 0.705964 -0.722207 -0.219617
v -0.001143 -0.0151 -0.219617
v -0.001142 -1.429314 -0.219616
v -0.70825 -0.722208 -0.219616
vt 0.50582 0.99418
vt 0.50582 0.50582
vt 0.99418 0.99418
vt 0.99418 0.50582
vn 0 0 1
vn 0 0 1
vn 0 0 1
vn 0 0 1
usemtl datan_common_mob_ef05_e82e9232
f 77/77/77 78/78/78 79/79/79
f 80/80/80 79/79/79 78/78/78
o datan_common_mob_ef05_e82e9232_mesh20
v -0.011487 -1.009869 -0.219617
v -0.011486 -0.009869 -0.219617
v -1.011487 -1.009868 -0.219616
v -1.011486 -0.009868 -0.219616
vt 0.50582 0.49418
vt 0.50582 0.00582
vt 0.99418 0.49418
vt 0.99418 0.00582
vn 0 0 1
vn 0 0 1
vn 0 0 1
vn 0 0 1
usemtl datan_common_mob_ef05_e82e9232
f 81/81/81 82/82/82 83/83/83
f 84/84/84 83/83/83 82/82/82
o datan_common_mob_ef05_e82e9232_mesh21
v -0.011487 -1.009869 -0.219617
v -0.011486 -0.009869 -0.219617
v -1.011487 -1.009868 -0.219616
v -1.011486 -0.009868 -0.219616
vt 0.50582 0.99418
vt 0.50582 0.50582
vt 0.99418 0.99418
vt 0.99418 0.50582
vn 0 0 1
vn 0 0 1
vn 0 0 1
vn 0 0 1
usemtl datan_common_mob_ef05_e82e9232
f 85/85/85 86/86/86 87/87/87
f 88/88/88 87/87/87 86/86/86
