# Generated from Nova1492 GX by tools/nova1492/GxObjConverter
mtllib datan_common_king1-body_0e0b9e4c.mtl
o datan_common_king1-body_0e0b9e4c
v 0.130482 -0.002938 0.541708
v 0.054605 0.146661 0.541708
v 0.097224 0.218345 1.055571
v 0.231806 -0.004715 1.055572
v 0.054605 0.146661 0.541708
v -0.053823 0.146513 0.541708
v -0.097502 0.218565 1.055571
v 0.097224 0.218345 1.055571
v -0.053823 0.146513 0.541708
v -0.129858 -0.002749 0.541708
v -0.231806 -0.004996 1.055572
v -0.097502 0.218565 1.055571
v -0.059532 -0.123879 0.541708
v -0.105105 -0.218565 1.055572
v 0.059874 -0.123924 0.541708
v 0.105601 -0.218498 1.055572
v 0.077035 0.006538 -0
v 0.038535 0.077522 -0
v 0.060583 0.077196 0.567185
v 0.121132 -0.003506 0.567185
v 0.032076 0.130141 -0
v -0.032007 0.130141 -0
v -0.050356 0.130999 0.567185
v 0.050425 0.130999 0.567185
v -0.038466 0.077522 -0
v -0.076966 0.006538 -0
v -0.121063 -0.003506 0.567185
v -0.060514 0.077196 0.567185
v -0.038466 -0.060146 -0
v -0.060515 -0.10838 0.567185
v 0.038535 -0.060146 -0
v 0.060583 -0.10838 0.567185
v 0.032076 0.130141 -0
v 0.050425 0.130999 0.567185
v -0.050356 0.130999 0.567185
v -0.032007 0.130141 -0
v 0.231806 -0.004715 1.055572
v 0.097224 0.218345 1.055571
v -0.097502 0.218565 1.055571
v -0.231806 -0.004996 1.055572
v -0.105105 -0.218565 1.055572
v 0.105601 -0.218498 1.055572
v 0.437816 -0.379732 0.453403
v 0.437816 -0.379732 0.58277
v 0.412381 -0.405167 0.58277
v 0.412381 -0.405167 0.453403
v 0.081335 -0.074121 0.614755
v 0.10677 -0.048686 0.614755
v 0.081335 -0.074121 0.744122
v 0.10677 -0.048686 0.744122
v -0.432526 -0.379732 0.453403
v -0.407091 -0.405167 0.58277
v -0.432526 -0.379732 0.58277
v -0.407091 -0.405167 0.453403
v -0.076045 -0.074121 0.614755
v -0.10148 -0.048686 0.614755
v -0.076045 -0.074121 0.744122
v -0.10148 -0.048686 0.744122
vt 0.221189 0.626764
vt 0.221189 0.699102
vt 0.01471 0.737433
vt 0.01471 0.625814
vt 0.221189 0.828201
vt 0.221189 0.876467
vt 0.014366 0.898995
vt 0.014366 0.80622
vt 0.221189 0.699023
vt 0.221189 0.626865
vt 0.01471 0.625663
vt 0.01471 0.745207
vt 0.221189 0.562094
vt 0.01471 0.511641
vt 0.221189 0.56207
vt 0.01471 0.511641
vt 0.515282 0.631831
vt 0.515282 0.662132
vt 0.215013 0.661957
vt 0.215013 0.62646
vt 0.515282 0.835504
vt 0.515282 0.860899
vt 0.215014 0.870363
vt 0.215013 0.82604
vt 0.515282 0.662132
vt 0.515282 0.631831
vt 0.215014 0.62646
vt 0.215014 0.669614
vt 0.515282 0.596173
vt 0.215014 0.570381
vt 0.515282 0.596173
vt 0.215013 0.570381
vt 0.515282 0.697925
vt 0.215013 0.698383
vt 0.215014 0.698383
vt 0.515282 0.697925
vt 0.488117 0.248609
vt 0.347648 0.487875
vt 0.152062 0.488117
vt 0.011883 0.240641
vt 0.136469 0.011883
vt 0.356392 0.011956
vt 0.677326 0.338757
vt 0.669882 0.488242
vt 0.669882 0.488242
vt 0.677326 0.338757
vt 0.984048 0.338757
vt 0.984048 0.338757
vt 0.984048 0.488242
vt 0.984048 0.488242
vt 0.677326 0.338757
vt 0.669882 0.488242
vt 0.669882 0.488242
vt 0.677326 0.338757
vt 0.984048 0.338757
vt 0.984048 0.338757
vt 0.984048 0.488242
vt 0.984048 0.488242
vn 0.497794 0.088961 -0.862721
vn 0.586245 0.297347 -0.753592
vn 0.864716 0.479216 -0.150397
vn 0.964142 -0.185041 -0.190239
vn -0.000118 0.990347 -0.138612
vn -0.001351 0.990296 -0.13897
vn -0.000118 0.990347 -0.138612
vn 0.001115 0.990396 -0.138254
vn -0.567301 0.314456 -0.761109
vn -0.708318 -0.151313 -0.689485
vn -0.968188 0.170798 -0.182869
vn -0.848329 0.509634 -0.143567
vn -0.234849 -0.678042 -0.696495
vn -0.638678 -0.744418 -0.194763
vn 0.562829 -0.656097 -0.502753
vn 0.318736 -0.926722 -0.198982
vn 0.973285 0.221129 -0.0618
vn 0.951817 0.304447 -0.036826
vn 0.934419 0.353934 -0.0399
vn 0.984715 -0.155069 -0.079305
vn 0 0.999999 -0.001513
vn 0 0.999999 -0.001513
vn 0 0.999999 -0.001513
vn 0 0.999999 -0.001513
vn -0.934365 0.35393 -0.041171
vn -0.977459 -0.195603 -0.079459
vn -0.973162 0.221109 -0.063777
vn -0.914476 0.403097 -0.035317
vn -0.326083 -0.940787 -0.092681
vn -0.652166 -0.75279 -0.08937
vn 0.652166 -0.75279 -0.08937
vn 0.326083 -0.940787 -0.092681
vn 0.987492 0.153672 -0.035288
vn 0.982134 0.185433 -0.032054
vn -0.987496 0.153666 -0.03519
vn -0.992033 0.121777 -0.032278
vn 0 0.000001 1
vn 0 0.000001 1
vn 0 0.000001 1
vn -0 0.000001 1
vn 0 0 1
vn 0 0 1
vn 0.772509 0.15035 -0.616948
vn 0.860633 -0.12057 0.494746
vn 0.342811 -0.757919 0.555014
vn -0.405383 -0.817644 -0.408807
vn -0.522304 -0.110152 -0.845615
vn 0.337082 0.662918 -0.668518
vn -0.529418 -0.735494 0.422808
vn 0.662918 0.337082 0.668518
vn -0.772509 0.15035 -0.616948
vn -0.342811 -0.757919 0.555014
vn -0.860634 -0.120569 0.494745
vn 0.405383 -0.817644 -0.408808
vn 0.522304 -0.110151 -0.845615
vn -0.337082 0.662918 -0.668518
vn 0.529418 -0.735494 0.422807
vn -0.662918 0.337082 0.668517
usemtl datan_common_king1-body_0e0b9e4c
f 1/1/1 2/2/2 3/3/3
f 1/1/1 3/3/3 4/4/4
f 5/5/5 6/6/6 7/7/7
f 5/5/5 7/7/7 8/8/8
f 9/9/9 10/10/10 11/11/11
f 9/9/9 11/11/11 12/12/12
f 10/10/10 13/13/13 14/14/14
f 10/10/10 14/14/14 11/11/11
f 13/13/13 15/15/15 16/16/16
f 13/13/13 16/16/16 14/14/14
f 15/15/15 1/1/1 4/4/4
f 15/15/15 4/4/4 16/16/16
f 1/1/1 9/9/9 2/2/2
f 1/1/1 10/10/10 9/9/9
f 1/1/1 13/13/13 10/10/10
f 1/1/1 15/15/15 13/13/13
f 17/17/17 18/18/18 19/19/19
f 17/17/17 19/19/19 20/20/20
f 21/21/21 22/22/22 23/23/23
f 21/21/21 23/23/23 24/24/24
f 25/25/25 26/26/26 27/27/27
f 25/25/25 27/27/27 28/28/28
f 26/26/26 29/29/29 30/30/30
f 26/26/26 30/30/30 27/27/27
f 29/29/29 31/31/31 32/32/32
f 29/29/29 32/32/32 30/30/30
f 31/31/31 17/17/17 20/20/20
f 31/31/31 20/20/20 32/32/32
f 19/19/19 18/18/18 33/33/33
f 33/33/33 34/34/34 19/19/19
f 25/25/25 28/28/28 35/35/35
f 35/35/35 36/36/36 25/25/25
f 37/37/37 38/38/38 39/39/39
f 37/37/37 39/39/39 40/40/40
f 37/37/37 40/40/40 41/41/41
f 37/37/37 41/41/41 42/42/42
f 43/43/43 44/44/44 45/45/45
f 45/45/45 46/46/46 43/43/43
f 43/43/43 46/46/46 47/47/47
f 47/47/47 48/48/48 43/43/43
f 46/46/46 45/45/45 49/49/49
f 49/49/49 47/47/47 46/46/46
f 45/45/45 44/44/44 50/50/50
f 50/50/50 49/49/49 45/45/45
f 50/50/50 43/43/43 48/48/48
f 43/43/43 50/50/50 44/44/44
f 51/51/51 52/52/52 53/53/53
f 52/52/52 51/51/51 54/54/54
f 51/51/51 55/55/55 54/54/54
f 55/55/55 51/51/51 56/56/56
f 54/54/54 57/57/57 52/52/52
f 57/57/57 54/54/54 55/55/55
f 52/52/52 58/58/58 53/53/53
