# Generated from Nova1492 GX by tools/nova1492/GxObjConverter
mtllib datan_common_mob1-body_6dd034d8.mtl
o datan_common_mob1-body_6dd034d8
v -0.389711 0.86511 -0.361505
v -0.432287 0.412229 -0.369171
v -0.362086 0.825783 -0.234279
v -0.401647 0.462835 -0.171436
v 0.000081 0.510015 -0.038165
v -0.200741 0.486409 -0.131101
v 0.000081 0.459364 -0.31327
v -0.216067 0.435792 -0.368796
v -0.18096 0.815419 -0.522839
v -0.200741 0.486411 -0.605072
v -0.362086 0.825946 -0.490369
v -0.401647 0.462844 -0.565507
v 0.000081 0.80492 -0.555984
v -0.18096 0.815419 -0.522839
v 0.000081 0.843779 -0.319783
v -0.194779 0.854451 -0.361703
v -0.200741 0.486409 -0.131101
v -0.180961 0.815205 -0.202314
v -0.37147 0.198293 -0.229572
v -0.401885 0.462853 -0.197605
v -0.279611 0.198363 -0.193996
v -0.202237 0.486276 -0.159882
v -0.202237 0.486276 -0.130825
v -0.401647 0.462835 -0.171436
v -0.279611 0.198419 -0.170543
v -0.37147 0.198333 -0.208013
v -0.371469 0.089625 -0.519243
v -0.279611 0.089625 -0.55592
v -0.401885 0.462862 -0.539559
v -0.202237 0.486277 -0.57662
v -0.202237 0.486278 -0.605677
v -0.279611 0.089625 -0.58011
v -0.401647 0.462844 -0.565507
v -0.37147 0.089625 -0.541467
v -0.200741 0.486411 -0.605072
v 0.000081 0.510015 -0.643519
v -0.180961 0.815205 -0.202314
v 0.000081 0.80492 -0.125701
v -0.401647 0.462835 -0.171436
v -0.432287 0.412229 -0.369171
v 0.000081 0.510015 -0.643519
v 0.000081 0.80492 -0.555984
v -0.362086 0.825946 -0.490369
v -0.389711 0.86511 -0.361505
v 0.000081 0.510015 -0.038165
v 0.000081 0.80492 -0.125701
v -0.401647 0.462844 -0.565507
v -0.362086 0.825783 -0.234279
v 0.432449 0.412229 -0.369171
v 0.389873 0.86511 -0.361505
v 0.362248 0.825783 -0.234279
v 0.401809 0.462835 -0.171436
v 0.200903 0.486409 -0.131101
v 0.216229 0.435792 -0.368796
v 0.200903 0.486411 -0.605072
v 0.181122 0.815419 -0.522839
v 0.362248 0.825946 -0.49037
v 0.401809 0.462844 -0.565507
v 0.181122 0.815419 -0.522839
v 0.194941 0.854451 -0.361703
v 0.200903 0.486409 -0.131101
v 0.181123 0.815205 -0.202314
v 0.402047 0.462853 -0.197605
v 0.371631 0.198293 -0.229572
v 0.279772 0.198363 -0.193996
v 0.202399 0.486276 -0.159882
v 0.401809 0.462835 -0.171436
v 0.202399 0.486276 -0.130825
v 0.279772 0.198419 -0.170543
v 0.371631 0.198333 -0.208013
v 0.279772 0.089625 -0.55592
v 0.371632 0.089625 -0.519243
v 0.402047 0.462862 -0.539559
v 0.202399 0.486277 -0.57662
v 0.279772 0.089625 -0.58011
v 0.202399 0.486278 -0.605677
v 0.401809 0.462844 -0.565507
v 0.371631 0.089625 -0.541467
v 0.200903 0.486411 -0.605072
v 0.181123 0.815205 -0.202314
v 0.401809 0.462835 -0.171436
v 0.432449 0.412229 -0.369171
v 0.362248 0.825946 -0.49037
v 0.389873 0.86511 -0.361505
v 0.401809 0.462844 -0.565507
v 0.362248 0.825783 -0.234279
vt 0.351424 0.948288
vt 0.351313 0.617726
vt 0.25101 0.919297
vt 0.231062 0.6548
vt 0.236786 0.563716
vt 0.236729 0.597123
vt 0.351244 0.539008
vt 0.351282 0.570668
vt 0.542581 0.918963
vt 0.575325 0.664247
vt 0.451806 0.919189
vt 0.471604 0.654671
vt 0.452257 0.995208
vt 0.452232 0.97618
vt 0.351879 0.995578
vt 0.351849 0.976432
vt 0.127293 0.664418
vt 0.16033 0.919108
vt 0.226641 0.500922
vt 0.227065 0.640695
vt 0.178796 0.495577
vt 0.121713 0.641288
vt 0.121713 0.641288
vt 0.226943 0.64067
vt 0.178796 0.495577
vt 0.226641 0.500922
vt 0.473303 0.448324
vt 0.520156 0.443476
vt 0.477489 0.640284
vt 0.57938 0.639937
vt 0.57938 0.639937
vt 0.520156 0.443476
vt 0.477609 0.64026
vt 0.473303 0.448324
vt 0.464636 0.600264
vt 0.464669 0.565725
vt 0.250079 0.976108
vt 0.207031 0.996094
vt 0.236672 0.630531
vt 0.35132 0.602328
vt 0.679045 0.673823
vt 0.633356 0.918736
vt 0.452207 0.957152
vt 0.351818 0.957287
vt 0.023524 0.674035
vt 0.06965 0.918918
vt 0.464602 0.634803
vt 0.249878 0.957008
vt 0.351313 0.617726
vt 0.351424 0.948288
vt 0.25101 0.919297
vt 0.231062 0.6548
vt 0.236729 0.597123
vt 0.351282 0.570668
vt 0.575325 0.664247
vt 0.542581 0.918963
vt 0.451806 0.919189
vt 0.471604 0.654671
vt 0.452232 0.97618
vt 0.351849 0.976432
vt 0.127293 0.664418
vt 0.16033 0.919108
vt 0.227065 0.640695
vt 0.226641 0.500922
vt 0.178796 0.495577
vt 0.121713 0.641288
vt 0.226943 0.64067
vt 0.121713 0.641288
vt 0.178796 0.495577
vt 0.226641 0.500922
vt 0.520156 0.443476
vt 0.473303 0.448324
vt 0.477489 0.640284
vt 0.57938 0.639937
vt 0.520156 0.443476
vt 0.57938 0.639937
vt 0.477609 0.64026
vt 0.473303 0.448324
vt 0.464636 0.600264
vt 0.250079 0.976108
vt 0.236672 0.630531
vt 0.35132 0.602328
vt 0.452207 0.957152
vt 0.351818 0.957287
vt 0.464602 0.634803
vt 0.249878 0.957008
vn -0.836243 0.455512 -0.305297
vn -0.829618 0.468572 -0.303603
vn -0.70066 0.635958 0.323469
vn -0.719026 0.632532 0.287934
vn 0.000302 -0.946274 -0.323367
vn 0.095512 -0.949212 -0.29979
vn 0.00026 -0.841272 -0.540612
vn 0.146655 -0.824035 -0.547229
vn -0.116234 0.471329 -0.874265
vn -0.129203 0.459561 -0.878698
vn -0.492641 0.463414 -0.736581
vn -0.514661 0.468684 -0.717955
vn 0.000112 0.938904 -0.344179
vn 0.031315 0.927722 -0.371956
vn 0.000114 0.97175 -0.236013
vn 0.027528 0.970045 -0.241361
vn -0.294512 0.719003 0.629521
vn -0.34115 0.730126 0.592059
vn -0.678213 0.317318 -0.662825
vn -0.162595 0.347934 -0.923312
vn 0.450271 0.314674 -0.835605
vn 0.73565 0.213566 -0.642813
vn 0.811176 0.24805 0.529589
vn -0.90371 0.340855 0.259088
vn 0.793669 0.192078 0.577231
vn -0.925798 0.31577 0.207815
vn -0.898753 0.418271 0.131504
vn 0.731121 0.47911 0.485711
vn -0.287435 0.5739 0.766825
vn 0.948867 0.311549 0.050889
vn 0.46763 0.211297 -0.858298
vn 0.438762 0.183589 -0.87965
vn -0.616033 0.278837 -0.736718
vn -0.646677 0.270182 -0.713309
vn 0.137923 -0.68743 -0.713034
vn 0.000228 -0.723244 -0.690593
vn -0.002409 0.995233 -0.097494
vn 0.000119 0.993201 -0.116416
vn 0.162629 -0.95013 -0.266093
vn 0.163167 -0.820247 -0.548244
vn 0.000113 0.476111 -0.879385
vn 0.000113 0.484869 -0.874587
vn 0.021684 0.915384 -0.401998
vn 0.036695 0.969521 -0.242247
vn 0.000183 0.763564 0.645733
vn 0.00018 0.776578 0.630021
vn 0.114479 -0.663769 -0.739124
vn 0.023897 0.997093 -0.072352
vn 0.829706 0.468462 -0.303531
vn 0.836329 0.455403 -0.305224
vn 0.700834 0.635807 0.323392
vn 0.719188 0.632379 0.287864
vn -0.094907 -0.949267 -0.299807
vn -0.146153 -0.824097 -0.54727
vn 0.129427 0.459547 -0.878672
vn 0.116458 0.471316 -0.874242
vn 0.492823 0.463359 -0.736494
vn 0.514838 0.468626 -0.717866
vn -0.031094 0.927728 -0.371959
vn -0.0273 0.970051 -0.241363
vn 0.294852 0.718925 0.629452
vn 0.341471 0.730035 0.591985
vn 0.162825 0.347921 -0.923276
vn 0.692532 -0.046482 -0.719888
vn -0.434083 -0.179239 -0.882862
vn -0.73552 0.213611 -0.642947
vn 0.903781 0.340735 0.258998
vn -0.811018 0.248143 0.529787
vn -0.823264 -0.274136 0.497078
vn 0.799761 -0.59708 -0.062271
vn -0.841695 -0.35702 0.405076
vn 0.994241 -0.070202 0.080971
vn 0.287828 0.57383 0.76673
vn -0.948831 0.311655 0.050904
vn -0.427411 -0.07693 -0.900779
vn -0.467427 0.211323 -0.858403
vn 0.616194 0.278792 -0.7366
vn 0.54414 -0.371671 -0.752179
vn -0.137488 -0.687472 -0.713077
vn 0.002647 0.995233 -0.097494
vn -0.162027 -0.950225 -0.26612
vn -0.162668 -0.820316 -0.54829
vn -0.021464 0.915388 -0.402
vn -0.036467 0.969529 -0.242249
vn -0.114052 -0.663802 -0.739161
vn -0.023657 0.997099 -0.072353
usemtl datan_common_mob1-body_6dd034d8
f 1/1/1 2/2/2 3/3/3
f 4/4/4 3/3/3 2/2/2
f 5/5/5 6/6/6 7/7/7
f 8/8/8 7/7/7 6/6/6
f 9/9/9 10/10/10 11/11/11
f 12/12/12 11/11/11 10/10/10
f 13/13/13 14/14/14 15/15/15
f 16/16/16 15/15/15 14/14/14
f 4/4/4 17/17/17 3/3/3
f 18/18/18 3/3/3 17/17/17
f 19/19/19 20/20/20 21/21/21
f 22/22/22 21/21/21 20/20/20
f 23/23/23 24/24/24 25/25/25
f 26/26/26 25/25/25 24/24/24
f 26/26/26 24/24/24 19/19/19
f 20/20/20 19/19/19 24/24/24
f 23/23/23 25/25/25 22/22/22
f 21/21/21 22/22/22 25/25/25
f 27/27/27 28/28/28 29/29/29
f 30/30/30 29/29/29 28/28/28
f 31/31/31 32/32/32 33/33/33
f 34/34/34 33/33/33 32/32/32
f 34/34/34 27/27/27 33/33/33
f 29/29/29 33/33/33 27/27/27
f 31/31/31 30/30/30 32/32/32
f 28/28/28 32/32/32 30/30/30
f 12/12/12 2/2/2 11/11/11
f 1/1/1 11/11/11 2/2/2
f 8/8/8 35/35/35 7/7/7
f 36/36/36 7/7/7 35/35/35
f 16/16/16 37/37/37 15/15/15
f 38/38/38 15/15/15 37/37/37
f 6/6/6 39/39/39 8/8/8
f 40/40/40 8/8/8 39/39/39
f 10/10/10 9/9/9 41/41/41
f 42/42/42 41/41/41 9/9/9
f 14/14/14 43/43/43 16/16/16
f 44/44/44 16/16/16 43/43/43
f 17/17/17 45/45/45 18/18/18
f 46/46/46 18/18/18 45/45/45
f 35/35/35 8/8/8 47/47/47
f 40/40/40 47/47/47 8/8/8
f 37/37/37 16/16/16 48/48/48
f 44/44/44 48/48/48 16/16/16
f 49/49/49 50/50/50 51/51/51
f 51/51/51 52/52/52 49/49/49
f 53/53/53 5/5/5 7/7/7
f 7/7/7 54/54/54 53/53/53
f 55/55/55 56/56/56 57/57/57
f 57/57/57 58/58/58 55/55/55
f 59/59/59 13/13/13 15/15/15
f 15/15/15 60/60/60 59/59/59
f 61/61/61 52/52/52 51/51/51
f 51/51/51 62/62/62 61/61/61
f 63/63/63 64/64/64 65/65/65
f 65/65/65 66/66/66 63/63/63
f 67/67/67 68/68/68 69/69/69
f 69/69/69 70/70/70 67/67/67
f 70/70/70 69/69/69 65/65/65
f 65/65/65 64/64/64 70/70/70
f 67/67/67 70/70/70 64/64/64
f 64/64/64 63/63/63 67/67/67
f 69/69/69 68/68/68 66/66/66
f 66/66/66 65/65/65 69/69/69
f 71/71/71 72/72/72 73/73/73
f 73/73/73 74/74/74 71/71/71
f 75/75/75 76/76/76 77/77/77
f 77/77/77 78/78/78 75/75/75
f 71/71/71 75/75/75 78/78/78
f 78/78/78 72/72/72 71/71/71
f 72/72/72 78/78/78 77/77/77
f 77/77/77 73/73/73 72/72/72
f 74/74/74 76/76/76 75/75/75
f 75/75/75 71/71/71 74/74/74
f 49/49/49 58/58/58 57/57/57
f 57/57/57 50/50/50 49/49/49
f 79/79/79 54/54/54 7/7/7
f 7/7/7 36/36/36 79/79/79
f 80/80/80 60/60/60 15/15/15
f 15/15/15 38/38/38 80/80/80
f 81/81/81 53/53/53 54/54/54
f 54/54/54 82/82/82 81/81/81
f 56/56/56 55/55/55 41/41/41
f 41/41/41 42/42/42 56/56/56
f 83/83/83 59/59/59 60/60/60
f 60/60/60 84/84/84 83/83/83
f 45/45/45 61/61/61 62/62/62
f 62/62/62 46/46/46 45/45/45
f 54/54/54 79/79/79 85/85/85
f 85/85/85 82/82/82 54/54/54
f 60/60/60 80/80/80 86/86/86
