# Generated from Nova1492 GX by tools/nova1492/GxObjConverter
mtllib datan_common_mobmis38_57ba9a12.mtl
o datan_common_mobmis38_57ba9a12
v 0 0.111085 0.927209
v 0.20838 -0.040207 -0.298212
v 0 0.305804 -0.151677
v 0 -0.040207 1.084366
v -0.20838 -0.040207 -0.298212
v 0 -0.191498 0.927209
v 0 -0.386217 -0.151677
vt 0.466557 0.809002
vt 0.255941 0.759674
vt 0.281584 0.869121
vt 0.494059 0.755879
vt 0.255941 0.759674
vt 0.466557 0.809002
vt 0.281584 0.869121
vn 0 0.938577 0.34507
vn 0.937439 -0.000001 -0.348149
vn 0 0.877361 -0.479831
vn 0 -0.000003 1
vn -0.937439 -0.000001 -0.348149
vn -0 -0.938577 0.345069
vn 0 -0.877362 -0.47983
usemtl datan_common_mobmis38_57ba9a12
f 1/1/1 2/2/2 3/3/3
f 2/2/2 1/1/1 4/4/4
f 2/2/2 5/5/5 3/3/3
f 5/5/5 4/4/4 1/1/1
f 1/1/1 3/3/3 5/5/5
f 6/6/6 5/5/5 7/7/7
