# Generated from Nova1492 GX by tools/nova1492/GxObjConverter
mtllib datan_common_moblegs3_04905874.mtl
o datan_common_moblegs3_04905874
v 0.178082 -0.222988 -0.143714
v 0.080573 -0.019504 -0.049992
v 0.084896 0.039418 0.041815
v 0.203379 -0.20861 0.124316
v -0.164997 -0.24995 -0.109086
v -0.139699 -0.235572 0.158944
v -0.080292 0.026436 0.058488
v -0.084615 -0.032485 -0.033319
v 0.203379 -0.20861 0.124316
v 0.084896 0.039418 0.041815
v -0.080292 0.026436 0.058488
v 0.084896 0.039418 0.041815
v 0.080573 -0.019504 -0.049992
v -0.084615 -0.032485 -0.033319
v 0.080573 -0.019504 -0.049992
v 0.178082 -0.222988 -0.143714
v -0.164997 -0.24995 -0.109086
v -0.160455 -0.048089 0.14834
v -0.077693 -0.180419 0.365185
v 0.167734 -0.179076 0.340845
v 0.21021 -0.046059 0.11158
v -0.077693 -0.180419 0.365185
v -0.070244 -0.283137 0.445059
v 0.175183 -0.281794 0.42072
v 0.167734 -0.179076 0.340845
v -0.186833 -0.282782 0.097718
v -0.160455 -0.048089 0.14834
v 0.21021 -0.046059 0.11158
v 0.229313 -0.280504 0.056448
v -0.077693 -0.180419 0.365185
v -0.186833 -0.282782 0.097718
v -0.070244 -0.283137 0.445059
v 0.175183 -0.281794 0.42072
v -0.184059 -0.13308 0.025775
v -0.183671 -0.281537 0.026607
v 0.212431 -0.131951 -0.014414
v 0.212818 -0.280408 -0.013583
v 0.102768 -0.014626 -0.31724
v -0.128179 -0.015283 -0.29383
v 0.106626 0.032646 -0.270997
v -0.124321 0.031988 -0.247587
v 0.212431 -0.131951 -0.014414
v 0.20351 -0.132641 -0.118647
v 0.19813 -0.281544 -0.185193
v -0.184059 -0.13308 0.025775
v 0.212431 -0.131951 -0.014414
v -0.19298 -0.13377 -0.078457
v 0.20351 -0.132641 -0.118647
v -0.183671 -0.281537 0.026607
v -0.184059 -0.13308 0.025775
v -0.198359 -0.282672 -0.145004
v -0.19298 -0.13377 -0.078457
v 0.19813 -0.281544 -0.185193
v -0.198359 -0.282672 -0.145004
v -0.128179 -0.015283 -0.29383
v 0.102768 -0.014626 -0.31724
v 0.102768 -0.014626 -0.31724
v 0.106626 0.032646 -0.270997
v -0.19298 -0.13377 -0.078457
v 0.20351 -0.132641 -0.118647
v 0.106626 0.032646 -0.270997
v -0.198359 -0.282672 -0.145004
v -0.128179 -0.015283 -0.29383
vt 0.976485 0.273391
vt 0.976485 0.476609
vt 0.523516 0.476609
vt 0.523516 0.273391
vt 0.976485 0.273391
vt 0.523516 0.273391
vt 0.523516 0.476609
vt 0.976485 0.476609
vt 0.515859 0.273391
vt 0.51586 0.476609
vt 0.51586 0.476609
vt 0.523516 0.484266
vt 0.976485 0.484266
vt 0.976485 0.484266
vt 0.984141 0.476609
vt 0.984141 0.273391
vt 0.984141 0.273391
vt 0.97661 0.226609
vt 0.773415 0.234222
vt 0.773415 0.234222
vt 0.97661 0.22661
vt 0.765759 0.226566
vt 0.765734 0.023391
vt 0.765734 0.023391
vt 0.773415 0.226566
vt 0.984237 0.02339
vt 0.984266 0.226609
vt 0.984266 0.22661
vt 0.976581 0.023391
vt 0.773415 0.226566
vt 0.976581 0.02339
vt 0.773391 0.023391
vt 0.773391 0.023391
vt 0.765734 0.22661
vt 0.765734 0.023391
vt 0.765734 0.226609
vt 0.773391 0.023391
vt 0.984266 0.02339
vt 0.984266 0.023391
vt 0.984266 0.226609
vt 0.97661 0.226609
vt 0.773391 0.226609
vt 0.847036 0.226609
vt 0.896222 0.023391
vt 0.773391 0.234266
vt 0.773391 0.234266
vt 0.847036 0.234266
vt 0.862349 0.226609
vt 0.77339 0.023391
vt 0.773391 0.22661
vt 0.880909 0.023391
vt 0.862349 0.226609
vt 0.896222 0.015734
vt 0.896222 0.015734
vt 0.976609 0.015734
vt 0.976609 0.015734
vt 0.976609 0.02339
vt 0.97661 0.226609
vt 0.862349 0.234266
vt 0.862349 0.234266
vt 0.97661 0.234265
vt 0.896222 0.023391
vt 0.976609 0.023391
vn 0.844735 0.474711 -0.247128
vn 0.753967 0.536136 -0.379596
vn 0.844735 0.474711 -0.247128
vn 0.910534 0.399253 -0.107355
vn -0.940835 0.331355 -0.070945
vn -0.60727 0.400722 0.686036
vn -0.769959 0.581732 -0.262204
vn -0.591831 0.451426 -0.667795
vn 0.067517 0.343797 0.936614
vn 0.067517 0.343797 0.936614
vn 0.067517 0.343797 0.936614
vn -0.119585 0.838095 -0.532256
vn -0.119583 0.838093 -0.53226
vn -0.119585 0.838095 -0.532256
vn -0.1219 0.36644 -0.922422
vn -0.121901 0.366441 -0.922422
vn -0.1219 0.36644 -0.922422
vn -0.35189 0.733277 0.581789
vn 0.045635 0.860369 0.507624
vn 0.045633 0.860368 0.507627
vn 0.668654 0.582675 0.461944
vn 0.074443 0.615513 0.784603
vn 0.074441 0.615511 0.784605
vn 0.074443 0.615513 0.784603
vn 0.822094 0.337435 0.458584
vn -0.097458 0.220295 -0.970552
vn -0.097459 0.220297 -0.970552
vn -0.097458 0.220295 -0.970552
vn 0.924876 0.217662 -0.311815
vn -0.934066 0.100687 0.342612
vn -0.934066 0.100687 0.342612
vn -0.933161 0.176034 0.313406
vn 0.972274 0.183361 0.145127
vn 0.100827 0.005839 0.994887
vn 0.100828 0.005835 0.994887
vn 0.100828 0.005835 0.994887
vn 0.930463 0.004476 0.366359
vn -0.073948 0.700447 -0.709863
vn -0.073949 0.700451 -0.70986
vn -0.073949 0.700451 -0.70986
vn -0.737737 0.661092 -0.136755
vn 0.996354 0.00212 -0.085289
vn 0.996354 0.002119 -0.08529
vn 0.968936 0.07088 -0.236936
vn -0.003488 0.999974 -0.006321
vn -0.003488 0.999974 -0.006321
vn -0.003488 0.999974 -0.006321
vn 0.762433 0.575177 -0.296426
vn -0.996354 -0.002126 0.085291
vn -0.996354 -0.002125 0.08529
vn -0.996354 -0.002125 0.08529
vn -0.993967 0.072637 -0.082186
vn -0.087874 -0.466746 -0.880015
vn -0.087872 -0.466745 -0.880016
vn -0.087874 -0.466746 -0.880015
vn -0.087875 -0.466747 -0.880014
vn 0.916493 0.18921 -0.352478
vn 0.915823 0.24013 -0.321879
vn 0.070247 0.698022 0.712623
vn 0.070247 0.698022 0.712623
vn 0.070247 0.698022 0.712623
vn -0.968821 0.168846 -0.181322
vn -0.974673 0.191895 -0.114845
usemtl datan_common_moblegs3_04905874
f 1/1/1 2/2/2 3/3/3
f 3/3/3 4/4/4 1/1/1
f 5/5/5 6/6/6 7/7/7
f 7/7/7 8/8/8 5/5/5
f 9/9/9 10/10/10 11/11/11
f 11/11/11 6/6/6 9/9/9
f 12/12/12 13/13/13 14/14/14
f 14/14/14 7/7/7 12/12/12
f 15/15/15 16/16/16 17/17/17
f 17/17/17 8/8/8 15/15/15
f 18/18/18 19/19/19 20/20/20
f 18/18/18 20/20/20 21/21/21
f 22/22/22 23/23/23 24/24/24
f 22/22/22 24/24/24 25/25/25
f 26/26/26 27/27/27 28/28/28
f 26/26/26 28/28/28 29/29/29
f 30/30/30 31/31/31 32/32/32
f 18/18/18 31/31/31 30/30/30
f 25/25/25 33/33/33 29/29/29
f 21/21/21 25/25/25 29/29/29
f 34/34/34 35/35/35 36/36/36
f 37/37/37 36/36/36 35/35/35
f 38/38/38 39/39/39 40/40/40
f 41/41/41 40/40/40 39/39/39
f 42/42/42 37/37/37 43/43/43
f 44/44/44 43/43/43 37/37/37
f 45/45/45 46/46/46 47/47/47
f 48/48/48 47/47/47 46/46/46
f 49/49/49 50/50/50 51/51/51
f 52/52/52 51/51/51 50/50/50
f 53/53/53 54/54/54 55/55/55
f 55/55/55 56/56/56 53/53/53
f 48/48/48 44/44/44 57/57/57
f 57/57/57 58/58/58 48/48/48
f 59/59/59 60/60/60 61/61/61
f 61/61/61 41/41/41 59/59/59
f 62/62/62 52/52/52 41/41/41
f 41/41/41 63/63/63 62/62/62
