# Generated from Nova1492 GX by tools/nova1492/GxObjConverter
mtllib datan_common_mobmis33_dffbf5c7.mtl
o datan_common_mobmis33_dffbf5c7
v -0.148934 -0.00125 -0.285156
v 0.00125 0.126215 -0.285156
v 0.148934 0.00125 -0.285156
v -0.00125 -0.126215 -0.285156
v -0.148934 -0.00125 -0.285156
v -0.001575 -0.159031 0.440146
v -0.187657 -0.001575 0.440146
v 0.148934 0.00125 -0.285156
v 0.187657 0.001575 0.440146
v 0.148934 0.00125 -0.285156
v 0.00125 0.126215 -0.285156
v 0.001575 0.159031 0.440146
v 0.187657 0.001575 0.440146
v -0.148934 -0.00125 -0.285156
v -0.187657 -0.001575 0.440146
v -0.187657 -0.001575 0.440146
v -0.001575 -0.159031 0.440146
v -0 0 0.713334
v 0.187657 0.001575 0.440146
v 0.187657 0.001575 0.440146
v 0.001575 0.159031 0.440146
v -0 0 0.713334
v -0.187657 -0.001575 0.440146
v 0.00295 0 0.47959
v 0.332474 0 -0.366631
v -0.326574 0 -0.366631
v 0.00295 0.118853 0.053084
v 0.021473 0.118853 -0.377218
v 0.00295 0.280195 -0.377218
v 0.021473 0.118853 -0.377218
v -0.015573 0.118853 -0.377218
v 0.00295 0.280195 -0.377218
v -0.015573 0.118853 -0.377218
vt 0.484141 0.510677
vt 0.484141 0.952969
vt 0.484141 0.519949
vt 0.476484 0.047031
vt 0.476485 0.480052
vt 0.106299 0.047031
vt 0.106299 0.480052
vt 0.476484 0.489323
vt 0.106299 0.489323
vt 0.476484 0.519949
vt 0.476485 0.952969
vt 0.106299 0.952969
vt 0.106299 0.519949
vt 0.476485 0.510677
vt 0.106299 0.510677
vt 0.090986 0.480052
vt 0.090986 0.047031
vt 0.023281 0.484688
vt 0.090986 0.489323
vt 0.090986 0.519949
vt 0.090986 0.952969
vt 0.023281 0.515313
vt 0.090986 0.510677
vt 0.976719 0.75
vt 0.77838 0.897211
vt 0.77838 0.602789
vt 0.976609 0.546781
vt 0.773391 0.546781
vt 0.773391 0.953219
vt 0.765734 0.546781
vt 0.765734 0.546781
vt 0.765734 0.953219
vt 0.773391 0.546781
vn 0 0 -1
vn 0 0 -1
vn 0 0 -1
vn 0.247236 -0.872718 -0.420997
vn -0.645556 -0.76292 -0.034807
vn -0.270861 -0.961629 -0.04363
vn -0.645556 -0.76292 -0.034807
vn 0.646706 -0.761973 -0.034185
vn 0.646706 -0.761973 -0.034185
vn 0.645556 0.76292 -0.034807
vn -0.272311 0.961231 -0.043369
vn 0.270861 0.961629 -0.04363
vn 0.645556 0.76292 -0.034807
vn -0.646706 0.761973 -0.034185
vn -0.646706 0.761973 -0.034185
vn -0.589469 -0.696636 0.408931
vn 0.001733 -0.864234 0.503087
vn 0.001733 -0.864234 0.503087
vn 0.592265 -0.697829 0.402813
vn 0.589469 0.696636 0.408931
vn -0.001733 0.864234 0.503087
vn -0.001733 0.864234 0.503087
vn -0.592265 0.697829 0.402813
vn 0 1 0
vn 0 1 0
vn 0 1 0
vn 0 0.936344 0.351084
vn 0.992567 0.113953 0.042727
vn 0 0.936344 0.351084
vn 0 0 -1
vn 0 0 -1
vn 0 0 -1
vn -0.992567 0.113953 0.042727
usemtl datan_common_mobmis33_dffbf5c7
f 1/1/1 2/2/2 3/3/3
f 3/3/3 4/4/4 1/1/1
f 5/5/5 4/4/4 6/6/6
f 6/6/6 7/7/7 5/5/5
f 4/4/4 8/8/8 9/9/9
f 9/9/9 6/6/6 4/4/4
f 10/10/10 11/11/11 12/12/12
f 12/12/12 13/13/13 10/10/10
f 11/11/11 14/14/14 15/15/15
f 15/15/15 12/12/12 11/11/11
f 16/16/16 17/17/17 18/18/18
f 17/17/17 19/19/19 18/18/18
f 20/20/20 21/21/21 22/22/22
f 21/21/21 23/23/23 22/22/22
f 24/24/24 25/25/25 26/26/26
f 27/27/27 28/28/28 29/29/29
f 30/30/30 31/31/31 32/32/32
f 33/33/33 27/27/27 29/29/29
