# Generated from Nova1492 GX by tools/nova1492/GxObjConverter
mtllib datan_common_moblegs5_499de646.mtl
o datan_common_moblegs5_499de646_mesh00
v -0.256777 -0.524631 0.227946
v 0.256777 -0.524631 0.227946
v 0.256777 0.000094 0.227946
v -0.256777 0.000094 0.227946
v -0.256777 -0.524631 0.227946
v -0.256777 -0.524631 -0.223064
v 0.256777 -0.524631 -0.223064
v 0.256777 -0.524631 0.227946
v -0.256777 0.000094 0.227946
v 0.256777 0.000094 0.227946
v 0.256777 0.000094 -0.223064
v -0.256777 0.000094 -0.223064
v 0.256777 -0.524631 0.227946
v 0.256777 -0.524631 -0.223064
v 0.256777 0.000094 -0.223064
v 0.256777 0.000094 0.227946
v 0.256777 -0.524631 -0.223064
v -0.256777 -0.524631 -0.223064
v -0.256777 0.000094 -0.223064
v -0.256777 -0.524631 -0.223064
v -0.256777 -0.524631 0.227946
v -0.256777 0.000094 0.227946
v 0.439323 -0.229246 0.05912
v 0.439323 -0.092995 -0.019545
v -0.452394 -0.092995 -0.019545
v -0.452395 -0.229246 0.05912
v 0.439323 -0.092995 -0.019545
v 0.439323 -0.229246 -0.09821
v -0.452394 -0.229246 -0.09821
vt 0.011758 0.052752
vt 0.238242 0.052752
vt 0.238242 0.634869
vt 0.011758 0.634869
vt 0.386695 0.03036
vt 0.488305 0.03036
vt 0.488305 0.03036
vt 0.386695 0.022704
vt 0.386695 0.311173
vt 0.386695 0.311173
vt 0.488305 0.311173
vt 0.488305 0.303517
vt 0.386695 0.038016
vt 0.488305 0.038016
vt 0.488305 0.303517
vt 0.386695 0.303517
vt 0.492133 0.038016
vt 0.492133 0.038016
vt 0.492133 0.303517
vt 0.488305 0.038016
vt 0.386695 0.038016
vt 0.386695 0.303517
vt 0.892864 0.976485
vt 0.892864 0.757656
vt 0.607137 0.757656
vt 0.607137 0.976484
vt 0.892864 0.742344
vt 0.892864 0.523516
vt 0.607137 0.523515
vn 0 0 1
vn 0 0 1
vn 0 0 1
vn 0 0 1
vn 0 -1 0
vn 0 -1 0
vn 0 -1 0
vn 0 -1 0
vn 0 1 0
vn 0 1 0
vn 0 1 0
vn -0.707107 0.707107 0
vn 1 0 0
vn 1 0 0
vn 0.894427 0 -0.447214
vn 1 0 0
vn 0 0 -1
vn 0 0 -1
vn 0 0 -1
vn -1 0 0
vn -1 0 0
vn -1 0 0
vn 0 0.500002 0.866024
vn 0 0.500002 0.866024
vn -0 0.866027 0.499998
vn 0 0.500002 0.866024
vn -0 0.500002 -0.866024
vn 0 0.500002 -0.866024
vn -0 0.500002 -0.866024
usemtl datan_common_moblegs5_499de646
f 1/1/1 2/2/2 3/3/3
f 3/3/3 4/4/4 1/1/1
f 5/5/5 6/6/6 7/7/7
f 7/7/7 8/8/8 5/5/5
f 9/9/9 10/10/10 11/11/11
f 11/11/11 12/12/12 9/9/9
f 13/13/13 14/14/14 15/15/15
f 15/15/15 16/16/16 13/13/13
f 17/17/17 18/18/18 19/19/19
f 19/19/19 15/15/15 17/17/17
f 20/20/20 21/21/21 22/22/22
f 22/22/22 12/12/12 20/20/20
f 23/23/23 24/24/24 25/25/25
f 23/23/23 25/25/25 26/26/26
f 27/27/27 28/28/28 29/29/29
f 27/27/27 29/29/29 25/25/25
o datan_common_moblegs5_499de646_mesh01
v -0 -0.498266 -0.164023
v 0 -0.383495 0.067933
v -0 -0.236683 -0.231936
v -0 -0.419798 -0.317324
v -0 0.082148 0.157924
v -0 0.174528 -0.040185
v 0.204323 -0.498266 -0.164023
v 0.204323 -0.419798 -0.317324
v 0.204323 -0.236683 -0.231936
v 0.204323 -0.383495 0.067933
v 0.204323 0.174528 -0.040185
v 0.204323 0.082148 0.157924
v -0 -0.498266 -0.164023
v -0 -0.419798 -0.317324
v 0.204323 -0.419798 -0.317324
v -0 -0.419798 -0.317324
v -0 -0.236683 -0.231936
v 0.204323 -0.236683 -0.231936
v -0 0.174528 -0.040185
v -0 0.082148 0.157924
v 0.204323 0.082148 0.157924
v -0 0.082148 0.157924
v 0 -0.383495 0.067933
v 0.204323 -0.383495 0.067933
vt 0.261695 0.023516
vt 0.261695 0.152483
vt 0.363305 0.152483
vt 0.363305 0.023515
vt 0.261695 0.476485
vt 0.363305 0.476484
vt 0.261695 0.023516
vt 0.363305 0.023515
vt 0.363305 0.152483
vt 0.261695 0.152483
vt 0.363305 0.476484
vt 0.261695 0.476485
vt 0.261695 0.015859
vt 0.363305 0.015859
vt 0.363305 0.015859
vt 0.367133 0.023515
vt 0.367133 0.152483
vt 0.367133 0.152483
vt 0.363305 0.484141
vt 0.261695 0.484141
vt 0.261695 0.484141
vt 0.257867 0.476485
vt 0.257867 0.167796
vt 0.257867 0.167796
vn -0.894427 -0.400831 0.19833
vn -1 0 0
vn -1 0 0
vn -1 0 0
vn -1 0 0
vn -0.894427 0.189001 -0.405313
vn 0.592788 -0.795147 0.127841
vn 0.707107 0.298837 -0.640856
vn 1 0 0
vn 1 0 0
vn 0.666667 0.583848 -0.463332
vn 0.707107 -0.134174 0.69426
vn 0 -0.890166 -0.455637
vn 0 -0.890166 -0.455637
vn 0 -0.890166 -0.455637
vn 0 0.422619 -0.906308
vn 0 0.422619 -0.906308
vn 0 0.422619 -0.906308
vn 0 0.906307 0.422619
vn 0 0.906307 0.422619
vn 0 0.906307 0.422619
vn 0 -0.189751 0.981832
vn 0 -0.727636 0.685963
vn 0 -0.468294 0.883573
usemtl datan_common_moblegs5_499de646
f 30/30/30 31/31/31 32/32/32
f 32/32/32 33/33/33 30/30/30
f 31/31/31 34/34/34 35/35/35
f 35/35/35 32/32/32 31/31/31
f 36/36/36 37/37/37 38/38/38
f 38/38/38 39/39/39 36/36/36
f 39/39/39 38/38/38 40/40/40
f 40/40/40 41/41/41 39/39/39
f 42/42/42 43/43/43 44/44/44
f 44/44/44 36/36/36 42/42/42
f 45/45/45 46/46/46 47/47/47
f 47/47/47 37/37/37 45/45/45
f 46/46/46 35/35/35 40/40/40
f 40/40/40 47/47/47 46/46/46
f 48/48/48 49/49/49 50/50/50
f 50/50/50 40/40/40 48/48/48
f 51/51/51 52/52/52 53/53/53
f 53/53/53 41/41/41 51/51/51
f 52/52/52 30/30/30 36/36/36
f 36/36/36 53/53/53 52/52/52
o datan_common_moblegs5_499de646_mesh02
v -0.042053 -0.308821 0.086309
v -0.042053 -0.235984 0.212467
v -0.042053 0.080408 0.029798
v -0.042053 0.007571 -0.09636
v 0.084106 -0.272402 0.149388
v 0.084106 0.04399 -0.033281
v 0.084106 -0.272402 0.149388
vt 0.988359 0.523516
vt 0.988359 0.976485
vt 0.511641 0.976484
vt 0.511641 0.523515
vt 0.988359 0.757656
vt 0.511641 0.757656
vt 0.988359 0.742344
vn -0.866025 -0.25 -0.433013
vn -0.000005 0.5 0.866025
vn -0.866025 0.25 0.433013
vn -0.000002 -0.5 -0.866025
vn 0.499995 0.433014 0.750002
vn 0.866023 0.250002 0.433017
vn 0.499998 -0.433013 -0.750001
usemtl datan_common_moblegs5_499de646
f 54/54/54 55/55/55 56/56/56
f 54/54/54 56/56/56 57/57/57
f 55/55/55 58/58/58 59/59/59
f 55/55/55 59/59/59 56/56/56
f 60/60/60 54/54/54 57/57/57
f 60/60/60 57/57/57 59/59/59
o datan_common_moblegs5_499de646_mesh03
v 0.064971 -0.131088 0.412198
v 0.08395 -0.041075 0.392509
v 0.033972 0.039876 0.198708
v 0 -0.131088 0.198028
v 0.033972 0.039876 -0.160309
v 0 -0.131088 -0.210527
v 0.229454 -0.131088 0.412198
v 0.294425 -0.131088 0.198028
v 0.260453 0.039876 0.198708
v 0.210475 -0.041075 0.392509
v 0.294425 -0.131088 -0.210527
v 0.260453 0.039876 -0.160309
v 0 -0.131088 -0.210527
v 0.033972 0.039876 -0.160309
v 0.260453 0.039876 -0.160309
v 0.033972 0.039876 -0.160309
v 0.033972 0.039876 0.198708
v 0.260453 0.039876 0.198708
v 0.08395 -0.041075 0.392509
v 0.064971 -0.131088 0.412198
v 0.229454 -0.131088 0.412198
vt 0.511883 0.023516
vt 0.511883 0.476485
vt 0.670649 0.476484
vt 0.678305 0.023516
vt 0.988117 0.476484
vt 0.988117 0.023515
vt 0.511883 0.023516
vt 0.670649 0.023516
vt 0.670649 0.476484
vt 0.511883 0.476485
vt 0.988117 0.023515
vt 0.988117 0.476484
vt 0.991945 0.023515
vt 0.991945 0.476484
vt 0.991945 0.476484
vt 0.988117 0.48414
vt 0.678305 0.484141
vt 0.678305 0.484141
vt 0.508055 0.476485
vt 0.508055 0.023516
vt 0.508055 0.023516
vn -0.921999 0.225694 0.314612
vn -0.543044 0.715791 0.439029
vn -0.952638 0.217938 0.212096
vn -0.976369 0.193631 0.095973
vn -0.980824 0.194898 0
vn -0.980824 0.194898 0
vn 0.921999 0.225694 0.314612
vn 0.976369 0.193631 0.095973
vn 0.952638 0.217939 0.212096
vn 0.276967 0.714358 0.642637
vn 0.67525 0.328203 -0.660546
vn 0.815966 0.578099 0
vn 0 0.281828 -0.959465
vn 0 0.281828 -0.959465
vn 0 0.281828 -0.959465
vn 0 1 0
vn 0 0.965209 0.261481
vn 0 0.991417 0.130741
vn 0 0.213683 0.976903
vn 0 0.213683 0.976903
vn 0 0.213683 0.976903
usemtl datan_common_moblegs5_499de646
f 61/61/61 62/62/62 63/63/63
f 63/63/63 64/64/64 61/61/61
f 64/64/64 63/63/63 65/65/65
f 65/65/65 66/66/66 64/64/64
f 67/67/67 68/68/68 69/69/69
f 69/69/69 70/70/70 67/67/67
f 68/68/68 71/71/71 72/72/72
f 72/72/72 69/69/69 68/68/68
f 73/73/73 74/74/74 75/75/75
f 75/75/75 71/71/71 73/73/73
f 76/76/76 77/77/77 78/78/78
f 78/78/78 72/72/72 76/76/76
f 77/77/77 62/62/62 70/70/70
f 70/70/70 78/78/78 77/77/77
f 79/79/79 80/80/80 81/81/81
f 81/81/81 70/70/70 79/79/79
o datan_common_moblegs5_499de646_mesh04
v -0 -0.498266 -0.164023
v 0 -0.383495 0.067933
v -0 -0.236683 -0.231936
v -0 -0.419798 -0.317324
v -0 0.082148 0.157924
v -0 0.174528 -0.040185
v 0.204323 -0.498266 -0.164023
v 0.204323 -0.419798 -0.317324
v 0.204323 -0.236683 -0.231936
v 0.204323 -0.383495 0.067933
v 0.204323 0.174528 -0.040185
v 0.204323 0.082148 0.157924
v -0 -0.498266 -0.164023
v -0 -0.419798 -0.317324
v 0.204323 -0.419798 -0.317324
v -0 -0.419798 -0.317324
v -0 -0.236683 -0.231936
v 0.204323 -0.236683 -0.231936
v -0 0.174528 -0.040185
v -0 0.082148 0.157924
v 0.204323 0.082148 0.157924
v -0 0.082148 0.157924
v 0 -0.383495 0.067933
v 0.204323 -0.383495 0.067933
vt 0.261695 0.023516
vt 0.261695 0.152483
vt 0.363305 0.152483
vt 0.363305 0.023515
vt 0.261695 0.476485
vt 0.363305 0.476484
vt 0.261695 0.023516
vt 0.363305 0.023515
vt 0.363305 0.152483
vt 0.261695 0.152483
vt 0.363305 0.476484
vt 0.261695 0.476485
vt 0.261695 0.015859
vt 0.363305 0.015859
vt 0.363305 0.015859
vt 0.367133 0.023515
vt 0.367133 0.152483
vt 0.367133 0.152483
vt 0.363305 0.484141
vt 0.261695 0.484141
vt 0.261695 0.484141
vt 0.257867 0.476485
vt 0.257867 0.167796
vt 0.257867 0.167796
vn -0.894427 -0.400831 0.19833
vn -1 0 0
vn -1 0 0
vn -1 0 0
vn -1 0 0
vn -0.894427 0.189001 -0.405313
vn 0.592788 -0.795147 0.127841
vn 0.707107 0.298837 -0.640856
vn 1 0 0
vn 1 0 0
vn 0.666667 0.583848 -0.463332
vn 0.707107 -0.134174 0.69426
vn 0 -0.890166 -0.455637
vn 0 -0.890166 -0.455637
vn 0 -0.890166 -0.455637
vn 0 0.422619 -0.906308
vn 0 0.422619 -0.906308
vn 0 0.422619 -0.906308
vn 0 0.906307 0.422619
vn 0 0.906307 0.422619
vn 0 0.906307 0.422619
vn 0 -0.189751 0.981832
vn 0 -0.727636 0.685963
vn 0 -0.468294 0.883573
usemtl datan_common_moblegs5_499de646
f 82/82/82 83/83/83 84/84/84
f 84/84/84 85/85/85 82/82/82
f 83/83/83 86/86/86 87/87/87
f 87/87/87 84/84/84 83/83/83
f 88/88/88 89/89/89 90/90/90
f 90/90/90 91/91/91 88/88/88
f 91/91/91 90/90/90 92/92/92
f 92/92/92 93/93/93 91/91/91
f 94/94/94 95/95/95 96/96/96
f 96/96/96 88/88/88 94/94/94
f 97/97/97 98/98/98 99/99/99
f 99/99/99 89/89/89 97/97/97
f 98/98/98 87/87/87 92/92/92
f 92/92/92 99/99/99 98/98/98
f 100/100/100 101/101/101 102/102/102
f 102/102/102 92/92/92 100/100/100
f 103/103/103 104/104/104 105/105/105
f 105/105/105 93/93/93 103/103/103
f 104/104/104 82/82/82 88/88/88
f 88/88/88 105/105/105 104/104/104
o datan_common_moblegs5_499de646_mesh05
v 0.042053 -0.235984 0.212467
v 0.042053 -0.308821 0.086309
v 0.042053 0.080408 0.029798
v 0.042053 0.007571 -0.09636
v -0.084106 -0.272402 0.149388
v -0.084106 0.04399 -0.033281
v -0.084106 -0.272402 0.149388
vt 0.988359 0.976485
vt 0.988359 0.523516
vt 0.511641 0.976484
vt 0.511641 0.523515
vt 0.988359 0.757656
vt 0.511641 0.757656
vt 0.988359 0.742344
vn 0.000005 0.5 0.866025
vn 0.866025 -0.25 -0.433013
vn 0.866025 0.25 0.433013
vn 0.000002 -0.5 -0.866025
vn -0.499995 0.433014 0.750002
vn -0.866023 0.250002 0.433017
vn -0.499998 -0.433013 -0.750001
usemtl datan_common_moblegs5_499de646
f 106/106/106 107/107/107 108/108/108
f 108/108/108 107/107/107 109/109/109
f 110/110/110 106/106/106 111/111/111
f 111/111/111 106/106/106 108/108/108
f 107/107/107 112/112/112 109/109/109
f 109/109/109 112/112/112 111/111/111
o datan_common_moblegs5_499de646_mesh06
v 0.064971 -0.131088 0.412198
v 0.08395 -0.041075 0.392509
v 0.033972 0.039876 0.198708
v 0 -0.131088 0.198028
v 0.033972 0.039876 -0.160309
v 0 -0.131088 -0.210527
v 0.229454 -0.131088 0.412198
v 0.294425 -0.131088 0.198028
v 0.260453 0.039876 0.198708
v 0.210475 -0.041075 0.392509
v 0.294425 -0.131088 -0.210527
v 0.260453 0.039876 -0.160309
v 0 -0.131088 -0.210527
v 0.033972 0.039876 -0.160309
v 0.260453 0.039876 -0.160309
v 0.033972 0.039876 -0.160309
v 0.033972 0.039876 0.198708
v 0.260453 0.039876 0.198708
v 0.08395 -0.041075 0.392509
v 0.064971 -0.131088 0.412198
v 0.229454 -0.131088 0.412198
vt 0.511883 0.023516
vt 0.511883 0.476485
vt 0.670649 0.476484
vt 0.678305 0.023516
vt 0.988117 0.476484
vt 0.988117 0.023515
vt 0.511883 0.023516
vt 0.670649 0.023516
vt 0.670649 0.476484
vt 0.511883 0.476485
vt 0.988117 0.023515
vt 0.988117 0.476484
vt 0.991945 0.023515
vt 0.991945 0.476484
vt 0.991945 0.476484
vt 0.988117 0.48414
vt 0.678305 0.484141
vt 0.678305 0.484141
vt 0.508055 0.476485
vt 0.508055 0.023516
vt 0.508055 0.023516
vn -0.921999 0.225694 0.314612
vn -0.543044 0.715791 0.439029
vn -0.952638 0.217938 0.212096
vn -0.976369 0.193631 0.095973
vn -0.980824 0.194898 0
vn -0.980824 0.194898 0
vn 0.921999 0.225694 0.314612
vn 0.976369 0.193631 0.095973
vn 0.952638 0.217939 0.212096
vn 0.276967 0.714358 0.642637
vn 0.67525 0.328203 -0.660546
vn 0.815966 0.578099 0
vn 0 0.281828 -0.959465
vn 0 0.281828 -0.959465
vn 0 0.281828 -0.959465
vn 0 1 0
vn 0 0.965209 0.261481
vn 0 0.991417 0.130741
vn 0 0.213683 0.976903
vn 0 0.213683 0.976903
vn 0 0.213683 0.976903
usemtl datan_common_moblegs5_499de646
f 113/113/113 114/114/114 115/115/115
f 115/115/115 116/116/116 113/113/113
f 116/116/116 115/115/115 117/117/117
f 117/117/117 118/118/118 116/116/116
f 119/119/119 120/120/120 121/121/121
f 121/121/121 122/122/122 119/119/119
f 120/120/120 123/123/123 124/124/124
f 124/124/124 121/121/121 120/120/120
f 125/125/125 126/126/126 127/127/127
f 127/127/127 123/123/123 125/125/125
f 128/128/128 129/129/129 130/130/130
f 130/130/130 124/124/124 128/128/128
f 129/129/129 114/114/114 122/122/122
f 122/122/122 130/130/130 129/129/129
f 131/131/131 132/132/132 133/133/133
f 133/133/133 122/122/122 131/131/131
