# Generated from Nova1492 GX by tools/nova1492/GxObjConverter
mtllib datan_common_mob22-legs_e838f83e.mtl
o datan_common_mob22-legs_e838f83e
v -0.13615 0.272296 -0.00361
v 0.13615 0.272296 -0.00361
v 0.326227 0.764875 -0.751724
v -0.326228 0.764875 -0.751724
v -0.147722 -0.037734 -0.00361
v 0.147722 -0.037734 -0.00361
v 0.147722 -0.037734 -0.00361
v 0.64367 -0.03413 -0.785966
v 0.541165 0.506506 -0.75554
v 0.518412 -0.03413 -1.659411
v -0.518412 -0.03413 -1.659411
v -0.434898 0.575983 -1.524875
v -0.249579 0.833019 -1.467253
v 0.434898 0.575983 -1.524875
v -0.64367 -0.03413 -0.785966
v -0.147722 -0.037734 -0.00361
v -0.541165 0.506506 -0.75554
v 0.249579 0.833019 -1.467253
v 0.518412 -0.03413 -1.659411
v 0.434898 0.575983 -1.524875
v -0.434898 0.575983 -1.524875
v -0.518412 -0.03413 -1.659411
v 0.541165 0.506506 -0.75554
v 0.434898 0.575983 -1.524875
v -0.541165 0.506506 -0.75554
v -0.434898 0.575983 -1.524875
v -0.485289 0.217636 -1.62853
v -0.655385 0.430134 -1.525168
v -0.445776 0.473107 -1.485656
v -0.762063 0.252325 -1.545494
v -0.71909 0.103714 -1.514582
v -0.551639 -0.037835 -1.485656
v -0.758999 0.518153 -1.259119
v -0.444478 0.578926 -1.211517
v -0.907572 0.271176 -1.285317
v -0.847723 0.073087 -1.274763
v -0.729334 -0.063381 -1.233641
v -0.726691 0.430133 -0.907944
v -0.516961 0.473107 -0.907944
v -0.833369 0.262682 -0.907944
v -0.790396 0.068843 -0.907944
v -0.614805 -0.037835 -0.907944
v -0.567404 0.217636 -0.76507
v 0.490059 0.217636 -1.60511
v 0.450546 0.473107 -1.462236
v 0.660155 0.430133 -1.501747
v 0.766833 0.252325 -1.522074
v 0.72386 0.103714 -1.491162
v 0.556409 -0.037835 -1.462236
v 0.449248 0.578926 -1.188097
v 0.763768 0.518153 -1.235699
v 0.912342 0.271176 -1.261896
v 0.852492 0.073087 -1.251343
v 0.734104 -0.063381 -1.210221
v 0.521731 0.473107 -0.884524
v 0.731461 0.430133 -0.884524
v 0.838139 0.262682 -0.884524
v 0.795166 0.068843 -0.884524
v 0.619575 -0.037835 -0.884524
v 0.572174 0.217636 -0.74165
vt 0.268188 0.095783
vt 0.320136 0.095857
vt 0.356419 0.267876
vt 0.231944 0.267876
vt 0.265981 0.036636
vt 0.322346 0.036636
vt 0.356561 0.05698
vt 0.485124 0.157705
vt 0.428501 0.236999
vt 0.393347 0.569722
vt 0.195542 0.569722
vt 0.211475 0.453325
vt 0.246707 0.404326
vt 0.377414 0.453325
vt 0.107519 0.167216
vt 0.233243 0.057713
vt 0.165983 0.235783
vt 0.341937 0.404326
vt 0.591098 0.240561
vt 0.525668 0.332915
vt 0.078996 0.333814
vt 0.008849 0.24747
vt 0.421976 0.268584
vt 0.396885 0.415357
vt 0.166423 0.268584
vt 0.191514 0.415357
vt 0.460688 0.640157
vt 0.504906 0.66411
vt 0.49031 0.697907
vt 0.507901 0.634039
vt 0.505473 0.612235
vt 0.484954 0.579302
vt 0.547301 0.66835
vt 0.548828 0.720362
vt 0.547397 0.629475
vt 0.548498 0.601455
vt 0.552098 0.571313
vt 0.602228 0.662988
vt 0.614592 0.695642
vt 0.601895 0.635036
vt 0.608704 0.608825
vt 0.626569 0.581239
vt 0.650115 0.641464
vt 0.643652 0.46215
vt 0.613634 0.520671
vt 0.598843 0.486423
vt 0.595808 0.45595
vt 0.598269 0.433855
vt 0.619062 0.400482
vt 0.554334 0.543426
vt 0.555882 0.49072
vt 0.555785 0.451325
vt 0.554669 0.422931
vt 0.551021 0.392386
vt 0.487692 0.518376
vt 0.500221 0.485285
vt 0.500559 0.45696
vt 0.493659 0.430399
vt 0.475555 0.402445
vt 0.449664 0.489885
vn -0.475309 0.479058 0.737959
vn 0.372446 0.341806 0.862817
vn 0.321531 0.866354 0.382163
vn -0.425957 0.87612 0.225774
vn 0 0 1
vn 0 0 1
vn 0.857884 0.080899 0.507436
vn 0.96294 0.170828 0.208721
vn 0.933846 0.227841 0.275719
vn 0.00005 0.216054 -0.976382
vn 0 0.215337 -0.97654
vn 0.000784 0.216505 -0.976281
vn -0.216914 0.600756 -0.769442
vn -0.000709 0.216951 -0.976182
vn -0.968524 0.13831 0.206956
vn -0.844112 0.031507 0.535241
vn -0.89293 0.310655 0.325836
vn 0.405038 0.886717 -0.222885
vn 0.975685 0.176407 -0.130076
vn 0.97958 0.160724 -0.120793
vn -0.975584 0.177973 -0.128691
vn -0.976384 0.164526 -0.14002
vn 0.786511 0.616312 -0.039484
vn 0.803652 0.592313 -0.057517
vn -0.767514 0.63921 -0.04829
vn -0.787962 0.614464 -0.03937
vn -0.192365 0.006317 -0.981303
vn -0.403518 0.598497 -0.69208
vn -0.064157 0.825065 -0.561384
vn -0.675236 -0.032007 -0.736907
vn -0.531696 -0.519529 -0.668872
vn -0.391409 -0.604768 -0.693581
vn -0.554014 0.826468 -0.100099
vn -0.187904 0.98015 0.063231
vn -0.977108 0.136769 -0.162954
vn -0.825039 -0.544773 -0.15011
vn -0.686398 -0.699707 -0.198163
vn -0.400952 0.722894 0.562728
vn -0.158595 0.774022 0.612974
vn -0.816963 0.222977 0.531839
vn -0.744767 -0.442219 0.499764
vn -0.568637 -0.682663 0.458938
vn -0.344402 0.061801 0.936786
vn 0.192365 0.006317 -0.981303
vn 0.064158 0.825065 -0.561384
vn 0.403518 0.598497 -0.69208
vn 0.675236 -0.032007 -0.736907
vn 0.531695 -0.519529 -0.668872
vn 0.391409 -0.604768 -0.693581
vn 0.187904 0.98015 0.063231
vn 0.554014 0.826468 -0.100099
vn 0.977108 0.136769 -0.162954
vn 0.825039 -0.544772 -0.15011
vn 0.686398 -0.699707 -0.198163
vn 0.158595 0.774022 0.612974
vn 0.400952 0.722894 0.562728
vn 0.816963 0.222978 0.531839
vn 0.744767 -0.442219 0.499764
vn 0.568637 -0.682663 0.458938
vn 0.344402 0.061801 0.936786
usemtl datan_common_mob22-legs_e838f83e
f 1/1/1 2/2/2 3/3/3
f 3/3/3 4/4/4 1/1/1
f 5/5/5 6/6/6 2/2/2
f 2/2/2 1/1/1 5/5/5
f 7/7/7 8/8/8 9/9/9
f 9/9/9 2/2/2 7/7/7
f 10/10/10 11/11/11 12/12/12
f 13/13/13 14/14/14 10/10/10
f 15/15/15 16/16/16 1/1/1
f 1/1/1 17/17/17 15/15/15
f 4/4/4 3/3/3 18/18/18
f 18/18/18 13/13/13 4/4/4
f 9/9/9 8/8/8 19/19/19
f 19/19/19 20/20/20 9/9/9
f 15/15/15 17/17/17 21/21/21
f 21/21/21 22/22/22 15/15/15
f 13/13/13 18/18/18 14/14/14
f 9/9/9 3/3/3 2/2/2
f 4/4/4 17/17/17 1/1/1
f 10/10/10 12/12/12 13/13/13
f 3/3/3 23/23/23 18/18/18
f 24/24/24 18/18/18 23/23/23
f 25/25/25 4/4/4 26/26/26
f 13/13/13 26/26/26 4/4/4
f 27/27/27 28/28/28 29/29/29
f 27/27/27 30/30/30 28/28/28
f 27/27/27 31/31/31 30/30/30
f 27/27/27 32/32/32 31/31/31
f 29/29/29 33/33/33 34/34/34
f 29/29/29 28/28/28 33/33/33
f 28/28/28 35/35/35 33/33/33
f 28/28/28 30/30/30 35/35/35
f 30/30/30 36/36/36 35/35/35
f 30/30/30 31/31/31 36/36/36
f 31/31/31 37/37/37 36/36/36
f 31/31/31 32/32/32 37/37/37
f 34/34/34 38/38/38 39/39/39
f 34/34/34 33/33/33 38/38/38
f 33/33/33 40/40/40 38/38/38
f 33/33/33 35/35/35 40/40/40
f 35/35/35 41/41/41 40/40/40
f 35/35/35 36/36/36 41/41/41
f 36/36/36 42/42/42 41/41/41
f 36/36/36 37/37/37 42/42/42
f 43/43/43 39/39/39 38/38/38
f 43/43/43 38/38/38 40/40/40
f 43/43/43 40/40/40 41/41/41
f 43/43/43 41/41/41 42/42/42
f 44/44/44 45/45/45 46/46/46
f 44/44/44 46/46/46 47/47/47
f 44/44/44 47/47/47 48/48/48
f 44/44/44 48/48/48 49/49/49
f 45/45/45 50/50/50 51/51/51
f 45/45/45 51/51/51 46/46/46
f 46/46/46 51/51/51 52/52/52
f 46/46/46 52/52/52 47/47/47
f 47/47/47 52/52/52 53/53/53
f 47/47/47 53/53/53 48/48/48
f 48/48/48 53/53/53 54/54/54
f 48/48/48 54/54/54 49/49/49
f 50/50/50 55/55/55 56/56/56
f 50/50/50 56/56/56 51/51/51
f 51/51/51 56/56/56 57/57/57
f 51/51/51 57/57/57 52/52/52
f 52/52/52 57/57/57 58/58/58
f 52/52/52 58/58/58 53/53/53
f 53/53/53 58/58/58 59/59/59
f 53/53/53 59/59/59 54/54/54
f 60/60/60 56/56/56 55/55/55
