# Generated from Nova1492 GX by tools/nova1492/GxObjConverter
mtllib datan_common_mobbody33_1f9c2800.mtl
o datan_common_mobbody33_1f9c2800_mesh00
v -0.394896 -0.000013 0.256401
v 0 -0.000013 0.361525
v 0 0.300849 0.513365
v -0.394896 0.300849 0.364089
v 0.394896 -0.000013 0.256401
v 0.394896 0.300849 0.364089
v 0 0.60171 0.269114
v -0.321054 0.60171 0.178489
v 0.321054 0.60171 0.178489
v -0.321054 0.60171 0.178489
v 0 0.60171 0.269114
v -0 0.60171 -0.311659
v -0.321054 0.60171 -0.221035
v 0.321054 0.60171 0.178489
v 0.321054 0.60171 -0.221035
v 0.394896 -0.000013 0.256401
v 0.394896 -0.000013 -0.256401
v 0.394896 0.300849 -0.364089
v 0.394896 0.300849 0.364089
v -0 -0.000013 -0.361525
v -0 0.300849 -0.513365
v -0.394896 -0.000013 -0.256401
v -0.394896 0.300849 -0.364089
v -0.394896 -0.000013 0.256401
v -0.394896 0.300849 0.364089
v 0.140793 0.080373 0.328668
v 0.097914 0.255203 0.350526
v 0.072691 0.187187 0.678642
v 0.10422 0.030211 0.723912
v -0.135541 0.080373 0.328668
v -0.098968 0.030211 0.723912
v -0.067439 0.187187 0.678642
v -0.092662 0.255203 0.350526
vt 0.011882 0.523516
vt 0.246172 0.523516
vt 0.246172 0.742344
vt 0.011883 0.757656
vt 0.488118 0.523515
vt 0.488118 0.742344
vt 0.246172 0.976484
vt 0.057124 0.976485
vt 0.442876 0.976484
vt 0.438717 0.484266
vt 0.462899 0.484266
vt 0.315581 0.484266
vt 0.339763 0.476609
vt 0.438717 0.476609
vt 0.339763 0.476609
vt 0.459507 0.273391
vt 0.330326 0.273391
vt 0.301591 0.367344
vt 0.488242 0.367344
vt 0.294619 0.273391
vt 0.261758 0.367344
vt 0.32267 0.273391
vt 0.301591 0.367344
vt 0.459507 0.273391
vt 0.488242 0.367344
vt 0.238242 0.476484
vt 0.209566 0.398206
vt 0.188194 0.032547
vt 0.207253 0.023515
vt 0.011758 0.476485
vt 0.035091 0.023516
vt 0.061805 0.032547
vt 0.040434 0.398206
vn -0.284175 -0.37914 0.880623
vn 0.114187 -0.410447 0.904707
vn -0.004005 0.120084 0.992756
vn -0.311292 0.309359 0.898551
vn 0.243116 -0.326884 0.913259
vn 0.31913 -0.074705 0.944762
vn -0.100656 0.606046 0.789036
vn -0.22669 0.551058 0.803086
vn 0.254675 0.585161 0.769887
vn -0.617106 0.78688 0
vn 0 1 0
vn 0.06035 0.878051 -0.474746
vn -0.477574 0.710795 -0.516424
vn 0.617106 0.78688 0
vn 0.58049 0.782085 -0.226659
vn 1 0 0
vn 0.633887 -0.305846 -0.710384
vn 0.819236 0.19519 -0.539215
vn 0.987128 0.159935 0
vn -0.114187 -0.410447 -0.904707
vn 0.001157 0.071424 -0.997445
vn -0.917857 -0.133757 -0.373695
vn -0.827291 0.041674 -0.560226
vn -1 0 0
vn -0.996797 0.079968 0
vn 0.966957 0.225241 0.119417
vn 0.613869 0.762271 0.205203
vn 0.525713 0.730147 0.436475
vn 0.404489 0.327496 0.853894
vn -0.966957 0.225241 0.119417
vn -0.629861 0.329366 0.703415
vn -0.531049 0.544765 0.649014
vn -0.39604 0.892594 0.215473
usemtl datan_common_mobbody33_1f9c2800
f 1/1/1 2/2/2 3/3/3
f 3/3/3 4/4/4 1/1/1
f 2/2/2 5/5/5 6/6/6
f 6/6/6 3/3/3 2/2/2
f 4/4/4 3/3/3 7/7/7
f 7/7/7 8/8/8 4/4/4
f 3/3/3 6/6/6 9/9/9
f 9/9/9 7/7/7 3/3/3
f 10/10/10 11/11/11 12/12/12
f 12/12/12 13/13/13 10/10/10
f 11/11/11 14/14/14 15/15/15
f 15/15/15 12/12/12 11/11/11
f 16/16/16 17/17/17 18/18/18
f 18/18/18 19/19/19 16/16/16
f 19/19/19 18/18/18 15/15/15
f 15/15/15 14/14/14 19/19/19
f 17/17/17 20/20/20 21/21/21
f 21/21/21 18/18/18 17/17/17
f 20/20/20 22/22/22 23/23/23
f 23/23/23 21/21/21 20/20/20
f 18/18/18 21/21/21 12/12/12
f 12/12/12 15/15/15 18/18/18
f 21/21/21 23/23/23 13/13/13
f 13/13/13 12/12/12 21/21/21
f 22/22/22 24/24/24 25/25/25
f 25/25/25 23/23/23 22/22/22
f 23/23/23 25/25/25 10/10/10
f 10/10/10 13/13/13 23/23/23
f 26/26/26 27/27/27 28/28/28
f 28/28/28 29/29/29 26/26/26
f 30/30/30 31/31/31 32/32/32
f 32/32/32 33/33/33 30/30/30
f 29/29/29 28/28/28 32/32/32
f 32/32/32 31/31/31 29/29/29
f 28/28/28 27/27/27 33/33/33
f 33/33/33 32/32/32 28/28/28
o datan_common_mobbody33_1f9c2800_mesh01
v 0.132613 0 0.285968
v 0.167017 0.212081 0.142984
v -0.167017 0.212081 0.142984
v -0.132613 0 0.285968
v 0.167017 0.212081 -0.142984
v -0.167017 0.212081 -0.142984
v 0.132613 -0 -0.285968
v -0.132613 0 -0.285968
v 0.098209 -0.212081 -0.142984
v -0.098209 -0.212081 -0.142984
v 0.098209 -0.212081 0.142984
v -0.098209 -0.212081 0.142984
v 0.151893 0.211403 -0.042469
v 0.009235 0.212111 -0.135842
v 0.009235 0.679497 0.030931
v 0.137617 0.602559 0.060029
v -0.133423 0.211403 -0.042469
v -0.119147 0.602559 0.060029
v -0.078933 0.210256 0.10861
v -0.066331 0.474487 0.106916
v 0.097403 0.210256 0.10861
v 0.084801 0.474487 0.106916
v -0.126906 0.807806 0.760876
v -0.077815 0.683962 0.811309
v 0.081046 0.683962 0.811309
v 0.001615 0.884345 0.729706
v 0.130136 0.807806 0.760876
v 0.130136 0.591688 0.059036
v 0.001615 0.668228 0.027866
v 0.001615 0.803027 0.596922
v 0.088454 0.751311 0.617983
v -0.126906 0.591688 0.059036
v -0.085224 0.751311 0.617983
v -0.077815 0.467845 0.109469
v -0.052054 0.667633 0.65206
v 0.081045 0.467845 0.109469
v 0.055284 0.667633 0.65206
v 0.001615 0.884345 0.729706
v 0.130136 0.807806 0.760876
v -0.126906 0.807806 0.760876
v -0.077815 0.683962 0.811309
v 0.081046 0.683962 0.811309
vt 0.738201 0.83227
vt 0.628713 0.975628
vt 0.628713 0.975628
vt 0.738201 0.83227
vt 0.511641 0.83227
vt 0.511641 0.83227
vt 0.511641 0.514927
vt 0.511641 0.514927
vt 0.628713 0.356255
vt 0.628713 0.356255
vt 0.738201 0.514927
vt 0.738201 0.514927
vt 0.840749 0.523281
vt 0.761758 0.523281
vt 0.767521 0.976719
vt 0.854168 0.976719
vt 0.848405 0.523281
vt 0.854168 0.976719
vt 0.980947 0.523281
vt 0.98671 0.976719
vt 0.988603 0.523281
vt 0.98671 0.976719
vt 0.761641 0.275835
vt 0.828788 0.023281
vt 0.982834 0.073556
vt 0.856748 0.476719
vt 0.988359 0.387061
vt 0.2621 0.161051
vt 0.262311 0.226609
vt 0.439081 0.198585
vt 0.438938 0.12863
vt 0.2621 0.145739
vt 0.438938 0.12863
vt 0.261758 0.0302
vt 0.438707 0.040217
vt 0.261758 0.0302
vt 0.438707 0.040217
vt 0.488242 0.2198
vt 0.488031 0.13893
vt 0.488031 0.13893
vt 0.487689 0.023391
vt 0.487689 0.023391
vn 0 0.219263 0.975666
vn 0 0.951309 0.308238
vn -0.359057 0.712188 0.603214
vn -0.819454 -0.248951 0.516254
vn 0 0.787374 -0.616476
vn -0.637268 0.72267 -0.267652
vn 0 -0.219263 -0.975666
vn -0.61991 0.074972 -0.781083
vn 0 -0.559014 -0.829158
vn -0.668695 -0.487173 -0.561702
vn 0 -0.559014 0.829158
vn -0.668695 -0.487173 0.561702
vn 0.782671 0.206818 -0.587071
vn -0.147606 0.313015 -0.938208
vn 0.180249 0.307083 -0.934457
vn 0.986185 0.118412 0.115837
vn -0.996602 0.068961 0.045048
vn -0.824444 0.201418 -0.528888
vn -0.372606 0.023718 0.927687
vn -0.673491 -0.026351 0.738726
vn 0.590389 -0.005154 0.807102
vn 0.215611 0.016543 0.976339
vn 0.000002 0.377159 0.926149
vn 0 0.377156 0.92615
vn -0.000001 0.377158 0.926149
vn -0.000001 0.37716 0.926148
vn -0.000006 0.377158 0.926149
vn 0.829337 0.550548 -0.095379
vn -0.207206 0.951953 -0.225501
vn 0.000106 0.9245 -0.381183
vn 0.94537 0.267415 -0.186453
vn -0.995133 0.084941 0.049952
vn -0.943737 0.269922 -0.191057
vn -0.371685 -0.865318 0.336267
vn -0.569641 -0.807084 0.155323
vn 0.743368 -0.61547 0.261916
vn 0.562238 -0.813098 0.150862
vn 0.206932 0.834331 -0.510951
vn 0.963067 -0.035434 -0.266921
vn -0.810377 0.424239 -0.404117
vn -0.709659 -0.703251 -0.042687
vn 0.354831 -0.934142 0.038383
usemtl datan_common_mobbody33_1f9c2800
f 34/34/34 35/35/35 36/36/36
f 34/34/34 36/36/36 37/37/37
f 35/35/35 38/38/38 39/39/39
f 35/35/35 39/39/39 36/36/36
f 38/38/38 40/40/40 41/41/41
f 38/38/38 41/41/41 39/39/39
f 40/40/40 42/42/42 43/43/43
f 40/40/40 43/43/43 41/41/41
f 44/44/44 34/34/34 37/37/37
f 44/44/44 37/37/37 45/45/45
f 37/37/37 36/36/36 39/39/39
f 37/37/37 39/39/39 41/41/41
f 37/37/37 41/41/41 43/43/43
f 37/37/37 43/43/43 45/45/45
f 46/46/46 47/47/47 48/48/48
f 46/46/46 48/48/48 49/49/49
f 47/47/47 50/50/50 51/51/51
f 47/47/47 51/51/51 48/48/48
f 50/50/50 52/52/52 53/53/53
f 50/50/50 53/53/53 51/51/51
f 52/52/52 54/54/54 55/55/55
f 52/52/52 55/55/55 53/53/53
f 54/54/54 46/46/46 49/49/49
f 54/54/54 49/49/49 55/55/55
f 56/56/56 57/57/57 58/58/58
f 59/59/59 56/56/56 58/58/58
f 60/60/60 59/59/59 58/58/58
f 61/61/61 62/62/62 63/63/63
f 61/61/61 63/63/63 64/64/64
f 62/62/62 65/65/65 66/66/66
f 62/62/62 66/66/66 63/63/63
f 65/65/65 67/67/67 68/68/68
f 65/65/65 68/68/68 66/66/66
f 67/67/67 69/69/69 70/70/70
f 67/67/67 70/70/70 68/68/68
f 69/69/69 61/61/61 64/64/64
f 69/69/69 64/64/64 70/70/70
f 64/64/64 63/63/63 71/71/71
f 64/64/64 71/71/71 72/72/72
f 63/63/63 66/66/66 73/73/73
f 63/63/63 73/73/73 71/71/71
f 66/66/66 68/68/68 74/74/74
f 66/66/66 74/74/74 73/73/73
f 68/68/68 70/70/70 75/75/75
f 68/68/68 75/75/75 74/74/74
f 70/70/70 64/64/64 72/72/72
f 70/70/70 72/72/72 75/75/75
o datan_common_mobbody33_1f9c2800_mesh02
v 0.201641 -0.201714 0.313725
v -0.201709 0.201637 0.313723
v -0.201709 0.201636 -0.31374
v 0.201641 -0.201716 -0.313738
v -0.201715 -0.201648 0.313724
v 0.201648 0.201716 0.313723
v 0.201647 0.201714 -0.31374
v -0.201716 -0.20165 -0.313738
vt 0.493934 0.255942
vt 0.493934 0.494059
vt 0.006066 0.494059
vt 0.006066 0.255942
vt 0.493934 0.255942
vt 0.493934 0.494059
vt 0.006066 0.494059
vt 0.006066 0.255942
vn -0.707107 0.707107 0
vn 0 0 0
vn -0.707107 0.707107 0
vn 0 1 0
vn -0.447214 -0.894427 0.000003
vn 0 0 1
vn -0.447214 -0.894427 0.000003
vn -0.894427 -0.447214 0.000001
usemtl datan_common_mobbody33_1f9c2800
f 76/76/76 77/77/77 78/78/78
f 78/78/78 79/79/79 76/76/76
f 76/76/76 79/79/79 78/78/78
f 78/78/78 77/77/77 76/76/76
f 80/80/80 81/81/81 82/82/82
f 82/82/82 83/83/83 80/80/80
f 80/80/80 83/83/83 82/82/82
f 82/82/82 81/81/81 80/80/80
o datan_common_mobbody33_1f9c2800_mesh03
v -0.310383 -0.310331 -0.000044
v -0.310397 0.310325 -0.000045
v 0.310382 0.310327 -0.000046
v 0.310396 -0.310329 -0.000045
vt 0.005941 0.005941
vt 0.005941 0.244059
vt 0.244059 0.244059
vt 0.244059 0.005941
vn -0.948683 0.316228 0
vn -1 0 0
vn -0.948683 0.316228 0
vn 0 1 0
usemtl datan_common_mobbody33_1f9c2800
f 84/84/84 85/85/85 86/86/86
f 86/86/86 87/87/87 84/84/84
f 84/84/84 87/87/87 86/86/86
f 86/86/86 85/85/85 84/84/84
o datan_common_mobbody33_1f9c2800_mesh04
v 0.129505 0 0.285968
v 0.163102 0.212081 0.142984
v -0.163102 0.212081 0.142984
v -0.129505 0 0.285968
v 0.163102 0.212081 -0.142984
v -0.163102 0.212081 -0.142984
v 0.129504 -0 -0.285968
v -0.129505 0 -0.285968
v 0.095907 -0.212081 -0.142984
v -0.095907 -0.212081 -0.142984
v 0.095907 -0.212081 0.142984
v -0.095907 -0.212081 0.142984
v 0.13743 0.211403 -0.042469
v -0.005228 0.212111 -0.135842
v -0.005228 0.679497 0.03093
v 0.123154 0.602559 0.060029
v -0.147886 0.211403 -0.042469
v -0.13361 0.602559 0.060029
v -0.093396 0.210256 0.10861
v -0.080794 0.474487 0.106916
v 0.08294 0.210256 0.10861
v 0.070338 0.474487 0.106916
v -0.141369 0.807806 0.760876
v -0.092278 0.683962 0.811309
v 0.066582 0.683962 0.811309
v -0.012848 0.884345 0.729706
v 0.115673 0.807806 0.760876
v 0.115673 0.591688 0.059036
v -0.012848 0.668228 0.027866
v -0.012848 0.803027 0.596922
v 0.073991 0.751311 0.617983
v -0.141369 0.591688 0.059036
v -0.099687 0.751311 0.617983
v -0.092278 0.467845 0.109469
v -0.066517 0.667633 0.652059
v 0.066582 0.467845 0.109469
v 0.040821 0.667633 0.652059
v -0.012848 0.884345 0.729706
v 0.115673 0.807806 0.760876
v -0.141369 0.807806 0.760876
v -0.092278 0.683962 0.811309
v 0.066582 0.683962 0.811309
vt 0.738201 0.83227
vt 0.628713 0.975628
vt 0.628713 0.975628
vt 0.738201 0.83227
vt 0.511641 0.83227
vt 0.511641 0.83227
vt 0.511641 0.514927
vt 0.511641 0.514927
vt 0.628713 0.356255
vt 0.628713 0.356255
vt 0.738201 0.514927
vt 0.738201 0.514927
vt 0.840749 0.523281
vt 0.761758 0.523281
vt 0.767521 0.976719
vt 0.854168 0.976719
vt 0.848405 0.523281
vt 0.854168 0.976719
vt 0.980947 0.523281
vt 0.98671 0.976719
vt 0.988603 0.523281
vt 0.98671 0.976719
vt 0.761641 0.275835
vt 0.828788 0.023281
vt 0.982834 0.073556
vt 0.856748 0.476719
vt 0.988359 0.387061
vt 0.2621 0.161051
vt 0.262311 0.226609
vt 0.439081 0.198585
vt 0.438938 0.12863
vt 0.2621 0.145739
vt 0.438938 0.12863
vt 0.261758 0.0302
vt 0.438707 0.040217
vt 0.261758 0.0302
vt 0.438707 0.040217
vt 0.488242 0.2198
vt 0.488031 0.13893
vt 0.488031 0.13893
vt 0.487689 0.023391
vt 0.487689 0.023391
vn 0.846149 -0.014318 0.532754
vn 0.362218 0.881098 0.304081
vn 0 0.787374 0.616476
vn 0 -0.219263 0.975666
vn 0.627481 0.573394 -0.52677
vn 0 0.951309 -0.308238
vn 0.599701 -0.264715 -0.755172
vn 0 0.219263 -0.975666
vn 0.854035 -0.376981 -0.358481
vn 0 -0.559014 -0.829158
vn 0.427018 -0.55102 0.716961
vn 0 -0.559014 0.829158
vn 0.782673 0.206817 -0.587069
vn -0.147608 0.313014 -0.938208
vn 0.18025 0.307082 -0.934457
vn 0.986185 0.118411 0.115838
vn -0.996602 0.068961 0.045048
vn -0.824446 0.201417 -0.528886
vn -0.372606 0.023718 0.927687
vn -0.673491 -0.026351 0.738726
vn 0.590389 -0.005154 0.807102
vn 0.215611 0.016543 0.976339
vn 0.000002 0.377159 0.926149
vn 0 0.377156 0.92615
vn -0.000001 0.377158 0.926149
vn -0.000001 0.37716 0.926148
vn -0.000006 0.377158 0.926149
vn 0.829337 0.550548 -0.095379
vn -0.207206 0.951953 -0.225501
vn 0.000106 0.9245 -0.381183
vn 0.94537 0.267415 -0.186453
vn -0.995133 0.084941 0.049952
vn -0.943737 0.269922 -0.191057
vn -0.371685 -0.865318 0.336267
vn -0.569641 -0.807084 0.155323
vn 0.743368 -0.61547 0.261917
vn 0.562238 -0.813099 0.150863
vn 0.206932 0.834331 -0.510951
vn 0.963067 -0.035435 -0.266919
vn -0.810377 0.424239 -0.404117
vn -0.709659 -0.703251 -0.042687
vn 0.35483 -0.934143 0.038385
usemtl datan_common_mobbody33_1f9c2800
f 88/88/88 89/89/89 90/90/90
f 88/88/88 90/90/90 91/91/91
f 89/89/89 92/92/92 93/93/93
f 89/89/89 93/93/93 90/90/90
f 92/92/92 94/94/94 95/95/95
f 92/92/92 95/95/95 93/93/93
f 94/94/94 96/96/96 97/97/97
f 94/94/94 97/97/97 95/95/95
f 98/98/98 88/88/88 91/91/91
f 98/98/98 91/91/91 99/99/99
f 88/88/88 92/92/92 89/89/89
f 88/88/88 94/94/94 92/92/92
f 88/88/88 96/96/96 94/94/94
f 88/88/88 98/98/98 96/96/96
f 100/100/100 101/101/101 102/102/102
f 100/100/100 102/102/102 103/103/103
f 101/101/101 104/104/104 105/105/105
f 101/101/101 105/105/105 102/102/102
f 104/104/104 106/106/106 107/107/107
f 104/104/104 107/107/107 105/105/105
f 106/106/106 108/108/108 109/109/109
f 106/106/106 109/109/109 107/107/107
f 108/108/108 100/100/100 103/103/103
f 108/108/108 103/103/103 109/109/109
f 110/110/110 111/111/111 112/112/112
f 113/113/113 110/110/110 112/112/112
f 114/114/114 113/113/113 112/112/112
f 115/115/115 116/116/116 117/117/117
f 115/115/115 117/117/117 118/118/118
f 116/116/116 119/119/119 120/120/120
f 116/116/116 120/120/120 117/117/117
f 119/119/119 121/121/121 122/122/122
f 119/119/119 122/122/122 120/120/120
f 121/121/121 123/123/123 124/124/124
f 121/121/121 124/124/124 122/122/122
f 123/123/123 115/115/115 118/118/118
f 123/123/123 118/118/118 124/124/124
f 118/118/118 117/117/117 125/125/125
f 118/118/118 125/125/125 126/126/126
f 117/117/117 120/120/120 127/127/127
f 117/117/117 127/127/127 125/125/125
f 120/120/120 122/122/122 128/128/128
f 120/120/120 128/128/128 127/127/127
f 122/122/122 124/124/124 129/129/129
f 122/122/122 129/129/129 128/128/128
f 124/124/124 118/118/118 126/126/126
f 124/124/124 126/126/126 129/129/129
o datan_common_mobbody33_1f9c2800_mesh05
v -0.310393 -0.310334 -0.000047
v -0.310377 0.310346 -0.000047
v 0.310402 0.310332 -0.000046
v 0.310387 -0.310331 -0.000047
vt 0.005941 0.005941
vt 0.005941 0.244059
vt 0.244059 0.244059
vt 0.244059 0.005941
vn 0 1 0
vn 0 -1 0
vn 0 1 0
vn 0 0 0
usemtl datan_common_mobbody33_1f9c2800
f 130/130/130 131/131/131 132/132/132
f 132/132/132 133/133/133 130/130/130
f 130/130/130 133/133/133 132/132/132
f 132/132/132 131/131/131 130/130/130
