# Generated from Nova1492 GX by tools/nova1492/GxObjConverter
mtllib datan_common_mop4-body_377aa272.mtl
o datan_common_mop4-body_377aa272
v 0.039904 0.056915 0.325507
v 0.072764 -0 0.325507
v 0.072764 -0 0.007827
v 0.039904 0.056915 0.007827
v -0.025815 0.056915 0.325507
v -0.025815 0.056915 0.007827
v -0.058675 -0 0.325507
v -0.058675 -0 0.007827
v -0.025815 -0.056915 0.325507
v -0.058675 -0 0.325507
v -0.058675 -0 0.007827
v -0.025815 -0.056915 0.007827
v 0.039904 -0.056915 0.325507
v 0.039904 -0.056915 0.007827
v 0.031071 0.041615 0.368026
v 0.055097 -0 0.368026
v -0.016982 0.041615 0.368026
v -0.041008 -0 0.368026
v -0.016982 -0.041615 0.368026
v -0.041008 -0 0.368026
v 0.031071 -0.041615 0.368026
v 0.065925 0.101984 1.061872
v -0.051836 0.101984 1.061872
v -0.110717 -0 1.061872
v -0.051836 -0.101985 1.061872
v 0.065925 -0.101985 1.061872
v 0.124806 -0 1.061872
v 0.040601 0.058122 0.662776
v 0.074158 -0 0.662776
v -0.026513 0.058122 0.662776
v -0.06007 -0 0.662776
v -0.026513 -0.058122 0.662776
v -0.06007 -0 0.662776
v 0.040601 -0.058122 0.662776
v 0.065925 0.101984 0.679066
v 0.124806 -0 0.679066
v -0.051836 0.101984 0.679066
v -0.110717 -0 0.679066
v -0.051836 -0.101985 0.679066
v -0.110717 -0 0.679066
v 0.065925 -0.101985 0.679066
v -0.051836 -0.101985 0.679066
v -0.026513 -0.058122 0.662776
v 0.124806 -0 0.839858
v 0.065925 0.101984 0.839858
v -0.051836 0.101984 0.839858
v -0.110717 -0 0.839858
v -0.110717 -0 0.839858
v -0.051836 -0.101985 0.839858
v 0.065925 -0.101985 0.839858
v 0.124806 -0 0.90108
v 0.065925 0.101984 0.90108
v 0.065925 0.101984 1.061872
v 0.124806 -0 1.061872
v -0.051836 0.101984 0.90108
v -0.051836 0.101984 1.061872
v -0.110717 -0 0.90108
v -0.110717 -0 1.061872
v -0.110717 -0 0.90108
v -0.051836 -0.101985 0.90108
v -0.051836 -0.101985 1.061872
v -0.110717 -0 1.061872
v 0.065925 -0.101985 0.90108
v 0.065925 -0.101985 1.061872
v 0.154347 -0 0.90108
v 0.154347 -0 0.839858
v 0.080696 0.127567 0.839858
v 0.080696 0.127567 0.90108
v -0.066607 0.127567 0.839858
v -0.066607 0.127567 0.90108
v -0.140258 -0 0.839858
v -0.140258 -0 0.90108
v -0.140258 -0 0.90108
v -0.140258 -0 0.839858
v -0.066607 -0.127568 0.839858
v -0.066607 -0.127568 0.90108
v 0.080696 -0.127568 0.90108
v 0.080696 -0.127568 0.839858
v 0.080696 0.127567 0.839858
v 0.154347 -0 0.839858
v 0.124806 -0 0.839858
v 0.065925 0.101984 0.839858
v -0.066607 0.127567 0.839858
v -0.051836 0.101984 0.839858
v -0.140258 -0 0.839858
v -0.110717 -0 0.839858
v -0.066607 -0.127568 0.839858
v -0.051836 -0.101985 0.839858
v 0.080696 -0.127568 0.839858
v 0.065925 -0.101985 0.839858
v 0.154347 -0 0.90108
v 0.080696 0.127567 0.90108
v 0.065925 0.101984 0.90108
v 0.124806 -0 0.90108
v 0.080696 -0.127568 0.90108
v 0.065925 -0.101985 0.90108
v -0.066607 -0.127568 0.90108
v -0.051836 -0.101985 0.90108
v -0.140258 -0 0.90108
v -0.110717 -0 0.90108
v -0.066607 0.127567 0.90108
v -0.051836 0.101984 0.90108
v -0.026621 0.025613 -0.006412
v -0.008101 0.057689 -0.006412
v -0.008101 0.057689 -0.259409
v -0.026621 0.025613 -0.259409
v 0.028937 0.057689 -0.006412
v 0.028937 0.057689 -0.259409
v 0.047456 0.025613 -0.006412
v 0.047456 0.025613 -0.259409
v 0.028937 -0.006463 -0.006412
v 0.028937 -0.006463 -0.259409
v -0.008101 -0.006463 -0.006412
v -0.008101 -0.006463 -0.259409
v 0.093003 0.025613 -0.547151
v 0.05171 -0.045908 -0.547151
v -0.030875 -0.045908 -0.547151
v -0.072167 0.025613 -0.547151
v -0.030875 0.097134 -0.547151
v 0.05171 0.097134 -0.547151
v -0.030875 0.097134 -0.31072
v -0.072167 0.025613 -0.31072
v 0.05171 0.097134 -0.31072
v -0.030875 0.097134 -0.31072
v 0.093003 0.025613 -0.31072
v 0.05171 0.097134 -0.31072
v 0.05171 -0.045908 -0.31072
v -0.030875 -0.045908 -0.31072
v -0.030875 0.097134 -0.547151
v -0.072167 0.025613 -0.547151
v 0.05171 0.097134 -0.547151
v -0.030875 0.097134 -0.547151
v 0.093003 0.025613 -0.547151
v 0.05171 0.097134 -0.547151
v 0.05171 -0.045908 -0.547151
v -0.030875 -0.045908 -0.547151
vt 0.202807 0.507066
vt 0.144872 0.507066
vt 0.144872 0.304309
vt 0.202801 0.304309
vt 0.272114 0.507066
vt 0.272114 0.304309
vt 0.330024 0.507066
vt 0.330024 0.304309
vt 0.389577 0.507066
vt 0.328828 0.507066
vt 0.328828 0.304309
vt 0.389577 0.304309
vt 0.086963 0.507066
vt 0.086963 0.304309
vt 0.202807 0.533551
vt 0.144872 0.533551
vt 0.272114 0.533551
vt 0.330024 0.533551
vt 0.389577 0.533551
vt 0.328828 0.533551
vt 0.086963 0.533551
vt 0.511238 0.428127
vt 0.441479 0.428127
vt 0.408538 0.359941
vt 0.441479 0.294986
vt 0.511238 0.294986
vt 0.546117 0.359941
vt 0.202807 0.742928
vt 0.144872 0.742928
vt 0.272114 0.742928
vt 0.330024 0.742928
vt 0.389577 0.742928
vt 0.328828 0.742928
vt 0.086963 0.742928
vt 0.202807 0.766804
vt 0.144872 0.766804
vt 0.272114 0.766804
vt 0.330024 0.766804
vt 0.389577 0.766804
vt 0.328828 0.766804
vt 0.086963 0.766804
vt 0.017669 0.766804
vt 0.017669 0.742928
vt 0.144872 0.838515
vt 0.202807 0.838515
vt 0.272114 0.838515
vt 0.330024 0.838515
vt 0.328828 0.838515
vt 0.389577 0.838515
vt 0.086963 0.838515
vt 0.144872 0.870019
vt 0.202807 0.870019
vt 0.202801 0.96706
vt 0.144872 0.96706
vt 0.272114 0.870019
vt 0.272114 0.96706
vt 0.330024 0.870019
vt 0.330024 0.96706
vt 0.328828 0.870019
vt 0.389577 0.870019
vt 0.389577 0.96706
vt 0.328828 0.96706
vt 0.086963 0.870019
vt 0.086963 0.96706
vt 0.144872 0.870019
vt 0.144872 0.838515
vt 0.202807 0.838515
vt 0.202807 0.870019
vt 0.272114 0.838515
vt 0.272114 0.870019
vt 0.330024 0.838515
vt 0.330024 0.870019
vt 0.328828 0.870019
vt 0.328828 0.838515
vt 0.389577 0.838515
vt 0.389577 0.870019
vt 0.086963 0.870019
vt 0.086963 0.838515
vt 0.116861 0.285763
vt 0.15707 0.21612
vt 0.140943 0.21612
vt 0.108798 0.271796
vt 0.036445 0.285763
vt 0.044509 0.271796
vt -0.003763 0.21612
vt 0.012364 0.21612
vt 0.036445 0.146477
vt 0.044509 0.160444
vt 0.116861 0.146477
vt 0.108798 0.160444
vt 0.15707 0.21612
vt 0.116861 0.285763
vt 0.108798 0.271796
vt 0.140943 0.21612
vt 0.116861 0.146477
vt 0.108798 0.160444
vt 0.036445 0.146477
vt 0.044509 0.160444
vt -0.003763 0.21612
vt 0.012364 0.21612
vt 0.036445 0.285763
vt 0.044509 0.271796
vt 0.579608 0.964256
vt 0.539587 0.963943
vt 0.539587 0.845188
vt 0.579608 0.845215
vt 0.508714 0.963943
vt 0.508714 0.845188
vt 0.47615 0.964256
vt 0.47615 0.845215
vt 0.44145 0.964256
vt 0.44145 0.845215
vt 0.607588 0.964256
vt 0.607588 0.845215
vt 0.413827 0.519764
vt 0.447091 0.45372
vt 0.51362 0.45372
vt 0.546885 0.519764
vt 0.51362 0.585808
vt 0.447091 0.585808
vt 0.549781 0.803554
vt 0.58969 0.803554
vt 0.502086 0.802893
vt 0.549607 0.802893
vt 0.459348 0.803554
vt 0.502325 0.803554
vt 0.41944 0.803554
vt 0.629598 0.803554
vt 0.549781 0.61159
vt 0.58969 0.61159
vt 0.502086 0.61159
vt 0.549607 0.61159
vt 0.459348 0.61159
vt 0.502325 0.61159
vt 0.41944 0.61159
vt 0.629598 0.61159
vn 0.495119 0.84609 0.197457
vn 0.980295 -0.005741 0.197457
vn 0.981981 0.188982 -0
vn 0.327327 0.944911 0
vn -0.485176 0.851831 0.197457
vn -0.654654 0.755929 0
vn -0.860343 0.496719 0.11437
vn -0.866025 0.5 0
vn -0.860343 -0.496719 0.11437
vn -0.843065 -0.486744 0.22874
vn -0.866025 -0.5 0
vn -0.866025 -0.5 -0
vn 0.843065 -0.486744 0.228741
vn 0.866025 -0.5 -0
vn 0.488186 0.856815 0.165959
vn 0.986117 0.005626 0.165959
vn -0.497931 0.851189 0.165959
vn -0.846559 0.488761 0.210836
vn -0.846559 -0.488761 0.210836
vn -0.863458 -0.498517 0.076952
vn 0.863458 -0.498517 0.076952
vn 0 0 1
vn 0 0 1
vn 0 0 1
vn 0 0 1
vn 0 0 1
vn 0 0 1
vn 0.440799 0.62234 -0.64683
vn 0.759362 -0.070573 -0.64683
vn -0.318563 0.692913 -0.64683
vn -0.7905 0.456396 -0.408427
vn -0.7905 -0.456396 -0.408427
vn -0.57129 -0.329834 -0.751556
vn 0.427075 -0.347879 -0.834618
vn 0.514081 0.593609 -0.619152
vn 0.771121 -0.148402 -0.619152
vn -0.25704 0.742012 -0.619152
vn -0.711025 0.41051 -0.570899
vn -0.711024 -0.41051 -0.570899
vn -0.711024 -0.41051 -0.570899
vn 0.349645 -0.41039 -0.842216
vn 0 -0.348148 -0.93744
vn 0 -0.348148 -0.93744
vn 0.981981 0.188982 0
vn 0.327327 0.944911 0
vn -0.654654 0.755929 0
vn -0.866025 0.5 0
vn -0.866025 -0.5 0
vn -0.866025 -0.5 0
vn 0.866025 -0.5 -0
vn 0.981981 0.188982 0
vn 0.327327 0.944911 0
vn 0.654654 0.755929 0
vn 0.981981 -0.188982 0
vn -0.654654 0.755929 0
vn -0.327327 0.944911 0
vn -0.866025 0.5 0
vn -0.866025 0.5 0
vn -0.866025 -0.5 -0
vn -0.866025 -0.5 0
vn -0.866025 -0.5 -0
vn -0.866025 -0.5 -0
vn 0.866025 -0.5 0
vn 0.866025 -0.5 0
vn 0.981981 0.188982 -0
vn 0.981981 -0.188982 0
vn 0.654654 0.755929 -0
vn 0.327327 0.944911 -0
vn -0.327327 0.944911 -0
vn -0.654654 0.755929 0
vn -0.866026 0.5 0
vn -0.866026 0.5 0
vn -0.866025 -0.5 -0
vn -0.866025 -0.5 -0
vn -0.866025 -0.5 -0
vn -0.866025 -0.5 0
vn 0.866025 -0.5 -0
vn 0.866025 -0.5 0
vn 0 0 -1
vn 0 0 -1
vn 0 0 -1
vn 0 0 -1
vn 0 0 -1
vn 0 0 -1
vn 0 0 -1
vn 0 0 -1
vn 0 0 -1
vn 0 0 -1
vn 0 0 -1
vn 0 0 -1
vn 0 0 1
vn 0 0 1
vn 0 0 1
vn 0 0 1
vn 0 0 1
vn 0 0 1
vn 0 0 1
vn 0 0 1
vn 0 0 1
vn 0 0 1
vn 0 0 1
vn 0 0 1
vn -0.981981 0.188982 -0
vn -0.327327 0.944911 -0
vn -0.483252 0.79562 0.365317
vn -0.930653 -0.020698 0.365317
vn 0.654654 0.755929 0
vn 0.447401 0.816318 0.365317
vn 0.981981 -0.188982 0
vn 0.930653 0.020698 0.365317
vn 0.866025 -0.5 0
vn 0.846113 -0.488504 0.213208
vn -0.866025 -0.5 -0
vn -0.783343 -0.452263 0.426417
vn 0 0 -1
vn 0 0 -1
vn 0 0 -1
vn 0 0 -1
vn 0 0 -1
vn 0 0 -1
vn -0.783343 0.452264 0.426416
vn -0.930653 0.020698 0.365317
vn 0 0.904527 0.426416
vn 0 0.977007 0.213208
vn 0.930653 -0.020698 0.365317
vn 0.846113 0.488503 0.213208
vn 0.783343 -0.452264 0.426416
vn -0.846113 -0.488503 0.213208
vn -0.866025 0.5 -0
vn -0.981981 -0.188982 -0
vn 0 1 -0
vn 0 1 -0
vn 0.981981 0.188982 0
vn 0.866026 0.5 0
vn 0.866025 -0.5 0
vn -0.866025 -0.5 -0
usemtl datan_common_mop4-body_377aa272
f 1/1/1 2/2/2 3/3/3
f 3/3/3 4/4/4 1/1/1
f 5/5/5 1/1/1 4/4/4
f 4/4/4 6/6/6 5/5/5
f 7/7/7 5/5/5 6/6/6
f 6/6/6 8/8/8 7/7/7
f 9/9/9 10/10/10 11/11/11
f 11/11/11 12/12/12 9/9/9
f 2/2/2 13/13/13 14/14/14
f 14/14/14 3/3/3 2/2/2
f 15/15/15 16/16/16 2/2/2
f 2/2/2 1/1/1 15/15/15
f 17/17/17 15/15/15 1/1/1
f 1/1/1 5/5/5 17/17/17
f 18/18/18 17/17/17 5/5/5
f 5/5/5 7/7/7 18/18/18
f 19/19/19 20/20/20 10/10/10
f 10/10/10 9/9/9 19/19/19
f 16/16/16 21/21/21 13/13/13
f 13/13/13 2/2/2 16/16/16
f 22/22/22 23/23/23 24/24/24
f 24/24/24 25/25/25 26/26/26
f 22/22/22 24/24/24 26/26/26
f 22/22/22 26/26/26 27/27/27
f 28/28/28 29/29/29 16/16/16
f 16/16/16 15/15/15 28/28/28
f 30/30/30 28/28/28 15/15/15
f 15/15/15 17/17/17 30/30/30
f 31/31/31 30/30/30 17/17/17
f 17/17/17 18/18/18 31/31/31
f 32/32/32 33/33/33 20/20/20
f 20/20/20 19/19/19 32/32/32
f 29/29/29 34/34/34 21/21/21
f 21/21/21 16/16/16 29/29/29
f 35/35/35 36/36/36 29/29/29
f 29/29/29 28/28/28 35/35/35
f 37/37/37 35/35/35 28/28/28
f 28/28/28 30/30/30 37/37/37
f 38/38/38 37/37/37 30/30/30
f 30/30/30 31/31/31 38/38/38
f 39/39/39 40/40/40 33/33/33
f 33/33/33 32/32/32 39/39/39
f 41/41/41 42/42/42 43/43/43
f 43/43/43 34/34/34 41/41/41
f 36/36/36 41/41/41 34/34/34
f 34/34/34 29/29/29 36/36/36
f 44/44/44 36/36/36 35/35/35
f 35/35/35 45/45/45 44/44/44
f 45/45/45 35/35/35 37/37/37
f 37/37/37 46/46/46 45/45/45
f 46/46/46 37/37/37 38/38/38
f 38/38/38 47/47/47 46/46/46
f 48/48/48 40/40/40 39/39/39
f 39/39/39 49/49/49 48/48/48
f 50/50/50 41/41/41 36/36/36
f 36/36/36 44/44/44 50/50/50
f 51/51/51 52/52/52 53/53/53
f 53/53/53 54/54/54 51/51/51
f 52/52/52 55/55/55 56/56/56
f 56/56/56 53/53/53 52/52/52
f 55/55/55 57/57/57 58/58/58
f 58/58/58 56/56/56 55/55/55
f 59/59/59 60/60/60 61/61/61
f 61/61/61 62/62/62 59/59/59
f 63/63/63 51/51/51 54/54/54
f 54/54/54 64/64/64 63/63/63
f 65/65/65 66/66/66 67/67/67
f 67/67/67 68/68/68 65/65/65
f 68/68/68 67/67/67 69/69/69
f 69/69/69 70/70/70 68/68/68
f 70/70/70 69/69/69 71/71/71
f 71/71/71 72/72/72 70/70/70
f 73/73/73 74/74/74 75/75/75
f 75/75/75 76/76/76 73/73/73
f 77/77/77 78/78/78 66/66/66
f 66/66/66 65/65/65 77/77/77
f 79/79/79 80/80/80 81/81/81
f 81/81/81 82/82/82 79/79/79
f 83/83/83 79/79/79 82/82/82
f 82/82/82 84/84/84 83/83/83
f 85/85/85 83/83/83 84/84/84
f 84/84/84 86/86/86 85/85/85
f 87/87/87 85/85/85 86/86/86
f 86/86/86 88/88/88 87/87/87
f 89/89/89 87/87/87 88/88/88
f 88/88/88 90/90/90 89/89/89
f 80/80/80 89/89/89 90/90/90
f 90/90/90 81/81/81 80/80/80
f 91/91/91 92/92/92 93/93/93
f 93/93/93 94/94/94 91/91/91
f 95/95/95 91/91/91 94/94/94
f 94/94/94 96/96/96 95/95/95
f 97/97/97 95/95/95 96/96/96
f 96/96/96 98/98/98 97/97/97
f 99/99/99 97/97/97 98/98/98
f 98/98/98 100/100/100 99/99/99
f 101/101/101 99/99/99 100/100/100
f 100/100/100 102/102/102 101/101/101
f 92/92/92 101/101/101 102/102/102
f 102/102/102 93/93/93 92/92/92
f 103/103/103 104/104/104 105/105/105
f 105/105/105 106/106/106 103/103/103
f 104/104/104 107/107/107 108/108/108
f 108/108/108 105/105/105 104/104/104
f 107/107/107 109/109/109 110/110/110
f 110/110/110 108/108/108 107/107/107
f 109/109/109 111/111/111 112/112/112
f 112/112/112 110/110/110 109/109/109
f 113/113/113 103/103/103 106/106/106
f 106/106/106 114/114/114 113/113/113
f 115/115/115 116/116/116 117/117/117
f 117/117/117 118/118/118 119/119/119
f 115/115/115 117/117/117 119/119/119
f 115/115/115 119/119/119 120/120/120
f 106/106/106 105/105/105 121/121/121
f 121/121/121 122/122/122 106/106/106
f 105/105/105 108/108/108 123/123/123
f 123/123/123 124/124/124 105/105/105
f 108/108/108 110/110/110 125/125/125
f 125/125/125 126/126/126 108/108/108
f 110/110/110 112/112/112 127/127/127
f 127/127/127 125/125/125 110/110/110
f 114/114/114 106/106/106 122/122/122
f 122/122/122 128/128/128 114/114/114
f 122/122/122 121/121/121 129/129/129
f 129/129/129 130/130/130 122/122/122
f 124/124/124 123/123/123 131/131/131
f 131/131/131 132/132/132 124/124/124
f 126/126/126 125/125/125 133/133/133
f 133/133/133 134/134/134 126/126/126
f 125/125/125 127/127/127 135/135/135
f 135/135/135 133/133/133 125/125/125
f 128/128/128 122/122/122 130/130/130
f 130/130/130 136/136/136 128/128/128
