# Generated from Nova1492 GX by tools/nova1492/GxObjConverter
mtllib datan_common_mobbody38_3dd89a3f.mtl
o datan_common_mobbody38_3dd89a3f
v -0.12144 -0.012878 0.050051
v 0.12144 -0.012878 0.050051
v 0.12144 0.264152 -0.260089
v -0.12144 0.264152 -0.260089
v -0.12144 0.264152 -0.260089
v 0.12144 0.264152 -0.260089
v 0.12144 0.337355 -0.217562
v -0.12144 0.337355 -0.217562
v -0.12144 0.337355 -0.217562
v 0.12144 0.337355 -0.217562
v 0.134933 0.31384 -0.016318
v -0.134933 0.31384 -0.016318
v 0.094453 -0.013042 -0.309199
v 0.053973 0.280227 -0.387347
v 0.053973 0.280227 -0.387347
v 0.058291 0.489576 -0.326506
v 0.058291 0.489576 -0.326506
v 0.056672 0.576645 -0.05617
v -0.094453 -0.013042 -0.309199
v -0.053973 0.280227 -0.387347
v -0.053973 0.280227 -0.387347
v -0.058291 0.489576 -0.326506
v -0.058291 0.489576 -0.326506
v -0.056672 0.576645 -0.05617
v 0.053614 0.484748 -0.536654
v -0.001 0.629499 -0.536654
v -0.001 0.629499 -0.04513
v 0.053614 0.369881 -0.332379
v -0.055614 0.484748 -0.536654
v -0.055614 0.369881 -0.332379
v 0.02487 0.494803 -0.531034
v -0.001 0.615958 -0.528616
v -0.02687 0.494803 -0.531034
v 0.02487 0.53385 -0.870097
v -0.02687 0.53385 -0.870097
v -0.001 0.608104 -0.871327
v -0.586726 0.609283 0.160468
v -0.559839 0.648874 0.255253
v -0.288894 0.572047 0.255253
v -0.288603 0.507944 0.179573
v -0.586726 0.584772 0.349239
v -0.289913 0.507944 0.346668
v -0.700748 0.736216 0.255253
v -0.69367 0.467132 0.010017
v -0.68761 0.458725 0.576641
v -0.878839 0.461719 0.061459
v -0.982901 0.440266 0.259567
v -0.828167 0.451173 0.473526
v -0.324101 0.410596 0.220074
v -0.586726 0.537789 0.210713
v -0.586726 0.534697 0.30321
v -0.324101 0.410596 0.30195
v 0.557839 0.648874 0.255253
v 0.584726 0.609283 0.160468
v 0.286894 0.572047 0.255253
v 0.286603 0.507944 0.179573
v 0.584726 0.584772 0.349239
v 0.287913 0.507944 0.346668
v 0.698748 0.736216 0.255253
v 0.69167 0.467132 0.010017
v 0.68561 0.458725 0.576641
v 0.980901 0.440266 0.259567
v 0.876839 0.461719 0.061459
v 0.826167 0.451173 0.473526
v 0.584726 0.537789 0.210713
v 0.322101 0.410596 0.220074
v 0.322101 0.410596 0.30195
v 0.584726 0.534697 0.30321
vt 0.25582 0.007813
vt 0.25582 0.007813
vt 0.36918 0.007813
vt 0.36918 0.011641
vt 0.25582 0.007813
vt 0.25582 0.007813
vt 0.36918 0.007813
vt 0.36918 0.011641
vt 0.25582 0.011641
vt 0.25582 0.011641
vt 0.369121 0.004102
vt 0.369121 0.011758
vt 0.25582 0.238359
vt 0.36918 0.238359
vt 0.25582 0.238359
vt 0.36918 0.238359
vt 0.25582 0.238359
vt 0.36918 0.238359
vt 0.25582 0.238359
vt 0.36918 0.238359
vt 0.25582 0.238359
vt 0.36918 0.238359
vt 0.25582 0.238359
vt 0.36918 0.238359
vt 0.255879 0.131754
vt 0.255879 0.238242
vt 0.369121 0.238242
vt 0.300705 0.011758
vt 0.255879 0.124098
vt 0.300705 0.011758
vt 0.49618 0.261758
vt 0.494059 0.488242
vt 0.49618 0.261758
vt 0.252982 0.337219
vt 0.252982 0.337219
vt 0.255941 0.473064
vt 0.143999 0.359633
vt 0.153368 0.286345
vt 0.243958 0.286345
vt 0.244059 0.343318
vt 0.143999 0.198426
vt 0.243602 0.200621
vt 0.100436 0.278689
vt 0.102903 0.488118
vt 0.105015 0.011882
vt 0.038376 0.444186
vt 0.005941 0.28266
vt 0.056034 0.092286
vt 0.243388 0.403499
vt 0.130544 0.407984
vt 0.136979 0.152324
vt 0.243973 0.13702
vt 0.153368 0.286345
vt 0.143999 0.359633
vt 0.243958 0.286345
vt 0.244059 0.343318
vt 0.143999 0.198426
vt 0.243602 0.200621
vt 0.100436 0.278689
vt 0.102903 0.488118
vt 0.105015 0.011882
vt 0.005941 0.28266
vt 0.038376 0.444186
vt 0.056034 0.092286
vt 0.130544 0.407984
vt 0.243388 0.403499
vt 0.243973 0.13702
vt 0.136979 0.152324
vn -0.465755 0.659964 0.589508
vn 0.745653 0.496949 0.443896
vn 0.758742 0.567965 0.318947
vn -0.941698 0.330764 0.061643
vn -0.499995 -0.435032 0.748834
vn 0.864869 -0.252168 0.434065
vn 0.846658 -0.31335 0.430096
vn -0.995879 -0.087822 0.022626
vn -0.798966 -0.581893 -0.151835
vn 0.971728 -0.200082 -0.12535
vn 0.485804 -0.863812 -0.133507
vn -0.796772 -0.591721 -0.122563
vn 0.593134 -0.190057 -0.782349
vn 0.518072 -0.15275 -0.841587
vn 0.524875 0.266099 -0.808516
vn 0.544681 0.223664 -0.808268
vn 0.374096 0.883386 -0.282278
vn 0.76244 0.623015 -0.174749
vn -0.771434 -0.141368 -0.620407
vn -0.338388 -0.198407 -0.919852
vn -0.685881 0.240301 -0.686893
vn -0.354894 0.254151 -0.899699
vn -0.57645 0.778788 -0.247377
vn -0.588342 0.775297 -0.229712
vn 0.643788 -0.42212 -0.638241
vn 0 0.576754 -0.816918
vn 0 0.261408 0.965229
vn 0.548821 -0.824115 0.140109
vn -0.794575 -0.161154 -0.585388
vn -0.385309 -0.918133 -0.092567
vn 0.880554 -0.217759 0.420958
vn -0.604228 0.46469 0.647281
vn -0.445238 -0.818974 0.362002
vn 0.417335 -0.740536 -0.526724
vn -0.849191 -0.208889 -0.485017
vn 0.602784 0.524752 -0.601072
vn 0.183564 0.462002 -0.867674
vn 0.401874 0.911431 0.088267
vn 0.291012 0.956205 0.031366
vn 0.139571 0.228976 -0.963374
vn 0.284553 0.574732 0.767277
vn -0.054775 -0.103908 0.993078
vn -0.10252 0.99473 -0.001091
vn -0.041841 0.672405 -0.739
vn -0.01564 0.756497 0.65381
vn -0.482519 0.692071 -0.536855
vn -0.721065 0.688572 0.077034
vn -0.561611 0.646478 0.516391
vn -0.154641 -0.465788 -0.87128
vn -0.241909 -0.557914 -0.793859
vn -0.169443 -0.523461 0.835031
vn -0.166926 -0.362561 0.916889
vn -0.401874 0.911431 0.088267
vn -0.183564 0.462002 -0.867674
vn -0.291012 0.956205 0.031366
vn -0.139571 0.228976 -0.963374
vn -0.284553 0.574732 0.767277
vn 0.054775 -0.103908 0.993078
vn 0.10252 0.99473 -0.001091
vn 0.041841 0.672405 -0.739
vn 0.01564 0.756497 0.65381
vn 0.721065 0.688572 0.077034
vn 0.482519 0.692071 -0.536855
vn 0.561611 0.646478 0.516391
vn 0.241909 -0.557914 -0.793859
vn 0.154641 -0.465788 -0.87128
vn 0.166926 -0.362561 0.916889
vn 0.169443 -0.523461 0.835031
usemtl datan_common_mobbody38_3dd89a3f
f 1/1/1 2/2/2 3/3/3
f 3/3/3 4/4/4 1/1/1
f 5/5/5 6/6/6 7/7/7
f 7/7/7 8/8/8 5/5/5
f 9/9/9 10/10/10 11/11/11
f 11/11/11 12/12/12 9/9/9
f 3/3/3 13/13/13 14/14/14
f 13/13/13 3/3/3 2/2/2
f 7/7/7 15/15/15 16/16/16
f 15/15/15 7/7/7 6/6/6
f 10/10/10 17/17/17 18/18/18
f 18/18/18 11/11/11 10/10/10
f 13/13/13 19/19/19 20/20/20
f 20/20/20 14/14/14 13/13/13
f 15/15/15 21/21/21 22/22/22
f 22/22/22 16/16/16 15/15/15
f 17/17/17 23/23/23 24/24/24
f 24/24/24 18/18/18 17/17/17
f 20/20/20 19/19/19 4/4/4
f 1/1/1 4/4/4 19/19/19
f 21/21/21 5/5/5 8/8/8
f 8/8/8 22/22/22 21/21/21
f 24/24/24 9/9/9 12/12/12
f 9/9/9 24/24/24 23/23/23
f 25/25/25 26/26/26 27/27/27
f 27/27/27 28/28/28 25/25/25
f 29/29/29 30/30/30 27/27/27
f 27/27/27 26/26/26 29/29/29
f 25/25/25 28/28/28 30/30/30
f 30/30/30 29/29/29 25/25/25
f 27/27/27 30/30/30 28/28/28
f 26/26/26 25/25/25 29/29/29
f 31/31/31 32/32/32 33/33/33
f 34/34/34 35/35/35 36/36/36
f 31/31/31 33/33/33 34/34/34
f 35/35/35 34/34/34 33/33/33
f 32/32/32 31/31/31 36/36/36
f 34/34/34 36/36/36 31/31/31
f 33/33/33 32/32/32 35/35/35
f 36/36/36 35/35/35 32/32/32
f 37/37/37 38/38/38 39/39/39
f 39/39/39 40/40/40 37/37/37
f 39/39/39 41/41/41 42/42/42
f 41/41/41 39/39/39 38/38/38
f 37/37/37 43/43/43 38/38/38
f 43/43/43 37/37/37 44/44/44
f 43/43/43 45/45/45 41/41/41
f 41/41/41 38/38/38 43/43/43
f 46/46/46 47/47/47 43/43/43
f 43/43/43 44/44/44 46/46/46
f 43/43/43 48/48/48 45/45/45
f 48/48/48 43/43/43 47/47/47
f 49/49/49 50/50/50 37/37/37
f 37/37/37 40/40/40 49/49/49
f 51/51/51 52/52/52 42/42/42
f 42/42/42 41/41/41 51/51/51
f 53/53/53 54/54/54 55/55/55
f 56/56/56 55/55/55 54/54/54
f 57/57/57 55/55/55 58/58/58
f 55/55/55 57/57/57 53/53/53
f 59/59/59 54/54/54 53/53/53
f 54/54/54 59/59/59 60/60/60
f 61/61/61 59/59/59 57/57/57
f 53/53/53 57/57/57 59/59/59
f 62/62/62 63/63/63 59/59/59
f 60/60/60 59/59/59 63/63/63
f 64/64/64 59/59/59 61/61/61
f 59/59/59 64/64/64 62/62/62
f 65/65/65 66/66/66 54/54/54
f 56/56/56 54/54/54 66/66/66
f 67/67/67 68/68/68 58/58/58
