# Generated from Nova1492 GX by tools/nova1492/GxObjConverter
mtllib datan_common_mob11-legs_f0120930.mtl
o datan_common_mob11-legs_f0120930
v -0.043103 -0.343455 0.462858
v -0.043103 0.056841 0.342633
v -0.043103 -0.073904 -0.015406
v -0.043103 -0.287835 -0.015406
v -0.043103 -0.027615 -0.662002
v -0.043103 -0.334125 -0.662002
v -0.043103 -0.194231 -0.728357
v 0.043103 -0.343455 0.462858
v 0.043103 -0.287835 -0.015406
v 0.043103 -0.073904 -0.015406
v 0.043103 0.056841 0.342633
v 0.043103 -0.334125 -0.662002
v 0.043103 -0.027615 -0.662002
v 0.043103 -0.194231 -0.728357
v -0.043103 -0.027615 -0.662002
v -0.043103 -0.073904 -0.015406
v 0.043103 -0.073904 -0.015406
v 0.043103 -0.027615 -0.662002
v -0.043103 0.056841 0.342633
v 0.043103 0.056841 0.342633
v -0.050556 -0.40299 0.548974
v -0.050556 -0.247093 0.658135
v -0.050556 -0.143954 0.178809
v -0.050556 0.069548 0.529269
v -0.050556 0.13644 0.345485
v 0.050556 -0.143954 0.178809
v 0.050556 -0.247093 0.658135
v 0.050556 -0.40299 0.548974
v 0.050556 0.13644 0.345485
v 0.050556 0.069548 0.529269
v -0.050556 0.069548 0.529269
v -0.050556 -0.247093 0.658135
v 0.050556 -0.247093 0.658135
v 0.050556 0.069548 0.529269
v -0.050556 -0.40299 0.548974
v 0.050556 -0.40299 0.548974
v -0.046249 0.072004 0.689302
v -0.046249 0.217759 0.728357
v -0.046249 0.16462 0.34326
v -0.046249 0.40299 0.564748
v -0.046249 0.40299 0.409677
v 0.046249 0.16462 0.34326
v 0.046249 0.217759 0.728357
v 0.046249 0.072004 0.689302
v 0.046249 0.40299 0.409677
v 0.046249 0.40299 0.564748
v -0.046249 0.40299 0.564748
v -0.046249 0.217759 0.728357
v 0.046249 0.217759 0.728357
v 0.046249 0.40299 0.564748
v -0.046249 0.072004 0.689302
v 0.046249 0.072004 0.689302
v -0.34301 -0.241571 -0.568985
v -0.34301 -0.188748 -0.621808
v -0.182178 -0.188748 -0.621808
v -0.182178 -0.241571 -0.568985
v -0.34301 -0.188748 -0.621808
v -0.34301 -0.135924 -0.568985
v -0.182178 -0.135924 -0.568985
v -0.182178 -0.188748 -0.621808
v -0.34301 -0.135924 -0.568985
v -0.34301 -0.188748 -0.516162
v -0.182178 -0.188748 -0.516162
v -0.182178 -0.135924 -0.568985
v -0.34301 -0.188748 -0.516162
v -0.34301 -0.241571 -0.568985
v -0.182178 -0.241571 -0.568985
v -0.182178 -0.188748 -0.516162
v -0.043103 -0.027615 -0.662002
v -0.043103 -0.194231 -0.728357
v -0.043103 -0.334125 -0.662002
v -0.181466 0.021571 0.44591
v -0.181466 0.063534 0.522187
v -0.181466 0.195717 0.44591
v -0.181466 0.153754 0.522187
v -0.181466 0.063534 0.369632
v -0.181466 0.153754 0.369632
v -0.048518 -0.016338 0.44591
v -0.048518 0.043894 0.555396
v -0.048518 0.043894 0.336423
v -0.048518 0.173394 0.336423
v -0.048518 0.233626 0.44591
v -0.048518 0.173394 0.555396
v -0.181466 -0.279297 0.047608
v -0.181466 -0.237334 0.123885
v -0.181466 -0.105152 0.047608
v -0.181466 -0.147115 0.123885
v -0.181466 -0.237334 -0.02867
v -0.181466 -0.147115 -0.02867
v -0.048518 -0.317206 0.047608
v -0.048518 -0.256974 0.157094
v -0.048518 -0.256974 -0.061879
v -0.048518 -0.127475 -0.061879
v -0.048518 -0.067242 0.047608
v -0.048518 -0.127475 0.157094
v -0.181466 -0.279297 -0.569595
v -0.181466 -0.237334 -0.493318
v -0.181466 -0.105152 -0.569595
v -0.181466 -0.147115 -0.493318
v -0.181466 -0.237334 -0.645872
v -0.181466 -0.147115 -0.645872
v -0.048517 -0.317206 -0.569595
v -0.048517 -0.256974 -0.460108
v -0.048517 -0.256974 -0.679082
v -0.048517 -0.127475 -0.679082
v -0.048517 -0.067242 -0.569595
v -0.048517 -0.127475 -0.460108
v -0.347403 -0.241571 0.047523
v -0.347403 -0.188748 -0.005301
v -0.178161 -0.188748 -0.005301
v -0.178161 -0.241571 0.047523
v -0.347403 -0.188748 -0.005301
v -0.347403 -0.135924 0.047523
v -0.178161 -0.135924 0.047523
v -0.178161 -0.188748 -0.005301
v -0.347403 -0.135924 0.047523
v -0.347403 -0.188748 0.100346
v -0.178161 -0.188748 0.100346
v -0.178161 -0.135924 0.047523
v -0.347403 -0.188748 0.100346
v -0.347403 -0.241571 0.047523
v -0.178161 -0.241571 0.047523
v -0.178161 -0.188748 0.100346
v 0.175995 -0.241571 0.047523
v 0.175995 -0.188748 -0.005301
v 0.345236 -0.188748 -0.005301
v 0.345236 -0.241571 0.047523
v 0.175995 -0.188748 -0.005301
v 0.175995 -0.135924 0.047523
v 0.345236 -0.135924 0.047523
v 0.345236 -0.188748 -0.005301
v 0.175995 -0.135924 0.047523
v 0.175995 -0.188748 0.100346
v 0.345236 -0.188748 0.100346
v 0.345236 -0.135924 0.047523
v 0.175995 -0.188748 0.100346
v 0.175995 -0.241571 0.047523
v 0.345236 -0.241571 0.047523
v 0.345236 -0.188748 0.100346
v 0.043103 -0.194231 -0.728357
v 0.043103 -0.027615 -0.662002
v 0.043103 -0.334125 -0.662002
v 0.181466 0.063534 0.522187
v 0.181466 0.021571 0.44591
v 0.181466 0.195717 0.44591
v 0.181466 0.153754 0.522187
v 0.181466 0.063534 0.369632
v 0.181466 0.153754 0.369632
v 0.048518 0.043894 0.555396
v 0.048518 -0.016338 0.44591
v 0.048518 0.043894 0.336423
v 0.048518 0.173394 0.336423
v 0.048518 0.233626 0.44591
v 0.048518 0.173394 0.555396
v 0.181466 -0.237334 0.123885
v 0.181466 -0.279297 0.047608
v 0.181466 -0.105152 0.047608
v 0.181466 -0.147115 0.123885
v 0.181466 -0.237334 -0.02867
v 0.181466 -0.147115 -0.02867
v 0.048518 -0.256974 0.157094
v 0.048518 -0.317206 0.047608
v 0.048518 -0.256974 -0.061879
v 0.048518 -0.127475 -0.061879
v 0.048518 -0.067242 0.047608
v 0.048518 -0.127475 0.157094
v 0.181466 -0.237334 -0.493318
v 0.181466 -0.279297 -0.569595
v 0.181466 -0.105152 -0.569595
v 0.181466 -0.147115 -0.493318
v 0.181466 -0.237334 -0.645872
v 0.181466 -0.147115 -0.645872
v 0.048517 -0.256974 -0.460108
v 0.048517 -0.317206 -0.569595
v 0.048517 -0.256974 -0.679082
v 0.048517 -0.127475 -0.679082
v 0.048517 -0.067242 -0.569595
v 0.048517 -0.127475 -0.460108
v 0.172433 0.056212 0.445968
v 0.172433 0.109036 0.393145
v 0.285931 0.109036 0.393145
v 0.285931 0.056212 0.445968
v 0.172433 0.109036 0.393145
v 0.172433 0.161859 0.445968
v 0.285931 0.161859 0.445968
v 0.285931 0.109036 0.393145
v 0.172433 0.161859 0.445968
v 0.172433 0.109036 0.498791
v 0.285931 0.109036 0.498791
v 0.285931 0.161859 0.445968
v 0.172433 0.109036 0.498791
v 0.172433 0.056212 0.445968
v 0.285931 0.056212 0.445968
v 0.285931 0.109036 0.498791
v -0.288842 0.056212 0.445968
v -0.288842 0.109036 0.393145
v -0.175344 0.109036 0.393145
v -0.175344 0.056212 0.445968
v -0.288842 0.109036 0.393145
v -0.288842 0.161859 0.445968
v -0.175344 0.161859 0.445968
v -0.175344 0.109036 0.393145
v -0.288842 0.161859 0.445968
v -0.288842 0.109036 0.498791
v -0.175344 0.109036 0.498791
v -0.175344 0.161859 0.445968
v -0.288842 0.109036 0.498791
v -0.288842 0.056212 0.445968
v -0.175344 0.056212 0.445968
v -0.175344 0.109036 0.498791
v 0.180387 -0.241571 -0.568985
v 0.180387 -0.188748 -0.621808
v 0.34122 -0.188748 -0.621808
v 0.34122 -0.241571 -0.568985
v 0.180387 -0.188748 -0.621808
v 0.180387 -0.135924 -0.568985
v 0.34122 -0.135924 -0.568985
v 0.34122 -0.188748 -0.621808
v 0.180387 -0.135924 -0.568985
v 0.180387 -0.188748 -0.516162
v 0.34122 -0.188748 -0.516162
v 0.34122 -0.135924 -0.568985
v 0.180387 -0.188748 -0.516162
v 0.180387 -0.241571 -0.568985
v 0.34122 -0.241571 -0.568985
v 0.34122 -0.188748 -0.516162
vt 0.55116 0.05337
vt 0.594822 0.209445
vt 0.724849 0.158467
vt 0.724849 0.075056
vt 0.95967 0.176515
vt 0.95967 0.057008
vt 0.983768 0.111552
vt 0.55116 0.05337
vt 0.724849 0.075056
vt 0.724849 0.158467
vt 0.594822 0.209445
vt 0.95967 0.057008
vt 0.95967 0.176515
vt 0.983768 0.111552
vt 0.959132 0.233528
vt 0.724922 0.215563
vt 0.724922 0.1693
vt 0.959132 0.187266
vt 0.617824 0.256305
vt 0.617824 0.210042
vt 0.519886 0.030158
vt 0.480243 0.090941
vt 0.654317 0.131155
vt 0.527042 0.214399
vt 0.593786 0.24048
vt 0.654317 0.131155
vt 0.480243 0.090941
vt 0.519886 0.030158
vt 0.593786 0.24048
vt 0.527042 0.214399
vt 0.477754 0.214523
vt 0.439497 0.091189
vt 0.476147 0.091189
vt 0.514404 0.214523
vt 0.479227 0.029992
vt 0.515877 0.029992
vt 0.468924 0.215357
vt 0.45474 0.272186
vt 0.594594 0.251467
vt 0.514158 0.344407
vt 0.570474 0.344407
vt 0.594594 0.251467
vt 0.45474 0.272186
vt 0.468924 0.215357
vt 0.570474 0.344407
vt 0.514158 0.344407
vt 0.472613 0.345208
vt 0.412731 0.272557
vt 0.453506 0.2728
vt 0.512267 0.345208
vt 0.429017 0.214607
vt 0.466527 0.214996
vt 0.888102 0.255274
vt 0.888102 0.277654
vt 0.809676 0.277654
vt 0.809676 0.255274
vt 0.888074 0.277634
vt 0.888074 0.300949
vt 0.809647 0.300949
vt 0.809647 0.277634
vt 0.727974 0.301074
vt 0.727974 0.277759
vt 0.8064 0.277759
vt 0.8064 0.301074
vt 0.727836 0.277746
vt 0.727836 0.254431
vt 0.806262 0.254431
vt 0.806262 0.277746
vt 0.95967 0.176515
vt 0.983768 0.111552
vt 0.95967 0.057008
vt 0.557315 0.199066
vt 0.533361 0.213802
vt 0.557315 0.260219
vt 0.533361 0.245483
vt 0.581269 0.213802
vt 0.581269 0.245483
vt 0.557315 0.180912
vt 0.517554 0.204397
vt 0.597077 0.204397
vt 0.597077 0.254888
vt 0.557315 0.278373
vt 0.517554 0.254888
vt 0.701965 0.083744
vt 0.678648 0.097523
vt 0.701965 0.140925
vt 0.678648 0.127147
vt 0.725281 0.097523
vt 0.725281 0.127147
vt 0.701965 0.063604
vt 0.662203 0.087089
vt 0.741726 0.087089
vt 0.741726 0.13758
vt 0.701965 0.161065
vt 0.662203 0.13758
vt 0.926111 0.083452
vt 0.901576 0.097371
vt 0.926111 0.141218
vt 0.901576 0.127298
vt 0.950645 0.097371
vt 0.950645 0.127298
vt 0.926111 0.063604
vt 0.886349 0.087089
vt 0.965872 0.087089
vt 0.965872 0.13758
vt 0.926111 0.161065
vt 0.886349 0.13758
vt 0.888102 0.255274
vt 0.888102 0.277654
vt 0.809676 0.277654
vt 0.809676 0.255274
vt 0.888074 0.277634
vt 0.888074 0.300949
vt 0.809647 0.300949
vt 0.809647 0.277634
vt 0.727974 0.301074
vt 0.727974 0.277759
vt 0.8064 0.277759
vt 0.8064 0.301074
vt 0.727836 0.277746
vt 0.727836 0.254431
vt 0.806262 0.254431
vt 0.806262 0.277746
vt 0.888102 0.255274
vt 0.888102 0.277654
vt 0.809676 0.277654
vt 0.809676 0.255274
vt 0.888074 0.277634
vt 0.888074 0.300949
vt 0.809647 0.300949
vt 0.809647 0.277634
vt 0.727974 0.301074
vt 0.727974 0.277759
vt 0.8064 0.277759
vt 0.8064 0.301074
vt 0.727836 0.277746
vt 0.727836 0.254431
vt 0.806262 0.254431
vt 0.806262 0.277746
vt 0.983768 0.111552
vt 0.95967 0.176515
vt 0.95967 0.057008
vt 0.533361 0.213802
vt 0.557315 0.199066
vt 0.557315 0.260219
vt 0.533361 0.245483
vt 0.581269 0.213802
vt 0.581269 0.245483
vt 0.517554 0.204397
vt 0.557315 0.180912
vt 0.597077 0.204397
vt 0.597077 0.254888
vt 0.557315 0.278373
vt 0.517554 0.254888
vt 0.678648 0.097523
vt 0.701965 0.083744
vt 0.701965 0.140925
vt 0.678648 0.127147
vt 0.725281 0.097523
vt 0.725281 0.127147
vt 0.662203 0.087089
vt 0.701965 0.063604
vt 0.741726 0.087089
vt 0.741726 0.13758
vt 0.701965 0.161065
vt 0.662203 0.13758
vt 0.901576 0.097371
vt 0.926111 0.083452
vt 0.926111 0.141218
vt 0.901576 0.127298
vt 0.950645 0.097371
vt 0.950645 0.127298
vt 0.886349 0.087089
vt 0.926111 0.063604
vt 0.965872 0.087089
vt 0.965872 0.13758
vt 0.926111 0.161065
vt 0.886349 0.13758
vt 0.888102 0.255274
vt 0.888102 0.277654
vt 0.809676 0.277654
vt 0.809676 0.255274
vt 0.888074 0.277634
vt 0.888074 0.300949
vt 0.809647 0.300949
vt 0.809647 0.277634
vt 0.727974 0.301074
vt 0.727974 0.277759
vt 0.8064 0.277759
vt 0.8064 0.301074
vt 0.727836 0.277746
vt 0.727836 0.254431
vt 0.806262 0.254431
vt 0.806262 0.277746
vt 0.888102 0.255274
vt 0.888102 0.277654
vt 0.809676 0.277654
vt 0.809676 0.255274
vt 0.888074 0.277634
vt 0.888074 0.300949
vt 0.809647 0.300949
vt 0.809647 0.277634
vt 0.727974 0.301074
vt 0.727974 0.277759
vt 0.8064 0.277759
vt 0.8064 0.301074
vt 0.727836 0.277746
vt 0.727836 0.254431
vt 0.806262 0.254431
vt 0.806262 0.277746
vt 0.888102 0.255274
vt 0.888102 0.277654
vt 0.809676 0.277654
vt 0.809676 0.255274
vt 0.888074 0.277634
vt 0.888074 0.300949
vt 0.809647 0.300949
vt 0.809647 0.277634
vt 0.727974 0.301074
vt 0.727974 0.277759
vt 0.8064 0.277759
vt 0.8064 0.301074
vt 0.727836 0.277746
vt 0.727836 0.254431
vt 0.806262 0.254431
vt 0.806262 0.277746
vn -1 -0 -0
vn -1 -0 -0
vn -1 -0 -0
vn -1 -0 -0
vn -0.948683 0.117001 -0.293787
vn -0.707107 -0.30304 -0.63888
vn -0.338578 0.10544 -0.935012
vn 1 0 0
vn 1 0 0
vn 1 0 0
vn 1 0 0
vn 0.707107 -0.30304 -0.638879
vn 0.707107 0.261623 -0.656927
vn 0 -0.175286 -0.984518
vn 0 0.997447 0.071407
vn -0 0.97792 -0.208981
vn 0 0.997681 -0.068072
vn 0 0.997447 0.071407
vn -0 0.93933 -0.343014
vn -0 0.93933 -0.343015
vn -0.447214 -0.732818 -0.512814
vn -1 -0 -0
vn -0.655939 0.066457 -0.751882
vn -0.707107 0.664463 0.241845
vn -0.640689 0.765738 -0.056238
vn 0.655939 -0.369837 -0.658
vn 1 -0 -0
vn 0.707107 -0.579344 -0.405415
vn 0.640689 0.628401 -0.44117
vn 0.447214 0.840487 0.305912
vn -0 0.376954 0.926232
vn -0 -0.287635 0.95774
vn -0 0.067346 0.99773
vn -0 0.376954 0.926232
vn -0 -0.573576 0.819152
vn -0 -0.573576 0.819152
vn -0.447214 -0.864016 -0.231249
vn -1 -0 -0
vn -0.668186 -0.143389 -0.730046
vn -0.707107 0.707107 -0
vn -0.63014 0.714707 -0.303509
vn 0.668186 -0.555795 -0.49459
vn 1 0 0
vn 0.707107 -0.683065 -0.182818
vn 0.63014 0.484204 -0.607018
vn 0.447214 0.894427 0
vn 0 0.662009 0.749496
vn 0 0.053765 0.998554
vn 0 0.396688 0.917953
vn 0 0.662009 0.749496
vn -0 -0.25882 0.965926
vn 0 -0.258819 0.965926
vn -0.166082 -0.566597 -0.807084
vn -0.166082 -0.566597 -0.807084
vn -0.166082 -0.566597 -0.807084
vn -0.166082 -0.566597 -0.807084
vn -0.187278 0.369685 -0.910088
vn -0.187278 0.369685 -0.910088
vn -0.187278 0.369685 -0.910088
vn -0.187278 0.369685 -0.910088
vn -0.439658 0.867883 0.231256
vn -0.439658 0.867883 0.231256
vn -0.439658 0.867883 0.231256
vn -0.439658 0.867883 0.231256
vn -0.278257 -0.94929 0.14636
vn -0.278257 -0.94929 0.146361
vn -0.278257 -0.94929 0.14636
vn -0.278257 -0.94929 0.14636
vn -0.995981 -0.044995 -0.077438
vn -0.995981 -0.044995 -0.077438
vn -0.995981 -0.044995 -0.077438
vn -0.836158 -0.548288 0.014801
vn -0.803786 -0.265097 0.532589
vn -0.863365 0.473151 -0.175299
vn -0.677241 0.504736 0.535339
vn -0.587412 -0.525569 -0.615406
vn -0.74584 0.156988 -0.647362
vn -0.347793 -0.907214 -0.236649
vn -0.381521 -0.682297 0.623629
vn -0.342203 -0.32827 -0.880418
vn -0.361034 0.551692 -0.751858
vn -0.390613 0.916235 0.089077
vn -0.408126 0.285282 0.867206
vn -0.836158 -0.548288 0.014801
vn -0.803786 -0.265097 0.532589
vn -0.863365 0.473151 -0.175299
vn -0.67724 0.504736 0.535339
vn -0.587412 -0.525569 -0.615406
vn -0.74584 0.156988 -0.647362
vn -0.347793 -0.907214 -0.236649
vn -0.381521 -0.682297 0.623629
vn -0.342203 -0.328269 -0.880418
vn -0.361034 0.551692 -0.751858
vn -0.390613 0.916235 0.089078
vn -0.408126 0.285282 0.867206
vn -0.836158 -0.548288 0.014801
vn -0.803786 -0.265097 0.532589
vn -0.863365 0.473151 -0.175299
vn -0.677241 0.504736 0.535339
vn -0.587412 -0.525569 -0.615406
vn -0.74584 0.156988 -0.647362
vn -0.347793 -0.907214 -0.236649
vn -0.381521 -0.682296 0.623629
vn -0.342203 -0.328269 -0.880418
vn -0.361034 0.551692 -0.751858
vn -0.390613 0.916235 0.089078
vn -0.408126 0.285282 0.867206
vn -0.229887 -0.783711 -0.577017
vn -0.229887 -0.783711 -0.577017
vn -0.229887 -0.783711 -0.577017
vn -0.229887 -0.783711 -0.577017
vn -0.298924 0.589653 -0.750302
vn -0.298924 0.589653 -0.750302
vn -0.298924 0.589653 -0.750302
vn -0.298924 0.589653 -0.750302
vn -0.275893 0.544221 0.792279
vn -0.275893 0.544221 0.792279
vn -0.275893 0.544221 0.792279
vn -0.275893 0.544221 0.79228
vn -0.218903 -0.746267 0.628623
vn -0.218903 -0.746267 0.628623
vn -0.218903 -0.746267 0.628623
vn -0.218903 -0.746267 0.628623
vn 0.22809 -0.784051 -0.577268
vn 0.22809 -0.784051 -0.577268
vn 0.22809 -0.784051 -0.577268
vn 0.22809 -0.784052 -0.577268
vn 0.296678 0.590086 -0.750853
vn 0.296678 0.590086 -0.750853
vn 0.296678 0.590086 -0.750853
vn 0.296678 0.590086 -0.750853
vn 0.273789 0.544562 0.792775
vn 0.273789 0.544562 0.792775
vn 0.273789 0.544562 0.792775
vn 0.273789 0.544561 0.792775
vn 0.217184 -0.746561 0.628871
vn 0.217184 -0.746561 0.628871
vn 0.217184 -0.746561 0.628871
vn 0.217184 -0.746561 0.628871
vn 0.995981 -0.044995 -0.077438
vn 0.995981 -0.044995 -0.077438
vn 0.995981 -0.044995 -0.077438
vn 0.803786 -0.265097 0.532589
vn 0.836158 -0.548288 0.014801
vn 0.863365 0.473151 -0.175299
vn 0.677241 0.504736 0.535339
vn 0.587412 -0.525569 -0.615406
vn 0.74584 0.156988 -0.647362
vn 0.381521 -0.682297 0.623629
vn 0.347793 -0.907214 -0.236649
vn 0.342203 -0.32827 -0.880418
vn 0.361034 0.551692 -0.751858
vn 0.390613 0.916235 0.089077
vn 0.408126 0.285282 0.867206
vn 0.803786 -0.265097 0.532589
vn 0.836158 -0.548288 0.014801
vn 0.863365 0.473151 -0.175299
vn 0.67724 0.504736 0.535339
vn 0.587412 -0.525569 -0.615406
vn 0.74584 0.156988 -0.647362
vn 0.381521 -0.682297 0.623629
vn 0.347793 -0.907214 -0.236649
vn 0.342203 -0.328269 -0.880418
vn 0.361034 0.551692 -0.751858
vn 0.390613 0.916235 0.089078
vn 0.408126 0.285282 0.867206
vn 0.803786 -0.265097 0.532589
vn 0.836158 -0.548288 0.014801
vn 0.863365 0.473151 -0.175299
vn 0.677241 0.504735 0.535339
vn 0.587412 -0.525569 -0.615406
vn 0.74584 0.156988 -0.647362
vn 0.381521 -0.682296 0.623629
vn 0.347793 -0.907214 -0.236649
vn 0.342203 -0.328269 -0.880418
vn 0.361034 0.551692 -0.751858
vn 0.390613 0.916235 0.089078
vn 0.408126 0.285282 0.867206
vn 0.331346 -0.864677 -0.377549
vn 0.331346 -0.864677 -0.377549
vn 0.331346 -0.864677 -0.377549
vn 0.331346 -0.864677 -0.377549
vn 0.258373 0.920094 -0.2944
vn 0.258372 0.920094 -0.2944
vn 0.258373 0.920094 -0.2944
vn 0.258373 0.920094 -0.2944
vn 0.160138 0.57027 0.805697
vn 0.160138 0.57027 0.805697
vn 0.160138 0.57027 0.805697
vn 0.160138 0.57027 0.805697
vn 0.173753 -0.453423 0.874195
vn 0.173753 -0.453423 0.874195
vn 0.173753 -0.453423 0.874195
vn 0.173753 -0.453423 0.874195
vn -0.335085 -0.863466 -0.37702
vn -0.335085 -0.863466 -0.37702
vn -0.335085 -0.863466 -0.37702
vn -0.335085 -0.863466 -0.37702
vn -0.261431 0.91931 -0.294149
vn -0.261431 0.91931 -0.294149
vn -0.261431 0.91931 -0.294149
vn -0.261431 0.91931 -0.294149
vn -0.162119 0.570083 0.805433
vn -0.162119 0.570083 0.805433
vn -0.162119 0.570083 0.805433
vn -0.162119 0.570083 0.805433
vn -0.175892 -0.453248 0.873858
vn -0.175892 -0.453248 0.873858
vn -0.175892 -0.453248 0.873858
vn -0.175892 -0.453248 0.873858
vn 0.16498 -0.566703 -0.807236
vn 0.16498 -0.566703 -0.807236
vn 0.16498 -0.566703 -0.807236
vn 0.16498 -0.566703 -0.807235
vn 0.186045 0.369773 -0.910305
vn 0.186045 0.369773 -0.910305
vn 0.186045 0.369773 -0.910305
vn 0.186045 0.369773 -0.910305
vn 0.437235 0.869026 0.23156
vn 0.437235 0.869026 0.23156
vn 0.437235 0.869026 0.23156
vn 0.437235 0.869026 0.23156
vn 0.276505 -0.94979 0.146438
vn 0.276505 -0.94979 0.146438
vn 0.276505 -0.94979 0.146438
vn 0.276505 -0.94979 0.146438
usemtl datan_common_mob11-legs_f0120930
f 1/1/1 2/2/2 3/3/3
f 3/3/3 4/4/4 1/1/1
f 4/4/4 3/3/3 5/5/5
f 5/5/5 6/6/6 4/4/4
f 6/6/6 5/5/5 7/7/7
f 8/8/8 9/9/9 10/10/10
f 10/10/10 11/11/11 8/8/8
f 9/9/9 12/12/12 13/13/13
f 13/13/13 10/10/10 9/9/9
f 6/6/6 7/7/7 14/14/14
f 14/14/14 12/12/12 6/6/6
f 7/7/7 5/5/5 13/13/13
f 13/13/13 14/14/14 7/7/7
f 15/15/15 16/16/16 17/17/17
f 17/17/17 18/18/18 15/15/15
f 16/16/16 19/19/19 20/20/20
f 20/20/20 17/17/17 16/16/16
f 21/21/21 22/22/22 23/23/23
f 22/22/22 24/24/24 25/25/25
f 25/25/25 23/23/23 22/22/22
f 26/26/26 27/27/27 28/28/28
f 27/27/27 26/26/26 29/29/29
f 29/29/29 30/30/30 27/27/27
f 21/21/21 23/23/23 26/26/26
f 26/26/26 28/28/28 21/21/21
f 23/23/23 25/25/25 29/29/29
f 29/29/29 26/26/26 23/23/23
f 25/25/25 24/24/24 30/30/30
f 30/30/30 29/29/29 25/25/25
f 31/31/31 32/32/32 33/33/33
f 33/33/33 34/34/34 31/31/31
f 32/32/32 35/35/35 36/36/36
f 36/36/36 33/33/33 32/32/32
f 37/37/37 38/38/38 39/39/39
f 38/38/38 40/40/40 41/41/41
f 41/41/41 39/39/39 38/38/38
f 42/42/42 43/43/43 44/44/44
f 43/43/43 42/42/42 45/45/45
f 45/45/45 46/46/46 43/43/43
f 37/37/37 39/39/39 42/42/42
f 42/42/42 44/44/44 37/37/37
f 39/39/39 41/41/41 45/45/45
f 45/45/45 42/42/42 39/39/39
f 41/41/41 40/40/40 46/46/46
f 46/46/46 45/45/45 41/41/41
f 47/47/47 48/48/48 49/49/49
f 49/49/49 50/50/50 47/47/47
f 48/48/48 51/51/51 52/52/52
f 52/52/52 49/49/49 48/48/48
f 53/53/53 54/54/54 55/55/55
f 55/55/55 56/56/56 53/53/53
f 57/57/57 58/58/58 59/59/59
f 59/59/59 60/60/60 57/57/57
f 61/61/61 62/62/62 63/63/63
f 63/63/63 64/64/64 61/61/61
f 65/65/65 66/66/66 67/67/67
f 67/67/67 68/68/68 65/65/65
f 69/69/69 70/70/70 71/71/71
f 72/72/72 73/73/73 74/74/74
f 75/75/75 74/74/74 73/73/73
f 76/76/76 72/72/72 77/77/77
f 74/74/74 77/77/77 72/72/72
f 78/78/78 79/79/79 72/72/72
f 73/73/73 72/72/72 79/79/79
f 80/80/80 78/78/78 76/76/76
f 72/72/72 76/76/76 78/78/78
f 81/81/81 80/80/80 77/77/77
f 76/76/76 77/77/77 80/80/80
f 82/82/82 81/81/81 74/74/74
f 77/77/77 74/74/74 81/81/81
f 83/83/83 82/82/82 75/75/75
f 74/74/74 75/75/75 82/82/82
f 79/79/79 83/83/83 73/73/73
f 75/75/75 73/73/73 83/83/83
f 84/84/84 85/85/85 86/86/86
f 87/87/87 86/86/86 85/85/85
f 88/88/88 84/84/84 89/89/89
f 86/86/86 89/89/89 84/84/84
f 90/90/90 91/91/91 84/84/84
f 85/85/85 84/84/84 91/91/91
f 92/92/92 90/90/90 88/88/88
f 84/84/84 88/88/88 90/90/90
f 93/93/93 92/92/92 89/89/89
f 88/88/88 89/89/89 92/92/92
f 94/94/94 93/93/93 86/86/86
f 89/89/89 86/86/86 93/93/93
f 95/95/95 94/94/94 87/87/87
f 86/86/86 87/87/87 94/94/94
f 91/91/91 95/95/95 85/85/85
f 87/87/87 85/85/85 95/95/95
f 96/96/96 97/97/97 98/98/98
f 99/99/99 98/98/98 97/97/97
f 100/100/100 96/96/96 101/101/101
f 98/98/98 101/101/101 96/96/96
f 102/102/102 103/103/103 96/96/96
f 97/97/97 96/96/96 103/103/103
f 104/104/104 102/102/102 100/100/100
f 96/96/96 100/100/100 102/102/102
f 105/105/105 104/104/104 101/101/101
f 100/100/100 101/101/101 104/104/104
f 106/106/106 105/105/105 98/98/98
f 101/101/101 98/98/98 105/105/105
f 107/107/107 106/106/106 99/99/99
f 98/98/98 99/99/99 106/106/106
f 103/103/103 107/107/107 97/97/97
f 99/99/99 97/97/97 107/107/107
f 108/108/108 109/109/109 110/110/110
f 110/110/110 111/111/111 108/108/108
f 112/112/112 113/113/113 114/114/114
f 114/114/114 115/115/115 112/112/112
f 116/116/116 117/117/117 118/118/118
f 118/118/118 119/119/119 116/116/116
f 120/120/120 121/121/121 122/122/122
f 122/122/122 123/123/123 120/120/120
f 124/124/124 125/125/125 126/126/126
f 126/126/126 127/127/127 124/124/124
f 128/128/128 129/129/129 130/130/130
f 130/130/130 131/131/131 128/128/128
f 132/132/132 133/133/133 134/134/134
f 134/134/134 135/135/135 132/132/132
f 136/136/136 137/137/137 138/138/138
f 138/138/138 139/139/139 136/136/136
f 140/140/140 141/141/141 142/142/142
f 143/143/143 144/144/144 145/145/145
f 145/145/145 146/146/146 143/143/143
f 144/144/144 147/147/147 148/148/148
f 148/148/148 145/145/145 144/144/144
f 149/149/149 150/150/150 144/144/144
f 144/144/144 143/143/143 149/149/149
f 150/150/150 151/151/151 147/147/147
f 147/147/147 144/144/144 150/150/150
f 151/151/151 152/152/152 148/148/148
f 148/148/148 147/147/147 151/151/151
f 152/152/152 153/153/153 145/145/145
f 145/145/145 148/148/148 152/152/152
f 153/153/153 154/154/154 146/146/146
f 146/146/146 145/145/145 153/153/153
f 154/154/154 149/149/149 143/143/143
f 143/143/143 146/146/146 154/154/154
f 155/155/155 156/156/156 157/157/157
f 157/157/157 158/158/158 155/155/155
f 156/156/156 159/159/159 160/160/160
f 160/160/160 157/157/157 156/156/156
f 161/161/161 162/162/162 156/156/156
f 156/156/156 155/155/155 161/161/161
f 162/162/162 163/163/163 159/159/159
f 159/159/159 156/156/156 162/162/162
f 163/163/163 164/164/164 160/160/160
f 160/160/160 159/159/159 163/163/163
f 164/164/164 165/165/165 157/157/157
f 157/157/157 160/160/160 164/164/164
f 165/165/165 166/166/166 158/158/158
f 158/158/158 157/157/157 165/165/165
f 166/166/166 161/161/161 155/155/155
f 155/155/155 158/158/158 166/166/166
f 167/167/167 168/168/168 169/169/169
f 169/169/169 170/170/170 167/167/167
f 168/168/168 171/171/171 172/172/172
f 172/172/172 169/169/169 168/168/168
f 173/173/173 174/174/174 168/168/168
f 168/168/168 167/167/167 173/173/173
f 174/174/174 175/175/175 171/171/171
f 171/171/171 168/168/168 174/174/174
f 175/175/175 176/176/176 172/172/172
f 172/172/172 171/171/171 175/175/175
f 176/176/176 177/177/177 169/169/169
f 169/169/169 172/172/172 176/176/176
f 177/177/177 178/178/178 170/170/170
f 170/170/170 169/169/169 177/177/177
f 178/178/178 173/173/173 167/167/167
f 167/167/167 170/170/170 178/178/178
f 179/179/179 180/180/180 181/181/181
f 181/181/181 182/182/182 179/179/179
f 183/183/183 184/184/184 185/185/185
f 185/185/185 186/186/186 183/183/183
f 187/187/187 188/188/188 189/189/189
f 189/189/189 190/190/190 187/187/187
f 191/191/191 192/192/192 193/193/193
f 193/193/193 194/194/194 191/191/191
f 195/195/195 196/196/196 197/197/197
f 197/197/197 198/198/198 195/195/195
f 199/199/199 200/200/200 201/201/201
f 201/201/201 202/202/202 199/199/199
f 203/203/203 204/204/204 205/205/205
f 205/205/205 206/206/206 203/203/203
f 207/207/207 208/208/208 209/209/209
f 209/209/209 210/210/210 207/207/207
f 211/211/211 212/212/212 213/213/213
f 213/213/213 214/214/214 211/211/211
f 215/215/215 216/216/216 217/217/217
f 217/217/217 218/218/218 215/215/215
f 219/219/219 220/220/220 221/221/221
f 221/221/221 222/222/222 219/219/219
f 223/223/223 224/224/224 225/225/225
f 225/225/225 226/226/226 223/223/223
