# Generated from Nova1492 GX by tools/nova1492/GxObjConverter
mtllib datan_common_mobbody1_ad1aaa9c.mtl
o datan_common_mobbody1_ad1aaa9c_mesh00
v -0.11301 0.000006 0.091412
v -0.11301 0.066026 0.091412
v -0 0.066026 -0.110947
v -0 0.000006 -0.110947
v 0.11301 0.000006 0.091412
v -0 0.000006 -0.110947
v 0.11301 0.066026 0.091412
v -0.11301 0.066026 0.091412
v -0.11301 0.000006 0.091412
v 0.11301 0.000006 0.091412
vt 0.523281 0.523281
vt 0.976719 0.523281
vt 0.976719 0.976719
vt 0.523281 0.976719
vt 0.523281 0.523281
vt 0.976719 0.523281
vt 0.523281 0.976719
vt 0.523281 0.523281
vt 0.976719 0.523281
vt 0.976719 0.976719
vn -0.873078 0 -0.487581
vn -0.873078 0 -0.487581
vn 0 0 -1
vn -0.873078 0 -0.487581
vn 0.873078 0 -0.487581
vn 0.873078 0 -0.487581
vn 0.862433 0 0.506171
vn 0 0 1
vn 0 0 1
vn 0 0 1
usemtl datan_common_mobbody1_ad1aaa9c
f 1/1/1 2/2/2 3/3/3
f 3/3/3 4/4/4 1/1/1
f 5/5/5 6/6/6 3/3/3
f 3/3/3 7/7/7 5/5/5
f 8/8/8 9/9/9 10/10/10
f 10/10/10 7/7/7 8/8/8
o datan_common_mobbody1_ad1aaa9c_mesh01
v -0.151607 0.194931 0.283903
v -0.151607 0.036317 0.287895
v 0.155403 0.036317 0.287895
v 0.155403 0.194931 0.283903
v -0.218126 -0.000295 -0.089888
v -0.218126 0.227052 -0.09561
v 0.221922 0.227052 -0.09561
v 0.221922 -0.000295 -0.089888
v -0.218126 0.227052 -0.09561
v -0.151607 0.194931 0.283903
v 0.155403 0.194931 0.283903
v 0.221922 0.227052 -0.09561
v -0.218126 0.227052 -0.09561
v -0.218126 -0.000295 -0.089888
v -0.151607 0.036317 0.287895
v -0.151607 0.194931 0.283903
v 0.221922 0.227052 -0.09561
v 0.155403 0.194931 0.283903
v 0.155403 0.036317 0.287895
v 0.221922 -0.000295 -0.089888
vt 0.523516 0.22661
vt 0.523516 0.031646
vt 0.976484 0.031646
vt 0.976485 0.226609
vt 0.523515 0.023391
vt 0.523516 0.218354
vt 0.976484 0.218354
vt 0.976484 0.02339
vt 0.476719 0.023515
vt 0.424133 0.476485
vt 0.075867 0.476485
vt 0.023281 0.023515
vt 0.976484 0.476609
vt 0.976484 0.273391
vt 0.523516 0.273391
vt 0.523516 0.47661
vt 0.976484 0.476609
vt 0.523516 0.47661
vt 0.523516 0.273391
vt 0.976484 0.273391
vn 0 0.02516 0.999683
vn 0 0.02516 0.999683
vn 0 0.02516 0.999683
vn 0 0.02516 0.999683
vn 0 -0.025161 -0.999683
vn 0 -0.025161 -0.999683
vn 0 -0.025161 -0.999683
vn 0 -0.025161 -0.999683
vn 0 0.996437 0.084336
vn 0 0.996437 0.084336
vn 0 0.996437 0.084336
vn 0 0.996437 0.084336
vn -0.984913 0.004354 0.172999
vn -0.984913 0.004354 0.172999
vn -0.984913 0.004354 0.172999
vn -0.984913 0.004354 0.172999
vn 0.984913 0.004354 0.172999
vn 0.984913 0.004354 0.172999
vn 0.984913 0.004354 0.172999
vn 0.984913 0.004354 0.172999
usemtl datan_common_mobbody1_ad1aaa9c
f 11/11/11 12/12/12 13/13/13
f 13/13/13 14/14/14 11/11/11
f 15/15/15 16/16/16 17/17/17
f 17/17/17 18/18/18 15/15/15
f 19/19/19 20/20/20 21/21/21
f 21/21/21 22/22/22 19/19/19
f 23/23/23 24/24/24 25/25/25
f 25/25/25 26/26/26 23/23/23
f 27/27/27 28/28/28 29/29/29
f 29/29/29 30/30/30 27/27/27
o datan_common_mobbody1_ad1aaa9c_mesh02
v 0.159996 0.085066 0.001397
v -0.031466 0.178454 0.000902
v -0.002245 -0.00245 0.406172
v -0.179443 0.025225 -0.00084
v -0.079435 -0.162864 -0.001421
v 0.130349 -0.12588 -0.000039
v 0.130349 -0.12588 -0.000039
vt 0.025886 0.624597
vt 0.126597 0.630087
vt 0.244948 0.964037
vt 0.201957 0.637616
vt 0.28794 0.637616
vt 0.378612 0.630087
vt 0.023281 0.630087
vn 0.865065 0.460571 -0.198838
vn -0.127514 0.747666 -0.651717
vn -0.005525 -0.006032 0.999967
vn -0.744211 0.109076 -0.658978
vn -0.427783 -0.878169 -0.214059
vn 0.063092 -0.322574 -0.944439
vn 0.929566 -0.132985 0.343834
usemtl datan_common_mobbody1_ad1aaa9c
f 31/31/31 32/32/32 33/33/33
f 32/32/32 34/34/34 33/33/33
f 34/34/34 35/35/35 33/33/33
f 35/35/35 36/36/36 33/33/33
f 37/37/37 31/31/31 33/33/33
f 36/36/36 35/35/35 34/34/34
f 36/36/36 34/34/34 32/32/32
f 36/36/36 32/32/32 31/31/31
