# Generated from Nova1492 GX by tools/nova1492/GxObjConverter
mtllib datan_common_mobbody39_e43eb367.mtl
o datan_common_mobbody39_e43eb367
v -0.216433 0.264432 -1.158398
v 0 0.253094 0.375972
v 0.216433 0.264432 -1.158398
v -0.230321 0.253094 0.267053
v -0.322485 0.253094 0.054597
v -0.2943 0 0.372937
v 0 0 0.493957
v 0.412064 0 0.136874
v 0.230461 0.173836 -1.323304
v 0.322485 0.253094 0.054597
v -0.230461 0.173836 -1.323304
v -0.412064 0 0.136874
v 0.2943 0 0.372937
v 0.230322 0.253094 0.267053
vt 0.634676 0.888414
vt 0.75 0.086599
vt 0.865324 0.888414
vt 0.626784 0.144603
vt 0.574416 0.257747
vt 0.563675 0.063542
vt 0.742344 0.023765
vt 0.976484 0.213929
vt 0.888608 0.976234
vt 0.940897 0.257746
vt 0.626705 0.976235
vt 0.523516 0.213929
vt 0.936325 0.078855
vt 0.888529 0.12929
vn -0.331109 0.924237 -0.190137
vn -0 0.812523 0.582929
vn 0.39054 0.911876 -0.126336
vn -0.381155 0.850273 0.362983
vn -0.765156 0.610518 0.204459
vn -0.633667 0.428712 0.64395
vn 0 0.422516 0.906355
vn 0.931931 0.352923 0.083369
vn 0.381797 0.823373 -0.419867
vn 0.765157 0.610517 0.204458
vn -0.589541 0.728054 -0.349828
vn -0.931931 0.352923 0.083369
vn 0.633668 0.42871 0.64395
vn 0.381156 0.850273 0.362983
usemtl datan_common_mobbody39_e43eb367
f 1/1/1 2/2/2 3/3/3
f 4/4/4 1/1/1 5/5/5
f 6/6/6 7/7/7 2/2/2
f 2/2/2 4/4/4 6/6/6
f 8/8/8 9/9/9 3/3/3
f 3/3/3 10/10/10 8/8/8
f 9/9/9 11/11/11 1/1/1
f 1/1/1 3/3/3 9/9/9
f 1/1/1 12/12/12 5/5/5
f 12/12/12 1/1/1 11/11/11
f 2/2/2 13/13/13 14/14/14
