# Generated from Nova1492 GX by tools/nova1492/GxObjConverter
mtllib datan_common_mobbody33_1f9c2800.mtl
o datan_common_mobbody33_1f9c2800
v 0.132613 0 0.285968
v 0.167017 0.212081 0.142984
v -0.167017 0.212081 0.142984
v -0.132613 0 0.285968
v 0.167017 0.212081 -0.142984
v -0.167017 0.212081 -0.142984
v 0.132613 -0 -0.285968
v -0.132613 0 -0.285968
v 0.098209 -0.212081 -0.142984
v -0.098209 -0.212081 -0.142984
v 0.098209 -0.212081 0.142984
v -0.098209 -0.212081 0.142984
v 0.151893 0.211403 -0.042469
v 0.009235 0.212111 -0.135842
v 0.009235 0.679497 0.030931
v 0.137617 0.602559 0.060029
v -0.133423 0.211403 -0.042469
v -0.119147 0.602559 0.060029
v -0.078933 0.210256 0.10861
v -0.066331 0.474487 0.106916
v 0.097403 0.210256 0.10861
v 0.084801 0.474487 0.106916
v -0.126906 0.807806 0.760876
v -0.077815 0.683962 0.811309
v 0.081046 0.683962 0.811309
v 0.001615 0.884345 0.729706
v 0.130136 0.807806 0.760876
v 0.130136 0.591688 0.059036
v 0.001615 0.668228 0.027866
v 0.001615 0.803027 0.596922
v 0.088454 0.751311 0.617983
v -0.126906 0.591688 0.059036
v -0.085224 0.751311 0.617983
v -0.077815 0.467845 0.109469
v -0.052054 0.667633 0.65206
v 0.081045 0.467845 0.109469
v 0.055284 0.667633 0.65206
v 0.001615 0.884345 0.729706
v 0.130136 0.807806 0.760876
v -0.126906 0.807806 0.760876
v -0.077815 0.683962 0.811309
v 0.081046 0.683962 0.811309
vt 0.738201 0.83227
vt 0.628713 0.975628
vt 0.628713 0.975628
vt 0.738201 0.83227
vt 0.511641 0.83227
vt 0.511641 0.83227
vt 0.511641 0.514927
vt 0.511641 0.514927
vt 0.628713 0.356255
vt 0.628713 0.356255
vt 0.738201 0.514927
vt 0.738201 0.514927
vt 0.840749 0.523281
vt 0.761758 0.523281
vt 0.767521 0.976719
vt 0.854168 0.976719
vt 0.848405 0.523281
vt 0.854168 0.976719
vt 0.980947 0.523281
vt 0.98671 0.976719
vt 0.988603 0.523281
vt 0.98671 0.976719
vt 0.761641 0.275835
vt 0.828788 0.023281
vt 0.982834 0.073556
vt 0.856748 0.476719
vt 0.988359 0.387061
vt 0.2621 0.161051
vt 0.262311 0.226609
vt 0.439081 0.198585
vt 0.438938 0.12863
vt 0.2621 0.145739
vt 0.438938 0.12863
vt 0.261758 0.0302
vt 0.438707 0.040217
vt 0.261758 0.0302
vt 0.438707 0.040217
vt 0.488242 0.2198
vt 0.488031 0.13893
vt 0.488031 0.13893
vt 0.487689 0.023391
vt 0.487689 0.023391
vn 0 0.219263 0.975666
vn 0 0.951309 0.308238
vn -0.359057 0.712188 0.603214
vn -0.819454 -0.248951 0.516254
vn 0 0.787374 -0.616476
vn -0.637268 0.72267 -0.267652
vn 0 -0.219263 -0.975666
vn -0.61991 0.074972 -0.781083
vn 0 -0.559014 -0.829158
vn -0.668695 -0.487173 -0.561702
vn 0 -0.559014 0.829158
vn -0.668695 -0.487173 0.561702
vn 0.782671 0.206818 -0.587071
vn -0.147606 0.313015 -0.938208
vn 0.180249 0.307083 -0.934457
vn 0.986185 0.118412 0.115837
vn -0.996602 0.068961 0.045048
vn -0.824444 0.201418 -0.528888
vn -0.372606 0.023718 0.927687
vn -0.673491 -0.026351 0.738726
vn 0.590389 -0.005154 0.807102
vn 0.215611 0.016543 0.976339
vn 0.000002 0.377159 0.926149
vn 0 0.377156 0.92615
vn -0.000001 0.377158 0.926149
vn -0.000001 0.37716 0.926148
vn -0.000006 0.377158 0.926149
vn 0.829337 0.550548 -0.095379
vn -0.207206 0.951953 -0.225501
vn 0.000106 0.9245 -0.381183
vn 0.94537 0.267415 -0.186453
vn -0.995133 0.084941 0.049952
vn -0.943737 0.269922 -0.191057
vn -0.371685 -0.865318 0.336267
vn -0.569641 -0.807084 0.155323
vn 0.743368 -0.61547 0.261916
vn 0.562238 -0.813098 0.150862
vn 0.206932 0.834331 -0.510951
vn 0.963067 -0.035434 -0.266921
vn -0.810377 0.424239 -0.404117
vn -0.709659 -0.703251 -0.042687
vn 0.354831 -0.934142 0.038383
usemtl datan_common_mobbody33_1f9c2800
f 1/1/1 2/2/2 3/3/3
f 1/1/1 3/3/3 4/4/4
f 2/2/2 5/5/5 6/6/6
f 2/2/2 6/6/6 3/3/3
f 5/5/5 7/7/7 8/8/8
f 5/5/5 8/8/8 6/6/6
f 7/7/7 9/9/9 10/10/10
f 7/7/7 10/10/10 8/8/8
f 11/11/11 1/1/1 4/4/4
f 11/11/11 4/4/4 12/12/12
f 4/4/4 3/3/3 6/6/6
f 4/4/4 6/6/6 8/8/8
f 4/4/4 8/8/8 10/10/10
f 4/4/4 10/10/10 12/12/12
f 13/13/13 14/14/14 15/15/15
f 13/13/13 15/15/15 16/16/16
f 14/14/14 17/17/17 18/18/18
f 14/14/14 18/18/18 15/15/15
f 17/17/17 19/19/19 20/20/20
f 17/17/17 20/20/20 18/18/18
f 19/19/19 21/21/21 22/22/22
f 19/19/19 22/22/22 20/20/20
f 21/21/21 13/13/13 16/16/16
f 21/21/21 16/16/16 22/22/22
f 23/23/23 24/24/24 25/25/25
f 26/26/26 23/23/23 25/25/25
f 27/27/27 26/26/26 25/25/25
f 28/28/28 29/29/29 30/30/30
f 28/28/28 30/30/30 31/31/31
f 29/29/29 32/32/32 33/33/33
f 29/29/29 33/33/33 30/30/30
f 32/32/32 34/34/34 35/35/35
f 32/32/32 35/35/35 33/33/33
f 34/34/34 36/36/36 37/37/37
f 34/34/34 37/37/37 35/35/35
f 36/36/36 28/28/28 31/31/31
f 36/36/36 31/31/31 37/37/37
f 31/31/31 30/30/30 38/38/38
f 31/31/31 38/38/38 39/39/39
f 30/30/30 33/33/33 40/40/40
f 30/30/30 40/40/40 38/38/38
f 33/33/33 35/35/35 41/41/41
f 33/33/33 41/41/41 40/40/40
f 35/35/35 37/37/37 42/42/42
