# Generated from Nova1492 GX by tools/nova1492/GxObjConverter
mtllib datan_common_moblegs37x_995eadd0.mtl
o datan_common_moblegs37x_995eadd0
v -0.178668 -0.07787 0.141695
v -0.178668 0.112413 -0.048588
v -0.178668 -0.112413 -0.273414
v -0.178668 -0.302696 -0.083132
v -0.126715 0.273552 -0.268015
v -0.126715 0.107014 -0.434553
v 0.178668 -0.07787 0.141695
v 0.178668 -0.302696 -0.083132
v 0.178668 -0.112413 -0.273414
v 0.178668 0.112413 -0.048588
v 0.126715 0.107014 -0.434553
v 0.126715 0.273552 -0.268015
v -0.178668 -0.07787 0.141695
v -0.178668 -0.302696 -0.083132
v 0.178668 -0.302696 -0.083132
v 0.178668 -0.07787 0.141695
v -0.178668 -0.302696 -0.083132
v -0.178668 -0.112413 -0.273414
v 0.178668 -0.112413 -0.273414
v -0.126715 0.107014 -0.434553
v -0.126715 0.273552 -0.268015
v 0.126715 0.273552 -0.268015
v -0.126715 0.273552 -0.268015
v -0.178668 0.112413 -0.048588
v 0.178668 0.112413 -0.048588
v 0.126715 0.273552 -0.268015
v -0.178668 -0.07787 0.141695
v 0.178668 -0.07787 0.141695
v -0.000031 -0.591772 0.325876
v -0.000031 -0.198498 -0.14281
v 0.146086 -0.117246 -0.074632
v 0.146086 -0.510521 0.394054
v -0.146148 -0.510521 0.394054
v -0.000031 -0.42927 0.462232
v -0.000031 -0.035995 -0.006454
v -0.146148 -0.117246 -0.074632
v 0.146086 -0.510521 0.394054
v 0.146086 -0.117246 -0.074632
v -0.146148 -0.510521 0.394054
vt 0.050477 0.93981
vt 0.162512 0.93981
vt 0.162512 0.532638
vt 0.050477 0.532638
vt 0.282203 0.885043
vt 0.282203 0.587404
vt 0.050477 0.93981
vt 0.050477 0.532638
vt 0.162512 0.532638
vt 0.162512 0.93981
vt 0.282203 0.587404
vt 0.282203 0.885043
vt 0.046649 0.93981
vt 0.046649 0.532638
vt 0.046649 0.532638
vt 0.042821 0.93981
vt 0.050477 0.524982
vt 0.162512 0.524982
vt 0.162512 0.524982
vt 0.286031 0.587404
vt 0.286031 0.885043
vt 0.286031 0.885043
vt 0.282203 0.900356
vt 0.170168 0.93981
vt 0.170168 0.93981
vt 0.282203 0.900356
vt 0.050477 0.955123
vt 0.050477 0.955123
vt 0.738359 0.273391
vt 0.511641 0.273391
vt 0.511641 0.367344
vt 0.738359 0.367344
vt 0.738359 0.382656
vt 0.738359 0.476609
vt 0.511641 0.47661
vt 0.511641 0.367344
vt 0.738359 0.382656
vt 0.511641 0.382656
vt 0.738359 0.367344
vn -1 0 0
vn -0.991917 0.089722 -0.089722
vn -0.997986 0.044861 -0.044861
vn -1 0 0
vn -0.981869 0.13404 -0.13404
vn -0.868299 -0.143184 -0.474926
vn 1 0 0
vn 0.707107 -0.499999 -0.500001
vn 0.997986 0.044861 -0.044861
vn 0.991917 0.089722 -0.089722
vn 0.603345 -0.064097 -0.794901
vn 0.981869 0.13404 -0.13404
vn 0 -0.707108 0.707105
vn 0 -0.707108 0.707105
vn 0 -0.707108 0.707105
vn 0 -0.707108 0.707105
vn 0 -0.707105 -0.707109
vn 0 -0.631924 -0.77503
vn 0 -0.670424 -0.741978
vn 0 0.707107 -0.707107
vn 0 0.707107 -0.707107
vn 0 0.707107 -0.707107
vn 0 0.806009 0.591903
vn 0 0.741977 0.670425
vn 0 0.77503 0.631925
vn 0 0.806009 0.591903
vn 0 0.707107 0.707107
vn 0 0.707107 0.707107
vn 0.23518 -0.744558 -0.624759
vn -0.235179 -0.744558 -0.624759
vn 0.587445 -0.619932 -0.520185
vn 0.587443 -0.619933 -0.520186
vn -0.587443 0.619933 0.520186
vn 0 0.766044 0.642788
vn 0 0.766044 0.642788
vn -1 0.000001 0.000001
vn 0.587443 0.619933 0.520186
vn 0.587443 0.619933 0.520186
vn -0.587445 -0.619932 -0.520185
usemtl datan_common_moblegs37x_995eadd0
f 1/1/1 2/2/2 3/3/3
f 3/3/3 4/4/4 1/1/1
f 2/2/2 5/5/5 6/6/6
f 6/6/6 3/3/3 2/2/2
f 7/7/7 8/8/8 9/9/9
f 9/9/9 10/10/10 7/7/7
f 10/10/10 9/9/9 11/11/11
f 11/11/11 12/12/12 10/10/10
f 13/13/13 14/14/14 15/15/15
f 15/15/15 16/16/16 13/13/13
f 17/17/17 18/18/18 19/19/19
f 19/19/19 8/8/8 17/17/17
f 18/18/18 6/6/6 11/11/11
f 11/11/11 19/19/19 18/18/18
f 20/20/20 21/21/21 22/22/22
f 22/22/22 11/11/11 20/20/20
f 23/23/23 24/24/24 25/25/25
f 25/25/25 26/26/26 23/23/23
f 24/24/24 27/27/27 28/28/28
f 28/28/28 25/25/25 24/24/24
f 29/29/29 30/30/30 31/31/31
f 31/31/31 32/32/32 29/29/29
f 33/33/33 34/34/34 35/35/35
f 35/35/35 36/36/36 33/33/33
f 37/37/37 38/38/38 35/35/35
f 35/35/35 34/34/34 37/37/37
f 30/30/30 29/29/29 39/39/39
