# Generated from Nova1492 GX by tools/nova1492/GxObjConverter
mtllib datan_common_mobbody35x_3835dfdc.mtl
o datan_common_mobbody35x_3835dfdc
v -0.595225 0.114166 0.21524
v 0.000009 0.242132 0.363755
v 0.000009 0.242132 -0.363755
v -0.595225 0.114166 -0.21524
v -0.66583 0.000009 0.288421
v 0.000009 0.000009 0.487432
v 0.000009 0.000009 -0.487432
v -0.66583 0.000009 -0.288421
v 0.595225 0.114166 0.21524
v -0.000009 0.242132 -0.363755
v -0.000009 0.242132 0.363755
v 0.595225 0.114166 -0.21524
v 0.66583 0.000009 0.288421
v -0.000009 0.000009 0.487432
v -0.000009 0.000009 -0.487432
v 0.66583 0.000009 -0.288421
v 0.357878 1.01038 -0.553311
v 0.466492 1.01038 -0.553311
v 0.499771 0.928183 -0.608409
v 0.324599 0.928183 -0.608409
v 0.450844 0.845987 -0.663507
v 0.373526 0.845987 -0.663507
v 0.318835 0.103131 -0.102633
v 0.505535 0.103131 -0.102633
v 0.527005 0.223494 -0.059783
v 0.297365 0.223494 -0.059783
v 0.527005 0.330949 -0.07584
v 0.297365 0.330949 -0.07584
v 0.47425 0.519137 -0.349742
v 0.35012 0.519137 -0.349742
v 0.6064 0.049756 -0.35916
v 0.651069 0.157844 -0.375311
v 0.497908 -0.003619 -0.615687
v 0.517625 0.092193 -0.69084
v 0.651069 0.265299 -0.391368
v 0.517625 0.199648 -0.706897
v 0.512283 0.460349 -0.475211
v 0.456367 0.401561 -0.60068
v 0.326462 -0.003619 -0.615687
v 0.306745 0.092193 -0.69084
v 0.306745 0.199648 -0.706897
v 0.368003 0.401561 -0.60068
v 0.21797 0.049756 -0.35916
v 0.173301 0.157844 -0.375311
v 0.173301 0.265299 -0.391368
v 0.312087 0.460349 -0.475211
v 0.417014 1.004439 -1.159682
v 0.305237 1.109475 -1.121452
v 0.417014 1.214511 -1.083222
v 0.528791 1.109475 -1.121452
v 0.498603 0.917778 -0.594767
v 0.417014 0.841109 -0.622672
v 0.417014 0.994446 -0.566862
v 0.335425 0.917778 -0.594767
v -0.413395 1.004439 -1.159682
v -0.525172 1.109475 -1.121452
v -0.413395 1.214511 -1.083222
v -0.301618 1.109475 -1.121452
v -0.331806 0.917778 -0.594767
v -0.413395 0.841109 -0.622672
v -0.413395 0.994446 -0.566862
v -0.494984 0.917778 -0.594767
v -0.470226 1.01038 -0.553311
v -0.361612 1.01038 -0.553311
v -0.328333 0.928183 -0.608409
v -0.503505 0.928183 -0.608409
v -0.37726 0.845987 -0.663507
v -0.454578 0.845987 -0.663507
v -0.509269 0.103131 -0.102633
v -0.322569 0.103131 -0.102633
v -0.301099 0.223494 -0.059783
v -0.530739 0.223494 -0.059783
v -0.301099 0.330949 -0.07584
v -0.530739 0.330949 -0.07584
v -0.353854 0.519137 -0.349742
v -0.477984 0.519137 -0.349742
v -0.221704 0.049756 -0.35916
v -0.177035 0.157844 -0.375311
v -0.330196 -0.003619 -0.615687
v -0.310479 0.092193 -0.69084
v -0.177035 0.265299 -0.391368
v -0.310479 0.199648 -0.706897
v -0.315821 0.460349 -0.475211
v -0.371737 0.401561 -0.60068
v -0.501642 -0.003619 -0.615687
v -0.521359 0.092193 -0.69084
v -0.521359 0.199648 -0.706897
v -0.460101 0.401561 -0.60068
v -0.610134 0.049756 -0.35916
v -0.654803 0.157844 -0.375311
v -0.654803 0.265299 -0.391368
v -0.516017 0.460349 -0.475211
vt 0.945895 0.64699
vt 0.520972 0.573272
vt 0.520972 0.926729
vt 0.945895 0.860666
vt 0.981812 0.610665
vt 0.511641 0.511882
vt 0.511641 0.988118
vt 0.981812 0.896991
vt 0.945895 0.64699
vt 0.520972 0.926729
vt 0.520972 0.573272
vt 0.945895 0.860666
vt 0.981812 0.610665
vt 0.511641 0.511882
vt 0.511641 0.988118
vt 0.981812 0.896991
vt 0.011883 0.487848
vt 0.011883 0.487848
vt 0.004921 0.378631
vt 0.012577 0.370975
vt 0.013272 0.261758
vt 0.013272 0.261758
vt 0.486729 0.488242
vt 0.486729 0.488242
vt 0.373759 0.4958
vt 0.366103 0.488144
vt 0.245477 0.488045
vt 0.245477 0.488045
vt 0.124852 0.487947
vt 0.124852 0.487947
vt 0.487423 0.371369
vt 0.366797 0.37127
vt 0.488117 0.262152
vt 0.367492 0.262053
vt 0.246172 0.371172
vt 0.246867 0.261955
vt 0.125547 0.371074
vt 0.126241 0.261856
vt 0.488117 0.262152
vt 0.367492 0.262053
vt 0.246867 0.261955
vt 0.126241 0.261856
vt 0.487423 0.371369
vt 0.366797 0.37127
vt 0.246172 0.371172
vt 0.125547 0.371074
vt 0.761758 0.25793
vt 0.875 0.25793
vt 0.988242 0.257929
vt 0.878828 0.261758
vt 0.878828 0.488242
vt 0.761758 0.488242
vt 0.988242 0.488242
vt 0.878828 0.488242
vt 0.761758 0.25793
vt 0.875 0.25793
vt 0.988242 0.257929
vt 0.878828 0.261758
vt 0.878828 0.488242
vt 0.761758 0.488242
vt 0.988242 0.488242
vt 0.878828 0.488242
vt 0.011883 0.487848
vt 0.011883 0.487848
vt 0.004921 0.378631
vt 0.012577 0.370975
vt 0.013272 0.261758
vt 0.013272 0.261758
vt 0.486729 0.488242
vt 0.486729 0.488242
vt 0.373759 0.4958
vt 0.366103 0.488144
vt 0.245477 0.488045
vt 0.245477 0.488045
vt 0.124852 0.487947
vt 0.124852 0.487947
vt 0.487423 0.371369
vt 0.366797 0.37127
vt 0.488117 0.262152
vt 0.367492 0.262053
vt 0.246172 0.371172
vt 0.246867 0.261955
vt 0.125547 0.371074
vt 0.126241 0.261856
vt 0.488117 0.262152
vt 0.367492 0.262053
vt 0.246867 0.261955
vt 0.126241 0.261856
vt 0.487423 0.371369
vt 0.366797 0.37127
vt 0.246172 0.371172
vt 0.125547 0.371074
vn -0.547932 0.821549 0.15757
vn -0.289025 0.762999 0.578185
vn -0.275048 0.906005 -0.321721
vn -0.466293 0.75002 -0.469085
vn -0.535423 0.606035 0.588255
vn -0.257217 0.439588 0.860582
vn -0.266367 0.530279 -0.804893
vn -0.724187 0.62905 -0.282577
vn 0.547932 0.821549 0.15757
vn 0.275048 0.906005 -0.321721
vn 0.289025 0.762999 0.578185
vn 0.466293 0.75002 -0.469085
vn 0.535423 0.606035 0.588255
vn 0.257217 0.439588 0.860582
vn 0.266367 0.530279 -0.804893
vn 0.724187 0.62905 -0.282577
vn -0.73421 0.676928 -0.051998
vn 0.421673 0.668821 0.612266
vn 0.668142 0.438325 -0.601214
vn -0.60209 0.374046 -0.705391
vn 0.430551 0.196308 -0.880959
vn -0.227649 0.057686 -0.972033
vn -0.329215 -0.368265 0.869482
vn 0.65843 -0.353921 0.664236
vn 0.559146 -0.146204 0.816076
vn -0.542882 -0.118572 0.831396
vn 0.562082 0.469742 0.680739
vn -0.566993 0.514978 0.642897
vn 0.592352 0.563574 0.575764
vn -0.545244 0.58968 0.595808
vn 0.919466 -0.388761 -0.058715
vn 0.98101 -0.192756 0.02157
vn 0.331602 -0.623556 -0.707968
vn 0.543537 -0.361847 -0.757387
vn 0.958067 0.274944 -0.080703
vn 0.539361 0.232088 -0.80946
vn 0.956747 0.23506 -0.171415
vn 0.501112 0.190035 -0.844259
vn -0.663206 -0.541627 -0.516524
vn -0.554967 -0.387482 -0.736118
vn -0.489268 0.20169 -0.848492
vn -0.479188 0.223818 -0.848696
vn -0.917866 -0.351896 0.18355
vn -0.981064 -0.19131 0.030235
vn -0.95731 0.26438 -0.116884
vn -0.944335 0.298386 -0.138554
vn 0.241664 -0.460673 -0.854037
vn -0.881909 -0.150193 -0.446855
vn -0.241662 0.901861 -0.358116
vn 0.881908 0.402289 -0.245768
vn 0.947448 -0.314222 -0.060062
vn -0.315816 -0.907763 -0.276093
vn 0.315815 0.872856 0.371998
vn -0.947447 0.279318 0.155968
vn 0.241664 -0.460673 -0.854037
vn -0.881909 -0.150193 -0.446855
vn -0.241662 0.901861 -0.358116
vn 0.881908 0.402289 -0.245768
vn 0.947448 -0.314222 -0.060062
vn -0.315816 -0.907763 -0.276093
vn 0.315815 0.872856 0.371998
vn -0.947447 0.279318 0.155968
vn -0.73421 0.676928 -0.051998
vn 0.421673 0.668821 0.612266
vn 0.668142 0.438325 -0.601214
vn -0.60209 0.374046 -0.705391
vn 0.430551 0.196308 -0.880959
vn -0.227649 0.057686 -0.972033
vn -0.329215 -0.368265 0.869482
vn 0.65843 -0.353921 0.664236
vn 0.559146 -0.146204 0.816076
vn -0.542882 -0.118572 0.831396
vn 0.562082 0.469742 0.680739
vn -0.566993 0.514978 0.642897
vn 0.592352 0.563574 0.575764
vn -0.545244 0.58968 0.595808
vn 0.919466 -0.388761 -0.058715
vn 0.98101 -0.192756 0.02157
vn 0.331602 -0.623556 -0.707968
vn 0.543537 -0.361847 -0.757387
vn 0.958067 0.274944 -0.080703
vn 0.539361 0.232088 -0.80946
vn 0.956747 0.23506 -0.171415
vn 0.501112 0.190035 -0.844259
vn -0.663206 -0.541627 -0.516524
vn -0.554967 -0.387482 -0.736118
vn -0.489268 0.20169 -0.848492
vn -0.479188 0.223818 -0.848696
vn -0.917866 -0.351896 0.18355
vn -0.981064 -0.19131 0.030235
vn -0.95731 0.26438 -0.116884
vn -0.944335 0.298386 -0.138554
usemtl datan_common_mobbody35x_3835dfdc
f 1/1/1 2/2/2 3/3/3
f 3/3/3 4/4/4 1/1/1
f 5/5/5 6/6/6 2/2/2
f 2/2/2 1/1/1 5/5/5
f 7/7/7 8/8/8 4/4/4
f 4/4/4 3/3/3 7/7/7
f 8/8/8 5/5/5 1/1/1
f 1/1/1 4/4/4 8/8/8
f 9/9/9 10/10/10 11/11/11
f 10/10/10 9/9/9 12/12/12
f 13/13/13 11/11/11 14/14/14
f 11/11/11 13/13/13 9/9/9
f 15/15/15 12/12/12 16/16/16
f 12/12/12 15/15/15 10/10/10
f 16/16/16 9/9/9 13/13/13
f 9/9/9 16/16/16 12/12/12
f 17/17/17 18/18/18 19/19/19
f 19/19/19 20/20/20 17/17/17
f 20/20/20 19/19/19 21/21/21
f 21/21/21 22/22/22 20/20/20
f 23/23/23 24/24/24 25/25/25
f 25/25/25 26/26/26 23/23/23
f 26/26/26 25/25/25 27/27/27
f 27/27/27 28/28/28 26/26/26
f 28/28/28 27/27/27 29/29/29
f 29/29/29 30/30/30 28/28/28
f 30/30/30 29/29/29 18/18/18
f 18/18/18 17/17/17 30/30/30
f 24/24/24 31/31/31 32/32/32
f 32/32/32 25/25/25 24/24/24
f 31/31/31 33/33/33 34/34/34
f 34/34/34 32/32/32 31/31/31
f 25/25/25 32/32/32 35/35/35
f 35/35/35 27/27/27 25/25/25
f 32/32/32 34/34/34 36/36/36
f 36/36/36 35/35/35 32/32/32
f 27/27/27 35/35/35 37/37/37
f 37/37/37 29/29/29 27/27/27
f 35/35/35 36/36/36 38/38/38
f 38/38/38 37/37/37 35/35/35
f 29/29/29 37/37/37 19/19/19
f 19/19/19 18/18/18 29/29/29
f 37/37/37 38/38/38 21/21/21
f 21/21/21 19/19/19 37/37/37
f 33/33/33 39/39/39 40/40/40
f 40/40/40 34/34/34 33/33/33
f 34/34/34 40/40/40 41/41/41
f 41/41/41 36/36/36 34/34/34
f 36/36/36 41/41/41 42/42/42
f 42/42/42 38/38/38 36/36/36
f 38/38/38 42/42/42 22/22/22
f 22/22/22 21/21/21 38/38/38
f 39/39/39 43/43/43 44/44/44
f 44/44/44 40/40/40 39/39/39
f 43/43/43 23/23/23 26/26/26
f 26/26/26 44/44/44 43/43/43
f 40/40/40 44/44/44 45/45/45
f 45/45/45 41/41/41 40/40/40
f 44/44/44 26/26/26 28/28/28
f 28/28/28 45/45/45 44/44/44
f 41/41/41 45/45/45 46/46/46
f 46/46/46 42/42/42 41/41/41
f 45/45/45 28/28/28 30/30/30
f 30/30/30 46/46/46 45/45/45
f 42/42/42 46/46/46 20/20/20
f 20/20/20 22/22/22 42/42/42
f 46/46/46 30/30/30 17/17/17
f 17/17/17 20/20/20 46/46/46
f 47/47/47 48/48/48 49/49/49
f 49/49/49 50/50/50 47/47/47
f 47/47/47 50/50/50 51/51/51
f 51/51/51 52/52/52 47/47/47
f 50/50/50 49/49/49 53/53/53
f 53/53/53 51/51/51 50/50/50
f 49/49/49 48/48/48 54/54/54
f 54/54/54 53/53/53 49/49/49
f 48/48/48 47/47/47 52/52/52
f 52/52/52 54/54/54 48/48/48
f 55/55/55 56/56/56 57/57/57
f 57/57/57 58/58/58 55/55/55
f 55/55/55 58/58/58 59/59/59
f 59/59/59 60/60/60 55/55/55
f 58/58/58 57/57/57 61/61/61
f 61/61/61 59/59/59 58/58/58
f 57/57/57 56/56/56 62/62/62
f 62/62/62 61/61/61 57/57/57
f 56/56/56 55/55/55 60/60/60
f 60/60/60 62/62/62 56/56/56
f 63/63/63 64/64/64 65/65/65
f 65/65/65 66/66/66 63/63/63
f 66/66/66 65/65/65 67/67/67
f 67/67/67 68/68/68 66/66/66
f 69/69/69 70/70/70 71/71/71
f 71/71/71 72/72/72 69/69/69
f 72/72/72 71/71/71 73/73/73
f 73/73/73 74/74/74 72/72/72
f 74/74/74 73/73/73 75/75/75
f 75/75/75 76/76/76 74/74/74
f 76/76/76 75/75/75 64/64/64
f 64/64/64 63/63/63 76/76/76
f 70/70/70 77/77/77 78/78/78
f 78/78/78 71/71/71 70/70/70
f 77/77/77 79/79/79 80/80/80
f 80/80/80 78/78/78 77/77/77
f 71/71/71 78/78/78 81/81/81
f 81/81/81 73/73/73 71/71/71
f 78/78/78 80/80/80 82/82/82
f 82/82/82 81/81/81 78/78/78
f 73/73/73 81/81/81 83/83/83
f 83/83/83 75/75/75 73/73/73
f 81/81/81 82/82/82 84/84/84
f 84/84/84 83/83/83 81/81/81
f 75/75/75 83/83/83 65/65/65
f 65/65/65 64/64/64 75/75/75
f 83/83/83 84/84/84 67/67/67
f 67/67/67 65/65/65 83/83/83
f 79/79/79 85/85/85 86/86/86
f 86/86/86 80/80/80 79/79/79
f 80/80/80 86/86/86 87/87/87
f 87/87/87 82/82/82 80/80/80
f 82/82/82 87/87/87 88/88/88
f 88/88/88 84/84/84 82/82/82
f 84/84/84 88/88/88 68/68/68
f 68/68/68 67/67/67 84/84/84
f 85/85/85 89/89/89 90/90/90
f 90/90/90 86/86/86 85/85/85
f 89/89/89 69/69/69 72/72/72
f 72/72/72 90/90/90 89/89/89
f 86/86/86 90/90/90 91/91/91
f 91/91/91 87/87/87 86/86/86
f 90/90/90 72/72/72 74/74/74
f 74/74/74 91/91/91 90/90/90
f 87/87/87 91/91/91 92/92/92
