# Generated from Nova1492 GX by tools/nova1492/GxObjConverter
mtllib datan_common_mobbody36_8c297da6.mtl
o datan_common_mobbody36_8c297da6
v -0.520222 0.274574 -0.261093
v -0.147162 0.322289 0.622447
v -0.138727 0.274448 -0.601443
v -0.367449 0.24383 -0.678562
v 0.000008 0.346382 0.674851
v -0 0.298541 -0.640705
v -0.515331 0.000097 -0.170066
v -0.138097 0.000097 0.656643
v -0.139481 0.15019 0.766426
v -0.515669 0.126242 -0.044511
v -0.000003 0.000097 0.71586
v 0.000001 0.162283 0.832748
v -0.000003 0.048676 -0.761301
v -0.138097 0.048676 -0.722421
v -0.139481 0.15019 -0.776828
v 0.000002 0.162283 -0.81531
v -0.290322 0.048676 -0.770766
v -0.291154 0.137559 -0.832748
v 0.147162 0.322289 0.622447
v 0.520222 0.274574 -0.261093
v 0.138727 0.274448 -0.601443
v 0.367449 0.24383 -0.678562
v -0.000008 0.346382 0.674851
v 0.138097 0.000097 0.656643
v 0.515331 0.000097 -0.170066
v 0.139481 0.15019 0.766426
v 0.515669 0.126242 -0.044511
v 0.000003 0.000097 0.71586
v -0.000002 0.162283 0.832748
v 0.138097 0.048676 -0.722421
v 0.000003 0.048676 -0.761301
v 0.139481 0.15019 -0.776828
v -0.000002 0.162283 -0.81531
v 0.290322 0.048676 -0.770766
v 0.291154 0.137559 -0.832748
v 0.132154 0.435323 0.400561
v 0.470831 0.375605 0.400561
v 0.465627 0.402141 0.257478
v 0.146121 0.458478 0.257478
v 0.387599 0.441518 0.114395
v 0.232911 0.468793 0.114395
v 0.062811 0.329224 0.441996
v 0.499705 0.252188 0.441996
v 0.48734 0.254368 0.257478
v 0.381031 0.273113 0.07296
v 0.181485 0.308299 0.07296
v 0.075176 0.327044 0.257478
v -0.470834 0.375605 0.400561
v -0.132157 0.435323 0.400561
v -0.146124 0.458478 0.257478
v -0.46563 0.402141 0.257478
v -0.232914 0.468793 0.114395
v -0.387602 0.441518 0.114395
v -0.499708 0.252188 0.441996
v -0.062814 0.329224 0.441996
v -0.075179 0.327044 0.257478
v -0.181488 0.308299 0.07296
v -0.381034 0.273113 0.07296
v -0.487343 0.254368 0.257478
v -0.022706 0.516455 -0.484101
v 0.022712 0.516455 -0.484101
v 0.022712 0.629993 -0.818197
v -0.022706 0.629993 -0.818197
v 0.041787 0.629993 -0.974778
v -0.041781 0.629993 -0.974778
v 0.022712 0.629993 -1.378724
v -0.022706 0.629993 -1.378724
v -0.037872 0.287184 0.139702
v 0.037878 0.287184 0.139702
v 0.04441 0.15667 -0.4401
v 0.081712 0.15667 -0.717739
v 0.195133 0.287184 -0.789574
v 0.106052 0.287184 -0.417538
v 0.04441 0.15667 -0.843749
v 0.106052 0.287184 -0.958427
v -0.044404 0.15667 -0.843749
v -0.106046 0.287184 -0.958427
v -0.081706 0.15667 -0.717739
v -0.195127 0.287184 -0.789573
v -0.044404 0.15667 -0.4401
v -0.106046 0.287184 -0.417538
vt 0.401688 0.535167
vt 0.461508 0.125031
vt 0.463034 0.699055
vt 0.421664 0.73619
vt 0.486221 0.099797
vt 0.487747 0.717961
vt 0.402572 0.491335
vt 0.463147 0.108564
vt 0.462897 0.055701
vt 0.394855 0.430877
vt 0.488242 0.064738
vt 0.487897 0.023766
vt 0.488242 0.776031
vt 0.470804 0.772621
vt 0.470553 0.783507
vt 0.487897 0.802037
vt 0.435614 0.795901
vt 0.435464 0.810434
vt 0.461508 0.125031
vt 0.401688 0.535167
vt 0.463034 0.699055
vt 0.421664 0.73619
vt 0.486221 0.099797
vt 0.463147 0.108564
vt 0.402572 0.491335
vt 0.462897 0.055701
vt 0.394855 0.430877
vt 0.488242 0.064738
vt 0.487897 0.023766
vt 0.470804 0.772621
vt 0.488242 0.776031
vt 0.470553 0.783507
vt 0.487897 0.802037
vt 0.435614 0.795901
vt 0.435464 0.810434
vt 0.468298 0.227298
vt 0.412232 0.227298
vt 0.413211 0.282027
vt 0.46567 0.282027
vt 0.420236 0.352069
vt 0.44934 0.352069
vt 0.481345 0.207014
vt 0.406799 0.207014
vt 0.40147 0.282027
vt 0.421472 0.372352
vt 0.459016 0.372352
vt 0.479018 0.29734
vt 0.410604 0.231875
vt 0.464206 0.231875
vt 0.46168 0.285461
vt 0.403889 0.285461
vt 0.445981 0.354359
vt 0.418003 0.354359
vt 0.405382 0.211923
vt 0.476748 0.211923
vt 0.474511 0.285461
vt 0.455283 0.374311
vt 0.419191 0.374311
vt 0.399962 0.300774
vt 0.057932 0.399652
vt 0.057932 0.399652
vt 0.082044 0.616486
vt 0.082044 0.616486
vt 0.110973 0.704372
vt 0.110973 0.704372
vt 0.185603 0.931101
vt 0.185603 0.931101
vt 0.003984 0.023281
vt 0.003984 0.023281
vt 0.144734 0.233554
vt 0.188372 0.374077
vt 0.167208 0.465691
vt 0.098473 0.272184
vt 0.211653 0.460117
vt 0.198404 0.560465
vt 0.211653 0.460117
vt 0.198404 0.560465
vt 0.188372 0.389389
vt 0.167208 0.465691
vt 0.137078 0.233554
vt 0.098473 0.272184
vn -0.365849 0.928176 0.068148
vn -0.473576 0.841378 0.260403
vn -0.130969 0.933123 -0.334857
vn 0.038288 0.909333 -0.414304
vn -0.325216 0.797403 0.508313
vn 0 0.97162 -0.236548
vn -0.849601 -0.34759 0.396686
vn -0.534717 -0.499496 0.681603
vn -0.730627 0.045754 0.681243
vn -0.907605 0.124356 0.400984
vn -0.328571 -0.552213 0.766226
vn -0.409768 -0.204621 0.888943
vn -0.224014 -0.440743 -0.869232
vn 0.122474 -0.501899 -0.856212
vn -0.027844 0.258433 -0.965628
vn -0.298934 0.462988 -0.834434
vn 0.25242 -0.551886 -0.7948
vn 0.316195 -0.0651 -0.946458
vn 0.473576 0.841378 0.260403
vn 0.365849 0.928176 0.068148
vn 0.130969 0.933123 -0.334857
vn -0.038288 0.909333 -0.414304
vn 0.325215 0.797403 0.508314
vn 0.534716 -0.499495 0.681603
vn 0.849601 -0.34759 0.396686
vn 0.730626 0.045754 0.681243
vn 0.907605 0.124356 0.400984
vn 0.328571 -0.552212 0.766227
vn 0.409766 -0.204621 0.888944
vn -0.122474 -0.501899 -0.856212
vn 0.224014 -0.440743 -0.869232
vn 0.027844 0.258433 -0.965628
vn 0.298934 0.462988 -0.834434
vn -0.25242 -0.551886 -0.7948
vn -0.316195 -0.0651 -0.946458
vn -0.355021 0.87621 0.325908
vn 0.413034 0.609423 0.676762
vn 0.701211 0.712945 0.003527
vn -0.419464 0.902909 -0.093834
vn 0.598675 0.670966 -0.437486
vn -0.187505 0.621552 -0.760602
vn -0.318256 0.518058 0.793933
vn 0.872293 0.3047 0.382445
vn 0.931995 0.123172 -0.340903
vn 0.355953 0.210157 -0.910566
vn -0.57567 0.386777 -0.720422
vn -0.853393 0.485169 -0.190608
vn -0.633291 0.701944 0.325909
vn 0.179693 0.713937 0.67676
vn 0.415083 0.909777 0.003525
vn -0.70298 0.704993 -0.093831
vn 0.333089 0.835261 -0.437483
vn -0.388779 0.519938 -0.760602
vn -0.476248 0.377968 0.793932
vn 0.715477 0.584664 0.382441
vn 0.83366 0.434508 -0.340902
vn 0.262608 0.319228 -0.910566
vn -0.673239 0.166557 -0.720422
vn -0.967865 0.164033 -0.190606
vn -0.438547 0.849912 0.292107
vn 0.195469 0.92425 0.327954
vn 0.507776 0.834578 0.213642
vn -0.52829 0.835543 0.150923
vn 0.53622 0.842335 0.054217
vn -0.425162 0.904991 0.015142
vn 0.718928 0.52361 -0.457138
vn -0.694502 -0.197178 -0.691945
vn -0.36091 0.878157 0.313981
vn 0.628457 0.734403 0.256308
vn 0.829286 -0.536197 0.157412
vn 0.743276 -0.650884 -0.154567
vn 0.967382 -0.246556 -0.058167
vn 0.963661 0.204348 0.172044
vn 0.292126 -0.705412 -0.645799
vn 0.416538 -0.715022 -0.561462
vn -0.494897 -0.726614 -0.47656
vn -0.335962 -0.680877 -0.650796
vn -0.806667 -0.589876 0.03655
vn -0.981454 -0.167297 -0.093592
vn -0.889601 -0.440822 0.119522
vn -0.984808 0.037933 0.169454
usemtl datan_common_mobbody36_8c297da6
f 1/1/1 2/2/2 3/3/3
f 3/3/3 4/4/4 1/1/1
f 2/2/2 5/5/5 6/6/6
f 6/6/6 3/3/3 2/2/2
f 7/7/7 8/8/8 9/9/9
f 9/9/9 10/10/10 7/7/7
f 8/8/8 11/11/11 12/12/12
f 12/12/12 9/9/9 8/8/8
f 10/10/10 9/9/9 2/2/2
f 2/2/2 1/1/1 10/10/10
f 9/9/9 12/12/12 5/5/5
f 5/5/5 2/2/2 9/9/9
f 13/13/13 14/14/14 15/15/15
f 15/15/15 16/16/16 13/13/13
f 14/14/14 17/17/17 18/18/18
f 18/18/18 15/15/15 14/14/14
f 16/16/16 15/15/15 3/3/3
f 3/3/3 6/6/6 16/16/16
f 15/15/15 18/18/18 4/4/4
f 4/4/4 3/3/3 15/15/15
f 19/19/19 20/20/20 21/21/21
f 22/22/22 21/21/21 20/20/20
f 23/23/23 19/19/19 6/6/6
f 21/21/21 6/6/6 19/19/19
f 24/24/24 25/25/25 26/26/26
f 27/27/27 26/26/26 25/25/25
f 28/28/28 24/24/24 29/29/29
f 26/26/26 29/29/29 24/24/24
f 26/26/26 27/27/27 19/19/19
f 20/20/20 19/19/19 27/27/27
f 29/29/29 26/26/26 23/23/23
f 19/19/19 23/23/23 26/26/26
f 30/30/30 31/31/31 32/32/32
f 33/33/33 32/32/32 31/31/31
f 34/34/34 30/30/30 35/35/35
f 32/32/32 35/35/35 30/30/30
f 32/32/32 33/33/33 21/21/21
f 6/6/6 21/21/21 33/33/33
f 35/35/35 32/32/32 22/22/22
f 21/21/21 22/22/22 32/32/32
f 36/36/36 37/37/37 38/38/38
f 38/38/38 39/39/39 36/36/36
f 39/39/39 38/38/38 40/40/40
f 40/40/40 41/41/41 39/39/39
f 42/42/42 43/43/43 37/37/37
f 37/37/37 36/36/36 42/42/42
f 43/43/43 44/44/44 38/38/38
f 38/38/38 37/37/37 43/43/43
f 44/44/44 45/45/45 40/40/40
f 40/40/40 38/38/38 44/44/44
f 45/45/45 46/46/46 41/41/41
f 41/41/41 40/40/40 45/45/45
f 46/46/46 47/47/47 39/39/39
f 39/39/39 41/41/41 46/46/46
f 47/47/47 42/42/42 36/36/36
f 36/36/36 39/39/39 47/47/47
f 48/48/48 49/49/49 50/50/50
f 50/50/50 51/51/51 48/48/48
f 51/51/51 50/50/50 52/52/52
f 52/52/52 53/53/53 51/51/51
f 54/54/54 55/55/55 49/49/49
f 49/49/49 48/48/48 54/54/54
f 55/55/55 56/56/56 50/50/50
f 50/50/50 49/49/49 55/55/55
f 56/56/56 57/57/57 52/52/52
f 52/52/52 50/50/50 56/56/56
f 57/57/57 58/58/58 53/53/53
f 53/53/53 52/52/52 57/57/57
f 58/58/58 59/59/59 51/51/51
f 51/51/51 53/53/53 58/58/58
f 59/59/59 54/54/54 48/48/48
f 48/48/48 51/51/51 59/59/59
f 60/60/60 61/61/61 62/62/62
f 62/62/62 63/63/63 60/60/60
f 63/63/63 62/62/62 64/64/64
f 64/64/64 65/65/65 63/63/63
f 65/65/65 64/64/64 66/66/66
f 66/66/66 67/67/67 65/65/65
f 68/68/68 69/69/69 61/61/61
f 61/61/61 60/60/60 68/68/68
f 70/70/70 71/71/71 72/72/72
f 72/72/72 73/73/73 70/70/70
f 71/71/71 74/74/74 75/75/75
f 75/75/75 72/72/72 71/71/71
f 69/69/69 73/73/73 62/62/62
f 62/62/62 61/61/61 69/69/69
f 73/73/73 72/72/72 64/64/64
f 64/64/64 62/62/62 73/73/73
f 72/72/72 75/75/75 66/66/66
f 66/66/66 64/64/64 72/72/72
f 74/74/74 76/76/76 77/77/77
f 77/77/77 75/75/75 74/74/74
f 75/75/75 77/77/77 67/67/67
f 67/67/67 66/66/66 75/75/75
f 76/76/76 78/78/78 79/79/79
f 79/79/79 77/77/77 76/76/76
f 78/78/78 80/80/80 81/81/81
