# Generated from Nova1492 GX by tools/nova1492/GxObjConverter
mtllib datan_common_king-body_cf38d4b4.mtl
o datan_common_king-body_cf38d4b4
v -0.665635 0.273085 -0.641954
v -0.665635 -0.039648 -0.157602
v -0.665635 0.098346 -0.026456
v -0.665635 0.51661 -0.639772
v -0.665635 0.055722 -0.453737
v -0.469499 0.222424 -0.725358
v -0.469355 0.574742 -0.722575
v -0.268 0.590365 -0.74543
v 0.00075 0.609585 -0.772554
v 0.00075 0.189585 -0.776317
v -0.469499 -0.091676 -0.453375
v 0.00075 -0.185294 -0.451706
v -0.469499 -0.056699 0.194972
v -0.469499 -0.244842 -0.036333
v 0.00075 -0.341946 0.024645
v 0.00075 -0.124747 0.286796
v -0.665635 0.312087 0.004671
v -0.665635 0.601951 -0.411679
v -0.665635 0.499427 -0.143051
v 0.00075 0.609585 -0.772554
v -0.268 0.590365 -0.74543
v -0.299243 0.719173 -0.388435
v 0.00075 0.756769 -0.37917
v -0.299875 0.562158 0.038388
v 0.00075 0.57995 0.084124
v -0.301674 0.254362 0.278114
v 0.00075 0.235095 0.368241
v -0.301674 0.254362 0.278114
v -0.469196 0.265471 0.227006
v -0.469499 -0.056699 0.194972
v 0.00075 0.235095 0.368241
v 0.00075 -0.124747 0.286796
v -0.665635 0.273085 -0.641954
v -0.665635 0.51661 -0.639772
v -0.665635 0.098346 -0.026456
v -0.665635 -0.039648 -0.157602
v -0.665635 0.055722 -0.453737
v -0.665635 0.51661 -0.639772
v -0.665635 0.601951 -0.411679
v -0.469499 0.697652 -0.3926
v -0.469355 0.574742 -0.722575
v -0.665635 0.312087 0.004671
v -0.665635 0.098346 -0.026456
v -0.665635 0.499427 -0.143051
v -0.665635 0.312087 0.004671
v -0.469196 0.265471 0.227006
v -0.469499 0.5495 -0.004418
v -0.301697 0.827594 -0.419247
v -0.466389 0.802155 -0.395447
v -0.301697 0.669452 0.063354
v -0.466389 0.655325 0.031174
v -0.36102 0.080508 -0.67776
v -0.445871 0.173408 -0.638228
v -0.698145 0.237939 -1.331344
v -0.613295 0.145039 -1.370877
v -0.27061 0.173408 -0.702018
v -0.522884 0.237939 -1.395134
v -0.607735 0.330839 -1.355602
v -0.355461 0.266307 -0.662485
v -0.36102 0.080508 -0.67776
v -0.613295 0.145039 -1.370877
v -0.698145 0.237939 -1.331344
v -0.355461 0.266307 -0.662485
v -0.607735 0.330839 -1.355602
v 0.667135 0.273085 -0.641954
v 0.667135 0.098346 -0.026456
v 0.667135 -0.039648 -0.157602
v 0.667135 0.51661 -0.639772
v 0.667135 0.055722 -0.453737
v 0.470999 0.222424 -0.725358
v 0.2695 0.590365 -0.74543
v 0.470855 0.574742 -0.722575
v 0.00075 0.609585 -0.772554
v 0.00075 0.189585 -0.776317
v 0.470999 -0.091676 -0.453375
v 0.00075 -0.185294 -0.451706
v 0.470999 -0.056699 0.194972
v 0.00075 -0.341946 0.024645
v 0.470999 -0.244842 -0.036333
v 0.00075 -0.124747 0.286796
v 0.667135 0.601951 -0.411679
v 0.667135 0.312087 0.004671
v 0.667135 0.499427 -0.143051
v 0.00075 0.609585 -0.772554
v 0.300743 0.719173 -0.388435
v 0.2695 0.590365 -0.74543
v 0.00075 0.756769 -0.37917
v 0.301376 0.562158 0.038388
v 0.00075 0.57995 0.084124
v 0.303175 0.254362 0.278114
v 0.00075 0.235095 0.368241
v 0.303175 0.254362 0.278114
v 0.470999 -0.056699 0.194972
v 0.470696 0.265471 0.227006
v 0.00075 0.235095 0.368241
v 0.00075 -0.124747 0.286796
v 0.667135 0.273085 -0.641954
v 0.667135 0.51661 -0.639772
v 0.667135 0.098346 -0.026456
v 0.667135 -0.039648 -0.157602
v 0.667135 0.055722 -0.453737
v 0.667135 0.51661 -0.639772
v 0.470999 0.697652 -0.3926
v 0.667135 0.601951 -0.411679
v 0.470855 0.574742 -0.722575
v 0.667135 0.312087 0.004671
v 0.667135 0.098346 -0.026456
v 0.667135 0.499427 -0.143051
v 0.470696 0.265471 0.227006
v 0.667135 0.312087 0.004671
v 0.470999 0.5495 -0.004418
v 0.303197 0.827594 -0.419247
v 0.46789 0.802155 -0.395447
v 0.303197 0.669452 0.063354
v 0.46789 0.655325 0.031174
v -0.383497 0.376923 -0.764295
v -0.452834 0.453313 -0.682137
v -0.612485 0.78016 -1.120773
v -0.543148 0.703771 -1.202931
v -0.277573 0.453313 -0.745927
v -0.437223 0.78016 -1.184563
v -0.50656 0.85655 -1.102405
v -0.346909 0.529702 -0.663769
v -0.383497 0.376923 -0.764295
v -0.543148 0.703771 -1.202931
v -0.612485 0.78016 -1.120773
v -0.346909 0.529702 -0.663769
v -0.50656 0.85655 -1.102405
v -0.368723 0.648183 -0.647631
v -0.469833 0.653322 -0.563114
v -0.614989 1.052136 -0.761019
v -0.513879 1.046996 -0.845536
v -0.294572 0.717112 -0.563114
v -0.439728 1.115926 -0.761019
v -0.540838 1.121065 -0.676501
v -0.395682 0.722252 -0.478596
v -0.368723 0.648183 -0.647631
v -0.513879 1.046996 -0.845536
v -0.614989 1.052136 -0.761019
v -0.395682 0.722252 -0.478596
v -0.540838 1.121065 -0.676501
v 0.356513 0.080508 -0.67776
v 0.693638 0.237939 -1.331344
v 0.441364 0.173408 -0.638228
v 0.608787 0.145039 -1.370877
v 0.266103 0.173408 -0.702018
v 0.603228 0.330839 -1.355602
v 0.518377 0.237939 -1.395134
v 0.350954 0.266307 -0.662485
v 0.356513 0.080508 -0.67776
v 0.608787 0.145039 -1.370877
v 0.693638 0.237939 -1.331344
v 0.350954 0.266307 -0.662485
v 0.603228 0.330839 -1.355602
v 0.37899 0.376923 -0.764295
v 0.607977 0.78016 -1.120773
v 0.448327 0.453313 -0.682137
v 0.538641 0.703771 -1.202931
v 0.273065 0.453313 -0.745927
v 0.502053 0.85655 -1.102405
v 0.432716 0.78016 -1.184563
v 0.342402 0.529702 -0.663769
v 0.37899 0.376923 -0.764295
v 0.538641 0.703771 -1.202931
v 0.607977 0.78016 -1.120773
v 0.342402 0.529702 -0.663769
v 0.502053 0.85655 -1.102405
v 0.364216 0.648183 -0.647631
v 0.610482 1.052136 -0.761019
v 0.465326 0.653322 -0.563114
v 0.509372 1.046996 -0.845536
v 0.290065 0.717112 -0.563114
v 0.536331 1.121065 -0.676501
v 0.435221 1.115926 -0.761019
v 0.391175 0.722252 -0.478596
v 0.364216 0.648183 -0.647631
v 0.509372 1.046996 -0.845536
v 0.610482 1.052136 -0.761019
v 0.391175 0.722252 -0.478596
v 0.536331 1.121065 -0.676501
vt 0.014871 0.688923
vt 0.183576 0.599789
vt 0.222833 0.649067
vt 0.008566 0.769273
vt 0.083194 0.62269
vt 0.653405 0.868927
vt 0.727277 0.868964
vt 0.733588 0.921635
vt 0.741095 0.991934
vt 0.665936 0.991934
vt 0.57537 0.868927
vt 0.572801 0.991934
vt 0.400393 0.868927
vt 0.45922 0.868927
vt 0.466293 0.991934
vt 0.402484 0.991934
vt 0.22693 0.720433
vt 0.081304 0.803987
vt 0.172824 0.777935
vt 0.015413 0.991434
vt 0.022919 0.921135
vt 0.113009 0.912962
vt 0.114566 0.991434
vt 0.227812 0.912797
vt 0.239324 0.991434
vt 0.299857 0.912326
vt 0.321222 0.991434
vt 0.300363 0.912298
vt 0.290678 0.868681
vt 0.38501 0.868573
vt 0.321248 0.991591
vt 0.395629 0.991756
vt 0.632826 0.817622
vt 0.704374 0.817622
vt 0.430052 0.817622
vt 0.471321 0.81653
vt 0.578825 0.817622
vt 0.043258 0.817122
vt 0.109624 0.817122
vt 0.110404 0.867555
vt 0.02923 0.868465
vt 0.282151 0.817484
vt 0.364216 0.817368
vt 0.212342 0.817122
vt 0.282245 0.817122
vt 0.290553 0.868506
vt 0.222398 0.867462
vt 0.102508 0.902948
vt 0.102452 0.875049
vt 0.231871 0.902948
vt 0.227657 0.875171
vt 0.839058 0.31444
vt 0.839058 0.338402
vt 0.626681 0.338402
vt 0.626681 0.31444
vt 0.839052 0.386306
vt 0.626767 0.386306
vt 0.626767 0.362377
vt 0.839052 0.362377
vt 0.839052 0.410234
vt 0.626767 0.410234
vt 0.626767 0.386306
vt 0.839058 0.362364
vt 0.626681 0.362364
vt 0.014871 0.688923
vt 0.222833 0.649067
vt 0.183576 0.599789
vt 0.008566 0.769273
vt 0.083194 0.62269
vt 0.653405 0.868927
vt 0.733588 0.921635
vt 0.727277 0.868964
vt 0.741095 0.991934
vt 0.665936 0.991934
vt 0.57537 0.868927
vt 0.572801 0.991934
vt 0.400393 0.868927
vt 0.466293 0.991934
vt 0.45922 0.868927
vt 0.402484 0.991934
vt 0.081304 0.803987
vt 0.22693 0.720433
vt 0.172824 0.777935
vt 0.015413 0.991434
vt 0.113009 0.912962
vt 0.022919 0.921135
vt 0.114566 0.991434
vt 0.227812 0.912797
vt 0.239324 0.991434
vt 0.299857 0.912326
vt 0.321222 0.991434
vt 0.300363 0.912298
vt 0.38501 0.868573
vt 0.290678 0.868681
vt 0.321248 0.991591
vt 0.395629 0.991756
vt 0.632826 0.817622
vt 0.704374 0.817622
vt 0.430052 0.817622
vt 0.471321 0.81653
vt 0.578825 0.817622
vt 0.043258 0.817122
vt 0.110404 0.867555
vt 0.109624 0.817122
vt 0.02923 0.868465
vt 0.282151 0.817484
vt 0.364216 0.817368
vt 0.212342 0.817122
vt 0.290553 0.868506
vt 0.282245 0.817122
vt 0.222398 0.867462
vt 0.102508 0.902948
vt 0.102452 0.875049
vt 0.231871 0.902948
vt 0.227657 0.875171
vt 0.839058 0.31444
vt 0.839058 0.338402
vt 0.626681 0.338402
vt 0.626681 0.31444
vt 0.839052 0.386306
vt 0.626767 0.386306
vt 0.626767 0.362377
vt 0.839052 0.362377
vt 0.839052 0.410234
vt 0.626767 0.410234
vt 0.626767 0.386306
vt 0.839058 0.362364
vt 0.626681 0.362364
vt 0.839058 0.31444
vt 0.839058 0.338402
vt 0.626681 0.338402
vt 0.626681 0.31444
vt 0.839052 0.386306
vt 0.626767 0.386306
vt 0.626767 0.362377
vt 0.839052 0.362377
vt 0.839052 0.410234
vt 0.626767 0.410234
vt 0.626767 0.386306
vt 0.839058 0.362364
vt 0.626681 0.362364
vt 0.839058 0.31444
vt 0.626681 0.338402
vt 0.839058 0.338402
vt 0.626681 0.31444
vt 0.839052 0.386306
vt 0.626767 0.362377
vt 0.626767 0.386306
vt 0.839052 0.362377
vt 0.839052 0.410234
vt 0.626767 0.410234
vt 0.626767 0.386306
vt 0.839058 0.362364
vt 0.626681 0.362364
vt 0.839058 0.31444
vt 0.626681 0.338402
vt 0.839058 0.338402
vt 0.626681 0.31444
vt 0.839052 0.386306
vt 0.626767 0.362377
vt 0.626767 0.386306
vt 0.839052 0.362377
vt 0.839052 0.410234
vt 0.626767 0.410234
vt 0.626767 0.386306
vt 0.839058 0.362364
vt 0.626681 0.362364
vt 0.839058 0.31444
vt 0.626681 0.338402
vt 0.839058 0.338402
vt 0.626681 0.31444
vt 0.839052 0.386306
vt 0.626767 0.362377
vt 0.626767 0.386306
vt 0.839052 0.362377
vt 0.839052 0.410234
vt 0.626767 0.410234
vt 0.626767 0.386306
vt 0.839058 0.362364
vt 0.626681 0.362364
vn -1 0 0
vn -1 0 0
vn -1 0 0
vn -1 0 0
vn -1 0 0
vn -0.264097 -0.276651 -0.923968
vn -0.30069 0.00793 -0.953689
vn -0.106928 0.00432 -0.994257
vn -0.103795 0.004826 -0.994587
vn -0.127291 -0.455623 -0.881025
vn -0.397838 -0.718749 -0.570198
vn -0.126608 -0.649336 -0.749889
vn -0.444272 -0.693054 0.567714
vn -0.666034 -0.668867 0.330176
vn -0.232467 -0.751738 0.61713
vn -0.229699 -0.74945 0.620937
vn -1 0 0
vn -1 0 0
vn -1 0 0
vn -0.103772 0.932116 -0.346975
vn 0.362131 0.837467 -0.40928
vn 0.500137 0.862152 -0.080982
vn -0.120735 0.985045 0.122919
vn 0.663615 0.641232 0.385275
vn -0.154639 0.743385 0.650743
vn 0.142418 0.566376 0.811749
vn -0.186183 0.624746 0.758306
vn -0.293088 -0.096126 0.951241
vn -0.546191 -0.082375 0.833601
vn -0.488426 -0.117784 0.864619
vn -0.254131 -0.157129 0.954321
vn -0.217091 -0.215486 0.95207
vn -0.427161 -0.200143 -0.881746
vn -0.390751 0.008247 -0.920459
vn -0.780089 -0.458095 0.426158
vn -0.704188 -0.709771 -0.018579
vn -0.500928 -0.667912 -0.550423
vn -0.390263 0.86253 -0.322082
vn -0.444511 0.888857 0.111099
vn -0.772924 0.629715 -0.077767
vn -0.511129 0.738713 -0.439374
vn -0.765541 -0.077567 0.638694
vn -0.776193 -0.090859 0.623914
vn -0.55255 0.633347 0.541812
vn -0.595792 0.497291 0.630661
vn -0.589568 0.432609 0.682099
vn -0.861694 0.438634 0.255116
vn 0.559165 0.823111 -0.09911
vn -0.872965 0.484159 -0.059343
vn 0.45371 0.594312 0.664033
vn -0.654597 0.633685 0.412244
vn -0.685541 -0.704416 0.183933
vn -0.939693 0 0.342021
vn -0.939693 0 0.34202
vn -0.685541 -0.704416 0.183933
vn 0.900897 0.315024 -0.29857
vn 0.666095 -0.251996 -0.702009
vn 0.243826 0.559725 -0.791995
vn 0.685542 0.704416 -0.183933
vn 0.643385 -0.704416 -0.299757
vn -0.017018 -0.23707 -0.971344
vn -0.340719 0.087156 -0.936117
vn -0.643385 0.704416 0.299757
vn -0.643385 0.704416 0.299757
vn 1 0 0
vn 1 0 0
vn 1 0 0
vn 1 0 0
vn 1 0 0
vn 0.264097 -0.276651 -0.923968
vn 0.106928 0.00432 -0.994257
vn 0.30069 0.00793 -0.953689
vn 0.103795 0.004826 -0.994587
vn 0.127291 -0.455623 -0.881025
vn 0.397838 -0.718749 -0.570198
vn 0.126608 -0.649336 -0.749889
vn 0.444272 -0.693054 0.567714
vn 0.232467 -0.751738 0.61713
vn 0.666034 -0.668867 0.330176
vn 0.229699 -0.74945 0.620938
vn 1 0 0
vn 1 0 0
vn 1 0 0
vn 0.103772 0.932116 -0.346975
vn -0.500137 0.862152 -0.080982
vn -0.362131 0.837467 -0.40928
vn 0.120735 0.985045 0.122919
vn -0.663615 0.641232 0.385275
vn 0.154639 0.743385 0.650743
vn -0.142418 0.566376 0.811749
vn 0.186183 0.624746 0.758306
vn 0.293088 -0.096126 0.951241
vn 0.488426 -0.117784 0.864619
vn 0.546191 -0.082375 0.833601
vn 0.254131 -0.157129 0.954321
vn 0.217091 -0.215486 0.95207
vn 0.427161 -0.200143 -0.881746
vn 0.390751 0.008247 -0.920459
vn 0.780089 -0.458095 0.426158
vn 0.704188 -0.709771 -0.018579
vn 0.500928 -0.667912 -0.550423
vn 0.390263 0.86253 -0.322082
vn 0.772924 0.629715 -0.077767
vn 0.444511 0.888857 0.111099
vn 0.511129 0.738713 -0.439374
vn 0.765541 -0.077567 0.638694
vn 0.776193 -0.090859 0.623914
vn 0.55255 0.633347 0.541812
vn 0.589568 0.432609 0.682099
vn 0.595792 0.497291 0.630661
vn 0.861694 0.438634 0.255116
vn -0.559165 0.823111 -0.09911
vn 0.872965 0.484159 -0.059343
vn -0.45371 0.594312 0.664033
vn 0.654597 0.633685 0.412244
vn -0.80318 -0.579228 -0.139275
vn -0.939692 0 0.342021
vn -0.939693 -0 0.342021
vn -0.80318 -0.579228 -0.139275
vn 0.953507 0.259039 -0.154027
vn 0.642789 -0.002307 -0.76604
vn 0.369826 0.815156 -0.445814
vn 0.80318 0.579228 0.139275
vn 0.525746 -0.579228 -0.622965
vn -0.015468 0.253984 -0.967085
vn -0.280166 0.573577 -0.769751
vn -0.525747 0.579228 0.622965
vn -0.525747 0.579228 0.622965
vn -0.562255 -0.522659 -0.640856
vn -0.939693 -0.34202 0
vn -0.939693 -0.342021 0
vn -0.562255 -0.522659 -0.640856
vn 0.845762 0.450053 0.286599
vn 0.728977 0.529242 -0.434162
vn 0.178388 0.971784 0.154318
vn 0.562255 0.522659 0.640856
vn 0.766671 -0.038969 -0.640857
vn 0.065615 0.744312 -0.664601
vn -0.309974 0.851651 -0.422618
vn -0.766671 0.038969 0.640856
vn -0.766671 0.038969 0.640856
vn 0.685542 -0.704416 0.183933
vn 0.939693 0 0.34202
vn 0.939693 0 0.34202
vn 0.685542 -0.704416 0.183933
vn -0.900897 0.315024 -0.29857
vn -0.243826 0.559726 -0.791995
vn -0.666095 -0.251996 -0.702009
vn -0.685542 0.704416 -0.183933
vn -0.643385 -0.704416 -0.299757
vn 0.017018 -0.23707 -0.971344
vn 0.34072 0.087156 -0.936117
vn 0.643385 0.704416 0.299757
vn 0.643385 0.704416 0.299757
vn 0.80318 -0.579228 -0.139275
vn 0.939692 -0 0.342021
vn 0.939692 0 0.342021
vn 0.80318 -0.579228 -0.139275
vn -0.953507 0.259039 -0.154027
vn -0.369826 0.815156 -0.445814
vn -0.642789 -0.002307 -0.76604
vn -0.803179 0.579228 0.139275
vn -0.525746 -0.579228 -0.622966
vn 0.015468 0.253984 -0.967085
vn 0.280166 0.573577 -0.769751
vn 0.525746 0.579228 0.622966
vn 0.525747 0.579227 0.622966
vn 0.562255 -0.522659 -0.640856
vn 0.939692 -0.342021 0
vn 0.939692 -0.342021 0
vn 0.562255 -0.522659 -0.640856
vn -0.845762 0.450053 0.286599
vn -0.178389 0.971784 0.154317
vn -0.728977 0.529242 -0.434162
vn -0.562256 0.522659 0.640856
vn -0.766671 -0.038969 -0.640856
vn -0.065615 0.744312 -0.664601
vn 0.309974 0.851651 -0.422618
vn 0.766671 0.038969 0.640856
vn 0.766671 0.038969 0.640856
usemtl datan_common_king-body_cf38d4b4
f 1/1/1 2/2/2 3/3/3
f 3/3/3 4/4/4 1/1/1
f 5/5/5 2/2/2 1/1/1
f 6/6/6 7/7/7 8/8/8
f 6/6/6 8/8/8 9/9/9
f 6/6/6 9/9/9 10/10/10
f 11/11/11 6/6/6 10/10/10
f 10/10/10 12/12/12 11/11/11
f 13/13/13 14/14/14 15/15/15
f 15/15/15 16/16/16 13/13/13
f 3/3/3 17/17/17 18/18/18
f 18/18/18 4/4/4 3/3/3
f 18/18/18 17/17/17 19/19/19
f 20/20/20 21/21/21 22/22/22
f 22/22/22 23/23/23 20/20/20
f 23/23/23 22/22/22 24/24/24
f 24/24/24 25/25/25 23/23/23
f 25/25/25 24/24/24 26/26/26
f 26/26/26 27/27/27 25/25/25
f 28/28/28 29/29/29 30/30/30
f 31/31/31 28/28/28 30/30/30
f 32/32/32 31/31/31 30/30/30
f 33/33/33 34/34/34 7/7/7
f 7/7/7 6/6/6 33/33/33
f 35/35/35 36/36/36 14/14/14
f 14/14/14 13/13/13 35/35/35
f 37/37/37 33/33/33 6/6/6
f 6/6/6 11/11/11 37/37/37
f 36/36/36 37/37/37 11/11/11
f 11/11/11 14/14/14 36/36/36
f 38/38/38 39/39/39 40/40/40
f 40/40/40 41/41/41 38/38/38
f 42/42/42 43/43/43 30/30/30
f 30/30/30 29/29/29 42/42/42
f 44/44/44 45/45/45 46/46/46
f 46/46/46 47/47/47 44/44/44
f 39/39/39 44/44/44 47/47/47
f 47/47/47 40/40/40 39/39/39
f 48/48/48 21/21/21 41/41/41
f 41/41/41 49/49/49 48/48/48
f 50/50/50 51/51/51 46/46/46
f 46/46/46 26/26/26 50/50/50
f 51/51/51 50/50/50 48/48/48
f 48/48/48 49/49/49 51/51/51
f 41/41/41 40/40/40 49/49/49
f 47/47/47 46/46/46 51/51/51
f 26/26/26 24/24/24 50/50/50
f 22/22/22 21/21/21 48/48/48
f 24/24/24 22/22/22 48/48/48
f 24/24/24 48/48/48 50/50/50
f 52/52/52 53/53/53 54/54/54
f 54/54/54 55/55/55 52/52/52
f 56/56/56 57/57/57 58/58/58
f 58/58/58 59/59/59 56/56/56
f 60/60/60 61/61/61 57/57/57
f 57/57/57 56/56/56 60/60/60
f 61/61/61 62/62/62 58/58/58
f 58/58/58 57/57/57 61/61/61
f 54/54/54 53/53/53 63/63/63
f 63/63/63 64/64/64 54/54/54
f 51/51/51 49/49/49 47/47/47
f 47/47/47 49/49/49 40/40/40
f 65/65/65 66/66/66 67/67/67
f 66/66/66 65/65/65 68/68/68
f 69/69/69 65/65/65 67/67/67
f 70/70/70 71/71/71 72/72/72
f 70/70/70 73/73/73 71/71/71
f 70/70/70 74/74/74 73/73/73
f 75/75/75 74/74/74 70/70/70
f 74/74/74 75/75/75 76/76/76
f 77/77/77 78/78/78 79/79/79
f 78/78/78 77/77/77 80/80/80
f 66/66/66 81/81/81 82/82/82
f 81/81/81 66/66/66 68/68/68
f 81/81/81 83/83/83 82/82/82
f 84/84/84 85/85/85 86/86/86
f 85/85/85 84/84/84 87/87/87
f 87/87/87 88/88/88 85/85/85
f 88/88/88 87/87/87 89/89/89
f 89/89/89 90/90/90 88/88/88
f 90/90/90 89/89/89 91/91/91
f 92/92/92 93/93/93 94/94/94
f 95/95/95 93/93/93 92/92/92
f 96/96/96 93/93/93 95/95/95
f 97/97/97 72/72/72 98/98/98
f 72/72/72 97/97/97 70/70/70
f 99/99/99 79/79/79 100/100/100
f 79/79/79 99/99/99 77/77/77
f 101/101/101 70/70/70 97/97/97
f 70/70/70 101/101/101 75/75/75
f 100/100/100 75/75/75 101/101/101
f 75/75/75 100/100/100 79/79/79
f 102/102/102 103/103/103 104/104/104
f 103/103/103 102/102/102 105/105/105
f 106/106/106 93/93/93 107/107/107
f 93/93/93 106/106/106 94/94/94
f 108/108/108 109/109/109 110/110/110
f 109/109/109 108/108/108 111/111/111
f 104/104/104 111/111/111 108/108/108
f 111/111/111 104/104/104 103/103/103
f 112/112/112 105/105/105 86/86/86
f 105/105/105 112/112/112 113/113/113
f 114/114/114 109/109/109 115/115/115
f 109/109/109 114/114/114 90/90/90
f 115/115/115 112/112/112 114/114/114
f 112/112/112 115/115/115 113/113/113
f 105/105/105 113/113/113 103/103/103
f 111/111/111 115/115/115 109/109/109
f 90/90/90 114/114/114 88/88/88
f 85/85/85 112/112/112 86/86/86
f 88/88/88 112/112/112 85/85/85
f 88/88/88 114/114/114 112/112/112
f 115/115/115 111/111/111 113/113/113
f 111/111/111 103/103/103 113/113/113
f 116/116/116 117/117/117 118/118/118
f 118/118/118 119/119/119 116/116/116
f 120/120/120 121/121/121 122/122/122
f 122/122/122 123/123/123 120/120/120
f 124/124/124 125/125/125 121/121/121
f 121/121/121 120/120/120 124/124/124
f 125/125/125 126/126/126 122/122/122
f 122/122/122 121/121/121 125/125/125
f 118/118/118 117/117/117 127/127/127
f 127/127/127 128/128/128 118/118/118
f 129/129/129 130/130/130 131/131/131
f 131/131/131 132/132/132 129/129/129
f 133/133/133 134/134/134 135/135/135
f 135/135/135 136/136/136 133/133/133
f 137/137/137 138/138/138 134/134/134
f 134/134/134 133/133/133 137/137/137
f 138/138/138 139/139/139 135/135/135
f 135/135/135 134/134/134 138/138/138
f 131/131/131 130/130/130 140/140/140
f 140/140/140 141/141/141 131/131/131
f 142/142/142 143/143/143 144/144/144
f 143/143/143 142/142/142 145/145/145
f 146/146/146 147/147/147 148/148/148
f 147/147/147 146/146/146 149/149/149
f 150/150/150 148/148/148 151/151/151
f 148/148/148 150/150/150 146/146/146
f 151/151/151 147/147/147 152/152/152
f 147/147/147 151/151/151 148/148/148
f 143/143/143 153/153/153 144/144/144
f 153/153/153 143/143/143 154/154/154
f 155/155/155 156/156/156 157/157/157
f 156/156/156 155/155/155 158/158/158
f 159/159/159 160/160/160 161/161/161
f 160/160/160 159/159/159 162/162/162
f 163/163/163 161/161/161 164/164/164
f 161/161/161 163/163/163 159/159/159
f 164/164/164 160/160/160 165/165/165
f 160/160/160 164/164/164 161/161/161
f 156/156/156 166/166/166 157/157/157
f 166/166/166 156/156/156 167/167/167
f 168/168/168 169/169/169 170/170/170
f 169/169/169 168/168/168 171/171/171
f 172/172/172 173/173/173 174/174/174
f 173/173/173 172/172/172 175/175/175
f 176/176/176 174/174/174 177/177/177
f 174/174/174 176/176/176 172/172/172
f 177/177/177 173/173/173 178/178/178
f 173/173/173 177/177/177 174/174/174
f 169/169/169 179/179/179 170/170/170
f 179/179/179 169/169/169 180/180/180
