# Generated from Nova1492 GX by tools/nova1492/GxObjConverter
mtllib datan_common_moblegs5_499de646.mtl
o datan_common_moblegs5_499de646
v -0 -0.498266 -0.164023
v 0 -0.383495 0.067933
v -0 -0.236683 -0.231936
v -0 -0.419798 -0.317324
v -0 0.082148 0.157924
v -0 0.174528 -0.040185
v 0.204323 -0.498266 -0.164023
v 0.204323 -0.419798 -0.317324
v 0.204323 -0.236683 -0.231936
v 0.204323 -0.383495 0.067933
v 0.204323 0.174528 -0.040185
v 0.204323 0.082148 0.157924
v -0 -0.498266 -0.164023
v -0 -0.419798 -0.317324
v 0.204323 -0.419798 -0.317324
v -0 -0.419798 -0.317324
v -0 -0.236683 -0.231936
v 0.204323 -0.236683 -0.231936
v -0 0.174528 -0.040185
v -0 0.082148 0.157924
v 0.204323 0.082148 0.157924
v -0 0.082148 0.157924
v 0 -0.383495 0.067933
v 0.204323 -0.383495 0.067933
vt 0.261695 0.023516
vt 0.261695 0.152483
vt 0.363305 0.152483
vt 0.363305 0.023515
vt 0.261695 0.476485
vt 0.363305 0.476484
vt 0.261695 0.023516
vt 0.363305 0.023515
vt 0.363305 0.152483
vt 0.261695 0.152483
vt 0.363305 0.476484
vt 0.261695 0.476485
vt 0.261695 0.015859
vt 0.363305 0.015859
vt 0.363305 0.015859
vt 0.367133 0.023515
vt 0.367133 0.152483
vt 0.367133 0.152483
vt 0.363305 0.484141
vt 0.261695 0.484141
vt 0.261695 0.484141
vt 0.257867 0.476485
vt 0.257867 0.167796
vt 0.257867 0.167796
vn -0.894427 -0.400831 0.19833
vn -1 0 0
vn -1 0 0
vn -1 0 0
vn -1 0 0
vn -0.894427 0.189001 -0.405313
vn 0.592788 -0.795147 0.127841
vn 0.707107 0.298837 -0.640856
vn 1 0 0
vn 1 0 0
vn 0.666667 0.583848 -0.463332
vn 0.707107 -0.134174 0.69426
vn 0 -0.890166 -0.455637
vn 0 -0.890166 -0.455637
vn 0 -0.890166 -0.455637
vn 0 0.422619 -0.906308
vn 0 0.422619 -0.906308
vn 0 0.422619 -0.906308
vn 0 0.906307 0.422619
vn 0 0.906307 0.422619
vn 0 0.906307 0.422619
vn 0 -0.189751 0.981832
vn 0 -0.727636 0.685963
vn 0 -0.468294 0.883573
usemtl datan_common_moblegs5_499de646
f 1/1/1 2/2/2 3/3/3
f 3/3/3 4/4/4 1/1/1
f 2/2/2 5/5/5 6/6/6
f 6/6/6 3/3/3 2/2/2
f 7/7/7 8/8/8 9/9/9
f 9/9/9 10/10/10 7/7/7
f 10/10/10 9/9/9 11/11/11
f 11/11/11 12/12/12 10/10/10
f 13/13/13 14/14/14 15/15/15
f 15/15/15 7/7/7 13/13/13
f 16/16/16 17/17/17 18/18/18
f 18/18/18 8/8/8 16/16/16
f 17/17/17 6/6/6 11/11/11
f 11/11/11 18/18/18 17/17/17
f 19/19/19 20/20/20 21/21/21
f 21/21/21 11/11/11 19/19/19
f 22/22/22 23/23/23 24/24/24
