# Generated from Nova1492 GX by tools/nova1492/GxObjConverter
mtllib datan_common_mobbody3_db94a835.mtl
o datan_common_mobbody3_db94a835
v -0.277273 0.000001 -0.339331
v -0.305 0.207862 -0.373995
v 0.305 0.207862 -0.373995
v 0.277273 0.000001 -0.339331
v -0.305 0.207862 0.388622
v -0.277273 0.000001 0.353957
v 0.277273 0.000001 0.353957
v 0.305 0.207862 0.388622
v -0.277273 0.000001 0.353957
v -0.305 0.207862 0.388622
v -0.305 0.207862 -0.373995
v -0.277273 0.000001 -0.339331
v 0.277273 0.000001 0.353957
v 0.277273 0.000001 -0.339331
v 0.305 0.207862 -0.373995
v 0.305 0.207862 0.388622
v -0.305 0.207862 -0.373995
v -0.305 0.207862 0.388622
v 0.305 0.207862 0.388622
v 0.305 0.207862 -0.373995
v -0.307265 0.208663 -0.363616
v -0.289835 0.788333 -0.245784
v 0.291165 0.788333 -0.245784
v 0.308595 0.208663 -0.363616
v -0.307265 0.208663 0.093042
v -0.289835 0.853367 0.093042
v -0.289835 0.788333 -0.245784
v -0.307265 0.208663 -0.363616
v 0.308595 0.208663 0.093042
v 0.308595 0.208663 -0.363616
v 0.291165 0.788333 -0.245784
v 0.291165 0.853367 0.093042
v -0.289835 0.788333 -0.245784
v -0.289835 0.853367 0.093042
v 0.291165 0.853367 0.093042
v 0.291165 0.788333 -0.245784
v -0.289835 0.853367 0.093042
v -0.307265 0.208663 0.093042
v 0.308595 0.208663 0.093042
v 0.291165 0.853367 0.093042
v 0.000383 0.409094 0.692599
v -0.261924 0.494323 0.338635
v -0.161732 0.218526 0.338635
v 0.162498 0.218526 0.338635
v 0.26269 0.494323 0.338635
v -0.291972 0.502914 0.092743
v -0.180302 0.193748 0.092743
v 0.181068 0.193748 0.092743
v 0.292738 0.502914 0.092743
v 0.000383 0.409094 0.692599
v 0.000383 0.717465 0.338635
v -0.261924 0.494323 0.338635
v 0.26269 0.494323 0.338635
v 0.000383 0.74984 0.092743
v -0.291972 0.502914 0.092743
v 0.292738 0.502914 0.092743
vt 0.238242 0.36861
vt 0.238242 0.262458
vt 0.011758 0.262458
vt 0.011758 0.36861
vt 0.761758 0.238305
vt 0.761758 0.136695
vt 0.988242 0.136695
vt 0.988242 0.238305
vt 0.886695 0.394508
vt 0.886695 0.496117
vt 0.988305 0.496117
vt 0.988305 0.394508
vt 0.886695 0.394508
vt 0.988305 0.394508
vt 0.988305 0.496117
vt 0.886695 0.496117
vt 0.261758 0.238242
vt 0.261758 0.011758
vt 0.488242 0.011758
vt 0.488242 0.238242
vt 0.011758 0.261758
vt 0.011758 0.488242
vt 0.238242 0.488242
vt 0.238242 0.261758
vt 0.886695 0.394508
vt 0.886695 0.496117
vt 0.988305 0.496117
vt 0.988305 0.394508
vt 0.886695 0.394508
vt 0.988305 0.394508
vt 0.988305 0.496117
vt 0.886695 0.496117
vt 0.761695 0.496117
vt 0.761695 0.394508
vt 0.863305 0.394508
vt 0.863305 0.496117
vt 0.261758 0.238242
vt 0.261758 0.011758
vt 0.488242 0.011758
vt 0.488242 0.238242
vt 0.621172 0.011758
vt 0.517488 0.142264
vt 0.560016 0.142264
vt 0.689984 0.142264
vt 0.732512 0.142264
vt 0.511758 0.238242
vt 0.556475 0.238242
vt 0.701182 0.238242
vt 0.738242 0.238242
vt 0.371172 0.261758
vt 0.371172 0.392264
vt 0.267488 0.392264
vt 0.482512 0.392264
vt 0.371172 0.488242
vt 0.261758 0.488242
vt 0.488242 0.488242
vn 0 -0.164494 -0.986378
vn 0 -0.164494 -0.986378
vn 0 -0.164494 -0.986378
vn 0 -0.164494 -0.986378
vn 0 -0.164498 0.986377
vn 0 -0.164498 0.986377
vn 0 -0.164498 0.986377
vn 0 -0.164498 0.986377
vn -0.99122 -0.132221 0
vn -0.99122 -0.132221 0
vn -0.99122 -0.132221 0
vn -0.99122 -0.132221 0
vn 0.99122 -0.132221 0
vn 0.99122 -0.132221 0
vn 0.99122 -0.132221 0
vn 0.99122 -0.132221 0
vn 0 1 0
vn 0 1 0
vn 0 1 0
vn 0 1 0
vn 0 0.1992 -0.979959
vn 0 0.1992 -0.979959
vn 0 0.1992 -0.979959
vn 0 0.1992 -0.979959
vn -0.999589 0.02854 -0.002594
vn -0.999621 0.027025 -0.005187
vn -0.999589 0.02854 -0.002594
vn -0.999548 0.030055 0
vn 0.999589 0.02854 -0.002594
vn 0.999548 0.030055 0
vn 0.999589 0.02854 -0.002594
vn 0.999621 0.027025 -0.005187
vn 0 0.982074 -0.188499
vn 0 0.982074 -0.188499
vn 0 0.982074 -0.188499
vn 0 0.982074 -0.188499
vn 0 0 1
vn 0 0 1
vn 0 0 1
vn 0 0 1
vn -0 -0.693101 0.72084
vn -0.910489 -0.330099 0.249086
vn -0.680207 -0.592191 0.432005
vn 0.770952 -0.533639 0.347653
vn 0.890181 -0.323386 0.320936
vn -0.935572 -0.337926 0.102521
vn -0.935149 -0.338748 0.103665
vn 0.93536 -0.33785 0.104684
vn 0.935162 -0.338753 0.103535
vn -0 0.753997 0.656877
vn -0.165852 0.916242 0.364683
vn -0.609636 0.716636 0.338787
vn 0.624885 0.73642 0.259237
vn 0.269994 0.954354 0.127718
vn -0.64319 0.758796 0.102644
vn 0.641691 0.759748 0.104959
usemtl datan_common_mobbody3_db94a835
f 1/1/1 2/2/2 3/3/3
f 3/3/3 4/4/4 1/1/1
f 5/5/5 6/6/6 7/7/7
f 7/7/7 8/8/8 5/5/5
f 9/9/9 10/10/10 11/11/11
f 11/11/11 12/12/12 9/9/9
f 13/13/13 14/14/14 15/15/15
f 15/15/15 16/16/16 13/13/13
f 17/17/17 18/18/18 19/19/19
f 19/19/19 20/20/20 17/17/17
f 21/21/21 22/22/22 23/23/23
f 23/23/23 24/24/24 21/21/21
f 25/25/25 26/26/26 27/27/27
f 27/27/27 28/28/28 25/25/25
f 29/29/29 30/30/30 31/31/31
f 31/31/31 32/32/32 29/29/29
f 33/33/33 34/34/34 35/35/35
f 35/35/35 36/36/36 33/33/33
f 37/37/37 38/38/38 39/39/39
f 39/39/39 40/40/40 37/37/37
f 41/41/41 42/42/42 43/43/43
f 41/41/41 43/43/43 44/44/44
f 41/41/41 44/44/44 45/45/45
f 42/42/42 46/46/46 47/47/47
f 42/42/42 47/47/47 43/43/43
f 44/44/44 48/48/48 49/49/49
f 44/44/44 49/49/49 45/45/45
f 50/50/50 51/51/51 52/52/52
f 50/50/50 53/53/53 51/51/51
f 51/51/51 54/54/54 55/55/55
f 51/51/51 55/55/55 52/52/52
f 53/53/53 56/56/56 54/54/54
