# Generated from Nova1492 GX by tools/nova1492/GxObjConverter
mtllib datan_common_mobbody2_b8b5f539.mtl
o datan_common_mobbody2_b8b5f539_mesh00
v 0 -0.000009 0.122017
v 0.074936 -0.000009 -0.03824
v 0.10491 0.16251 -0.122017
v 0 0.16251 0.089979
v -0.074936 -0.000009 -0.03824
v -0.10491 0.16251 -0.122017
vt 0.476719 0.023281
vt 0.413549 0.135319
vt 0.072373 0.184005
vt 0.163895 0.007969
vt 0.476719 0.135319
vt 0.189138 0.184005
vn 0.56524 0.139937 0.812971
vn 0.490474 -0.469062 -0.73445
vn 0.984447 -0.175188 -0.013136
vn -0.563062 0.145398 0.813524
vn -0.985198 -0.170911 -0.013211
vn -0.491616 -0.468924 -0.733774
usemtl datan_common_mobbody2_b8b5f539
f 1/1/1 2/2/2 3/3/3
f 3/3/3 4/4/4 1/1/1
f 2/2/2 5/5/5 6/6/6
f 6/6/6 3/3/3 2/2/2
f 5/5/5 1/1/1 4/4/4
f 4/4/4 6/6/6 5/5/5
o datan_common_mobbody2_b8b5f539_mesh01
v 0 -0 -0.873873
v 0.326204 0.188334 -0.654188
v 0.326204 -0.188334 -0.654188
v -0 0.376668 -0.654188
v -0.326204 0.188334 -0.654188
v -0.326204 -0.188334 -0.654188
v 0 -0.376668 -0.654188
v 0.278565 0.16083 -0.05358
v 0.278565 -0.160829 -0.05358
v -0 0.321659 -0.05358
v -0.278565 0.16083 -0.05358
v -0.278565 -0.160829 -0.05358
v 0 -0.321659 -0.05358
v 0 0 -0.05358
v 0 0 1.385039
v 0.263166 0 1.385039
v 0 0.263166 1.385039
v -0.263166 0 1.385039
v 0 -0.263165 1.385039
v 0.263166 0 -0.084168
v 0 0.263166 1.385039
v 0.263166 0 1.385039
v 0 0.263165 -0.084168
v -0.263166 0 1.385039
v -0.263166 0 -0.084168
v 0 -0.263165 1.385039
v 0 -0.263165 -0.084168
vt 0.476484 0.75
vt 0.366385 0.859414
vt 0.366385 0.640586
vt 0.351073 0.976485
vt 0.351073 0.874727
vt 0.351073 0.640586
vt 0.351073 0.523515
vt 0.023516 0.842317
vt 0.023516 0.657684
vt 0.023516 0.942291
vt 0.023516 0.85763
vt 0.023516 0.657684
vt 0.023516 0.557711
vt 0.023516 0.757657
vt 0.760729 0.75607
vt 0.976719 0.75607
vt 0.760729 0.974318
vt 0.527168 0.75607
vt 0.760729 0.523281
vt 0.523516 0.382656
vt 0.976485 0.47661
vt 0.976485 0.382656
vt 0.523516 0.476609
vt 0.976485 0.367344
vt 0.523516 0.367344
vt 0.976485 0.273391
vt 0.523516 0.273391
vn 0 0 -1
vn 0.732956 0.57215 -0.367995
vn 0.861974 -0.348684 -0.367994
vn -0.129018 0.920834 -0.367995
vn -0.861974 0.348684 -0.367995
vn -0.732957 -0.572149 -0.367994
vn 0.129018 -0.920834 -0.367994
vn 0.72059 0.24962 0.64687
vn 0.576472 -0.499239 0.64687
vn 0.144118 0.748859 0.646869
vn -0.576472 0.49924 0.64687
vn -0.72059 -0.249619 0.64687
vn -0.144118 -0.748859 0.64687
vn 0 0 1
vn 0 0 1
vn 0 0 1
vn 0 0 1
vn 0 0 1
vn 0 0 1
vn 0.948683 0.316228 -0
vn 0.316227 0.948684 -0
vn 0.948683 -0.316229 0
vn -0.316227 0.948683 -0
vn -0.948683 0.316228 -0
vn -0.948683 -0.316229 0
vn -0.316227 -0.948684 0
vn 0.316227 -0.948684 0
usemtl datan_common_mobbody2_b8b5f539
f 7/7/7 8/8/8 9/9/9
f 7/7/7 10/10/10 8/8/8
f 7/7/7 11/11/11 10/10/10
f 7/7/7 12/12/12 11/11/11
f 7/7/7 13/13/13 12/12/12
f 7/7/7 9/9/9 13/13/13
f 9/9/9 14/14/14 15/15/15
f 9/9/9 8/8/8 14/14/14
f 8/8/8 16/16/16 14/14/14
f 8/8/8 10/10/10 16/16/16
f 10/10/10 17/17/17 16/16/16
f 10/10/10 11/11/11 17/17/17
f 11/11/11 18/18/18 17/17/17
f 11/11/11 12/12/12 18/18/18
f 12/12/12 19/19/19 18/18/18
f 12/12/12 13/13/13 19/19/19
f 13/13/13 15/15/15 19/19/19
f 13/13/13 9/9/9 15/15/15
f 20/20/20 15/15/15 14/14/14
f 20/20/20 14/14/14 16/16/16
f 20/20/20 16/16/16 17/17/17
f 20/20/20 17/17/17 18/18/18
f 20/20/20 18/18/18 19/19/19
f 20/20/20 19/19/19 15/15/15
f 21/21/21 22/22/22 23/23/23
f 21/21/21 23/23/23 24/24/24
f 21/21/21 24/24/24 25/25/25
f 21/21/21 25/25/25 22/22/22
f 26/26/26 27/27/27 28/28/28
f 26/26/26 29/29/29 27/27/27
f 29/29/29 30/30/30 27/27/27
f 29/29/29 31/31/31 30/30/30
f 31/31/31 32/32/32 30/30/30
f 31/31/31 33/33/33 32/32/32
f 33/33/33 28/28/28 32/32/32
f 33/33/33 26/26/26 28/28/28
