# Generated from Nova1492 GX by tools/nova1492/GxObjConverter
mtllib datan_common_mobbody1_ad1aaa9c.mtl
o datan_common_mobbody1_ad1aaa9c
v -0.151607 0.194931 0.283903
v -0.151607 0.036317 0.287895
v 0.155403 0.036317 0.287895
v 0.155403 0.194931 0.283903
v -0.218126 -0.000295 -0.089888
v -0.218126 0.227052 -0.09561
v 0.221922 0.227052 -0.09561
v 0.221922 -0.000295 -0.089888
v -0.218126 0.227052 -0.09561
v -0.151607 0.194931 0.283903
v 0.155403 0.194931 0.283903
v 0.221922 0.227052 -0.09561
v -0.218126 0.227052 -0.09561
v -0.218126 -0.000295 -0.089888
v -0.151607 0.036317 0.287895
v -0.151607 0.194931 0.283903
v 0.221922 0.227052 -0.09561
v 0.155403 0.194931 0.283903
v 0.155403 0.036317 0.287895
v 0.221922 -0.000295 -0.089888
vt 0.523516 0.22661
vt 0.523516 0.031646
vt 0.976484 0.031646
vt 0.976485 0.226609
vt 0.523515 0.023391
vt 0.523516 0.218354
vt 0.976484 0.218354
vt 0.976484 0.02339
vt 0.476719 0.023515
vt 0.424133 0.476485
vt 0.075867 0.476485
vt 0.023281 0.023515
vt 0.976484 0.476609
vt 0.976484 0.273391
vt 0.523516 0.273391
vt 0.523516 0.47661
vt 0.976484 0.476609
vt 0.523516 0.47661
vt 0.523516 0.273391
vt 0.976484 0.273391
vn 0 0.02516 0.999683
vn 0 0.02516 0.999683
vn 0 0.02516 0.999683
vn 0 0.02516 0.999683
vn 0 -0.025161 -0.999683
vn 0 -0.025161 -0.999683
vn 0 -0.025161 -0.999683
vn 0 -0.025161 -0.999683
vn 0 0.996437 0.084336
vn 0 0.996437 0.084336
vn 0 0.996437 0.084336
vn 0 0.996437 0.084336
vn -0.984913 0.004354 0.172999
vn -0.984913 0.004354 0.172999
vn -0.984913 0.004354 0.172999
vn -0.984913 0.004354 0.172999
vn 0.984913 0.004354 0.172999
vn 0.984913 0.004354 0.172999
vn 0.984913 0.004354 0.172999
vn 0.984913 0.004354 0.172999
usemtl datan_common_mobbody1_ad1aaa9c
f 1/1/1 2/2/2 3/3/3
f 3/3/3 4/4/4 1/1/1
f 5/5/5 6/6/6 7/7/7
f 7/7/7 8/8/8 5/5/5
f 9/9/9 10/10/10 11/11/11
f 11/11/11 12/12/12 9/9/9
f 13/13/13 14/14/14 15/15/15
f 15/15/15 16/16/16 13/13/13
f 17/17/17 18/18/18 19/19/19
f 19/19/19 20/20/20 17/17/17
