# Generated from Nova1492 GX by tools/nova1492/GxObjConverter
mtllib datan_common_vir_5279db08.mtl
o datan_common_vir_5279db08_mesh00
v 0.402052 -0.405329 0.403475
v 0.94364 -0.405329 0.403475
v 0.94364 0.130419 0.403475
v 0.402052 0.130419 0.403475
vt 0.498086 0.751914
vt 0.748086 0.751914
vt 0.748086 1.001914
vt 0.498086 1.001914
vn 0.554649 -0.113309 0.824333
vn 0.554649 -0.113309 0.824333
vn 0.554649 -0.113309 0.824333
vn 0.554649 -0.113309 0.824333
usemtl datan_common_vir_5279db08
f 1/1/1 2/2/2 3/3/3
f 3/3/3 4/4/4 1/1/1
o datan_common_vir_5279db08_mesh01
v 0.94364 -0.405329 -0.401084
v 0.402052 -0.405329 -0.401084
v 0.402052 0.130419 -0.401084
v 0.94364 0.130419 -0.401084
vt 0.498086 0.751914
vt 0.748086 0.751914
vt 0.748086 1.001914
vt 0.498086 1.001914
vn 0.554649 -0.113309 -0.824333
vn 0.554649 -0.113309 -0.824333
vn 0.554649 -0.113309 -0.824333
vn 0.554649 -0.113309 -0.824333
usemtl datan_common_vir_5279db08
f 5/5/5 6/6/6 7/7/7
f 7/7/7 8/8/8 5/5/5
