# Generated from Nova1492 GX by tools/nova1492/GxObjConverter
mtllib datan_common_amr38_mtsg_5d0c229c.mtl
o datan_common_amr38_mtsg_5d0c229c
v -0.108929 0.537118 0.202835
v 0.108929 0.537118 0.202835
v 0.108929 0.600041 0.114974
v -0.108929 0.600041 0.114974
v 0.108929 0.600041 0.114974
v 0.346107 0.516921 0.168501
v 0.345473 0.55533 0.021034
v 0.108929 0.600041 -0.181104
v -0.108929 0.600041 -0.181104
v 0.345473 0.55533 0.021034
v 0.345473 0.55533 -0.181104
v 0.108929 0.533377 -0.279201
v -0.108929 0.533377 -0.279201
v 0.345473 0.55533 -0.181104
v 0.319882 0.506732 -0.257433
v 0.108929 0 0.325171
v 0.234774 -0 0.156904
v 0.281212 0.197358 0.170599
v 0.108929 0.197358 0.330649
v 0.35614 0.394716 0.300945
v 0.108929 0.394716 0.388364
v 0.35614 0.394716 0.300945
v 0.346107 0.516921 0.168501
v 0.108929 0.537118 0.202835
v 0.281212 0.197358 0.170599
v 0.268193 -0 -0.085811
v 0.307027 0.197358 -0.085811
v 0.260382 -0 -0.233583
v 0.281212 0.197358 -0.233583
v 0.406 0.387811 -0.041667
v 0.35614 0.394716 0.300945
v 0.406 0.387811 -0.041667
v 0.34811 0.394716 -0.29222
v 0.345473 0.55533 -0.181104
v 0.406 0.387811 -0.041667
v 0.34811 0.394716 -0.29222
v 0.345473 0.55533 -0.181104
v 0.108929 0.394716 -0.340445
v 0.34811 0.394716 -0.29222
v -0.108929 0.394716 -0.340445
v -0.108929 0.600041 0.114974
v -0.345473 0.55533 0.021034
v -0.346107 0.516921 0.168501
v -0.108929 0.537118 0.202835
v -0.108929 0.600041 -0.181104
v -0.345473 0.55533 -0.181104
v -0.345473 0.55533 0.021034
v -0.108929 0.600041 0.114974
v -0.319882 0.506732 -0.257433
v -0.345473 0.55533 -0.181104
v -0.108929 0.533377 -0.279201
v -0.108929 0 0.325171
v -0.281212 0.197358 0.170599
v -0.234774 -0 0.156904
v -0.108929 0.197358 0.330649
v -0.35614 0.394716 0.300945
v -0.108929 0.394716 0.388364
v -0.346107 0.516921 0.168501
v -0.35614 0.394716 0.300945
v -0.108929 0.537118 0.202835
v -0.281212 0.197358 0.170599
v -0.307027 0.197358 -0.085811
v -0.268193 -0 -0.085811
v -0.281212 0.197358 -0.233583
v -0.260382 -0 -0.233583
v -0.406 0.387811 -0.041667
v -0.35614 0.394716 0.300945
v -0.406 0.387811 -0.041667
v -0.34811 0.394716 -0.29222
v -0.345473 0.55533 -0.181104
v -0.406 0.387811 -0.041667
v -0.34811 0.394716 -0.29222
v -0.345473 0.55533 -0.181104
v -0.108929 0.394716 -0.340445
v -0.34811 0.394716 -0.29222
v 0.260382 -0 -0.233583
v 0.108929 -0 -0.262543
v 0.108929 0.197358 -0.274213
v 0.281212 0.197358 -0.233583
v 0.108929 0.394716 -0.340445
v 0.34811 0.394716 -0.29222
v -0.260382 -0 -0.233583
v -0.108929 0.197358 -0.274213
v -0.108929 -0 -0.262543
v -0.281212 0.197358 -0.233583
v -0.108929 0.394716 -0.340445
v -0.34811 0.394716 -0.29222
v -0.108929 -0 -0.2179
v -0.108929 0.537118 -0.219058
v -0.108929 0.197358 0.330649
v -0.108929 0 0.325171
v 0.108929 0.197358 0.330649
v 0.108929 -0 -0.2179
v 0.108929 0 0.325171
v 0.108929 0.537118 -0.219058
v -0.108929 0.394716 0.388364
v 0.108929 0.394716 0.388364
v -0.108929 0.537118 0.202835
v 0.108929 0.537118 0.202835
v 0.108929 0.537118 -0.219058
v -0.108929 0.537118 -0.219058
v -0.108929 -0 -0.2179
v 0.108929 -0 -0.2179
v 0.452407 0.417037 -0.355717
v 0.452407 0.57223 -0.379707
v 0.31186 0.385081 -0.283394
v 0.31186 0.583729 -0.314102
v 0.452407 0.703367 -0.540951
v 0.31186 0.751584 -0.520494
v 0.452407 0.733628 -0.744993
v 0.311859 0.790318 -0.781668
v 0.452407 0.645287 -0.872309
v 0.311859 0.677242 -0.944632
v 0.311859 0.478595 -0.913924
v 0.452407 0.490094 -0.848318
v 0.31186 0.31074 -0.707532
v 0.452407 0.358957 -0.687075
v 0.452407 0.358957 -0.687075
v 0.31186 0.272006 -0.446358
v 0.31186 0.31074 -0.707532
v 0.452407 0.328696 -0.483032
v -0.311859 0.583729 -0.314102
v -0.311859 0.385081 -0.283394
v -0.311859 0.751584 -0.520494
v -0.311859 0.790318 -0.781668
v -0.311859 0.677242 -0.944632
v -0.311859 0.478594 -0.913924
v -0.311859 0.31074 -0.707532
v -0.311859 0.272006 -0.446358
v -0.452407 0.57223 -0.379707
v -0.452407 0.417036 -0.355717
v -0.452407 0.703366 -0.540951
v -0.452407 0.733628 -0.744993
v -0.452407 0.645287 -0.872309
v -0.452407 0.490094 -0.848318
v -0.452407 0.358957 -0.687074
v -0.311859 0.31074 -0.707532
v -0.452407 0.358957 -0.687074
v -0.452407 0.328696 -0.483032
v 0.452407 0.703367 -0.540951
v 0.452407 0.57223 -0.379707
v 0.452407 0.417037 -0.355717
v 0.452407 0.645287 -0.872309
v 0.452407 0.733628 -0.744993
v 0.452407 0.490094 -0.848318
v 0.452407 0.358957 -0.687075
v 0.452407 0.328696 -0.483032
v -0.452407 0.703366 -0.540951
v -0.452407 0.417036 -0.355717
v -0.452407 0.57223 -0.379707
v -0.452407 0.733628 -0.744993
v -0.452407 0.645287 -0.872309
v -0.452407 0.490094 -0.848318
v -0.452407 0.358957 -0.687074
v -0.452407 0.328696 -0.483032
v -0.307748 0.55875 0.164992
v -0.189087 0.576423 0.205157
v -0.270201 0.836465 -0.719649
v -0.165102 0.87114 -0.719649
v -0.257951 0.689193 -1.008253
v -0.156613 0.709958 -1.047003
v -0.31432 0.405821 0.319836
v -0.193349 0.405821 0.369489
v -0.257951 0.689193 -1.008253
v -0.31432 0.405821 0.319836
v -0.307748 0.55875 0.164992
v -0.270201 0.836465 -0.719649
v -0.165102 0.87114 -0.719649
v -0.156613 0.709958 -1.047003
v -0.193349 0.405821 0.369489
v 0.189087 0.576423 0.205157
v 0.307748 0.55875 0.164992
v 0.270201 0.836465 -0.719649
v 0.165102 0.87114 -0.719649
v 0.257951 0.689193 -1.008253
v 0.156613 0.709958 -1.047003
v 0.193349 0.405821 0.369489
v 0.31432 0.405821 0.319836
v 0.31432 0.405821 0.319836
v 0.257951 0.689193 -1.008253
v 0.307748 0.55875 0.164992
v 0.270201 0.836465 -0.719649
v 0.165102 0.87114 -0.719649
v 0.156613 0.709958 -1.047003
v 0.193349 0.405821 0.369489
vt 0.005941 0.611862
vt 0.054268 0.611862
vt 0.054268 0.649603
vt 0.005941 0.653431
vt 0.058097 0.653431
vt 0.106732 0.63284
vt 0.097933 0.685737
vt 0.054268 0.767318
vt 0.005941 0.767318
vt 0.097933 0.689565
vt 0.097942 0.767318
vt 0.055141 0.812853
vt 0.005941 0.81294
vt 0.097942 0.767318
vt 0.101809 0.809895
vt 0.241761 0.611112
vt 0.236799 0.649488
vt 0.199638 0.638538
vt 0.201019 0.581582
vt 0.140716 0.580998
vt 0.12531 0.506066
vt 0.140716 0.580998
vt 0.106732 0.63284
vt 0.054268 0.611862
vt 0.199638 0.642366
vt 0.244059 0.732184
vt 0.204466 0.729505
vt 0.240748 0.811777
vt 0.193851 0.812418
vt 0.145359 0.709855
vt 0.140716 0.580998
vt 0.145359 0.713683
vt 0.140827 0.830463
vt 0.097942 0.767318
vt 0.145359 0.713683
vt 0.140827 0.830463
vt 0.097942 0.767318
vt 0.054268 0.871247
vt 0.102599 0.863702
vt 0.005941 0.871247
vt 0.058097 0.653431
vt 0.097933 0.685737
vt 0.106732 0.63284
vt 0.054268 0.611862
vt 0.058097 0.76349
vt 0.097942 0.76349
vt 0.097933 0.689565
vt 0.054268 0.653431
vt 0.101809 0.809895
vt 0.097942 0.767318
vt 0.055141 0.812853
vt 0.241761 0.611112
vt 0.199638 0.638538
vt 0.236799 0.649488
vt 0.201019 0.581582
vt 0.140716 0.580998
vt 0.12531 0.506066
vt 0.106732 0.63284
vt 0.140716 0.580998
vt 0.054268 0.611862
vt 0.199638 0.642366
vt 0.204466 0.729505
vt 0.244059 0.732184
vt 0.193851 0.812418
vt 0.240748 0.811777
vt 0.145359 0.709855
vt 0.140716 0.580998
vt 0.145359 0.713683
vt 0.140827 0.830463
vt 0.097942 0.767318
vt 0.145359 0.713683
vt 0.140827 0.830463
vt 0.097942 0.767318
vt 0.054268 0.871247
vt 0.102599 0.863702
vt 0.323817 0.583493
vt 0.322312 0.583996
vt 0.322312 0.580321
vt 0.324714 0.575787
vt 0.322312 0.569939
vt 0.329397 0.569101
vt 0.323817 0.583493
vt 0.322312 0.580321
vt 0.322312 0.583996
vt 0.324714 0.575787
vt 0.322312 0.569939
vt 0.329397 0.569101
vt 0.07015 0.130981
vt 0.06981 0.244121
vt 0.20728 0.17396
vt 0.205674 0.130981
vt 0.20728 0.170132
vt 0.07015 0.130981
vt 0.205674 0.130981
vt 0.065982 0.244121
vt 0.244059 0.21311
vt 0.244059 0.21311
vt 0.189668 0.244121
vt 0.189668 0.244121
vt 0.065982 0.244121
vt 0.005941 0.244019
vt 0.006281 0.130879
vt 0.066322 0.130981
vt 0.127647 0.255941
vt 0.170002 0.255941
vt 0.127647 0.289695
vt 0.170002 0.293524
vt 0.248025 0.255941
vt 0.248025 0.293524
vt 0.324437 0.255941
vt 0.324437 0.293524
vt 0.369913 0.255941
vt 0.369913 0.293524
vt 0.416096 0.293524
vt 0.416096 0.255941
vt 0.494119 0.293524
vt 0.494119 0.255941
vt 0.00582 0.255941
vt 0.078343 0.289695
vt 0.00582 0.289695
vt 0.078343 0.255941
vt 0.170002 0.456476
vt 0.123819 0.456476
vt 0.248025 0.456476
vt 0.324437 0.456477
vt 0.369913 0.456476
vt 0.416096 0.456477
vt 0.494119 0.456477
vt 0.078343 0.456476
vt 0.170002 0.494059
vt 0.123819 0.494059
vt 0.248025 0.494059
vt 0.324437 0.494059
vt 0.369913 0.494059
vt 0.416096 0.494059
vt 0.494119 0.494059
vt 0.00582 0.456477
vt 0.00582 0.494059
vt 0.078343 0.494059
vt 0.411133 0.110372
vt 0.482823 0.072459
vt 0.494059 0.031419
vt 0.255941 0.093581
vt 0.311741 0.119121
vt 0.267177 0.048713
vt 0.338868 0.014628
vt 0.434431 0.005879
vt 0.411133 0.110372
vt 0.494059 0.031419
vt 0.482823 0.072459
vt 0.311741 0.119121
vt 0.255941 0.093581
vt 0.267177 0.048713
vt 0.338868 0.014628
vt 0.434431 0.005879
vt 0.58861 0.090661
vt 0.630627 0.079535
vt 0.596202 0.378828
vt 0.642887 0.381371
vt 0.569125 0.478692
vt 0.61295 0.493934
vt 0.574031 0.023057
vt 0.613863 0.006066
vt 0.505941 0.453093
vt 0.546611 0.030343
vt 0.584782 0.090661
vt 0.596202 0.378828
vt 0.642887 0.381371
vt 0.744059 0.462475
vt 0.674558 0.013156
vt 0.630627 0.079535
vt 0.58861 0.090661
vt 0.596202 0.378828
vt 0.642887 0.381371
vt 0.569125 0.478692
vt 0.61295 0.493934
vt 0.613863 0.006066
vt 0.574031 0.023057
vt 0.546611 0.030343
vt 0.505941 0.453093
vt 0.584782 0.090661
vt 0.596202 0.378828
vt 0.642887 0.381371
vt 0.744059 0.462475
vt 0.674558 0.013156
vn 0 0.813011 0.582248
vn 0.15174 0.803597 0.575506
vn 0.18573 0.982601 0
vn 0 1 -0
vn 0.15174 0.803597 0.575506
vn 0.964528 0.226372 0.135804
vn 0.271964 0.931524 0.241451
vn 0.160363 0.816387 -0.554794
vn 0 0.827091 -0.562068
vn 0.940493 0.339813 -0.000001
vn 0.18573 0.982601 -0
vn 0 0.404029 -0.914746
vn 0 0.404029 -0.914746
vn 0.153023 0.809563 -0.566737
vn 0.186307 0.333898 -0.924014
vn 0.680478 -0.020333 0.732487
vn 0.962736 -0.23573 0.132559
vn 0.546514 -0.596024 0.588284
vn 0.321397 -0.26579 0.908878
vn 0.321397 -0.26579 0.908878
vn 0.153837 0.783826 0.601623
vn 0.23002 0.723859 0.650476
vn 0.153837 0.783826 0.601623
vn 0.153837 0.783826 0.601623
vn 0.875379 -0.475335 0.088133
vn 0.967081 -0.190292 -0.168946
vn 0.890825 -0.426862 -0.155624
vn 0.993105 -0.104819 -0.052498
vn 0.890825 -0.426862 -0.155624
vn 0.940493 0.339813 -0.000001
vn 0.964528 0.226372 0.135804
vn 0.890825 -0.426862 -0.155624
vn 0.902533 -0.370921 -0.218752
vn 0.940493 0.339813 -0.000001
vn 0.936826 0.050361 -0.346152
vn 0.931528 0.299017 -0.20699
vn 0.936826 0.050361 -0.346152
vn 0 0.404029 -0.914746
vn 0.186307 0.333898 -0.924014
vn 0 0.404029 -0.914746
vn -0.15174 0.803597 0.575506
vn -0.271964 0.931524 0.241451
vn -0.964528 0.226372 0.135804
vn -0.15174 0.803597 0.575506
vn -0.160363 0.816387 -0.554794
vn -0.18573 0.982601 -0
vn -0.940493 0.339813 -0.000001
vn -0.18573 0.982601 0
vn -0.186307 0.333898 -0.924014
vn -0.153023 0.809563 -0.566737
vn -0.143907 0.399823 -0.905225
vn -0.680478 -0.020333 0.732487
vn -0.546514 -0.596024 0.588284
vn -0.962736 -0.23573 0.132559
vn -0.321397 -0.26579 0.908878
vn -0.321397 -0.26579 0.908878
vn -0.153837 0.783826 0.601623
vn -0.153837 0.783826 0.601623
vn -0.23002 0.723859 0.650476
vn -0.153837 0.783826 0.601623
vn -0.875379 -0.475335 0.088133
vn -0.890825 -0.426862 -0.155624
vn -0.967081 -0.190292 -0.168946
vn -0.890825 -0.426862 -0.155624
vn -0.993105 -0.104819 -0.052498
vn -0.940493 0.339813 -0.000001
vn -0.964528 0.226372 0.135804
vn -0.890825 -0.426862 -0.155624
vn -0.902533 -0.370921 -0.218752
vn -0.940493 0.339813 -0.000001
vn -0.936826 0.050361 -0.346152
vn -0.931528 0.299017 -0.20699
vn -0.936826 0.050361 -0.346152
vn -0.186307 0.333898 -0.924014
vn -0.186307 0.333898 -0.924014
vn 0.229469 -0.02422 -0.973015
vn 0.187497 -0.057981 -0.980553
vn 0.218191 -0.310492 -0.925196
vn 0.186071 -0.337257 -0.922841
vn 0.186071 -0.337257 -0.922841
vn 0.186071 -0.337257 -0.922841
vn -0.229469 -0.02422 -0.973015
vn -0.218191 -0.310492 -0.925196
vn -0.187497 -0.057981 -0.980553
vn -0.186071 -0.337257 -0.922841
vn -0.186071 -0.337257 -0.922841
vn -0.186071 -0.337257 -0.922841
vn 1 0 -0
vn 1 0.000001 0.000001
vn 1 -0 0
vn 1 0 -0
vn -1 -0 -0
vn -1 -0 -0
vn -1 0 -0
vn -1 0.000001 0
vn 1 0.000001 0.000001
vn -1 0.000001 0
vn 1 0.000001 0.000001
vn -1 0.000001 0
vn -0 0.002155 0.999998
vn 0 0.002155 0.999998
vn -0 0.002155 0.999998
vn -0 0.002155 0.999998
vn 0.881378 -0.425792 -0.204633
vn 0.258008 0.966017 -0.015588
vn 0.000001 -0.988524 -0.151062
vn -0 0.99992 0.012662
vn 0.215478 0.928461 -0.302537
vn -0 0.955817 -0.293962
vn 0.246678 0.725023 -0.643033
vn -0 0.752441 -0.65866
vn 0.264999 0.243525 -0.932991
vn -0 0.229999 -0.973191
vn -0 -0.192485 -0.9813
vn 0.265345 -0.156575 -0.951355
vn -0 -0.192485 -0.9813
vn 0.265345 -0.156575 -0.951355
vn 0.370126 -0.435196 -0.820738
vn 0.000001 -0.988524 -0.151062
vn 0.370127 -0.435196 -0.820738
vn 0.881378 -0.425792 -0.204633
vn -0.258007 0.966017 -0.015588
vn -0.881378 -0.425793 -0.204632
vn -0.215477 0.928461 -0.302538
vn -0.246678 0.725023 -0.643033
vn -0.264999 0.243525 -0.932991
vn -0.265344 -0.156575 -0.951355
vn -0.265344 -0.156575 -0.951355
vn -0.881377 -0.425793 -0.204632
vn -0.258007 0.966017 -0.015588
vn -0.881378 -0.425793 -0.204632
vn -0.215478 0.928461 -0.302537
vn -0.246678 0.725023 -0.643033
vn -0.264999 0.243525 -0.932991
vn -0.265344 -0.156575 -0.951355
vn -0.265344 -0.156575 -0.951355
vn -0.370126 -0.435196 -0.820738
vn -0.370126 -0.435196 -0.820738
vn -0.881378 -0.425793 -0.204632
vn 0.776146 0.41255 -0.476866
vn 0.776146 0.41255 -0.476865
vn 0.776146 0.41255 -0.476866
vn 0.776146 0.41255 -0.476865
vn 0.776146 0.41255 -0.476866
vn 0.776146 0.41255 -0.476865
vn 0.776146 0.41255 -0.476866
vn 0.776146 0.41255 -0.476866
vn -0.776146 0.41255 -0.476865
vn -0.776146 0.41255 -0.476865
vn -0.776146 0.41255 -0.476865
vn -0.776146 0.41255 -0.476865
vn -0.776146 0.41255 -0.476865
vn -0.776146 0.41255 -0.476865
vn -0.776146 0.41255 -0.476865
vn -0.776146 0.41255 -0.476865
vn -0.424156 0.88634 0.185725
vn 0.915292 0.348686 -0.201639
vn -0.363611 0.813795 -0.453349
vn -0.3962 0.805127 -0.441356
vn -0.3962 0.805127 -0.441356
vn -0.3962 0.805127 -0.441356
vn -0.384435 0.903817 0.18795
vn -0.424156 0.88634 0.185725
vn -0.867571 0.359461 -0.34367
vn -0.867571 0.359461 -0.34367
vn -0.867571 0.359461 -0.34367
vn -0.867571 0.359461 -0.34367
vn 0.915293 0.348685 -0.201639
vn 0.915292 0.348686 -0.201639
vn 0.915292 0.348686 -0.201639
vn -0.915292 0.348686 -0.201639
vn 0.424156 0.88634 0.185725
vn 0.363611 0.813795 -0.453349
vn 0.3962 0.805127 -0.441356
vn 0.3962 0.805127 -0.441356
vn 0.3962 0.805127 -0.441356
vn 0.424156 0.88634 0.185725
vn 0.384435 0.903817 0.18795
vn 0.867571 0.359461 -0.34367
vn 0.867571 0.359461 -0.34367
vn 0.867571 0.359461 -0.34367
vn 0.867571 0.359461 -0.34367
vn -0.915293 0.348685 -0.201639
vn -0.915292 0.348686 -0.201639
vn -0.915292 0.348686 -0.201639
usemtl datan_common_amr38_mtsg_5d0c229c
f 1/1/1 2/2/2 3/3/3
f 3/3/3 4/4/4 1/1/1
f 5/5/5 6/6/6 7/7/7
f 6/6/6 5/5/5 2/2/2
f 4/4/4 3/3/3 8/8/8
f 8/8/8 9/9/9 4/4/4
f 8/8/8 10/10/10 11/11/11
f 10/10/10 8/8/8 3/3/3
f 9/9/9 8/8/8 12/12/12
f 12/12/12 13/13/13 9/9/9
f 8/8/8 14/14/14 15/15/15
f 15/15/15 12/12/12 8/8/8
f 16/16/16 17/17/17 18/18/18
f 18/18/18 19/19/19 16/16/16
f 19/19/19 18/18/18 20/20/20
f 20/20/20 21/21/21 19/19/19
f 21/21/21 22/22/22 23/23/23
f 23/23/23 24/24/24 21/21/21
f 25/25/25 26/26/26 27/27/27
f 26/26/26 25/25/25 17/17/17
f 26/26/26 28/28/28 29/29/29
f 29/29/29 27/27/27 26/26/26
f 30/30/30 31/31/31 25/25/25
f 25/25/25 27/27/27 30/30/30
f 32/32/32 29/29/29 33/33/33
f 29/29/29 32/32/32 27/27/27
f 6/6/6 30/30/30 10/10/10
f 30/30/30 6/6/6 31/31/31
f 34/34/34 10/10/10 30/30/30
f 35/35/35 36/36/36 15/15/15
f 15/15/15 37/37/37 35/35/35
f 15/15/15 38/38/38 12/12/12
f 38/38/38 15/15/15 39/39/39
f 38/38/38 40/40/40 13/13/13
f 13/13/13 12/12/12 38/38/38
f 41/41/41 42/42/42 43/43/43
f 43/43/43 44/44/44 41/41/41
f 45/45/45 46/46/46 47/47/47
f 47/47/47 48/48/48 45/45/45
f 45/45/45 49/49/49 50/50/50
f 49/49/49 45/45/45 51/51/51
f 52/52/52 53/53/53 54/54/54
f 53/53/53 52/52/52 55/55/55
f 55/55/55 56/56/56 53/53/53
f 56/56/56 55/55/55 57/57/57
f 57/57/57 58/58/58 59/59/59
f 58/58/58 57/57/57 60/60/60
f 61/61/61 62/62/62 63/63/63
f 63/63/63 54/54/54 61/61/61
f 63/63/63 64/64/64 65/65/65
f 64/64/64 63/63/63 62/62/62
f 66/66/66 61/61/61 67/67/67
f 61/61/61 66/66/66 62/62/62
f 68/68/68 69/69/69 64/64/64
f 64/64/64 62/62/62 68/68/68
f 43/43/43 47/47/47 66/66/66
f 66/66/66 67/67/67 43/43/43
f 70/70/70 66/66/66 47/47/47
f 71/71/71 49/49/49 72/72/72
f 49/49/49 71/71/71 73/73/73
f 49/49/49 51/51/51 74/74/74
f 74/74/74 75/75/75 49/49/49
f 76/76/76 77/77/77 78/78/78
f 78/78/78 79/79/79 76/76/76
f 79/79/79 78/78/78 80/80/80
f 80/80/80 81/81/81 79/79/79
f 82/82/82 83/83/83 84/84/84
f 83/83/83 82/82/82 85/85/85
f 85/85/85 86/86/86 83/83/83
f 86/86/86 85/85/85 87/87/87
f 88/88/88 89/89/89 90/90/90
f 90/90/90 91/91/91 88/88/88
f 92/92/92 93/93/93 94/94/94
f 93/93/93 92/92/92 95/95/95
f 96/96/96 90/90/90 89/89/89
f 97/97/97 95/95/95 92/92/92
f 98/98/98 96/96/96 89/89/89
f 99/99/99 95/95/95 97/97/97
f 100/100/100 101/101/101 102/102/102
f 100/100/100 102/102/102 103/103/103
f 104/104/104 105/105/105 106/106/106
f 106/106/106 105/105/105 107/107/107
f 105/105/105 108/108/108 107/107/107
f 107/107/107 108/108/108 109/109/109
f 108/108/108 110/110/110 109/109/109
f 109/109/109 110/110/110 111/111/111
f 110/110/110 112/112/112 111/111/111
f 111/111/111 112/112/112 113/113/113
f 112/112/112 114/114/114 113/113/113
f 112/112/112 115/115/115 114/114/114
f 115/115/115 116/116/116 114/114/114
f 115/115/115 117/117/117 116/116/116
f 118/118/118 119/119/119 120/120/120
f 118/118/118 121/121/121 119/119/119
f 121/121/121 106/106/106 119/119/119
f 121/121/121 104/104/104 106/106/106
f 106/106/106 122/122/122 123/123/123
f 106/106/106 107/107/107 122/122/122
f 107/107/107 124/124/124 122/122/122
f 107/107/107 109/109/109 124/124/124
f 109/109/109 125/125/125 124/124/124
f 109/109/109 111/111/111 125/125/125
f 111/111/111 126/126/126 125/125/125
f 111/111/111 113/113/113 126/126/126
f 113/113/113 127/127/127 126/126/126
f 113/113/113 114/114/114 127/127/127
f 114/114/114 128/128/128 127/127/127
f 114/114/114 116/116/116 128/128/128
f 119/119/119 123/123/123 129/129/129
f 119/119/119 106/106/106 123/123/123
f 123/123/123 130/130/130 131/131/131
f 123/123/123 122/122/122 130/130/130
f 122/122/122 132/132/132 130/130/130
f 122/122/122 124/124/124 132/132/132
f 124/124/124 133/133/133 132/132/132
f 124/124/124 125/125/125 133/133/133
f 125/125/125 134/134/134 133/133/133
f 125/125/125 126/126/126 134/134/134
f 126/126/126 127/127/127 134/134/134
f 134/134/134 127/127/127 135/135/135
f 127/127/127 128/128/128 135/135/135
f 135/135/135 128/128/128 136/136/136
f 137/137/137 129/129/129 138/138/138
f 138/138/138 129/129/129 139/139/139
f 129/129/129 123/123/123 139/139/139
f 139/139/139 123/123/123 131/131/131
f 140/140/140 141/141/141 142/142/142
f 140/140/140 143/143/143 144/144/144
f 140/140/140 145/145/145 143/143/143
f 140/140/140 146/146/146 145/145/145
f 140/140/140 147/147/147 146/146/146
f 140/140/140 142/142/142 147/147/147
f 148/148/148 149/149/149 150/150/150
f 148/148/148 151/151/151 152/152/152
f 148/148/148 152/152/152 153/153/153
f 148/148/148 153/153/153 154/154/154
f 148/148/148 154/154/154 155/155/155
f 148/148/148 155/155/155 149/149/149
f 156/156/156 157/157/157 158/158/158
f 159/159/159 158/158/158 157/157/157
f 158/158/158 159/159/159 160/160/160
f 161/161/161 160/160/160 159/159/159
f 162/162/162 163/163/163 156/156/156
f 157/157/157 156/156/156 163/163/163
f 164/164/164 165/165/165 166/166/166
f 166/166/166 167/167/167 164/164/164
f 168/168/168 157/157/157 169/169/169
f 170/170/170 169/169/169 157/157/157
f 171/171/171 172/172/172 173/173/173
f 173/173/173 174/174/174 171/171/171
f 174/174/174 173/173/173 175/175/175
f 175/175/175 176/176/176 174/174/174
f 177/177/177 178/178/178 172/172/172
f 172/172/172 171/171/171 177/177/177
f 179/179/179 180/180/180 181/181/181
f 182/182/182 181/181/181 180/180/180
f 171/171/171 183/183/183 184/184/184
f 184/184/184 185/185/185 171/171/171
