# Generated from Nova1492 GX by tools/nova1492/GxObjConverter
mtllib datan_common_acpwt50_591fe82f.mtl
o datan_common_acpwt50_591fe82f
v 0.076718 0.513043 -0.178032
v -0 0.527587 -0.18528
v -0 0.527587 0.18528
v -0 0.420582 -0.203178
v 0.076718 0.513043 0.178032
v -0.076718 0.513043 -0.178032
v -0.076718 0.513043 0.178032
v 0.034307 0.404251 0.24061
v 0.097826 0.404251 0.201082
v -0 0.420582 0.203178
v -0.034307 0.404251 -0.24061
v -0.097826 0.404251 -0.201082
v 0.097826 0.404251 -0.201082
v 0.112008 0.0139 -0.237994
v 0.034307 0.404251 -0.24061
v 0.03466 0.074847 -0.279208
v 0.112008 0.0139 0.237994
v 0.03466 0.074847 0.279208
v -0.112008 0.0139 0.237994
v -0.034307 0.404251 0.24061
v -0.097826 0.404251 0.201082
v -0.03466 0.074847 0.279208
v -0.112008 0.0139 -0.237994
v -0.03466 0.074847 -0.279208
v 0.097826 0.404251 0.201082
v 0.097826 0.404251 -0.201082
v 0.076718 0.513043 -0.178032
v -0.097826 0.404251 -0.201082
v -0.097826 0.404251 0.201082
v -0.076718 0.513043 0.178032
v 0.112008 0.0139 -0.237994
v 0.112008 0.0139 0.237994
v 0.076718 0.513043 0.178032
v -0.112008 0.0139 0.237994
v -0.112008 0.0139 -0.237994
v -0.076718 0.513043 -0.178032
v 0 0.679197 -0
v 0.0929 0.671826 -0
v 0.04645 0.671826 -0.080454
v -0.04645 0.671826 -0.080454
v -0.0929 0.671826 0
v -0.04645 0.671826 0.080454
v 0.04645 0.671826 0.080454
v 0.089299 0.610208 -0.154671
v 0.178599 0.610208 -0
v -0.089299 0.610208 -0.154671
v -0.178599 0.610208 0
v -0.089299 0.610208 0.154671
v 0.089299 0.610208 0.154671
vt 0.451357 0.964147
vt 0.378828 0.976235
vt 0.378828 0.976235
vt 0.371172 0.789952
vt 0.451357 0.948835
vt 0.298643 0.964147
vt 0.298643 0.948835
vt 0.414685 0.759184
vt 0.473419 0.759184
vt 0.371172 0.789952
vt 0.335315 0.759184
vt 0.276581 0.759184
vt 0.473419 0.743871
vt 0.488242 0.023765
vt 0.414685 0.743871
vt 0.407399 0.138589
vt 0.488242 0.023765
vt 0.407398 0.138589
vt 0.261758 0.023765
vt 0.335315 0.743871
vt 0.276581 0.743871
vt 0.334945 0.138589
vt 0.261758 0.023765
vt 0.334945 0.138589
vt 0.029915 0.780612
vt 0.220085 0.780612
vt 0.208747 0.976235
vt 0.220085 0.780612
vt 0.029915 0.780612
vt 0.041253 0.976235
vt 0.238242 0.023765
vt 0.011758 0.023765
vt 0.033597 0.976235
vt 0.011758 0.023765
vt 0.238242 0.023765
vt 0.208747 0.976235
vt 0.753828 0.507656
vt 0.872023 0.507656
vt 0.812926 0.744046
vt 0.690903 0.744046
vt 0.627977 0.507656
vt 0.690903 0.255954
vt 0.816754 0.255954
vt 0.874801 0.976235
vt 0.988117 0.507656
vt 0.632855 0.976235
vt 0.511883 0.507656
vt 0.632855 0.023765
vt 0.874801 0.023765
vn 0.137963 0.761373 -0.633464
vn -0 0.760475 -0.649368
vn -0 0.908565 0.417744
vn 0 0.540827 -0.841134
vn 0.110311 0.622987 0.774415
vn -0.137963 0.761373 -0.633464
vn -0.110311 0.622987 0.774415
vn 0.213174 0.403374 0.889857
vn 0.519116 0.186099 0.834198
vn 0 0.540827 0.841134
vn -0.213174 0.403374 -0.889857
vn -0.519116 0.186099 -0.834198
vn 0.519116 0.186099 -0.834198
vn 0.29053 -0.254238 -0.922472
vn 0.180169 0.360055 -0.915369
vn 0.192724 -0.125751 -0.973162
vn 0.382792 -0.131444 0.914436
vn 0.115092 -0.17187 0.978373
vn -0.29053 -0.254238 0.922472
vn -0.180169 0.360055 0.915369
vn -0.519116 0.186099 0.834198
vn -0.192723 -0.125751 0.973162
vn -0.382792 -0.131445 -0.914436
vn -0.115091 -0.17187 -0.978374
vn 0.993512 0.113732 0
vn 0.993512 0.113732 0
vn 0.981693 0.19047 0
vn -0.993512 0.113732 0
vn -0.993512 0.113732 0
vn -0.981693 0.19047 0
vn 0.999341 0.036308 0
vn 0.999341 0.036308 0
vn 0.981693 0.19047 0
vn -0.999341 0.036308 0
vn -0.999341 0.036308 0
vn -0.981693 0.19047 0
vn 0 1 0
vn 0.388452 0.918938 -0.068258
vn 0.135113 0.918938 -0.370538
vn -0.253339 0.918938 -0.30228
vn -0.388452 0.918938 0.068258
vn -0.135113 0.918938 0.370538
vn 0.253339 0.918938 0.30228
vn 0.386747 0.806843 -0.446577
vn 0.580121 0.806843 0.111644
vn -0.193374 0.806843 -0.558222
vn -0.580121 0.806843 -0.111644
vn -0.386747 0.806843 0.446577
vn 0.193374 0.806843 0.558222
usemtl datan_common_acpwt50_591fe82f
f 1/1/1 2/2/2 3/3/3
f 1/1/1 4/4/4 2/2/2
f 3/3/3 5/5/5 1/1/1
f 3/3/3 2/2/2 6/6/6
f 3/3/3 6/6/6 7/7/7
f 8/8/8 9/9/9 5/5/5
f 10/10/10 3/3/3 7/7/7
f 11/11/11 12/12/12 6/6/6
f 5/5/5 3/3/3 10/10/10
f 13/13/13 14/14/14 15/15/15
f 14/14/14 16/16/16 15/15/15
f 8/8/8 17/17/17 9/9/9
f 18/18/18 17/17/17 8/8/8
f 19/19/19 20/20/20 21/21/21
f 22/22/22 20/20/20 19/19/19
f 20/20/20 7/7/7 21/21/21
f 2/2/2 4/4/4 6/6/6
f 11/11/11 23/23/23 12/12/12
f 24/24/24 23/23/23 11/11/11
f 15/15/15 1/1/1 13/13/13
f 10/10/10 20/20/20 8/8/8
f 15/15/15 11/11/11 4/4/4
f 1/1/1 15/15/15 4/4/4
f 5/5/5 10/10/10 8/8/8
f 7/7/7 20/20/20 10/10/10
f 6/6/6 4/4/4 11/11/11
f 16/16/16 24/24/24 15/15/15
f 11/11/11 15/15/15 24/24/24
f 22/22/22 18/18/18 20/20/20
f 8/8/8 20/20/20 18/18/18
f 18/18/18 22/22/22 19/19/19
f 18/18/18 19/19/19 17/17/17
f 24/24/24 16/16/16 14/14/14
f 24/24/24 14/14/14 23/23/23
f 25/25/25 26/26/26 27/27/27
f 28/28/28 29/29/29 30/30/30
f 25/25/25 31/31/31 26/26/26
f 32/32/32 31/31/31 25/25/25
f 27/27/27 33/33/33 25/25/25
f 28/28/28 34/34/34 29/29/29
f 35/35/35 34/34/34 28/28/28
f 30/30/30 36/36/36 28/28/28
f 37/37/37 38/38/38 39/39/39
f 37/37/37 39/39/39 40/40/40
f 37/37/37 40/40/40 41/41/41
f 37/37/37 41/41/41 42/42/42
f 37/37/37 42/42/42 43/43/43
f 37/37/37 43/43/43 38/38/38
f 39/39/39 38/38/38 44/44/44
f 38/38/38 45/45/45 44/44/44
f 40/40/40 39/39/39 46/46/46
f 39/39/39 44/44/44 46/46/46
f 41/41/41 40/40/40 47/47/47
f 40/40/40 46/46/46 47/47/47
f 42/42/42 41/41/41 48/48/48
f 41/41/41 47/47/47 48/48/48
f 43/43/43 42/42/42 49/49/49
