# Generated from Nova1492 GX by tools/nova1492/GxObjConverter
mtllib datan_common_lib_d92e3fe8.mtl
o datan_common_lib_d92e3fe8_mesh00
v -1.012576 -0.426053 -0.392706
v -0.131338 -0.457145 -0.392706
v -1.044499 -0.457145 -0.392706
v 0.131338 -0.457145 -0.392706
v 1.012577 -0.426053 -0.392706
v 1.044499 -0.457145 -0.392706
v -0.977324 -0.389411 -0.392706
v 0.977324 -0.389411 -0.392706
v 0.942319 -0.345757 -0.392706
v -0.942319 -0.345757 -0.392706
v -0.14279 -0.423146 -0.392706
v 0.14279 -0.423146 -0.392706
v -0.91114 -0.293632 -0.392706
v -0.152981 -0.383675 -0.392706
v 0.91114 -0.293632 -0.392706
v 0.152981 -0.383675 -0.392706
v 0.159129 -0.34013 -0.392706
v -0.159129 -0.34013 -0.392706
v 0.887365 -0.231578 -0.392706
v -0.887365 -0.231578 -0.392706
v 0.874572 -0.158133 -0.392706
v 0.411852 -0.161382 -0.392706
v 0.876339 -0.071839 -0.392706
v -0.411852 -0.161382 -0.392706
v -0.874572 -0.158133 -0.392706
v -0.876339 -0.071839 -0.392706
v -0.158452 -0.293914 -0.392706
v 0.158452 -0.293914 -0.392706
v -0.148167 -0.246427 -0.392706
v 0.148167 -0.246427 -0.392706
v 0.125492 -0.199069 -0.392706
v -0.125492 -0.199069 -0.392706
v -0.145519 -0.10871 -0.392706
v -0.087645 -0.153242 -0.392706
v -0.205309 -0.064947 -0.392706
v -0.263287 -0.018924 -0.392706
v -0.496656 -0.10033 -0.392706
v -0.315724 0.032388 -0.392706
v 0.145519 -0.10871 -0.392706
v 0.087645 -0.153242 -0.392706
v 0.205309 -0.064947 -0.392706
v 0.263287 -0.018924 -0.392706
v 0.496657 -0.10033 -0.392706
v 0.315724 0.032388 -0.392706
v 0.358891 0.092017 -0.392706
v 0.587177 -0.032698 -0.392706
v -0.358891 0.092017 -0.392706
v -0.587177 -0.032698 -0.392706
v 0.38906 0.162993 -0.392706
v 0.675288 0.043729 -0.392706
v -0.389059 0.162993 -0.392706
v -0.675288 0.043729 -0.392706
v -0.752863 0.131167 -0.392706
v -0.4025 0.248344 -0.392706
v -0.811778 0.231831 -0.392706
v -0.399147 0.299566 -0.392706
v -0.843907 0.347936 -0.392706
v -0.386677 0.358705 -0.392706
v -0.841123 0.481698 -0.392706
v -0.35973 0.419837 -0.392706
v -0.82209 0.584003 -0.392706
v -0.777288 0.67795 -0.392706
v -0.701953 0.760266 -0.392706
v -0.312948 0.477039 -0.392706
v -0.591321 0.827674 -0.392706
v -0.440627 0.8769 -0.392706
v -0.240972 0.524385 -0.392706
v -0.245108 0.904669 -0.392706
v -0.138442 0.555952 -0.392706
v -0 0.907705 -0.392706
v -0 0.565814 -0.392706
v 0.245108 0.904669 -0.392706
v 0.138442 0.555952 -0.392706
v 0.240972 0.524385 -0.392706
v 0.440627 0.8769 -0.392706
v 0.591321 0.827674 -0.392706
v 0.312948 0.477039 -0.392706
v 0.701953 0.760266 -0.392706
v 0.777288 0.677951 -0.392706
v 0.35973 0.419837 -0.392706
v 0.82209 0.584003 -0.392706
v 0.841123 0.481698 -0.392706
v 0.386676 0.358705 -0.392706
v 0.843906 0.347936 -0.392706
v 0.811778 0.231831 -0.392706
v 0.399147 0.299566 -0.392706
v 0.752863 0.131167 -0.392706
v 0.4025 0.248344 -0.392706
v -1.04072 -0.907705 -0.392706
v 1.003708 -0.865254 -0.392706
v 1.038069 -0.907705 -0.392706
v -1.007744 -0.866223 -0.392706
v -0.980513 -0.825391 -0.392706
v 0.976281 -0.823575 -0.392706
v -0.958463 -0.783489 -0.392706
v 0.954938 -0.781067 -0.392706
v -0.941029 -0.738795 -0.392706
v 0.938832 -0.73613 -0.392706
v -0.92765 -0.689588 -0.392706
v 0.927114 -0.687165 -0.392706
v -0.91776 -0.634145 -0.392706
v 0.918935 -0.632571 -0.392706
v -0.910796 -0.570747 -0.392706
v 0.913447 -0.570747 -0.392706
v -1.012576 -0.426053 0.392706
v -1.044499 -0.457145 0.392706
v -0.131338 -0.457145 0.392706
v 0.131338 -0.457145 0.392706
v 1.044499 -0.457145 0.392706
v 1.012577 -0.426054 0.392706
v -0.977324 -0.389411 0.392706
v 0.977324 -0.389411 0.392706
v 0.942319 -0.345757 0.392706
v -0.942319 -0.345757 0.392706
v -0.14279 -0.423146 0.392706
v 0.14279 -0.423146 0.392706
v -0.91114 -0.293632 0.392706
v -0.152981 -0.383675 0.392706
v 0.91114 -0.293632 0.392706
v 0.152981 -0.383675 0.392706
v 0.159129 -0.34013 0.392706
v -0.159129 -0.34013 0.392706
v 0.887365 -0.231578 0.392706
v -0.887365 -0.231578 0.392706
v 0.874572 -0.158133 0.392706
v 0.87634 -0.071839 0.392706
v 0.411852 -0.161382 0.392706
v -0.411852 -0.161382 0.392706
v -0.876339 -0.071839 0.392706
v -0.874572 -0.158133 0.392706
v -0.158452 -0.293914 0.392706
v 0.158452 -0.293914 0.392706
v -0.148167 -0.246427 0.392706
v 0.148167 -0.246427 0.392706
v 0.125492 -0.199069 0.392706
v -0.125492 -0.199069 0.392706
v -0.087645 -0.153242 0.392706
v -0.145519 -0.10871 0.392706
v -0.205309 -0.064947 0.392706
v -0.263287 -0.018924 0.392706
v -0.496656 -0.10033 0.392706
v -0.315724 0.032388 0.392706
v 0.145519 -0.10871 0.392706
v 0.087645 -0.153242 0.392706
v 0.205309 -0.064947 0.392706
v 0.263287 -0.018924 0.392706
v 0.496657 -0.10033 0.392706
v 0.315724 0.032388 0.392706
v 0.358891 0.092017 0.392706
v 0.587177 -0.032698 0.392706
v -0.358891 0.092017 0.392706
v -0.587177 -0.032698 0.392706
v 0.38906 0.162993 0.392706
v 0.675288 0.043729 0.392706
v -0.389059 0.162993 0.392706
v -0.675288 0.043729 0.392706
v -0.752864 0.131167 0.392706
v -0.4025 0.248344 0.392706
v -0.811778 0.231831 0.392706
v -0.399147 0.299566 0.392706
v -0.843907 0.347936 0.392706
v -0.386677 0.358705 0.392706
v -0.841123 0.481698 0.392706
v -0.35973 0.419837 0.392706
v -0.82209 0.584003 0.392706
v -0.777288 0.67795 0.392706
v -0.701954 0.760266 0.392706
v -0.312948 0.477039 0.392706
v -0.591321 0.827674 0.392706
v -0.440628 0.8769 0.392706
v -0.240972 0.524385 0.392706
v -0.245108 0.904669 0.392706
v -0.138442 0.555952 0.392706
v -0 0.907705 0.392706
v -0 0.565814 0.392706
v 0.245108 0.904669 0.392706
v 0.138442 0.555952 0.392706
v 0.240972 0.524385 0.392706
v 0.440627 0.8769 0.392706
v 0.591321 0.827674 0.392706
v 0.312948 0.477039 0.392706
v 0.701953 0.760266 0.392706
v 0.777289 0.677951 0.392706
v 0.35973 0.419837 0.392706
v 0.82209 0.584003 0.392706
v 0.841123 0.481698 0.392706
v 0.386676 0.358705 0.392706
v 0.843906 0.347936 0.392706
v 0.811778 0.231831 0.392706
v 0.399147 0.299566 0.392706
v 0.752864 0.131167 0.392706
v 0.4025 0.248344 0.392706
v -1.04072 -0.907705 0.392706
v 1.038069 -0.907705 0.392706
v 1.003708 -0.865254 0.392706
v -1.007744 -0.866223 0.392706
v -0.980513 -0.825391 0.392706
v 0.976281 -0.823575 0.392706
v -0.958463 -0.783489 0.392706
v 0.954938 -0.781067 0.392706
v -0.941029 -0.738795 0.392706
v 0.938832 -0.73613 0.392706
v -0.92765 -0.689588 0.392706
v 0.927114 -0.687165 0.392706
v -0.91776 -0.634145 0.392706
v 0.918935 -0.632571 0.392706
v -0.910796 -0.570747 0.392706
v 0.913447 -0.570747 0.392706
vt 0.505969 0.269376
vt 0.716682 0.252266
vt 0.498336 0.252267
vt 0.77949 0.252266
vt 0.990203 0.269376
vt 0.997836 0.252266
vt 0.514398 0.28954
vt 0.981774 0.28954
vt 0.973404 0.313562
vt 0.522768 0.313562
vt 0.713943 0.270975
vt 0.782229 0.270975
vt 0.530223 0.342246
vt 0.711507 0.292696
vt 0.965949 0.342245
vt 0.784665 0.292696
vt 0.786135 0.316658
vt 0.710037 0.316658
vt 0.960264 0.376393
vt 0.535908 0.376394
vt 0.957205 0.416809
vt 0.846564 0.415021
vt 0.957628 0.464296
vt 0.649608 0.415022
vt 0.538967 0.416809
vt 0.538544 0.464296
vt 0.710199 0.342091
vt 0.785973 0.342091
vt 0.712658 0.368222
vt 0.783514 0.368222
vt 0.778092 0.394283
vt 0.71808 0.394283
vt 0.713291 0.444006
vt 0.727129 0.419501
vt 0.698995 0.468089
vt 0.685131 0.493415
vt 0.62933 0.448618
vt 0.672593 0.521651
vt 0.782881 0.444006
vt 0.769043 0.419501
vt 0.797177 0.468089
vt 0.811041 0.493415
vt 0.866842 0.448618
vt 0.823579 0.521651
vt 0.833901 0.554464
vt 0.888486 0.485835
vt 0.662271 0.554464
vt 0.607686 0.485835
vt 0.841114 0.593522
vt 0.909554 0.527892
vt 0.655058 0.593522
vt 0.586618 0.527892
vt 0.568069 0.576008
vt 0.651844 0.64049
vt 0.553982 0.631402
vt 0.652646 0.668676
vt 0.546299 0.695294
vt 0.655628 0.70122
vt 0.546965 0.768902
vt 0.662071 0.73486
vt 0.551516 0.825199
vt 0.562228 0.876897
vt 0.580242 0.922194
vt 0.673257 0.766338
vt 0.606695 0.959288
vt 0.642728 0.986377
vt 0.690467 0.792392
vt 0.689478 1.001658
vt 0.714983 0.809762
vt 0.748086 1.003329
vt 0.748086 0.81519
vt 0.806694 1.001658
vt 0.781189 0.809762
vt 0.805705 0.792392
vt 0.853445 0.986377
vt 0.889477 0.959288
vt 0.822915 0.766337
vt 0.91593 0.922194
vt 0.933944 0.876897
vt 0.834101 0.73486
vt 0.944656 0.825199
vt 0.949207 0.768902
vt 0.840544 0.70122
vt 0.949873 0.695294
vt 0.94219 0.631402
vt 0.843526 0.668676
vt 0.928103 0.576008
vt 0.844328 0.640489
vt 0.499239 0.004328
vt 0.988083 0.027688
vt 0.996299 0.004328
vt 0.507124 0.027155
vt 0.513635 0.049624
vt 0.981525 0.050624
vt 0.518908 0.072683
vt 0.976421 0.074016
vt 0.523076 0.097278
vt 0.97257 0.098744
vt 0.526276 0.124356
vt 0.969768 0.125689
vt 0.52864 0.154865
vt 0.967813 0.155731
vt 0.530305 0.189752
vt 0.9665 0.189752
vt 0.505969 0.269376
vt 0.498336 0.252267
vt 0.716682 0.252266
vt 0.77949 0.252266
vt 0.997836 0.252266
vt 0.990203 0.269376
vt 0.514398 0.28954
vt 0.981774 0.28954
vt 0.973404 0.313562
vt 0.522768 0.313562
vt 0.713943 0.270975
vt 0.782229 0.270975
vt 0.530223 0.342246
vt 0.711507 0.292696
vt 0.965949 0.342245
vt 0.784665 0.292696
vt 0.786135 0.316658
vt 0.710037 0.316658
vt 0.960264 0.376393
vt 0.535908 0.376394
vt 0.957205 0.416809
vt 0.957628 0.464296
vt 0.846564 0.415021
vt 0.649608 0.415022
vt 0.538544 0.464296
vt 0.538967 0.416809
vt 0.710199 0.342091
vt 0.785973 0.342091
vt 0.712658 0.368222
vt 0.783514 0.368222
vt 0.778092 0.394283
vt 0.71808 0.394283
vt 0.727129 0.419501
vt 0.713291 0.444006
vt 0.698995 0.468089
vt 0.685131 0.493415
vt 0.62933 0.448618
vt 0.672593 0.521651
vt 0.782881 0.444006
vt 0.769043 0.419501
vt 0.797177 0.468089
vt 0.811041 0.493415
vt 0.866842 0.448618
vt 0.823579 0.521651
vt 0.833901 0.554464
vt 0.888486 0.485835
vt 0.662271 0.554464
vt 0.607686 0.485835
vt 0.841114 0.593522
vt 0.909554 0.527892
vt 0.655058 0.593522
vt 0.586618 0.527892
vt 0.568069 0.576008
vt 0.651844 0.64049
vt 0.553982 0.631402
vt 0.652646 0.668676
vt 0.546299 0.695294
vt 0.655628 0.70122
vt 0.546965 0.768902
vt 0.662071 0.73486
vt 0.551516 0.825199
vt 0.562228 0.876897
vt 0.580242 0.922194
vt 0.673257 0.766338
vt 0.606695 0.959288
vt 0.642728 0.986377
vt 0.690467 0.792392
vt 0.689478 1.001658
vt 0.714983 0.809762
vt 0.748086 1.003329
vt 0.748086 0.81519
vt 0.806694 1.001658
vt 0.781189 0.809762
vt 0.805705 0.792392
vt 0.853445 0.986377
vt 0.889477 0.959288
vt 0.822915 0.766337
vt 0.91593 0.922194
vt 0.933944 0.876897
vt 0.834101 0.73486
vt 0.944656 0.825199
vt 0.949207 0.768902
vt 0.840544 0.70122
vt 0.949873 0.695294
vt 0.94219 0.631402
vt 0.843526 0.668676
vt 0.928103 0.576008
vt 0.844328 0.640489
vt 0.499239 0.004328
vt 0.996299 0.004328
vt 0.988083 0.027688
vt 0.507124 0.027155
vt 0.513635 0.049624
vt 0.981525 0.050624
vt 0.518908 0.072683
vt 0.976421 0.074016
vt 0.523076 0.097278
vt 0.97257 0.098744
vt 0.526276 0.124356
vt 0.969768 0.125689
vt 0.52864 0.154865
vt 0.967813 0.155731
vt 0.530305 0.189752
vt 0.966501 0.189752
vn 0 0.000002 -1
vn -0 -0 -1
vn -0 -0 -1
vn 0 -0 -1
vn -0 0.000002 -1
vn 0 0 -1
vn -0 0 -1
vn 0 0 -1
vn 0 0 -1
vn -0 0 -1
vn 0 0.000002 -1
vn -0 0.000002 -1
vn -0 -0 -1
vn 0 0 -1
vn 0 0 -1
vn 0 -0 -1
vn 0 -0 -1
vn 0 -0 -1
vn 0 0 -1
vn -0 -0 -1
vn 0 0 -1
vn 0 -0 -1
vn -0 0 -1
vn 0 -0 -1
vn -0 -0 -1
vn 0 0 -1
vn 0 -0 -1
vn 0 -0 -1
vn 0 -0 -1
vn 0 -0 -1
vn 0 -0 -1
vn 0 0 -1
vn 0 0 -1
vn 0 0 -1
vn 0 0 -1
vn 0 0 -1
vn 0 -0 -1
vn 0 0 -1
vn -0 -0 -1
vn -0 0 -1
vn -0 -0 -1
vn -0 -0 -1
vn 0 -0 -1
vn -0 -0 -1
vn -0 -0 -1
vn 0 -0 -1
vn 0 0 -1
vn 0 -0 -1
vn 0 0 -1
vn 0 0 -1
vn 0 0 -1
vn 0 -0 -1
vn 0 -0 -1
vn 0 -0 -1
vn 0 -0 -1
vn 0 -0 -1
vn 0 -0 -1
vn 0 -0 -1
vn -0 -0 -1
vn 0 -0 -1
vn -0 -0 -1
vn -0 -0 -1
vn -0 -0 -1
vn 0 -0 -1
vn -0 -0 -1
vn -0 -0 -1
vn 0 -0 -1
vn -0 0 -1
vn 0 -0 -1
vn -0 0 -1
vn -0 0 -1
vn -0 0 -1
vn -0 0 -1
vn -0 0 -1
vn -0 0 -1
vn -0 0 -1
vn -0 0 -1
vn -0 0 -1
vn -0 0 -1
vn -0 0 -1
vn -0 0 -1
vn 0 0 -1
vn 0 0 -1
vn 0 0 -1
vn 0 0 -1
vn 0 0 -1
vn 0 0 -1
vn 0 0 -1
vn 0 -0 -1
vn 0 0 -1
vn 0 0 -1
vn 0 -0 -1
vn 0 -0 -1
vn 0 0 -1
vn 0 -0 -1
vn 0 0 -1
vn 0 -0 -1
vn 0 0 -1
vn 0 -0 -1
vn 0 0 -1
vn 0 -0 -1
vn -0 -0 -1
vn -0 -0 -1
vn -0 -0 -1
vn 0 0 1
vn -0 0 1
vn -0 -0 1
vn -0 0 1
vn 0 -0 1
vn 0 -0 1
vn 0 0 1
vn 0 -0 1
vn 0 -0.000001 1
vn -0 -0.000001 1
vn 0 0 1
vn -0 0 1
vn 0 -0 1
vn 0 0 1
vn -0 -0 1
vn -0 0 1
vn 0 -0.000001 1
vn -0 -0.000001 1
vn 0 -0 1
vn 0 0 1
vn 0 -0 1
vn 0 -0 1
vn -0 0 1
vn -0 0 1
vn 0 0 1
vn 0 0 1
vn -0 0 1
vn -0 0 1
vn -0 0 1
vn -0 0 1
vn -0 0 1
vn -0 -0 1
vn 0 -0 1
vn 0 -0 1
vn 0 -0 1
vn 0 -0 1
vn -0 0 1
vn 0 -0 1
vn 0 0 1
vn 0 0 1
vn 0 0 1
vn 0 0 1
vn -0 0 1
vn 0 0 1
vn 0 0 1
vn -0 0 1
vn 0 -0 1
vn -0 0 1
vn -0 -0 1
vn -0 -0 1
vn 0 -0 1
vn -0 0 1
vn -0 0 1
vn 0 0 1
vn -0 0 1
vn -0 -0 1
vn -0 -0 1
vn -0 0 1
vn 0 0 1
vn -0 0 1
vn 0 0 1
vn 0 0 1
vn 0 0 1
vn -0 0 1
vn 0 0 1
vn 0 0 1
vn -0 0 1
vn 0 0 1
vn -0 0 1
vn 0 0 1
vn 0 0 1
vn 0 0 1
vn 0 0 1
vn 0 0 1
vn 0 0 1
vn 0 0 1
vn 0 0 1
vn 0 0 1
vn 0 0 1
vn 0 0 1
vn 0 0 1
vn 0 -0 1
vn -0 -0.000001 1
vn 0 -0 1
vn 0 -0 1
vn 0 0 1
vn 0 -0 1
vn -0 -0 1
vn -0 0 1
vn 0 -0 1
vn -0 -0 1
vn -0 0 1
vn -0 0 1
vn -0 -0 1
vn -0 0 1
vn -0 -0 1
vn -0 0 1
vn -0 -0 1
vn -0 0 1
vn -0 -0 1
vn -0 0 1
vn 0 0 1
vn 0 0 1
vn 0 0 1
usemtl datan_common_lib_d92e3fe8
f 1/1/1 2/2/2 3/3/3
f 4/4/4 5/5/5 6/6/6
f 7/7/7 2/2/2 1/1/1
f 4/4/4 8/8/8 5/5/5
f 4/4/4 9/9/9 8/8/8
f 10/10/10 2/2/2 7/7/7
f 10/10/10 11/11/11 2/2/2
f 12/12/12 9/9/9 4/4/4
f 13/13/13 11/11/11 10/10/10
f 13/13/13 14/14/14 11/11/11
f 12/12/12 15/15/15 9/9/9
f 16/16/16 15/15/15 12/12/12
f 17/17/17 15/15/15 16/16/16
f 13/13/13 18/18/18 14/14/14
f 17/17/17 19/19/19 15/15/15
f 20/20/20 18/18/18 13/13/13
f 21/21/21 22/22/22 23/23/23
f 24/24/24 25/25/25 26/26/26
f 20/20/20 27/27/27 18/18/18
f 28/28/28 19/19/19 17/17/17
f 25/25/25 27/27/27 20/20/20
f 24/24/24 27/27/27 25/25/25
f 24/24/24 29/29/29 27/27/27
f 28/28/28 21/21/21 19/19/19
f 28/28/28 22/22/22 21/21/21
f 30/30/30 22/22/22 28/28/28
f 31/31/31 22/22/22 30/30/30
f 24/24/24 32/32/32 29/29/29
f 32/32/32 33/33/33 34/34/34
f 24/24/24 33/33/33 32/32/32
f 24/24/24 35/35/35 33/33/33
f 24/24/24 36/36/36 35/35/35
f 37/37/37 36/36/36 24/24/24
f 37/37/37 38/38/38 36/36/36
f 39/39/39 31/31/31 40/40/40
f 39/39/39 22/22/22 31/31/31
f 41/41/41 22/22/22 39/39/39
f 42/42/42 22/22/22 41/41/41
f 42/42/42 43/43/43 22/22/22
f 44/44/44 43/43/43 42/42/42
f 45/45/45 43/43/43 44/44/44
f 45/45/45 46/46/46 43/43/43
f 37/37/37 47/47/47 38/38/38
f 48/48/48 47/47/47 37/37/37
f 49/49/49 46/46/46 45/45/45
f 49/49/49 50/50/50 46/46/46
f 48/48/48 51/51/51 47/47/47
f 52/52/52 51/51/51 48/48/48
f 53/53/53 51/51/51 52/52/52
f 53/53/53 54/54/54 51/51/51
f 55/55/55 54/54/54 53/53/53
f 55/55/55 56/56/56 54/54/54
f 57/57/57 56/56/56 55/55/55
f 57/57/57 58/58/58 56/56/56
f 59/59/59 58/58/58 57/57/57
f 59/59/59 60/60/60 58/58/58
f 61/61/61 60/60/60 59/59/59
f 62/62/62 60/60/60 61/61/61
f 63/63/63 60/60/60 62/62/62
f 63/63/63 64/64/64 60/60/60
f 65/65/65 64/64/64 63/63/63
f 66/66/66 64/64/64 65/65/65
f 66/66/66 67/67/67 64/64/64
f 68/68/68 67/67/67 66/66/66
f 68/68/68 69/69/69 67/67/67
f 70/70/70 69/69/69 68/68/68
f 70/70/70 71/71/71 69/69/69
f 72/72/72 71/71/71 70/70/70
f 72/72/72 73/73/73 71/71/71
f 72/72/72 74/74/74 73/73/73
f 75/75/75 74/74/74 72/72/72
f 76/76/76 74/74/74 75/75/75
f 76/76/76 77/77/77 74/74/74
f 78/78/78 77/77/77 76/76/76
f 79/79/79 77/77/77 78/78/78
f 79/79/79 80/80/80 77/77/77
f 81/81/81 80/80/80 79/79/79
f 82/82/82 80/80/80 81/81/81
f 82/82/82 83/83/83 80/80/80
f 84/84/84 83/83/83 82/82/82
f 85/85/85 83/83/83 84/84/84
f 85/85/85 86/86/86 83/83/83
f 87/87/87 86/86/86 85/85/85
f 87/87/87 88/88/88 86/86/86
f 50/50/50 88/88/88 87/87/87
f 49/49/49 88/88/88 50/50/50
f 89/89/89 90/90/90 91/91/91
f 92/92/92 90/90/90 89/89/89
f 93/93/93 90/90/90 92/92/92
f 93/93/93 94/94/94 90/90/90
f 95/95/95 94/94/94 93/93/93
f 95/95/95 96/96/96 94/94/94
f 97/97/97 96/96/96 95/95/95
f 97/97/97 98/98/98 96/96/96
f 99/99/99 98/98/98 97/97/97
f 99/99/99 100/100/100 98/98/98
f 101/101/101 100/100/100 99/99/99
f 101/101/101 102/102/102 100/100/100
f 103/103/103 102/102/102 101/101/101
f 104/104/104 102/102/102 103/103/103
f 105/105/105 106/106/106 107/107/107
f 108/108/108 109/109/109 110/110/110
f 111/111/111 105/105/105 107/107/107
f 108/108/108 110/110/110 112/112/112
f 108/108/108 112/112/112 113/113/113
f 114/114/114 111/111/111 107/107/107
f 114/114/114 107/107/107 115/115/115
f 116/116/116 108/108/108 113/113/113
f 117/117/117 114/114/114 115/115/115
f 117/117/117 115/115/115 118/118/118
f 116/116/116 113/113/113 119/119/119
f 120/120/120 116/116/116 119/119/119
f 121/121/121 120/120/120 119/119/119
f 117/117/117 118/118/118 122/122/122
f 121/121/121 119/119/119 123/123/123
f 124/124/124 117/117/117 122/122/122
f 125/125/125 126/126/126 127/127/127
f 128/128/128 129/129/129 130/130/130
f 124/124/124 122/122/122 131/131/131
f 132/132/132 121/121/121 123/123/123
f 130/130/130 124/124/124 131/131/131
f 128/128/128 130/130/130 131/131/131
f 128/128/128 131/131/131 133/133/133
f 132/132/132 123/123/123 125/125/125
f 132/132/132 125/125/125 127/127/127
f 134/134/134 132/132/132 127/127/127
f 135/135/135 134/134/134 127/127/127
f 128/128/128 133/133/133 136/136/136
f 136/136/136 137/137/137 138/138/138
f 128/128/128 136/136/136 138/138/138
f 128/128/128 138/138/138 139/139/139
f 128/128/128 139/139/139 140/140/140
f 141/141/141 128/128/128 140/140/140
f 141/141/141 140/140/140 142/142/142
f 143/143/143 144/144/144 135/135/135
f 143/143/143 135/135/135 127/127/127
f 145/145/145 143/143/143 127/127/127
f 146/146/146 145/145/145 127/127/127
f 146/146/146 127/127/127 147/147/147
f 148/148/148 146/146/146 147/147/147
f 149/149/149 148/148/148 147/147/147
f 149/149/149 147/147/147 150/150/150
f 141/141/141 142/142/142 151/151/151
f 152/152/152 141/141/141 151/151/151
f 153/153/153 149/149/149 150/150/150
f 153/153/153 150/150/150 154/154/154
f 152/152/152 151/151/151 155/155/155
f 156/156/156 152/152/152 155/155/155
f 157/157/157 156/156/156 155/155/155
f 157/157/157 155/155/155 158/158/158
f 159/159/159 157/157/157 158/158/158
f 159/159/159 158/158/158 160/160/160
f 161/161/161 159/159/159 160/160/160
f 161/161/161 160/160/160 162/162/162
f 163/163/163 161/161/161 162/162/162
f 163/163/163 162/162/162 164/164/164
f 165/165/165 163/163/163 164/164/164
f 166/166/166 165/165/165 164/164/164
f 167/167/167 166/166/166 164/164/164
f 167/167/167 164/164/164 168/168/168
f 169/169/169 167/167/167 168/168/168
f 170/170/170 169/169/169 168/168/168
f 170/170/170 168/168/168 171/171/171
f 172/172/172 170/170/170 171/171/171
f 172/172/172 171/171/171 173/173/173
f 174/174/174 172/172/172 173/173/173
f 174/174/174 173/173/173 175/175/175
f 176/176/176 174/174/174 175/175/175
f 176/176/176 175/175/175 177/177/177
f 176/176/176 177/177/177 178/178/178
f 179/179/179 176/176/176 178/178/178
f 180/180/180 179/179/179 178/178/178
f 180/180/180 178/178/178 181/181/181
f 182/182/182 180/180/180 181/181/181
f 183/183/183 182/182/182 181/181/181
f 183/183/183 181/181/181 184/184/184
f 185/185/185 183/183/183 184/184/184
f 186/186/186 185/185/185 184/184/184
f 186/186/186 184/184/184 187/187/187
f 188/188/188 186/186/186 187/187/187
f 189/189/189 188/188/188 187/187/187
f 189/189/189 187/187/187 190/190/190
f 191/191/191 189/189/189 190/190/190
f 191/191/191 190/190/190 192/192/192
f 154/154/154 191/191/191 192/192/192
f 153/153/153 154/154/154 192/192/192
f 193/193/193 194/194/194 195/195/195
f 196/196/196 193/193/193 195/195/195
f 197/197/197 196/196/196 195/195/195
f 197/197/197 195/195/195 198/198/198
f 199/199/199 197/197/197 198/198/198
f 199/199/199 198/198/198 200/200/200
f 201/201/201 199/199/199 200/200/200
f 201/201/201 200/200/200 202/202/202
f 203/203/203 201/201/201 202/202/202
f 203/203/203 202/202/202 204/204/204
f 205/205/205 203/203/203 204/204/204
f 205/205/205 204/204/204 206/206/206
f 207/207/207 205/205/205 206/206/206
f 208/208/208 207/207/207 206/206/206
o datan_common_lib_d92e3fe8_mesh01
v -0.429299 0.246371 -0.404399
v -0.777414 0.246371 -0.404399
v -0.777414 0.590732 -0.404399
v -0.429299 0.590732 -0.404399
vt 0.748086 0.751914
vt 0.998086 0.751914
vt 0.998086 1.001914
vt 0.748086 1.001914
vn -0.486321 0.337364 -0.806026
vn -0.486321 0.337364 -0.806026
vn -0.486321 0.337364 -0.806026
vn -0.486321 0.337364 -0.806026
usemtl datan_common_lib_d92e3fe8
f 209/209/209 210/210/210 211/211/211
f 211/211/211 212/212/212 209/209/209
o datan_common_lib_d92e3fe8_mesh02
v -0.777414 0.246371 0.402587
v -0.429299 0.246371 0.402587
v -0.429299 0.590732 0.402587
v -0.777414 0.590732 0.402587
vt 0.748086 0.751914
vt 0.998086 0.751914
vt 0.998086 1.001914
vt 0.748086 1.001914
vn -0.486321 0.337364 0.806026
vn -0.486321 0.337364 0.806026
vn -0.486321 0.337364 0.806026
vn -0.486321 0.337364 0.806026
usemtl datan_common_lib_d92e3fe8
f 213/213/213 214/214/214 215/215/215
f 215/215/215 216/216/216 213/213/213
o datan_common_lib_d92e3fe8_mesh03
v 0.438162 0.246371 0.402587
v 0.786277 0.246371 0.402587
v 0.786277 0.590732 0.402587
v 0.438162 0.590732 0.402587
vt 0.748086 0.751914
vt 0.998086 0.751914
vt 0.998086 1.001914
vt 0.748086 1.001914
vn 0.491747 0.336189 0.80322
vn 0.491747 0.336189 0.80322
vn 0.491747 0.336189 0.80322
vn 0.491747 0.336189 0.80322
usemtl datan_common_lib_d92e3fe8
f 217/217/217 218/218/218 219/219/219
f 219/219/219 220/220/220 217/217/217
o datan_common_lib_d92e3fe8_mesh04
v 0.786277 0.246371 -0.404399
v 0.438162 0.246371 -0.404399
v 0.438162 0.590732 -0.404399
v 0.786277 0.590732 -0.404399
vt 0.748086 0.751914
vt 0.998086 0.751914
vt 0.998086 1.001914
vt 0.748086 1.001914
vn 0.491747 0.336189 -0.80322
vn 0.491747 0.336189 -0.80322
vn 0.491747 0.336189 -0.80322
vn 0.491747 0.336189 -0.80322
usemtl datan_common_lib_d92e3fe8
f 221/221/221 222/222/222 223/223/223
f 223/223/223 224/224/224 221/221/221
