# Generated from Nova1492 GX by tools/nova1492/GxObjConverter
mtllib datan_common_AcpUnique07_5f1c7f13.mtl
o datan_common_AcpUnique07_5f1c7f13_mesh00
v 0.458127 0.093535 0.091951
v 0 0.446239 -0.1983
v 0.458127 0.093535 -0.091951
v 0 0.446239 0.1983
v 0.100644 0.768309 0.142675
v 0.557012 0.205492 0.075993
v 0.557012 0.205492 -0.075993
v 0.100644 0.768309 -0.142675
v 0.100644 0.768309 0.142675
v 0 0.7333 0.171974
v 0.557012 0.205492 0.075993
v 0.458127 0.093535 0.091951
v 0 0.446239 0.1983
v 0.557012 0.205492 -0.075993
v 0 0.446239 -0.1983
v 0 0.7333 -0.171974
v 0.458127 0.093535 -0.091951
v -0.458127 0.093535 -0.091951
v 0 0.446239 -0.1983
v -0.458127 0.093535 0.091951
v 0 0.446239 0.1983
v -0.100644 0.768309 0.142675
v -0.557012 0.205492 -0.075993
v -0.557012 0.205492 0.075993
v -0.100644 0.768309 -0.142675
v -0.100644 0.768309 -0.142675
v 0 0.7333 -0.171974
v -0.458127 0.093535 -0.091951
v 0 0.446239 -0.1983
v -0.557012 0.205492 0.075993
v 0 0.446239 0.1983
v 0 0.7333 0.171974
v -0.458127 0.093535 0.091951
v 0.100644 0.768309 -0.142675
v -0.100644 0.768309 0.142675
v 0.458127 0.093535 0.091951
v 0.458127 0.093535 -0.091951
v 0.557012 0.205492 -0.075993
v 0.557012 0.205492 0.075993
v -0.458127 0.093535 -0.091951
v -0.458127 0.093535 0.091951
v -0.557012 0.205492 0.075993
v -0.557012 0.205492 -0.075993
v 0.100644 0.768309 0.142675
v -0.100644 0.768309 0.142675
v 0 0.7333 0.171974
v 0 0.7333 -0.171974
v -0.100644 0.768309 -0.142675
v 0.100644 0.768309 -0.142675
v -0.025832 0.290505 -0.214946
v -0.393041 0.555083 -0.123195
v -0.314123 0.749088 -0.142913
v -0.025832 0.67867 -0.214946
v -0.393041 0.555083 0.123195
v -0.314123 0.749088 0.142913
v -0.132091 0.290505 0.188396
v -0.025832 0.290505 0.214946
v -0.025832 0.67867 0.214946
v -0.132091 0.290505 -0.188396
v -0.025832 0.67867 -0.214946
v -0.314123 0.749088 -0.142913
v -0.314123 0.749088 0.142913
v -0.025832 0.67867 0.214946
v 0.025832 0.290505 0.214946
v 0.393041 0.555083 0.123195
v 0.314123 0.749088 0.142913
v 0.025832 0.67867 0.214946
v 0.393041 0.555083 -0.123195
v 0.314123 0.749088 -0.142913
v 0.132091 0.290505 -0.188396
v 0.025832 0.290505 -0.214946
v 0.025832 0.67867 -0.214946
v 0.132091 0.290505 0.188396
v 0.025832 0.67867 0.214946
v 0.314123 0.749088 0.142913
v 0.314123 0.749088 -0.142913
v 0.025832 0.67867 -0.214946
vt 0.50407 0.511641
vt 0.980305 0.988118
vt 0.50407 0.988359
vt 0.980305 0.511883
vt 0.980305 0.511883
vt 0.50407 0.511641
vt 0.50407 0.988359
vt 0.980305 0.988118
vt 0.935285 0.988117
vt 0.980305 0.914118
vt 0.50407 0.988359
vt 0.503828 0.511641
vt 0.980305 0.511641
vt 0.50407 0.988359
vt 0.980305 0.511641
vt 0.980305 0.906462
vt 0.503828 0.511641
vt 0.50407 0.988359
vt 0.980305 0.988118
vt 0.50407 0.511641
vt 0.980305 0.511883
vt 0.980305 0.511883
vt 0.50407 0.988359
vt 0.50407 0.511641
vt 0.980305 0.988118
vt 0.940426 0.988117
vt 0.980547 0.911547
vt 0.503828 0.511641
vt 0.980547 0.511641
vt 0.50407 0.988359
vt 0.980547 0.511641
vt 0.980547 0.903891
vt 0.503828 0.511641
vt 0.935285 0.988117
vt 0.940426 0.988117
vt 0.988117 0.011882
vt 0.511883 0.011883
vt 0.553873 0.488117
vt 0.946127 0.488117
vt 0.988118 0.011882
vt 0.511883 0.011883
vt 0.553873 0.488117
vt 0.946127 0.488117
vt 0.988117 0.045446
vt 0.511883 0.045446
vt 0.75 0.011883
vt 0.75 0.488118
vt 0.511883 0.454554
vt 0.988118 0.454554
vt 0.488118 0.511641
vt 0.011883 0.785891
vt 0.115877 0.988359
vt 0.488117 0.925003
vt 0.011883 0.793548
vt 0.108221 0.988359
vt 0.355751 0.511641
vt 0.488117 0.511641
vt 0.488117 0.925003
vt 0.348095 0.511641
vt 0.488117 0.488118
vt 0.011883 0.407037
vt 0.011883 0.092963
vt 0.488117 0.011883
vt 0.488117 0.511641
vt 0.011883 0.785891
vt 0.115877 0.988359
vt 0.488117 0.925003
vt 0.011883 0.793548
vt 0.108221 0.988359
vt 0.355751 0.511641
vt 0.488117 0.511641
vt 0.488117 0.925003
vt 0.348095 0.511641
vt 0.488117 0.488117
vt 0.011883 0.407037
vt 0.011883 0.092963
vt 0.488117 0.011883
vn -0.610034 -0.792375 0
vn -0.610034 -0.792375 0
vn -0.610034 -0.792375 0
vn -0.610034 -0.792375 0
vn 0.776736 0.629827 0
vn 0.776736 0.629827 0
vn 0.776736 0.629827 0
vn 0.776736 0.629827 0
vn 0.249939 0.088426 0.964215
vn 0.249939 0.088426 0.964215
vn 0.23353 0.046904 0.971218
vn 0.199281 -0.036427 0.979265
vn 0.225128 0.02606 0.973981
vn 0.23353 0.046904 -0.971218
vn 0.225128 0.02606 -0.973981
vn 0.249939 0.088426 -0.964215
vn 0.199281 -0.036427 -0.979265
vn 0.610034 -0.792375 0
vn 0.610034 -0.792375 0
vn 0.610034 -0.792375 0
vn 0.610034 -0.792375 0
vn -0.776736 0.629827 0
vn -0.572367 0.355744 -0.738812
vn -0.776736 0.629827 0
vn -0.776736 0.629827 0
vn -0.249939 0.088426 -0.964215
vn -0.249939 0.088426 -0.964215
vn -0.199281 -0.036427 -0.979265
vn -0.225128 0.02606 -0.973981
vn -0.23353 0.046904 0.971218
vn -0.225128 0.02606 0.973981
vn -0.249939 0.088426 0.964216
vn -0.199281 -0.036427 0.979265
vn 0.249939 0.088426 -0.964215
vn -0.249939 0.088426 0.964216
vn 0.749508 -0.661996 0
vn 0.749508 -0.661996 0
vn 0.749508 -0.661996 0
vn 0.749508 -0.661996 0
vn -0.749508 -0.661996 0
vn -0.749508 -0.661996 0
vn -0.749508 -0.661996 0
vn -0.749508 -0.661996 0
vn 0 0.960356 0.278778
vn 0 0.906034 0.423205
vn 0 0.641796 0.766876
vn 0 0.641796 -0.766876
vn 0 0.960356 -0.278778
vn 0 0.906034 -0.423205
vn 0.093311 0 -0.995637
vn -0.843597 0.014218 -0.536789
vn -0.581036 0.15515 -0.798953
vn 0.875479 -0 -0.483256
vn -0.790618 -0.286573 0.541109
vn -0.862631 0.310301 0.399477
vn -0.501705 -0.294372 0.813411
vn 0.875479 -0 0.483256
vn 0.093311 0 0.995637
vn -0.69855 -0.588743 -0.406706
vn 0.237283 0.971441 -0
vn 0.237283 0.971441 -0
vn 0.237283 0.971441 -0
vn 0.237283 0.971441 -0
vn -0.093311 -0 0.995637
vn 0.843597 0.014218 0.536789
vn 0.581036 0.15515 0.798953
vn -0.875479 -0 0.483256
vn 0.790618 -0.286573 -0.541109
vn 0.862631 0.310301 -0.399476
vn 0.501705 -0.294372 -0.813411
vn -0.875479 0 -0.483256
vn -0.093311 -0 -0.995637
vn 0.69855 -0.588743 0.406706
vn -0.237283 0.971441 0
vn -0.237283 0.971441 0
vn -0.237283 0.971441 0
vn -0.237283 0.971441 0
usemtl datan_common_AcpUnique07_5f1c7f13
f 1/1/1 2/2/2 3/3/3
f 2/2/2 1/1/1 4/4/4
f 5/5/5 6/6/6 7/7/7
f 7/7/7 8/8/8 5/5/5
f 9/9/9 10/10/10 11/11/11
f 12/12/12 11/11/11 13/13/13
f 14/14/14 15/15/15 16/16/16
f 15/15/15 14/14/14 17/17/17
f 18/18/18 19/19/19 20/20/20
f 21/21/21 20/20/20 19/19/19
f 22/22/22 23/23/23 24/24/24
f 23/23/23 22/22/22 25/25/25
f 26/26/26 27/27/27 23/23/23
f 28/28/28 23/23/23 29/29/29
f 30/30/30 31/31/31 32/32/32
f 31/31/31 30/30/30 33/33/33
f 13/13/13 11/11/11 10/10/10
f 14/14/14 16/16/16 34/34/34
f 29/29/29 23/23/23 27/27/27
f 30/30/30 32/32/32 35/35/35
f 36/36/36 37/37/37 38/38/38
f 38/38/38 39/39/39 36/36/36
f 40/40/40 41/41/41 42/42/42
f 42/42/42 43/43/43 40/40/40
f 44/44/44 45/45/45 46/46/46
f 47/47/47 48/48/48 49/49/49
f 45/45/45 44/44/44 48/48/48
f 49/49/49 48/48/48 44/44/44
f 50/50/50 51/51/51 52/52/52
f 52/52/52 53/53/53 50/50/50
f 51/51/51 54/54/54 55/55/55
f 55/55/55 52/52/52 51/51/51
f 56/56/56 57/57/57 58/58/58
f 58/58/58 55/55/55 54/54/54
f 57/57/57 50/50/50 53/53/53
f 53/53/53 58/58/58 57/57/57
f 50/50/50 59/59/59 51/51/51
f 51/51/51 59/59/59 54/54/54
f 56/56/56 54/54/54 59/59/59
f 58/58/58 54/54/54 56/56/56
f 60/60/60 61/61/61 62/62/62
f 62/62/62 63/63/63 60/60/60
f 64/64/64 65/65/65 66/66/66
f 66/66/66 67/67/67 64/64/64
f 65/65/65 68/68/68 69/69/69
f 69/69/69 66/66/66 65/65/65
f 70/70/70 71/71/71 72/72/72
f 72/72/72 69/69/69 68/68/68
f 71/71/71 64/64/64 67/67/67
f 67/67/67 72/72/72 71/71/71
f 64/64/64 73/73/73 65/65/65
f 65/65/65 73/73/73 68/68/68
f 70/70/70 68/68/68 73/73/73
f 72/72/72 68/68/68 70/70/70
f 74/74/74 75/75/75 76/76/76
f 76/76/76 77/77/77 74/74/74
o datan_common_AcpUnique07_5f1c7f13_mesh01
v 0.20968 -0.261856 -0.245472
v -0.20968 0.040298 -0.140691
v -0.119554 0.261856 -0.16321
v 0.20968 0.181437 -0.245473
v 0.08833 -0.261856 -0.215152
vt 0.244059 0.00582
vt 0.005941 0.142946
vt 0.057938 0.24418
vt 0.244059 0.212501
vt 0.174047 0.00582
vn -0.242409 0 -0.970174
vn -0.242409 0 -0.970174
vn -0.242409 -0 -0.970174
vn -0.242409 -0 -0.970174
vn -0.242409 0 -0.970174
usemtl datan_common_AcpUnique07_5f1c7f13
f 78/78/78 79/79/79 80/80/80
f 80/80/80 81/81/81 78/78/78
f 78/78/78 82/82/82 79/79/79
o datan_common_AcpUnique07_5f1c7f13_mesh02
v -0.08833 -0.261856 -0.215152
v -0.20968 -0.261856 -0.245472
v -0.20968 0.181437 -0.245472
v 0.119554 0.261856 -0.16321
v 0.20968 0.040298 -0.140691
vt 0.177875 0.00582
vt 0.244059 0.00582
vt 0.244059 0.212501
vt 0.05411 0.24418
vt 0.005941 0.146774
vn 0.242408 -0 -0.970174
vn 0.242408 -0 -0.970174
vn 0.242409 0 -0.970174
vn 0.242409 0 -0.970174
vn 0.242409 0 -0.970174
usemtl datan_common_AcpUnique07_5f1c7f13
f 83/83/83 84/84/84 85/85/85
f 85/85/85 86/86/86 87/87/87
f 85/85/85 87/87/87 83/83/83
o datan_common_AcpUnique07_5f1c7f13_mesh03
v -0.20968 -0.261856 0.245472
v -0.08833 -0.261856 0.215152
v -0.20968 0.181437 0.245472
v 0.119554 0.261856 0.16321
v 0.20968 0.040298 0.140691
vt 0.244059 0.00582
vt 0.177875 0.00582
vt 0.244059 0.212501
vt 0.05411 0.24418
vt 0.005941 0.146774
vn 0.242408 -0 0.970174
vn 0.242408 -0 0.970174
vn 0.242409 -0 0.970174
vn 0.242409 0 0.970174
vn 0.242409 0 0.970174
usemtl datan_common_AcpUnique07_5f1c7f13
f 88/88/88 89/89/89 90/90/90
f 91/91/91 90/90/90 92/92/92
f 92/92/92 90/90/90 89/89/89
o datan_common_AcpUnique07_5f1c7f13_mesh04
v -0.20968 0.040298 0.140691
v 0.20968 -0.261856 0.245472
v -0.119554 0.261856 0.16321
v 0.20968 0.181437 0.245473
v 0.08833 -0.261856 0.215152
vt 0.005941 0.142946
vt 0.244059 0.00582
vt 0.057938 0.24418
vt 0.244059 0.212501
vt 0.174047 0.00582
vn -0.242409 0 0.970174
vn -0.242409 0 0.970174
vn -0.242409 -0 0.970174
vn -0.242409 -0 0.970174
vn -0.242409 0 0.970174
usemtl datan_common_AcpUnique07_5f1c7f13
f 93/93/93 94/94/94 95/95/95
f 96/96/96 95/95/95 94/94/94
f 97/97/97 94/94/94 93/93/93
