# Generated from Nova1492 GX by tools/nova1492/GxObjConverter
mtllib datan_common_leo_b9f7a6df.mtl
o datan_common_leo_b9f7a6df_mesh00
v -0.569333 0.684396 -0.39392
v -0.552098 0.69889 -0.39392
v -0.535102 0.671694 -0.39392
v -0.571204 0.721212 -0.39392
v -0.600033 0.692859 -0.39392
v -0.593263 0.739004 -0.39392
v -0.627369 0.697503 -0.39392
v -0.619123 0.752611 -0.39392
v -0.651504 0.698749 -0.39392
v -0.649628 0.762377 -0.39392
v -0.672606 0.697016 -0.39392
v -0.685624 0.768646 -0.39392
v -0.690838 0.692725 -0.39392
v -0.727957 0.771764 -0.39392
v -0.706366 0.686296 -0.39392
v -0.785569 0.760352 -0.39392
v -0.753973 0.648375 -0.39392
v -0.853282 0.713451 -0.39392
v -0.920189 0.634643 -0.39392
v -0.791139 0.597196 -0.39392
v -0.818015 0.536997 -0.39392
v -0.97538 0.527511 -0.39392
v -0.834746 0.472019 -0.39392
v -1.007946 0.395636 -0.39392
v -0.841484 0.406499 -0.39392
v -0.838375 0.344675 -0.39392
v -1.006978 0.242601 -0.39392
v -0.825568 0.290788 -0.39392
v -0.961569 0.071989 -0.39392
v -0.772108 0.222709 -0.39392
v -0.71208 0.178613 -0.39392
v -0.858106 -0.082943 -0.39392
v -0.650473 0.154927 -0.39392
v -0.715861 -0.159721 -0.39392
v -0.555979 -0.172648 -0.39392
v -0.592276 0.148079 -0.39392
v -0.399604 -0.136027 -0.39392
v -0.542478 0.154496 -0.39392
v -0.267878 -0.064161 -0.39392
v -0.506067 0.170605 -0.39392
v -0.181945 0.028646 -0.39392
v -0.16295 0.128092 -0.39392
v -0.488031 0.192834 -0.39392
v -0.177084 0.337721 -0.39392
v -0.512286 0.382214 -0.39392
v -0.470071 0.548432 -0.39392
v -0.116382 0.484006 -0.39392
v -0.374859 0.688786 -0.39392
v -0.240125 0.800577 -0.39392
v -0.005469 0.577552 -0.39392
v -0.079342 0.881105 -0.39392
v 0.131028 0.628968 -0.39392
v 0.094016 0.927671 -0.39392
v 0.268484 0.648859 -0.39392
v 0.266474 0.937574 -0.39392
v 0.600563 0.886406 -0.39392
v 0.382274 0.647831 -0.39392
v 0.447773 0.636492 -0.39392
v 0.824039 0.757023 -0.39392
v 0.574362 0.57359 -0.39392
v 0.954101 0.577886 -0.39392
v 0.651619 0.483811 -0.39392
v 1.007946 0.377459 -0.39392
v 0.684263 0.378048 -0.39392
v 1.002775 0.184202 -0.39392
v 0.677016 0.267199 -0.39392
v 0.955784 0.026579 -0.39392
v 0.6346 0.162157 -0.39392
v 0.884173 -0.066949 -0.39392
v 0.561735 0.073816 -0.39392
v 0.739229 -0.17651 -0.39392
v 0.58708 -0.24572 -0.39392
v 0.463142 0.013073 -0.39392
v 0.434973 -0.286154 -0.39392
v 0.33485 -0.036378 -0.39392
v 0.290157 -0.309389 -0.39392
v 0.157908 -0.063544 -0.39392
v 0.159883 -0.327003 -0.39392
v -0.043175 -0.08553 -0.39392
v 0.051398 -0.350572 -0.39392
v -0.243892 -0.119444 -0.39392
v -0.028048 -0.391674 -0.39392
v -0.419734 -0.182392 -0.39392
v -0.074476 -0.446443 -0.39392
v -0.546192 -0.291479 -0.39392
v -0.59876 -0.463813 -0.39392
v -0.102261 -0.517582 -0.39392
v -0.551391 -0.668497 -0.39392
v -0.43078 -0.80649 -0.39392
v -0.096145 -0.595607 -0.39392
v -0.257171 -0.889516 -0.39392
v -0.04087 -0.671034 -0.39392
v -0.050805 -0.929302 -0.39392
v 0.07882 -0.734379 -0.39392
v 0.168075 -0.937574 -0.39392
v 0.278185 -0.776156 -0.39392
v 0.379225 -0.926057 -0.39392
v 0.572482 -0.786883 -0.39392
v 0.562404 -0.906477 -0.39392
v 0.720111 -0.876692 -0.39392
v 0.850927 -0.816547 -0.39392
v 0.946903 -0.734764 -0.39392
v 1.000095 -0.640065 -0.39392
v 1.002553 -0.541175 -0.39392
v 0.946332 -0.446816 -0.39392
v 0.823484 -0.365711 -0.39392
v 0.691819 -0.357279 -0.39392
v 0.582102 -0.389816 -0.39392
v 0.500327 -0.452461 -0.39392
v 0.482569 -0.712424 -0.39392
v 0.452484 -0.534352 -0.39392
v 0.444568 -0.624626 -0.39392
v -0.569333 0.684396 0.39392
v -0.535102 0.671694 0.39392
v -0.552098 0.69889 0.39392
v -0.571204 0.721212 0.39392
v -0.600033 0.692859 0.39392
v -0.593263 0.739004 0.39392
v -0.627369 0.697503 0.39392
v -0.619123 0.752611 0.39392
v -0.651504 0.698749 0.39392
v -0.649628 0.762377 0.39392
v -0.672606 0.697016 0.39392
v -0.685624 0.768646 0.39392
v -0.690838 0.692725 0.39392
v -0.727957 0.771764 0.39392
v -0.706366 0.686296 0.39392
v -0.785569 0.760352 0.39392
v -0.753973 0.648375 0.39392
v -0.853283 0.713451 0.39392
v -0.920189 0.634643 0.39392
v -0.79114 0.597195 0.39392
v -0.818015 0.536997 0.39392
v -0.97538 0.527511 0.39392
v -0.834746 0.472019 0.39392
v -1.007946 0.395636 0.39392
v -0.841484 0.406499 0.39392
v -0.838375 0.344675 0.39392
v -1.006978 0.242601 0.39392
v -0.825568 0.290788 0.39392
v -0.961569 0.071989 0.39392
v -0.772108 0.222709 0.39392
v -0.71208 0.178613 0.39392
v -0.858106 -0.082943 0.39392
v -0.650473 0.154927 0.39392
v -0.715861 -0.159721 0.39392
v -0.555979 -0.172648 0.39392
v -0.592276 0.148079 0.39392
v -0.399604 -0.136027 0.39392
v -0.542478 0.154496 0.39392
v -0.267878 -0.064161 0.39392
v -0.506067 0.170605 0.39392
v -0.181945 0.028646 0.39392
v -0.16295 0.128092 0.39392
v -0.488031 0.192833 0.39392
v -0.177084 0.337721 0.39392
v -0.512286 0.382214 0.39392
v -0.470071 0.548432 0.39392
v -0.116382 0.484006 0.39392
v -0.374859 0.688786 0.39392
v -0.240125 0.800577 0.39392
v -0.005469 0.577552 0.39392
v -0.079342 0.881105 0.39392
v 0.131028 0.628968 0.39392
v 0.094016 0.927671 0.39392
v 0.268484 0.648858 0.39392
v 0.266474 0.937574 0.39392
v 0.600563 0.886406 0.39392
v 0.382274 0.647831 0.39392
v 0.447773 0.636492 0.39392
v 0.824039 0.757023 0.39392
v 0.574362 0.57359 0.39392
v 0.954101 0.577886 0.39392
v 0.651619 0.48381 0.39392
v 1.007946 0.377459 0.39392
v 0.684263 0.378048 0.39392
v 1.002775 0.184202 0.39392
v 0.677017 0.267199 0.39392
v 0.955784 0.026579 0.39392
v 0.6346 0.162156 0.39392
v 0.884173 -0.066949 0.39392
v 0.561735 0.073816 0.39392
v 0.73923 -0.17651 0.39392
v 0.58708 -0.24572 0.39392
v 0.463142 0.013073 0.39392
v 0.434973 -0.286154 0.39392
v 0.33485 -0.036378 0.39392
v 0.290157 -0.309389 0.39392
v 0.157908 -0.063544 0.39392
v 0.159883 -0.327003 0.39392
v -0.043175 -0.08553 0.39392
v 0.051398 -0.350572 0.39392
v -0.243892 -0.119444 0.39392
v -0.028048 -0.391674 0.39392
v -0.419734 -0.182392 0.39392
v -0.074476 -0.446443 0.39392
v -0.546192 -0.291479 0.39392
v -0.59876 -0.463813 0.39392
v -0.102261 -0.517582 0.39392
v -0.551391 -0.668497 0.39392
v -0.43078 -0.806489 0.39392
v -0.096145 -0.595607 0.39392
v -0.257171 -0.889516 0.39392
v -0.04087 -0.671034 0.39392
v -0.050805 -0.929302 0.39392
v 0.07882 -0.734379 0.39392
v 0.168075 -0.937574 0.39392
v 0.278185 -0.776156 0.39392
v 0.379225 -0.926057 0.39392
v 0.572482 -0.786883 0.39392
v 0.562404 -0.906477 0.39392
v 0.720111 -0.876692 0.39392
v 0.850927 -0.816547 0.39392
v 0.946903 -0.734763 0.39392
v 1.000095 -0.640065 0.39392
v 1.002553 -0.541175 0.39392
v 0.946332 -0.446816 0.39392
v 0.823484 -0.365711 0.39392
v 0.691819 -0.357279 0.39392
v 0.582102 -0.389816 0.39392
v 0.500327 -0.452461 0.39392
v 0.482569 -0.712424 0.39392
v 0.452484 -0.534351 0.39392
v 0.444568 -0.624626 0.39392
vt 0.607016 0.868446
vt 0.611286 0.876168
vt 0.615498 0.861679
vt 0.606552 0.88806
vt 0.599409 0.872954
vt 0.601086 0.897539
vt 0.592636 0.875429
vt 0.594679 0.904788
vt 0.586655 0.876092
vt 0.58712 0.909991
vt 0.581427 0.875169
vt 0.578201 0.913331
vt 0.576909 0.872883
vt 0.567712 0.914992
vt 0.573061 0.869458
vt 0.553437 0.908912
vt 0.561265 0.849255
vt 0.536658 0.883925
vt 0.52008 0.841939
vt 0.552056 0.821989
vt 0.545397 0.789918
vt 0.506405 0.784864
vt 0.541251 0.7553
vt 0.498336 0.714606
vt 0.539582 0.720394
vt 0.540352 0.687457
vt 0.498575 0.633076
vt 0.543526 0.658748
vt 0.509827 0.542181
vt 0.556772 0.622478
vt 0.571646 0.598986
vt 0.535463 0.45964
vt 0.586911 0.586367
vt 0.570709 0.418736
vt 0.610325 0.411849
vt 0.601331 0.582719
vt 0.649072 0.431359
vt 0.61367 0.586137
vt 0.681711 0.469646
vt 0.622692 0.594719
vt 0.703003 0.51909
vt 0.70771 0.572071
vt 0.627161 0.606562
vt 0.704208 0.683752
vt 0.621151 0.707456
vt 0.631611 0.79601
vt 0.719249 0.761686
vt 0.655203 0.870785
vt 0.688587 0.930342
vt 0.746731 0.811524
vt 0.728426 0.973244
vt 0.780552 0.838916
vt 0.771381 0.998052
vt 0.814611 0.849513
vt 0.814113 1.003329
vt 0.896894 0.976068
vt 0.842806 0.848966
vt 0.859036 0.842925
vt 0.952267 0.907138
vt 0.890402 0.809413
vt 0.984494 0.811702
vt 0.909545 0.761582
vt 0.997836 0.704922
vt 0.917634 0.705237
vt 0.996555 0.601963
vt 0.915838 0.646181
vt 0.984911 0.517988
vt 0.905328 0.590218
vt 0.967167 0.468161
vt 0.887273 0.543154
vt 0.931253 0.409791
vt 0.893553 0.372919
vt 0.862844 0.510793
vt 0.855864 0.351377
vt 0.831055 0.484447
vt 0.819982 0.338998
vt 0.787213 0.469975
vt 0.787702 0.329614
vt 0.737388 0.458261
vt 0.760821 0.317058
vt 0.687654 0.440193
vt 0.741136 0.295161
vt 0.644084 0.406657
vt 0.729632 0.265982
vt 0.61275 0.34854
vt 0.599724 0.256728
vt 0.722748 0.228082
vt 0.611462 0.147681
vt 0.641347 0.074164
vt 0.724263 0.186514
vt 0.684364 0.029931
vt 0.737959 0.146329
vt 0.735497 0.008735
vt 0.767616 0.112582
vt 0.789732 0.004328
vt 0.817015 0.090324
vt 0.842051 0.010464
vt 0.889936 0.08461
vt 0.887439 0.020895
vt 0.926516 0.036763
vt 0.95893 0.068806
vt 0.982711 0.112377
vt 0.995891 0.162828
vt 0.9965 0.215513
vt 0.982569 0.265783
vt 0.95213 0.308993
vt 0.919506 0.313485
vt 0.89232 0.29615
vt 0.872057 0.262776
vt 0.867658 0.124278
vt 0.860203 0.219148
vt 0.858241 0.171053
vt 0.607016 0.868446
vt 0.615498 0.861679
vt 0.611286 0.876168
vt 0.606552 0.88806
vt 0.599409 0.872954
vt 0.601086 0.897539
vt 0.592636 0.875429
vt 0.594679 0.904788
vt 0.586655 0.876092
vt 0.58712 0.909991
vt 0.581427 0.875169
vt 0.578201 0.913331
vt 0.576909 0.872883
vt 0.567712 0.914992
vt 0.573061 0.869458
vt 0.553437 0.908912
vt 0.561265 0.849255
vt 0.536658 0.883925
vt 0.52008 0.841939
vt 0.552056 0.821989
vt 0.545397 0.789918
vt 0.506405 0.784864
vt 0.541251 0.7553
vt 0.498336 0.714606
vt 0.539582 0.720394
vt 0.540352 0.687457
vt 0.498575 0.633076
vt 0.543525 0.658748
vt 0.509827 0.542181
vt 0.556772 0.622478
vt 0.571646 0.598986
vt 0.535463 0.45964
vt 0.586911 0.586367
vt 0.570709 0.418736
vt 0.610324 0.411849
vt 0.601331 0.582719
vt 0.649072 0.431359
vt 0.61367 0.586137
vt 0.681711 0.469646
vt 0.622692 0.594719
vt 0.703003 0.51909
vt 0.70771 0.572071
vt 0.627161 0.606562
vt 0.704208 0.683752
vt 0.621151 0.707456
vt 0.631611 0.79601
vt 0.719249 0.761686
vt 0.655203 0.870784
vt 0.688587 0.930342
vt 0.746731 0.811524
vt 0.728426 0.973244
vt 0.780552 0.838916
vt 0.771381 0.998053
vt 0.814611 0.849513
vt 0.814113 1.003329
vt 0.896894 0.976069
vt 0.842806 0.848966
vt 0.859036 0.842925
vt 0.952267 0.907138
vt 0.890402 0.809413
vt 0.984494 0.811702
vt 0.909545 0.761582
vt 0.997836 0.704922
vt 0.917633 0.705237
vt 0.996555 0.601963
vt 0.915838 0.646181
vt 0.984911 0.517988
vt 0.905328 0.590218
vt 0.967167 0.468161
vt 0.887273 0.543154
vt 0.931253 0.409791
vt 0.893553 0.372919
vt 0.862844 0.510793
vt 0.855864 0.351377
vt 0.831055 0.484447
vt 0.819981 0.338998
vt 0.787212 0.469975
vt 0.787702 0.329614
vt 0.737388 0.458261
vt 0.760821 0.317058
vt 0.687654 0.440193
vt 0.741136 0.295161
vt 0.644084 0.406657
vt 0.729632 0.265982
vt 0.61275 0.34854
vt 0.599724 0.256728
vt 0.722747 0.228082
vt 0.611462 0.147681
vt 0.641347 0.074164
vt 0.724263 0.186514
vt 0.684364 0.029931
vt 0.737959 0.146329
vt 0.735497 0.008735
vt 0.767616 0.112582
vt 0.789732 0.004328
vt 0.817015 0.090324
vt 0.842051 0.010464
vt 0.889936 0.084609
vt 0.887439 0.020895
vt 0.926516 0.036763
vt 0.95893 0.068806
vt 0.982711 0.112377
vt 0.995891 0.162828
vt 0.9965 0.215513
vt 0.982569 0.265783
vt 0.95213 0.308993
vt 0.919506 0.313485
vt 0.89232 0.29615
vt 0.872057 0.262776
vt 0.867658 0.124278
vt 0.860203 0.219148
vt 0.858241 0.171053
vn 0 0 -1
vn 0 0 -1
vn 0 0 -1
vn 0 0 -1
vn 0 -0 -1
vn 0 0 -1
vn 0 -0 -1
vn 0 0 -1
vn 0 -0 -1
vn 0 0 -1
vn 0 0 -1
vn 0 0 -1
vn 0 0 -1
vn 0 0 -1
vn 0 0 -1
vn 0 0 -1
vn 0 0 -1
vn -0 0 -1
vn -0 0 -1
vn 0 0 -1
vn 0 0 -1
vn -0 0 -1
vn -0 0 -1
vn -0 0 -1
vn 0 0 -1
vn -0 0 -1
vn -0 0 -1
vn -0 0 -1
vn -0 0 -1
vn -0 0 -1
vn -0 0 -1
vn -0 0 -1
vn -0 -0 -1
vn -0 -0 -1
vn 0 -0 -1
vn -0 -0 -1
vn 0 -0 -1
vn -0 -0 -1
vn 0 -0 -1
vn -0 -0 -1
vn 0 -0 -1
vn 0 0 -1
vn 0 -0 -1
vn 0 -0 -1
vn -0 -0 -1
vn -0 -0 -1
vn 0 -0 -1
vn -0 -0 -1
vn -0 -0 -1
vn 0 -0 -1
vn -0 -0 -1
vn 0 -0 -1
vn -0 -0 -1
vn -0 0 -1
vn -0 0 -1
vn -0 0 -1
vn -0 0 -1
vn -0 0 -1
vn -0 0 -1
vn -0 0 -1
vn 0 0 -1
vn 0 0 -1
vn 0 0 -1
vn 0 0 -1
vn 0 0 -1
vn 0 0 -1
vn 0 0 -1
vn 0 0 -1
vn 0 0 -1
vn 0 0 -1
vn 0 0 -1
vn 0 0 -1
vn 0 0 -1
vn 0 0 -1
vn 0 0 -1
vn 0 0 -1
vn 0 0 -1
vn 0 0 -1
vn 0 0 -1
vn 0 0 -1
vn 0 0 -1
vn 0 0 -1
vn 0 0 -1
vn 0 0 -1
vn -0 0 -1
vn -0 0 -1
vn -0 0 -1
vn -0 0 -1
vn -0 0 -1
vn -0 0 -1
vn -0 0 -1
vn 0 0 -1
vn 0 0 -1
vn 0 0 -1
vn -0 0 -1
vn 0 0 -1
vn 0 -0 -1
vn 0 0 -1
vn 0 -0 -1
vn 0 -0 -1
vn 0 -0 -1
vn 0 -0 -1
vn 0 -0 -1
vn 0 0 -1
vn 0 0 -1
vn 0 0 -1
vn 0 0 -1
vn 0 0 -1
vn 0 0 -1
vn 0 0 -1
vn 0 0 -1
vn 0 0 -1
vn -0 -0 1
vn -0 -0 1
vn 0 -0 1
vn 0 -0 1
vn -0 0 1
vn 0 -0 1
vn -0 0 1
vn 0 -0 1
vn 0 0 1
vn 0 -0 1
vn 0 -0 1
vn 0 -0 1
vn 0 -0 1
vn 0 0 1
vn 0 -0 1
vn 0 0 1
vn 0 -0 1
vn 0 0 1
vn 0 0 1
vn 0 -0 1
vn 0 -0 1
vn 0 0 1
vn 0 -0 1
vn -0 -0 1
vn 0 0 1
vn 0 -0.000001 1
vn 0 0 1
vn 0 0 1
vn 0 0 1
vn 0 0 1
vn 0 0 1
vn 0 0 1
vn 0 0 1
vn 0 0 1
vn -0 0 1
vn 0 0 1
vn -0 0 1
vn 0 0 1
vn -0 0 1
vn 0 0 1
vn -0 0 1
vn -0 -0 1
vn -0 -0 1
vn -0 0 1
vn 0 0 1
vn 0 0 1
vn -0 0 1
vn 0 0 1
vn 0 0 1
vn -0 0 1
vn 0 0 1
vn -0 0 1
vn 0 0 1
vn 0 0 1
vn 0 0 1
vn 0 0 1
vn 0 0 1
vn 0 0 1
vn 0 0 1
vn 0 0 1
vn 0 0 1
vn 0 0 1
vn -0 -0 1
vn -0 -0 1
vn 0 -0 1
vn 0 0 1
vn 0 -0 1
vn 0 0 1
vn 0 -0 1
vn 0 0 1
vn 0 -0 1
vn 0 -0 1
vn 0 -0 1
vn 0 -0 1
vn 0 -0 1
vn 0 -0 1
vn 0 0 1
vn 0 -0 1
vn 0 0 1
vn -0 -0 1
vn 0 -0 1
vn 0 -0 1
vn 0 -0 1
vn 0 -0 1
vn 0 -0 1
vn 0 0 1
vn 0 0 1
vn 0 0 1
vn 0 0 1
vn 0 0 1
vn 0 0 1
vn 0 0 1
vn 0 0 1
vn 0 0 1
vn -0 0 1
vn 0 0 1
vn -0 0 1
vn -0 -0 1
vn -0 0 1
vn -0 0 1
vn -0 0 1
vn 0 0 1
vn 0 0 1
vn 0 -0 1
vn 0 -0 1
vn -0 -0 1
vn -0 0 1
vn 0 -0 1
vn 0 -0 1
vn -0 -0 1
vn -0 -0 1
vn -0 -0 1
usemtl datan_common_leo_b9f7a6df
f 1/1/1 2/2/2 3/3/3
f 1/1/1 4/4/4 2/2/2
f 5/5/5 4/4/4 1/1/1
f 5/5/5 6/6/6 4/4/4
f 7/7/7 6/6/6 5/5/5
f 7/7/7 8/8/8 6/6/6
f 9/9/9 8/8/8 7/7/7
f 9/9/9 10/10/10 8/8/8
f 11/11/11 10/10/10 9/9/9
f 11/11/11 12/12/12 10/10/10
f 13/13/13 12/12/12 11/11/11
f 13/13/13 14/14/14 12/12/12
f 15/15/15 14/14/14 13/13/13
f 15/15/15 16/16/16 14/14/14
f 17/17/17 16/16/16 15/15/15
f 17/17/17 18/18/18 16/16/16
f 17/17/17 19/19/19 18/18/18
f 20/20/20 19/19/19 17/17/17
f 21/21/21 19/19/19 20/20/20
f 21/21/21 22/22/22 19/19/19
f 23/23/23 22/22/22 21/21/21
f 23/23/23 24/24/24 22/22/22
f 25/25/25 24/24/24 23/23/23
f 26/26/26 24/24/24 25/25/25
f 26/26/26 27/27/27 24/24/24
f 28/28/28 27/27/27 26/26/26
f 28/28/28 29/29/29 27/27/27
f 30/30/30 29/29/29 28/28/28
f 31/31/31 29/29/29 30/30/30
f 31/31/31 32/32/32 29/29/29
f 33/33/33 32/32/32 31/31/31
f 33/33/33 34/34/34 32/32/32
f 33/33/33 35/35/35 34/34/34
f 36/36/36 35/35/35 33/33/33
f 36/36/36 37/37/37 35/35/35
f 38/38/38 37/37/37 36/36/36
f 38/38/38 39/39/39 37/37/37
f 40/40/40 39/39/39 38/38/38
f 40/40/40 41/41/41 39/39/39
f 40/40/40 42/42/42 41/41/41
f 43/43/43 42/42/42 40/40/40
f 43/43/43 44/44/44 42/42/42
f 45/45/45 44/44/44 43/43/43
f 46/46/46 44/44/44 45/45/45
f 46/46/46 47/47/47 44/44/44
f 48/48/48 47/47/47 46/46/46
f 49/49/49 47/47/47 48/48/48
f 49/49/49 50/50/50 47/47/47
f 51/51/51 50/50/50 49/49/49
f 51/51/51 52/52/52 50/50/50
f 53/53/53 52/52/52 51/51/51
f 53/53/53 54/54/54 52/52/52
f 55/55/55 54/54/54 53/53/53
f 56/56/56 54/54/54 55/55/55
f 56/56/56 57/57/57 54/54/54
f 56/56/56 58/58/58 57/57/57
f 59/59/59 58/58/58 56/56/56
f 59/59/59 60/60/60 58/58/58
f 61/61/61 60/60/60 59/59/59
f 61/61/61 62/62/62 60/60/60
f 63/63/63 62/62/62 61/61/61
f 63/63/63 64/64/64 62/62/62
f 65/65/65 64/64/64 63/63/63
f 65/65/65 66/66/66 64/64/64
f 67/67/67 66/66/66 65/65/65
f 67/67/67 68/68/68 66/66/66
f 69/69/69 68/68/68 67/67/67
f 69/69/69 70/70/70 68/68/68
f 71/71/71 70/70/70 69/69/69
f 72/72/72 70/70/70 71/71/71
f 72/72/72 73/73/73 70/70/70
f 74/74/74 73/73/73 72/72/72
f 74/74/74 75/75/75 73/73/73
f 76/76/76 75/75/75 74/74/74
f 76/76/76 77/77/77 75/75/75
f 78/78/78 77/77/77 76/76/76
f 78/78/78 79/79/79 77/77/77
f 80/80/80 79/79/79 78/78/78
f 80/80/80 81/81/81 79/79/79
f 82/82/82 81/81/81 80/80/80
f 82/82/82 83/83/83 81/81/81
f 84/84/84 83/83/83 82/82/82
f 84/84/84 85/85/85 83/83/83
f 84/84/84 86/86/86 85/85/85
f 87/87/87 86/86/86 84/84/84
f 87/87/87 88/88/88 86/86/86
f 87/87/87 89/89/89 88/88/88
f 90/90/90 89/89/89 87/87/87
f 90/90/90 91/91/91 89/89/89
f 92/92/92 91/91/91 90/90/90
f 92/92/92 93/93/93 91/91/91
f 94/94/94 93/93/93 92/92/92
f 94/94/94 95/95/95 93/93/93
f 96/96/96 95/95/95 94/94/94
f 96/96/96 97/97/97 95/95/95
f 98/98/98 97/97/97 96/96/96
f 98/98/98 99/99/99 97/97/97
f 98/98/98 100/100/100 99/99/99
f 98/98/98 101/101/101 100/100/100
f 98/98/98 102/102/102 101/101/101
f 98/98/98 103/103/103 102/102/102
f 98/98/98 104/104/104 103/103/103
f 98/98/98 105/105/105 104/104/104
f 98/98/98 106/106/106 105/105/105
f 98/98/98 107/107/107 106/106/106
f 98/98/98 108/108/108 107/107/107
f 98/98/98 109/109/109 108/108/108
f 110/110/110 109/109/109 98/98/98
f 110/110/110 111/111/111 109/109/109
f 112/112/112 111/111/111 110/110/110
f 113/113/113 114/114/114 115/115/115
f 113/113/113 115/115/115 116/116/116
f 117/117/117 113/113/113 116/116/116
f 117/117/117 116/116/116 118/118/118
f 119/119/119 117/117/117 118/118/118
f 119/119/119 118/118/118 120/120/120
f 121/121/121 119/119/119 120/120/120
f 121/121/121 120/120/120 122/122/122
f 123/123/123 121/121/121 122/122/122
f 123/123/123 122/122/122 124/124/124
f 125/125/125 123/123/123 124/124/124
f 125/125/125 124/124/124 126/126/126
f 127/127/127 125/125/125 126/126/126
f 127/127/127 126/126/126 128/128/128
f 129/129/129 127/127/127 128/128/128
f 129/129/129 128/128/128 130/130/130
f 129/129/129 130/130/130 131/131/131
f 132/132/132 129/129/129 131/131/131
f 133/133/133 132/132/132 131/131/131
f 133/133/133 131/131/131 134/134/134
f 135/135/135 133/133/133 134/134/134
f 135/135/135 134/134/134 136/136/136
f 137/137/137 135/135/135 136/136/136
f 138/138/138 137/137/137 136/136/136
f 138/138/138 136/136/136 139/139/139
f 140/140/140 138/138/138 139/139/139
f 140/140/140 139/139/139 141/141/141
f 142/142/142 140/140/140 141/141/141
f 143/143/143 142/142/142 141/141/141
f 143/143/143 141/141/141 144/144/144
f 145/145/145 143/143/143 144/144/144
f 145/145/145 144/144/144 146/146/146
f 145/145/145 146/146/146 147/147/147
f 148/148/148 145/145/145 147/147/147
f 148/148/148 147/147/147 149/149/149
f 150/150/150 148/148/148 149/149/149
f 150/150/150 149/149/149 151/151/151
f 152/152/152 150/150/150 151/151/151
f 152/152/152 151/151/151 153/153/153
f 152/152/152 153/153/153 154/154/154
f 155/155/155 152/152/152 154/154/154
f 155/155/155 154/154/154 156/156/156
f 157/157/157 155/155/155 156/156/156
f 158/158/158 157/157/157 156/156/156
f 158/158/158 156/156/156 159/159/159
f 160/160/160 158/158/158 159/159/159
f 161/161/161 160/160/160 159/159/159
f 161/161/161 159/159/159 162/162/162
f 163/163/163 161/161/161 162/162/162
f 163/163/163 162/162/162 164/164/164
f 165/165/165 163/163/163 164/164/164
f 165/165/165 164/164/164 166/166/166
f 167/167/167 165/165/165 166/166/166
f 168/168/168 167/167/167 166/166/166
f 168/168/168 166/166/166 169/169/169
f 168/168/168 169/169/169 170/170/170
f 171/171/171 168/168/168 170/170/170
f 171/171/171 170/170/170 172/172/172
f 173/173/173 171/171/171 172/172/172
f 173/173/173 172/172/172 174/174/174
f 175/175/175 173/173/173 174/174/174
f 175/175/175 174/174/174 176/176/176
f 177/177/177 175/175/175 176/176/176
f 177/177/177 176/176/176 178/178/178
f 179/179/179 177/177/177 178/178/178
f 179/179/179 178/178/178 180/180/180
f 181/181/181 179/179/179 180/180/180
f 181/181/181 180/180/180 182/182/182
f 183/183/183 181/181/181 182/182/182
f 184/184/184 183/183/183 182/182/182
f 184/184/184 182/182/182 185/185/185
f 186/186/186 184/184/184 185/185/185
f 186/186/186 185/185/185 187/187/187
f 188/188/188 186/186/186 187/187/187
f 188/188/188 187/187/187 189/189/189
f 190/190/190 188/188/188 189/189/189
f 190/190/190 189/189/189 191/191/191
f 192/192/192 190/190/190 191/191/191
f 192/192/192 191/191/191 193/193/193
f 194/194/194 192/192/192 193/193/193
f 194/194/194 193/193/193 195/195/195
f 196/196/196 194/194/194 195/195/195
f 196/196/196 195/195/195 197/197/197
f 196/196/196 197/197/197 198/198/198
f 199/199/199 196/196/196 198/198/198
f 199/199/199 198/198/198 200/200/200
f 199/199/199 200/200/200 201/201/201
f 202/202/202 199/199/199 201/201/201
f 202/202/202 201/201/201 203/203/203
f 204/204/204 202/202/202 203/203/203
f 204/204/204 203/203/203 205/205/205
f 206/206/206 204/204/204 205/205/205
f 206/206/206 205/205/205 207/207/207
f 208/208/208 206/206/206 207/207/207
f 208/208/208 207/207/207 209/209/209
f 210/210/210 208/208/208 209/209/209
f 210/210/210 209/209/209 211/211/211
f 210/210/210 211/211/211 212/212/212
f 210/210/210 212/212/212 213/213/213
f 210/210/210 213/213/213 214/214/214
f 210/210/210 214/214/214 215/215/215
f 210/210/210 215/215/215 216/216/216
f 210/210/210 216/216/216 217/217/217
f 210/210/210 217/217/217 218/218/218
f 210/210/210 218/218/218 219/219/219
f 210/210/210 219/219/219 220/220/220
f 210/210/210 220/220/220 221/221/221
f 222/222/222 210/210/210 221/221/221
f 222/222/222 221/221/221 223/223/223
f 224/224/224 222/222/222 223/223/223
o datan_common_leo_b9f7a6df_mesh01
v 0.036941 0.537469 -0.405592
v -0.261073 0.537469 -0.405592
v -0.261073 0.83227 -0.405592
v 0.036941 0.83227 -0.405592
vt 0.748086 0.751914
vt 0.998086 0.751914
vt 0.998086 1.001914
vt 0.748086 1.001914
vn -0.092068 0.562654 -0.82155
vn -0.092068 0.562654 -0.82155
vn -0.092068 0.562654 -0.82155
vn -0.092068 0.562654 -0.82155
usemtl datan_common_leo_b9f7a6df
f 225/225/225 226/226/226 227/227/227
f 227/227/227 228/228/228 225/225/225
o datan_common_leo_b9f7a6df_mesh02
v -0.411297 0.371276 0.403474
v -0.185789 0.371276 0.403474
v -0.185789 0.594352 0.403474
v -0.411297 0.594352 0.403474
vt 0.748086 0.751914
vt 0.998086 0.751914
vt 0.998086 1.001914
vt 0.748086 1.001914
vn -0.259628 0.41988 0.869652
vn -0.259628 0.41988 0.869652
vn -0.259628 0.41988 0.869652
vn -0.259628 0.41988 0.869652
usemtl datan_common_leo_b9f7a6df
f 229/229/229 230/230/230 231/231/231
f 231/231/231 232/232/232 229/229/229
o datan_common_leo_b9f7a6df_mesh03
v -0.256831 0.537469 0.403474
v 0.041184 0.537469 0.403474
v 0.041184 0.83227 0.403474
v -0.256831 0.83227 0.403474
vt 0.748086 0.751914
vt 0.998086 0.751914
vt 0.998086 1.001914
vt 0.748086 1.001914
vn -0.08861 0.562832 0.821808
vn -0.08861 0.562832 0.821808
vn -0.08861 0.562832 0.821808
vn -0.08861 0.562832 0.821808
usemtl datan_common_leo_b9f7a6df
f 233/233/233 234/234/234 235/235/235
f 235/235/235 236/236/236 233/233/233
o datan_common_leo_b9f7a6df_mesh04
v 0.046779 0.665468 0.403474
v 0.272288 0.665468 0.403474
v 0.272288 0.888545 0.403474
v 0.046779 0.888545 0.403474
vt 0.748086 0.751914
vt 0.998086 0.751914
vt 0.998086 1.001914
vt 0.748086 1.001914
vn 0.124988 0.60875 0.783455
vn 0.124988 0.60875 0.783455
vn 0.124988 0.60875 0.783455
vn 0.124988 0.60875 0.783455
usemtl datan_common_leo_b9f7a6df
f 237/237/237 238/238/238 239/239/239
f 239/239/239 240/240/240 237/237/237
o datan_common_leo_b9f7a6df_mesh05
v -0.191169 0.371276 -0.405592
v -0.416678 0.371276 -0.405592
v -0.416678 0.594352 -0.405592
v -0.191169 0.594352 -0.405592
vt 0.748086 0.751914
vt 0.998086 0.751914
vt 0.998086 1.001914
vt 0.748086 1.001914
vn -0.263984 0.419366 -0.868588
vn -0.263984 0.419366 -0.868588
vn -0.263984 0.419366 -0.868588
vn -0.263984 0.419366 -0.868588
usemtl datan_common_leo_b9f7a6df
f 241/241/241 242/242/242 243/243/243
f 243/243/243 244/244/244 241/241/241
o datan_common_leo_b9f7a6df_mesh06
v 0.264817 0.665468 -0.405592
v 0.039308 0.665468 -0.405592
v 0.039308 0.888545 -0.405592
v 0.264817 0.888545 -0.405592
vt 0.748086 0.751914
vt 0.998086 0.751914
vt 0.998086 1.001914
vt 0.748086 1.001914
vn 0.11922 0.609185 -0.784015
vn 0.11922 0.609185 -0.784015
vn 0.11922 0.609185 -0.784015
vn 0.11922 0.609185 -0.784015
usemtl datan_common_leo_b9f7a6df
f 245/245/245 246/246/246 247/247/247
f 247/247/247 248/248/248 245/245/245
o datan_common_leo_b9f7a6df_mesh07
v 0.546743 -0.79114 0.403474
v 0.921043 -0.79114 0.403474
v 0.921043 -0.420876 0.403474
v 0.546743 -0.420876 0.403474
vt 0.498086 0.751914
vt 0.748086 0.751914
vt 0.748086 1.001914
vt 0.498086 1.001914
vn 0.531605 -0.43897 0.724363
vn 0.531605 -0.43897 0.724363
vn 0.531605 -0.43897 0.724363
vn 0.531605 -0.43897 0.724363
usemtl datan_common_leo_b9f7a6df
f 249/249/249 250/250/250 251/251/251
f 251/251/251 252/252/252 249/249/249
o datan_common_leo_b9f7a6df_mesh08
v 0.921043 -0.79114 -0.400619
v 0.546743 -0.79114 -0.400618
v 0.921043 -0.420876 -0.400618
v 0.546743 -0.420876 -0.400618
vt 0.748086 0.751914
vt 0.498086 0.751914
vt 0.748086 1.001914
vt 0.498086 1.001914
vn 0.531605 -0.43897 -0.724363
vn 0.531605 -0.43897 -0.724363
vn 0.531605 -0.43897 -0.724363
vn 0.531605 -0.43897 -0.724363
usemtl datan_common_leo_b9f7a6df
f 253/253/253 254/254/254 255/255/255
f 256/256/256 255/255/255 254/254/254
