# Generated from Nova1492 GX by tools/nova1492/GxObjConverter
mtllib datan_common_lib_d92e3fe8.mtl
o datan_common_lib_d92e3fe8
v -0 0.907705 -0.392706
v -0.245108 0.904669 -0.392706
v -0.245108 0.904669 0.392706
v -0 0.907705 0.392706
v -0.440628 0.8769 -0.392706
v -0.440628 0.8769 0.392706
v -0.591321 0.827674 -0.392706
v -0.591321 0.827674 0.392706
v -0.701953 0.760266 -0.392706
v -0.701954 0.760266 0.392706
v -0.777288 0.67795 -0.392706
v -0.777288 0.67795 0.392706
v -0.82209 0.584003 -0.392706
v -0.82209 0.584003 0.392706
v -0.841123 0.481698 -0.392706
v -0.841123 0.481698 0.392706
v -0.843907 0.347936 -0.392706
v -0.843907 0.347936 0.392706
v -0.811778 0.231831 -0.392706
v -0.811778 0.231831 0.392706
v -0.752863 0.131167 -0.392706
v -0.752864 0.131167 0.392706
v -0.675288 0.043729 -0.392706
v -0.675288 0.043729 0.392706
v -0.587177 -0.032698 -0.392706
v -0.587177 -0.032698 0.392706
v -0.496656 -0.10033 -0.392706
v -0.496656 -0.10033 0.392706
v -0.411852 -0.161382 -0.392706
v -0.411852 -0.161382 0.392706
v -0.876339 -0.071839 -0.392706
v -0.876339 -0.071839 0.392706
v -0.874572 -0.158133 -0.392706
v -0.874572 -0.158133 0.392706
v -0.887365 -0.231578 -0.392706
v -0.887365 -0.231578 0.392706
v -0.91114 -0.293632 -0.392706
v -0.91114 -0.293633 0.392706
v -0.942319 -0.345757 -0.392706
v -0.942319 -0.345757 0.392706
v -0.977324 -0.389411 -0.392706
v -0.977324 -0.389411 0.392706
v -1.012576 -0.426053 -0.392706
v -1.012576 -0.426053 0.392706
v -1.044499 -0.457145 -0.392706
v -1.044499 -0.457145 0.392706
v -0.131338 -0.457145 -0.392706
v -0.131338 -0.457145 0.392706
v -0.14279 -0.423146 -0.392706
v -0.14279 -0.423146 0.392706
v -0.152981 -0.383675 -0.392706
v -0.152981 -0.383675 0.392706
v -0.159129 -0.34013 -0.392706
v -0.159129 -0.34013 0.392706
v -0.158452 -0.293914 -0.392706
v -0.158452 -0.293914 0.392706
v -0.148167 -0.246427 -0.392706
v -0.148167 -0.246427 0.392706
v -0.125492 -0.199069 -0.392706
v -0.125492 -0.199069 0.392706
v -0.087645 -0.153242 -0.392706
v -0.087645 -0.153242 0.392706
v -0.145519 -0.10871 -0.392706
v -0.145519 -0.10871 0.392706
v -0.205309 -0.064947 -0.392706
v -0.205309 -0.064947 0.392706
v -0.263287 -0.018924 -0.392706
v -0.263287 -0.018924 0.392706
v -0.315724 0.032388 -0.392706
v -0.315724 0.032388 0.392706
v -0.358891 0.092017 -0.392706
v -0.358891 0.092017 0.392706
v -0.389059 0.162993 -0.392706
v -0.389059 0.162993 0.392706
v -0.4025 0.248344 -0.392706
v -0.4025 0.248344 0.392706
v -0.399147 0.299566 -0.392706
v -0.399147 0.299566 0.392706
v -0.386677 0.358705 -0.392706
v -0.386677 0.358705 0.392706
v -0.35973 0.419837 -0.392706
v -0.35973 0.419837 0.392706
v -0.312948 0.477039 -0.392706
v -0.312948 0.477039 0.392706
v -0.240972 0.524385 -0.392706
v -0.240972 0.524385 0.392706
v -0.138442 0.555952 -0.392706
v -0.138442 0.555952 0.392706
v -0 0.565814 -0.392706
v -0 0.565814 0.392706
v -0 0.565814 -0.392706
v 0.138442 0.555952 -0.392706
v 0.138442 0.555952 0.392706
v -0 0.565814 0.392706
v 0.240972 0.524385 -0.392706
v 0.240972 0.524385 0.392706
v 0.312948 0.477039 -0.392706
v 0.312948 0.477039 0.392706
v 0.35973 0.419837 -0.392706
v 0.35973 0.419837 0.392706
v 0.386676 0.358705 -0.392706
v 0.386676 0.358705 0.392706
v 0.399147 0.299566 -0.392706
v 0.399147 0.299566 0.392706
v 0.4025 0.248344 -0.392706
v 0.4025 0.248344 0.392706
v 0.38906 0.162993 -0.392706
v 0.38906 0.162993 0.392706
v 0.358891 0.092017 -0.392706
v 0.358891 0.092017 0.392706
v 0.315724 0.032388 -0.392706
v 0.315724 0.032388 0.392706
v 0.263287 -0.018924 -0.392706
v 0.263287 -0.018924 0.392706
v 0.205309 -0.064947 -0.392706
v 0.205309 -0.064947 0.392706
v 0.145519 -0.10871 -0.392706
v 0.145519 -0.10871 0.392706
v 0.087645 -0.153242 -0.392706
v 0.087645 -0.153242 0.392706
v 0.125492 -0.199069 -0.392706
v 0.125492 -0.199069 0.392706
v 0.148167 -0.246427 -0.392706
v 0.148167 -0.246427 0.392706
v 0.158452 -0.293914 -0.392706
v 0.158452 -0.293914 0.392706
v 0.159129 -0.34013 -0.392706
v 0.159129 -0.34013 0.392706
v 0.152981 -0.383675 -0.392706
v 0.152981 -0.383675 0.392706
v 0.14279 -0.423146 -0.392706
v 0.14279 -0.423146 0.392706
v 0.131338 -0.457145 -0.392706
v 0.131338 -0.457145 0.392706
v 1.044499 -0.457145 -0.392706
v 1.044499 -0.457145 0.392706
v 1.012577 -0.426053 -0.392706
v 1.012577 -0.426054 0.392706
v 0.977324 -0.389411 -0.392706
v 0.977324 -0.389411 0.392706
v 0.942319 -0.345757 -0.392706
v 0.942319 -0.345757 0.392706
v 0.91114 -0.293632 -0.392706
v 0.91114 -0.293633 0.392706
v 0.887365 -0.231578 -0.392706
v 0.887365 -0.231578 0.392706
v 0.874572 -0.158133 -0.392706
v 0.874572 -0.158133 0.392706
v 0.876339 -0.071839 -0.392706
v 0.87634 -0.071839 0.392706
v 0.411852 -0.161382 -0.392706
v 0.411852 -0.161382 0.392706
v 0.496657 -0.10033 -0.392706
v 0.496657 -0.10033 0.392706
v 0.587177 -0.032698 -0.392706
v 0.587177 -0.032698 0.392706
v 0.675288 0.043729 -0.392706
v 0.675288 0.043729 0.392706
v 0.752863 0.131167 -0.392706
v 0.752864 0.131167 0.392706
v 0.811778 0.231831 -0.392706
v 0.811778 0.231831 0.392706
v 0.843906 0.347936 -0.392706
v 0.843906 0.347936 0.392706
v 0.841123 0.481698 -0.392706
v 0.841123 0.481698 0.392706
v 0.82209 0.584003 -0.392706
v 0.82209 0.584003 0.392706
v 0.777288 0.677951 -0.392706
v 0.777289 0.677951 0.392706
v 0.701953 0.760266 -0.392706
v 0.701953 0.760266 0.392706
v 0.591321 0.827674 -0.392706
v 0.591321 0.827674 0.392706
v 0.440627 0.8769 -0.392706
v 0.440627 0.8769 0.392706
v 0.245108 0.904669 -0.392706
v 0.245108 0.904669 0.392706
v -0 0.907705 -0.392706
v -0 0.907705 0.392706
v 0.913447 -0.570747 -0.392706
v -0.910796 -0.570747 -0.392706
v -0.910796 -0.570747 0.392706
v 0.913447 -0.570747 0.392706
v -0.91776 -0.634145 -0.392706
v -0.91776 -0.634145 0.392706
v -0.92765 -0.689588 -0.392706
v -0.92765 -0.689588 0.392706
v -0.941029 -0.738795 -0.392706
v -0.941029 -0.738795 0.392706
v -0.958463 -0.783489 -0.392706
v -0.958463 -0.783489 0.392706
v -0.980513 -0.825391 -0.392706
v -0.980513 -0.825391 0.392706
v -1.007744 -0.866223 -0.392706
v -1.007744 -0.866223 0.392706
v -1.04072 -0.907705 -0.392706
v -1.04072 -0.907705 0.392706
v 1.038069 -0.907705 -0.392706
v 1.038069 -0.907705 0.392706
v 1.003708 -0.865254 -0.392706
v 1.003708 -0.865254 0.392706
v 0.976281 -0.823575 -0.392706
v 0.976281 -0.823575 0.392706
v 0.954938 -0.781067 -0.392706
v 0.954938 -0.781067 0.392706
v 0.938832 -0.73613 -0.392706
v 0.938832 -0.73613 0.392706
v 0.927114 -0.687165 -0.392706
v 0.927114 -0.687165 0.392706
v 0.918935 -0.632571 -0.392706
v 0.918935 -0.632571 0.392706
vt -0 0.000499
vt 0.036878 0.000499
vt 0.036878 0.999501
vt -0 0.999501
vt 0.065244 0.000499
vt 0.065244 0.999501
vt 0.087138 0.000499
vt 0.087138 0.999501
vt 0.104608 0.000499
vt 0.104608 0.999501
vt 0.11922 0.000499
vt 0.11922 0.999501
vt 0.132102 0.000499
vt 0.132102 0.999501
vt 0.144082 0.000499
vt 0.144082 0.999501
vt 0.159333 0.000499
vt 0.159333 0.999501
vt 0.171462 0.000499
vt 0.171462 0.999501
vt 0.181346 0.000499
vt 0.181346 0.999501
vt 0.189816 0.000499
vt 0.189816 0.999501
vt 0.197784 0.000499
vt 0.197784 0.999501
vt 0.206468 0.000499
vt 0.206468 0.999501
vt 0.21772 0.000499
vt 0.21772 0.999501
vt 0.220409 0.000499
vt 0.220409 0.999501
vt 0.234111 0.000499
vt 0.234111 0.999501
vt 0.246078 0.000499
vt 0.246078 0.999501
vt 0.255878 0.000499
vt 0.255878 0.999501
vt 0.263533 0.000499
vt 0.263533 0.999501
vt 0.269346 0.000499
vt 0.269346 0.999501
vt 0.273742 0.000499
vt 0.273742 0.999501
vt 0.277162 0.000499
vt 0.277162 0.999501
vt 0.399681 0.000499
vt 0.399681 0.999501
vt 0.378697 0.000499
vt 0.378697 0.999501
vt 0.352096 0.000499
vt 0.352096 0.999501
vt 0.320329 0.000499
vt 0.320329 0.999501
vt 0.283564 0.000499
vt 0.283564 0.999501
vt 0.240793 0.000499
vt 0.240793 0.999501
vt 0.188601 0.000499
vt 0.188601 0.999501
vt 0.121159 0.000499
vt 0.121159 0.999501
vt 0.132845 0.000499
vt 0.132845 0.999501
vt 0.139468 0.000499
vt 0.139468 0.999501
vt 0.142036 0.000499
vt 0.142036 0.999501
vt 0.140923 0.000499
vt 0.140923 0.999501
vt 0.136236 0.000499
vt 0.136236 0.999501
vt 0.127926 0.000499
vt 0.127926 0.999501
vt 0.115896 0.000499
vt 0.115896 0.999501
vt 0.107652 0.000499
vt 0.107652 0.999501
vt 0.097502 0.000499
vt 0.097502 0.999501
vt 0.08539 0.000499
vt 0.08539 0.999501
vt 0.070836 0.000499
vt 0.070836 0.999501
vt 0.052874 0.000499
vt 0.052874 0.999501
vt 0.029961 0.000499
vt 0.029961 0.999501
vt -0 0.000499
vt -0 0.999501
vt 1 0.000499
vt 0.970039 0.000499
vt 0.970039 0.999501
vt 1 0.999501
vt 0.947125 0.000499
vt 0.947125 0.999501
vt 0.929164 0.000499
vt 0.929164 0.999501
vt 0.91461 0.000499
vt 0.91461 0.999501
vt 0.902498 0.000499
vt 0.902498 0.999501
vt 0.892348 0.000499
vt 0.892348 0.999501
vt 0.884104 0.000499
vt 0.884104 0.999501
vt 0.872074 0.000499
vt 0.872074 0.999501
vt 0.863764 0.000499
vt 0.863764 0.999501
vt 0.859077 0.000499
vt 0.859077 0.999501
vt 0.857964 0.000499
vt 0.857964 0.999501
vt 0.860532 0.000499
vt 0.860532 0.999501
vt 0.867155 0.000499
vt 0.867155 0.999501
vt 0.878841 0.000499
vt 0.878841 0.999501
vt 0.811399 0.000499
vt 0.811399 0.999501
vt 0.759207 0.000499
vt 0.759207 0.999501
vt 0.716436 0.000499
vt 0.716436 0.999501
vt 0.679671 0.000499
vt 0.679671 0.999501
vt 0.647904 0.000499
vt 0.647904 0.999501
vt 0.621303 0.000499
vt 0.621303 0.999501
vt 0.600319 0.000499
vt 0.60032 0.999501
vt 0.722838 0.000499
vt 0.722838 0.999501
vt 0.726258 0.000499
vt 0.726258 0.999501
vt 0.730654 0.000499
vt 0.730654 0.999501
vt 0.736467 0.000499
vt 0.736467 0.999501
vt 0.744122 0.000499
vt 0.744122 0.999501
vt 0.753922 0.000499
vt 0.753922 0.999501
vt 0.765889 0.000499
vt 0.765889 0.999501
vt 0.779591 0.000499
vt 0.779591 0.999501
vt 0.78228 0.000499
vt 0.78228 0.999501
vt 0.793532 0.000499
vt 0.793532 0.999501
vt 0.802217 0.000499
vt 0.802217 0.999501
vt 0.810184 0.000499
vt 0.810184 0.999501
vt 0.818654 0.000499
vt 0.818654 0.999501
vt 0.828539 0.000499
vt 0.828539 0.999501
vt 0.840667 0.000499
vt 0.840667 0.999501
vt 0.855918 0.000499
vt 0.855918 0.999501
vt 0.867898 0.000499
vt 0.867898 0.999501
vt 0.88078 0.000499
vt 0.88078 0.999501
vt 0.895392 0.000499
vt 0.895392 0.999501
vt 0.912862 0.000499
vt 0.912862 0.999501
vt 0.934756 0.000499
vt 0.934756 0.999501
vt 0.963122 0.000499
vt 0.963122 0.999501
vt 1 0.000499
vt 1 0.999501
vt 0.702393 0.000499
vt 0.297737 0.000499
vt 0.297737 0.999501
vt 0.702393 0.999501
vt 0.306227 0.000499
vt 0.306227 0.999501
vt 0.313056 0.000499
vt 0.313056 0.999501
vt 0.318508 0.000499
vt 0.318508 0.999501
vt 0.32284 0.000499
vt 0.32284 0.999501
vt 0.326283 0.000499
vt 0.326283 0.999501
vt 0.329041 0.000499
vt 0.329041 0.999501
vt 0.3313 0.000499
vt 0.3313 0.999501
vt 0.668527 0.000499
vt 0.668527 0.999501
vt 0.670797 0.000499
vt 0.670797 0.999501
vt 0.673644 0.000499
vt 0.673644 0.999501
vt 0.677218 0.000499
vt 0.677218 0.999501
vt 0.681685 0.000499
vt 0.681685 0.999501
vt 0.687228 0.000499
vt 0.687228 0.999501
vt 0.694055 0.000499
vt 0.694055 0.999501
vn -0.012387 0.999923 0
vn -0.140614 0.990065 0
vn -0.140614 0.990065 0
vn -0.012387 0.999923 0
vn -0.310517 0.950568 0
vn -0.310517 0.950568 0
vn -0.520323 0.853969 0
vn -0.520323 0.853969 0
vn -0.737694 0.675135 -0
vn -0.737694 0.675135 -0
vn -0.902618 0.430442 -0
vn -0.902618 0.430442 -0
vn -0.983132 0.182899 -0
vn -0.983132 0.182899 -0
vn -0.999784 0.020807 -0
vn -0.999784 0.020807 -0
vn -0.963781 -0.266694 -0
vn -0.963781 -0.266694 -0
vn -0.863053 -0.505114 -0
vn -0.863053 -0.505114 -0
vn -0.748033 -0.663662 -0
vn -0.748033 -0.663662 -0
vn -0.655245 -0.755416 -0
vn -0.655245 -0.755416 -0
vn -0.598535 -0.801097 0
vn -0.598535 -0.801097 0
vn -0.58426 -0.811566 0
vn -0.58426 -0.811566 0
vn 0.189292 0.981921 0
vn 0.189292 0.981921 0
vn -0.99979 -0.020476 -0
vn -0.99979 -0.020476 -0
vn -0.985167 0.171601 -0
vn -0.985167 0.171601 -0
vn -0.93381 0.357769 -0
vn -0.93381 0.357769 -0
vn -0.858186 0.513338 0
vn -0.858186 0.513338 0
vn -0.780156 0.625586 -0
vn -0.780156 0.625586 -0
vn -0.720643 0.693306 0
vn -0.720643 0.693306 0
vn -0.697723 0.716367 -0
vn -0.697723 0.716367 -0
vn 0 -1 0
vn 0 -1 0
vn 0.947684 0.319211 0
vn 0.947684 0.319211 0
vn 0.968249 0.249987 0
vn 0.968249 0.249987 0
vn 0.99018 0.139802 0
vn 0.99018 0.139802 0
vn 0.999893 -0.014656 0
vn 0.999893 -0.014656 0
vn 0.97734 -0.211674 0
vn 0.97734 -0.211674 0
vn 0.901946 -0.431849 0
vn 0.901946 -0.431849 0
vn 0.771049 -0.636776 0
vn 0.771049 -0.636776 0
vn 0.60983 0.792532 0
vn 0.60983 0.792532 0
vn 0.590633 0.80694 0
vn 0.590633 0.80694 0
vn 0.621729 0.783233 0
vn 0.621729 0.783233 0
vn 0.699396 0.714735 0
vn 0.699396 0.714735 0
vn 0.810025 0.586395 0
vn 0.810025 0.586395 0
vn 0.920316 0.391177 0
vn 0.920316 0.391177 0
vn 0.987828 0.155552 0
vn 0.987828 0.155552 0
vn 0.997865 -0.065319 0
vn 0.997865 -0.065319 0
vn 0.978484 -0.206324 0
vn 0.978484 -0.206324 0
vn 0.915049 -0.403344 0
vn 0.915049 -0.403344 0
vn 0.774085 -0.633082 0
vn 0.774085 -0.633082 0
vn 0.549562 -0.835453 0
vn 0.549562 -0.835453 0
vn 0.294248 -0.955729 -0
vn 0.294248 -0.955729 -0
vn 0.071062 -0.997472 0
vn 0.071062 -0.997472 0
vn 0.071062 -0.997472 0
vn 0.071062 -0.997472 0
vn -0.071062 -0.997472 0
vn -0.294247 -0.955729 0
vn -0.294247 -0.955729 0
vn -0.071062 -0.997472 0
vn -0.549564 -0.835452 0
vn -0.549564 -0.835452 0
vn -0.774084 -0.633083 0
vn -0.774084 -0.633083 0
vn -0.915049 -0.403342 0
vn -0.915049 -0.403342 0
vn -0.978483 -0.206326 0
vn -0.978483 -0.206326 0
vn -0.997865 -0.065318 0
vn -0.997865 -0.065318 0
vn -0.987828 0.155551 0
vn -0.987828 0.155551 0
vn -0.920316 0.391177 0
vn -0.920316 0.391177 0
vn -0.810025 0.586396 0
vn -0.810025 0.586396 0
vn -0.699396 0.714735 0
vn -0.699396 0.714735 0
vn -0.621728 0.783233 0
vn -0.621728 0.783233 0
vn -0.590633 0.80694 0
vn -0.590633 0.80694 0
vn -0.60983 0.792532 0
vn -0.60983 0.792532 0
vn -0.771049 -0.636776 0
vn -0.771049 -0.636776 0
vn -0.901946 -0.431849 0
vn -0.901946 -0.431849 0
vn -0.977341 -0.211673 0
vn -0.977341 -0.211673 0
vn -0.999893 -0.014656 0
vn -0.999893 -0.014656 0
vn -0.99018 0.139802 0
vn -0.99018 0.139802 0
vn -0.968249 0.249987 0
vn -0.968249 0.249987 0
vn -0.947684 0.319211 0
vn -0.947684 0.319211 0
vn 0 -1 0
vn 0 -1 0
vn 0.697724 0.716367 0
vn 0.697724 0.716367 0
vn 0.720644 0.693306 0
vn 0.720644 0.693306 0
vn 0.780154 0.625588 -0
vn 0.780154 0.625588 -0
vn 0.858187 0.513337 0
vn 0.858187 0.513337 0
vn 0.93381 0.35777 -0
vn 0.93381 0.35777 -0
vn 0.985167 0.1716 -0
vn 0.985167 0.1716 -0
vn 0.99979 -0.020478 -0
vn 0.99979 -0.020478 -0
vn -0.189292 0.981921 0
vn -0.189292 0.981921 0
vn 0.58426 -0.811567 0
vn 0.58426 -0.811567 0
vn 0.598535 -0.801097 0
vn 0.598535 -0.801097 0
vn 0.655247 -0.755415 0
vn 0.655247 -0.755415 0
vn 0.748032 -0.663662 -0
vn 0.748032 -0.663662 -0
vn 0.863054 -0.505113 -0
vn 0.863054 -0.505113 -0
vn 0.963781 -0.266694 -0
vn 0.963781 -0.266694 -0
vn 0.999784 0.020805 0
vn 0.999784 0.020805 0
vn 0.983132 0.182899 -0
vn 0.983132 0.182899 -0
vn 0.902619 0.430441 -0
vn 0.902619 0.430441 -0
vn 0.737692 0.675138 -0
vn 0.737692 0.675138 -0
vn 0.520324 0.853969 0
vn 0.520324 0.853969 0
vn 0.310516 0.950568 0
vn 0.310516 0.950568 0
vn 0.140614 0.990064 0
vn 0.140614 0.990064 0
vn 0.012387 0.999923 0
vn 0.012387 0.999923 0
vn 0.012386 0.999923 0
vn 0.012387 0.999923 0
vn 0.996084 0.088417 -0
vn -0.994022 0.109185 -0
vn -0.994022 0.109185 -0
vn 0.996084 0.088417 -0
vn -0.984459 0.175613 -0
vn -0.984459 0.175613 -0
vn -0.964965 0.262379 -0
vn -0.964965 0.262379 -0
vn -0.931637 0.36339 -0
vn -0.931637 0.36339 -0
vn -0.884948 0.46569 -0
vn -0.884948 0.46569 -0
vn -0.831954 0.554845 0
vn -0.831954 0.554845 0
vn -0.7828 0.622273 -0
vn -0.7828 0.622273 -0
vn 0 -1 0
vn 0 -1 0
vn 0.777287 0.629146 0
vn 0.777287 0.629146 0
vn 0.835358 0.549706 0
vn 0.835358 0.549706 0
vn 0.89368 0.448705 0
vn 0.89368 0.448705 0
vn 0.941362 0.337399 -0
vn 0.941362 0.337399 -0
vn 0.972537 0.232748 -0
vn 0.972537 0.232748 -0
vn 0.988964 0.148158 -0
vn 0.988964 0.148158 -0
vn 0.996084 0.088417 -0
vn 0.996084 0.088417 -0
usemtl datan_common_lib_d92e3fe8
f 1/1/1 2/2/2 3/3/3
f 1/1/1 3/3/3 4/4/4
f 2/2/2 5/5/5 6/6/6
f 2/2/2 6/6/6 3/3/3
f 5/5/5 7/7/7 8/8/8
f 5/5/5 8/8/8 6/6/6
f 7/7/7 9/9/9 10/10/10
f 7/7/7 10/10/10 8/8/8
f 9/9/9 11/11/11 12/12/12
f 9/9/9 12/12/12 10/10/10
f 11/11/11 13/13/13 14/14/14
f 11/11/11 14/14/14 12/12/12
f 13/13/13 15/15/15 16/16/16
f 13/13/13 16/16/16 14/14/14
f 15/15/15 17/17/17 18/18/18
f 15/15/15 18/18/18 16/16/16
f 17/17/17 19/19/19 20/20/20
f 17/17/17 20/20/20 18/18/18
f 19/19/19 21/21/21 22/22/22
f 19/19/19 22/22/22 20/20/20
f 21/21/21 23/23/23 24/24/24
f 21/21/21 24/24/24 22/22/22
f 23/23/23 25/25/25 26/26/26
f 23/23/23 26/26/26 24/24/24
f 25/25/25 27/27/27 28/28/28
f 25/25/25 28/28/28 26/26/26
f 27/27/27 29/29/29 30/30/30
f 27/27/27 30/30/30 28/28/28
f 29/29/29 31/31/31 32/32/32
f 29/29/29 32/32/32 30/30/30
f 31/31/31 33/33/33 34/34/34
f 31/31/31 34/34/34 32/32/32
f 33/33/33 35/35/35 36/36/36
f 33/33/33 36/36/36 34/34/34
f 35/35/35 37/37/37 38/38/38
f 35/35/35 38/38/38 36/36/36
f 37/37/37 39/39/39 40/40/40
f 37/37/37 40/40/40 38/38/38
f 39/39/39 41/41/41 42/42/42
f 39/39/39 42/42/42 40/40/40
f 41/41/41 43/43/43 44/44/44
f 41/41/41 44/44/44 42/42/42
f 43/43/43 45/45/45 46/46/46
f 43/43/43 46/46/46 44/44/44
f 45/45/45 47/47/47 48/48/48
f 45/45/45 48/48/48 46/46/46
f 47/47/47 49/49/49 50/50/50
f 47/47/47 50/50/50 48/48/48
f 49/49/49 51/51/51 52/52/52
f 49/49/49 52/52/52 50/50/50
f 51/51/51 53/53/53 54/54/54
f 51/51/51 54/54/54 52/52/52
f 53/53/53 55/55/55 56/56/56
f 53/53/53 56/56/56 54/54/54
f 55/55/55 57/57/57 58/58/58
f 55/55/55 58/58/58 56/56/56
f 57/57/57 59/59/59 60/60/60
f 57/57/57 60/60/60 58/58/58
f 59/59/59 61/61/61 62/62/62
f 59/59/59 62/62/62 60/60/60
f 61/61/61 63/63/63 64/64/64
f 61/61/61 64/64/64 62/62/62
f 63/63/63 65/65/65 66/66/66
f 63/63/63 66/66/66 64/64/64
f 65/65/65 67/67/67 68/68/68
f 65/65/65 68/68/68 66/66/66
f 67/67/67 69/69/69 70/70/70
f 67/67/67 70/70/70 68/68/68
f 69/69/69 71/71/71 72/72/72
f 69/69/69 72/72/72 70/70/70
f 71/71/71 73/73/73 74/74/74
f 71/71/71 74/74/74 72/72/72
f 73/73/73 75/75/75 76/76/76
f 73/73/73 76/76/76 74/74/74
f 75/75/75 77/77/77 78/78/78
f 75/75/75 78/78/78 76/76/76
f 77/77/77 79/79/79 80/80/80
f 77/77/77 80/80/80 78/78/78
f 79/79/79 81/81/81 82/82/82
f 79/79/79 82/82/82 80/80/80
f 81/81/81 83/83/83 84/84/84
f 81/81/81 84/84/84 82/82/82
f 83/83/83 85/85/85 86/86/86
f 83/83/83 86/86/86 84/84/84
f 85/85/85 87/87/87 88/88/88
f 85/85/85 88/88/88 86/86/86
f 87/87/87 89/89/89 90/90/90
f 87/87/87 90/90/90 88/88/88
f 91/91/91 92/92/92 93/93/93
f 91/91/91 93/93/93 94/94/94
f 92/92/92 95/95/95 96/96/96
f 92/92/92 96/96/96 93/93/93
f 95/95/95 97/97/97 98/98/98
f 95/95/95 98/98/98 96/96/96
f 97/97/97 99/99/99 100/100/100
f 97/97/97 100/100/100 98/98/98
f 99/99/99 101/101/101 102/102/102
f 99/99/99 102/102/102 100/100/100
f 101/101/101 103/103/103 104/104/104
f 101/101/101 104/104/104 102/102/102
f 103/103/103 105/105/105 106/106/106
f 103/103/103 106/106/106 104/104/104
f 105/105/105 107/107/107 108/108/108
f 105/105/105 108/108/108 106/106/106
f 107/107/107 109/109/109 110/110/110
f 107/107/107 110/110/110 108/108/108
f 109/109/109 111/111/111 112/112/112
f 109/109/109 112/112/112 110/110/110
f 111/111/111 113/113/113 114/114/114
f 111/111/111 114/114/114 112/112/112
f 113/113/113 115/115/115 116/116/116
f 113/113/113 116/116/116 114/114/114
f 115/115/115 117/117/117 118/118/118
f 115/115/115 118/118/118 116/116/116
f 117/117/117 119/119/119 120/120/120
f 117/117/117 120/120/120 118/118/118
f 119/119/119 121/121/121 122/122/122
f 119/119/119 122/122/122 120/120/120
f 121/121/121 123/123/123 124/124/124
f 121/121/121 124/124/124 122/122/122
f 123/123/123 125/125/125 126/126/126
f 123/123/123 126/126/126 124/124/124
f 125/125/125 127/127/127 128/128/128
f 125/125/125 128/128/128 126/126/126
f 127/127/127 129/129/129 130/130/130
f 127/127/127 130/130/130 128/128/128
f 129/129/129 131/131/131 132/132/132
f 129/129/129 132/132/132 130/130/130
f 131/131/131 133/133/133 134/134/134
f 131/131/131 134/134/134 132/132/132
f 133/133/133 135/135/135 136/136/136
f 133/133/133 136/136/136 134/134/134
f 135/135/135 137/137/137 138/138/138
f 135/135/135 138/138/138 136/136/136
f 137/137/137 139/139/139 140/140/140
f 137/137/137 140/140/140 138/138/138
f 139/139/139 141/141/141 142/142/142
f 139/139/139 142/142/142 140/140/140
f 141/141/141 143/143/143 144/144/144
f 141/141/141 144/144/144 142/142/142
f 143/143/143 145/145/145 146/146/146
f 143/143/143 146/146/146 144/144/144
f 145/145/145 147/147/147 148/148/148
f 145/145/145 148/148/148 146/146/146
f 147/147/147 149/149/149 150/150/150
f 147/147/147 150/150/150 148/148/148
f 149/149/149 151/151/151 152/152/152
f 149/149/149 152/152/152 150/150/150
f 151/151/151 153/153/153 154/154/154
f 151/151/151 154/154/154 152/152/152
f 153/153/153 155/155/155 156/156/156
f 153/153/153 156/156/156 154/154/154
f 155/155/155 157/157/157 158/158/158
f 155/155/155 158/158/158 156/156/156
f 157/157/157 159/159/159 160/160/160
f 157/157/157 160/160/160 158/158/158
f 159/159/159 161/161/161 162/162/162
f 159/159/159 162/162/162 160/160/160
f 161/161/161 163/163/163 164/164/164
f 161/161/161 164/164/164 162/162/162
f 163/163/163 165/165/165 166/166/166
f 163/163/163 166/166/166 164/164/164
f 165/165/165 167/167/167 168/168/168
f 165/165/165 168/168/168 166/166/166
f 167/167/167 169/169/169 170/170/170
f 167/167/167 170/170/170 168/168/168
f 169/169/169 171/171/171 172/172/172
f 169/169/169 172/172/172 170/170/170
f 171/171/171 173/173/173 174/174/174
f 171/171/171 174/174/174 172/172/172
f 173/173/173 175/175/175 176/176/176
f 173/173/173 176/176/176 174/174/174
f 175/175/175 177/177/177 178/178/178
f 175/175/175 178/178/178 176/176/176
f 177/177/177 179/179/179 180/180/180
f 177/177/177 180/180/180 178/178/178
f 181/181/181 182/182/182 183/183/183
f 181/181/181 183/183/183 184/184/184
f 182/182/182 185/185/185 186/186/186
f 182/182/182 186/186/186 183/183/183
f 185/185/185 187/187/187 188/188/188
f 185/185/185 188/188/188 186/186/186
f 187/187/187 189/189/189 190/190/190
f 187/187/187 190/190/190 188/188/188
f 189/189/189 191/191/191 192/192/192
f 189/189/189 192/192/192 190/190/190
f 191/191/191 193/193/193 194/194/194
f 191/191/191 194/194/194 192/192/192
f 193/193/193 195/195/195 196/196/196
f 193/193/193 196/196/196 194/194/194
f 195/195/195 197/197/197 198/198/198
f 195/195/195 198/198/198 196/196/196
f 197/197/197 199/199/199 200/200/200
f 197/197/197 200/200/200 198/198/198
f 199/199/199 201/201/201 202/202/202
f 199/199/199 202/202/202 200/200/200
f 201/201/201 203/203/203 204/204/204
f 201/201/201 204/204/204 202/202/202
f 203/203/203 205/205/205 206/206/206
f 203/203/203 206/206/206 204/204/204
f 205/205/205 207/207/207 208/208/208
f 205/205/205 208/208/208 206/206/206
f 207/207/207 209/209/209 210/210/210
f 207/207/207 210/210/210 208/208/208
f 209/209/209 211/211/211 212/212/212
