# Generated from Nova1492 GX by tools/nova1492/GxObjConverter
mtllib datan_common_rune02_cdded6eb.mtl
o datan_common_rune02_cdded6eb
v 0 0.404059 -0
v -0.094985 0.317761 -0.218414
v -0.220356 0.309527 -0.137478
v -0.238105 0.317761 0.010385
v -0.141659 0.317761 0.191467
v -0.008881 0.309527 0.259572
v 0.129082 0.313276 0.202018
v 0.23768 0.313276 0.027952
v 0.229237 0.309527 -0.122095
v 0.110059 0.317761 -0.211398
v -0.094985 0.317761 -0.218414
v -0.144408 0.041345 -0.370157
v -0.337604 0.070164 -0.210628
v -0.220356 0.309527 -0.137478
v -0.220356 0.309527 -0.137478
v -0.337604 0.070164 -0.210628
v -0.396125 0.041345 0.032707
v -0.238105 0.317761 0.010385
v -0.141659 0.317761 0.191467
v -0.248361 0.041345 0.31014
v -0.013607 0.070164 0.397688
v -0.008881 0.309527 0.259572
v 0.227423 0.036859 0.327706
v 0.129082 0.313276 0.202018
v 0.23768 0.313276 0.027952
v 0.393805 0.036859 0.061023
v 0.351211 0.070164 -0.18706
v 0.229237 0.309527 -0.122095
v 0.169737 0.041345 -0.359408
v 0.110059 0.317761 -0.211398
v -0.108367 -0.20203 -0.332723
v -0.296884 -0.20203 -0.185223
v -0.296884 -0.20203 -0.185223
v -0.346486 -0.20203 0.048944
v -0.233963 -0.20203 0.26021
v -0.248361 0.041345 0.31014
v -0.233963 -0.20203 0.26021
v -0.011966 -0.20203 0.349721
v 0.21563 -0.20203 0.275593
v 0.34233 -0.20203 0.072512
v 0.393805 0.036859 0.061023
v 0.34233 -0.20203 0.072512
v 0.30885 -0.20203 -0.164498
v 0.130856 -0.20203 -0.324538
v 0.169737 0.041345 -0.359408
v 0.130856 -0.20203 -0.324538
v 0 -0.404059 -0
v -0.296884 -0.20203 -0.185223
v -0.108367 -0.20203 -0.332723
v -0.346486 -0.20203 0.048944
v -0.233963 -0.20203 0.26021
v -0.011966 -0.20203 0.349721
v 0.21563 -0.20203 0.275593
v 0.34233 -0.20203 0.072512
v 0.30885 -0.20203 -0.164498
v 0.130856 -0.20203 -0.324538
v -0.38233 0.384933 0.103845
v -0.301931 0.384933 0.254798
v 0.282025 0.381049 0.280163
v 0.372554 0.381049 0.135059
v 0.101341 0.384933 -0.383003
v -0.069588 0.384933 -0.388852
v -0.144408 0.041345 -0.370157
v -0.094985 0.317761 -0.218414
v -0.069588 0.384933 -0.388852
v -0.115146 0.130132 -0.528729
v -0.238105 0.317761 0.010385
v -0.396125 0.041345 0.032707
v -0.527994 0.130132 0.124421
v -0.38233 0.384933 0.103845
v -0.396125 0.041345 0.032707
v -0.248361 0.041345 0.31014
v -0.400289 0.130132 0.364191
v -0.527994 0.130132 0.124421
v -0.301931 0.384933 0.254798
v -0.400289 0.130132 0.364191
v 0.129082 0.313276 0.202018
v 0.227423 0.036859 0.327706
v 0.372676 0.126248 0.396023
v 0.282025 0.381049 0.280163
v 0.227423 0.036859 0.327706
v 0.393805 0.036859 0.061023
v 0.51647 0.126248 0.165543
v 0.372676 0.126248 0.396023
v 0.372554 0.381049 0.135059
v 0.51647 0.126248 0.165543
v 0.156353 0.130132 -0.519439
v 0.101341 0.384933 -0.383003
v 0.169737 0.041345 -0.359408
v -0.144408 0.041345 -0.370157
v -0.115146 0.130132 -0.528729
v 0.156353 0.130132 -0.519439
vt 0.281213 0.235866
vt 0.281213 0.353292
vt 0.203359 0.324923
vt 0.156068 0.253093
vt 0.171162 0.17141
vt 0.237751 0.118096
vt 0.324675 0.118096
vt 0.391264 0.17141
vt 0.406358 0.253093
vt 0.362896 0.324923
vt 0.218787 0.436416
vt 0.218787 0.294605
vt 0.340104 0.294605
vt 0.296641 0.436416
vt 0.175077 0.436416
vt 0.125653 0.294605
vt 0.231876 0.294605
vt 0.243079 0.436416
vt 0.171162 0.436416
vt 0.116434 0.294605
vt 0.214625 0.294605
vt 0.237751 0.436416
vt 0.347801 0.290777
vt 0.324675 0.436416
vt 0.175238 0.436416
vt 0.14298 0.294605
vt 0.264296 0.294605
vt 0.253093 0.436416
vt 0.374347 0.290777
vt 0.324923 0.436416
vt 0.218787 0.12899
vt 0.325009 0.12899
vt 0.142818 0.12899
vt 0.235766 0.12899
vt 0.345817 0.125162
vt 0.357021 0.290777
vt 0.13677 0.12899
vt 0.222656 0.12899
vt 0.33977 0.125162
vt 0.429484 0.125162
vt 0.44982 0.290777
vt 0.154183 0.12899
vt 0.260405 0.12899
vt 0.357182 0.125162
vt 0.093642 0.290777
vt 0.104908 0.12899
vt 0.218787 0.235866
vt 0.325009 0.357182
vt 0.218787 0.395403
vt 0.383566 0.260405
vt 0.36323 0.150355
vt 0.273516 0.082352
vt 0.156402 0.082352
vt 0.070516 0.150355
vt 0.05018 0.260405
vt 0.104908 0.357182
vt 0.056124 0.222151
vt 0.062557 0.16662
vt 0.404645 0.051642
vt 0.449914 0.084059
vt 0.386699 0.426147
vt 0.331168 0.445433
vt 0.082191 0.294605
vt 0.14288 0.436416
vt 0.054567 0.485766
vt 0.006066 0.376282
vt 0.343932 0.436416
vt 0.41052 0.294605
vt 0.493934 0.376282
vt 0.443876 0.485766
vt 0.41052 0.264296
vt 0.387394 0.142979
vt 0.477635 0.146198
vt 0.493934 0.230573
vt 0.066385 0.485766
vt 0.022366 0.376282
vt 0.381904 0.436416
vt 0.438703 0.294605
vt 0.493934 0.376282
vt 0.448358 0.485766
vt 0.148371 0.061297
vt 0.05018 0.139151
vt 0.006066 0.063637
vt 0.074142 0.006066
vt 0.084059 0.485766
vt 0.059809 0.376282
vt 0.463301 0.376282
vt 0.426147 0.485766
vt 0.093642 0.378175
vt 0.214959 0.421638
vt 0.165004 0.493934
vt 0.0768 0.463301
vn 0.00616 0.999973 0.003916
vn -0.065972 0.997528 0.02419
vn -0.290003 0.939693 -0.181318
vn -0.123983 0.991772 -0.031879
vn 0.053914 0.997529 0.045049
vn 0.001663 0.939609 0.342247
vn 0.047586 0.990923 0.125728
vn 0.017277 0.99796 -0.061455
vn 0.30866 0.939594 -0.147961
vn 0.0896 0.991773 -0.091418
vn -0.507564 0.47475 -0.719021
vn -0.4727 -0.010736 -0.881158
vn -0.580967 0.274609 -0.766204
vn -0.500832 0.467865 -0.728196
vn -0.866787 0.478073 -0.141869
vn -0.976187 0.034801 -0.21412
vn -0.990926 0.101342 0.088297
vn -0.865206 0.484052 -0.130814
vn -0.110552 0.421332 0.900143
vn -0.041182 0.118728 0.992072
vn -0.039381 0.164287 0.985626
vn 0.088438 0.502577 0.859997
vn 0.572386 0.09585 0.814363
vn 0.325468 0.484902 0.811752
vn 0.836543 0.421603 -0.349925
vn 0.879664 0.11719 -0.460932
vn 0.873093 0.165885 -0.458467
vn 0.704377 0.502233 -0.501612
vn 0.779935 0.264412 -0.567263
vn 0.918319 0.321741 -0.230594
vn -0.188175 -0.176474 -0.966151
vn -0.62293 -0.18694 -0.759613
vn -0.965135 -0.163465 -0.204436
vn -0.982981 -0.183682 0.00301
vn -0.873023 -0.147044 0.464983
vn -0.873023 -0.147044 0.464983
vn -0.365794 -0.20776 0.90721
vn -0.135587 -0.188243 0.972718
vn 0.490595 -0.18986 0.850453
vn 0.838109 -0.155443 0.522888
vn 0.838109 -0.155443 0.522888
vn 0.967027 -0.214941 -0.136601
vn 0.908874 -0.190797 -0.37087
vn 0.675535 -0.186601 -0.713325
vn 0.033824 -0.147044 -0.988551
vn 0.033824 -0.147044 -0.988551
vn 0 -1 -0
vn -0.424211 -0.866025 -0.264661
vn -0.154843 -0.866025 -0.475419
vn -0.495085 -0.866025 0.069935
vn -0.334304 -0.866025 0.371808
vn -0.017098 -0.866025 0.499708
vn 0.308108 -0.866025 0.393788
vn 0.489147 -0.866025 0.103611
vn 0.441308 -0.866025 -0.235047
vn 0.186977 -0.866025 -0.463724
vn 0.322329 0.93093 -0.171677
vn 0.322329 0.93093 -0.171677
vn -0.312408 0.929738 -0.194908
vn -0.312408 0.929738 -0.194908
vn -0.01249 0.930913 0.365027
vn -0.01249 0.930913 0.365027
vn -0.975867 0.209077 -0.063017
vn -0.975867 0.209077 -0.063017
vn -0.975867 0.209077 -0.063017
vn -0.975867 0.209077 -0.063017
vn -0.466787 0.197233 -0.862096
vn -0.466787 0.197233 -0.862096
vn -0.466787 0.197233 -0.862096
vn -0.466787 0.197233 -0.862096
vn -0.429283 -0.87375 0.228642
vn -0.429283 -0.87375 0.228642
vn -0.429283 -0.87375 0.228642
vn -0.429283 -0.87375 0.228642
vn 0.433848 0.208812 0.876455
vn 0.433848 0.208812 0.876455
vn -0.513863 0.196854 0.834981
vn -0.513863 0.196854 0.834981
vn -0.513863 0.196854 0.834981
vn -0.513863 0.196854 0.834981
vn 0.41499 -0.87221 0.258908
vn 0.41499 -0.87221 0.258908
vn 0.41499 -0.87221 0.258908
vn 0.41499 -0.87221 0.258908
vn 0.541778 0.208592 -0.814227
vn 0.541778 0.208592 -0.814227
vn 0.98003 0.196965 0.027313
vn 0.98003 0.196965 0.027313
vn 0.016634 -0.87372 -0.486146
vn 0.016634 -0.87372 -0.486146
vn 0.016634 -0.87372 -0.486146
vn 0.016634 -0.87372 -0.486146
usemtl datan_common_rune02_cdded6eb
f 1/1/1 2/2/2 3/3/3
f 1/1/1 3/3/3 4/4/4
f 1/1/1 4/4/4 5/5/5
f 1/1/1 5/5/5 6/6/6
f 1/1/1 6/6/6 7/7/7
f 1/1/1 7/7/7 8/8/8
f 1/1/1 8/8/8 9/9/9
f 1/1/1 9/9/9 10/10/10
f 1/1/1 10/10/10 2/2/2
f 11/11/11 12/12/12 13/13/13
f 11/11/11 13/13/13 14/14/14
f 15/15/15 16/16/16 17/17/17
f 15/15/15 17/17/17 18/18/18
f 19/19/19 20/20/20 21/21/21
f 19/19/19 21/21/21 22/22/22
f 22/22/22 21/21/21 23/23/23
f 22/22/22 23/23/23 24/24/24
f 25/25/25 26/26/26 27/27/27
f 25/25/25 27/27/27 28/28/28
f 28/28/28 27/27/27 29/29/29
f 28/28/28 29/29/29 30/30/30
f 12/12/12 31/31/31 32/32/32
f 12/12/12 32/32/32 13/13/13
f 16/16/16 33/33/33 34/34/34
f 16/16/16 34/34/34 17/17/17
f 17/17/17 34/34/34 35/35/35
f 17/17/17 35/35/35 36/36/36
f 20/20/20 37/37/37 38/38/38
f 20/20/20 38/38/38 21/21/21
f 21/21/21 38/38/38 39/39/39
f 21/21/21 39/39/39 23/23/23
f 23/23/23 39/39/39 40/40/40
f 23/23/23 40/40/40 41/41/41
f 26/26/26 42/42/42 43/43/43
f 26/26/26 43/43/43 27/27/27
f 27/27/27 43/43/43 44/44/44
f 27/27/27 44/44/44 29/29/29
f 45/45/45 46/46/46 31/31/31
f 45/45/45 31/31/31 12/12/12
f 47/47/47 48/48/48 49/49/49
f 47/47/47 50/50/50 48/48/48
f 47/47/47 51/51/51 50/50/50
f 47/47/47 52/52/52 51/51/51
f 47/47/47 53/53/53 52/52/52
f 47/47/47 54/54/54 53/53/53
f 47/47/47 55/55/55 54/54/54
f 47/47/47 56/56/56 55/55/55
f 47/47/47 49/49/49 56/56/56
f 5/5/5 4/4/4 57/57/57
f 57/57/57 58/58/58 5/5/5
f 8/8/8 7/7/7 59/59/59
f 59/59/59 60/60/60 8/8/8
f 2/2/2 10/10/10 61/61/61
f 61/61/61 62/62/62 2/2/2
f 63/63/63 64/64/64 65/65/65
f 65/65/65 66/66/66 63/63/63
f 67/67/67 68/68/68 69/69/69
f 69/69/69 70/70/70 67/67/67
f 71/71/71 72/72/72 73/73/73
f 73/73/73 74/74/74 71/71/71
f 20/20/20 19/19/19 75/75/75
f 75/75/75 76/76/76 20/20/20
f 77/77/77 78/78/78 79/79/79
f 79/79/79 80/80/80 77/77/77
f 81/81/81 82/82/82 83/83/83
f 83/83/83 84/84/84 81/81/81
f 26/26/26 25/25/25 85/85/85
f 85/85/85 86/86/86 26/26/26
f 30/30/30 29/29/29 87/87/87
f 87/87/87 88/88/88 30/30/30
f 89/89/89 90/90/90 91/91/91
f 91/91/91 92/92/92 89/89/89
