# Generated from Nova1492 GX by tools/nova1492/GxObjConverter
mtllib datan_common_acppw10_9f8ce065.mtl
o datan_common_acppw10_9f8ce065_mesh00
v -0.06369 0.599236 0.134196
v 0.06369 0.599236 0.134196
v 0.062887 0.617185 -0
v 0.06369 0.599236 -0.134196
v -0.06369 0.599236 -0.134196
v -0.062887 0.617185 -0
v -0.084523 0.240477 0.240013
v 0.084523 0.240477 0.240013
v 0.084523 0.240477 -0.240013
v -0.084523 0.240477 -0.240013
v 0.090497 -0 0.302888
v -0.090497 -0 0.302888
v -0.090497 -0 -0.302888
v 0.090497 -0 -0.302888
v 0.084523 0.240477 0.240013
v 0.084523 0.240477 -0.240013
v 0.06369 0.599236 -0.134196
v -0.084523 0.240477 -0.240013
v -0.084523 0.240477 0.240013
v -0.06369 0.599236 0.134196
v 0.090497 -0 -0.302888
v 0.090497 -0 0.302888
v 0.062887 0.617185 -0
v -0.090497 -0 0.302888
v -0.090497 -0 -0.302888
v -0.062887 0.617185 -0
v -0.06369 0.599236 -0.134196
v 0.06369 0.599236 0.134196
vt 0.092871 0.963402
vt 0.407129 0.963402
vt 0.405052 0.976235
vt 0.407129 0.963402
vt 0.092871 0.963402
vt 0.094948 0.976235
vt 0.03897 0.400847
vt 0.46103 0.400847
vt 0.46103 0.400847
vt 0.03897 0.400847
vt 0.476484 0.023765
vt 0.023515 0.023765
vt 0.023516 0.023765
vt 0.476485 0.023765
vt 0.572119 0.400847
vt 0.927881 0.400847
vt 0.846081 0.94809
vt 0.927881 0.400847
vt 0.572119 0.400847
vt 0.653919 0.94809
vt 0.976485 0.023765
vt 0.523516 0.023765
vt 0.757656 0.976235
vt 0.523516 0.023765
vt 0.976485 0.023765
vt 0.757656 0.976235
vt 0.846081 0.94809
vt 0.653919 0.94809
vn 0 0.879734 0.475466
vn 0 0.60467 0.796476
vn 0 0.999008 0.04454
vn 0 0.879734 -0.475466
vn 0 0.60467 -0.796476
vn 0 0.999008 -0.04454
vn -0 0.267962 0.96343
vn -0 0.267962 0.96343
vn 0 0.267962 -0.96343
vn 0 0.267962 -0.96343
vn -0 0.252955 0.967478
vn 0 0.252955 0.967478
vn 0 0.252955 -0.967478
vn 0 0.252955 -0.967478
vn 0.999009 0.044505 0.000058
vn 0.999142 0.041407 0
vn 0.998365 0.05716 -0.000781
vn -0.999009 0.044505 -0.000058
vn -0.999142 0.041407 -0
vn -0.998365 0.05716 0.000781
vn 0.999692 0.024831 0
vn 0.999692 0.024831 0
vn 0.998349 0.057432 0.000145
vn -0.999692 0.024831 -0
vn -0.999692 0.024831 0
vn -0.998349 0.057432 -0.000145
vn -0.998285 0.058517 -0.001854
vn 0.998285 0.058517 0.001854
usemtl datan_common_acppw10_9f8ce065
f 1/1/1 2/2/2 3/3/3
f 4/4/4 5/5/5 6/6/6
f 7/7/7 8/8/8 2/2/2
f 9/9/9 10/10/10 5/5/5
f 7/7/7 11/11/11 8/8/8
f 12/12/12 11/11/11 7/7/7
f 2/2/2 1/1/1 7/7/7
f 9/9/9 13/13/13 10/10/10
f 14/14/14 13/13/13 9/9/9
f 5/5/5 4/4/4 9/9/9
f 4/4/4 6/6/6 3/3/3
f 3/3/3 6/6/6 1/1/1
f 15/15/15 16/16/16 17/17/17
f 18/18/18 19/19/19 20/20/20
f 15/15/15 21/21/21 16/16/16
f 22/22/22 21/21/21 15/15/15
f 17/17/17 23/23/23 15/15/15
f 18/18/18 24/24/24 19/19/19
f 25/25/25 24/24/24 18/18/18
f 26/26/26 27/27/27 18/18/18
f 20/20/20 26/26/26 18/18/18
f 23/23/23 28/28/28 15/15/15
o datan_common_acppw10_9f8ce065_mesh01
v 0.086713 -0 -0.302888
v 0.086713 -0 0.302888
v 0.333092 0.094173 -0.168172
v 0.333092 0.094173 0.168172
v 0.061028 0.599236 0.134196
v 0.262829 0.453809 0.103097
v 0.259637 0.471758 -0
v 0.262829 0.453809 -0.103097
v 0.061028 0.599236 -0.134196
v 0.060258 0.617185 -0
v 0.08099 0.240477 0.240013
v 0.310797 0.240477 0.14605
v 0.310797 0.240477 -0.14605
v 0.08099 0.240477 -0.240013
v -0.086713 -0 0.302888
v -0.086713 -0 -0.302888
v -0.333092 0.094173 -0.168172
v -0.333092 0.094173 0.168172
v -0.259457 0.471758 -0
v -0.060258 0.617185 -0
v -0.262848 0.453809 -0.103097
v -0.061028 0.599236 -0.134196
v -0.310797 0.240477 0.14605
v -0.08099 0.240477 0.240013
v -0.262848 0.453809 0.103097
v -0.310797 0.240477 -0.14605
v -0.08099 0.240477 -0.240013
v -0.061028 0.599236 0.134196
vt 0.994059 0.880879
vt 0.755941 0.880879
vt 0.940254 0.894914
vt 0.809746 0.898742
vt 0.823317 0.990717
vt 0.835737 0.966959
vt 0.873086 0.970364
vt 0.914263 0.966959
vt 0.926684 0.990717
vt 0.876914 0.994121
vt 0.781053 0.926494
vt 0.818582 0.926494
vt 0.935246 0.926494
vt 0.972775 0.926494
vt 0.755941 0.880879
vt 0.994059 0.880879
vt 0.940254 0.894914
vt 0.809746 0.898742
vt 0.876914 0.970364
vt 0.876914 0.994121
vt 0.914263 0.966959
vt 0.930512 0.994545
vt 0.814754 0.926494
vt 0.781053 0.926494
vt 0.831909 0.963131
vt 0.935246 0.926494
vt 0.972775 0.926494
vt 0.823317 0.990717
vn 0.183616 0.599244 -0.779225
vn -0.138967 0.912831 0.383964
vn 0.552103 0.780426 -0.293458
vn 0.510275 0.555692 0.656374
vn 0.57016 0.706051 0.42001
vn 0.676944 0.464949 0.570587
vn 0.794861 0.606379 0.022365
vn 0.803683 0.532469 -0.26565
vn 0.48227 0.50401 -0.716513
vn 0.590768 0.805824 -0.040514
vn 0.36819 0.245309 0.896805
vn 0.926666 0.231504 0.296134
vn 0.667066 0.262346 -0.697278
vn 0.365158 0.262848 -0.893068
vn 0.138967 0.912831 0.383964
vn -0.183616 0.599244 -0.779225
vn -0.552103 0.780426 -0.293458
vn -0.510275 0.555692 0.656374
vn -0.794791 0.606474 0.022284
vn -0.590995 0.805676 -0.040137
vn -0.803674 0.532798 -0.265018
vn -0.482242 0.504011 -0.716531
vn -0.926639 0.231689 0.296075
vn -0.368183 0.245302 0.89681
vn -0.677321 0.465125 0.569995
vn -0.667064 0.262326 -0.697288
vn -0.365158 0.262848 -0.893068
vn -0.570329 0.706133 0.419644
usemtl datan_common_acppw10_9f8ce065
f 29/29/29 30/30/30 31/31/31
f 32/32/32 31/31/31 30/30/30
f 33/33/33 34/34/34 35/35/35
f 36/36/36 37/37/37 38/38/38
f 39/39/39 40/40/40 34/34/34
f 40/40/40 41/41/41 36/36/36
f 41/41/41 42/42/42 37/37/37
f 39/39/39 32/32/32 40/40/40
f 30/30/30 32/32/32 39/39/39
f 34/34/34 33/33/33 39/39/39
f 40/40/40 31/31/31 41/41/41
f 32/32/32 31/31/31 40/40/40
f 36/36/36 35/35/35 40/40/40
f 41/41/41 29/29/29 42/42/42
f 31/31/31 29/29/29 41/41/41
f 37/37/37 36/36/36 41/41/41
f 36/36/36 38/38/38 35/35/35
f 35/35/35 38/38/38 33/33/33
f 35/35/35 34/34/34 40/40/40
f 43/43/43 44/44/44 45/45/45
f 45/45/45 46/46/46 43/43/43
f 47/47/47 48/48/48 49/49/49
f 50/50/50 49/49/49 48/48/48
f 51/51/51 52/52/52 53/53/53
f 54/54/54 51/51/51 49/49/49
f 55/55/55 54/54/54 50/50/50
f 46/46/46 52/52/52 51/51/51
f 46/46/46 43/43/43 52/52/52
f 56/56/56 53/53/53 52/52/52
f 45/45/45 51/51/51 54/54/54
f 45/45/45 46/46/46 51/51/51
f 47/47/47 49/49/49 51/51/51
f 44/44/44 54/54/54 55/55/55
f 44/44/44 45/45/45 54/54/54
f 49/49/49 50/50/50 54/54/54
f 53/53/53 56/56/56 47/47/47
f 53/53/53 47/47/47 51/51/51
f 48/48/48 47/47/47 56/56/56
o datan_common_acppw10_9f8ce065_mesh02
v -0.281784 0 -0.417682
v -0.281784 0 0.417682
v 0.281784 0 -0.417682
v 0.281784 0 0.417682
vt 0.005941 0.505941
vt 0.243055 0.505941
vt 0.006945 0.744059
vt 0.244059 0.744059
vn 0 1 0
vn 0 1 0
vn 0 1 0
vn 0 1 0
usemtl datan_common_acppw10_9f8ce065
f 57/57/57 58/58/58 59/59/59
f 60/60/60 59/59/59 58/58/58
o datan_common_acppw10_9f8ce065_mesh03
v -0.281784 0 -0.417682
v -0.281784 0 0.417682
v 0.281784 0 -0.417682
v 0.281784 0 0.417682
vt 0.005941 0.505941
vt 0.243055 0.505941
vt 0.006945 0.744059
vt 0.244059 0.744059
vn 0 1 0
vn 0 1 0
vn 0 1 0
vn 0 1 0
usemtl datan_common_acppw10_9f8ce065
f 61/61/61 62/62/62 63/63/63
f 64/64/64 63/63/63 62/62/62
