# Generated from Nova1492 GX by tools/nova1492/GxObjConverter
mtllib datan_common_AcpUnique08_e405bd31.mtl
o datan_common_AcpUnique08_e405bd31_mesh00
v 0.11112 0.107849 0.2205
v 0.2205 0.107849 0.11112
v 0.143511 0.204112 0.079229
v 0.079229 0.204112 0.143511
v -0.11112 0.107849 -0.2205
v -0.2205 0.107849 -0.11112
v -0.143511 0.204112 -0.079229
v -0.079229 0.204112 -0.143511
v -0.2205 0.107849 0.11112
v -0.11112 0.107849 0.2205
v -0.079229 0.204112 0.143511
v -0.143511 0.204112 0.079229
v 0.2205 0.107849 -0.11112
v 0.11112 0.107849 -0.2205
v 0.079229 0.204112 -0.143511
v 0.143511 0.204112 -0.079229
v 0 0.164698 -0
v -0.11112 0 0.2205
v 0.11112 0 0.2205
v 0.11112 0.107849 0.2205
v -0.11112 0.107849 0.2205
v 0.2205 0 0.11112
v 0.2205 0 -0.11112
v 0.2205 0.107849 -0.11112
v 0.2205 0.107849 0.11112
v 0.11112 0 -0.2205
v -0.11112 0 -0.2205
v -0.11112 0.107849 -0.2205
v 0.11112 0.107849 -0.2205
v -0.2205 0 -0.11112
v -0.2205 0 0.11112
v -0.2205 0.107849 0.11112
v -0.2205 0.107849 -0.11112
v 0.11112 0 0.2205
v 0.2205 0 0.11112
v 0.11112 0.107849 0.2205
v 0.2205 0.107849 0.11112
v -0.11112 0 0.2205
v -0.11112 0.107849 0.2205
v 0.2205 0 -0.11112
v 0.11112 0 -0.2205
v 0.2205 0.107849 -0.11112
v 0.11112 0.107849 -0.2205
v -0.11112 0 -0.2205
v -0.2205 0 -0.11112
v -0.11112 0.107849 -0.2205
v -0.2205 0.107849 -0.11112
v -0.199876 0.034351 0.281242
v -0.222566 0.113263 0.258553
v -0.255676 0.113263 0.225443
v -0.278365 0.081175 0.202753
v -0.255676 0.002263 0.225443
v -0.222566 0.002263 0.258553
v -0.121388 0.034351 0.202753
v -0.121388 0.081175 0.202753
v -0.199876 0.081175 0.281242
v -0.199876 0.034351 0.281242
v -0.144077 0.113263 0.180064
v -0.177187 0.113263 0.146954
v -0.255676 0.113263 0.225443
v -0.222566 0.113263 0.258553
v -0.199876 0.081175 0.124264
v -0.199876 0.034351 0.124264
v -0.278365 0.034351 0.202753
v -0.278365 0.081175 0.202753
v -0.199876 0.081175 0.281242
v -0.278365 0.034351 0.202753
v -0.121388 0.081175 0.202753
v -0.199876 0.081175 0.281242
v -0.144077 0.002263 0.180064
v -0.121388 0.034351 0.202753
v -0.222566 0.002263 0.258553
v -0.199876 0.034351 0.281242
v -0.199876 0.081175 0.124264
v -0.278365 0.081175 0.202753
v -0.199876 0.034351 0.124264
v -0.177187 0.002263 0.146954
v -0.278365 0.034351 0.202753
v -0.255676 0.002263 0.225443
v 0.199876 0.034351 -0.281242
v 0.222566 0.113263 -0.258553
v 0.255676 0.113263 -0.225443
v 0.278365 0.081175 -0.202753
v 0.255676 0.002263 -0.225443
v 0.222566 0.002263 -0.258553
v 0.121388 0.034351 -0.202753
v 0.121388 0.081175 -0.202753
v 0.199876 0.081175 -0.281242
v 0.199876 0.034351 -0.281242
v 0.144077 0.113263 -0.180064
v 0.177187 0.113263 -0.146954
v 0.255676 0.113263 -0.225443
v 0.222566 0.113263 -0.258553
v 0.199876 0.081175 -0.124264
v 0.199876 0.034351 -0.124264
v 0.278365 0.034351 -0.202753
v 0.278365 0.081175 -0.202753
v 0.199876 0.081175 -0.281242
v 0.278365 0.034351 -0.202753
v 0.121388 0.081175 -0.202753
v 0.199876 0.081175 -0.281242
v 0.144077 0.002263 -0.180064
v 0.121388 0.034351 -0.202753
v 0.222566 0.002263 -0.258553
v 0.199876 0.034351 -0.281242
v 0.199876 0.081175 -0.124264
v 0.278365 0.081175 -0.202753
v 0.199876 0.034351 -0.124264
v 0.177187 0.002263 -0.146954
v 0.278365 0.034351 -0.202753
v 0.255676 0.002263 -0.225443
vt 0.375755 0.023765
vt 0.488117 0.24849
vt 0.411296 0.318473
vt 0.333107 0.177408
vt 0.124245 0.976235
vt 0.011883 0.75151
vt 0.088704 0.681527
vt 0.159237 0.822592
vt 0.011883 0.24849
vt 0.124245 0.023765
vt 0.159237 0.177408
vt 0.088704 0.318474
vt 0.488117 0.75151
vt 0.375755 0.976235
vt 0.340763 0.822592
vt 0.40364 0.681527
vt 0.246172 0.5
vt 0.511883 0.023765
vt 0.988118 0.023765
vt 0.988118 0.976235
vt 0.511883 0.976235
vt 0.511883 0.023765
vt 0.988118 0.023765
vt 0.988118 0.976235
vt 0.511883 0.976235
vt 0.988118 0.023765
vt 0.511883 0.023765
vt 0.511883 0.976235
vt 0.988118 0.976235
vt 0.988118 0.023765
vt 0.511883 0.023765
vt 0.511883 0.976235
vt 0.988118 0.976235
vt 0.511883 0.023765
vt 0.988117 0.023765
vt 0.511883 0.976235
vt 0.988117 0.976235
vt 0.988118 0.023765
vt 0.988118 0.976235
vt 0.988117 0.023765
vt 0.511883 0.023765
vt 0.988117 0.976235
vt 0.511883 0.976235
vt 0.988117 0.023765
vt 0.511883 0.023765
vt 0.988117 0.976235
vt 0.511883 0.976235
vt 0.988117 0.30353
vt 0.848235 0.976235
vt 0.651765 0.976235
vt 0.511883 0.69647
vt 0.651765 0.023765
vt 0.848235 0.023765
vt 0.988117 0.023765
vt 0.511883 0.023765
vt 0.511883 0.976235
vt 0.988117 0.976235
vt 0.848235 0.023765
vt 0.651765 0.023765
vt 0.651765 0.976235
vt 0.855891 0.976235
vt 0.511883 0.023765
vt 0.988118 0.023765
vt 0.988118 0.976235
vt 0.511883 0.976235
vt 0.988118 0.696469
vt 0.511883 0.303531
vt 0.988117 0.023765
vt 0.988117 0.976235
vt 0.855891 0.023766
vt 0.988117 0.023766
vt 0.855891 0.976235
vt 0.988117 0.976235
vt 0.511883 0.023765
vt 0.511883 0.976235
vt 0.511883 0.023766
vt 0.644109 0.023766
vt 0.511883 0.976235
vt 0.651765 0.976235
vt 0.988117 0.30353
vt 0.848235 0.976235
vt 0.651765 0.976235
vt 0.511883 0.69647
vt 0.651765 0.023765
vt 0.848235 0.023765
vt 0.988117 0.023765
vt 0.511883 0.023765
vt 0.511883 0.976235
vt 0.988117 0.976235
vt 0.848235 0.023765
vt 0.651765 0.023765
vt 0.651765 0.976234
vt 0.855891 0.976234
vt 0.988117 0.023765
vt 0.511883 0.023765
vt 0.511883 0.976235
vt 0.988117 0.976235
vt 0.988118 0.696469
vt 0.511883 0.303531
vt 0.988118 0.023765
vt 0.988118 0.976235
vt 0.855891 0.023766
vt 0.988117 0.023766
vt 0.855891 0.976235
vt 0.988117 0.976235
vt 0.511883 0.023765
vt 0.511883 0.976235
vt 0.511883 0.023766
vt 0.644109 0.023766
vt 0.511883 0.976235
vt 0.651765 0.976235
vn 0.383691 0.650965 0.655001
vn 0.734466 0.650965 0.191845
vn 0.346635 0.911068 0.223159
vn 0.091072 0.911331 0.401474
vn -0.383691 0.650965 -0.655001
vn -0.734466 0.650965 -0.191845
vn -0.346635 0.911068 -0.223159
vn -0.091072 0.911331 -0.401474
vn -0.655001 0.650965 0.383691
vn -0.191845 0.650965 0.734466
vn -0.223159 0.911068 0.346635
vn -0.401474 0.911331 0.091072
vn 0.655001 0.650965 -0.383691
vn 0.191845 0.650965 -0.734466
vn 0.223159 0.911068 -0.346635
vn 0.401474 0.911331 -0.091072
vn 0 1 0
vn 0 0 1
vn 0 0 1
vn 0 0 1
vn 0 0 1
vn 1 0 0
vn 1 0 0
vn 1 0 0
vn 1 0 0
vn 0 0 -1
vn 0 0 -1
vn 0 0 -1
vn 0 0 -1
vn -1 0 0
vn -0.92388 0 0.382683
vn -0.92388 0 0.382683
vn -1 0 0
vn 0.707107 0 0.707107
vn 0.707107 0 0.707107
vn 0.707107 0 0.707107
vn 0.707107 0 0.707107
vn -0.707107 0 0.707107
vn -0.707107 0 0.707107
vn 0.707107 0 -0.707107
vn 0.707107 0 -0.707107
vn 0.707107 0 -0.707107
vn 0.707107 0 -0.707107
vn -0.707107 0 -0.707107
vn -0.707107 0 -0.707107
vn -0.707107 0 -0.707107
vn -0.707107 0 -0.707107
vn -0.707107 0 0.707107
vn -0.707107 0 0.707107
vn -0.707107 0 0.707107
vn -0.707107 0 0.707107
vn -0.707107 0 0.707107
vn -0.707107 0 0.707107
vn 0.707107 -0 0.707107
vn 0.707107 0 0.707107
vn 0.707107 -0 0.707107
vn 0.707107 -0 0.707107
vn 0.270598 0.92388 0.270598
vn -0.270598 0.92388 -0.270598
vn -0.270598 0.92388 -0.270598
vn 0.270598 0.92388 0.270598
vn -0.707107 0 -0.707107
vn -0.707107 0 -0.707107
vn -0.707107 0 -0.707107
vn -0.707107 0 -0.707107
vn -0.707106 0 0.707107
vn -0.707107 0 0.707107
vn 0.5 0.707107 0.5
vn 0.5 0.707107 0.5
vn 0.5 -0.707107 0.5
vn 0.5 -0.707107 0.5
vn 0.5 -0.707107 0.5
vn 0.5 -0.707107 0.5
vn -0.5 0.707107 -0.5
vn -0.5 0.707107 -0.5
vn -0.5 -0.707107 -0.5
vn -0.5 -0.707107 -0.5
vn -0.5 -0.707107 -0.5
vn -0.5 -0.707107 -0.5
vn 0.707107 0 -0.707107
vn 0.707107 0.000001 -0.707107
vn 0.707107 0 -0.707107
vn 0.707107 0 -0.707107
vn 0.707107 0.000001 -0.707107
vn 0.707107 0 -0.707107
vn -0.707107 0 -0.707107
vn -0.707107 -0 -0.707107
vn -0.707107 0 -0.707107
vn -0.707107 0 -0.707107
vn -0.270598 0.92388 -0.270598
vn 0.270598 0.92388 0.270598
vn 0.270598 0.92388 0.270598
vn -0.270598 0.92388 -0.270598
vn 0.707107 0 0.707107
vn 0.707107 0 0.707107
vn 0.707107 0 0.707107
vn 0.707107 0 0.707107
vn 0.707107 0.000001 -0.707107
vn 0.707107 0.000001 -0.707107
vn -0.5 0.707107 -0.5
vn -0.5 0.707107 -0.5
vn -0.5 -0.707107 -0.5
vn -0.5 -0.707107 -0.5
vn -0.5 -0.707107 -0.5
vn -0.5 -0.707107 -0.5
vn 0.5 0.707107 0.5
vn 0.5 0.707107 0.5
vn 0.5 -0.707107 0.5
vn 0.5 -0.707107 0.5
vn 0.5 -0.707107 0.5
vn 0.5 -0.707107 0.5
usemtl datan_common_AcpUnique08_e405bd31
f 1/1/1 2/2/2 3/3/3
f 3/3/3 4/4/4 1/1/1
f 5/5/5 6/6/6 7/7/7
f 7/7/7 8/8/8 5/5/5
f 9/9/9 10/10/10 11/11/11
f 11/11/11 12/12/12 9/9/9
f 13/13/13 14/14/14 15/15/15
f 15/15/15 16/16/16 13/13/13
f 3/3/3 16/16/16 17/17/17
f 7/7/7 12/12/12 17/17/17
f 11/11/11 4/4/4 17/17/17
f 4/4/4 3/3/3 17/17/17
f 15/15/15 8/8/8 17/17/17
f 8/8/8 7/7/7 17/17/17
f 12/12/12 11/11/11 17/17/17
f 16/16/16 15/15/15 17/17/17
f 2/2/2 13/13/13 16/16/16
f 16/16/16 3/3/3 2/2/2
f 6/6/6 9/9/9 12/12/12
f 12/12/12 7/7/7 6/6/6
f 10/10/10 1/1/1 4/4/4
f 4/4/4 11/11/11 10/10/10
f 14/14/14 5/5/5 8/8/8
f 8/8/8 15/15/15 14/14/14
f 18/18/18 19/19/19 20/20/20
f 20/20/20 21/21/21 18/18/18
f 22/22/22 23/23/23 24/24/24
f 24/24/24 25/25/25 22/22/22
f 26/26/26 27/27/27 28/28/28
f 28/28/28 29/29/29 26/26/26
f 30/30/30 31/31/31 32/32/32
f 32/32/32 33/33/33 30/30/30
f 34/34/34 35/35/35 36/36/36
f 37/37/37 36/36/36 35/35/35
f 31/31/31 38/38/38 32/32/32
f 39/39/39 32/32/32 38/38/38
f 40/40/40 41/41/41 42/42/42
f 43/43/43 42/42/42 41/41/41
f 44/44/44 45/45/45 46/46/46
f 47/47/47 46/46/46 45/45/45
f 48/48/48 49/49/49 50/50/50
f 51/51/51 52/52/52 53/53/53
f 54/54/54 55/55/55 56/56/56
f 56/56/56 57/57/57 54/54/54
f 58/58/58 59/59/59 60/60/60
f 60/60/60 61/61/61 58/58/58
f 62/62/62 63/63/63 64/64/64
f 64/64/64 65/65/65 62/62/62
f 48/48/48 66/66/66 49/49/49
f 51/51/51 67/67/67 52/52/52
f 53/53/53 48/48/48 51/51/51
f 50/50/50 51/51/51 48/48/48
f 68/68/68 58/58/58 69/69/69
f 61/61/61 69/69/69 58/58/58
f 70/70/70 71/71/71 72/72/72
f 73/73/73 72/72/72 71/71/71
f 59/59/59 74/74/74 60/60/60
f 75/75/75 60/60/60 74/74/74
f 76/76/76 77/77/77 78/78/78
f 79/79/79 78/78/78 77/77/77
f 80/80/80 81/81/81 82/82/82
f 83/83/83 84/84/84 85/85/85
f 86/86/86 87/87/87 88/88/88
f 88/88/88 89/89/89 86/86/86
f 90/90/90 91/91/91 92/92/92
f 92/92/92 93/93/93 90/90/90
f 94/94/94 95/95/95 96/96/96
f 96/96/96 97/97/97 94/94/94
f 80/80/80 98/98/98 81/81/81
f 83/83/83 99/99/99 84/84/84
f 85/85/85 80/80/80 83/83/83
f 82/82/82 83/83/83 80/80/80
f 100/100/100 90/90/90 101/101/101
f 93/93/93 101/101/101 90/90/90
f 102/102/102 103/103/103 104/104/104
f 105/105/105 104/104/104 103/103/103
f 91/91/91 106/106/106 92/92/92
f 107/107/107 92/92/92 106/106/106
f 108/108/108 109/109/109 110/110/110
f 111/111/111 110/110/110 109/109/109
o datan_common_AcpUnique08_e405bd31_mesh01
v -0.143511 0.204112 -0.079229
v -0.143511 0.204112 0.079229
v 0 0.256837 0
v 0.079229 0.204112 -0.143511
v -0.079229 0.204112 -0.143511
v 0.079229 0.204112 0.143511
v 0.143511 0.204112 0.079229
v 0.143511 0.204112 -0.079229
v -0.079229 0.204112 0.143511
vt 0.755941 0.689873
vt 0.755941 0.560127
vt 0.873086 0.625
vt 0.939873 0.744059
vt 0.810127 0.744059
vt 0.943701 0.505941
vt 0.994059 0.560127
vt 0.994059 0.689873
vt 0.810127 0.505941
vn -0.286999 0.951224 -0.113155
vn -0.286999 0.951224 0.113155
vn 0 1 -0
vn 0.113155 0.951224 -0.286999
vn -0.113155 0.951224 -0.286999
vn 0.113155 0.951224 0.286999
vn 0.286999 0.951224 0.113155
vn 0.286999 0.951224 -0.113155
vn -0.113155 0.951224 0.286999
usemtl datan_common_AcpUnique08_e405bd31
f 112/112/112 113/113/113 114/114/114
f 115/115/115 116/116/116 114/114/114
f 117/117/117 118/118/118 114/114/114
f 116/116/116 112/112/112 114/114/114
f 119/119/119 115/115/115 114/114/114
f 118/118/118 119/119/119 114/114/114
f 120/120/120 117/117/117 114/114/114
f 113/113/113 120/120/120 114/114/114
o datan_common_AcpUnique08_e405bd31_mesh02
v 0.2205 0.107849 0.11112
v 0.2205 0.107849 -0.11112
v 0.143511 0.204112 -0.079229
v 0.143511 0.204112 0.079229
v -0.2205 0.107849 -0.11112
v -0.2205 0.107849 0.11112
v -0.143511 0.204112 0.079229
v -0.143511 0.204112 -0.079229
v -0.11112 0.107849 0.2205
v 0.11112 0.107849 0.2205
v 0.079229 0.204112 0.143511
v -0.079229 0.204112 0.143511
v 0.11112 0.107849 -0.2205
v -0.11112 0.107849 -0.2205
v -0.079229 0.204112 -0.143511
v 0.079229 0.204112 -0.143511
vt 0.994059 0.815951
vt 0.994059 0.934049
vt 0.955648 0.916554
vt 0.955648 0.833447
vt 0.755941 0.934049
vt 0.755941 0.815951
vt 0.794352 0.833447
vt 0.79818 0.920382
vt 0.815951 0.755941
vt 0.934049 0.755941
vt 0.916554 0.794352
vt 0.833447 0.79818
vt 0.934049 0.994059
vt 0.815951 0.994059
vt 0.833447 0.955648
vt 0.920382 0.955648
vn 0.780953 0.62459 0
vn 0.780953 0.62459 0
vn 0.780953 0.62459 0
vn 0.780953 0.62459 0
vn -0.780953 0.62459 0
vn -0.780953 0.62459 0
vn -0.780953 0.62459 0
vn -0.780953 0.62459 0
vn 0 0.62459 0.780953
vn 0 0.62459 0.780953
vn 0 0.62459 0.780953
vn 0 0.62459 0.780953
vn 0 0.62459 -0.780953
vn 0 0.62459 -0.780953
vn 0 0.62459 -0.780953
vn 0 0.62459 -0.780953
usemtl datan_common_AcpUnique08_e405bd31
f 121/121/121 122/122/122 123/123/123
f 123/123/123 124/124/124 121/121/121
f 125/125/125 126/126/126 127/127/127
f 127/127/127 128/128/128 125/125/125
f 129/129/129 130/130/130 131/131/131
f 131/131/131 132/132/132 129/129/129
f 133/133/133 134/134/134 135/135/135
f 135/135/135 136/136/136 133/133/133
