# Generated from Nova1492 GX by tools/nova1492/GxObjConverter
mtllib datan_common_acptwr2_3468410b.mtl
o datan_common_acptwr2_3468410b
v -0.565297 0.10733 -0.448981
v -0.671477 0.10733 -0.265071
v -0.510478 0.882917 -0.197703
v -0.426455 0.882917 -0.343235
v -0.671477 0.10733 -0.265071
v -0.378408 0.10733 -0.009712
v -0.34225 0.882917 -0.07234
v -0.510478 0.882917 -0.197703
v -0.378408 0.10733 -0.009712
v -0.197615 0.10733 -0.322855
v -0.233774 0.882917 -0.260226
v -0.34225 0.882917 -0.07234
v -0.197615 0.10733 -0.322855
v -0.565297 0.10733 -0.448981
v -0.426455 0.882917 -0.343235
v -0.233774 0.882917 -0.260226
v 0.671477 0.10733 -0.265071
v 0.565297 0.10733 -0.448981
v 0.426455 0.882917 -0.343236
v 0.510478 0.882917 -0.197703
v 0.565297 0.10733 -0.448981
v 0.197615 0.10733 -0.322855
v 0.233774 0.882917 -0.260227
v 0.426455 0.882917 -0.343236
v 0.197615 0.10733 -0.322855
v 0.378408 0.10733 -0.009712
v 0.34225 0.882917 -0.072341
v 0.233774 0.882917 -0.260227
v 0.378408 0.10733 -0.009712
v 0.671477 0.10733 -0.265071
v 0.510478 0.882917 -0.197703
v 0.34225 0.882917 -0.072341
v -0.10618 0.10733 0.714053
v 0.10618 0.10733 0.714053
v 0.084023 0.882917 0.540939
v -0.084023 0.882917 0.540939
v 0.10618 0.10733 0.714053
v 0.180793 0.10733 0.332568
v 0.108476 0.882917 0.332568
v 0.084023 0.882917 0.540939
v 0.180793 0.10733 0.332568
v -0.180793 0.10733 0.332568
v -0.108476 0.882917 0.332568
v 0.108476 0.882917 0.332568
v -0.180793 0.10733 0.332568
v -0.10618 0.10733 0.714053
v -0.084023 0.882917 0.540939
v -0.108476 0.882917 0.332568
vt 0.630879 0.994059
vt 0.744121 0.994059
vt 0.717978 0.755941
vt 0.657022 0.755941
vt 0.63082 0.994059
vt 0.741115 0.994059
vt 0.717904 0.755941
vt 0.655966 0.755941
vt 0.744121 0.994059
vt 0.630879 0.994059
vt 0.656895 0.755941
vt 0.718106 0.755941
vt 0.741115 0.994059
vt 0.63082 0.994059
vt 0.655966 0.755941
vt 0.717904 0.755941
vt 0.630879 0.994059
vt 0.744121 0.994059
vt 0.717978 0.755941
vt 0.657022 0.755941
vt 0.63082 0.994059
vt 0.741115 0.994059
vt 0.717904 0.755941
vt 0.655966 0.755941
vt 0.744121 0.994059
vt 0.630879 0.994059
vt 0.656895 0.755941
vt 0.718106 0.755941
vt 0.741115 0.994059
vt 0.63082 0.994059
vt 0.655966 0.755941
vt 0.717904 0.755941
vt 0.630879 0.994059
vt 0.744121 0.994059
vt 0.717978 0.755941
vt 0.657022 0.755941
vt 0.63082 0.994059
vt 0.741115 0.994059
vt 0.717904 0.755941
vt 0.655966 0.755941
vt 0.744121 0.994059
vt 0.630879 0.994059
vt 0.656895 0.755941
vt 0.718106 0.755941
vt 0.741115 0.994059
vt 0.63082 0.994059
vt 0.655966 0.755941
vt 0.717904 0.755941
vn -0.845227 0.217843 -0.487992
vn -0.845227 0.217843 -0.487992
vn -0.845227 0.217843 -0.487992
vn -0.845227 0.217843 -0.487992
vn -0.625984 0.072783 0.776432
vn -0.654202 0.091127 0.75081
vn -0.625984 0.072783 0.776432
vn -0.596647 0.054308 0.800664
vn 0.866026 -0 0.5
vn 0.866026 -0 0.5
vn 0.866026 -0 0.5
vn 0.866026 -0 0.5
vn 0.359094 0.081521 -0.929734
vn 0.323658 0.070703 -0.943529
vn 0.359094 0.081521 -0.929734
vn 0.39397 0.092212 -0.914486
vn 0.845227 0.217843 -0.487992
vn 0.845227 0.217843 -0.487992
vn 0.845227 0.217843 -0.487992
vn 0.845227 0.217843 -0.487992
vn -0.359417 0.072783 -0.930334
vn -0.32312 0.091127 -0.94196
vn -0.359417 0.072783 -0.930334
vn -0.395072 0.054308 -0.917044
vn -0.866025 -0 0.5
vn -0.866025 -0 0.5
vn -0.866025 -0 0.5
vn -0.866025 -0 0.5
vn 0.625626 0.081521 0.775852
vn 0.655291 0.070703 0.75206
vn 0.625626 0.081521 0.775852
vn 0.594983 0.092212 0.798431
vn 0 0.217843 0.975984
vn 0 0.217843 0.975984
vn 0 0.217843 0.975984
vn 0 0.217843 0.975984
vn 0.985402 0.072783 0.153903
vn 0.977322 0.091127 0.19115
vn 0.985402 0.072783 0.153903
vn 0.991719 0.054308 0.11638
vn 0 0 -1
vn 0 0 -1
vn 0 0 -1
vn 0 0 -1
vn -0.984721 0.081521 0.153882
vn -0.978949 0.070703 0.191469
vn -0.984721 0.081521 0.153882
vn -0.988953 0.092212 0.116055
usemtl datan_common_acptwr2_3468410b
f 1/1/1 2/2/2 3/3/3
f 3/3/3 4/4/4 1/1/1
f 5/5/5 6/6/6 7/7/7
f 7/7/7 8/8/8 5/5/5
f 9/9/9 10/10/10 11/11/11
f 11/11/11 12/12/12 9/9/9
f 13/13/13 14/14/14 15/15/15
f 15/15/15 16/16/16 13/13/13
f 17/17/17 18/18/18 19/19/19
f 19/19/19 20/20/20 17/17/17
f 21/21/21 22/22/22 23/23/23
f 23/23/23 24/24/24 21/21/21
f 25/25/25 26/26/26 27/27/27
f 27/27/27 28/28/28 25/25/25
f 29/29/29 30/30/30 31/31/31
f 31/31/31 32/32/32 29/29/29
f 33/33/33 34/34/34 35/35/35
f 35/35/35 36/36/36 33/33/33
f 37/37/37 38/38/38 39/39/39
f 39/39/39 40/40/40 37/37/37
f 41/41/41 42/42/42 43/43/43
f 43/43/43 44/44/44 41/41/41
f 45/45/45 46/46/46 47/47/47
f 47/47/47 48/48/48 45/45/45
