# Generated from Nova1492 GX by tools/nova1492/GxObjConverter
mtllib datan_common_acp1hp_f1fdac64.mtl
o datan_common_acp1hp_f1fdac64
v -0.188346 0.309934 0.184653
v 0.188346 0.309934 0.184653
v 0.188346 0.309934 -0.184653
v -0.188346 0.309934 -0.184653
v -0.255 -0.065951 0.25
v 0.255 -0.065951 0.25
v 0.255 0.200636 0.25
v -0.255 0.200636 0.25
v 0.188346 0.309934 0.184653
v -0.188346 0.309934 0.184653
v 0.255 -0.065951 0.25
v 0.255 -0.065951 -0.25
v 0.255 0.200636 -0.25
v 0.255 0.200636 0.25
v 0.188346 0.309934 -0.184653
v 0.188346 0.309934 0.184653
v 0.255 -0.065951 -0.25
v -0.255 -0.065951 -0.25
v -0.255 0.200636 -0.25
v 0.255 0.200636 -0.25
v -0.188346 0.309934 -0.184653
v 0.188346 0.309934 -0.184653
v -0.255 -0.065951 -0.25
v -0.255 -0.065951 0.25
v -0.255 0.200636 0.25
v -0.255 0.200636 -0.25
v -0.433061 0.175743 0.048537
v -0.220452 0.175743 0.082887
v -0.433061 0.175743 -0.048439
v -0.220452 0.175743 -0.082789
v -0.220452 0.175743 -0.082789
v -0.220452 0.175743 0.082887
v -0.207653 0.095675 -0.128574
v -0.207653 0.095675 0.128672
v -0.207653 -0.063313 -0.128574
v -0.207653 -0.063313 0.128672
v -0.433061 0.175743 -0.048439
v -0.220452 0.175743 -0.082789
v -0.494201 0.095675 -0.085025
v -0.494201 -0.063313 -0.085025
v -0.433061 0.175743 0.048537
v -0.433061 0.175743 -0.048439
v -0.494201 0.095675 0.085123
v -0.494201 -0.063313 0.085123
v -0.220452 0.175743 0.082887
v -0.433061 0.175743 0.048537
v -0.044031 0.175743 -0.43245
v -0.078381 0.175743 -0.219841
v 0.052945 0.175743 -0.43245
v 0.087295 0.175743 -0.219841
v 0.087295 0.175743 -0.219841
v -0.078381 0.175743 -0.219841
v 0.13308 0.095675 -0.207042
v -0.124166 0.095675 -0.207042
v 0.13308 -0.063313 -0.207042
v -0.124166 -0.063313 -0.207042
v 0.052945 0.175743 -0.43245
v 0.087295 0.175743 -0.219841
v 0.089531 0.095675 -0.49359
v 0.089531 -0.063313 -0.49359
v -0.044031 0.175743 -0.43245
v 0.052945 0.175743 -0.43245
v -0.080617 0.095675 -0.49359
v -0.080617 -0.063313 -0.49359
v -0.078381 0.175743 -0.219841
v -0.044031 0.175743 -0.43245
v 0.436549 0.175743 -0.051955
v 0.22394 0.175743 -0.086305
v 0.436549 0.175743 0.045021
v 0.22394 0.175743 0.079371
v 0.22394 0.175743 0.079371
v 0.22394 0.175743 -0.086305
v 0.211141 0.095675 0.125156
v 0.211141 0.095675 -0.13209
v 0.211141 -0.063313 0.125156
v 0.211141 -0.063313 -0.13209
v 0.436549 0.175743 0.045021
v 0.22394 0.175743 0.079371
v 0.497689 0.095675 0.081607
v 0.497689 -0.063313 0.081607
v 0.436549 0.175743 -0.051955
v 0.436549 0.175743 0.045021
v 0.497689 0.095675 -0.088541
v 0.497689 -0.063313 -0.088541
v 0.22394 0.175743 -0.086305
v 0.436549 0.175743 -0.051955
vt 0.569152 0.138304
vt 0.930848 0.138304
vt 0.930848 0.861696
vt 0.569152 0.861696
vt 0.523516 0.031719
vt 0.976484 0.031718
vt 0.976484 0.031718
vt 0.523516 0.047031
vt 0.930848 0.107679
vt 0.569152 0.107679
vt 0.984141 0.04703
vt 0.984141 0.952969
vt 0.984141 0.952969
vt 0.976484 0.04703
vt 0.94616 0.861696
vt 0.94616 0.138304
vt 0.976484 0.968281
vt 0.523516 0.968282
vt 0.523516 0.968282
vt 0.976484 0.952969
vt 0.569152 0.892321
vt 0.930848 0.892321
vt 0.515859 0.95297
vt 0.515859 0.047031
vt 0.515859 0.047031
vt 0.523516 0.95297
vt 0.146777 0.8068
vt 0.146776 0.086013
vt 0.353224 0.8068
vt 0.353223 0.086013
vt 0.353223 0.055388
vt 0.146776 0.055388
vt 0.476484 0.047031
vt 0.023516 0.047031
vt 0.476484 0.047031
vt 0.023516 0.047031
vt 0.368536 0.8068
vt 0.368536 0.086013
vt 0.476484 0.952969
vt 0.476484 0.952969
vt 0.146777 0.837425
vt 0.353224 0.837425
vt 0.023516 0.952969
vt 0.023516 0.952969
vt 0.131464 0.086013
vt 0.131464 0.8068
vt 0.146777 0.8068
vt 0.146776 0.086013
vt 0.353224 0.8068
vt 0.353223 0.086013
vt 0.353223 0.055388
vt 0.146776 0.055388
vt 0.476484 0.047031
vt 0.023516 0.047031
vt 0.476484 0.047031
vt 0.023516 0.047031
vt 0.368536 0.8068
vt 0.368536 0.086013
vt 0.476484 0.952969
vt 0.476484 0.952969
vt 0.146777 0.837425
vt 0.353224 0.837425
vt 0.023516 0.952969
vt 0.023516 0.952969
vt 0.131464 0.086013
vt 0.131464 0.8068
vt 0.146777 0.8068
vt 0.146776 0.086013
vt 0.353224 0.8068
vt 0.353223 0.086013
vt 0.353223 0.055388
vt 0.146776 0.055388
vt 0.476484 0.047031
vt 0.023516 0.047031
vt 0.476484 0.047031
vt 0.023516 0.047031
vt 0.368536 0.8068
vt 0.368536 0.086013
vt 0.476484 0.952969
vt 0.476484 0.952969
vt 0.146777 0.837425
vt 0.353224 0.837425
vt 0.023516 0.952969
vt 0.023516 0.952969
vt 0.131464 0.086013
vt 0.131464 0.8068
vn -0.489562 0.871968 0
vn 0 1 0
vn 0 1 0
vn -0.489562 0.871968 0
vn 0 0 1
vn 0 0 1
vn 0 0.176707 0.984264
vn 0 0.353415 0.935467
vn 0 0.513157 0.858295
vn 0 0.513157 0.858295
vn 1 0 0
vn 1 0 0
vn 0.983761 0.179483 0
vn 0.93335 0.358967 0
vn 0.853765 0.520658 0
vn 0.853765 0.520658 0
vn 0 0 -1
vn 0 0 -1
vn 0 0.176707 -0.984264
vn 0 0.353415 -0.935467
vn 0 0.513157 -0.858295
vn 0 0.513157 -0.858295
vn -1 0 0
vn -1 0 0
vn -0.983761 0.179483 0
vn -0.93335 0.358967 0
vn 0 1 0
vn 0 1 0
vn 0 1 0
vn 0 1 0
vn 0.987464 0.157846 0
vn 0.987464 0.157846 0
vn 0.652213 0.203116 -0.730316
vn 0.657372 0.288254 0.696255
vn 0.881934 -0 -0.471373
vn 0.333511 0 0.942746
vn -0.138396 0.497093 -0.856589
vn -0.135276 0.486607 -0.863084
vn -0.71535 0.351502 -0.603921
vn -0.549513 -0 -0.835485
vn -0.794779 0.606899 0
vn -0.794779 0.606899 0
vn -0.673964 0.380778 0.633072
vn -0.908565 0 0.417743
vn -0.140401 0.47447 0.869003
vn -0.135575 0.483714 0.864662
vn 0 1 0
vn 0 1 0
vn 0 1 0
vn 0 1 0
vn 0 0.157846 0.987464
vn 0 0.157846 0.987464
vn 0.730316 0.203116 0.652213
vn -0.696255 0.288254 0.657372
vn 0.471373 0 0.881934
vn -0.942746 0 0.333511
vn 0.856589 0.497093 -0.138396
vn 0.863084 0.486607 -0.135276
vn 0.603921 0.351502 -0.71535
vn 0.835485 0 -0.549513
vn 0 0.606899 -0.794779
vn 0 0.606899 -0.794779
vn -0.633072 0.380778 -0.673964
vn -0.417743 0 -0.908565
vn -0.869003 0.47447 -0.140401
vn -0.864662 0.483714 -0.135575
vn 0 1 0
vn 0 1 0
vn 0 1 0
vn 0 1 0
vn -0.987464 0.157846 0
vn -0.987464 0.157846 0
vn -0.652213 0.203116 0.730316
vn -0.657372 0.288254 -0.696255
vn -0.881934 -0 0.471373
vn -0.333511 0 -0.942746
vn 0.138396 0.497093 0.856589
vn 0.135276 0.486607 0.863084
vn 0.71535 0.351502 0.603921
vn 0.549513 -0 0.835485
vn 0.794779 0.606899 0
vn 0.794779 0.606899 0
vn 0.673964 0.380778 -0.633072
vn 0.908565 0 -0.417743
vn 0.140401 0.47447 -0.869003
vn 0.135575 0.483714 -0.864662
usemtl datan_common_acp1hp_f1fdac64
f 1/1/1 2/2/2 3/3/3
f 3/3/3 4/4/4 1/1/1
f 5/5/5 6/6/6 7/7/7
f 7/7/7 8/8/8 5/5/5
f 8/8/8 7/7/7 9/9/9
f 9/9/9 10/10/10 8/8/8
f 11/11/11 12/12/12 13/13/13
f 13/13/13 14/14/14 11/11/11
f 14/14/14 13/13/13 15/15/15
f 15/15/15 16/16/16 14/14/14
f 17/17/17 18/18/18 19/19/19
f 19/19/19 20/20/20 17/17/17
f 20/20/20 19/19/19 21/21/21
f 21/21/21 22/22/22 20/20/20
f 23/23/23 24/24/24 25/25/25
f 25/25/25 26/26/26 23/23/23
f 26/26/26 25/25/25 1/1/1
f 1/1/1 4/4/4 26/26/26
f 27/27/27 28/28/28 29/29/29
f 30/30/30 29/29/29 28/28/28
f 31/31/31 32/32/32 33/33/33
f 34/34/34 33/33/33 32/32/32
f 33/33/33 34/34/34 35/35/35
f 36/36/36 35/35/35 34/34/34
f 37/37/37 38/38/38 39/39/39
f 33/33/33 39/39/39 38/38/38
f 39/39/39 33/33/33 40/40/40
f 35/35/35 40/40/40 33/33/33
f 41/41/41 42/42/42 43/43/43
f 39/39/39 43/43/43 42/42/42
f 43/43/43 39/39/39 44/44/44
f 40/40/40 44/44/44 39/39/39
f 45/45/45 46/46/46 34/34/34
f 43/43/43 34/34/34 46/46/46
f 34/34/34 43/43/43 36/36/36
f 44/44/44 36/36/36 43/43/43
f 47/47/47 48/48/48 49/49/49
f 50/50/50 49/49/49 48/48/48
f 51/51/51 52/52/52 53/53/53
f 54/54/54 53/53/53 52/52/52
f 53/53/53 54/54/54 55/55/55
f 56/56/56 55/55/55 54/54/54
f 57/57/57 58/58/58 59/59/59
f 53/53/53 59/59/59 58/58/58
f 59/59/59 53/53/53 60/60/60
f 55/55/55 60/60/60 53/53/53
f 61/61/61 62/62/62 63/63/63
f 59/59/59 63/63/63 62/62/62
f 63/63/63 59/59/59 64/64/64
f 60/60/60 64/64/64 59/59/59
f 65/65/65 66/66/66 54/54/54
f 63/63/63 54/54/54 66/66/66
f 54/54/54 63/63/63 56/56/56
f 64/64/64 56/56/56 63/63/63
f 67/67/67 68/68/68 69/69/69
f 70/70/70 69/69/69 68/68/68
f 71/71/71 72/72/72 73/73/73
f 74/74/74 73/73/73 72/72/72
f 73/73/73 74/74/74 75/75/75
f 76/76/76 75/75/75 74/74/74
f 77/77/77 78/78/78 79/79/79
f 73/73/73 79/79/79 78/78/78
f 79/79/79 73/73/73 80/80/80
f 75/75/75 80/80/80 73/73/73
f 81/81/81 82/82/82 83/83/83
f 79/79/79 83/83/83 82/82/82
f 83/83/83 79/79/79 84/84/84
f 80/80/80 84/84/84 79/79/79
f 85/85/85 86/86/86 74/74/74
