# Generated from Nova1492 GX by tools/nova1492/GxObjConverter
mtllib datan_common_aqr_ccdeab4e.mtl
o datan_common_aqr_ccdeab4e_mesh00
v -0.610016 0.85524 -0.392706
v -0.613065 0.605223 -0.392706
v -1.100902 0.483264 -0.392706
v -0.234991 0.489362 -0.392706
v -0.231942 -0.080798 -0.392706
v 0.130887 0.599125 -0.392706
v 0.133936 0.980248 -0.392706
v 0.203192 0.898 -0.392706
v 0.987652 0.486313 -0.392706
v 0.618725 0.434409 -0.392706
v 0.935819 0.806456 -0.392706
v 0.621774 -0.117386 -0.392706
v 0.549469 0.505444 -0.392706
v 0.480214 0.579683 -0.392706
v 0.410958 0.656592 -0.392706
v 0.272447 0.816284 -0.392706
v 0.341703 0.735637 -0.392706
v -0.728926 0.268461 -0.392706
v -0.787083 -0.053228 -0.392706
v -1.154361 -0.17708 -0.392706
v 1.154361 0.042133 -0.392706
v 0.621774 -0.370452 -0.392706
v 1.102528 0.359227 -0.392706
v 0.621774 -0.980248 -0.392706
v 0.127838 -0.382648 -0.392706
v 0.133936 0.114337 -0.392706
v -0.23804 -0.367403 -0.392706
v -0.23804 -0.85524 -0.392706
v -0.610016 0.85524 0.392706
v -1.100902 0.483264 0.392706
v -0.613065 0.605223 0.392706
v -0.234991 0.489362 0.392706
v -0.231942 -0.080798 0.392706
v 0.130887 0.599125 0.392706
v 0.133936 0.980248 0.392706
v 0.203192 0.897999 0.392706
v 0.987652 0.486313 0.392706
v 0.935819 0.806456 0.392706
v 0.618725 0.434409 0.392706
v 0.621774 -0.117386 0.392706
v 0.549469 0.505444 0.392706
v 0.480214 0.579683 0.392706
v 0.410958 0.656592 0.392706
v 0.272447 0.816284 0.392706
v 0.341703 0.735637 0.392706
v -0.728926 0.268461 0.392706
v -1.154361 -0.17708 0.392706
v -0.787083 -0.053228 0.392706
v 1.154361 0.042133 0.392706
v 1.102529 0.359227 0.392706
v 0.621774 -0.370452 0.392706
v 0.621774 -0.980248 0.392706
v 0.127838 -0.382648 0.392706
v 0.133936 0.114337 0.392706
v -0.23804 -0.367403 0.392706
v -0.23804 -0.85524 0.392706
vt 0.116107 0.969814
vt 0.115447 0.906115
vt 0.009902 0.875041
vt 0.197245 0.876595
vt 0.197905 0.731328
vt 0.276404 0.904561
vt 0.277064 1.001664
vt 0.292047 0.980709
vt 0.461768 0.875818
vt 0.381949 0.862594
vt 0.450554 0.957385
vt 0.382609 0.722006
vt 0.366966 0.880692
vt 0.351982 0.899607
vt 0.336998 0.919202
vt 0.307031 0.959889
vt 0.322015 0.939342
vt 0.09038 0.820313
vt 0.077798 0.738353
vt -0.001664 0.706797
vt 0.497836 0.762649
vt 0.382609 0.657529
vt 0.486622 0.843439
vt 0.382609 0.502164
vt 0.275744 0.654422
vt 0.277064 0.781045
vt 0.196585 0.658306
vt 0.196585 0.534014
vt 0.116107 0.969814
vt 0.009902 0.875041
vt 0.115447 0.906115
vt 0.197245 0.876595
vt 0.197905 0.731328
vt 0.276404 0.904561
vt 0.277064 1.001664
vt 0.292047 0.980709
vt 0.461768 0.875818
vt 0.450554 0.957385
vt 0.381949 0.862594
vt 0.382609 0.722006
vt 0.366966 0.880692
vt 0.351982 0.899607
vt 0.336998 0.919202
vt 0.307031 0.959889
vt 0.322015 0.939342
vt 0.09038 0.820313
vt -0.001664 0.706797
vt 0.077798 0.738353
vt 0.497836 0.762649
vt 0.486622 0.843439
vt 0.382609 0.65753
vt 0.382609 0.502164
vt 0.275744 0.654422
vt 0.277064 0.781045
vt 0.196585 0.658306
vt 0.196585 0.534014
vn 0 0 -1
vn 0 0 -1
vn 0 0 -1
vn -0 0 -1
vn -0 0 -1
vn 0 -0 -1
vn -0.000001 0 -1
vn -0 0 -1
vn -0 0 -1
vn 0 0 -1
vn -0 0 -1
vn 0 0 -1
vn 0 0 -1
vn 0 0 -1
vn 0 0 -1
vn 0 -0 -1
vn 0 -0 -1
vn -0 0 -1
vn -0 -0 -1
vn 0 0 -1
vn 0 0 -1
vn -0 0 -1
vn 0 0 -1
vn 0 0 -1
vn 0 -0 -1
vn 0 0 -1
vn 0 -0 -1
vn 0 -0 -1
vn 0 0 1
vn -0 0 1
vn -0 -0 1
vn -0 0 1
vn 0 -0 1
vn -0 0 1
vn 0 0 1
vn 0 0 1
vn 0 -0 1
vn 0 0 1
vn -0 -0 1
vn -0 -0 1
vn -0 -0 1
vn -0 -0 1
vn 0 -0 1
vn -0 0 1
vn -0 0 1
vn 0 -0 1
vn -0 0 1
vn 0 0 1
vn -0 0 1
vn 0 -0 1
vn 0 -0 1
vn -0 0 1
vn -0 0 1
vn -0 -0 1
vn -0 0 1
vn -0 0 1
usemtl datan_common_aqr_ccdeab4e
f 1/1/1 2/2/2 3/3/3
f 4/4/4 2/2/2 1/1/1
f 4/4/4 5/5/5 2/2/2
f 4/4/4 6/6/6 5/5/5
f 7/7/7 6/6/6 4/4/4
f 8/8/8 6/6/6 7/7/7
f 9/9/9 10/10/10 11/11/11
f 12/12/12 10/10/10 9/9/9
f 6/6/6 10/10/10 12/12/12
f 6/6/6 13/13/13 10/10/10
f 6/6/6 14/14/14 13/13/13
f 6/6/6 15/15/15 14/14/14
f 16/16/16 6/6/6 8/8/8
f 6/6/6 17/17/17 15/15/15
f 16/16/16 17/17/17 6/6/6
f 18/18/18 19/19/19 20/20/20
f 21/21/21 22/22/22 23/23/23
f 24/24/24 22/22/22 21/21/21
f 25/25/25 22/22/22 24/24/24
f 25/25/25 26/26/26 22/22/22
f 25/25/25 27/27/27 26/26/26
f 27/27/27 19/19/19 18/18/18
f 27/27/27 28/28/28 19/19/19
f 27/27/27 25/25/25 28/28/28
f 29/29/29 30/30/30 31/31/31
f 32/32/32 29/29/29 31/31/31
f 32/32/32 31/31/31 33/33/33
f 32/32/32 33/33/33 34/34/34
f 35/35/35 32/32/32 34/34/34
f 36/36/36 35/35/35 34/34/34
f 37/37/37 38/38/38 39/39/39
f 40/40/40 37/37/37 39/39/39
f 34/34/34 40/40/40 39/39/39
f 34/34/34 39/39/39 41/41/41
f 34/34/34 41/41/41 42/42/42
f 34/34/34 42/42/42 43/43/43
f 44/44/44 36/36/36 34/34/34
f 34/34/34 43/43/43 45/45/45
f 44/44/44 34/34/34 45/45/45
f 46/46/46 47/47/47 48/48/48
f 49/49/49 50/50/50 51/51/51
f 52/52/52 49/49/49 51/51/51
f 53/53/53 52/52/52 51/51/51
f 53/53/53 51/51/51 54/54/54
f 53/53/53 54/54/54 55/55/55
f 55/55/55 46/46/46 48/48/48
f 55/55/55 48/48/48 56/56/56
f 55/55/55 56/56/56 53/53/53
o datan_common_aqr_ccdeab4e_mesh01
v -0.127644 -0.690477 -0.403914
v -0.320719 -0.690477 -0.403914
v -0.320719 -0.491691 -0.403914
v -0.127644 -0.491691 -0.403914
vt 0.748086 0.751914
vt 0.998086 0.751914
vt 0.998086 1.001914
vt 0.748086 1.001914
vn -0.189492 -0.499622 -0.845264
vn -0.189492 -0.499622 -0.845264
vn -0.189492 -0.499622 -0.845264
vn -0.189492 -0.499622 -0.845264
usemtl datan_common_aqr_ccdeab4e
f 57/57/57 58/58/58 59/59/59
f 59/59/59 60/60/60 57/57/57
o datan_common_aqr_ccdeab4e_mesh02
v 0.0906 -0.26874 0.402587
v 0.266044 -0.26874 0.402587
v 0.266044 -0.088107 0.402587
v 0.0906 -0.088107 0.402587
vt 0.748086 0.751914
vt 0.998086 0.751914
vt 0.998086 1.001914
vt 0.748086 1.001914
vn 0.172906 -0.173004 0.969625
vn 0.172906 -0.173004 0.969625
vn 0.172906 -0.173004 0.969625
vn 0.172906 -0.173004 0.969625
usemtl datan_common_aqr_ccdeab4e
f 61/61/61 62/62/62 63/63/63
f 63/63/63 64/64/64 61/61/61
o datan_common_aqr_ccdeab4e_mesh03
v 0.47657 -0.731397 0.402587
v 0.718213 -0.731397 0.402587
v 0.718213 -0.482607 0.402587
v 0.47657 -0.482607 0.402587
vt 0.748086 0.751914
vt 0.998086 0.751914
vt 0.998086 1.001914
vt 0.748086 1.001914
vn 0.454803 -0.46212 0.761315
vn 0.454803 -0.46212 0.761315
vn 0.454803 -0.46212 0.761315
vn 0.454803 -0.46212 0.761315
usemtl datan_common_aqr_ccdeab4e
f 65/65/65 66/66/66 67/67/67
f 67/67/67 68/68/68 65/65/65
o datan_common_aqr_ccdeab4e_mesh04
v -0.340667 0.151226 0.402587
v -0.121156 0.151226 0.402587
v -0.121156 0.377229 0.402587
v -0.340667 0.377229 0.402587
vt 0.748086 0.751914
vt 0.998086 0.751914
vt 0.998086 1.001914
vt 0.748086 1.001914
vn -0.217886 0.249323 0.943591
vn -0.217886 0.249323 0.943591
vn -0.217886 0.249323 0.943591
vn -0.217886 0.249323 0.943591
usemtl datan_common_aqr_ccdeab4e
f 69/69/69 70/70/70 71/71/71
f 71/71/71 72/72/72 69/69/69
o datan_common_aqr_ccdeab4e_mesh05
v 0.110506 0.681678 0.402587
v 0.232185 0.681678 0.402587
v 0.232185 0.806956 0.402587
v 0.110506 0.806956 0.402587
vt 0.748086 0.751914
vt 0.998086 0.751914
vt 0.998086 1.001914
vt 0.748086 1.001914
vn 0.13617 0.591517 0.794711
vn 0.13617 0.591517 0.794711
vn 0.13617 0.591517 0.794711
vn 0.13617 0.591517 0.794711
usemtl datan_common_aqr_ccdeab4e
f 73/73/73 74/74/74 75/75/75
f 75/75/75 76/76/76 73/73/73
o datan_common_aqr_ccdeab4e_mesh06
v 0.494603 0.073221 0.402587
v 0.736247 0.073221 0.402587
v 0.736247 0.322012 0.402587
v 0.494603 0.322012 0.402587
vt 0.748086 0.751914
vt 0.998086 0.751914
vt 0.998086 1.001914
vt 0.748086 1.001914
vn 0.516854 0.165965 0.839832
vn 0.516854 0.165965 0.839832
vn 0.516854 0.165965 0.839832
vn 0.516854 0.165965 0.839832
usemtl datan_common_aqr_ccdeab4e
f 77/77/77 78/78/78 79/79/79
f 79/79/79 80/80/80 77/77/77
o datan_common_aqr_ccdeab4e_mesh07
v -0.314334 -0.690477 0.402587
v -0.121259 -0.690477 0.402587
v -0.121259 -0.491691 0.402587
v -0.314334 -0.491691 0.402587
vt 0.748086 0.751914
vt 0.998086 0.751914
vt 0.998086 1.001914
vt 0.748086 1.001914
vn -0.184282 -0.500126 0.846117
vn -0.184282 -0.500126 0.846117
vn -0.184282 -0.500126 0.846117
vn -0.184282 -0.500126 0.846117
usemtl datan_common_aqr_ccdeab4e
f 81/81/81 82/82/82 83/83/83
f 83/83/83 84/84/84 81/81/81
o datan_common_aqr_ccdeab4e_mesh08
v 0.713734 -0.731397 -0.403914
v 0.472091 -0.731397 -0.403914
v 0.472091 -0.482607 -0.403914
v 0.713734 -0.482607 -0.403914
vt 0.748086 0.751914
vt 0.998086 0.751914
vt 0.998086 1.001914
vt 0.748086 1.001914
vn 0.452092 -0.462835 -0.762493
vn 0.452092 -0.462835 -0.762493
vn 0.452092 -0.462835 -0.762493
vn 0.452092 -0.462835 -0.762493
usemtl datan_common_aqr_ccdeab4e
f 85/85/85 86/86/86 87/87/87
f 87/87/87 88/88/88 85/85/85
o datan_common_aqr_ccdeab4e_mesh09
v -0.126036 0.151226 -0.403914
v -0.345547 0.151226 -0.403914
v -0.345547 0.377229 -0.403914
v -0.126036 0.377229 -0.403914
vt 0.748086 0.751914
vt 0.998086 0.751914
vt 0.998086 1.001914
vt 0.748086 1.001914
vn -0.222266 0.24907 -0.942636
vn -0.222266 0.24907 -0.942636
vn -0.222266 0.24907 -0.942636
vn -0.222266 0.24907 -0.942636
usemtl datan_common_aqr_ccdeab4e
f 89/89/89 90/90/90 91/91/91
f 91/91/91 92/92/92 89/89/89
o datan_common_aqr_ccdeab4e_mesh10
v 0.227824 0.681678 -0.403914
v 0.106145 0.681678 -0.403914
v 0.106145 0.806956 -0.403914
v 0.227824 0.806956 -0.403914
vt 0.748086 0.751914
vt 0.998086 0.751914
vt 0.998086 1.001914
vt 0.748086 1.001914
vn 0.132767 0.591792 -0.795082
vn 0.132767 0.591792 -0.795082
vn 0.132767 0.591792 -0.795082
vn 0.132767 0.591792 -0.795082
usemtl datan_common_aqr_ccdeab4e
f 93/93/93 94/94/94 95/95/95
f 95/95/95 96/96/96 93/93/93
o datan_common_aqr_ccdeab4e_mesh11
v 0.727124 0.073221 -0.403914
v 0.485481 0.073221 -0.403914
v 0.485481 0.322012 -0.403914
v 0.727124 0.322012 -0.403914
vt 0.748086 0.751914
vt 0.998086 0.751914
vt 0.998086 1.001914
vt 0.748086 1.001914
vn 0.511206 0.166621 -0.843153
vn 0.511206 0.166621 -0.843153
vn 0.511206 0.166621 -0.843153
vn 0.511206 0.166621 -0.843153
usemtl datan_common_aqr_ccdeab4e
f 97/97/97 98/98/98 99/99/99
f 99/99/99 100/100/100 97/97/97
o datan_common_aqr_ccdeab4e_mesh12
v 0.268038 -0.26874 -0.403914
v 0.092594 -0.26874 -0.403914
v 0.092594 -0.088107 -0.403914
v 0.268038 -0.088107 -0.403914
vt 0.748086 0.751914
vt 0.998086 0.751914
vt 0.998086 1.001914
vt 0.748086 1.001914
vn 0.17478 -0.172946 -0.9693
vn 0.17478 -0.172946 -0.9693
vn 0.17478 -0.172946 -0.9693
vn 0.17478 -0.172946 -0.9693
usemtl datan_common_aqr_ccdeab4e
f 101/101/101 102/102/102 103/103/103
f 103/103/103 104/104/104 101/101/101
