# Generated from Nova1492 GX by tools/nova1492/GxObjConverter
mtllib datan_common_AcpUnique03_827bcc99.mtl
o datan_common_AcpUnique03_827bcc99_mesh00
v -0.133307 0.167479 -0.002049
v 0.133307 0.167479 -0.002049
v 0.133307 0.167479 -0.13053
v -0.133307 0.167479 -0.13053
v -0.18263 0 0.090338
v 0.18263 0 0.090338
v 0.133307 0.167479 -0.002049
v -0.133307 0.167479 -0.002049
v 0.133307 0.167479 -0.002049
v 0.18263 0 -0.110692
v 0.133307 0.167479 -0.13053
v 0.18263 0 0.090338
v 0.18263 0 -0.110692
v -0.18263 0 -0.110692
v -0.133307 0.167479 -0.13053
v 0.133307 0.167479 -0.13053
v -0.18263 0 -0.110692
v -0.18263 0 0.090338
v -0.133307 0.167479 -0.002049
v -0.133307 0.167479 -0.13053
v 0.133307 0.167479 -0.538918
v -0.133307 0.167479 -0.538918
v -0.133307 0.167479 -0.410437
v 0.133307 0.167479 -0.410437
v 0.18263 0 -0.631304
v -0.18263 0 -0.631304
v -0.133307 0.167479 -0.538918
v 0.133307 0.167479 -0.538918
v -0.133307 0.167479 -0.538918
v -0.18263 0 -0.430274
v -0.133307 0.167479 -0.410437
v -0.18263 0 -0.631304
v -0.18263 0 -0.430274
v 0.18263 0 -0.430274
v 0.133307 0.167479 -0.410437
v -0.133307 0.167479 -0.410437
v 0.18263 0 -0.430274
v 0.18263 0 -0.631304
v 0.133307 0.167479 -0.538918
v 0.133307 0.167479 -0.410437
v 0.24056 0.400746 -0.104195
v 0.392036 0.400746 -0.104195
v 0.392036 0.400746 -0.437098
v 0.24056 0.400746 -0.437098
v 0.242238 0 -0.039464
v 0.554296 0 -0.039464
v 0.392036 0.400746 -0.104195
v 0.24056 0.400746 -0.104195
v 0.392036 0.400746 -0.437098
v 0.242238 0 -0.501829
v 0.24056 0.400746 -0.437098
v 0.554296 0 -0.501829
v 0.554296 0 -0.039464
v 0.554296 0 -0.501829
v 0.392036 0.400746 -0.437098
v 0.392036 0.400746 -0.104195
v 0.242238 0 -0.501829
v 0.242238 0 -0.039464
v 0.24056 0.400746 -0.104195
v 0.24056 0.400746 -0.437098
v -0.24056 0.400746 -0.437098
v -0.392036 0.400746 -0.437098
v -0.392036 0.400746 -0.104195
v -0.24056 0.400746 -0.104195
v -0.242238 0 -0.501829
v -0.554296 0 -0.501829
v -0.392036 0.400746 -0.437098
v -0.24056 0.400746 -0.437098
v -0.392036 0.400746 -0.104195
v -0.242238 0 -0.039464
v -0.24056 0.400746 -0.104195
v -0.554296 0 -0.039464
v -0.554296 0 -0.501829
v -0.554296 0 -0.039464
v -0.392036 0.400746 -0.104195
v -0.392036 0.400746 -0.437098
v -0.242238 0 -0.039464
v -0.242238 0 -0.501829
v -0.24056 0.400746 -0.437098
v -0.24056 0.400746 -0.104195
vt 0.988118 0.976234
vt 0.511883 0.976235
vt 0.511883 0.023766
vt 0.988117 0.023765
vt 0.511883 0.023765
vt 0.988117 0.023765
vt 0.988359 0.976235
vt 0.511641 0.976235
vt 0.511641 0.976235
vt 0.988359 0.023765
vt 0.988117 0.976235
vt 0.511883 0.023765
vt 0.511883 0.023765
vt 0.988117 0.023765
vt 0.988359 0.976235
vt 0.511641 0.976235
vt 0.511641 0.023765
vt 0.988117 0.023765
vt 0.988359 0.976235
vt 0.511883 0.976235
vt 0.511641 0.023281
vt 0.988359 0.023281
vt 0.988359 0.976235
vt 0.511641 0.976235
vt 0.511883 0.023765
vt 0.988117 0.023765
vt 0.988359 0.976235
vt 0.511641 0.976235
vt 0.511641 0.976235
vt 0.988359 0.023765
vt 0.988117 0.976235
vt 0.511883 0.023765
vt 0.511883 0.023765
vt 0.988117 0.023765
vt 0.988359 0.976235
vt 0.511641 0.976235
vt 0.511641 0.023765
vt 0.988117 0.023765
vt 0.988359 0.976235
vt 0.511883 0.976235
vt 0.988118 0.976235
vt 0.511883 0.976235
vt 0.511883 0.023765
vt 0.988117 0.023765
vt 0.51447 0.023765
vt 0.988117 0.023765
vt 0.988359 0.976235
vt 0.511883 0.976235
vt 0.511641 0.976235
vt 0.98553 0.023765
vt 0.988117 0.976235
vt 0.511883 0.023765
vt 0.011883 0.023765
vt 0.488117 0.023765
vt 0.420373 0.976235
vt 0.079627 0.976235
vt 0.011883 0.023765
vt 0.488117 0.023765
vt 0.420373 0.976235
vt 0.079627 0.976235
vt 0.511883 0.023281
vt 0.988359 0.023281
vt 0.988359 0.976719
vt 0.511883 0.976719
vt 0.51447 0.023765
vt 0.988117 0.023765
vt 0.988359 0.976235
vt 0.511883 0.976235
vt 0.511641 0.976235
vt 0.98553 0.023765
vt 0.988117 0.976235
vt 0.511883 0.023765
vt 0.011883 0.023765
vt 0.488117 0.023765
vt 0.420373 0.976235
vt 0.079627 0.976235
vt 0.011883 0.023765
vt 0.488117 0.023765
vt 0.420373 0.976235
vt 0.079627 0.976235
vn 0 1 0
vn 0 1 0
vn 0 1 0
vn 0 1 0
vn 0 0.483013 0.875613
vn 0 0.483013 0.875613
vn 0 0.483013 0.875613
vn 0 0.483013 0.875613
vn 0.959265 0.282509 0
vn 0.959265 0.282509 0
vn 0.959265 0.282509 0
vn 0.959265 0.282509 0
vn 0 -0.117627 -0.993058
vn 0 -0.117627 -0.993058
vn 0 -0.117627 -0.993058
vn 0 -0.117627 -0.993058
vn -0.959265 0.282509 0
vn -0.959265 0.282509 0
vn -0.959265 0.282509 0
vn -0.959265 0.282509 0
vn 0 1 0
vn 0 1 0
vn 0 1 0
vn 0 1 0
vn -0 0.483013 -0.875613
vn 0 0.483014 -0.875613
vn -0 0.483013 -0.875613
vn -0 0.483013 -0.875613
vn -0.959265 0.282509 0
vn -0.959265 0.282509 0
vn -0.959265 0.282509 0
vn -0.959265 0.282509 0
vn 0 -0.117627 0.993058
vn 0 -0.117627 0.993058
vn 0 -0.117627 0.993058
vn 0 -0.117627 0.993058
vn 0.959265 0.282509 -0
vn 0.959265 0.282509 -0
vn 0.959265 0.282509 -0
vn 0.959265 0.282509 -0
vn 0 1 0
vn 0 1 0
vn 0 1 0
vn 0 1 0
vn 0 0.15946 0.987204
vn 0 0.15946 0.987204
vn 0 0.15946 0.987204
vn 0 0.15946 0.987204
vn 0 0.15946 -0.987204
vn 0 0.15946 -0.987204
vn 0 0.15946 -0.987204
vn 0 0.15946 -0.987204
vn 0.926904 0.375298 0
vn 0.926904 0.375298 0
vn 0.926904 0.375298 0
vn 0.926904 0.375298 0
vn -0.999991 -0.004187 0
vn -0.999991 -0.004187 0
vn -0.999991 -0.004187 0
vn -0.999991 -0.004187 0
vn 0 1 0
vn 0 1 0
vn 0 1 0
vn 0 1 0
vn -0 0.15946 -0.987204
vn -0 0.15946 -0.987204
vn -0 0.15946 -0.987204
vn 0 0.15946 -0.987204
vn 0 0.15946 0.987204
vn 0 0.15946 0.987204
vn 0 0.15946 0.987204
vn 0 0.15946 0.987204
vn -0.926904 0.375298 0
vn -0.926904 0.375298 0
vn -0.926904 0.375298 0
vn -0.926904 0.375298 0
vn 0.999991 -0.004187 -0
vn 0.999991 -0.004187 -0
vn 0.999991 -0.004187 -0
vn 0.999991 -0.004187 -0
usemtl datan_common_AcpUnique03_827bcc99
f 1/1/1 2/2/2 3/3/3
f 3/3/3 4/4/4 1/1/1
f 5/5/5 6/6/6 7/7/7
f 7/7/7 8/8/8 5/5/5
f 9/9/9 10/10/10 11/11/11
f 10/10/10 9/9/9 12/12/12
f 13/13/13 14/14/14 15/15/15
f 15/15/15 16/16/16 13/13/13
f 17/17/17 18/18/18 19/19/19
f 19/19/19 20/20/20 17/17/17
f 21/21/21 22/22/22 23/23/23
f 23/23/23 24/24/24 21/21/21
f 25/25/25 26/26/26 27/27/27
f 27/27/27 28/28/28 25/25/25
f 29/29/29 30/30/30 31/31/31
f 30/30/30 29/29/29 32/32/32
f 33/33/33 34/34/34 35/35/35
f 35/35/35 36/36/36 33/33/33
f 37/37/37 38/38/38 39/39/39
f 39/39/39 40/40/40 37/37/37
f 41/41/41 42/42/42 43/43/43
f 43/43/43 44/44/44 41/41/41
f 45/45/45 46/46/46 47/47/47
f 47/47/47 48/48/48 45/45/45
f 49/49/49 50/50/50 51/51/51
f 50/50/50 49/49/49 52/52/52
f 53/53/53 54/54/54 55/55/55
f 55/55/55 56/56/56 53/53/53
f 57/57/57 58/58/58 59/59/59
f 59/59/59 60/60/60 57/57/57
f 61/61/61 62/62/62 63/63/63
f 63/63/63 64/64/64 61/61/61
f 65/65/65 66/66/66 67/67/67
f 67/67/67 68/68/68 65/65/65
f 69/69/69 70/70/70 71/71/71
f 70/70/70 69/69/69 72/72/72
f 73/73/73 74/74/74 75/75/75
f 75/75/75 76/76/76 73/73/73
f 77/77/77 78/78/78 79/79/79
f 79/79/79 80/80/80 77/77/77
o datan_common_AcpUnique03_827bcc99_mesh01
v -0.239373 0.119953 -0.482741
v -0.241051 0.400746 -0.437098
v 0.24056 0.400746 -0.437098
v 0.242238 0.119953 -0.482741
v -0.239373 0.119953 -0.058552
v 0.242238 0.119953 -0.058552
v -0.241051 0.400746 -0.104195
v -0.239373 0.119953 -0.058552
v 0.24056 0.400746 -0.104195
v -0.241051 0.400746 -0.437098
v -0.241051 0.400746 -0.104195
v 0.24056 0.400746 -0.437098
v 0.24056 0.400746 -0.104195
vt 0.744121 0.743219
vt 0.630879 0.744059
vt 0.630879 0.506781
vt 0.744121 0.505941
vt 0.630879 0.743219
vt 0.630879 0.505941
vt 0.744121 0.744059
vt 0.630879 0.743219
vt 0.744121 0.506781
vt 0.727731 0.744059
vt 0.647269 0.744059
vt 0.727731 0.506781
vt 0.647269 0.506781
vn 0 0.761723 -0.647903
vn 0 0.160444 -0.987045
vn 0 0.160444 -0.987045
vn 0 0.761723 -0.647903
vn 0 1 0
vn -0 0.909568 0.415556
vn -0 0.160444 0.987045
vn -0 0.160444 0.987045
vn -0 0.160444 0.987045
vn 0 1 0
vn 0 1 0
vn 0 1 0
vn 0 1 0
usemtl datan_common_AcpUnique03_827bcc99
f 81/81/81 82/82/82 83/83/83
f 83/83/83 84/84/84 81/81/81
f 81/81/81 85/85/85 86/86/86
f 86/86/86 84/84/84 81/81/81
f 87/87/87 88/88/88 89/89/89
f 86/86/86 89/89/89 88/88/88
f 90/90/90 91/91/91 92/92/92
f 93/93/93 92/92/92 91/91/91
o datan_common_AcpUnique03_827bcc99_mesh02
v -0.248786 0 -0.116209
v -0.248786 0 0.116209
v 0.248786 0 -0.116209
v 0.248786 0 0.116209
v -0.248786 0.116209 0
v -0.248786 -0.116209 -0
v 0.248786 0.116209 0
v 0.248786 -0.116209 -0
v -0.248786 -0.116209 -0
v -0.248786 0.116209 0
v 0.248786 -0.116209 -0
v 0.248786 0.116209 0
vt 0.25582 0.74418
vt 0.25582 0.50582
vt 0.36918 0.74418
vt 0.36918 0.50582
vt 0.25582 0.74418
vt 0.25582 0.50582
vt 0.36918 0.74418
vt 0.36918 0.50582
vt 0.25582 0.74418
vt 0.25582 0.50582
vt 0.36918 0.74418
vt 0.36918 0.50582
vn 0 1 0
vn 0 1 0
vn 0 1 0
vn 0 1 0
vn 0 -0 1
vn 0 -0 1
vn 0 -0 1
vn 0 -0 1
vn 0 0 -1
vn 0 0 -1
vn 0 0 -1
vn 0 0 -1
usemtl datan_common_AcpUnique03_827bcc99
f 94/94/94 95/95/95 96/96/96
f 97/97/97 96/96/96 95/95/95
f 98/98/98 99/99/99 100/100/100
f 101/101/101 100/100/100 99/99/99
f 102/102/102 103/103/103 104/104/104
f 105/105/105 104/104/104 103/103/103
