# Generated from Nova1492 GX by tools/nova1492/GxObjConverter
mtllib datan_common_acpSP_7a8f72c0.mtl
o datan_common_acpSP_7a8f72c0
v 0.26087 0 -0
v 0.107797 0.135251 -0.18671
v 0.215595 0.188181 0
v 0.130435 0 -0.22592
v -0.107797 0.135251 -0.18671
v -0.130435 0 -0.22592
v -0.215595 0.188181 0
v -0.26087 0 0
v -0.107797 0.135251 0.18671
v -0.130435 0 0.22592
v 0.107797 0.135251 0.18671
v 0.130435 0 0.22592
v 0 0.19268 0
v 0.142714 0.164513 0
v 0.071357 0.130049 -0.123594
v -0.071357 0.130049 -0.123594
v -0.142714 0.164513 0
v -0.071357 0.130049 0.123594
v 0.071357 0.130049 0.123594
v 0.119034 0.091239 -0.158964
v 0.202957 0.100468 -0.013606
v 0.249259 0.061052 -0.209293
v 0.305375 0.065592 -0.112098
v 0.263484 0.00694 -0.217506
v 0.119034 0.037391 -0.158964
v 0.119034 0.091239 -0.158964
v 0.319599 0.00694 -0.12031
v 0.263484 0.00694 -0.217506
v 0.305375 0.065592 -0.112098
v 0.249259 0.061052 -0.209293
v 0.202957 0.037391 -0.013606
v 0.202957 0.100468 -0.013606
v 0.319599 0.00694 -0.12031
v -0.202957 0.100468 -0.013606
v -0.119034 0.091239 -0.158964
v -0.249259 0.061052 -0.209293
v -0.305375 0.065592 -0.112098
v -0.119034 0.037391 -0.158964
v -0.263484 0.00694 -0.217506
v -0.119034 0.091239 -0.158964
v -0.263484 0.00694 -0.217506
v -0.319599 0.00694 -0.12031
v -0.305375 0.065592 -0.112098
v -0.249259 0.061052 -0.209293
v -0.202957 0.037391 -0.013606
v -0.202957 0.100468 -0.013606
v -0.319599 0.00694 -0.12031
vt 0.988117 0.507656
vt 0.853806 0.892254
vt 0.946127 0.507656
vt 0.874801 0.976235
vt 0.653851 0.907566
vt 0.632855 0.976235
vt 0.553873 0.507656
vt 0.511883 0.507656
vt 0.653851 0.107746
vt 0.632855 0.023765
vt 0.846149 0.092434
vt 0.867145 0.023765
vt 0.753828 0.507656
vt 0.878533 0.507656
vt 0.816181 0.757066
vt 0.687648 0.757066
vt 0.621467 0.507656
vt 0.687648 0.242934
vt 0.820009 0.242934
vt 0.488359 0.023281
vt 0.011641 0.023281
vt 0.488359 0.976719
vt 0.011641 0.976719
vt 0.488359 0.023281
vt 0.011641 0.023281
vt 0.011641 0.976719
vt 0.488359 0.023281
vt 0.011641 0.023281
vt 0.488359 0.976719
vt 0.011641 0.976719
vt 0.488359 0.023281
vt 0.488359 0.976719
vt 0.011641 0.023281
vt 0.011641 0.023281
vt 0.488359 0.023281
vt 0.488359 0.976719
vt 0.011641 0.976719
vt 0.011641 0.023281
vt 0.488359 0.023281
vt 0.011641 0.976719
vt 0.011641 0.023281
vt 0.488359 0.023281
vt 0.488359 0.976719
vt 0.011641 0.976719
vt 0.488359 0.023281
vt 0.488359 0.976719
vt 0.011641 0.023281
vn 0.945982 0.257193 -0.197409
vn 0.309726 0.845368 -0.435227
vn 0.398718 0.911093 0.104559
vn 0.310958 0.312277 -0.897657
vn -0.041125 0.824283 -0.564683
vn -0.609366 0.286632 -0.739267
vn -0.398718 0.911093 -0.104559
vn -0.945982 0.257193 0.197409
vn -0.309726 0.845368 0.435227
vn -0.310957 0.312277 0.897657
vn 0.041125 0.824283 0.564683
vn 0.609366 0.286632 0.739267
vn 0 1 0
vn -0.117054 0.992909 0.020746
vn -0.088979 0.977821 -0.1896
vn 0.024242 0.987774 -0.153996
vn 0.117054 0.992909 -0.020746
vn 0.088979 0.977821 0.1896
vn -0.024242 0.987774 0.153996
vn 0.361345 0.895637 -0.259352
vn 0.369755 0.893003 -0.256567
vn 0.092027 0.613724 -0.784139
vn 0.820685 0.408371 0.399635
vn -0.13093 0.041814 -0.990509
vn -0.127773 0.020894 -0.991583
vn -0.124448 0 -0.992226
vn 0.847996 0.215378 -0.484267
vn 0.844018 0.223801 -0.487387
vn 0.844018 0.223801 -0.487387
vn 0.839956 0.232205 -0.490464
vn 0.836228 0.029048 0.547613
vn 0.839584 0 0.54323
vn 0.83225 0.058148 0.551343
vn -0.369755 0.893003 -0.256567
vn -0.361345 0.895637 -0.259352
vn -0.092027 0.613724 -0.784139
vn -0.820685 0.408371 0.399635
vn 0.127773 0.020894 -0.991583
vn 0.13093 0.041814 -0.990509
vn 0.124448 0 -0.992226
vn -0.844018 0.223801 -0.487387
vn -0.847996 0.215378 -0.484267
vn -0.844018 0.223801 -0.487387
vn -0.839956 0.232205 -0.490464
vn -0.836227 0.029048 0.547613
vn -0.839584 -0 0.54323
vn -0.83225 0.058148 0.551343
usemtl datan_common_acpSP_7a8f72c0
f 1/1/1 2/2/2 3/3/3
f 1/1/1 4/4/4 2/2/2
f 4/4/4 5/5/5 2/2/2
f 4/4/4 6/6/6 5/5/5
f 6/6/6 7/7/7 5/5/5
f 6/6/6 8/8/8 7/7/7
f 8/8/8 9/9/9 7/7/7
f 8/8/8 10/10/10 9/9/9
f 10/10/10 11/11/11 9/9/9
f 10/10/10 12/12/12 11/11/11
f 12/12/12 3/3/3 11/11/11
f 12/12/12 1/1/1 3/3/3
f 13/13/13 14/14/14 15/15/15
f 13/13/13 15/15/15 16/16/16
f 13/13/13 16/16/16 17/17/17
f 13/13/13 17/17/17 18/18/18
f 13/13/13 18/18/18 19/19/19
f 13/13/13 19/19/19 14/14/14
f 3/3/3 2/2/2 15/15/15
f 15/15/15 14/14/14 3/3/3
f 2/2/2 5/5/5 16/16/16
f 16/16/16 15/15/15 2/2/2
f 5/5/5 7/7/7 17/17/17
f 17/17/17 16/16/16 5/5/5
f 7/7/7 9/9/9 18/18/18
f 18/18/18 17/17/17 7/7/7
f 9/9/9 11/11/11 19/19/19
f 19/19/19 18/18/18 9/9/9
f 11/11/11 3/3/3 14/14/14
f 14/14/14 19/19/19 11/11/11
f 20/20/20 21/21/21 22/22/22
f 23/23/23 22/22/22 21/21/21
f 24/24/24 25/25/25 22/22/22
f 26/26/26 22/22/22 25/25/25
f 27/27/27 28/28/28 29/29/29
f 30/30/30 29/29/29 28/28/28
f 31/31/31 23/23/23 32/32/32
f 23/23/23 31/31/31 33/33/33
f 34/34/34 35/35/35 36/36/36
f 36/36/36 37/37/37 34/34/34
f 38/38/38 39/39/39 36/36/36
f 36/36/36 40/40/40 38/38/38
f 41/41/41 42/42/42 43/43/43
f 43/43/43 44/44/44 41/41/41
f 37/37/37 45/45/45 46/46/46
f 45/45/45 37/37/37 47/47/47
