# Generated from Nova1492 GX by tools/nova1492/GxObjConverter
mtllib datan_common_ari_6599503d.mtl
o datan_common_ari_6599503d
v -0.083663 0.667594 -0.394714
v -0.203214 0.798807 -0.394714
v -0.203214 0.798807 0.394714
v -0.083663 0.667594 0.394714
v -0.341772 0.873069 -0.394714
v -0.341772 0.873069 0.394714
v -0.482453 0.900871 -0.394714
v -0.482453 0.900871 0.394714
v -0.608377 0.892703 -0.394714
v -0.608377 0.892703 0.394714
v -0.702661 0.859054 -0.394714
v -0.702661 0.859054 0.394714
v -0.823192 0.764737 -0.394714
v -0.823192 0.764737 0.394714
v -0.915603 0.65345 -0.394714
v -0.915603 0.65345 0.394714
v -0.982225 0.5294 -0.394714
v -0.982225 0.5294 0.394714
v -1.025389 0.396793 -0.394714
v -1.025389 0.396793 0.394714
v -1.047428 0.259836 -0.394714
v -1.047428 0.259836 0.394714
v -1.050673 0.122737 -0.394714
v -1.050673 0.122737 0.394714
v -1.030569 0.003352 -0.394714
v -1.030569 0.003352 0.394714
v -0.988072 -0.112797 -0.394714
v -0.988072 -0.112797 0.394714
v -0.927888 -0.222377 -0.394714
v -0.927888 -0.222377 0.394714
v -0.854721 -0.322053 -0.394714
v -0.854721 -0.322053 0.394714
v -0.773279 -0.408492 -0.394714
v -0.773279 -0.408493 0.394714
v -0.688266 -0.478362 -0.394714
v -0.688266 -0.478362 0.394714
v -0.366694 -0.151776 -0.394714
v -0.366694 -0.151776 0.394714
v -0.480341 -0.109413 -0.394714
v -0.480341 -0.109413 0.394714
v -0.565171 -0.049814 -0.394714
v -0.565171 -0.049814 0.394714
v -0.624262 0.019831 -0.394714
v -0.624262 0.019831 0.394714
v -0.660687 0.092328 -0.394714
v -0.660687 0.092328 0.394714
v -0.677524 0.160488 -0.394714
v -0.677524 0.160488 0.394714
v -0.677847 0.217117 -0.394714
v -0.677847 0.217117 0.394714
v -0.656742 0.307773 -0.394714
v -0.656742 0.307773 0.394714
v -0.620076 0.375828 -0.394714
v -0.620076 0.375828 0.394714
v -0.573686 0.423861 -0.394714
v -0.573686 0.423861 0.394714
v -0.523409 0.454451 -0.394714
v -0.523409 0.454451 0.394714
v -0.475079 0.47018 -0.394714
v -0.475079 0.47018 0.394714
v -0.434533 0.473627 -0.394714
v -0.434533 0.473627 0.394714
v -0.372037 0.463386 -0.394714
v -0.372037 0.463386 0.394714
v -0.322519 0.437434 -0.394714
v -0.322519 0.437434 0.394714
v -0.284053 0.400791 -0.394714
v -0.284053 0.400791 0.394714
v -0.254711 0.358478 -0.394714
v -0.254711 0.358478 0.394714
v -0.232567 0.315518 -0.394714
v -0.232567 0.315518 0.394714
v -0.215694 0.276931 -0.394714
v -0.215694 0.276931 0.394714
v -0.187898 0.101731 -0.394714
v -0.187898 0.101731 0.394714
v -0.207473 -0.099857 -0.394714
v -0.207473 -0.099857 0.394714
v -0.266948 -0.314373 -0.394714
v -0.266948 -0.314373 0.394714
v -0.358851 -0.528355 -0.394714
v -0.358851 -0.528355 0.394714
v -0.475709 -0.728342 -0.394714
v -0.475709 -0.728342 0.394714
v -0.610052 -0.900871 -0.394714
v -0.610052 -0.900871 0.394714
v 0.610052 -0.900871 -0.394714
v 0.610052 -0.900871 0.394714
v 0.610052 -0.900871 -0.394714
v 0.475709 -0.728342 -0.394714
v 0.475709 -0.728342 0.394714
v 0.610052 -0.900871 0.394714
v 0.358851 -0.528355 -0.394714
v 0.358851 -0.528355 0.394714
v 0.266948 -0.314373 -0.394714
v 0.266948 -0.314373 0.394714
v 0.207473 -0.099857 -0.394714
v 0.207473 -0.099858 0.394714
v 0.187898 0.101731 -0.394714
v 0.187898 0.101731 0.394714
v 0.215694 0.276931 -0.394714
v 0.215694 0.276931 0.394714
v 0.232567 0.315518 -0.394714
v 0.232567 0.315518 0.394714
v 0.254711 0.358478 -0.394714
v 0.254711 0.358478 0.394714
v 0.284053 0.400791 -0.394714
v 0.284053 0.400791 0.394714
v 0.322519 0.437434 -0.394714
v 0.322519 0.437434 0.394714
v 0.372037 0.463386 -0.394714
v 0.372037 0.463386 0.394714
v 0.434533 0.473627 -0.394714
v 0.434533 0.473627 0.394714
v 0.475079 0.470181 -0.394714
v 0.475079 0.470181 0.394714
v 0.523409 0.454452 -0.394714
v 0.523409 0.454452 0.394714
v 0.573686 0.423861 -0.394714
v 0.573686 0.423861 0.394714
v 0.620076 0.375828 -0.394714
v 0.620076 0.375827 0.394714
v 0.656742 0.307773 -0.394714
v 0.656742 0.307773 0.394714
v 0.677847 0.217117 -0.394714
v 0.677847 0.217117 0.394714
v 0.677524 0.160488 -0.394714
v 0.677524 0.160488 0.394714
v 0.660687 0.092328 -0.394714
v 0.660687 0.092328 0.394714
v 0.624262 0.019831 -0.394714
v 0.624262 0.019831 0.394714
v 0.565171 -0.049814 -0.394714
v 0.565171 -0.049814 0.394714
v 0.480341 -0.109413 -0.394714
v 0.480341 -0.109413 0.394714
v 0.366694 -0.151776 -0.394714
v 0.366694 -0.151776 0.394714
v 0.688266 -0.478362 -0.394714
v 0.688266 -0.478362 0.394714
v 0.773279 -0.408493 -0.394714
v 0.773279 -0.408493 0.394714
v 0.854721 -0.322053 -0.394714
v 0.854721 -0.322053 0.394714
v 0.927888 -0.222377 -0.394714
v 0.927888 -0.222377 0.394714
v 0.988072 -0.112797 -0.394714
v 0.988072 -0.112797 0.394714
v 1.030569 0.003352 -0.394714
v 1.030569 0.003352 0.394714
v 1.050673 0.122737 -0.394714
v 1.050673 0.122737 0.394714
v 1.047428 0.259836 -0.394714
v 1.047428 0.259836 0.394714
v 1.025389 0.396793 -0.394714
v 1.025389 0.396793 0.394714
v 0.982225 0.5294 -0.394714
v 0.982225 0.5294 0.394714
v 0.915603 0.65345 -0.394714
v 0.915603 0.65345 0.394714
v 0.823193 0.764737 -0.394714
v 0.823193 0.764737 0.394714
v 0.702662 0.859054 -0.394714
v 0.702662 0.859054 0.394714
v 0.608377 0.892703 -0.394714
v 0.608377 0.892703 0.394714
v 0.482453 0.900871 -0.394714
v 0.482453 0.900871 0.394714
v 0.341772 0.873069 -0.394714
v 0.341772 0.873069 0.394714
v 0.203214 0.798807 -0.394714
v 0.203214 0.798807 0.394714
v 0.083663 0.667594 -0.394714
v 0.083663 0.667594 0.394714
v 0 0.468941 -0.394714
v 0 0.468941 0.394714
vt 0.480158 0.9995
vt 0.460353 0.9995
vt 0.460353 0.0005
vt 0.480158 0.0005
vt 0.440616 0.9995
vt 0.440616 0.0005
vt 0.421748 0.9995
vt 0.421748 0.0005
vt 0.404793 0.9995
vt 0.404793 0.0005
vt 0.390885 0.9995
vt 0.390885 0.0005
vt 0.369144 0.9995
vt 0.369144 0.0005
vt 0.348652 0.9995
vt 0.348652 0.0005
vt 0.328677 0.999501
vt 0.328677 0.0005
vt 0.308763 0.999501
vt 0.308763 0.0005
vt 0.2887 0.999501
vt 0.2887 0.0005
vt 0.268508 0.999501
vt 0.268508 0.0005
vt 0.250518 0.999501
vt 0.250518 0.0005
vt 0.231909 0.999501
vt 0.231909 0.0005
vt 0.212563 0.999501
vt 0.212563 0.0005
vt 0.19265 0.999501
vt 0.19265 0.0005
vt 0.172651 0.999501
vt 0.172651 0.0005
vt 0.153333 0.9995
vt 0.153333 0.0005
vt 0.187542 0.9995
vt 0.187542 0.0005
vt 0.214356 0.9995
vt 0.214356 0.0005
vt 0.236008 0.9995
vt 0.236008 0.0005
vt 0.255054 0.9995
vt 0.255054 0.0005
vt 0.272098 0.9995
vt 0.272098 0.0005
vt 0.287017 0.9995
vt 0.287017 0.0005
vt 0.299335 0.9995
vt 0.299335 0.0005
vt 0.319749 0.9995
vt 0.319749 0.0005
vt 0.336722 0.9995
vt 0.336722 0.0005
vt 0.351273 0.9995
vt 0.351273 0.0005
vt 0.363795 0.9995
vt 0.363795 0.0005
vt 0.374175 0.9995
vt 0.374175 0.0005
vt 0.381847 0.9995
vt 0.381847 0.0005
vt 0.392334 0.9995
vt 0.392334 0.0005
vt 0.398885 0.9995
vt 0.398885 0.0005
vt 0.401871 0.9995
vt 0.401871 0.0005
vt 0.401681 0.9995
vt 0.40168 0.0005
vt 0.398906 0.9995
vt 0.398906 0.0005
vt 0.394683 0.9995
vt 0.394683 0.0005
vt 0.328978 0.9995
vt 0.328977 0.0005
vt 0.178607 0.9995
vt 0.178607 0.0005
vt 0.112045 0.9995
vt 0.112045 0.0005
vt 0.094955 0.9995
vt 0.094955 0.0005
vt 0.092084 0.9995
vt 0.092084 0.0005
vt 0.094736 0.999501
vt 0.094736 0.0005
vt -0.094736 0.9995
vt -0.094736 0.0005
vt 0.905264 0.9995
vt 0.907916 0.9995
vt 0.907916 0.0005
vt 0.905264 0.0005
vt 0.905045 0.9995
vt 0.905045 0.0005
vt 0.887955 0.9995
vt 0.887956 0.0005
vt 0.821394 0.9995
vt 0.821394 0.0005
vt 0.671023 0.9995
vt 0.671023 0.0005
vt 0.605317 0.9995
vt 0.605317 0.0005
vt 0.601094 0.9995
vt 0.601094 0.0005
vt 0.59832 0.9995
vt 0.59832 0.0005
vt 0.598129 0.9995
vt 0.598129 0.0005
vt 0.601115 0.9995
vt 0.601115 0.0005
vt 0.607666 0.9995
vt 0.607666 0.0005
vt 0.618153 0.9995
vt 0.618153 0.0005
vt 0.625825 0.9995
vt 0.625825 0.0005
vt 0.636205 0.9995
vt 0.636205 0.0005
vt 0.648727 0.9995
vt 0.648727 0.0005
vt 0.663278 0.9995
vt 0.663278 0.0005
vt 0.680251 0.9995
vt 0.680251 0.0005
vt 0.700665 0.9995
vt 0.700665 0.0005
vt 0.712983 0.9995
vt 0.712983 0.0005
vt 0.727902 0.9995
vt 0.727902 0.0005
vt 0.744946 0.9995
vt 0.744946 0.0005
vt 0.763992 0.9995
vt 0.763992 0.0005
vt 0.785645 0.9995
vt 0.785645 0.0005
vt 0.812458 0.9995
vt 0.812458 0.0005
vt 0.846667 0.9995
vt 0.846667 0.0005
vt 0.827349 0.9995
vt 0.827349 0.0005
vt 0.80735 0.9995
vt 0.80735 0.0005
vt 0.787437 0.9995
vt 0.787437 0.0005
vt 0.768091 0.9995
vt 0.768091 0.0005
vt 0.749482 0.9995
vt 0.749482 0.000499
vt 0.731492 0.9995
vt 0.731492 0.000499
vt 0.7113 0.9995
vt 0.7113 0.000499
vt 0.691237 0.9995
vt 0.691237 0.000499
vt 0.671323 0.9995
vt 0.671323 0.000499
vt 0.651348 0.9995
vt 0.651348 0.000499
vt 0.630856 0.9995
vt 0.630856 0.000499
vt 0.609115 0.9995
vt 0.609115 0.000499
vt 0.595207 0.9995
vt 0.595207 0.0005
vt 0.578252 0.9995
vt 0.578252 0.0005
vt 0.559384 0.9995
vt 0.559384 0.0005
vt 0.539648 0.9995
vt 0.539648 0.0005
vt 0.519842 0.9995
vt 0.519842 0.0005
vt 0.5 0.9995
vt 0.5 0.0005
vn 0.921603 0.388135 0
vn 0.472395 0.881387 0
vn 0.472395 0.881387 0
vn 0.921603 0.388135 0
vn 0.193873 0.981027 0
vn 0.193873 0.981027 0
vn -0.064731 0.997903 0
vn -0.064731 0.997903 0
vn -0.336124 0.941818 0
vn -0.336124 0.941818 0
vn -0.61626 0.787543 0
vn -0.61626 0.787543 0
vn -0.769337 0.638843 0
vn -0.769337 0.638843 0
vn -0.880989 0.473137 0
vn -0.880989 0.473137 0
vn -0.950892 0.309522 0
vn -0.950892 0.309522 0
vn -0.987299 0.158874 0
vn -0.987299 0.158874 0
vn -0.99972 0.023661 0
vn -0.99972 0.023661 0
vn -0.986117 -0.166054 -0
vn -0.986117 -0.166054 -0
vn -0.939114 -0.343606 -0
vn -0.939114 -0.343606 -0
vn -0.876499 -0.481404 -0
vn -0.876499 -0.481404 -0
vn -0.806133 -0.591735 -0
vn -0.806133 -0.591735 -0
vn -0.727832 -0.685755 -0
vn -0.727832 -0.685755 -0
vn -0.634944 -0.772558 -0
vn -0.634944 -0.772558 -0
vn 0.712555 -0.701616 0
vn 0.712555 -0.701616 0
vn 0.349284 0.937017 0
vn 0.349284 0.937017 0
vn 0.574873 0.818243 0
vn 0.574873 0.818243 0
vn 0.762519 0.646966 0
vn 0.762519 0.646966 0
vn 0.893554 0.448956 0
vn 0.893554 0.448956 0
vn 0.97082 0.23981 0
vn 0.97082 0.23981 0
vn 0.999984 0.005708 0
vn 0.999984 0.005708 0
vn 0.973955 -0.226743 -0
vn 0.973955 -0.226743 -0
vn 0.880359 -0.474309 0
vn 0.880359 -0.474309 0
vn 0.719304 -0.694695 -0
vn 0.719304 -0.694695 -0
vn 0.519786 -0.854296 -0
vn 0.519786 -0.854296 -0
vn 0.309472 -0.950909 0
vn 0.309472 -0.950909 0
vn 0.084697 -0.996407 -0
vn 0.084697 -0.996407 -0
vn -0.161707 -0.986839 -0
vn -0.161707 -0.986839 -0
vn -0.464211 -0.885725 -0
vn -0.464211 -0.885725 -0
vn -0.689735 -0.724062 -0
vn -0.689735 -0.724062 -0
vn -0.821748 -0.569851 -0
vn -0.821748 -0.569851 -0
vn -0.888865 -0.458169 -0
vn -0.888865 -0.458169 -0
vn -0.916239 -0.400632 -0
vn -0.916239 -0.400632 -0
vn -0.987647 -0.156696 -0
vn -0.987647 -0.156696 -0
vn -0.995318 0.09665 0
vn -0.995318 0.09665 0
vn -0.963648 0.267174 0
vn -0.963648 0.267174 0
vn -0.91884 0.394632 0
vn -0.91884 0.394632 0
vn -0.863403 0.504515 0
vn -0.863403 0.504515 0
vn -0.789013 0.614377 0
vn -0.789013 0.614377 0
vn 0 -1 0
vn 0 -1 0
vn 0 -1 0
vn 0 -1 0
vn 0.789013 0.614377 0
vn 0.863403 0.504515 0
vn 0.863403 0.504515 0
vn 0.789013 0.614377 0
vn 0.91884 0.394631 0
vn 0.91884 0.394631 0
vn 0.963648 0.267174 0
vn 0.963648 0.267174 0
vn 0.995318 0.09665 0
vn 0.995318 0.09665 0
vn 0.987647 -0.156696 -0
vn 0.987647 -0.156696 -0
vn 0.916239 -0.400632 -0
vn 0.916239 -0.400632 -0
vn 0.888866 -0.458167 -0
vn 0.888866 -0.458167 -0
vn 0.821747 -0.569852 -0
vn 0.821747 -0.569852 -0
vn 0.689734 -0.724063 -0
vn 0.689734 -0.724063 -0
vn 0.46421 -0.885725 -0
vn 0.46421 -0.885725 -0
vn 0.161708 -0.986839 -0
vn 0.161708 -0.986839 -0
vn -0.084693 -0.996407 -0
vn -0.084693 -0.996407 -0
vn -0.309472 -0.950909 0
vn -0.309472 -0.950909 0
vn -0.519788 -0.854295 -0
vn -0.519788 -0.854295 -0
vn -0.719305 -0.694694 -0
vn -0.719305 -0.694694 -0
vn -0.880359 -0.474309 -0
vn -0.880359 -0.474309 -0
vn -0.973954 -0.226745 -0
vn -0.973954 -0.226745 -0
vn -0.999984 0.005709 0
vn -0.999984 0.005709 0
vn -0.97082 0.23981 0
vn -0.97082 0.23981 0
vn -0.893554 0.448955 0
vn -0.893554 0.448955 0
vn -0.762518 0.646967 0
vn -0.762518 0.646967 0
vn -0.574873 0.818243 0
vn -0.574873 0.818243 0
vn -0.349284 0.937017 0
vn -0.349284 0.937017 0
vn -0.712555 -0.701616 -0
vn -0.712555 -0.701616 -0
vn 0.634944 -0.772558 0
vn 0.634944 -0.772558 0
vn 0.727832 -0.685756 0
vn 0.727832 -0.685756 0
vn 0.806133 -0.591734 -0
vn 0.806133 -0.591734 -0
vn 0.8765 -0.481402 -0
vn 0.8765 -0.481402 -0
vn 0.939114 -0.343606 -0
vn 0.939114 -0.343606 -0
vn 0.986117 -0.166055 -0
vn 0.986117 -0.166055 -0
vn 0.99972 0.023661 0
vn 0.99972 0.023661 0
vn 0.987299 0.158874 0
vn 0.987299 0.158874 0
vn 0.950892 0.309523 0
vn 0.950892 0.309523 0
vn 0.880988 0.473138 0
vn 0.880988 0.473138 0
vn 0.769338 0.638842 0
vn 0.769338 0.638842 0
vn 0.61626 0.787543 0
vn 0.61626 0.787543 0
vn 0.336125 0.941818 0
vn 0.336125 0.941818 0
vn 0.064732 0.997903 0
vn 0.064732 0.997903 0
vn -0.193874 0.981026 0
vn -0.193874 0.981026 0
vn -0.472396 0.881387 0
vn -0.472396 0.881387 0
vn -0.739191 0.673496 0
vn -0.739191 0.673496 0
vn -0.921603 0.388134 0
vn -0.921603 0.388134 0
vn 0.921603 0.388135 0
vn 0.921603 0.388135 0
usemtl datan_common_ari_6599503d
f 1/1/1 2/2/2 3/3/3
f 1/1/1 3/3/3 4/4/4
f 2/2/2 5/5/5 6/6/6
f 2/2/2 6/6/6 3/3/3
f 5/5/5 7/7/7 8/8/8
f 5/5/5 8/8/8 6/6/6
f 7/7/7 9/9/9 10/10/10
f 7/7/7 10/10/10 8/8/8
f 9/9/9 11/11/11 12/12/12
f 9/9/9 12/12/12 10/10/10
f 11/11/11 13/13/13 14/14/14
f 11/11/11 14/14/14 12/12/12
f 13/13/13 15/15/15 16/16/16
f 13/13/13 16/16/16 14/14/14
f 15/15/15 17/17/17 18/18/18
f 15/15/15 18/18/18 16/16/16
f 17/17/17 19/19/19 20/20/20
f 17/17/17 20/20/20 18/18/18
f 19/19/19 21/21/21 22/22/22
f 19/19/19 22/22/22 20/20/20
f 21/21/21 23/23/23 24/24/24
f 21/21/21 24/24/24 22/22/22
f 23/23/23 25/25/25 26/26/26
f 23/23/23 26/26/26 24/24/24
f 25/25/25 27/27/27 28/28/28
f 25/25/25 28/28/28 26/26/26
f 27/27/27 29/29/29 30/30/30
f 27/27/27 30/30/30 28/28/28
f 29/29/29 31/31/31 32/32/32
f 29/29/29 32/32/32 30/30/30
f 31/31/31 33/33/33 34/34/34
f 31/31/31 34/34/34 32/32/32
f 33/33/33 35/35/35 36/36/36
f 33/33/33 36/36/36 34/34/34
f 35/35/35 37/37/37 38/38/38
f 35/35/35 38/38/38 36/36/36
f 37/37/37 39/39/39 40/40/40
f 37/37/37 40/40/40 38/38/38
f 39/39/39 41/41/41 42/42/42
f 39/39/39 42/42/42 40/40/40
f 41/41/41 43/43/43 44/44/44
f 41/41/41 44/44/44 42/42/42
f 43/43/43 45/45/45 46/46/46
f 43/43/43 46/46/46 44/44/44
f 45/45/45 47/47/47 48/48/48
f 45/45/45 48/48/48 46/46/46
f 47/47/47 49/49/49 50/50/50
f 47/47/47 50/50/50 48/48/48
f 49/49/49 51/51/51 52/52/52
f 49/49/49 52/52/52 50/50/50
f 51/51/51 53/53/53 54/54/54
f 51/51/51 54/54/54 52/52/52
f 53/53/53 55/55/55 56/56/56
f 53/53/53 56/56/56 54/54/54
f 55/55/55 57/57/57 58/58/58
f 55/55/55 58/58/58 56/56/56
f 57/57/57 59/59/59 60/60/60
f 57/57/57 60/60/60 58/58/58
f 59/59/59 61/61/61 62/62/62
f 59/59/59 62/62/62 60/60/60
f 61/61/61 63/63/63 64/64/64
f 61/61/61 64/64/64 62/62/62
f 63/63/63 65/65/65 66/66/66
f 63/63/63 66/66/66 64/64/64
f 65/65/65 67/67/67 68/68/68
f 65/65/65 68/68/68 66/66/66
f 67/67/67 69/69/69 70/70/70
f 67/67/67 70/70/70 68/68/68
f 69/69/69 71/71/71 72/72/72
f 69/69/69 72/72/72 70/70/70
f 71/71/71 73/73/73 74/74/74
f 71/71/71 74/74/74 72/72/72
f 73/73/73 75/75/75 76/76/76
f 73/73/73 76/76/76 74/74/74
f 75/75/75 77/77/77 78/78/78
f 75/75/75 78/78/78 76/76/76
f 77/77/77 79/79/79 80/80/80
f 77/77/77 80/80/80 78/78/78
f 79/79/79 81/81/81 82/82/82
f 79/79/79 82/82/82 80/80/80
f 81/81/81 83/83/83 84/84/84
f 81/81/81 84/84/84 82/82/82
f 83/83/83 85/85/85 86/86/86
f 83/83/83 86/86/86 84/84/84
f 85/85/85 87/87/87 88/88/88
f 85/85/85 88/88/88 86/86/86
f 89/89/89 90/90/90 91/91/91
f 89/89/89 91/91/91 92/92/92
f 90/90/90 93/93/93 94/94/94
f 90/90/90 94/94/94 91/91/91
f 93/93/93 95/95/95 96/96/96
f 93/93/93 96/96/96 94/94/94
f 95/95/95 97/97/97 98/98/98
f 95/95/95 98/98/98 96/96/96
f 97/97/97 99/99/99 100/100/100
f 97/97/97 100/100/100 98/98/98
f 99/99/99 101/101/101 102/102/102
f 99/99/99 102/102/102 100/100/100
f 101/101/101 103/103/103 104/104/104
f 101/101/101 104/104/104 102/102/102
f 103/103/103 105/105/105 106/106/106
f 103/103/103 106/106/106 104/104/104
f 105/105/105 107/107/107 108/108/108
f 105/105/105 108/108/108 106/106/106
f 107/107/107 109/109/109 110/110/110
f 107/107/107 110/110/110 108/108/108
f 109/109/109 111/111/111 112/112/112
f 109/109/109 112/112/112 110/110/110
f 111/111/111 113/113/113 114/114/114
f 111/111/111 114/114/114 112/112/112
f 113/113/113 115/115/115 116/116/116
f 113/113/113 116/116/116 114/114/114
f 115/115/115 117/117/117 118/118/118
f 115/115/115 118/118/118 116/116/116
f 117/117/117 119/119/119 120/120/120
f 117/117/117 120/120/120 118/118/118
f 119/119/119 121/121/121 122/122/122
f 119/119/119 122/122/122 120/120/120
f 121/121/121 123/123/123 124/124/124
f 121/121/121 124/124/124 122/122/122
f 123/123/123 125/125/125 126/126/126
f 123/123/123 126/126/126 124/124/124
f 125/125/125 127/127/127 128/128/128
f 125/125/125 128/128/128 126/126/126
f 127/127/127 129/129/129 130/130/130
f 127/127/127 130/130/130 128/128/128
f 129/129/129 131/131/131 132/132/132
f 129/129/129 132/132/132 130/130/130
f 131/131/131 133/133/133 134/134/134
f 131/131/131 134/134/134 132/132/132
f 133/133/133 135/135/135 136/136/136
f 133/133/133 136/136/136 134/134/134
f 135/135/135 137/137/137 138/138/138
f 135/135/135 138/138/138 136/136/136
f 137/137/137 139/139/139 140/140/140
f 137/137/137 140/140/140 138/138/138
f 139/139/139 141/141/141 142/142/142
f 139/139/139 142/142/142 140/140/140
f 141/141/141 143/143/143 144/144/144
f 141/141/141 144/144/144 142/142/142
f 143/143/143 145/145/145 146/146/146
f 143/143/143 146/146/146 144/144/144
f 145/145/145 147/147/147 148/148/148
f 145/145/145 148/148/148 146/146/146
f 147/147/147 149/149/149 150/150/150
f 147/147/147 150/150/150 148/148/148
f 149/149/149 151/151/151 152/152/152
f 149/149/149 152/152/152 150/150/150
f 151/151/151 153/153/153 154/154/154
f 151/151/151 154/154/154 152/152/152
f 153/153/153 155/155/155 156/156/156
f 153/153/153 156/156/156 154/154/154
f 155/155/155 157/157/157 158/158/158
f 155/155/155 158/158/158 156/156/156
f 157/157/157 159/159/159 160/160/160
f 157/157/157 160/160/160 158/158/158
f 159/159/159 161/161/161 162/162/162
f 159/159/159 162/162/162 160/160/160
f 161/161/161 163/163/163 164/164/164
f 161/161/161 164/164/164 162/162/162
f 163/163/163 165/165/165 166/166/166
f 163/163/163 166/166/166 164/164/164
f 165/165/165 167/167/167 168/168/168
f 165/165/165 168/168/168 166/166/166
f 167/167/167 169/169/169 170/170/170
f 167/167/167 170/170/170 168/168/168
f 169/169/169 171/171/171 172/172/172
f 169/169/169 172/172/172 170/170/170
f 171/171/171 173/173/173 174/174/174
f 171/171/171 174/174/174 172/172/172
f 173/173/173 175/175/175 176/176/176
