# Generated from Nova1492 GX by tools/nova1492/GxObjConverter
mtllib datan_common_acpdualh_6d6659b0.mtl
o datan_common_acpdualh_6d6659b0_mesh00
v -0.076692 0.599236 0.174758
v 0.076692 0.599236 0.174758
v 0.076692 0.617185 -0
v 0.076692 0.599236 -0.174758
v -0.076692 0.599236 -0.174758
v -0.076692 0.617185 -0
v -0.081294 0.240477 0.226836
v 0.081293 0.240477 0.226836
v 0.081293 0.240477 -0.226836
v -0.081294 0.240477 -0.226836
v 0.076692 0 0.237671
v -0.076692 0 0.237671
v -0.076692 0 -0.237671
v 0.076692 0 -0.237671
v 0.081293 0.240477 0.226836
v 0.081293 0.240477 -0.226836
v 0.076692 0.599236 -0.174758
v -0.081294 0.240477 -0.226836
v -0.081294 0.240477 0.226836
v -0.076692 0.599236 0.174758
v 0.076692 0 -0.237671
v 0.076692 0 0.237671
v 0.076692 0.617185 -0
v -0.076692 0 0.237671
v -0.076692 0 -0.237671
v -0.076692 0.617185 -0
v -0.076692 0.599236 -0.174758
v 0.076692 0.599236 0.174758
vt 0.963231 0.963402
vt 0.536769 0.963402
vt 0.536769 0.976235
vt 0.536769 0.963402
vt 0.963231 0.963402
vt 0.963231 0.976235
vt 0.976485 0.400847
vt 0.523516 0.400847
vt 0.523515 0.400847
vt 0.976484 0.400847
vt 0.536769 0.023765
vt 0.963231 0.023765
vt 0.963231 0.023765
vt 0.536769 0.023765
vt 0.034189 0.400847
vt 0.465811 0.400847
vt 0.414506 0.94809
vt 0.465811 0.400847
vt 0.03419 0.400847
vt 0.085494 0.94809
vt 0.476485 0.023765
vt 0.023515 0.023765
vt 0.242344 0.976235
vt 0.023515 0.023765
vt 0.476485 0.023765
vt 0.257656 0.976235
vt 0.414506 0.94809
vt 0.085494 0.94809
vn 0 0.872614 0.488411
vn 0 0.524454 0.851439
vn 0 0.999414 0.034216
vn 0 0.872614 -0.488411
vn 0 0.524454 -0.851439
vn 0 0.999414 -0.034216
vn 0 0.094449 0.99553
vn 0 0.094449 0.99553
vn 0 0.094449 -0.99553
vn 0 0.094449 -0.99553
vn 0 0.045011 0.998987
vn 0 0.045011 0.998987
vn 0 0.045011 -0.998987
vn 0 0.045011 -0.998987
vn 1 -0.000183 0.000031
vn 0.999995 -0.003154 0
vn 0.999926 0.012164 -0.000591
vn -1 -0.000183 -0.000031
vn -0.999995 -0.003154 0
vn -0.999926 0.012164 0.000591
vn 0.999817 -0.019131 0
vn 0.999817 -0.019131 0
vn 0.999925 0.012261 0.000078
vn -0.999817 -0.019131 0
vn -0.999817 -0.019131 0
vn -0.999925 0.012261 -0.000078
vn -0.999914 0.013019 -0.001337
vn 0.999914 0.013019 0.001337
usemtl datan_common_acpdualh_6d6659b0
f 1/1/1 2/2/2 3/3/3
f 4/4/4 5/5/5 6/6/6
f 7/7/7 8/8/8 2/2/2
f 9/9/9 10/10/10 5/5/5
f 7/7/7 11/11/11 8/8/8
f 12/12/12 11/11/11 7/7/7
f 2/2/2 1/1/1 7/7/7
f 9/9/9 13/13/13 10/10/10
f 14/14/14 13/13/13 9/9/9
f 5/5/5 4/4/4 9/9/9
f 4/4/4 6/6/6 3/3/3
f 3/3/3 6/6/6 1/1/1
f 15/15/15 16/16/16 17/17/17
f 18/18/18 19/19/19 20/20/20
f 15/15/15 21/21/21 16/16/16
f 22/22/22 21/21/21 15/15/15
f 17/17/17 23/23/23 15/15/15
f 18/18/18 24/24/24 19/19/19
f 25/25/25 24/24/24 18/18/18
f 26/26/26 27/27/27 18/18/18
f 20/20/20 26/26/26 18/18/18
f 23/23/23 28/28/28 15/15/15
o datan_common_acpdualh_6d6659b0_mesh01
v -0.073486 0 0.237671
v -0.073486 0 -0.237671
v -0.296396 0 -0.17328
v -0.296396 0 0.17328
v -0.219191 0.563084 -0
v -0.073486 0.617185 -0
v -0.219358 0.545135 -0.127412
v -0.073486 0.599236 -0.174758
v -0.269297 0.240477 0.162877
v -0.077895 0.240477 0.226836
v -0.219358 0.545135 0.127412
v -0.269297 0.240477 -0.162877
v -0.077895 0.240477 -0.226836
v -0.073486 0.599236 0.174758
v 0.073486 0 -0.237671
v 0.073486 0 0.237671
v 0.296396 0 -0.17328
v 0.296396 0 0.17328
v 0.073486 0.599236 0.174758
v 0.219358 0.545135 0.127412
v 0.219358 0.563084 -0
v 0.219358 0.545135 -0.127412
v 0.073486 0.599236 -0.174758
v 0.073486 0.617185 -0
v 0.077895 0.240477 0.226836
v 0.269297 0.240477 0.162877
v 0.269297 0.240477 -0.162877
v 0.077895 0.240477 -0.226836
vt 0.755941 0.880879
vt 0.994059 0.880879
vt 0.938418 0.892902
vt 0.811582 0.89673
vt 0.876914 0.970421
vt 0.876914 0.99418
vt 0.913357 0.966167
vt 0.932471 0.995449
vt 0.815769 0.926494
vt 0.779891 0.926494
vt 0.832815 0.962339
vt 0.934231 0.926494
vt 0.973938 0.926494
vt 0.821357 0.991621
vt 0.994059 0.75582
vt 0.755941 0.755879
vt 0.942053 0.768751
vt 0.807947 0.77258
vt 0.821111 0.866056
vt 0.834961 0.841167
vt 0.873086 0.844571
vt 0.915039 0.841167
vt 0.92889 0.866056
vt 0.876914 0.869142
vt 0.778232 0.801494
vt 0.818305 0.801494
vt 0.935524 0.801494
vt 0.975596 0.801494
vn -0.122168 0.897892 0.422925
vn -0.259866 0.485814 -0.834539
vn -0.672993 0.682619 -0.284802
vn -0.573604 0.443357 0.688777
vn -0.702541 0.711294 0.022278
vn -0.356683 0.933219 -0.043363
vn -0.761599 0.579582 -0.289918
vn -0.413112 0.485173 -0.770679
vn -0.935777 0.156129 0.316143
vn -0.315022 0.10358 0.943415
vn -0.640092 0.434253 0.633804
vn -0.64711 0.137354 -0.749922
vn -0.315686 0.088655 -0.944713
vn -0.425506 0.783268 0.453251
vn 0.259866 0.485814 -0.834539
vn 0.122168 0.897892 0.422925
vn 0.672993 0.682619 -0.284802
vn 0.573604 0.443357 0.688777
vn 0.42539 0.783231 0.453423
vn 0.63987 0.434099 0.634132
vn 0.702576 0.711258 0.02233
vn 0.761595 0.579374 -0.290341
vn 0.413112 0.485173 -0.770679
vn 0.356448 0.933301 -0.043515
vn 0.315022 0.10358 0.943415
vn 0.935793 0.155974 0.316172
vn 0.64711 0.137354 -0.749922
vn 0.315686 0.088655 -0.944713
usemtl datan_common_acpdualh_6d6659b0
f 29/29/29 30/30/30 31/31/31
f 31/31/31 32/32/32 29/29/29
f 33/33/33 34/34/34 35/35/35
f 36/36/36 35/35/35 34/34/34
f 37/37/37 38/38/38 39/39/39
f 40/40/40 37/37/37 35/35/35
f 41/41/41 40/40/40 36/36/36
f 32/32/32 38/38/38 37/37/37
f 32/32/32 29/29/29 38/38/38
f 42/42/42 39/39/39 38/38/38
f 31/31/31 37/37/37 40/40/40
f 31/31/31 32/32/32 37/37/37
f 33/33/33 35/35/35 37/37/37
f 30/30/30 40/40/40 41/41/41
f 30/30/30 31/31/31 40/40/40
f 35/35/35 36/36/36 40/40/40
f 39/39/39 42/42/42 33/33/33
f 39/39/39 33/33/33 37/37/37
f 34/34/34 33/33/33 42/42/42
f 43/43/43 44/44/44 45/45/45
f 46/46/46 45/45/45 44/44/44
f 47/47/47 48/48/48 49/49/49
f 50/50/50 51/51/51 52/52/52
f 53/53/53 54/54/54 48/48/48
f 54/54/54 55/55/55 50/50/50
f 55/55/55 56/56/56 51/51/51
f 53/53/53 46/46/46 54/54/54
f 44/44/44 46/46/46 53/53/53
f 48/48/48 47/47/47 53/53/53
f 54/54/54 45/45/45 55/55/55
f 46/46/46 45/45/45 54/54/54
f 50/50/50 49/49/49 54/54/54
f 55/55/55 43/43/43 56/56/56
f 45/45/45 43/43/43 55/55/55
f 51/51/51 50/50/50 55/55/55
f 50/50/50 52/52/52 49/49/49
f 49/49/49 52/52/52 47/47/47
f 49/49/49 48/48/48 54/54/54
o datan_common_acpdualh_6d6659b0_mesh02
v -0.320264 0 -0.415677
v -0.320264 0 0.415677
v 0.320264 0 -0.415677
v 0.320264 0 0.415677
vt 0.50582 0.99418
vt 0.50582 0.75582
vt 0.61918 0.99418
vt 0.61918 0.75582
vn 0 1 0
vn 0 1 0
vn 0 1 0
vn 0 1 0
usemtl datan_common_acpdualh_6d6659b0
f 57/57/57 58/58/58 59/59/59
f 60/60/60 59/59/59 58/58/58
o datan_common_acpdualh_6d6659b0_mesh03
v -0.321743 0 -0.417896
v -0.321743 0 0.417896
v 0.321743 0 -0.417896
v 0.321743 0 0.417896
vt 0.63082 0.99418
vt 0.63082 0.75582
vt 0.74418 0.99418
vt 0.74418 0.75582
vn 0 1 0
vn 0 1 0
vn 0 1 0
vn 0 1 0
usemtl datan_common_acpdualh_6d6659b0
f 61/61/61 62/62/62 63/63/63
f 64/64/64 63/63/63 62/62/62
