# Generated from Nova1492 GX by tools/nova1492/GxObjConverter
mtllib datan_common_rune04_2fe89b0c.mtl
o datan_common_rune04_2fe89b0c
v -0.262941 0.001988 -0.505073
v -0.116753 -0.325223 -0.237014
v -0.235956 -0.325223 -0.118876
v -0.502692 0.001988 -0.267465
v -0.406694 0.001988 -0.170601
v -0.235956 -0.325223 -0.118876
v -0.237014 -0.325223 0.116753
v -0.408209 0.001988 0.166943
v -0.505073 0.001988 0.262941
v -0.237014 -0.325223 0.116753
v -0.118876 -0.325223 0.235956
v -0.267465 0.001988 0.502692
v -0.170601 0.001988 0.406694
v -0.118876 -0.325223 0.235956
v 0.116753 -0.325223 0.237014
v 0.166943 0.001988 0.408209
v 0.262941 0.001988 0.505073
v 0.116753 -0.325223 0.237014
v 0.235956 -0.325223 0.118876
v 0.502692 0.001988 0.267465
v 0.406694 0.001988 0.170601
v 0.235956 -0.325223 0.118876
v 0.237014 -0.325223 -0.116753
v 0.408209 0.001988 -0.166943
v 0.505073 0.001988 -0.262941
v 0.237014 -0.325223 -0.116753
v 0.118876 -0.325223 -0.235956
v 0.267465 0.001988 -0.502692
v 0.170601 0.001988 -0.406694
v 0.118876 -0.325223 -0.235956
v -0.116753 -0.325223 -0.237014
v -0.166943 0.001988 -0.408209
v 0.116753 -0.325223 0.237014
v 0.262941 0.001988 0.505073
v 0.166943 0.001988 0.408209
v 0.502692 0.001988 0.267465
v 0.237014 -0.325223 -0.116753
v 0.505073 0.001988 -0.262941
v 0.408209 0.001988 -0.166943
v 0.267465 0.001988 -0.502692
v -0.116753 -0.325223 -0.237014
v -0.262941 0.001988 -0.505073
v -0.166943 0.001988 -0.408209
v -0.502692 0.001988 -0.267465
v -0.237014 -0.325223 0.116753
v -0.505073 0.001988 0.262941
v -0.408209 0.001988 0.166943
v -0.267465 0.001988 0.502692
v 0 0.537241 -0
v -0.099604 0.158555 -0.202201
v -0.201299 0.158555 -0.101416
v -0.201299 0.158555 -0.101416
v -0.202201 0.158555 0.099604
v -0.101416 0.158555 0.201299
v -0.101416 0.158555 0.201299
v 0.099604 0.158555 0.202201
v 0.201299 0.158555 0.101416
v 0.201299 0.158555 0.101416
v 0.202201 0.158555 -0.099604
v 0.101416 0.158555 -0.201299
v 0.101416 0.158555 -0.201299
v -0.099604 0.158555 -0.202201
v -0.262941 0.001988 -0.505073
v -0.502692 0.001988 -0.267465
v -0.201299 0.158555 -0.101416
v -0.406694 0.001988 -0.170601
v -0.408209 0.001988 0.166943
v -0.202201 0.158555 0.099604
v -0.505073 0.001988 0.262941
v -0.267465 0.001988 0.502692
v -0.101416 0.158555 0.201299
v -0.170601 0.001988 0.406694
v 0.166943 0.001988 0.408209
v 0.099604 0.158555 0.202201
v 0.262941 0.001988 0.505073
v 0.502692 0.001988 0.267465
v 0.201299 0.158555 0.101416
v 0.406694 0.001988 0.170601
v 0.408209 0.001988 -0.166943
v 0.202201 0.158555 -0.099604
v 0.505073 0.001988 -0.262941
v 0.267465 0.001988 -0.502692
v 0.101416 0.158555 -0.201299
v 0.170601 0.001988 -0.406694
v -0.166943 0.001988 -0.408209
vt 0.774542 0.987868
vt 0.759869 0.732386
vt 0.823268 0.676693
vt 0.905926 0.875854
vt 0.616702 0.377565
vt 0.665482 0.012132
vt 0.756041 0.012132
vt 0.751914 0.377565
vt 0.993934 0.450916
vt 0.866193 0.480261
vt 0.838347 0.353464
vt 0.941755 0.188147
vt 0.616702 0.377565
vt 0.665482 0.012132
vt 0.756041 0.012132
vt 0.751914 0.377565
vt 0.725458 0.012132
vt 0.740131 0.267614
vt 0.676732 0.323307
vt 0.594074 0.124146
vt 0.616702 0.377565
vt 0.665482 0.012132
vt 0.756041 0.012132
vt 0.751914 0.377565
vt 0.506066 0.549084
vt 0.633807 0.519739
vt 0.661654 0.646536
vt 0.562073 0.811853
vt 0.616702 0.377565
vt 0.665482 0.012132
vt 0.756041 0.012132
vt 0.751914 0.377565
vt 0.866193 0.012132
vt 0.993934 0.377565
vt 0.939305 0.377565
vt 0.562073 0.377565
vt 0.866193 0.012132
vt 0.993934 0.377565
vt 0.939305 0.377565
vt 0.562073 0.377565
vt 0.866193 0.012132
vt 0.993934 0.377565
vt 0.939305 0.377565
vt 0.562073 0.377565
vt 0.866193 0.012132
vt 0.993934 0.377565
vt 0.939305 0.377565
vt 0.562073 0.377565
vt 0.251914 0.987868
vt 0.258701 0.563742
vt 0.312225 0.563742
vt 0.178177 0.563742
vt 0.254873 0.563742
vt 0.312225 0.563742
vt 0.178177 0.563742
vt 0.254873 0.563742
vt 0.312225 0.563742
vt 0.178177 0.563742
vt 0.254873 0.563742
vt 0.312225 0.563742
vt 0.174349 0.563742
vt 0.241299 0.698816
vt 0.225458 0.987868
vt 0.094074 0.875854
vt 0.183947 0.651303
vt 0.112873 0.766597
vt 0.060695 0.503828
vt 0.150592 0.490255
vt 0.006066 0.450916
vt 0.058245 0.188147
vt 0.174349 0.367893
vt 0.116702 0.233403
vt 0.248086 0.121389
vt 0.254873 0.301185
vt 0.270714 0.012132
vt 0.405926 0.124146
vt 0.312225 0.348697
vt 0.383299 0.233403
vt 0.439305 0.496172
vt 0.34558 0.509746
vt 0.493934 0.549084
vt 0.437927 0.811853
vt 0.321823 0.632107
vt 0.383299 0.766597
vt 0.251914 0.878611
vn -0.524168 -0.66747 -0.528896
vn -0.189268 -0.963175 -0.190975
vn -0.28703 -0.913091 -0.289619
vn -0.524168 -0.66747 -0.528896
vn -0.875738 -0.419066 0.239721
vn -0.847836 -0.384714 0.364924
vn -0.886298 -0.463099 -0.003979
vn -0.886298 -0.463099 -0.003979
vn -0.528896 -0.66747 0.524168
vn -0.190975 -0.963175 0.189268
vn -0.289619 -0.913091 0.28703
vn -0.528896 -0.66747 0.524168
vn 0.239721 -0.419066 0.875738
vn 0.364924 -0.384714 0.847836
vn -0.003979 -0.463099 0.886298
vn -0.003979 -0.463099 0.886298
vn 0.524168 -0.66747 0.528896
vn 0.189268 -0.963175 0.190975
vn 0.378535 -0.843105 0.38195
vn 0.524168 -0.66747 0.528896
vn 0.875738 -0.419066 -0.239721
vn 0.847836 -0.384714 -0.364924
vn 0.886298 -0.463099 0.003979
vn 0.886298 -0.463099 0.003979
vn 0.528896 -0.66747 -0.524168
vn 0.078835 -0.993821 -0.07813
vn 0.38195 -0.843105 -0.378535
vn 0.528896 -0.66747 -0.524168
vn -0.239721 -0.419066 -0.875738
vn -0.364924 -0.384714 -0.847836
vn 0.003979 -0.463099 -0.886298
vn 0.003979 -0.463099 -0.886298
vn -0.687529 -0.251041 0.681383
vn -0.687529 -0.251041 0.681383
vn -0.687529 -0.251041 0.681383
vn 0.687529 -0.251041 -0.681383
vn 0.681383 -0.251041 0.687529
vn 0.681383 -0.251041 0.687529
vn 0.681383 -0.251041 0.687529
vn -0.681383 -0.251041 -0.687529
vn 0.687529 -0.251041 -0.681383
vn 0.687529 -0.251041 -0.681383
vn 0.687529 -0.251041 -0.681383
vn -0.687529 -0.251041 0.681383
vn -0.681383 -0.251041 -0.687529
vn -0.681383 -0.251041 -0.687529
vn -0.681383 -0.251041 -0.687529
vn 0.681383 -0.251041 0.687529
vn 0 1 -0
vn -0.323294 0.510488 -0.796796
vn -0.613024 0.491521 -0.618554
vn -0.882551 0.4702 -0.003962
vn -0.796796 0.510488 0.323294
vn -0.618554 0.491521 0.613024
vn -0.003962 0.4702 0.882551
vn 0.323294 0.510488 0.796796
vn 0.613024 0.491521 0.618553
vn 0.882551 0.4702 0.003962
vn 0.796796 0.510488 -0.323294
vn 0.618553 0.491521 -0.613024
vn 0.003962 0.4702 -0.882551
vn 0.000791 0.865391 -0.501097
vn 0.175628 0.832681 -0.525164
vn -0.459219 0.888314 -0.00407
vn -0.571861 0.816645 0.077886
vn -0.640198 0.700557 0.315226
vn -0.634415 0.742924 -0.213499
vn -0.501097 0.865391 -0.000791
vn -0.525164 0.832681 -0.175628
vn -0.00407 0.888314 0.459219
vn 0.077886 0.816645 0.571861
vn 0.315226 0.700557 0.640198
vn -0.213499 0.742924 0.634415
vn -0.000791 0.865391 0.501097
vn -0.175628 0.832681 0.525164
vn 0.459219 0.888314 0.00407
vn 0.571861 0.816645 -0.077886
vn 0.640198 0.700557 -0.315226
vn 0.634415 0.742924 0.213499
vn 0.501097 0.865391 0.000791
vn 0.525164 0.832681 0.175628
vn 0.00407 0.888314 -0.459219
vn -0.077886 0.816645 -0.571861
vn -0.315226 0.700557 -0.640198
vn 0.213499 0.742924 -0.634415
usemtl datan_common_rune04_2fe89b0c
f 1/1/1 2/2/2 3/3/3
f 1/1/1 3/3/3 4/4/4
f 5/5/5 6/6/6 7/7/7
f 5/5/5 7/7/7 8/8/8
f 9/9/9 10/10/10 11/11/11
f 9/9/9 11/11/11 12/12/12
f 13/13/13 14/14/14 15/15/15
f 13/13/13 15/15/15 16/16/16
f 17/17/17 18/18/18 19/19/19
f 17/17/17 19/19/19 20/20/20
f 21/21/21 22/22/22 23/23/23
f 21/21/21 23/23/23 24/24/24
f 25/25/25 26/26/26 27/27/27
f 25/25/25 27/27/27 28/28/28
f 29/29/29 30/30/30 31/31/31
f 29/29/29 31/31/31 32/32/32
f 33/33/33 34/34/34 35/35/35
f 22/22/22 21/21/21 36/36/36
f 37/37/37 38/38/38 39/39/39
f 30/30/30 29/29/29 40/40/40
f 41/41/41 42/42/42 43/43/43
f 6/6/6 5/5/5 44/44/44
f 45/45/45 46/46/46 47/47/47
f 14/14/14 13/13/13 48/48/48
f 26/26/26 19/19/19 18/18/18
f 26/26/26 18/18/18 11/11/11
f 26/26/26 11/11/11 10/10/10
f 26/26/26 10/10/10 3/3/3
f 26/26/26 3/3/3 2/2/2
f 26/26/26 2/2/2 27/27/27
f 49/49/49 50/50/50 51/51/51
f 49/49/49 52/52/52 53/53/53
f 49/49/49 53/53/53 54/54/54
f 49/49/49 55/55/55 56/56/56
f 49/49/49 56/56/56 57/57/57
f 49/49/49 58/58/58 59/59/59
f 49/49/49 59/59/59 60/60/60
f 49/49/49 61/61/61 50/50/50
f 62/62/62 63/63/63 64/64/64
f 62/62/62 64/64/64 65/65/65
f 65/65/65 66/66/66 67/67/67
f 65/65/65 67/67/67 68/68/68
f 68/68/68 69/69/69 70/70/70
f 68/68/68 70/70/70 71/71/71
f 71/71/71 72/72/72 73/73/73
f 71/71/71 73/73/73 74/74/74
f 74/74/74 75/75/75 76/76/76
f 74/74/74 76/76/76 77/77/77
f 77/77/77 78/78/78 79/79/79
f 77/77/77 79/79/79 80/80/80
f 80/80/80 81/81/81 82/82/82
f 80/80/80 82/82/82 83/83/83
f 83/83/83 84/84/84 85/85/85
