# Generated from Nova1492 GX by tools/nova1492/GxObjConverter
mtllib datan_common_ap97fire_f43d3f0b.mtl
o datan_common_ap97fire_f43d3f0b
v 0.296208 -0.135905 -0.456701
v -0.292777 -0.135905 -0.456701
v 0.296209 -0.135905 0.456701
v -0.292777 -0.135905 0.456701
v -0.292777 -0.135905 -0.456701
v 0.296209 -0.135905 -0.456701
v -0.292777 -0.135905 0.456701
v 0.296208 -0.135905 0.456701
v 0.296208 0.145683 -0.456701
v -0.292777 0.145683 -0.456701
v 0.296209 0.145683 0.456701
v -0.292777 0.145683 0.456701
v -0.292777 0.145683 -0.456701
v 0.296209 0.145683 -0.456701
v -0.292777 0.145683 0.456701
v 0.296208 0.145683 0.456701
v 0.148229 -0.293322 -0.456701
v 0.148229 0.295664 -0.456701
v 0.148229 -0.293322 0.456701
v 0.148229 0.295664 0.456701
v 0.148229 0.295664 -0.456701
v 0.148229 -0.293322 -0.456701
v 0.148229 0.295664 0.456701
v 0.148229 -0.293322 0.456701
v -0.133905 -0.293322 -0.456701
v -0.133905 0.295664 -0.456701
v -0.133905 -0.293322 0.456701
v -0.133905 0.295664 0.456701
v -0.133905 0.295664 -0.456701
v -0.133905 -0.293322 -0.456701
v -0.133905 0.295664 0.456701
v -0.133905 -0.293322 0.456701
vt 0.25582 0.99418
vt 0.25582 0.50582
vt 0.49418 0.99418
vt 0.49418 0.50582
vt 0.25582 0.99418
vt 0.25582 0.50582
vt 0.49418 0.99418
vt 0.49418 0.50582
vt 0.25582 0.99418
vt 0.25582 0.50582
vt 0.49418 0.99418
vt 0.49418 0.50582
vt 0.25582 0.99418
vt 0.25582 0.50582
vt 0.49418 0.99418
vt 0.49418 0.50582
vt 0.25582 0.99418
vt 0.25582 0.50582
vt 0.49418 0.99418
vt 0.49418 0.50582
vt 0.25582 0.99418
vt 0.25582 0.50582
vt 0.49418 0.99418
vt 0.49418 0.50582
vt 0.25582 0.99418
vt 0.25582 0.50582
vt 0.49418 0.99418
vt 0.49418 0.50582
vt 0.25582 0.99418
vt 0.25582 0.50582
vt 0.49418 0.99418
vt 0.49418 0.50582
vn 0 1 0
vn 0 1 0
vn 0 1 0
vn 0 1 0
vn 0 -1 0
vn 0 -1 0
vn 0 -1 0
vn 0 -1 0
vn 0 1 0
vn 0 1 0
vn 0 1 0
vn 0 1 0
vn 0 -1 0
vn 0 -1 0
vn 0 -1 0
vn 0 -1 0
vn 1 0 0
vn 1 0 0
vn 1 0 0
vn 1 0 0
vn -1 0 0
vn -1 0 0
vn -1 0 0
vn -1 0 0
vn 1 0 0
vn 1 0 0
vn 1 0 0
vn 1 0 0
vn -1 0 0
vn -1 0 0
vn -1 0 0
vn -1 0 0
usemtl datan_common_ap97fire_f43d3f0b
f 1/1/1 2/2/2 3/3/3
f 4/4/4 3/3/3 2/2/2
f 5/5/5 6/6/6 7/7/7
f 8/8/8 7/7/7 6/6/6
f 9/9/9 10/10/10 11/11/11
f 12/12/12 11/11/11 10/10/10
f 13/13/13 14/14/14 15/15/15
f 16/16/16 15/15/15 14/14/14
f 17/17/17 18/18/18 19/19/19
f 20/20/20 19/19/19 18/18/18
f 21/21/21 22/22/22 23/23/23
f 24/24/24 23/23/23 22/22/22
f 25/25/25 26/26/26 27/27/27
f 28/28/28 27/27/27 26/26/26
f 29/29/29 30/30/30 31/31/31
f 32/32/32 31/31/31 30/30/30
