# Generated from Nova1492 GX by tools/nova1492/GxObjConverter
mtllib datan_common_acpRP_17e16dd8.mtl
o datan_common_acpRP_17e16dd8
v -0.358342 0.206325 0.121899
v 0.358342 0.206325 0.121899
v 0.322831 0.206325 -0.297522
v -0.322831 0.206325 -0.297522
v 0.413223 -0 -0.413223
v 0.458678 -0 0.123636
v 0 0 -0.647999
v -0.413223 0 -0.413223
v 0 0.206325 -0.480941
v -0.458678 0 0.123636
v 0.358342 -0.206325 0.121899
v -0.358342 -0.206325 0.121899
v -0.322831 -0.206325 -0.297522
v 0.322831 -0.206325 -0.297522
v -0 -0.206325 -0.480941
v -0.185753 0.083062 0.429978
v 0.185753 0.083062 0.429978
v 0.243336 0.163814 0.091072
v -0.243336 0.163814 0.091072
v 0.185753 -0.083062 0.429978
v 0.243336 -0.163814 0.091072
v -0.185753 -0.083062 0.429978
v -0.243336 -0.163814 0.091072
vt 0.564808 0.025944
vt 0.935192 0.025944
vt 0.91646 0.536668
vt 0.58354 0.536668
vt 0.964141 0.68178
vt 0.988118 0.023765
vt 0.746172 0.976235
vt 0.535859 0.697092
vt 0.753828 0.766711
vt 0.511883 0.023765
vt 0.935192 0.025944
vt 0.564808 0.025944
vt 0.58354 0.536668
vt 0.91646 0.536668
vt 0.753828 0.766711
vt 0.069137 0.023281
vt 0.430863 0.023281
vt 0.488117 0.976719
vt 0.011883 0.976719
vt 0.430863 0.023281
vt 0.488117 0.976719
vt 0.069137 0.023281
vt 0.011883 0.976719
vn -0.529355 0.847216 -0.044819
vn 0.690876 0.720603 -0.058495
vn 0.333134 0.8963 -0.292691
vn -0.401658 0.845065 -0.352896
vn 0.930837 -0 -0.365434
vn 0.996435 -0 -0.084366
vn -0 -0 -1
vn -0.930837 0 -0.365434
vn 0 0.834243 -0.551397
vn -0.996435 0 -0.084366
vn 0.529355 -0.847216 -0.044819
vn -0.690876 -0.720603 -0.058495
vn -0.333134 -0.8963 -0.292691
vn 0.401658 -0.845065 -0.352896
vn -0 -0.834243 -0.551397
vn -0.363876 0.718079 0.59326
vn 0.734053 0.362149 0.574468
vn 0.363876 0.718079 0.59326
vn -0.734054 0.362148 0.574468
vn 0.363876 -0.718079 0.59326
vn 0.734054 -0.362148 0.574468
vn -0.734053 -0.362149 0.574468
vn -0.363876 -0.718079 0.59326
usemtl datan_common_acpRP_17e16dd8
f 1/1/1 2/2/2 3/3/3
f 3/3/3 4/4/4 1/1/1
f 2/2/2 5/5/5 3/3/3
f 5/5/5 2/2/2 6/6/6
f 7/7/7 8/8/8 4/4/4
f 4/4/4 9/9/9 7/7/7
f 8/8/8 10/10/10 1/1/1
f 1/1/1 4/4/4 8/8/8
f 7/7/7 3/3/3 5/5/5
f 3/3/3 9/9/9 4/4/4
f 3/3/3 7/7/7 9/9/9
f 11/11/11 12/12/12 13/13/13
f 13/13/13 14/14/14 11/11/11
f 12/12/12 8/8/8 13/13/13
f 8/8/8 12/12/12 10/10/10
f 7/7/7 5/5/5 14/14/14
f 14/14/14 15/15/15 7/7/7
f 5/5/5 6/6/6 11/11/11
f 11/11/11 14/14/14 5/5/5
f 7/7/7 13/13/13 8/8/8
f 13/13/13 15/15/15 14/14/14
f 13/13/13 7/7/7 15/15/15
f 16/16/16 17/17/17 18/18/18
f 18/18/18 19/19/19 16/16/16
f 17/17/17 20/20/20 21/21/21
f 21/21/21 18/18/18 17/17/17
f 20/20/20 22/22/22 23/23/23
