# Generated from Nova1492 GX by tools/nova1492/GxObjConverter
mtllib datan_common_ap95fire_f27ee81e.mtl
o datan_common_ap95fire_f27ee81e
v -0.32078 0 -0.879468
v -0.32078 0 0.879468
v 0.32078 -0 -0.879468
v 0.32078 -0 0.879468
v -0.000112 -0.32078 -0.879468
v -0.000112 -0.32078 0.879468
v 0.000112 0.32078 -0.879468
v 0.000112 0.32078 0.879468
v 0.32078 -0.000224 -0.879468
v 0.32078 -0.000224 0.879468
v -0.32078 0.000224 -0.879468
v -0.32078 0.000224 0.879468
vt 0.63082 0.86918
vt 0.63082 0.75582
vt 0.74418 0.86918
vt 0.74418 0.75582
vt 0.63082 0.86918
vt 0.63082 0.75582
vt 0.74418 0.86918
vt 0.74418 0.75582
vt 0.63082 0.86918
vt 0.63082 0.75582
vt 0.74418 0.86918
vt 0.74418 0.75582
vn 0 1 0
vn 0 1 0
vn 0 1 0
vn 0 1 0
vn -1 0.000349 0
vn -1 0.000349 0
vn -1 0.000349 0
vn -1 0.000349 0
vn -0.000698 -1 0
vn -0.000698 -1 0
vn -0.000698 -1 0
vn -0.000698 -1 0
usemtl datan_common_ap95fire_f27ee81e
f 1/1/1 2/2/2 3/3/3
f 4/4/4 3/3/3 2/2/2
f 5/5/5 6/6/6 7/7/7
f 8/8/8 7/7/7 6/6/6
f 9/9/9 10/10/10 11/11/11
f 12/12/12 11/11/11 10/10/10
