# Generated from Nova1492 GX by tools/nova1492/GxObjConverter
mtllib datan_common_acppw10_9f8ce065.mtl
o datan_common_acppw10_9f8ce065
v 0.086713 -0 -0.302888
v 0.086713 -0 0.302888
v 0.333092 0.094173 -0.168172
v 0.333092 0.094173 0.168172
v 0.061028 0.599236 0.134196
v 0.262829 0.453809 0.103097
v 0.259637 0.471758 -0
v 0.262829 0.453809 -0.103097
v 0.061028 0.599236 -0.134196
v 0.060258 0.617185 -0
v 0.08099 0.240477 0.240013
v 0.310797 0.240477 0.14605
v 0.310797 0.240477 -0.14605
v 0.08099 0.240477 -0.240013
v -0.086713 -0 0.302888
v -0.086713 -0 -0.302888
v -0.333092 0.094173 -0.168172
v -0.333092 0.094173 0.168172
v -0.259457 0.471758 -0
v -0.060258 0.617185 -0
v -0.262848 0.453809 -0.103097
v -0.061028 0.599236 -0.134196
v -0.310797 0.240477 0.14605
v -0.08099 0.240477 0.240013
v -0.262848 0.453809 0.103097
v -0.310797 0.240477 -0.14605
v -0.08099 0.240477 -0.240013
v -0.061028 0.599236 0.134196
vt 0.994059 0.880879
vt 0.755941 0.880879
vt 0.940254 0.894914
vt 0.809746 0.898742
vt 0.823317 0.990717
vt 0.835737 0.966959
vt 0.873086 0.970364
vt 0.914263 0.966959
vt 0.926684 0.990717
vt 0.876914 0.994121
vt 0.781053 0.926494
vt 0.818582 0.926494
vt 0.935246 0.926494
vt 0.972775 0.926494
vt 0.755941 0.880879
vt 0.994059 0.880879
vt 0.940254 0.894914
vt 0.809746 0.898742
vt 0.876914 0.970364
vt 0.876914 0.994121
vt 0.914263 0.966959
vt 0.930512 0.994545
vt 0.814754 0.926494
vt 0.781053 0.926494
vt 0.831909 0.963131
vt 0.935246 0.926494
vt 0.972775 0.926494
vt 0.823317 0.990717
vn 0.183616 0.599244 -0.779225
vn -0.138967 0.912831 0.383964
vn 0.552103 0.780426 -0.293458
vn 0.510275 0.555692 0.656374
vn 0.57016 0.706051 0.42001
vn 0.676944 0.464949 0.570587
vn 0.794861 0.606379 0.022365
vn 0.803683 0.532469 -0.26565
vn 0.48227 0.50401 -0.716513
vn 0.590768 0.805824 -0.040514
vn 0.36819 0.245309 0.896805
vn 0.926666 0.231504 0.296134
vn 0.667066 0.262346 -0.697278
vn 0.365158 0.262848 -0.893068
vn 0.138967 0.912831 0.383964
vn -0.183616 0.599244 -0.779225
vn -0.552103 0.780426 -0.293458
vn -0.510275 0.555692 0.656374
vn -0.794791 0.606474 0.022284
vn -0.590995 0.805676 -0.040137
vn -0.803674 0.532798 -0.265018
vn -0.482242 0.504011 -0.716531
vn -0.926639 0.231689 0.296075
vn -0.368183 0.245302 0.89681
vn -0.677321 0.465125 0.569995
vn -0.667064 0.262326 -0.697288
vn -0.365158 0.262848 -0.893068
vn -0.570329 0.706133 0.419644
usemtl datan_common_acppw10_9f8ce065
f 1/1/1 2/2/2 3/3/3
f 4/4/4 3/3/3 2/2/2
f 5/5/5 6/6/6 7/7/7
f 8/8/8 9/9/9 10/10/10
f 11/11/11 12/12/12 6/6/6
f 12/12/12 13/13/13 8/8/8
f 13/13/13 14/14/14 9/9/9
f 11/11/11 4/4/4 12/12/12
f 2/2/2 4/4/4 11/11/11
f 6/6/6 5/5/5 11/11/11
f 12/12/12 3/3/3 13/13/13
f 4/4/4 3/3/3 12/12/12
f 8/8/8 7/7/7 12/12/12
f 13/13/13 1/1/1 14/14/14
f 3/3/3 1/1/1 13/13/13
f 9/9/9 8/8/8 13/13/13
f 8/8/8 10/10/10 7/7/7
f 7/7/7 10/10/10 5/5/5
f 7/7/7 6/6/6 12/12/12
f 15/15/15 16/16/16 17/17/17
f 17/17/17 18/18/18 15/15/15
f 19/19/19 20/20/20 21/21/21
f 22/22/22 21/21/21 20/20/20
f 23/23/23 24/24/24 25/25/25
f 26/26/26 23/23/23 21/21/21
f 27/27/27 26/26/26 22/22/22
f 18/18/18 24/24/24 23/23/23
f 18/18/18 15/15/15 24/24/24
f 28/28/28 25/25/25 24/24/24
