# Generated from Nova1492 GX by tools/nova1492/GxObjConverter
mtllib datan_common_acphp210_a095caa5.mtl
o datan_common_acphp210_a095caa5
v -0.300239 -0.015318 0.216307
v -0.300239 -0.015318 -0.216307
v 0.300238 -0.015318 -0.216307
v 0.300238 -0.015318 0.216307
v -0.236409 0.305003 0.103004
v 0.236408 0.305003 0.103004
v 0.236408 0.305003 -0.103004
v -0.236409 0.305003 -0.103004
v 0.34677 0 0.300466
v -0.346771 0 0.300466
v 0.262704 -0.17916 0.147073
v -0.262705 -0.17916 0.147073
v 0.475074 0 0
v 0.328358 -0.17916 0
v -0.346771 0 -0.300466
v 0.34677 0 -0.300466
v -0.262705 -0.17916 -0.147073
v 0.262704 -0.17916 -0.147073
v -0.328183 -0.17916 0
v -0.475075 0 0
vt 0.023765 0.546781
vt 0.023765 0.953219
vt 0.976235 0.953219
vt 0.976235 0.546781
vt 0.12664 0.66125
vt 0.87336 0.66125
vt 0.87336 0.83875
vt 0.12664 0.869375
vt 0.845549 0.453219
vt 0.154451 0.453219
vt 0.759923 0.046781
vt 0.240077 0.046781
vt 0.976235 0.453219
vt 0.842108 0.046781
vt 0.154451 0.453219
vt 0.845549 0.453219
vt 0.240077 0.046781
vt 0.759923 0.046781
vt 0.158071 0.046781
vt 0.023765 0.453219
vn -0.406829 -0.471919 0.782165
vn -0.89415 -0.12567 -0.429771
vn 0.406829 -0.471919 -0.782165
vn 0.89415 -0.12567 0.429771
vn -0.562527 0.781319 0.270377
vn 0.347053 0.659049 0.66724
vn 0.562527 0.781319 -0.270377
vn -0.347053 0.659049 -0.66724
vn 0.24062 0.904029 0.353317
vn -0.336074 -0.419117 0.843443
vn 0.403897 -0.693618 0.596458
vn -0.531959 -0.676977 0.508647
vn 0.899912 -0.436072 0
vn 0.77368 -0.633577 -0
vn -0.488707 0.496205 -0.717597
vn 0.369765 0.045766 -0.927998
vn -0.403885 -0.693822 -0.596228
vn 0.531978 -0.676723 -0.508965
vn -0.773307 -0.634032 0
vn -0.989968 -0.141295 0
usemtl datan_common_acphp210_a095caa5
f 1/1/1 2/2/2 3/3/3
f 3/3/3 4/4/4 1/1/1
f 5/5/5 6/6/6 7/7/7
f 7/7/7 8/8/8 5/5/5
f 1/1/1 4/4/4 6/6/6
f 6/6/6 5/5/5 1/1/1
f 4/4/4 3/3/3 7/7/7
f 7/7/7 6/6/6 4/4/4
f 3/3/3 2/2/2 8/8/8
f 8/8/8 7/7/7 3/3/3
f 2/2/2 1/1/1 5/5/5
f 5/5/5 8/8/8 2/2/2
f 9/9/9 10/10/10 11/11/11
f 12/12/12 11/11/11 10/10/10
f 13/13/13 11/11/11 14/14/14
f 15/15/15 16/16/16 17/17/17
f 18/18/18 17/17/17 16/16/16
f 17/17/17 19/19/19 20/20/20
