# Generated from Nova1492 GX by tools/nova1492/GxObjConverter
mtllib datan_common_acphp150_d10da730.mtl
o datan_common_acphp150_d10da730_mesh00
v -0.34677 -0 0.300466
v 0.34677 -0 0.300466
v 0.262705 0.364934 0.147073
v -0.262705 0.364934 0.147073
v 0.475075 -0 0
v 0.262705 0.364934 -0.147073
v 0.34677 -0 -0.300466
v -0.34677 -0 -0.300466
v -0.262705 0.364934 -0.147073
v -0.475075 -0 0
vt 0.788613 0.505879
vt 0.961387 0.505879
vt 0.939981 0.531934
vt 0.810019 0.535762
vt 0.994059 0.564414
vt 0.943809 0.589238
vt 0.961387 0.619121
vt 0.788613 0.619121
vt 0.810019 0.593066
vt 0.755941 0.564414
vn -0.327569 0.429246 0.841693
vn 0.500964 0.430891 0.750579
vn 0.375982 0.791401 0.481998
vn -0.554697 0.721376 0.414641
vn 0.905936 0.423414 0
vn 0.554697 0.721376 -0.414641
vn 0.327569 0.429246 -0.841693
vn -0.500964 0.430891 -0.750579
vn -0.375982 0.791401 -0.481998
vn -0.905936 0.423414 0
usemtl datan_common_acphp150_d10da730
f 1/1/1 2/2/2 3/3/3
f 3/3/3 4/4/4 1/1/1
f 3/3/3 5/5/5 6/6/6
f 7/7/7 8/8/8 9/9/9
f 9/9/9 6/6/6 7/7/7
f 4/4/4 9/9/9 10/10/10
f 9/9/9 3/3/3 6/6/6
f 4/4/4 3/3/3 9/9/9
f 5/5/5 7/7/7 6/6/6
f 5/5/5 3/3/3 2/2/2
f 10/10/10 1/1/1 4/4/4
f 10/10/10 9/9/9 8/8/8
o datan_common_acphp150_d10da730_mesh01
v -0.300238 -0.015318 0.216307
v -0.300238 -0.015318 -0.216307
v 0.30024 -0.015318 -0.216307
v 0.30024 -0.015318 0.216307
v -0.236408 0.305003 0.103004
v 0.236409 0.305003 0.103004
v 0.236409 0.305003 -0.103004
v -0.236408 0.305003 -0.103004
v 0.346771 0 0.300466
v -0.346769 0 0.300466
v 0.262706 -0.17916 0.147073
v -0.262704 -0.17916 0.147073
v 0.475076 0 0
v 0.32836 -0.17916 0
v -0.346769 0 -0.300466
v 0.346771 0 -0.300466
v -0.262704 -0.17916 -0.147073
v 0.262706 -0.17916 -0.147073
v -0.328181 -0.17916 0
v -0.475074 0 0
vt 0.023765 0.546781
vt 0.023765 0.953219
vt 0.976235 0.953219
vt 0.976235 0.546781
vt 0.12664 0.66125
vt 0.87336 0.66125
vt 0.87336 0.83875
vt 0.12664 0.869375
vt 0.845549 0.453219
vt 0.154451 0.453219
vt 0.759923 0.046781
vt 0.240077 0.046781
vt 0.976235 0.453219
vt 0.842108 0.046781
vt 0.154451 0.453219
vt 0.845549 0.453219
vt 0.240077 0.046781
vt 0.759923 0.046781
vt 0.158071 0.046781
vt 0.023765 0.453219
vn -0.406829 -0.471919 0.782165
vn -0.89415 -0.12567 -0.429771
vn 0.406829 -0.471919 -0.782165
vn 0.89415 -0.12567 0.429771
vn -0.562527 0.781319 0.270377
vn 0.347053 0.659049 0.66724
vn 0.562527 0.781319 -0.270377
vn -0.347053 0.659049 -0.66724
vn 0.24062 0.904029 0.353317
vn -0.336074 -0.419117 0.843443
vn 0.403897 -0.693618 0.596458
vn -0.531959 -0.676977 0.508647
vn 0.899912 -0.436072 0
vn 0.77368 -0.633577 -0
vn -0.488707 0.496205 -0.717597
vn 0.369765 0.045766 -0.927998
vn -0.403885 -0.693822 -0.596228
vn 0.531978 -0.676723 -0.508965
vn -0.773307 -0.634032 0
vn -0.989968 -0.141295 0
usemtl datan_common_acphp150_d10da730
f 11/11/11 12/12/12 13/13/13
f 13/13/13 14/14/14 11/11/11
f 15/15/15 16/16/16 17/17/17
f 17/17/17 18/18/18 15/15/15
f 11/11/11 14/14/14 16/16/16
f 16/16/16 15/15/15 11/11/11
f 14/14/14 13/13/13 17/17/17
f 17/17/17 16/16/16 14/14/14
f 13/13/13 12/12/12 18/18/18
f 18/18/18 17/17/17 13/13/13
f 12/12/12 11/11/11 15/15/15
f 15/15/15 18/18/18 12/12/12
f 19/19/19 20/20/20 21/21/21
f 22/22/22 21/21/21 20/20/20
f 23/23/23 21/21/21 24/24/24
f 25/25/25 26/26/26 27/27/27
f 28/28/28 27/27/27 26/26/26
f 27/27/27 29/29/29 30/30/30
f 26/26/26 23/23/23 28/28/28
f 21/21/21 23/23/23 19/19/19
f 20/20/20 30/30/30 22/22/22
f 27/27/27 30/30/30 25/25/25
f 29/29/29 22/22/22 30/30/30
f 23/23/23 24/24/24 28/28/28
f 19/19/19 23/23/23 26/26/26
f 19/19/19 26/26/26 25/25/25
f 19/19/19 25/25/25 30/30/30
f 19/19/19 30/30/30 20/20/20
o datan_common_acphp150_d10da730_mesh02
v -0.236409 0.341685 0.115364
v 0.236409 0.341685 0.115364
v 0.236409 0.341685 -0.115364
v -0.236409 0.341685 -0.115364
v -0.300239 0.021363 0.242264
v 0.300239 0.021363 0.242264
v 0.300239 0.021363 -0.242264
v -0.300239 0.021363 -0.242264
vt 0.53166 0.66154
vt 0.71834 0.66154
vt 0.71834 0.71346
vt 0.53166 0.71346
vt 0.505941 0.630879
vt 0.744059 0.630879
vt 0.744059 0.744121
vt 0.505941 0.744121
vn 0 0.930846 0.365411
vn 0 0.682568 0.730822
vn 0 0.930846 -0.365411
vn 0 0.682568 -0.730822
vn 0 0.368315 0.929701
vn 0 0.368315 0.929701
vn 0 0.368315 -0.929701
vn 0 0.368315 -0.929701
usemtl datan_common_acphp150_d10da730
f 31/31/31 32/32/32 33/33/33
f 33/33/33 34/34/34 31/31/31
f 35/35/35 36/36/36 32/32/32
f 32/32/32 31/31/31 35/35/35
f 37/37/37 38/38/38 34/34/34
f 34/34/34 33/33/33 37/37/37
