# Generated from Nova1492 GX by tools/nova1492/GxObjConverter
mtllib datan_common_AcpUnique05_85347eac.mtl
o datan_common_AcpUnique05_85347eac
v -0.146072 0.018529 0.19211
v 0.146072 0.018529 0.19211
v 0.146072 0.229751 0.113272
v -0.146072 0.229751 0.113272
v 0.146072 0.018529 -0.19211
v -0.146072 0.018529 -0.19211
v -0.146072 0.229751 -0.113272
v 0.146072 0.229751 -0.113272
v -0.146072 0.229751 0.113272
v 0.146072 0.229751 0.113272
v 0.146072 0.229751 -0.113272
v -0.146072 0.229751 -0.113272
v 0.496212 0.259934 -0
v 0.348595 0.259934 -0.218944
v 0.120215 0.259934 -0.218944
v 0.120215 0.259934 0.218944
v 0.348595 0.259934 0.218944
v 0.120215 0.259934 0.218944
v 0.496212 0.259934 -0
v 0.348595 0.259934 -0.218944
v 0.120215 0.259934 -0.218944
v 0.348595 0.259934 0.218944
v 0.120215 -0 0.218944
v 0.348595 -0 0.218944
v 0.348595 0.259934 0.218944
v 0.120215 0.259934 0.218944
v 0.495807 -0 -0
v 0.348595 -0 -0.218944
v 0.348595 0.259934 -0.218944
v 0.496212 0.259934 -0
v 0.348595 -0 -0.218944
v 0.120215 -0 -0.218944
v 0.120215 0.259934 -0.218944
v 0.348595 0.259934 -0.218944
v 0.120215 -0 0.218944
v 0.120215 0.259934 0.218944
v -0.496212 0.259934 -0
v -0.120215 0.259934 0.218944
v -0.348595 0.259934 -0.218944
v -0.120215 0.259934 -0.218944
v -0.348595 0.259934 0.218944
v -0.348595 -0 0.218944
v -0.120215 -0 0.218944
v -0.348595 0.259934 0.218944
v -0.120215 0.259934 0.218944
v -0.348595 -0 -0.218944
v -0.495807 -0 -0
v -0.348595 0.259934 -0.218944
v -0.496212 0.259934 -0
v -0.120215 -0 -0.218944
v -0.348595 -0 -0.218944
v -0.120215 0.259934 -0.218944
v -0.348595 0.259934 -0.218944
v -0.120215 -0 0.218944
v -0.120215 0.259934 0.218944
v -0.348595 0.259934 0.218944
v -0.348595 -0 0.218944
vt 0.511758 0.023516
vt 0.738242 0.023515
vt 0.738242 0.476484
vt 0.511758 0.476485
vt 0.511641 0.023281
vt 0.738359 0.023281
vt 0.738359 0.476719
vt 0.511641 0.476719
vt 0.761641 0.023281
vt 0.988359 0.023281
vt 0.988359 0.476719
vt 0.761641 0.476719
vt 0.753828 0.984141
vt 0.988117 0.984141
vt 0.988117 0.976485
vt 0.511883 0.976485
vt 0.511883 0.976485
vt 0.011883 0.023765
vt 0.488117 0.5
vt 0.298141 0.976235
vt 0.011883 0.976235
vt 0.298141 0.023765
vt 0.511758 0.023515
vt 0.738242 0.023515
vt 0.738242 0.476485
vt 0.511758 0.476485
vt 0.621172 0.023515
vt 0.511758 0.023515
vt 0.511758 0.476485
vt 0.628828 0.476485
vt 0.738242 0.023515
vt 0.511758 0.023515
vt 0.511758 0.476485
vt 0.738242 0.476485
vt 0.738242 0.023515
vt 0.738242 0.476485
vt 0.488117 0.5
vt 0.011883 0.023765
vt 0.298141 0.976235
vt 0.011883 0.976235
vt 0.298141 0.023765
vt 0.511758 0.023515
vt 0.738242 0.023515
vt 0.511758 0.476485
vt 0.738242 0.476485
vt 0.511758 0.023515
vt 0.621172 0.023515
vt 0.511758 0.476485
vt 0.628828 0.476485
vt 0.511758 0.023515
vt 0.738242 0.023515
vt 0.511758 0.476485
vt 0.738242 0.476485
vt 0.738242 0.023515
vt 0.738242 0.476485
vt 0.738242 0.476485
vt 0.738242 0.023515
vn 0 0.349681 0.936869
vn 0 0.349681 0.936869
vn 0 0.349681 0.936869
vn 0 0.349681 0.936869
vn 0 0.349681 -0.936869
vn 0 0.349681 -0.936869
vn 0 0.349681 -0.936869
vn 0 0.349681 -0.936869
vn 0 1 0
vn 0 1 0
vn 0 1 0
vn 0 1 0
vn 0 0 0
vn 0 0 0
vn 0 0 0
vn 0 0 0
vn 0 0 0
vn 0 1 0
vn 0 1 0
vn 0 1 0
vn 0 1 0
vn 0 1 0
vn 0 0 1
vn 0.61682 -0.000481 0.787104
vn 0.308233 0 0.951311
vn 0 0 1
vn 0.97569 -0.001013 -0.219152
vn 0.829858 0 -0.557975
vn 0.829503 -0.000646 -0.558502
vn 0.975765 -0.001014 0.218818
vn 0 0 -1
vn -0.894427 0 -0.447214
vn -0.447214 0 -0.894427
vn 0 0 -1
vn -1 0 0
vn -1 0 0
vn 0 1 0
vn 0 1 0
vn 0 1 0
vn 0 1 0
vn 0 1 0
vn 0 0 1
vn 0 0 1
vn 0 0 1
vn 0 0 1
vn -0.829858 0 -0.557975
vn -0.97569 -0.001013 -0.219152
vn -0.829503 -0.000646 -0.558502
vn -0.975765 -0.001014 0.218818
vn 0.894427 0 -0.447214
vn 0 0 -1
vn 0.447214 0 -0.894427
vn 0 0 -1
vn 1 0 0
vn 1 0 0
vn -0.829147 0 0.55903
vn -0.829503 -0.000646 0.558502
usemtl datan_common_AcpUnique05_85347eac
f 1/1/1 2/2/2 3/3/3
f 3/3/3 4/4/4 1/1/1
f 5/5/5 6/6/6 7/7/7
f 7/7/7 8/8/8 5/5/5
f 9/9/9 10/10/10 11/11/11
f 11/11/11 12/12/12 9/9/9
f 13/13/13 14/14/14 14/14/14
f 14/14/14 13/13/13 13/13/13
f 14/14/14 15/15/15 15/15/15
f 15/15/15 14/14/14 14/14/14
f 15/15/15 16/16/16 16/16/16
f 16/16/16 15/15/15 15/15/15
f 16/16/16 17/17/17 17/17/17
f 17/17/17 16/16/16 16/16/16
f 17/17/17 13/13/13 13/13/13
f 13/13/13 17/17/17 17/17/17
f 18/18/18 19/19/19 20/20/20
f 20/20/20 21/21/21 18/18/18
f 18/18/18 22/22/22 19/19/19
f 23/23/23 24/24/24 25/25/25
f 25/25/25 26/26/26 23/23/23
f 27/27/27 28/28/28 29/29/29
f 29/29/29 30/30/30 27/27/27
f 31/31/31 32/32/32 33/33/33
f 33/33/33 34/34/34 31/31/31
f 32/32/32 35/35/35 36/36/36
f 36/36/36 33/33/33 32/32/32
f 30/30/30 25/25/25 24/24/24
f 24/24/24 27/27/27 30/30/30
f 37/37/37 38/38/38 39/39/39
f 40/40/40 39/39/39 38/38/38
f 41/41/41 38/38/38 37/37/37
f 42/42/42 43/43/43 44/44/44
f 45/45/45 44/44/44 43/43/43
f 46/46/46 47/47/47 48/48/48
f 49/49/49 48/48/48 47/47/47
f 50/50/50 51/51/51 52/52/52
f 53/53/53 52/52/52 51/51/51
f 54/54/54 50/50/50 55/55/55
f 52/52/52 55/55/55 50/50/50
f 56/56/56 49/49/49 57/57/57
