# Generated from Nova1492 GX by tools/nova1492/GxObjConverter
mtllib datan_common_cap_adbed0e9.mtl
o datan_common_cap_adbed0e9
v -0.008205 0.566501 -0.392706
v 0.071112 -0.265433 -0.392706
v 0.029725 -0.386745 -0.392706
v -0.658062 0.911205 -0.392706
v -0.526778 0.566501 -0.392706
v -1.051915 0.235924 -0.392706
v 0.131032 -0.173657 -0.392706
v 0.526778 0.679519 -0.392706
v 0.914066 0.911205 -0.392706
v -1.055197 -0.792537 -0.392706
v -0.300313 -0.577803 -0.392706
v 0.203108 -0.108733 -0.392706
v 0.379083 0.442182 -0.392706
v 0.280966 -0.067974 -0.392706
v 0.045424 -0.491813 -0.392706
v 0.35823 -0.048697 -0.392706
v -0.278283 -0.625707 -0.392706
v 0.428523 -0.048218 -0.392706
v 0.085146 -0.561082 -0.392706
v -0.249775 -0.684205 -0.392706
v -0.209859 -0.746886 -0.392706
v -0.153605 -0.807338 -0.392706
v -0.076086 -0.85915 -0.392706
v 0.142951 -0.59865 -0.392706
v 0.027627 -0.895909 -0.392706
v 0.162464 -0.911206 -0.392706
v 0.212901 -0.608616 -0.392706
v 0.314592 -0.89274 -0.392706
v 0.289055 -0.595077 -0.392706
v 0.482243 -0.833024 -0.392706
v 0.365473 -0.562131 -0.392706
v 0.651185 -0.733862 -0.392706
v 0.436216 -0.513878 -0.392706
v 0.807183 -0.597057 -0.392706
v 0.506203 -0.440422 -0.392706
v 0.936007 -0.424411 -0.392706
v 0.551972 -0.362881 -0.392706
v 0.575463 -0.285538 -0.392706
v 1.023422 -0.217727 -0.392706
v 0.578617 -0.212679 -0.392706
v 1.055197 0.021191 -0.392706
v 0.563376 -0.148588 -0.392706
v 0.53168 -0.09755 -0.392706
v 1.036705 0.177676 -0.392706
v 0.981739 0.304133 -0.392706
v 0.485471 -0.06385 -0.392706
v 0.896563 0.39931 -0.392706
v 0.787444 0.461955 -0.392706
v 0.660647 0.490816 -0.392706
v 0.522438 0.484643 -0.392706
v -0.008205 0.566501 0.392706
v 0.029725 -0.386745 0.392706
v 0.071112 -0.265433 0.392706
v -0.658062 0.911205 0.392706
v -1.051915 0.235924 0.392706
v -0.526778 0.566501 0.392706
v 0.131032 -0.173658 0.392706
v 0.526778 0.679519 0.392706
v 0.914066 0.911205 0.392706
v -1.055197 -0.792537 0.392706
v -0.300313 -0.577803 0.392706
v 0.203108 -0.108733 0.392706
v 0.379083 0.442182 0.392706
v 0.280966 -0.067974 0.392706
v 0.045424 -0.491813 0.392706
v 0.35823 -0.048697 0.392706
v -0.278283 -0.625707 0.392706
v 0.428523 -0.048218 0.392706
v 0.085146 -0.561082 0.392706
v -0.249775 -0.684205 0.392706
v -0.209859 -0.746886 0.392706
v -0.153605 -0.807338 0.392706
v -0.076086 -0.85915 0.392706
v 0.142951 -0.59865 0.392706
v 0.027627 -0.895909 0.392706
v 0.162464 -0.911206 0.392706
v 0.212901 -0.608616 0.392706
v 0.314592 -0.89274 0.392706
v 0.289055 -0.595077 0.392706
v 0.482243 -0.833025 0.392706
v 0.365473 -0.562131 0.392706
v 0.651185 -0.733862 0.392706
v 0.436216 -0.513878 0.392706
v 0.807183 -0.597057 0.392706
v 0.506203 -0.440422 0.392706
v 0.936007 -0.424411 0.392706
v 0.551972 -0.362881 0.392706
v 0.575463 -0.285538 0.392706
v 1.023422 -0.217727 0.392706
v 0.578617 -0.212679 0.392706
v 1.055197 0.021191 0.392706
v 0.563376 -0.148588 0.392706
v 0.53168 -0.09755 0.392706
v 1.036705 0.177676 0.392706
v 0.981739 0.304133 0.392706
v 0.485471 -0.06385 0.392706
v 0.896563 0.39931 0.392706
v 0.787444 0.461955 0.392706
v 0.660647 0.490816 0.392706
v 0.522438 0.484643 0.392706
vt 0.746144 0.907185
vt 0.764917 0.679162
vt 0.755121 0.645912
vt 0.592332 1.001664
vt 0.623405 0.907185
vt 0.499113 0.816578
vt 0.779099 0.704317
vt 0.872767 0.938162
vt 0.964433 1.001664
vt 0.498336 0.53469
vt 0.677006 0.593545
vt 0.796159 0.722112
vt 0.83781 0.873111
vt 0.814587 0.733283
vt 0.758837 0.617114
vt 0.832874 0.738567
vt 0.68222 0.580416
vt 0.849511 0.738698
vt 0.768239 0.598128
vt 0.688968 0.564382
vt 0.698415 0.547202
vt 0.71173 0.530633
vt 0.730077 0.516432
vt 0.781921 0.587831
vt 0.754625 0.506356
vt 0.786539 0.502164
vt 0.798477 0.5851
vt 0.822546 0.507225
vt 0.816501 0.588811
vt 0.862226 0.523592
vt 0.834588 0.597841
vt 0.902212 0.550771
vt 0.851332 0.611067
vt 0.939135 0.588268
vt 0.867897 0.6312
vt 0.969626 0.635588
vt 0.87873 0.652453
vt 0.88429 0.673652
vt 0.990316 0.692238
vt 0.885037 0.693621
vt 0.997836 0.757722
vt 0.881429 0.711188
vt 0.873927 0.725177
vt 0.99346 0.800613
vt 0.98045 0.835273
vt 0.86299 0.734414
vt 0.96029 0.86136
vt 0.934463 0.87853
vt 0.904452 0.886441
vt 0.87174 0.884749
vt 0.746144 0.907185
vt 0.755121 0.645912
vt 0.764917 0.679162
vt 0.592332 1.001664
vt 0.499113 0.816578
vt 0.623405 0.907185
vt 0.779099 0.704317
vt 0.872767 0.938162
vt 0.964433 1.001664
vt 0.498336 0.53469
vt 0.677006 0.593545
vt 0.796159 0.722112
vt 0.83781 0.873111
vt 0.814587 0.733283
vt 0.758837 0.617114
vt 0.832874 0.738567
vt 0.68222 0.580416
vt 0.849511 0.738698
vt 0.768239 0.598128
vt 0.688968 0.564382
vt 0.698415 0.547202
vt 0.71173 0.530633
vt 0.730077 0.516432
vt 0.781921 0.587831
vt 0.754625 0.506356
vt 0.786539 0.502164
vt 0.798477 0.5851
vt 0.822546 0.507225
vt 0.816501 0.588811
vt 0.862226 0.523592
vt 0.834588 0.597841
vt 0.902212 0.550771
vt 0.851332 0.611067
vt 0.939135 0.588268
vt 0.867897 0.6312
vt 0.969626 0.635588
vt 0.87873 0.652453
vt 0.88429 0.673652
vt 0.990316 0.692238
vt 0.885037 0.693621
vt 0.997836 0.757722
vt 0.881429 0.711188
vt 0.873927 0.725177
vt 0.99346 0.800613
vt 0.98045 0.835273
vt 0.86299 0.734414
vt 0.96029 0.86136
vt 0.934463 0.87853
vt 0.904452 0.886441
vt 0.87174 0.884749
vn -0 0 -1
vn 0.000001 0 -1
vn -0 0 -1
vn -0 0 -1
vn -0 0 -1
vn 0 -0 -1
vn 0 -0 -1
vn 0 0 -1
vn 0 0 -1
vn 0 0 -1
vn -0 0 -1
vn 0 0 -1
vn 0 0 -1
vn 0 0 -1
vn -0 0 -1
vn 0 -0 -1
vn -0 0 -1
vn 0 0 -1
vn -0 0 -1
vn -0 0 -1
vn -0 0 -1
vn -0 0 -1
vn -0 0 -1
vn -0 0 -1
vn -0 -0 -1
vn 0 -0 -1
vn -0 -0 -1
vn 0 -0 -1
vn -0 -0 -1
vn 0 -0 -1
vn -0 -0 -1
vn 0 -0 -1
vn -0 -0 -1
vn 0 -0 -1
vn 0 -0 -1
vn 0 -0 -1
vn -0 -0 -1
vn 0 -0 -1
vn 0 0 -1
vn -0 0.000001 -1
vn 0 0 -1
vn 0 -0 -1
vn 0 -0 -1
vn 0 0 -1
vn 0 0 -1
vn 0 0 -1
vn 0 0 -1
vn 0 0 -1
vn 0 0 -1
vn 0 0 -1
vn -0 -0 1
vn 0 0 1
vn 0 -0 1
vn 0 0 1
vn -0 -0 1
vn -0 0 1
vn 0 -0 1
vn 0 -0 1
vn 0 -0 1
vn -0 0 1
vn 0 0 1
vn 0 -0 1
vn -0 -0 1
vn 0 -0 1
vn 0 0 1
vn 0 -0 1
vn 0 0 1
vn -0 -0 1
vn 0 0 1
vn 0 0 1
vn 0 0 1
vn 0 0 1
vn 0 0 1
vn 0 0 1
vn 0 0 1
vn -0 0 1
vn 0 0 1
vn -0 0 1
vn 0 0 1
vn -0 0 1
vn 0 0 1
vn -0 0 1
vn 0 0 1
vn -0 0 1
vn -0 0 1
vn 0 -0 1
vn -0 -0 1
vn -0 0 1
vn -0 0 1
vn -0 0 1
vn 0 -0 1
vn -0 0 1
vn -0 0 1
vn 0 -0 1
vn 0 -0 1
vn -0 -0 1
vn -0 -0 1
vn -0 -0 1
vn 0 -0 1
vn 0 -0 1
usemtl datan_common_cap_adbed0e9
f 1/1/1 2/2/2 3/3/3
f 4/4/4 5/5/5 6/6/6
f 1/1/1 7/7/7 2/2/2
f 8/8/8 4/4/4 9/9/9
f 3/3/3 10/10/10 1/1/1
f 3/3/3 11/11/11 10/10/10
f 1/1/1 12/12/12 7/7/7
f 8/8/8 5/5/5 4/4/4
f 8/8/8 1/1/1 5/5/5
f 13/13/13 1/1/1 8/8/8
f 13/13/13 12/12/12 1/1/1
f 13/13/13 14/14/14 12/12/12
f 15/15/15 11/11/11 3/3/3
f 13/13/13 16/16/16 14/14/14
f 15/15/15 17/17/17 11/11/11
f 13/13/13 18/18/18 16/16/16
f 19/19/19 17/17/17 15/15/15
f 19/19/19 20/20/20 17/17/17
f 19/19/19 21/21/21 20/20/20
f 19/19/19 22/22/22 21/21/21
f 19/19/19 23/23/23 22/22/22
f 24/24/24 23/23/23 19/19/19
f 24/24/24 25/25/25 23/23/23
f 24/24/24 26/26/26 25/25/25
f 27/27/27 26/26/26 24/24/24
f 27/27/27 28/28/28 26/26/26
f 29/29/29 28/28/28 27/27/27
f 29/29/29 30/30/30 28/28/28
f 31/31/31 30/30/30 29/29/29
f 31/31/31 32/32/32 30/30/30
f 33/33/33 32/32/32 31/31/31
f 33/33/33 34/34/34 32/32/32
f 35/35/35 34/34/34 33/33/33
f 35/35/35 36/36/36 34/34/34
f 37/37/37 36/36/36 35/35/35
f 38/38/38 36/36/36 37/37/37
f 38/38/38 39/39/39 36/36/36
f 40/40/40 39/39/39 38/38/38
f 40/40/40 41/41/41 39/39/39
f 42/42/42 41/41/41 40/40/40
f 43/43/43 41/41/41 42/42/42
f 43/43/43 44/44/44 41/41/41
f 43/43/43 45/45/45 44/44/44
f 46/46/46 45/45/45 43/43/43
f 46/46/46 47/47/47 45/45/45
f 46/46/46 48/48/48 47/47/47
f 46/46/46 49/49/49 48/48/48
f 46/46/46 50/50/50 49/49/49
f 46/46/46 13/13/13 50/50/50
f 46/46/46 18/18/18 13/13/13
f 51/51/51 52/52/52 53/53/53
f 54/54/54 55/55/55 56/56/56
f 51/51/51 53/53/53 57/57/57
f 58/58/58 59/59/59 54/54/54
f 52/52/52 51/51/51 60/60/60
f 52/52/52 60/60/60 61/61/61
f 51/51/51 57/57/57 62/62/62
f 58/58/58 54/54/54 56/56/56
f 58/58/58 56/56/56 51/51/51
f 63/63/63 58/58/58 51/51/51
f 63/63/63 51/51/51 62/62/62
f 63/63/63 62/62/62 64/64/64
f 65/65/65 52/52/52 61/61/61
f 63/63/63 64/64/64 66/66/66
f 65/65/65 61/61/61 67/67/67
f 63/63/63 66/66/66 68/68/68
f 69/69/69 65/65/65 67/67/67
f 69/69/69 67/67/67 70/70/70
f 69/69/69 70/70/70 71/71/71
f 69/69/69 71/71/71 72/72/72
f 69/69/69 72/72/72 73/73/73
f 74/74/74 69/69/69 73/73/73
f 74/74/74 73/73/73 75/75/75
f 74/74/74 75/75/75 76/76/76
f 77/77/77 74/74/74 76/76/76
f 77/77/77 76/76/76 78/78/78
f 79/79/79 77/77/77 78/78/78
f 79/79/79 78/78/78 80/80/80
f 81/81/81 79/79/79 80/80/80
f 81/81/81 80/80/80 82/82/82
f 83/83/83 81/81/81 82/82/82
f 83/83/83 82/82/82 84/84/84
f 85/85/85 83/83/83 84/84/84
f 85/85/85 84/84/84 86/86/86
f 87/87/87 85/85/85 86/86/86
f 88/88/88 87/87/87 86/86/86
f 88/88/88 86/86/86 89/89/89
f 90/90/90 88/88/88 89/89/89
f 90/90/90 89/89/89 91/91/91
f 92/92/92 90/90/90 91/91/91
f 93/93/93 92/92/92 91/91/91
f 93/93/93 91/91/91 94/94/94
f 93/93/93 94/94/94 95/95/95
f 96/96/96 93/93/93 95/95/95
f 96/96/96 95/95/95 97/97/97
f 96/96/96 97/97/97 98/98/98
f 96/96/96 98/98/98 99/99/99
f 96/96/96 99/99/99 100/100/100
