# Generated from Nova1492 GX by tools/nova1492/GxObjConverter
mtllib datan_common_AcpUnique10_2a0539ff.mtl
o datan_common_AcpUnique10_2a0539ff_mesh00
v 0.26087 0 -0
v 0.107797 0.135251 -0.18671
v 0.215595 0.188181 0
v 0.130435 0 -0.22592
v -0.107797 0.135251 -0.18671
v -0.130435 0 -0.22592
v -0.215595 0.188181 0
v -0.26087 0 0
v -0.107797 0.135251 0.18671
v -0.130435 0 0.22592
v 0.107797 0.135251 0.18671
v 0.130435 0 0.22592
v 0 0.19268 0
v 0.142714 0.164513 0
v 0.071357 0.130049 -0.123594
v -0.071357 0.130049 -0.123594
v -0.142714 0.164513 0
v -0.071357 0.130049 0.123594
v 0.071357 0.130049 0.123594
v 0.119034 0.091239 -0.158964
v 0.202957 0.100467 -0.013606
v 0.249259 0.061052 -0.209293
v 0.305375 0.065592 -0.112098
v 0.263484 0.00694 -0.217506
v 0.119034 0.037391 -0.158964
v 0.119034 0.091239 -0.158964
v 0.319599 0.00694 -0.12031
v 0.263484 0.00694 -0.217506
v 0.305375 0.065592 -0.112098
v 0.249259 0.061052 -0.209293
v 0.202957 0.037391 -0.013606
v 0.202957 0.100467 -0.013606
v 0.319599 0.00694 -0.12031
v -0.202957 0.100467 -0.013606
v -0.119034 0.091239 -0.158964
v -0.249259 0.061052 -0.209293
v -0.305375 0.065592 -0.112098
v -0.119034 0.037391 -0.158964
v -0.263484 0.00694 -0.217506
v -0.119034 0.091239 -0.158964
v -0.263484 0.00694 -0.217506
v -0.319599 0.00694 -0.12031
v -0.305375 0.065592 -0.112098
v -0.249259 0.061052 -0.209293
v -0.202957 0.037391 -0.013606
v -0.202957 0.100467 -0.013606
v -0.319599 0.00694 -0.12031
vt 0.488117 0.507656
vt 0.353806 0.892254
vt 0.446127 0.507656
vt 0.367145 0.976235
vt 0.153851 0.907566
vt 0.132855 0.976235
vt 0.053873 0.507656
vt 0.011883 0.507656
vt 0.146194 0.107746
vt 0.125199 0.023765
vt 0.346149 0.092434
vt 0.367145 0.023765
vt 0.253828 0.507656
vt 0.378533 0.507656
vt 0.316181 0.757066
vt 0.179991 0.757066
vt 0.113811 0.507656
vt 0.179991 0.242934
vt 0.312352 0.242934
vt 0.988359 0.023281
vt 0.511641 0.023281
vt 0.988359 0.976719
vt 0.511641 0.976719
vt 0.988359 0.023281
vt 0.511641 0.023281
vt 0.511641 0.976719
vt 0.988359 0.023281
vt 0.511641 0.023281
vt 0.988359 0.976719
vt 0.511641 0.976719
vt 0.988359 0.023281
vt 0.988359 0.976719
vt 0.511641 0.023281
vt 0.511641 0.023281
vt 0.988359 0.023281
vt 0.988359 0.976719
vt 0.511641 0.976719
vt 0.511641 0.023281
vt 0.988359 0.023281
vt 0.511641 0.976719
vt 0.511641 0.023281
vt 0.988359 0.023281
vt 0.988359 0.976719
vt 0.511641 0.976719
vt 0.988359 0.023281
vt 0.988359 0.976719
vt 0.511641 0.023281
vn 0.945982 0.257193 -0.197409
vn 0.309726 0.845368 -0.435227
vn 0.398718 0.911093 0.104559
vn 0.310958 0.312277 -0.897657
vn -0.041125 0.824283 -0.564683
vn -0.609366 0.286632 -0.739267
vn -0.398718 0.911093 -0.104559
vn -0.945982 0.257193 0.197409
vn -0.309726 0.845368 0.435227
vn -0.310957 0.312277 0.897657
vn 0.041125 0.824283 0.564683
vn 0.609366 0.286632 0.739267
vn 0 1 -0
vn -0.117054 0.992909 0.020746
vn -0.088979 0.977822 -0.1896
vn 0.024242 0.987774 -0.153996
vn 0.117054 0.992909 -0.020746
vn 0.088979 0.977822 0.1896
vn -0.024242 0.987774 0.153996
vn 0.165003 0.973704 -0.157081
vn 0.174794 0.972407 -0.154503
vn -0.12736 0.670087 -0.731275
vn 0.685106 0.45428 0.569438
vn -0.367158 0.044493 -0.929094
vn -0.363917 0.022252 -0.931166
vn -0.360491 -0 -0.932763
vn 0.83394 0.269675 -0.481476
vn 0.828412 0.280077 -0.485067
vn 0.828412 0.280077 -0.485067
vn 0.822759 0.290437 -0.488584
vn 0.688242 0.031822 0.724783
vn 0.69316 0 0.720784
vn 0.682601 0.063611 0.728018
vn -0.174794 0.972407 -0.154503
vn -0.165003 0.973704 -0.157081
vn 0.12736 0.670087 -0.731275
vn -0.685106 0.45428 0.569438
vn 0.363917 0.022252 -0.931166
vn 0.367158 0.044493 -0.929094
vn 0.360491 0 -0.932763
vn -0.828412 0.280077 -0.485067
vn -0.83394 0.269675 -0.481476
vn -0.828412 0.280077 -0.485067
vn -0.822759 0.290437 -0.488584
vn -0.688242 0.031822 0.724783
vn -0.69316 0 0.720784
vn -0.682601 0.063611 0.728018
usemtl datan_common_AcpUnique10_2a0539ff
f 1/1/1 2/2/2 3/3/3
f 1/1/1 4/4/4 2/2/2
f 4/4/4 5/5/5 2/2/2
f 4/4/4 6/6/6 5/5/5
f 6/6/6 7/7/7 5/5/5
f 6/6/6 8/8/8 7/7/7
f 8/8/8 9/9/9 7/7/7
f 8/8/8 10/10/10 9/9/9
f 10/10/10 11/11/11 9/9/9
f 10/10/10 12/12/12 11/11/11
f 12/12/12 3/3/3 11/11/11
f 12/12/12 1/1/1 3/3/3
f 13/13/13 14/14/14 15/15/15
f 13/13/13 15/15/15 16/16/16
f 13/13/13 16/16/16 17/17/17
f 13/13/13 17/17/17 18/18/18
f 13/13/13 18/18/18 19/19/19
f 13/13/13 19/19/19 14/14/14
f 3/3/3 2/2/2 15/15/15
f 15/15/15 14/14/14 3/3/3
f 2/2/2 5/5/5 16/16/16
f 16/16/16 15/15/15 2/2/2
f 5/5/5 7/7/7 17/17/17
f 17/17/17 16/16/16 5/5/5
f 7/7/7 9/9/9 18/18/18
f 18/18/18 17/17/17 7/7/7
f 9/9/9 11/11/11 19/19/19
f 19/19/19 18/18/18 9/9/9
f 11/11/11 3/3/3 14/14/14
f 14/14/14 19/19/19 11/11/11
f 20/20/20 21/21/21 22/22/22
f 23/23/23 22/22/22 21/21/21
f 24/24/24 25/25/25 22/22/22
f 26/26/26 22/22/22 25/25/25
f 27/27/27 28/28/28 29/29/29
f 30/30/30 29/29/29 28/28/28
f 31/31/31 23/23/23 32/32/32
f 23/23/23 31/31/31 33/33/33
f 34/34/34 35/35/35 36/36/36
f 36/36/36 37/37/37 34/34/34
f 38/38/38 39/39/39 36/36/36
f 36/36/36 40/40/40 38/38/38
f 41/41/41 42/42/42 43/43/43
f 43/43/43 44/44/44 41/41/41
f 37/37/37 45/45/45 46/46/46
f 45/45/45 37/37/37 47/47/47
o datan_common_AcpUnique10_2a0539ff_mesh01
v 0.215595 0.188181 0
v 0.107797 0.135251 -0.18671
v 0 0.229065 0
v -0.107797 0.135251 -0.18671
v -0.215595 0.188181 0
v -0.107797 0.135251 0.18671
v 0.107797 0.135251 0.18671
vt 0.366543 0.507656
vt 0.310186 0.733086
vt 0.253828 0.507656
vt 0.185986 0.733086
vt 0.125801 0.507656
vt 0.185986 0.266915
vt 0.306357 0.266915
vn 0.18631 0.982491 0
vn 0.087325 0.909449 -0.406543
vn 0 1 0
vn -0.087325 0.909449 -0.406543
vn -0.18631 0.982491 0
vn -0.087325 0.909449 0.406543
vn 0.087325 0.909449 0.406543
usemtl datan_common_AcpUnique10_2a0539ff
f 48/48/48 49/49/49 50/50/50
f 49/49/49 51/51/51 50/50/50
f 51/51/51 52/52/52 50/50/50
f 52/52/52 53/53/53 50/50/50
f 53/53/53 54/54/54 50/50/50
f 54/54/54 48/48/48 50/50/50
