# Generated from Nova1492 GX by tools/nova1492/GxObjConverter
mtllib datan_common_ap100-1_b74df4a3.mtl
o datan_common_ap100-1_b74df4a3_mesh00
v 0 0.984432 -0
v -0.927198 -0.303276 0.927198
v 0.927198 -0.303276 0.927198
v 0.927198 -0.303276 -0.927198
v -0.927198 -0.303276 -0.927198
v -0.927198 -0.303276 0.927198
v 0 0.984432 0
v 0.927198 -0.303276 0.927198
v 0.927198 -0.303276 -0.927198
v -0.927198 -0.303276 -0.927198
vt 0.875 0.123086
vt 0.755941 0.005941
vt 0.994059 0.005941
vt 0.994059 0.244059
vt 0.755941 0.244059
vt 0.755941 0.005941
vt 0.875 0.123086
vt 0.994059 0.005941
vt 0.994059 0.244059
vt 0.755941 0.244059
vn 0 1 0
vn -0.49545 0.713484 0.49545
vn 0.49545 0.713484 0.49545
vn 0.49545 0.713484 -0.49545
vn -0.49545 0.713484 -0.49545
vn 0.49545 -0.713484 -0.49545
vn 0 -1 -0
vn -0.49545 -0.713484 -0.49545
vn -0.49545 -0.713484 0.49545
vn 0.49545 -0.713484 0.49545
usemtl datan_common_ap100-1_b74df4a3
f 1/1/1 2/2/2 3/3/3
f 1/1/1 3/3/3 4/4/4
f 1/1/1 4/4/4 5/5/5
f 1/1/1 5/5/5 2/2/2
f 6/6/6 7/7/7 8/8/8
f 8/8/8 7/7/7 9/9/9
f 9/9/9 7/7/7 10/10/10
f 10/10/10 7/7/7 6/6/6
o datan_common_ap100-1_b74df4a3_mesh01
v 0.603167 -0 0.603166
v 0.603167 -0 -0.603167
v -0.603167 -0 0.603166
v -0.603167 -0.000001 -0.603167
v -0.603167 -0.000001 0.603166
v -0.603167 -0.000001 -0.603167
v 0.603167 -0.000001 0.603166
v 0.603167 -0.000001 -0.603167
v 0 0.603167 -0.603167
v 0 -0.603167 -0.603167
v 0 0.603167 0.603167
v 0 -0.603167 0.603167
v 0 0.603167 0.603167
v 0 -0.603167 0.603167
v 0 0.603167 -0.603167
v 0 -0.603167 -0.603167
v 0.603167 0.603167 -0
v 0.603167 -0.603167 -0
v -0.603167 0.603167 0
v -0.603167 -0.603167 0
v -0.603167 0.603167 0
v -0.603167 -0.603167 0
v 0.603167 0.603167 0
v 0.603167 -0.603167 0
vt 0.75582 0.49418
vt 0.75582 0.25582
vt 0.99418 0.49418
vt 0.99418 0.25582
vt 0.75582 0.49418
vt 0.75582 0.25582
vt 0.99418 0.49418
vt 0.99418 0.25582
vt 0.75582 0.49418
vt 0.75582 0.25582
vt 0.99418 0.49418
vt 0.99418 0.25582
vt 0.75582 0.49418
vt 0.75582 0.25582
vt 0.99418 0.49418
vt 0.99418 0.25582
vt 0.75582 0.49418
vt 0.75582 0.25582
vt 0.99418 0.49418
vt 0.99418 0.25582
vt 0.75582 0.49418
vt 0.75582 0.25582
vt 0.99418 0.49418
vt 0.99418 0.25582
vn -0 1 -0
vn -0 1 -0
vn -0 1 -0
vn -0 1 -0
vn 0 -1 0
vn 0 -1 0
vn 0 -1 0
vn 0 -1 0
vn -1 -0 0
vn -1 -0 0
vn -1 -0 0
vn -1 -0 0
vn 1 0 0
vn 1 0 0
vn 1 0 0
vn 1 0 0
vn -0 -0 -1
vn -0 -0 -1
vn -0 -0 -1
vn -0 -0 -1
vn 0 0 1
vn 0 0 1
vn 0 0 1
vn 0 0 1
usemtl datan_common_ap100-1_b74df4a3
f 11/11/11 12/12/12 13/13/13
f 14/14/14 13/13/13 12/12/12
f 15/15/15 16/16/16 17/17/17
f 18/18/18 17/17/17 16/16/16
f 19/19/19 20/20/20 21/21/21
f 22/22/22 21/21/21 20/20/20
f 23/23/23 24/24/24 25/25/25
f 26/26/26 25/25/25 24/24/24
f 27/27/27 28/28/28 29/29/29
f 30/30/30 29/29/29 28/28/28
f 31/31/31 32/32/32 33/33/33
f 34/34/34 33/33/33 32/32/32
o datan_common_ap100-1_b74df4a3_mesh02
v 0 0.984432 -0
v -0.927198 -0.501395 0.927198
v 0.927198 -0.501395 0.927198
v 0.927198 -0.501395 -0.927198
v -0.927198 -0.501395 -0.927198
v -0.927198 -0.501395 0.927198
v 0 0.984432 0
v 0.927198 -0.501395 0.927198
v 0.927198 -0.501395 -0.927198
v -0.927198 -0.501395 -0.927198
vt 0.625 0.123086
vt 0.505941 0.005941
vt 0.744059 0.005941
vt 0.744059 0.244059
vt 0.505941 0.244059
vt 0.505941 0.005941
vt 0.625 0.123086
vt 0.744059 0.005941
vt 0.744059 0.244059
vt 0.505941 0.244059
vn 0 1 -0
vn -0.530174 0.661687 0.530174
vn 0.530174 0.661687 0.530174
vn 0.530174 0.661687 -0.530174
vn -0.530174 0.661687 -0.530174
vn 0.530174 -0.661687 -0.530174
vn -0 -1 0
vn -0.530174 -0.661687 -0.530174
vn -0.530174 -0.661687 0.530174
vn 0.530174 -0.661687 0.530174
usemtl datan_common_ap100-1_b74df4a3
f 35/35/35 36/36/36 37/37/37
f 35/35/35 37/37/37 38/38/38
f 35/35/35 38/38/38 39/39/39
f 35/35/35 39/39/39 36/36/36
f 40/40/40 41/41/41 42/42/42
f 42/42/42 41/41/41 43/43/43
f 43/43/43 41/41/41 44/44/44
f 44/44/44 41/41/41 40/40/40
o datan_common_ap100-1_b74df4a3_mesh03
v 0 0.984432 -0
v -0.927198 -0.850827 0.927198
v 0.927198 -0.850827 0.927198
v 0.927198 -0.850827 -0.927198
v -0.927198 -0.850827 -0.927198
v -0.927198 -0.850827 0.927198
v 0 0.984432 0
v 0.927198 -0.850827 0.927198
v 0.927198 -0.850827 -0.927198
v -0.927198 -0.850827 -0.927198
vt 0.375 0.123086
vt 0.255941 0.005941
vt 0.494059 0.005941
vt 0.494059 0.244059
vt 0.255941 0.244059
vt 0.255941 0.005941
vt 0.375 0.123086
vt 0.494059 0.005941
vt 0.494059 0.244059
vt 0.255941 0.244059
vn 0 1 -0
vn -0.575344 0.581343 0.575344
vn 0.575344 0.581343 0.575344
vn 0.575344 0.581343 -0.575344
vn -0.575344 0.581343 -0.575344
vn 0.575344 -0.581343 -0.575344
vn 0 -1 0
vn -0.575344 -0.581343 -0.575344
vn -0.575344 -0.581343 0.575344
vn 0.575344 -0.581343 0.575344
usemtl datan_common_ap100-1_b74df4a3
f 45/45/45 46/46/46 47/47/47
f 45/45/45 47/47/47 48/48/48
f 45/45/45 48/48/48 49/49/49
f 45/45/45 49/49/49 46/46/46
f 50/50/50 51/51/51 52/52/52
f 52/52/52 51/51/51 53/53/53
f 53/53/53 51/51/51 54/54/54
f 54/54/54 51/51/51 50/50/50
