# Generated from Nova1492 GX by tools/nova1492/GxObjConverter
mtllib datan_common__01_LArm_2b6669b6.mtl
o datan_common__01_LArm_2b6669b6
v 0.712049 1.138419 -0.410804
v 0.712049 0.991682 -0.025081
v 0.712049 0.819783 0.219952
v 0.712049 0.617152 0.441237
v 0.712049 0.358478 0.605874
v 0.712049 0.069037 0.665737
v 0.712049 0.069037 -0.694654
v 0.712049 1.138592 -0.694654
v 0.712049 1.138592 -0.694654
v 0.712049 0.069037 -0.694654
v 0.644652 0.069037 -0.694654
v 0.424297 0.069037 -0.694654
v 0.424297 1.138592 -0.694654
v 0.712049 1.302023 -0.694543
v 0.424297 1.302023 -0.694543
v 0.424297 1.30185 -0.410694
v 0.712049 1.30185 -0.410694
v 0.712049 0.070481 0.846451
v 0.712049 0.38998 0.77472
v 0.424297 0.38998 0.77472
v 0.424297 0.070481 0.846452
v 0.712049 1.123141 0.077153
v 0.424297 1.123141 0.077153
v 0.424297 0.951242 0.322185
v 0.712049 0.951242 0.322185
v 0.712049 1.302023 -0.694543
v 0.712049 1.30185 -0.410694
v 0.712049 1.302023 -0.694543
v 0.424297 1.302023 -0.694543
v 0.712049 0.38998 0.77472
v 0.712049 0.070481 0.846451
v 0.712049 0.38998 0.77472
v 0.712049 0.358478 0.605874
v 0.644679 0.358478 0.605874
v 0.644672 0.381739 0.719425
v 0.644695 1.080549 0.04403
v 0.712049 1.123141 0.077153
v 0.712049 0.991682 -0.025081
v 0.644679 0.991682 -0.025081
v 0.712049 1.123141 0.077153
v 0.712049 0.951242 0.322185
v 0.644679 1.138419 -0.410804
v 0.644679 0.991682 -0.025081
v 0.712049 0.991682 -0.025081
v 0.712049 1.138419 -0.410804
v 0.644679 0.819783 0.219952
v 0.644679 0.617152 0.441237
v 0.712049 0.617152 0.441237
v 0.712049 0.819783 0.219952
v 0.644679 0.358478 0.605874
v 0.712049 0.358478 0.605874
v 0.802795 0.065638 0.25195
v 0.802925 0.065638 -0.694327
v 0.802919 0.532011 -0.694339
v 0.802926 0.531961 -0.510295
v 0.802929 0.447078 -0.147161
v 0.802788 0.224123 0.165974
v 0.710725 0.065766 -0.694202
v 0.710723 0.616684 -0.69498
v 0.710721 0.616724 -0.494538
v 0.710721 0.518919 -0.09303
v 0.710719 0.258178 0.281084
v 0.710723 0.065766 0.377417
v 0.424297 0.38998 0.77472
v 0.424307 0.380688 0.719357
v 0.644697 0.915242 0.294248
v 0.644679 0.819783 0.219952
v 0.712049 0.819783 0.219952
v 0.712049 0.951242 0.322185
v 0.712049 1.30185 -0.410694
v 0.644672 1.25373 -0.410726
v 0.644679 1.138419 -0.410804
v 0.712049 1.138419 -0.410804
v 0.424308 0.915226 0.294177
v 0.424297 0.951242 0.322185
v 0.424451 1.080549 0.04403
v 0.424297 1.123141 0.077153
v 0.42445 1.25373 -0.410726
v 0.424297 1.30185 -0.410694
v 0.644697 0.915242 0.294248
v 0.644679 0.694186 0.530143
v 0.644679 0.617152 0.441237
v 0.644679 0.819783 0.219952
v 0.644672 0.381739 0.719425
v 0.644679 0.358478 0.605874
v 0.644672 1.25373 -0.410726
v 0.644695 1.080549 0.04403
v 0.644679 0.991682 -0.025081
v 0.644679 1.138419 -0.410804
v 0.42445 1.25373 -0.410726
v 0.424451 1.080549 0.04403
v 0.424308 0.915226 0.294177
v 0.424317 0.694186 0.530143
v 0.424307 0.380688 0.719357
vt 0.418514 0.756213
vt 0.33542 0.723093
vt 0.280203 0.688123
vt 0.226508 0.638559
vt 0.193236 0.580175
vt 0.179746 0.518675
vt 0.482479 0.518675
vt 0.482479 0.756252
vt 0.183084 0.956197
vt 0.183084 0.79188
vt 0.189811 0.79188
vt 0.224323 0.79188
vt 0.224323 0.956197
vt 0.12401 0.983653
vt 0.00582 0.983653
vt 0.00582 0.922478
vt 0.12401 0.922478
vt 0.124731 0.518373
vt 0.12473 0.566173
vt 0.008941 0.566172
vt 0.008942 0.518372
vt 0.125216 0.784041
vt 0.008915 0.784041
vt 0.008915 0.72946
vt 0.125216 0.72946
vt 0.482454 0.796967
vt 0.418489 0.796928
vt 0.179256 0.98189
vt 0.224323 0.98189
vt 0.148622 0.585303
vt 0.135132 0.519975
vt 0.123951 0.569963
vt 0.123905 0.65952
vt 0.09776 0.659988
vt 0.093932 0.599126
vt 0.097746 0.814737
vt 0.124982 0.787945
vt 0.124982 0.839971
vt 0.093918 0.84298
vt 0.302945 0.758759
vt 0.247728 0.71996
vt 0.355235 0.980953
vt 0.355235 0.790805
vt 0.377653 0.790813
vt 0.377653 0.980953
vt 0.248603 0.98163
vt 0.248668 0.883113
vt 0.274731 0.883253
vt 0.275731 0.981623
vt 0.24484 0.790857
vt 0.274731 0.790853
vt 0.272992 0.517908
vt 0.482405 0.517907
vt 0.482408 0.619343
vt 0.440934 0.623159
vt 0.359102 0.604001
vt 0.288538 0.553678
vt 0.482377 0.517936
vt 0.482552 0.642282
vt 0.437383 0.642291
vt 0.346904 0.620216
vt 0.262598 0.561365
vt 0.24089 0.517936
vt 0.008914 0.569963
vt 0.008912 0.598681
vt 0.097746 0.704058
vt 0.097746 0.671284
vt 0.125232 0.671284
vt 0.125232 0.729411
vt 0.123892 0.918922
vt 0.098068 0.899374
vt 0.098068 0.856355
vt 0.123892 0.856355
vt 0.008913 0.707867
vt 0.008913 0.729411
vt 0.008901 0.814738
vt 0.008901 0.787945
vt 0.006128 0.903203
vt 0.006134 0.922751
vt 0.229453 0.981623
vt 0.228971 0.883257
vt 0.244829 0.88318
vt 0.244764 0.981635
vt 0.225141 0.790853
vt 0.244829 0.790861
vt 0.33499 0.980958
vt 0.334995 0.790814
vt 0.351419 0.790804
vt 0.351419 0.980953
vt 0.284467 0.980958
vt 0.284468 0.790814
vt 0.179613 0.981623
vt 0.179615 0.883257
vt 0.179613 0.790853
vn 1 0 0
vn 1 0 0
vn 1 0 0
vn 1 0 0
vn 1 0 0
vn 1 -0 0
vn 1 0 0
vn 1 0 0
vn 0.000001 0.000226 -1
vn 0.000003 0 -1
vn 0.000001 0 -1
vn -0.000001 0 -1
vn -0 0.000338 -1
vn -0 1 0.000611
vn -0 1 0.000611
vn -0 1 0.000611
vn 0 1 0.000611
vn 0 0.21906 0.975711
vn 0 0.21906 0.975711
vn 0 0.21906 0.975711
vn 0 0.21906 0.975711
vn 0 0.818641 0.574306
vn 0 0.818641 0.574306
vn 0 0.818641 0.574306
vn 0 0.818641 0.574306
vn 1 0 0
vn 1 0 0
vn 0 0.000676 -1
vn 0 0.000676 -1
vn 1 -0 0
vn 1 -0 0
vn 0.014953 0.984065 -0.177179
vn 0 0.983037 -0.183406
vn 0.022425 0.981139 -0.191999
vn 0.013402 0.985143 -0.171214
vn -0 0.613896 -0.789387
vn -0.000001 0.613896 -0.789387
vn -0.000001 0.613897 -0.789386
vn 0 0.613897 -0.789386
vn 1 0 0
vn 1 0 0
vn -0 0.934653 0.355561
vn 0 0.934653 0.355561
vn -0 0.934653 0.355561
vn -0 0.934653 0.355561
vn 0.000001 0.737508 0.675338
vn 0 0.608446 0.793595
vn 0.000001 0.675818 0.737068
vn 0.000002 0.737508 0.675338
vn 0 0.536937 0.843622
vn 0 0.536937 0.843622
vn 0.975589 0.101391 0.1948
vn 0.706676 -0.00001 -0.707538
vn 0.782881 0.214577 -0.583998
vn 0.878946 0.475545 0.0362
vn 0.882603 0.440053 0.165428
vn 0.849164 0.385633 0.360843
vn 0.002149 -0.000719 -0.999997
vn 0.607017 0.657263 -0.446695
vn 0.677819 0.726252 0.114541
vn 0.698957 0.632572 0.333634
vn 0.76735 0.389141 0.50965
vn 0.773171 0.283932 0.567089
vn -0.002326 0.987682 -0.156459
vn -0.004652 0.986198 -0.165506
vn 0.00016 -0.613651 0.789578
vn -0.000001 -0.614199 0.789151
vn 0.000343 -0.614048 0.789269
vn 0.00016 -0.613545 0.78966
vn -0 -0.000677 1
vn -0 -0.000677 1
vn -0.000001 -0.000676 1
vn -0.000001 -0.000676 1
vn -0.000103 -0.613368 0.789797
vn 0 -0.613881 0.789398
vn -0.000001 0.613894 -0.789389
vn -0 0.613895 -0.789388
vn 0 -0.000677 1
vn 0 -0.000677 1
vn 0.89443 0.326304 0.305812
vn 0.710002 0.468079 0.526117
vn 1 -0.000049 -0.000021
vn 1 -0.000107 -0.000098
vn 0.446227 0.463059 0.765805
vn 1 0.000007 0.00003
vn 0.89444 0.417918 0.159129
vn 0.447237 0.835864 0.318292
vn 1 -0.000024 -0.000035
vn 1 0.000062 0.000024
vn -0.000001 0.934528 0.355889
vn -0.000001 0.934528 0.355889
vn -0.000136 0.729748 0.683717
vn -0.000918 0.593174 0.805074
vn -0.00273 0.516733 0.856143
usemtl datan_common__01_LArm_2b6669b6
f 1/1/1 2/2/2 3/3/3
f 4/4/4 5/5/5 6/6/6
f 3/3/3 4/4/4 6/6/6
f 1/1/1 3/3/3 6/6/6
f 6/6/6 7/7/7 8/8/8
f 1/1/1 6/6/6 8/8/8
f 9/9/9 10/10/10 11/11/11
f 11/11/11 12/12/12 13/13/13
f 9/9/9 11/11/11 13/13/13
f 14/14/14 15/15/15 16/16/16
f 16/16/16 17/17/17 14/14/14
f 18/18/18 19/19/19 20/20/20
f 20/20/20 21/21/21 18/18/18
f 22/22/22 23/23/23 24/24/24
f 24/24/24 25/25/25 22/22/22
f 26/26/26 27/27/27 1/1/1
f 1/1/1 8/8/8 26/26/26
f 28/28/28 9/9/9 13/13/13
f 13/13/13 29/29/29 28/28/28
f 30/30/30 31/31/31 6/6/6
f 6/6/6 5/5/5 30/30/30
f 32/32/32 33/33/33 34/34/34
f 34/34/34 35/35/35 32/32/32
f 36/36/36 37/37/37 38/38/38
f 38/38/38 39/39/39 36/36/36
f 40/40/40 41/41/41 3/3/3
f 3/3/3 2/2/2 40/40/40
f 42/42/42 43/43/43 44/44/44
f 44/44/44 45/45/45 42/42/42
f 46/46/46 47/47/47 48/48/48
f 48/48/48 49/49/49 46/46/46
f 47/47/47 50/50/50 51/51/51
f 51/51/51 48/48/48 47/47/47
f 52/52/52 53/53/53 54/54/54
f 52/52/52 54/54/54 55/55/55
f 52/52/52 55/55/55 56/56/56
f 52/52/52 56/56/56 57/57/57
f 54/54/54 53/53/53 58/58/58
f 58/58/58 59/59/59 54/54/54
f 59/59/59 60/60/60 55/55/55
f 55/55/55 54/54/54 59/59/59
f 60/60/60 61/61/61 56/56/56
f 56/56/56 55/55/55 60/60/60
f 61/61/61 62/62/62 57/57/57
f 57/57/57 56/56/56 61/61/61
f 62/62/62 63/63/63 52/52/52
f 52/52/52 57/57/57 62/62/62
f 64/64/64 32/32/32 35/35/35
f 35/35/35 65/65/65 64/64/64
f 66/66/66 67/67/67 68/68/68
f 68/68/68 69/69/69 66/66/66
f 70/70/70 71/71/71 72/72/72
f 72/72/72 73/73/73 70/70/70
f 74/74/74 66/66/66 69/69/69
f 69/69/69 75/75/75 74/74/74
f 36/36/36 76/76/76 77/77/77
f 77/77/77 37/37/37 36/36/36
f 78/78/78 71/71/71 70/70/70
f 70/70/70 79/79/79 78/78/78
f 80/80/80 81/81/81 82/82/82
f 82/82/82 83/83/83 80/80/80
f 81/81/81 84/84/84 85/85/85
f 85/85/85 82/82/82 81/81/81
f 86/86/86 87/87/87 88/88/88
f 88/88/88 89/89/89 86/86/86
f 90/90/90 91/91/91 87/87/87
f 87/87/87 86/86/86 90/90/90
f 92/92/92 93/93/93 81/81/81
f 81/81/81 80/80/80 92/92/92
f 93/93/93 94/94/94 84/84/84
