# Generated from Nova1492 GX by tools/nova1492/GxObjConverter
mtllib datan_common_arm27_stst_62131fa9.mtl
o datan_common_arm27_stst_62131fa9
v -0 0.172926 -0.010092
v 0 -0.058706 0.108197
v 0 0.172926 -0.18941
v 0 -0.03264 -0.100628
v -0.140617 -0.03264 -0.100628
v -0.140617 -0.058706 0.108197
v -0.140617 0.172926 -0.18941
v -0.140617 0.172926 -0.010092
v 0 0.172926 -0.18941
v 0 -0.03264 -0.100628
v -0.140617 0.172926 -0.18941
v -0.140617 -0.03264 -0.100628
v 0 -0.058706 0.108197
v -0 0.172926 -0.010092
v -0.140617 -0.058706 0.108197
v -0.140617 0.172926 -0.010092
v -0.000873 -0.001459 -0.015769
v -0.000873 0.120451 -0.057152
v -0.001107 0.059496 -0.233847
v 0.043065 0.087028 -0.101959
v 0.043065 0.031965 -0.060576
v -0.139528 -0.001459 -0.015769
v -0.139294 0.059496 -0.233847
v -0.139528 0.120451 -0.057152
v -0.183466 0.031965 -0.060576
v -0.183466 0.087028 -0.101959
v -0.119558 -0.001326 0.175211
v -0.021059 -0.001326 0.175613
v -0.029606 0.057828 0.175613
v -0.111011 0.057828 0.175211
v -0.132363 -0.001327 0.077641
v -0.119558 -0.001326 0.175211
v -0.111011 0.057828 0.175211
v -0.120313 0.07868 0.114501
v -0.132363 0.165867 -0.008125
v -0.120313 0.07868 0.114501
v -0.020304 0.07868 0.114501
v -0.020237 0.13636 0.086333
v -0.12038 0.13636 0.086332
v -0.12038 0.13636 0.086332
v -0.008254 0.165867 -0.008125
v -0.020237 0.13636 0.086333
v -0.020304 0.07868 0.114501
v -0.008254 -0.001327 0.077641
v -0.029606 0.057828 0.175613
v -0.021059 -0.001326 0.175613
v -0.008254 0.165867 -0.008125
v -0.132363 0.165867 -0.008125
v -0.161211 0.432473 -0.104289
v 0.021932 0.432473 -0.104289
v 0.021932 0.432473 -0.289733
v -0.161211 0.432473 -0.289733
v 0.021932 0.432473 -0.104289
v 0.021495 0.431905 0.161263
v 0.062198 0.160323 0.161165
v 0.062198 0.160323 -0.350622
v 0.021932 0.432473 -0.289733
v -0.201476 0.160323 -0.350622
v -0.201476 0.160323 0.161165
v -0.161211 0.432473 -0.104289
v -0.161211 0.432473 -0.289733
v -0.161209 0.432471 0.018479
v 0.02193 0.432471 0.018479
v -0.055096 0.526807 -0.104289
v -0.055096 0.526807 0.017707
v -0.161209 0.432471 0.018479
v -0.084182 0.526807 0.017707
v -0.084182 0.526807 -0.104289
v -0.160774 0.431905 0.161263
v 0.021495 0.431905 0.161263
v -0.069639 0.493045 0.161263
v -0.069639 0.494732 0.0187
v -0.160774 0.431905 0.161263
v 0.025745 0.39454 0.128921
v 0.100291 0.317724 0.128921
v 0.100291 0.317724 -0.295462
v 0.025745 0.39454 -0.278837
v 0.127062 0.179904 0.128921
v 0.127062 0.179904 -0.330896
v -0.165473 0.39454 0.128921
v -0.240019 0.317724 -0.295462
v -0.240019 0.317724 0.128921
v -0.165473 0.39454 -0.278837
v -0.266791 0.179904 0.128921
v -0.266791 0.179904 -0.330896
v -0.201476 0.160323 0.161165
v 0.062198 0.160323 0.161165
v 0.021495 0.431905 0.161263
v -0.160774 0.431905 0.161263
v 0.062198 0.160323 -0.350622
v -0.201476 0.160323 -0.350622
v -0.161211 0.432473 -0.289733
v 0.021932 0.432473 -0.289733
v -0.069639 0.493045 0.161263
v 0.021932 0.432473 -0.104289
v -0.161211 0.432473 -0.104289
v -0.055096 0.526807 -0.104289
v 0.021932 0.432473 -0.104289
v 0.02193 0.432471 0.018479
v 0.021495 0.431905 0.161263
v -0.069639 0.494732 0.0187
v -0.084182 0.526807 0.017707
v -0.161209 0.432471 0.018479
v 0.056396 0.179904 0.128921
v 0.127062 0.179904 0.128921
v 0.100291 0.317724 0.128921
v 0.025745 0.39454 0.128921
v 0.127062 0.179904 -0.330896
v 0.056396 0.179904 -0.330896
v 0.025745 0.39454 -0.278837
v 0.100291 0.317724 -0.295462
v -0.196124 0.179904 0.128921
v -0.240019 0.317724 0.128921
v -0.266791 0.179904 0.128921
v -0.165473 0.39454 0.128921
v -0.266791 0.179904 -0.330896
v -0.165473 0.39454 -0.278837
v -0.196124 0.179904 -0.330896
v -0.240019 0.317724 -0.295462
v -0.055096 0.526807 0.017707
v -0.084182 0.526807 -0.104289
vt 0.305282 0.492912
vt 0.204994 0.259
vt 0.456701 0.492912
vt 0.379416 0.284315
vt 0.379416 0.284315
vt 0.204994 0.259
vt 0.456701 0.492912
vt 0.301454 0.492912
vt 0.116089 0.492912
vt 0.116089 0.323474
vt 0.118013 0.492912
vt 0.114184 0.323474
vt 0.121994 0.258618
vt 0.121994 0.492912
vt 0.007202 0.258618
vt 0.007203 0.492912
vt 0.311936 0.317502
vt 0.346873 0.437188
vt 0.493202 0.375578
vt 0.381679 0.403453
vt 0.34601 0.351237
vt 0.311936 0.317502
vt 0.493203 0.375578
vt 0.346873 0.437188
vt 0.34601 0.351237
vt 0.381679 0.403453
vt 0.024208 0.316758
vt 0.104989 0.316758
vt 0.098086 0.373835
vt 0.03111 0.373835
vt 0.221668 0.315493
vt 0.130131 0.315876
vt 0.130131 0.373835
vt 0.19774 0.400209
vt 0.296896 0.486303
vt 0.023598 0.399444
vt 0.105598 0.399444
vt 0.105652 0.455864
vt 0.023544 0.455864
vt 0.219667 0.456629
vt 0.296896 0.486303
vt 0.223495 0.456629
vt 0.19774 0.400209
vt 0.221668 0.315493
vt 0.125839 0.373835
vt 0.125839 0.315876
vt 0.115329 0.485538
vt 0.013868 0.485538
vt 0.647851 0.992185
vt 0.647575 0.785736
vt 0.74241 0.785736
vt 0.74241 0.992185
vt 0.627628 0.778914
vt 0.507044 0.777388
vt 0.507091 0.508457
vt 0.742956 0.508457
vt 0.714177 0.778914
vt 0.742956 0.508457
vt 0.507091 0.508457
vt 0.627628 0.778914
vt 0.714177 0.782742
vt 0.573429 0.782738
vt 0.582817 0.785738
vt 0.643747 0.872611
vt 0.58323 0.876439
vt 0.583092 0.992182
vt 0.58323 0.910689
vt 0.647575 0.910689
vt 0.507044 0.781216
vt 0.507044 0.786968
vt 0.507044 0.889736
vt 0.582698 0.893564
vt 0.507044 0.990953
vt 0.522055 0.741767
vt 0.522055 0.66704
vt 0.71716 0.66704
vt 0.709302 0.745595
vt 0.522055 0.527557
vt 0.733908 0.527557
vt 0.522055 0.741767
vt 0.71716 0.667039
vt 0.522055 0.667039
vt 0.709302 0.745595
vt 0.522055 0.527557
vt 0.733908 0.527557
vt 0.047452 0.007853
vt 0.206136 0.007853
vt 0.181532 0.180771
vt 0.06865 0.180781
vt 0.456083 0.007853
vt 0.294204 0.007853
vt 0.319197 0.179835
vt 0.431522 0.179838
vt 0.124987 0.220877
vt 0.427685 0.18553
vt 0.319197 0.185527
vt 0.380239 0.243606
vt 0.182846 0.183616
vt 0.182846 0.183616
vt 0.182803 0.185469
vt 0.124987 0.222384
vt 0.11563 0.243606
vt 0.072444 0.185527
vt 0.209597 0.020016
vt 0.2464 0.020016
vt 0.229965 0.106026
vt 0.186952 0.156739
vt 0.493152 0.020016
vt 0.456447 0.020016
vt 0.437631 0.156739
vt 0.476717 0.106026
vt 0.046909 0.020016
vt 0.023066 0.106026
vt 0.006631 0.020016
vt 0.065726 0.156739
vt 0.253383 0.020016
vt 0.312479 0.156739
vt 0.293662 0.020016
vt 0.26599 0.106026
vt 0.133487 0.243606
vt 0.362383 0.243606
vn 1 0 0
vn 1 0 -0
vn 1 0 -0
vn 1 0 -0
vn -1 0 0
vn -1 -0 -0
vn -1 -0 -0
vn -1 -0 -0
vn -0 -0.396491 -0.918039
vn 0 -0.39649 -0.918039
vn 0 -0.39649 -0.918039
vn 0 -0.39649 -0.918039
vn 0 0.454801 0.890593
vn 0 0.454801 0.890593
vn 0 0.454801 0.890593
vn 0 0.454801 0.890593
vn 0.584917 0.260717 0.768049
vn 0.786202 0.371271 0.494008
vn 0.36007 0.881777 -0.304664
vn 0.786202 0.371271 0.494008
vn 0.786202 0.371271 0.494008
vn -0.584917 0.260717 0.768049
vn -0.36007 0.881777 -0.304664
vn -0.786202 0.371271 0.494008
vn -0.786202 0.371271 0.494008
vn -0.786202 0.371271 0.494008
vn -0.004947 0.000715 0.999988
vn -0.004088 -0.000591 0.999992
vn -0.001596 0.946495 0.322713
vn -0.001596 0.946495 0.322713
vn -0.982431 0.067872 0.173847
vn -0.981477 0.141818 0.128807
vn -0.982431 0.067872 0.173847
vn -0.986562 0.070773 0.147266
vn -0.986562 0.070773 0.147266
vn -0 0.945766 0.324848
vn -0.001596 0.946495 0.322713
vn -0 0.954512 0.298174
vn -0 0.954512 0.298174
vn -0.986562 0.070773 0.147266
vn 0.985223 0.078175 0.152397
vn 0.986562 0.070773 0.147266
vn 0.987607 0.089278 0.129079
vn 0.987607 0.089278 0.129079
vn 0.970604 0.140247 0.195597
vn 0.987607 0.089278 0.129079
vn -0 0.954512 0.298174
vn -0 0.954512 0.298174
vn -0.726887 0.682616 -0.075298
vn 0.662238 0.744778 -0.082134
vn -0.05974 0.995391 -0.075025
vn -0.05974 0.995391 -0.075025
vn 0.944799 0.315089 -0.089854
vn 0.944367 0.316945 -0.087843
vn 0.944799 0.315089 -0.089854
vn 0.944799 0.315089 -0.089854
vn 0.944799 0.315089 -0.089854
vn -0.957515 0.277327 -0.079086
vn -0.957289 0.279011 -0.075834
vn -0.957512 0.277343 -0.079068
vn -0.957515 0.277327 -0.079086
vn -0.957289 0.279011 -0.075834
vn 0.445393 0.892577 -0.07023
vn -0.05974 0.995391 -0.075022
vn -0.05974 0.995391 -0.075022
vn -0.537765 0.840169 -0.070181
vn -0.05974 0.995391 -0.075022
vn -0.05974 0.995391 -0.075022
vn -0.957289 0.279011 -0.075834
vn 0.440258 0.894777 -0.074481
vn -0.533447 0.843248 -0.06608
vn -0.533447 0.843248 -0.06608
vn -0.533447 0.843248 -0.06608
vn 0.601243 0.794935 -0.081147
vn 0.92955 0.357759 -0.089139
vn 0.92955 0.357759 -0.089139
vn 0.601243 0.794935 -0.081147
vn 0.92955 0.357759 -0.089139
vn 0.92955 0.357759 -0.089139
vn -0.674718 0.73426 -0.074954
vn -0.945587 0.315716 -0.078664
vn -0.945587 0.315716 -0.078664
vn -0.674718 0.73426 -0.074954
vn -0.945587 0.315716 -0.078664
vn -0.945587 0.315716 -0.078664
vn -0.074956 0.172173 0.982211
vn -0.074956 0.172173 0.982211
vn -0.074951 0.172547 0.982146
vn -0.074951 0.172547 0.982146
vn -0.061579 0.334831 -0.940264
vn -0.061579 0.334831 -0.940264
vn -0.061579 0.334831 -0.940264
vn -0.061579 0.334831 -0.940264
vn -0.074951 0.172547 0.982146
vn -0.063227 0.14556 -0.987327
vn -0.063227 0.14556 -0.987327
vn -0.063227 0.14556 -0.987327
vn 0.845234 -0.524535 -0.102192
vn -0.055513 0.196535 0.978924
vn 0.845234 -0.524535 -0.102192
vn -0.055513 0.196535 0.978924
vn -0.07452 0.204649 0.975995
vn -0.093697 0.195972 0.976123
vn -0.074951 0.172551 0.982145
vn -0.074951 0.172551 0.982145
vn -0.074951 0.172551 0.982145
vn -0.074951 0.172551 0.982145
vn -0.016837 0.369275 -0.929168
vn -0.061463 0.349533 -0.934906
vn -0.016837 0.369275 -0.929168
vn -0.016837 0.369275 -0.929168
vn -0.074951 0.172551 0.982145
vn -0.074951 0.172551 0.982145
vn -0.074951 0.172551 0.982145
vn -0.074951 0.172551 0.982145
vn -0.105565 0.367263 -0.924107
vn -0.105565 0.367263 -0.924107
vn -0.061463 0.349533 -0.934906
vn -0.105565 0.367263 -0.924107
vn -0.055513 0.196535 0.978924
vn -0.063227 0.14556 -0.987327
usemtl datan_common_arm27_stst_62131fa9
f 1/1/1 2/2/2 3/3/3
f 4/4/4 3/3/3 2/2/2
f 5/5/5 6/6/6 7/7/7
f 8/8/8 7/7/7 6/6/6
f 9/9/9 10/10/10 11/11/11
f 12/12/12 11/11/11 10/10/10
f 13/13/13 14/14/14 15/15/15
f 16/16/16 15/15/15 14/14/14
f 17/17/17 18/18/18 19/19/19
f 19/19/19 20/20/20 21/21/21
f 19/19/19 21/21/21 17/17/17
f 19/19/19 18/18/18 20/20/20
f 18/18/18 17/17/17 21/21/21
f 21/21/21 20/20/20 18/18/18
f 22/22/22 23/23/23 24/24/24
f 23/23/23 25/25/25 26/26/26
f 23/23/23 22/22/22 25/25/25
f 23/23/23 26/26/26 24/24/24
f 24/24/24 25/25/25 22/22/22
f 25/25/25 24/24/24 26/26/26
f 27/27/27 28/28/28 29/29/29
f 29/29/29 30/30/30 27/27/27
f 31/31/31 32/32/32 33/33/33
f 34/34/34 35/35/35 31/31/31
f 36/36/36 37/37/37 38/38/38
f 38/38/38 39/39/39 36/36/36
f 36/36/36 30/30/30 37/37/37
f 29/29/29 37/37/37 30/30/30
f 31/31/31 33/33/33 34/34/34
f 34/34/34 40/40/40 35/35/35
f 41/41/41 42/42/42 43/43/43
f 41/41/41 43/43/43 44/44/44
f 43/43/43 45/45/45 46/46/46
f 43/43/43 46/46/46 44/44/44
f 47/47/47 48/48/48 39/39/39
f 47/47/47 39/39/39 38/38/38
f 49/49/49 50/50/50 51/51/51
f 51/51/51 52/52/52 49/49/49
f 53/53/53 54/54/54 55/55/55
f 55/55/55 56/56/56 57/57/57
f 57/57/57 53/53/53 55/55/55
f 58/58/58 59/59/59 60/60/60
f 60/60/60 61/61/61 58/58/58
f 62/62/62 60/60/60 59/59/59
f 63/63/63 50/50/50 64/64/64
f 64/64/64 65/65/65 63/63/63
f 49/49/49 66/66/66 67/67/67
f 67/67/67 68/68/68 49/49/49
f 69/69/69 62/62/62 59/59/59
f 70/70/70 63/63/63 71/71/71
f 72/72/72 71/71/71 63/63/63
f 66/66/66 73/73/73 72/72/72
f 71/71/71 72/72/72 73/73/73
f 74/74/74 75/75/75 76/76/76
f 76/76/76 77/77/77 74/74/74
f 78/78/78 79/79/79 76/76/76
f 76/76/76 75/75/75 78/78/78
f 80/80/80 81/81/81 82/82/82
f 81/81/81 80/80/80 83/83/83
f 84/84/84 81/81/81 85/85/85
f 81/81/81 84/84/84 82/82/82
f 64/64/64 68/68/68 65/65/65
f 67/67/67 65/65/65 68/68/68
f 86/86/86 87/87/87 88/88/88
f 88/88/88 89/89/89 86/86/86
f 90/90/90 91/91/91 92/92/92
f 92/92/92 93/93/93 90/90/90
f 89/89/89 88/88/88 94/94/94
f 95/95/95 96/96/96 97/97/97
f 98/98/98 99/99/99 100/100/100
f 101/101/101 102/102/102 103/103/103
f 104/104/104 105/105/105 106/106/106
f 106/106/106 107/107/107 104/104/104
f 108/108/108 109/109/109 110/110/110
f 110/110/110 111/111/111 108/108/108
f 112/112/112 113/113/113 114/114/114
f 113/113/113 112/112/112 115/115/115
f 116/116/116 117/117/117 118/118/118
f 117/117/117 116/116/116 119/119/119
f 102/102/102 101/101/101 120/120/120
f 97/97/97 96/96/96 121/121/121
