# Generated from Nova1492 GX by tools/nova1492/GxObjConverter
mtllib datan_common_arm80_opkrs_4f585881.mtl
o datan_common_arm80_opkrs_4f585881
v -0.072651 0.273059 0.187492
v -0.126487 0.367131 0.212877
v -0.126487 0.472673 0.563774
v -0.072651 0.378816 0.563774
v -0.126487 0.367131 0.212877
v -0.164681 0.367131 0.212877
v -0.164681 0.472673 0.563774
v -0.126487 0.472673 0.563774
v -0.164681 0.472673 0.563774
v -0.173753 0.215075 0.177535
v -0.164874 0.323614 0.563774
v -0.164681 0.367131 0.212877
v -0.077897 0.277612 0.563774
v -0.193886 0.000213 -0.002181
v -0.048026 0.146644 0.312444
v -0.048026 0.146644 0.312444
v -0.023486 0.000446 0.193821
v -0.02582 0.070779 0.563774
v 0.023522 0.000447 0.193823
v 0.025619 0.070779 0.563774
v 0.077695 0.277612 0.563774
v 0.047962 0.146644 0.312444
v 0.193886 0.000218 -0.001668
v 0.047962 0.146644 0.312444
v 0.165275 0.323614 0.563774
v 0.077695 0.277612 0.563774
v 0.174293 0.215068 0.177539
v 0.164835 0.367131 0.212877
v 0.164835 0.472673 0.563774
v 0.164835 0.367131 0.212877
v 0.131488 0.367131 0.212877
v 0.131488 0.472673 0.563774
v 0.164835 0.472673 0.563774
v 0.131488 0.367131 0.212877
v 0.077959 0.273059 0.187492
v 0.077959 0.378816 0.563774
v 0.131488 0.472673 0.563774
v 0.077959 0.273059 0.187492
v -0.072651 0.273059 0.187492
v -0.072651 0.378816 0.563774
v 0.077959 0.378816 0.563774
v -0.126487 0.367131 0.212877
v -0.173753 0.215075 0.177535
v -0.164681 0.367131 0.212877
v -0.072651 0.273059 0.187492
v 0.174293 0.215068 0.177539
v 0.131488 0.367131 0.212877
v 0.164835 0.367131 0.212877
v 0.077959 0.273059 0.187492
v -0.126487 0.472673 0.563774
v -0.164681 0.472673 0.563774
v -0.164874 0.323614 0.563774
v -0.072651 0.378816 0.563774
v -0.077897 0.277612 0.563774
v 0.165275 0.323614 0.563774
v 0.164835 0.472673 0.563774
v 0.131488 0.472673 0.563774
v 0.077959 0.378816 0.563774
v 0.077695 0.277612 0.563774
v 0.025619 0.070779 0.563774
v -0.02582 0.070779 0.563774
v -0.000101 -0 -0.316665
v 0.174293 0.215068 0.177539
v 0.193886 0.000218 -0.001668
v -0.193886 0.000213 -0.002181
v -0.173753 0.215075 0.177535
v -0.023486 0.000446 0.193821
v -0.077897 0.277612 0.563774
v 0.023522 0.000447 0.193823
vt 0.657488 0.363836
vt 0.690752 0.364018
vt 0.940062 0.364042
vt 0.923527 0.363846
vt 0.234846 0.869388
vt 0.234846 0.869388
vt 0.606348 0.989688
vt 0.606348 0.989688
vt 0.606348 0.989688
vt 0.19774 0.696752
vt 0.606348 0.819231
vt 0.234846 0.869388
vt 0.606348 0.766919
vt 0.006325 0.451018
vt 0.342357 0.62022
vt 0.342357 0.62022
vt 0.217965 0.453382
vt 0.606348 0.532494
vt 0.217968 0.453382
vt 0.606348 0.532494
vt 0.606348 0.766919
vt 0.342357 0.62022
vt 0.006878 0.451023
vt 0.342357 0.62022
vt 0.606348 0.819231
vt 0.606348 0.766919
vt 0.197744 0.696744
vt 0.234846 0.869388
vt 0.606348 0.989688
vt 0.234846 0.869388
vt 0.234846 0.869388
vt 0.606348 0.989688
vt 0.606348 0.989688
vt 0.690752 0.364018
vt 0.657488 0.363836
vt 0.923527 0.363846
vt 0.940062 0.364042
vt 0.573246 0.319635
vt 0.573035 0.140323
vt 0.964811 0.140428
vt 0.965023 0.31929
vt 0.955539 0.365097
vt 0.656186 0.365478
vt 0.955539 0.365097
vt 0.768591 0.365084
vt 0.656174 0.365478
vt 0.955539 0.365097
vt 0.955539 0.365097
vt 0.768591 0.365084
vt 0.679032 0.988507
vt 0.638748 0.988507
vt 0.638544 0.818323
vt 0.735814 0.88213
vt 0.730808 0.767692
vt 0.989926 0.818323
vt 0.989462 0.988733
vt 0.953072 0.988733
vt 0.896614 0.88213
vt 0.897554 0.769804
vt 0.839988 0.532141
vt 0.785734 0.532141
vt 0.031603 0.231129
vt 0.55827 0.430494
vt 0.363623 0.45276
vt 0.363797 0.01204
vt 0.558942 0.032337
vt 0.217965 0.453382
vt 0.606348 0.766919
vt 0.217968 0.453382
vn 0.079337 0.912853 -0.400507
vn 0.838292 0.522116 -0.157042
vn 0.855518 0.497984 -0.141775
vn 0.528264 0.817408 -0.22974
vn -0.010369 0.625876 -0.779854
vn 0 0.67649 -0.736452
vn 0 0.802175 0.597089
vn 0 0.676137 0.736776
vn -0.999791 0.015844 0.012917
vn -0.913737 0.35066 -0.205238
vn -0.9045 -0.357211 0.23298
vn -0.997764 0.064006 -0.019252
vn -0.366323 -0.803656 0.468983
vn -0.958355 0.175407 -0.225363
vn -0.205 -0.847562 0.489503
vn -0.978454 -0.204998 0.024571
vn -0.37689 -0.910393 0.170699
vn -0.509138 -0.57793 0.63779
vn 0.377025 -0.910296 0.170922
vn 0.508958 -0.577922 0.63794
vn 0.364071 -0.804412 0.46944
vn 0.203847 -0.847648 0.489836
vn 0.959059 0.172119 -0.224902
vn 0.978467 -0.204864 0.025147
vn 0.904302 -0.357337 0.233556
vn 0.253058 -0.063715 0.965351
vn 0.915194 0.346652 -0.205555
vn 0.997571 0.066709 -0.020065
vn 0.999763 0.017748 0.012645
vn -0 0.676156 -0.736759
vn 0.010399 0.625913 -0.779824
vn 0 0.676689 0.736269
vn -0 0.801752 0.597657
vn -0.844931 0.514556 -0.146029
vn -0.07575 0.913335 -0.400102
vn -0.526095 0.817387 -0.234739
vn -0.85917 0.490005 -0.147384
vn -0.07575 0.913335 -0.400102
vn 0.079337 0.912853 -0.400507
vn 0.528264 0.817408 -0.22974
vn -0.526095 0.817387 -0.234739
vn -0.010369 0.625876 -0.779854
vn -0.031286 0.235496 -0.971372
vn 0 0.67649 -0.736452
vn -0.041109 0.238305 -0.97032
vn 0.033549 0.23518 -0.971373
vn 0.010399 0.625913 -0.779824
vn -0 0.676156 -0.736759
vn 0.04273 0.237547 -0.970436
vn 0 0.676137 0.736776
vn 0 0.802175 0.597089
vn 0 0 1
vn 0 0 1
vn -0.253238 -0.06376 0.9653
vn 0 0 1
vn -0 0.801752 0.597657
vn 0 0.676689 0.736269
vn 0 0 1
vn 0.253058 -0.063715 0.965351
vn 0.508958 -0.577922 0.63794
vn -0.509138 -0.57793 0.63779
vn -0.000257 0.792244 -0.610205
vn 0.915194 0.346652 -0.205555
vn 0.959059 0.172119 -0.224902
vn -0.958355 0.175407 -0.225363
vn -0.913737 0.35066 -0.205238
vn -0.629729 -0.550451 0.548128
vn -0.253238 -0.06376 0.9653
vn 0.629066 -0.550487 0.548853
usemtl datan_common_arm80_opkrs_4f585881
f 1/1/1 2/2/2 3/3/3
f 1/1/1 3/3/3 4/4/4
f 5/5/5 6/6/6 7/7/7
f 5/5/5 7/7/7 8/8/8
f 9/9/9 10/10/10 11/11/11
f 12/12/12 10/10/10 9/9/9
f 13/13/13 14/14/14 15/15/15
f 10/10/10 14/14/14 11/11/11
f 16/16/16 17/17/17 18/18/18
f 11/11/11 14/14/14 13/13/13
f 17/17/17 19/19/19 20/20/20
f 17/17/17 20/20/20 18/18/18
f 21/21/21 22/22/22 23/23/23
f 19/19/19 24/24/24 20/20/20
f 21/21/21 23/23/23 25/25/25
f 20/20/20 24/24/24 26/26/26
f 27/27/27 28/28/28 29/29/29
f 27/27/27 29/29/29 25/25/25
f 30/30/30 31/31/31 32/32/32
f 30/30/30 32/32/32 33/33/33
f 34/34/34 35/35/35 36/36/36
f 34/34/34 36/36/36 37/37/37
f 38/38/38 39/39/39 40/40/40
f 38/38/38 40/40/40 41/41/41
f 42/42/42 43/43/43 44/44/44
f 42/42/42 45/45/45 43/43/43
f 46/46/46 47/47/47 48/48/48
f 46/46/46 49/49/49 47/47/47
f 50/50/50 51/51/51 52/52/52
f 53/53/53 50/50/50 52/52/52
f 53/53/53 52/52/52 54/54/54
f 55/55/55 56/56/56 57/57/57
f 55/55/55 57/57/57 58/58/58
f 59/59/59 55/55/55 58/58/58
f 59/59/59 58/58/58 53/53/53
f 59/59/59 53/53/53 54/54/54
f 60/60/60 59/59/59 54/54/54
f 60/60/60 54/54/54 61/61/61
f 39/39/39 38/38/38 62/62/62
f 62/62/62 63/63/63 64/64/64
f 62/62/62 65/65/65 66/66/66
f 66/66/66 39/39/39 62/62/62
f 38/38/38 63/63/63 62/62/62
f 15/15/15 14/14/14 67/67/67
f 68/68/68 16/16/16 18/18/18
f 25/25/25 23/23/23 27/27/27
f 23/23/23 22/22/22 69/69/69
