# Generated from Nova1492 GX by tools/nova1492/GxObjConverter
mtllib datan_common_arm28_ozs_ea482b30.mtl
o datan_common_arm28_ozs_ea482b30_mesh00
v -0.136046 0.083561 0.344334
v -0.136046 0.024676 0.001259
v 0.138961 0.024676 0.001259
v 0.138961 0.083561 0.344334
v -0.110334 0.268641 0.164386
v 0.113249 0.268641 0.164386
v 0.113249 0.233576 -0.066442
v -0.110334 0.233576 -0.066442
v 0.113249 0.23492 -0.272118
v -0.110334 0.23492 -0.272118
v -0.136046 0.083561 0.344334
v 0.138961 0.083561 0.344334
v 0.113249 0.268641 0.164386
v -0.110334 0.268641 0.164386
v 0.138961 0.083561 0.344334
v 0.138961 0.024676 0.001259
v 0.113249 0.233576 -0.066442
v 0.113249 0.268641 0.164386
v 0.138961 0.021423 -0.324109
v 0.113249 0.23492 -0.272118
v 0.138961 0.021423 -0.324109
v -0.136046 0.021423 -0.324109
v -0.110334 0.23492 -0.272118
v 0.113249 0.23492 -0.272118
v -0.136046 0.021423 -0.324109
v -0.136046 0.024676 0.001259
v -0.110334 0.233576 -0.066442
v -0.110334 0.23492 -0.272118
v -0.136046 0.083561 0.344334
v -0.110334 0.268641 0.164386
v -0.147358 0.057919 -0.14631
v 0.147358 0.057919 -0.14631
v 0.147358 0.057919 -0.335913
v -0.147358 0.057919 -0.335913
v -0.162093 0.000313 -0.115154
v 0.162093 0.000313 -0.115154
v 0.147358 0.057919 -0.14631
v -0.147358 0.057919 -0.14631
v 0.162093 0.000313 -0.115154
v 0.162093 0.000313 -0.346924
v 0.147358 0.057919 -0.335913
v 0.147358 0.057919 -0.14631
v 0.162093 0.000313 -0.346924
v -0.162093 0.000313 -0.346924
v -0.147358 0.057919 -0.335913
v 0.147358 0.057919 -0.335913
v -0.162093 0.000313 -0.346924
v -0.162093 0.000313 -0.115154
v -0.147358 0.057919 -0.14631
v -0.147358 0.057919 -0.335913
v 0.095626 0.289586 0.27314
v 0.036013 0.311889 0.222185
v -0.001269 0.247104 0.243189
v 0.073814 0.21927 0.307202
v -0.037944 0.311889 0.222185
v -0.097678 0.289586 0.27314
v -0.120472 0.253369 0.355546
v -0.076429 0.219278 0.307185
v -0.097402 0.21711 0.437704
v -0.047762 0.174287 0.410656
v 0.035892 0.19467 0.488582
v 0.095626 0.217108 0.437708
v 0.045119 0.174194 0.41087
v 0.118443 0.253369 0.355546
v -0.038279 0.19467 0.488582
v 0.00058 0.226176 0.344266
v -0.137541 0.033127 0.429221
v -0.139132 0.14973 0.115292
v 0.139108 0.14973 0.115292
v 0.15733 0.129476 0.25114
v -0.004532 -0.009138 0.508458
v 0.095626 0.289586 0.27314
v 0.108278 0.328631 0.184125
v 0.036013 0.311889 0.222185
v -0.162173 0.079641 0.520798
v -0.004532 -0.009138 0.508458
v -0.000989 0.040159 0.602767
v -0.137541 0.033127 0.429221
v -0.003267 0.150583 0.584392
v -0.138794 0.187497 0.504846
v 0.138039 0.0354 0.423994
v 0.15733 0.129476 0.25114
v 0.198468 0.197083 0.289698
v 0.162671 0.081899 0.515605
v 0.162671 0.081899 0.515605
v 0.171438 0.270318 0.317055
v 0.139292 0.189811 0.499584
v 0.139111 0.139389 -0.062264
v -0.139133 0.139389 -0.062264
v -0.139136 0.275212 -0.04814
v 0.139115 0.275212 -0.04814
v -0.19797 0.197087 0.2897
v -0.156832 0.12561 0.251595
v -0.17094 0.270318 0.317055
v 0.118443 0.253369 0.355546
v -0.109042 0.328631 0.184125
v -0.037944 0.311889 0.222185
v -0.120472 0.253369 0.355546
v -0.097678 0.289586 0.27314
v -0.097402 0.21711 0.437704
v 0.035892 0.19467 0.488582
v 0.095626 0.217108 0.437708
v -0.038279 0.19467 0.488582
v -0.139133 0.139389 -0.062264
v 0.139111 0.139389 -0.062264
v 0.139108 0.14973 0.115292
v 0.139111 0.139389 -0.062264
v 0.139115 0.275212 -0.04814
v -0.139132 0.14973 0.115292
v -0.139136 0.275212 -0.04814
v -0.139133 0.139389 -0.062264
v 0.138039 0.0354 0.423994
v -0.156832 0.12561 0.251595
v 0.15733 0.129476 0.25114
v -0.156832 0.12561 0.251595
v 0.06233 -0.011843 0.550756
v 0.014291 0.016074 0.476116
v 0.123044 0.066904 0.378599
v 0.171052 0.030602 0.45319
v 0.061911 0.142814 0.609044
v 0.178572 0.183905 0.501394
v 0.130533 0.211822 0.426754
v 0.013871 0.170732 0.534404
v -0.07565 -0.009783 0.545247
v -0.136364 0.068965 0.373091
v -0.027611 0.018135 0.470607
v -0.184372 0.032662 0.447682
v -0.075231 0.144875 0.603535
v -0.143853 0.213882 0.421245
v -0.191892 0.185965 0.495885
v -0.027192 0.172792 0.528895
v 0.152277 0.103793 0.451437
v 0.130472 0.165474 0.494724
v 0.207273 0.13464 0.602045
v 0.229078 0.072958 0.558758
v 0.083394 0.154107 0.546656
v 0.160195 0.123272 0.653977
v 0.058121 0.081058 0.555301
v 0.134922 0.050224 0.662621
v 0.079926 0.019376 0.512013
v 0.156727 -0.011458 0.619334
v 0.127004 0.030744 0.460081
v 0.203805 -0.000091 0.567402
v 0.207273 0.13464 0.602045
v 0.160195 0.123272 0.653977
v 0.134922 0.050224 0.662621
v 0.229078 0.072958 0.558758
v 0.156727 -0.011458 0.619334
v 0.203805 -0.000091 0.567402
v -0.136291 0.166764 0.490235
v -0.158095 0.105083 0.446948
v -0.213092 0.13593 0.597556
v -0.234896 0.074248 0.554269
v -0.089213 0.155397 0.542167
v -0.166014 0.124562 0.649488
v -0.063939 0.082348 0.550812
v -0.140741 0.051514 0.658133
v -0.085744 0.020666 0.507525
v -0.162545 -0.010168 0.614845
v -0.132822 0.032034 0.455593
v -0.209623 0.001199 0.562913
v -0.166014 0.124562 0.649488
v -0.213092 0.13593 0.597556
v -0.140741 0.051514 0.658133
v -0.234896 0.074248 0.554269
v -0.162545 -0.010168 0.614845
v -0.209623 0.001199 0.562913
vt 0.929416 0.620782
vt 0.982531 0.620069
vt 0.982531 0.544439
vt 0.929416 0.545153
vt 0.539283 0.720829
vt 0.539283 0.536151
vt 0.718283 0.536894
vt 0.72594 0.728573
vt 0.882821 0.536865
vt 0.890478 0.728569
vt 0.511883 0.905089
vt 0.511883 0.533453
vt 0.537136 0.511883
vt 0.544793 0.82025
vt 0.514637 0.889986
vt 0.68994 0.755457
vt 0.748585 0.952553
vt 0.545344 0.985554
vt 0.984261 0.754773
vt 0.940119 0.953353
vt 0.988359 0.516495
vt 0.988359 0.71707
vt 0.893765 0.702193
vt 0.893765 0.536865
vt 0.984261 0.754955
vt 0.697597 0.756133
vt 0.756241 0.952746
vt 0.940119 0.953559
vt 0.514637 0.897749
vt 0.545344 0.985727
vt 0.674726 0.738439
vt 0.539883 0.738439
vt 0.539883 0.693938
vt 0.682382 0.693938
vt 0.537831 0.627276
vt 0.673938 0.627276
vt 0.674509 0.650052
vt 0.537908 0.657709
vt 0.535351 0.571835
vt 0.675129 0.571868
vt 0.674862 0.612594
vt 0.535908 0.619591
vt 0.53539 0.520024
vt 0.674246 0.5199
vt 0.674161 0.557582
vt 0.534903 0.565419
vt 0.675129 0.571801
vt 0.535348 0.571834
vt 0.53563 0.61223
vt 0.682241 0.620397
vt 0.441906 0.903331
vt 0.328822 0.988117
vt 0.253312 0.904383
vt 0.397728 0.788427
vt 0.171377 0.988118
vt 0.050393 0.895675
vt 0.011883 0.753688
vt 0.09343 0.788458
vt 0.058608 0.60435
vt 0.151491 0.601026
vt 0.328578 0.511883
vt 0.441906 0.596686
vt 0.347265 0.592982
vt 0.488117 0.753687
vt 0.170697 0.511883
vt 0.241662 0.73165
vt 0.61728 0.440691
vt 0.612252 0.460513
vt 0.645597 0.460513
vt 0.643487 0.448688
vt 0.632555 0.42609
vt 0.669164 0.285986
vt 0.675534 0.340229
vt 0.646807 0.313749
vt 0.53728 0.069769
vt 0.619515 0.030463
vt 0.620453 0.011883
vt 0.543865 0.076533
vt 0.627031 0.061188
vt 0.558797 0.117078
vt 0.711148 0.091474
vt 0.72913 0.243471
vt 0.738242 0.243106
vt 0.711758 0.079422
vt 0.712679 0.081499
vt 0.707333 0.247791
vt 0.691149 0.120739
vt 0.651698 0.480502
vt 0.598159 0.480502
vt 0.598162 0.461921
vt 0.651609 0.454265
vt 0.511758 0.243107
vt 0.518195 0.240942
vt 0.542612 0.247791
vt 0.680652 0.221007
vt 0.573776 0.340229
vt 0.609572 0.313749
vt 0.568021 0.221007
vt 0.579497 0.27833
vt 0.579636 0.163813
vt 0.646746 0.128398
vt 0.669164 0.16381
vt 0.609403 0.128399
vt 0.612252 0.478146
vt 0.653306 0.478146
vt 0.70948 0.342793
vt 0.70971 0.488117
vt 0.675551 0.486111
vt 0.537385 0.342793
vt 0.57376 0.486111
vt 0.537384 0.488118
vt 0.648928 0.433475
vt 0.615064 0.448524
vt 0.718904 0.245334
vt 0.52326 0.243974
vt 0.011758 0.011758
vt 0.011758 0.011758
vt 0.237355 0.005913
vt 0.237307 0.013335
vt 0.011758 0.24207
vt 0.238242 0.24207
vt 0.238242 0.24207
vt 0.011758 0.238242
vt 0.011758 0.011758
vt 0.237912 0.004738
vt 0.011758 0.011758
vt 0.237882 0.012246
vt 0.011758 0.24207
vt 0.238242 0.24207
vt 0.238242 0.24207
vt 0.011758 0.238242
vt 0.485433 0.486145
vt 0.485432 0.436491
vt 0.25662 0.43649
vt 0.248968 0.486145
vt 0.485431 0.321352
vt 0.256619 0.32135
vt 0.485433 0.264364
vt 0.256623 0.264364
vt 0.485435 0.320651
vt 0.256628 0.320654
vt 0.485435 0.428255
vt 0.256628 0.428256
vt 0.185402 0.471022
vt 0.074161 0.471022
vt 0.014712 0.3803
vt 0.244851 0.372644
vt 0.074161 0.281922
vt 0.185402 0.281922
vt 0.485432 0.436491
vt 0.485433 0.486145
vt 0.25662 0.43649
vt 0.248968 0.486145
vt 0.485431 0.321352
vt 0.256619 0.32135
vt 0.485433 0.264364
vt 0.256623 0.264364
vt 0.485435 0.320651
vt 0.256628 0.320654
vt 0.485435 0.428255
vt 0.256628 0.428256
vt 0.074161 0.471022
vt 0.185402 0.471022
vt 0.014712 0.3803
vt 0.244851 0.372644
vt 0.074161 0.281922
vt 0.185402 0.281922
vn 0 -0.985588 0.169165
vn -0 -0.985588 0.169165
vn 0 -0.985588 0.169165
vn 0 -0.985588 0.169165
vn 0 0.988658 -0.150186
vn -0 0.988658 -0.150186
vn 0 0.999979 0.006532
vn 0 0.999979 0.006532
vn 0 0.999979 0.006532
vn 0 0.999979 0.006532
vn -0 0.697096 0.716978
vn 0 0.697096 0.716978
vn -0 0.697096 0.716978
vn -0 0.697096 0.716978
vn 0.992588 0.120148 -0.018251
vn 0.992479 0.122416 0.0008
vn 0.992479 0.122416 0.0008
vn 0.992588 0.120148 -0.018251
vn 0.992791 0.119856 -0.001198
vn 0.992479 0.122416 0.0008
vn 0 0.236607 -0.971605
vn -0 0.236607 -0.971605
vn 0 0.236607 -0.971605
vn 0 0.236607 -0.971605
vn -0.992848 0.119381 0.00078
vn -0.993034 0.11649 -0.017696
vn -0.993034 0.11649 -0.017696
vn -0.992848 0.119381 0.00078
vn -0.992783 0.118196 -0.020287
vn -0.993034 0.11649 -0.017696
vn 0 1 0
vn 0 1 0
vn 0 1 0
vn 0 1 0
vn -0 0.475727 0.879593
vn 0 0.475727 0.879593
vn -0 0.475727 0.879593
vn -0 0.475727 0.879593
vn 0.968805 0.247824 0
vn 0.968805 0.247824 -0
vn 0.968805 0.247824 0
vn 0.968805 0.247824 0
vn 0 0.187742 -0.982218
vn 0 0.187742 -0.982218
vn 0 0.187742 -0.982218
vn 0 0.187742 -0.982218
vn -0.968805 0.247824 0
vn -0.968805 0.247824 -0
vn -0.968805 0.247824 0
vn -0.968805 0.247824 0
vn -0.682132 0.485099 0.547152
vn 0.000639 0.34066 0.940187
vn 0.162849 0.920862 0.354252
vn 0.162849 0.920862 0.354252
vn 0.367428 0.498576 0.785123
vn 0.367073 0.498768 0.785168
vn 0.607972 0.734975 0.300302
vn -0.241243 0.797129 0.553523
vn 0.507914 0.859841 -0.05194
vn -0.241243 0.797129 0.553523
vn 0.000738 0.999449 -0.033178
vn -0.600113 0.739789 0.304263
vn 0.255125 0.791977 0.554692
vn -0.604502 0.735907 0.304989
vn 0.507914 0.859841 -0.05194
vn -0.241243 0.797129 0.553523
vn 0.241996 -0.96878 0.053892
vn -0.875837 -0.482307 0.017017
vn 0.241996 -0.96878 0.053892
vn 0.241996 -0.96878 0.053892
vn -0.010731 -0.946414 -0.322776
vn 0.002237 0.85675 0.515727
vn -0.000026 0.85669 0.515833
vn 0.000661 0.856412 0.516293
vn -0.839445 0.321819 0.437911
vn 0.413239 -0.676085 0.610036
vn 0.355646 0.223259 0.907564
vn -0.935207 -0.342288 0.090705
vn -0.006129 0.85368 0.520761
vn 0.00066 0.855995 0.516983
vn 0.445211 -0.724894 0.525657
vn 0.931722 -0.355237 0.075506
vn 0.857181 0.514723 -0.017373
vn 0.413239 -0.676085 0.610036
vn 0.355646 0.223259 0.907564
vn -0.000026 0.85669 0.515833
vn -0.006129 0.85368 0.520761
vn 0.000987 0.271671 -0.96239
vn 0.000987 0.271671 -0.96239
vn 0.000987 0.271671 -0.96239
vn 0.000987 0.271671 -0.96239
vn -0.858132 0.513311 -0.011002
vn -0.935207 -0.342288 0.090705
vn 0.001055 0.856756 0.515721
vn -0.000026 0.85669 0.515833
vn 0.001055 0.856756 0.515721
vn 0.001055 0.856756 0.515721
vn 0.000209 0.855968 0.51703
vn -0.000963 0.858079 0.513518
vn 0.00066 0.855995 0.516983
vn 0.000661 0.85599 0.516992
vn -0.006129 0.85368 0.520761
vn 0.00066 0.855995 0.516983
vn 0.00086 -0.954131 0.299388
vn 0.00086 -0.954131 0.299388
vn 0.892902 0.41974 -0.162923
vn 0.937547 0.095994 0.334352
vn 0.00073 0.999988 -0.004856
vn -0.895179 0.415921 -0.160201
vn 0.00073 0.999988 -0.004856
vn -0.970671 0.112242 0.212603
vn -0.010731 -0.946414 -0.322776
vn -0.875837 -0.482307 0.017017
vn 0.94048 -0.337692 0.038231
vn -0.948203 -0.316039 0.032096
vn -0.771975 -0.061842 0.632638
vn -0.771975 -0.061842 0.632638
vn 0.921376 0.252162 -0.29577
vn 0.917898 0.249835 -0.308294
vn -0.771975 -0.061842 0.632638
vn 0.917898 0.249835 -0.308294
vn 0.917898 0.249835 -0.308294
vn -0.771975 -0.061842 0.632638
vn 0.772554 -0.061773 0.631937
vn -0.921118 0.252558 -0.296235
vn 0.772554 -0.061773 0.631937
vn -0.917629 0.250227 -0.308778
vn 0.772554 -0.061773 0.631937
vn -0.917629 0.250227 -0.308778
vn -0.917629 0.250227 -0.308778
vn 0.772554 -0.061773 0.631937
vn 0.95781 -0.259211 -0.12414
vn 0.132014 0.803612 0.580327
vn 0.132014 0.803612 0.580327
vn 0.95781 -0.259211 -0.12414
vn -0.435426 0.316782 0.842647
vn -0.435426 0.316782 0.842647
vn -0.524215 -0.369883 0.767062
vn -0.524215 -0.369883 0.767062
vn 0.102893 -0.955424 0.276727
vn 0.102893 -0.955424 0.276727
vn 0.95781 -0.259211 -0.12414
vn 0.95781 -0.259211 -0.12414
vn 0.590648 -0.038109 0.806029
vn 0.590648 -0.038109 0.806029
vn 0.590648 -0.038109 0.806029
vn 0.590648 -0.038109 0.806029
vn 0.590648 -0.038109 0.806029
vn 0.590648 -0.038109 0.806029
vn -0.136834 0.804996 0.577285
vn -0.958651 -0.255015 -0.126317
vn -0.136834 0.804996 0.577285
vn -0.958651 -0.255015 -0.126317
vn 0.433244 0.31893 0.842961
vn 0.433244 0.31893 0.842961
vn 0.522462 -0.372209 0.767134
vn 0.522462 -0.372209 0.767134
vn -0.110194 -0.955912 0.272193
vn -0.110194 -0.955912 0.272193
vn -0.958651 -0.255015 -0.126317
vn -0.958651 -0.255015 -0.126317
vn -0.594566 -0.037074 0.803192
vn -0.594566 -0.037074 0.803192
vn -0.594566 -0.037074 0.803192
vn -0.594566 -0.037074 0.803192
vn -0.594566 -0.037074 0.803192
vn -0.594566 -0.037074 0.803192
usemtl datan_common_arm28_ozs_ea482b30
f 1/1/1 2/2/2 3/3/3
f 3/3/3 4/4/4 1/1/1
f 5/5/5 6/6/6 7/7/7
f 7/7/7 8/8/8 5/5/5
f 8/8/8 7/7/7 9/9/9
f 9/9/9 10/10/10 8/8/8
f 11/11/11 12/12/12 13/13/13
f 13/13/13 14/14/14 11/11/11
f 15/15/15 16/16/16 17/17/17
f 17/17/17 18/18/18 15/15/15
f 16/16/16 19/19/19 20/20/20
f 20/20/20 17/17/17 16/16/16
f 21/21/21 22/22/22 23/23/23
f 23/23/23 24/24/24 21/21/21
f 25/25/25 26/26/26 27/27/27
f 27/27/27 28/28/28 25/25/25
f 26/26/26 29/29/29 30/30/30
f 30/30/30 27/27/27 26/26/26
f 31/31/31 32/32/32 33/33/33
f 33/33/33 34/34/34 31/31/31
f 35/35/35 36/36/36 37/37/37
f 37/37/37 38/38/38 35/35/35
f 39/39/39 40/40/40 41/41/41
f 41/41/41 42/42/42 39/39/39
f 43/43/43 44/44/44 45/45/45
f 45/45/45 46/46/46 43/43/43
f 47/47/47 48/48/48 49/49/49
f 49/49/49 50/50/50 47/47/47
f 51/51/51 52/52/52 53/53/53
f 53/53/53 54/54/54 51/51/51
f 52/52/52 55/55/55 53/53/53
f 56/56/56 57/57/57 58/58/58
f 57/57/57 59/59/59 60/60/60
f 60/60/60 58/58/58 57/57/57
f 61/61/61 62/62/62 63/63/63
f 64/64/64 51/51/51 54/54/54
f 55/55/55 56/56/56 58/58/58
f 58/58/58 53/53/53 55/55/55
f 65/65/65 61/61/61 63/63/63
f 63/63/63 60/60/60 65/65/65
f 62/62/62 64/64/64 54/54/54
f 54/54/54 63/63/63 62/62/62
f 59/59/59 65/65/65 60/60/60
f 53/53/53 58/58/58 66/66/66
f 60/60/60 63/63/63 66/66/66
f 63/63/63 54/54/54 66/66/66
f 54/54/54 53/53/53 66/66/66
f 58/58/58 60/60/60 66/66/66
f 67/67/67 68/68/68 69/69/69
f 70/70/70 71/71/71 67/67/67
f 72/72/72 73/73/73 74/74/74
f 75/75/75 76/76/76 77/77/77
f 76/76/76 75/75/75 78/78/78
f 75/75/75 77/77/77 79/79/79
f 79/79/79 80/80/80 75/75/75
f 81/81/81 82/82/82 83/83/83
f 83/83/83 84/84/84 81/81/81
f 85/85/85 83/83/83 86/86/86
f 86/86/86 87/87/87 85/85/85
f 88/88/88 89/89/89 90/90/90
f 90/90/90 91/91/91 88/88/88
f 92/92/92 78/78/78 75/75/75
f 78/78/78 92/92/92 93/93/93
f 92/92/92 75/75/75 80/80/80
f 80/80/80 94/94/94 92/92/92
f 87/87/87 86/86/86 95/95/95
f 73/73/73 96/96/96 74/74/74
f 96/96/96 97/97/97 74/74/74
f 94/94/94 98/98/98 99/99/99
f 100/100/100 98/98/98 80/80/80
f 80/80/80 79/79/79 101/101/101
f 79/79/79 102/102/102 101/101/101
f 95/95/95 73/73/73 72/72/72
f 94/94/94 99/99/99 97/97/97
f 94/94/94 80/80/80 98/98/98
f 80/80/80 101/101/101 103/103/103
f 87/87/87 95/95/95 102/102/102
f 100/100/100 80/80/80 103/103/103
f 69/69/69 68/68/68 104/104/104
f 104/104/104 105/105/105 69/69/69
f 73/73/73 106/106/106 107/107/107
f 107/107/107 108/108/108 73/73/73
f 109/109/109 96/96/96 110/110/110
f 110/110/110 111/111/111 109/109/109
f 96/96/96 73/73/73 108/108/108
f 108/108/108 110/110/110 96/96/96
f 70/70/70 112/112/112 71/71/71
f 76/76/76 81/81/81 84/84/84
f 84/84/84 77/77/77 76/76/76
f 87/87/87 79/79/79 85/85/85
f 77/77/77 85/85/85 79/79/79
f 102/102/102 79/79/79 87/87/87
f 67/67/67 113/113/113 68/68/68
f 67/67/67 69/69/69 70/70/70
f 114/114/114 106/106/106 83/83/83
f 73/73/73 83/83/83 106/106/106
f 83/83/83 73/73/73 86/86/86
f 109/109/109 115/115/115 92/92/92
f 92/92/92 96/96/96 109/109/109
f 94/94/94 96/96/96 92/92/92
f 95/95/95 86/86/86 73/73/73
f 97/97/97 96/96/96 94/94/94
f 116/116/116 117/117/117 118/118/118
f 118/118/118 119/119/119 116/116/116
f 120/120/120 121/121/121 122/122/122
f 122/122/122 123/123/123 120/120/120
f 116/116/116 119/119/119 121/121/121
f 121/121/121 120/120/120 116/116/116
f 119/119/119 118/118/118 122/122/122
f 122/122/122 121/121/121 119/119/119
f 117/117/117 116/116/116 120/120/120
f 120/120/120 123/123/123 117/117/117
f 124/124/124 125/125/125 126/126/126
f 125/125/125 124/124/124 127/127/127
f 128/128/128 129/129/129 130/130/130
f 129/129/129 128/128/128 131/131/131
f 124/124/124 130/130/130 127/127/127
f 130/130/130 124/124/124 128/128/128
f 127/127/127 129/129/129 125/125/125
f 129/129/129 127/127/127 130/130/130
f 126/126/126 128/128/128 124/124/124
f 128/128/128 126/126/126 131/131/131
f 132/132/132 133/133/133 134/134/134
f 132/132/132 134/134/134 135/135/135
f 133/133/133 136/136/136 137/137/137
f 133/133/133 137/137/137 134/134/134
f 136/136/136 138/138/138 139/139/139
f 136/136/136 139/139/139 137/137/137
f 138/138/138 140/140/140 141/141/141
f 138/138/138 141/141/141 139/139/139
f 140/140/140 142/142/142 143/143/143
f 140/140/140 143/143/143 141/141/141
f 142/142/142 132/132/132 135/135/135
f 142/142/142 135/135/135 143/143/143
f 144/144/144 145/145/145 146/146/146
f 147/147/147 144/144/144 146/146/146
f 147/147/147 146/146/146 148/148/148
f 149/149/149 147/147/147 148/148/148
f 150/150/150 151/151/151 152/152/152
f 152/152/152 151/151/151 153/153/153
f 154/154/154 150/150/150 155/155/155
f 155/155/155 150/150/150 152/152/152
f 156/156/156 154/154/154 157/157/157
f 157/157/157 154/154/154 155/155/155
f 158/158/158 156/156/156 159/159/159
f 159/159/159 156/156/156 157/157/157
f 160/160/160 158/158/158 161/161/161
f 161/161/161 158/158/158 159/159/159
f 151/151/151 160/160/160 153/153/153
f 153/153/153 160/160/160 161/161/161
f 162/162/162 163/163/163 164/164/164
f 163/163/163 165/165/165 164/164/164
f 164/164/164 165/165/165 166/166/166
f 165/165/165 167/167/167 166/166/166
o datan_common_arm28_ozs_ea482b30_mesh01
v 0.150965 0.010302 0.642364
v 0.210911 0.010302 0.572079
v 0.162381 0.112085 0.658318
v 0.222328 0.112085 0.588032
vt 0.988242 0.261758
vt 0.761758 0.261758
vt 0.988242 0.488242
vt 0.761758 0.488242
vn 0.74788 -0.183865 0.637863
vn 0.74788 -0.183865 0.637863
vn 0.74788 -0.183865 0.637863
vn 0.74788 -0.183865 0.637863
usemtl datan_common_arm28_ozs_ea482b30
f 168/168/168 169/169/169 170/170/170
f 171/171/171 170/170/170 169/169/169
o datan_common_arm28_ozs_ea482b30_mesh02
v -0.211683 0.015577 0.573458
v -0.151737 0.015577 0.643744
v -0.163118 0.117374 0.659647
v -0.223064 0.117374 0.589361
vt 0.761758 0.261758
vt 0.988242 0.261758
vt 0.988242 0.488242
vt 0.761758 0.488242
vn -0.747962 -0.183285 0.637933
vn -0.747962 -0.183285 0.637933
vn -0.747962 -0.183285 0.637933
vn -0.747962 -0.183285 0.637933
usemtl datan_common_arm28_ozs_ea482b30
f 172/172/172 173/173/173 174/174/174
f 174/174/174 175/175/175 172/172/172
o datan_common_arm28_ozs_ea482b30_mesh03
v 0.095626 0.292921 0.275769
v 0.036013 0.315224 0.224814
v -0.001269 0.250439 0.245817
v 0.073814 0.222606 0.309831
v -0.037944 0.315224 0.224814
v -0.097678 0.292921 0.275769
v -0.120472 0.256704 0.358174
v -0.076429 0.222613 0.309813
v -0.097402 0.220445 0.440333
v -0.047762 0.177622 0.413285
v 0.035892 0.198005 0.491211
v 0.095626 0.220443 0.440337
v 0.045119 0.17753 0.413498
v 0.118443 0.256704 0.358174
v -0.038279 0.198005 0.491211
v 0.00058 0.229512 0.346894
vt 0.470953 0.201666
vt 0.414411 0.244059
vt 0.376656 0.202192
vt 0.448864 0.140385
vt 0.339517 0.244059
vt 0.275197 0.197837
vt 0.255941 0.126844
vt 0.296715 0.144229
vt 0.279304 0.048347
vt 0.325746 0.046685
vt 0.414289 0.005941
vt 0.470953 0.048343
vt 0.423633 0.046491
vt 0.494059 0.123016
vt 0.339177 0.005942
vt 0.370831 0.111997
vn -0.791984 0.447087 0.415781
vn -0.000001 0.308399 0.951257
vn 0.189787 0.962117 0.195734
vn 0.189787 0.962117 0.195734
vn 0.449483 0.495432 0.743311
vn 0.449062 0.495686 0.743397
vn 0.687278 0.716242 0.12102
vn -0.29152 0.845059 0.448209
vn 0.538265 0.797001 -0.273973
vn -0.29152 0.845059 0.448209
vn 0.000003 0.966998 -0.254785
vn -0.680295 0.722085 0.125665
vn 0.306675 0.838905 0.449654
vn -0.685059 0.717441 0.126385
vn 0.538265 0.797001 -0.273973
vn -0.29152 0.845059 0.448209
usemtl datan_common_arm28_ozs_ea482b30
f 176/176/176 177/177/177 178/178/178
f 178/178/178 179/179/179 176/176/176
f 177/177/177 180/180/180 178/178/178
f 181/181/181 182/182/182 183/183/183
f 182/182/182 184/184/184 185/185/185
f 185/185/185 183/183/183 182/182/182
f 186/186/186 187/187/187 188/188/188
f 189/189/189 176/176/176 179/179/179
f 180/180/180 181/181/181 183/183/183
f 183/183/183 178/178/178 180/180/180
f 190/190/190 186/186/186 188/188/188
f 188/188/188 185/185/185 190/190/190
f 187/187/187 189/189/189 179/179/179
f 179/179/179 188/188/188 187/187/187
f 184/184/184 190/190/190 185/185/185
f 178/178/178 183/183/183 191/191/191
f 185/185/185 188/188/188 191/191/191
f 188/188/188 179/179/179 191/191/191
f 179/179/179 178/178/178 191/191/191
f 183/183/183 185/185/185 191/191/191
