# Generated from Nova1492 GX by tools/nova1492/GxObjConverter
mtllib datan_common_n_arm69_rkog_58048a89.mtl
o datan_common_n_arm69_rkog_58048a89
v -0.08325 0.047894 0.108676
v 0.08325 0.047894 0.108676
v 0.08325 0.047894 -0.108676
v 0.08325 0.047894 -0.108676
v -0.08325 0.047894 -0.108676
v -0.08325 -0.369466 0.108676
v 0.08325 -0.369466 0.108676
v 0.08325 0.047894 0.108676
v -0.08325 0.047894 0.108676
v 0.08325 -0.369466 0.108676
v 0.08325 -0.370098 -0.108676
v 0.08325 0.047894 -0.108676
v 0.08325 0.047894 0.108676
v 0.08325 -0.370098 -0.108676
v -0.08325 -0.370098 -0.108676
v -0.08325 0.047894 -0.108676
v 0.08325 0.047894 -0.108676
v -0.08325 -0.370098 -0.108676
v -0.08325 -0.369466 0.108676
v -0.08325 0.047894 0.108676
v -0.08325 0.047894 -0.108676
v -0.052031 -0.48744 -0
v -0.08325 -0.370098 -0.108676
v 0.052031 -0.48744 -0
v 0.08325 -0.370098 -0.108676
v 0.052031 -0.48744 -0
v -0.08325 -0.370098 -0.108676
v -0.08325 -0.369466 0.108676
v -0.052031 -0.48744 -0
v 0.08325 -0.369466 0.108676
v 0.052031 -0.48744 -0
v 0.08325 -0.369466 0.108676
v -0.052031 -0.48744 -0
v 0.052031 -0.48744 -0
v -0.052031 -0.48744 -0
v -0.089111 -0.429835 0.045425
v 0.085437 -0.397109 0.047805
v 0.105628 -0.500304 -0.014047
v -0.06892 -0.53303 -0.016427
v -0.058422 -0.663319 0.554217
v 0.12812 -0.628345 0.55676
v 0.091949 -0.408957 0.188517
v -0.094594 -0.443932 0.185973
v 0.12812 -0.628345 0.55676
v 0.168267 -0.833509 0.4335
v 0.132114 -0.614232 0.065448
v 0.091949 -0.408957 0.188517
v 0.168267 -0.833509 0.4335
v -0.018275 -0.868483 0.430956
v -0.054429 -0.649207 0.062904
v 0.132114 -0.614232 0.065448
v -0.018275 -0.868483 0.430956
v -0.058422 -0.663319 0.554217
v -0.094594 -0.443932 0.185973
v -0.054429 -0.649207 0.062904
v 0.105628 -0.500304 -0.014047
v 0.085437 -0.397109 0.047805
v -0.089111 -0.429835 0.045425
v -0.06892 -0.53303 -0.016427
v -0.089111 -0.429835 0.045425
v -0.094594 -0.443932 0.185973
v 0.085437 -0.397109 0.047805
v 0.091949 -0.408957 0.188517
v 0.085437 -0.397109 0.047805
v -0.094594 -0.443932 0.185973
v -0.054429 -0.649207 0.062904
v -0.06892 -0.53303 -0.016427
v 0.132114 -0.614232 0.065448
v 0.105628 -0.500304 -0.014047
v 0.132114 -0.614232 0.065448
v -0.06892 -0.53303 -0.016427
v -0.058422 -0.663319 0.554217
v -0.018275 -0.868483 0.430956
v 0.168267 -0.833509 0.4335
v 0.168267 -0.833509 0.4335
v 0.12812 -0.628345 0.55676
v -0.005445 -0.764898 0.742526
v 0.024858 -0.931484 0.642726
v 0.151029 -0.89425 0.613058
v 0.165106 -0.7188 0.711539
v -0.005445 -0.764898 0.742526
v 0.165106 -0.7188 0.711539
v 0.11095 -0.649662 0.517662
v -0.038034 -0.679418 0.522094
v 0.165106 -0.7188 0.711539
v 0.151029 -0.89425 0.613058
v 0.09585 -0.816024 0.445841
v 0.11095 -0.649662 0.517662
v 0.151029 -0.89425 0.613058
v 0.024858 -0.931484 0.642726
v -0.008753 -0.836916 0.448953
v 0.09585 -0.816024 0.445841
v 0.024858 -0.931484 0.642726
v -0.005445 -0.764898 0.742526
v -0.038034 -0.679418 0.522094
v -0.008753 -0.836916 0.448953
v 0.103286 0.000523 0.271891
v 0.165795 -0.512144 1.446368
v 0.267871 -0.614358 1.379321
v 0.041463 0.06243 0.312499
v 0.009474 -0.542461 1.443736
v -0.053214 0.044068 0.310905
v -0.044773 -0.674992 1.374056
v -0.086068 -0.036201 0.268703
v 0.057303 -0.777207 1.307009
v -0.024246 -0.098107 0.228095
v 0.070431 -0.079746 0.22969
v 0.213624 -0.74689 1.309641
v 0.299716 -0.601077 1.367658
v 0.205885 -0.613722 1.72056
v 0.339425 -0.747444 1.632845
v 0.176109 -0.477302 1.448849
v 0.001377 -0.653384 1.717117
v -0.013188 -0.514014 1.445662
v -0.06959 -0.826768 1.625959
v -0.078877 -0.674501 1.361284
v 0.063949 -0.96049 1.538244
v 0.04473 -0.798277 1.280093
v 0.234026 -0.761565 1.28328
v 0.268457 -0.920828 1.541687
v 0.299716 -0.601077 1.367658
v -0.013188 -0.514014 1.445662
v 0.176109 -0.477302 1.448849
v -0.078877 -0.674501 1.361284
v 0.04473 -0.798277 1.280093
v 0.234026 -0.761565 1.28328
v -0.06959 -0.826768 1.625959
v 0.339425 -0.747444 1.632845
v 0.205885 -0.613722 1.72056
v 0.001377 -0.653384 1.717117
v 0.063949 -0.96049 1.538244
v 0.268457 -0.920828 1.541687
v 0.063949 -0.96049 1.538244
v 0.04473 -0.798277 1.280093
v 0.234026 -0.761565 1.28328
v 0.268457 -0.920828 1.541687
v 0.063949 -0.96049 1.538244
v 0.234026 -0.761565 1.28328
v 0.213624 -0.74689 1.309641
v 0.057303 -0.777207 1.307009
v -0.024246 -0.098107 0.228095
v 0.070431 -0.079746 0.22969
v 0.213624 -0.74689 1.309641
v -0.024246 -0.098107 0.228095
v 0.203866 -0.226183 0.690476
v 0.125342 -0.266492 1.00991
v 0.227216 -0.368505 0.942995
v 0.101992 -0.12417 0.757391
v -0.030671 -0.296749 1.007283
v -0.054021 -0.154428 0.754764
v -0.084811 -0.429019 0.937741
v -0.108161 -0.286698 0.685222
v 0.071679 -0.534732 0.818723
v 0.055348 -0.435192 0.64211
v 0.109191 -0.424749 0.643017
v 0.125522 -0.52429 0.81963
v 0.203866 -0.226183 0.690476
v -0.054021 -0.154428 0.754764
v 0.101992 -0.12417 0.757391
v -0.108161 -0.286698 0.685222
v 0.055348 -0.435192 0.64211
v 0.109191 -0.424749 0.643017
v -0.084811 -0.429019 0.937741
v 0.227216 -0.368505 0.942995
v 0.125342 -0.266492 1.00991
v -0.030671 -0.296749 1.007283
v 0.071679 -0.534732 0.818723
v 0.125522 -0.52429 0.81963
v 0.18275 -1.079871 0.501208
v 0.236593 -1.069429 0.502115
v 0.125522 -0.52429 0.81963
v 0.071679 -0.534732 0.818723
v 0.236593 -1.069429 0.502115
v 0.211349 -0.926147 0.350979
v 0.109191 -0.424749 0.643017
v 0.125522 -0.52429 0.81963
v 0.211349 -0.926147 0.350979
v 0.157506 -0.93659 0.350072
v 0.055348 -0.435192 0.64211
v 0.109191 -0.424749 0.643017
v 0.157506 -0.93659 0.350072
v 0.18275 -1.079871 0.501208
v 0.071679 -0.534732 0.818723
v 0.055348 -0.435192 0.64211
vt 0.922607 0.714785
vt 0.933175 0.714785
vt 0.946089 0.714785
vt 0.89721 0.712871
vt 0.907779 0.712871
vt 0.922607 0.625428
vt 0.931261 0.625428
vt 0.931261 0.712871
vt 0.922607 0.712871
vt 0.933175 0.625428
vt 0.946089 0.62529
vt 0.946089 0.712871
vt 0.933175 0.712871
vt 0.89721 0.62529
vt 0.905865 0.62529
vt 0.905865 0.712871
vt 0.89721 0.712871
vt 0.907779 0.62529
vt 0.920692 0.625428
vt 0.920692 0.712871
vt 0.907779 0.712871
vt 0.913279 0.599629
vt 0.905865 0.621462
vt 0.889797 0.599629
vt 0.89721 0.621462
vt 0.889797 0.599629
vt 0.905865 0.621462
vt 0.922607 0.6216
vt 0.915193 0.599629
vt 0.931261 0.6216
vt 0.938675 0.599629
vt 0.931261 0.6216
vt 0.915193 0.599629
vt 0.940589 0.599629
vt 0.915193 0.599629
vt 0.903745 0.121035
vt 0.920622 0.121035
vt 0.878308 0.12292
vt 0.895178 0.119092
vt 0.908318 0.005879
vt 0.917963 0.005879
vt 0.917963 0.089082
vt 0.908318 0.089082
vt 0.919877 0.005879
vt 0.933759 0.005879
vt 0.933759 0.08903
vt 0.919877 0.089082
vt 0.880964 0.005879
vt 0.890608 0.005879
vt 0.890608 0.08903
vt 0.880964 0.08903
vt 0.892522 0.005879
vt 0.906404 0.005879
vt 0.906404 0.089082
vt 0.892522 0.08903
vt 0.931103 0.119092
vt 0.922536 0.119121
vt 0.905659 0.119121
vt 0.895178 0.119092
vt 0.905659 0.119121
vt 0.908318 0.09291
vt 0.920622 0.119121
vt 0.917963 0.09291
vt 0.920622 0.119121
vt 0.908318 0.09291
vt 0.890608 0.092858
vt 0.893264 0.119092
vt 0.880964 0.092858
vt 0.878308 0.119092
vt 0.880964 0.092858
vt 0.893264 0.119092
vt 0.978077 0.519559
vt 0.97262 0.519559
vt 0.967226 0.519559
vt 0.990843 0.521473
vt 0.985385 0.521473
vt 0.674658 0.094228
vt 0.674644 0.163701
vt 0.699502 0.164798
vt 0.71009 0.091365
vt 0.674658 0.0904
vt 0.708176 0.091365
vt 0.708675 0.01552
vt 0.680883 0.005941
vt 0.71009 0.095193
vt 0.701416 0.164798
vt 0.735955 0.186889
vt 0.747029 0.122386
vt 0.699502 0.168626
vt 0.674644 0.167529
vt 0.68135 0.244059
vt 0.702111 0.236345
vt 0.67273 0.163701
vt 0.672744 0.094228
vt 0.627971 0.106552
vt 0.631388 0.168069
vt 0.658184 0.255941
vt 0.676452 0.459138
vt 0.658184 0.459138
vt 0.678366 0.255941
vt 0.698548 0.459138
vt 0.698548 0.255941
vt 0.716816 0.459138
vt 0.716816 0.255941
vt 0.736999 0.459138
vt 0.736999 0.255941
vt 0.638001 0.255941
vt 0.638001 0.459138
vt 0.658184 0.460622
vt 0.676452 0.494059
vt 0.658184 0.494059
vt 0.678366 0.456794
vt 0.698548 0.494059
vt 0.698548 0.456794
vt 0.716816 0.494059
vt 0.716816 0.456794
vt 0.736999 0.494059
vt 0.736999 0.456794
vt 0.638001 0.456794
vt 0.638001 0.494059
vt 0.87209 0.376914
vt 0.785454 0.476004
vt 0.839546 0.476004
vt 0.75291 0.373086
vt 0.785454 0.273996
vt 0.84146 0.273996
vt 0.75291 0.376914
vt 0.87209 0.376914
vt 0.839546 0.469192
vt 0.785454 0.469192
vt 0.785454 0.280808
vt 0.839546 0.280808
vt 0.670908 0.599629
vt 0.673085 0.618597
vt 0.725352 0.618597
vt 0.727529 0.599629
vt 0.670908 0.599629
vt 0.725352 0.618597
vt 0.720633 0.621374
vt 0.677804 0.621374
vt 0.686626 0.712871
vt 0.711811 0.712871
vt 0.720633 0.621374
vt 0.686626 0.712871
vt 0.658184 0.330818
vt 0.676452 0.375433
vt 0.658184 0.375433
vt 0.678366 0.330818
vt 0.698548 0.375433
vt 0.698548 0.330818
vt 0.716816 0.375433
vt 0.716816 0.330818
vt 0.744112 0.368929
vt 0.744112 0.338875
vt 0.630888 0.338875
vt 0.630888 0.368929
vt 0.872029 0.37957
vt 0.783214 0.478088
vt 0.841786 0.478088
vt 0.752971 0.375742
vt 0.80302 0.255941
vt 0.823895 0.255941
vt 0.752971 0.365413
vt 0.872029 0.365413
vt 0.841786 0.483529
vt 0.783214 0.483529
vt 0.80302 0.255941
vt 0.821981 0.255941
vt 0.563087 0.505941
vt 0.570864 0.505941
vt 0.570864 0.744059
vt 0.563087 0.744059
vt 0.572778 0.505941
vt 0.62172 0.525355
vt 0.62172 0.744059
vt 0.572778 0.744059
vt 0.50291 0.525355
vt 0.510317 0.525355
vt 0.510317 0.744059
vt 0.50291 0.744059
vt 0.512231 0.525355
vt 0.561173 0.505941
vt 0.561173 0.744059
vt 0.512231 0.744059
vn -0 1 0
vn -0 1 0
vn -0 1 0
vn -0 1 0
vn -0 1 0
vn -0 -0 1
vn 0 -0 1
vn -0 -0 1
vn -0 -0 1
vn 0.966555 -0.25646 0.000745
vn 0.966555 -0.25646 0.000745
vn 1 -0 -0
vn 1 -0 -0
vn 0 0 -1
vn 0 0 -1
vn 0 0 -1
vn 0 0 -1
vn -0.966555 -0.25646 0.000745
vn -0.966555 -0.25646 0.000745
vn -1 0 -0
vn -1 0 -0
vn 0 -0.679494 -0.733681
vn 0 -0.679494 -0.733681
vn 0 -0.679494 -0.733681
vn 0 -0.679494 -0.733681
vn 0 -0.679494 -0.733681
vn 0 -0.679494 -0.733681
vn 0 -0.677529 0.735496
vn 0 -0.677529 0.735496
vn 0 -0.677529 0.735496
vn 0 -0.677529 0.735496
vn 0 -0.677529 0.735496
vn 0 -0.677529 0.735496
vn 0.966555 -0.25646 0.000745
vn -0.966555 -0.25646 0.000745
vn -0.102161 0.094349 -0.990284
vn -0.102161 0.094349 -0.990284
vn -0.102161 0.094349 -0.990284
vn -0.102161 0.094349 -0.990284
vn -0.224069 0.565708 0.793579
vn -0.224069 0.565708 0.793579
vn -0.224069 0.565708 0.793579
vn -0.224069 0.565708 0.793579
vn 0.968391 -0.236842 0.078261
vn 0.968391 -0.236842 0.078261
vn 0.975582 -0.216267 0.038313
vn 0.975582 -0.216267 0.038313
vn 0.121654 -0.935017 -0.333081
vn 0.121654 -0.935017 -0.333081
vn 0.121654 -0.935017 -0.333081
vn 0.121654 -0.935017 -0.333081
vn -0.849132 -0.526203 0.045669
vn -0.849132 -0.526203 0.045669
vn -0.859939 -0.510295 0.010148
vn -0.859939 -0.510295 0.010148
vn 0.975582 -0.216267 0.038313
vn 0.97558 -0.216275 0.038316
vn -0.859939 -0.510295 0.010148
vn -0.859939 -0.510296 0.010139
vn -0.305495 0.916065 0.259802
vn -0.305495 0.916065 0.259802
vn -0.305495 0.916065 0.259802
vn -0.305495 0.916065 0.259802
vn -0.305495 0.916065 0.259802
vn -0.305495 0.916065 0.259802
vn 0.092163 -0.785045 -0.612544
vn 0.092163 -0.785045 -0.612544
vn 0.092163 -0.785045 -0.612544
vn 0.092163 -0.785045 -0.612544
vn 0.092163 -0.785045 -0.612544
vn 0.092163 -0.785045 -0.612544
vn 0.062638 -0.705188 0.706248
vn 0.062638 -0.705188 0.706248
vn 0.062638 -0.705188 0.706248
vn 0.062638 -0.705188 0.706248
vn 0.062638 -0.705188 0.706248
vn 0.175259 -0.720587 0.670849
vn 0.200426 -0.703212 0.682146
vn 0.175259 -0.720587 0.670849
vn 0.175259 -0.720587 0.670849
vn -0.131059 0.238597 0.962234
vn -0.140248 0.240443 0.960478
vn -0.131059 0.238597 0.962234
vn -0.131059 0.238597 0.962234
vn 0.811047 -0.565664 0.149086
vn 0.834125 -0.533866 0.138644
vn 0.811047 -0.565664 0.149086
vn 0.811047 -0.565664 0.149086
vn 0.130673 -0.991422 -0.002633
vn 0.125231 -0.992127 0.001379
vn 0.130673 -0.991422 -0.002633
vn 0.130673 -0.991422 -0.002633
vn -0.636758 -0.681448 0.360787
vn -0.636903 -0.682943 0.357693
vn -0.636758 -0.681448 0.360787
vn -0.636758 -0.681448 0.360787
vn 0.959631 -0.279992 0.026712
vn -0.144683 0.732166 0.665583
vn 0.959631 -0.279992 0.026712
vn -0.144683 0.732166 0.665583
vn -0.859389 0.22631 0.458515
vn -0.859388 0.22631 0.458515
vn -0.780178 -0.625553 -0.002397
vn -0.780178 -0.625553 -0.002397
vn -0.780178 -0.625553 -0.002397
vn -0.780178 -0.625553 -0.002397
vn 0.959631 -0.279992 0.026712
vn 0.959631 -0.279992 0.026712
vn 0.959664 -0.279896 0.026519
vn -0.145029 0.734182 0.663283
vn 0.959664 -0.279896 0.026519
vn -0.145029 0.734182 0.663282
vn -0.859993 0.227545 0.456766
vn -0.859993 0.227545 0.456766
vn -0.78024 -0.625475 -0.002595
vn -0.78024 -0.625475 -0.002595
vn -0.78024 -0.625475 -0.002595
vn -0.78024 -0.625475 -0.002595
vn 0.959664 -0.279896 0.026519
vn 0.959664 -0.279896 0.026519
vn -0.093638 0.618864 -0.779897
vn -0.093638 0.618864 -0.779897
vn -0.093638 0.618864 -0.779897
vn -0.093638 0.618864 -0.779897
vn -0.093638 0.618864 -0.779897
vn -0.093638 0.618864 -0.779897
vn 0.07179 -0.410096 0.909213
vn 0.07179 -0.410096 0.909213
vn 0.07179 -0.410096 0.909213
vn 0.07179 -0.410096 0.909213
vn 0.07179 -0.410096 0.909213
vn 0.07179 -0.410096 0.909213
vn 0.198339 -0.945637 -0.257744
vn 0.198339 -0.945637 -0.257744
vn 0.198339 -0.945637 -0.257744
vn 0.198339 -0.945637 -0.257744
vn 0.198339 -0.945637 -0.257744
vn 0.198339 -0.945637 -0.257744
vn 0.19831 -0.945394 -0.258658
vn 0.19831 -0.945394 -0.258658
vn 0.19831 -0.945394 -0.258658
vn 0.19831 -0.945394 -0.258658
vn 0.19831 -0.945394 -0.258658
vn 0.19831 -0.945394 -0.258658
vn 0.738563 -0.523978 0.424232
vn -0.080183 0.373236 0.924265
vn 0.738563 -0.523978 0.424232
vn -0.080183 0.373236 0.924265
vn -0.636817 -0.040403 0.769956
vn -0.636817 -0.040403 0.769956
vn -0.491124 -0.769651 0.407964
vn -0.491124 -0.769651 0.407964
vn -0.491124 -0.769651 0.407964
vn -0.491124 -0.769651 0.407964
vn 0.738563 -0.523978 0.424232
vn 0.738563 -0.523978 0.424232
vn 0.056269 -0.133581 -0.989439
vn -0.093638 0.618864 -0.779897
vn -0.093638 0.618864 -0.779897
vn 0.056269 -0.133581 -0.989439
vn 0.056269 -0.133581 -0.989439
vn 0.056269 -0.133581 -0.989439
vn 0.091073 -0.504672 0.858494
vn 0.091073 -0.504672 0.858494
vn 0.07179 -0.410096 0.909213
vn 0.07179 -0.410096 0.909213
vn 0.091073 -0.504672 0.858494
vn 0.091073 -0.504672 0.858494
vn 0.07179 -0.410096 0.909213
vn 0.07179 -0.410096 0.909213
vn 0.07179 -0.410096 0.909213
vn 0.07179 -0.410096 0.909213
vn 0.772793 -0.093619 0.627715
vn 0.772793 -0.093619 0.627715
vn 0.772793 -0.093619 0.627715
vn 0.772793 -0.093619 0.627715
vn -0.093638 0.618864 -0.779897
vn -0.093638 0.618864 -0.779897
vn -0.093638 0.618864 -0.779897
vn -0.093638 0.618864 -0.779897
vn -0.694234 -0.381124 0.610561
vn -0.694234 -0.381124 0.610561
vn -0.694234 -0.381124 0.610561
vn -0.694234 -0.381124 0.610561
usemtl datan_common_n_arm69_rkog_58048a89
f 1/1/1 2/2/2 3/3/3
f 4/4/4 5/5/5 1/1/1
f 6/6/6 7/7/7 8/8/8
f 8/8/8 9/9/9 6/6/6
f 10/10/10 11/11/11 12/12/12
f 12/12/12 13/13/13 10/10/10
f 14/14/14 15/15/15 16/16/16
f 16/16/16 17/17/17 14/14/14
f 18/18/18 19/19/19 20/20/20
f 20/20/20 21/21/21 18/18/18
f 22/22/22 23/23/23 24/24/24
f 25/25/25 26/26/26 27/27/27
f 28/28/28 29/29/29 30/30/30
f 31/31/31 32/32/32 33/33/33
f 11/11/11 10/10/10 34/34/34
f 19/19/19 18/18/18 35/35/35
f 36/36/36 37/37/37 38/38/38
f 38/38/38 39/39/39 36/36/36
f 40/40/40 41/41/41 42/42/42
f 42/42/42 43/43/43 40/40/40
f 44/44/44 45/45/45 46/46/46
f 46/46/46 47/47/47 44/44/44
f 48/48/48 49/49/49 50/50/50
f 50/50/50 51/51/51 48/48/48
f 52/52/52 53/53/53 54/54/54
f 54/54/54 55/55/55 52/52/52
f 56/56/56 57/57/57 47/47/47
f 58/58/58 59/59/59 55/55/55
f 60/60/60 61/61/61 62/62/62
f 63/63/63 64/64/64 65/65/65
f 66/66/66 67/67/67 68/68/68
f 69/69/69 70/70/70 71/71/71
f 47/47/47 46/46/46 56/56/56
f 55/55/55 54/54/54 58/58/58
f 72/72/72 73/73/73 74/74/74
f 75/75/75 76/76/76 72/72/72
f 77/77/77 78/78/78 79/79/79
f 79/79/79 80/80/80 77/77/77
f 81/81/81 82/82/82 83/83/83
f 83/83/83 84/84/84 81/81/81
f 85/85/85 86/86/86 87/87/87
f 87/87/87 88/88/88 85/85/85
f 89/89/89 90/90/90 91/91/91
f 91/91/91 92/92/92 89/89/89
f 93/93/93 94/94/94 95/95/95
f 95/95/95 96/96/96 93/93/93
f 97/97/97 98/98/98 99/99/99
f 97/97/97 100/100/100 98/98/98
f 100/100/100 101/101/101 98/98/98
f 100/100/100 102/102/102 101/101/101
f 102/102/102 103/103/103 101/101/101
f 102/102/102 104/104/104 103/103/103
f 104/104/104 105/105/105 103/103/103
f 104/104/104 106/106/106 105/105/105
f 107/107/107 99/99/99 108/108/108
f 107/107/107 97/97/97 99/99/99
f 109/109/109 110/110/110 111/111/111
f 109/109/109 112/112/112 110/110/110
f 112/112/112 113/113/113 110/110/110
f 112/112/112 114/114/114 113/113/113
f 114/114/114 115/115/115 113/113/113
f 114/114/114 116/116/116 115/115/115
f 116/116/116 117/117/117 115/115/115
f 116/116/116 118/118/118 117/117/117
f 119/119/119 111/111/111 120/120/120
f 119/119/119 109/109/109 111/111/111
f 121/121/121 122/122/122 123/123/123
f 121/121/121 124/124/124 122/122/122
f 121/121/121 125/125/125 124/124/124
f 121/121/121 126/126/126 125/125/125
f 127/127/127 128/128/128 129/129/129
f 127/127/127 129/129/129 130/130/130
f 127/127/127 131/131/131 132/132/132
f 127/127/127 132/132/132 128/128/128
f 133/133/133 134/134/134 135/135/135
f 136/136/136 137/137/137 138/138/138
f 139/139/139 140/140/140 141/141/141
f 142/142/142 143/143/143 144/144/144
f 145/145/145 146/146/146 147/147/147
f 145/145/145 148/148/148 146/146/146
f 148/148/148 149/149/149 146/146/146
f 148/148/148 150/150/150 149/149/149
f 150/150/150 151/151/151 149/149/149
f 150/150/150 152/152/152 151/151/151
f 152/152/152 153/153/153 151/151/151
f 152/152/152 154/154/154 153/153/153
f 155/155/155 147/147/147 156/156/156
f 155/155/155 145/145/145 147/147/147
f 157/157/157 158/158/158 159/159/159
f 157/157/157 160/160/160 158/158/158
f 157/157/157 161/161/161 160/160/160
f 157/157/157 162/162/162 161/161/161
f 163/163/163 164/164/164 165/165/165
f 163/163/163 165/165/165 166/166/166
f 163/163/163 167/167/167 168/168/168
f 163/163/163 168/168/168 164/164/164
f 169/169/169 170/170/170 171/171/171
f 171/171/171 172/172/172 169/169/169
f 173/173/173 174/174/174 175/175/175
f 175/175/175 176/176/176 173/173/173
f 177/177/177 178/178/178 179/179/179
f 179/179/179 180/180/180 177/177/177
f 181/181/181 182/182/182 183/183/183
f 183/183/183 184/184/184 181/181/181
