# Generated from Nova1492 GX by tools/nova1492/GxObjConverter
mtllib datan_common___RArm_6a3eb2ba.mtl
o datan_common___RArm_6a3eb2ba
v -0.591586 0.406331 -0
v -0.640328 -0 0
v -0.591586 0.373076 0.135455
v -0.591586 0.278373 0.250289
v -0.591586 0.13664 0.327018
v -0.591586 -0 0.353962
v -0.591586 -0 -0.353962
v -0.591586 0.13664 -0.327018
v -0.591586 0.278373 -0.250289
v -0.591586 0.373076 -0.135455
v -0.45278 0.684294 -0
v -0.45278 0.631447 0.21794
v -0.45278 0.48095 0.402701
v -0.45278 0.255716 0.526155
v -0.45278 0 0.569506
v -0.45278 -0 -0.569506
v -0.45278 0.255716 -0.526155
v -0.45278 0.48095 -0.402701
v -0.45278 0.631447 -0.21794
v -0.245043 0.838199 -0
v -0.245043 0.775113 0.260029
v -0.245043 0.59546 0.48047
v -0.245043 0.323779 0.627765
v -0.245043 0 0.679488
v -0.245043 0 -0.679488
v -0.245043 0.323779 -0.627765
v -0.245043 0.59546 -0.48047
v -0.245043 0.775113 -0.260029
v -0 0.897044 -0
v 0 0.828761 0.281453
v 0 0.634306 0.520057
v 0 0.343284 0.679488
v 0 0 0.735472
v -0 0 -0.735472
v -0 0.343284 -0.679488
v -0 0.634306 -0.520058
v -0 0.828761 -0.281453
vt 0.623086 0.179947
vt 0.623086 0.006066
vt 0.572984 0.165403
vt 0.527265 0.123985
vt 0.496716 0.061998
vt 0.485989 0.006066
vt 0.764011 0.006066
vt 0.753284 0.061998
vt 0.726563 0.123985
vt 0.680844 0.165403
vt 0.626914 0.301514
vt 0.540144 0.278401
vt 0.466584 0.212582
vt 0.417432 0.114075
vt 0.400172 0.006066
vt 0.849828 0.006066
vt 0.836396 0.114075
vt 0.787245 0.212582
vt 0.713684 0.278401
vt 0.623086 0.368824
vt 0.523387 0.341234
vt 0.435621 0.262663
vt 0.376977 0.143843
vt 0.356384 0.006066
vt 0.893616 0.006066
vt 0.876851 0.143843
vt 0.818207 0.262663
vt 0.730441 0.341234
vt 0.623086 0.39456
vt 0.514857 0.364696
vt 0.41986 0.279652
vt 0.356384 0.152373
vt 0.334095 0.006066
vt 0.915905 0.006066
vt 0.897444 0.152373
vt 0.833969 0.279652
vt 0.738971 0.364697
vn -0.88932 0.444097 -0.109029
vn -0.992458 0.119052 -0.029228
vn -0.876926 0.370797 0.305796
vn -0.857951 0.244576 0.451777
vn -0.835999 0.106159 0.538365
vn -0.835999 0.106159 0.538365
vn -0.843982 0.103768 -0.526238
vn -0.856638 0.245617 -0.453701
vn -0.875761 0.372432 -0.307144
vn -0.88932 0.444097 -0.109029
vn -0.584302 0.788681 -0.191244
vn -0.553054 0.645967 0.526173
vn -0.505847 0.414616 0.756447
vn -0.462735 0.148173 0.874026
vn -0.462735 0.148173 0.874026
vn -0.47311 0.147254 -0.86861
vn -0.510208 0.41338 -0.754192
vn -0.553253 0.645865 -0.526089
vn -0.584302 0.788681 -0.191244
vn -0.227267 0.946379 -0.229601
vn -0.219461 0.756279 0.616343
vn -0.218117 0.465143 0.857944
vn -0.220076 0.15388 0.963269
vn -0.220076 0.15388 0.963269
vn -0.215784 0.154031 -0.964216
vn -0.212604 0.465722 -0.859013
vn -0.219461 0.756279 -0.616343
vn -0.227267 0.946379 -0.229601
vn -0.227267 0.946379 -0.229601
vn -0.219462 0.756279 0.616343
vn -0.212856 0.469446 0.85692
vn -0.21592 0.157162 0.96368
vn -0.220076 0.15388 0.963269
vn -0.219966 0.157016 -0.962788
vn -0.21799 0.468902 -0.855927
vn -0.219462 0.756279 -0.616343
vn -0.227267 0.946379 -0.229601
usemtl datan_common___RArm_6a3eb2ba
f 1/1/1 2/2/2 3/3/3
f 3/3/3 2/2/2 4/4/4
f 4/4/4 2/2/2 5/5/5
f 5/5/5 2/2/2 6/6/6
f 7/7/7 2/2/2 8/8/8
f 8/8/8 2/2/2 9/9/9
f 9/9/9 2/2/2 10/10/10
f 10/10/10 2/2/2 1/1/1
f 11/11/11 1/1/1 12/12/12
f 12/12/12 1/1/1 3/3/3
f 12/12/12 3/3/3 13/13/13
f 13/13/13 3/3/3 4/4/4
f 13/13/13 4/4/4 14/14/14
f 14/14/14 4/4/4 5/5/5
f 14/14/14 5/5/5 15/15/15
f 15/15/15 5/5/5 6/6/6
f 16/16/16 7/7/7 17/17/17
f 17/17/17 7/7/7 8/8/8
f 17/17/17 8/8/8 18/18/18
f 18/18/18 8/8/8 9/9/9
f 18/18/18 9/9/9 19/19/19
f 19/19/19 9/9/9 10/10/10
f 19/19/19 10/10/10 11/11/11
f 11/11/11 10/10/10 1/1/1
f 20/20/20 11/11/11 21/21/21
f 21/21/21 11/11/11 12/12/12
f 21/21/21 12/12/12 22/22/22
f 22/22/22 12/12/12 13/13/13
f 22/22/22 13/13/13 23/23/23
f 23/23/23 13/13/13 14/14/14
f 23/23/23 14/14/14 24/24/24
f 24/24/24 14/14/14 15/15/15
f 25/25/25 16/16/16 26/26/26
f 26/26/26 16/16/16 17/17/17
f 26/26/26 17/17/17 27/27/27
f 27/27/27 17/17/17 18/18/18
f 27/27/27 18/18/18 28/28/28
f 28/28/28 18/18/18 19/19/19
f 28/28/28 19/19/19 20/20/20
f 20/20/20 19/19/19 11/11/11
f 29/29/29 20/20/20 30/30/30
f 30/30/30 20/20/20 21/21/21
f 30/30/30 21/21/21 31/31/31
f 31/31/31 21/21/21 22/22/22
f 31/31/31 22/22/22 32/32/32
f 32/32/32 22/22/22 23/23/23
f 32/32/32 23/23/23 33/33/33
f 33/33/33 23/23/23 24/24/24
f 34/34/34 25/25/25 35/35/35
f 35/35/35 25/25/25 26/26/26
f 35/35/35 26/26/26 36/36/36
f 36/36/36 26/26/26 27/27/27
f 36/36/36 27/27/27 37/37/37
