# Generated from Nova1492 GX by tools/nova1492/GxObjConverter
mtllib datan_common_arm12_onms_efa25324.mtl
o datan_common_arm12_onms_efa25324_mesh00
v -0.136689 0.072044 0.432616
v 0.136689 0.072044 0.432616
v 0.165466 0.198148 0.16555
v -0.165466 0.198148 0.16555
v 0.137908 0.249743 0.042174
v -0.137498 0.249743 0.042174
v 0.106095 0.249743 -0.334281
v -0.105756 0.249743 -0.334281
v -0.151905 0.000003 0.464665
v 0.151905 0.000003 0.464665
v 0.20768 0.060456 0.173563
v 0.169602 0.142288 0.039084
v 0.130475 0.142288 -0.371253
v -0.130451 0.142288 -0.371253
v -0.169602 0.142288 0.039084
v -0.20768 0.060456 0.173563
v -0.10417 0.215206 0.129184
v -0.070876 0.249403 0.04204
v -0.10417 0.279253 0.04204
v -0.070876 0.249403 -0.049082
v -0.137464 0.249403 -0.049082
v -0.10417 0.279253 -0.029854
v -0.137464 0.249403 0.04204
v 0.105743 0.215206 0.129184
v 0.139037 0.249403 0.04204
v 0.105743 0.279253 0.04204
v 0.139037 0.249403 -0.049082
v 0.07245 0.249403 -0.049082
v 0.105743 0.279253 -0.029854
v 0.07245 0.249403 0.04204
v 0.142493 0.000003 0.243833
v 0.109622 0.000003 -0.329277
v 0.109622 0.131274 -0.329277
v 0.142493 0.131274 0.243833
v -0.109598 0.000003 -0.329277
v -0.109598 0.131274 -0.329277
v -0.142493 0.000003 0.243833
v -0.142493 0.131274 0.243833
v -0.055515 0.127739 0.38676
v 0.054405 0.127739 0.38676
v 0.108818 0.171609 0.29268
v -0.109929 0.171609 0.29268
v 0.054405 0.215479 0.198601
v -0.055515 0.215479 0.198601
v -0.061561 0.094195 0.383717
v 0.06045 0.094195 0.383717
v 0.12085 0.142891 0.279289
v 0.06045 0.191587 0.174861
v -0.061561 0.191587 0.174861
v -0.12196 0.142891 0.279289
v 0.142066 0.002238 0.191151
v 0.0967 0.073287 0.191151
v 0.162923 0.12407 0.191151
v 0.208288 0.053021 0.191151
v 0.208288 0.053021 0.477247
v 0.142066 0.002238 0.489877
v 0.162923 0.12407 0.464628
v 0.0967 0.073287 0.477247
v 0.142066 0.002238 0.489877
v 0.208288 0.053021 0.477247
v 0.162923 0.12407 0.464628
v 0.0967 0.073287 0.477247
v -0.141812 0.002238 0.191151
v -0.208035 0.053021 0.191151
v -0.162669 0.12407 0.191151
v -0.096446 0.073287 0.191151
v -0.096446 0.073287 0.477247
v -0.141812 0.002238 0.489877
v -0.162669 0.12407 0.464628
v -0.208035 0.053021 0.477247
v -0.141812 0.002238 0.489877
v -0.096446 0.073287 0.477247
v -0.162669 0.12407 0.464628
v -0.208035 0.053021 0.477247
vt 0.552279 0.088795
vt 0.697579 0.088795
vt 0.71368 0.373141
vt 0.536178 0.373141
vt 0.698261 0.511573
vt 0.551826 0.511573
vt 0.698261 0.933971
vt 0.551826 0.933971
vt 0.543766 0.052835
vt 0.706092 0.052835
vt 0.737299 0.364149
vt 0.715994 0.515041
vt 0.715994 0.975454
vt 0.533864 0.975454
vt 0.533864 0.530353
vt 0.512559 0.379462
vt 0.570474 0.429257
vt 0.581445 0.511723
vt 0.570474 0.511723
vt 0.581445 0.613966
vt 0.551845 0.613966
vt 0.566645 0.607704
vt 0.551845 0.511723
vt 0.687921 0.429257
vt 0.698893 0.511723
vt 0.687921 0.511723
vt 0.698893 0.613966
vt 0.669293 0.613966
vt 0.684093 0.607704
vt 0.669293 0.511723
vt 0.011883 0.523516
vt 0.488117 0.523515
vt 0.488117 0.976484
vt 0.011883 0.976485
vt 0.488117 0.523515
vt 0.488117 0.976484
vt 0.011883 0.523516
vt 0.011883 0.976485
vt 0.597696 0.140248
vt 0.651541 0.140248
vt 0.681985 0.230496
vt 0.567251 0.230496
vt 0.651541 0.336057
vt 0.597696 0.336057
vt 0.594313 0.143661
vt 0.654923 0.143661
vt 0.688717 0.245521
vt 0.662579 0.362694
vt 0.594313 0.362694
vt 0.56052 0.260834
vt 0.700587 0.352072
vt 0.682861 0.352072
vt 0.712257 0.352072
vt 0.737639 0.359728
vt 0.737639 0.038718
vt 0.700587 0.024546
vt 0.712257 0.052877
vt 0.675205 0.038718
vt 0.761758 0.523516
vt 0.988242 0.523515
vt 0.988242 0.976484
vt 0.761758 0.976485
vt 0.541757 0.352072
vt 0.512361 0.352072
vt 0.530087 0.352072
vt 0.574795 0.359728
vt 0.574795 0.038718
vt 0.549413 0.024546
vt 0.537743 0.052877
vt 0.512361 0.038718
vt 0.761758 0.523516
vt 0.988242 0.523515
vt 0.988242 0.976484
vt 0.761758 0.976485
vn -0.924141 0.297295 0.239955
vn 0.9219 0.302436 0.242141
vn 0.953437 0.286901 -0.09298
vn -0.924141 0.297295 0.239955
vn 0.955385 0.284114 -0.080737
vn -0.952984 0.287476 -0.095806
vn 0 0.325348 -0.945594
vn -0.964888 0.249744 -0.081358
vn -0.922929 0.301451 0.239437
vn 0.9219 0.302436 0.242141
vn 0.953437 0.286901 -0.09298
vn 0.955385 0.284114 -0.080737
vn 0 0.325348 -0.945594
vn -0.964888 0.249744 -0.081358
vn -0.952984 0.287476 -0.095806
vn -0.924141 0.297295 0.239955
vn -0.5856 0.653168 0.480045
vn 0.667545 0.744569 0
vn -0.667546 0.744569 0
vn 0.667545 0.744569 0
vn -0.667546 0.744569 0
vn -0.667546 0.744569 0
vn -0.667546 0.744569 0
vn -0.5856 0.653168 0.480045
vn 0.667545 0.744569 0
vn -0.667546 0.744569 0
vn 0.667545 0.744569 0
vn -0.667546 0.744569 0
vn -0.667546 0.744569 0
vn -0.667546 0.744569 0
vn 0.993762 0.000004 -0.111522
vn -0 0.000004 -1
vn -0 0.000004 -1
vn 0.993762 0.000004 -0.111522
vn -0.993757 0.000004 -0.111563
vn -0.993757 0.000004 -0.111563
vn -0.993757 0.000004 -0.111563
vn -0.993757 0.000004 -0.111563
vn -0.710705 0.201033 0.674155
vn 0.710266 0.201159 0.674579
vn 0.80901 0.587794 -0.000806
vn -0.710705 0.201033 0.674155
vn -0.000551 0.883086 -0.469211
vn -0.809359 0.587314 -0.000805
vn -0.710705 0.201033 0.674155
vn 0.710266 0.201159 0.674579
vn 0.80901 0.587794 -0.000806
vn -0.000551 0.883086 -0.469211
vn -0.809359 0.587314 -0.000805
vn -0.710705 0.201033 0.674155
vn -0.807085 -0.552572 0.208033
vn -0.807085 -0.552572 0.208033
vn -0.4704 0.863402 0.182378
vn 0.84504 0.511943 0.154341
vn 0.84504 0.511943 0.154341
vn -0.807085 -0.552572 0.208033
vn -0.4704 0.863402 0.182378
vn -0.807085 -0.552572 0.208033
vn 0.149338 0.213478 0.965466
vn 0.149499 0.213446 0.965449
vn 0.149338 0.213478 0.965466
vn 0.149338 0.213478 0.965466
vn -0.705343 -0.688424 0.169006
vn -0.705343 -0.688424 0.169006
vn -0.844982 0.512032 0.154368
vn 0.470589 0.863303 0.182357
vn 0.470589 0.863303 0.182357
vn -0.705343 -0.688424 0.169006
vn -0.844982 0.512032 0.154368
vn -0.705343 -0.688424 0.169006
vn -0.149304 0.213453 0.965477
vn -0.149143 0.213484 0.965495
vn -0.149304 0.213453 0.965477
vn -0.149304 0.213453 0.965477
usemtl datan_common_arm12_onms_efa25324
f 1/1/1 2/2/2 3/3/3
f 3/3/3 4/4/4 1/1/1
f 4/4/4 3/3/3 5/5/5
f 5/5/5 6/6/6 4/4/4
f 6/6/6 5/5/5 7/7/7
f 7/7/7 8/8/8 6/6/6
f 9/9/9 10/10/10 2/2/2
f 2/2/2 1/1/1 9/9/9
f 10/10/10 11/11/11 3/3/3
f 3/3/3 2/2/2 10/10/10
f 11/11/11 12/12/12 5/5/5
f 5/5/5 3/3/3 11/11/11
f 12/12/12 13/13/13 7/7/7
f 7/7/7 5/5/5 12/12/12
f 13/13/13 14/14/14 8/8/8
f 8/8/8 7/7/7 13/13/13
f 14/14/14 15/15/15 6/6/6
f 6/6/6 8/8/8 14/14/14
f 15/15/15 16/16/16 4/4/4
f 4/4/4 6/6/6 15/15/15
f 16/16/16 9/9/9 1/1/1
f 1/1/1 4/4/4 16/16/16
f 17/17/17 18/18/18 19/19/19
f 20/20/20 21/21/21 22/22/22
f 17/17/17 19/19/19 23/23/23
f 19/19/19 18/18/18 20/20/20
f 20/20/20 22/22/22 19/19/19
f 23/23/23 19/19/19 22/22/22
f 22/22/22 21/21/21 23/23/23
f 24/24/24 25/25/25 26/26/26
f 27/27/27 28/28/28 29/29/29
f 24/24/24 26/26/26 30/30/30
f 26/26/26 25/25/25 27/27/27
f 27/27/27 29/29/29 26/26/26
f 30/30/30 26/26/26 29/29/29
f 29/29/29 28/28/28 30/30/30
f 31/31/31 32/32/32 33/33/33
f 33/33/33 34/34/34 31/31/31
f 32/32/32 35/35/35 36/36/36
f 36/36/36 33/33/33 32/32/32
f 35/35/35 37/37/37 38/38/38
f 38/38/38 36/36/36 35/35/35
f 39/39/39 40/40/40 41/41/41
f 41/41/41 42/42/42 39/39/39
f 42/42/42 41/41/41 43/43/43
f 43/43/43 44/44/44 42/42/42
f 45/45/45 46/46/46 40/40/40
f 40/40/40 39/39/39 45/45/45
f 46/46/46 47/47/47 41/41/41
f 41/41/41 40/40/40 46/46/46
f 47/47/47 48/48/48 43/43/43
f 43/43/43 41/41/41 47/47/47
f 48/48/48 49/49/49 44/44/44
f 44/44/44 43/43/43 48/48/48
f 49/49/49 50/50/50 42/42/42
f 42/42/42 44/44/44 49/49/49
f 50/50/50 45/45/45 39/39/39
f 39/39/39 42/42/42 50/50/50
f 51/51/51 52/52/52 53/53/53
f 53/53/53 54/54/54 51/51/51
f 51/51/51 54/54/54 55/55/55
f 55/55/55 56/56/56 51/51/51
f 54/54/54 53/53/53 57/57/57
f 57/57/57 55/55/55 54/54/54
f 53/53/53 52/52/52 58/58/58
f 58/58/58 57/57/57 53/53/53
f 52/52/52 51/51/51 56/56/56
f 56/56/56 58/58/58 52/52/52
f 59/59/59 60/60/60 61/61/61
f 61/61/61 62/62/62 59/59/59
f 63/63/63 64/64/64 65/65/65
f 65/65/65 66/66/66 63/63/63
f 63/63/63 66/66/66 67/67/67
f 67/67/67 68/68/68 63/63/63
f 66/66/66 65/65/65 69/69/69
f 69/69/69 67/67/67 66/66/66
f 65/65/65 64/64/64 70/70/70
f 70/70/70 69/69/69 65/65/65
f 64/64/64 63/63/63 68/68/68
f 68/68/68 70/70/70 64/64/64
f 71/71/71 72/72/72 73/73/73
f 73/73/73 74/74/74 71/71/71
o datan_common_arm12_onms_efa25324_mesh01
v -0.037174 0.2295 0.183374
v -0.023391 0.201277 0.250585
v 0.041286 0.2295 0.183374
v 0.027503 0.201277 0.250585
v -0.043113 0.202685 0.155762
v 0.047225 0.202685 0.155762
vt 0.013576 0.700625
vt 0.031437 0.630879
vt 0.111424 0.700625
vt 0.093563 0.630879
vt 0.005879 0.744121
vt 0.119121 0.744121
vn -0 0.717382 -0.69668
vn 0 0.922009 0.387169
vn -0 0.717382 -0.69668
vn 0 0.922009 0.387169
vn -0 0.717382 -0.69668
vn -0 0.717382 -0.69668
usemtl datan_common_arm12_onms_efa25324
f 75/75/75 76/76/76 77/77/77
f 78/78/78 77/77/77 76/76/76
f 79/79/79 75/75/75 80/80/80
f 77/77/77 80/80/80 75/75/75
o datan_common_arm12_onms_efa25324_mesh02
v 0.105838 0.126044 0.136951
v 0.141129 0.16024 0.034121
v 0.105838 0.19009 0.034121
v 0.141129 0.16024 -0.073404
v 0.070546 0.16024 -0.073404
v 0.105838 0.19009 -0.050714
v 0.070546 0.16024 0.034121
vt 0.064414 0.630879
vt 0.119121 0.68428
vt 0.064414 0.68428
vt 0.119121 0.744121
vt 0.005879 0.744121
vt 0.0625 0.735322
vt 0.005879 0.688108
vn -0.5832 0.689523 0.429461
vn 0.645786 0.763518 -0
vn -0.645786 0.763518 -0
vn 0.645786 0.763518 -0
vn -0.645786 0.763518 -0
vn -0.645786 0.763518 -0
vn -0.645786 0.763518 -0
usemtl datan_common_arm12_onms_efa25324
f 81/81/81 82/82/82 83/83/83
f 84/84/84 85/85/85 86/86/86
f 81/81/81 83/83/83 87/87/87
f 83/83/83 82/82/82 84/84/84
f 84/84/84 86/86/86 83/83/83
f 87/87/87 83/83/83 86/86/86
f 86/86/86 85/85/85 87/87/87
o datan_common_arm12_onms_efa25324_mesh03
v -0.104663 0.126044 0.136951
v -0.069371 0.16024 0.034121
v -0.104663 0.19009 0.034121
v -0.069371 0.16024 -0.073404
v -0.139955 0.16024 -0.073404
v -0.104663 0.19009 -0.050714
v -0.139955 0.16024 0.034121
vt 0.064414 0.630879
vt 0.119121 0.68428
vt 0.064414 0.68428
vt 0.119121 0.744121
vt 0.005879 0.744121
vt 0.0625 0.735322
vt 0.005879 0.688108
vn -0.5832 0.689523 0.429461
vn 0.645786 0.763518 -0
vn -0.645786 0.763518 -0
vn 0.645786 0.763518 -0
vn -0.645786 0.763518 -0
vn -0.645786 0.763518 -0
vn -0.645786 0.763518 -0
usemtl datan_common_arm12_onms_efa25324
f 88/88/88 89/89/89 90/90/90
f 91/91/91 92/92/92 93/93/93
f 88/88/88 90/90/90 94/94/94
f 90/90/90 89/89/89 91/91/91
f 91/91/91 93/93/93 90/90/90
f 94/94/94 90/90/90 93/93/93
f 93/93/93 92/92/92 94/94/94
o datan_common_arm12_onms_efa25324_mesh04
v -0.089164 0.213911 0.221233
v -0.089164 0.143052 0.373189
v 0.083968 0.213911 0.221233
v 0.083968 0.143052 0.373189
vt 0.130879 0.994121
vt 0.130879 0.880879
vt 0.244121 0.994121
vt 0.244121 0.880879
vn 0 0.906308 0.422618
vn 0 0.906308 0.422618
vn 0 0.906308 0.422618
vn 0 0.906308 0.422618
usemtl datan_common_arm12_onms_efa25324
f 95/95/95 96/96/96 97/97/97
f 98/98/98 97/97/97 96/96/96
o datan_common_arm12_onms_efa25324_mesh05
v -0.037174 0.2295 0.183374
v -0.023391 0.201277 0.250585
v 0.041286 0.2295 0.183374
v 0.027503 0.201277 0.250585
v -0.043113 0.202685 0.155762
v 0.047225 0.202685 0.155762
vt 0.013576 0.700625
vt 0.031437 0.630879
vt 0.111424 0.700625
vt 0.093563 0.630879
vt 0.005879 0.744121
vt 0.119121 0.744121
vn 0 0.717382 -0.69668
vn 0 0.922009 0.38717
vn 0 0.717382 -0.69668
vn 0 0.922009 0.38717
vn 0 0.717382 -0.69668
vn 0 0.717382 -0.69668
usemtl datan_common_arm12_onms_efa25324
f 99/99/99 100/100/100 101/101/101
f 102/102/102 101/101/101 100/100/100
f 103/103/103 99/99/99 104/104/104
f 101/101/101 104/104/104 99/99/99
