# Generated from Nova1492 GX by tools/nova1492/GxObjConverter
mtllib datan_common___Front_ed8af927.mtl
o datan_common___Front_ed8af927
v 0.191293 0.238662 -0.54194
v -0.191293 0.238662 -0.54194
v -0.191293 0.238662 0.141025
v 0.191293 0.238662 0.141025
v 0.191293 -0.626256 -0.54194
v 0.191293 0.238662 -0.54194
v 0.191293 0.238662 0.141025
v 0.191293 0.107958 0.182193
v 0.191293 -0.102016 0.491768
v 0.191293 -0.505729 0.632977
v 0.191293 -0.513816 0.798751
v 0.191293 -0.626256 0.802127
v -0.191293 0.238662 -0.54194
v 0.191293 0.238662 -0.54194
v 0.191293 -0.626256 -0.54194
v -0.191293 -0.626256 -0.54194
v -0.191293 -0.626256 0.802127
v -0.191293 -0.513816 0.798751
v -0.191293 -0.505729 0.632977
v -0.191293 0.238662 0.141025
v -0.191293 0.238662 -0.54194
v -0.191293 -0.626256 -0.54194
v -0.191293 0.107958 0.182193
v -0.191293 -0.102016 0.491768
v 0.191293 -0.513816 0.798751
v -0.191293 -0.513816 0.798751
v -0.191293 -0.626256 0.802127
v 0.191293 -0.626256 0.802127
v 0 0.06453 0.174483
v 0.733025 0.06453 -0.068783
v 0.733025 0.06453 -0.469546
v -0.733025 0.06453 -0.469546
v -0.733025 0.06453 -0.068783
v 0 -0.209434 0.502288
v 0.700608 -0.209434 0.12129
v 0.733025 -0.209434 0.102197
v 0.733025 -0.209434 0.102197
v 0.733025 -0.626256 0.102197
v 0.733025 -0.626256 -0.469546
v 0.733025 0.06453 -0.469546
v 0.733025 0.06453 -0.068783
v 0.733025 -0.626256 -0.469546
v -0.733025 -0.626256 -0.469546
v -0.733025 0.06453 -0.469546
v 0.733025 0.06453 -0.469546
v 0.700608 -0.209434 0.12129
v 0.699975 -0.626256 0.121663
v 0.733025 -0.626256 0.102197
v 0.733025 -0.209434 0.102197
v 0.700608 -0.209434 -0.130356
v 0.699975 -0.626256 -0.129983
v 0.699975 -0.626256 0.121663
v 0.700608 -0.209434 0.12129
v 0.447872 -0.209434 -0.024757
v 0.447239 -0.626256 -0.024384
v 0.699975 -0.626256 -0.129983
v 0.700608 -0.209434 -0.130356
v -0.733025 -0.209434 0.102197
v -0.700608 -0.209434 0.12129
v -0.733025 -0.209434 0.102197
v -0.733025 0.06453 -0.068783
v -0.733025 0.06453 -0.469546
v -0.733025 -0.626256 -0.469546
v -0.733025 -0.626256 0.102197
v -0.700608 -0.209434 0.12129
v -0.733025 -0.209434 0.102197
v -0.733025 -0.626256 0.102197
v -0.699975 -0.626256 0.121663
v -0.700608 -0.209434 -0.130356
v -0.700608 -0.209434 0.12129
v -0.699975 -0.626256 0.121663
v -0.699975 -0.626256 -0.129983
v -0.447872 -0.209434 -0.024757
v -0.700608 -0.209434 -0.130356
v -0.699975 -0.626256 -0.129983
v -0.447239 -0.626256 -0.024384
v 0.63354 -0.363349 0.007439
v 0.63354 -0.163386 0.007439
v 0.281708 -0.163386 0.171501
v 0.281708 -0.628143 0.171501
v 0.53986 -0.628143 0.051123
v 0.550043 -0.489515 0.046374
v 0.525259 -0.363349 0.134519
v 0.525259 -0.163386 0.134519
v 0.189065 -0.163386 0.328621
v 0.189065 -0.628143 0.328621
v 0.435743 -0.628143 0.186202
v 0.445473 -0.489515 0.180584
v 0.081057 -0.224183 0.673774
v -0.081057 -0.224183 0.673774
v -0.071463 -0.256816 0.724673
v 0.071463 -0.256816 0.724673
v 0.071463 -0.256816 0.724673
v -0.071463 -0.256816 0.724673
v -0.099789 -0.514193 0.803149
v 0.099789 -0.514193 0.803149
v 0.081057 -0.224183 0.673774
v 0.071463 -0.256816 0.724673
v 0.099789 -0.514193 0.803149
v 0.11177 -0.514193 0.72721
v -0.081057 -0.224183 0.673774
v 0.081057 -0.224183 0.673774
v 0.11177 -0.514193 0.72721
v -0.11177 -0.514193 0.72721
v -0.071463 -0.256816 0.724673
v -0.081057 -0.224183 0.673774
v -0.11177 -0.514193 0.72721
v -0.099789 -0.514193 0.803149
v -0.189065 -0.163386 0.328621
v -0.525259 -0.163386 0.134519
v -0.525259 -0.363349 0.134519
v -0.445473 -0.489515 0.180584
v -0.435743 -0.628143 0.186202
v -0.189065 -0.628143 0.328621
v -0.281708 -0.163386 0.171501
v -0.63354 -0.163386 0.007439
v -0.63354 -0.363349 0.007439
v -0.550042 -0.489515 0.046374
v -0.53986 -0.628143 0.051123
v -0.281708 -0.628143 0.171501
v -0.127444 0.341057 0.148226
v 0.127444 0.341057 0.148226
v 0.087896 0.290794 -0.426974
v -0.087896 0.290794 -0.426974
v -0.099973 0.224347 0.485418
v 0.099973 0.224347 0.485418
v 0.168572 0.238662 0.141025
v 0.120752 0.238662 -0.456795
v -0.120752 0.238662 -0.456795
v -0.168572 0.238662 0.141025
v -0.128605 0.195442 0.459685
v 0.099973 0.224347 0.485418
v -0.099973 0.224347 0.485418
v -0.128605 0.195442 0.459685
v 0.128605 0.195442 0.459685
v 0.128605 0.195442 0.459685
v -0.191293 -0.505729 0.632977
v -0.191293 -0.513816 0.798751
v 0.191293 -0.513816 0.798751
v 0.191293 -0.505729 0.632977
v 0.191293 -0.102016 0.491768
v -0.191293 -0.102016 0.491768
v -0.191293 0.238662 0.141025
v -0.191293 0.107958 0.182193
v 0.191293 0.107958 0.182193
v 0.191293 0.238662 0.141025
vt 0.555129 0.28167
vt 0.555129 0.401506
vt 0.341206 0.401506
vt 0.341206 0.28167
vt 0.554779 0.012246
vt 0.554779 0.281836
vt 0.341903 0.281836
vt 0.32907 0.241096
vt 0.232578 0.175649
vt 0.188563 0.049813
vt 0.136893 0.047293
vt 0.13584 0.012246
vt 0.673717 0.281964
vt 0.554492 0.281964
vt 0.554492 0.01243
vt 0.673717 0.01243
vt 0.13584 0.012246
vt 0.136893 0.047293
vt 0.188563 0.049813
vt 0.341903 0.281836
vt 0.554779 0.281836
vt 0.554779 0.012246
vt 0.32907 0.241096
vt 0.232578 0.175649
vt 0.135641 0.047876
vt 0.015409 0.047876
vt 0.015409 0.012525
vt 0.135641 0.012525
vt 0.500644 0.531391
vt 0.751215 0.614547
vt 0.751215 0.75154
vt 0.250074 0.75154
vt 0.250074 0.614547
vt 0.500644 0.419337
vt 0.740134 0.549574
vt 0.751215 0.556101
vt 0.845104 0.555587
vt 0.987887 0.555587
vt 0.987887 0.751439
vt 0.751256 0.751439
vt 0.751256 0.614156
vt 0.751492 0.987777
vt 0.24981 0.987777
vt 0.24981 0.751391
vt 0.751492 0.751391
vt 0.74032 0.549394
vt 0.740104 0.407146
vt 0.751383 0.407146
vt 0.751383 0.549394
vt 0.094628 0.542081
vt 0.094507 0.406059
vt 0.012387 0.406059
vt 0.012509 0.542081
vt 0.176492 0.541963
vt 0.176541 0.406312
vt 0.094465 0.406217
vt 0.094618 0.541963
vt 0.250074 0.556101
vt 0.261155 0.549574
vt 0.156442 0.556464
vt 0.249909 0.614796
vt 0.249909 0.751523
vt 0.014236 0.751523
vt 0.014236 0.556464
vt 0.261229 0.549628
vt 0.250166 0.549628
vt 0.250166 0.407381
vt 0.261445 0.407381
vt 0.094628 0.542081
vt 0.012509 0.542081
vt 0.012387 0.406059
vt 0.094507 0.406059
vt 0.176551 0.541742
vt 0.094443 0.541742
vt 0.094649 0.406326
vt 0.176757 0.406326
vt 0.933018 0.885624
vt 0.933018 0.957829
vt 0.792841 0.957829
vt 0.792841 0.790009
vt 0.895694 0.790009
vt 0.899751 0.840066
vt 0.197665 0.885088
vt 0.197665 0.957492
vt 0.057103 0.957492
vt 0.057103 0.78921
vt 0.160239 0.78921
vt 0.164307 0.839405
vt 0.907935 0.195292
vt 0.823161 0.195292
vt 0.828178 0.163675
vt 0.902918 0.163675
vt 0.903052 0.163651
vt 0.827969 0.163651
vt 0.813088 0.022298
vt 0.917933 0.022298
vt 0.921815 0.189652
vt 0.902828 0.163655
vt 0.918031 0.022224
vt 0.95568 0.037453
vt 0.82339 0.1952
vt 0.90799 0.1952
vt 0.924018 0.34909
vt 0.807362 0.34909
vt 0.827863 0.16316
vt 0.808869 0.188697
vt 0.775802 0.037272
vt 0.813169 0.022449
vt 0.057118 0.957227
vt 0.19774 0.957227
vt 0.19774 0.884793
vt 0.164367 0.839091
vt 0.160297 0.788875
vt 0.057118 0.788875
vt 0.792994 0.957558
vt 0.932981 0.957558
vt 0.932981 0.885451
vt 0.899759 0.839955
vt 0.895707 0.789966
vt 0.792994 0.789966
vt 0.338951 0.381507
vt 0.338951 0.301669
vt 0.519119 0.314057
vt 0.519119 0.369119
vt 0.233333 0.372902
vt 0.233333 0.310274
vt 0.341206 0.288787
vt 0.528459 0.303766
vt 0.528459 0.379411
vt 0.341206 0.39439
vt 0.241394 0.381871
vt 0.233475 0.310613
vt 0.233475 0.372729
vt 0.221452 0.381624
vt 0.221452 0.301718
vt 0.241394 0.301306
vt 0.015478 0.086012
vt 0.015478 0.047772
vt 0.135601 0.047772
vt 0.135601 0.086012
vt 0.135601 0.207582
vt 0.015478 0.207582
vt 0.015478 0.361056
vt 0.015478 0.322697
vt 0.135601 0.322697
vt 0.135601 0.361056
vn -0 1 0
vn 0 1 -0
vn -0 1 0
vn -0 1 0
vn 1 0 -0
vn 1 0 0
vn 1 0 -0
vn 1 0 -0
vn 1 0 -0
vn 1 0 -0
vn 1 0 0
vn 1 0 -0
vn 0 0 -1
vn 0 0 -1
vn 0 0 -1
vn 0 0 -1
vn -1 0 -0
vn -1 0 0
vn -1 0 -0
vn -1 0 -0
vn -1 -0 -0
vn -1 0 -0
vn -1 0 -0
vn -1 0 -0
vn -0 0.030015 0.999549
vn 0 0.030015 0.999549
vn -0 0.030015 0.999549
vn -0 0.030015 0.999549
vn -0.208157 0.750499 0.627233
vn 0.446976 0.473613 0.758883
vn 0 1 0
vn 0 1 -0
vn -0.208157 0.750499 0.627233
vn -0.208157 0.750499 0.627233
vn 0.446976 0.473613 0.758883
vn 0.446976 0.473613 0.758883
vn 1 -0 0
vn 1 0 0
vn 1 -0 0
vn 1 -0 0
vn 1 -0 0
vn 0 0 -1
vn 0 0 -1
vn 0 0 -1
vn 0 0 -1
vn 0.507505 -0 0.861649
vn 0.507505 -0 0.861649
vn 0.507505 -0 0.861649
vn 0.507505 -0 0.861649
vn -0.999999 0.00152 0
vn -0.999999 0.00152 0
vn -0.999999 0.00152 0
vn -0.999999 0.00152 0
vn 0.385526 0.00024 0.922697
vn 0.385526 0.00024 0.922697
vn 0.385526 0.00024 0.922697
vn 0.385526 0.00024 0.922697
vn -0.446976 0.473613 0.758883
vn -0.418077 0.483909 0.768794
vn -1 -0 0
vn -1 0 0
vn -1 -0 -0
vn -1 -0 0
vn -1 -0 0
vn -0.507505 -0 0.861649
vn -0.507505 0 0.861649
vn -0.507505 -0 0.861649
vn -0.507505 -0 0.861649
vn 0.999999 0.00152 0
vn 0.999999 0.00152 -0
vn 0.999999 0.00152 0
vn 0.999999 0.00152 0
vn -0.385526 0.00024 0.922697
vn -0.385526 0.00024 0.922697
vn -0.385526 0.00024 0.922697
vn -0.385526 0.00024 0.922697
vn 0.422618 0 0.906308
vn 0.422618 -0 0.906308
vn 0.422618 -0 0.906308
vn 0.422618 0 0.906308
vn 0.422618 -0 0.906308
vn 0.422618 0 0.906308
vn 0.5 0 0.866026
vn 0.5 -0 0.866025
vn 0.5 -0 0.866025
vn 0.5 0 0.866026
vn 0.5 -0 0.866025
vn 0.5 0 0.866026
vn -0 0.84184 0.539727
vn 0 0.84184 0.539727
vn -0 0.84184 0.539727
vn -0 0.84184 0.539727
vn -0 0.291652 0.956525
vn 0 0.291652 0.956525
vn -0 0.291652 0.956525
vn -0 0.291652 0.956525
vn 0.979118 0.132156 0.154478
vn 0.933707 0.194429 0.300646
vn 0.979118 0.132156 0.154478
vn 0.979118 0.132156 0.154478
vn -0 -0.181207 -0.983445
vn 0 -0.181207 -0.983445
vn -0 -0.181207 -0.983445
vn -0 -0.181207 -0.983445
vn -0.975943 0.154357 0.153977
vn -0.949177 0.151368 0.275954
vn -0.975943 0.154357 0.153977
vn -0.975943 0.154357 0.153977
vn -0.5 0 0.866025
vn -0.5 -0 0.866025
vn -0.5 0 0.866025
vn -0.5 0 0.866026
vn -0.5 -0 0.866025
vn -0.5 0 0.866025
vn -0.422618 -0 0.906308
vn -0.422618 0 0.906308
vn -0.422618 -0 0.906308
vn -0.422618 0 0.906308
vn -0.422618 -0 0.906308
vn -0.422618 -0 0.906308
vn -0.914498 0.353474 0.196851
vn 0.919338 0.357741 0.163828
vn 0 0.496532 -0.868018
vn -0.812776 0.572863 -0.105943
vn -0.774126 0.607069 0.179432
vn 0.791138 0.5552 0.256623
vn 0.919338 0.357741 0.163828
vn 0 0.496533 -0.868018
vn -0.923601 0.376169 -0.07388
vn -0.774126 0.607069 0.179432
vn -0.774126 0.607069 0.179432
vn 0 -0.664934 0.746902
vn 0 -0.664934 0.746902
vn 0 -0.664934 0.746902
vn 0 -0.664934 0.746902
vn 0.919338 0.357741 0.163828
vn -0 0.330163 0.943924
vn -0 0.998812 0.048726
vn 0 0.998812 0.048726
vn -0 0.330163 0.943924
vn -0 0.827594 0.561328
vn -0 0.827594 0.561328
vn 0 0.300425 0.953806
vn 0 0.827594 0.561328
vn -0 0.827594 0.561328
vn 0 0.300425 0.953806
usemtl datan_common___Front_ed8af927
f 1/1/1 2/2/2 3/3/3
f 3/3/3 4/4/4 1/1/1
f 5/5/5 6/6/6 7/7/7
f 5/5/5 7/7/7 8/8/8
f 5/5/5 8/8/8 9/9/9
f 5/5/5 9/9/9 10/10/10
f 10/10/10 11/11/11 12/12/12
f 5/5/5 10/10/10 12/12/12
f 13/13/13 14/14/14 15/15/15
f 15/15/15 16/16/16 13/13/13
f 17/17/17 18/18/18 19/19/19
f 20/20/20 21/21/21 22/22/22
f 23/23/23 20/20/20 22/22/22
f 24/24/24 23/23/23 22/22/22
f 19/19/19 24/24/24 22/22/22
f 17/17/17 19/19/19 22/22/22
f 25/25/25 26/26/26 27/27/27
f 27/27/27 28/28/28 25/25/25
f 29/29/29 30/30/30 31/31/31
f 29/29/29 31/31/31 32/32/32
f 29/29/29 32/32/32 33/33/33
f 30/30/30 29/29/29 34/34/34
f 30/30/30 34/34/34 35/35/35
f 30/30/30 35/35/35 36/36/36
f 37/37/37 38/38/38 39/39/39
f 37/37/37 39/39/39 40/40/40
f 37/37/37 40/40/40 41/41/41
f 42/42/42 43/43/43 44/44/44
f 44/44/44 45/45/45 42/42/42
f 46/46/46 47/47/47 48/48/48
f 48/48/48 49/49/49 46/46/46
f 50/50/50 51/51/51 52/52/52
f 52/52/52 53/53/53 50/50/50
f 54/54/54 55/55/55 56/56/56
f 56/56/56 57/57/57 54/54/54
f 33/33/33 58/58/58 59/59/59
f 33/33/33 59/59/59 34/34/34
f 33/33/33 34/34/34 29/29/29
f 60/60/60 61/61/61 62/62/62
f 60/60/60 62/62/62 63/63/63
f 60/60/60 63/63/63 64/64/64
f 65/65/65 66/66/66 67/67/67
f 67/67/67 68/68/68 65/65/65
f 69/69/69 70/70/70 71/71/71
f 71/71/71 72/72/72 69/69/69
f 73/73/73 74/74/74 75/75/75
f 75/75/75 76/76/76 73/73/73
f 77/77/77 78/78/78 79/79/79
f 77/77/77 79/79/79 80/80/80
f 80/80/80 81/81/81 82/82/82
f 77/77/77 80/80/80 82/82/82
f 83/83/83 84/84/84 85/85/85
f 83/83/83 85/85/85 86/86/86
f 86/86/86 87/87/87 88/88/88
f 83/83/83 86/86/86 88/88/88
f 89/89/89 90/90/90 91/91/91
f 91/91/91 92/92/92 89/89/89
f 93/93/93 94/94/94 95/95/95
f 95/95/95 96/96/96 93/93/93
f 97/97/97 98/98/98 99/99/99
f 99/99/99 100/100/100 97/97/97
f 101/101/101 102/102/102 103/103/103
f 103/103/103 104/104/104 101/101/101
f 105/105/105 106/106/106 107/107/107
f 107/107/107 108/108/108 105/105/105
f 109/109/109 110/110/110 111/111/111
f 112/112/112 113/113/113 114/114/114
f 111/111/111 112/112/112 114/114/114
f 109/109/109 111/111/111 114/114/114
f 115/115/115 116/116/116 117/117/117
f 118/118/118 119/119/119 120/120/120
f 117/117/117 118/118/118 120/120/120
f 115/115/115 117/117/117 120/120/120
f 121/121/121 122/122/122 123/123/123
f 123/123/123 124/124/124 121/121/121
f 121/121/121 125/125/125 126/126/126
f 126/126/126 122/122/122 121/121/121
f 123/123/123 122/122/122 127/127/127
f 127/127/127 128/128/128 123/123/123
f 124/124/124 123/123/123 128/128/128
f 128/128/128 129/129/129 124/124/124
f 121/121/121 124/124/124 129/129/129
f 129/129/129 130/130/130 121/121/121
f 125/125/125 121/121/121 130/130/130
f 130/130/130 131/131/131 125/125/125
f 132/132/132 133/133/133 134/134/134
f 134/134/134 135/135/135 132/132/132
f 122/122/122 126/126/126 136/136/136
f 136/136/136 127/127/127 122/122/122
f 137/137/137 138/138/138 139/139/139
f 139/139/139 140/140/140 137/137/137
f 141/141/141 142/142/142 137/137/137
f 137/137/137 140/140/140 141/141/141
f 143/143/143 144/144/144 145/145/145
f 145/145/145 146/146/146 143/143/143
