# Generated from Nova1492 GX by tools/nova1492/GxObjConverter
mtllib datan_common__02_LArm_53c67977.mtl
o datan_common__02_LArm_53c67977
v -0.122014 0.904096 0.188405
v -0.122014 0.002957 -0.231803
v -0.244577 -0.086758 -0.039408
v -0.244577 0.814381 0.3808
v 0.123111 0.904096 0.188405
v 0.123111 0.002957 -0.231803
v -0.122014 0.002957 -0.231803
v -0.122014 0.904096 0.188405
v 0.245674 0.814381 0.3808
v 0.245674 -0.086758 -0.039408
v 0.123111 0.724665 0.573196
v 0.123111 -0.176474 0.152988
v -0.122014 0.724665 0.573196
v -0.122014 -0.176474 0.152988
v -0.052073 1.876292 0.976542
v 0.05317 1.876292 0.976542
v 0.105791 1.91481 0.893939
v 0.05317 1.953329 0.811335
v -0.052073 1.953329 0.811335
v -0.104694 1.91481 0.893939
v -0.186878 -0.1592 -0.073188
v -0.186878 -0.085609 -0.038871
v -0.093165 -0.017011 -0.18598
v -0.093165 -0.090602 -0.220296
v -0.093165 -0.227798 0.073921
v -0.093165 -0.154206 0.108237
v 0.094262 -0.227798 0.073921
v 0.094262 -0.154206 0.108237
v 0.187975 -0.1592 -0.073188
v 0.187975 -0.085609 -0.038871
v 0.094262 -0.090602 -0.220296
v 0.094262 -0.017011 -0.18598
v -0.093165 -0.090602 -0.220296
v -0.093165 -0.017011 -0.18598
v -0.085586 0.924257 0.267423
v -0.122014 0.904096 0.188405
v -0.244577 0.814381 0.3808
v -0.171721 0.861206 0.402635
v 0.086684 0.924257 0.267423
v 0.123111 0.904096 0.188405
v 0.172818 0.861206 0.402635
v 0.245674 0.814381 0.3808
v 0.086683 0.798156 0.537848
v 0.123111 0.724665 0.573196
v -0.085586 0.798156 0.537848
v -0.122014 0.724665 0.573196
v -0.085586 1.942085 0.742044
v -0.085586 0.924257 0.267423
v -0.171721 0.861206 0.402635
v -0.171721 1.879035 0.877256
v 0.086684 1.942085 0.742044
v 0.086684 0.924257 0.267423
v -0.085586 0.924257 0.267423
v -0.085586 1.942085 0.742044
v 0.172818 1.879035 0.877256
v 0.172818 0.861206 0.402635
v 0.086684 1.815984 1.012468
v 0.086683 0.798156 0.537848
v -0.085586 1.815984 1.012468
v -0.085586 0.798156 0.537848
v -0.085586 1.942085 0.742044
v -0.171721 1.879035 0.877256
v 0.086684 1.942085 0.742044
v 0.172818 1.879035 0.877256
v 0.086684 1.815984 1.012468
v -0.085586 1.815984 1.012468
v -0.122014 0.002957 -0.231803
v 0.123111 0.002957 -0.231803
v 0.245674 -0.086758 -0.039408
v 0.123111 -0.176474 0.152988
v -0.122014 -0.176474 0.152988
v -0.244577 -0.086758 -0.039408
v -0.093165 -0.090602 -0.220296
v 0.094262 -0.090602 -0.220296
v 0.187975 -0.1592 -0.073188
v 0.094262 -0.227798 0.073921
v -0.093165 -0.227798 0.073921
v -0.186878 -0.1592 -0.073188
vt 0.663456 0.77308
vt 0.663456 0.567344
vt 0.640377 0.567344
vt 0.640377 0.776908
vt 0.53368 0.77308
vt 0.53368 0.567344
vt 0.504833 0.567344
vt 0.504833 0.776908
vt 0.560588 0.77308
vt 0.560588 0.567344
vt 0.585582 0.77308
vt 0.585582 0.567344
vt 0.615383 0.77308
vt 0.615383 0.567344
vt 0.717586 0.897598
vt 0.703725 0.897598
vt 0.695838 0.921092
vt 0.701811 0.952243
vt 0.717586 0.952243
vt 0.725473 0.92492
vt 0.640377 0.55004
vt 0.640377 0.565438
vt 0.663456 0.565438
vt 0.663456 0.55004
vt 0.615383 0.55004
vt 0.615383 0.569266
vt 0.585582 0.55004
vt 0.585582 0.569266
vt 0.560588 0.55004
vt 0.560588 0.569266
vt 0.535595 0.55004
vt 0.535595 0.569266
vt 0.504833 0.55004
vt 0.504833 0.569266
vt 0.724523 0.965816
vt 0.729983 0.984731
vt 0.74644 0.92492
vt 0.73552 0.92492
vt 0.696788 0.969644
vt 0.691328 0.984731
vt 0.683877 0.92492
vt 0.674871 0.92492
vt 0.696788 0.880197
vt 0.691328 0.861282
vt 0.722609 0.880197
vt 0.728069 0.861282
vt 0.663092 0.984166
vt 0.663456 0.803825
vt 0.640377 0.803825
vt 0.640022 0.984166
vt 0.533264 0.984166
vt 0.53368 0.803825
vt 0.504833 0.803825
vt 0.505283 0.984166
vt 0.560161 0.984166
vt 0.560588 0.803825
vt 0.585144 0.984166
vt 0.585582 0.803825
vt 0.615039 0.984166
vt 0.615383 0.803825
vt 0.722609 0.965816
vt 0.73552 0.92492
vt 0.696788 0.969644
vt 0.683877 0.92492
vt 0.696788 0.880197
vt 0.722609 0.880197
vt 0.728509 0.835071
vt 0.696262 0.835071
vt 0.679182 0.778563
vt 0.694348 0.718227
vt 0.728509 0.718227
vt 0.745589 0.778563
vt 0.724488 0.821257
vt 0.700283 0.821257
vt 0.687223 0.778951
vt 0.698368 0.732818
vt 0.724488 0.732818
vt 0.737548 0.778951
vn -0.866025 0.211309 -0.453154
vn -0.866026 0.211309 -0.453154
vn -0.981981 0.079867 -0.171276
vn -0.981981 -0.079867 0.171276
vn 0.327327 0.399337 -0.85638
vn 0.654654 0.319469 -0.685104
vn 0 0.422618 -0.906308
vn 0 0.422618 -0.906308
vn 0.981981 0.079867 -0.171276
vn 0.981981 -0.079867 0.171276
vn 0.654654 -0.319469 0.685104
vn 0.327327 -0.399337 0.85638
vn -0.327327 -0.399337 0.85638
vn -0.654654 -0.319469 0.685104
vn -0.085752 0.77004 0.632207
vn 0.2573 0.707812 0.657875
vn 0.257254 0.895578 0.362988
vn 0.128651 0.990325 0.052024
vn -0.171503 0.958347 0.22838
vn -0.385951 0.801982 0.455925
vn -0.981981 0.079867 -0.171276
vn -0.981981 -0.079867 0.171276
vn -0.866026 0.211309 -0.453154
vn -0.866026 0.211309 -0.453154
vn -0.654654 -0.319469 0.685104
vn -0.327327 -0.399337 0.85638
vn 0.327327 -0.399337 0.85638
vn 0.654654 -0.319469 0.685104
vn 0.981981 -0.079867 0.171276
vn 0.981981 0.079867 -0.171276
vn 0.654654 0.319469 -0.685104
vn 0.327327 0.399337 -0.85638
vn 0 0.422618 -0.906308
vn 0 0.422618 -0.906308
vn -0.383277 0.92178 -0.058488
vn -0.191638 0.968539 -0.158765
vn -0.574915 0.781502 0.24234
vn -0.574915 0.687983 0.442892
vn 0.191638 0.968539 -0.158765
vn 0.383277 0.92178 -0.058488
vn 0.574914 0.781502 0.24234
vn 0.574914 0.687983 0.442892
vn 0.383276 0.547705 0.74372
vn 0.191638 0.500945 0.843996
vn -0.191638 0.500946 0.843996
vn -0.383276 0.547705 0.74372
vn -0.866026 0.211309 -0.453154
vn -0.866025 0.211309 -0.453154
vn -0.981981 0.079867 -0.171276
vn -0.981981 -0.079867 0.171276
vn 0.327327 0.399337 -0.85638
vn 0.654654 0.319469 -0.685104
vn 0 0.422618 -0.906308
vn 0 0.422618 -0.906308
vn 0.981981 0.079867 -0.171276
vn 0.981981 -0.079867 0.171276
vn 0.654654 -0.319469 0.685104
vn 0.327327 -0.399337 0.856381
vn -0.327327 -0.399337 0.856381
vn -0.654654 -0.319469 0.685104
vn -0.168352 0.982634 -0.078022
vn -0.505056 0.818324 0.274345
vn 0.336705 0.941557 0.01007
vn 0.505056 0.736168 0.450527
vn 0.168352 0.571857 0.802893
vn -0.336705 0.612935 0.714801
vn -0 -0.906308 -0.422618
vn 0 -0.906308 -0.422618
vn -0 -0.906308 -0.422618
vn -0 -0.906308 -0.422618
vn -0 -0.906308 -0.422618
vn 0 -0.906308 -0.422618
vn 0 -0.906308 -0.422618
vn 0 -0.906308 -0.422618
vn 0 -0.906308 -0.422618
vn 0 -0.906308 -0.422618
vn 0 -0.906308 -0.422618
vn 0 -0.906308 -0.422618
usemtl datan_common__02_LArm_53c67977
f 1/1/1 2/2/2 3/3/3
f 3/3/3 4/4/4 1/1/1
f 5/5/5 6/6/6 7/7/7
f 7/7/7 8/8/8 5/5/5
f 9/9/9 10/10/10 6/6/6
f 6/6/6 5/5/5 9/9/9
f 11/11/11 12/12/12 10/10/10
f 10/10/10 9/9/9 11/11/11
f 13/13/13 14/14/14 12/12/12
f 12/12/12 11/11/11 13/13/13
f 4/4/4 3/3/3 14/14/14
f 14/14/14 13/13/13 4/4/4
f 15/15/15 16/16/16 17/17/17
f 17/17/17 18/18/18 19/19/19
f 15/15/15 17/17/17 19/19/19
f 20/20/20 15/15/15 19/19/19
f 21/21/21 22/22/22 23/23/23
f 23/23/23 24/24/24 21/21/21
f 25/25/25 26/26/26 22/22/22
f 22/22/22 21/21/21 25/25/25
f 27/27/27 28/28/28 26/26/26
f 26/26/26 25/25/25 27/27/27
f 29/29/29 30/30/30 28/28/28
f 28/28/28 27/27/27 29/29/29
f 31/31/31 32/32/32 30/30/30
f 30/30/30 29/29/29 31/31/31
f 33/33/33 34/34/34 32/32/32
f 32/32/32 31/31/31 33/33/33
f 35/35/35 36/36/36 37/37/37
f 37/37/37 38/38/38 35/35/35
f 39/39/39 40/40/40 36/36/36
f 36/36/36 35/35/35 39/39/39
f 41/41/41 42/42/42 40/40/40
f 40/40/40 39/39/39 41/41/41
f 43/43/43 44/44/44 42/42/42
f 42/42/42 41/41/41 43/43/43
f 45/45/45 46/46/46 44/44/44
f 44/44/44 43/43/43 45/45/45
f 38/38/38 37/37/37 46/46/46
f 46/46/46 45/45/45 38/38/38
f 47/47/47 48/48/48 49/49/49
f 49/49/49 50/50/50 47/47/47
f 51/51/51 52/52/52 53/53/53
f 53/53/53 54/54/54 51/51/51
f 55/55/55 56/56/56 52/52/52
f 52/52/52 51/51/51 55/55/55
f 57/57/57 58/58/58 56/56/56
f 56/56/56 55/55/55 57/57/57
f 59/59/59 60/60/60 58/58/58
f 58/58/58 57/57/57 59/59/59
f 50/50/50 49/49/49 60/60/60
f 60/60/60 59/59/59 50/50/50
f 19/19/19 61/61/61 62/62/62
f 62/62/62 20/20/20 19/19/19
f 18/18/18 63/63/63 61/61/61
f 61/61/61 19/19/19 18/18/18
f 17/17/17 64/64/64 63/63/63
f 63/63/63 18/18/18 17/17/17
f 16/16/16 65/65/65 64/64/64
f 64/64/64 17/17/17 16/16/16
f 15/15/15 66/66/66 65/65/65
f 65/65/65 16/16/16 15/15/15
f 20/20/20 62/62/62 66/66/66
f 66/66/66 15/15/15 20/20/20
f 67/67/67 68/68/68 69/69/69
f 67/67/67 69/69/69 70/70/70
f 67/67/67 70/70/70 71/71/71
f 67/67/67 71/71/71 72/72/72
f 73/73/73 74/74/74 75/75/75
f 73/73/73 75/75/75 76/76/76
f 73/73/73 76/76/76 77/77/77
f 73/73/73 77/77/77 78/78/78
