# Generated from Nova1492 GX by tools/nova1492/GxObjConverter
mtllib datan_common___Top_8d43be20.mtl
o datan_common___Top_8d43be20
v 0.715588 0.090963 -0.32868
v 0.687115 0 -0.315602
v 0.433136 0 -0.669435
v 0.433228 0.198455 -0.669285
v -0.211673 0.260046 -0.511024
v 0.211674 0.260046 -0.511024
v 0.226008 0 -0.545633
v -0.226009 0 -0.545633
v -0.715588 0.090963 -0.328679
v -0.433229 0.198455 -0.669285
v -0.433136 0 -0.669435
v -0.687115 0 -0.315601
v -0.715588 0.090963 -0.328679
v -0.687115 0 -0.315601
v -0.687115 0 0.325849
v -0.715605 0.091016 0.33936
v -0.430714 0.09114 0.622048
v -0.715605 0.091016 0.33936
v -0.687115 0 0.325849
v -0.413543 0 0.621966
v 0.211674 0.260046 0.511024
v -0.211673 0.260046 0.511024
v -0.226008 0 0.545633
v 0.226009 0 0.545633
v 0.430715 0.09114 0.622048
v 0.413543 0 0.621966
v 0.687115 0 0.325849
v 0.715605 0.091016 0.33936
v 0.715588 0.090963 -0.32868
v 0.715605 0.091016 0.33936
v 0.687115 0 0.325849
v 0.687115 0 -0.315602
v -0.511024 0.260046 0.211673
v -0.211673 0.260046 0.511024
v 0.211674 0.260046 0.511024
v 0.511024 0.260046 0.211673
v 0.511024 0.260046 -0.211673
v 0.211674 0.260046 -0.511024
v -0.211673 0.260046 -0.511024
v -0.511024 0.260046 -0.211673
v 0.27465 0.199079 -0.690706
v 0.27465 0 -0.690805
v 0.226008 0 -0.545633
v 0.211674 0.260046 -0.511024
v 0.672531 0.198126 -0.300378
v 0.27465 0.199079 -0.690706
v 0.673679 0.197566 0.308327
v 0.261074 0.196862 0.620985
v 0.261387 0 0.620112
v -0.261127 0.196862 0.620985
v -0.261956 0 0.620811
v -0.226008 0 0.545633
v -0.211673 0.260046 0.511024
v -0.673679 0.197566 0.308327
v -0.261127 0.196862 0.620985
v -0.672531 0.198126 -0.300378
v -0.275327 0.199079 -0.690705
v -0.274584 0 -0.690805
v -0.275327 0.199079 -0.690705
v -0.211673 0.260046 -0.511024
v -0.226009 0 -0.545633
v 0.226009 0 0.545633
v 0.261387 0 0.620112
v 0.261074 0.196862 0.620985
v 0.211674 0.260046 0.511024
v -0.261956 0 0.620811
v 0.40145 0.072618 0.621873
v 0.354194 0.137661 0.621873
v 0.351763 0.137661 0.778895
v 0.40145 0.072618 0.813564
v 0.277732 0.112816 0.621873
v 0.277732 0.112816 0.750687
v 0.277732 0.032419 0.621873
v 0.277732 0.032419 0.750687
v 0.354194 0.007575 0.621873
v 0.351763 0.007575 0.778895
v -0.351763 0.137661 0.778895
v -0.354194 0.137661 0.621873
v -0.40145 0.072618 0.621873
v -0.40145 0.072618 0.813564
v -0.277732 0.112816 0.750687
v -0.277732 0.112816 0.621873
v -0.277732 0.032419 0.750687
v -0.277732 0.032419 0.621873
v -0.354194 0.007575 0.621873
v -0.351763 0.007575 0.778895
v -0.307062 0.137661 0.82243
v -0.342536 0.072618 0.872103
v 0.342536 0.072618 0.872103
v 0.307062 0.137661 0.82243
v -0.307062 0.007575 0.82243
v 0.307062 0.007575 0.82243
v -0.277732 0.032419 0.750687
v -0.277732 0.112816 0.750687
v 0.277732 0.112816 0.750687
v 0.277732 0.032419 0.750687
v -0.351763 0.137661 0.778895
v 0.351763 0.137661 0.778895
v -0.40145 0.072618 0.813564
v -0.351763 0.007575 0.778895
v 0.40145 0.072618 0.813564
v 0.351763 0.007575 0.778895
v -0.40145 0.18924 -0.591641
v -0.354194 0.18924 -0.526598
v -0.352551 0.346262 -0.526598
v -0.40145 0.380931 -0.591641
v -0.277732 0.18924 -0.551442
v -0.277732 0.318054 -0.551442
v -0.277732 0.18924 -0.551442
v -0.277732 0.18924 -0.63184
v -0.277732 0.318054 -0.63184
v -0.277732 0.318054 -0.551442
v -0.354194 0.18924 -0.656684
v -0.40145 0.18924 -0.591641
v -0.40145 0.380931 -0.591641
v -0.352551 0.346262 -0.656684
v 0.352551 0.346262 -0.526598
v 0.354194 0.18924 -0.526598
v 0.40145 0.18924 -0.591641
v 0.40145 0.380931 -0.591641
v 0.277732 0.318054 -0.551442
v 0.277732 0.18924 -0.551442
v 0.277732 0.318054 -0.63184
v 0.277732 0.18924 -0.63184
v 0.277732 0.18924 -0.551442
v 0.277732 0.318054 -0.551442
v 0.40145 0.380931 -0.591641
v 0.40145 0.18924 -0.591641
v 0.354194 0.18924 -0.656684
v 0.352551 0.346262 -0.656684
v 0.307062 0.388895 -0.526598
v 0.342536 0.439469 -0.591641
v -0.342536 0.439469 -0.591641
v -0.307062 0.388895 -0.526598
v 0.307062 0.388895 -0.656684
v -0.307062 0.388895 -0.656684
v 0.433136 0 -0.669435
v 0.27465 0 -0.690805
v -0.274584 0 -0.690805
v -0.433136 0 -0.669435
vt 0.954842 0.761892
vt 0.973829 0.777661
vt 0.907002 0.874119
vt 0.862737 0.84383
vt 0.678099 0.913426
vt 0.809195 0.913426
vt 0.813634 0.994663
vt 0.67366 0.994663
vt 0.536341 0.762225
vt 0.629622 0.843599
vt 0.588496 0.874795
vt 0.516312 0.779448
vt 0.532933 0.752332
vt 0.507117 0.74879
vt 0.507117 0.575058
vt 0.532948 0.571399
vt 0.622523 0.485379
vt 0.543222 0.558153
vt 0.528085 0.53771
vt 0.608231 0.464995
vt 0.808556 0.461561
vt 0.693916 0.461561
vt 0.690034 0.390521
vt 0.812438 0.390521
vt 0.868311 0.485626
vt 0.88215 0.465341
vt 0.963763 0.536716
vt 0.948684 0.557808
vt 0.95854 0.751846
vt 0.958475 0.57107
vt 0.984326 0.57476
vt 0.984326 0.748308
vt 0.607721 0.605908
vt 0.688568 0.525062
vt 0.802902 0.525062
vt 0.883748 0.605908
vt 0.883748 0.720242
vt 0.802902 0.801088
vt 0.688568 0.801088
vt 0.607721 0.720242
vt 0.868685 0.9324
vt 0.868714 0.99453
vt 0.820937 0.99453
vt 0.809264 0.913373
vt 0.927366 0.744199
vt 0.81991 0.849615
vt 0.927612 0.579706
vt 0.816243 0.495364
vt 0.855729 0.445144
vt 0.660838 0.444332
vt 0.660788 0.390545
vt 0.683551 0.390543
vt 0.693781 0.461596
vt 0.564849 0.579978
vt 0.676086 0.495055
vt 0.564103 0.744199
vt 0.671376 0.849615
vt 0.618611 0.994575
vt 0.618562 0.932491
vt 0.67801 0.913477
vt 0.666342 0.994572
vt 0.818784 0.390505
vt 0.841305 0.390507
vt 0.841487 0.444284
vt 0.808556 0.461545
vt 0.64289 0.442838
vt 0.989691 0.283465
vt 0.989523 0.322019
vt 0.914157 0.323132
vt 0.897686 0.283493
vt 0.989422 0.360561
vt 0.927576 0.36055
vt 0.989422 0.39915
vt 0.927576 0.39915
vt 0.989847 0.24484
vt 0.914354 0.244153
vt 0.585299 0.319794
vt 0.515461 0.319197
vt 0.515506 0.283413
vt 0.600709 0.283413
vt 0.572796 0.35437
vt 0.515736 0.354809
vt 0.57281 0.390684
vt 0.515639 0.390684
vt 0.51549 0.247855
vt 0.585066 0.2469
vt 0.641873 0.310867
vt 0.629849 0.283857
vt 0.85987 0.283419
vt 0.848073 0.310476
vt 0.641716 0.256717
vt 0.847916 0.256325
vt 0.65286 0.362576
vt 0.65251 0.335775
vt 0.837712 0.335821
vt 0.837712 0.362576
vt 0.62438 0.319007
vt 0.86312 0.321081
vt 0.603651 0.284331
vt 0.62751 0.247534
vt 0.886963 0.283321
vt 0.862886 0.243722
vt 0.697596 0.007903
vt 0.714834 0.004747
vt 0.715431 0.061319
vt 0.697596 0.076965
vt 0.742609 0.005964
vt 0.742609 0.052373
vt 0.771536 0.190014
vt 0.742597 0.190014
vt 0.742597 0.143649
vt 0.771536 0.143649
vt 0.714776 0.191205
vt 0.697639 0.188079
vt 0.697639 0.119001
vt 0.715374 0.13462
vt 0.971766 0.061403
vt 0.972364 0.004831
vt 0.989485 0.007999
vt 0.989485 0.077061
vt 0.944544 0.052439
vt 0.944544 0.00603
vt 0.944515 0.143769
vt 0.944515 0.189889
vt 0.91573 0.189889
vt 0.91573 0.143769
vt 0.989529 0.119071
vt 0.989529 0.188149
vt 0.972306 0.191266
vt 0.971709 0.134681
vt 0.955229 0.076757
vt 0.968067 0.098144
vt 0.719014 0.098063
vt 0.731968 0.076684
vt 0.955172 0.119314
vt 0.731911 0.119261
vt 0.86928 0.897107
vt 0.826581 0.902694
vt 0.664692 0.901542
vt 0.622818 0.895847
vn 0.756272 0.433316 -0.490193
vn 0.769581 -0.320311 -0.552401
vn 0.769881 0.000122 -0.638187
vn 0.133865 0.000685 -0.990999
vn -0 0.131925 -0.99126
vn 0 0.131926 -0.99126
vn -0 0.131925 -0.99126
vn -0 0.131925 -0.99126
vn -0.756273 0.433316 -0.490193
vn -0.133574 0.000686 -0.991039
vn -0.769581 -0.32031 -0.552401
vn -0.769581 -0.32031 -0.552401
vn -0.927775 0.373138 -0.001406
vn -0.95434 -0.298722 0
vn -0.954338 -0.29873 -0.000001
vn -0.930557 0.366148 -0.000053
vn 0.007618 0.000536 0.999971
vn -0.634121 0.435587 0.63887
vn -0.727521 -0.137673 0.672131
vn 0.007618 0.000536 0.999971
vn 0 0.131925 0.99126
vn 0 0.131925 0.99126
vn 0 0.131925 0.99126
vn 0 0.131925 0.99126
vn 0.431583 0.698254 0.57112
vn -0.012185 0.001397 0.999925
vn 0.669635 -0.309808 0.674988
vn 0.634121 0.435587 0.63887
vn 0.927775 0.373138 -0.001406
vn 0.930557 0.366148 -0.000053
vn 0.95434 -0.298723 -0
vn 0.95434 -0.298723 -0
vn -0.357976 0.933731 0
vn -0.228068 0.946557 0.228068
vn 0.345827 0.872243 0.345826
vn 0.345827 0.872243 0.345826
vn 0.358577 0.9335 -0
vn 0.236746 0.942286 -0.236746
vn -0.23616 0.94258 -0.23616
vn -0.268223 0.947669 -0.173146
vn -0.944566 -0.008387 -0.328215
vn -0.94819 0.000158 -0.317704
vn -0.944566 -0.008387 -0.328215
vn -0.944566 -0.008387 -0.328215
vn 0.927775 0.373138 -0.001406
vn 0.133865 0.000685 -0.990999
vn 0.431583 0.698254 0.57112
vn 0.431583 0.698254 0.57112
vn -0.012185 0.001397 0.999925
vn 0.910996 0.004664 0.412388
vn 0.902161 -0.004182 0.431379
vn 0.910996 0.004664 0.412388
vn 0.910996 0.004664 0.412388
vn -0.927775 0.373138 -0.001406
vn 0.006836 -0.000913 0.999976
vn -0.756273 0.433316 -0.490193
vn -0.134426 -0.000008 -0.990924
vn 0.948272 -0.010046 -0.317301
vn 0.942199 0.003682 -0.335034
vn 0.948272 -0.010046 -0.317301
vn 0.948272 -0.010046 -0.317301
vn -0.911175 0.004603 0.411993
vn -0.903268 -0.003339 0.429063
vn -0.911175 0.004603 0.411993
vn -0.911175 0.004603 0.411993
vn 0.007618 0.000536 0.999971
vn 0.809017 -0.587785 -0
vn -0.316471 0.94859 -0.0049
vn -0.316471 0.94859 -0.0049
vn 0.791437 -0.611128 0.012254
vn -1 0 0
vn -1 0 0
vn -1 0 0
vn -1 0 0
vn 0.791437 -0.611128 0.012254
vn 0.791437 -0.611128 0.012254
vn 0.316471 0.94859 -0.0049
vn 0.309017 0.951057 0
vn -0.809017 -0.587785 -0
vn -0.791437 -0.611128 0.012254
vn 1 0 -0
vn 1 0 -0
vn 1 0 -0
vn 1 -0 0
vn -0.791437 -0.611128 0.012254
vn -0.791437 -0.611128 0.012254
vn -0.517123 0.679496 0.520451
vn -0.511513 -0.680075 0.525217
vn 0.517123 -0.679496 0.520451
vn 0.511513 0.680075 0.525217
vn -0.511513 -0.680075 0.525217
vn 0.517123 -0.679496 0.520451
vn 0 0.000001 -1
vn 0.227977 0.945109 -0.234084
vn -0.227977 0.945109 -0.234084
vn 0 0.000001 -1
vn -0.514781 0.67499 0.528572
vn 0.511513 0.680075 0.525217
vn -0.519604 -0.675676 0.522947
vn -0.511513 -0.680075 0.525217
vn 0.517123 -0.679496 0.520451
vn 0.514781 -0.67499 0.528572
vn -0.799308 0 0.600922
vn 0.314019 -0.003286 0.949411
vn -0.498185 0.531561 0.685022
vn -0.521818 0.525176 0.672232
vn 0.309018 -0 0.951056
vn 0.223762 -0.238753 0.944949
vn 1 0 -0
vn 0.309017 0 -0.951057
vn 0 -0.330942 -0.943651
vn 1 0 -0
vn 0.314018 -0.003286 -0.949412
vn -0.809017 0 -0.587785
vn -0.514593 0.517904 -0.683352
vn 0.223761 -0.238752 -0.944949
vn 0.507524 0.541526 0.670201
vn -0.309018 0 0.951056
vn 0.799308 -0 0.600922
vn 0.514593 0.517904 0.683352
vn -0.223762 -0.238753 0.944949
vn -0.309018 0 0.951056
vn -0.314018 -0.003286 -0.949412
vn -0.309017 0 -0.951057
vn -1 0 -0
vn -1 0 -0
vn 0.521818 0.525176 -0.672232
vn 0.809017 0 -0.587785
vn -0.314018 -0.003286 -0.949412
vn -0.314018 -0.003286 -0.949412
vn 0.514593 0.517904 0.683352
vn 0.498185 0.531561 -0.685022
vn -0.514593 0.517904 -0.683352
vn -0.498185 0.531561 0.685022
vn -0.223761 -0.238752 -0.944949
vn 0 -0.330942 -0.943651
vn 0.133865 0.000685 -0.990999
vn 0.133628 0.000493 -0.991032
vn -0.133574 0.000686 -0.991039
vn -0.133574 0.000686 -0.991039
usemtl datan_common___Top_8d43be20
f 1/1/1 2/2/2 3/3/3
f 3/3/3 4/4/4 1/1/1
f 5/5/5 6/6/6 7/7/7
f 7/7/7 8/8/8 5/5/5
f 9/9/9 10/10/10 11/11/11
f 11/11/11 12/12/12 9/9/9
f 13/13/13 14/14/14 15/15/15
f 15/15/15 16/16/16 13/13/13
f 17/17/17 18/18/18 19/19/19
f 19/19/19 20/20/20 17/17/17
f 21/21/21 22/22/22 23/23/23
f 23/23/23 24/24/24 21/21/21
f 25/25/25 26/26/26 27/27/27
f 27/27/27 28/28/28 25/25/25
f 29/29/29 30/30/30 31/31/31
f 31/31/31 32/32/32 29/29/29
f 33/33/33 34/34/34 35/35/35
f 35/35/35 36/36/36 37/37/37
f 37/37/37 38/38/38 39/39/39
f 35/35/35 37/37/37 39/39/39
f 33/33/33 35/35/35 39/39/39
f 33/33/33 39/39/39 40/40/40
f 41/41/41 42/42/42 43/43/43
f 43/43/43 44/44/44 41/41/41
f 37/37/37 45/45/45 4/4/4
f 37/37/37 4/4/4 46/46/46
f 37/37/37 46/46/46 38/38/38
f 47/47/47 45/45/45 37/37/37
f 37/37/37 36/36/36 47/47/47
f 48/48/48 47/47/47 36/36/36
f 36/36/36 35/35/35 48/48/48
f 25/25/25 48/48/48 49/49/49
f 49/49/49 26/26/26 25/25/25
f 50/50/50 51/51/51 52/52/52
f 52/52/52 53/53/53 50/50/50
f 54/54/54 55/55/55 34/34/34
f 34/34/34 33/33/33 54/54/54
f 56/56/56 54/54/54 33/33/33
f 33/33/33 40/40/40 56/56/56
f 40/40/40 39/39/39 57/57/57
f 40/40/40 57/57/57 10/10/10
f 40/40/40 10/10/10 56/56/56
f 58/58/58 59/59/59 60/60/60
f 60/60/60 61/61/61 58/58/58
f 4/4/4 45/45/45 1/1/1
f 47/47/47 30/30/30 29/29/29
f 29/29/29 45/45/45 47/47/47
f 25/25/25 28/28/28 47/47/47
f 47/47/47 48/48/48 25/25/25
f 54/54/54 18/18/18 17/17/17
f 17/17/17 55/55/55 54/54/54
f 13/13/13 16/16/16 54/54/54
f 54/54/54 56/56/56 13/13/13
f 9/9/9 56/56/56 10/10/10
f 62/62/62 63/63/63 64/64/64
f 64/64/64 65/65/65 62/62/62
f 66/66/66 55/55/55 17/17/17
f 17/17/17 20/20/20 66/66/66
f 67/67/67 68/68/68 69/69/69
f 69/69/69 70/70/70 67/67/67
f 68/68/68 71/71/71 72/72/72
f 72/72/72 69/69/69 68/68/68
f 71/71/71 73/73/73 74/74/74
f 74/74/74 72/72/72 71/71/71
f 75/75/75 67/67/67 70/70/70
f 70/70/70 76/76/76 75/75/75
f 77/77/77 78/78/78 79/79/79
f 79/79/79 80/80/80 77/77/77
f 78/78/78 77/77/77 81/81/81
f 81/81/81 82/82/82 78/78/78
f 83/83/83 84/84/84 82/82/82
f 82/82/82 81/81/81 83/83/83
f 80/80/80 79/79/79 85/85/85
f 85/85/85 86/86/86 80/80/80
f 87/87/87 88/88/88 89/89/89
f 89/89/89 90/90/90 87/87/87
f 88/88/88 91/91/91 92/92/92
f 92/92/92 89/89/89 88/88/88
f 93/93/93 94/94/94 95/95/95
f 95/95/95 96/96/96 93/93/93
f 87/87/87 90/90/90 95/95/95
f 95/95/95 94/94/94 87/87/87
f 97/97/97 87/87/87 94/94/94
f 98/98/98 95/95/95 90/90/90
f 87/87/87 97/97/97 99/99/99
f 99/99/99 88/88/88 87/87/87
f 88/88/88 99/99/99 100/100/100
f 100/100/100 91/91/91 88/88/88
f 89/89/89 101/101/101 98/98/98
f 98/98/98 90/90/90 89/89/89
f 92/92/92 102/102/102 101/101/101
f 101/101/101 89/89/89 92/92/92
f 103/103/103 104/104/104 105/105/105
f 105/105/105 106/106/106 103/103/103
f 104/104/104 107/107/107 108/108/108
f 108/108/108 105/105/105 104/104/104
f 109/109/109 110/110/110 111/111/111
f 111/111/111 112/112/112 109/109/109
f 113/113/113 114/114/114 115/115/115
f 115/115/115 116/116/116 113/113/113
f 117/117/117 118/118/118 119/119/119
f 119/119/119 120/120/120 117/117/117
f 118/118/118 117/117/117 121/121/121
f 121/121/121 122/122/122 118/118/118
f 123/123/123 124/124/124 125/125/125
f 125/125/125 126/126/126 123/123/123
f 127/127/127 128/128/128 129/129/129
f 129/129/129 130/130/130 127/127/127
f 131/131/131 132/132/132 133/133/133
f 133/133/133 134/134/134 131/131/131
f 132/132/132 135/135/135 136/136/136
f 136/136/136 133/133/133 132/132/132
f 131/131/131 134/134/134 108/108/108
f 108/108/108 121/121/121 131/131/131
f 117/117/117 131/131/131 121/121/121
f 105/105/105 108/108/108 134/134/134
f 131/131/131 117/117/117 120/120/120
f 120/120/120 132/132/132 131/131/131
f 132/132/132 127/127/127 130/130/130
f 130/130/130 135/135/135 132/132/132
f 133/133/133 106/106/106 105/105/105
f 105/105/105 134/134/134 133/133/133
f 136/136/136 116/116/116 115/115/115
f 115/115/115 133/133/133 136/136/136
f 111/111/111 110/110/110 113/113/113
f 113/113/113 116/116/116 111/111/111
f 136/136/136 111/111/111 116/116/116
f 135/135/135 123/123/123 111/111/111
f 111/111/111 136/136/136 135/135/135
f 135/135/135 130/130/130 123/123/123
f 129/129/129 124/124/124 123/123/123
f 123/123/123 130/130/130 129/129/129
f 137/137/137 138/138/138 46/46/46
f 46/46/46 4/4/4 137/137/137
f 10/10/10 57/57/57 139/139/139
f 139/139/139 140/140/140 10/10/10
