# Generated from Nova1492 GX by tools/nova1492/GxObjConverter
mtllib datan_common_arm77_osdor_357035d7.mtl
o datan_common_arm77_osdor_357035d7
v -0.09805 0.819398 0.234657
v 0.09805 0.819398 0.234657
v 0.156457 0.819398 -0.156457
v -0.156457 0.819398 -0.156457
v -0.13005 0.563868 0.306374
v 0.13005 0.563868 0.306374
v 0.09805 0.819398 0.234657
v -0.09805 0.819398 0.234657
v 0.13005 0.563868 0.306374
v 0.207519 0.563868 -0.207519
v 0.156457 0.819398 -0.156457
v 0.09805 0.819398 0.234657
v 0.207519 0.563868 -0.207519
v -0.207519 0.563868 -0.207519
v -0.156457 0.819398 -0.156457
v 0.156457 0.819398 -0.156457
v -0.207519 0.563868 -0.207519
v -0.13005 0.563868 0.306374
v -0.09805 0.819398 0.234657
v -0.156457 0.819398 -0.156457
v -0.19397 0.703127 0.239366
v 0.19397 0.703127 0.239366
v 0.250657 0.708561 -0.260723
v -0.250657 0.708561 -0.260723
v -0.230048 0.56806 0.272315
v 0.259666 0.56806 0.272315
v 0.19397 0.703127 0.239366
v -0.19397 0.703127 0.239366
v 0.259666 0.56806 0.272315
v 0.262632 0.503991 -0.268746
v 0.250657 0.708561 -0.260723
v 0.19397 0.703127 0.239366
v -0.23053 0.503991 -0.177238
v -0.230048 0.56806 0.272315
v -0.19397 0.703127 0.239366
v -0.250657 0.708561 -0.260723
v 0.250657 0.708561 -0.260723
v 0.262632 0.503991 -0.268746
v 0.256006 0.565415 -0.381187
v -0.250657 0.708561 -0.260723
v -0.256006 0.565415 -0.381187
v -0.23053 0.503991 -0.177238
v -0.228946 0.498889 0.457992
v -0.180476 0.498889 0.457992
v -0.180476 0.567974 0.265461
v -0.230048 0.56806 0.272315
v -0.180476 0.453159 0.33569
v -0.095538 0.453159 0.33569
v -0.095538 0.501444 0.309274
v -0.180476 0.567974 0.265461
v 0.128648 0.501444 0.309274
v 0.213587 0.453159 0.33569
v 0.213587 0.567974 0.265461
v 0.128648 0.453159 0.33569
v 0.213587 0.567974 0.265461
v 0.262056 0.498889 0.457992
v 0.259666 0.56806 0.272315
v 0.213587 0.498889 0.457992
v -0.228946 0.266672 0.465094
v -0.095538 0.266672 0.465094
v -0.180476 0.304864 0.48504
v -0.228946 0.304864 0.48504
v -0.095538 0.304864 0.48504
v 0.213587 0.304864 0.48504
v 0.128648 0.304864 0.48504
v 0.128648 0.266672 0.465094
v 0.262056 0.266672 0.465094
v 0.262056 0.304864 0.48504
v -0.228946 0.304864 0.48504
v -0.180476 0.304864 0.48504
v -0.180476 0.498889 0.457992
v -0.228946 0.498889 0.457992
v 0.213587 0.498889 0.457992
v 0.262056 0.304864 0.48504
v 0.262056 0.498889 0.457992
v 0.213587 0.304864 0.48504
v 0.262056 0.266672 0.406585
v 0.262056 0.304864 0.48504
v 0.262056 0.266672 0.465094
v 0.262056 0.498889 0.457992
v 0.262056 0.266672 0.406585
v 0.259666 0.56806 0.272315
v 0.262056 0.304864 0.48504
v 0.262056 0.266672 -0.245749
v 0.262632 0.503991 -0.268746
v -0.228946 0.266672 0.406585
v -0.228946 0.266672 0.465094
v -0.228946 0.304864 0.48504
v -0.228946 0.266672 -0.186545
v -0.228946 0.266672 0.406585
v -0.230048 0.56806 0.272315
v -0.23053 0.503991 -0.177238
v -0.228946 0.304864 0.48504
v -0.228946 0.498889 0.457992
v -0.180476 0.567974 0.265461
v -0.180476 0.498889 0.457992
v -0.180476 0.453159 0.33569
v 0.213587 0.567974 0.265461
v 0.213587 0.453159 0.33569
v 0.213587 0.498889 0.457992
v -0.180476 0.453159 0.33569
v -0.095538 0.304864 0.48504
v -0.095538 0.453159 0.33569
v -0.180476 0.304864 0.48504
v 0.128648 0.304864 0.48504
v 0.213587 0.304864 0.48504
v 0.213587 0.453159 0.33569
v 0.128648 0.453159 0.33569
v -0.180476 0.304864 0.48504
v 0.213587 0.304864 0.48504
v -0.095538 0.266672 0.406585
v -0.228946 0.266672 0.406585
v -0.186338 0 0.360304
v -0.095538 0 0.360304
v 0.219449 0 0.360304
v 0.128648 0.266672 0.406585
v 0.128648 0 0.360304
v 0.262056 0.266672 0.406585
v -0.186338 0 0.360304
v -0.228946 0.266672 -0.186545
v -0.186338 0 -0.186545
v -0.228946 0.266672 0.406585
v 0.262056 0.266672 -0.245749
v 0.262056 0.266672 0.406585
v 0.219449 0 0.360304
v 0.219449 0 -0.186545
v -0.095538 0.453159 0.33569
v -0.095538 0.304864 0.48504
v -0.095538 0.266672 0.465094
v -0.095538 0.266672 0.406585
v 0.128648 0.453159 0.33569
v 0.128648 0.266672 0.406585
v 0.128648 0.266672 0.465094
v 0.128648 0.304864 0.48504
v -0.095538 0.501444 0.309274
v -0.095538 0.501444 -0.275833
v 0.128648 0.501444 0.309274
v 0.128648 0.501444 -0.275833
v -0.095538 0 0.360304
v -0.095538 0 -0.180345
v 0.128648 0 0.360304
v 0.128648 0 -0.180345
v 0.262056 0.266672 -0.245749
v 0.219449 0 -0.186545
v -0.228946 0.266672 -0.186545
v -0.186338 0 -0.186545
vt 0.783646 0.658028
vt 0.813044 0.658028
vt 0.822561 0.723411
vt 0.773832 0.723411
vt 0.778721 0.597484
vt 0.819025 0.597484
vt 0.813596 0.648546
vt 0.78415 0.652374
vt 0.879277 0.597519
vt 0.962498 0.597519
vt 0.954166 0.64863
vt 0.892123 0.652458
vt 0.838832 0.743858
vt 0.758111 0.743843
vt 0.758111 0.743841
vt 0.842654 0.741943
vt 0.962498 0.597519
vt 0.879277 0.597519
vt 0.892123 0.64863
vt 0.957994 0.652458
vt 0.767512 0.657333
vt 0.829154 0.657333
vt 0.838545 0.741894
vt 0.7578 0.741894
vt 0.761753 0.598227
vt 0.841018 0.598227
vt 0.829871 0.627926
vt 0.767875 0.631754
vt 0.885003 0.597807
vt 0.973069 0.586816
vt 0.971496 0.628961
vt 0.890788 0.632239
vt 0.973046 0.586862
vt 0.885003 0.597807
vt 0.890788 0.628411
vt 0.975325 0.632789
vt 0.975325 0.628961
vt 0.976897 0.586816
vt 0.992218 0.597507
vt 0.975325 0.628961
vt 0.992218 0.597507
vt 0.976874 0.586862
vt 0.76194 0.58596
vt 0.766336 0.58596
vt 0.766336 0.594384
vt 0.761753 0.598227
vt 0.770164 0.57785
vt 0.780748 0.57785
vt 0.780748 0.582236
vt 0.770165 0.598212
vt 0.822615 0.586065
vt 0.833199 0.57785
vt 0.833199 0.594384
vt 0.822615 0.57785
vt 0.837027 0.594384
vt 0.841423 0.585786
vt 0.841018 0.594399
vt 0.837027 0.585786
vt 0.76194 0.555046
vt 0.780748 0.555046
vt 0.770164 0.557991
vt 0.76194 0.561819
vt 0.784576 0.561819
vt 0.833199 0.557991
vt 0.822615 0.557991
vt 0.822615 0.555046
vt 0.845251 0.555046
vt 0.845251 0.561819
vt 0.76194 0.561819
vt 0.766336 0.561819
vt 0.766336 0.582132
vt 0.76194 0.58596
vt 0.837027 0.581958
vt 0.841423 0.561819
vt 0.841423 0.581958
vt 0.837027 0.561819
vt 0.858635 0.555046
vt 0.848957 0.557993
vt 0.852783 0.555047
vt 0.853954 0.582347
vt 0.862467 0.555045
vt 0.881175 0.593979
vt 0.848951 0.561807
vt 0.97264 0.555045
vt 0.973069 0.586816
vt 0.858635 0.555046
vt 0.852783 0.555047
vt 0.848957 0.557993
vt 0.968926 0.555045
vt 0.862467 0.555045
vt 0.885003 0.593979
vt 0.976874 0.586862
vt 0.848951 0.561807
vt 0.853955 0.586175
vt 0.889235 0.739712
vt 0.864831 0.732616
vt 0.878731 0.725386
vt 0.889235 0.739712
vt 0.878731 0.725386
vt 0.864831 0.732616
vt 0.770164 0.574022
vt 0.780748 0.561819
vt 0.780748 0.574022
vt 0.770164 0.561819
vt 0.822615 0.561819
vt 0.833199 0.561819
vt 0.833199 0.574022
vt 0.822615 0.57785
vt 0.860504 0.707405
vt 0.860503 0.707405
vt 0.780748 0.551218
vt 0.76194 0.551218
vt 0.76917 0.507578
vt 0.784576 0.507578
vt 0.834194 0.507578
vt 0.822615 0.551218
vt 0.822615 0.507578
vt 0.845251 0.555046
vt 0.870087 0.507424
vt 0.968926 0.551217
vt 0.958991 0.507424
vt 0.862467 0.555045
vt 0.968812 0.551217
vt 0.862467 0.551217
vt 0.870087 0.507424
vt 0.962819 0.507425
vt 0.878731 0.721558
vt 0.860504 0.711233
vt 0.863487 0.705194
vt 0.872238 0.701366
vt 0.878731 0.721558
vt 0.872238 0.705194
vt 0.863487 0.705194
vt 0.860504 0.707405
vt 0.88651 0.729487
vt 0.969241 0.729487
vt 0.88651 0.729487
vt 0.969241 0.729487
vt 0.87916 0.663618
vt 0.955242 0.663618
vt 0.87916 0.663618
vt 0.955242 0.663618
vt 0.97264 0.555045
vt 0.962819 0.507425
vt 0.972754 0.555045
vt 0.962819 0.507424
vn 0 1 -0
vn 0 1 0
vn 0 1 -0
vn -0 1 -0
vn 0 0.270219 0.962799
vn 0 0.270219 0.962799
vn 0 0.270219 0.962799
vn 0 0.270219 0.962799
vn 0.975559 0.164025 0.146218
vn 0.975192 0.165494 0.147009
vn 0.975364 0.16481 0.146641
vn 0.97579 0.163096 0.145719
vn 0 0.195954 -0.980613
vn -0 0.195954 -0.980613
vn 0 0.195954 -0.980613
vn 0 0.195954 -0.980613
vn -0.975417 0.164891 0.146193
vn -0.975531 0.16344 0.14706
vn -0.975479 0.164112 0.146659
vn -0.975345 0.165796 0.145652
vn 0 0.999941 0.010864
vn 0 0.999941 0.010864
vn 0 0.999941 0.010864
vn 0 0.999941 0.010864
vn 0 0.236994 0.971511
vn 0 0.236994 0.971511
vn 0 0.236994 0.971511
vn 0 0.236994 0.971511
vn 0.928829 0.361841 0.079677
vn 0.998287 0.058498 -0.001454
vn 0.991637 0.12794 0.016963
vn 0.883955 0.455597 0.105149
vn -0.99616 -0.000279 0.087553
vn -0.967622 0.250023 -0.034595
vn -0.984435 0.175734 0.00239
vn -0.992358 -0.051958 0.111922
vn 0.997884 0.05945 -0.026332
vn 0.998597 0.014456 -0.050953
vn 0.997245 0.021203 -0.071091
vn -0.992719 -0.053658 0.107843
vn -0.994816 -0.051966 0.087415
vn -0.992879 -0.025195 0.116435
vn 0.007535 0.940609 0.339407
vn 0 0.941241 0.337737
vn 0.04177 0.93703 0.346742
vn 0.049794 0.936022 0.3484
vn -0.019865 0.506518 0.862001
vn 0 0.479942 0.8773
vn -0.008826 0.527496 0.849512
vn -0.016305 0.535327 0.844488
vn 0.008826 0.527496 0.849512
vn 0.019865 0.506518 0.862001
vn 0.016305 0.535327 0.844488
vn 0 0.479942 0.8773
vn -0.044978 0.936635 0.347408
vn -0.007609 0.940603 0.339424
vn -0.053686 0.935511 0.349196
vn 0 0.941241 0.337737
vn 0 -0.462919 0.8864
vn 0 -0.462919 0.8864
vn 0 -0.462919 0.8864
vn 0 -0.462919 0.8864
vn 0 -0.462919 0.8864
vn 0 -0.462919 0.8864
vn 0 -0.462919 0.8864
vn 0 -0.462919 0.8864
vn 0 -0.462919 0.8864
vn 0 -0.462919 0.8864
vn 0 0.138068 0.990423
vn 0 0.138068 0.990423
vn 0 0.138068 0.990423
vn 0 0.138068 0.990423
vn 0 0.138068 0.990423
vn 0 0.138068 0.990423
vn 0 0.138068 0.990423
vn 0 0.138068 0.990423
vn 0.999991 0.003441 -0.002411
vn 1 0 -0
vn 1 0 -0
vn 0.999949 0.002178 -0.009841
vn 0.999991 0.003441 -0.002411
vn 0.999985 0.004848 -0.00267
vn 1 0 -0
vn 0.999992 0.001224 0.003902
vn 0.999982 -0.001875 0.005705
vn -0.999998 -0.001587 0.001112
vn -1 -0 0.000001
vn -1 -0 0
vn -0.999984 -0.005581 0.001262
vn -0.999998 -0.001587 0.001112
vn -0.999992 -0.003438 0.001988
vn -0.999975 -0.006756 0.002034
vn -1 -0 0
vn -0.999989 -0.001005 0.00454
vn 1 0 0
vn 1 0 -0
vn 1 0 -0
vn -1 0 -0
vn -1 0 -0
vn -1 0 -0
vn 0 0.70961 0.704594
vn 0 0.70961 0.704594
vn 0 0.70961 0.704594
vn 0 0.70961 0.704594
vn 0 0.70961 0.704594
vn 0 0.70961 0.704594
vn 0 0.70961 0.704594
vn 0 0.70961 0.704594
vn 1 0 -0
vn -1 0 0
vn 0 -0.170994 0.985272
vn 0 -0.170994 0.985272
vn 0 -0.170994 0.985272
vn -0 -0.170994 0.985272
vn 0 -0.170994 0.985272
vn 0 -0.170994 0.985272
vn 0 -0.170994 0.985272
vn 0 -0.170994 0.985272
vn -0.987475 -0.157774 -0
vn -0.987475 -0.157774 -0
vn -0.987475 -0.157774 -0
vn -0.987475 -0.157774 -0
vn 0.987475 -0.157774 -0
vn 0.987475 -0.157774 -0
vn 0.987475 -0.157774 -0
vn 0.987475 -0.157774 -0
vn 1 0 0
vn 1 0 0
vn 1 0 -0
vn 1 0 0
vn -1 -0 0
vn -1 -0 -0
vn -1 0 -0
vn -1 0 -0
vn 1 0 0
vn 1 0 0
vn -1 -0 -0
vn -1 -0 0
vn 1 -0 0
vn 1 0 0
vn -1 0 -0
vn -1 -0 -0
vn 0.802344 -0.232894 -0.549549
vn 0.763354 -0.253843 -0.594015
vn -0.989738 -0.129293 -0.060844
vn -0.982089 -0.156914 -0.104301
usemtl datan_common_arm77_osdor_357035d7
f 1/1/1 2/2/2 3/3/3
f 3/3/3 4/4/4 1/1/1
f 5/5/5 6/6/6 7/7/7
f 7/7/7 8/8/8 5/5/5
f 9/9/9 10/10/10 11/11/11
f 11/11/11 12/12/12 9/9/9
f 13/13/13 14/14/14 15/15/15
f 15/15/15 16/16/16 13/13/13
f 17/17/17 18/18/18 19/19/19
f 19/19/19 20/20/20 17/17/17
f 21/21/21 22/22/22 23/23/23
f 23/23/23 24/24/24 21/21/21
f 25/25/25 26/26/26 27/27/27
f 27/27/27 28/28/28 25/25/25
f 29/29/29 30/30/30 31/31/31
f 31/31/31 32/32/32 29/29/29
f 33/33/33 34/34/34 35/35/35
f 35/35/35 36/36/36 33/33/33
f 37/37/37 38/38/38 39/39/39
f 40/40/40 41/41/41 42/42/42
f 43/43/43 44/44/44 45/45/45
f 45/45/45 46/46/46 43/43/43
f 47/47/47 48/48/48 49/49/49
f 49/49/49 50/50/50 47/47/47
f 51/51/51 52/52/52 53/53/53
f 52/52/52 51/51/51 54/54/54
f 55/55/55 56/56/56 57/57/57
f 56/56/56 55/55/55 58/58/58
f 59/59/59 60/60/60 61/61/61
f 61/61/61 62/62/62 59/59/59
f 63/63/63 61/61/61 60/60/60
f 64/64/64 65/65/65 66/66/66
f 64/64/64 67/67/67 68/68/68
f 67/67/67 64/64/64 66/66/66
f 69/69/69 70/70/70 71/71/71
f 71/71/71 72/72/72 69/69/69
f 73/73/73 74/74/74 75/75/75
f 74/74/74 73/73/73 76/76/76
f 77/77/77 78/78/78 79/79/79
f 80/80/80 81/81/81 82/82/82
f 81/81/81 80/80/80 83/83/83
f 82/82/82 84/84/84 85/85/85
f 84/84/84 82/82/82 81/81/81
f 86/86/86 87/87/87 88/88/88
f 89/89/89 90/90/90 91/91/91
f 91/91/91 92/92/92 89/89/89
f 90/90/90 93/93/93 94/94/94
f 94/94/94 91/91/91 90/90/90
f 95/95/95 96/96/96 97/97/97
f 53/53/53 50/50/50 49/49/49
f 49/49/49 51/51/51 53/53/53
f 98/98/98 99/99/99 100/100/100
f 101/101/101 102/102/102 103/103/103
f 102/102/102 101/101/101 104/104/104
f 105/105/105 106/106/106 107/107/107
f 107/107/107 108/108/108 105/105/105
f 96/96/96 109/109/109 97/97/97
f 100/100/100 99/99/99 110/110/110
f 111/111/111 112/112/112 113/113/113
f 113/113/113 114/114/114 111/111/111
f 115/115/115 116/116/116 117/117/117
f 116/116/116 115/115/115 118/118/118
f 119/119/119 120/120/120 121/121/121
f 120/120/120 119/119/119 122/122/122
f 123/123/123 124/124/124 125/125/125
f 125/125/125 126/126/126 123/123/123
f 127/127/127 128/128/128 129/129/129
f 127/127/127 129/129/129 130/130/130
f 131/131/131 132/132/132 133/133/133
f 131/131/131 133/133/133 134/134/134
f 135/135/135 127/127/127 136/136/136
f 131/131/131 137/137/137 138/138/138
f 130/130/130 139/139/139 140/140/140
f 141/141/141 132/132/132 142/142/142
f 140/140/140 136/136/136 127/127/127
f 127/127/127 130/130/130 140/140/140
f 138/138/138 142/142/142 132/132/132
f 132/132/132 131/131/131 138/138/138
f 39/39/39 38/38/38 143/143/143
f 39/39/39 143/143/143 144/144/144
f 145/145/145 42/42/42 41/41/41
f 41/41/41 146/146/146 145/145/145
