# Generated from Nova1492 GX by tools/nova1492/GxObjConverter
mtllib datan_common__1_RBack_24606ad7.mtl
o datan_common__1_RBack_24606ad7_mesh00
v -1.716166 -0.275309 0.111932
v -1.851242 -0.06731 0.255121
v -0.993369 0.199579 0.111932
v -1.016439 0.446435 0.255121
v -1.851242 -0.06731 0.255121
v -1.851243 -0.06731 0.541498
v -1.016439 0.446435 0.255121
v -1.016439 0.446435 0.541499
v -1.716166 -0.275309 0.684687
v -0.993369 0.199579 0.684687
v -1.58109 -0.483308 0.541499
v -0.970299 -0.047276 0.541499
v -1.58109 -0.483308 0.255121
v -0.970299 -0.047276 0.255121
v -2.420193 -0.732509 0.111932
v -2.555269 -0.52451 0.255121
v -2.555269 -0.52451 0.255121
v -2.555269 -0.52451 0.541498
v -2.420193 -0.732509 0.684687
v -2.285117 -0.940508 0.541498
v -2.285117 -0.940508 0.255121
v -2.285117 -0.940508 0.541498
v -2.420193 -0.732509 0.684687
v -2.285117 -0.940508 0.255121
v -2.420193 -0.732509 0.111932
v -2.555269 -0.52451 0.255121
v -2.555269 -0.52451 0.541498
v -0.003348 -0.044529 -0.996622
v -0.003348 0.177384 -0.996622
v -0.003349 -0.044529 0.639196
v -0.003349 0.177384 0.639196
v -0.003349 -0.044529 0.639196
v -0.003349 0.177384 0.639196
v -0.641685 -0.117377 0.63886
v -0.579002 0.370877 0.63886
v -0.579002 0.370877 0.63886
v -0.579002 0.370877 -0.998052
v -0.003348 0.177384 -0.996622
v -0.003348 -0.044529 -0.996622
v -0.579002 0.370877 -0.998052
v -0.641685 -0.117377 -0.998052
v -0.641685 -0.117377 -0.998052
v -0.641685 -0.117377 0.63886
v -1.716166 -0.275309 -0.468529
v -1.851242 -0.06731 -0.325341
v -0.993369 0.199579 -0.468529
v -1.016439 0.446435 -0.325341
v -1.851242 -0.06731 -0.325341
v -1.851242 -0.06731 -0.038963
v -1.016439 0.446435 -0.325341
v -1.016439 0.446435 -0.038963
v -1.716166 -0.275309 0.104226
v -0.993369 0.199579 0.104226
v -1.58109 -0.483308 -0.038963
v -0.970299 -0.047276 -0.038963
v -1.58109 -0.483308 -0.325341
v -0.970299 -0.047276 -0.325341
v -2.420193 -0.732509 -0.468529
v -2.555269 -0.52451 -0.325341
v -2.555269 -0.52451 -0.325341
v -2.555269 -0.52451 -0.038963
v -2.420193 -0.732509 0.104226
v -2.285117 -0.940508 -0.038963
v -2.285117 -0.940508 -0.325341
v -2.285117 -0.940508 -0.038963
v -2.420193 -0.732509 0.104226
v -2.285117 -0.940508 -0.325341
v -2.420193 -0.732509 -0.468529
v -2.555269 -0.52451 -0.325341
v -2.555269 -0.52451 -0.038963
v -1.716166 -0.275309 -1.047843
v -1.851242 -0.06731 -0.904654
v -0.993369 0.199579 -1.047843
v -1.016439 0.446435 -0.904654
v -1.851242 -0.06731 -0.904654
v -1.851242 -0.06731 -0.618277
v -1.016439 0.446435 -0.904654
v -1.016439 0.446435 -0.618277
v -1.716166 -0.275309 -0.475088
v -0.993369 0.199579 -0.475088
v -1.58109 -0.483308 -0.618277
v -0.970299 -0.047277 -0.618277
v -1.58109 -0.483308 -0.904654
v -0.970299 -0.047277 -0.904654
v -2.420193 -0.732509 -1.047843
v -2.555269 -0.52451 -0.904654
v -2.555269 -0.52451 -0.904654
v -2.555269 -0.52451 -0.618277
v -2.420193 -0.732509 -0.475088
v -2.285117 -0.940508 -0.618277
v -2.285117 -0.940508 -0.904654
v -2.285117 -0.940508 -0.618277
v -2.420193 -0.732509 -0.475088
v -2.285117 -0.940508 -0.904654
v -2.420193 -0.732509 -1.047843
v -2.555269 -0.52451 -0.904654
v -2.555269 -0.52451 -0.618277
vt 0.218551 0.181599
vt 0.252187 0.181599
vt 0.219083 0.030221
vt 0.25038 0.009565
vt 0.019225 0.181599
vt 0.048416 0.181599
vt 0.017417 0.009565
vt 0.050224 0.009565
vt 0.094965 0.181599
vt 0.094433 0.030221
vt 0.144239 0.181599
vt 0.141662 0.050877
vt 0.1709 0.181599
vt 0.173477 0.050877
vt 0.214723 0.332251
vt 0.252187 0.332251
vt 0.019225 0.332251
vt 0.048416 0.332251
vt 0.094965 0.332251
vt 0.144239 0.332251
vt 0.1709 0.332251
vt 0.100873 0.350569
vt 0.063743 0.414066
vt 0.167673 0.350569
vt 0.208437 0.414066
vt 0.171306 0.48139
vt 0.097045 0.48139
vt 0.353629 0.331969
vt 0.391685 0.331969
vt 0.353629 0.033277
vt 0.391685 0.033277
vt 0.47963 0.372009
vt 0.47963 0.424093
vt 0.265714 0.353655
vt 0.283268 0.472846
vt 0.48248 0.033339
vt 0.48248 0.332233
vt 0.47963 0.424093
vt 0.47963 0.372009
vt 0.287096 0.472846
vt 0.261886 0.349827
vt 0.261524 0.332233
vt 0.261524 0.033339
vt 0.218551 0.181599
vt 0.252187 0.181599
vt 0.219083 0.030221
vt 0.25038 0.009565
vt 0.019225 0.181599
vt 0.048416 0.181599
vt 0.017417 0.009565
vt 0.050224 0.009565
vt 0.094965 0.181599
vt 0.094433 0.030221
vt 0.144239 0.181599
vt 0.141662 0.050877
vt 0.1709 0.181599
vt 0.173477 0.050877
vt 0.214723 0.332251
vt 0.252187 0.332251
vt 0.019225 0.332251
vt 0.048416 0.332251
vt 0.094965 0.332251
vt 0.144239 0.332251
vt 0.1709 0.332251
vt 0.100601 0.350569
vt 0.06347 0.414066
vt 0.168309 0.350569
vt 0.208164 0.414066
vt 0.171034 0.48139
vt 0.096773 0.48139
vt 0.218551 0.181599
vt 0.252187 0.181599
vt 0.219083 0.030221
vt 0.25038 0.009565
vt 0.019225 0.181599
vt 0.048416 0.181599
vt 0.017417 0.009565
vt 0.050224 0.009565
vt 0.094965 0.181599
vt 0.094433 0.030221
vt 0.144239 0.181599
vt 0.141662 0.050877
vt 0.1709 0.181599
vt 0.173477 0.050877
vt 0.214723 0.332251
vt 0.252187 0.332251
vt 0.019225 0.332251
vt 0.048416 0.332251
vt 0.094965 0.332251
vt 0.144239 0.332251
vt 0.1709 0.332251
vt 0.100601 0.350569
vt 0.06347 0.414066
vt 0.168309 0.350569
vt 0.208164 0.414066
vt 0.171034 0.48139
vt 0.096773 0.48139
vn 0.27232 -0.419335 -0.866025
vn -0.272319 0.419335 -0.866025
vn 0.300511 -0.457389 -0.836952
vn -0.283789 0.461139 -0.840723
vn -0.544639 0.838671 -0
vn -0.27232 0.419335 0.866025
vn -0.524112 0.851649 -0
vn -0.300511 0.457389 0.836952
vn 0.272319 -0.419335 0.866025
vn 0.322775 -0.452143 0.831494
vn 0.544639 -0.838671 -0
vn 0.581019 -0.81389 0
vn 0.27232 -0.419335 -0.866025
vn 0.300511 -0.457389 -0.836952
vn 0.27232 -0.419335 -0.866025
vn -0.272319 0.419335 -0.866025
vn -0.544639 0.838671 0
vn -0.27232 0.419335 0.866025
vn 0.27232 -0.419335 0.866025
vn 0.544639 -0.838671 0
vn 0.27232 -0.419335 -0.866025
vn -0.838671 -0.544639 0
vn -0.838671 -0.544639 0
vn -0.838671 -0.544639 0
vn -0.838671 -0.544639 0
vn -0.838671 -0.544639 0
vn -0.838671 -0.544639 0
vn 0.113386 -0.993551 0
vn 0.31861 0.947886 -0
vn 0.113386 -0.993551 0
vn 0.31861 0.947886 -0
vn -0.000526 0 1
vn -0.00056 0.000072 1
vn -0.00056 0.000072 1
vn -0.00056 0.000072 1
vn 0.31861 0.947886 -0
vn 0.31861 0.947886 -0
vn 0.002484 -0 -0.999997
vn 0.002274 -0.000292 -0.999997
vn 0.002274 -0.000292 -0.999997
vn 0.002274 -0.000292 -0.999997
vn 0.113386 -0.993551 0
vn 0.113386 -0.993551 0
vn 0.27232 -0.419335 -0.866026
vn -0.272319 0.419335 -0.866025
vn 0.300511 -0.457389 -0.836952
vn -0.283789 0.461139 -0.840723
vn -0.544639 0.838671 -0
vn -0.27232 0.419335 0.866025
vn -0.524112 0.851649 0
vn -0.300511 0.457389 0.836952
vn 0.272319 -0.419335 0.866025
vn 0.322775 -0.452143 0.831494
vn 0.544639 -0.838671 0
vn 0.581019 -0.81389 0
vn 0.27232 -0.419335 -0.866026
vn 0.300511 -0.457389 -0.836952
vn 0.27232 -0.419335 -0.866026
vn -0.272319 0.419335 -0.866025
vn -0.544639 0.838671 -0
vn -0.27232 0.419335 0.866025
vn 0.272319 -0.419335 0.866026
vn 0.544639 -0.838671 -0
vn 0.27232 -0.419335 -0.866025
vn -0.838671 -0.544639 -0
vn -0.83867 -0.54464 -0.000001
vn -0.838671 -0.544639 -0
vn -0.838671 -0.544639 0.000001
vn -0.83867 -0.54464 -0.000001
vn -0.83867 -0.54464 -0.000001
vn 0.27232 -0.419336 -0.866025
vn -0.27232 0.419336 -0.866025
vn 0.300511 -0.457389 -0.836952
vn -0.283789 0.461139 -0.840723
vn -0.544639 0.838671 -0
vn -0.27232 0.419335 0.866025
vn -0.524113 0.851649 -0
vn -0.300511 0.457389 0.836952
vn 0.27232 -0.419336 0.866025
vn 0.322775 -0.452143 0.831494
vn 0.544639 -0.838671 0
vn 0.581019 -0.81389 0
vn 0.27232 -0.419336 -0.866025
vn 0.300511 -0.457389 -0.836952
vn 0.27232 -0.419336 -0.866025
vn -0.27232 0.419336 -0.866025
vn -0.544639 0.838671 0
vn -0.27232 0.419336 0.866025
vn 0.27232 -0.419336 0.866025
vn 0.544639 -0.838671 -0
vn 0.27232 -0.419335 -0.866025
vn -0.838671 -0.544639 -0
vn -0.838671 -0.544639 0
vn -0.838671 -0.544639 -0
vn -0.838671 -0.544639 0.000001
vn -0.838671 -0.544639 0
vn -0.838671 -0.544639 0
usemtl datan_common__1_RBack_24606ad7
f 1/1/1 2/2/2 3/3/3
f 4/4/4 3/3/3 2/2/2
f 5/5/5 6/6/6 7/7/7
f 8/8/8 7/7/7 6/6/6
f 6/6/6 9/9/9 8/8/8
f 10/10/10 8/8/8 9/9/9
f 9/9/9 11/11/11 10/10/10
f 12/12/12 10/10/10 11/11/11
f 11/11/11 13/13/13 12/12/12
f 14/14/14 12/12/12 13/13/13
f 13/13/13 1/1/1 14/14/14
f 3/3/3 14/14/14 1/1/1
f 15/15/15 16/16/16 1/1/1
f 2/2/2 1/1/1 16/16/16
f 17/17/17 18/18/18 5/5/5
f 6/6/6 5/5/5 18/18/18
f 18/18/18 19/19/19 6/6/6
f 9/9/9 6/6/6 19/19/19
f 19/19/19 20/20/20 9/9/9
f 11/11/11 9/9/9 20/20/20
f 20/20/20 21/21/21 11/11/11
f 13/13/13 11/11/11 21/21/21
f 21/21/21 15/15/15 13/13/13
f 1/1/1 13/13/13 15/15/15
f 22/22/22 23/23/23 24/24/24
f 25/25/25 24/24/24 26/26/26
f 24/24/24 23/23/23 26/26/26
f 26/26/26 23/23/23 27/27/27
f 28/28/28 29/29/29 30/30/30
f 31/31/31 30/30/30 29/29/29
f 32/32/32 33/33/33 34/34/34
f 35/35/35 34/34/34 33/33/33
f 31/31/31 29/29/29 36/36/36
f 37/37/37 36/36/36 29/29/29
f 38/38/38 39/39/39 40/40/40
f 41/41/41 40/40/40 39/39/39
f 28/28/28 30/30/30 42/42/42
f 43/43/43 42/42/42 30/30/30
f 44/44/44 45/45/45 46/46/46
f 47/47/47 46/46/46 45/45/45
f 48/48/48 49/49/49 50/50/50
f 51/51/51 50/50/50 49/49/49
f 49/49/49 52/52/52 51/51/51
f 53/53/53 51/51/51 52/52/52
f 52/52/52 54/54/54 53/53/53
f 55/55/55 53/53/53 54/54/54
f 54/54/54 56/56/56 55/55/55
f 57/57/57 55/55/55 56/56/56
f 56/56/56 44/44/44 57/57/57
f 46/46/46 57/57/57 44/44/44
f 58/58/58 59/59/59 44/44/44
f 45/45/45 44/44/44 59/59/59
f 60/60/60 61/61/61 48/48/48
f 49/49/49 48/48/48 61/61/61
f 61/61/61 62/62/62 49/49/49
f 52/52/52 49/49/49 62/62/62
f 62/62/62 63/63/63 52/52/52
f 54/54/54 52/52/52 63/63/63
f 63/63/63 64/64/64 54/54/54
f 56/56/56 54/54/54 64/64/64
f 64/64/64 58/58/58 56/56/56
f 44/44/44 56/56/56 58/58/58
f 65/65/65 66/66/66 67/67/67
f 68/68/68 67/67/67 69/69/69
f 67/67/67 66/66/66 69/69/69
f 69/69/69 66/66/66 70/70/70
f 71/71/71 72/72/72 73/73/73
f 74/74/74 73/73/73 72/72/72
f 75/75/75 76/76/76 77/77/77
f 78/78/78 77/77/77 76/76/76
f 76/76/76 79/79/79 78/78/78
f 80/80/80 78/78/78 79/79/79
f 79/79/79 81/81/81 80/80/80
f 82/82/82 80/80/80 81/81/81
f 81/81/81 83/83/83 82/82/82
f 84/84/84 82/82/82 83/83/83
f 83/83/83 71/71/71 84/84/84
f 73/73/73 84/84/84 71/71/71
f 85/85/85 86/86/86 71/71/71
f 72/72/72 71/71/71 86/86/86
f 87/87/87 88/88/88 75/75/75
f 76/76/76 75/75/75 88/88/88
f 88/88/88 89/89/89 76/76/76
f 79/79/79 76/76/76 89/89/89
f 89/89/89 90/90/90 79/79/79
f 81/81/81 79/79/79 90/90/90
f 90/90/90 91/91/91 81/81/81
f 83/83/83 81/81/81 91/91/91
f 91/91/91 85/85/85 83/83/83
f 71/71/71 83/83/83 85/85/85
f 92/92/92 93/93/93 94/94/94
f 95/95/95 94/94/94 96/96/96
f 94/94/94 93/93/93 96/96/96
f 96/96/96 93/93/93 97/97/97
o datan_common__1_RBack_24606ad7_mesh01
v 0.03265 0.0208 0.100535
v 0.03265 0.0208 -0.139927
v -0.029162 -0.018578 -0.139927
v -0.029162 -0.018578 0.100535
v 0.026398 -0.107229 0.159126
v 0.08821 -0.06785 0.159126
vt 0.50582 0.50582
vt 0.50582 0.61918
vt 0.61918 0.61918
vt 0.61918 0.50582
vt 0.61918 0.50582
vt 0.50582 0.50582
vn -0.262539 0.412103 0.872493
vn -0.5373 0.843391 -0
vn -0.5373 0.843392 -0
vn -0.262539 0.412103 0.872493
vn -0.262539 0.412103 0.872493
vn -0.262539 0.412103 0.872493
usemtl datan_common__1_RBack_24606ad7
f 98/98/98 99/99/99 100/100/100
f 100/100/100 101/101/101 98/98/98
f 102/102/102 103/103/103 101/101/101
f 98/98/98 101/101/101 103/103/103
o datan_common__1_RBack_24606ad7_mesh02
v 0.046044 0.033533 0.074664
v 0.046044 0.033533 -0.074665
v -0.046044 -0.033533 -0.074664
v -0.046044 -0.033533 0.074665
vt 0.88082 0.50582
vt 0.88082 0.61918
vt 0.99418 0.61918
vt 0.99418 0.50582
vn -0.588703 0.808349 -0
vn -0.588703 0.808349 -0
vn -0.588703 0.808349 -0
vn -0.588703 0.808349 -0
usemtl datan_common__1_RBack_24606ad7
f 104/104/104 105/105/105 106/106/106
f 106/106/106 107/107/107 104/104/104
o datan_common__1_RBack_24606ad7_mesh03
v 0.046044 0.033533 0.074664
v 0.046044 0.033533 -0.074665
v -0.046044 -0.033533 -0.074664
v -0.046044 -0.033533 0.074665
vt 0.88082 0.50582
vt 0.88082 0.61918
vt 0.99418 0.61918
vt 0.99418 0.50582
vn -0.588703 0.808349 -0
vn -0.588703 0.808349 -0
vn -0.588703 0.808349 -0
vn -0.588703 0.808349 -0
usemtl datan_common__1_RBack_24606ad7
f 108/108/108 109/109/109 110/110/110
f 110/110/110 111/111/111 108/108/108
o datan_common__1_RBack_24606ad7_mesh04
v 0.03265 0.0208 0.100535
v 0.03265 0.0208 -0.139927
v -0.029162 -0.018578 -0.139927
v -0.029162 -0.018578 0.100535
v 0.026398 -0.107229 0.159126
v 0.08821 -0.06785 0.159126
vt 0.50582 0.50582
vt 0.50582 0.61918
vt 0.61918 0.61918
vt 0.61918 0.50582
vt 0.61918 0.50582
vt 0.50582 0.50582
vn -0.262539 0.412103 0.872493
vn -0.5373 0.843391 -0
vn -0.5373 0.843392 -0
vn -0.262539 0.412103 0.872493
vn -0.262539 0.412103 0.872493
vn -0.262539 0.412103 0.872493
usemtl datan_common__1_RBack_24606ad7
f 112/112/112 113/113/113 114/114/114
f 114/114/114 115/115/115 112/112/112
f 116/116/116 117/117/117 115/115/115
f 112/112/112 115/115/115 117/117/117
o datan_common__1_RBack_24606ad7_mesh05
v -0.14197 -0.142452 0
v 0.020918 -0.031589 0
v -0.184601 -0.079815 0
v -0.021713 0.031048 -0
v -0.163286 -0.111133 0.037884
v -0.000397 -0.000271 0.037884
v -0.163286 -0.111133 -0.037884
v -0.000397 -0.000271 -0.037884
v -0.14197 -0.142452 0
v -0.184601 -0.079815 0
v 0.020918 -0.031589 0
v -0.021713 0.031048 -0
v -0.163286 -0.111133 -0.037884
v -0.163286 -0.111133 0.037884
v -0.000397 -0.000271 -0.037884
v -0.000397 -0.000271 0.037884
vt 0.74418 0.63082
vt 0.50582 0.63082
vt 0.74418 0.74418
vt 0.50582 0.74418
vt 0.74418 0.63082
vt 0.50582 0.63082
vt 0.74418 0.74418
vt 0.50582 0.74418
vt 0.74418 0.63082
vt 0.74418 0.74418
vt 0.50582 0.63082
vt 0.50582 0.74418
vt 0.74418 0.63082
vt 0.74418 0.74418
vt 0.50582 0.63082
vt 0.50582 0.74418
vn 0 0 1
vn 0 0 1
vn 0 0 1
vn 0 0 1
vn -0.562652 0.826694 -0
vn -0.562652 0.826694 -0
vn -0.562652 0.826694 -0
vn -0.562652 0.826694 -0
vn 0 -0 -1
vn 0 -0 -1
vn 0 -0 -1
vn 0 -0 -1
vn -0.562652 0.826694 -0
vn -0.562652 0.826694 -0
vn -0.562652 0.826694 -0
vn -0.562652 0.826694 -0
usemtl datan_common__1_RBack_24606ad7
f 118/118/118 119/119/119 120/120/120
f 121/121/121 120/120/120 119/119/119
f 122/122/122 123/123/123 124/124/124
f 125/125/125 124/124/124 123/123/123
f 126/126/126 127/127/127 128/128/128
f 129/129/129 128/128/128 127/127/127
f 130/130/130 131/131/131 132/132/132
f 133/133/133 132/132/132 131/131/131
o datan_common__1_RBack_24606ad7_mesh06
v -0.021513 0.030762 -0
v -0.182898 -0.079078 0
v 0.020725 -0.031298 0
v -0.14066 -0.141137 0
v -0.000394 -0.000268 -0.037535
v -0.161779 -0.110108 -0.037534
v -0.000394 -0.000268 0.037535
v -0.161779 -0.110108 0.037535
v -0.021513 0.030762 -0
v 0.020725 -0.031298 0
v -0.182898 -0.079078 0
v -0.14066 -0.141137 0
v -0.000394 -0.000268 0.037535
v -0.000394 -0.000268 -0.037535
v -0.161779 -0.110108 0.037535
v -0.161779 -0.110108 -0.037534
vt 0.50582 0.74418
vt 0.74418 0.74418
vt 0.50582 0.63082
vt 0.74418 0.63082
vt 0.50582 0.74418
vt 0.74418 0.74418
vt 0.50582 0.63082
vt 0.74418 0.63082
vt 0.50582 0.74418
vt 0.50582 0.63082
vt 0.74418 0.74418
vt 0.74418 0.63082
vt 0.50582 0.74418
vt 0.50582 0.63082
vt 0.74418 0.74418
vt 0.74418 0.63082
vn 0 0 1
vn 0 0 1
vn 0 0 1
vn 0 0 1
vn -0.562652 0.826694 -0
vn -0.562652 0.826694 -0
vn -0.562652 0.826694 -0
vn -0.562652 0.826694 -0
vn 0 -0 -1
vn 0 -0 -1
vn 0 -0 -1
vn 0 -0 -1
vn -0.562652 0.826694 -0
vn -0.562652 0.826694 -0
vn -0.562652 0.826694 -0
vn -0.562652 0.826694 -0
usemtl datan_common__1_RBack_24606ad7
f 134/134/134 135/135/135 136/136/136
f 137/137/137 136/136/136 135/135/135
f 138/138/138 139/139/139 140/140/140
f 141/141/141 140/140/140 139/139/139
f 142/142/142 143/143/143 144/144/144
f 145/145/145 144/144/144 143/143/143
f 146/146/146 147/147/147 148/148/148
f 149/149/149 148/148/148 147/147/147
o datan_common__1_RBack_24606ad7_mesh07
v -0.129171 -0.129609 0
v 0.019032 -0.028741 0
v -0.167958 -0.072619 0
v -0.019755 0.028249 -0
v -0.148564 -0.101114 0.034469
v -0.000362 -0.000246 0.034469
v -0.148564 -0.101114 -0.034469
v -0.000362 -0.000246 -0.034469
v -0.129171 -0.129609 0
v -0.167958 -0.072619 0
v 0.019032 -0.028741 0
v -0.019755 0.028249 -0
v -0.148564 -0.101114 -0.034469
v -0.148564 -0.101114 0.034469
v -0.000362 -0.000246 -0.034469
v -0.000362 -0.000246 0.034469
vt 0.74418 0.63082
vt 0.50582 0.63082
vt 0.74418 0.74418
vt 0.50582 0.74418
vt 0.74418 0.63082
vt 0.50582 0.63082
vt 0.74418 0.74418
vt 0.50582 0.74418
vt 0.74418 0.63082
vt 0.74418 0.74418
vt 0.50582 0.63082
vt 0.50582 0.74418
vt 0.74418 0.63082
vt 0.74418 0.74418
vt 0.50582 0.63082
vt 0.50582 0.74418
vn 0 0 1
vn 0 0 1
vn 0 0 1
vn 0 0 1
vn -0.562652 0.826694 -0
vn -0.562652 0.826694 -0
vn -0.562652 0.826694 -0
vn -0.562652 0.826694 -0
vn 0 -0 -1
vn 0 -0 -1
vn 0 -0 -1
vn 0 -0 -1
vn -0.562652 0.826694 -0
vn -0.562652 0.826694 -0
vn -0.562652 0.826694 -0
vn -0.562652 0.826694 -0
usemtl datan_common__1_RBack_24606ad7
f 150/150/150 151/151/151 152/152/152
f 153/153/153 152/152/152 151/151/151
f 154/154/154 155/155/155 156/156/156
f 157/157/157 156/156/156 155/155/155
f 158/158/158 159/159/159 160/160/160
f 161/161/161 160/160/160 159/159/159
f 162/162/162 163/163/163 164/164/164
f 165/165/165 164/164/164 163/163/163
o datan_common__1_RBack_24606ad7_mesh08
v 0.03265 0.0208 0.100535
v 0.03265 0.0208 -0.139927
v -0.029162 -0.018578 -0.139927
v -0.029162 -0.018578 0.100535
v 0.026398 -0.107229 0.159126
v 0.08821 -0.06785 0.159126
vt 0.50582 0.50582
vt 0.50582 0.61918
vt 0.61918 0.61918
vt 0.61918 0.50582
vt 0.61918 0.50582
vt 0.50582 0.50582
vn -0.262539 0.412103 0.872493
vn -0.5373 0.843391 -0
vn -0.5373 0.843392 -0
vn -0.262539 0.412103 0.872493
vn -0.262539 0.412103 0.872493
vn -0.262539 0.412103 0.872493
usemtl datan_common__1_RBack_24606ad7
f 166/166/166 167/167/167 168/168/168
f 168/168/168 169/169/169 166/166/166
f 170/170/170 171/171/171 169/169/169
f 166/166/166 169/169/169 171/171/171
o datan_common__1_RBack_24606ad7_mesh09
v 0.10874 0.068083 0.074664
v 0.10874 0.068083 -0.074665
v -0.10874 -0.068083 -0.074664
v -0.10874 -0.068083 0.074665
vt 0.88082 0.50582
vt 0.88082 0.61918
vt 0.99418 0.61918
vt 0.99418 0.50582
vn -0.530673 0.847577 -0
vn -0.530673 0.847577 -0
vn -0.530673 0.847577 -0
vn -0.530673 0.847577 -0
usemtl datan_common__1_RBack_24606ad7
f 172/172/172 173/173/173 174/174/174
f 174/174/174 175/175/175 172/172/172
o datan_common__1_RBack_24606ad7_mesh10
v -0.166497 -0.263012 1.318742
v 0.166497 -0.263012 1.318742
v -0.245451 0.537948 1.318742
v 0.245451 0.537948 1.318742
v -0.245451 0.537948 -0.581816
v -0.189363 -0.262843 -0.581816
v -0.245451 0.537948 1.318742
v -0.166497 -0.263012 1.318742
v 0.189363 -0.262843 -0.581816
v 0.245451 0.537948 -0.581816
v 0.166497 -0.263012 1.318742
v 0.245451 0.537948 1.318742
v -0.245451 0.537948 -0.581816
v 0.245451 0.537948 -0.581816
v -0.189363 -0.262843 -0.581816
v 0.189363 -0.262843 -0.581816
v -0.130002 -0.694178 -0.091073
v 0.127131 -0.694178 -0.091073
v -0.181132 -0.257009 0.15929
v 0.178261 -0.257009 0.15929
v -0.130002 -0.694178 -0.581627
v -0.130002 -0.694178 -0.091073
v -0.186326 -0.257009 -0.581627
v -0.181132 -0.257009 0.15929
v 0.127131 -0.694178 -0.581627
v -0.130002 -0.694178 -0.581627
v 0.183455 -0.257009 -0.581627
v -0.186326 -0.257009 -0.581627
v 0.127131 -0.694178 -0.091073
v 0.127131 -0.694178 -0.581627
v 0.178261 -0.257009 0.15929
v 0.183455 -0.257009 -0.581627
vt 0.101792 0.60231
vt 0.038506 0.60231
vt 0.117705 0.783957
vt 0.022592 0.787785
vt 0.260162 0.545542
vt 0.144799 0.545542
vt 0.260162 0.983994
vt 0.136099 0.983994
vt 0.464986 0.545542
vt 0.347803 0.545542
vt 0.469976 0.983994
vt 0.343975 0.983994
vt 0.019243 0.967573
vt 0.120109 0.966339
vt 0.031219 0.815152
vt 0.108258 0.815152
vt 0.231573 0.824349
vt 0.193743 0.824349
vt 0.240225 0.880429
vt 0.18122 0.884257
vt 0.191485 0.935683
vt 0.191485 0.836891
vt 0.231498 0.935683
vt 0.231351 0.789601
vt 0.04799 0.796643
vt 0.08582 0.796643
vt 0.039277 0.827427
vt 0.094577 0.831256
vt 0.19172 0.836891
vt 0.19172 0.935683
vt 0.231146 0.789601
vt 0.231498 0.935683
vn -0 0 1
vn 0 0 1
vn 0 0 1
vn 0 0 1
vn 0 1 -0
vn -0.995106 -0.098092 0.011963
vn 0 1 -0
vn -0.995106 -0.098092 0.011963
vn 0.997484 -0.069865 0.011995
vn 0 1 -0
vn 0.995177 -0.098099 0
vn 0 1 -0
vn 0 -0 -1
vn -0 -0 -1
vn -0 -0 -1
vn -0 -0 -1
vn 0 -0.496965 0.867771
vn 0 -0.496965 0.867771
vn 0 -0.496965 0.867771
vn 0 -0.496965 0.867771
vn -0.991803 -0.127781 0
vn -0.992738 -0.120092 0.006959
vn -0.992738 -0.120092 0.006959
vn -0.992738 -0.120092 0.006959
vn 0 0 -1
vn 0 -0 -1
vn 0 -0 -1
vn 0 -0 -1
vn 0.99323 -0.116165 0
vn 0.991778 -0.127779 0.006953
vn 0.991778 -0.127779 0.006953
vn 0.991778 -0.127779 0.006953
usemtl datan_common__1_RBack_24606ad7
f 176/176/176 177/177/177 178/178/178
f 179/179/179 178/178/178 177/177/177
f 180/180/180 181/181/181 182/182/182
f 183/183/183 182/182/182 181/181/181
f 184/184/184 185/185/185 186/186/186
f 187/187/187 186/186/186 185/185/185
f 188/188/188 189/189/189 190/190/190
f 191/191/191 190/190/190 189/189/189
f 187/187/187 185/185/185 182/182/182
f 180/180/180 182/182/182 185/185/185
f 192/192/192 193/193/193 194/194/194
f 195/195/195 194/194/194 193/193/193
f 196/196/196 197/197/197 198/198/198
f 199/199/199 198/198/198 197/197/197
f 200/200/200 201/201/201 202/202/202
f 203/203/203 202/202/202 201/201/201
f 204/204/204 205/205/205 206/206/206
f 207/207/207 206/206/206 205/205/205
o datan_common__1_RBack_24606ad7_mesh11
v 0.084554 0 0.044957
v 0.084554 -0 -0.044957
v -0.084554 -0 -0.044957
v -0.084554 0 0.044957
vt 0.50582 0.50582
vt 0.50582 0.61918
vt 0.61918 0.61918
vt 0.61918 0.50582
vn 0 1 -0
vn 0 1 -0
vn 0 1 -0
vn 0 1 -0
usemtl datan_common__1_RBack_24606ad7
f 208/208/208 209/209/209 210/210/210
f 210/210/210 211/211/211 208/208/208
o datan_common__1_RBack_24606ad7_mesh12
v -0.097465 0.158686 0.159984
v 0.097465 0.158686 0.159984
v -0.097465 0.158686 -0.338768
v 0.097465 0.158686 -0.338768
v -0.183805 -0.158686 0.389886
v 0.183805 -0.158686 0.389886
v -0.183805 -0.158687 -0.389885
v -0.183805 -0.158686 0.389886
v 0.183805 -0.158687 -0.389885
v -0.183805 -0.158687 -0.389885
v 0.183805 -0.158686 0.389886
v 0.183805 -0.158687 -0.389885
vt 0.914396 0.587717
vt 0.845721 0.587717
vt 0.914396 0.639637
vt 0.845721 0.643465
vt 0.945811 0.51391
vt 0.813608 0.51391
vt 0.974554 0.660378
vt 0.974554 0.550847
vt 0.813608 0.706843
vt 0.946509 0.706843
vt 0.784865 0.550847
vt 0.784865 0.660378
vn -0.964931 0.262506 -0
vn 0.964931 0.262506 -0
vn 0 0.159016 -0.987276
vn 0.964931 0.262506 -0
vn -0 0.586645 0.809844
vn 0 0.586645 0.809844
vn -0.964931 0.262506 -0
vn -0.964931 0.262506 -0
vn 0 0.159016 -0.987276
vn 0 0.159016 -0.987276
vn 0.964931 0.262506 -0
vn 0.964931 0.262506 -0
usemtl datan_common__1_RBack_24606ad7
f 212/212/212 213/213/213 214/214/214
f 215/215/215 214/214/214 213/213/213
f 216/216/216 217/217/217 212/212/212
f 213/213/213 212/212/212 217/217/217
f 218/218/218 219/219/219 214/214/214
f 212/212/212 214/214/214 219/219/219
f 220/220/220 221/221/221 215/215/215
f 214/214/214 215/215/215 221/221/221
f 222/222/222 223/223/223 213/213/213
f 215/215/215 213/213/213 223/223/223
