# Generated from Nova1492 GX by tools/nova1492/GxObjConverter
mtllib datan_common_arm25_skoob_229cc6db.mtl
o datan_common_arm25_skoob_229cc6db
v -0.106676 0.147637 0.323667
v 0.106676 0.147637 0.323667
v 0.106676 0.147637 -0.323667
v -0.106676 0.147637 -0.323667
v -0.130382 0 0.323667
v 0.130382 0 0.323667
v 0.106676 0.147637 0.323667
v -0.106676 0.147637 0.323667
v 0.130382 0 0.323667
v 0.130382 0 -0.408102
v 0.106676 0.147637 -0.323667
v 0.106676 0.147637 0.323667
v 0.130382 0 -0.408102
v -0.130382 0 -0.408102
v -0.106676 0.147637 -0.323667
v 0.106676 0.147637 -0.323667
v -0.130382 0 -0.408102
v -0.130382 0 0.323667
v -0.106676 0.147637 0.323667
v -0.106676 0.147637 -0.323667
v -0.001659 0.240424 0.105333
v -0.138306 0.240424 0.196278
v -0.093506 0.346373 0.277435
v -0.001659 0.358594 0.184608
v -0.138306 0.240424 0.515738
v -0.093506 0.325684 0.434581
v -0.001659 0.240424 0.606683
v -0.001659 0.313463 0.527408
v -0.001659 0.240424 0.606683
v 0.134988 0.240424 0.515738
v 0.090188 0.325684 0.434581
v -0.001659 0.313463 0.527408
v 0.134988 0.240424 0.196278
v 0.090188 0.346373 0.277435
v -0.001659 0.240424 0.105333
v -0.001659 0.358594 0.184608
v -0.093506 0.325684 0.434581
v -0.001659 0.313463 0.527408
v 0.090188 0.325684 0.434581
v -0.093506 0.346373 0.277435
v 0.090188 0.346373 0.277435
v -0.001659 0.358594 0.184608
v -0.105283 0.075915 -0.433584
v -0.105283 0.075915 0.532543
v -0.086009 0.233646 0.515738
v -0.086009 0.233646 -0.404383
v -0.001659 0.075915 0.629481
v -0.001659 0.233646 0.616911
v 0.101965 0.075915 0.532543
v 0.082691 0.233646 0.515738
v 0.101965 0.075915 -0.433584
v 0.082691 0.233646 -0.404383
v 0.101965 0.075915 -0.433584
v -0.105283 0.075915 -0.433584
v -0.086009 0.233646 -0.404383
v 0.082691 0.233646 -0.404383
v 0.082691 0.233646 0.515738
v 0.082691 0.233646 -0.404383
v -0.086009 0.233646 -0.404383
v -0.086009 0.233646 0.515738
v -0.001659 0.233646 0.616911
v -0.095343 0.138867 -0.383346
v -0.07692 0.257881 -0.383346
v -0.012522 0.229971 -0.383346
v -0.123405 0.192621 -0.383346
v -0.095343 0.138867 -0.068574
v -0.07692 0.257881 -0.068574
v -0.123405 0.192621 -0.068574
v -0.012522 0.229971 -0.068574
v -0.07692 0.257881 -0.383346
v -0.012522 0.229971 -0.068574
v -0.012522 0.229971 -0.383346
v -0.07692 0.257881 -0.068574
v 0.090784 0.138867 -0.383346
v 0.007962 0.229971 -0.383346
v 0.072361 0.257881 -0.383346
v 0.118845 0.192621 -0.383346
v 0.090784 0.138867 -0.068574
v 0.118845 0.192621 -0.068574
v 0.072361 0.257881 -0.068574
v 0.007963 0.229971 -0.068574
v 0.072361 0.257881 -0.383346
v 0.007962 0.229971 -0.383346
v 0.007963 0.229971 -0.068574
v 0.072361 0.257881 -0.068574
v -0.214155 0.079325 -0.046614
v -0.322444 0.079325 0.057884
v -0.210854 0.187669 -0.013652
v -0.308461 0.187669 0.072613
v -0.105336 0.079325 -0.002463
v -0.214155 0.079325 -0.046614
v -0.119061 0.187669 0.015251
v -0.210854 0.187669 -0.013652
v -0.105336 0.079325 1.183145
v -0.119061 0.187669 1.158463
v -0.213941 0.079325 1.127151
v -0.105336 0.079325 1.183145
v -0.203235 0.187669 1.114128
v -0.119061 0.187669 1.158463
v -0.228939 0.079325 0.431722
v -0.213941 0.079325 1.127151
v -0.218233 0.187669 0.417214
v -0.203235 0.187669 1.114128
v -0.322444 0.079325 0.264553
v -0.308461 0.187669 0.253254
v -0.119061 0.187669 0.015251
v -0.210854 0.187669 -0.013652
v -0.119061 0.187669 1.158463
v -0.203235 0.187669 1.114128
v -0.218233 0.187669 0.417214
v -0.308461 0.187669 0.253254
v -0.308461 0.187669 0.072613
v 0.3162 0.079325 0.057884
v 0.207912 0.079325 -0.046614
v 0.20461 0.187669 -0.013652
v 0.302218 0.187669 0.072613
v 0.207912 0.079325 -0.046614
v 0.099092 0.079325 -0.002463
v 0.112818 0.187669 0.015251
v 0.20461 0.187669 -0.013652
v 0.099092 0.079325 1.183145
v 0.112818 0.187669 1.158463
v 0.099092 0.079325 1.183145
v 0.207697 0.079325 1.127151
v 0.196991 0.187669 1.114128
v 0.112818 0.187669 1.158463
v 0.207697 0.079325 1.127151
v 0.222696 0.079325 0.431722
v 0.21199 0.187669 0.417214
v 0.196991 0.187669 1.114128
v 0.3162 0.079325 0.264553
v 0.302218 0.187669 0.253254
v 0.20461 0.187669 -0.013652
v 0.112818 0.187669 0.015251
v 0.112818 0.187669 1.158463
v 0.196991 0.187669 1.114128
v 0.21199 0.187669 0.417214
v 0.302218 0.187669 0.253254
v 0.302218 0.187669 0.072613
vt 0.505941 0.49207
vt 0.505941 0.49207
vt 0.716142 0.49207
vt 0.716142 0.488242
vt 0.570452 0.269412
vt 0.59012 0.269412
vt 0.59012 0.484415
vt 0.570452 0.484415
vt 0.571552 0.261758
vt 0.744059 0.261758
vt 0.723263 0.488242
vt 0.571552 0.488242
vt 0.506365 0.265822
vt 0.565254 0.265658
vt 0.565331 0.485804
vt 0.506363 0.485804
vt 0.744059 0.261758
vt 0.571552 0.261758
vt 0.571552 0.488242
vt 0.723263 0.488242
vt 0.493819 0.25657
vt 0.453758 0.25657
vt 0.41516 0.488117
vt 0.456516 0.488118
vt 0.29959 0.25657
vt 0.33484 0.488117
vt 0.25582 0.25657
vt 0.289656 0.488118
vt 0.255941 0.011883
vt 0.296002 0.011883
vt 0.33484 0.244577
vt 0.293485 0.244577
vt 0.45017 0.011883
vt 0.411331 0.244577
vt 0.494059 0.011883
vt 0.456516 0.244577
vt 0.783752 0.488242
vt 0.755879 0.375
vt 0.783752 0.261758
vt 0.841248 0.488242
vt 0.841248 0.261758
vt 0.869121 0.371172
vt 0.492732 0.518661
vt 0.050902 0.518661
vt 0.058675 0.685551
vt 0.479226 0.693207
vt 0.006467 0.518662
vt 0.012281 0.685551
vt 0.047074 0.518662
vt 0.054847 0.685551
vt 0.492732 0.518662
vt 0.479226 0.685551
vt 0.101038 0.797179
vt 0.154364 0.797246
vt 0.154497 0.905669
vt 0.097305 0.913561
vt 0.060346 0.763258
vt 0.4788 0.763258
vt 0.4788 0.947667
vt 0.060347 0.947667
vt 0.012593 0.859291
vt 0.469807 0.58832
vt 0.469807 0.71015
vt 0.469807 0.682362
vt 0.468294 0.646515
vt 0.329336 0.58832
vt 0.329336 0.71015
vt 0.325908 0.646515
vt 0.325508 0.690019
vt 0.46887 0.93732
vt 0.329672 0.871658
vt 0.46887 0.871658
vt 0.325844 0.944976
vt 0.469807 0.58832
vt 0.469807 0.682362
vt 0.469807 0.71015
vt 0.468294 0.646515
vt 0.329336 0.58832
vt 0.325908 0.646515
vt 0.329336 0.71015
vt 0.325508 0.690019
vt 0.46887 0.775019
vt 0.46887 0.84068
vt 0.329672 0.84068
vt 0.325844 0.775019
vt 0.993493 0.515412
vt 0.96242 0.515412
vt 0.982633 0.641556
vt 0.957875 0.649212
vt 0.98205 0.861025
vt 0.993555 0.861025
vt 0.973027 0.986875
vt 0.986476 0.986875
vt 0.588178 0.861025
vt 0.596659 0.986486
vt 0.583427 0.514888
vt 0.506446 0.514223
vt 0.583575 0.736496
vt 0.506482 0.743425
vt 0.834548 0.515412
vt 0.606007 0.515412
vt 0.839361 0.641556
vt 0.611535 0.649212
vt 0.893238 0.515412
vt 0.897685 0.641556
vt 0.973646 0.83633
vt 0.983103 0.755829
vt 0.596004 0.837996
vt 0.609885 0.76499
vt 0.839131 0.749894
vt 0.897824 0.66246
vt 0.958929 0.661701
vt 0.96242 0.515412
vt 0.993493 0.515412
vt 0.982633 0.641556
vt 0.957875 0.649212
vt 0.993555 0.861025
vt 0.98205 0.861025
vt 0.973027 0.986875
vt 0.986476 0.986875
vt 0.588178 0.861025
vt 0.596659 0.986486
vt 0.506446 0.514223
vt 0.583427 0.514888
vt 0.583575 0.736496
vt 0.506482 0.743425
vt 0.606007 0.515412
vt 0.834548 0.515412
vt 0.839361 0.641556
vt 0.611535 0.649212
vt 0.893238 0.515412
vt 0.897685 0.641556
vt 0.983103 0.755829
vt 0.973646 0.83633
vt 0.596004 0.837996
vt 0.609885 0.76499
vt 0.839131 0.749894
vt 0.897824 0.66246
vt 0.958929 0.661701
vn 0 1 -0
vn -0 1 0
vn 0 1 -0
vn 0 1 -0
vn 0 0 1
vn 0 -0 1
vn 0 0 1
vn 0 0 1
vn 0.987353 0.158537 -0
vn 0.987353 0.158537 0
vn 0.987353 0.158537 -0
vn 0.987353 0.158537 -0
vn 0 0.496455 -0.868062
vn 0 0.496455 -0.868062
vn 0 0.496455 -0.868062
vn 0 0.496455 -0.868062
vn -0.987353 0.158537 0
vn -0.987353 0.158537 0
vn -0.987353 0.158537 0
vn -0.987353 0.158537 0
vn -0.694377 0.669396 -0.2641
vn -0.791336 0.507092 0.341535
vn -0.791336 0.507092 0.341535
vn -0.694377 0.669396 -0.2641
vn -0.315954 0.70187 0.638398
vn -0.315954 0.70187 0.638398
vn -0.295726 0.652591 0.697618
vn -0.315954 0.70187 0.638398
vn 0.365658 0.633905 0.681512
vn 0.702381 0.620596 0.3486
vn 0.702381 0.620596 0.3486
vn 0.365658 0.633905 0.681512
vn 0.553604 0.821587 -0.136082
vn 0.553604 0.821587 -0.136082
vn 0.508177 0.767439 -0.390889
vn 0.553604 0.821587 -0.136082
vn -0.001253 0.930085 0.367343
vn -0.001253 0.930085 0.367343
vn -0.001253 0.930085 0.367343
vn -0.001253 0.930085 0.367343
vn -0.001253 0.930085 0.367343
vn -0.001253 0.930085 0.367343
vn -0.925472 0.183562 0.331372
vn -0.598949 0.185957 0.778897
vn -0.598949 0.185957 0.778897
vn -0.925472 0.183562 0.331372
vn 0.606431 0.100529 0.788756
vn 0.606431 0.100529 0.788756
vn 0.925026 0.184088 0.332322
vn 0.925026 0.184088 0.332322
vn 0.925027 0.184088 0.332322
vn 0.925026 0.184088 0.332322
vn -0.002447 0.38032 -0.924852
vn -0.002447 0.380321 -0.924852
vn -0.002447 0.38032 -0.924852
vn -0.002447 0.38032 -0.924852
vn -0.001464 0.949376 0.314138
vn -0.001464 0.949376 0.314138
vn -0.001464 0.949376 0.314138
vn -0.001464 0.949376 0.314138
vn -0.001464 0.949376 0.314138
vn -0.86053 -0.374836 0.344943
vn -0.737918 0.593187 0.32188
vn -0.002559 0.117072 -0.99312
vn -0.737918 0.593187 0.32188
vn -0.86053 -0.374836 0.344943
vn -0.737918 0.593187 0.32188
vn -0.737918 0.593187 0.32188
vn -0.001221 0.055897 0.998436
vn 0.351316 0.881374 0.315844
vn 0.351316 0.881374 0.315844
vn 0.351316 0.881374 0.315844
vn 0.351316 0.881374 0.315844
vn 0.859693 -0.375876 0.345899
vn -0.002557 0.117072 -0.99312
vn 0.736547 0.594502 0.322593
vn 0.736547 0.594502 0.322593
vn 0.859693 -0.375876 0.345899
vn 0.736547 0.594502 0.322593
vn 0.736547 0.594502 0.322593
vn -0.001222 0.055897 0.998436
vn -0.353893 0.88046 0.315517
vn -0.353893 0.88046 0.315517
vn -0.353893 0.88046 0.315517
vn -0.353893 0.88046 0.315517
vn -0.826427 0.306053 -0.472599
vn -0.968223 0.172874 0.180719
vn -0.81523 0.261835 -0.516568
vn -0.968223 0.172875 0.180719
vn 0.940102 0.234257 0.247652
vn 0.15103 0.441187 -0.884615
vn 0.940102 0.234257 0.247652
vn 0.15103 0.441187 -0.884615
vn 0.940102 0.234257 0.247652
vn 0.940102 0.234257 0.247652
vn -0.485998 0.179364 0.855356
vn -0.492467 0.172106 0.853144
vn -0.492467 0.172106 0.853144
vn -0.492467 0.172106 0.853144
vn -0.817278 0.180529 0.547234
vn -0.968634 0.14994 0.198159
vn -0.817278 0.180529 0.547234
vn -0.968634 0.14994 0.198159
vn -0.968223 0.172875 0.180719
vn -0.968223 0.172875 0.180719
vn -0.152055 0.96903 0.19458
vn -0.152055 0.96903 0.19458
vn -0.152055 0.96903 0.19458
vn -0.152055 0.96903 0.19458
vn -0.152055 0.96903 0.19458
vn -0.152055 0.96903 0.19458
vn -0.152055 0.96903 0.19458
vn 0.967895 0.17375 0.181635
vn 0.824475 0.307604 -0.474995
vn 0.813133 0.263165 -0.519191
vn 0.967895 0.17375 0.181635
vn -0.15871 0.44065 -0.883538
vn -0.940923 0.232695 0.246001
vn -0.940923 0.232695 0.246001
vn -0.15871 0.44065 -0.883538
vn -0.940923 0.232696 0.246001
vn -0.940923 0.232695 0.246001
vn 0.488762 0.172519 0.85519
vn 0.482261 0.179789 0.85738
vn 0.488762 0.172519 0.85519
vn 0.488762 0.172519 0.85519
vn 0.96831 0.150698 0.199162
vn 0.815632 0.181258 0.549445
vn 0.815632 0.181258 0.549445
vn 0.96831 0.150698 0.199162
vn 0.967895 0.17375 0.181635
vn 0.967895 0.17375 0.181635
vn 0.146572 0.969841 0.194743
vn 0.146572 0.969841 0.194743
vn 0.146572 0.969841 0.194743
vn 0.146572 0.969841 0.194743
vn 0.146572 0.969841 0.194743
vn 0.146572 0.969841 0.194743
vn 0.146572 0.969841 0.194743
usemtl datan_common_arm25_skoob_229cc6db
f 1/1/1 2/2/2 3/3/3
f 3/3/3 4/4/4 1/1/1
f 5/5/5 6/6/6 7/7/7
f 7/7/7 8/8/8 5/5/5
f 9/9/9 10/10/10 11/11/11
f 11/11/11 12/12/12 9/9/9
f 13/13/13 14/14/14 15/15/15
f 15/15/15 16/16/16 13/13/13
f 17/17/17 18/18/18 19/19/19
f 19/19/19 20/20/20 17/17/17
f 21/21/21 22/22/22 23/23/23
f 21/21/21 23/23/23 24/24/24
f 22/22/22 25/25/25 26/26/26
f 22/22/22 26/26/26 23/23/23
f 25/25/25 27/27/27 28/28/28
f 25/25/25 28/28/28 26/26/26
f 29/29/29 30/30/30 31/31/31
f 29/29/29 31/31/31 32/32/32
f 30/30/30 33/33/33 34/34/34
f 30/30/30 34/34/34 31/31/31
f 33/33/33 35/35/35 36/36/36
f 33/33/33 36/36/36 34/34/34
f 37/37/37 38/38/38 39/39/39
f 40/40/40 37/37/37 39/39/39
f 40/40/40 39/39/39 41/41/41
f 42/42/42 40/40/40 41/41/41
f 43/43/43 44/44/44 45/45/45
f 43/43/43 45/45/45 46/46/46
f 44/44/44 47/47/47 48/48/48
f 44/44/44 48/48/48 45/45/45
f 47/47/47 49/49/49 50/50/50
f 47/47/47 50/50/50 48/48/48
f 49/49/49 51/51/51 52/52/52
f 49/49/49 52/52/52 50/50/50
f 53/53/53 54/54/54 55/55/55
f 53/53/53 55/55/55 56/56/56
f 57/57/57 58/58/58 59/59/59
f 57/57/57 59/59/59 60/60/60
f 57/57/57 60/60/60 61/61/61
f 62/62/62 63/63/63 64/64/64
f 63/63/63 62/62/62 65/65/65
f 66/66/66 67/67/67 68/68/68
f 67/67/67 66/66/66 69/69/69
f 62/62/62 68/68/68 65/65/65
f 68/68/68 62/62/62 66/66/66
f 65/65/65 67/67/67 63/63/63
f 67/67/67 65/65/65 68/68/68
f 70/70/70 71/71/71 72/72/72
f 71/71/71 70/70/70 73/73/73
f 74/74/74 75/75/75 76/76/76
f 76/76/76 77/77/77 74/74/74
f 78/78/78 79/79/79 80/80/80
f 80/80/80 81/81/81 78/78/78
f 74/74/74 77/77/77 79/79/79
f 79/79/79 78/78/78 74/74/74
f 77/77/77 76/76/76 80/80/80
f 80/80/80 79/79/79 77/77/77
f 82/82/82 83/83/83 84/84/84
f 84/84/84 85/85/85 82/82/82
f 86/86/86 87/87/87 88/88/88
f 88/88/88 87/87/87 89/89/89
f 90/90/90 91/91/91 92/92/92
f 92/92/92 91/91/91 93/93/93
f 94/94/94 90/90/90 95/95/95
f 95/95/95 90/90/90 92/92/92
f 96/96/96 97/97/97 98/98/98
f 98/98/98 97/97/97 99/99/99
f 100/100/100 101/101/101 102/102/102
f 102/102/102 101/101/101 103/103/103
f 104/104/104 100/100/100 105/105/105
f 105/105/105 100/100/100 102/102/102
f 87/87/87 104/104/104 89/89/89
f 89/89/89 104/104/104 105/105/105
f 106/106/106 107/107/107 108/108/108
f 109/109/109 108/108/108 110/110/110
f 108/108/108 107/107/107 110/110/110
f 110/110/110 107/107/107 111/111/111
f 107/107/107 112/112/112 111/111/111
f 113/113/113 114/114/114 115/115/115
f 113/113/113 115/115/115 116/116/116
f 117/117/117 118/118/118 119/119/119
f 117/117/117 119/119/119 120/120/120
f 118/118/118 121/121/121 122/122/122
f 118/118/118 122/122/122 119/119/119
f 123/123/123 124/124/124 125/125/125
f 123/123/123 125/125/125 126/126/126
f 127/127/127 128/128/128 129/129/129
f 127/127/127 129/129/129 130/130/130
f 128/128/128 131/131/131 132/132/132
f 128/128/128 132/132/132 129/129/129
f 131/131/131 113/113/113 116/116/116
f 131/131/131 116/116/116 132/132/132
f 133/133/133 134/134/134 135/135/135
f 135/135/135 136/136/136 137/137/137
f 133/133/133 135/135/135 137/137/137
f 133/133/133 137/137/137 138/138/138
f 139/139/139 133/133/133 138/138/138
