# Generated from Nova1492 GX by tools/nova1492/GxObjConverter
mtllib datan_common_g_arm57_prs_44d72b9d.mtl
o datan_common_g_arm57_prs_44d72b9d
v -0.0479 0.190046 0.447145
v 0.04209 0.190046 0.447145
v 0.074936 0.378417 0.126923
v -0.080747 0.378417 0.126923
v -0.071101 0.000069 0.447145
v 0.06529 0.000069 0.447145
v 0.064762 0.108449 0.473895
v -0.070572 0.108449 0.473895
v 0.04209 0.190046 0.447145
v -0.0479 0.190046 0.447145
v 0.06529 0.000069 0.447145
v 0.118729 -0 0.126455
v 0.145896 0.243679 0.126455
v 0.064762 0.108449 0.473895
v 0.074936 0.378417 0.126923
v 0.04209 0.190046 0.447145
v -0.12454 -0 0.126455
v -0.071101 0.000069 0.447145
v -0.070572 0.108449 0.473895
v -0.151707 0.243679 0.126455
v -0.0479 0.190046 0.447145
v -0.080747 0.378417 0.126923
v 0.041576 0.432738 -0.063475
v -0.047386 0.432738 -0.063475
v 0.041576 0.432738 -0.063475
v 0.145896 0.243679 0.126455
v -0.151707 0.243679 0.126455
v -0.047386 0.432738 -0.063475
v 0.041576 0.432738 -0.063475
v -0.047386 0.432738 -0.063475
v -0.151707 0.243679 0.126455
v 0.145896 0.243679 0.126455
v 0.074537 0.250358 -0.159386
v -0.080348 0.250358 -0.159386
v 0.087847 0.000024 -0.2302
v 0.087847 0.122958 -0.2302
v 0.074537 0.250358 -0.159386
v 0.087602 0.000024 -0.331024
v -0.093413 0.000024 -0.331024
v -0.093413 0.106853 -0.331024
v 0.087602 0.106853 -0.331024
v 0.087847 0.122958 -0.2302
v -0.093658 0.122958 -0.2302
v -0.093658 0.000024 -0.2302
v -0.093658 0.122958 -0.2302
v -0.080348 0.250358 -0.159386
v 0.087602 0.000024 -0.331024
v 0.087602 0.106853 -0.331024
v -0.093413 0.106853 -0.331024
v -0.093413 0.000024 -0.331024
v -0.093658 0.122958 -0.2302
v 0.087847 0.122958 -0.2302
v -0.193747 0.100218 0.076271
v -0.193747 0.137748 0.125956
v -0.130267 0.180114 0.125956
v -0.127179 0.11331 0.037517
v -0.193747 0.100218 0.175641
v -0.103815 0.11331 0.214395
v -0.193747 0.039492 0.156663
v -0.105489 0.005217 0.180614
v -0.193747 0.039492 0.095249
v -0.11937 0.005217 0.071298
v 0.127191 0.11331 0.037517
v 0.130278 0.180114 0.125956
v 0.193759 0.137748 0.125956
v 0.193759 0.100218 0.076271
v 0.103827 0.11331 0.214395
v 0.193759 0.100218 0.175641
v 0.105501 0.005217 0.180614
v 0.193759 0.039492 0.156663
v 0.119382 0.005217 0.071298
v 0.193759 0.039492 0.095249
v 0.067578 0.194499 -0.656248
v 0.006648 0.234743 -0.656248
v 0.006648 0.262289 -0.408564
v 0.101535 0.211612 -0.408564
v -0.054283 0.194499 -0.656248
v -0.08824 0.211612 -0.408564
v -0.045696 0.128495 -0.656248
v -0.073108 0.128495 -0.408564
v -0.054283 0.06249 -0.656248
v -0.08824 0.045378 -0.408564
v 0.006648 0.022246 -0.656248
v 0.006648 -0.0053 -0.408564
v 0.067578 0.06249 -0.656248
v 0.101535 0.045378 -0.408564
v 0.058991 0.128495 -0.656248
v 0.086403 0.128495 -0.408564
v 0.067578 0.194499 -0.656248
v -0.054283 0.194499 -0.656248
v 0.006648 0.234743 -0.656248
v 0.058991 0.128495 -0.656248
v -0.045696 0.128495 -0.656248
v 0.067578 0.06249 -0.656248
v -0.054283 0.06249 -0.656248
v 0.006648 0.022246 -0.656248
v 0.101535 0.211612 -0.408564
v 0.006648 0.262289 -0.408564
v -0.08824 0.211612 -0.408564
v 0.086403 0.128495 -0.408564
v -0.073108 0.128495 -0.408564
v 0.101535 0.045378 -0.408564
v -0.08824 0.045378 -0.408564
v 0.006648 -0.0053 -0.408564
v 0.058135 0.178638 -0.414668
v 0.000006 0.20921 -0.414668
v 0.000006 0.20921 -0.170346
v 0.058135 0.178638 -0.170346
v -0.058123 0.178637 -0.414668
v -0.058123 0.178638 -0.170346
v -0.03592 0.128495 -0.414668
v -0.03592 0.128495 -0.170346
v -0.058123 0.078352 -0.414668
v -0.058123 0.078352 -0.170346
v 0.000006 0.047779 -0.414668
v 0.000006 0.047779 -0.170346
v 0.058135 0.078352 -0.414668
v 0.058135 0.078352 -0.170346
v 0.035932 0.128495 -0.414668
v 0.035932 0.128495 -0.170346
vt 0.513451 0.953798
vt 0.513451 0.870313
vt 0.60603 0.837046
vt 0.609858 0.987065
vt 0.710032 0.219361
vt 0.743041 0.219593
vt 0.743048 0.339731
vt 0.706198 0.339498
vt 0.743117 0.400476
vt 0.706128 0.400244
vt 0.51357 0.426371
vt 0.606136 0.4263
vt 0.606136 0.668732
vt 0.50582 0.537601
vt 0.609824 0.771721
vt 0.51357 0.621345
vt 0.606072 0.013292
vt 0.513506 0.013362
vt 0.50582 0.116889
vt 0.6099 0.255616
vt 0.513506 0.200597
vt 0.609759 0.35856
vt 0.685094 0.870833
vt 0.685094 0.953277
vt 0.685309 0.82747
vt 0.704716 0.962036
vt 0.739428 0.962113
vt 0.732718 0.913755
vt 0.708566 0.913872
vt 0.685244 0.414286
vt 0.738495 0.94348
vt 0.705515 0.94348
vt 0.705472 0.799918
vt 0.738619 0.799918
vt 0.713341 0.426325
vt 0.713341 0.544836
vt 0.692055 0.675587
vt 0.745973 0.012191
vt 0.745973 0.012191
vt 0.745973 0.268261
vt 0.744059 0.268261
vt 0.70548 0.725005
vt 0.738596 0.725005
vt 0.713276 0.013316
vt 0.713276 0.139429
vt 0.691991 0.262467
vt 0.743647 0.426325
vt 0.743647 0.528308
vt 0.743582 0.115252
vt 0.743582 0.013316
vt 0.713753 0.308018
vt 0.713753 0.308018
vt 0.621156 0.116101
vt 0.61005 0.154603
vt 0.61005 0.190408
vt 0.636633 0.129532
vt 0.595115 0.116101
vt 0.583467 0.129532
vt 0.60082 0.053805
vt 0.59362 0.018644
vt 0.61928 0.046149
vt 0.626479 0.018644
vt 0.632869 0.54259
vt 0.610114 0.603496
vt 0.610114 0.567672
vt 0.625049 0.529154
vt 0.583531 0.54259
vt 0.59518 0.529154
vt 0.593685 0.431655
vt 0.600884 0.466831
vt 0.626544 0.431655
vt 0.619344 0.459175
vt 0.869121 0.186583
vt 0.869121 0.21414
vt 0.755879 0.238242
vt 0.755879 0.1939
vt 0.869121 0.178926
vt 0.755879 0.1939
vt 0.869121 0.121172
vt 0.755879 0.121172
vt 0.869121 0.063417
vt 0.755879 0.048444
vt 0.869121 0.028204
vt 0.755879 0.011758
vt 0.869121 0.063417
vt 0.755879 0.048444
vt 0.869121 0.121172
vt 0.755879 0.121172
vt 0.847933 0.095753
vt 0.792077 0.095754
vt 0.815458 0.08818
vt 0.85176 0.049834
vt 0.792097 0.049847
vt 0.851761 0.019477
vt 0.792071 0.019477
vt 0.813371 0.019473
vt 0.847935 0.095788
vt 0.815728 0.088236
vt 0.791984 0.09579
vt 0.851762 0.049831
vt 0.792022 0.04985
vt 0.851763 0.019476
vt 0.791977 0.019476
vt 0.8131 0.019384
vt 0.994121 0.201556
vt 0.994121 0.238242
vt 0.880879 0.238242
vt 0.880879 0.1939
vt 0.994121 0.1939
vt 0.880879 0.1939
vt 0.994121 0.121172
vt 0.880879 0.121172
vt 0.994121 0.048444
vt 0.880879 0.048444
vt 0.994121 0.011758
vt 0.880879 0.011758
vt 0.994121 0.048444
vt 0.880879 0.048444
vt 0.994121 0.121172
vt 0.880879 0.121172
vn 0 0.861928 0.507031
vn -0 0.861928 0.507031
vn -0 0.961629 0.274353
vn 0 0.961629 0.274353
vn 0 -0.23963 0.970864
vn 0 -0.23963 0.970864
vn 0 0.311521 0.95024
vn 0 0.311521 0.950239
vn 0 0.311521 0.950239
vn 0 0.311521 0.950239
vn 0.976621 -0.047011 0.209763
vn 0.986259 -0.109954 -0.123304
vn 0.946089 0.227178 -0.230879
vn 0.891742 0.344121 0.2939
vn 0.884551 0.465922 -0.022059
vn 0.891742 0.344121 0.2939
vn -0.990183 -0.110391 -0.085745
vn -0.985767 -0.035738 0.164273
vn -0.870912 0.353801 0.341081
vn -0.94609 0.227178 -0.230879
vn -0.831829 0.436891 0.342326
vn -0.884551 0.465922 -0.022059
vn 0 0.961629 0.274353
vn 0 0.961629 0.274353
vn 0.884551 0.465922 -0.022059
vn 0 -0.70873 -0.70548
vn -0 -0.70873 -0.70548
vn 0 -0.70873 -0.70548
vn 0 -0.70873 -0.70548
vn -0.884551 0.465922 -0.022059
vn 0 0.999727 0.023359
vn -0 0.999727 0.023359
vn 0 0.485836 -0.87405
vn 0 0.485836 -0.87405
vn 0.999997 0 -0.00243
vn 0.999997 -0 -0.00243
vn 0.946089 0.227178 -0.230879
vn 0 -0.000001 -1
vn -0 -0.000001 -1
vn 0 0.987483 -0.157729
vn 0 0.987483 -0.157729
vn 0 0.485836 -0.87405
vn 0 0.485836 -0.87405
vn -0.999997 -0 -0.00243
vn -0.999997 0 -0.00243
vn -0.94609 0.227178 -0.230879
vn 0.999997 -0 -0.00243
vn 0.999997 -0 -0.00243
vn -0.999997 -0 -0.00243
vn -0.999997 -0 -0.00243
vn 0 0.987483 -0.157729
vn 0 0.987483 -0.157729
vn -1 0 0
vn -1 0 0
vn -0.434669 0.651304 0.621985
vn -0.414449 -0.298612 -0.859688
vn -1 0 0
vn -0.346466 -0.274923 0.896872
vn -1 0 0
vn -0.372735 -0.92673 0.047329
vn -1 0 0
vn -0.414449 -0.298612 -0.859688
vn 0.436133 -0.296984 -0.849464
vn 0.470036 0.704297 0.532007
vn 1 0 -0
vn 1 0 0
vn 0.345264 -0.279948 0.89578
vn 1 0 0
vn 0.362005 -0.932176 -0
vn 1 0 0
vn 0.406429 -0.272543 -0.872087
vn 1 0 0
vn 0.833409 0.000431 -0.552657
vn -0.363001 0.790374 -0.493496
vn -0.363001 0.790374 -0.493496
vn 0.838118 -0.042188 -0.543855
vn -0.829042 -0.042132 -0.557597
vn -0.829042 -0.042132 -0.557597
vn -0.807854 0.254943 -0.531391
vn -0.807854 0.254943 -0.531391
vn -0.420758 -0.681858 -0.598359
vn -0.420758 -0.681858 -0.598359
vn 0.437268 -0.689128 -0.57784
vn 0.437268 -0.689128 -0.57784
vn 0.806542 0.251254 -0.535128
vn 0.806542 0.251254 -0.535128
vn 0.838118 -0.042188 -0.543855
vn 0.838118 -0.042188 -0.543855
vn 0.004327 0.083649 -0.996486
vn 0.004327 0.083649 -0.996486
vn 0.004327 0.083648 -0.996486
vn 0.004327 0.083649 -0.996486
vn 0.004327 0.083649 -0.996486
vn 0.004327 0.083649 -0.996486
vn 0.004327 0.083649 -0.996486
vn 0.004327 0.083649 -0.996486
vn 0.013662 0.264068 0.964407
vn 0.013662 0.26407 0.964407
vn 0.013662 0.264068 0.964407
vn 0.013662 0.264069 0.964407
vn 0.013662 0.264069 0.964407
vn 0.013662 0.264068 0.964407
vn 0.013662 0.264068 0.964407
vn 0.013662 0.264068 0.964407
vn 0.915276 -0.276662 -0.292795
vn -0.403697 0.879019 -0.253682
vn -0.403697 0.879019 -0.253682
vn 0.915276 -0.276662 -0.292795
vn -0.915274 -0.276665 -0.292798
vn -0.915274 -0.276665 -0.292798
vn -0.832577 0.485671 -0.266344
vn -0.832577 0.485671 -0.266344
vn -0.497729 -0.808975 -0.312771
vn -0.497729 -0.808975 -0.312771
vn 0.497739 -0.808969 -0.312769
vn 0.497739 -0.808969 -0.312769
vn 0.832581 0.485667 -0.266341
vn 0.832581 0.485667 -0.266341
vn 0.915276 -0.276662 -0.292795
vn 0.915276 -0.276662 -0.292795
usemtl datan_common_g_arm57_prs_44d72b9d
f 1/1/1 2/2/2 3/3/3
f 3/3/3 4/4/4 1/1/1
f 5/5/5 6/6/6 7/7/7
f 7/7/7 8/8/8 5/5/5
f 8/8/8 7/7/7 9/9/9
f 9/9/9 10/10/10 8/8/8
f 11/11/11 12/12/12 13/13/13
f 13/13/13 14/14/14 11/11/11
f 14/14/14 13/13/13 15/15/15
f 15/15/15 16/16/16 14/14/14
f 17/17/17 18/18/18 19/19/19
f 19/19/19 20/20/20 17/17/17
f 20/20/20 19/19/19 21/21/21
f 21/21/21 22/22/22 20/20/20
f 4/4/4 3/3/3 23/23/23
f 23/23/23 24/24/24 4/4/4
f 15/15/15 13/13/13 25/25/25
f 26/26/26 27/27/27 28/28/28
f 28/28/28 29/29/29 26/26/26
f 20/20/20 22/22/22 30/30/30
f 31/31/31 32/32/32 33/33/33
f 33/33/33 34/34/34 31/31/31
f 12/12/12 35/35/35 36/36/36
f 36/36/36 13/13/13 12/12/12
f 13/13/13 36/36/36 37/37/37
f 38/38/38 39/39/39 40/40/40
f 40/40/40 41/41/41 38/38/38
f 42/42/42 43/43/43 34/34/34
f 34/34/34 33/33/33 42/42/42
f 44/44/44 17/17/17 20/20/20
f 20/20/20 45/45/45 44/44/44
f 20/20/20 46/46/46 45/45/45
f 36/36/36 35/35/35 47/47/47
f 47/47/47 48/48/48 36/36/36
f 44/44/44 45/45/45 49/49/49
f 49/49/49 50/50/50 44/44/44
f 51/51/51 52/52/52 41/41/41
f 41/41/41 40/40/40 51/51/51
f 53/53/53 54/54/54 55/55/55
f 53/53/53 55/55/55 56/56/56
f 54/54/54 57/57/57 58/58/58
f 54/54/54 58/58/58 55/55/55
f 57/57/57 59/59/59 60/60/60
f 57/57/57 60/60/60 58/58/58
f 59/59/59 61/61/61 62/62/62
f 59/59/59 62/62/62 60/60/60
f 61/61/61 53/53/53 56/56/56
f 61/61/61 56/56/56 62/62/62
f 63/63/63 64/64/64 65/65/65
f 63/63/63 65/65/65 66/66/66
f 64/64/64 67/67/67 68/68/68
f 64/64/64 68/68/68 65/65/65
f 67/67/67 69/69/69 70/70/70
f 67/67/67 70/70/70 68/68/68
f 69/69/69 71/71/71 72/72/72
f 69/69/69 72/72/72 70/70/70
f 71/71/71 63/63/63 66/66/66
f 71/71/71 66/66/66 72/72/72
f 54/54/54 59/59/59 57/57/57
f 53/53/53 59/59/59 54/54/54
f 53/53/53 61/61/61 59/59/59
f 65/65/65 68/68/68 70/70/70
f 66/66/66 65/65/65 70/70/70
f 66/66/66 70/70/70 72/72/72
f 73/73/73 74/74/74 75/75/75
f 73/73/73 75/75/75 76/76/76
f 74/74/74 77/77/77 78/78/78
f 74/74/74 78/78/78 75/75/75
f 77/77/77 79/79/79 80/80/80
f 77/77/77 80/80/80 78/78/78
f 79/79/79 81/81/81 82/82/82
f 79/79/79 82/82/82 80/80/80
f 81/81/81 83/83/83 84/84/84
f 81/81/81 84/84/84 82/82/82
f 83/83/83 85/85/85 86/86/86
f 83/83/83 86/86/86 84/84/84
f 85/85/85 87/87/87 88/88/88
f 85/85/85 88/88/88 86/86/86
f 87/87/87 73/73/73 76/76/76
f 87/87/87 76/76/76 88/88/88
f 89/89/89 90/90/90 91/91/91
f 92/92/92 90/90/90 89/89/89
f 92/92/92 93/93/93 90/90/90
f 94/94/94 93/93/93 92/92/92
f 94/94/94 95/95/95 93/93/93
f 96/96/96 95/95/95 94/94/94
f 97/97/97 98/98/98 99/99/99
f 100/100/100 97/97/97 99/99/99
f 100/100/100 99/99/99 101/101/101
f 102/102/102 100/100/100 101/101/101
f 102/102/102 101/101/101 103/103/103
f 104/104/104 102/102/102 103/103/103
f 105/105/105 106/106/106 107/107/107
f 105/105/105 107/107/107 108/108/108
f 106/106/106 109/109/109 110/110/110
f 106/106/106 110/110/110 107/107/107
f 109/109/109 111/111/111 112/112/112
f 109/109/109 112/112/112 110/110/110
f 111/111/111 113/113/113 114/114/114
f 111/111/111 114/114/114 112/112/112
f 113/113/113 115/115/115 116/116/116
f 113/113/113 116/116/116 114/114/114
f 115/115/115 117/117/117 118/118/118
f 115/115/115 118/118/118 116/116/116
f 117/117/117 119/119/119 120/120/120
