# Generated from Nova1492 GX by tools/nova1492/GxObjConverter
mtllib datan_common_arm80_opkrs_4f585881.mtl
o datan_common_arm80_opkrs_4f585881_mesh00
v -0 0.235768 0.482668
v 0.184763 0.235768 0.353308
v 0.184763 0.235768 -0.127912
v -0.184763 0.235768 0.353308
v -0.184763 0.235768 -0.127912
v -0 0 0.553362
v -0 0.235768 0.482668
v -0.184763 0.235768 0.353308
v -0.232993 0 0.390234
v 0.184763 0.235768 -0.127912
v 0.184763 0.235768 0.353308
v 0.232993 0 0.390234
v 0.232993 0 -0.074277
v -0.184763 0.235768 -0.127912
v -0.232993 0 -0.074277
v -0.184763 0.235768 0.353308
v -0.232993 0 0.390234
v 0.232993 0 0.390234
v 0.184763 0.235768 0.353308
v 0.00059 0.377364 0.302496
v 0.108206 0.377364 0.22715
v 0.108206 0.377364 0.00592
v -0.107025 0.377364 0.22715
v -0.107025 0.377364 0.00592
v 0.00059 0.230483 0.374895
v 0.00059 0.377364 0.302496
v -0.107025 0.377364 0.22715
v -0.135117 0.230483 0.248658
v 0.108206 0.377364 0.00592
v 0.108206 0.377364 0.22715
v 0.136297 0.230483 0.248658
v 0.136297 0.230483 -0.038076
v -0.107025 0.377364 0.00592
v -0.135117 0.230483 -0.038076
v -0.107025 0.377364 0.22715
v -0.135117 0.230483 0.248658
v 0.136297 0.230483 0.248658
v 0.108206 0.377364 0.22715
v -0.109903 0.175844 -0.032922
v 0.127486 0.175844 -0.032922
v 0.115732 0.145354 -0.638089
v -0.098148 0.145354 -0.638089
v 0.167411 0 -0.032922
v 0.151703 0.000403 -0.638089
v 0.115732 0.145354 -0.638089
v 0.127486 0.175844 -0.032922
v 0.151703 0.000403 -0.638089
v -0.134119 0.000403 -0.638089
v -0.098148 0.145354 -0.638089
v 0.115732 0.145354 -0.638089
v -0.134119 0.000403 -0.638089
v -0.149827 0 -0.032922
v -0.109903 0.175844 -0.032922
v -0.098148 0.145354 -0.638089
vt 0.559985 0.386505
vt 0.442889 0.550042
vt 0.016586 0.550042
vt 0.445234 0.224917
vt 0.016586 0.224917
vt 0.730599 0.017633
vt 0.695598 0.223449
vt 0.496143 0.223449
vt 0.478591 0.017633
vt 0.016585 0.224613
vt 0.445449 0.224613
vt 0.477598 0.016965
vt 0.065858 0.016965
vt 0.016585 0.224613
vt 0.065858 0.016965
vt 0.445449 0.224613
vt 0.477598 0.016965
vt 0.478591 0.017633
vt 0.496143 0.223449
vt 0.377207 0.883529
vt 0.30103 0.99043
vt 0.076743 0.99043
vt 0.300847 0.775128
vt 0.076743 0.775128
vt 0.511602 0.580982
vt 0.465073 0.77408
vt 0.33205 0.77408
vt 0.323414 0.580982
vt 0.076787 0.775152
vt 0.300896 0.775152
vt 0.323339 0.581119
vt 0.0323 0.581119
vt 0.076787 0.775152
vt 0.0323 0.581119
vt 0.300896 0.775152
vt 0.323339 0.581119
vt 0.323414 0.580982
vt 0.33205 0.77408
vt 0.947304 0.267252
vt 0.736301 0.266897
vt 0.736359 0.797591
vt 0.947465 0.797555
vt 0.580401 0.266689
vt 0.580401 0.797629
vt 0.736347 0.797593
vt 0.736286 0.266867
vt 0.700522 0.952201
vt 0.983113 0.952201
vt 0.947388 0.797555
vt 0.736359 0.797591
vt 0.580401 0.797629
vt 0.580401 0.266689
vt 0.736286 0.266867
vt 0.736347 0.797593
vn 0 0.705277 0.708932
vn 0.631336 0.707589 0.317384
vn 0.506821 0.554843 -0.659759
vn -0.631336 0.70759 0.317384
vn -0.506821 0.554843 -0.659759
vn 0 0.287212 0.957867
vn 0 0.705277 0.708932
vn -0.631336 0.70759 0.317384
vn -0.854467 0.246423 0.457342
vn 0.506821 0.554843 -0.659759
vn 0.631336 0.707589 0.317384
vn 0.854467 0.246423 0.457342
vn 0.794433 0.024459 -0.606859
vn -0.506821 0.554843 -0.659759
vn -0.794433 0.024459 -0.606859
vn -0.631336 0.70759 0.317384
vn -0.854467 0.246423 0.457342
vn 0.854467 0.246423 0.457342
vn 0.631336 0.707589 0.317384
vn 0.033337 0.752052 0.658261
vn 0.63596 0.702031 0.32048
vn 0.526265 0.698949 -0.484268
vn -0.638936 0.71297 0.288851
vn -0.526265 0.698949 -0.484268
vn 0.021381 0.407507 0.912952
vn 0.033337 0.752052 0.658261
vn -0.638936 0.71297 0.288851
vn -0.887383 0.22836 0.400503
vn 0.526265 0.698949 -0.484268
vn 0.63596 0.702031 0.32048
vn 0.867148 0.264503 0.422011
vn 0.649531 0.32948 -0.685239
vn -0.526265 0.698949 -0.484268
vn -0.649531 0.32948 -0.685239
vn -0.638936 0.71297 0.288851
vn -0.887383 0.22836 0.400503
vn 0.867148 0.264503 0.422011
vn 0.63596 0.702031 0.32048
vn -0.617114 0.785352 -0.04892
vn 0.618208 0.784324 -0.051524
vn 0.493634 0.620494 -0.609354
vn -0.491938 0.62077 -0.610444
vn 0.974075 0.224322 -0.029303
vn 0.733414 0.182004 -0.654965
vn 0.493634 0.620494 -0.609354
vn 0.618208 0.784324 -0.051524
vn 0.733414 0.182004 -0.654965
vn -0.732265 0.178865 -0.657112
vn -0.491938 0.62077 -0.610444
vn 0.493634 0.620494 -0.609354
vn -0.732265 0.178865 -0.657112
vn -0.974872 0.221341 -0.025157
vn -0.617114 0.785352 -0.04892
vn -0.491938 0.62077 -0.610444
usemtl datan_common_arm80_opkrs_4f585881
f 1/1/1 2/2/2 3/3/3
f 4/4/4 1/1/1 3/3/3
f 4/4/4 3/3/3 5/5/5
f 6/6/6 7/7/7 8/8/8
f 8/8/8 9/9/9 6/6/6
f 10/10/10 11/11/11 12/12/12
f 12/12/12 13/13/13 10/10/10
f 14/14/14 10/10/10 13/13/13
f 13/13/13 15/15/15 14/14/14
f 16/16/16 14/14/14 15/15/15
f 15/15/15 17/17/17 16/16/16
f 18/18/18 19/19/19 7/7/7
f 7/7/7 6/6/6 18/18/18
f 20/20/20 21/21/21 22/22/22
f 23/23/23 20/20/20 22/22/22
f 23/23/23 22/22/22 24/24/24
f 25/25/25 26/26/26 27/27/27
f 27/27/27 28/28/28 25/25/25
f 29/29/29 30/30/30 31/31/31
f 31/31/31 32/32/32 29/29/29
f 33/33/33 29/29/29 32/32/32
f 32/32/32 34/34/34 33/33/33
f 35/35/35 33/33/33 34/34/34
f 34/34/34 36/36/36 35/35/35
f 37/37/37 38/38/38 26/26/26
f 26/26/26 25/25/25 37/37/37
f 39/39/39 40/40/40 41/41/41
f 41/41/41 42/42/42 39/39/39
f 43/43/43 44/44/44 45/45/45
f 45/45/45 46/46/46 43/43/43
f 47/47/47 48/48/48 49/49/49
f 49/49/49 50/50/50 47/47/47
f 51/51/51 52/52/52 53/53/53
f 53/53/53 54/54/54 51/51/51
o datan_common_arm80_opkrs_4f585881_mesh01
v -0.072652 0.646251 0.352925
v -0.126487 0.740323 0.378309
v -0.126487 0.845865 0.729206
v -0.072652 0.752008 0.729206
v -0.126487 0.740323 0.378309
v -0.164682 0.740323 0.378309
v -0.164682 0.845865 0.729206
v -0.126487 0.845865 0.729206
v -0.164682 0.845865 0.729206
v -0.173754 0.588267 0.342968
v -0.164875 0.696806 0.729206
v -0.164682 0.740323 0.378309
v -0.077898 0.650805 0.729206
v -0.193887 0.373406 0.163252
v -0.048027 0.519836 0.477876
v -0.048027 0.519836 0.477876
v -0.023487 0.373638 0.359253
v -0.025821 0.443971 0.729206
v 0.023521 0.373639 0.359256
v 0.025618 0.443971 0.729206
v 0.077694 0.650805 0.729206
v 0.047961 0.519836 0.477876
v 0.193885 0.37341 0.163764
v 0.047961 0.519836 0.477876
v 0.165275 0.696806 0.729206
v 0.077694 0.650805 0.729206
v 0.174292 0.58826 0.342972
v 0.164834 0.740323 0.378309
v 0.164834 0.845865 0.729206
v 0.164834 0.740323 0.378309
v 0.131488 0.740323 0.378309
v 0.131488 0.845865 0.729206
v 0.164834 0.845865 0.729206
v 0.131488 0.740323 0.378309
v 0.077958 0.646251 0.352925
v 0.077958 0.752008 0.729206
v 0.131488 0.845865 0.729206
v 0.077958 0.646251 0.352925
v -0.072652 0.646251 0.352925
v -0.072652 0.752008 0.729206
v 0.077958 0.752008 0.729206
v -0.126487 0.740323 0.378309
v -0.173754 0.588267 0.342968
v -0.164682 0.740323 0.378309
v -0.072652 0.646251 0.352925
v 0.174292 0.58826 0.342972
v 0.131488 0.740323 0.378309
v 0.164834 0.740323 0.378309
v 0.077958 0.646251 0.352925
v -0.126487 0.845865 0.729206
v -0.164682 0.845865 0.729206
v -0.164875 0.696806 0.729206
v -0.072652 0.752008 0.729206
v -0.077898 0.650805 0.729206
v 0.165275 0.696806 0.729206
v 0.164834 0.845865 0.729206
v 0.131488 0.845865 0.729206
v 0.077958 0.752008 0.729206
v 0.077694 0.650805 0.729206
v 0.025618 0.443971 0.729206
v -0.025821 0.443971 0.729206
v -0.000102 0.373192 -0.151233
v 0.174292 0.58826 0.342972
v 0.193885 0.37341 0.163764
v -0.193887 0.373406 0.163252
v -0.173754 0.588267 0.342968
v -0.023487 0.373638 0.359253
v -0.077898 0.650805 0.729206
v 0.023521 0.373639 0.359256
vt 0.657488 0.363836
vt 0.690752 0.364018
vt 0.940062 0.364042
vt 0.923527 0.363846
vt 0.234846 0.869388
vt 0.234846 0.869388
vt 0.606348 0.989688
vt 0.606348 0.989688
vt 0.606348 0.989688
vt 0.19774 0.696752
vt 0.606348 0.819231
vt 0.234846 0.869388
vt 0.606348 0.766919
vt 0.006325 0.451018
vt 0.342357 0.62022
vt 0.342357 0.62022
vt 0.217965 0.453382
vt 0.606348 0.532494
vt 0.217968 0.453382
vt 0.606348 0.532494
vt 0.606348 0.766919
vt 0.342357 0.62022
vt 0.006878 0.451023
vt 0.342357 0.62022
vt 0.606348 0.819231
vt 0.606348 0.766919
vt 0.197744 0.696744
vt 0.234846 0.869388
vt 0.606348 0.989688
vt 0.234846 0.869388
vt 0.234846 0.869388
vt 0.606348 0.989688
vt 0.606348 0.989688
vt 0.690752 0.364018
vt 0.657488 0.363836
vt 0.923527 0.363846
vt 0.940062 0.364042
vt 0.573246 0.319635
vt 0.573035 0.140323
vt 0.964811 0.140428
vt 0.965023 0.31929
vt 0.955539 0.365097
vt 0.656186 0.365478
vt 0.955539 0.365097
vt 0.768591 0.365084
vt 0.656174 0.365478
vt 0.955539 0.365097
vt 0.955539 0.365097
vt 0.768591 0.365084
vt 0.679032 0.988507
vt 0.638748 0.988507
vt 0.638544 0.818323
vt 0.735814 0.88213
vt 0.730808 0.767692
vt 0.989926 0.818323
vt 0.989462 0.988733
vt 0.953072 0.988733
vt 0.896614 0.88213
vt 0.897554 0.769804
vt 0.839988 0.532141
vt 0.785734 0.532141
vt 0.031603 0.231129
vt 0.55827 0.430494
vt 0.363623 0.45276
vt 0.363797 0.01204
vt 0.558942 0.032337
vt 0.217965 0.453382
vt 0.606348 0.766919
vt 0.217968 0.453382
vn 0.079337 0.912853 -0.400507
vn 0.838292 0.522116 -0.157042
vn 0.855518 0.497984 -0.141775
vn 0.528264 0.817408 -0.22974
vn -0.010369 0.625876 -0.779854
vn 0 0.67649 -0.736452
vn 0 0.802175 0.597089
vn 0 0.676137 0.736776
vn -0.999791 0.015844 0.012917
vn -0.913737 0.35066 -0.205238
vn -0.9045 -0.357211 0.23298
vn -0.997764 0.064006 -0.019252
vn -0.366323 -0.803656 0.468983
vn -0.958355 0.175407 -0.225363
vn -0.205 -0.847562 0.489503
vn -0.978454 -0.204998 0.024571
vn -0.37689 -0.910393 0.170699
vn -0.509138 -0.57793 0.63779
vn 0.377025 -0.910296 0.170922
vn 0.508958 -0.577922 0.63794
vn 0.364071 -0.804412 0.46944
vn 0.203847 -0.847648 0.489836
vn 0.959059 0.172119 -0.224902
vn 0.978467 -0.204864 0.025147
vn 0.904302 -0.357337 0.233556
vn 0.253058 -0.063715 0.965351
vn 0.915194 0.346652 -0.205555
vn 0.997571 0.066709 -0.020065
vn 0.999763 0.017748 0.012645
vn 0 0.676156 -0.736759
vn 0.010399 0.625913 -0.779824
vn 0 0.676689 0.736269
vn 0 0.801752 0.597657
vn -0.844931 0.514556 -0.146029
vn -0.07575 0.913335 -0.400102
vn -0.526095 0.817387 -0.234739
vn -0.85917 0.490005 -0.147384
vn -0.07575 0.913335 -0.400102
vn 0.079337 0.912853 -0.400507
vn 0.528264 0.817408 -0.22974
vn -0.526095 0.817387 -0.234739
vn -0.010369 0.625876 -0.779854
vn -0.031286 0.235496 -0.971372
vn 0 0.67649 -0.736452
vn -0.041109 0.238305 -0.97032
vn 0.033549 0.23518 -0.971373
vn 0.010399 0.625913 -0.779824
vn 0 0.676156 -0.736759
vn 0.04273 0.237547 -0.970436
vn 0 0.676137 0.736776
vn 0 0.802175 0.597089
vn 0 0 1
vn 0 0 1
vn -0.253238 -0.06376 0.9653
vn 0 0 1
vn 0 0.801752 0.597657
vn 0 0.676689 0.736269
vn 0 0 1
vn 0.253058 -0.063715 0.965351
vn 0.508958 -0.577922 0.63794
vn -0.509138 -0.57793 0.63779
vn -0.000257 0.792244 -0.610205
vn 0.915194 0.346652 -0.205555
vn 0.959059 0.172119 -0.224902
vn -0.958355 0.175407 -0.225363
vn -0.913737 0.35066 -0.205238
vn -0.629729 -0.550451 0.548128
vn -0.253238 -0.06376 0.9653
vn 0.629066 -0.550487 0.548853
usemtl datan_common_arm80_opkrs_4f585881
f 55/55/55 56/56/56 57/57/57
f 55/55/55 57/57/57 58/58/58
f 59/59/59 60/60/60 61/61/61
f 59/59/59 61/61/61 62/62/62
f 63/63/63 64/64/64 65/65/65
f 66/66/66 64/64/64 63/63/63
f 67/67/67 68/68/68 69/69/69
f 64/64/64 68/68/68 65/65/65
f 70/70/70 71/71/71 72/72/72
f 65/65/65 68/68/68 67/67/67
f 71/71/71 73/73/73 74/74/74
f 71/71/71 74/74/74 72/72/72
f 75/75/75 76/76/76 77/77/77
f 73/73/73 78/78/78 74/74/74
f 75/75/75 77/77/77 79/79/79
f 74/74/74 78/78/78 80/80/80
f 81/81/81 82/82/82 83/83/83
f 81/81/81 83/83/83 79/79/79
f 84/84/84 85/85/85 86/86/86
f 84/84/84 86/86/86 87/87/87
f 88/88/88 89/89/89 90/90/90
f 88/88/88 90/90/90 91/91/91
f 92/92/92 93/93/93 94/94/94
f 92/92/92 94/94/94 95/95/95
f 96/96/96 97/97/97 98/98/98
f 96/96/96 99/99/99 97/97/97
f 100/100/100 101/101/101 102/102/102
f 100/100/100 103/103/103 101/101/101
f 104/104/104 105/105/105 106/106/106
f 107/107/107 104/104/104 106/106/106
f 107/107/107 106/106/106 108/108/108
f 109/109/109 110/110/110 111/111/111
f 109/109/109 111/111/111 112/112/112
f 113/113/113 109/109/109 112/112/112
f 113/113/113 112/112/112 107/107/107
f 113/113/113 107/107/107 108/108/108
f 114/114/114 113/113/113 108/108/108
f 114/114/114 108/108/108 115/115/115
f 93/93/93 92/92/92 116/116/116
f 116/116/116 117/117/117 118/118/118
f 116/116/116 119/119/119 120/120/120
f 120/120/120 93/93/93 116/116/116
f 92/92/92 117/117/117 116/116/116
f 69/69/69 68/68/68 121/121/121
f 122/122/122 70/70/70 72/72/72
f 79/79/79 77/77/77 81/81/81
f 77/77/77 76/76/76 123/123/123
o datan_common_arm80_opkrs_4f585881_mesh02
v 0.106784 0.564642 -0.08771
v 0.053392 0.649788 -0.123798
v 0.075448 1.03679 0.660288
v 0.150896 0.91647 0.711283
v 0.053392 0.649788 -0.123798
v -0.053393 0.649788 -0.123798
v -0.075449 1.03679 0.660288
v 0.075448 1.03679 0.660288
v -0.053393 0.649788 -0.123798
v -0.106785 0.564642 -0.08771
v -0.150897 0.91647 0.711283
v -0.075449 1.03679 0.660288
v -0.106785 0.564642 -0.08771
v -0.053393 0.479496 -0.051623
v -0.075449 0.79615 0.762278
v -0.150897 0.91647 0.711283
v -0.053393 0.479496 -0.051623
v 0.053392 0.479496 -0.051623
v 0.075448 0.79615 0.762278
v -0.075449 0.79615 0.762278
v 0.053392 0.479496 -0.051623
v 0.106784 0.564642 -0.08771
v 0.150896 0.91647 0.711283
v 0.075448 0.79615 0.762278
v 0.040662 1.083717 0.925411
v 0.081324 1.018871 0.952894
v -0.040663 1.083717 0.925411
v 0.040662 1.083717 0.925411
v -0.081325 1.018871 0.952894
v -0.040663 1.083717 0.925411
v -0.040663 0.954026 0.980378
v -0.081325 1.018871 0.952894
v 0.040662 0.954026 0.980378
v -0.040663 0.954026 0.980378
v 0.081324 1.018871 0.952894
v 0.040662 0.954026 0.980378
v -0.053393 0.649788 -0.123798
v -0.053393 0.479496 -0.051623
v -0.106785 0.564642 -0.08771
v 0.053392 0.649788 -0.123798
v 0.106784 0.564642 -0.08771
v 0.053392 0.479496 -0.051623
v -0.040663 1.083717 0.925411
v -0.081325 1.018871 0.952894
v -0.040663 0.954026 0.980378
v 0.040662 1.083717 0.925411
v 0.081324 1.018871 0.952894
v 0.040662 0.954026 0.980378
vt 0.159137 0.948595
vt 0.159334 0.646997
vt 0.716769 0.611262
vt 0.716597 0.961879
vt 0.159138 0.557551
vt 0.159138 0.208065
vt 0.715721 0.180801
vt 0.715721 0.58671
vt 0.159334 0.646992
vt 0.159137 0.948593
vt 0.716597 0.961855
vt 0.716769 0.611241
vt 0.159155 0.948579
vt 0.159388 0.646947
vt 0.716678 0.611048
vt 0.716485 0.961632
vt 0.15914 0.557561
vt 0.15914 0.208075
vt 0.715716 0.181222
vt 0.715717 0.58706
vt 0.159388 0.646945
vt 0.159155 0.948578
vt 0.716485 0.961618
vt 0.716678 0.611036
vt 0.884042 0.732549
vt 0.884057 0.961418
vt 0.884263 0.251113
vt 0.884266 0.51452
vt 0.884057 0.961416
vt 0.884042 0.732547
vt 0.884042 0.732524
vt 0.884057 0.961397
vt 0.884252 0.251239
vt 0.884258 0.514619
vt 0.884057 0.961396
vt 0.884042 0.732522
vt 0.156438 0.559029
vt 0.010898 0.556799
vt 0.084105 0.734966
vt 0.156438 0.209417
vt 0.083668 0.033496
vt 0.010898 0.210845
vt 0.884314 0.250655
vt 0.937773 0.120761
vt 0.992208 0.247627
vt 0.884304 0.514341
vt 0.939053 0.645476
vt 0.992208 0.516815
vn 0.7775 -0.248645 -0.577641
vn 0.388449 0.369071 -0.844331
vn 0.496841 0.830881 -0.250572
vn 0.995048 0.040849 0.090612
vn 0.388449 0.369071 -0.844331
vn -0.388449 0.369071 -0.844331
vn -0.496841 0.830881 -0.250572
vn 0.496841 0.830881 -0.250572
vn -0.388449 0.369071 -0.844331
vn -0.7775 -0.248645 -0.577641
vn -0.995048 0.040849 0.090612
vn -0.496841 0.830881 -0.250572
vn -0.7775 -0.248645 -0.577641
vn -0.389027 -0.867292 -0.310585
vn -0.498203 -0.75133 0.432779
vn -0.995048 0.040849 0.090612
vn -0.389027 -0.867292 -0.310585
vn 0.389027 -0.867292 -0.310585
vn 0.498203 -0.75133 0.432779
vn -0.498203 -0.75133 0.432779
vn 0.389027 -0.867292 -0.310585
vn 0.7775 -0.248645 -0.577641
vn 0.995048 0.040849 0.090612
vn 0.498203 -0.75133 0.432779
vn 0.354397 0.84044 0.409956
vn 0.708795 0.27527 0.649489
vn -0.354398 0.84044 0.409956
vn 0.354397 0.84044 0.409956
vn -0.708795 0.27527 0.64949
vn -0.354398 0.84044 0.409956
vn -0.354398 -0.2899 0.889022
vn -0.708795 0.27527 0.64949
vn 0.354398 -0.2899 0.889022
vn -0.354398 -0.2899 0.889022
vn 0.708795 0.27527 0.649489
vn 0.354398 -0.2899 0.889022
vn -0.388449 0.369071 -0.844331
vn -0.389027 -0.867292 -0.310585
vn -0.7775 -0.248645 -0.577641
vn 0.388449 0.369071 -0.844331
vn 0.7775 -0.248645 -0.577641
vn 0.389027 -0.867292 -0.310585
vn -0.354398 0.84044 0.409956
vn -0.708795 0.27527 0.64949
vn -0.354398 -0.2899 0.889022
vn 0.354397 0.84044 0.409956
vn 0.708795 0.27527 0.649489
vn 0.354398 -0.2899 0.889022
usemtl datan_common_arm80_opkrs_4f585881
f 124/124/124 125/125/125 126/126/126
f 124/124/124 126/126/126 127/127/127
f 128/128/128 129/129/129 130/130/130
f 128/128/128 130/130/130 131/131/131
f 132/132/132 133/133/133 134/134/134
f 132/132/132 134/134/134 135/135/135
f 136/136/136 137/137/137 138/138/138
f 136/136/136 138/138/138 139/139/139
f 140/140/140 141/141/141 142/142/142
f 140/140/140 142/142/142 143/143/143
f 144/144/144 145/145/145 146/146/146
f 144/144/144 146/146/146 147/147/147
f 127/127/127 126/126/126 148/148/148
f 127/127/127 148/148/148 149/149/149
f 131/131/131 130/130/130 150/150/150
f 131/131/131 150/150/150 151/151/151
f 135/135/135 134/134/134 152/152/152
f 135/135/135 152/152/152 153/153/153
f 139/139/139 138/138/138 154/154/154
f 139/139/139 154/154/154 155/155/155
f 143/143/143 142/142/142 156/156/156
f 143/143/143 156/156/156 157/157/157
f 147/147/147 146/146/146 158/158/158
f 147/147/147 158/158/158 159/159/159
f 160/160/160 161/161/161 162/162/162
f 163/163/163 161/161/161 160/160/160
f 164/164/164 161/161/161 163/163/163
f 164/164/164 165/165/165 161/161/161
f 166/166/166 167/167/167 168/168/168
f 169/169/169 166/166/166 168/168/168
f 170/170/170 169/169/169 168/168/168
f 170/170/170 168/168/168 171/171/171
o datan_common_arm80_opkrs_4f585881_mesh03
v 0.170362 0.784482 0.675616
v 0.170362 0.676836 0.675616
v 0.170362 0.784482 0.56797
v 0.170362 0.676836 0.56797
vt 0 1
vt 0 0
vt 1 1
vt 1 0
vn 1 -0 0
vn 1 -0 0
vn 1 -0 0
vn 1 -0 0
usemtl datan_common_arm80_opkrs_4f585881
f 172/172/172 173/173/173 174/174/174
f 175/175/175 174/174/174 173/173/173
o datan_common_arm80_opkrs_4f585881_mesh04
v -0.170325 0.784482 0.56797
v -0.170325 0.676836 0.56797
v -0.170325 0.784482 0.675616
v -0.170325 0.676836 0.675616
vt 0 1
vt 0 0
vt 1 1
vt 1 0
vn -1 -0 -0
vn -1 -0 -0
vn -1 -0 -0
vn -1 -0 -0
usemtl datan_common_arm80_opkrs_4f585881
f 176/176/176 177/177/177 178/178/178
f 179/179/179 178/178/178 177/177/177
o datan_common_arm80_opkrs_4f585881_mesh05
v -0 0 0.558665
v -0 0.235768 0.487971
v -0.184763 0.235768 0.358611
v -0.232993 0 0.395537
v 0.232993 0 0.395537
v 0.184763 0.235768 0.358611
vt 0.991595 0.031151
vt 0.855676 0.981762
vt 0.070429 0.981762
vt 0.006478 0.031151
vt 0.006478 0.031151
vt 0.070429 0.981762
vn 0 0.287212 0.957867
vn 0 0.287212 0.957867
vn -0.556983 0.238537 0.795531
vn -0.556983 0.238536 0.795531
vn 0.556983 0.238537 0.795531
vn 0.556983 0.238536 0.795531
usemtl datan_common_arm80_opkrs_4f585881
f 180/180/180 181/181/181 182/182/182
f 182/182/182 183/183/183 180/180/180
f 184/184/184 185/185/185 181/181/181
f 181/181/181 180/180/180 184/184/184
