# Generated from Nova1492 GX by tools/nova1492/GxObjConverter
mtllib datan_common_arm24_bzk_2d7ab4fb.mtl
o datan_common_arm24_bzk_2d7ab4fb
v 0.017933 0.192445 -0
v 0.017933 0.351982 0.11754
v 0.017933 0.192445 0.235081
v 0.017933 0.351982 -0.11754
v 0.017933 0.192445 -0.235081
v 0.017933 -0.006409 -0.237784
v 0.017933 -0.006409 0.237784
v 0.017933 0.192445 0.235081
v -0.053264 0.444579 0.151627
v -0.053264 0.199135 0.303254
v 0.017933 0.351982 0.11754
v 0.017933 0.351982 0.11754
v -0.053264 0.444579 -0.151627
v 0.017933 0.351982 -0.11754
v -0.053264 0.199135 -0.303254
v 0.017933 0.192445 -0.235081
v -0.053264 -0.005223 -0.306742
v 0.017933 -0.006409 -0.237784
v 0.017933 -0.006409 0.237784
v -0.053264 -0.005223 0.306742
v -0.332726 0.444579 0.151627
v -0.332726 0.199135 0.303254
v -0.332726 0.444579 -0.151627
v -0.332726 0.199135 -0.303254
v -0.332726 -0.005223 -0.306742
v -0.332726 -0.005223 0.306742
v -0.400293 0.375312 0.123274
v -0.400293 0.191657 0.246548
v -0.400293 0.375312 -0.123274
v -0.400293 0.191657 -0.246548
v -0.400293 -0.104897 -0.249384
v -0.400293 -0.104897 0.249384
v -0.400293 0.191657 0
v -0.400293 0.191657 0.246548
v -0.400293 0.375312 0.123274
v -0.400293 0.375312 -0.123274
v -0.400293 0.191657 -0.246548
v -0.400293 -0.104897 -0.249384
v -0.400293 -0.104897 0.249384
v -0.065783 0.216778 0.452576
v -0.096249 0.485987 1.431539
v -0.001359 0.322258 1.445863
v -0.128479 0.324956 0.443112
v -0.28603 0.485987 1.431539
v -0.253869 0.324956 0.443112
v -0.38092 0.322258 1.445863
v -0.316565 0.216778 0.452576
v -0.28603 0.158529 1.460188
v -0.253869 0.1086 0.46204
v -0.128479 0.1086 0.46204
v -0.096249 0.158529 1.460188
v 0.020995 0.320909 1.430445
v -0.076549 0.575751 1.919906
v 0.038042 0.378029 1.937204
v -0.085072 0.503924 1.414434
v -0.30573 0.575751 1.919906
v -0.297207 0.503924 1.414434
v -0.420321 0.378029 1.937204
v -0.403274 0.320909 1.430445
v -0.30573 0.180308 1.954503
v -0.297207 0.137894 1.446457
v -0.085072 0.137894 1.446457
v -0.076549 0.180308 1.954503
v -0.056516 0.193141 0.182412
v -0.123901 0.333845 0.451516
v -0.056516 0.217575 0.461689
v -0.123901 0.309411 0.17224
v -0.258671 0.333845 0.451516
v -0.258671 0.309411 0.17224
v -0.326056 0.217575 0.461689
v -0.326056 0.193141 0.182412
v -0.258671 0.101305 0.471861
v -0.258671 0.076872 0.192584
v -0.123901 0.076872 0.192584
v -0.123901 0.101305 0.471861
v 0.020995 0.320909 1.430445
v -0.297207 0.503924 1.414434
v -0.085072 0.503924 1.414434
v -0.403274 0.320909 1.430445
v -0.297207 0.137894 1.446457
v -0.085072 0.137894 1.446457
v -0.420321 0.378029 1.937204
v 0.038042 0.378029 1.937204
v -0.076549 0.575751 1.919906
v -0.30573 0.575751 1.919906
v -0.30573 0.180308 1.954503
v -0.076549 0.180308 1.954503
v -0.326056 0.217575 0.461689
v -0.056516 0.217575 0.461689
v -0.123901 0.333845 0.451516
v -0.258671 0.333845 0.451516
v -0.258671 0.101305 0.471861
v -0.123901 0.101305 0.471861
v -0.139062 0.501065 1.433596
v -0.19178 0.629082 1.896887
v -0.134826 0.5684 1.905787
v -0.19178 0.55595 1.428365
v -0.248734 0.5684 1.905787
v -0.244498 0.501065 1.433596
v -0.260814 0.142216 1.466211
v -0.229253 0.045976 1.945864
v -0.26633 0.185911 1.940575
v -0.226495 0.017024 1.470728
v -0.157856 0.017024 1.470728
v -0.118021 0.185911 1.940575
v -0.155099 0.045976 1.945864
v -0.123537 0.142216 1.466211
v -0.139062 0.501065 1.433596
v -0.244498 0.501065 1.433596
v -0.19178 0.55595 1.428365
v -0.248734 0.5684 1.905787
v -0.134826 0.5684 1.905787
v -0.19178 0.629082 1.896887
v -0.260814 0.142216 1.466211
v -0.157856 0.017024 1.470728
v -0.226495 0.017024 1.470728
v -0.123537 0.142216 1.466211
v -0.118021 0.185911 1.940575
v -0.26633 0.185911 1.940575
v -0.229253 0.045976 1.945864
v -0.155099 0.045976 1.945864
v -0.095052 0.288674 0.412744
v 0.101622 0.255223 0.41567
v 0.101622 0.250865 0.365861
v -0.095052 0.284316 0.362934
v -0.095052 0.126281 0.426951
v 0.101622 0.176146 0.422589
v 0.101622 0.176146 0.422589
v 0.101622 0.171788 0.372779
v 0.101622 0.171788 0.372779
v -0.095052 0.121923 0.377141
v 0.086362 0.211574 0.323512
v 0.054008 0.295838 0.801547
v 0.102132 0.253719 0.805232
v 0.054008 0.237911 0.321208
v 0.005884 0.253719 0.805232
v 0.021654 0.211574 0.323512
v 0.029946 0.205558 0.809445
v 0.037831 0.179195 0.326345
v 0.070185 0.179195 0.326345
v 0.07807 0.205558 0.809445
v 0.123879 0.253242 0.799778
v 0.054008 0.334481 0.911838
v 0.130883 0.263588 0.918041
v 0.054008 0.317125 0.794189
v -0.022868 0.263588 0.918041
v -0.015863 0.253242 0.799778
v 0.01557 0.186654 0.924772
v 0.019072 0.183317 0.805895
v 0.088943 0.183317 0.805895
v 0.092445 0.186654 0.924772
v 0.106893 0.205965 0.23662
v 0.053961 0.266045 0.321643
v 0.1122 0.213803 0.326213
v 0.053961 0.252896 0.232514
v -0.004278 0.213803 0.326213
v 0.001028 0.205965 0.23662
v 0.024841 0.155519 0.331312
v 0.027494 0.152992 0.241254
v 0.080427 0.152992 0.241254
v 0.08308 0.155519 0.331312
v -0.022868 0.263588 0.918041
v 0.130883 0.263588 0.918041
v 0.054008 0.334481 0.911838
v 0.01557 0.186654 0.924772
v 0.092445 0.186654 0.924772
v 0.106893 0.205965 0.23662
v 0.001028 0.205965 0.23662
v 0.053961 0.252896 0.232514
v 0.027494 0.152992 0.241254
v 0.080427 0.152992 0.241254
v -0.004278 0.213803 0.326213
v 0.1122 0.213803 0.326213
v 0.053961 0.266045 0.321643
v 0.024841 0.155519 0.331312
v 0.08308 0.155519 0.331312
v 0.123879 0.253242 0.799778
v -0.015863 0.253242 0.799778
v 0.054008 0.317125 0.794189
v 0.019072 0.183317 0.805895
v 0.088943 0.183317 0.805895
vt 0.680941 0.322198
vt 0.70484 0.35476
vt 0.728739 0.322198
vt 0.655128 0.35476
vt 0.629315 0.322198
vt 0.628721 0.27684
vt 0.729333 0.27684
vt 0.560781 0.491151
vt 0.600163 0.473547
vt 0.560801 0.473547
vt 0.601095 0.491151
vt 0.601095 0.491151
vt 0.641646 0.469718
vt 0.648371 0.491151
vt 0.684837 0.469718
vt 0.684857 0.491151
vt 0.713202 0.469718
vt 0.718528 0.491151
vt 0.52711 0.491151
vt 0.532437 0.469718
vt 0.600163 0.385593
vt 0.560801 0.385593
vt 0.645474 0.385593
vt 0.684837 0.385593
vt 0.713202 0.385593
vt 0.532437 0.385593
vt 0.598647 0.365253
vt 0.560427 0.365253
vt 0.646991 0.365253
vt 0.685211 0.365253
vt 0.727098 0.365253
vt 0.51854 0.365253
vt 0.570028 0.322228
vt 0.615704 0.322228
vt 0.592866 0.356701
vt 0.545276 0.356701
vt 0.520525 0.322228
vt 0.519955 0.260383
vt 0.620101 0.260383
vt 0.186031 0.949969
vt 0.147896 0.804525
vt 0.186031 0.804525
vt 0.144068 0.953797
vt 0.102104 0.804525
vt 0.102105 0.953797
vt 0.060141 0.804525
vt 0.060141 0.953797
vt 0.018178 0.804525
vt 0.018178 0.953797
vt 0.227994 0.949969
vt 0.227994 0.804525
vt 0.186031 0.798052
vt 0.147896 0.755941
vt 0.186031 0.755941
vt 0.144068 0.80188
vt 0.102104 0.755941
vt 0.102104 0.80188
vt 0.060141 0.755941
vt 0.060141 0.80188
vt 0.018178 0.755941
vt 0.018178 0.80188
vt 0.227994 0.80188
vt 0.227994 0.755941
vt 0.186031 0.994059
vt 0.147867 0.955909
vt 0.186031 0.955909
vt 0.144039 0.994059
vt 0.102076 0.955909
vt 0.102076 0.994059
vt 0.060141 0.955909
vt 0.060141 0.994059
vt 0.018207 0.955909
vt 0.018207 0.994059
vt 0.228023 0.994059
vt 0.228023 0.955909
vt 0.744059 0.126914
vt 0.566428 0.244059
vt 0.683572 0.244059
vt 0.505941 0.123086
vt 0.566428 0.005941
vt 0.683572 0.005941
vt 0.505941 0.126914
vt 0.744059 0.126914
vt 0.683572 0.244059
vt 0.566428 0.244059
vt 0.566428 0.005941
vt 0.683572 0.005941
vt 0.505941 0.126914
vt 0.744059 0.126914
vt 0.683572 0.244059
vt 0.566428 0.244059
vt 0.566428 0.005941
vt 0.683572 0.005941
vt 0.007733 0.584938
vt 0.237938 0.618773
vt 0.240743 0.591613
vt 0.007399 0.609014
vt 0.240743 0.587785
vt 0.007733 0.58111
vt 0.010968 0.575406
vt 0.238628 0.509557
vt 0.244059 0.570518
vt 0.005941 0.521279
vt 0.005941 0.521279
vt 0.244059 0.570518
vt 0.238628 0.509557
vt 0.010968 0.575406
vt 0.224871 0.337706
vt 0.145147 0.337706
vt 0.185009 0.360753
vt 0.020782 0.339888
vt 0.10722 0.339888
vt 0.064001 0.365905
vt 0.133657 0.324974
vt 0.211417 0.267816
vt 0.160853 0.267816
vt 0.238613 0.324974
vt 0.121074 0.324243
vt 0.007377 0.324243
vt 0.036758 0.259892
vt 0.091693 0.259892
vt 0.255991 0.806563
vt 0.335839 0.806703
vt 0.335765 0.818631
vt 0.255879 0.822394
vt 0.267977 0.755879
vt 0.341739 0.782148
vt 0.369121 0.806643
vt 0.369121 0.822383
vt 0.341229 0.84719
vt 0.267165 0.869121
vt 0.341813 0.977011
vt 0.313678 0.901103
vt 0.342473 0.901103
vt 0.30985 0.980839
vt 0.281055 0.901103
vt 0.281715 0.980839
vt 0.256271 0.901103
vt 0.25657 0.980839
vt 0.366957 0.977011
vt 0.367257 0.901103
vt 0.342896 0.895382
vt 0.313678 0.880879
vt 0.342981 0.880879
vt 0.30985 0.89921
vt 0.280547 0.880879
vt 0.280632 0.89921
vt 0.256051 0.880879
vt 0.256087 0.89921
vt 0.367441 0.89921
vt 0.367477 0.880879
vt 0.341788 0.994121
vt 0.31366 0.982185
vt 0.341973 0.982185
vt 0.30983 0.994121
vt 0.281552 0.982185
vt 0.281737 0.994121
vt 0.25651 0.982185
vt 0.256598 0.994121
vt 0.366963 0.994121
vt 0.367047 0.982185
vt 0.005879 0.691806
vt 0.119121 0.691806
vt 0.0625 0.744121
vt 0.035146 0.630879
vt 0.089854 0.630879
vt 0.119121 0.692954
vt 0.005879 0.692954
vt 0.0625 0.744121
vt 0.031318 0.630879
vt 0.089854 0.630879
vt 0.005879 0.692614
vt 0.119121 0.692614
vt 0.0625 0.744121
vt 0.035146 0.630879
vt 0.089854 0.630879
vt 0.744059 0.132376
vt 0.505941 0.132376
vt 0.625 0.244059
vt 0.566428 0.005941
vt 0.683572 0.005941
vn 1 0 -0
vn 1 0 0
vn 1 0 -0
vn 1 -0 0
vn 1 -0 0
vn 1 0 0
vn 1 0 -0
vn 0.692051 0.009813 0.721782
vn 0 1 0
vn 0 0.017063 0.999854
vn 0.756544 0.387891 0.526481
vn 0.792755 0.60954 0
vn 0 0.525565 -0.850753
vn 0.637128 0.45718 -0.620527
vn 0 0.017062 -0.999854
vn 0.695769 0.009764 -0.718199
vn 0 0.017062 -0.999854
vn 0.695769 0.009764 -0.718199
vn 0.692051 0.009813 0.721782
vn 0 0.017063 0.999854
vn -0.715842 0.698262 0
vn -0.643654 0.013059 0.765205
vn -0.611172 0.415984 -0.67337
vn -0.658062 0.012847 -0.752854
vn -0.658062 0.012847 -0.752854
vn -0.643654 0.013059 0.765205
vn -0.715842 0.698262 0
vn -0.643654 0.013059 0.765205
vn -0.676965 0.410195 -0.611112
vn -0.64332 0.007319 -0.765563
vn -0.658062 0.012847 -0.752854
vn -0.653336 0.007238 0.757034
vn -1 0 0
vn -1 0 0
vn -1 0 0
vn -1 0 -0
vn -1 0 0
vn -1 -0 0
vn -1 0 0
vn 0.845836 -0.527836 -0.077142
vn -0.172697 0.964826 -0.198211
vn 0.845836 -0.527836 -0.077142
vn -0.172697 0.964826 -0.19821
vn -0.870654 0.472258 -0.137601
vn -0.870654 0.472258 -0.137601
vn -0.927718 -0.369366 -0.05393
vn -0.927718 -0.369366 -0.05393
vn -0.927718 -0.369366 -0.05393
vn -0.927718 -0.369366 -0.05393
vn 0.845836 -0.527836 -0.077142
vn 0.845836 -0.527836 -0.077142
vn 0.849201 -0.526585 -0.039582
vn -0.172828 0.968331 -0.180181
vn 0.849201 -0.526585 -0.039582
vn -0.172828 0.968331 -0.180181
vn -0.872111 0.47477 -0.118392
vn -0.872111 0.47477 -0.118392
vn -0.92946 -0.367886 -0.027653
vn -0.92946 -0.367886 -0.027653
vn -0.92946 -0.367886 -0.027653
vn -0.92946 -0.367886 -0.027653
vn 0.849201 -0.526585 -0.039582
vn 0.849201 -0.526585 -0.039582
vn 0.850526 -0.525592 -0.018959
vn -0.173202 0.975991 -0.132073
vn 0.850526 -0.525592 -0.018959
vn -0.173202 0.975991 -0.132073
vn -0.873884 0.478738 -0.084478
vn -0.873884 0.478738 -0.084478
vn -0.930159 -0.366918 -0.013236
vn -0.930159 -0.366918 -0.013236
vn -0.930159 -0.366918 -0.013236
vn -0.930159 -0.366918 -0.013236
vn 0.850526 -0.525592 -0.018959
vn 0.850526 -0.525592 -0.018959
vn -0.178331 -0.005682 -0.983954
vn -0.178331 -0.00568 -0.983954
vn -0.178331 -0.00568 -0.983954
vn -0.178331 -0.005682 -0.983954
vn -0.178331 -0.005682 -0.983954
vn -0.178331 -0.005682 -0.983954
vn -0.196774 0.173149 0.965039
vn -0.196774 0.173149 0.965039
vn -0.196774 0.173149 0.965039
vn -0.196774 0.173149 0.965039
vn -0.196774 0.173149 0.965039
vn -0.196774 0.173149 0.965039
vn -0.196774 0.173149 0.965039
vn -0.196774 0.173149 0.965039
vn -0.196774 0.173149 0.965039
vn -0.196774 0.173149 0.965039
vn -0.196774 0.173149 0.965039
vn -0.196774 0.173149 0.965039
vn 0.561645 0.808691 -0.174852
vn -0.767804 0.6261 -0.135928
vn 0.574905 0.800145 -0.171036
vn -0.759651 0.636114 -0.135239
vn -0.759651 0.636114 -0.135239
vn -0.759651 0.636114 -0.135239
vn -0.986865 -0.156229 -0.041103
vn -0.986865 -0.156229 -0.041103
vn -0.988048 -0.148995 -0.039519
vn -0.986865 -0.156229 -0.041103
vn 0.97157 -0.229738 -0.057199
vn 0.97157 -0.229738 -0.057199
vn 0.973734 -0.219342 -0.061082
vn 0.97157 -0.229738 -0.057199
vn -0.178436 -0.012883 -0.983867
vn -0.178436 -0.012883 -0.983867
vn -0.178436 -0.012883 -0.983867
vn -0.195721 0.231557 0.95293
vn -0.195721 0.231557 0.95293
vn -0.195721 0.231557 0.95293
vn -0.177663 0.041828 -0.983202
vn -0.177663 0.041828 -0.983202
vn -0.177663 0.041828 -0.983202
vn -0.177663 0.041828 -0.983202
vn -0.197652 0.122865 0.972542
vn -0.197652 0.122865 0.972542
vn -0.197652 0.122865 0.972542
vn -0.197652 0.122865 0.972542
vn -0.0627 0.197541 0.978287
vn 0.914308 0.166889 0.369039
vn 0.147084 0.049577 -0.987881
vn 0.147084 0.049577 -0.987881
vn -0.0627 0.197541 0.978287
vn -0.062701 0.197542 0.978287
vn 0.914308 0.166889 0.369039
vn 0.914308 0.166888 0.369038
vn 0.147084 0.049577 -0.987881
vn 0.147086 0.049581 -0.98788
vn 0.916123 -0.220906 0.334545
vn -0.522998 0.826031 0.21011
vn 0.916123 -0.220906 0.334545
vn -0.497415 0.841511 0.210802
vn -0.895726 -0.283749 0.342288
vn -0.895726 -0.283749 0.342288
vn -0.895726 -0.283749 0.342288
vn -0.895726 -0.283749 0.342288
vn 0.916123 -0.220906 0.334545
vn 0.916123 -0.220906 0.334545
vn 0.922583 -0.2244 0.313824
vn -0.542616 0.816406 0.197611
vn 0.922583 -0.2244 0.313824
vn -0.53936 0.817968 0.200048
vn -0.901635 -0.289281 0.321515
vn -0.901635 -0.289281 0.321515
vn -0.901635 -0.289281 0.321515
vn -0.901635 -0.289281 0.321515
vn 0.922583 -0.2244 0.313824
vn 0.922583 -0.2244 0.313824
vn 0.922583 -0.2244 0.313824
vn -0.532983 0.823041 0.196297
vn 0.922583 -0.2244 0.313824
vn -0.528567 0.825103 0.199557
vn -0.901635 -0.289281 0.321515
vn -0.901635 -0.289281 0.321515
vn -0.901635 -0.289281 0.321515
vn -0.901635 -0.289281 0.321515
vn 0.922583 -0.2244 0.313824
vn 0.922583 -0.2244 0.313824
vn -0.024765 0.244166 0.969417
vn -0.024765 0.244166 0.969417
vn -0.024765 0.244165 0.969417
vn -0.024765 0.244166 0.969417
vn -0.024765 0.244166 0.969417
vn 0.215525 0.147088 -0.965357
vn 0.215525 0.147088 -0.965357
vn 0.215525 0.147088 -0.965357
vn 0.215525 0.147088 -0.965357
vn 0.215525 0.147088 -0.965357
vn -0.024765 0.244166 0.969417
vn -0.024765 0.244166 0.969417
vn -0.024765 0.244166 0.969417
vn -0.024765 0.244166 0.969417
vn -0.024765 0.244166 0.969417
vn 0.215525 0.147088 -0.965357
vn 0.215525 0.147088 -0.965357
vn 0.215525 0.14709 -0.965357
vn 0.215525 0.147088 -0.965357
vn 0.215525 0.147088 -0.965357
usemtl datan_common_arm24_bzk_2d7ab4fb
f 1/1/1 2/2/2 3/3/3
f 1/1/1 4/4/4 2/2/2
f 1/1/1 5/5/5 4/4/4
f 1/1/1 6/6/6 5/5/5
f 1/1/1 7/7/7 6/6/6
f 1/1/1 3/3/3 7/7/7
f 8/8/8 9/9/9 10/10/10
f 8/8/8 11/11/11 9/9/9
f 12/12/12 13/13/13 9/9/9
f 12/12/12 14/14/14 13/13/13
f 14/14/14 15/15/15 13/13/13
f 14/14/14 16/16/16 15/15/15
f 16/16/16 17/17/17 15/15/15
f 16/16/16 18/18/18 17/17/17
f 19/19/19 10/10/10 20/20/20
f 19/19/19 8/8/8 10/10/10
f 10/10/10 21/21/21 22/22/22
f 10/10/10 9/9/9 21/21/21
f 9/9/9 23/23/23 21/21/21
f 9/9/9 13/13/13 23/23/23
f 13/13/13 24/24/24 23/23/23
f 13/13/13 15/15/15 24/24/24
f 15/15/15 25/25/25 24/24/24
f 15/15/15 17/17/17 25/25/25
f 20/20/20 22/22/22 26/26/26
f 20/20/20 10/10/10 22/22/22
f 22/22/22 27/27/27 28/28/28
f 22/22/22 21/21/21 27/27/27
f 21/21/21 29/29/29 27/27/27
f 21/21/21 23/23/23 29/29/29
f 23/23/23 30/30/30 29/29/29
f 23/23/23 24/24/24 30/30/30
f 24/24/24 31/31/31 30/30/30
f 24/24/24 25/25/25 31/31/31
f 26/26/26 28/28/28 32/32/32
f 26/26/26 22/22/22 28/28/28
f 33/33/33 34/34/34 35/35/35
f 33/33/33 35/35/35 36/36/36
f 33/33/33 36/36/36 37/37/37
f 33/33/33 37/37/37 38/38/38
f 33/33/33 38/38/38 39/39/39
f 33/33/33 39/39/39 34/34/34
f 40/40/40 41/41/41 42/42/42
f 40/40/40 43/43/43 41/41/41
f 43/43/43 44/44/44 41/41/41
f 43/43/43 45/45/45 44/44/44
f 45/45/45 46/46/46 44/44/44
f 45/45/45 47/47/47 46/46/46
f 47/47/47 48/48/48 46/46/46
f 47/47/47 49/49/49 48/48/48
f 50/50/50 42/42/42 51/51/51
f 50/50/50 40/40/40 42/42/42
f 52/52/52 53/53/53 54/54/54
f 52/52/52 55/55/55 53/53/53
f 55/55/55 56/56/56 53/53/53
f 55/55/55 57/57/57 56/56/56
f 57/57/57 58/58/58 56/56/56
f 57/57/57 59/59/59 58/58/58
f 59/59/59 60/60/60 58/58/58
f 59/59/59 61/61/61 60/60/60
f 62/62/62 54/54/54 63/63/63
f 62/62/62 52/52/52 54/54/54
f 64/64/64 65/65/65 66/66/66
f 64/64/64 67/67/67 65/65/65
f 67/67/67 68/68/68 65/65/65
f 67/67/67 69/69/69 68/68/68
f 69/69/69 70/70/70 68/68/68
f 69/69/69 71/71/71 70/70/70
f 71/71/71 72/72/72 70/70/70
f 71/71/71 73/73/73 72/72/72
f 74/74/74 66/66/66 75/75/75
f 74/74/74 64/64/64 66/66/66
f 76/76/76 77/77/77 78/78/78
f 76/76/76 79/79/79 77/77/77
f 76/76/76 80/80/80 79/79/79
f 76/76/76 81/81/81 80/80/80
f 82/82/82 83/83/83 84/84/84
f 82/82/82 84/84/84 85/85/85
f 82/82/82 86/86/86 87/87/87
f 82/82/82 87/87/87 83/83/83
f 88/88/88 89/89/89 90/90/90
f 88/88/88 90/90/90 91/91/91
f 88/88/88 92/92/92 93/93/93
f 88/88/88 93/93/93 89/89/89
f 94/94/94 95/95/95 96/96/96
f 94/94/94 97/97/97 95/95/95
f 97/97/97 98/98/98 95/95/95
f 97/97/97 99/99/99 98/98/98
f 100/100/100 101/101/101 102/102/102
f 100/100/100 103/103/103 101/101/101
f 104/104/104 105/105/105 106/106/106
f 104/104/104 107/107/107 105/105/105
f 108/108/108 109/109/109 110/110/110
f 111/111/111 112/112/112 113/113/113
f 114/114/114 115/115/115 116/116/116
f 114/114/114 117/117/117 115/115/115
f 118/118/118 119/119/119 120/120/120
f 118/118/118 120/120/120 121/121/121
f 122/122/122 123/123/123 124/124/124
f 124/124/124 125/125/125 122/122/122
f 126/126/126 127/127/127 123/123/123
f 123/123/123 122/122/122 126/126/126
f 128/128/128 129/129/129 124/124/124
f 124/124/124 123/123/123 128/128/128
f 130/130/130 131/131/131 125/125/125
f 125/125/125 124/124/124 130/130/130
f 132/132/132 133/133/133 134/134/134
f 132/132/132 135/135/135 133/133/133
f 135/135/135 136/136/136 133/133/133
f 135/135/135 137/137/137 136/136/136
f 137/137/137 138/138/138 136/136/136
f 137/137/137 139/139/139 138/138/138
f 140/140/140 134/134/134 141/141/141
f 140/140/140 132/132/132 134/134/134
f 142/142/142 143/143/143 144/144/144
f 142/142/142 145/145/145 143/143/143
f 145/145/145 146/146/146 143/143/143
f 145/145/145 147/147/147 146/146/146
f 147/147/147 148/148/148 146/146/146
f 147/147/147 149/149/149 148/148/148
f 150/150/150 144/144/144 151/151/151
f 150/150/150 142/142/142 144/144/144
f 152/152/152 153/153/153 154/154/154
f 152/152/152 155/155/155 153/153/153
f 155/155/155 156/156/156 153/153/153
f 155/155/155 157/157/157 156/156/156
f 157/157/157 158/158/158 156/156/156
f 157/157/157 159/159/159 158/158/158
f 160/160/160 154/154/154 161/161/161
f 160/160/160 152/152/152 154/154/154
f 162/162/162 163/163/163 164/164/164
f 162/162/162 165/165/165 166/166/166
f 162/162/162 166/166/166 163/163/163
f 167/167/167 168/168/168 169/169/169
f 167/167/167 170/170/170 168/168/168
f 167/167/167 171/171/171 170/170/170
f 172/172/172 173/173/173 174/174/174
f 172/172/172 175/175/175 176/176/176
f 172/172/172 176/176/176 173/173/173
f 177/177/177 178/178/178 179/179/179
f 177/177/177 180/180/180 178/178/178
f 177/177/177 181/181/181 180/180/180
