# Generated from Nova1492 GX by tools/nova1492/GxObjConverter
mtllib datan_common_arm21_nmsz_3025b871.mtl
o datan_common_arm21_nmsz_3025b871
v 0.131609 0.113116 -0.000844
v 0.105812 0.221194 0.057248
v 0.105812 0.221194 0.357351
v 0.131609 0.113116 0.372614
v 0.06262 0.251914 0.073154
v 0.06262 0.251914 0.346803
v -0.062038 0.252104 0.073154
v -0.105392 0.22172 0.057248
v -0.105392 0.22172 0.357351
v -0.062038 0.252104 0.346803
v -0.131759 0.113773 -0.000844
v -0.131759 0.113773 0.372613
v -0.131759 0.113773 -0.000844
v -0.098173 -0.001789 -0.000844
v -0.098173 -0.001789 0.372614
v -0.131759 0.113773 0.372613
v 0.097567 -0.002081 -0.000844
v 0.097566 -0.002081 0.372613
v -0.131759 0.113773 -0.000844
v -0.098173 -0.001789 -0.000844
v 0.131708 0.113352 0.516461
v -0.001409 0.113336 0.369364
v -0.001409 0.113336 0.569499
v 0.131708 0.113352 0.369364
v -0.001409 0.113336 0.369364
v -0.000865 -0.001612 0.369364
v -0.000865 -0.001612 0.610692
v -0.001409 0.113336 0.569499
v 0.097399 -0.001992 0.369364
v 0.131708 0.113352 0.369364
v 0.131708 0.113352 0.516461
v 0.097399 -0.001992 0.557655
v 0.097399 -0.001992 0.557655
v -0.000865 -0.001612 0.610692
v 0.114516 0.066574 0.015692
v 0.129384 0.116342 0.051469
v 0.20316 0.085313 0.209335
v 0.20316 0.048314 0.200023
v 0.10835 0.127551 0.266899
v 0.20316 0.103424 0.268304
v 0.20316 0.085313 0.319419
v 0.123781 0.093808 0.474408
v 0.109779 0.048236 0.497057
v 0.20316 0.048314 0.32821
v 0.095118 0.001438 0.475511
v 0.20316 0.012713 0.305373
v 0.096085 0.001438 0.050366
v 0.20316 0.012713 0.221152
v 0.038358 0.294614 0.10268
v -0.037653 0.294803 0.10268
v 0.038358 0.294614 0.331082
v -0.037653 0.294803 0.331082
v 0.131609 0.113116 0.372614
v -0.131759 0.113773 0.372613
v -0.098173 -0.001789 0.372614
v 0.097566 -0.002081 0.372613
v 0.105812 0.221194 0.357351
v -0.105392 0.22172 0.357351
v -0.062038 0.252104 0.346803
v 0.06262 0.251914 0.346803
v 0.038358 0.294614 0.331082
v -0.037653 0.294803 0.331082
v -0.278684 0.013478 0.125592
v -0.278684 0.275368 0.125592
v -0.133185 0.275368 0.125592
v -0.133185 0.013478 0.125592
v -0.278684 0.013478 0.718705
v -0.133185 0.013478 0.718705
v -0.133185 0.275368 0.718705
v -0.278684 0.275368 0.718705
v -0.278684 0.013478 0.125592
v -0.133185 0.013478 0.125592
v -0.133185 0.013478 0.718705
v -0.278684 0.013478 0.718705
v -0.133185 0.275368 0.125592
v -0.133185 0.275368 0.718705
v -0.133185 0.275368 0.125592
v -0.278684 0.275368 0.125592
v -0.278684 0.275368 0.718705
v -0.133185 0.275368 0.718705
v -0.278684 0.275368 0.125592
v -0.278684 0.013478 0.125592
v -0.278684 0.013478 0.718705
v -0.278684 0.275368 0.718705
v -0.267522 0.266926 0.146795
v -0.236309 0.358145 0.314786
v -0.175562 0.358145 0.314786
v -0.144349 0.266926 0.146795
v -0.267522 0.266926 0.662005
v -0.144349 0.266926 0.662005
v -0.175562 0.358145 0.631246
v -0.236309 0.358145 0.631246
v -0.144349 0.266926 0.146795
v -0.175562 0.358145 0.314786
v -0.175562 0.358145 0.631246
v -0.144349 0.266926 0.662005
v -0.175562 0.358145 0.314786
v -0.236309 0.358145 0.314786
v -0.236309 0.358145 0.631246
v -0.175562 0.358145 0.631246
v -0.236309 0.358145 0.314786
v -0.267522 0.266926 0.146795
v -0.267522 0.266926 0.662005
v -0.236309 0.358145 0.631246
v 0.079949 0.006845 -0.025055
v 0.079949 0.233381 -0.025055
v 0.065183 0.233381 -0.259453
v 0.065183 0.006845 -0.259453
v 0.114288 0.006845 -0.025055
v 0.099522 0.006845 -0.259453
v 0.099522 0.233381 -0.259453
v 0.114288 0.233381 -0.025055
v 0.065183 0.006845 -0.259453
v 0.065183 0.233381 -0.259453
v 0.099522 0.233381 -0.259453
v 0.099522 0.006845 -0.259453
v 0.065183 0.233381 -0.259453
v 0.079949 0.233381 -0.025055
v 0.079949 0.233381 -0.025055
v 0.079949 0.006845 -0.025055
v -0.092864 0.199507 -0.263004
v 0.092713 0.199507 -0.263004
v 0.037272 0.199507 -0.53771
v -0.037423 0.199507 -0.53771
v -0.092864 0.068742 -0.263004
v 0.092713 0.068742 -0.263004
v 0.092713 0.199507 -0.263004
v -0.092864 0.199507 -0.263004
v 0.037272 0.068742 -0.53771
v 0.037272 0.199507 -0.53771
v -0.037423 0.068742 -0.53771
v -0.037423 0.199507 -0.53771
v -0.066353 0.264306 -0.224956
v 0.066202 0.264306 -0.224956
v 0.034489 0.264306 -0.429839
v -0.03464 0.264306 -0.429839
v 0.066202 0.199582 -0.224956
v 0.034489 0.199582 -0.429839
v 0.034489 0.264306 -0.429839
v 0.066202 0.264306 -0.224956
v -0.03464 0.199582 -0.429839
v -0.03464 0.264306 -0.429839
v -0.03464 0.199582 -0.429839
v -0.066353 0.199582 -0.224956
v -0.066353 0.264306 -0.224956
v -0.03464 0.264306 -0.429839
v -0.066353 0.199582 -0.224956
v 0.066202 0.199582 -0.224956
v 0.066202 0.264306 -0.224956
v -0.066353 0.264306 -0.224956
v -0.078589 0.233381 -0.025055
v -0.078589 0.006845 -0.025055
v -0.063822 0.233381 -0.259453
v -0.063822 0.006845 -0.259453
v -0.098161 0.006845 -0.259453
v -0.112927 0.006845 -0.025055
v -0.098161 0.233381 -0.259453
v -0.112927 0.233381 -0.025055
v -0.063822 0.233381 -0.259453
v -0.063822 0.006845 -0.259453
v -0.098161 0.233381 -0.259453
v -0.098161 0.006845 -0.259453
v -0.078589 0.233381 -0.025055
v -0.063822 0.233381 -0.259453
v -0.078589 0.006845 -0.025055
v -0.078589 0.233381 -0.025055
v -0.086794 0.199507 0.088661
v 0.086643 0.199507 0.088661
v 0.061617 0.199507 -0.262619
v -0.061768 0.199507 -0.262619
v 0.086643 0.005986 0.088661
v 0.061617 0.005986 -0.262619
v -0.061768 0.005986 -0.262619
v -0.086794 0.005986 0.088661
vt 0.993934 0.849821
vt 0.947226 0.934071
vt 0.709762 0.934071
vt 0.69749 0.849821
vt 0.934438 0.962935
vt 0.718243 0.962935
vt 0.934438 0.959261
vt 0.947226 0.938328
vt 0.709762 0.938328
vt 0.718243 0.963089
vt 0.993934 0.865566
vt 0.69749 0.865566
vt 0.993934 0.866736
vt 0.993934 0.87403
vt 0.69749 0.87403
vt 0.69749 0.866736
vt 0.993934 0.755941
vt 0.69749 0.755941
vt 0.993934 0.850356
vt 0.993934 0.75618
vt 0.583302 0.918184
vt 0.67647 0.97868
vt 0.582129 0.978623
vt 0.680298 0.918063
vt 0.696275 0.846172
vt 0.696275 0.756324
vt 0.506066 0.756324
vt 0.539188 0.85
vt 0.696275 0.756014
vt 0.696275 0.846186
vt 0.581831 0.846186
vt 0.54871 0.756014
vt 0.511948 0.918269
vt 0.511475 0.982446
vt 0.980639 0.811892
vt 0.951873 0.848622
vt 0.828771 0.827163
vt 0.836259 0.797011
vt 0.782488 0.861585
vt 0.781358 0.841922
vt 0.74026 0.827163
vt 0.615643 0.834086
vt 0.597433 0.796948
vt 0.729364 0.797011
vt 0.614757 0.758809
vt 0.747725 0.767998
vt 0.952759 0.758809
vt 0.81927 0.767998
vt 0.910698 0.997732
vt 0.910698 0.994059
vt 0.730883 0.997732
vt 0.730883 0.994059
vt 0.494059 0.345993
vt 0.255941 0.346528
vt 0.286795 0.25618
vt 0.462785 0.255941
vt 0.47036 0.434071
vt 0.280163 0.4345
vt 0.319991 0.459261
vt 0.430681 0.459106
vt 0.408393 0.493904
vt 0.342393 0.494059
vt 0.007696 0.508673
vt 0.007696 0.687708
vt 0.115793 0.687708
vt 0.115793 0.508673
vt 0.007937 0.755188
vt 0.116069 0.755188
vt 0.116069 0.93382
vt 0.007937 0.93382
vt 0.491277 0.752786
vt 0.491277 0.752786
vt 0.123558 0.752786
vt 0.123558 0.7547
vt 0.491278 0.932625
vt 0.123558 0.932625
vt 0.260111 0.686412
vt 0.260111 0.67617
vt 0.13372 0.676171
vt 0.129892 0.69024
vt 0.491278 0.686979
vt 0.491277 0.509055
vt 0.123558 0.509055
vt 0.123558 0.690808
vt 0.016768 0.686201
vt 0.041983 0.74565
vt 0.08229 0.74565
vt 0.10672 0.686201
vt 0.017373 0.933375
vt 0.106898 0.933375
vt 0.082288 0.99358
vt 0.037342 0.99358
vt 0.476357 0.933237
vt 0.372338 0.993014
vt 0.179206 0.993014
vt 0.159325 0.933237
vt 0.372338 0.747912
vt 0.372338 0.747912
vt 0.179206 0.747912
vt 0.175377 0.749826
vt 0.372338 0.747369
vt 0.476357 0.687591
vt 0.159325 0.687591
vt 0.175377 0.751197
vt 0.048147 0.496921
vt 0.048147 0.493474
vt 0.241358 0.493474
vt 0.241358 0.493092
vt 0.04645 0.257696
vt 0.241358 0.257696
vt 0.241358 0.462469
vt 0.042622 0.462469
vt 0.24429 0.257696
vt 0.244291 0.462469
vt 0.244291 0.462469
vt 0.242376 0.257696
vt 0.241358 0.491719
vt 0.04645 0.491719
vt 0.007292 0.462469
vt 0.007292 0.257696
vt 0.758761 0.492173
vt 0.758761 0.424363
vt 0.992259 0.445998
vt 0.992259 0.470237
vt 0.755313 0.259176
vt 0.755313 0.259176
vt 0.755313 0.417006
vt 0.757227 0.417006
vt 0.992259 0.259176
vt 0.992259 0.417006
vt 0.994173 0.259176
vt 0.994173 0.417006
vt 0.25923 0.243053
vt 0.25923 0.228847
vt 0.469625 0.232143
vt 0.469625 0.239176
vt 0.256306 0.132098
vt 0.471431 0.132098
vt 0.471431 0.225019
vt 0.256306 0.225019
vt 0.492528 0.132098
vt 0.492528 0.225019
vt 0.471431 0.132098
vt 0.256306 0.132098
vt 0.256306 0.225019
vt 0.471431 0.225019
vt 0.506423 0.133749
vt 0.742615 0.133749
vt 0.742615 0.243523
vt 0.506423 0.243523
vt 0.048147 0.493474
vt 0.048147 0.496921
vt 0.241358 0.493474
vt 0.241358 0.493092
vt 0.241358 0.257696
vt 0.04645 0.257696
vt 0.241358 0.462469
vt 0.042622 0.462469
vt 0.244291 0.462469
vt 0.24429 0.257696
vt 0.244291 0.462469
vt 0.242376 0.257696
vt 0.04645 0.491719
vt 0.241358 0.491719
vt 0.007292 0.257696
vt 0.007292 0.462469
vt 0.505941 0.255941
vt 0.744059 0.255941
vt 0.709147 0.494059
vt 0.540853 0.494059
vt 0.744059 0.255941
vt 0.709147 0.494059
vt 0.540853 0.494059
vt 0.505941 0.255941
vn 0.001181 0.473662 -0.880706
vn 0.00115 0.461058 -0.88737
vn 0.579604 0.814899 0
vn 0.959003 -0.283397 0
vn 0.001419 0.569298 -0.82213
vn 0.869446 0.494029 -0
vn 0.000864 0.568419 -0.822739
vn 0.000704 0.463005 -0.886356
vn -0.971442 0.237278 0
vn -0.868375 0.495909 0
vn -0.971442 0.237278 0
vn -0.971442 0.237278 0
vn -0.960268 -0.279079 0
vn -0.960268 -0.27908 0
vn -0.960268 -0.279079 0
vn -0.960268 -0.279079 0
vn 0 0 -1
vn 0.959003 -0.283397 0
vn 0.001181 0.473662 -0.880706
vn 0 0 -1
vn 0.361335 0.216437 0.906969
vn -0.000122 1 0
vn 0.453617 0.302556 0.838267
vn -0.000122 1 0
vn -0.999989 -0.004733 0
vn -0.999989 -0.004733 0
vn -0.999989 -0.004733 0
vn -0.999989 -0.004733 0
vn 0.958498 -0.285098 -0
vn 0.958498 -0.285098 -0
vn 0.958498 -0.285098 -0
vn 0.958498 -0.285098 -0
vn 0.453617 0.302556 0.838267
vn 0.453617 0.302556 0.838267
vn 0.787534 -0.448074 -0.423109
vn 0.402717 0.915287 -0.008304
vn 1 -0 0
vn 1 -0 -0.000001
vn 0.344827 0.930223 0.12562
vn 1 -0 -0
vn 1 -0 0.000001
vn 0.887345 0.106595 0.448616
vn 0.835816 -0.296422 0.462109
vn 1 -0 0.000001
vn 0.103793 -0.994599 -0
vn 1 -0 0.000001
vn 0.818628 -0.293118 -0.493892
vn 1 0 0
vn 0.001419 0.569298 -0.82213
vn 0.001419 0.569298 -0.82213
vn 0.869446 0.494029 -0
vn -0.868375 0.495909 0
vn 0.000349 0.139915 0.990163
vn 0.000349 0.139915 0.990163
vn 0 -0 1
vn 0 -0 1
vn 0.000495 0.325365 0.945589
vn 0.000815 0.32692 0.945052
vn 0.00086 0.345076 0.938575
vn 0.000526 0.345771 0.938319
vn 0.00086 0.345076 0.938575
vn 0.00086 0.345076 0.938575
vn -0.315949 0.28667 -0.904432
vn -0.31595 0.286671 -0.904431
vn -0.315949 0.28667 -0.904432
vn -0.315949 0.28667 -0.904432
vn -0.139406 0.126487 0.982124
vn -0.139406 0.126487 0.982124
vn -0.139406 0.126487 0.982124
vn -0.139406 0.126487 0.982124
vn -0.214435 -0.867711 0.448437
vn 0.866324 0.198805 0.458214
vn 0.866324 0.198805 0.458214
vn -0.214435 -0.867711 0.448437
vn 0.866324 0.198805 0.458214
vn 0.866324 0.198805 0.458214
vn -0.158657 0.929915 0.331792
vn -0.158657 0.929915 0.331792
vn -0.158657 0.929915 0.331792
vn -0.158657 0.929915 0.331792
vn -0.933888 0.142319 0.328024
vn -0.933888 0.142319 0.328024
vn -0.933888 0.142319 0.328024
vn -0.933888 0.142319 0.328024
vn -0.186501 0.981138 -0.050852
vn -0.186501 0.981138 -0.050852
vn -0.186501 0.981138 -0.050852
vn -0.186501 0.981138 -0.050852
vn -0.137048 0.341275 0.929919
vn -0.137047 0.341274 0.92992
vn -0.137048 0.341275 0.929919
vn -0.137048 0.341275 0.929919
vn 0.748366 0.509683 0.424466
vn 0.748366 0.509683 0.424466
vn 0.748366 0.509683 0.424466
vn 0.748366 0.509683 0.424466
vn -0.158657 0.929915 0.331792
vn -0.158657 0.929915 0.331792
vn -0.158657 0.929915 0.331792
vn -0.158657 0.929915 0.331792
vn -0.86705 0.382844 0.318834
vn -0.86705 0.382844 0.318834
vn -0.86705 0.382844 0.318834
vn -0.86705 0.382844 0.318834
vn -0.979703 0.150477 -0.132434
vn -0.979703 0.150477 -0.132434
vn -0.979703 0.150477 -0.132434
vn -0.979703 0.150477 -0.132434
vn 0.090757 0.171179 0.981051
vn 0.965866 0.127574 -0.22545
vn 0.064815 0.98469 -0.161815
vn 0.090757 0.171179 0.981051
vn 0.06271 0.118279 -0.990998
vn 0.06271 0.118279 -0.990998
vn 0.06271 0.118279 -0.990998
vn 0.06271 0.118279 -0.990998
vn 0.064815 0.98469 -0.161815
vn 0.064815 0.98469 -0.161815
vn 0.090757 0.171179 0.981051
vn 0.090757 0.171179 0.981051
vn -0.000063 0.94297 -0.332878
vn -0.000063 0.94297 -0.332878
vn -0.000063 0.94297 -0.332878
vn -0.000063 0.94297 -0.332878
vn -0.847864 0.116003 -0.517368
vn 0.847827 0.116016 -0.517426
vn 0.847827 0.116016 -0.517426
vn -0.847864 0.116003 -0.517368
vn -0.000054 0.095342 -0.995445
vn -0.000054 0.095342 -0.995445
vn -0.847864 0.116003 -0.517368
vn -0.847864 0.116003 -0.517368
vn -0.000061 0.959984 -0.280056
vn -0.000061 0.959984 -0.280056
vn -0.000061 0.959984 -0.280056
vn -0.000061 0.959984 -0.280056
vn 0.880627 0.164566 -0.444313
vn -0.000056 0.135958 -0.990715
vn -0.000056 0.135958 -0.990715
vn 0.880627 0.164566 -0.444313
vn -0.000056 0.135958 -0.990715
vn -0.000056 0.135958 -0.990715
vn -0.880657 0.164547 -0.44426
vn -0.880657 0.164547 -0.44426
vn -0.880657 0.164547 -0.44426
vn -0.880657 0.164547 -0.44426
vn -0.000111 0.271578 0.962416
vn -0.000111 0.271578 0.962417
vn -0.000111 0.271578 0.962416
vn -0.000111 0.271578 0.962416
vn 0.979761 0.150264 -0.132247
vn 0.979761 0.150264 -0.132247
vn 0.979761 0.150264 -0.132247
vn 0.979761 0.150264 -0.132247
vn -0.965784 0.127725 -0.225717
vn -0.089127 0.171204 0.981196
vn -0.063646 0.984765 -0.161827
vn -0.089127 0.171204 0.981196
vn -0.061579 0.118288 -0.991068
vn -0.061579 0.118288 -0.991068
vn -0.061579 0.118288 -0.991068
vn -0.061579 0.118288 -0.991068
vn -0.063646 0.984765 -0.161827
vn -0.063646 0.984765 -0.161827
vn -0.089127 0.171204 0.981196
vn -0.089127 0.171204 0.981196
vn -0.977608 0.052744 -0.203715
vn 0.977602 0.052752 -0.203745
vn -0.000066 0.04729 -0.998881
vn -0.977608 0.052744 -0.203715
vn 0.977602 0.052752 -0.203745
vn -0.000066 0.04729 -0.998881
vn -0.977608 0.052744 -0.203715
vn -0.977608 0.052744 -0.203715
usemtl datan_common_arm21_nmsz_3025b871
f 1/1/1 2/2/2 3/3/3
f 1/1/1 3/3/3 4/4/4
f 2/2/2 5/5/5 6/6/6
f 2/2/2 6/6/6 3/3/3
f 7/7/7 8/8/8 9/9/9
f 7/7/7 9/9/9 10/10/10
f 8/8/8 11/11/11 12/12/12
f 8/8/8 12/12/12 9/9/9
f 13/13/13 14/14/14 15/15/15
f 13/13/13 15/15/15 16/16/16
f 17/17/17 1/1/1 4/4/4
f 17/17/17 4/4/4 18/18/18
f 19/19/19 1/1/1 17/17/17
f 19/19/19 17/17/17 20/20/20
f 8/8/8 2/2/2 1/1/1
f 8/8/8 1/1/1 19/19/19
f 5/5/5 2/2/2 8/8/8
f 21/21/21 22/22/22 23/23/23
f 24/24/24 22/22/22 21/21/21
f 25/25/25 26/26/26 27/27/27
f 25/25/25 27/27/27 28/28/28
f 29/29/29 30/30/30 31/31/31
f 29/29/29 31/31/31 32/32/32
f 33/33/33 21/21/21 23/23/23
f 33/33/33 23/23/23 34/34/34
f 35/35/35 36/36/36 37/37/37
f 35/35/35 37/37/37 38/38/38
f 37/37/37 39/39/39 40/40/40
f 36/36/36 39/39/39 37/37/37
f 40/40/40 39/39/39 41/41/41
f 39/39/39 42/42/42 41/41/41
f 42/42/42 43/43/43 44/44/44
f 42/42/42 44/44/44 41/41/41
f 43/43/43 45/45/45 46/46/46
f 43/43/43 46/46/46 44/44/44
f 45/45/45 47/47/47 48/48/48
f 45/45/45 48/48/48 46/46/46
f 47/47/47 35/35/35 38/38/38
f 47/47/47 38/38/38 48/48/48
f 48/48/48 38/38/38 37/37/37
f 46/46/46 48/48/48 37/37/37
f 46/46/46 37/37/37 40/40/40
f 46/46/46 40/40/40 41/41/41
f 46/46/46 41/41/41 44/44/44
f 7/7/7 5/5/5 8/8/8
f 49/49/49 50/50/50 51/51/51
f 52/52/52 51/51/51 50/50/50
f 6/6/6 5/5/5 49/49/49
f 49/49/49 51/51/51 6/6/6
f 7/7/7 10/10/10 52/52/52
f 52/52/52 50/50/50 7/7/7
f 5/5/5 7/7/7 50/50/50
f 50/50/50 49/49/49 5/5/5
f 53/53/53 54/54/54 55/55/55
f 53/53/53 55/55/55 56/56/56
f 57/57/57 58/58/58 54/54/54
f 57/57/57 54/54/54 53/53/53
f 57/57/57 59/59/59 58/58/58
f 57/57/57 60/60/60 59/59/59
f 59/59/59 60/60/60 61/61/61
f 61/61/61 62/62/62 59/59/59
f 63/63/63 64/64/64 65/65/65
f 65/65/65 66/66/66 63/63/63
f 67/67/67 68/68/68 69/69/69
f 69/69/69 70/70/70 67/67/67
f 71/71/71 72/72/72 73/73/73
f 73/73/73 74/74/74 71/71/71
f 72/72/72 75/75/75 76/76/76
f 76/76/76 73/73/73 72/72/72
f 77/77/77 78/78/78 79/79/79
f 79/79/79 80/80/80 77/77/77
f 81/81/81 82/82/82 83/83/83
f 83/83/83 84/84/84 81/81/81
f 85/85/85 86/86/86 87/87/87
f 87/87/87 88/88/88 85/85/85
f 89/89/89 90/90/90 91/91/91
f 91/91/91 92/92/92 89/89/89
f 93/93/93 94/94/94 95/95/95
f 95/95/95 96/96/96 93/93/93
f 97/97/97 98/98/98 99/99/99
f 99/99/99 100/100/100 97/97/97
f 101/101/101 102/102/102 103/103/103
f 103/103/103 104/104/104 101/101/101
f 105/105/105 106/106/106 107/107/107
f 107/107/107 108/108/108 105/105/105
f 109/109/109 110/110/110 111/111/111
f 111/111/111 112/112/112 109/109/109
f 113/113/113 114/114/114 115/115/115
f 115/115/115 116/116/116 113/113/113
f 117/117/117 118/118/118 112/112/112
f 112/112/112 111/111/111 117/117/117
f 119/119/119 120/120/120 109/109/109
f 109/109/109 112/112/112 119/119/119
f 121/121/121 122/122/122 123/123/123
f 123/123/123 124/124/124 121/121/121
f 125/125/125 126/126/126 127/127/127
f 127/127/127 128/128/128 125/125/125
f 126/126/126 129/129/129 130/130/130
f 130/130/130 127/127/127 126/126/126
f 129/129/129 131/131/131 132/132/132
f 132/132/132 130/130/130 129/129/129
f 131/131/131 125/125/125 128/128/128
f 128/128/128 132/132/132 131/131/131
f 133/133/133 134/134/134 135/135/135
f 135/135/135 136/136/136 133/133/133
f 137/137/137 138/138/138 139/139/139
f 139/139/139 140/140/140 137/137/137
f 138/138/138 141/141/141 142/142/142
f 142/142/142 139/139/139 138/138/138
f 143/143/143 144/144/144 145/145/145
f 145/145/145 146/146/146 143/143/143
f 147/147/147 148/148/148 149/149/149
f 149/149/149 150/150/150 147/147/147
f 151/151/151 152/152/152 153/153/153
f 154/154/154 153/153/153 152/152/152
f 155/155/155 156/156/156 157/157/157
f 158/158/158 157/157/157 156/156/156
f 159/159/159 160/160/160 161/161/161
f 162/162/162 161/161/161 160/160/160
f 163/163/163 164/164/164 158/158/158
f 157/157/157 158/158/158 164/164/164
f 165/165/165 166/166/166 156/156/156
f 158/158/158 156/156/156 166/166/166
f 167/167/167 168/168/168 169/169/169
f 169/169/169 170/170/170 167/167/167
f 171/171/171 172/172/172 169/169/169
f 169/169/169 168/168/168 171/171/171
f 172/172/172 173/173/173 170/170/170
f 170/170/170 169/169/169 172/172/172
f 173/173/173 174/174/174 167/167/167
