# Generated from Nova1492 GX by tools/nova1492/GxObjConverter
mtllib datan_common__02_LArm_7bfb5a2c.mtl
o datan_common__02_LArm_7bfb5a2c
v 0.915084 1.122414 -0.688563
v 0.441467 1.122414 -0.688563
v 0.441466 1.049108 0.763607
v 0.915084 1.049108 0.763607
v 0.997539 0.248072 -0.926754
v 0.359012 0.248072 -0.926754
v 0.441467 1.122414 -0.688563
v 0.915084 1.122414 -0.688563
v 0.359012 0.248072 -0.926754
v 0.359012 0.288956 -0.042627
v 0.441466 1.049108 0.763607
v 0.441467 1.122414 -0.688563
v 0.997539 0.290991 -0.042062
v 0.997539 0.248072 -0.926754
v 0.915084 1.122414 -0.688563
v 0.915084 1.049108 0.763607
v 0.997538 0.321378 0.763607
v 0.359012 0.321378 0.763607
v 0.359012 0.288956 -0.042627
v 0.997539 0.290991 -0.042062
v 0.997809 0.000038 0.142289
v 0.359283 -0 0.141723
v 0.997538 0.321378 0.763607
v 0.359012 0.321378 0.763607
v 0.359283 0.000101 0.764153
v 0.997809 0.000101 0.764153
v 0.997809 0.000101 0.764153
v 0.997809 0.000038 0.142289
v 0.359283 -0 0.141723
v 0.359283 0.000101 0.764153
v 0.915084 1.049108 0.763607
v 0.441466 1.049108 0.763607
v 0.49387 0.977323 0.926754
v 0.862681 0.977323 0.926754
v 0.923692 0.393163 0.926754
v 0.432858 0.393163 0.926754
v 0.481006 0.00231 0.297473
v 0.420219 0.345915 0.290233
v 0.420219 0.345915 -0.87198
v 0.481006 0.00231 -0.776663
v 0.875816 0.002309 0.297473
v 0.875816 0.002309 -0.776663
v 0.936603 0.345915 -0.87198
v 0.936602 0.345915 0.290234
v 0.481006 0.00231 -0.776663
v 0.420219 0.345915 -0.87198
v 0.936603 0.345915 -0.87198
v 0.875816 0.002309 -0.776663
v 1.03689 0.855206 0.592306
v 1.071143 0.479843 0.592534
v 1.073566 0.479843 0.288638
v 1.05964 0.65418 0.097727
v 1.040638 0.855206 0.097621
v 0.911401 0.921607 0.66834
v 0.959081 0.392766 0.668674
v 0.944873 0.612056 0.019778
v 0.916378 0.921607 0.019596
v 0.962373 0.392766 0.255843
v 1.123765 0.074416 0.415171
v 1.123765 0.315433 0.063608
v 1.123765 0.315433 0.415171
v 1.123765 0.074416 0.201427
v 0.947645 0.015902 0.13937
v 0.947645 0.015902 0.470242
v 0.947645 0.373947 -0.073152
v 0.947645 0.373947 0.470242
v 0.317338 0.855206 0.592306
v 0.280662 0.479843 0.288638
v 0.283085 0.479843 0.592534
v 0.294588 0.65418 0.097727
v 0.31359 0.855206 0.097621
v 0.442828 0.921607 0.668339
v 0.395147 0.392766 0.668674
v 0.409355 0.612055 0.019778
v 0.437851 0.921607 0.019596
v 0.391856 0.392766 0.255843
v 0.230463 0.074416 0.41517
v 0.230463 0.315433 0.41517
v 0.230463 0.315433 0.063608
v 0.230463 0.074416 0.201426
v 0.406584 0.015902 0.13937
v 0.406584 0.015902 0.470242
v 0.406584 0.373947 -0.073152
v 0.406584 0.373947 0.470242
vt 0.345282 0.85299
vt 0.345282 0.989661
vt 0.113214 0.989661
vt 0.113214 0.85299
vt 0.493013 0.5888
vt 0.392923 0.5888
vt 0.405328 0.842685
vt 0.47921 0.846513
vt 0.385459 0.588664
vt 0.245286 0.601791
vt 0.114642 0.821682
vt 0.346878 0.846442
vt 0.245203 0.602281
vt 0.385459 0.588664
vt 0.346878 0.842613
vt 0.114642 0.821682
vt 0.114283 0.610252
vt 0.112369 0.610252
vt 0.392923 0.597877
vt 0.493013 0.598477
vt 0.493055 0.515692
vt 0.390585 0.51568
vt 0.106897 0.605998
vt 0.006544 0.606655
vt 0.006232 0.514349
vt 0.106944 0.514349
vt 0.112289 0.515832
vt 0.214053 0.515816
vt 0.214136 0.515807
vt 0.112289 0.515832
vt 0.093124 0.820872
vt 0.019242 0.820872
vt 0.027506 0.803227
vt 0.085218 0.803884
vt 0.095316 0.631299
vt 0.017766 0.630642
vt 0.18994 0.516363
vt 0.191003 0.613644
vt 0.375977 0.614302
vt 0.361256 0.515706
vt 0.18994 0.516363
vt 0.361256 0.515706
vt 0.375977 0.614302
vt 0.189089 0.617473
vt 0.4115 0.516361
vt 0.402011 0.61552
vt 0.483035 0.61552
vt 0.473546 0.516361
vt 0.141961 0.763179
vt 0.142286 0.656282
vt 0.188965 0.656939
vt 0.219882 0.709418
vt 0.219539 0.767007
vt 0.1278 0.783105
vt 0.12811 0.631379
vt 0.232769 0.695335
vt 0.232795 0.786934
vt 0.1945 0.631379
vt 0.170855 0.537006
vt 0.224895 0.603679
vt 0.170855 0.604336
vt 0.203212 0.537663
vt 0.213764 0.518978
vt 0.160491 0.51832
vt 0.247498 0.625534
vt 0.160491 0.625534
vt 0.141961 0.763179
vt 0.188965 0.656939
vt 0.142286 0.656282
vt 0.219882 0.709418
vt 0.219539 0.767007
vt 0.1278 0.783105
vt 0.12811 0.631379
vt 0.232769 0.695335
vt 0.232795 0.786933
vt 0.1945 0.631379
vt 0.170855 0.537005
vt 0.170855 0.604336
vt 0.224895 0.603678
vt 0.203212 0.537663
vt 0.213764 0.51832
vt 0.160491 0.51832
vt 0.247498 0.625534
vt 0.160491 0.625534
vn -0 0.998728 0.050416
vn -0 0.998728 0.050416
vn -0 0.998728 0.050416
vn -0 0.998728 0.050416
vn 0 0.262845 -0.964838
vn 0 0.262845 -0.964838
vn 0 0.262845 -0.964838
vn 0 0.262844 -0.964838
vn -0.994683 0.102983 -0.000283
vn -0.99717 0.075108 -0.003249
vn -0.994345 0.106184 -0.001698
vn -0.99569 0.092624 0.004676
vn 0.998833 0.048256 -0.002068
vn 0.995454 0.095133 -0.004615
vn 0.994865 0.10121 -0.00085
vn 0.993626 0.112581 0.005683
vn 0.997557 0.069861 0.000679
vn -0.999314 0.036996 -0.001499
vn 0.001616 -0.536533 -0.843878
vn 0.002454 -0.535215 -0.844712
vn 0.001616 -0.536533 -0.843878
vn 0.000779 -0.537849 -0.843041
vn 0.500989 -0.191821 0.843928
vn -0.315229 -0.589249 0.743919
vn -0 0.001698 0.999999
vn -0 0.001698 0.999999
vn 1 0.000886 -0.000016
vn 1 0.000929 0
vn -1 -0.000877 0.000018
vn -1 -0.000842 -0
vn 0.382395 0.794189 0.47227
vn -0.761543 0.458305 0.458268
vn -0.384304 0.793169 0.472434
vn 0.76024 0.458053 0.460676
vn 0.402346 -0.756817 0.515117
vn -0.813878 -0.312628 0.489762
vn -0.98471 -0.174204 -0
vn -0.98471 -0.174204 -0
vn -0.98471 -0.174204 -0
vn -0.98471 -0.174204 -0
vn 0.98471 -0.174204 0
vn 0.98471 -0.174204 0
vn 0.98471 -0.174204 0
vn 0.98471 -0.174204 0
vn 0 -0.267308 -0.963611
vn 0 -0.267308 -0.963611
vn 0 -0.267308 -0.963611
vn 0 -0.267308 -0.963611
vn 0.891676 0.417605 0.174699
vn 0.830289 -0.185317 0.525622
vn 0.883492 -0.452053 -0.122839
vn 0.867686 -0.207637 -0.451671
vn 0.791812 0.333147 -0.511904
vn 0.619332 0.394337 0.678916
vn 0.710522 -0.614315 0.343185
vn 0.59521 -0.163361 -0.78679
vn 0.598127 0.729432 -0.331923
vn 0.632829 -0.667956 -0.391616
vn 0.809491 -0.524546 0.263774
vn 0.881942 0.416231 -0.221203
vn 0.66773 0.331389 0.666572
vn 0.672606 -0.567422 -0.475009
vn 0.391778 -0.873842 -0.287943
vn 0.393398 -0.409279 0.823243
vn 0.610564 0.023048 -0.791632
vn 0.400664 0.818557 0.411621
vn -0.891676 0.417605 0.174699
vn -0.883492 -0.452053 -0.122839
vn -0.830289 -0.185317 0.525621
vn -0.867686 -0.207638 -0.451672
vn -0.791812 0.333147 -0.511905
vn -0.619332 0.394337 0.678916
vn -0.710522 -0.614315 0.343184
vn -0.595209 -0.163361 -0.78679
vn -0.598127 0.729432 -0.331923
vn -0.632829 -0.667956 -0.391616
vn -0.809491 -0.524546 0.263774
vn -0.66773 0.331389 0.666572
vn -0.881942 0.41623 -0.221204
vn -0.672606 -0.567422 -0.475009
vn -0.391778 -0.873842 -0.287943
vn -0.393398 -0.409279 0.823243
vn -0.610563 0.023048 -0.791632
vn -0.400664 0.818557 0.411621
usemtl datan_common__02_LArm_7bfb5a2c
f 1/1/1 2/2/2 3/3/3
f 3/3/3 4/4/4 1/1/1
f 5/5/5 6/6/6 7/7/7
f 7/7/7 8/8/8 5/5/5
f 9/9/9 10/10/10 11/11/11
f 11/11/11 12/12/12 9/9/9
f 13/13/13 14/14/14 15/15/15
f 15/15/15 16/16/16 17/17/17
f 17/17/17 13/13/13 15/15/15
f 10/10/10 18/18/18 11/11/11
f 19/19/19 20/20/20 21/21/21
f 21/21/21 22/22/22 19/19/19
f 23/23/23 24/24/24 25/25/25
f 25/25/25 26/26/26 23/23/23
f 13/13/13 17/17/17 27/27/27
f 27/27/27 28/28/28 13/13/13
f 18/18/18 10/10/10 29/29/29
f 29/29/29 30/30/30 18/18/18
f 31/31/31 32/32/32 33/33/33
f 33/33/33 34/34/34 31/31/31
f 24/24/24 23/23/23 35/35/35
f 35/35/35 36/36/36 24/24/24
f 23/23/23 31/31/31 34/34/34
f 34/34/34 35/35/35 23/23/23
f 32/32/32 24/24/24 36/36/36
f 36/36/36 33/33/33 32/32/32
f 37/37/37 38/38/38 39/39/39
f 39/39/39 40/40/40 37/37/37
f 41/41/41 42/42/42 43/43/43
f 43/43/43 44/44/44 41/41/41
f 45/45/45 46/46/46 47/47/47
f 47/47/47 48/48/48 45/45/45
f 49/49/49 50/50/50 51/51/51
f 52/52/52 53/53/53 49/49/49
f 49/49/49 51/51/51 52/52/52
f 54/54/54 55/55/55 50/50/50
f 50/50/50 49/49/49 54/54/54
f 56/56/56 57/57/57 53/53/53
f 53/53/53 52/52/52 56/56/56
f 55/55/55 58/58/58 51/51/51
f 51/51/51 50/50/50 55/55/55
f 57/57/57 54/54/54 49/49/49
f 49/49/49 53/53/53 57/57/57
f 58/58/58 56/56/56 52/52/52
f 52/52/52 51/51/51 58/58/58
f 59/59/59 60/60/60 61/61/61
f 60/60/60 59/59/59 62/62/62
f 59/59/59 63/63/63 62/62/62
f 63/63/63 59/59/59 64/64/64
f 62/62/62 65/65/65 60/60/60
f 65/65/65 62/62/62 63/63/63
f 60/60/60 66/66/66 61/61/61
f 66/66/66 60/60/60 65/65/65
f 61/61/61 64/64/64 59/59/59
f 64/64/64 61/61/61 66/66/66
f 67/67/67 68/68/68 69/69/69
f 70/70/70 67/67/67 71/71/71
f 67/67/67 70/70/70 68/68/68
f 72/72/72 69/69/69 73/73/73
f 69/69/69 72/72/72 67/67/67
f 74/74/74 71/71/71 75/75/75
f 71/71/71 74/74/74 70/70/70
f 73/73/73 68/68/68 76/76/76
f 68/68/68 73/73/73 69/69/69
f 75/75/75 67/67/67 72/72/72
f 67/67/67 75/75/75 71/71/71
f 76/76/76 70/70/70 74/74/74
f 70/70/70 76/76/76 68/68/68
f 77/77/77 78/78/78 79/79/79
f 79/79/79 80/80/80 77/77/77
f 77/77/77 80/80/80 81/81/81
f 81/81/81 82/82/82 77/77/77
f 80/80/80 79/79/79 83/83/83
f 83/83/83 81/81/81 80/80/80
f 79/79/79 78/78/78 84/84/84
