# Generated from Nova1492 GX by tools/nova1492/GxObjConverter
mtllib datan_common__01_LArm_d1bbaa65.mtl
o datan_common__01_LArm_d1bbaa65
v 0.639067 0.149371 -0.130033
v 0.639067 -0.066117 0.085455
v 0.352016 -0.169566 0.188904
v 0.352016 0.25282 -0.233482
v -0.324774 -0.169566 0.188905
v -0.324774 0.25282 -0.233482
v -0.611824 -0.066117 0.085455
v -0.611824 0.149371 -0.130033
v 0.639067 0.790104 0.5107
v 0.352016 0.893554 0.407251
v 0.352017 0.471167 0.829638
v 0.639067 0.574617 0.726188
v -0.324774 0.893554 0.407252
v -0.324773 0.471167 0.829638
v -0.611824 0.790104 0.510701
v -0.611824 0.574617 0.726189
v 0.639067 0.149371 -0.130033
v 0.352016 0.25282 -0.233482
v 0.352016 0.893554 0.407251
v 0.639067 0.790104 0.5107
v 0.300778 0.361355 -0.342017
v -0.273536 0.361355 -0.342017
v -0.273536 1.002089 0.298717
v 0.300779 1.002089 0.298716
v -0.324774 0.25282 -0.233482
v -0.611824 0.149371 -0.130033
v -0.611824 0.790104 0.510701
v -0.324774 0.893554 0.407252
v -0.611824 -0.066117 0.085455
v -0.611824 0.574617 0.726189
v -0.324774 -0.169566 0.188905
v -0.324773 0.471167 0.829638
v -0.273536 -0.278101 0.29744
v 0.300779 -0.278101 0.297439
v 0.300779 0.362632 0.938173
v -0.273536 0.362632 0.938173
v 0.352016 -0.169566 0.188904
v 0.639067 -0.066117 0.085455
v 0.639067 0.574617 0.726188
v 0.352017 0.471167 0.829638
v 0.300779 -0.278101 0.297439
v -0.273536 -0.278101 0.29744
v -0.273536 0.361355 -0.342017
v 0.300778 0.361355 -0.342017
v 0.300779 1.002089 0.298716
v -0.273536 1.002089 0.298717
v -0.273536 0.362632 0.938173
v 0.300779 0.362632 0.938173
v -0.273536 -0.278101 0.29744
v -0.273536 0.362632 0.938173
v 0.300779 0.362632 0.938173
v 0.300779 -0.278101 0.297439
vt 0.34578 0.987123
vt 0.405714 0.987123
vt 0.435406 0.871479
vt 0.315599 0.871479
vt 0.435406 0.578373
vt 0.315599 0.578373
vt 0.404764 0.45544
vt 0.34339 0.45544
vt 0.100821 0.987123
vt 0.07208 0.867402
vt 0.190447 0.867402
vt 0.160755 0.987123
vt 0.07208 0.575315
vt 0.190447 0.575315
vt 0.098907 0.45544
vt 0.160755 0.45544
vt 0.280139 0.023211
vt 0.34234 0.023211
vt 0.34234 0.409673
vt 0.278225 0.409673
vt 0.491283 0.023541
vt 0.378089 0.023541
vt 0.378089 0.409343
vt 0.491283 0.409343
vt 0.34234 0.023211
vt 0.280139 0.023211
vt 0.280139 0.409673
vt 0.34234 0.409673
vt 0.217391 0.023211
vt 0.21739 0.409673
vt 0.152658 0.023211
vt 0.152658 0.409673
vt 0.007482 0.023541
vt 0.120676 0.023541
vt 0.120676 0.409343
vt 0.007482 0.409343
vt 0.154572 0.023211
vt 0.21739 0.023211
vt 0.21739 0.409673
vt 0.152658 0.409673
vt 0.465208 0.843017
vt 0.465208 0.598462
vt 0.285541 0.59918
vt 0.285541 0.843017
vt 0.038682 0.843017
vt 0.038682 0.59918
vt 0.22025 0.598462
vt 0.22025 0.843017
vt 0.120224 0.023211
vt 0.120223 0.409673
vt 0.120223 0.409673
vt 0.120224 0.023211
vn -0 -0.707107 -0.707107
vn -0 -0.707107 -0.707107
vn -0 -0.707107 -0.707107
vn -0 -0.707107 -0.707107
vn -0 -0.707107 -0.707107
vn -0 -0.707107 -0.707107
vn -0 -0.707107 -0.707107
vn -0 -0.707107 -0.707107
vn 0 0.707107 0.707107
vn 0 0.707107 0.707107
vn 0 0.707107 0.707107
vn 0 0.707107 0.707107
vn 0 0.707107 0.707107
vn 0 0.707107 0.707107
vn 0 0.707107 0.707107
vn 0 0.707107 0.707107
vn 0.730874 0.482609 -0.48261
vn 0.454088 0.630002 -0.630002
vn 0.454088 0.630002 -0.630002
vn 0.93997 0.241305 -0.241305
vn -0 0.707107 -0.707107
vn -0 0.707107 -0.707107
vn -0 0.707107 -0.707107
vn -0 0.707107 -0.707107
vn -0.454089 0.630002 -0.630001
vn -0.93997 0.241305 -0.241304
vn -0.730874 0.482609 -0.482609
vn -0.454089 0.630001 -0.630001
vn -0.730874 -0.482609 0.48261
vn -0.93997 -0.241305 0.241305
vn -0.75783 -0.461353 0.461354
vn -0.75783 -0.461353 0.461354
vn 0 -0.707107 0.707107
vn 0 -0.707107 0.707107
vn 0 -0.707107 0.707107
vn 0 -0.707107 0.707107
vn 0.757831 -0.461353 0.461353
vn 0.93997 -0.241305 0.241304
vn 0.730874 -0.482609 0.482609
vn 0.757831 -0.461353 0.461353
vn -0 -0.707107 -0.707107
vn -0 -0.707107 -0.707107
vn -0 -0.707107 -0.707107
vn -0 -0.707107 -0.707107
vn 0 0.707107 0.707107
vn 0 0.707107 0.707107
vn 0 0.707107 0.707107
vn 0 0.707107 0.707107
vn -0.948547 -0.223897 0.223897
vn -0.948547 -0.223897 0.223897
vn 0.948547 -0.223897 0.223896
vn 0.948547 -0.223897 0.223896
usemtl datan_common__01_LArm_d1bbaa65
f 1/1/1 2/2/2 3/3/3
f 3/3/3 4/4/4 1/1/1
f 4/4/4 3/3/3 5/5/5
f 5/5/5 6/6/6 4/4/4
f 6/6/6 5/5/5 7/7/7
f 7/7/7 8/8/8 6/6/6
f 9/9/9 10/10/10 11/11/11
f 11/11/11 12/12/12 9/9/9
f 10/10/10 13/13/13 14/14/14
f 14/14/14 11/11/11 10/10/10
f 13/13/13 15/15/15 16/16/16
f 16/16/16 14/14/14 13/13/13
f 17/17/17 18/18/18 19/19/19
f 19/19/19 20/20/20 17/17/17
f 21/21/21 22/22/22 23/23/23
f 23/23/23 24/24/24 21/21/21
f 25/25/25 26/26/26 27/27/27
f 27/27/27 28/28/28 25/25/25
f 26/26/26 29/29/29 30/30/30
f 30/30/30 27/27/27 26/26/26
f 29/29/29 31/31/31 32/32/32
f 32/32/32 30/30/30 29/29/29
f 33/33/33 34/34/34 35/35/35
f 35/35/35 36/36/36 33/33/33
f 37/37/37 38/38/38 39/39/39
f 39/39/39 40/40/40 37/37/37
f 38/38/38 17/17/17 20/20/20
f 20/20/20 39/39/39 38/38/38
f 5/5/5 3/3/3 41/41/41
f 41/41/41 42/42/42 5/5/5
f 4/4/4 6/6/6 43/43/43
f 43/43/43 44/44/44 4/4/4
f 13/13/13 10/10/10 45/45/45
f 45/45/45 46/46/46 13/13/13
f 11/11/11 14/14/14 47/47/47
f 47/47/47 48/48/48 11/11/11
f 32/32/32 31/31/31 49/49/49
f 49/49/49 50/50/50 32/32/32
f 37/37/37 40/40/40 51/51/51
f 51/51/51 52/52/52 37/37/37
