# Generated from Nova1492 GX by tools/nova1492/GxObjConverter
mtllib datan_common_n_arm60_mgbr_93f3db04.mtl
o datan_common_n_arm60_mgbr_93f3db04
v 0.202419 0.010643 0.25485
v 0.202419 0.010643 0.152561
v 0.27529 0.225686 0.06205
v 0.27529 0.302319 0.286951
v 0.27529 0.573343 0.118634
v 0.27529 0.520586 0.286951
v 0.27529 0.225686 -0.288356
v 0.27529 0.593995 -0.288356
v -0.27529 0.225686 -0.288356
v -0.27529 0.593995 -0.288356
v -0.27529 0.225686 0.06205
v -0.202419 0.010643 0.25485
v -0.27529 0.302319 0.286951
v -0.202419 0.010643 0.152561
v -0.27529 0.573343 0.118634
v -0.27529 0.520586 0.286951
v -0.110341 0.010643 0.25485
v -0.109524 0.22596 0.062323
v -0.110341 0.302319 0.286951
v -0.110341 0.010643 0.152561
v 0.109524 0.22596 0.062323
v 0.110341 0.010643 0.152561
v 0.110341 0.010643 0.25485
v 0.110341 0.302319 0.286951
v -0.110341 0.573343 0.118634
v -0.110341 0.520586 0.286951
v 0.110341 0.573343 0.118634
v 0.110341 0.520586 0.286951
v -0.110205 0.226066 -0.253224
v -0.111439 0.573449 -0.196913
v 0.110205 0.226046 -0.253099
v 0.111439 0.573429 -0.196789
v -0.27529 0.520586 0.286951
v -0.110341 0.520586 0.286951
v -0.110341 0.573343 0.118634
v -0.27529 0.573343 0.118634
v 0.110341 0.573343 0.118634
v 0.27529 0.520586 0.286951
v 0.27529 0.573343 0.118634
v 0.110341 0.520586 0.286951
v -0.27529 0.573343 0.118634
v -0.110341 0.573343 0.118634
v -0.27529 0.593995 -0.288356
v 0.110341 0.573343 0.118634
v 0.27529 0.593995 -0.288356
v 0.27529 0.573343 0.118634
v -0.27529 0.302319 0.286951
v -0.110341 0.010643 0.25485
v -0.110341 0.302319 0.286951
v -0.202419 0.010643 0.25485
v 0.110341 0.010643 0.25485
v 0.202419 0.010643 0.25485
v 0.27529 0.302319 0.286951
v 0.110341 0.302319 0.286951
v -0.110341 0.521058 0.192189
v 0.110341 0.521058 0.192189
v -0.110341 0.462277 0.192189
v 0.110341 0.462277 0.192189
v -0.27529 0.225686 0.06205
v -0.109524 0.22596 0.062323
v -0.110341 0.010643 0.152561
v -0.202419 0.010643 0.152561
v 0.109524 0.22596 0.062323
v 0.27529 0.225686 0.06205
v 0.202419 0.010643 0.152561
v 0.110341 0.010643 0.152561
v 0.12789 0.001154 0.161415
v 0.185151 0.001154 0.161415
v 0.12789 0.262857 0.161415
v 0.254999 0.262857 0.161415
v 0.12789 0.001154 -0.2188
v 0.12789 0.262857 -0.265613
v 0.185151 0.001154 -0.2188
v 0.254999 0.262857 -0.265613
v -0.185151 0.001154 0.161415
v -0.12789 0.001154 0.161415
v -0.12789 0.262857 0.161415
v -0.254999 0.262857 0.161415
v -0.12789 0.001154 -0.2188
v -0.12789 0.262857 -0.265613
v -0.185151 0.001154 -0.2188
v -0.254999 0.262857 -0.265613
v -0.07534 0.575982 -0.280825
v 0.07534 0.575982 -0.280825
v 0.07534 0.623959 -0.542097
v -0.07534 0.623959 -0.542097
v 0.10736 0.450687 -0.280825
v 0.10736 0.550532 -0.587925
v -0.10736 0.550532 -0.587925
v -0.10736 0.450687 -0.280825
v -0.189852 0.522521 -0.280912
v 0.189852 0.522521 -0.280912
v 0.171038 0.570498 -0.623149
v -0.171038 0.570498 -0.623149
v -0.243728 0.215895 -0.280912
v 0.243728 0.215895 -0.280912
v 0.189852 0.522521 -0.280912
v -0.189852 0.522521 -0.280912
v 0.243728 0.215895 -0.280912
v 0.243728 0.31574 -0.668976
v 0.243728 0.31574 -0.668976
v -0.243728 0.31574 -0.668976
v -0.171038 0.570498 -0.623149
v 0.171038 0.570498 -0.623149
v -0.243728 0.31574 -0.668976
v -0.243728 0.215895 -0.280912
vt 0.230559 0.627035
vt 0.191369 0.627035
vt 0.153305 0.712396
vt 0.244059 0.748008
vt 0.173273 0.856587
vt 0.244059 0.834706
vt 0.005941 0.716224
vt 0.005941 0.865152
vt 0.005941 0.716224
vt 0.005941 0.865152
vt 0.153305 0.712396
vt 0.230559 0.627035
vt 0.244059 0.74418
vt 0.187541 0.627035
vt 0.173273 0.856587
vt 0.244059 0.834706
vt 0.230559 0.627035
vt 0.15342 0.71251
vt 0.244059 0.74418
vt 0.187541 0.627035
vt 0.15342 0.71251
vt 0.191369 0.627035
vt 0.230559 0.627035
vt 0.244059 0.748008
vt 0.173273 0.856587
vt 0.244059 0.834706
vt 0.173273 0.856587
vt 0.244059 0.834706
vt 0.020716 0.716382
vt 0.040569 0.856631
vt 0.020769 0.716374
vt 0.040622 0.856623
vt 0.505941 0.714625
vt 0.574598 0.714625
vt 0.574598 0.807286
vt 0.505941 0.811114
vt 0.675402 0.807286
vt 0.744059 0.714624
vt 0.744059 0.807286
vt 0.675402 0.714625
vt 0.505941 0.809225
vt 0.574598 0.809225
vt 0.505941 0.993934
vt 0.675402 0.809225
vt 0.744059 0.993934
vt 0.744059 0.809225
vt 0.505941 0.615532
vt 0.574598 0.506066
vt 0.574598 0.615532
vt 0.537963 0.506066
vt 0.675402 0.506066
vt 0.712036 0.506066
vt 0.744059 0.615532
vt 0.675402 0.61936
vt 0.578426 0.75619
vt 0.671574 0.75619
vt 0.578426 0.730535
vt 0.671574 0.730535
vt 0.726623 0.264347
vt 0.726649 0.264372
vt 0.73139 0.248035
vt 0.73139 0.248035
vt 0.726649 0.264372
vt 0.726623 0.264347
vt 0.73139 0.248035
vt 0.73139 0.248035
vt 0.193178 0.627474
vt 0.193178 0.627474
vt 0.193178 0.732188
vt 0.191264 0.736016
vt 0.031365 0.627474
vt 0.015506 0.732188
vt 0.031365 0.627474
vt 0.015506 0.732188
vt 0.193178 0.627474
vt 0.193178 0.627474
vt 0.193178 0.732188
vt 0.191264 0.736016
vt 0.031365 0.627474
vt 0.015506 0.732188
vt 0.031365 0.627474
vt 0.015506 0.732188
vt 0.773337 0.252035
vt 0.851663 0.252035
vt 0.851663 0.463408
vt 0.773337 0.463408
vt 0.869121 0.252035
vt 0.869121 0.490152
vt 0.755879 0.490152
vt 0.755879 0.252035
vt 0.324941 0.630941
vt 0.422017 0.630941
vt 0.413495 0.846688
vt 0.333463 0.846688
vt 0.25582 0.629027
vt 0.49418 0.629027
vt 0.49418 0.629027
vt 0.25582 0.630941
vt 0.491753 0.630941
vt 0.474203 0.869059
vt 0.49418 0.873008
vt 0.25582 0.873008
vt 0.25582 0.872887
vt 0.49418 0.869059
vt 0.272756 0.869059
vt 0.25582 0.630941
vn 0.964397 -0.250327 0.085297
vn 0.9471 -0.32094 0
vn 1 0 0
vn 1 0 0
vn 1 0 0
vn 1 0 0
vn 0 0 -1
vn 0 0 -1
vn -1 -0 -0
vn -1 -0 -0
vn -1 0 -0
vn -0.9471 -0.32094 0
vn -1 0 0
vn -0.9471 -0.32094 0
vn -1 0 -0
vn -1 0 -0
vn 0.999993 -0.003796 0
vn 0.999994 0.002702 -0.002156
vn 0.999994 0.001866 0.003004
vn 0.999993 -0.003796 0
vn -0.999994 0.002703 -0.002157
vn -0.999993 -0.003796 0
vn -0.999993 -0.000416 0.00378
vn -1 0 0
vn 0.999994 0.002702 -0.002156
vn 1 -0 -0
vn -0.999986 0.004117 -0.003478
vn -1 0 0
vn 0.999994 0.002702 -0.002156
vn 0.999986 0.004116 -0.003476
vn -0.999986 0.004117 -0.003478
vn -0.999986 0.004117 -0.003478
vn 0 0 1
vn 0 0 1
vn 0 0.815066 0.579368
vn -0 0.954226 0.299087
vn 0 0.815066 0.579368
vn -0 0 1
vn 0 0.954226 0.299087
vn 0 0 1
vn -0 0.998715 0.050679
vn 0 0.998715 0.050679
vn 0 0.998715 0.050679
vn 0 0.998715 0.050679
vn 0 0.998715 0.050679
vn 0 0.998715 0.050679
vn 0 0 1
vn 0 -0.109396 0.993998
vn 0 0 1
vn 0 -0.109396 0.993998
vn 0 -0.109396 0.993998
vn 0 -0.109396 0.993998
vn 0 0 1
vn 0 0 1
vn 0 0 1
vn 0 0 1
vn 0 0 1
vn 0 0 1
vn -0 -0.387933 -0.921688
vn 0.002157 -0.386526 -0.922276
vn -0 -0.387933 -0.921688
vn -0 -0.387933 -0.921688
vn -0 -0.38652 -0.922281
vn -0.002158 -0.387311 -0.921947
vn -0 -0.38652 -0.922281
vn -0 -0.38652 -0.922281
vn -0.999721 0.001332 -0.023602
vn 0.97369 -0.22716 -0.018087
vn -0.999721 0.001332 -0.023602
vn 0.973689 -0.22716 -0.018087
vn 0.130454 -0.170044 -0.976763
vn 0.130454 -0.170044 -0.976763
vn 0.973689 -0.22716 -0.018087
vn 0.973689 -0.22716 -0.018087
vn -0.97369 -0.22716 -0.018087
vn 0.999721 0.001332 -0.023602
vn 0.999721 0.001332 -0.023602
vn -0.97369 -0.22716 -0.018087
vn -0.130454 -0.170044 -0.976763
vn -0.130454 -0.170044 -0.976763
vn -0.97369 -0.22716 -0.018087
vn -0.97369 -0.22716 -0.018087
vn -0.682697 0.661878 -0.309584
vn 0.731963 0.593415 -0.334796
vn -0 0.623848 -0.781546
vn -0.682697 0.661878 -0.309584
vn 0.731963 0.593415 -0.334796
vn -0 0.623848 -0.781546
vn -0.682697 0.661878 -0.309584
vn -0.737687 0.598957 -0.311559
vn -0.791626 0.435771 -0.428289
vn 0.821263 0.354725 -0.446876
vn 0.821263 0.354725 -0.446876
vn -0.791626 0.435771 -0.428289
vn -0 0.454618 0.890687
vn -0 0.454618 0.890687
vn -0 0.454618 0.890687
vn -0 0.454618 0.890687
vn 0.821263 0.354725 -0.446876
vn 0.818331 0.437611 -0.372601
vn -0 0.276846 -0.960914
vn -0 0.276846 -0.960914
vn -0 0.276846 -0.960914
vn -0 0.276846 -0.960914
vn -0.791626 0.435771 -0.428289
vn -0.843195 0.364316 -0.395343
usemtl datan_common_n_arm60_mgbr_93f3db04
f 1/1/1 2/2/2 3/3/3
f 3/3/3 4/4/4 1/1/1
f 4/4/4 3/3/3 5/5/5
f 5/5/5 6/6/6 4/4/4
f 3/3/3 7/7/7 8/8/8
f 8/8/8 5/5/5 3/3/3
f 7/7/7 9/9/9 10/10/10
f 10/10/10 8/8/8 7/7/7
f 11/11/11 12/12/12 13/13/13
f 12/12/12 11/11/11 14/14/14
f 10/10/10 11/11/11 15/15/15
f 11/11/11 10/10/10 9/9/9
f 11/11/11 13/13/13 16/16/16
f 16/16/16 15/15/15 11/11/11
f 17/17/17 18/18/18 19/19/19
f 18/18/18 17/17/17 20/20/20
f 21/21/21 22/22/22 23/23/23
f 23/23/23 24/24/24 21/21/21
f 19/19/19 25/25/25 26/26/26
f 25/25/25 19/19/19 18/18/18
f 27/27/27 21/21/21 24/24/24
f 24/24/24 28/28/28 27/27/27
f 29/29/29 30/30/30 25/25/25
f 25/25/25 18/18/18 29/29/29
f 27/27/27 31/31/31 21/21/21
f 31/31/31 27/27/27 32/32/32
f 33/33/33 34/34/34 35/35/35
f 35/35/35 36/36/36 33/33/33
f 37/37/37 38/38/38 39/39/39
f 38/38/38 37/37/37 40/40/40
f 41/41/41 42/42/42 43/43/43
f 42/42/42 44/44/44 45/45/45
f 45/45/45 43/43/43 42/42/42
f 46/46/46 45/45/45 44/44/44
f 47/47/47 48/48/48 49/49/49
f 48/48/48 47/47/47 50/50/50
f 51/51/51 52/52/52 53/53/53
f 53/53/53 54/54/54 51/51/51
f 47/47/47 49/49/49 34/34/34
f 34/34/34 33/33/33 47/47/47
f 40/40/40 53/53/53 38/38/38
f 53/53/53 40/40/40 54/54/54
f 55/55/55 56/56/56 37/37/37
f 37/37/37 35/35/35 55/55/55
f 57/57/57 58/58/58 56/56/56
f 56/56/56 55/55/55 57/57/57
f 59/59/59 60/60/60 61/61/61
f 59/59/59 61/61/61 62/62/62
f 63/63/63 64/64/64 65/65/65
f 63/63/63 65/65/65 66/66/66
f 67/67/67 68/68/68 69/69/69
f 70/70/70 69/69/69 68/68/68
f 71/71/71 67/67/67 72/72/72
f 69/69/69 72/72/72 67/67/67
f 73/73/73 71/71/71 74/74/74
f 72/72/72 74/74/74 71/71/71
f 68/68/68 73/73/73 70/70/70
f 74/74/74 70/70/70 73/73/73
f 75/75/75 76/76/76 77/77/77
f 77/77/77 78/78/78 75/75/75
f 76/76/76 79/79/79 80/80/80
f 80/80/80 77/77/77 76/76/76
f 79/79/79 81/81/81 82/82/82
f 82/82/82 80/80/80 79/79/79
f 81/81/81 75/75/75 78/78/78
f 78/78/78 82/82/82 81/81/81
f 83/83/83 84/84/84 85/85/85
f 85/85/85 86/86/86 83/83/83
f 87/87/87 88/88/88 85/85/85
f 85/85/85 84/84/84 87/87/87
f 88/88/88 89/89/89 86/86/86
f 86/86/86 85/85/85 88/88/88
f 89/89/89 90/90/90 83/83/83
f 83/83/83 86/86/86 89/89/89
f 91/91/91 92/92/92 93/93/93
f 93/93/93 94/94/94 91/91/91
f 95/95/95 96/96/96 97/97/97
f 97/97/97 98/98/98 95/95/95
f 99/99/99 100/100/100 93/93/93
f 93/93/93 92/92/92 99/99/99
f 101/101/101 102/102/102 103/103/103
f 103/103/103 104/104/104 101/101/101
f 105/105/105 106/106/106 91/91/91
