# Generated from Nova1492 GX by tools/nova1492/GxObjConverter
mtllib datan_common__1_RBack_c8f8683c.mtl
o datan_common__1_RBack_c8f8683c
v -1.716166 -0.275309 0.111932
v -1.851242 -0.06731 0.255121
v -0.993369 0.199579 0.111932
v -1.016439 0.446435 0.255121
v -1.851242 -0.06731 0.255121
v -1.851243 -0.06731 0.541498
v -1.016439 0.446435 0.255121
v -1.016439 0.446435 0.541499
v -1.716166 -0.275309 0.684687
v -0.993369 0.199579 0.684687
v -1.58109 -0.483308 0.541499
v -0.970299 -0.047276 0.541499
v -1.58109 -0.483308 0.255121
v -0.970299 -0.047276 0.255121
v -2.420193 -0.732509 0.111932
v -2.555269 -0.52451 0.255121
v -2.555269 -0.52451 0.255121
v -2.555269 -0.52451 0.541498
v -2.420193 -0.732509 0.684687
v -2.285117 -0.940508 0.541498
v -2.285117 -0.940508 0.255121
v -2.285117 -0.940508 0.541498
v -2.420193 -0.732509 0.684687
v -2.285117 -0.940508 0.255121
v -2.420193 -0.732509 0.111932
v -2.555269 -0.52451 0.255121
v -2.555269 -0.52451 0.541498
v -0.003348 -0.044529 -0.996622
v -0.003348 0.177384 -0.996622
v -0.003349 -0.044529 0.639196
v -0.003349 0.177384 0.639196
v -0.003349 -0.044529 0.639196
v -0.003349 0.177384 0.639196
v -0.641685 -0.117377 0.63886
v -0.579002 0.370877 0.63886
v -0.579002 0.370877 0.63886
v -0.579002 0.370877 -0.998052
v -0.003348 0.177384 -0.996622
v -0.003348 -0.044529 -0.996622
v -0.579002 0.370877 -0.998052
v -0.641685 -0.117377 -0.998052
v -0.641685 -0.117377 -0.998052
v -0.641685 -0.117377 0.63886
v -1.716166 -0.275309 -0.468529
v -1.851242 -0.06731 -0.325341
v -0.993369 0.199579 -0.468529
v -1.016439 0.446435 -0.325341
v -1.851242 -0.06731 -0.325341
v -1.851242 -0.06731 -0.038963
v -1.016439 0.446435 -0.325341
v -1.016439 0.446435 -0.038963
v -1.716166 -0.275309 0.104226
v -0.993369 0.199579 0.104226
v -1.58109 -0.483308 -0.038963
v -0.970299 -0.047276 -0.038963
v -1.58109 -0.483308 -0.325341
v -0.970299 -0.047276 -0.325341
v -2.420193 -0.732509 -0.468529
v -2.555269 -0.52451 -0.325341
v -2.555269 -0.52451 -0.325341
v -2.555269 -0.52451 -0.038963
v -2.420193 -0.732509 0.104226
v -2.285117 -0.940508 -0.038963
v -2.285117 -0.940508 -0.325341
v -2.285117 -0.940508 -0.038963
v -2.420193 -0.732509 0.104226
v -2.285117 -0.940508 -0.325341
v -2.420193 -0.732509 -0.468529
v -2.555269 -0.52451 -0.325341
v -2.555269 -0.52451 -0.038963
v -1.716166 -0.275309 -1.047843
v -1.851242 -0.06731 -0.904654
v -0.993369 0.199579 -1.047843
v -1.016439 0.446435 -0.904654
v -1.851242 -0.06731 -0.904654
v -1.851242 -0.06731 -0.618277
v -1.016439 0.446435 -0.904654
v -1.016439 0.446435 -0.618277
v -1.716166 -0.275309 -0.475088
v -0.993369 0.199579 -0.475088
v -1.58109 -0.483308 -0.618277
v -0.970299 -0.047277 -0.618277
v -1.58109 -0.483308 -0.904654
v -0.970299 -0.047277 -0.904654
v -2.420193 -0.732509 -1.047843
v -2.555269 -0.52451 -0.904654
v -2.555269 -0.52451 -0.904654
v -2.555269 -0.52451 -0.618277
v -2.420193 -0.732509 -0.475088
v -2.285117 -0.940508 -0.618277
v -2.285117 -0.940508 -0.904654
v -2.285117 -0.940508 -0.618277
v -2.420193 -0.732509 -0.475088
v -2.285117 -0.940508 -0.904654
v -2.420193 -0.732509 -1.047843
v -2.555269 -0.52451 -0.904654
v -2.555269 -0.52451 -0.618277
vt 0.218551 0.181599
vt 0.252187 0.181599
vt 0.219083 0.030221
vt 0.25038 0.009565
vt 0.019225 0.181599
vt 0.048416 0.181599
vt 0.017417 0.009565
vt 0.050224 0.009565
vt 0.094965 0.181599
vt 0.094433 0.030221
vt 0.144239 0.181599
vt 0.141662 0.050877
vt 0.1709 0.181599
vt 0.173477 0.050877
vt 0.214723 0.332251
vt 0.252187 0.332251
vt 0.019225 0.332251
vt 0.048416 0.332251
vt 0.094965 0.332251
vt 0.144239 0.332251
vt 0.1709 0.332251
vt 0.100873 0.350569
vt 0.063743 0.414066
vt 0.167673 0.350569
vt 0.208437 0.414066
vt 0.171306 0.48139
vt 0.097045 0.48139
vt 0.353629 0.331969
vt 0.391685 0.331969
vt 0.353629 0.033277
vt 0.391685 0.033277
vt 0.47963 0.372009
vt 0.47963 0.424093
vt 0.265714 0.353655
vt 0.283268 0.472846
vt 0.48248 0.033339
vt 0.48248 0.332233
vt 0.47963 0.424093
vt 0.47963 0.372009
vt 0.287096 0.472846
vt 0.261886 0.349827
vt 0.261524 0.332233
vt 0.261524 0.033339
vt 0.218551 0.181599
vt 0.252187 0.181599
vt 0.219083 0.030221
vt 0.25038 0.009565
vt 0.019225 0.181599
vt 0.048416 0.181599
vt 0.017417 0.009565
vt 0.050224 0.009565
vt 0.094965 0.181599
vt 0.094433 0.030221
vt 0.144239 0.181599
vt 0.141662 0.050877
vt 0.1709 0.181599
vt 0.173477 0.050877
vt 0.214723 0.332251
vt 0.252187 0.332251
vt 0.019225 0.332251
vt 0.048416 0.332251
vt 0.094965 0.332251
vt 0.144239 0.332251
vt 0.1709 0.332251
vt 0.100601 0.350569
vt 0.06347 0.414066
vt 0.168309 0.350569
vt 0.208164 0.414066
vt 0.171034 0.48139
vt 0.096773 0.48139
vt 0.218551 0.181599
vt 0.252187 0.181599
vt 0.219083 0.030221
vt 0.25038 0.009565
vt 0.019225 0.181599
vt 0.048416 0.181599
vt 0.017417 0.009565
vt 0.050224 0.009565
vt 0.094965 0.181599
vt 0.094433 0.030221
vt 0.144239 0.181599
vt 0.141662 0.050877
vt 0.1709 0.181599
vt 0.173477 0.050877
vt 0.214723 0.332251
vt 0.252187 0.332251
vt 0.019225 0.332251
vt 0.048416 0.332251
vt 0.094965 0.332251
vt 0.144239 0.332251
vt 0.1709 0.332251
vt 0.100601 0.350569
vt 0.06347 0.414066
vt 0.168309 0.350569
vt 0.208164 0.414066
vt 0.171034 0.48139
vt 0.096773 0.48139
vn 0.27232 -0.419335 -0.866025
vn -0.272319 0.419335 -0.866025
vn 0.300511 -0.457389 -0.836952
vn -0.283789 0.461139 -0.840723
vn -0.544639 0.838671 -0
vn -0.27232 0.419335 0.866025
vn -0.524112 0.851649 -0
vn -0.300511 0.457389 0.836952
vn 0.272319 -0.419335 0.866025
vn 0.322775 -0.452143 0.831494
vn 0.544639 -0.838671 -0
vn 0.581019 -0.81389 0
vn 0.27232 -0.419335 -0.866025
vn 0.300511 -0.457389 -0.836952
vn 0.27232 -0.419335 -0.866025
vn -0.272319 0.419335 -0.866025
vn -0.544639 0.838671 0
vn -0.27232 0.419335 0.866025
vn 0.27232 -0.419335 0.866025
vn 0.544639 -0.838671 0
vn 0.27232 -0.419335 -0.866025
vn -0.838671 -0.544639 0
vn -0.838671 -0.544639 0
vn -0.838671 -0.544639 0
vn -0.838671 -0.544639 0
vn -0.838671 -0.544639 0
vn -0.838671 -0.544639 0
vn 0.113386 -0.993551 0
vn 0.31861 0.947886 -0
vn 0.113386 -0.993551 0
vn 0.31861 0.947886 -0
vn -0.000526 0 1
vn -0.00056 0.000072 1
vn -0.00056 0.000072 1
vn -0.00056 0.000072 1
vn 0.31861 0.947886 -0
vn 0.31861 0.947886 -0
vn 0.002484 -0 -0.999997
vn 0.002274 -0.000292 -0.999997
vn 0.002274 -0.000292 -0.999997
vn 0.002274 -0.000292 -0.999997
vn 0.113386 -0.993551 0
vn 0.113386 -0.993551 0
vn 0.27232 -0.419335 -0.866026
vn -0.272319 0.419335 -0.866025
vn 0.300511 -0.457389 -0.836952
vn -0.283789 0.461139 -0.840723
vn -0.544639 0.838671 -0
vn -0.27232 0.419335 0.866025
vn -0.524112 0.851649 0
vn -0.300511 0.457389 0.836952
vn 0.272319 -0.419335 0.866025
vn 0.322775 -0.452143 0.831494
vn 0.544639 -0.838671 0
vn 0.581019 -0.81389 0
vn 0.27232 -0.419335 -0.866026
vn 0.300511 -0.457389 -0.836952
vn 0.27232 -0.419335 -0.866026
vn -0.272319 0.419335 -0.866025
vn -0.544639 0.838671 -0
vn -0.27232 0.419335 0.866025
vn 0.272319 -0.419335 0.866026
vn 0.544639 -0.838671 -0
vn 0.27232 -0.419335 -0.866025
vn -0.838671 -0.544639 -0
vn -0.83867 -0.54464 -0.000001
vn -0.838671 -0.544639 -0
vn -0.838671 -0.544639 0.000001
vn -0.83867 -0.54464 -0.000001
vn -0.83867 -0.54464 -0.000001
vn 0.27232 -0.419336 -0.866025
vn -0.27232 0.419336 -0.866025
vn 0.300511 -0.457389 -0.836952
vn -0.283789 0.461139 -0.840723
vn -0.544639 0.838671 -0
vn -0.27232 0.419335 0.866025
vn -0.524113 0.851649 -0
vn -0.300511 0.457389 0.836952
vn 0.27232 -0.419336 0.866025
vn 0.322775 -0.452143 0.831494
vn 0.544639 -0.838671 0
vn 0.581019 -0.81389 0
vn 0.27232 -0.419336 -0.866025
vn 0.300511 -0.457389 -0.836952
vn 0.27232 -0.419336 -0.866025
vn -0.27232 0.419336 -0.866025
vn -0.544639 0.838671 0
vn -0.27232 0.419336 0.866025
vn 0.27232 -0.419336 0.866025
vn 0.544639 -0.838671 -0
vn 0.27232 -0.419335 -0.866025
vn -0.838671 -0.544639 -0
vn -0.838671 -0.544639 0
vn -0.838671 -0.544639 -0
vn -0.838671 -0.544639 0.000001
vn -0.838671 -0.544639 0
vn -0.838671 -0.544639 0
usemtl datan_common__1_RBack_c8f8683c
f 1/1/1 2/2/2 3/3/3
f 4/4/4 3/3/3 2/2/2
f 5/5/5 6/6/6 7/7/7
f 8/8/8 7/7/7 6/6/6
f 6/6/6 9/9/9 8/8/8
f 10/10/10 8/8/8 9/9/9
f 9/9/9 11/11/11 10/10/10
f 12/12/12 10/10/10 11/11/11
f 11/11/11 13/13/13 12/12/12
f 14/14/14 12/12/12 13/13/13
f 13/13/13 1/1/1 14/14/14
f 3/3/3 14/14/14 1/1/1
f 15/15/15 16/16/16 1/1/1
f 2/2/2 1/1/1 16/16/16
f 17/17/17 18/18/18 5/5/5
f 6/6/6 5/5/5 18/18/18
f 18/18/18 19/19/19 6/6/6
f 9/9/9 6/6/6 19/19/19
f 19/19/19 20/20/20 9/9/9
f 11/11/11 9/9/9 20/20/20
f 20/20/20 21/21/21 11/11/11
f 13/13/13 11/11/11 21/21/21
f 21/21/21 15/15/15 13/13/13
f 1/1/1 13/13/13 15/15/15
f 22/22/22 23/23/23 24/24/24
f 25/25/25 24/24/24 26/26/26
f 24/24/24 23/23/23 26/26/26
f 26/26/26 23/23/23 27/27/27
f 28/28/28 29/29/29 30/30/30
f 31/31/31 30/30/30 29/29/29
f 32/32/32 33/33/33 34/34/34
f 35/35/35 34/34/34 33/33/33
f 31/31/31 29/29/29 36/36/36
f 37/37/37 36/36/36 29/29/29
f 38/38/38 39/39/39 40/40/40
f 41/41/41 40/40/40 39/39/39
f 28/28/28 30/30/30 42/42/42
f 43/43/43 42/42/42 30/30/30
f 44/44/44 45/45/45 46/46/46
f 47/47/47 46/46/46 45/45/45
f 48/48/48 49/49/49 50/50/50
f 51/51/51 50/50/50 49/49/49
f 49/49/49 52/52/52 51/51/51
f 53/53/53 51/51/51 52/52/52
f 52/52/52 54/54/54 53/53/53
f 55/55/55 53/53/53 54/54/54
f 54/54/54 56/56/56 55/55/55
f 57/57/57 55/55/55 56/56/56
f 56/56/56 44/44/44 57/57/57
f 46/46/46 57/57/57 44/44/44
f 58/58/58 59/59/59 44/44/44
f 45/45/45 44/44/44 59/59/59
f 60/60/60 61/61/61 48/48/48
f 49/49/49 48/48/48 61/61/61
f 61/61/61 62/62/62 49/49/49
f 52/52/52 49/49/49 62/62/62
f 62/62/62 63/63/63 52/52/52
f 54/54/54 52/52/52 63/63/63
f 63/63/63 64/64/64 54/54/54
f 56/56/56 54/54/54 64/64/64
f 64/64/64 58/58/58 56/56/56
f 44/44/44 56/56/56 58/58/58
f 65/65/65 66/66/66 67/67/67
f 68/68/68 67/67/67 69/69/69
f 67/67/67 66/66/66 69/69/69
f 69/69/69 66/66/66 70/70/70
f 71/71/71 72/72/72 73/73/73
f 74/74/74 73/73/73 72/72/72
f 75/75/75 76/76/76 77/77/77
f 78/78/78 77/77/77 76/76/76
f 76/76/76 79/79/79 78/78/78
f 80/80/80 78/78/78 79/79/79
f 79/79/79 81/81/81 80/80/80
f 82/82/82 80/80/80 81/81/81
f 81/81/81 83/83/83 82/82/82
f 84/84/84 82/82/82 83/83/83
f 83/83/83 71/71/71 84/84/84
f 73/73/73 84/84/84 71/71/71
f 85/85/85 86/86/86 71/71/71
f 72/72/72 71/71/71 86/86/86
f 87/87/87 88/88/88 75/75/75
f 76/76/76 75/75/75 88/88/88
f 88/88/88 89/89/89 76/76/76
f 79/79/79 76/76/76 89/89/89
f 89/89/89 90/90/90 79/79/79
f 81/81/81 79/79/79 90/90/90
f 90/90/90 91/91/91 81/81/81
f 83/83/83 81/81/81 91/91/91
f 91/91/91 85/85/85 83/83/83
f 71/71/71 83/83/83 85/85/85
f 92/92/92 93/93/93 94/94/94
f 95/95/95 94/94/94 96/96/96
f 94/94/94 93/93/93 96/96/96
f 96/96/96 93/93/93 97/97/97
