# Generated from Nova1492 GX by tools/nova1492/GxObjConverter
mtllib datan_common_arm14_hbsz_04ed14da.mtl
o datan_common_arm14_hbsz_04ed14da
v 0.056147 0 -0.064604
v 0.038195 0 0.052558
v -0.038195 0 0.052558
v -0.056147 0 -0.064604
v 0.065325 0.170762 0.006669
v -0.065325 0.170762 0.006669
v -0.044439 0.170762 0.135877
v 0.044439 0.170762 0.135877
v 0.056147 0 -0.064604
v -0.056147 0 -0.064604
v -0.03215 0.091424 -0.039684
v 0.03215 0.091424 -0.039684
v -0.065325 0.170762 0.006669
v 0.065325 0.170762 0.006669
v -0.038195 0 0.052558
v -0.021871 0.082964 0.026991
v -0.044439 0.170762 0.135877
v -0.038195 0 0.052558
v 0.038195 0 0.052558
v 0.021871 0.082964 0.026991
v -0.021871 0.082964 0.026991
v 0.044439 0.170762 0.135877
v -0.044439 0.170762 0.135877
v 0.038195 0 0.052558
v 0.021871 0.082964 0.026991
v 0.044439 0.170762 0.135877
v -0.303874 0.352883 0.512553
v -0.189773 0.421635 0.512553
v -0.189773 0.421635 0.121925
v -0.303874 0.352883 0.121925
v -0.136855 0.585281 0.512553
v -0.136855 0.585281 0.121925
v -0.136855 0.585281 0.512553
v 0.102697 0.585281 0.512553
v 0.102697 0.585281 0.121925
v -0.136855 0.585281 0.121925
v 0.102697 0.585281 0.512553
v 0.155614 0.421635 0.512553
v 0.155614 0.421635 0.121925
v 0.102697 0.585281 0.121925
v 0.269715 0.352883 0.512553
v 0.269715 0.352883 0.121925
v 0.270403 0.141685 0.512553
v 0.270403 0.141685 0.121925
v -0.304561 0.141685 0.512553
v -0.304561 0.141685 0.121925
v 0.270403 0.141685 0.512553
v -0.303874 0.352883 0.512553
v -0.304561 0.141685 0.512553
v -0.189773 0.421635 0.512553
v 0.269715 0.352883 0.512553
v 0.155614 0.421635 0.512553
v 0.102697 0.585281 0.512553
v -0.136855 0.585281 0.512553
v 0.270403 0.141685 0.121925
v -0.304561 0.141685 0.121925
v -0.303874 0.352883 0.121925
v -0.189773 0.421635 0.121925
v 0.269715 0.352883 0.121925
v 0.155614 0.421635 0.121925
v 0.102697 0.585281 0.121925
v -0.136855 0.585281 0.121925
v 0.08888 0.438878 -0.184432
v -0.12768 0.438878 -0.184432
v -0.12768 0.438878 0.123181
v 0.08888 0.438878 0.123181
v 0.08888 0.220131 -0.184432
v -0.12768 0.220131 -0.184432
v -0.12768 0.438878 -0.184432
v 0.08888 0.438878 -0.184432
v -0.148904 0.506026 0.121148
v -0.060611 0.440693 0.121148
v -0.148904 0.506026 -0.187604
v -0.060611 0.440693 -0.187604
v -0.238323 0.442244 0.121148
v -0.238323 0.442244 -0.187604
v -0.205294 0.337492 0.121148
v -0.205294 0.337492 -0.187604
v -0.095463 0.336533 0.121148
v -0.095463 0.336533 -0.187604
v -0.095463 0.336533 0.121148
v -0.238323 0.442244 0.121148
v -0.205294 0.337492 0.121148
v -0.148904 0.506026 0.121148
v -0.060611 0.440693 0.121148
v -0.205294 0.337492 -0.187604
v -0.238323 0.442244 -0.187604
v -0.095463 0.336533 -0.187604
v -0.148904 0.506026 -0.187604
v -0.060611 0.440693 -0.187604
v -0.175272 0.359885 0.121148
v -0.08698 0.294552 0.121148
v -0.175272 0.359885 -0.187604
v -0.08698 0.294552 -0.187604
v -0.264691 0.296103 0.121148
v -0.264691 0.296103 -0.187604
v -0.231663 0.191351 0.121148
v -0.231663 0.191351 -0.187604
v -0.121832 0.190392 0.121148
v -0.121832 0.190392 -0.187604
v -0.121832 0.190392 0.121148
v -0.264691 0.296103 0.121148
v -0.231663 0.191351 0.121148
v -0.175272 0.359885 0.121148
v -0.08698 0.294552 0.121148
v -0.231663 0.191351 -0.187604
v -0.264691 0.296103 -0.187604
v -0.121832 0.190392 -0.187604
v -0.175272 0.359885 -0.187604
v -0.08698 0.294552 -0.187604
v 0.034248 0.440693 0.121148
v 0.12254 0.506026 0.121148
v 0.12254 0.506026 -0.187604
v 0.034248 0.440693 -0.187604
v 0.211959 0.442244 0.121148
v 0.211959 0.442244 -0.187604
v 0.178931 0.337492 0.121148
v 0.178931 0.337492 -0.187604
v 0.069099 0.336533 0.121148
v 0.069099 0.336533 -0.187604
v 0.211959 0.442244 0.121148
v 0.069099 0.336533 0.121148
v 0.178931 0.337492 0.121148
v 0.12254 0.506026 0.121148
v 0.034248 0.440693 0.121148
v 0.211959 0.442244 -0.187604
v 0.178931 0.337492 -0.187604
v 0.069099 0.336533 -0.187604
v 0.12254 0.506026 -0.187604
v 0.034248 0.440693 -0.187604
v 0.060617 0.294552 0.121148
v 0.148909 0.359885 0.121148
v 0.148909 0.359885 -0.187604
v 0.060617 0.294552 -0.187604
v 0.238328 0.296103 0.121148
v 0.238328 0.296103 -0.187604
v 0.2053 0.191351 0.121148
v 0.2053 0.191351 -0.187604
v 0.095468 0.190392 0.121148
v 0.095468 0.190392 -0.187604
v 0.238328 0.296103 0.121148
v 0.095468 0.190392 0.121148
v 0.2053 0.191351 0.121148
v 0.148909 0.359885 0.121148
v 0.060617 0.294552 0.121148
v 0.238328 0.296103 -0.187604
v 0.2053 0.191351 -0.187604
v 0.095468 0.190392 -0.187604
v 0.148909 0.359885 -0.187604
v 0.060617 0.294552 -0.187604
v -0.00699 0.33282 0.780191
v 0.159128 0.45745 0.780111
v 0.094857 0.387601 0.458436
v -0.006157 0.311815 0.470579
v 0.327367 0.335778 0.78003
v 0.197161 0.313614 0.446137
v 0.265225 0.135951 0.78006
v 0.159373 0.192101 0.45068
v 0.058582 0.134122 0.780159
v 0.033716 0.190989 0.465786
v 0.327367 0.335778 0.78003
v 0.058582 0.134122 0.780159
v 0.265225 0.135951 0.78006
v 0.159128 0.45745 0.780111
v -0.00699 0.33282 0.780191
v 0.197161 0.313614 0.446137
v 0.159373 0.192101 0.45068
v 0.033716 0.190989 0.465786
v 0.094857 0.387601 0.458436
v -0.006157 0.311815 0.470579
v -0.044536 0.472833 0.660775
v -0.018395 0.492178 0.661417
v -0.017114 0.533007 0.511559
v -0.081839 0.485112 0.510917
v 0.00808 0.473293 0.662068
v 0.048437 0.486248 0.512209
v -0.001699 0.442276 0.661827
v 0.024225 0.409454 0.511969
v -0.034217 0.441993 0.661029
v -0.05629 0.408751 0.51117
v 0.00808 0.473293 0.662068
v -0.034217 0.441993 0.661029
v -0.001699 0.442276 0.661827
v -0.018395 0.492178 0.661417
v -0.044536 0.472833 0.660775
v -0.182469 0.45745 0.780111
v -0.016351 0.33282 0.780191
v -0.118198 0.387601 0.458436
v -0.017184 0.311815 0.470579
v -0.350708 0.335778 0.78003
v -0.220502 0.313614 0.446137
v -0.288566 0.135951 0.78006
v -0.182714 0.192101 0.45068
v -0.081923 0.134122 0.780159
v -0.057057 0.190989 0.465786
v -0.081923 0.134122 0.780159
v -0.350708 0.335778 0.78003
v -0.288566 0.135951 0.78006
v -0.182469 0.45745 0.780111
v -0.016351 0.33282 0.780191
v -0.182714 0.192101 0.45068
v -0.220502 0.313614 0.446137
v -0.057057 0.190989 0.465786
v -0.118198 0.387601 0.458436
v -0.017184 0.311815 0.470579
vt 0.415996 0.00793
vt 0.351408 0.00793
vt 0.351408 0.00793
vt 0.415996 0.011758
vt 0.374376 0.24207
vt 0.374376 0.24207
vt 0.302754 0.24207
vt 0.302754 0.238242
vt 0.415996 0.012868
vt 0.415996 0.012868
vt 0.408718 0.129742
vt 0.40489 0.129742
vt 0.385154 0.237872
vt 0.385154 0.237872
vt 0.366184 0.012868
vt 0.376865 0.118598
vt 0.33468 0.237872
vt 0.327858 0.013682
vt 0.305305 0.013682
vt 0.310833 0.117858
vt 0.326008 0.117858
vt 0.302754 0.23728
vt 0.333789 0.23728
vt 0.366184 0.012868
vt 0.376865 0.118598
vt 0.33468 0.237872
vt 0.086885 0.395033
vt 0.086878 0.621368
vt 0.16306 0.621351
vt 0.163111 0.395016
vt 0.086876 0.987868
vt 0.163047 0.987851
vt 0.008511 0.978594
vt 0.008511 0.694322
vt 0.079117 0.694322
vt 0.079117 0.978595
vt 0.16754 0.986374
vt 0.167538 0.627101
vt 0.243708 0.627084
vt 0.24371 0.986357
vt 0.163701 0.391456
vt 0.243702 0.391439
vt 0.163701 0.012149
vt 0.243702 0.012132
vt 0.083057 0.015735
vt 0.163112 0.015718
vt 0.005996 0.018773
vt 0.082201 0.2653
vt 0.082222 0.018772
vt 0.063682 0.42266
vt 0.006004 0.265301
vt 0.020701 0.42266
vt 0.025498 0.668409
vt 0.058885 0.668409
vt 0.005996 0.018773
vt 0.082222 0.018772
vt 0.082201 0.2653
vt 0.063682 0.42266
vt 0.006004 0.265301
vt 0.020701 0.42266
vt 0.025498 0.668409
vt 0.058885 0.668409
vt 0.256838 0.764588
vt 0.351782 0.764588
vt 0.351782 0.98711
vt 0.256839 0.98711
vt 0.35764 0.764348
vt 0.492931 0.764348
vt 0.492931 0.986392
vt 0.35764 0.986392
vt 0.845251 0.988118
vt 0.845251 0.895613
vt 0.994059 0.988117
vt 0.994059 0.895613
vt 0.845251 0.897991
vt 0.994059 0.897991
vt 0.845251 0.737398
vt 0.994059 0.737398
vt 0.845251 0.735928
vt 0.994059 0.735928
vt 0.822437 0.735928
vt 0.755941 0.890335
vt 0.773926 0.737398
vt 0.799763 0.988117
vt 0.843152 0.895613
vt 0.773926 0.737398
vt 0.755941 0.890335
vt 0.822437 0.735928
vt 0.799763 0.988117
vt 0.843152 0.895613
vt 0.845251 0.764072
vt 0.845251 0.671568
vt 0.994059 0.764072
vt 0.994059 0.671568
vt 0.845251 0.673946
vt 0.994059 0.673945
vt 0.84525 0.513352
vt 0.994059 0.513352
vt 0.84525 0.511883
vt 0.994059 0.511883
vt 0.822437 0.511883
vt 0.755941 0.666289
vt 0.773926 0.513352
vt 0.799763 0.771728
vt 0.843152 0.671568
vt 0.773926 0.513352
vt 0.755941 0.666289
vt 0.822437 0.511883
vt 0.799763 0.771728
vt 0.843152 0.671568
vt 0.845251 0.895613
vt 0.845251 0.988118
vt 0.994059 0.988117
vt 0.994059 0.895613
vt 0.845251 0.897991
vt 0.994059 0.897991
vt 0.845251 0.737398
vt 0.994059 0.737398
vt 0.845251 0.735928
vt 0.994059 0.735928
vt 0.755941 0.890335
vt 0.822437 0.735928
vt 0.773926 0.737398
vt 0.799763 0.988117
vt 0.843152 0.895613
vt 0.755941 0.890335
vt 0.773926 0.737398
vt 0.822437 0.735928
vt 0.799763 0.988117
vt 0.843152 0.895613
vt 0.845251 0.671568
vt 0.845251 0.764072
vt 0.994059 0.764072
vt 0.994059 0.671568
vt 0.845251 0.673946
vt 0.994059 0.673945
vt 0.84525 0.513352
vt 0.994059 0.513352
vt 0.84525 0.511883
vt 0.994059 0.511883
vt 0.755941 0.666289
vt 0.822437 0.511883
vt 0.773926 0.513352
vt 0.799763 0.771728
vt 0.843152 0.671568
vt 0.755941 0.666289
vt 0.773926 0.513352
vt 0.822437 0.511883
vt 0.799763 0.771728
vt 0.843152 0.671568
vt 0.866004 0.400438
vt 0.866008 0.48043
vt 0.993739 0.43832
vt 0.993726 0.376467
vt 0.866012 0.392796
vt 0.993753 0.376473
vt 0.866011 0.254793
vt 0.993748 0.296453
vt 0.866006 0.254735
vt 0.993732 0.296426
vt 0.860678 0.392301
vt 0.777763 0.256835
vt 0.840173 0.256901
vt 0.810436 0.479191
vt 0.756602 0.389934
vt 0.994059 0.377276
vt 0.993363 0.296938
vt 0.994551 0.295941
vt 0.995677 0.430663
vt 0.993615 0.375664
vt 0.881963 0.129974
vt 0.881948 0.15692
vt 0.993403 0.236819
vt 0.993425 0.149026
vt 0.881933 0.122433
vt 0.993381 0.149096
vt 0.881938 0.078776
vt 0.993389 0.015726
vt 0.881957 0.078679
vt 0.993416 0.015374
vt 0.876409 0.149024
vt 0.781126 0.014937
vt 0.853231 0.014625
vt 0.818087 0.235928
vt 0.756238 0.146012
vt 0.866008 0.48043
vt 0.866004 0.400438
vt 0.993739 0.43832
vt 0.993726 0.376467
vt 0.866012 0.392796
vt 0.993753 0.376473
vt 0.866011 0.254793
vt 0.993748 0.296453
vt 0.866006 0.254735
vt 0.993732 0.296426
vt 0.777763 0.256835
vt 0.860678 0.392301
vt 0.840173 0.256901
vt 0.810436 0.479191
vt 0.756602 0.389934
vt 0.993363 0.296938
vt 0.994059 0.377276
vt 0.994551 0.295941
vt 0.995677 0.430663
vt 0.993615 0.375664
vn 0 -1 -0
vn 0 -1 0
vn 0 -1 -0
vn 0 -1 -0
vn -0 1 0
vn 0 1 -0
vn -0 1 0
vn -0 1 0
vn 0.965748 0.213156 0.147973
vn -0.963035 0.205211 0.174508
vn -0.880837 -0.451501 0.142385
vn 0.900673 -0.426145 0.084788
vn -0.880837 -0.451501 0.142385
vn 0.899679 -0.411617 0.145431
vn -0.960915 0.234448 0.147233
vn -0.928064 -0.359438 0.097475
vn -0.880837 -0.451501 0.142385
vn 0 0.294507 0.955649
vn 0 0.294507 0.955649
vn 0 -0.77846 0.627694
vn 0 -0.77846 0.627694
vn 0 -0.77846 0.627694
vn 0 -0.77846 0.627694
vn 0.953731 0.242454 0.177799
vn 0.899679 -0.411617 0.145431
vn 0.899679 -0.411617 0.145431
vn -0.833208 0.359795 0.419894
vn -0.731376 0.561511 0.387034
vn -0.731376 0.561511 0.387034
vn -0.833208 0.359795 0.419894
vn -0.731376 0.561511 0.387034
vn -0.731376 0.561511 0.387034
vn -0.011201 0.941741 0.336152
vn -0.011201 0.941741 0.336152
vn -0.011201 0.941741 0.336152
vn -0.011201 0.941741 0.336152
vn 0.719034 0.572215 0.394412
vn 0.337814 0.874925 0.34697
vn 0.337814 0.874925 0.34697
vn 0.719034 0.572215 0.394412
vn 0.824345 0.368337 0.429864
vn 0.824345 0.368337 0.429864
vn 0.824345 0.368337 0.429864
vn 0.824345 0.368337 0.429864
vn -0.833208 0.359795 0.419894
vn -0.833208 0.359795 0.419894
vn -0.010849 0.276923 0.960831
vn -0.010849 0.276923 0.960831
vn -0.010849 0.276923 0.960831
vn -0.010849 0.276923 0.960831
vn -0.010849 0.276923 0.960831
vn -0.010849 0.276923 0.960831
vn -0.010849 0.276923 0.960831
vn -0.010849 0.276923 0.960831
vn -0.026108 0.666397 -0.74514
vn -0.026108 0.666397 -0.74514
vn -0.026108 0.666397 -0.74514
vn -0.026108 0.666397 -0.74514
vn -0.026108 0.666398 -0.745139
vn -0.026108 0.666397 -0.74514
vn -0.026108 0.666397 -0.74514
vn -0.026108 0.666397 -0.74514
vn -0.015493 0.998861 -0.045139
vn -0.015493 0.998861 -0.045139
vn -0.015493 0.998861 -0.045139
vn -0.015493 0.998861 -0.045139
vn -0.032974 0.528189 -0.848486
vn -0.032974 0.528189 -0.848486
vn -0.032974 0.528189 -0.848486
vn -0.032974 0.528189 -0.848486
vn -0.497789 0.857525 0.129837
vn 0.987936 0.094549 0.122648
vn -0.497789 0.857525 0.129837
vn 0.987936 0.094549 0.122648
vn -0.964245 0.176066 0.198072
vn -0.964245 0.176066 0.198072
vn -0.964245 0.176066 0.198072
vn -0.964245 0.176066 0.198072
vn 0.987936 0.094549 0.122648
vn 0.987936 0.094549 0.122648
vn -0.163076 0.256093 0.952797
vn -0.163076 0.256093 0.952797
vn -0.163076 0.256093 0.952797
vn -0.163076 0.256093 0.952797
vn -0.163076 0.256093 0.952797
vn -0.189367 0.644674 -0.740632
vn -0.189367 0.644674 -0.740632
vn -0.189367 0.644674 -0.740632
vn -0.189367 0.644674 -0.740632
vn -0.189367 0.644674 -0.740632
vn -0.497789 0.857525 0.129837
vn 0.987936 0.094549 0.122648
vn -0.497789 0.857525 0.129837
vn 0.987936 0.094549 0.122648
vn -0.964245 0.176066 0.198072
vn -0.964245 0.176066 0.198072
vn -0.964245 0.176066 0.198072
vn -0.964245 0.176066 0.198072
vn 0.987936 0.094549 0.122648
vn 0.987936 0.094549 0.122648
vn -0.163076 0.256092 0.952797
vn -0.163077 0.256092 0.952797
vn -0.163076 0.256093 0.952797
vn -0.163076 0.256092 0.952797
vn -0.163076 0.256092 0.952797
vn -0.189367 0.644674 -0.740632
vn -0.189367 0.644674 -0.740632
vn -0.189367 0.644674 -0.740632
vn -0.189367 0.644674 -0.740632
vn -0.189367 0.644674 -0.740632
vn -0.989433 0.088318 0.114989
vn 0.481129 0.866549 0.132695
vn 0.481129 0.866549 0.132695
vn -0.989433 0.088318 0.114989
vn 0.961008 0.183642 0.206734
vn 0.961008 0.183642 0.206734
vn 0.961008 0.183642 0.206734
vn 0.961008 0.183642 0.206734
vn -0.989433 0.088318 0.114989
vn -0.989433 0.088318 0.114989
vn 0.149242 0.2572 0.954765
vn 0.149242 0.2572 0.954765
vn 0.149242 0.2572 0.954765
vn 0.149242 0.2572 0.954765
vn 0.149242 0.2572 0.954765
vn 0.146488 0.649942 -0.745733
vn 0.146488 0.649942 -0.745733
vn 0.146488 0.649942 -0.745733
vn 0.146488 0.649942 -0.745733
vn 0.146488 0.649942 -0.745733
vn -0.989433 0.088318 0.114989
vn 0.481129 0.866549 0.132695
vn 0.481129 0.866549 0.132695
vn -0.989433 0.088318 0.114989
vn 0.961008 0.183642 0.206734
vn 0.961008 0.183642 0.206734
vn 0.961008 0.183642 0.206734
vn 0.961008 0.183642 0.206734
vn -0.989433 0.088318 0.114989
vn -0.989433 0.088318 0.114989
vn 0.149242 0.2572 0.954765
vn 0.149242 0.2572 0.954765
vn 0.149242 0.2572 0.954765
vn 0.149242 0.2572 0.954765
vn 0.149242 0.2572 0.954765
vn 0.146488 0.649942 -0.745733
vn 0.146488 0.649942 -0.745733
vn 0.146488 0.649942 -0.745733
vn 0.146488 0.649942 -0.745733
vn 0.146488 0.649942 -0.745733
vn -0.765202 -0.059574 0.641028
vn 0.523178 0.80098 0.29106
vn 0.523178 0.80098 0.29106
vn -0.765273 -0.060191 0.640886
vn 0.92037 0.052003 0.387577
vn 0.92037 0.052003 0.387577
vn 0.922307 0.061617 0.381515
vn 0.92037 0.052003 0.387577
vn -0.765273 -0.060191 0.640886
vn -0.765273 -0.060191 0.640886
vn 0.07889 0.199238 0.976771
vn 0.07889 0.199238 0.976771
vn 0.07889 0.199238 0.976771
vn 0.07889 0.199238 0.976771
vn 0.07889 0.199238 0.976771
vn 0.068752 0.467535 -0.881297
vn 0.068753 0.467535 -0.881297
vn 0.068753 0.467535 -0.881297
vn 0.068753 0.467535 -0.881297
vn 0.068753 0.467535 -0.881297
vn -0.715712 0.130919 0.686015
vn 0.323339 0.765063 0.556893
vn 0.323339 0.765063 0.556893
vn -0.715836 0.130244 0.686014
vn 0.692967 0.144139 0.706414
vn 0.692967 0.144139 0.706414
vn -0.011711 -0.483897 0.875047
vn -0.011711 -0.483897 0.875047
vn -0.715836 0.130244 0.686014
vn -0.715836 0.130244 0.686014
vn -0.024667 0.29119 0.956347
vn -0.024667 0.29119 0.956347
vn -0.024667 0.29119 0.956347
vn -0.024667 0.29119 0.956347
vn -0.024667 0.29119 0.956347
vn -0.536587 0.793786 0.286318
vn 0.754521 -0.056507 0.653839
vn -0.536587 0.793786 0.286318
vn 0.754592 -0.057133 0.653703
vn -0.925812 0.047187 0.375028
vn -0.925812 0.047187 0.375028
vn -0.927672 0.056585 0.369083
vn -0.925812 0.047187 0.375028
vn 0.754592 -0.057133 0.653703
vn 0.754592 -0.057133 0.653703
vn -0.095196 0.198703 0.975426
vn -0.095196 0.198703 0.975426
vn -0.095196 0.198703 0.975426
vn -0.095196 0.198703 0.975426
vn -0.095196 0.198703 0.975426
vn -0.108247 0.465258 -0.878531
vn -0.108247 0.465258 -0.878531
vn -0.108247 0.465258 -0.878531
vn -0.108247 0.465258 -0.878531
vn -0.108247 0.465258 -0.878531
usemtl datan_common_arm14_hbsz_04ed14da
f 1/1/1 2/2/2 3/3/3
f 3/3/3 4/4/4 1/1/1
f 5/5/5 6/6/6 7/7/7
f 7/7/7 8/8/8 5/5/5
f 9/9/9 10/10/10 11/11/11
f 11/11/11 12/12/12 9/9/9
f 12/12/12 11/11/11 13/13/13
f 13/13/13 14/14/14 12/12/12
f 10/10/10 15/15/15 16/16/16
f 16/16/16 11/11/11 10/10/10
f 11/11/11 16/16/16 17/17/17
f 17/17/17 13/13/13 11/11/11
f 18/18/18 19/19/19 20/20/20
f 20/20/20 21/21/21 18/18/18
f 21/21/21 20/20/20 22/22/22
f 22/22/22 23/23/23 21/21/21
f 24/24/24 9/9/9 12/12/12
f 12/12/12 25/25/25 24/24/24
f 25/25/25 12/12/12 14/14/14
f 14/14/14 26/26/26 25/25/25
f 27/27/27 28/28/28 29/29/29
f 27/27/27 29/29/29 30/30/30
f 28/28/28 31/31/31 32/32/32
f 28/28/28 32/32/32 29/29/29
f 33/33/33 34/34/34 35/35/35
f 33/33/33 35/35/35 36/36/36
f 37/37/37 38/38/38 39/39/39
f 37/37/37 39/39/39 40/40/40
f 38/38/38 41/41/41 42/42/42
f 38/38/38 42/42/42 39/39/39
f 41/41/41 43/43/43 44/44/44
f 41/41/41 44/44/44 42/42/42
f 45/45/45 27/27/27 30/30/30
f 45/45/45 30/30/30 46/46/46
f 47/47/47 48/48/48 49/49/49
f 47/47/47 50/50/50 48/48/48
f 51/51/51 50/50/50 47/47/47
f 52/52/52 50/50/50 51/51/51
f 53/53/53 50/50/50 52/52/52
f 54/54/54 50/50/50 53/53/53
f 55/55/55 56/56/56 57/57/57
f 55/55/55 57/57/57 58/58/58
f 59/59/59 55/55/55 58/58/58
f 60/60/60 59/59/59 58/58/58
f 61/61/61 60/60/60 58/58/58
f 62/62/62 61/61/61 58/58/58
f 63/63/63 64/64/64 65/65/65
f 65/65/65 66/66/66 63/63/63
f 67/67/67 68/68/68 69/69/69
f 69/69/69 70/70/70 67/67/67
f 71/71/71 72/72/72 73/73/73
f 73/73/73 72/72/72 74/74/74
f 75/75/75 71/71/71 76/76/76
f 76/76/76 71/71/71 73/73/73
f 77/77/77 75/75/75 78/78/78
f 78/78/78 75/75/75 76/76/76
f 72/72/72 79/79/79 74/74/74
f 74/74/74 79/79/79 80/80/80
f 81/81/81 82/82/82 83/83/83
f 81/81/81 84/84/84 82/82/82
f 81/81/81 85/85/85 84/84/84
f 86/86/86 87/87/87 88/88/88
f 87/87/87 89/89/89 88/88/88
f 89/89/89 90/90/90 88/88/88
f 91/91/91 92/92/92 93/93/93
f 93/93/93 92/92/92 94/94/94
f 95/95/95 91/91/91 96/96/96
f 96/96/96 91/91/91 93/93/93
f 97/97/97 95/95/95 98/98/98
f 98/98/98 95/95/95 96/96/96
f 92/92/92 99/99/99 94/94/94
f 94/94/94 99/99/99 100/100/100
f 101/101/101 102/102/102 103/103/103
f 101/101/101 104/104/104 102/102/102
f 101/101/101 105/105/105 104/104/104
f 106/106/106 107/107/107 108/108/108
f 107/107/107 109/109/109 108/108/108
f 109/109/109 110/110/110 108/108/108
f 111/111/111 112/112/112 113/113/113
f 111/111/111 113/113/113 114/114/114
f 112/112/112 115/115/115 116/116/116
f 112/112/112 116/116/116 113/113/113
f 115/115/115 117/117/117 118/118/118
f 115/115/115 118/118/118 116/116/116
f 119/119/119 111/111/111 114/114/114
f 119/119/119 114/114/114 120/120/120
f 121/121/121 122/122/122 123/123/123
f 124/124/124 122/122/122 121/121/121
f 125/125/125 122/122/122 124/124/124
f 126/126/126 127/127/127 128/128/128
f 129/129/129 126/126/126 128/128/128
f 130/130/130 129/129/129 128/128/128
f 131/131/131 132/132/132 133/133/133
f 131/131/131 133/133/133 134/134/134
f 132/132/132 135/135/135 136/136/136
f 132/132/132 136/136/136 133/133/133
f 135/135/135 137/137/137 138/138/138
f 135/135/135 138/138/138 136/136/136
f 139/139/139 131/131/131 134/134/134
f 139/139/139 134/134/134 140/140/140
f 141/141/141 142/142/142 143/143/143
f 144/144/144 142/142/142 141/141/141
f 145/145/145 142/142/142 144/144/144
f 146/146/146 147/147/147 148/148/148
f 149/149/149 146/146/146 148/148/148
f 150/150/150 149/149/149 148/148/148
f 151/151/151 152/152/152 153/153/153
f 151/151/151 153/153/153 154/154/154
f 152/152/152 155/155/155 156/156/156
f 152/152/152 156/156/156 153/153/153
f 155/155/155 157/157/157 158/158/158
f 155/155/155 158/158/158 156/156/156
f 159/159/159 151/151/151 154/154/154
f 159/159/159 154/154/154 160/160/160
f 161/161/161 162/162/162 163/163/163
f 164/164/164 162/162/162 161/161/161
f 165/165/165 162/162/162 164/164/164
f 166/166/166 167/167/167 168/168/168
f 169/169/169 166/166/166 168/168/168
f 170/170/170 169/169/169 168/168/168
f 171/171/171 172/172/172 173/173/173
f 171/171/171 173/173/173 174/174/174
f 172/172/172 175/175/175 176/176/176
f 172/172/172 176/176/176 173/173/173
f 175/175/175 177/177/177 178/178/178
f 175/175/175 178/178/178 176/176/176
f 177/177/177 179/179/179 180/180/180
f 177/177/177 180/180/180 178/178/178
f 179/179/179 171/171/171 174/174/174
f 179/179/179 174/174/174 180/180/180
f 181/181/181 182/182/182 183/183/183
f 184/184/184 182/182/182 181/181/181
f 185/185/185 182/182/182 184/184/184
f 186/186/186 187/187/187 188/188/188
f 188/188/188 187/187/187 189/189/189
f 190/190/190 186/186/186 191/191/191
f 191/191/191 186/186/186 188/188/188
f 192/192/192 190/190/190 193/193/193
f 193/193/193 190/190/190 191/191/191
f 187/187/187 194/194/194 189/189/189
f 189/189/189 194/194/194 195/195/195
f 196/196/196 197/197/197 198/198/198
f 196/196/196 199/199/199 197/197/197
f 196/196/196 200/200/200 199/199/199
f 201/201/201 202/202/202 203/203/203
f 202/202/202 204/204/204 203/203/203
f 204/204/204 205/205/205 203/203/203
