# Generated from Nova1492 GX by tools/nova1492/GxObjConverter
mtllib datan_common_luckac_c83d09b9.mtl
o datan_common_luckac_c83d09b9
v 0.207631 0 0
v 0.103816 0.451596 -0.179814
v 0.207631 0.451596 0
v 0.103816 0 -0.179814
v 0.103816 0 -0.179814
v -0.103816 0.451596 -0.179814
v 0.103816 0.451596 -0.179814
v -0.103816 0 -0.179814
v -0.207631 0.451596 0
v -0.207631 0 0
v -0.103816 0.451596 0.179814
v -0.103816 0 0.179814
v 0.103816 0.451596 0.179814
v 0.103816 0 0.179814
v 0.003994 0.810119 -0.008543
v 0.18673 1.100763 -0.008543
v 0.133208 1.100763 -0.137756
v 0.003994 1.100763 -0.191278
v -0.125219 1.100763 -0.137756
v -0.178741 1.100763 -0.008543
v -0.125219 1.100763 0.120671
v 0.003994 1.100763 0.174193
v 0.133208 1.100763 0.120671
v 0.443989 0.9612 -0.008543
v 0.315117 0.9612 -0.319666
v 0.003994 0.9612 -0.448537
v -0.307129 0.9612 -0.319666
v -0.436 0.9612 -0.008543
v -0.307129 0.9612 0.30258
v 0.003994 0.9612 0.431452
v 0.315117 0.9612 0.30258
v 0.443989 0.460756 -0.008543
v 0.315117 0.460756 -0.319666
v 0.003994 0.460756 -0.448537
v -0.307129 0.460756 -0.319666
v -0.436 0.460756 -0.008543
v -0.307129 0.460756 0.30258
v 0.003994 0.460756 0.431452
v 0.315117 0.460756 0.30258
v -0.522783 0.592167 -0.166972
v -0.903167 0.592167 -0.166972
v -0.903167 0.592167 0.10528
v -0.522783 0.592167 0.10528
v -0.522783 0.456438 -0.166972
v -0.903167 0.456438 -0.166972
v -0.903167 0.592167 -0.166972
v -0.522783 0.592167 -0.166972
v -0.903167 0.456438 -0.166972
v -0.903167 0.456438 0.10528
v -0.903167 0.592167 0.10528
v -0.903167 0.592167 -0.166972
v -0.903167 0.456438 0.10528
v -0.522783 0.456438 0.10528
v -0.522783 0.592167 0.10528
v -0.903167 0.592167 0.10528
v -0.522783 0.456438 0.10528
v -0.522783 0.456438 -0.166972
v -0.522783 0.592167 -0.166972
v -0.522783 0.592167 0.10528
v -0.379394 0.552167 -0.111972
v -0.529778 0.552167 -0.111972
v -0.529778 0.552167 0.05028
v -0.379394 0.552167 0.05028
v -0.379394 0.456438 -0.111972
v -0.529778 0.456438 -0.111972
v -0.529778 0.552167 -0.111972
v -0.379394 0.552167 -0.111972
v -0.529778 0.456438 0.05028
v -0.379394 0.456438 0.05028
v -0.379394 0.552167 0.05028
v -0.529778 0.552167 0.05028
v 0.387383 0.552167 0.05028
v 0.537767 0.552167 0.05028
v 0.537767 0.552167 -0.111972
v 0.387383 0.552167 -0.111972
v 0.387383 0.456438 0.05028
v 0.537767 0.456438 0.05028
v 0.537767 0.552167 0.05028
v 0.387383 0.552167 0.05028
v 0.537767 0.456438 -0.111972
v 0.387383 0.456438 -0.111972
v 0.387383 0.552167 -0.111972
v 0.537767 0.552167 -0.111972
v 0.530771 0.592167 0.10528
v 0.911155 0.592167 0.10528
v 0.911155 0.592167 -0.166972
v 0.530771 0.592167 -0.166972
v 0.530771 0.456438 0.10528
v 0.911155 0.456438 0.10528
v 0.911155 0.592167 0.10528
v 0.530771 0.592167 0.10528
v 0.911155 0.456438 0.10528
v 0.911155 0.456438 -0.166972
v 0.911155 0.592167 -0.166972
v 0.911155 0.592167 0.10528
v 0.911155 0.456438 -0.166972
v 0.530771 0.456438 -0.166972
v 0.530771 0.592167 -0.166972
v 0.911155 0.592167 -0.166972
v 0.530771 0.456438 -0.166972
v 0.530771 0.456438 0.10528
v 0.530771 0.592167 0.10528
v 0.530771 0.592167 -0.166972
v -0.129953 0.813854 -0.34842
v 0.137732 0.813854 -0.34842
v 0.122334 0.768081 -0.764868
v -0.114556 0.768081 -0.764868
v 0.206737 0.744849 -0.34842
v 0.1834 0.464744 -0.764868
v 0.1834 0.699077 -0.764868
v 0.206737 0.464744 -0.34842
v -0.175622 0.464744 -0.764868
v -0.198958 0.464744 -0.34842
v -0.198958 0.744849 -0.34842
v -0.175622 0.699077 -0.764868
v 0.101412 0.464744 -0.545738
v 0.101412 0.743493 -0.545738
v -0.093634 0.464744 -0.545738
v -0.093634 0.743493 -0.545738
v 0.101412 0.743493 -0.545738
v 0.101412 0.464744 -0.545738
v -0.093634 0.464744 -0.545738
v -0.093634 0.743493 -0.545738
v -0.184972 0.092049 -0.031278
v -0.119574 0.092049 -0.144551
v -0.655892 -0 -0.427691
v -0.698337 -0 -0.354174
v -0.104532 -0 -0.170604
v -0.200014 -0 -0.005225
v 0.119574 0.092049 -0.144551
v 0.184972 0.092049 -0.031278
v 0.698337 -0 -0.354174
v 0.655892 -0 -0.42769
v 0.200013 -0 -0.005225
v 0.104532 -0 -0.170604
v 0.065398 0.092049 0.17583
v -0.065398 0.092049 0.17583
v -0.042445 -0 0.781864
v 0.042445 -0 0.781864
v -0.095481 -0 0.17583
v 0.095481 -0 0.17583
vt 0.874922 0.011695
vt 0.94303 0.113305
vt 0.874922 0.113305
vt 0.950686 0.011695
vt 0.503984 0.011695
vt 0.549314 0.113305
vt 0.503984 0.113305
vt 0.55697 0.011695
vt 0.632734 0.113305
vt 0.632734 0.011695
vt 0.708499 0.113305
vt 0.708499 0.011695
vt 0.799158 0.113305
vt 0.799158 0.011695
vt 0.253828 0.753828
vt 0.346655 0.753828
vt 0.317224 0.817224
vt 0.246172 0.854311
vt 0.17512 0.824881
vt 0.145689 0.753828
vt 0.17512 0.682776
vt 0.246172 0.653345
vt 0.317224 0.682776
vt 0.488117 0.753828
vt 0.417253 0.917253
vt 0.246172 0.988118
vt 0.082747 0.92491
vt 0.011883 0.753828
vt 0.075091 0.582747
vt 0.246172 0.511883
vt 0.417253 0.582747
vt 0.488117 0.753828
vt 0.417253 0.917253
vt 0.246172 0.988118
vt 0.082747 0.92491
vt 0.011883 0.753828
vt 0.075091 0.582747
vt 0.246172 0.511883
vt 0.417253 0.582747
vt 0.988117 0.988242
vt 0.511883 0.988242
vt 0.511883 0.761758
vt 0.988117 0.761758
vt 0.988117 0.988242
vt 0.511883 0.988242
vt 0.511883 0.761758
vt 0.988117 0.761758
vt 0.988117 0.988242
vt 0.511883 0.988242
vt 0.511883 0.761758
vt 0.988117 0.761758
vt 0.988117 0.988242
vt 0.511883 0.988242
vt 0.511883 0.761758
vt 0.988117 0.761758
vt 0.988117 0.988242
vt 0.511883 0.988242
vt 0.511883 0.761758
vt 0.988117 0.761758
vt 0.511883 0.011695
vt 0.988117 0.011695
vt 0.988117 0.113305
vt 0.511883 0.113305
vt 0.511883 0.011695
vt 0.988117 0.011695
vt 0.988117 0.113305
vt 0.511883 0.113305
vt 0.511883 0.011695
vt 0.988117 0.011695
vt 0.988117 0.113305
vt 0.511883 0.113305
vt 0.511883 0.011695
vt 0.988117 0.011695
vt 0.988117 0.113305
vt 0.511883 0.113305
vt 0.511883 0.011695
vt 0.988117 0.011695
vt 0.988117 0.113305
vt 0.511883 0.113305
vt 0.511883 0.011695
vt 0.988117 0.011695
vt 0.988117 0.113305
vt 0.511883 0.113305
vt 0.511883 0.761758
vt 0.988117 0.761758
vt 0.988117 0.988242
vt 0.511883 0.988242
vt 0.511883 0.761758
vt 0.988117 0.761758
vt 0.988117 0.988242
vt 0.511883 0.988242
vt 0.511883 0.761758
vt 0.988117 0.761758
vt 0.988117 0.988242
vt 0.511883 0.988242
vt 0.511883 0.761758
vt 0.988117 0.761758
vt 0.988117 0.988242
vt 0.511883 0.988242
vt 0.511883 0.761758
vt 0.988117 0.761758
vt 0.988117 0.988242
vt 0.511883 0.988242
vt 0.671113 0.261758
vt 0.828887 0.261758
vt 0.819371 0.488242
vt 0.680629 0.488242
vt 0.879189 0.261758
vt 0.960283 0.488242
vt 0.864767 0.488242
vt 0.988118 0.261758
vt 0.539717 0.488242
vt 0.511883 0.261758
vt 0.620812 0.261758
vt 0.64289 0.488242
vt 0.988118 0.261758
vt 0.879189 0.261758
vt 0.511883 0.261758
vt 0.628468 0.261758
vt 0.488117 0.011883
vt 0.488117 0.488118
vt 0.011883 0.488118
vt 0.011883 0.011883
vt 0.588112 0.261758
vt 0.911888 0.261758
vt 0.853726 0.488242
vt 0.646275 0.488242
vt 0.988117 0.261758
vt 0.511883 0.261758
vt 0.588112 0.261758
vt 0.911888 0.261758
vt 0.853726 0.488242
vt 0.646275 0.488242
vt 0.988117 0.261758
vt 0.511883 0.261758
vt 0.588112 0.261758
vt 0.911888 0.261758
vt 0.853726 0.488242
vt 0.646275 0.488242
vt 0.988118 0.261758
vt 0.511883 0.261758
vn 0.981981 0 -0.188982
vn 0.866025 0 -0.5
vn 0.981981 0 0.188982
vn 0.866025 0 -0.5
vn 0 0 -1
vn -0.327327 0 -0.944911
vn 0 0 -1
vn -0.654654 0 -0.755929
vn -0.981981 0 -0.188982
vn -0.981981 0 0.188982
vn -0.654654 -0 0.755929
vn -0.327327 -0 0.944911
vn 0.327327 -0 0.944911
vn 0.654654 0 0.755929
vn -0 1 0
vn -0.05395 0.997093 -0.053796
vn -0.076188 0.997093 0.000109
vn -0.053796 0.997093 0.05395
vn 0.000109 0.997093 0.076188
vn 0.05395 0.997093 0.053796
vn 0.076188 0.997093 -0.000109
vn 0.053796 0.997093 -0.05395
vn -0.000109 0.997093 -0.076188
vn 0.849418 0.526319 -0.038433
vn 0.573453 0.526319 -0.627806
vn -0.038434 0.526319 -0.849418
vn -0.627806 0.526319 -0.573453
vn -0.849418 0.526319 0.038434
vn -0.573453 0.526319 0.627806
vn 0.038434 0.526319 0.849418
vn 0.627806 0.526319 0.573453
vn 0.990602 0 0.136774
vn 0.797175 0 -0.603748
vn 0.136774 0 -0.990602
vn -0.603748 0 -0.797175
vn -0.990602 0 -0.136774
vn -0.797175 0 0.603748
vn -0.136774 0 0.990602
vn 0.603748 0 0.797175
vn 0 1 0
vn 0 1 0
vn 0 1 0
vn 0 1 0
vn 0 0 -1
vn 0 0 -1
vn 0 0 -1
vn 0 0 -1
vn -1 0 0
vn -1 0 0
vn -1 0 0
vn -1 0 0
vn -0 0 1
vn -0 0 1
vn -0 0 1
vn -0 0 1
vn 1 0 0
vn 1 0 0
vn 1 0 0
vn 1 0 0
vn 0 1 0
vn 0 1 0
vn 0 1 0
vn 0 1 0
vn 0 0 -1
vn 0 0 -1
vn 0 0 -1
vn 0 0 -1
vn -0 0 1
vn -0 0 1
vn -0 0 1
vn -0 0 1
vn 0 1 0
vn 0 1 0
vn 0 1 0
vn 0 1 0
vn 0 0 1
vn 0 0 1
vn 0 0 1
vn 0 0 1
vn 0 0 -1
vn 0 0 -1
vn 0 0 -1
vn 0 0 -1
vn 0 1 0
vn 0 1 0
vn 0 1 0
vn 0 1 0
vn 0 0 1
vn 0 0 1
vn 0 0 1
vn 0 0 1
vn 1 0 0
vn 1 0 0
vn 1 0 0
vn 1 0 0
vn 0 0 -1
vn 0 0 -1
vn 0 0 -1
vn 0 0 -1
vn -1 0 0
vn -1 0 0
vn -1 0 0
vn -1 0 0
vn -0.393863 0.911513 -0.118391
vn 0.519908 0.846167 -0.117035
vn 0.001998 0.974039 -0.22637
vn -0.00386 0.942536 -0.334084
vn 0.964548 0.250964 -0.081634
vn 0.916647 0 -0.399697
vn -0.126344 0.529705 -0.838719
vn 0.998434 0 -0.055949
vn -0.916647 0 -0.399697
vn -0.998434 0 -0.055949
vn -0.964548 0.250964 -0.081634
vn 0.126344 0.529705 -0.838719
vn -0.93659 -0 -0.350428
vn -0.898107 -0.351068 -0.264869
vn 0.93659 -0 -0.350428
vn 0.898107 -0.351068 -0.264869
vn 0 0 -1
vn 0 0 -1
vn 0 0 -1
vn 0 0 -1
vn -0.321586 0.913004 0.25101
vn 0.167368 0.79946 -0.576932
vn 0.056588 0.913004 -0.404007
vn -0.415954 0.79946 0.433411
vn 0.401835 0.309578 -0.861795
vn -0.545418 0.309578 0.778897
vn -0.056588 0.913004 -0.404007
vn 0.415954 0.79946 0.433411
vn 0.321586 0.913004 0.25101
vn -0.167368 0.79946 -0.576932
vn 0.545418 0.309578 0.778897
vn -0.401835 0.309578 -0.861795
vn 0.378174 0.913004 0.152997
vn -0.583322 0.79946 0.143521
vn -0.378174 0.913004 0.152997
vn 0.583322 0.79946 0.143521
vn -0.947254 0.309578 0.082898
vn 0.947254 0.309578 0.082898
usemtl datan_common_luckac_c83d09b9
f 1/1/1 2/2/2 3/3/3
f 1/1/1 4/4/4 2/2/2
f 5/5/5 6/6/6 7/7/7
f 5/5/5 8/8/8 6/6/6
f 8/8/8 9/9/9 6/6/6
f 8/8/8 10/10/10 9/9/9
f 10/10/10 11/11/11 9/9/9
f 10/10/10 12/12/12 11/11/11
f 12/12/12 13/13/13 11/11/11
f 12/12/12 14/14/14 13/13/13
f 14/14/14 3/3/3 13/13/13
f 14/14/14 1/1/1 3/3/3
f 15/15/15 16/16/16 17/17/17
f 15/15/15 17/17/17 18/18/18
f 15/15/15 18/18/18 19/19/19
f 15/15/15 19/19/19 20/20/20
f 15/15/15 20/20/20 21/21/21
f 15/15/15 21/21/21 22/22/22
f 15/15/15 22/22/22 23/23/23
f 15/15/15 23/23/23 16/16/16
f 16/16/16 24/24/24 25/25/25
f 16/16/16 25/25/25 17/17/17
f 17/17/17 25/25/25 26/26/26
f 17/17/17 26/26/26 18/18/18
f 18/18/18 26/26/26 27/27/27
f 18/18/18 27/27/27 19/19/19
f 19/19/19 27/27/27 28/28/28
f 19/19/19 28/28/28 20/20/20
f 20/20/20 28/28/28 29/29/29
f 20/20/20 29/29/29 21/21/21
f 21/21/21 29/29/29 30/30/30
f 21/21/21 30/30/30 22/22/22
f 22/22/22 30/30/30 31/31/31
f 22/22/22 31/31/31 23/23/23
f 23/23/23 31/31/31 24/24/24
f 23/23/23 24/24/24 16/16/16
f 24/24/24 32/32/32 33/33/33
f 24/24/24 33/33/33 25/25/25
f 25/25/25 33/33/33 34/34/34
f 25/25/25 34/34/34 26/26/26
f 26/26/26 34/34/34 35/35/35
f 26/26/26 35/35/35 27/27/27
f 27/27/27 35/35/35 36/36/36
f 27/27/27 36/36/36 28/28/28
f 28/28/28 36/36/36 37/37/37
f 28/28/28 37/37/37 29/29/29
f 29/29/29 37/37/37 38/38/38
f 29/29/29 38/38/38 30/30/30
f 30/30/30 38/38/38 39/39/39
f 30/30/30 39/39/39 31/31/31
f 31/31/31 39/39/39 32/32/32
f 31/31/31 32/32/32 24/24/24
f 40/40/40 41/41/41 42/42/42
f 42/42/42 43/43/43 40/40/40
f 44/44/44 45/45/45 46/46/46
f 46/46/46 47/47/47 44/44/44
f 48/48/48 49/49/49 50/50/50
f 50/50/50 51/51/51 48/48/48
f 52/52/52 53/53/53 54/54/54
f 54/54/54 55/55/55 52/52/52
f 56/56/56 57/57/57 58/58/58
f 58/58/58 59/59/59 56/56/56
f 60/60/60 61/61/61 62/62/62
f 62/62/62 63/63/63 60/60/60
f 64/64/64 65/65/65 66/66/66
f 66/66/66 67/67/67 64/64/64
f 68/68/68 69/69/69 70/70/70
f 70/70/70 71/71/71 68/68/68
f 72/72/72 73/73/73 74/74/74
f 74/74/74 75/75/75 72/72/72
f 76/76/76 77/77/77 78/78/78
f 78/78/78 79/79/79 76/76/76
f 80/80/80 81/81/81 82/82/82
f 82/82/82 83/83/83 80/80/80
f 84/84/84 85/85/85 86/86/86
f 86/86/86 87/87/87 84/84/84
f 88/88/88 89/89/89 90/90/90
f 90/90/90 91/91/91 88/88/88
f 92/92/92 93/93/93 94/94/94
f 94/94/94 95/95/95 92/92/92
f 96/96/96 97/97/97 98/98/98
f 98/98/98 99/99/99 96/96/96
f 100/100/100 101/101/101 102/102/102
f 102/102/102 103/103/103 100/100/100
f 104/104/104 105/105/105 106/106/106
f 106/106/106 107/107/107 104/104/104
f 108/108/108 109/109/109 110/110/110
f 109/109/109 108/108/108 111/111/111
f 112/112/112 113/113/113 114/114/114
f 114/114/114 115/115/115 112/112/112
f 105/105/105 108/108/108 110/110/110
f 110/110/110 106/106/106 105/105/105
f 114/114/114 104/104/104 115/115/115
f 107/107/107 115/115/115 104/104/104
f 109/109/109 116/116/116 110/110/110
f 117/117/117 110/110/110 116/116/116
f 118/118/118 112/112/112 115/115/115
f 115/115/115 119/119/119 118/118/118
f 106/106/106 110/110/110 117/117/117
f 107/107/107 119/119/119 115/115/115
f 120/120/120 121/121/121 122/122/122
f 120/120/120 122/122/122 123/123/123
f 124/124/124 125/125/125 126/126/126
f 126/126/126 127/127/127 124/124/124
f 126/126/126 125/125/125 128/128/128
f 127/127/127 129/129/129 124/124/124
f 130/130/130 131/131/131 132/132/132
f 132/132/132 133/133/133 130/130/130
f 132/132/132 131/131/131 134/134/134
f 133/133/133 135/135/135 130/130/130
f 136/136/136 137/137/137 138/138/138
f 138/138/138 139/139/139 136/136/136
f 138/138/138 137/137/137 140/140/140
f 139/139/139 141/141/141 136/136/136
