# Generated from Nova1492 GX by tools/nova1492/GxObjConverter
mtllib datan_common_d559fa93.mtl
o datan_common_d559fa93
v 22.88705 2.809407 0.000038
v 18.67611 4.283519 0.000019
v 22.88576 2.809407 1.014968
v 18.86269 4.366491 1.437791
v 22.88705 -2.854061 0.000038
v 22.88705 2.809407 0.000038
v 22.88576 -2.854061 1.014969
v 22.88576 2.809407 1.014968
v 18.67612 -4.335342 0.00002
v 22.88705 -2.854061 0.000038
v 18.86268 -4.418116 1.437793
v 22.88576 -2.854061 1.014969
v 18.67611 4.283519 0.000019
v 18.67612 -4.335342 0.00002
v 18.86269 4.366491 1.437791
v 18.86268 -4.418116 1.437793
v 19.40709 -3.760592 1.886849
v 22.44661 -2.531648 1.567397
v 19.40709 3.734461 1.886848
v 22.44661 2.510994 1.567396
v 22.88576 2.809407 1.014968
v 18.86269 4.366491 1.437791
v 22.44661 2.510994 1.567396
v 19.40709 3.734461 1.886848
v 22.44661 2.510994 1.567396
v 18.86269 4.366491 1.437791
v 22.88576 -2.854061 1.014969
v 22.88576 2.809407 1.014968
v 22.44661 -2.531648 1.567397
v 22.44661 2.510994 1.567396
v 22.44661 -2.531648 1.567397
v 22.88576 2.809407 1.014968
v 18.86268 -4.418116 1.437793
v 22.88576 -2.854061 1.014969
v 19.40709 -3.760592 1.886849
v 22.44661 -2.531648 1.567397
v 19.40709 -3.760592 1.886849
v 22.88576 -2.854061 1.014969
v 18.86269 4.366491 1.437791
v 18.86268 -4.418116 1.437793
v 19.40709 3.734461 1.886848
v 19.40709 -3.760592 1.886849
v 19.40709 3.734461 1.886848
v 18.86268 -4.418116 1.437793
v 22.88576 2.809407 -1.014934
v 18.67611 4.283519 0.000011
v 22.88705 2.809407 -0.000004
v 18.86269 4.366491 -1.437761
v 22.88576 -2.854061 -1.014934
v 22.88705 2.809407 -0.000004
v 22.88705 -2.854061 -0.000003
v 22.88576 2.809407 -1.014934
v 18.86268 -4.418116 -1.437762
v 22.88705 -2.854061 -0.000003
v 18.67611 -4.335342 0.000012
v 22.88576 -2.854061 -1.014934
v 18.86269 4.366491 -1.437761
v 18.67611 -4.335342 0.000012
v 18.67611 4.283519 0.000011
v 18.86268 -4.418116 -1.437762
v 19.40709 3.734461 -1.886817
v 22.44661 -2.531648 -1.567362
v 19.40709 -3.760592 -1.886817
v 22.44661 2.510994 -1.567362
v 22.44661 2.510994 -1.567362
v 18.86269 4.366491 -1.437761
v 22.88576 2.809407 -1.014934
v 18.86269 4.366491 -1.437761
v 22.44661 2.510994 -1.567362
v 19.40709 3.734461 -1.886817
v 22.44661 -2.531648 -1.567362
v 22.88576 2.809407 -1.014934
v 22.88576 -2.854061 -1.014934
v 22.88576 2.809407 -1.014934
v 22.44661 -2.531648 -1.567362
v 22.44661 2.510994 -1.567362
v 19.40709 -3.760592 -1.886817
v 22.88576 -2.854061 -1.014934
v 18.86268 -4.418116 -1.437762
v 22.88576 -2.854061 -1.014934
v 19.40709 -3.760592 -1.886817
v 22.44661 -2.531648 -1.567362
v 19.40709 3.734461 -1.886817
v 18.86268 -4.418116 -1.437762
v 18.86269 4.366491 -1.437761
v 18.86268 -4.418116 -1.437762
v 19.40709 3.734461 -1.886817
v 19.40709 -3.760592 -1.886817
vt 0.253415 1.008627
vt 0.139759 0.661897
vt 0.253415 0.999737
vt 0.118163 0.664817
vt 0.745358 1.008626
vt 0.253415 1.008627
vt 0.745358 0.999737
vt 0.253415 0.999737
vt 0.859621 0.661897
vt 0.745358 1.008626
vt 0.881216 0.664816
vt 0.745358 0.999737
vt 0.139759 0.661897
vt 0.859621 0.661897
vt 0.118163 0.664817
vt 0.881216 0.664816
vt 0.831428 0.698165
vt 0.722626 0.966387
vt 0.167868 0.698166
vt 0.276185 0.966387
vt 0.253415 0.999737
vt 0.118163 0.664817
vt 0.276185 0.966387
vt 0.167868 0.698166
vt 0.276185 0.966387
vt 0.118163 0.664817
vt 0.745358 0.999737
vt 0.253415 0.999737
vt 0.722626 0.966387
vt 0.276185 0.966387
vt 0.722626 0.966387
vt 0.253415 0.999737
vt 0.881216 0.664816
vt 0.745358 0.999737
vt 0.831428 0.698165
vt 0.722626 0.966387
vt 0.831428 0.698165
vt 0.745358 0.999737
vt 0.118163 0.664817
vt 0.881216 0.664816
vt 0.167868 0.698166
vt 0.831428 0.698165
vt 0.167868 0.698166
vt 0.881216 0.664816
vt 0.746585 0.999394
vt 0.860241 0.650861
vt 0.746585 0.9995
vt 0.881838 0.666308
vt 0.254642 0.999393
vt 0.746585 0.9995
vt 0.254642 0.9995
vt 0.746585 0.999394
vt 0.118784 0.666307
vt 0.254642 0.9995
vt 0.140379 0.650861
vt 0.254642 0.999393
vt 0.881838 0.666308
vt 0.140379 0.650861
vt 0.860241 0.650861
vt 0.118784 0.666307
vt 0.832132 0.703832
vt 0.277374 0.970584
vt 0.168572 0.703831
vt 0.723815 0.970584
vt 0.723815 0.970584
vt 0.881838 0.666308
vt 0.746585 0.999394
vt 0.881838 0.666308
vt 0.723815 0.970584
vt 0.832132 0.703832
vt 0.277374 0.970584
vt 0.746585 0.999394
vt 0.254642 0.999393
vt 0.746585 0.999394
vt 0.277374 0.970584
vt 0.723815 0.970584
vt 0.168572 0.703831
vt 0.254642 0.999393
vt 0.118784 0.666307
vt 0.254642 0.999393
vt 0.168572 0.703831
vt 0.277374 0.970584
vt 0.832132 0.703832
vt 0.118784 0.666307
vt 0.881838 0.666308
vt 0.118784 0.666307
vt 0.832132 0.703832
vt 0.168572 0.703831
vn 0.330407 0.943839 0.00042
vn 0.340691 0.938874 -0.049446
vn 0.340691 0.938874 -0.049446
vn 0.350084 0.931453 -0.099182
vn 0.999999 -0 0.001272
vn 0.999999 -0.000001 0.001271
vn 0.999999 -0.000001 0.001271
vn 0.999999 -0.000001 0.00127
vn 0.330276 -0.938896 -0.096909
vn 0.346792 -0.936698 -0.048288
vn 0.346792 -0.936698 -0.048288
vn 0.362392 -0.932026 0.000461
vn -0.991685 -0 0.128686
vn -0.991686 0 0.128683
vn -0.991686 0 0.128683
vn -0.991686 0.000001 0.128679
vn 0.104524 0 0.994522
vn 0.104524 0 0.994522
vn 0.104524 0 0.994522
vn 0.104524 0 0.994522
vn 0.334943 0.691643 0.639877
vn 0.334943 0.691643 0.639877
vn 0.334943 0.691643 0.639877
vn 0.353876 0.724807 0.591124
vn 0.353876 0.724807 0.591124
vn 0.353876 0.724807 0.591124
vn 0.782794 -0 0.622281
vn 0.782794 -0 0.622281
vn 0.782794 -0 0.622281
vn 0.782794 -0.000001 0.622281
vn 0.782794 -0.000001 0.622281
vn 0.782794 -0.000001 0.622281
vn 0.339732 -0.705818 0.621613
vn 0.339732 -0.705818 0.621613
vn 0.339732 -0.705818 0.621613
vn 0.339996 -0.669134 0.660805
vn 0.339996 -0.669134 0.660805
vn 0.339996 -0.669134 0.660805
vn -0.636316 0.000001 0.771429
vn -0.636316 0.000001 0.771429
vn -0.636316 0.000001 0.771429
vn -0.636315 0.000001 0.771429
vn -0.636315 0.000001 0.771429
vn -0.636315 0.000001 0.771429
vn 0.340691 0.938874 0.049446
vn 0.340691 0.938874 0.049446
vn 0.330407 0.943839 -0.00042
vn 0.350084 0.931453 0.099182
vn 0.999999 -0.000001 -0.00127
vn 0.999999 -0.000001 -0.00127
vn 0.999999 -0.000001 -0.00127
vn 0.999999 -0.000001 -0.00127
vn 0.346792 -0.936698 0.048288
vn 0.346792 -0.936698 0.048288
vn 0.330276 -0.938896 0.096909
vn 0.362392 -0.932026 -0.00046
vn -0.991686 0.000001 -0.128685
vn -0.991686 0.000001 -0.128685
vn -0.991685 -0 -0.128689
vn -0.991686 0.000001 -0.12868
vn 0.104525 -0 -0.994522
vn 0.104525 -0 -0.994522
vn 0.104525 -0 -0.994522
vn 0.104525 -0 -0.994522
vn 0.334944 0.691643 -0.639877
vn 0.334944 0.691643 -0.639877
vn 0.334944 0.691643 -0.639877
vn 0.353877 0.724807 -0.591123
vn 0.353877 0.724807 -0.591123
vn 0.353877 0.724807 -0.591123
vn 0.782794 -0.000001 -0.622281
vn 0.782794 -0.000001 -0.622281
vn 0.782794 -0.000001 -0.622281
vn 0.782794 -0.000001 -0.622281
vn 0.782794 -0.000001 -0.622281
vn 0.782794 -0.000001 -0.622281
vn 0.339733 -0.705818 -0.621613
vn 0.339733 -0.705818 -0.621613
vn 0.339733 -0.705818 -0.621613
vn 0.339996 -0.669134 -0.660804
vn 0.339996 -0.669134 -0.660804
vn 0.339996 -0.669134 -0.660804
vn -0.636315 0.000001 -0.771429
vn -0.636315 0.000001 -0.771429
vn -0.636315 0.000001 -0.771429
vn -0.636315 0.000001 -0.77143
vn -0.636315 0.000001 -0.77143
vn -0.636315 0.000001 -0.77143
usemtl datan_common_d559fa93
f 1/1/1 2/2/2 3/3/3
f 3/3/3 2/2/2 4/4/4
f 5/5/5 6/6/6 7/7/7
f 7/7/7 6/6/6 8/8/8
f 9/9/9 10/10/10 11/11/11
f 11/11/11 10/10/10 12/12/12
f 13/13/13 14/14/14 15/15/15
f 15/15/15 14/14/14 16/16/16
f 17/17/17 18/18/18 19/19/19
f 18/18/18 20/20/20 19/19/19
f 21/21/21 22/22/22 23/23/23
f 24/24/24 25/25/25 26/26/26
f 27/27/27 28/28/28 29/29/29
f 30/30/30 31/31/31 32/32/32
f 33/33/33 34/34/34 35/35/35
f 36/36/36 37/37/37 38/38/38
f 39/39/39 40/40/40 41/41/41
f 42/42/42 43/43/43 44/44/44
f 45/45/45 46/46/46 47/47/47
f 48/48/48 46/46/46 45/45/45
f 49/49/49 50/50/50 51/51/51
f 52/52/52 50/50/50 49/49/49
f 53/53/53 54/54/54 55/55/55
f 56/56/56 54/54/54 53/53/53
f 57/57/57 58/58/58 59/59/59
f 60/60/60 58/58/58 57/57/57
f 61/61/61 62/62/62 63/63/63
f 61/61/61 64/64/64 62/62/62
f 65/65/65 66/66/66 67/67/67
f 68/68/68 69/69/69 70/70/70
f 71/71/71 72/72/72 73/73/73
f 74/74/74 75/75/75 76/76/76
f 77/77/77 78/78/78 79/79/79
f 80/80/80 81/81/81 82/82/82
f 83/83/83 84/84/84 85/85/85
f 86/86/86 87/87/87 88/88/88
