# Generated from Nova1492 GX by tools/nova1492/GxObjConverter
mtllib datan_common_9779f44a.mtl
o datan_common_9779f44a_mesh00
v -6.003543 -14.64206 -0.000003
v -4.327899 -18.66937 0.000014
v -6.003543 -14.64532 1.881274
v -4.586408 -18.46597 1.479723
v -4.401196 -10.82322 -0.000002
v -6.003543 -14.64206 -0.000003
v -4.401197 -10.82462 2.282846
v -6.003543 -14.64532 1.881274
v 4.368526 -10.82321 0.000001
v -4.401196 -10.82322 -0.000002
v 4.368526 -10.82462 2.282849
v -4.401197 -10.82462 2.282846
v 5.957427 -14.64203 0
v 4.368526 -10.82321 0.000001
v 5.957427 -14.64529 1.88128
v 4.368526 -10.82462 2.282849
v 4.288823 -18.66937 0.000016
v 5.957427 -14.64203 0
v 4.547318 -18.46598 1.479725
v 5.957427 -14.64529 1.88128
v -4.327899 -18.66937 0.000014
v 4.288823 -18.66937 0.000016
v -4.586408 -18.46597 1.479723
v 4.547318 -18.46598 1.479725
v 3.989026 -17.94068 2.041208
v 5.176816 -14.72236 2.379453
v -4.097531 -17.94068 2.041206
v 3.831611 -11.48769 2.719432
v -3.934424 -11.48769 2.719429
v -5.291131 -14.72268 2.379417
v -6.003543 -14.64532 1.881274
v -4.586408 -18.46597 1.479723
v -5.291131 -14.72268 2.379417
v -4.097531 -17.94068 2.041206
v -5.291131 -14.72268 2.379417
v -4.586408 -18.46597 1.479723
v -4.401197 -10.82462 2.282846
v -6.003543 -14.64532 1.881274
v -3.934424 -11.48769 2.719429
v -5.291131 -14.72268 2.379417
v -3.934424 -11.48769 2.719429
v -6.003543 -14.64532 1.881274
v 4.368526 -10.82462 2.282849
v -4.401197 -10.82462 2.282846
v 3.831611 -11.48769 2.719432
v -3.934424 -11.48769 2.719429
v 3.831611 -11.48769 2.719432
v -4.401197 -10.82462 2.282846
v 5.957427 -14.64529 1.88128
v 4.368526 -10.82462 2.282849
v 5.176816 -14.72236 2.379453
v 3.831611 -11.48769 2.719432
v 5.176816 -14.72236 2.379453
v 4.368526 -10.82462 2.282849
v 4.547318 -18.46598 1.479725
v 5.957427 -14.64529 1.88128
v 3.989026 -17.94068 2.041208
v 5.176816 -14.72236 2.379453
v 3.989026 -17.94068 2.041208
v 5.957427 -14.64529 1.88128
v -4.586408 -18.46597 1.479723
v 4.547318 -18.46598 1.479725
v -4.097531 -17.94068 2.041206
v 3.989026 -17.94068 2.041208
v -4.097531 -17.94068 2.041206
v 4.547318 -18.46598 1.479725
vt 0.999501 0.329543
vt 0.859548 0.661153
vt 0.999501 0.31353
vt 0.881139 0.6316
vt 0.86567 0.015099
vt 0.999501 0.329543
vt 0.86567 -0.004542
vt 0.999501 0.31353
vt 0.133207 0.015099
vt 0.86567 0.015099
vt 0.133207 -0.004542
vt 0.86567 -0.004542
vt 0.0005 0.329541
vt 0.133207 0.015099
vt 0.0005 0.313528
vt 0.133207 -0.004542
vt 0.139864 0.661153
vt 0.0005 0.329541
vt 0.118274 0.6316
vt 0.0005 0.313528
vt 0.859548 0.661153
vt 0.139864 0.661153
vt 0.881139 0.6316
vt 0.118274 0.6316
vt 0.141763 0.598251
vt 0.036604 0.314251
vt 0.857691 0.59825
vt 0.155699 0.028807
vt 0.84325 0.028807
vt 0.963364 0.314278
vt 0.999501 0.31353
vt 0.881139 0.6316
vt 0.963364 0.314278
vt 0.857691 0.59825
vt 0.963364 0.314278
vt 0.881139 0.6316
vt 0.86567 -0.004542
vt 0.999501 0.31353
vt 0.84325 0.028807
vt 0.963364 0.314278
vt 0.84325 0.028807
vt 0.999501 0.31353
vt 0.133207 -0.004542
vt 0.86567 -0.004542
vt 0.155699 0.028807
vt 0.84325 0.028807
vt 0.155699 0.028807
vt 0.86567 -0.004542
vt 0.0005 0.313528
vt 0.133207 -0.004542
vt 0.036604 0.314251
vt 0.155699 0.028807
vt 0.036604 0.314251
vt 0.133207 -0.004542
vt 0.118274 0.6316
vt 0.0005 0.313528
vt 0.141763 0.598251
vt 0.036604 0.314251
vt 0.141763 0.598251
vt 0.0005 0.313528
vt 0.881139 0.6316
vt 0.118274 0.6316
vt 0.857691 0.59825
vt 0.141763 0.598251
vt 0.857691 0.59825
vt 0.118274 0.6316
vn -0.923272 -0.384146 -0.000665
vn -0.931057 -0.360049 -0.059142
vn -0.931057 -0.360049 -0.059142
vn -0.935061 -0.33449 -0.117379
vn -0.922117 0.386911 0.000238
vn -0.922163 0.386801 0.000454
vn -0.922163 0.386801 0.000454
vn -0.922209 0.386691 0.00067
vn -0 1 0.000616
vn -0 1 0.000616
vn -0 1 0.000616
vn -0 1 0.000616
vn 0.923272 0.384147 0.000665
vn 0.923309 0.384057 0.000451
vn 0.923309 0.384057 0.000451
vn 0.923347 0.383967 0.000237
vn 0.918427 -0.380522 -0.108139
vn 0.929824 -0.363953 -0.054459
vn 0.929824 -0.363953 -0.054459
vn 0.938165 -0.346187 -0.000599
vn 0 -0.990684 0.136178
vn 0 -0.990685 0.136176
vn 0 -0.990685 0.136176
vn -0 -0.990685 0.136174
vn -0 -0.104524 0.994522
vn 0 -0.104526 0.994522
vn -0.000001 -0.104526 0.994522
vn 0 -0.104527 0.994522
vn -0.000003 -0.104526 0.994522
vn -0.000006 -0.104526 0.994522
vn -0.569171 -0.2919 0.76866
vn -0.569171 -0.2919 0.76866
vn -0.569171 -0.2919 0.76866
vn -0.569173 -0.2919 0.768659
vn -0.569173 -0.2919 0.768659
vn -0.569173 -0.2919 0.768659
vn -0.556014 0.147206 0.818034
vn -0.556014 0.147206 0.818034
vn -0.556014 0.147206 0.818034
vn -0.556013 0.147205 0.818034
vn -0.556013 0.147205 0.818034
vn -0.556013 0.147205 0.818034
vn -0 0.549928 0.835212
vn -0 0.549928 0.835212
vn -0 0.549928 0.835212
vn -0 0.549927 0.835213
vn -0 0.549927 0.835213
vn -0 0.549927 0.835213
vn 0.524307 0.129586 0.841611
vn 0.524307 0.129586 0.841611
vn 0.524307 0.129586 0.841611
vn 0.524307 0.129587 0.841611
vn 0.524307 0.129587 0.841611
vn 0.524307 0.129587 0.841611
vn 0.535816 -0.28142 0.796055
vn 0.535816 -0.28142 0.796055
vn 0.535816 -0.28142 0.796055
vn 0.535816 -0.28142 0.796055
vn 0.535816 -0.28142 0.796055
vn 0.535816 -0.28142 0.796055
vn -0 -0.730246 0.683184
vn -0 -0.730246 0.683184
vn -0 -0.730246 0.683184
vn -0 -0.730246 0.683184
vn -0 -0.730246 0.683184
vn -0 -0.730246 0.683184
usemtl datan_common_9779f44a
f 1/1/1 2/2/2 3/3/3
f 3/3/3 2/2/2 4/4/4
f 5/5/5 6/6/6 7/7/7
f 7/7/7 6/6/6 8/8/8
f 9/9/9 10/10/10 11/11/11
f 11/11/11 10/10/10 12/12/12
f 13/13/13 14/14/14 15/15/15
f 15/15/15 14/14/14 16/16/16
f 17/17/17 18/18/18 19/19/19
f 19/19/19 18/18/18 20/20/20
f 21/21/21 22/22/22 23/23/23
f 23/23/23 22/22/22 24/24/24
f 25/25/25 26/26/26 27/27/27
f 26/26/26 28/28/28 27/27/27
f 28/28/28 29/29/29 27/27/27
f 29/29/29 30/30/30 27/27/27
f 31/31/31 32/32/32 33/33/33
f 34/34/34 35/35/35 36/36/36
f 37/37/37 38/38/38 39/39/39
f 40/40/40 41/41/41 42/42/42
f 43/43/43 44/44/44 45/45/45
f 46/46/46 47/47/47 48/48/48
f 49/49/49 50/50/50 51/51/51
f 52/52/52 53/53/53 54/54/54
f 55/55/55 56/56/56 57/57/57
f 58/58/58 59/59/59 60/60/60
f 61/61/61 62/62/62 63/63/63
f 64/64/64 65/65/65 66/66/66
o datan_common_9779f44a_mesh01
v -6.003543 -14.64531 -1.881252
v -4.3279 -18.66937 0.000008
v -6.003544 -14.64205 0.000025
v -4.586408 -18.46597 -1.479701
v -4.401196 -10.82462 -2.282822
v -6.003544 -14.64205 0.000025
v -4.401197 -10.82321 0.000026
v -6.003543 -14.64531 -1.881252
v 4.368528 -10.82462 -2.282819
v -4.401197 -10.82321 0.000026
v 4.368527 -10.82321 0.000028
v -4.401196 -10.82462 -2.282822
v 5.957429 -14.64528 -1.881251
v 4.368527 -10.82321 0.000028
v 5.957428 -14.64203 0.000029
v 4.368528 -10.82462 -2.282819
v 4.54732 -18.46597 -1.479698
v 5.957428 -14.64203 0.000029
v 4.288824 -18.66937 0.000011
v 5.957429 -14.64528 -1.881251
v -4.586408 -18.46597 -1.479701
v 4.288824 -18.66937 0.000011
v -4.3279 -18.66937 0.000008
v 4.54732 -18.46597 -1.479698
v -4.097531 -17.94067 -2.041184
v 5.176818 -14.72236 -2.379424
v 3.989028 -17.94068 -2.041181
v 3.831614 -11.48769 -2.719402
v -3.934423 -11.48769 -2.719405
v -5.291131 -14.72267 -2.379395
v -5.291131 -14.72267 -2.379395
v -4.586408 -18.46597 -1.479701
v -6.003543 -14.64531 -1.881252
v -4.586408 -18.46597 -1.479701
v -5.291131 -14.72267 -2.379395
v -4.097531 -17.94067 -2.041184
v -3.934423 -11.48769 -2.719405
v -6.003543 -14.64531 -1.881252
v -4.401196 -10.82462 -2.282822
v -6.003543 -14.64531 -1.881252
v -3.934423 -11.48769 -2.719405
v -5.291131 -14.72267 -2.379395
v 3.831614 -11.48769 -2.719402
v -4.401196 -10.82462 -2.282822
v 4.368528 -10.82462 -2.282819
v -4.401196 -10.82462 -2.282822
v 3.831614 -11.48769 -2.719402
v -3.934423 -11.48769 -2.719405
v 5.176818 -14.72236 -2.379424
v 4.368528 -10.82462 -2.282819
v 5.957429 -14.64528 -1.881251
v 4.368528 -10.82462 -2.282819
v 5.176818 -14.72236 -2.379424
v 3.831614 -11.48769 -2.719402
v 3.989028 -17.94068 -2.041181
v 5.957429 -14.64528 -1.881251
v 4.54732 -18.46597 -1.479698
v 5.957429 -14.64528 -1.881251
v 3.989028 -17.94068 -2.041181
v 5.176818 -14.72236 -2.379424
v -4.097531 -17.94067 -2.041184
v 4.54732 -18.46597 -1.479698
v -4.586408 -18.46597 -1.479701
v 4.54732 -18.46597 -1.479698
v -4.097531 -17.94067 -2.041184
v 3.989028 -17.94068 -2.041181
vt 0.0005 0.316946
vt 0.140452 0.650113
vt 0.000499 0.316676
vt 0.118861 0.633273
vt 0.13433 0.000616
vt 0.000499 0.316676
vt 0.13433 0.000499
vt 0.0005 0.316946
vt 0.866793 0.000616
vt 0.13433 0.000499
vt 0.866793 0.000499
vt 0.13433 0.000616
vt 0.999501 0.316944
vt 0.866793 0.000499
vt 0.999501 0.316674
vt 0.866793 0.000616
vt 0.881726 0.633273
vt 0.999501 0.316674
vt 0.860136 0.650113
vt 0.999501 0.316944
vt 0.118861 0.633273
vt 0.860136 0.650113
vt 0.140452 0.650113
vt 0.881726 0.633273
vt 0.142309 0.604464
vt 0.963396 0.32202
vt 0.858237 0.604464
vt 0.844301 0.03814
vt 0.15675 0.03814
vt 0.036636 0.322047
vt 0.036636 0.322047
vt 0.118861 0.633273
vt 0.0005 0.316946
vt 0.118861 0.633273
vt 0.036636 0.322047
vt 0.142309 0.604464
vt 0.15675 0.03814
vt 0.0005 0.316946
vt 0.13433 0.000616
vt 0.0005 0.316946
vt 0.15675 0.03814
vt 0.036636 0.322047
vt 0.844301 0.03814
vt 0.13433 0.000616
vt 0.866793 0.000616
vt 0.13433 0.000616
vt 0.844301 0.03814
vt 0.15675 0.03814
vt 0.963396 0.32202
vt 0.866793 0.000616
vt 0.999501 0.316944
vt 0.866793 0.000616
vt 0.963396 0.32202
vt 0.844301 0.03814
vt 0.858237 0.604464
vt 0.999501 0.316944
vt 0.881726 0.633273
vt 0.999501 0.316944
vt 0.858237 0.604464
vt 0.963396 0.32202
vt 0.142309 0.604464
vt 0.881726 0.633273
vt 0.118861 0.633273
vt 0.881726 0.633273
vt 0.142309 0.604464
vt 0.858237 0.604464
vn -0.931057 -0.360049 0.059142
vn -0.931057 -0.360049 0.059142
vn -0.923272 -0.384146 0.000665
vn -0.935061 -0.33449 0.117378
vn -0.922163 0.386801 -0.000454
vn -0.922163 0.386801 -0.000454
vn -0.922117 0.386911 -0.000239
vn -0.922209 0.386692 -0.00067
vn -0 1 -0.000616
vn -0 1 -0.000616
vn -0 1 -0.000616
vn -0 1 -0.000616
vn 0.923309 0.384057 -0.00045
vn 0.923309 0.384057 -0.00045
vn 0.923272 0.384147 -0.000665
vn 0.923347 0.383968 -0.000236
vn 0.929824 -0.363953 0.054459
vn 0.929824 -0.363953 0.054459
vn 0.918427 -0.380523 0.10814
vn 0.938165 -0.346187 0.0006
vn 0 -0.990685 -0.136176
vn 0 -0.990685 -0.136176
vn 0 -0.990684 -0.136178
vn -0 -0.990685 -0.136174
vn -0.000001 -0.104526 -0.994522
vn 0.000001 -0.104526 -0.994522
vn 0 -0.104524 -0.994522
vn 0.000001 -0.104527 -0.994522
vn -0.000003 -0.104526 -0.994522
vn -0.000005 -0.104526 -0.994522
vn -0.569171 -0.2919 -0.76866
vn -0.569171 -0.2919 -0.76866
vn -0.569171 -0.2919 -0.76866
vn -0.569172 -0.2919 -0.76866
vn -0.569172 -0.2919 -0.76866
vn -0.569172 -0.2919 -0.76866
vn -0.556014 0.147206 -0.818034
vn -0.556014 0.147206 -0.818034
vn -0.556014 0.147206 -0.818034
vn -0.556013 0.147205 -0.818035
vn -0.556013 0.147205 -0.818035
vn -0.556013 0.147205 -0.818035
vn 0 0.549927 -0.835213
vn 0 0.549927 -0.835213
vn 0 0.549927 -0.835213
vn 0 0.549928 -0.835212
vn 0 0.549928 -0.835212
vn 0 0.549928 -0.835212
vn 0.524307 0.129587 -0.841612
vn 0.524307 0.129587 -0.841612
vn 0.524307 0.129587 -0.841612
vn 0.524307 0.129587 -0.841611
vn 0.524307 0.129587 -0.841611
vn 0.524307 0.129587 -0.841611
vn 0.535816 -0.28142 -0.796055
vn 0.535816 -0.28142 -0.796055
vn 0.535816 -0.28142 -0.796055
vn 0.535816 -0.28142 -0.796056
vn 0.535816 -0.28142 -0.796056
vn 0.535816 -0.28142 -0.796056
vn 0 -0.730245 -0.683186
vn 0 -0.730245 -0.683186
vn 0 -0.730245 -0.683186
vn 0 -0.730245 -0.683186
vn 0 -0.730245 -0.683186
vn 0 -0.730245 -0.683186
usemtl datan_common_9779f44a
f 67/67/67 68/68/68 69/69/69
f 70/70/70 68/68/68 67/67/67
f 71/71/71 72/72/72 73/73/73
f 74/74/74 72/72/72 71/71/71
f 75/75/75 76/76/76 77/77/77
f 78/78/78 76/76/76 75/75/75
f 79/79/79 80/80/80 81/81/81
f 82/82/82 80/80/80 79/79/79
f 83/83/83 84/84/84 85/85/85
f 86/86/86 84/84/84 83/83/83
f 87/87/87 88/88/88 89/89/89
f 90/90/90 88/88/88 87/87/87
f 91/91/91 92/92/92 93/93/93
f 91/91/91 94/94/94 92/92/92
f 91/91/91 95/95/95 94/94/94
f 91/91/91 96/96/96 95/95/95
f 97/97/97 98/98/98 99/99/99
f 100/100/100 101/101/101 102/102/102
f 103/103/103 104/104/104 105/105/105
f 106/106/106 107/107/107 108/108/108
f 109/109/109 110/110/110 111/111/111
f 112/112/112 113/113/113 114/114/114
f 115/115/115 116/116/116 117/117/117
f 118/118/118 119/119/119 120/120/120
f 121/121/121 122/122/122 123/123/123
f 124/124/124 125/125/125 126/126/126
f 127/127/127 128/128/128 129/129/129
f 130/130/130 131/131/131 132/132/132
o datan_common_9779f44a_mesh02
v 2.815974 -22.88934 0.000033
v 4.290085 -18.6784 0.000017
v 2.815974 -22.88805 1.014964
v 4.373057 -18.86497 1.437789
v -2.84749 -22.88934 0.000032
v 2.815974 -22.88934 0.000033
v -2.847491 -22.88805 1.014962
v 2.815974 -22.88805 1.014964
v -4.328772 -18.6784 0.000015
v -2.84749 -22.88934 0.000032
v -4.411546 -18.86497 1.437788
v -2.847491 -22.88805 1.014962
v 4.290085 -18.6784 0.000017
v -4.328772 -18.6784 0.000015
v 4.373057 -18.86497 1.437789
v -4.411546 -18.86497 1.437788
v -3.754022 -19.40937 1.886844
v -2.525079 -22.4489 1.56739
v 3.741027 -19.40938 1.886845
v 2.517561 -22.4489 1.567391
v 2.815974 -22.88805 1.014964
v 4.373057 -18.86497 1.437789
v 2.517561 -22.4489 1.567391
v 3.741027 -19.40938 1.886845
v 2.517561 -22.4489 1.567391
v 4.373057 -18.86497 1.437789
v -2.847491 -22.88805 1.014962
v 2.815974 -22.88805 1.014964
v -2.525079 -22.4489 1.56739
v 2.517561 -22.4489 1.567391
v -2.525079 -22.4489 1.56739
v 2.815974 -22.88805 1.014964
v -4.411546 -18.86497 1.437788
v -2.847491 -22.88805 1.014962
v -3.754022 -19.40937 1.886844
v -2.525079 -22.4489 1.56739
v -3.754022 -19.40937 1.886844
v -2.847491 -22.88805 1.014962
v 4.373057 -18.86497 1.437789
v -4.411546 -18.86497 1.437788
v 3.741027 -19.40938 1.886845
v -3.754022 -19.40937 1.886844
v 3.741027 -19.40938 1.886845
v -4.411546 -18.86497 1.437788
v 2.815975 -22.88805 -1.014938
v 4.290086 -18.6784 0.00001
v 2.815975 -22.88934 -0.000008
v 4.373059 -18.86497 -1.437762
v -2.847491 -22.88804 -1.014941
v 2.815975 -22.88934 -0.000008
v -2.847491 -22.88934 -0.00001
v 2.815975 -22.88805 -1.014938
v -4.411547 -18.86496 -1.437766
v -2.847491 -22.88934 -0.00001
v -4.328773 -18.6784 0.000007
v -2.847491 -22.88804 -1.014941
v 4.373059 -18.86497 -1.437762
v -4.328773 -18.6784 0.000007
v 4.290086 -18.6784 0.00001
v -4.411547 -18.86496 -1.437766
v 3.741028 -19.40938 -1.886819
v -2.525079 -22.44889 -1.567368
v -3.754022 -19.40937 -1.886822
v 2.517563 -22.4489 -1.567366
v 2.517563 -22.4489 -1.567366
v 4.373059 -18.86497 -1.437762
v 2.815975 -22.88805 -1.014938
v 4.373059 -18.86497 -1.437762
v 2.517563 -22.4489 -1.567366
v 3.741028 -19.40938 -1.886819
v -2.525079 -22.44889 -1.567368
v 2.815975 -22.88805 -1.014938
v -2.847491 -22.88804 -1.014941
v 2.815975 -22.88805 -1.014938
v -2.525079 -22.44889 -1.567368
v 2.517563 -22.4489 -1.567366
v -3.754022 -19.40937 -1.886822
v -2.847491 -22.88804 -1.014941
v -4.411547 -18.86496 -1.437766
v -2.847491 -22.88804 -1.014941
v -3.754022 -19.40937 -1.886822
v -2.525079 -22.44889 -1.567368
v 3.741028 -19.40938 -1.886819
v -4.411547 -18.86496 -1.437766
v 4.373059 -18.86497 -1.437762
v -4.411547 -18.86496 -1.437766
v 3.741028 -19.40938 -1.886819
v -3.754022 -19.40937 -1.886822
vt 0.253415 1.008627
vt 0.139759 0.661897
vt 0.253415 0.999737
vt 0.118163 0.664817
vt 0.745358 1.008626
vt 0.253415 1.008627
vt 0.745358 0.999737
vt 0.253415 0.999737
vt 0.859621 0.661897
vt 0.745358 1.008626
vt 0.881216 0.664816
vt 0.745358 0.999737
vt 0.139759 0.661897
vt 0.859621 0.661897
vt 0.118163 0.664817
vt 0.881216 0.664816
vt 0.831428 0.698165
vt 0.722626 0.966387
vt 0.167868 0.698166
vt 0.276185 0.966387
vt 0.253415 0.999737
vt 0.118163 0.664817
vt 0.276185 0.966387
vt 0.167868 0.698166
vt 0.276185 0.966387
vt 0.118163 0.664817
vt 0.745358 0.999737
vt 0.253415 0.999737
vt 0.722626 0.966387
vt 0.276185 0.966387
vt 0.722626 0.966387
vt 0.253415 0.999737
vt 0.881216 0.664816
vt 0.745358 0.999737
vt 0.831428 0.698165
vt 0.722626 0.966387
vt 0.831428 0.698165
vt 0.745358 0.999737
vt 0.118163 0.664817
vt 0.881216 0.664816
vt 0.167868 0.698166
vt 0.831428 0.698165
vt 0.167868 0.698166
vt 0.881216 0.664816
vt 0.746585 0.999394
vt 0.860241 0.650861
vt 0.746585 0.9995
vt 0.881838 0.666308
vt 0.254642 0.999393
vt 0.746585 0.9995
vt 0.254642 0.9995
vt 0.746585 0.999394
vt 0.118784 0.666307
vt 0.254642 0.9995
vt 0.140379 0.650861
vt 0.254642 0.999393
vt 0.881838 0.666308
vt 0.140379 0.650861
vt 0.860241 0.650861
vt 0.118784 0.666307
vt 0.832132 0.703832
vt 0.277374 0.970584
vt 0.168572 0.703831
vt 0.723815 0.970584
vt 0.723815 0.970584
vt 0.881838 0.666308
vt 0.746585 0.999394
vt 0.881838 0.666308
vt 0.723815 0.970584
vt 0.832132 0.703832
vt 0.277374 0.970584
vt 0.746585 0.999394
vt 0.254642 0.999393
vt 0.746585 0.999394
vt 0.277374 0.970584
vt 0.723815 0.970584
vt 0.168572 0.703831
vt 0.254642 0.999393
vt 0.118784 0.666307
vt 0.254642 0.999393
vt 0.168572 0.703831
vt 0.277374 0.970584
vt 0.832132 0.703832
vt 0.118784 0.666307
vt 0.881838 0.666308
vt 0.118784 0.666307
vt 0.832132 0.703832
vt 0.168572 0.703831
vn 0.943839 -0.330407 0.000421
vn 0.938874 -0.340691 -0.049445
vn 0.938874 -0.340691 -0.049445
vn 0.931453 -0.350084 -0.099182
vn -0 -0.999999 0.001272
vn -0 -0.999999 0.001272
vn -0 -0.999999 0.001272
vn -0 -0.999999 0.001272
vn -0.938896 -0.330276 -0.09691
vn -0.936698 -0.346792 -0.048288
vn -0.936698 -0.346792 -0.048288
vn -0.932026 -0.362393 0.000461
vn -0 0.991685 0.128688
vn 0 0.991686 0.128684
vn 0 0.991686 0.128684
vn 0.000001 0.991686 0.12868
vn -0 -0.104524 0.994522
vn -0 -0.104524 0.994522
vn -0 -0.104524 0.994522
vn -0 -0.104524 0.994522
vn 0.691644 -0.334943 0.639877
vn 0.691644 -0.334943 0.639877
vn 0.691644 -0.334943 0.639877
vn 0.724807 -0.353876 0.591123
vn 0.724807 -0.353876 0.591123
vn 0.724807 -0.353876 0.591123
vn -0 -0.782795 0.622279
vn -0 -0.782795 0.622279
vn -0 -0.782795 0.622279
vn -0 -0.782795 0.622279
vn -0 -0.782795 0.622279
vn -0 -0.782795 0.622279
vn -0.705818 -0.339733 0.621613
vn -0.705818 -0.339733 0.621613
vn -0.705818 -0.339733 0.621613
vn -0.669135 -0.339996 0.660803
vn -0.669135 -0.339996 0.660803
vn -0.669135 -0.339996 0.660803
vn 0 0.636315 0.771429
vn 0 0.636315 0.771429
vn 0 0.636315 0.771429
vn 0.000001 0.636316 0.771429
vn 0.000001 0.636316 0.771429
vn 0.000001 0.636316 0.771429
vn 0.938874 -0.340691 0.049446
vn 0.938874 -0.340691 0.049446
vn 0.943839 -0.330407 -0.000419
vn 0.931453 -0.350084 0.099183
vn -0 -0.999999 -0.001272
vn -0 -0.999999 -0.001272
vn 0 -0.999999 -0.001274
vn -0.000001 -0.999999 -0.00127
vn -0.936698 -0.346793 0.048287
vn -0.936698 -0.346793 0.048287
vn -0.938896 -0.330276 0.096909
vn -0.932025 -0.362393 -0.000462
vn 0 0.991686 -0.128683
vn 0 0.991686 -0.128683
vn -0 0.991685 -0.128688
vn 0.000001 0.991686 -0.128679
vn 0 -0.104524 -0.994522
vn 0 -0.104524 -0.994522
vn 0 -0.104524 -0.994522
vn 0 -0.104524 -0.994522
vn 0.691643 -0.334943 -0.639877
vn 0.691643 -0.334943 -0.639877
vn 0.691643 -0.334943 -0.639877
vn 0.724807 -0.353876 -0.591123
vn 0.724807 -0.353876 -0.591123
vn 0.724807 -0.353876 -0.591123
vn -0 -0.782795 -0.62228
vn -0 -0.782795 -0.62228
vn -0 -0.782795 -0.62228
vn -0 -0.782794 -0.622281
vn -0 -0.782794 -0.622281
vn -0 -0.782794 -0.622281
vn -0.705818 -0.339733 -0.621613
vn -0.705818 -0.339733 -0.621613
vn -0.705818 -0.339733 -0.621613
vn -0.669134 -0.339996 -0.660804
vn -0.669134 -0.339996 -0.660804
vn -0.669134 -0.339996 -0.660804
vn 0.000001 0.636316 -0.771429
vn 0.000001 0.636316 -0.771429
vn 0.000001 0.636316 -0.771429
vn 0.000001 0.636315 -0.771429
vn 0.000001 0.636315 -0.771429
vn 0.000001 0.636315 -0.771429
usemtl datan_common_9779f44a
f 133/133/133 134/134/134 135/135/135
f 135/135/135 134/134/134 136/136/136
f 137/137/137 138/138/138 139/139/139
f 139/139/139 138/138/138 140/140/140
f 141/141/141 142/142/142 143/143/143
f 143/143/143 142/142/142 144/144/144
f 145/145/145 146/146/146 147/147/147
f 147/147/147 146/146/146 148/148/148
f 149/149/149 150/150/150 151/151/151
f 150/150/150 152/152/152 151/151/151
f 153/153/153 154/154/154 155/155/155
f 156/156/156 157/157/157 158/158/158
f 159/159/159 160/160/160 161/161/161
f 162/162/162 163/163/163 164/164/164
f 165/165/165 166/166/166 167/167/167
f 168/168/168 169/169/169 170/170/170
f 171/171/171 172/172/172 173/173/173
f 174/174/174 175/175/175 176/176/176
f 177/177/177 178/178/178 179/179/179
f 180/180/180 178/178/178 177/177/177
f 181/181/181 182/182/182 183/183/183
f 184/184/184 182/182/182 181/181/181
f 185/185/185 186/186/186 187/187/187
f 188/188/188 186/186/186 185/185/185
f 189/189/189 190/190/190 191/191/191
f 192/192/192 190/190/190 189/189/189
f 193/193/193 194/194/194 195/195/195
f 193/193/193 196/196/196 194/194/194
f 197/197/197 198/198/198 199/199/199
f 200/200/200 201/201/201 202/202/202
f 203/203/203 204/204/204 205/205/205
f 206/206/206 207/207/207 208/208/208
f 209/209/209 210/210/210 211/211/211
f 212/212/212 213/213/213 214/214/214
f 215/215/215 216/216/216 217/217/217
f 218/218/218 219/219/219 220/220/220
