# Generated from Nova1492 GX by tools/nova1492/GxObjConverter
mtllib datan_common__2_068124ac.mtl
o datan_common__2_068124ac
v -0.319057 1.540857 -1.650054
v 0 1.643676 -1.649346
v -0.423625 0.974527 -1.651156
v -0.319057 0.408197 -1.652258
v 0.319057 0.408197 -1.652258
v 0.423625 0.974527 -1.651156
v 0.319057 1.540857 -1.650054
v -0.319057 0.408197 -1.652258
v 0.319057 0.408197 -1.652258
v -0.159003 -0.391862 0.00155
v 0.159003 -0.391862 0.00155
v 0.159003 -0.391862 0.00155
v 0.319057 0.408197 -1.652258
v 0.211115 -0.074148 0.001606
v 0.423625 0.974527 -1.651156
v 0.319057 1.540857 -1.650054
v 0 1.643676 -1.649346
v 0.159003 0.365317 0.001661
v -0 0.446934 0.001678
v -0.319057 1.540857 -1.650054
v -0.423625 0.974527 -1.651156
v -0.159003 0.365317 0.001661
v -0.211115 -0.074148 0.001606
v -0.319057 0.408197 -1.652258
v -0.159003 -0.391862 0.00155
v 0.159003 0.365317 0.001661
v -0 0.446934 0.001678
v -0.159003 0.365317 0.001661
v -0.211115 -0.074148 0.001606
v -0.159003 -0.391862 0.00155
v 0.159003 -0.391862 0.00155
v 0.211115 -0.074148 0.001606
vt 0.973824 0.929171
vt 0.926598 0.965266
vt 0.990556 0.738621
vt 0.976859 0.546126
vt 0.874961 0.546126
vt 0.858811 0.730965
vt 0.875544 0.929171
vt 0.842011 0.060185
vt 0.842011 0.375721
vt 0.512073 0.138428
vt 0.512073 0.292526
vt 0.512777 0.417085
vt 0.844275 0.419421
vt 0.512776 0.53313
vt 0.844054 0.599323
vt 0.843833 0.782229
vt 0.843691 0.952281
vt 0.512774 0.711892
vt 0.512773 0.827481
vt 0.843833 0.774573
vt 0.844054 0.606979
vt 0.512774 0.704236
vt 0.512776 0.540787
vt 0.844275 0.419421
vt 0.512777 0.417085
vt 0.973726 0.941979
vt 0.925867 0.976715
vt 0.878009 0.941979
vt 0.861696 0.713716
vt 0.878009 0.548691
vt 0.973726 0.548691
vt 0.990038 0.713716
vn 0.001693 0.001633 -0.999997
vn -0.001348 0.002705 -0.999996
vn 0.000928 0.002117 -0.999997
vn -0.001348 0.002705 -0.999996
vn 0 0.001946 -0.999998
vn 0 0.001946 -0.999998
vn -0.001348 0.002705 -0.999996
vn 0 -0.900196 -0.435486
vn 0 -0.900196 -0.435486
vn 0 -0.900196 -0.435486
vn 0 -0.900196 -0.435486
vn 0.986668 -0.161837 0.017197
vn 0.983312 -0.181581 0.01122
vn 0.973313 0.11539 0.198362
vn 0.959628 0.176761 0.218792
vn 0.959628 0.176761 0.218792
vn -0.251621 0.776828 0.577257
vn 0.959628 0.176761 0.218792
vn -0.383826 0.747652 0.541935
vn -0.251621 0.776828 0.577257
vn -0.983312 -0.181581 0.01122
vn -0.251621 0.776828 0.577257
vn -0.986668 -0.161837 0.017197
vn -0.986668 -0.161837 0.017197
vn -0.986668 -0.161837 0.017197
vn -0.000172 -0.000147 1
vn -0 -0.000199 1
vn -0 -0.000127 1
vn 0.000048 -0.000167 1
vn -0 -0.000147 1
vn -0.000172 -0.000147 1
vn -0.000172 -0.000147 1
usemtl datan_common__2_068124ac
f 1/1/1 2/2/2 3/3/3
f 3/3/3 2/2/2 4/4/4
f 5/5/5 4/4/4 6/6/6
f 6/6/6 4/4/4 7/7/7
f 4/4/4 2/2/2 7/7/7
f 8/8/8 9/9/9 10/10/10
f 11/11/11 10/10/10 9/9/9
f 12/12/12 13/13/13 14/14/14
f 15/15/15 14/14/14 13/13/13
f 16/16/16 17/17/17 18/18/18
f 19/19/19 18/18/18 17/17/17
f 20/20/20 21/21/21 22/22/22
f 23/23/23 22/22/22 21/21/21
f 19/19/19 17/17/17 22/22/22
f 20/20/20 22/22/22 17/17/17
f 14/14/14 15/15/15 18/18/18
f 16/16/16 18/18/18 15/15/15
f 21/21/21 24/24/24 23/23/23
f 25/25/25 23/23/23 24/24/24
f 26/26/26 27/27/27 28/28/28
f 26/26/26 28/28/28 29/29/29
f 26/26/26 29/29/29 30/30/30
f 26/26/26 30/30/30 31/31/31
f 26/26/26 31/31/31 32/32/32
