# Generated from Nova1492 GX by tools/nova1492/GxObjConverter
mtllib datan_common__2_fe31b1e9.mtl
o datan_common__2_fe31b1e9_mesh00
v -14.59489 -6.108138 -0.000004
v -16.25777 -10.14074 0.000013
v -14.59719 -6.110442 1.881274
v -16.29674 -9.814123 1.479722
v -10.76153 -4.54084 -0.000003
v -14.59489 -6.108138 -0.000004
v -10.76252 -4.541834 2.282846
v -14.59719 -6.110442 1.881274
v -4.560394 -10.74197 -0
v -10.76153 -4.54084 -0.000003
v -4.561388 -10.74297 2.282848
v -10.76252 -4.541834 2.282846
v -6.137182 -14.5658 -0.000001
v -4.560394 -10.74197 -0
v -6.139485 -14.56811 1.881279
v -4.561388 -10.74297 2.282848
v -10.16483 -16.23368 0.000015
v -6.137182 -14.5658 -0.000001
v -9.838221 -16.27265 1.479724
v -6.139485 -14.56811 1.881279
v -16.25777 -10.14074 0.000013
v -10.16483 -16.23368 0.000015
v -16.29674 -9.814123 1.479722
v -9.838221 -16.27265 1.479724
v -9.861551 -15.50643 2.041207
v -6.745963 -14.07063 2.379452
v -15.57961 -9.788369 2.041206
v -5.409904 -10.83217 2.719431
v -10.90133 -5.340753 2.719429
v -14.14814 -6.668896 2.379417
v -14.59719 -6.110442 1.881274
v -16.29674 -9.814123 1.479722
v -14.14814 -6.668896 2.379417
v -15.57961 -9.788369 2.041206
v -14.14814 -6.668896 2.379417
v -16.29674 -9.814123 1.479722
v -10.76252 -4.541834 2.282846
v -14.59719 -6.110442 1.881274
v -10.90133 -5.340753 2.719429
v -14.14814 -6.668896 2.379417
v -10.90133 -5.340753 2.719429
v -14.59719 -6.110442 1.881274
v -4.561388 -10.74297 2.282848
v -10.76252 -4.541834 2.282846
v -5.409904 -10.83217 2.719431
v -10.90133 -5.340753 2.719429
v -5.409904 -10.83217 2.719431
v -10.76252 -4.541834 2.282846
v -6.139485 -14.56811 1.881279
v -4.561388 -10.74297 2.282848
v -6.745963 -14.07063 2.379452
v -5.409904 -10.83217 2.719431
v -6.745963 -14.07063 2.379452
v -4.561388 -10.74297 2.282848
v -9.838221 -16.27265 1.479724
v -6.139485 -14.56811 1.881279
v -9.861551 -15.50643 2.041207
v -6.745963 -14.07063 2.379452
v -9.861551 -15.50643 2.041207
v -6.139485 -14.56811 1.881279
v -16.29674 -9.814123 1.479722
v -9.838221 -16.27265 1.479724
v -15.57961 -9.788369 2.041206
v -9.861551 -15.50643 2.041207
v -15.57961 -9.788369 2.041206
v -9.838221 -16.27265 1.479724
vt 0.999501 0.329543
vt 0.859548 0.661153
vt 0.999501 0.31353
vt 0.881139 0.6316
vt 0.86567 0.015099
vt 0.999501 0.329543
vt 0.86567 -0.004542
vt 0.999501 0.31353
vt 0.133207 0.015099
vt 0.86567 0.015099
vt 0.133207 -0.004542
vt 0.86567 -0.004542
vt 0.0005 0.329541
vt 0.133207 0.015099
vt 0.0005 0.313528
vt 0.133207 -0.004542
vt 0.139864 0.661153
vt 0.0005 0.329541
vt 0.118274 0.6316
vt 0.0005 0.313528
vt 0.859548 0.661153
vt 0.139864 0.661153
vt 0.881139 0.6316
vt 0.118274 0.6316
vt 0.141763 0.59825
vt 0.036604 0.314251
vt 0.857691 0.59825
vt 0.155699 0.028807
vt 0.84325 0.028807
vt 0.963364 0.314278
vt 0.999501 0.31353
vt 0.881139 0.6316
vt 0.963364 0.314278
vt 0.857691 0.59825
vt 0.963364 0.314278
vt 0.881139 0.6316
vt 0.86567 -0.004542
vt 0.999501 0.31353
vt 0.84325 0.028807
vt 0.963364 0.314278
vt 0.84325 0.028807
vt 0.999501 0.31353
vt 0.133207 -0.004542
vt 0.86567 -0.004542
vt 0.155699 0.028807
vt 0.84325 0.028807
vt 0.155699 0.028807
vt 0.86567 -0.004542
vt 0.0005 0.313528
vt 0.133207 -0.004542
vt 0.036604 0.314251
vt 0.155699 0.028807
vt 0.036604 0.314251
vt 0.133207 -0.004542
vt 0.118274 0.6316
vt 0.0005 0.313528
vt 0.141763 0.59825
vt 0.036604 0.314251
vt 0.141763 0.59825
vt 0.0005 0.313528
vt 0.881139 0.6316
vt 0.118274 0.6316
vt 0.857691 0.59825
vt 0.141763 0.59825
vt 0.857691 0.59825
vt 0.118274 0.6316
vn -0.924484 0.38122 -0.000665
vn -0.91295 0.403764 -0.059141
vn -0.91295 0.403764 -0.059141
vn -0.897708 0.424667 -0.117378
vn -0.378448 0.925623 0.000238
vn -0.378558 0.925578 0.000454
vn -0.378558 0.925578 0.000454
vn -0.378668 0.925532 0.00067
vn 0.707106 0.707107 0.000616
vn 0.707106 0.707107 0.000616
vn 0.707106 0.707107 0.000616
vn 0.707106 0.707107 0.000616
vn 0.924485 -0.381219 0.000665
vn 0.924448 -0.381309 0.000451
vn 0.924448 -0.381309 0.000451
vn 0.924411 -0.381399 0.000236
vn 0.380356 -0.918496 -0.108139
vn 0.400131 -0.914838 -0.054459
vn 0.400131 -0.914838 -0.054459
vn 0.418592 -0.908175 -0.0006
vn -0.700519 -0.70052 0.136179
vn -0.70052 -0.70052 0.136177
vn -0.70052 -0.70052 0.136177
vn -0.70052 -0.70052 0.136175
vn -0.07391 -0.07391 0.994522
vn -0.073911 -0.073912 0.994522
vn -0.073912 -0.07391 0.994522
vn -0.073912 -0.073912 0.994522
vn -0.073914 -0.073909 0.994522
vn -0.073916 -0.073907 0.994522
vn -0.608869 0.196061 0.76866
vn -0.608869 0.196061 0.76866
vn -0.608869 0.196061 0.76866
vn -0.60887 0.196062 0.768659
vn -0.60887 0.196062 0.768659
vn -0.60887 0.196062 0.768659
vn -0.289071 0.497251 0.818034
vn -0.289071 0.497251 0.818034
vn -0.289071 0.497251 0.818034
vn -0.289071 0.49725 0.818034
vn -0.289071 0.49725 0.818034
vn -0.289071 0.49725 0.818034
vn 0.388857 0.388858 0.835212
vn 0.388857 0.388858 0.835212
vn 0.388857 0.388858 0.835212
vn 0.388857 0.388858 0.835212
vn 0.388857 0.388858 0.835212
vn 0.388857 0.388858 0.835212
vn 0.462372 -0.27911 0.841612
vn 0.462372 -0.27911 0.841612
vn 0.462372 -0.27911 0.841612
vn 0.462373 -0.27911 0.841611
vn 0.462373 -0.27911 0.841611
vn 0.462373 -0.27911 0.841611
vn 0.179885 -0.577874 0.796055
vn 0.179885 -0.577874 0.796055
vn 0.179885 -0.577874 0.796055
vn 0.179885 -0.577873 0.796055
vn 0.179885 -0.577873 0.796055
vn 0.179885 -0.577873 0.796055
vn -0.516362 -0.516362 0.683184
vn -0.516362 -0.516362 0.683184
vn -0.516362 -0.516362 0.683184
vn -0.516362 -0.516362 0.683184
vn -0.516362 -0.516362 0.683184
vn -0.516362 -0.516362 0.683184
usemtl datan_common__2_fe31b1e9
f 1/1/1 2/2/2 3/3/3
f 3/3/3 2/2/2 4/4/4
f 5/5/5 6/6/6 7/7/7
f 7/7/7 6/6/6 8/8/8
f 9/9/9 10/10/10 11/11/11
f 11/11/11 10/10/10 12/12/12
f 13/13/13 14/14/14 15/15/15
f 15/15/15 14/14/14 16/16/16
f 17/17/17 18/18/18 19/19/19
f 19/19/19 18/18/18 20/20/20
f 21/21/21 22/22/22 23/23/23
f 23/23/23 22/22/22 24/24/24
f 25/25/25 26/26/26 27/27/27
f 26/26/26 28/28/28 27/27/27
f 28/28/28 29/29/29 27/27/27
f 29/29/29 30/30/30 27/27/27
f 31/31/31 32/32/32 33/33/33
f 34/34/34 35/35/35 36/36/36
f 37/37/37 38/38/38 39/39/39
f 40/40/40 41/41/41 42/42/42
f 43/43/43 44/44/44 45/45/45
f 46/46/46 47/47/47 48/48/48
f 49/49/49 50/50/50 51/51/51
f 52/52/52 53/53/53 54/54/54
f 55/55/55 56/56/56 57/57/57
f 58/58/58 59/59/59 60/60/60
f 61/61/61 62/62/62 63/63/63
f 64/64/64 65/65/65 66/66/66
o datan_common__2_fe31b1e9_mesh01
v -14.59719 -6.110441 -1.881253
v -16.25778 -10.14074 0.000009
v -14.59489 -6.108136 0.000025
v -16.29675 -9.814121 -1.479701
v -10.76252 -4.541833 -2.282824
v -14.59489 -6.108136 0.000025
v -10.76153 -4.540839 0.000024
v -14.59719 -6.110441 -1.881253
v -4.561389 -10.74297 -2.282824
v -10.76153 -4.540839 0.000024
v -4.560396 -10.74197 0.000024
v -10.76252 -4.541833 -2.282824
v -6.139488 -14.56811 -1.881255
v -4.560396 -10.74197 0.000024
v -6.137185 -14.5658 0.000025
v -4.561389 -10.74297 -2.282824
v -9.838224 -16.27265 -1.4797
v -6.137185 -14.5658 0.000025
v -10.16483 -16.23368 0.000009
v -6.139488 -14.56811 -1.881255
v -16.29675 -9.814121 -1.479701
v -10.16483 -16.23368 0.000009
v -16.25778 -10.14074 0.000009
v -9.838224 -16.27265 -1.4797
v -15.57962 -9.788368 -2.041184
v -6.745965 -14.07063 -2.379427
v -9.861555 -15.50643 -2.041183
v -5.409906 -10.83217 -2.719407
v -10.90133 -5.340753 -2.719407
v -14.14815 -6.668894 -2.379396
v -14.14815 -6.668894 -2.379396
v -16.29675 -9.814121 -1.479701
v -14.59719 -6.110441 -1.881253
v -16.29675 -9.814121 -1.479701
v -14.14815 -6.668894 -2.379396
v -15.57962 -9.788368 -2.041184
v -10.90133 -5.340753 -2.719407
v -14.59719 -6.110441 -1.881253
v -10.76252 -4.541833 -2.282824
v -14.59719 -6.110441 -1.881253
v -10.90133 -5.340753 -2.719407
v -14.14815 -6.668894 -2.379396
v -5.409906 -10.83217 -2.719407
v -10.76252 -4.541833 -2.282824
v -4.561389 -10.74297 -2.282824
v -10.76252 -4.541833 -2.282824
v -5.409906 -10.83217 -2.719407
v -10.90133 -5.340753 -2.719407
v -6.745965 -14.07063 -2.379427
v -4.561389 -10.74297 -2.282824
v -6.139488 -14.56811 -1.881255
v -4.561389 -10.74297 -2.282824
v -6.745965 -14.07063 -2.379427
v -5.409906 -10.83217 -2.719407
v -9.861555 -15.50643 -2.041183
v -6.139488 -14.56811 -1.881255
v -9.838224 -16.27265 -1.4797
v -6.139488 -14.56811 -1.881255
v -9.861555 -15.50643 -2.041183
v -6.745965 -14.07063 -2.379427
v -15.57962 -9.788368 -2.041184
v -9.838224 -16.27265 -1.4797
v -16.29675 -9.814121 -1.479701
v -9.838224 -16.27265 -1.4797
v -15.57962 -9.788368 -2.041184
v -9.861555 -15.50643 -2.041183
vt 0.0005 0.316946
vt 0.140452 0.650113
vt 0.000499 0.316676
vt 0.118861 0.633273
vt 0.13433 0.000616
vt 0.000499 0.316676
vt 0.13433 0.000499
vt 0.0005 0.316946
vt 0.866793 0.000616
vt 0.13433 0.000499
vt 0.866793 0.000499
vt 0.13433 0.000616
vt 0.999501 0.316944
vt 0.866793 0.000499
vt 0.999501 0.316674
vt 0.866793 0.000616
vt 0.881726 0.633273
vt 0.999501 0.316674
vt 0.860136 0.650113
vt 0.999501 0.316944
vt 0.118861 0.633273
vt 0.860136 0.650113
vt 0.140452 0.650113
vt 0.881726 0.633273
vt 0.142309 0.604464
vt 0.963396 0.32202
vt 0.858237 0.604464
vt 0.844301 0.03814
vt 0.15675 0.03814
vt 0.036636 0.322047
vt 0.036636 0.322047
vt 0.118861 0.633273
vt 0.0005 0.316946
vt 0.118861 0.633273
vt 0.036636 0.322047
vt 0.142309 0.604464
vt 0.15675 0.03814
vt 0.0005 0.316946
vt 0.13433 0.000616
vt 0.0005 0.316946
vt 0.15675 0.03814
vt 0.036636 0.322047
vt 0.844301 0.03814
vt 0.13433 0.000616
vt 0.866793 0.000616
vt 0.13433 0.000616
vt 0.844301 0.03814
vt 0.15675 0.03814
vt 0.963396 0.32202
vt 0.866793 0.000616
vt 0.999501 0.316944
vt 0.866793 0.000616
vt 0.963396 0.32202
vt 0.844301 0.03814
vt 0.858237 0.604464
vt 0.999501 0.316944
vt 0.881726 0.633273
vt 0.999501 0.316944
vt 0.858237 0.604464
vt 0.963396 0.32202
vt 0.142309 0.604464
vt 0.881726 0.633273
vt 0.118861 0.633273
vt 0.881726 0.633273
vt 0.142309 0.604464
vt 0.858237 0.604464
vn -0.91295 0.403764 0.059142
vn -0.91295 0.403764 0.059142
vn -0.924484 0.38122 0.000665
vn -0.897708 0.424668 0.117379
vn -0.378558 0.925578 -0.000454
vn -0.378558 0.925578 -0.000454
vn -0.378448 0.925623 -0.000239
vn -0.378668 0.925532 -0.00067
vn 0.707107 0.707107 -0.000616
vn 0.707107 0.707107 -0.000616
vn 0.707107 0.707107 -0.000616
vn 0.707107 0.707107 -0.000616
vn 0.924448 -0.381309 -0.000451
vn 0.924448 -0.381309 -0.000451
vn 0.924485 -0.381219 -0.000665
vn 0.92441 -0.381399 -0.000236
vn 0.400131 -0.914838 0.054459
vn 0.400131 -0.914838 0.054459
vn 0.380356 -0.918496 0.10814
vn 0.418592 -0.908174 0.0006
vn -0.70052 -0.70052 -0.136176
vn -0.70052 -0.70052 -0.136176
vn -0.70052 -0.70052 -0.136178
vn -0.70052 -0.70052 -0.136174
vn -0.073912 -0.07391 -0.994522
vn -0.073911 -0.073912 -0.994522
vn -0.07391 -0.07391 -0.994522
vn -0.073911 -0.073913 -0.994522
vn -0.073913 -0.073909 -0.994522
vn -0.073915 -0.073907 -0.994522
vn -0.608869 0.196061 -0.76866
vn -0.608869 0.196061 -0.76866
vn -0.608869 0.196061 -0.76866
vn -0.60887 0.196062 -0.76866
vn -0.60887 0.196062 -0.76866
vn -0.60887 0.196062 -0.76866
vn -0.289071 0.497251 -0.818034
vn -0.289071 0.497251 -0.818034
vn -0.289071 0.497251 -0.818034
vn -0.289071 0.497251 -0.818034
vn -0.289071 0.497251 -0.818034
vn -0.289071 0.497251 -0.818034
vn 0.388858 0.388858 -0.835212
vn 0.388858 0.388858 -0.835212
vn 0.388858 0.388858 -0.835212
vn 0.388857 0.388857 -0.835213
vn 0.388857 0.388857 -0.835213
vn 0.388857 0.388857 -0.835213
vn 0.462372 -0.27911 -0.841612
vn 0.462372 -0.27911 -0.841612
vn 0.462372 -0.27911 -0.841612
vn 0.462373 -0.27911 -0.841611
vn 0.462373 -0.27911 -0.841611
vn 0.462373 -0.27911 -0.841611
vn 0.179885 -0.577873 -0.796055
vn 0.179885 -0.577873 -0.796055
vn 0.179885 -0.577873 -0.796055
vn 0.179885 -0.577873 -0.796055
vn 0.179885 -0.577873 -0.796055
vn 0.179885 -0.577873 -0.796055
vn -0.516362 -0.516362 -0.683184
vn -0.516362 -0.516362 -0.683184
vn -0.516362 -0.516362 -0.683184
vn -0.516362 -0.516362 -0.683185
vn -0.516362 -0.516362 -0.683185
vn -0.516362 -0.516362 -0.683185
usemtl datan_common__2_fe31b1e9
f 67/67/67 68/68/68 69/69/69
f 70/70/70 68/68/68 67/67/67
f 71/71/71 72/72/72 73/73/73
f 74/74/74 72/72/72 71/71/71
f 75/75/75 76/76/76 77/77/77
f 78/78/78 76/76/76 75/75/75
f 79/79/79 80/80/80 81/81/81
f 82/82/82 80/80/80 79/79/79
f 83/83/83 84/84/84 85/85/85
f 86/86/86 84/84/84 83/83/83
f 87/87/87 88/88/88 89/89/89
f 90/90/90 88/88/88 87/87/87
f 91/91/91 92/92/92 93/93/93
f 91/91/91 94/94/94 92/92/92
f 91/91/91 95/95/95 94/94/94
f 91/91/91 96/96/96 95/95/95
f 97/97/97 98/98/98 99/99/99
f 100/100/100 101/101/101 102/102/102
f 103/103/103 104/104/104 105/105/105
f 106/106/106 107/107/107 108/108/108
f 109/109/109 110/110/110 111/111/111
f 112/112/112 113/113/113 114/114/114
f 115/115/115 116/116/116 117/117/117
f 118/118/118 119/119/119 120/120/120
f 121/121/121 122/122/122 123/123/123
f 124/124/124 125/125/125 126/126/126
f 127/127/127 128/128/128 129/129/129
f 130/130/130 131/131/131 132/132/132
o datan_common__2_fe31b1e9_mesh02
v -14.19026 -18.17619 0.000032
v -10.17032 -16.24096 0.000016
v -14.18935 -18.17528 1.014962
v -10.24358 -16.43156 1.437788
v -18.19493 -14.17151 0.00003
v -14.19026 -18.17619 0.000032
v -18.19402 -14.1706 1.014961
v -14.18935 -18.17528 1.014962
v -16.26478 -10.14651 0.000014
v -18.19493 -14.17151 0.00003
v -16.45523 -10.2199 1.437788
v -18.19402 -14.1706 1.014961
v -10.17032 -16.24096 0.000016
v -16.26478 -10.14651 0.000014
v -10.24358 -16.43156 1.437788
v -16.45523 -10.2199 1.437788
v -10.17032 -16.24096 0.000016
v -18.19493 -14.17151 0.00003
v -16.26478 -10.14651 0.000014
v -14.19026 -18.17619 0.000032
v -16.37524 -11.06979 1.886844
v -17.65551 -14.08805 1.567389
v -11.07544 -16.3696 1.886844
v -14.08983 -17.65374 1.56739
v -14.18935 -18.17528 1.014962
v -10.24358 -16.43156 1.437788
v -14.08983 -17.65374 1.56739
v -11.07544 -16.3696 1.886844
v -14.08983 -17.65374 1.56739
v -10.24358 -16.43156 1.437788
v -18.19402 -14.1706 1.014961
v -14.18935 -18.17528 1.014962
v -17.65551 -14.08805 1.567389
v -14.08983 -17.65374 1.56739
v -17.65551 -14.08805 1.567389
v -14.18935 -18.17528 1.014962
v -16.45523 -10.2199 1.437788
v -18.19402 -14.1706 1.014961
v -16.37524 -11.06979 1.886844
v -17.65551 -14.08805 1.567389
v -16.37524 -11.06979 1.886844
v -18.19402 -14.1706 1.014961
v -10.24358 -16.43156 1.437788
v -16.45523 -10.2199 1.437788
v -11.07544 -16.3696 1.886844
v -16.37524 -11.06979 1.886844
v -11.07544 -16.3696 1.886844
v -16.45523 -10.2199 1.437788
v -14.18935 -18.17528 -1.014939
v -10.17032 -16.24096 0.000008
v -14.19026 -18.17619 -0.000008
v -10.24358 -16.43156 -1.437764
v -18.19403 -14.1706 -1.01494
v -14.19026 -18.17619 -0.000008
v -18.19494 -14.17151 -0.000009
v -14.18935 -18.17528 -1.014939
v -16.45523 -10.2199 -1.437767
v -18.19494 -14.17151 -0.000009
v -16.26478 -10.14651 0.000007
v -18.19403 -14.1706 -1.01494
v -10.24358 -16.43156 -1.437764
v -16.26478 -10.14651 0.000007
v -10.17032 -16.24096 0.000008
v -16.45523 -10.2199 -1.437767
v -16.26478 -10.14651 0.000007
v -18.19494 -14.17151 -0.000009
v -10.17032 -16.24096 0.000008
v -14.19026 -18.17619 -0.000008
v -11.07545 -16.3696 -1.886821
v -17.65552 -14.08805 -1.567368
v -16.37524 -11.06979 -1.886822
v -14.08983 -17.65374 -1.567367
v -14.08983 -17.65374 -1.567367
v -10.24358 -16.43156 -1.437764
v -14.18935 -18.17528 -1.014939
v -10.24358 -16.43156 -1.437764
v -14.08983 -17.65374 -1.567367
v -11.07545 -16.3696 -1.886821
v -17.65552 -14.08805 -1.567368
v -14.18935 -18.17528 -1.014939
v -18.19403 -14.1706 -1.01494
v -14.18935 -18.17528 -1.014939
v -17.65552 -14.08805 -1.567368
v -14.08983 -17.65374 -1.567367
v -16.37524 -11.06979 -1.886822
v -18.19403 -14.1706 -1.01494
v -16.45523 -10.2199 -1.437767
v -18.19403 -14.1706 -1.01494
v -16.37524 -11.06979 -1.886822
v -17.65552 -14.08805 -1.567368
v -11.07545 -16.3696 -1.886821
v -16.45523 -10.2199 -1.437767
v -10.24358 -16.43156 -1.437764
v -16.45523 -10.2199 -1.437767
v -11.07545 -16.3696 -1.886821
v -16.37524 -11.06979 -1.886822
vt 0.253415 1.008627
vt 0.139759 0.661897
vt 0.253415 0.999737
vt 0.118163 0.664817
vt 0.745358 1.008626
vt 0.253415 1.008627
vt 0.745358 0.999737
vt 0.253415 0.999737
vt 0.859621 0.661897
vt 0.745358 1.008626
vt 0.881216 0.664816
vt 0.745358 0.999737
vt 0.139759 0.661897
vt 0.859621 0.661897
vt 0.118163 0.664817
vt 0.881216 0.664816
vt 0.139759 0.661897
vt 0.745358 1.008626
vt 0.859621 0.661897
vt 0.253415 1.008627
vt 0.831428 0.698165
vt 0.722626 0.966387
vt 0.167868 0.698166
vt 0.276185 0.966387
vt 0.253415 0.999737
vt 0.118163 0.664817
vt 0.276185 0.966387
vt 0.167868 0.698166
vt 0.276185 0.966387
vt 0.118163 0.664817
vt 0.745358 0.999737
vt 0.253415 0.999737
vt 0.722626 0.966387
vt 0.276185 0.966387
vt 0.722626 0.966387
vt 0.253415 0.999737
vt 0.881216 0.664816
vt 0.745358 0.999737
vt 0.831428 0.698165
vt 0.722626 0.966387
vt 0.831428 0.698165
vt 0.745358 0.999737
vt 0.118163 0.664817
vt 0.881216 0.664816
vt 0.167868 0.698166
vt 0.831428 0.698165
vt 0.167868 0.698166
vt 0.881216 0.664816
vt 0.746585 0.999394
vt 0.860241 0.650861
vt 0.746585 0.9995
vt 0.881838 0.666308
vt 0.254642 0.999393
vt 0.746585 0.9995
vt 0.254642 0.9995
vt 0.746585 0.999394
vt 0.118784 0.666307
vt 0.254642 0.9995
vt 0.140379 0.650861
vt 0.254642 0.999393
vt 0.881838 0.666308
vt 0.140379 0.650861
vt 0.860241 0.650861
vt 0.118784 0.666307
vt 0.140379 0.650861
vt 0.254642 0.9995
vt 0.860241 0.650861
vt 0.746585 0.9995
vt 0.832132 0.703832
vt 0.277374 0.970584
vt 0.168572 0.703831
vt 0.723815 0.970584
vt 0.723815 0.970584
vt 0.881838 0.666308
vt 0.746585 0.999394
vt 0.881838 0.666308
vt 0.723815 0.970584
vt 0.832132 0.703832
vt 0.277374 0.970584
vt 0.746585 0.999394
vt 0.254642 0.999393
vt 0.746585 0.999394
vt 0.277374 0.970584
vt 0.723815 0.970584
vt 0.168572 0.703831
vt 0.254642 0.999393
vt 0.118784 0.666307
vt 0.254642 0.999393
vt 0.168572 0.703831
vt 0.277374 0.970584
vt 0.832132 0.703832
vt 0.118784 0.666307
vt 0.881838 0.666308
vt 0.118784 0.666307
vt 0.832132 0.703832
vt 0.168572 0.703831
vn 0.433762 -0.901028 0.000419
vn 0.422979 -0.904789 -0.049447
vn 0.422979 -0.904789 -0.049447
vn 0.41109 -0.906183 -0.099183
vn -0.707106 -0.707106 0.001272
vn -0.707106 -0.707106 0.001272
vn -0.707106 -0.707106 0.001272
vn -0.707107 -0.707106 0.001271
vn -0.89744 0.43036 -0.09691
vn -0.907565 0.417127 -0.048288
vn -0.907565 0.417127 -0.048288
vn -0.915292 0.402791 0.000462
vn 0.701227 0.701228 0.128687
vn 0.701228 0.701228 0.128683
vn 0.701228 0.701228 0.128683
vn 0.701229 0.701228 0.128679
vn -0.000003 -0.000003 -1
vn -0.000003 -0.000003 -1
vn -0.000003 -0.000003 -1
vn -0.000003 -0.000003 -1
vn -0.07391 -0.07391 0.994522
vn -0.07391 -0.07391 0.994522
vn -0.07391 -0.07391 0.994522
vn -0.07391 -0.07391 0.994522
vn 0.252225 -0.725907 0.639877
vn 0.252225 -0.725907 0.639877
vn 0.252225 -0.725907 0.639877
vn 0.262287 -0.762743 0.591124
vn 0.262287 -0.762743 0.591124
vn 0.262287 -0.762743 0.591124
vn -0.553519 -0.553519 0.622281
vn -0.553519 -0.553519 0.622281
vn -0.553519 -0.553519 0.622281
vn -0.55352 -0.553519 0.62228
vn -0.55352 -0.553519 0.62228
vn -0.55352 -0.553519 0.62228
vn -0.739316 0.258861 0.621613
vn -0.739316 0.258861 0.621613
vn -0.739316 0.258861 0.621613
vn -0.713563 0.232736 0.660805
vn -0.713563 0.232736 0.660805
vn -0.713563 0.232736 0.660805
vn 0.449944 0.449943 0.771429
vn 0.449944 0.449943 0.771429
vn 0.449944 0.449943 0.771429
vn 0.449943 0.449942 0.771429
vn 0.449943 0.449942 0.771429
vn 0.449943 0.449942 0.771429
vn 0.422979 -0.904789 0.049447
vn 0.422979 -0.904789 0.049447
vn 0.433762 -0.901028 -0.000419
vn 0.41109 -0.906183 0.099183
vn -0.707107 -0.707106 -0.001272
vn -0.707107 -0.707106 -0.001272
vn -0.707107 -0.707106 -0.001272
vn -0.707107 -0.707106 -0.001271
vn -0.907565 0.417127 0.048287
vn -0.907565 0.417127 0.048287
vn -0.89744 0.43036 0.096909
vn -0.915292 0.402792 -0.000462
vn 0.701228 0.701228 -0.128683
vn 0.701228 0.701228 -0.128683
vn 0.701227 0.701228 -0.128688
vn 0.701229 0.701227 -0.128678
vn -0.000003 -0.000003 1
vn -0.000003 -0.000003 1
vn -0.000003 -0.000003 1
vn -0.000003 -0.000003 1
vn -0.07391 -0.07391 -0.994522
vn -0.07391 -0.07391 -0.994522
vn -0.07391 -0.07391 -0.994522
vn -0.07391 -0.07391 -0.994522
vn 0.252225 -0.725907 -0.639876
vn 0.252225 -0.725907 -0.639876
vn 0.252225 -0.725907 -0.639876
vn 0.262287 -0.762743 -0.591124
vn 0.262287 -0.762743 -0.591124
vn 0.262287 -0.762743 -0.591124
vn -0.55352 -0.553519 -0.62228
vn -0.55352 -0.553519 -0.62228
vn -0.55352 -0.553519 -0.62228
vn -0.55352 -0.553519 -0.62228
vn -0.55352 -0.553519 -0.62228
vn -0.55352 -0.553519 -0.62228
vn -0.739316 0.258861 -0.621613
vn -0.739316 0.258861 -0.621613
vn -0.739316 0.258861 -0.621613
vn -0.713563 0.232737 -0.660803
vn -0.713563 0.232737 -0.660803
vn -0.713563 0.232737 -0.660803
vn 0.449944 0.449942 -0.771429
vn 0.449944 0.449942 -0.771429
vn 0.449944 0.449942 -0.771429
vn 0.449943 0.449942 -0.77143
vn 0.449943 0.449942 -0.77143
vn 0.449943 0.449942 -0.77143
usemtl datan_common__2_fe31b1e9
f 133/133/133 134/134/134 135/135/135
f 135/135/135 134/134/134 136/136/136
f 137/137/137 138/138/138 139/139/139
f 139/139/139 138/138/138 140/140/140
f 141/141/141 142/142/142 143/143/143
f 143/143/143 142/142/142 144/144/144
f 145/145/145 146/146/146 147/147/147
f 147/147/147 146/146/146 148/148/148
f 149/149/149 150/150/150 151/151/151
f 149/149/149 152/152/152 150/150/150
f 153/153/153 154/154/154 155/155/155
f 154/154/154 156/156/156 155/155/155
f 157/157/157 158/158/158 159/159/159
f 160/160/160 161/161/161 162/162/162
f 163/163/163 164/164/164 165/165/165
f 166/166/166 167/167/167 168/168/168
f 169/169/169 170/170/170 171/171/171
f 172/172/172 173/173/173 174/174/174
f 175/175/175 176/176/176 177/177/177
f 178/178/178 179/179/179 180/180/180
f 181/181/181 182/182/182 183/183/183
f 184/184/184 182/182/182 181/181/181
f 185/185/185 186/186/186 187/187/187
f 188/188/188 186/186/186 185/185/185
f 189/189/189 190/190/190 191/191/191
f 192/192/192 190/190/190 189/189/189
f 193/193/193 194/194/194 195/195/195
f 196/196/196 194/194/194 193/193/193
f 197/197/197 198/198/198 199/199/199
f 198/198/198 200/200/200 199/199/199
f 201/201/201 202/202/202 203/203/203
f 201/201/201 204/204/204 202/202/202
f 205/205/205 206/206/206 207/207/207
f 208/208/208 209/209/209 210/210/210
f 211/211/211 212/212/212 213/213/213
f 214/214/214 215/215/215 216/216/216
f 217/217/217 218/218/218 219/219/219
f 220/220/220 221/221/221 222/222/222
f 223/223/223 224/224/224 225/225/225
f 226/226/226 227/227/227 228/228/228
