# Generated from Nova1492 GX by tools/nova1492/GxObjConverter
mtllib datan_common_7843178e.mtl
o datan_common_7843178e_mesh00
v 6.007818 14.6332 -0.000003
v 4.332173 18.66051 0.000014
v 6.007817 14.63645 1.881273
v 4.590681 18.45711 1.479723
v 4.405471 10.81436 -0.000004
v 6.007818 14.6332 -0.000003
v 4.405471 10.81576 2.282842
v 6.007817 14.63645 1.881273
v -4.364254 10.81435 -0.000005
v 4.405471 10.81436 -0.000004
v -4.364255 10.81576 2.282841
v 4.405471 10.81576 2.282842
v -5.953156 14.63317 -0.000005
v -4.364254 10.81435 -0.000005
v -5.953157 14.63642 1.881273
v -4.364255 10.81576 2.282841
v -4.284552 18.6605 0.000013
v -5.953156 14.63317 -0.000005
v -4.543048 18.45711 1.47972
v -5.953157 14.63642 1.881273
v 4.332173 18.66051 0.000014
v -4.284552 18.6605 0.000013
v 4.590681 18.45711 1.479723
v -4.543048 18.45711 1.47972
v -3.984756 17.93181 2.041203
v -5.172545 14.7135 2.379446
v 4.101804 17.93181 2.041205
v -3.827341 11.47883 2.719424
v 3.938698 11.47883 2.719425
v 5.295405 14.71381 2.379416
v 6.007817 14.63645 1.881273
v 4.590681 18.45711 1.479723
v 5.295405 14.71381 2.379416
v 4.101804 17.93181 2.041205
v 5.295405 14.71381 2.379416
v 4.590681 18.45711 1.479723
v 4.405471 10.81576 2.282842
v 6.007817 14.63645 1.881273
v 3.938698 11.47883 2.719425
v 5.295405 14.71381 2.379416
v 3.938698 11.47883 2.719425
v 6.007817 14.63645 1.881273
v -4.364255 10.81576 2.282841
v 4.405471 10.81576 2.282842
v -3.827341 11.47883 2.719424
v 3.938698 11.47883 2.719425
v -3.827341 11.47883 2.719424
v 4.405471 10.81576 2.282842
v -5.953157 14.63642 1.881273
v -4.364255 10.81576 2.282841
v -5.172545 14.7135 2.379446
v -3.827341 11.47883 2.719424
v -5.172545 14.7135 2.379446
v -4.364255 10.81576 2.282841
v -4.543048 18.45711 1.47972
v -5.953157 14.63642 1.881273
v -3.984756 17.93181 2.041203
v -5.172545 14.7135 2.379446
v -3.984756 17.93181 2.041203
v -5.953157 14.63642 1.881273
v 4.590681 18.45711 1.479723
v -4.543048 18.45711 1.47972
v 4.101804 17.93181 2.041205
v -3.984756 17.93181 2.041203
v 4.101804 17.93181 2.041205
v -4.543048 18.45711 1.47972
vt 0.999501 0.329543
vt 0.859548 0.661153
vt 0.999501 0.31353
vt 0.881139 0.6316
vt 0.86567 0.015099
vt 0.999501 0.329543
vt 0.86567 -0.004542
vt 0.999501 0.31353
vt 0.133207 0.015099
vt 0.86567 0.015099
vt 0.133207 -0.004542
vt 0.86567 -0.004542
vt 0.0005 0.329541
vt 0.133207 0.015099
vt 0.0005 0.313528
vt 0.133207 -0.004542
vt 0.139864 0.661153
vt 0.0005 0.329541
vt 0.118274 0.6316
vt 0.0005 0.313528
vt 0.859548 0.661153
vt 0.139864 0.661153
vt 0.881139 0.6316
vt 0.118274 0.6316
vt 0.141763 0.598251
vt 0.036604 0.314251
vt 0.857691 0.59825
vt 0.155699 0.028807
vt 0.84325 0.028807
vt 0.963364 0.314278
vt 0.999501 0.31353
vt 0.881139 0.6316
vt 0.963364 0.314278
vt 0.857691 0.59825
vt 0.963364 0.314278
vt 0.881139 0.6316
vt 0.86567 -0.004542
vt 0.999501 0.31353
vt 0.84325 0.028807
vt 0.963364 0.314278
vt 0.84325 0.028807
vt 0.999501 0.31353
vt 0.133207 -0.004542
vt 0.86567 -0.004542
vt 0.155699 0.028807
vt 0.84325 0.028807
vt 0.155699 0.028807
vt 0.86567 -0.004542
vt 0.0005 0.313528
vt 0.133207 -0.004542
vt 0.036604 0.314251
vt 0.155699 0.028807
vt 0.036604 0.314251
vt 0.133207 -0.004542
vt 0.118274 0.6316
vt 0.0005 0.313528
vt 0.141763 0.598251
vt 0.036604 0.314251
vt 0.141763 0.598251
vt 0.0005 0.313528
vt 0.881139 0.6316
vt 0.118274 0.6316
vt 0.857691 0.59825
vt 0.141763 0.598251
vt 0.857691 0.59825
vt 0.118274 0.6316
vn 0.923272 0.384146 -0.000665
vn 0.931057 0.360049 -0.059142
vn 0.931057 0.360049 -0.059142
vn 0.935061 0.334491 -0.117379
vn 0.922117 -0.386911 0.000239
vn 0.922163 -0.386801 0.000454
vn 0.922163 -0.386801 0.000454
vn 0.922209 -0.386692 0.00067
vn 0 -1 0.000616
vn 0 -1 0.000616
vn 0 -1 0.000616
vn 0 -1 0.000616
vn -0.923272 -0.384148 0.000665
vn -0.923309 -0.384058 0.00045
vn -0.923309 -0.384058 0.00045
vn -0.923347 -0.383968 0.000236
vn -0.918427 0.380523 -0.108139
vn -0.929824 0.363953 -0.054459
vn -0.929824 0.363953 -0.054459
vn -0.938165 0.346187 -0.0006
vn -0.000001 0.990684 0.136178
vn -0 0.990685 0.136176
vn -0 0.990685 0.136176
vn -0 0.990685 0.136174
vn -0 0.104524 0.994522
vn -0.000001 0.104526 0.994522
vn 0.000001 0.104526 0.994522
vn -0.000001 0.104527 0.994522
vn 0.000003 0.104526 0.994522
vn 0.000006 0.104526 0.994522
vn 0.569171 0.2919 0.768661
vn 0.569171 0.2919 0.768661
vn 0.569171 0.2919 0.768661
vn 0.569172 0.2919 0.76866
vn 0.569172 0.2919 0.76866
vn 0.569172 0.2919 0.76866
vn 0.556013 -0.147206 0.818034
vn 0.556013 -0.147206 0.818034
vn 0.556013 -0.147206 0.818034
vn 0.556013 -0.147205 0.818035
vn 0.556013 -0.147205 0.818035
vn 0.556013 -0.147205 0.818035
vn 0 -0.549928 0.835212
vn 0 -0.549928 0.835212
vn 0 -0.549928 0.835212
vn 0 -0.549928 0.835212
vn 0 -0.549928 0.835212
vn 0 -0.549928 0.835212
vn -0.524307 -0.129587 0.841611
vn -0.524307 -0.129587 0.841611
vn -0.524307 -0.129587 0.841611
vn -0.524307 -0.129587 0.841611
vn -0.524307 -0.129587 0.841611
vn -0.524307 -0.129587 0.841611
vn -0.535816 0.28142 0.796055
vn -0.535816 0.28142 0.796055
vn -0.535816 0.28142 0.796055
vn -0.535816 0.28142 0.796055
vn -0.535816 0.28142 0.796055
vn -0.535816 0.28142 0.796055
vn -0 0.730246 0.683184
vn -0 0.730246 0.683184
vn -0 0.730246 0.683184
vn -0 0.730246 0.683184
vn -0 0.730246 0.683184
vn -0 0.730246 0.683184
usemtl datan_common_7843178e
f 1/1/1 2/2/2 3/3/3
f 3/3/3 2/2/2 4/4/4
f 5/5/5 6/6/6 7/7/7
f 7/7/7 6/6/6 8/8/8
f 9/9/9 10/10/10 11/11/11
f 11/11/11 10/10/10 12/12/12
f 13/13/13 14/14/14 15/15/15
f 15/15/15 14/14/14 16/16/16
f 17/17/17 18/18/18 19/19/19
f 19/19/19 18/18/18 20/20/20
f 21/21/21 22/22/22 23/23/23
f 23/23/23 22/22/22 24/24/24
f 25/25/25 26/26/26 27/27/27
f 26/26/26 28/28/28 27/27/27
f 28/28/28 29/29/29 27/27/27
f 29/29/29 30/30/30 27/27/27
f 31/31/31 32/32/32 33/33/33
f 34/34/34 35/35/35 36/36/36
f 37/37/37 38/38/38 39/39/39
f 40/40/40 41/41/41 42/42/42
f 43/43/43 44/44/44 45/45/45
f 46/46/46 47/47/47 48/48/48
f 49/49/49 50/50/50 51/51/51
f 52/52/52 53/53/53 54/54/54
f 55/55/55 56/56/56 57/57/57
f 58/58/58 59/59/59 60/60/60
f 61/61/61 62/62/62 63/63/63
f 64/64/64 65/65/65 66/66/66
o datan_common_7843178e_mesh01
v 6.007817 14.63645 -1.881253
v 4.332172 18.66051 0.000007
v 6.007817 14.6332 0.000024
v 4.590681 18.45711 -1.479702
v 4.405471 10.81576 -2.282824
v 6.007817 14.6332 0.000024
v 4.405471 10.81436 0.000023
v 6.007817 14.63645 -1.881253
v -4.364254 10.81576 -2.282826
v 4.405471 10.81436 0.000023
v -4.364254 10.81435 0.000022
v 4.405471 10.81576 -2.282824
v -5.953156 14.63642 -1.881257
v -4.364254 10.81435 0.000022
v -5.953156 14.63317 0.000022
v -4.364254 10.81576 -2.282826
v -4.543047 18.45711 -1.479703
v -5.953156 14.63317 0.000022
v -4.284551 18.66051 0.000005
v -5.953156 14.63642 -1.881257
v 4.590681 18.45711 -1.479702
v -4.284551 18.66051 0.000005
v 4.332172 18.66051 0.000007
v -4.543047 18.45711 -1.479703
v 4.101805 17.93182 -2.041185
v -5.172544 14.7135 -2.37943
v -3.984755 17.93182 -2.041185
v -3.827339 11.47883 -2.719409
v 3.938698 11.47883 -2.719407
v 5.295406 14.71381 -2.379396
v 5.295406 14.71381 -2.379396
v 4.590681 18.45711 -1.479702
v 6.007817 14.63645 -1.881253
v 4.590681 18.45711 -1.479702
v 5.295406 14.71381 -2.379396
v 4.101805 17.93182 -2.041185
v 3.938698 11.47883 -2.719407
v 6.007817 14.63645 -1.881253
v 4.405471 10.81576 -2.282824
v 6.007817 14.63645 -1.881253
v 3.938698 11.47883 -2.719407
v 5.295406 14.71381 -2.379396
v -3.827339 11.47883 -2.719409
v 4.405471 10.81576 -2.282824
v -4.364254 10.81576 -2.282826
v 4.405471 10.81576 -2.282824
v -3.827339 11.47883 -2.719409
v 3.938698 11.47883 -2.719407
v -5.172544 14.7135 -2.37943
v -4.364254 10.81576 -2.282826
v -5.953156 14.63642 -1.881257
v -4.364254 10.81576 -2.282826
v -5.172544 14.7135 -2.37943
v -3.827339 11.47883 -2.719409
v -3.984755 17.93182 -2.041185
v -5.953156 14.63642 -1.881257
v -4.543047 18.45711 -1.479703
v -5.953156 14.63642 -1.881257
v -3.984755 17.93182 -2.041185
v -5.172544 14.7135 -2.37943
v 4.101805 17.93182 -2.041185
v -4.543047 18.45711 -1.479703
v 4.590681 18.45711 -1.479702
v -4.543047 18.45711 -1.479703
v 4.101805 17.93182 -2.041185
v -3.984755 17.93182 -2.041185
vt 0.0005 0.316946
vt 0.140452 0.650113
vt 0.000499 0.316676
vt 0.118861 0.633273
vt 0.13433 0.000616
vt 0.000499 0.316676
vt 0.13433 0.000499
vt 0.0005 0.316946
vt 0.866793 0.000616
vt 0.13433 0.000499
vt 0.866793 0.000499
vt 0.13433 0.000616
vt 0.999501 0.316944
vt 0.866793 0.000499
vt 0.999501 0.316674
vt 0.866793 0.000616
vt 0.881726 0.633273
vt 0.999501 0.316674
vt 0.860136 0.650113
vt 0.999501 0.316944
vt 0.118861 0.633273
vt 0.860136 0.650113
vt 0.140452 0.650113
vt 0.881726 0.633273
vt 0.142309 0.604464
vt 0.963396 0.32202
vt 0.858237 0.604464
vt 0.844301 0.03814
vt 0.15675 0.03814
vt 0.036636 0.322047
vt 0.036636 0.322047
vt 0.118861 0.633273
vt 0.0005 0.316946
vt 0.118861 0.633273
vt 0.036636 0.322047
vt 0.142309 0.604464
vt 0.15675 0.03814
vt 0.0005 0.316946
vt 0.13433 0.000616
vt 0.0005 0.316946
vt 0.15675 0.03814
vt 0.036636 0.322047
vt 0.844301 0.03814
vt 0.13433 0.000616
vt 0.866793 0.000616
vt 0.13433 0.000616
vt 0.844301 0.03814
vt 0.15675 0.03814
vt 0.963396 0.32202
vt 0.866793 0.000616
vt 0.999501 0.316944
vt 0.866793 0.000616
vt 0.963396 0.32202
vt 0.844301 0.03814
vt 0.858237 0.604464
vt 0.999501 0.316944
vt 0.881726 0.633273
vt 0.999501 0.316944
vt 0.858237 0.604464
vt 0.963396 0.32202
vt 0.142309 0.604464
vt 0.881726 0.633273
vt 0.118861 0.633273
vt 0.881726 0.633273
vt 0.142309 0.604464
vt 0.858237 0.604464
vn 0.931057 0.360049 0.059142
vn 0.931057 0.360049 0.059142
vn 0.923272 0.384146 0.000665
vn 0.935061 0.334491 0.117379
vn 0.922163 -0.386801 -0.000454
vn 0.922163 -0.386801 -0.000454
vn 0.922117 -0.386911 -0.000238
vn 0.922209 -0.386691 -0.00067
vn 0 -1 -0.000616
vn 0 -1 -0.000616
vn 0 -1 -0.000616
vn 0 -1 -0.000616
vn -0.923309 -0.384058 -0.000451
vn -0.923309 -0.384058 -0.000451
vn -0.923272 -0.384148 -0.000665
vn -0.923347 -0.383968 -0.000237
vn -0.929824 0.363953 0.054459
vn -0.929824 0.363953 0.054459
vn -0.918427 0.380523 0.108139
vn -0.938165 0.346187 0.0006
vn -0 0.990685 -0.136176
vn -0 0.990685 -0.136176
vn -0.000001 0.990684 -0.136178
vn 0 0.990685 -0.136174
vn 0.000001 0.104526 -0.994522
vn -0.000001 0.104526 -0.994522
vn 0 0.104524 -0.994522
vn -0.000001 0.104527 -0.994522
vn 0.000003 0.104526 -0.994522
vn 0.000006 0.104526 -0.994522
vn 0.569172 0.2919 -0.76866
vn 0.569172 0.2919 -0.76866
vn 0.569172 0.2919 -0.76866
vn 0.569173 0.2919 -0.768659
vn 0.569173 0.2919 -0.768659
vn 0.569173 0.2919 -0.768659
vn 0.556014 -0.147206 -0.818034
vn 0.556014 -0.147206 -0.818034
vn 0.556014 -0.147206 -0.818034
vn 0.556014 -0.147205 -0.818034
vn 0.556014 -0.147205 -0.818034
vn 0.556014 -0.147205 -0.818034
vn 0 -0.549927 -0.835213
vn 0 -0.549927 -0.835213
vn 0 -0.549927 -0.835213
vn 0 -0.549928 -0.835212
vn 0 -0.549928 -0.835212
vn 0 -0.549928 -0.835212
vn -0.524307 -0.129587 -0.841612
vn -0.524307 -0.129587 -0.841612
vn -0.524307 -0.129587 -0.841612
vn -0.524307 -0.129587 -0.841611
vn -0.524307 -0.129587 -0.841611
vn -0.524307 -0.129587 -0.841611
vn -0.535816 0.28142 -0.796055
vn -0.535816 0.28142 -0.796055
vn -0.535816 0.28142 -0.796055
vn -0.535816 0.28142 -0.796055
vn -0.535816 0.28142 -0.796055
vn -0.535816 0.28142 -0.796055
vn 0 0.730246 -0.683184
vn 0 0.730246 -0.683184
vn 0 0.730246 -0.683184
vn 0 0.730246 -0.683184
vn 0 0.730246 -0.683184
vn 0 0.730246 -0.683184
usemtl datan_common_7843178e
f 67/67/67 68/68/68 69/69/69
f 70/70/70 68/68/68 67/67/67
f 71/71/71 72/72/72 73/73/73
f 74/74/74 72/72/72 71/71/71
f 75/75/75 76/76/76 77/77/77
f 78/78/78 76/76/76 75/75/75
f 79/79/79 80/80/80 81/81/81
f 82/82/82 80/80/80 79/79/79
f 83/83/83 84/84/84 85/85/85
f 86/86/86 84/84/84 83/83/83
f 87/87/87 88/88/88 89/89/89
f 90/90/90 88/88/88 87/87/87
f 91/91/91 92/92/92 93/93/93
f 91/91/91 94/94/94 92/92/92
f 91/91/91 95/95/95 94/94/94
f 91/91/91 96/96/96 95/95/95
f 97/97/97 98/98/98 99/99/99
f 100/100/100 101/101/101 102/102/102
f 103/103/103 104/104/104 105/105/105
f 106/106/106 107/107/107 108/108/108
f 109/109/109 110/110/110 111/111/111
f 112/112/112 113/113/113 114/114/114
f 115/115/115 116/116/116 117/117/117
f 118/118/118 119/119/119 120/120/120
f 121/121/121 122/122/122 123/123/123
f 124/124/124 125/125/125 126/126/126
f 127/127/127 128/128/128 129/129/129
f 130/130/130 131/131/131 132/132/132
o datan_common_7843178e_mesh02
v -2.811703 22.88047 0.000032
v -4.285814 18.66954 0.000014
v -2.811704 22.87918 1.014961
v -4.368787 18.85611 1.437785
v 2.851763 22.88047 0.000033
v -2.811703 22.88047 0.000032
v 2.851763 22.87918 1.014963
v -2.811704 22.87918 1.014961
v 4.333045 18.66954 0.000016
v 2.851763 22.88047 0.000033
v 4.41582 18.8561 1.437788
v 2.851763 22.87918 1.014963
v -4.285814 18.66954 0.000014
v 4.333045 18.66954 0.000016
v -4.368787 18.85611 1.437785
v 4.41582 18.8561 1.437788
v 3.758295 19.40051 1.886844
v 2.529351 22.44003 1.56739
v -3.736756 19.40052 1.886841
v -2.513291 22.44003 1.567389
v -2.811704 22.87918 1.014961
v -4.368787 18.85611 1.437785
v -2.513291 22.44003 1.567389
v -3.736756 19.40052 1.886841
v -2.513291 22.44003 1.567389
v -4.368787 18.85611 1.437785
v 2.851763 22.87918 1.014963
v -2.811704 22.87918 1.014961
v 2.529351 22.44003 1.56739
v -2.513291 22.44003 1.567389
v 2.529351 22.44003 1.56739
v -2.811704 22.87918 1.014961
v 4.41582 18.8561 1.437788
v 2.851763 22.87918 1.014963
v 3.758295 19.40051 1.886844
v 2.529351 22.44003 1.56739
v 3.758295 19.40051 1.886844
v 2.851763 22.87918 1.014963
v -4.368787 18.85611 1.437785
v 4.41582 18.8561 1.437788
v -3.736756 19.40052 1.886841
v 3.758295 19.40051 1.886844
v -3.736756 19.40052 1.886841
v 4.41582 18.8561 1.437788
v -2.811703 22.87919 -1.014943
v -4.285814 18.66954 0.000004
v -2.811703 22.88048 -0.000012
v -4.368786 18.85611 -1.437768
v 2.851763 22.87918 -1.014942
v -2.811703 22.88048 -0.000012
v 2.851763 22.88047 -0.000011
v -2.811703 22.87919 -1.014943
v 4.415819 18.8561 -1.437768
v 2.851763 22.88047 -0.000011
v 4.333045 18.66954 0.000005
v 2.851763 22.87918 -1.014942
v -4.368786 18.85611 -1.437768
v 4.333045 18.66954 0.000005
v -4.285814 18.66954 0.000004
v 4.415819 18.8561 -1.437768
v -3.736756 19.40052 -1.886823
v 2.529351 22.44003 -1.567369
v 3.758295 19.40051 -1.886823
v -2.513291 22.44003 -1.56737
v -2.513291 22.44003 -1.56737
v -4.368786 18.85611 -1.437768
v -2.811703 22.87919 -1.014943
v -4.368786 18.85611 -1.437768
v -2.513291 22.44003 -1.56737
v -3.736756 19.40052 -1.886823
v 2.529351 22.44003 -1.567369
v -2.811703 22.87919 -1.014943
v 2.851763 22.87918 -1.014942
v -2.811703 22.87919 -1.014943
v 2.529351 22.44003 -1.567369
v -2.513291 22.44003 -1.56737
v 3.758295 19.40051 -1.886823
v 2.851763 22.87918 -1.014942
v 4.415819 18.8561 -1.437768
v 2.851763 22.87918 -1.014942
v 3.758295 19.40051 -1.886823
v 2.529351 22.44003 -1.567369
v -3.736756 19.40052 -1.886823
v 4.415819 18.8561 -1.437768
v -4.368786 18.85611 -1.437768
v 4.415819 18.8561 -1.437768
v -3.736756 19.40052 -1.886823
v 3.758295 19.40051 -1.886823
vt 0.253415 1.008627
vt 0.139759 0.661897
vt 0.253415 0.999737
vt 0.118163 0.664817
vt 0.745358 1.008626
vt 0.253415 1.008627
vt 0.745358 0.999737
vt 0.253415 0.999737
vt 0.859621 0.661897
vt 0.745358 1.008626
vt 0.881216 0.664816
vt 0.745358 0.999737
vt 0.139759 0.661897
vt 0.859621 0.661897
vt 0.118163 0.664817
vt 0.881216 0.664816
vt 0.831428 0.698165
vt 0.722626 0.966387
vt 0.167868 0.698166
vt 0.276185 0.966387
vt 0.253415 0.999737
vt 0.118163 0.664817
vt 0.276185 0.966387
vt 0.167868 0.698166
vt 0.276185 0.966387
vt 0.118163 0.664817
vt 0.745358 0.999737
vt 0.253415 0.999737
vt 0.722626 0.966387
vt 0.276185 0.966387
vt 0.722626 0.966387
vt 0.253415 0.999737
vt 0.881216 0.664816
vt 0.745358 0.999737
vt 0.831428 0.698165
vt 0.722626 0.966387
vt 0.831428 0.698165
vt 0.745358 0.999737
vt 0.118163 0.664817
vt 0.881216 0.664816
vt 0.167868 0.698166
vt 0.831428 0.698165
vt 0.167868 0.698166
vt 0.881216 0.664816
vt 0.746585 0.999394
vt 0.860241 0.650861
vt 0.746585 0.9995
vt 0.881838 0.666308
vt 0.254642 0.999393
vt 0.746585 0.9995
vt 0.254642 0.9995
vt 0.746585 0.999394
vt 0.118784 0.666307
vt 0.254642 0.9995
vt 0.140379 0.650861
vt 0.254642 0.999393
vt 0.881838 0.666308
vt 0.140379 0.650861
vt 0.860241 0.650861
vt 0.118784 0.666307
vt 0.832132 0.703832
vt 0.277374 0.970584
vt 0.168572 0.703831
vt 0.723815 0.970584
vt 0.723815 0.970584
vt 0.881838 0.666308
vt 0.746585 0.999394
vt 0.881838 0.666308
vt 0.723815 0.970584
vt 0.832132 0.703832
vt 0.277374 0.970584
vt 0.746585 0.999394
vt 0.254642 0.999393
vt 0.746585 0.999394
vt 0.277374 0.970584
vt 0.723815 0.970584
vt 0.168572 0.703831
vt 0.254642 0.999393
vt 0.118784 0.666307
vt 0.254642 0.999393
vt 0.168572 0.703831
vt 0.277374 0.970584
vt 0.832132 0.703832
vt 0.118784 0.666307
vt 0.881838 0.666308
vt 0.118784 0.666307
vt 0.832132 0.703832
vt 0.168572 0.703831
vn -0.943839 0.330407 0.00042
vn -0.938874 0.340691 -0.049446
vn -0.938874 0.340691 -0.049446
vn -0.931453 0.350084 -0.099182
vn 0 0.999999 0.001272
vn 0 0.999999 0.001272
vn 0 0.999999 0.001272
vn 0 0.999999 0.001272
vn 0.938896 0.330277 -0.096909
vn 0.936698 0.346793 -0.048288
vn 0.936698 0.346793 -0.048288
vn 0.932025 0.362393 0.000461
vn 0 -0.991685 0.128687
vn -0 -0.991686 0.128683
vn -0 -0.991686 0.128683
vn -0.000001 -0.991686 0.128679
vn -0 0.104524 0.994522
vn -0 0.104524 0.994522
vn -0 0.104524 0.994522
vn -0 0.104524 0.994522
vn -0.691644 0.334943 0.639877
vn -0.691644 0.334943 0.639877
vn -0.691644 0.334943 0.639877
vn -0.724807 0.353876 0.591123
vn -0.724807 0.353876 0.591123
vn -0.724807 0.353876 0.591123
vn 0 0.782795 0.62228
vn 0 0.782795 0.62228
vn 0 0.782795 0.62228
vn 0 0.782795 0.62228
vn 0 0.782795 0.62228
vn 0 0.782795 0.62228
vn 0.705818 0.339733 0.621613
vn 0.705818 0.339733 0.621613
vn 0.705818 0.339733 0.621613
vn 0.669134 0.339996 0.660804
vn 0.669134 0.339996 0.660804
vn 0.669134 0.339996 0.660804
vn -0.000001 -0.636315 0.771429
vn -0.000001 -0.636315 0.771429
vn -0.000001 -0.636315 0.771429
vn -0.000001 -0.636315 0.77143
vn -0.000001 -0.636315 0.77143
vn -0.000001 -0.636315 0.77143
vn -0.938874 0.340691 0.049446
vn -0.938874 0.340691 0.049446
vn -0.943839 0.330407 -0.00042
vn -0.931453 0.350084 0.099182
vn 0 0.999999 -0.00127
vn 0 0.999999 -0.00127
vn 0 0.999999 -0.00127
vn 0 0.999999 -0.00127
vn 0.936698 0.346793 0.048289
vn 0.936698 0.346793 0.048289
vn 0.938896 0.330277 0.096909
vn 0.932025 0.362393 -0.00046
vn -0 -0.991686 -0.128683
vn -0 -0.991686 -0.128683
vn 0.000001 -0.991685 -0.128688
vn -0.000001 -0.991686 -0.128679
vn 0 0.104524 -0.994522
vn 0 0.104524 -0.994522
vn 0 0.104524 -0.994522
vn 0 0.104524 -0.994522
vn -0.691643 0.334943 -0.639877
vn -0.691643 0.334943 -0.639877
vn -0.691643 0.334943 -0.639877
vn -0.724807 0.353876 -0.591123
vn -0.724807 0.353876 -0.591123
vn -0.724807 0.353876 -0.591123
vn 0 0.782794 -0.622281
vn 0 0.782794 -0.622281
vn 0 0.782794 -0.622281
vn 0 0.782794 -0.622281
vn 0 0.782794 -0.622281
vn 0 0.782794 -0.622281
vn 0.705818 0.339733 -0.621613
vn 0.705818 0.339733 -0.621613
vn 0.705818 0.339733 -0.621613
vn 0.669134 0.339996 -0.660805
vn 0.669134 0.339996 -0.660805
vn 0.669134 0.339996 -0.660805
vn -0.000001 -0.636315 -0.771429
vn -0.000001 -0.636315 -0.771429
vn -0.000001 -0.636315 -0.771429
vn -0 -0.636314 -0.77143
vn -0 -0.636314 -0.77143
vn -0 -0.636314 -0.77143
usemtl datan_common_7843178e
f 133/133/133 134/134/134 135/135/135
f 135/135/135 134/134/134 136/136/136
f 137/137/137 138/138/138 139/139/139
f 139/139/139 138/138/138 140/140/140
f 141/141/141 142/142/142 143/143/143
f 143/143/143 142/142/142 144/144/144
f 145/145/145 146/146/146 147/147/147
f 147/147/147 146/146/146 148/148/148
f 149/149/149 150/150/150 151/151/151
f 150/150/150 152/152/152 151/151/151
f 153/153/153 154/154/154 155/155/155
f 156/156/156 157/157/157 158/158/158
f 159/159/159 160/160/160 161/161/161
f 162/162/162 163/163/163 164/164/164
f 165/165/165 166/166/166 167/167/167
f 168/168/168 169/169/169 170/170/170
f 171/171/171 172/172/172 173/173/173
f 174/174/174 175/175/175 176/176/176
f 177/177/177 178/178/178 179/179/179
f 180/180/180 178/178/178 177/177/177
f 181/181/181 182/182/182 183/183/183
f 184/184/184 182/182/182 181/181/181
f 185/185/185 186/186/186 187/187/187
f 188/188/188 186/186/186 185/185/185
f 189/189/189 190/190/190 191/191/191
f 192/192/192 190/190/190 189/189/189
f 193/193/193 194/194/194 195/195/195
f 193/193/193 196/196/196 194/194/194
f 197/197/197 198/198/198 199/199/199
f 200/200/200 201/201/201 202/202/202
f 203/203/203 204/204/204 205/205/205
f 206/206/206 207/207/207 208/208/208
f 209/209/209 210/210/210 211/211/211
f 212/212/212 213/213/213 214/214/214
f 215/215/215 216/216/216 217/217/217
f 218/218/218 219/219/219 220/220/220
