# Generated from Nova1492 GX by tools/nova1492/GxObjConverter
mtllib datan_common_MBMoral_311e7de5.mtl
o datan_common_MBMoral_311e7de5_mesh00
v -5 0 -5
v -5 0 5
v 5 0 -5
v 5 0 5
vt 0.00582 0.49418
vt 0.00582 0.00582
vt 0.49418 0.49418
vt 0.49418 0.00582
vn -0 1 0
vn 0 1 0
vn 0 1 0
vn 0 1 0
usemtl datan_common_MBMoral_311e7de5
f 1/1/1 2/2/2 3/3/3
f 4/4/4 3/3/3 2/2/2
o datan_common_MBMoral_311e7de5_mesh01
v 5 0 5
v 5 0 -5
v -5 0 -5
v -5 0 5
vt 0.00582 0.00582
vt 0.00582 0.49418
vt 0.49418 0.49418
vt 0.49418 0.00582
vn 0 1 0
vn 0 1 0
vn 0 1 0
vn 0 1 0
usemtl datan_common_MBMoral_311e7de5
f 5/5/5 6/6/6 7/7/7
f 7/7/7 8/8/8 5/5/5
o datan_common_MBMoral_311e7de5_mesh02
v -5 0 -5
v -5 0 5
v 5 0 -5
v 5 0 5
vt 0.50582 0.99418
vt 0.50582 0.50582
vt 0.99418 0.99418
vt 0.99418 0.50582
vn -0 1 0
vn 0 1 0
vn 0 1 0
vn 0 1 0
usemtl datan_common_MBMoral_311e7de5
f 9/9/9 10/10/10 11/11/11
f 12/12/12 11/11/11 10/10/10
o datan_common_MBMoral_311e7de5_mesh03
v 5 0 5
v 5 0 -5
v -5 0 -5
v -5 0 5
vt 0.00582 0.00582
vt 0.00582 0.49418
vt 0.49418 0.49418
vt 0.49418 0.00582
vn 0 1 0
vn 0 1 0
vn 0 1 0
vn 0 1 0
usemtl datan_common_MBMoral_311e7de5
f 13/13/13 14/14/14 15/15/15
f 15/15/15 16/16/16 13/13/13
o datan_common_MBMoral_311e7de5_mesh04
v -5 0 -5
v -5 0 5
v 5 0 -5
v 5 0 5
vt 0.00582 0.49418
vt 0.00582 0.00582
vt 0.49418 0.49418
vt 0.49418 0.00582
vn -0 1 0
vn 0 1 0
vn 0 1 0
vn 0 1 0
usemtl datan_common_MBMoral_311e7de5
f 17/17/17 18/18/18 19/19/19
f 20/20/20 19/19/19 18/18/18
o datan_common_MBMoral_311e7de5_mesh05
v -0.6 1.219697 -0
v -0.6 0.019697 0
v 0.6 1.219697 -0
v 0.6 0.019697 0
vt 0.50582 0.49418
vt 0.50582 0.00582
vt 0.99418 0.49418
vt 0.99418 0.00582
vn 0 0 1
vn 0 0 1
vn 0 0 1
vn 0 0 1
usemtl datan_common_MBMoral_311e7de5
f 21/21/21 22/22/22 23/23/23
f 24/24/24 23/23/23 22/22/22
o datan_common_MBMoral_311e7de5_mesh06
v -0.6 1.219697 -0
v -0.6 0.019697 0
v 0.6 1.219697 -0
v 0.6 0.019697 0
vt 0.50582 0.49418
vt 0.50582 0.00582
vt 0.99418 0.49418
vt 0.99418 0.00582
vn 0 0 1
vn 0 0 1
vn 0 0 1
vn 0 0 1
usemtl datan_common_MBMoral_311e7de5
f 25/25/25 26/26/26 27/27/27
f 28/28/28 27/27/27 26/26/26
o datan_common_MBMoral_311e7de5_mesh07
v -0.6 1.219697 -0
v -0.6 0.019697 0
v 0.6 1.219697 -0
v 0.6 0.019697 0
vt 0.50582 0.49418
vt 0.50582 0.00582
vt 0.99418 0.49418
vt 0.99418 0.00582
vn 0 0 1
vn 0 0 1
vn 0 0 1
vn 0 0 1
usemtl datan_common_MBMoral_311e7de5
f 29/29/29 30/30/30 31/31/31
f 32/32/32 31/31/31 30/30/30
o datan_common_MBMoral_311e7de5_mesh08
v -0.6 1.219697 -0
v -0.6 0.019697 0
v 0.6 1.219697 -0
v 0.6 0.019697 0
vt 0.50582 0.49418
vt 0.50582 0.00582
vt 0.99418 0.49418
vt 0.99418 0.00582
vn 0 0 1
vn 0 0 1
vn 0 0 1
vn 0 0 1
usemtl datan_common_MBMoral_311e7de5
f 33/33/33 34/34/34 35/35/35
f 36/36/36 35/35/35 34/34/34
o datan_common_MBMoral_311e7de5_mesh09
v -0.6 1.219697 -0
v -0.6 0.019697 0
v 0.6 1.219697 -0
v 0.6 0.019697 0
vt 0.50582 0.49418
vt 0.50582 0.00582
vt 0.99418 0.49418
vt 0.99418 0.00582
vn 0 0 1
vn 0 0 1
vn 0 0 1
vn 0 0 1
usemtl datan_common_MBMoral_311e7de5
f 37/37/37 38/38/38 39/39/39
f 40/40/40 39/39/39 38/38/38
o datan_common_MBMoral_311e7de5_mesh10
v -0.6 1.219697 -0
v -0.6 0.019697 0
v 0.6 1.219697 -0
v 0.6 0.019697 0
vt 0.50582 0.49418
vt 0.50582 0.00582
vt 0.99418 0.49418
vt 0.99418 0.00582
vn 0 0 1
vn 0 0 1
vn 0 0 1
vn 0 0 1
usemtl datan_common_MBMoral_311e7de5
f 41/41/41 42/42/42 43/43/43
f 44/44/44 43/43/43 42/42/42
o datan_common_MBMoral_311e7de5_mesh11
v -0.6 1.219697 -0
v -0.6 0.019697 0
v 0.6 1.219697 -0
v 0.6 0.019697 0
vt 0.50582 0.49418
vt 0.50582 0.00582
vt 0.99418 0.49418
vt 0.99418 0.00582
vn 0 0 1
vn 0 0 1
vn 0 0 1
vn 0 0 1
usemtl datan_common_MBMoral_311e7de5
f 45/45/45 46/46/46 47/47/47
f 48/48/48 47/47/47 46/46/46
o datan_common_MBMoral_311e7de5_mesh12
v -0.6 1.219697 -0
v -0.6 0.019697 0
v 0.6 1.219697 -0
v 0.6 0.019697 0
vt 0.50582 0.49418
vt 0.50582 0.00582
vt 0.99418 0.49418
vt 0.99418 0.00582
vn 0 0 1
vn 0 0 1
vn 0 0 1
vn 0 0 1
usemtl datan_common_MBMoral_311e7de5
f 49/49/49 50/50/50 51/51/51
f 52/52/52 51/51/51 50/50/50
o datan_common_MBMoral_311e7de5_mesh13
v -0.6 1.219697 -0
v -0.6 0.019697 0
v 0.6 1.219697 -0
v 0.6 0.019697 0
vt 0.50582 0.49418
vt 0.50582 0.00582
vt 0.99418 0.49418
vt 0.99418 0.00582
vn 0 0 1
vn 0 0 1
vn 0 0 1
vn 0 0 1
usemtl datan_common_MBMoral_311e7de5
f 53/53/53 54/54/54 55/55/55
f 56/56/56 55/55/55 54/54/54
o datan_common_MBMoral_311e7de5_mesh14
v -0.6 1.219697 -0
v -0.6 0.019697 0
v 0.6 1.219697 -0
v 0.6 0.019697 0
vt 0.50582 0.49418
vt 0.50582 0.00582
vt 0.99418 0.49418
vt 0.99418 0.00582
vn 0 0 1
vn 0 0 1
vn 0 0 1
vn 0 0 1
usemtl datan_common_MBMoral_311e7de5
f 57/57/57 58/58/58 59/59/59
f 60/60/60 59/59/59 58/58/58
o datan_common_MBMoral_311e7de5_mesh15
v -0.6 1.219697 -0
v -0.6 0.019697 0
v 0.6 1.219697 -0
v 0.6 0.019697 0
vt 0.50582 0.49418
vt 0.50582 0.00582
vt 0.99418 0.49418
vt 0.99418 0.00582
vn 0 0 1
vn 0 0 1
vn 0 0 1
vn 0 0 1
usemtl datan_common_MBMoral_311e7de5
f 61/61/61 62/62/62 63/63/63
f 64/64/64 63/63/63 62/62/62
