# Generated from Nova1492 GX by tools/nova1492/GxObjConverter
mtllib datan_common_wattac_76f22cae.mtl
o datan_common_wattac_76f22cae_mesh00
v -0.386345 0.580216 -0.274346
v -0.468767 0.580216 -0.066186
v 0.468767 0.580216 -0.066186
v 0.386347 0.580216 -0.274345
v 0.220794 0.580216 -0.419556
v -0 0.580216 -0.474117
v -0.220792 0.580216 -0.419557
v 0.468767 1.095729 -0.066186
v -0.468767 1.095729 -0.066186
v -0.468767 1.095729 0.31574
v 0.190262 1.095729 0.31574
v 0.468767 1.095729 0.31574
v -0.197793 1.095729 0.31574
v 0.257828 1.095729 0.442212
v 0.401202 1.095729 0.442212
v -0.403029 1.095729 0.442212
v -0.263531 1.095729 0.442212
v 0.468767 0 -0.066186
v 0.386347 0 -0.274345
v 0.386347 0.580216 -0.274345
v 0.468767 0.580216 -0.066186
v 0.220794 0 -0.419556
v 0.220794 0.580216 -0.419556
v -0 0 -0.474117
v -0 0.580216 -0.474117
v -0.220792 0 -0.419557
v -0.220792 0.580216 -0.419557
v -0.386345 0 -0.274346
v -0.386345 0.580216 -0.274346
v -0.468767 0 -0.066186
v -0.468767 0.580216 -0.066186
v -0.468767 1.095729 -0.066186
v 0.468767 1.095729 -0.066186
v 0.468767 0 -0.066186
v 0.468767 0.580216 -0.066186
v 0.468767 0.415404 0.080845
v 0.468767 0 0.080845
v -0.468767 0.580216 -0.066186
v -0.468767 0 -0.066186
v -0.468767 0 0.080845
v -0.468767 0.415404 0.080845
v 0.468767 0.570794 0.31574
v -0.468767 0.570794 0.31574
v -0.468767 1.095729 0.31574
v -0.468767 1.095729 -0.066186
v 0.468767 1.095729 -0.066186
v 0.468767 1.095729 0.31574
v -0.468767 0 0.080845
v 0.468767 0 0.080845
v 0.468767 0.415404 0.080845
v -0.468767 0.415404 0.080845
v 0.468767 0.570794 0.31574
v 0.190262 0.570794 0.31574
v 0.257828 0.570794 0.442212
v 0.401202 0.570794 0.442212
v 0.401202 1.095729 0.442212
v 0.257828 1.095729 0.442212
v -0.263531 1.095729 0.442212
v -0.403029 1.095729 0.442212
v -0.403029 0.570794 0.442212
v -0.263531 0.570794 0.442212
v -0.197793 0.570794 0.31574
v -0.468767 0.570794 0.31574
v 0.190262 1.095729 0.31574
v -0.197793 1.095729 0.31574
v -0.468767 1.095729 0.31574
v 0.468767 1.095729 0.31574
v -0.062638 0.63389 0.44545
v 0.062638 0.63389 0.44545
v 0.092078 0.79828 0.31176
v -0.092078 0.79828 0.31176
v -0.062638 0.573642 0.44545
v 0.062638 0.573642 0.44545
v 0.062638 0.63389 0.44545
v -0.062638 0.63389 0.44545
v 0.062638 0.573642 0.44545
v 0.092078 0.573642 0.31176
v 0.092078 0.79828 0.31176
v 0.062638 0.63389 0.44545
v -0.092078 0.573642 0.31176
v -0.062638 0.573642 0.44545
v -0.062638 0.63389 0.44545
v -0.092078 0.79828 0.31176
v -0.062638 0.060248 0.457837
v 0.062638 0.060248 0.457837
v 0.102206 0.224638 0.071168
v -0.102206 0.224638 0.071168
v -0.062638 0 0.457837
v 0.062638 0 0.457837
v 0.062638 0.060248 0.457837
v -0.062638 0.060248 0.457837
v 0.062638 0 0.457837
v 0.102206 0 0.071168
v 0.102206 0.224638 0.071168
v 0.062638 0.060248 0.457837
v -0.102206 0 0.071168
v -0.062638 0 0.457837
v -0.062638 0.060248 0.457837
v -0.102206 0.224638 0.071168
vt 0.945577 0.382624
vt 0.988117 0.280356
vt 0.511883 0.280356
vt 0.554422 0.382623
vt 0.639869 0.459306
vt 0.753828 0.488118
vt 0.867786 0.459306
vt 0.511883 0.272699
vt 0.988117 0.272699
vt 0.988117 0.078669
vt 0.647971 0.07867
vt 0.511883 0.07867
vt 0.855916 0.078669
vt 0.620755 0.011883
vt 0.546755 0.011883
vt 0.954188 0.011883
vt 0.889845 0.011883
vt 0.011883 0.511883
vt 0.046766 0.511883
vt 0.046766 0.760459
vt 0.011883 0.768115
vt 0.132213 0.511883
vt 0.132213 0.760459
vt 0.246172 0.511883
vt 0.246172 0.760459
vt 0.36013 0.511883
vt 0.36013 0.760459
vt 0.445577 0.511883
vt 0.445577 0.760459
vt 0.488117 0.511883
vt 0.488117 0.760459
vt 0.488117 0.988118
vt 0.011883 0.988118
vt 0.988242 0.511883
vt 0.988242 0.760459
vt 0.928184 0.687676
vt 0.928184 0.511883
vt 0.988242 0.760459
vt 0.988242 0.511883
vt 0.928184 0.511883
vt 0.928184 0.695332
vt 0.820004 0.763954
vt 0.820004 0.763954
vt 0.820004 0.988118
vt 0.988242 0.988118
vt 0.988242 0.988118
vt 0.820004 0.988118
vt 0.011883 0.011883
vt 0.488117 0.011883
vt 0.488117 0.187675
vt 0.011883 0.187675
vt 0.488117 0.256298
vt 0.344372 0.256298
vt 0.386901 0.263954
vt 0.453245 0.263954
vt 0.453245 0.488118
vt 0.379245 0.488118
vt 0.110155 0.488118
vt 0.045812 0.488118
vt 0.045812 0.263954
vt 0.110155 0.256298
vt 0.144084 0.256298
vt 0.011883 0.256298
vt 0.344372 0.488118
vt 0.151741 0.488118
vt 0.011883 0.488118
vt 0.488117 0.488118
vt 0.549188 0.511883
vt 0.700812 0.511883
vt 0.738242 0.988117
vt 0.511758 0.988118
vt 0.549188 0.511883
vt 0.700812 0.511883
vt 0.700812 0.634007
vt 0.549188 0.641663
vt 0.511758 0.511883
vt 0.738242 0.511883
vt 0.738242 0.988117
vt 0.511758 0.641663
vt 0.511758 0.511883
vt 0.738242 0.511883
vt 0.738242 0.634007
vt 0.511758 0.988117
vt 0.549188 0.511883
vt 0.700812 0.511883
vt 0.738242 0.988117
vt 0.511758 0.988118
vt 0.549188 0.511883
vt 0.700812 0.511883
vt 0.700812 0.634007
vt 0.549188 0.641663
vt 0.511758 0.511883
vt 0.738242 0.511883
vt 0.738242 0.988117
vt 0.511758 0.641663
vt 0.511758 0.511883
vt 0.738242 0.511883
vt 0.738242 0.634007
vt 0.511758 0.988117
vn 0 1 0
vn 0 1 0
vn 0 1 0
vn 0 1 0
vn 0 1 0
vn 0 1 0
vn 0 1 0
vn 0 1 0
vn 0 1 0
vn 0 1 0
vn 0 1 0
vn 0 1 0
vn 0 1 0
vn 0 1 0
vn 0 1 0
vn 0 1 0
vn 0 1 0
vn 0.92977 0 -0.368142
vn 0.768578 0 -0.639756
vn 0.860987 0 -0.508626
vn 0.365458 -0 -0.930828
vn 0.389551 -0 -0.921005
vn 0.533006 -0 -0.846112
vn -0.082091 -0 -0.996625
vn 0.082092 -0 -0.996625
vn -0.533004 -0 -0.846113
vn -0.38955 -0 -0.921005
vn -0.860985 -0 -0.50863
vn -0.768576 -0 -0.639759
vn -0.929768 0 -0.368147
vn -0.730913 -0 -0.682471
vn 0 -0 -1
vn 0 -0 -1
vn 1 0 0
vn 1 0 0
vn 1 0 0
vn 1 0 0
vn -1 0 0
vn -1 0 0
vn -1 0 0
vn -1 0 0
vn 1 0 0
vn -1 0 0
vn -1 0 0
vn -1 0 0
vn 1 0 0
vn 1 0 0
vn 0 0 1
vn 0 0 1
vn 0 -0.310673 0.950517
vn 0 -0.720927 0.693011
vn 0.555629 -0.525391 0.644392
vn -0.276319 -0.522562 0.806584
vn -0.514197 -0 0.857672
vn 0.514197 0 0.857672
vn 0.514197 0 0.857672
vn -0.514197 0 0.857672
vn 0.519037 -0 0.854752
vn -0.519037 0 0.854752
vn -0.519037 0 0.854752
vn 0.519037 -0 0.854752
vn 0.377154 -0.35451 0.855615
vn -0.560177 -0.526545 0.639493
vn -0.514197 -0 0.857672
vn 0.519037 -0 0.854752
vn -0.887296 0 0.461201
vn 0.882025 0 0.471202
vn 0 0.630944 0.775829
vn 0 0.630944 0.775829
vn 0 0.630944 0.775829
vn 0 0.630944 0.775829
vn 0 0 1
vn 0 0 1
vn 0 0 1
vn 0 0 1
vn 0.976602 0 0.215057
vn 0.976602 0 0.215057
vn 0.976602 0 0.215057
vn 0.976602 0 0.215057
vn -0.976602 0 0.215057
vn -0.976602 0 0.215057
vn -0.976602 0 0.215057
vn -0.976602 0 0.215057
vn 0 0.920283 0.391253
vn 0 0.920283 0.391253
vn 0 0.920283 0.391253
vn 0 0.920283 0.391253
vn 0 0 1
vn 0 0 1
vn 0 0 1
vn 0 0 1
vn 0.994805 0 0.1018
vn 0.994805 0 0.1018
vn 0.994805 0 0.1018
vn 0.994805 0 0.1018
vn -0.994805 0 0.1018
vn -0.994805 0 0.1018
vn -0.994805 0 0.1018
vn -0.994805 0 0.1018
usemtl datan_common_wattac_76f22cae
f 1/1/1 2/2/2 3/3/3
f 1/1/1 3/3/3 4/4/4
f 1/1/1 4/4/4 5/5/5
f 1/1/1 5/5/5 6/6/6
f 1/1/1 6/6/6 7/7/7
f 8/8/8 9/9/9 10/10/10
f 11/11/11 12/12/12 8/8/8
f 10/10/10 13/13/13 8/8/8
f 13/13/13 11/11/11 8/8/8
f 12/12/12 11/11/11 14/14/14
f 14/14/14 15/15/15 12/12/12
f 13/13/13 10/10/10 16/16/16
f 16/16/16 17/17/17 13/13/13
f 18/18/18 19/19/19 20/20/20
f 18/18/18 20/20/20 21/21/21
f 19/19/19 22/22/22 23/23/23
f 19/19/19 23/23/23 20/20/20
f 22/22/22 24/24/24 25/25/25
f 22/22/22 25/25/25 23/23/23
f 24/24/24 26/26/26 27/27/27
f 24/24/24 27/27/27 25/25/25
f 26/26/26 28/28/28 29/29/29
f 26/26/26 29/29/29 27/27/27
f 28/28/28 30/30/30 31/31/31
f 28/28/28 31/31/31 29/29/29
f 21/21/21 31/31/31 32/32/32
f 32/32/32 33/33/33 21/21/21
f 34/34/34 35/35/35 36/36/36
f 36/36/36 37/37/37 34/34/34
f 38/38/38 39/39/39 40/40/40
f 40/40/40 41/41/41 38/38/38
f 35/35/35 42/42/42 36/36/36
f 38/38/38 41/41/41 43/43/43
f 38/38/38 43/43/43 44/44/44
f 44/44/44 45/45/45 38/38/38
f 42/42/42 35/35/35 46/46/46
f 46/46/46 47/47/47 42/42/42
f 48/48/48 49/49/49 50/50/50
f 48/48/48 50/50/50 51/51/51
f 51/51/51 50/50/50 52/52/52
f 52/52/52 53/53/53 51/51/51
f 54/54/54 55/55/55 56/56/56
f 56/56/56 57/57/57 54/54/54
f 58/58/58 59/59/59 60/60/60
f 60/60/60 61/61/61 58/58/58
f 62/62/62 63/63/63 51/51/51
f 64/64/64 65/65/65 62/62/62
f 62/62/62 53/53/53 64/64/64
f 53/53/53 62/62/62 51/51/51
f 66/66/66 63/63/63 60/60/60
f 60/60/60 59/59/59 66/66/66
f 52/52/52 67/67/67 56/56/56
f 56/56/56 55/55/55 52/52/52
f 64/64/64 53/53/53 54/54/54
f 54/54/54 57/57/57 64/64/64
f 62/62/62 65/65/65 58/58/58
f 58/58/58 61/61/61 62/62/62
f 68/68/68 69/69/69 70/70/70
f 70/70/70 71/71/71 68/68/68
f 72/72/72 73/73/73 74/74/74
f 74/74/74 75/75/75 72/72/72
f 76/76/76 77/77/77 78/78/78
f 78/78/78 79/79/79 76/76/76
f 80/80/80 81/81/81 82/82/82
f 82/82/82 83/83/83 80/80/80
f 84/84/84 85/85/85 86/86/86
f 86/86/86 87/87/87 84/84/84
f 88/88/88 89/89/89 90/90/90
f 90/90/90 91/91/91 88/88/88
f 92/92/92 93/93/93 94/94/94
f 94/94/94 95/95/95 92/92/92
f 96/96/96 97/97/97 98/98/98
f 98/98/98 99/99/99 96/96/96
o datan_common_wattac_76f22cae_mesh01
v -0.376846 0 -0.181078
v -0.376846 0 0.181078
v 0.376846 0 -0.181078
v 0.376846 0 0.181078
vt 0.00582 0.49418
vt 0.00582 0.38082
vt 0.24418 0.49418
vt 0.24418 0.38082
vn 0 1 0
vn 0 1 0
vn 0 1 0
vn 0 1 0
usemtl datan_common_wattac_76f22cae
f 100/100/100 101/101/101 102/102/102
f 103/103/103 102/102/102 101/101/101
o datan_common_wattac_76f22cae_mesh02
v -0.1713 0 -0.196053
v -0.1713 0 0.196053
v 0.1713 0 -0.196053
v 0.1713 0 0.196053
vt 0.251914 0.49418
vt 0.251914 0.25582
vt 0.490273 0.49418
vt 0.490273 0.25582
vn 0 1 0
vn 0 1 0
vn 0 1 0
vn 0 1 0
usemtl datan_common_wattac_76f22cae
f 104/104/104 105/105/105 106/106/106
f 107/107/107 106/106/106 105/105/105
o datan_common_wattac_76f22cae_mesh03
v 0 0.226053 0.1563
v 0 -0.226053 0.1563
v -0 0.226053 -0.1563
v -0 -0.226053 -0.1563
vt 0.50582 0.49418
vt 0.50582 0.38082
vt 0.74418 0.49418
vt 0.74418 0.38082
vn 1 0 -0
vn 1 0 -0
vn 1 0 -0
vn 1 0 -0
usemtl datan_common_wattac_76f22cae
f 108/108/108 109/109/109 110/110/110
f 111/111/111 110/110/110 109/109/109
o datan_common_wattac_76f22cae_mesh04
v 0 -0.226053 0.1563
v 0 0.226053 0.1563
v -0 0.226053 -0.1563
v -0 -0.226053 -0.1563
vt 0.50582 0.38082
vt 0.50582 0.49418
vt 0.74418 0.49418
vt 0.74418 0.38082
vn -1 0 0
vn -1 0 0
vn -1 0 0
vn -1 0 0
usemtl datan_common_wattac_76f22cae
f 112/112/112 113/113/113 114/114/114
f 114/114/114 115/115/115 112/112/112
