# Generated from Nova1492 GX by tools/nova1492/GxObjConverter
mtllib datan_common_c9c1dbde.mtl
o datan_common_c9c1dbde_mesh00
v -6.101562 14.59259 -0.000003
v -10.13416 16.25548 0.000015
v -6.103866 14.5949 1.881274
v -9.807546 16.29445 1.479724
v -4.534266 10.75923 -0.000004
v -6.101562 14.59259 -0.000003
v -4.53526 10.76023 2.282843
v -6.103866 14.5949 1.881274
v -10.7354 4.558103 -0.000007
v -4.534266 10.75923 -0.000004
v -10.73639 4.559096 2.28284
v -4.53526 10.76023 2.282843
v -14.55923 6.134891 -0.000007
v -10.7354 4.558103 -0.000007
v -14.56153 6.137194 1.881272
v -10.73639 4.559096 2.28284
v -16.22711 10.16253 0.000011
v -14.55923 6.134891 -0.000007
v -16.26607 9.835928 1.47972
v -14.56153 6.137194 1.881272
v -10.13416 16.25548 0.000015
v -16.22711 10.16253 0.000011
v -9.807546 16.29445 1.479724
v -16.26607 9.835928 1.47972
v -15.49986 9.859258 2.041203
v -14.06406 6.74367 2.379445
v -9.781793 15.57732 2.041206
v -10.8256 5.407613 2.719423
v -5.334178 10.89903 2.719426
v -6.662319 14.14585 2.379417
v -6.103866 14.5949 1.881274
v -9.807546 16.29445 1.479724
v -6.662319 14.14585 2.379417
v -9.781793 15.57732 2.041206
v -6.662319 14.14585 2.379417
v -9.807546 16.29445 1.479724
v -4.53526 10.76023 2.282843
v -6.103866 14.5949 1.881274
v -5.334178 10.89903 2.719426
v -6.662319 14.14585 2.379417
v -5.334178 10.89903 2.719426
v -6.103866 14.5949 1.881274
v -10.73639 4.559096 2.28284
v -4.53526 10.76023 2.282843
v -10.8256 5.407613 2.719423
v -5.334178 10.89903 2.719426
v -10.8256 5.407613 2.719423
v -4.53526 10.76023 2.282843
v -14.56153 6.137194 1.881272
v -10.73639 4.559096 2.28284
v -14.06406 6.74367 2.379445
v -10.8256 5.407613 2.719423
v -14.06406 6.74367 2.379445
v -10.73639 4.559096 2.28284
v -16.26607 9.835928 1.47972
v -14.56153 6.137194 1.881272
v -15.49986 9.859258 2.041203
v -14.06406 6.74367 2.379445
v -15.49986 9.859258 2.041203
v -14.56153 6.137194 1.881272
v -9.807546 16.29445 1.479724
v -16.26607 9.835928 1.47972
v -9.781793 15.57732 2.041206
v -15.49986 9.859258 2.041203
v -9.781793 15.57732 2.041206
v -16.26607 9.835928 1.47972
vt 0.999501 0.329543
vt 0.859548 0.661153
vt 0.999501 0.31353
vt 0.881139 0.6316
vt 0.86567 0.015099
vt 0.999501 0.329543
vt 0.86567 -0.004542
vt 0.999501 0.31353
vt 0.133207 0.015099
vt 0.86567 0.015099
vt 0.133207 -0.004542
vt 0.86567 -0.004542
vt 0.0005 0.329541
vt 0.133207 0.015099
vt 0.0005 0.313528
vt 0.133207 -0.004542
vt 0.139864 0.661153
vt 0.0005 0.329541
vt 0.118274 0.6316
vt 0.0005 0.313528
vt 0.859548 0.661153
vt 0.139864 0.661153
vt 0.881139 0.6316
vt 0.118274 0.6316
vt 0.141763 0.598251
vt 0.036604 0.314251
vt 0.857691 0.59825
vt 0.155699 0.028807
vt 0.84325 0.028807
vt 0.963364 0.314278
vt 0.999501 0.31353
vt 0.881139 0.6316
vt 0.963364 0.314278
vt 0.857691 0.59825
vt 0.963364 0.314278
vt 0.881139 0.6316
vt 0.86567 -0.004542
vt 0.999501 0.31353
vt 0.84325 0.028807
vt 0.963364 0.314278
vt 0.84325 0.028807
vt 0.999501 0.31353
vt 0.133207 -0.004542
vt 0.86567 -0.004542
vt 0.155699 0.028807
vt 0.84325 0.028807
vt 0.155699 0.028807
vt 0.86567 -0.004542
vt 0.0005 0.313528
vt 0.133207 -0.004542
vt 0.036604 0.314251
vt 0.155699 0.028807
vt 0.036604 0.314251
vt 0.133207 -0.004542
vt 0.118274 0.6316
vt 0.0005 0.313528
vt 0.141763 0.598251
vt 0.036604 0.314251
vt 0.141763 0.598251
vt 0.0005 0.313528
vt 0.881139 0.6316
vt 0.118274 0.6316
vt 0.857691 0.59825
vt 0.141763 0.598251
vt 0.857691 0.59825
vt 0.118274 0.6316
vn 0.38122 0.924484 -0.000665
vn 0.403764 0.91295 -0.059142
vn 0.403764 0.91295 -0.059142
vn 0.424667 0.897708 -0.117379
vn 0.925623 0.378448 0.000238
vn 0.925578 0.378558 0.000454
vn 0.925578 0.378558 0.000454
vn 0.925533 0.378668 0.00067
vn 0.707107 -0.707107 0.000616
vn 0.707107 -0.707107 0.000616
vn 0.707107 -0.707107 0.000616
vn 0.707107 -0.707107 0.000616
vn -0.381219 -0.924485 0.000665
vn -0.381309 -0.924448 0.00045
vn -0.381309 -0.924448 0.00045
vn -0.381399 -0.924411 0.000236
vn -0.918496 -0.380356 -0.108139
vn -0.914839 -0.400131 -0.054459
vn -0.914839 -0.400131 -0.054459
vn -0.908175 -0.418591 -0.0006
vn -0.70052 0.70052 0.136178
vn -0.70052 0.70052 0.136176
vn -0.70052 0.70052 0.136176
vn -0.70052 0.70052 0.136175
vn -0.07391 0.073909 0.994522
vn -0.073912 0.07391 0.994522
vn -0.07391 0.073911 0.994522
vn -0.073912 0.073911 0.994522
vn -0.073909 0.073913 0.994522
vn -0.073907 0.073915 0.994522
vn 0.196061 0.608869 0.768661
vn 0.196061 0.608869 0.768661
vn 0.196061 0.608869 0.768661
vn 0.196062 0.60887 0.76866
vn 0.196062 0.60887 0.76866
vn 0.196062 0.60887 0.76866
vn 0.497251 0.28907 0.818034
vn 0.497251 0.28907 0.818034
vn 0.497251 0.28907 0.818034
vn 0.49725 0.28907 0.818035
vn 0.49725 0.28907 0.818035
vn 0.49725 0.28907 0.818035
vn 0.388857 -0.388858 0.835212
vn 0.388857 -0.388858 0.835212
vn 0.388857 -0.388858 0.835212
vn 0.388857 -0.388858 0.835213
vn 0.388857 -0.388858 0.835213
vn 0.388857 -0.388858 0.835213
vn -0.279109 -0.462373 0.841611
vn -0.279109 -0.462373 0.841611
vn -0.279109 -0.462373 0.841611
vn -0.27911 -0.462373 0.841611
vn -0.27911 -0.462373 0.841611
vn -0.27911 -0.462373 0.841611
vn -0.577874 -0.179886 0.796055
vn -0.577874 -0.179886 0.796055
vn -0.577874 -0.179886 0.796055
vn -0.577873 -0.179885 0.796056
vn -0.577873 -0.179885 0.796056
vn -0.577873 -0.179885 0.796056
vn -0.516362 0.516362 0.683184
vn -0.516362 0.516362 0.683184
vn -0.516362 0.516362 0.683184
vn -0.516362 0.516362 0.683185
vn -0.516362 0.516362 0.683185
vn -0.516362 0.516362 0.683185
usemtl datan_common_c9c1dbde
f 1/1/1 2/2/2 3/3/3
f 3/3/3 2/2/2 4/4/4
f 5/5/5 6/6/6 7/7/7
f 7/7/7 6/6/6 8/8/8
f 9/9/9 10/10/10 11/11/11
f 11/11/11 10/10/10 12/12/12
f 13/13/13 14/14/14 15/15/15
f 15/15/15 14/14/14 16/16/16
f 17/17/17 18/18/18 19/19/19
f 19/19/19 18/18/18 20/20/20
f 21/21/21 22/22/22 23/23/23
f 23/23/23 22/22/22 24/24/24
f 25/25/25 26/26/26 27/27/27
f 26/26/26 28/28/28 27/27/27
f 28/28/28 29/29/29 27/27/27
f 29/29/29 30/30/30 27/27/27
f 31/31/31 32/32/32 33/33/33
f 34/34/34 35/35/35 36/36/36
f 37/37/37 38/38/38 39/39/39
f 40/40/40 41/41/41 42/42/42
f 43/43/43 44/44/44 45/45/45
f 46/46/46 47/47/47 48/48/48
f 49/49/49 50/50/50 51/51/51
f 52/52/52 53/53/53 54/54/54
f 55/55/55 56/56/56 57/57/57
f 58/58/58 59/59/59 60/60/60
f 61/61/61 62/62/62 63/63/63
f 64/64/64 65/65/65 66/66/66
o datan_common_c9c1dbde_mesh01
v -6.103869 14.5949 -1.881254
v -10.13417 16.25548 0.000006
v -6.101565 14.59259 0.000022
v -9.807549 16.29445 -1.479703
v -4.535263 10.76023 -2.282826
v -6.101565 14.59259 0.000022
v -4.534268 10.75923 0.000021
v -6.103869 14.5949 -1.881254
v -10.73639 4.559098 -2.282827
v -4.534268 10.75923 0.000021
v -10.7354 4.558103 0.000021
v -4.535263 10.76023 -2.282826
v -14.56154 6.137196 -1.881258
v -10.7354 4.558103 0.000021
v -14.55923 6.134892 0.000021
v -10.73639 4.559098 -2.282827
v -16.26607 9.83593 -1.479703
v -14.55923 6.134892 0.000021
v -16.22711 10.16253 0.000006
v -14.56154 6.137196 -1.881258
v -9.807549 16.29445 -1.479703
v -16.22711 10.16253 0.000006
v -10.13417 16.25548 0.000006
v -16.26607 9.83593 -1.479703
v -9.781796 15.57732 -2.041186
v -14.06406 6.743673 -2.37943
v -15.49986 9.859261 -2.041186
v -10.8256 5.407615 -2.719409
v -5.334181 10.89903 -2.719409
v -6.662323 14.14585 -2.379397
v -6.662323 14.14585 -2.379397
v -9.807549 16.29445 -1.479703
v -6.103869 14.5949 -1.881254
v -9.807549 16.29445 -1.479703
v -6.662323 14.14585 -2.379397
v -9.781796 15.57732 -2.041186
v -5.334181 10.89903 -2.719409
v -6.103869 14.5949 -1.881254
v -4.535263 10.76023 -2.282826
v -6.103869 14.5949 -1.881254
v -5.334181 10.89903 -2.719409
v -6.662323 14.14585 -2.379397
v -10.8256 5.407615 -2.719409
v -4.535263 10.76023 -2.282826
v -10.73639 4.559098 -2.282827
v -4.535263 10.76023 -2.282826
v -10.8256 5.407615 -2.719409
v -5.334181 10.89903 -2.719409
v -14.06406 6.743673 -2.37943
v -10.73639 4.559098 -2.282827
v -14.56154 6.137196 -1.881258
v -10.73639 4.559098 -2.282827
v -14.06406 6.743673 -2.37943
v -10.8256 5.407615 -2.719409
v -15.49986 9.859261 -2.041186
v -14.56154 6.137196 -1.881258
v -16.26607 9.83593 -1.479703
v -14.56154 6.137196 -1.881258
v -15.49986 9.859261 -2.041186
v -14.06406 6.743673 -2.37943
v -9.781796 15.57732 -2.041186
v -16.26607 9.83593 -1.479703
v -9.807549 16.29445 -1.479703
v -16.26607 9.83593 -1.479703
v -9.781796 15.57732 -2.041186
v -15.49986 9.859261 -2.041186
vt 0.0005 0.316946
vt 0.140452 0.650113
vt 0.000499 0.316676
vt 0.118861 0.633273
vt 0.13433 0.000616
vt 0.000499 0.316676
vt 0.13433 0.000499
vt 0.0005 0.316946
vt 0.866793 0.000616
vt 0.13433 0.000499
vt 0.866793 0.000499
vt 0.13433 0.000616
vt 0.999501 0.316944
vt 0.866793 0.000499
vt 0.999501 0.316674
vt 0.866793 0.000616
vt 0.881726 0.633273
vt 0.999501 0.316674
vt 0.860136 0.650113
vt 0.999501 0.316944
vt 0.118861 0.633273
vt 0.860136 0.650113
vt 0.140452 0.650113
vt 0.881726 0.633273
vt 0.142309 0.604464
vt 0.963396 0.32202
vt 0.858237 0.604464
vt 0.844301 0.03814
vt 0.15675 0.03814
vt 0.036636 0.322047
vt 0.036636 0.322047
vt 0.118861 0.633273
vt 0.0005 0.316946
vt 0.118861 0.633273
vt 0.036636 0.322047
vt 0.142309 0.604464
vt 0.15675 0.03814
vt 0.0005 0.316946
vt 0.13433 0.000616
vt 0.0005 0.316946
vt 0.15675 0.03814
vt 0.036636 0.322047
vt 0.844301 0.03814
vt 0.13433 0.000616
vt 0.866793 0.000616
vt 0.13433 0.000616
vt 0.844301 0.03814
vt 0.15675 0.03814
vt 0.963396 0.32202
vt 0.866793 0.000616
vt 0.999501 0.316944
vt 0.866793 0.000616
vt 0.963396 0.32202
vt 0.844301 0.03814
vt 0.858237 0.604464
vt 0.999501 0.316944
vt 0.881726 0.633273
vt 0.999501 0.316944
vt 0.858237 0.604464
vt 0.963396 0.32202
vt 0.142309 0.604464
vt 0.881726 0.633273
vt 0.118861 0.633273
vt 0.881726 0.633273
vt 0.142309 0.604464
vt 0.858237 0.604464
vn 0.403764 0.91295 0.059142
vn 0.403764 0.91295 0.059142
vn 0.381221 0.924484 0.000665
vn 0.424668 0.897708 0.117379
vn 0.925578 0.378558 -0.000454
vn 0.925578 0.378558 -0.000454
vn 0.925623 0.378448 -0.000238
vn 0.925532 0.378668 -0.00067
vn 0.707107 -0.707107 -0.000616
vn 0.707107 -0.707107 -0.000616
vn 0.707107 -0.707107 -0.000616
vn 0.707107 -0.707107 -0.000616
vn -0.381309 -0.924448 -0.000451
vn -0.381309 -0.924448 -0.000451
vn -0.381219 -0.924485 -0.000665
vn -0.381399 -0.924411 -0.000237
vn -0.914839 -0.400131 0.054459
vn -0.914839 -0.400131 0.054459
vn -0.918496 -0.380356 0.108139
vn -0.908175 -0.418591 0.0006
vn -0.70052 0.70052 -0.136176
vn -0.70052 0.70052 -0.136176
vn -0.70052 0.70052 -0.136177
vn -0.70052 0.70052 -0.136174
vn -0.07391 0.073912 -0.994522
vn -0.073912 0.073911 -0.994522
vn -0.07391 0.07391 -0.994522
vn -0.073912 0.073912 -0.994522
vn -0.073909 0.073914 -0.994522
vn -0.073907 0.073916 -0.994522
vn 0.196061 0.608869 -0.76866
vn 0.196061 0.608869 -0.76866
vn 0.196061 0.608869 -0.76866
vn 0.196062 0.60887 -0.76866
vn 0.196062 0.60887 -0.76866
vn 0.196062 0.60887 -0.76866
vn 0.497251 0.289071 -0.818034
vn 0.497251 0.289071 -0.818034
vn 0.497251 0.289071 -0.818034
vn 0.49725 0.289071 -0.818034
vn 0.49725 0.289071 -0.818034
vn 0.49725 0.289071 -0.818034
vn 0.388857 -0.388857 -0.835213
vn 0.388857 -0.388857 -0.835213
vn 0.388857 -0.388857 -0.835213
vn 0.388858 -0.388858 -0.835212
vn 0.388858 -0.388858 -0.835212
vn 0.388858 -0.388858 -0.835212
vn -0.279109 -0.462372 -0.841612
vn -0.279109 -0.462372 -0.841612
vn -0.279109 -0.462372 -0.841612
vn -0.27911 -0.462373 -0.841611
vn -0.27911 -0.462373 -0.841611
vn -0.27911 -0.462373 -0.841611
vn -0.577874 -0.179885 -0.796055
vn -0.577874 -0.179885 -0.796055
vn -0.577874 -0.179885 -0.796055
vn -0.577873 -0.179885 -0.796056
vn -0.577873 -0.179885 -0.796056
vn -0.577873 -0.179885 -0.796056
vn -0.516361 0.516362 -0.683185
vn -0.516361 0.516362 -0.683185
vn -0.516361 0.516362 -0.683185
vn -0.516362 0.516363 -0.683184
vn -0.516362 0.516363 -0.683184
vn -0.516362 0.516363 -0.683184
usemtl datan_common_c9c1dbde
f 67/67/67 68/68/68 69/69/69
f 70/70/70 68/68/68 67/67/67
f 71/71/71 72/72/72 73/73/73
f 74/74/74 72/72/72 71/71/71
f 75/75/75 76/76/76 77/77/77
f 78/78/78 76/76/76 75/75/75
f 79/79/79 80/80/80 81/81/81
f 82/82/82 80/80/80 79/79/79
f 83/83/83 84/84/84 85/85/85
f 86/86/86 84/84/84 83/83/83
f 87/87/87 88/88/88 89/89/89
f 90/90/90 88/88/88 87/87/87
f 91/91/91 92/92/92 93/93/93
f 91/91/91 94/94/94 92/92/92
f 91/91/91 95/95/95 94/94/94
f 91/91/91 96/96/96 95/95/95
f 97/97/97 98/98/98 99/99/99
f 100/100/100 101/101/101 102/102/102
f 103/103/103 104/104/104 105/105/105
f 106/106/106 107/107/107 108/108/108
f 109/109/109 110/110/110 111/111/111
f 112/112/112 113/113/113 114/114/114
f 115/115/115 116/116/116 117/117/117
f 118/118/118 119/119/119 120/120/120
f 121/121/121 122/122/122 123/123/123
f 124/124/124 125/125/125 126/126/126
f 127/127/127 128/128/128 129/129/129
f 130/130/130 131/131/131 132/132/132
o datan_common_c9c1dbde_mesh02
v -18.16961 14.18796 0.000032
v -16.23439 10.16803 0.000013
v -18.1687 14.18705 1.014962
v -16.42498 10.24128 1.437785
v -14.16494 18.19264 0.000034
v -18.16961 14.18796 0.000032
v -14.16402 18.19172 1.014964
v -18.1687 14.18705 1.014962
v -10.13993 16.26248 0.000016
v -14.16494 18.19264 0.000034
v -10.21332 16.45293 1.43779
v -14.16402 18.19172 1.014964
v -16.23439 10.16803 0.000013
v -10.13993 16.26248 0.000016
v -16.42498 10.24128 1.437785
v -10.21332 16.45293 1.43779
v -11.06322 16.37294 1.886845
v -14.08148 17.65322 1.567392
v -16.36302 11.07315 1.886841
v -17.64717 14.08753 1.567389
v -18.1687 14.18705 1.014962
v -16.42498 10.24128 1.437785
v -17.64717 14.08753 1.567389
v -16.36302 11.07315 1.886841
v -17.64717 14.08753 1.567389
v -16.42498 10.24128 1.437785
v -14.16402 18.19172 1.014964
v -18.1687 14.18705 1.014962
v -14.08148 17.65322 1.567392
v -17.64717 14.08753 1.567389
v -14.08148 17.65322 1.567392
v -18.1687 14.18705 1.014962
v -10.21332 16.45293 1.43779
v -14.16402 18.19172 1.014964
v -11.06322 16.37294 1.886845
v -14.08148 17.65322 1.567392
v -11.06322 16.37294 1.886845
v -14.16402 18.19172 1.014964
v -16.42498 10.24128 1.437785
v -10.21332 16.45293 1.43779
v -16.36302 11.07315 1.886841
v -11.06322 16.37294 1.886845
v -16.36302 11.07315 1.886841
v -10.21332 16.45293 1.43779
v -18.1687 14.18705 -1.014942
v -16.23439 10.16803 0.000004
v -18.16962 14.18797 -0.000012
v -16.42499 10.24129 -1.437768
v -14.16403 18.19173 -1.014942
v -18.16962 14.18797 -0.000012
v -14.16494 18.19264 -0.000011
v -18.1687 14.18705 -1.014942
v -10.21332 16.45293 -1.437768
v -14.16494 18.19264 -0.000011
v -10.13994 16.26248 0.000005
v -14.16403 18.19173 -1.014942
v -16.42499 10.24129 -1.437768
v -10.13994 16.26248 0.000005
v -16.23439 10.16803 0.000004
v -10.21332 16.45293 -1.437768
v -16.36303 11.07315 -1.886823
v -14.08148 17.65322 -1.56737
v -11.06322 16.37295 -1.886824
v -17.64717 14.08754 -1.56737
v -17.64717 14.08754 -1.56737
v -16.42499 10.24129 -1.437768
v -18.1687 14.18705 -1.014942
v -16.42499 10.24129 -1.437768
v -17.64717 14.08754 -1.56737
v -16.36303 11.07315 -1.886823
v -14.08148 17.65322 -1.56737
v -18.1687 14.18705 -1.014942
v -14.16403 18.19173 -1.014942
v -18.1687 14.18705 -1.014942
v -14.08148 17.65322 -1.56737
v -17.64717 14.08754 -1.56737
v -11.06322 16.37295 -1.886824
v -14.16403 18.19173 -1.014942
v -10.21332 16.45293 -1.437768
v -14.16403 18.19173 -1.014942
v -11.06322 16.37295 -1.886824
v -14.08148 17.65322 -1.56737
v -16.36303 11.07315 -1.886823
v -10.21332 16.45293 -1.437768
v -16.42499 10.24129 -1.437768
v -10.21332 16.45293 -1.437768
v -16.36303 11.07315 -1.886823
v -11.06322 16.37295 -1.886824
vt 0.253415 1.008627
vt 0.139759 0.661897
vt 0.253415 0.999737
vt 0.118163 0.664817
vt 0.745358 1.008626
vt 0.253415 1.008627
vt 0.745358 0.999737
vt 0.253415 0.999737
vt 0.859621 0.661897
vt 0.745358 1.008626
vt 0.881216 0.664816
vt 0.745358 0.999737
vt 0.139759 0.661897
vt 0.859621 0.661897
vt 0.118163 0.664817
vt 0.881216 0.664816
vt 0.831428 0.698165
vt 0.722626 0.966387
vt 0.167868 0.698166
vt 0.276185 0.966387
vt 0.253415 0.999737
vt 0.118163 0.664817
vt 0.276185 0.966387
vt 0.167868 0.698166
vt 0.276185 0.966387
vt 0.118163 0.664817
vt 0.745358 0.999737
vt 0.253415 0.999737
vt 0.722626 0.966387
vt 0.276185 0.966387
vt 0.722626 0.966387
vt 0.253415 0.999737
vt 0.881216 0.664816
vt 0.745358 0.999737
vt 0.831428 0.698165
vt 0.722626 0.966387
vt 0.831428 0.698165
vt 0.745358 0.999737
vt 0.118163 0.664817
vt 0.881216 0.664816
vt 0.167868 0.698166
vt 0.831428 0.698165
vt 0.167868 0.698166
vt 0.881216 0.664816
vt 0.746585 0.999394
vt 0.860241 0.650861
vt 0.746585 0.9995
vt 0.881838 0.666308
vt 0.254642 0.999393
vt 0.746585 0.9995
vt 0.254642 0.9995
vt 0.746585 0.999394
vt 0.118784 0.666307
vt 0.254642 0.9995
vt 0.140379 0.650861
vt 0.254642 0.999393
vt 0.881838 0.666308
vt 0.140379 0.650861
vt 0.860241 0.650861
vt 0.118784 0.666307
vt 0.832132 0.703832
vt 0.277374 0.970584
vt 0.168572 0.703831
vt 0.723815 0.970584
vt 0.723815 0.970584
vt 0.881838 0.666308
vt 0.746585 0.999394
vt 0.881838 0.666308
vt 0.723815 0.970584
vt 0.832132 0.703832
vt 0.277374 0.970584
vt 0.746585 0.999394
vt 0.254642 0.999393
vt 0.746585 0.999394
vt 0.277374 0.970584
vt 0.723815 0.970584
vt 0.168572 0.703831
vt 0.254642 0.999393
vt 0.118784 0.666307
vt 0.254642 0.999393
vt 0.168572 0.703831
vt 0.277374 0.970584
vt 0.832132 0.703832
vt 0.118784 0.666307
vt 0.881838 0.666308
vt 0.118784 0.666307
vt 0.832132 0.703832
vt 0.168572 0.703831
vn -0.901028 -0.433761 0.000421
vn -0.904789 -0.422979 -0.049445
vn -0.904789 -0.422979 -0.049445
vn -0.906183 -0.41109 -0.099182
vn -0.707106 0.707107 0.001272
vn -0.707106 0.707107 0.001273
vn -0.707106 0.707107 0.001273
vn -0.707106 0.707107 0.001273
vn 0.43036 0.89744 -0.09691
vn 0.417127 0.907565 -0.048288
vn 0.417127 0.907565 -0.048288
vn 0.402791 0.915292 0.000462
vn 0.701227 -0.701227 0.128687
vn 0.701227 -0.701228 0.128683
vn 0.701227 -0.701228 0.128683
vn 0.701227 -0.701229 0.12868
vn -0.07391 0.073909 0.994522
vn -0.07391 0.073909 0.994522
vn -0.07391 0.073909 0.994522
vn -0.07391 0.073909 0.994522
vn -0.725906 -0.252225 0.639877
vn -0.725906 -0.252225 0.639877
vn -0.725906 -0.252225 0.639877
vn -0.762744 -0.262287 0.591124
vn -0.762744 -0.262287 0.591124
vn -0.762744 -0.262287 0.591124
vn -0.553519 0.553519 0.622282
vn -0.553519 0.553519 0.622282
vn -0.553519 0.553519 0.622282
vn -0.553519 0.55352 0.62228
vn -0.553519 0.55352 0.62228
vn -0.553519 0.55352 0.62228
vn 0.258861 0.739315 0.621615
vn 0.258861 0.739315 0.621615
vn 0.258861 0.739315 0.621615
vn 0.232736 0.713562 0.660805
vn 0.232736 0.713562 0.660805
vn 0.232736 0.713562 0.660805
vn 0.449942 -0.449944 0.771429
vn 0.449942 -0.449944 0.771429
vn 0.449942 -0.449944 0.771429
vn 0.449943 -0.449945 0.771428
vn 0.449943 -0.449945 0.771428
vn 0.449943 -0.449945 0.771428
vn -0.904789 -0.422979 0.049446
vn -0.904789 -0.422979 0.049446
vn -0.901028 -0.433762 -0.00042
vn -0.906183 -0.41109 0.099182
vn -0.707106 0.707107 -0.001271
vn -0.707106 0.707107 -0.001271
vn -0.707106 0.707107 -0.001272
vn -0.707106 0.707107 -0.00127
vn 0.417127 0.907565 0.048288
vn 0.417127 0.907565 0.048288
vn 0.43036 0.89744 0.096909
vn 0.402792 0.915291 -0.00046
vn 0.701227 -0.701228 -0.128683
vn 0.701227 -0.701228 -0.128683
vn 0.701227 -0.701227 -0.128687
vn 0.701227 -0.701229 -0.128679
vn -0.07391 0.07391 -0.994522
vn -0.07391 0.07391 -0.994522
vn -0.07391 0.07391 -0.994522
vn -0.07391 0.07391 -0.994522
vn -0.725907 -0.252225 -0.639877
vn -0.725907 -0.252225 -0.639877
vn -0.725907 -0.252225 -0.639877
vn -0.762745 -0.262288 -0.591122
vn -0.762745 -0.262288 -0.591122
vn -0.762745 -0.262288 -0.591122
vn -0.553519 0.55352 -0.622281
vn -0.553519 0.55352 -0.622281
vn -0.553519 0.55352 -0.622281
vn -0.553519 0.55352 -0.62228
vn -0.553519 0.55352 -0.62228
vn -0.553519 0.55352 -0.62228
vn 0.258862 0.739316 -0.621613
vn 0.258862 0.739316 -0.621613
vn 0.258862 0.739316 -0.621613
vn 0.232736 0.713562 -0.660805
vn 0.232736 0.713562 -0.660805
vn 0.232736 0.713562 -0.660805
vn 0.449942 -0.449943 -0.77143
vn 0.449942 -0.449943 -0.77143
vn 0.449942 -0.449943 -0.77143
vn 0.449942 -0.449943 -0.77143
vn 0.449942 -0.449943 -0.77143
vn 0.449942 -0.449943 -0.77143
usemtl datan_common_c9c1dbde
f 133/133/133 134/134/134 135/135/135
f 135/135/135 134/134/134 136/136/136
f 137/137/137 138/138/138 139/139/139
f 139/139/139 138/138/138 140/140/140
f 141/141/141 142/142/142 143/143/143
f 143/143/143 142/142/142 144/144/144
f 145/145/145 146/146/146 147/147/147
f 147/147/147 146/146/146 148/148/148
f 149/149/149 150/150/150 151/151/151
f 150/150/150 152/152/152 151/151/151
f 153/153/153 154/154/154 155/155/155
f 156/156/156 157/157/157 158/158/158
f 159/159/159 160/160/160 161/161/161
f 162/162/162 163/163/163 164/164/164
f 165/165/165 166/166/166 167/167/167
f 168/168/168 169/169/169 170/170/170
f 171/171/171 172/172/172 173/173/173
f 174/174/174 175/175/175 176/176/176
f 177/177/177 178/178/178 179/179/179
f 180/180/180 178/178/178 177/177/177
f 181/181/181 182/182/182 183/183/183
f 184/184/184 182/182/182 181/181/181
f 185/185/185 186/186/186 187/187/187
f 188/188/188 186/186/186 185/185/185
f 189/189/189 190/190/190 191/191/191
f 192/192/192 190/190/190 189/189/189
f 193/193/193 194/194/194 195/195/195
f 193/193/193 196/196/196 194/194/194
f 197/197/197 198/198/198 199/199/199
f 200/200/200 201/201/201 202/202/202
f 203/203/203 204/204/204 205/205/205
f 206/206/206 207/207/207 208/208/208
f 209/209/209 210/210/210 211/211/211
f 212/212/212 213/213/213 214/214/214
f 215/215/215 216/216/216 217/217/217
f 218/218/218 219/219/219 220/220/220
