# Generated from Nova1492 GX by tools/nova1492/GxObjConverter
mtllib datan_common_61362b93.mtl
o datan_common_61362b93_mesh00
v 16.20914 -10.14074 0.000021
v 14.54625 -6.108138 0.000006
v 14.54856 -6.110442 1.881283
v 16.24811 -9.814122 1.479731
v 14.54625 -6.108138 0.000006
v 10.71289 -4.54084 0.000006
v 10.71389 -4.541835 2.282854
v 14.54856 -6.110442 1.881283
v 10.71289 -4.54084 0.000006
v 4.511757 -10.74197 0.000003
v 4.512749 -10.74297 2.282851
v 10.71389 -4.541835 2.282854
v 4.511757 -10.74197 0.000003
v 6.088545 -14.5658 0.000001
v 6.090847 -14.56811 1.881281
v 4.512749 -10.74297 2.282851
v 6.088545 -14.5658 0.000001
v 10.11619 -16.23368 0.000018
v 9.789584 -16.27265 1.479727
v 6.090847 -14.56811 1.881281
v 10.11619 -16.23368 0.000018
v 16.20914 -10.14074 0.000021
v 16.24811 -9.814122 1.479731
v 9.789584 -16.27265 1.479727
v 6.697325 -14.07063 2.379454
v 9.812914 -15.50643 2.04121
v 15.53098 -9.788369 2.041214
v 5.361266 -10.83217 2.719434
v 10.85269 -5.340754 2.719437
v 14.09951 -6.668896 2.379426
v 16.24811 -9.814122 1.479731
v 14.54856 -6.110442 1.881283
v 14.09951 -6.668896 2.379426
v 14.09951 -6.668896 2.379426
v 15.53098 -9.788369 2.041214
v 16.24811 -9.814122 1.479731
v 14.54856 -6.110442 1.881283
v 10.71389 -4.541835 2.282854
v 10.85269 -5.340754 2.719437
v 10.85269 -5.340754 2.719437
v 14.09951 -6.668896 2.379426
v 14.54856 -6.110442 1.881283
v 10.71389 -4.541835 2.282854
v 4.512749 -10.74297 2.282851
v 5.361266 -10.83217 2.719434
v 5.361266 -10.83217 2.719434
v 10.85269 -5.340754 2.719437
v 10.71389 -4.541835 2.282854
v 4.512749 -10.74297 2.282851
v 6.090847 -14.56811 1.881281
v 6.697325 -14.07063 2.379454
v 6.697325 -14.07063 2.379454
v 5.361266 -10.83217 2.719434
v 4.512749 -10.74297 2.282851
v 6.090847 -14.56811 1.881281
v 9.789584 -16.27265 1.479727
v 9.812914 -15.50643 2.04121
v 9.812914 -15.50643 2.04121
v 6.697325 -14.07063 2.379454
v 6.090847 -14.56811 1.881281
v 9.789584 -16.27265 1.479727
v 16.24811 -9.814122 1.479731
v 15.53098 -9.788369 2.041214
v 15.53098 -9.788369 2.041214
v 9.812914 -15.50643 2.04121
v 9.789584 -16.27265 1.479727
vt 0.140452 0.661153
vt 0.000499 0.329543
vt 0.0005 0.31353
vt 0.118861 0.6316
vt 0.000499 0.329543
vt 0.13433 0.015099
vt 0.13433 -0.004542
vt 0.0005 0.31353
vt 0.13433 0.015099
vt 0.866793 0.015099
vt 0.866793 -0.004542
vt 0.13433 -0.004542
vt 0.866793 0.015099
vt 0.999501 0.329541
vt 0.999501 0.313528
vt 0.866793 -0.004542
vt 0.999501 0.329541
vt 0.860136 0.661153
vt 0.881726 0.6316
vt 0.999501 0.313528
vt 0.860136 0.661153
vt 0.140452 0.661153
vt 0.118861 0.6316
vt 0.881726 0.6316
vt 0.963396 0.314251
vt 0.858237 0.598251
vt 0.142309 0.59825
vt 0.844301 0.028807
vt 0.15675 0.028807
vt 0.036636 0.314278
vt 0.118861 0.6316
vt 0.0005 0.31353
vt 0.036636 0.314278
vt 0.036636 0.314278
vt 0.142309 0.59825
vt 0.118861 0.6316
vt 0.0005 0.31353
vt 0.13433 -0.004542
vt 0.15675 0.028807
vt 0.15675 0.028807
vt 0.036636 0.314278
vt 0.0005 0.31353
vt 0.13433 -0.004542
vt 0.866793 -0.004542
vt 0.844301 0.028807
vt 0.844301 0.028807
vt 0.15675 0.028807
vt 0.13433 -0.004542
vt 0.866793 -0.004542
vt 0.999501 0.313528
vt 0.963396 0.314251
vt 0.963396 0.314251
vt 0.844301 0.028807
vt 0.866793 -0.004542
vt 0.999501 0.313528
vt 0.881726 0.6316
vt 0.858237 0.598251
vt 0.858237 0.598251
vt 0.963396 0.314251
vt 0.999501 0.313528
vt 0.881726 0.6316
vt 0.118861 0.6316
vt 0.142309 0.59825
vt 0.142309 0.59825
vt 0.858237 0.598251
vt 0.881726 0.6316
vn 0.91295 0.403764 -0.059141
vn 0.924484 0.381221 -0.000664
vn 0.91295 0.403764 -0.059141
vn 0.897708 0.424668 -0.117378
vn 0.378558 0.925578 0.000455
vn 0.378448 0.925623 0.000239
vn 0.378558 0.925578 0.000455
vn 0.378668 0.925533 0.00067
vn -0.707106 0.707107 0.000616
vn -0.707106 0.707107 0.000616
vn -0.707106 0.707107 0.000616
vn -0.707106 0.707107 0.000615
vn -0.924448 -0.381309 0.00045
vn -0.924485 -0.381219 0.000664
vn -0.924448 -0.381309 0.00045
vn -0.924411 -0.381399 0.000235
vn -0.400131 -0.914838 -0.05446
vn -0.380356 -0.918496 -0.10814
vn -0.400131 -0.914838 -0.05446
vn -0.418591 -0.908175 -0.0006
vn 0.70052 -0.70052 0.136176
vn 0.700519 -0.70052 0.136179
vn 0.70052 -0.70052 0.136176
vn 0.70052 -0.70052 0.136174
vn 0.07391 -0.073912 0.994522
vn 0.073909 -0.07391 0.994522
vn 0.073912 -0.073911 0.994522
vn 0.073911 -0.073913 0.994522
vn 0.073913 -0.07391 0.994522
vn 0.073915 -0.073907 0.994522
vn 0.608868 0.19606 0.768661
vn 0.608868 0.19606 0.768661
vn 0.608868 0.19606 0.768661
vn 0.608869 0.196061 0.76866
vn 0.608869 0.196061 0.76866
vn 0.608869 0.196061 0.76866
vn 0.289071 0.497251 0.818034
vn 0.289071 0.497251 0.818034
vn 0.289071 0.497251 0.818034
vn 0.28907 0.49725 0.818035
vn 0.28907 0.49725 0.818035
vn 0.28907 0.49725 0.818035
vn -0.388857 0.388857 0.835213
vn -0.388857 0.388857 0.835213
vn -0.388857 0.388857 0.835213
vn -0.388858 0.388858 0.835212
vn -0.388858 0.388858 0.835212
vn -0.388858 0.388858 0.835212
vn -0.462372 -0.27911 0.841611
vn -0.462372 -0.27911 0.841611
vn -0.462372 -0.27911 0.841611
vn -0.462373 -0.27911 0.841611
vn -0.462373 -0.27911 0.841611
vn -0.462373 -0.27911 0.841611
vn -0.179885 -0.577874 0.796055
vn -0.179885 -0.577874 0.796055
vn -0.179885 -0.577874 0.796055
vn -0.179885 -0.577874 0.796055
vn -0.179885 -0.577874 0.796055
vn -0.179885 -0.577874 0.796055
vn 0.516362 -0.516362 0.683185
vn 0.516362 -0.516362 0.683185
vn 0.516362 -0.516362 0.683185
vn 0.516361 -0.516362 0.683185
vn 0.516361 -0.516362 0.683185
vn 0.516361 -0.516362 0.683185
usemtl datan_common_61362b93
f 1/1/1 2/2/2 3/3/3
f 1/1/1 3/3/3 4/4/4
f 5/5/5 6/6/6 7/7/7
f 5/5/5 7/7/7 8/8/8
f 9/9/9 10/10/10 11/11/11
f 9/9/9 11/11/11 12/12/12
f 13/13/13 14/14/14 15/15/15
f 13/13/13 15/15/15 16/16/16
f 17/17/17 18/18/18 19/19/19
f 17/17/17 19/19/19 20/20/20
f 21/21/21 22/22/22 23/23/23
f 21/21/21 23/23/23 24/24/24
f 25/25/25 26/26/26 27/27/27
f 28/28/28 25/25/25 27/27/27
f 29/29/29 28/28/28 27/27/27
f 30/30/30 29/29/29 27/27/27
f 31/31/31 32/32/32 33/33/33
f 34/34/34 35/35/35 36/36/36
f 37/37/37 38/38/38 39/39/39
f 40/40/40 41/41/41 42/42/42
f 43/43/43 44/44/44 45/45/45
f 46/46/46 47/47/47 48/48/48
f 49/49/49 50/50/50 51/51/51
f 52/52/52 53/53/53 54/54/54
f 55/55/55 56/56/56 57/57/57
f 58/58/58 59/59/59 60/60/60
f 61/61/61 62/62/62 63/63/63
f 64/64/64 65/65/65 66/66/66
o datan_common_61362b93_mesh01
v 16.20914 -10.14074 0.000018
v 14.54856 -6.110441 -1.881242
v 14.54626 -6.108138 0.000035
v 16.24811 -9.814122 -1.479691
v 14.54626 -6.108138 0.000035
v 10.71389 -4.541834 -2.282815
v 10.71289 -4.54084 0.000033
v 14.54856 -6.110441 -1.881242
v 10.71289 -4.54084 0.000033
v 4.512753 -10.74297 -2.28282
v 4.511757 -10.74197 0.000028
v 10.71389 -4.541834 -2.282815
v 4.511757 -10.74197 0.000028
v 6.090851 -14.56811 -1.881251
v 6.088546 -14.5658 0.000028
v 4.512753 -10.74297 -2.28282
v 6.088546 -14.5658 0.000028
v 9.789587 -16.27265 -1.479696
v 10.11619 -16.23368 0.000013
v 6.090851 -14.56811 -1.881251
v 10.11619 -16.23368 0.000013
v 16.24811 -9.814122 -1.479691
v 16.20914 -10.14074 0.000018
v 9.789587 -16.27265 -1.479696
v 6.697329 -14.07063 -2.379424
v 15.53098 -9.788368 -2.041174
v 9.812918 -15.50643 -2.041178
v 5.361269 -10.83217 -2.719403
v 10.85269 -5.340753 -2.719398
v 14.09951 -6.668894 -2.379386
v 16.24811 -9.814122 -1.479691
v 14.09951 -6.668894 -2.379386
v 14.54856 -6.110441 -1.881242
v 14.09951 -6.668894 -2.379386
v 16.24811 -9.814122 -1.479691
v 15.53098 -9.788368 -2.041174
v 14.54856 -6.110441 -1.881242
v 10.85269 -5.340753 -2.719398
v 10.71389 -4.541834 -2.282815
v 10.85269 -5.340753 -2.719398
v 14.54856 -6.110441 -1.881242
v 14.09951 -6.668894 -2.379386
v 10.71389 -4.541834 -2.282815
v 5.361269 -10.83217 -2.719403
v 4.512753 -10.74297 -2.28282
v 5.361269 -10.83217 -2.719403
v 10.71389 -4.541834 -2.282815
v 10.85269 -5.340753 -2.719398
v 4.512753 -10.74297 -2.28282
v 6.697329 -14.07063 -2.379424
v 6.090851 -14.56811 -1.881251
v 6.697329 -14.07063 -2.379424
v 4.512753 -10.74297 -2.28282
v 5.361269 -10.83217 -2.719403
v 6.090851 -14.56811 -1.881251
v 9.812918 -15.50643 -2.041178
v 9.789587 -16.27265 -1.479696
v 9.812918 -15.50643 -2.041178
v 6.090851 -14.56811 -1.881251
v 6.697329 -14.07063 -2.379424
v 9.789587 -16.27265 -1.479696
v 15.53098 -9.788368 -2.041174
v 16.24811 -9.814122 -1.479691
v 15.53098 -9.788368 -2.041174
v 9.789587 -16.27265 -1.479696
v 9.812918 -15.50643 -2.041178
vt 0.859548 0.650113
vt 0.999501 0.316946
vt 0.999501 0.316676
vt 0.881139 0.633273
vt 0.999501 0.316676
vt 0.86567 0.000616
vt 0.86567 0.0005
vt 0.999501 0.316946
vt 0.86567 0.0005
vt 0.133207 0.000616
vt 0.133207 0.000499
vt 0.86567 0.000616
vt 0.133207 0.000499
vt 0.0005 0.316944
vt 0.0005 0.316674
vt 0.133207 0.000616
vt 0.0005 0.316674
vt 0.118274 0.633273
vt 0.139864 0.650113
vt 0.0005 0.316944
vt 0.139864 0.650113
vt 0.881139 0.633273
vt 0.859548 0.650113
vt 0.118274 0.633273
vt 0.036604 0.32202
vt 0.857691 0.604464
vt 0.141763 0.604464
vt 0.155699 0.03814
vt 0.84325 0.03814
vt 0.963364 0.322047
vt 0.881139 0.633273
vt 0.963364 0.322047
vt 0.999501 0.316946
vt 0.963364 0.322047
vt 0.881139 0.633273
vt 0.857691 0.604464
vt 0.999501 0.316946
vt 0.84325 0.03814
vt 0.86567 0.000616
vt 0.84325 0.03814
vt 0.999501 0.316946
vt 0.963364 0.322047
vt 0.86567 0.000616
vt 0.155699 0.03814
vt 0.133207 0.000616
vt 0.155699 0.03814
vt 0.86567 0.000616
vt 0.84325 0.03814
vt 0.133207 0.000616
vt 0.036604 0.32202
vt 0.0005 0.316944
vt 0.036604 0.32202
vt 0.133207 0.000616
vt 0.155699 0.03814
vt 0.0005 0.316944
vt 0.141763 0.604464
vt 0.118274 0.633273
vt 0.141763 0.604464
vt 0.0005 0.316944
vt 0.036604 0.32202
vt 0.118274 0.633273
vt 0.857691 0.604464
vt 0.881139 0.633273
vt 0.857691 0.604464
vt 0.118274 0.633273
vt 0.141763 0.604464
vn 0.91295 0.403764 0.059142
vn 0.91295 0.403764 0.059142
vn 0.924484 0.38122 0.000665
vn 0.897708 0.424667 0.117379
vn 0.378558 0.925578 -0.000454
vn 0.378558 0.925578 -0.000454
vn 0.378448 0.925623 -0.000238
vn 0.378668 0.925533 -0.00067
vn -0.707106 0.707107 -0.000616
vn -0.707106 0.707107 -0.000616
vn -0.707106 0.707107 -0.000616
vn -0.707106 0.707107 -0.000616
vn -0.924448 -0.381309 -0.000451
vn -0.924448 -0.381309 -0.000451
vn -0.924485 -0.381219 -0.000666
vn -0.924411 -0.381399 -0.000237
vn -0.400131 -0.914838 0.054458
vn -0.400131 -0.914838 0.054458
vn -0.380356 -0.918496 0.108138
vn -0.418591 -0.908175 0.0006
vn 0.70052 -0.70052 -0.136176
vn 0.70052 -0.70052 -0.136176
vn 0.700519 -0.70052 -0.136178
vn 0.70052 -0.70052 -0.136174
vn 0.073911 -0.073911 -0.994522
vn 0.073912 -0.07391 -0.994522
vn 0.07391 -0.073909 -0.994522
vn 0.073912 -0.073912 -0.994522
vn 0.073914 -0.073909 -0.994522
vn 0.073916 -0.073907 -0.994522
vn 0.608869 0.196061 -0.76866
vn 0.608869 0.196061 -0.76866
vn 0.608869 0.196061 -0.76866
vn 0.60887 0.196062 -0.768659
vn 0.60887 0.196062 -0.768659
vn 0.60887 0.196062 -0.768659
vn 0.289071 0.497251 -0.818034
vn 0.289071 0.497251 -0.818034
vn 0.289071 0.497251 -0.818034
vn 0.289071 0.497251 -0.818034
vn 0.289071 0.497251 -0.818034
vn 0.289071 0.497251 -0.818034
vn -0.388857 0.388858 -0.835212
vn -0.388857 0.388858 -0.835212
vn -0.388857 0.388858 -0.835212
vn -0.388857 0.388858 -0.835213
vn -0.388857 0.388858 -0.835213
vn -0.388857 0.388858 -0.835213
vn -0.462372 -0.279109 -0.841612
vn -0.462372 -0.279109 -0.841612
vn -0.462372 -0.279109 -0.841612
vn -0.462372 -0.27911 -0.841611
vn -0.462372 -0.27911 -0.841611
vn -0.462372 -0.27911 -0.841611
vn -0.179885 -0.577874 -0.796055
vn -0.179885 -0.577874 -0.796055
vn -0.179885 -0.577874 -0.796055
vn -0.179885 -0.577873 -0.796056
vn -0.179885 -0.577873 -0.796056
vn -0.179885 -0.577873 -0.796056
vn 0.516362 -0.516362 -0.683184
vn 0.516362 -0.516362 -0.683184
vn 0.516362 -0.516362 -0.683184
vn 0.516362 -0.516362 -0.683184
vn 0.516362 -0.516362 -0.683184
vn 0.516362 -0.516362 -0.683184
usemtl datan_common_61362b93
f 67/67/67 68/68/68 69/69/69
f 67/67/67 70/70/70 68/68/68
f 71/71/71 72/72/72 73/73/73
f 71/71/71 74/74/74 72/72/72
f 75/75/75 76/76/76 77/77/77
f 75/75/75 78/78/78 76/76/76
f 79/79/79 80/80/80 81/81/81
f 79/79/79 82/82/82 80/80/80
f 83/83/83 84/84/84 85/85/85
f 83/83/83 86/86/86 84/84/84
f 87/87/87 88/88/88 89/89/89
f 87/87/87 90/90/90 88/88/88
f 91/91/91 92/92/92 93/93/93
f 94/94/94 92/92/92 91/91/91
f 95/95/95 92/92/92 94/94/94
f 96/96/96 92/92/92 95/95/95
f 97/97/97 98/98/98 99/99/99
f 100/100/100 101/101/101 102/102/102
f 103/103/103 104/104/104 105/105/105
f 106/106/106 107/107/107 108/108/108
f 109/109/109 110/110/110 111/111/111
f 112/112/112 113/113/113 114/114/114
f 115/115/115 116/116/116 117/117/117
f 118/118/118 119/119/119 120/120/120
f 121/121/121 122/122/122 123/123/123
f 124/124/124 125/125/125 126/126/126
f 127/127/127 128/128/128 129/129/129
f 130/130/130 131/131/131 132/132/132
o datan_common_61362b93_mesh02
v 10.12168 -16.24096 0.000019
v 14.14162 -18.17619 0.000036
v 14.14071 -18.17528 1.014966
v 10.19494 -16.43156 1.437791
v 14.14162 -18.17619 0.000036
v 18.1463 -14.17151 0.000038
v 18.14539 -14.1706 1.014969
v 14.14071 -18.17528 1.014966
v 18.1463 -14.17151 0.000038
v 16.21614 -10.14651 0.000023
v 16.40659 -10.2199 1.437796
v 18.14539 -14.1706 1.014969
v 16.21614 -10.14651 0.000023
v 10.12168 -16.24096 0.000019
v 10.19494 -16.43156 1.437791
v 16.40659 -10.2199 1.437796
v 17.60688 -14.08805 1.567397
v 16.3266 -11.06979 1.886852
v 11.02681 -16.3696 1.886848
v 14.04119 -17.65374 1.567395
v 10.19494 -16.43156 1.437791
v 14.14071 -18.17528 1.014966
v 14.04119 -17.65374 1.567395
v 14.04119 -17.65374 1.567395
v 11.02681 -16.3696 1.886848
v 10.19494 -16.43156 1.437791
v 14.14071 -18.17528 1.014966
v 18.14539 -14.1706 1.014969
v 17.60688 -14.08805 1.567397
v 17.60688 -14.08805 1.567397
v 14.04119 -17.65374 1.567395
v 14.14071 -18.17528 1.014966
v 18.14539 -14.1706 1.014969
v 16.40659 -10.2199 1.437796
v 16.3266 -11.06979 1.886852
v 16.3266 -11.06979 1.886852
v 17.60688 -14.08805 1.567397
v 18.14539 -14.1706 1.014969
v 16.40659 -10.2199 1.437796
v 10.19494 -16.43156 1.437791
v 11.02681 -16.3696 1.886848
v 11.02681 -16.3696 1.886848
v 16.3266 -11.06979 1.886852
v 16.40659 -10.2199 1.437796
v 10.12168 -16.24096 0.000012
v 14.14071 -18.17528 -1.014933
v 14.14163 -18.17619 -0.000003
v 10.19494 -16.43156 -1.43776
v 14.14163 -18.17619 -0.000003
v 18.14539 -14.1706 -1.01493
v 18.1463 -14.17151 0
v 14.14071 -18.17528 -1.014933
v 18.1463 -14.17151 0
v 16.40659 -10.2199 -1.437757
v 16.21614 -10.14651 0.000017
v 18.14539 -14.1706 -1.01493
v 16.21614 -10.14651 0.000017
v 10.19494 -16.43156 -1.43776
v 10.12168 -16.24096 0.000012
v 16.40659 -10.2199 -1.437757
v 17.60688 -14.08805 -1.567359
v 11.02681 -16.3696 -1.886815
v 16.32661 -11.06979 -1.886812
v 14.0412 -17.65374 -1.567361
v 10.19494 -16.43156 -1.43776
v 14.0412 -17.65374 -1.567361
v 14.14071 -18.17528 -1.014933
v 14.0412 -17.65374 -1.567361
v 10.19494 -16.43156 -1.43776
v 11.02681 -16.3696 -1.886815
v 14.14071 -18.17528 -1.014933
v 17.60688 -14.08805 -1.567359
v 18.14539 -14.1706 -1.01493
v 17.60688 -14.08805 -1.567359
v 14.14071 -18.17528 -1.014933
v 14.0412 -17.65374 -1.567361
v 18.14539 -14.1706 -1.01493
v 16.32661 -11.06979 -1.886812
v 16.40659 -10.2199 -1.437757
v 16.32661 -11.06979 -1.886812
v 18.14539 -14.1706 -1.01493
v 17.60688 -14.08805 -1.567359
v 16.40659 -10.2199 -1.437757
v 11.02681 -16.3696 -1.886815
v 10.19494 -16.43156 -1.43776
v 11.02681 -16.3696 -1.886815
v 16.40659 -10.2199 -1.437757
v 16.32661 -11.06979 -1.886812
vt 0.860241 0.661897
vt 0.746585 1.008627
vt 0.746585 0.999737
vt 0.881838 0.664817
vt 0.746585 1.008627
vt 0.254642 1.008626
vt 0.254642 0.999737
vt 0.746585 0.999737
vt 0.254642 1.008626
vt 0.140379 0.661897
vt 0.118784 0.664816
vt 0.254642 0.999737
vt 0.140379 0.661897
vt 0.860241 0.661897
vt 0.881838 0.664817
vt 0.118784 0.664816
vt 0.277374 0.966387
vt 0.168572 0.698165
vt 0.832132 0.698166
vt 0.723815 0.966387
vt 0.881838 0.664817
vt 0.746585 0.999737
vt 0.723815 0.966387
vt 0.723815 0.966387
vt 0.832132 0.698166
vt 0.881838 0.664817
vt 0.746585 0.999737
vt 0.254642 0.999737
vt 0.277374 0.966387
vt 0.277374 0.966387
vt 0.723815 0.966387
vt 0.746585 0.999737
vt 0.254642 0.999737
vt 0.118784 0.664816
vt 0.168572 0.698165
vt 0.168572 0.698165
vt 0.277374 0.966387
vt 0.254642 0.999737
vt 0.118784 0.664816
vt 0.881838 0.664817
vt 0.832132 0.698166
vt 0.832132 0.698166
vt 0.168572 0.698165
vt 0.118784 0.664816
vt 0.139759 0.650861
vt 0.253415 0.999394
vt 0.253415 0.9995
vt 0.118163 0.666308
vt 0.253415 0.9995
vt 0.745358 0.999393
vt 0.745358 0.9995
vt 0.253415 0.999394
vt 0.745358 0.9995
vt 0.881216 0.666307
vt 0.859621 0.650861
vt 0.745358 0.999393
vt 0.859621 0.650861
vt 0.118163 0.666308
vt 0.139759 0.650861
vt 0.881216 0.666307
vt 0.722626 0.970584
vt 0.167868 0.703832
vt 0.831428 0.703831
vt 0.276185 0.970584
vt 0.118163 0.666308
vt 0.276185 0.970584
vt 0.253415 0.999394
vt 0.276185 0.970584
vt 0.118163 0.666308
vt 0.167868 0.703832
vt 0.253415 0.999394
vt 0.722626 0.970584
vt 0.745358 0.999393
vt 0.722626 0.970584
vt 0.253415 0.999394
vt 0.276185 0.970584
vt 0.745358 0.999393
vt 0.831428 0.703831
vt 0.881216 0.666307
vt 0.831428 0.703831
vt 0.745358 0.999393
vt 0.722626 0.970584
vt 0.881216 0.666307
vt 0.167868 0.703832
vt 0.118163 0.666308
vt 0.167868 0.703832
vt 0.881216 0.666307
vt 0.831428 0.703831
vn -0.422979 -0.904789 -0.049446
vn -0.433761 -0.901028 0.000419
vn -0.422979 -0.904789 -0.049446
vn -0.41109 -0.906183 -0.099182
vn 0.707106 -0.707106 0.001272
vn 0.707106 -0.707106 0.001273
vn 0.707106 -0.707106 0.001272
vn 0.707107 -0.707106 0.001272
vn 0.907565 0.417127 -0.048288
vn 0.89744 0.43036 -0.09691
vn 0.907565 0.417127 -0.048288
vn 0.915292 0.402791 0.000461
vn -0.701228 0.701228 0.128683
vn -0.701227 0.701228 0.128686
vn -0.701228 0.701228 0.128683
vn -0.701229 0.701228 0.128679
vn 0.07391 -0.07391 0.994522
vn 0.07391 -0.07391 0.994522
vn 0.07391 -0.07391 0.994522
vn 0.07391 -0.07391 0.994522
vn -0.252225 -0.725907 0.639876
vn -0.252225 -0.725907 0.639876
vn -0.252225 -0.725907 0.639876
vn -0.262287 -0.762743 0.591124
vn -0.262287 -0.762743 0.591124
vn -0.262287 -0.762743 0.591124
vn 0.553519 -0.553519 0.622281
vn 0.553519 -0.553519 0.622281
vn 0.553519 -0.553519 0.622281
vn 0.553519 -0.553519 0.62228
vn 0.553519 -0.553519 0.62228
vn 0.553519 -0.553519 0.62228
vn 0.739315 0.25886 0.621615
vn 0.739315 0.25886 0.621615
vn 0.739315 0.25886 0.621615
vn 0.713562 0.232736 0.660805
vn 0.713562 0.232736 0.660805
vn 0.713562 0.232736 0.660805
vn -0.449944 0.449942 0.771429
vn -0.449944 0.449942 0.771429
vn -0.449944 0.449942 0.771429
vn -0.449944 0.449942 0.771429
vn -0.449944 0.449942 0.771429
vn -0.449944 0.449942 0.771429
vn -0.422979 -0.904789 0.049445
vn -0.422979 -0.904789 0.049445
vn -0.433762 -0.901028 -0.000421
vn -0.411089 -0.906183 0.099183
vn 0.707106 -0.707106 -0.001272
vn 0.707106 -0.707106 -0.001272
vn 0.707106 -0.707106 -0.001272
vn 0.707106 -0.707106 -0.001272
vn 0.907565 0.417127 0.048289
vn 0.907565 0.417127 0.048289
vn 0.89744 0.43036 0.09691
vn 0.915292 0.402792 -0.00046
vn -0.701228 0.701228 -0.128684
vn -0.701228 0.701228 -0.128684
vn -0.701227 0.701228 -0.128688
vn -0.701229 0.701227 -0.128679
vn 0.07391 -0.07391 -0.994522
vn 0.07391 -0.07391 -0.994522
vn 0.07391 -0.07391 -0.994522
vn 0.07391 -0.07391 -0.994522
vn -0.252224 -0.725907 -0.639877
vn -0.252224 -0.725907 -0.639877
vn -0.252224 -0.725907 -0.639877
vn -0.262287 -0.762743 -0.591125
vn -0.262287 -0.762743 -0.591125
vn -0.262287 -0.762743 -0.591125
vn 0.55352 -0.553519 -0.62228
vn 0.55352 -0.553519 -0.62228
vn 0.55352 -0.553519 -0.62228
vn 0.55352 -0.553519 -0.62228
vn 0.55352 -0.553519 -0.62228
vn 0.55352 -0.553519 -0.62228
vn 0.739316 0.258862 -0.621613
vn 0.739316 0.258862 -0.621613
vn 0.739316 0.258862 -0.621613
vn 0.713563 0.232736 -0.660805
vn 0.713563 0.232736 -0.660805
vn 0.713563 0.232736 -0.660805
vn -0.449943 0.449942 -0.77143
vn -0.449943 0.449942 -0.77143
vn -0.449943 0.449942 -0.77143
vn -0.449943 0.449942 -0.77143
vn -0.449943 0.449942 -0.77143
vn -0.449943 0.449942 -0.77143
usemtl datan_common_61362b93
f 133/133/133 134/134/134 135/135/135
f 133/133/133 135/135/135 136/136/136
f 137/137/137 138/138/138 139/139/139
f 137/137/137 139/139/139 140/140/140
f 141/141/141 142/142/142 143/143/143
f 141/141/141 143/143/143 144/144/144
f 145/145/145 146/146/146 147/147/147
f 145/145/145 147/147/147 148/148/148
f 149/149/149 150/150/150 151/151/151
f 152/152/152 149/149/149 151/151/151
f 153/153/153 154/154/154 155/155/155
f 156/156/156 157/157/157 158/158/158
f 159/159/159 160/160/160 161/161/161
f 162/162/162 163/163/163 164/164/164
f 165/165/165 166/166/166 167/167/167
f 168/168/168 169/169/169 170/170/170
f 171/171/171 172/172/172 173/173/173
f 174/174/174 175/175/175 176/176/176
f 177/177/177 178/178/178 179/179/179
f 177/177/177 180/180/180 178/178/178
f 181/181/181 182/182/182 183/183/183
f 181/181/181 184/184/184 182/182/182
f 185/185/185 186/186/186 187/187/187
f 185/185/185 188/188/188 186/186/186
f 189/189/189 190/190/190 191/191/191
f 189/189/189 192/192/192 190/190/190
f 193/193/193 194/194/194 195/195/195
f 196/196/196 194/194/194 193/193/193
f 197/197/197 198/198/198 199/199/199
f 200/200/200 201/201/201 202/202/202
f 203/203/203 204/204/204 205/205/205
f 206/206/206 207/207/207 208/208/208
f 209/209/209 210/210/210 211/211/211
f 212/212/212 213/213/213 214/214/214
f 215/215/215 216/216/216 217/217/217
f 218/218/218 219/219/219 220/220/220
