# Generated from Nova1492 GX by tools/nova1492/GxObjConverter
mtllib datan_common_hpac1_eb5d8e70.mtl
o datan_common_hpac1_eb5d8e70_mesh00
v 0.722413 0.45 0.112124
v 0.36207 0.45 -0.329653
v 0.357178 0.45 0.329653
v 0.212158 0.45 0.206118
v 0.220215 0.45 -0.239683
v 0.196045 0.45 -0.15106
v -0.722413 0.45 0.112124
v -0.357178 0.45 0.329653
v -0.36207 0.45 -0.329653
v -0.211487 0.45 0.206118
v -0.220215 0.45 -0.239683
v -0.194703 0.45 -0.15106
v -0.722413 -0.45 0.112124
v -0.357178 -0.45 0.329653
v -0.722413 0.45 0.112124
v -0.357178 0.45 0.329653
v -0.36207 -0.45 -0.329653
v -0.36207 0.45 -0.329653
v -0.220215 -0.45 -0.239683
v -0.220215 0.45 -0.239683
v -0.194703 -0.45 -0.15106
v -0.194703 0.45 -0.15106
v 0.196045 -0.45 -0.15106
v 0.196045 0.45 -0.15106
v 0.220215 -0.45 -0.239683
v 0.220215 0.45 -0.239683
v 0.36207 -0.45 -0.329653
v 0.36207 0.45 -0.329653
v 0.722413 -0.45 0.112124
v 0.722413 0.45 0.112124
v 0.357178 -0.45 0.329653
v 0.357178 0.45 0.329653
v 0.212158 -0.45 0.206118
v 0.212158 0.45 0.206118
v -0.211487 -0.45 0.206118
v -0.211487 0.45 0.206118
vt 0.012132 0.171536
vt 0.249737 0.488118
vt 0.253066 0.011883
vt 0.351771 0.10255
vt 0.346287 0.422085
vt 0.362738 0.357041
vt 0.987868 0.171536
vt 0.746934 0.011883
vt 0.750264 0.488117
vt 0.647773 0.10255
vt 0.653713 0.422085
vt 0.636348 0.357041
vt 0.987868 0.511883
vt 0.746934 0.511883
vt 0.987868 0.988118
vt 0.746934 0.988118
vt 0.750264 0.511883
vt 0.750264 0.988118
vt 0.653713 0.511883
vt 0.653713 0.988118
vt 0.636348 0.511883
vt 0.636348 0.988118
vt 0.370394 0.511883
vt 0.370394 0.988118
vt 0.353943 0.511883
vt 0.353943 0.988118
vt 0.257393 0.511883
vt 0.257393 0.988118
vt 0.012132 0.511883
vt 0.012132 0.988118
vt 0.253066 0.511883
vt 0.253066 0.988118
vt 0.351771 0.511883
vt 0.351771 0.988118
vt 0.640116 0.511883
vt 0.640116 0.988118
vn 0 1 0
vn 0 1 0
vn 0 1 0
vn 0 1 0
vn 0 1 0
vn 0 1 0
vn 0 1 0
vn 0 1 0
vn 0 1 0
vn 0 1 0
vn 0 1 0
vn 0 1 0
vn -0.981246 0 -0.192762
vn -0.150104 0 0.98867
vn -0.855965 0 0.517034
vn 0.311521 0 0.950239
vn 0.126627 0 -0.991951
vn -0.433457 0 -0.901174
vn 0.86924 0 -0.49439
vn 0.718784 0 -0.695233
vn 0.388877 0 -0.92129
vn 0.777755 0 -0.628568
vn -0.784305 0 -0.620376
vn -0.392152 0 -0.9199
vn -0.721823 0 -0.692078
vn -0.873978 0 -0.485966
vn 0.433457 0 -0.901174
vn -0.126627 0 -0.991951
vn 0.855965 0 0.517034
vn 0.981246 0 -0.192762
vn -0.31312 0 0.949714
vn 0.149515 0 0.98876
vn -0.228626 0 0.973514
vn -0.457252 0 0.889338
vn 0.45586 0 0.890052
vn 0.22793 0 0.973678
usemtl datan_common_hpac1_eb5d8e70
f 1/1/1 2/2/2 3/3/3
f 3/3/3 2/2/2 4/4/4
f 2/2/2 5/5/5 4/4/4
f 5/5/5 6/6/6 4/4/4
f 7/7/7 8/8/8 9/9/9
f 8/8/8 10/10/10 9/9/9
f 9/9/9 10/10/10 11/11/11
f 11/11/11 10/10/10 12/12/12
f 10/10/10 4/4/4 12/12/12
f 12/12/12 4/4/4 6/6/6
f 13/13/13 14/14/14 15/15/15
f 15/15/15 14/14/14 16/16/16
f 17/17/17 13/13/13 18/18/18
f 18/18/18 13/13/13 15/15/15
f 19/19/19 17/17/17 20/20/20
f 20/20/20 17/17/17 18/18/18
f 21/21/21 19/19/19 22/22/22
f 22/22/22 19/19/19 20/20/20
f 23/23/23 21/21/21 24/24/24
f 24/24/24 21/21/21 22/22/22
f 25/25/25 23/23/23 26/26/26
f 26/26/26 23/23/23 24/24/24
f 27/27/27 25/25/25 28/28/28
f 28/28/28 25/25/25 26/26/26
f 29/29/29 27/27/27 30/30/30
f 30/30/30 27/27/27 28/28/28
f 31/31/31 29/29/29 32/32/32
f 32/32/32 29/29/29 30/30/30
f 33/33/33 31/31/31 34/34/34
f 34/34/34 31/31/31 32/32/32
f 35/35/35 33/33/33 36/36/36
f 36/36/36 33/33/33 34/34/34
f 14/14/14 35/35/35 16/16/16
f 16/16/16 35/35/35 36/36/36
o datan_common_hpac1_eb5d8e70_mesh01
v 0.431109 0.533263 0.190215
v 0.595896 0.533263 0.091201
v 0.288727 0.533263 -0.13027
v 0.379769 0.533263 -0.184974
v 0.413389 0.447057 0.248441
v 0.655625 0.447057 0.10289
v 0.246327 0.447057 -0.152371
v 0.38016 0.447057 -0.232786
v -0.596706 0.533263 0.091201
v -0.431919 0.533263 0.190215
v -0.289536 0.533263 -0.13027
v -0.380579 0.533263 -0.184974
v -0.656435 0.447057 0.10289
v -0.414198 0.447057 0.248441
v -0.247137 0.447057 -0.152371
v -0.380969 0.447057 -0.232786
vt 0.649594 0.971091
vt 0.725406 0.971091
vt 0.667414 0.778909
vt 0.711414 0.778909
vt 0.630879 0.994059
vt 0.744121 0.994059
vt 0.657074 0.755941
vt 0.717926 0.755941
vt 0.725406 0.971091
vt 0.649594 0.971091
vt 0.667414 0.778909
vt 0.711414 0.778909
vt 0.744121 0.994059
vt 0.630879 0.994059
vt 0.657074 0.755941
vt 0.717926 0.755941
vn 0.034109 0.764024 0.644286
vn 0.514972 0.85089 -0.103875
vn -0.562486 0.826729 -0.011369
vn -0.061108 0.713842 -0.697636
vn -0.541724 0.518964 0.66122
vn 0.71606 0.553755 0.424987
vn -0.731026 0.483092 -0.481896
vn 0.399297 0.47247 -0.785706
vn -0.514972 0.85089 -0.103875
vn -0.034109 0.764024 0.644285
vn 0.562486 0.826729 -0.011369
vn 0.061108 0.713842 -0.697636
vn -0.71606 0.553755 0.424987
vn 0.541724 0.518964 0.66122
vn 0.731026 0.483092 -0.481896
vn -0.399297 0.472471 -0.785706
usemtl datan_common_hpac1_eb5d8e70
f 37/37/37 38/38/38 39/39/39
f 40/40/40 39/39/39 38/38/38
f 41/41/41 42/42/42 37/37/37
f 38/38/38 37/37/37 42/42/42
f 43/43/43 41/41/41 39/39/39
f 37/37/37 39/39/39 41/41/41
f 44/44/44 43/43/43 40/40/40
f 39/39/39 40/40/40 43/43/43
f 42/42/42 44/44/44 38/38/38
f 40/40/40 38/38/38 44/44/44
f 45/45/45 46/46/46 47/47/47
f 47/47/47 48/48/48 45/45/45
f 49/49/49 50/50/50 46/46/46
f 46/46/46 45/45/45 49/49/49
f 50/50/50 51/51/51 47/47/47
f 47/47/47 46/46/46 50/50/50
f 51/51/51 52/52/52 48/48/48
f 48/48/48 47/47/47 51/51/51
f 52/52/52 49/49/49 45/45/45
f 45/45/45 48/48/48 52/52/52
