# Generated from Nova1492 GX by tools/nova1492/GxObjConverter
mtllib datan_common_aca9299b.mtl
o datan_common_aca9299b_mesh00
v 0 -0.000014 0.209735
v -0 0.322388 0.289434
v -0.289434 0.322388 0
v -0.209735 -0.000014 0
v 0.209735 -0.000014 -0
v 0 -0.000014 -0.209735
v -0 0.322388 -0.289434
v 0.289434 0.322388 -0
v -0.325553 0.287909 -0.339964
v -0.325553 0.38831 -0.37308
v 0.000028 0.38831 -0.37308
v 0.000028 0.122682 -0.285468
v 0.325609 0.38831 -0.37308
v 0.325609 0.287909 -0.339964
v -0.325553 0.331097 0.324797
v 0.000028 0.161255 0.308256
v 0.000028 0.434302 0.334849
v -0.325553 0.434302 0.334849
v 0.325609 0.331097 0.324797
v 0.325609 0.434302 0.334849
vt 0.601336 0.023735
vt 0.548085 0.270256
vt 0.72616 0.270256
vt 0.741472 0.023735
vt 0.741472 0.023735
vt 0.866295 0.023735
vt 0.919547 0.270256
vt 0.741472 0.270256
vt 0.964032 0.231684
vt 0.976608 0.295257
vt 0.976608 0.295257
vt 0.918136 0.101867
vt 0.976608 0.295257
vt 0.964032 0.216372
vt 0.524072 0.298366
vt 0.509879 0.175099
vt 0.523392 0.382575
vt 0.523392 0.382575
vt 0.524072 0.298366
vt 0.523392 0.382575
vn -0.307875 -0.228323 0.923624
vn 0.307875 -0.228323 0.923624
vn -0.923624 -0.228323 0.307875
vn -0.923624 -0.228323 -0.307875
vn 0.970778 -0.23998 0
vn 0 -0.23998 -0.970778
vn 0 -0.23998 -0.970778
vn 0.970778 -0.23998 0
vn -0.540127 -0.675312 -0.502212
vn -0.85296 0.291993 -0.432666
vn -0.000001 0.5594 -0.828898
vn 0.101912 -0.798252 -0.59364
vn 0.378184 0.517853 -0.767336
vn 0.854526 -0.416789 -0.309954
vn -0.728082 -0.319782 0.60633
vn -0.10571 -0.678714 0.726755
vn -0 0.695627 0.718404
vn -0.432138 0.820566 0.374071
vn 0.661657 -0.644669 0.3829
vn 0.691924 0.27816 0.666235
usemtl datan_common_aca9299b
f 1/1/1 2/2/2 3/3/3
f 3/3/3 4/4/4 1/1/1
f 5/5/5 6/6/6 7/7/7
f 7/7/7 8/8/8 5/5/5
f 4/4/4 3/3/3 7/7/7
f 7/7/7 6/6/6 4/4/4
f 2/2/2 1/1/1 5/5/5
f 5/5/5 8/8/8 2/2/2
f 9/9/9 10/10/10 11/11/11
f 11/11/11 12/12/12 9/9/9
f 12/12/12 11/11/11 13/13/13
f 13/13/13 14/14/14 12/12/12
f 15/15/15 16/16/16 17/17/17
f 17/17/17 18/18/18 15/15/15
f 16/16/16 19/19/19 20/20/20
f 20/20/20 17/17/17 16/16/16
f 9/9/9 12/12/12 16/16/16
f 16/16/16 15/15/15 9/9/9
f 12/12/12 14/14/14 19/19/19
f 19/19/19 16/16/16 12/12/12
f 14/14/14 13/13/13 20/20/20
f 20/20/20 19/19/19 14/14/14
f 13/13/13 11/11/11 17/17/17
f 17/17/17 20/20/20 13/13/13
f 11/11/11 10/10/10 18/18/18
f 18/18/18 17/17/17 11/11/11
f 10/10/10 9/9/9 15/15/15
f 15/15/15 18/18/18 10/10/10
o datan_common_aca9299b_mesh01
v -0.100318 0.166194 0.195009
v 0.100318 0.166194 0.195009
v 0.1575 0.122018 -0.225301
v -0.1575 0.122018 -0.225301
v -0.100318 0.022088 0.210155
v 0.100318 0.022088 0.210155
v 0.1575 -0.022088 -0.210155
v -0.1575 -0.022088 -0.210155
v -0.178239 0.445994 0.70749
v -0.109371 0.23726 0.744295
v 0.11349 0.23726 0.744295
v 0.00206 0.574999 0.684743
v 0.182358 0.445994 0.70749
v 0.10646 0.212028 -0.477383
v 0.00206 0.286726 -0.490554
v 0.00206 0.574999 0.684743
v 0.182358 0.445994 0.70749
v -0.10234 0.212028 -0.477383
v -0.178239 0.445994 0.70749
v -0.062463 0.091162 -0.456071
v -0.109371 0.23726 0.744295
v 0.066582 0.091162 -0.456071
v 0.11349 0.23726 0.744295
vt 0.631751 0.476265
vt 0.631751 0.476265
vt 0.89363 0.426086
vt 0.89363 0.410774
vt 0.613278 0.360749
vt 0.613278 0.360749
vt 0.875157 0.295258
vt 0.89047 0.295258
vt 0.023516 0.334447
vt 0.112949 0.073928
vt 0.387051 0.073928
vt 0.242344 0.476719
vt 0.476485 0.334447
vt 0.976234 0.812929
vt 0.976234 0.976484
vt 0.023766 0.890198
vt 0.023766 0.786266
vt 0.976234 0.812929
vt 0.023766 0.786266
vt 0.976234 0.523516
vt 0.023766 0.593323
vt 0.976234 0.523516
vt 0.023766 0.593323
vn -0.641801 0.687026 0.340715
vn 0.387609 0.47625 0.789269
vn 0.681257 0.657404 -0.322038
vn -0.423953 0.342032 -0.838617
vn -0.421163 0.094805 0.902017
vn 0.842326 0.056337 0.536016
vn 0.469045 -0.092316 -0.878336
vn -0.938089 -0.036208 -0.344496
vn 0 0.173647 0.984808
vn 0 0.173646 0.984808
vn -0 0.173647 0.984808
vn -0 0.173647 0.984808
vn -0.000001 0.173647 0.984808
vn 0.772124 0.3948 -0.497954
vn -0.177907 0.609744 -0.772374
vn 0.234892 0.944039 -0.231551
vn 0.995021 0.064029 -0.07638
vn -0.753623 -0.056768 -0.654851
vn -0.849848 0.504036 -0.153966
vn -0.6543 -0.335386 -0.677796
vn -0.949701 -0.313158 0.001002
vn 0.514278 -0.310632 -0.799391
vn 0.9497 -0.31316 0.001003
usemtl datan_common_aca9299b
f 21/21/21 22/22/22 23/23/23
f 23/23/23 24/24/24 21/21/21
f 25/25/25 26/26/26 22/22/22
f 22/22/22 21/21/21 25/25/25
f 26/26/26 27/27/27 23/23/23
f 23/23/23 22/22/22 26/26/26
f 27/27/27 28/28/28 24/24/24
f 24/24/24 23/23/23 27/27/27
f 28/28/28 25/25/25 21/21/21
f 21/21/21 24/24/24 28/28/28
f 29/29/29 30/30/30 31/31/31
f 32/32/32 29/29/29 31/31/31
f 33/33/33 32/32/32 31/31/31
f 34/34/34 35/35/35 36/36/36
f 34/34/34 36/36/36 37/37/37
f 35/35/35 38/38/38 39/39/39
f 35/35/35 39/39/39 36/36/36
f 38/38/38 40/40/40 41/41/41
f 38/38/38 41/41/41 39/39/39
f 42/42/42 34/34/34 37/37/37
f 42/42/42 37/37/37 43/43/43
f 38/38/38 42/42/42 40/40/40
f 35/35/35 42/42/42 38/38/38
f 34/34/34 42/42/42 35/35/35
o datan_common_aca9299b_mesh02
v -0.56799 -0.567998 -0.000075
v -0.567997 0.567997 -0.000074
v 0.567997 0.567994 -0.000074
v 0.567997 -0.567994 -0.000075
v -0.003514 -0.32767 0.929677
v -0.003508 0.334896 0.929676
v -0.003513 0.334901 -0.240047
v -0.003513 -0.327672 -0.240048
v -0.33478 0.003634 0.929675
v 0.327794 0.003632 0.929676
v 0.327787 0.003633 -0.240048
v -0.33478 0.003631 -0.240045
vt 0.755942 0.505941
vt 0.755942 0.744059
vt 0.994059 0.744059
vt 0.994059 0.505941
vt 0.744059 0.380879
vt 0.744059 0.494121
vt 0.505942 0.494121
vt 0.505942 0.380879
vt 0.744059 0.380879
vt 0.744059 0.494121
vt 0.505942 0.494121
vt 0.505942 0.380879
vn 0.000004 1 0
vn 0.000004 1 0
vn 0.000004 1 0
vn 0 0 0
vn 0 0 1
vn 0 0 1
vn 0 0 1
vn 0 0 0
vn -1 0 0
vn -0.970143 0 -0.242536
vn -1 0 0
vn 0 0 0
usemtl datan_common_aca9299b
f 44/44/44 45/45/45 46/46/46
f 46/46/46 47/47/47 44/44/44
f 44/44/44 47/47/47 46/46/46
f 46/46/46 45/45/45 44/44/44
f 48/48/48 49/49/49 50/50/50
f 50/50/50 51/51/51 48/48/48
f 48/48/48 51/51/51 50/50/50
f 50/50/50 49/49/49 48/48/48
f 52/52/52 53/53/53 54/54/54
f 54/54/54 55/55/55 52/52/52
f 52/52/52 55/55/55 54/54/54
f 54/54/54 53/53/53 52/52/52
o datan_common_aca9299b_mesh03
v -0.100318 0.166194 0.195009
v 0.100318 0.166194 0.195009
v 0.1575 0.122018 -0.225301
v -0.1575 0.122018 -0.225301
v -0.100318 0.022088 0.210155
v 0.100318 0.022088 0.210155
v 0.1575 -0.022088 -0.210155
v -0.1575 -0.022088 -0.210155
v -0.182431 0.445994 0.70749
v -0.113563 0.23726 0.744296
v 0.109298 0.23726 0.744296
v -0.002132 0.574999 0.684743
v 0.178166 0.445994 0.70749
v 0.102268 0.212028 -0.477383
v -0.002132 0.286726 -0.490554
v -0.002132 0.574999 0.684743
v 0.178166 0.445994 0.70749
v -0.106532 0.212028 -0.477383
v -0.182431 0.445994 0.70749
v -0.066655 0.091162 -0.456071
v -0.113563 0.23726 0.744296
v 0.06239 0.091162 -0.456071
v 0.109298 0.23726 0.744296
vt 0.631751 0.476265
vt 0.631751 0.476265
vt 0.89363 0.426086
vt 0.89363 0.410774
vt 0.613278 0.360749
vt 0.613278 0.360749
vt 0.875157 0.295258
vt 0.89047 0.295258
vt 0.023516 0.334447
vt 0.112949 0.073928
vt 0.387051 0.073928
vt 0.242344 0.476719
vt 0.476485 0.334447
vt 0.976234 0.812929
vt 0.976234 0.976484
vt 0.023766 0.890198
vt 0.023766 0.786266
vt 0.976234 0.812929
vt 0.023766 0.786266
vt 0.976234 0.523516
vt 0.023766 0.593323
vt 0.976234 0.523516
vt 0.023766 0.593323
vn -0.641801 0.687026 0.340715
vn 0.387609 0.47625 0.789269
vn 0.681257 0.657404 -0.322038
vn -0.423953 0.342032 -0.838617
vn -0.421163 0.094805 0.902017
vn 0.842326 0.056337 0.536016
vn 0.469045 -0.092316 -0.878336
vn -0.938089 -0.036208 -0.344496
vn -0.000001 0.17365 0.984807
vn 0 0.173651 0.984807
vn 0 0.17365 0.984807
vn 0 0.17365 0.984808
vn 0.000002 0.17365 0.984807
vn 0.772124 0.3948 -0.497954
vn -0.177907 0.609744 -0.772374
vn 0.234892 0.944039 -0.231551
vn 0.995021 0.064029 -0.07638
vn -0.753623 -0.056768 -0.654851
vn -0.849848 0.504036 -0.153966
vn -0.6543 -0.335386 -0.677796
vn -0.949701 -0.313158 0.001002
vn 0.514278 -0.310632 -0.799391
vn 0.9497 -0.31316 0.001003
usemtl datan_common_aca9299b
f 56/56/56 57/57/57 58/58/58
f 58/58/58 59/59/59 56/56/56
f 60/60/60 61/61/61 57/57/57
f 57/57/57 56/56/56 60/60/60
f 61/61/61 62/62/62 58/58/58
f 58/58/58 57/57/57 61/61/61
f 62/62/62 63/63/63 59/59/59
f 59/59/59 58/58/58 62/62/62
f 63/63/63 60/60/60 56/56/56
f 56/56/56 59/59/59 63/63/63
f 64/64/64 65/65/65 66/66/66
f 67/67/67 64/64/64 66/66/66
f 68/68/68 67/67/67 66/66/66
f 69/69/69 70/70/70 71/71/71
f 69/69/69 71/71/71 72/72/72
f 70/70/70 73/73/73 74/74/74
f 70/70/70 74/74/74 71/71/71
f 73/73/73 75/75/75 76/76/76
f 73/73/73 76/76/76 74/74/74
f 77/77/77 69/69/69 72/72/72
f 77/77/77 72/72/72 78/78/78
f 73/73/73 77/77/77 75/75/75
f 70/70/70 77/77/77 73/73/73
f 69/69/69 77/77/77 70/70/70
