# Generated from Nova1492 GX by tools/nova1492/GxObjConverter
mtllib datan_common_wool01_f6ddbca7.mtl
o datan_common_wool01_f6ddbca7_mesh00
v 0 1.51009 0.138675
v 0.329297 1.51009 0.152542
v 0.329297 1.51009 -0.152542
v 0 1.51009 -0.138675
v 0.051588 0 0.128478
v 0.277709 0 0.141326
v 0.329297 1.51009 0.152542
v 0 1.51009 0.138675
v 0.277709 0 0.141326
v 0.277709 0 -0.141326
v 0.329297 1.51009 -0.152542
v 0.329297 1.51009 0.152542
v 0.277709 0 -0.141326
v 0.051588 0 -0.128478
v 0 1.51009 -0.138675
v 0.329297 1.51009 -0.152542
v 0.051588 0 -0.128478
v 0.051588 0 0.128478
v 0 1.51009 0.138675
v 0 1.51009 -0.138675
vt 0.077633 0.610612
vt 0.433488 0.610612
vt 0.433488 0.820757
vt 0.077634 0.820757
vt 0.27087 0.000499
vt 0.578415 0.000499
vt 0.578415 0.999501
vt 0.27087 0.999501
vt 0.607401 0.034316
vt 0.979382 0.034316
vt 0.979382 0.934283
vt 0.607401 0.934283
vt 0.578415 0.000499
vt 0.27087 0.000499
vt 0.27087 0.999501
vt 0.578415 0.999501
vt 0.38783 0.000499
vt 0.00517 0.000499
vt 0.00517 0.999501
vt 0.38783 0.999501
vn 0 1 -0
vn 0 1 0
vn 0 1 -0
vn -0 1 -0
vn -0.049401 -0.006831 0.998756
vn -0.056726 -0.005478 0.998375
vn -0.049401 -0.006831 0.998756
vn -0.042074 -0.008183 0.999081
vn 0.999417 -0.034142 -0
vn 0.999417 -0.034142 -0
vn 0.999417 -0.034142 -0
vn 0.999417 -0.034142 -0
vn -0.049401 -0.007332 -0.998752
vn -0.056724 -0.008679 -0.998352
vn -0.049401 -0.007332 -0.998752
vn -0.042074 -0.005984 -0.999097
vn -0.999417 -0.034142 -0
vn -0.999417 -0.034142 -0
vn -0.999417 -0.034142 -0
vn -0.999417 -0.034142 0
usemtl datan_common_wool01_f6ddbca7
f 1/1/1 2/2/2 3/3/3
f 3/3/3 4/4/4 1/1/1
f 5/5/5 6/6/6 7/7/7
f 7/7/7 8/8/8 5/5/5
f 9/9/9 10/10/10 11/11/11
f 11/11/11 12/12/12 9/9/9
f 13/13/13 14/14/14 15/15/15
f 15/15/15 16/16/16 13/13/13
f 17/17/17 18/18/18 19/19/19
f 19/19/19 20/20/20 17/17/17
o datan_common_wool01_f6ddbca7_mesh01
v 0.228966 1.232853 0.081404
v 0.228966 0.908532 0.081404
v 5.205112 0.93442 0.062109
v 5.205112 1.160541 0.062109
v 0.228966 0.908532 -0.081404
v 0.228966 1.232853 -0.081404
v 5.205112 1.160541 -0.050952
v 5.205112 0.93442 -0.050952
v 0.228966 1.232853 -0.081404
v 0.228966 1.232853 0.081404
v 5.205112 1.160541 0.062109
v 5.205112 1.160541 -0.050952
v 0.228966 0.489206 0.07503
v 0.228966 0.205273 0.07503
v 5.205112 0.223905 0.030368
v 5.205112 0.450026 0.030368
v 0.228966 0.205273 -0.085343
v 0.228966 0.489206 -0.085343
v 5.205112 0.450026 -0.082692
v 5.205112 0.223905 -0.082692
v 0.228966 0.489206 -0.085343
v 0.228966 0.489206 0.07503
v 5.205112 0.450026 0.030368
v 5.205112 0.450026 -0.082692
vt 0.000499 0.757191
vt 0.000499 0.000373
vt 0.999501 0.000372
vt 0.999501 0.75719
vt 0.000499 0.000373
vt 0.000499 0.757191
vt 0.999501 0.75719
vt 0.999501 0.000372
vt 0.000499 0.757191
vt 0.000499 0.978712
vt 0.999501 0.97871
vt 0.999501 0.75719
vt 0.000499 0.757191
vt 0.000499 0.000373
vt 0.999501 0.000372
vt 0.999501 0.75719
vt 0.000499 0.000373
vt 0.000499 0.757191
vt 0.999501 0.75719
vt 0.999501 0.000372
vt 0.000499 0.757191
vt 0.000499 0.986443
vt 0.999501 0.986442
vt 0.999501 0.75719
vn 0.003877 0 0.999993
vn 0.003877 0 0.999993
vn 0.003877 0 0.999993
vn 0.003877 0 0.999993
vn 0.00612 0 -0.999981
vn 0.00612 0 -0.999981
vn 0.00612 0 -0.999981
vn 0.00612 -0 -0.999981
vn 0.01453 0.999894 -0
vn 0.01453 0.999894 0
vn 0.01453 0.999894 -0
vn 0.01453 0.999894 -0
vn 0.008975 0 0.99996
vn 0.008975 0 0.99996
vn 0.008975 0 0.99996
vn 0.008975 0 0.99996
vn 0.000533 0 -1
vn 0.000533 0 -1
vn 0.000533 0 -1
vn 0.000533 -0 -1
vn 0.007873 0.999969 -0
vn 0.007873 0.999969 0
vn 0.007873 0.999969 -0
vn 0.007873 0.999969 -0
usemtl datan_common_wool01_f6ddbca7
f 21/21/21 22/22/22 23/23/23
f 23/23/23 24/24/24 21/21/21
f 25/25/25 26/26/26 27/27/27
f 27/27/27 28/28/28 25/25/25
f 29/29/29 30/30/30 31/31/31
f 31/31/31 32/32/32 29/29/29
f 33/33/33 34/34/34 35/35/35
f 35/35/35 36/36/36 33/33/33
f 37/37/37 38/38/38 39/39/39
f 39/39/39 40/40/40 37/37/37
f 41/41/41 42/42/42 43/43/43
f 43/43/43 44/44/44 41/41/41
