# Generated from Nova1492 GX by tools/nova1492/GxObjConverter
mtllib datan_common_pul01_954f5b22.mtl
o datan_common_pul01_954f5b22_mesh00
v -0.378384 8.296106 -0.551867
v 0.391834 8.292228 -0.557772
v 0.000079 8.114505 -1.303795
v -0.163189 0 0.163189
v 0.163189 0 0.163189
v 0.160046 3.501763 0.219977
v -0.16633 3.502187 0.220758
v 0.163189 0 0.163189
v 0 0 -0.163189
v -0.003951 3.479226 -0.105216
v 0.160046 3.501763 0.219977
v 0 0 -0.163189
v -0.163189 0 0.163189
v -0.16633 3.502187 0.220758
v -0.003951 3.479226 -0.105216
v -0.16633 3.502187 0.220758
v 0.160046 3.501763 0.219977
v 0.160584 5.741774 -0.096084
v 0.160584 5.741774 -0.096084
v -0.165779 5.743417 -0.093582
v -0.16633 3.502187 0.220758
v 0.160046 3.501763 0.219977
v -0.003951 3.479226 -0.105216
v -0.005414 5.666468 -0.412196
v -0.005414 5.666468 -0.412196
v 0.160584 5.741774 -0.096084
v 0.160046 3.501763 0.219977
v -0.003951 3.479226 -0.105216
v -0.16633 3.502187 0.220758
v -0.165779 5.743417 -0.093582
v -0.165779 5.743417 -0.093582
v -0.005414 5.666468 -0.412196
v -0.003951 3.479226 -0.105216
v -0.165779 5.743417 -0.093582
v 0.160584 5.741774 -0.096084
v 0.385307 6.25018 -0.067874
v 0.385307 6.25018 -0.067874
v -0.384911 6.254058 -0.06197
v -0.165779 5.743417 -0.093582
v 0.160584 5.741774 -0.096084
v -0.005414 5.666468 -0.412196
v -0.006449 6.072457 -0.813898
v -0.006449 6.072457 -0.813898
v 0.385307 6.25018 -0.067874
v 0.160584 5.741774 -0.096084
v -0.005414 5.666468 -0.412196
v -0.165779 5.743417 -0.093582
v -0.384911 6.254058 -0.06197
v -0.384911 6.254058 -0.06197
v -0.006449 6.072457 -0.813898
v -0.005414 5.666468 -0.412196
v -0.384911 6.254058 -0.06197
v 0.385307 6.25018 -0.067874
v 0.391834 8.292228 -0.557772
v 0.391834 8.292228 -0.557772
v -0.378384 8.296106 -0.551867
v -0.384911 6.254058 -0.06197
v 0.385307 6.25018 -0.067874
v -0.006449 6.072457 -0.813898
v 0.000079 8.114505 -1.303795
v 0.000079 8.114505 -1.303795
v 0.391834 8.292228 -0.557772
v 0.385307 6.25018 -0.067874
v -0.006449 6.072457 -0.813898
v -0.384911 6.254058 -0.06197
v -0.378384 8.296106 -0.551867
v -0.378384 8.296106 -0.551867
v 0.000079 8.114505 -1.303795
v -0.006449 6.072457 -0.813898
v 1.680392 4.28888 -1.358007
v 2.124282 4.215557 -1.124823
v 1.969362 3.823846 -1.503702
v 0.043919 0.002556 0.138866
v 0.238642 -0.034233 0.22154
v 0.735988 1.80562 0.428254
v 0.541265 1.842409 0.34558
v 0.238642 -0.034233 0.22154
v 0.224816 -0.018175 -0.01759
v 0.722162 1.821678 0.189125
v 0.735988 1.80562 0.428254
v 0.224816 -0.018175 -0.01759
v 0.043919 0.002556 0.138866
v 0.541265 1.842409 0.34558
v 0.722162 1.821678 0.189125
v 0.541265 1.842409 0.34558
v 0.735988 1.80562 0.428254
v 1.239572 3.190042 -0.078184
v 1.239572 3.190042 -0.078184
v 1.051483 3.221111 -0.17699
v 0.541265 1.842409 0.34558
v 0.735988 1.80562 0.428254
v 0.722162 1.821678 0.189125
v 1.173928 3.024063 -0.238726
v 1.173928 3.024063 -0.238726
v 1.239572 3.190042 -0.078184
v 0.735988 1.80562 0.428254
v 0.722162 1.821678 0.189125
v 0.541265 1.842409 0.34558
v 1.051483 3.221111 -0.17699
v 1.051483 3.221111 -0.17699
v 1.173928 3.024063 -0.238726
v 0.722162 1.821678 0.189125
v 1.051483 3.221111 -0.17699
v 1.239572 3.190042 -0.078184
v 1.483387 3.505071 -0.128217
v 1.483387 3.505071 -0.128217
v 1.039497 3.578393 -0.3614
v 1.051483 3.221111 -0.17699
v 1.239572 3.190042 -0.078184
v 1.173928 3.024063 -0.238726
v 1.328466 3.113359 -0.507096
v 1.328466 3.113359 -0.507096
v 1.483387 3.505071 -0.128217
v 1.239572 3.190042 -0.078184
v 1.173928 3.024063 -0.238726
v 1.051483 3.221111 -0.17699
v 1.039497 3.578393 -0.3614
v 1.039497 3.578393 -0.3614
v 1.328466 3.113359 -0.507096
v 1.173928 3.024063 -0.238726
v 1.039497 3.578393 -0.3614
v 1.483387 3.505071 -0.128217
v 2.124282 4.215557 -1.124823
v 2.124282 4.215557 -1.124823
v 1.680392 4.28888 -1.358007
v 1.039497 3.578393 -0.3614
v 1.483387 3.505071 -0.128217
v 1.328466 3.113359 -0.507096
v 1.969362 3.823846 -1.503702
v 1.969362 3.823846 -1.503702
v 2.124282 4.215557 -1.124823
v 1.483387 3.505071 -0.128217
v 1.328466 3.113359 -0.507096
v 1.039497 3.578393 -0.3614
v 1.680392 4.28888 -1.358007
v 1.680392 4.28888 -1.358007
v 1.969362 3.823846 -1.503702
v 1.328466 3.113359 -0.507096
vt 0.446652 0.865456
vt 0.462008 0.94153
vt 0.053061 0.920867
vt 0.273526 0.000499
vt 0.465362 0.000499
vt 0.465363 0.417612
vt 0.273526 0.417612
vt 0.465362 0.000499
vt 0.869444 0.000499
vt 0.869444 0.417612
vt 0.465363 0.417612
vt -0.130556 0.000499
vt 0.273526 0.000499
vt 0.273526 0.417612
vt -0.130556 0.417612
vt 0.273526 0.417612
vt 0.465363 0.417612
vt 0.465363 0.696503
vt 0.465363 0.696503
vt 0.273526 0.696503
vt 0.273526 0.417612
vt 0.465363 0.417612
vt 0.869444 0.417612
vt 0.869444 0.696503
vt 0.869444 0.696503
vt 0.465363 0.696503
vt 0.465363 0.417612
vt -0.130556 0.417612
vt 0.273526 0.417612
vt 0.273526 0.696503
vt 0.273526 0.696503
vt -0.130556 0.696503
vt -0.130556 0.417612
vt 0.273526 0.696503
vt 0.465363 0.696503
vt 0.494444 0.753684
vt 0.494444 0.753684
vt 0.244445 0.753684
vt 0.273526 0.696503
vt 0.465363 0.696503
vt 0.869444 0.696503
vt 0.869444 0.753684
vt 0.869444 0.753684
vt 0.494444 0.753684
vt 0.465363 0.696503
vt -0.130556 0.696503
vt 0.273526 0.696503
vt 0.244445 0.753684
vt 0.244445 0.753684
vt -0.130556 0.753684
vt -0.130556 0.696503
vt 0.244445 0.753684
vt 0.494444 0.753684
vt 0.494444 0.999501
vt 0.494444 0.999501
vt 0.244445 0.999501
vt 0.244445 0.753684
vt 0.494444 0.753684
vt 0.869444 0.753684
vt 0.869444 0.999501
vt 0.869444 0.999501
vt 0.494444 0.999501
vt 0.494444 0.753684
vt -0.130556 0.753684
vt 0.244445 0.753684
vt 0.244445 0.999501
vt 0.244445 0.999501
vt -0.130556 0.999501
vt -0.130556 0.753684
vt 0.446652 0.865456
vt 0.462008 0.94153
vt 0.053061 0.920867
vt 0.273526 0.000499
vt 0.465362 0.000499
vt 0.465363 0.417612
vt 0.273526 0.417612
vt 0.465362 0.000499
vt 0.869444 0.000499
vt 0.869444 0.417612
vt 0.465363 0.417612
vt -0.130556 0.000499
vt 0.273526 0.000499
vt 0.273526 0.417612
vt -0.130556 0.417612
vt 0.273526 0.417612
vt 0.465363 0.417612
vt 0.465363 0.696503
vt 0.465363 0.696503
vt 0.273526 0.696503
vt 0.273526 0.417612
vt 0.465363 0.417612
vt 0.869444 0.417612
vt 0.869444 0.696503
vt 0.869444 0.696503
vt 0.465363 0.696503
vt 0.465363 0.417612
vt -0.130556 0.417612
vt 0.273526 0.417612
vt 0.273526 0.696503
vt 0.273526 0.696503
vt -0.130556 0.696503
vt -0.130556 0.417612
vt 0.273526 0.696503
vt 0.465363 0.696503
vt 0.494444 0.753684
vt 0.494444 0.753684
vt 0.244445 0.753684
vt 0.273526 0.696503
vt 0.465363 0.696503
vt 0.869444 0.696503
vt 0.869444 0.753684
vt 0.869444 0.753684
vt 0.494444 0.753684
vt 0.465363 0.696503
vt -0.130556 0.696503
vt 0.273526 0.696503
vt 0.244445 0.753684
vt 0.244445 0.753684
vt -0.130556 0.753684
vt -0.130556 0.696503
vt 0.244445 0.753684
vt 0.494444 0.753684
vt 0.494444 0.999501
vt 0.494444 0.999501
vt 0.244445 0.999501
vt 0.244445 0.753684
vt 0.494444 0.753684
vt 0.869444 0.753684
vt 0.869444 0.999501
vt 0.869444 0.999501
vt 0.494444 0.999501
vt 0.494444 0.753684
vt -0.130556 0.753684
vt 0.244445 0.753684
vt 0.244445 0.999501
vt 0.244445 0.999501
vt -0.130556 0.999501
vt -0.130556 0.753684
vn 0.003108 0.972404 -0.233285
vn 0.003108 0.972404 -0.233285
vn 0.003108 0.972404 -0.233285
vn 0.001185 -0.016324 0.999866
vn -0 -0.016215 0.999869
vn 0.001185 -0.016324 0.999866
vn 0.00237 -0.016434 0.999862
vn 0.893514 0.008289 -0.448959
vn 0.894396 0.008467 -0.447197
vn 0.893514 0.008289 -0.448959
vn 0.892629 0.00811 -0.45072
vn -0.894651 0.006484 -0.446718
vn -0.894408 0.006549 -0.447203
vn -0.894651 0.006484 -0.446718
vn -0.894894 0.006419 -0.446233
vn 0.00255 0.139713 0.990189
vn 0.00255 0.139713 0.990189
vn 0.00255 0.139713 0.990189
vn 0.008291 0.138887 0.990274
vn 0.008291 0.138887 0.990274
vn 0.008291 0.138887 0.990274
vn 0.892887 -0.061998 -0.445991
vn 0.892887 -0.061998 -0.445991
vn 0.892887 -0.061998 -0.445991
vn 0.889732 -0.063987 -0.451976
vn 0.889732 -0.063987 -0.451976
vn 0.889732 -0.063987 -0.451976
vn -0.895115 -0.061708 -0.441544
vn -0.895115 -0.061708 -0.441544
vn -0.895115 -0.061708 -0.441544
vn -0.897448 -0.061899 -0.436757
vn -0.897448 -0.061899 -0.436757
vn -0.897448 -0.061899 -0.436757
vn 0.007357 -0.058641 0.998252
vn 0.007357 -0.058641 0.998252
vn 0.007357 -0.058641 0.998252
vn 0.007357 -0.058641 0.998252
vn 0.007357 -0.058641 0.998252
vn 0.007357 -0.058641 0.998252
vn 0.858734 -0.359301 -0.365347
vn 0.858734 -0.359301 -0.365347
vn 0.858734 -0.359301 -0.365347
vn 0.858734 -0.3593 -0.365347
vn 0.858734 -0.3593 -0.365347
vn 0.858734 -0.3593 -0.365347
vn -0.867809 -0.350606 -0.352112
vn -0.867809 -0.350606 -0.352112
vn -0.867809 -0.350606 -0.352112
vn -0.867809 -0.350606 -0.352112
vn -0.867809 -0.350606 -0.352112
vn -0.867809 -0.350606 -0.352112
vn 0.008629 0.233251 0.972378
vn 0.008629 0.233251 0.972378
vn 0.008629 0.233251 0.972378
vn 0.008629 0.233251 0.972378
vn 0.008629 0.233251 0.972378
vn 0.008629 0.233251 0.972378
vn 0.890531 -0.108816 -0.441717
vn 0.890531 -0.108816 -0.441717
vn 0.890531 -0.108816 -0.441717
vn 0.890531 -0.108816 -0.441717
vn 0.890531 -0.108816 -0.441717
vn 0.890531 -0.108816 -0.441717
vn -0.898249 -0.099809 -0.428004
vn -0.898249 -0.099809 -0.428004
vn -0.898249 -0.099809 -0.428004
vn -0.898249 -0.099809 -0.428004
vn -0.898249 -0.099809 -0.428004
vn -0.898249 -0.099809 -0.428004
vn 0.463887 0.514257 -0.721352
vn 0.463887 0.514257 -0.721352
vn 0.463887 0.514257 -0.721352
vn -0.390467 0.002116 0.920615
vn -0.390467 0.002116 0.920615
vn -0.390467 0.002116 0.920615
vn -0.390467 0.002116 0.920615
vn 0.964823 -0.252636 -0.072748
vn 0.964823 -0.252636 -0.072748
vn 0.964823 -0.252636 -0.072748
vn 0.964823 -0.252636 -0.072748
vn -0.616711 0.250552 -0.746252
vn -0.616711 0.250552 -0.746252
vn -0.616711 0.250552 -0.746252
vn -0.616711 0.250552 -0.746252
vn -0.286513 0.419341 0.861431
vn -0.286513 0.419341 0.861431
vn -0.286513 0.419341 0.861431
vn -0.358171 0.443881 0.821391
vn -0.358171 0.443881 0.821391
vn -0.358171 0.443881 0.821391
vn 0.923682 -0.375015 -0.078588
vn 0.923682 -0.375015 -0.078588
vn 0.923682 -0.375015 -0.078588
vn 0.936876 -0.34895 -0.02231
vn 0.936876 -0.34895 -0.02231
vn 0.936876 -0.34895 -0.02231
vn -0.656357 -0.042605 -0.753247
vn -0.656357 -0.042605 -0.753247
vn -0.656357 -0.042605 -0.753247
vn -0.555174 -0.085788 -0.827298
vn -0.555174 -0.085788 -0.827298
vn -0.555174 -0.085788 -0.827298
vn -0.367852 0.416722 0.831281
vn -0.367852 0.416722 0.831281
vn -0.367852 0.416722 0.831281
vn -0.367852 0.416722 0.831281
vn -0.367852 0.416722 0.831281
vn -0.367852 0.416722 0.831281
vn 0.78274 -0.564017 0.263065
vn 0.78274 -0.564017 0.263065
vn 0.78274 -0.564017 0.263065
vn 0.78274 -0.564017 0.263065
vn 0.78274 -0.564017 0.263065
vn 0.78274 -0.564017 0.263065
vn -0.775738 -0.309793 -0.549781
vn -0.775738 -0.309793 -0.549781
vn -0.775738 -0.309793 -0.549781
vn -0.775739 -0.309793 -0.54978
vn -0.775739 -0.309793 -0.54978
vn -0.775739 -0.309793 -0.54978
vn -0.132265 0.845343 0.517593
vn -0.132265 0.845343 0.517593
vn -0.132265 0.845343 0.517593
vn -0.132265 0.845342 0.517593
vn -0.132265 0.845342 0.517593
vn -0.132265 0.845342 0.517593
vn 0.842639 -0.507466 0.180107
vn 0.842639 -0.507466 0.180107
vn 0.842639 -0.507466 0.180107
vn 0.842639 -0.507466 0.180106
vn 0.842639 -0.507466 0.180106
vn 0.842639 -0.507466 0.180106
vn -0.724337 -0.248629 -0.643054
vn -0.724337 -0.248629 -0.643054
vn -0.724337 -0.248629 -0.643054
vn -0.724337 -0.24863 -0.643055
vn -0.724337 -0.24863 -0.643055
vn -0.724337 -0.24863 -0.643055
usemtl datan_common_pul01_954f5b22
f 1/1/1 2/2/2 3/3/3
f 4/4/4 5/5/5 6/6/6
f 6/6/6 7/7/7 4/4/4
f 8/8/8 9/9/9 10/10/10
f 10/10/10 11/11/11 8/8/8
f 12/12/12 13/13/13 14/14/14
f 14/14/14 15/15/15 12/12/12
f 16/16/16 17/17/17 18/18/18
f 19/19/19 20/20/20 21/21/21
f 22/22/22 23/23/23 24/24/24
f 25/25/25 26/26/26 27/27/27
f 28/28/28 29/29/29 30/30/30
f 31/31/31 32/32/32 33/33/33
f 34/34/34 35/35/35 36/36/36
f 37/37/37 38/38/38 39/39/39
f 40/40/40 41/41/41 42/42/42
f 43/43/43 44/44/44 45/45/45
f 46/46/46 47/47/47 48/48/48
f 49/49/49 50/50/50 51/51/51
f 52/52/52 53/53/53 54/54/54
f 55/55/55 56/56/56 57/57/57
f 58/58/58 59/59/59 60/60/60
f 61/61/61 62/62/62 63/63/63
f 64/64/64 65/65/65 66/66/66
f 67/67/67 68/68/68 69/69/69
f 70/70/70 71/71/71 72/72/72
f 73/73/73 74/74/74 75/75/75
f 75/75/75 76/76/76 73/73/73
f 77/77/77 78/78/78 79/79/79
f 79/79/79 80/80/80 77/77/77
f 81/81/81 82/82/82 83/83/83
f 83/83/83 84/84/84 81/81/81
f 85/85/85 86/86/86 87/87/87
f 88/88/88 89/89/89 90/90/90
f 91/91/91 92/92/92 93/93/93
f 94/94/94 95/95/95 96/96/96
f 97/97/97 98/98/98 99/99/99
f 100/100/100 101/101/101 102/102/102
f 103/103/103 104/104/104 105/105/105
f 106/106/106 107/107/107 108/108/108
f 109/109/109 110/110/110 111/111/111
f 112/112/112 113/113/113 114/114/114
f 115/115/115 116/116/116 117/117/117
f 118/118/118 119/119/119 120/120/120
f 121/121/121 122/122/122 123/123/123
f 124/124/124 125/125/125 126/126/126
f 127/127/127 128/128/128 129/129/129
f 130/130/130 131/131/131 132/132/132
f 133/133/133 134/134/134 135/135/135
f 136/136/136 137/137/137 138/138/138
o datan_common_pul01_954f5b22_mesh01
v -0.006691 -0.111321 0.466752
v -0.136852 1.884972 1.406204
v 0.880135 1.853209 1.416981
v 0.534608 -0.128227 0.472488
v 0.405809 3.785102 4.425933
v 0.547344 -0.115846 0.382795
v 1.287791 2.37686 1.304666
v 1.707194 2.495193 0.385163
v 0.770575 -0.052862 -0.106618
v 4.41648 2.830163 2.227046
v -0.356174 -0.047926 0.094123
v -1.961316 3.130688 0.972483
v -1.569674 2.987024 1.90058
v -0.14772 -0.124392 0.58811
v -3.96572 4.966355 2.690366
v 0.071415 0.026605 -0.519164
v -0.248933 1.625332 -0.979133
v -0.953586 1.542523 -0.249754
v -0.303642 -0.017471 -0.130946
v -2.206091 3.246679 -3.178372
vt 0.234136 0.000499
vt 0.0005 0.5
vt 0.999501 0.5
vt 0.765862 0.000499
vt 0.500001 0.999501
vt 0.234136 0.000499
vt 0.0005 0.5
vt 0.999501 0.5
vt 0.765862 0.000499
vt 0.500001 0.999501
vt 0.234136 0.000499
vt 0.0005 0.5
vt 0.999501 0.5
vt 0.765862 0.000499
vt 0.500001 0.999501
vt 0.234136 0.000499
vt 0.0005 0.5
vt 0.999501 0.5
vt 0.765862 0.000499
vt 0.500001 0.999501
vn 0.022913 0.426915 -0.904001
vn 0.028594 0.661146 -0.749712
vn 0.026888 0.586182 -0.809733
vn 0.022913 0.426915 -0.904001
vn 0.032024 0.843344 -0.536419
vn -0.858513 0.381671 -0.342466
vn -0.588561 0.791091 -0.166647
vn -0.710238 0.662248 -0.238727
vn -0.858513 0.381671 -0.342466
vn -0.158867 0.9858 0.054403
vn 0.826464 0.492649 -0.272495
vn 0.729741 0.651613 -0.207073
vn 0.765744 0.600548 -0.23017
vn 0.826464 0.492649 -0.272496
vn 0.604626 0.785226 -0.133594
vn 0.660892 0.326802 0.675591
vn 0.512019 0.644515 0.567836
vn 0.572811 0.54199 0.614927
vn 0.660892 0.326802 0.675591
vn 0.294169 0.875401 0.383585
usemtl datan_common_pul01_954f5b22
f 139/139/139 140/140/140 141/141/141
f 141/141/141 142/142/142 139/139/139
f 143/143/143 141/141/141 140/140/140
f 144/144/144 145/145/145 146/146/146
f 146/146/146 147/147/147 144/144/144
f 148/148/148 146/146/146 145/145/145
f 149/149/149 150/150/150 151/151/151
f 151/151/151 152/152/152 149/149/149
f 153/153/153 151/151/151 150/150/150
f 154/154/154 155/155/155 156/156/156
f 156/156/156 157/157/157 154/154/154
f 158/158/158 156/156/156 155/155/155
