# Generated from Nova1492 GX by tools/nova1492/GxObjConverter
mtllib datan_common_MBoverwork1_ced7d588.mtl
o datan_common_MBoverwork1_ced7d588_mesh00
v -0 -4.806519 0.495605
v -0 -4.806519 -0.495606
v -0 0.19346 -0.495606
v -0 0.19346 0.495605
vt 0.755941 0.494121
vt 0.755941 0.380879
vt 0.994059 0.380879
vt 0.994059 0.494121
vn 1 0 0
vn -1 0 0
vn 1 0 0
vn -1 0 0
usemtl datan_common_MBoverwork1_ced7d588
f 1/1/1 2/2/2 3/3/3
f 3/3/3 4/4/4 1/1/1
f 2/2/2 1/1/1 4/4/4
f 4/4/4 3/3/3 2/2/2
o datan_common_MBoverwork1_ced7d588_mesh01
v 0 -4.806519 0.495606
v 0 -4.806519 -0.495606
v 0 0.19346 -0.495606
v 0 0.19346 0.495606
vt 0.755941 0.494121
vt 0.755941 0.380879
vt 0.994059 0.380879
vt 0.994059 0.494121
vn 1 0 0
vn -1 0 0
vn 1 0 0
vn -1 0 0
usemtl datan_common_MBoverwork1_ced7d588
f 5/5/5 6/6/6 7/7/7
f 7/7/7 8/8/8 5/5/5
f 6/6/6 5/5/5 8/8/8
f 8/8/8 7/7/7 6/6/6
o datan_common_MBoverwork1_ced7d588_mesh02
v -0.077857 0.000002 -0.077857
v -0.077857 0.000002 0.077857
v 0.077857 0.000002 -0.077857
v 0.077857 0.000002 0.077857
vt 0.755942 0.744059
vt 0.755941 0.505941
vt 0.994059 0.744059
vt 0.994059 0.505941
vn 0 1 0
vn 0 1 0
vn 0 1 0
vn 0 1 0
usemtl datan_common_MBoverwork1_ced7d588
f 9/9/9 10/10/10 11/11/11
f 12/12/12 11/11/11 10/10/10
o datan_common_MBoverwork1_ced7d588_mesh03
v -0.077857 -0.000009 -0.077857
v -0.077857 -0.000009 0.077857
v 0.077857 -0.000009 -0.077857
v 0.077857 -0.000009 0.077857
vt 0.755942 0.744059
vt 0.755941 0.505941
vt 0.994059 0.744059
vt 0.994059 0.505941
vn 0 1 0
vn 0 1 0
vn 0 1 0
vn 0 1 0
usemtl datan_common_MBoverwork1_ced7d588
f 13/13/13 14/14/14 15/15/15
f 16/16/16 15/15/15 14/14/14
o datan_common_MBoverwork1_ced7d588_mesh04
v -0.077857 -0.000005 -0.077857
v -0.077857 -0.000005 0.077857
v 0.077857 -0.000005 -0.077857
v 0.077857 -0.000005 0.077857
vt 0.755942 0.744059
vt 0.755941 0.505941
vt 0.994059 0.744059
vt 0.994059 0.505941
vn 0 1 0
vn 0 1 0
vn 0 1 0
vn 0 1 0
usemtl datan_common_MBoverwork1_ced7d588
f 17/17/17 18/18/18 19/19/19
f 20/20/20 19/19/19 18/18/18
o datan_common_MBoverwork1_ced7d588_mesh05
v -0.077857 0.000002 -0.077857
v -0.077857 0.000002 0.077857
v 0.077857 0.000002 -0.077857
v 0.077857 0.000002 0.077857
vt 0.755942 0.744059
vt 0.755941 0.505941
vt 0.994059 0.744059
vt 0.994059 0.505941
vn 0 1 0
vn 0 1 0
vn 0 1 0
vn 0 1 0
usemtl datan_common_MBoverwork1_ced7d588
f 21/21/21 22/22/22 23/23/23
f 24/24/24 23/23/23 22/22/22
o datan_common_MBoverwork1_ced7d588_mesh06
v -0.077857 -0 -0.077857
v -0.077857 -0 0.077857
v 0.077857 -0 -0.077857
v 0.077857 -0 0.077857
vt 0.755942 0.744059
vt 0.755941 0.505941
vt 0.994059 0.744059
vt 0.994059 0.505941
vn 0 1 0
vn 0 1 0
vn 0 1 0
vn 0 1 0
usemtl datan_common_MBoverwork1_ced7d588
f 25/25/25 26/26/26 27/27/27
f 28/28/28 27/27/27 26/26/26
o datan_common_MBoverwork1_ced7d588_mesh07
v -0.077857 0.000004 -0.077857
v -0.077857 0.000004 0.077857
v 0.077857 0.000004 -0.077857
v 0.077857 0.000004 0.077857
vt 0.755942 0.744059
vt 0.755941 0.505941
vt 0.994059 0.744059
vt 0.994059 0.505941
vn 0 1 0
vn 0 1 0
vn 0 1 0
vn 0 1 0
usemtl datan_common_MBoverwork1_ced7d588
f 29/29/29 30/30/30 31/31/31
f 32/32/32 31/31/31 30/30/30
o datan_common_MBoverwork1_ced7d588_mesh08
v -0.077857 0.000006 -0.077857
v -0.077857 0.000006 0.077857
v 0.077857 0.000006 -0.077857
v 0.077857 0.000006 0.077857
vt 0.755942 0.744059
vt 0.755941 0.505941
vt 0.994059 0.744059
vt 0.994059 0.505941
vn 0 1 0
vn 0 1 0
vn 0 1 0
vn 0 1 0
usemtl datan_common_MBoverwork1_ced7d588
f 33/33/33 34/34/34 35/35/35
f 36/36/36 35/35/35 34/34/34
o datan_common_MBoverwork1_ced7d588_mesh09
v -0.077857 0.000001 -0.077857
v -0.077857 0.000001 0.077857
v 0.077857 0.000001 -0.077857
v 0.077857 0.000001 0.077857
vt 0.755942 0.744059
vt 0.755941 0.505941
vt 0.994059 0.744059
vt 0.994059 0.505941
vn 0 1 0
vn 0 1 0
vn 0 1 0
vn 0 1 0
usemtl datan_common_MBoverwork1_ced7d588
f 37/37/37 38/38/38 39/39/39
f 40/40/40 39/39/39 38/38/38
o datan_common_MBoverwork1_ced7d588_mesh10
v -0.077857 -0.000004 -0.077857
v -0.077857 -0.000004 0.077857
v 0.077857 -0.000004 -0.077857
v 0.077857 -0.000004 0.077857
vt 0.755942 0.744059
vt 0.755941 0.505941
vt 0.994059 0.744059
vt 0.994059 0.505941
vn 0 1 0
vn 0 1 0
vn 0 1 0
vn 0 1 0
usemtl datan_common_MBoverwork1_ced7d588
f 41/41/41 42/42/42 43/43/43
f 44/44/44 43/43/43 42/42/42
o datan_common_MBoverwork1_ced7d588_mesh11
v -0.077857 0.000007 -0.077857
v -0.077857 0.000007 0.077857
v 0.077857 0.000007 -0.077857
v 0.077857 0.000007 0.077857
vt 0.755942 0.744059
vt 0.755941 0.505941
vt 0.994059 0.744059
vt 0.994059 0.505941
vn 0 1 0
vn 0 1 0
vn 0 1 0
vn 0 1 0
usemtl datan_common_MBoverwork1_ced7d588
f 45/45/45 46/46/46 47/47/47
f 48/48/48 47/47/47 46/46/46
o datan_common_MBoverwork1_ced7d588_mesh12
v -0.077857 0.000002 -0.077857
v -0.077857 0.000002 0.077857
v 0.077857 0.000002 -0.077857
v 0.077857 0.000002 0.077857
vt 0.755942 0.744059
vt 0.755941 0.505941
vt 0.994059 0.744059
vt 0.994059 0.505941
vn 0 1 0
vn 0 1 0
vn 0 1 0
vn 0 1 0
usemtl datan_common_MBoverwork1_ced7d588
f 49/49/49 50/50/50 51/51/51
f 52/52/52 51/51/51 50/50/50
o datan_common_MBoverwork1_ced7d588_mesh13
v -0.077857 -0.000003 -0.077857
v -0.077857 -0.000003 0.077857
v 0.077857 -0.000003 -0.077857
v 0.077857 -0.000003 0.077857
vt 0.755942 0.744059
vt 0.755941 0.505941
vt 0.994059 0.744059
vt 0.994059 0.505941
vn 0 1 0
vn 0 1 0
vn 0 1 0
vn 0 1 0
usemtl datan_common_MBoverwork1_ced7d588
f 53/53/53 54/54/54 55/55/55
f 56/56/56 55/55/55 54/54/54
o datan_common_MBoverwork1_ced7d588_mesh14
v -0.077857 0.000001 -0.077857
v -0.077857 0.000001 0.077857
v 0.077857 0.000001 -0.077857
v 0.077857 0.000001 0.077857
vt 0.755942 0.744059
vt 0.755941 0.505941
vt 0.994059 0.744059
vt 0.994059 0.505941
vn 0 1 0
vn 0 1 0
vn 0 1 0
vn 0 1 0
usemtl datan_common_MBoverwork1_ced7d588
f 57/57/57 58/58/58 59/59/59
f 60/60/60 59/59/59 58/58/58
o datan_common_MBoverwork1_ced7d588_mesh15
v -0.077857 0.000001 -0.077857
v -0.077857 0.000001 0.077857
v 0.077857 0.000001 -0.077857
v 0.077857 0.000001 0.077857
vt 0.755942 0.744059
vt 0.755941 0.505941
vt 0.994059 0.744059
vt 0.994059 0.505941
vn 0 1 0
vn 0 1 0
vn 0 1 0
vn 0 1 0
usemtl datan_common_MBoverwork1_ced7d588
f 61/61/61 62/62/62 63/63/63
f 64/64/64 63/63/63 62/62/62
o datan_common_MBoverwork1_ced7d588_mesh16
v -0.077857 -0.000001 -0.077857
v -0.077857 -0.000001 0.077857
v 0.077857 -0.000001 -0.077857
v 0.077857 -0.000001 0.077857
vt 0.755942 0.744059
vt 0.755941 0.505941
vt 0.994059 0.744059
vt 0.994059 0.505941
vn 0 1 0
vn 0 1 0
vn 0 1 0
vn 0 1 0
usemtl datan_common_MBoverwork1_ced7d588
f 65/65/65 66/66/66 67/67/67
f 68/68/68 67/67/67 66/66/66
o datan_common_MBoverwork1_ced7d588_mesh17
v -0.077857 -0.000002 -0.077857
v -0.077857 -0.000002 0.077857
v 0.077857 -0.000002 -0.077857
v 0.077857 -0.000002 0.077857
vt 0.755942 0.744059
vt 0.755941 0.505941
vt 0.994059 0.744059
vt 0.994059 0.505941
vn 0 1 0
vn 0 1 0
vn 0 1 0
vn 0 1 0
usemtl datan_common_MBoverwork1_ced7d588
f 69/69/69 70/70/70 71/71/71
f 72/72/72 71/71/71 70/70/70
o datan_common_MBoverwork1_ced7d588_mesh18
v -0.077857 -0.000003 -0.077857
v -0.077857 -0.000003 0.077857
v 0.077857 -0.000003 -0.077857
v 0.077857 -0.000003 0.077857
vt 0.755942 0.744059
vt 0.755941 0.505941
vt 0.994059 0.744059
vt 0.994059 0.505941
vn 0 1 0
vn 0 1 0
vn 0 1 0
vn 0 1 0
usemtl datan_common_MBoverwork1_ced7d588
f 73/73/73 74/74/74 75/75/75
f 76/76/76 75/75/75 74/74/74
o datan_common_MBoverwork1_ced7d588_mesh19
v -0.077857 0 -0.077857
v -0.077857 0 0.077857
v 0.077857 0 -0.077857
v 0.077857 0 0.077857
vt 0.755942 0.744059
vt 0.755941 0.505941
vt 0.994059 0.744059
vt 0.994059 0.505941
vn 0 1 0
vn 0 1 0
vn 0 1 0
vn 0 1 0
usemtl datan_common_MBoverwork1_ced7d588
f 77/77/77 78/78/78 79/79/79
f 80/80/80 79/79/79 78/78/78
