# Generated from Nova1492 GX by tools/nova1492/GxObjConverter
mtllib datan_common__2_fe31b1e9.mtl
o datan_common__2_fe31b1e9
v -14.19026 -18.17619 0.000032
v -10.17032 -16.24096 0.000016
v -14.18935 -18.17528 1.014962
v -10.24358 -16.43156 1.437788
v -18.19493 -14.17151 0.00003
v -14.19026 -18.17619 0.000032
v -18.19402 -14.1706 1.014961
v -14.18935 -18.17528 1.014962
v -16.26478 -10.14651 0.000014
v -18.19493 -14.17151 0.00003
v -16.45523 -10.2199 1.437788
v -18.19402 -14.1706 1.014961
v -10.17032 -16.24096 0.000016
v -16.26478 -10.14651 0.000014
v -10.24358 -16.43156 1.437788
v -16.45523 -10.2199 1.437788
v -10.17032 -16.24096 0.000016
v -18.19493 -14.17151 0.00003
v -16.26478 -10.14651 0.000014
v -14.19026 -18.17619 0.000032
v -16.37524 -11.06979 1.886844
v -17.65551 -14.08805 1.567389
v -11.07544 -16.3696 1.886844
v -14.08983 -17.65374 1.56739
v -14.18935 -18.17528 1.014962
v -10.24358 -16.43156 1.437788
v -14.08983 -17.65374 1.56739
v -11.07544 -16.3696 1.886844
v -14.08983 -17.65374 1.56739
v -10.24358 -16.43156 1.437788
v -18.19402 -14.1706 1.014961
v -14.18935 -18.17528 1.014962
v -17.65551 -14.08805 1.567389
v -14.08983 -17.65374 1.56739
v -17.65551 -14.08805 1.567389
v -14.18935 -18.17528 1.014962
v -16.45523 -10.2199 1.437788
v -18.19402 -14.1706 1.014961
v -16.37524 -11.06979 1.886844
v -17.65551 -14.08805 1.567389
v -16.37524 -11.06979 1.886844
v -18.19402 -14.1706 1.014961
v -10.24358 -16.43156 1.437788
v -16.45523 -10.2199 1.437788
v -11.07544 -16.3696 1.886844
v -16.37524 -11.06979 1.886844
v -11.07544 -16.3696 1.886844
v -16.45523 -10.2199 1.437788
v -14.18935 -18.17528 -1.014939
v -10.17032 -16.24096 0.000008
v -14.19026 -18.17619 -0.000008
v -10.24358 -16.43156 -1.437764
v -18.19403 -14.1706 -1.01494
v -14.19026 -18.17619 -0.000008
v -18.19494 -14.17151 -0.000009
v -14.18935 -18.17528 -1.014939
v -16.45523 -10.2199 -1.437767
v -18.19494 -14.17151 -0.000009
v -16.26478 -10.14651 0.000007
v -18.19403 -14.1706 -1.01494
v -10.24358 -16.43156 -1.437764
v -16.26478 -10.14651 0.000007
v -10.17032 -16.24096 0.000008
v -16.45523 -10.2199 -1.437767
v -16.26478 -10.14651 0.000007
v -18.19494 -14.17151 -0.000009
v -10.17032 -16.24096 0.000008
v -14.19026 -18.17619 -0.000008
v -11.07545 -16.3696 -1.886821
v -17.65552 -14.08805 -1.567368
v -16.37524 -11.06979 -1.886822
v -14.08983 -17.65374 -1.567367
v -14.08983 -17.65374 -1.567367
v -10.24358 -16.43156 -1.437764
v -14.18935 -18.17528 -1.014939
v -10.24358 -16.43156 -1.437764
v -14.08983 -17.65374 -1.567367
v -11.07545 -16.3696 -1.886821
v -17.65552 -14.08805 -1.567368
v -14.18935 -18.17528 -1.014939
v -18.19403 -14.1706 -1.01494
v -14.18935 -18.17528 -1.014939
v -17.65552 -14.08805 -1.567368
v -14.08983 -17.65374 -1.567367
v -16.37524 -11.06979 -1.886822
v -18.19403 -14.1706 -1.01494
v -16.45523 -10.2199 -1.437767
v -18.19403 -14.1706 -1.01494
v -16.37524 -11.06979 -1.886822
v -17.65552 -14.08805 -1.567368
v -11.07545 -16.3696 -1.886821
v -16.45523 -10.2199 -1.437767
v -10.24358 -16.43156 -1.437764
v -16.45523 -10.2199 -1.437767
v -11.07545 -16.3696 -1.886821
v -16.37524 -11.06979 -1.886822
vt 0.253415 1.008627
vt 0.139759 0.661897
vt 0.253415 0.999737
vt 0.118163 0.664817
vt 0.745358 1.008626
vt 0.253415 1.008627
vt 0.745358 0.999737
vt 0.253415 0.999737
vt 0.859621 0.661897
vt 0.745358 1.008626
vt 0.881216 0.664816
vt 0.745358 0.999737
vt 0.139759 0.661897
vt 0.859621 0.661897
vt 0.118163 0.664817
vt 0.881216 0.664816
vt 0.139759 0.661897
vt 0.745358 1.008626
vt 0.859621 0.661897
vt 0.253415 1.008627
vt 0.831428 0.698165
vt 0.722626 0.966387
vt 0.167868 0.698166
vt 0.276185 0.966387
vt 0.253415 0.999737
vt 0.118163 0.664817
vt 0.276185 0.966387
vt 0.167868 0.698166
vt 0.276185 0.966387
vt 0.118163 0.664817
vt 0.745358 0.999737
vt 0.253415 0.999737
vt 0.722626 0.966387
vt 0.276185 0.966387
vt 0.722626 0.966387
vt 0.253415 0.999737
vt 0.881216 0.664816
vt 0.745358 0.999737
vt 0.831428 0.698165
vt 0.722626 0.966387
vt 0.831428 0.698165
vt 0.745358 0.999737
vt 0.118163 0.664817
vt 0.881216 0.664816
vt 0.167868 0.698166
vt 0.831428 0.698165
vt 0.167868 0.698166
vt 0.881216 0.664816
vt 0.746585 0.999394
vt 0.860241 0.650861
vt 0.746585 0.9995
vt 0.881838 0.666308
vt 0.254642 0.999393
vt 0.746585 0.9995
vt 0.254642 0.9995
vt 0.746585 0.999394
vt 0.118784 0.666307
vt 0.254642 0.9995
vt 0.140379 0.650861
vt 0.254642 0.999393
vt 0.881838 0.666308
vt 0.140379 0.650861
vt 0.860241 0.650861
vt 0.118784 0.666307
vt 0.140379 0.650861
vt 0.254642 0.9995
vt 0.860241 0.650861
vt 0.746585 0.9995
vt 0.832132 0.703832
vt 0.277374 0.970584
vt 0.168572 0.703831
vt 0.723815 0.970584
vt 0.723815 0.970584
vt 0.881838 0.666308
vt 0.746585 0.999394
vt 0.881838 0.666308
vt 0.723815 0.970584
vt 0.832132 0.703832
vt 0.277374 0.970584
vt 0.746585 0.999394
vt 0.254642 0.999393
vt 0.746585 0.999394
vt 0.277374 0.970584
vt 0.723815 0.970584
vt 0.168572 0.703831
vt 0.254642 0.999393
vt 0.118784 0.666307
vt 0.254642 0.999393
vt 0.168572 0.703831
vt 0.277374 0.970584
vt 0.832132 0.703832
vt 0.118784 0.666307
vt 0.881838 0.666308
vt 0.118784 0.666307
vt 0.832132 0.703832
vt 0.168572 0.703831
vn 0.433762 -0.901028 0.000419
vn 0.422979 -0.904789 -0.049447
vn 0.422979 -0.904789 -0.049447
vn 0.41109 -0.906183 -0.099183
vn -0.707106 -0.707106 0.001272
vn -0.707106 -0.707106 0.001272
vn -0.707106 -0.707106 0.001272
vn -0.707107 -0.707106 0.001271
vn -0.89744 0.43036 -0.09691
vn -0.907565 0.417127 -0.048288
vn -0.907565 0.417127 -0.048288
vn -0.915292 0.402791 0.000462
vn 0.701227 0.701228 0.128687
vn 0.701228 0.701228 0.128683
vn 0.701228 0.701228 0.128683
vn 0.701229 0.701228 0.128679
vn -0.000003 -0.000003 -1
vn -0.000003 -0.000003 -1
vn -0.000003 -0.000003 -1
vn -0.000003 -0.000003 -1
vn -0.07391 -0.07391 0.994522
vn -0.07391 -0.07391 0.994522
vn -0.07391 -0.07391 0.994522
vn -0.07391 -0.07391 0.994522
vn 0.252225 -0.725907 0.639877
vn 0.252225 -0.725907 0.639877
vn 0.252225 -0.725907 0.639877
vn 0.262287 -0.762743 0.591124
vn 0.262287 -0.762743 0.591124
vn 0.262287 -0.762743 0.591124
vn -0.553519 -0.553519 0.622281
vn -0.553519 -0.553519 0.622281
vn -0.553519 -0.553519 0.622281
vn -0.55352 -0.553519 0.62228
vn -0.55352 -0.553519 0.62228
vn -0.55352 -0.553519 0.62228
vn -0.739316 0.258861 0.621613
vn -0.739316 0.258861 0.621613
vn -0.739316 0.258861 0.621613
vn -0.713563 0.232736 0.660805
vn -0.713563 0.232736 0.660805
vn -0.713563 0.232736 0.660805
vn 0.449944 0.449943 0.771429
vn 0.449944 0.449943 0.771429
vn 0.449944 0.449943 0.771429
vn 0.449943 0.449942 0.771429
vn 0.449943 0.449942 0.771429
vn 0.449943 0.449942 0.771429
vn 0.422979 -0.904789 0.049447
vn 0.422979 -0.904789 0.049447
vn 0.433762 -0.901028 -0.000419
vn 0.41109 -0.906183 0.099183
vn -0.707107 -0.707106 -0.001272
vn -0.707107 -0.707106 -0.001272
vn -0.707107 -0.707106 -0.001272
vn -0.707107 -0.707106 -0.001271
vn -0.907565 0.417127 0.048287
vn -0.907565 0.417127 0.048287
vn -0.89744 0.43036 0.096909
vn -0.915292 0.402792 -0.000462
vn 0.701228 0.701228 -0.128683
vn 0.701228 0.701228 -0.128683
vn 0.701227 0.701228 -0.128688
vn 0.701229 0.701227 -0.128678
vn -0.000003 -0.000003 1
vn -0.000003 -0.000003 1
vn -0.000003 -0.000003 1
vn -0.000003 -0.000003 1
vn -0.07391 -0.07391 -0.994522
vn -0.07391 -0.07391 -0.994522
vn -0.07391 -0.07391 -0.994522
vn -0.07391 -0.07391 -0.994522
vn 0.252225 -0.725907 -0.639876
vn 0.252225 -0.725907 -0.639876
vn 0.252225 -0.725907 -0.639876
vn 0.262287 -0.762743 -0.591124
vn 0.262287 -0.762743 -0.591124
vn 0.262287 -0.762743 -0.591124
vn -0.55352 -0.553519 -0.62228
vn -0.55352 -0.553519 -0.62228
vn -0.55352 -0.553519 -0.62228
vn -0.55352 -0.553519 -0.62228
vn -0.55352 -0.553519 -0.62228
vn -0.55352 -0.553519 -0.62228
vn -0.739316 0.258861 -0.621613
vn -0.739316 0.258861 -0.621613
vn -0.739316 0.258861 -0.621613
vn -0.713563 0.232737 -0.660803
vn -0.713563 0.232737 -0.660803
vn -0.713563 0.232737 -0.660803
vn 0.449944 0.449942 -0.771429
vn 0.449944 0.449942 -0.771429
vn 0.449944 0.449942 -0.771429
vn 0.449943 0.449942 -0.77143
vn 0.449943 0.449942 -0.77143
vn 0.449943 0.449942 -0.77143
usemtl datan_common__2_fe31b1e9
f 1/1/1 2/2/2 3/3/3
f 3/3/3 2/2/2 4/4/4
f 5/5/5 6/6/6 7/7/7
f 7/7/7 6/6/6 8/8/8
f 9/9/9 10/10/10 11/11/11
f 11/11/11 10/10/10 12/12/12
f 13/13/13 14/14/14 15/15/15
f 15/15/15 14/14/14 16/16/16
f 17/17/17 18/18/18 19/19/19
f 17/17/17 20/20/20 18/18/18
f 21/21/21 22/22/22 23/23/23
f 22/22/22 24/24/24 23/23/23
f 25/25/25 26/26/26 27/27/27
f 28/28/28 29/29/29 30/30/30
f 31/31/31 32/32/32 33/33/33
f 34/34/34 35/35/35 36/36/36
f 37/37/37 38/38/38 39/39/39
f 40/40/40 41/41/41 42/42/42
f 43/43/43 44/44/44 45/45/45
f 46/46/46 47/47/47 48/48/48
f 49/49/49 50/50/50 51/51/51
f 52/52/52 50/50/50 49/49/49
f 53/53/53 54/54/54 55/55/55
f 56/56/56 54/54/54 53/53/53
f 57/57/57 58/58/58 59/59/59
f 60/60/60 58/58/58 57/57/57
f 61/61/61 62/62/62 63/63/63
f 64/64/64 62/62/62 61/61/61
f 65/65/65 66/66/66 67/67/67
f 66/66/66 68/68/68 67/67/67
f 69/69/69 70/70/70 71/71/71
f 69/69/69 72/72/72 70/70/70
f 73/73/73 74/74/74 75/75/75
f 76/76/76 77/77/77 78/78/78
f 79/79/79 80/80/80 81/81/81
f 82/82/82 83/83/83 84/84/84
f 85/85/85 86/86/86 87/87/87
f 88/88/88 89/89/89 90/90/90
f 91/91/91 92/92/92 93/93/93
f 94/94/94 95/95/95 96/96/96
