# Generated from Nova1492 GX by tools/nova1492/GxObjConverter
mtllib datan_common_wool_END_6a876bf0.mtl
o datan_common_wool_END_6a876bf0
v 0 1.51009 0.138675
v 0.329297 1.51009 0.152542
v 0.329297 1.51009 -0.152542
v 0 1.51009 -0.138675
v 0.051588 0 0.128478
v 0.277709 0 0.141326
v 0.329297 1.51009 0.152542
v 0 1.51009 0.138675
v 0.277709 0 0.141326
v 0.277709 0 -0.141326
v 0.329297 1.51009 -0.152542
v 0.329297 1.51009 0.152542
v 0.277709 0 -0.141326
v 0.051588 0 -0.128478
v 0 1.51009 -0.138675
v 0.329297 1.51009 -0.152542
v 0.051588 0 -0.128478
v 0.051588 0 0.128478
v 0 1.51009 0.138675
v 0 1.51009 -0.138675
vt 0.077633 0.610612
vt 0.433488 0.610612
vt 0.433488 0.820757
vt 0.077634 0.820757
vt 0.27087 0.000499
vt 0.578415 0.000499
vt 0.578415 0.999501
vt 0.27087 0.999501
vt 0.607401 0.034316
vt 0.979382 0.034316
vt 0.979382 0.934283
vt 0.607401 0.934283
vt 0.578415 0.000499
vt 0.27087 0.000499
vt 0.27087 0.999501
vt 0.578415 0.999501
vt 0.38783 0.000499
vt 0.00517 0.000499
vt 0.00517 0.999501
vt 0.38783 0.999501
vn 0 1 -0
vn 0 1 0
vn 0 1 -0
vn -0 1 -0
vn -0.049401 -0.006831 0.998756
vn -0.056726 -0.005478 0.998375
vn -0.049401 -0.006831 0.998756
vn -0.042074 -0.008183 0.999081
vn 0.999417 -0.034142 -0
vn 0.999417 -0.034142 -0
vn 0.999417 -0.034142 -0
vn 0.999417 -0.034142 -0
vn -0.049401 -0.007332 -0.998752
vn -0.056724 -0.008679 -0.998352
vn -0.049401 -0.007332 -0.998752
vn -0.042074 -0.005984 -0.999097
vn -0.999417 -0.034142 -0
vn -0.999417 -0.034142 -0
vn -0.999417 -0.034142 -0
vn -0.999417 -0.034142 0
usemtl datan_common_wool_END_6a876bf0
f 1/1/1 2/2/2 3/3/3
f 3/3/3 4/4/4 1/1/1
f 5/5/5 6/6/6 7/7/7
f 7/7/7 8/8/8 5/5/5
f 9/9/9 10/10/10 11/11/11
f 11/11/11 12/12/12 9/9/9
f 13/13/13 14/14/14 15/15/15
f 15/15/15 16/16/16 13/13/13
f 17/17/17 18/18/18 19/19/19
f 19/19/19 20/20/20 17/17/17
