# Generated from Nova1492 GX by tools/nova1492/GxObjConverter
mtllib datan_common_sgr_fbf9222c.mtl
o datan_common_sgr_fbf9222c_mesh00
v -0.260873 -0.479539 0.402587
v 0.225932 -0.479539 0.402587
v 0.225932 0.007266 0.402587
v -0.260873 0.007266 0.402587
vt 0.748086 0.751914
vt 0.998086 0.751914
vt 0.998086 1.001914
vt 0.748086 1.001914
vn -0.017 -0.229783 0.973093
vn -0.017 -0.229783 0.973093
vn -0.017 -0.229783 0.973093
vn -0.017 -0.229783 0.973093
usemtl datan_common_sgr_fbf9222c
f 1/1/1 2/2/2 3/3/3
f 3/3/3 4/4/4 1/1/1
o datan_common_sgr_fbf9222c_mesh01
v 0.225932 -0.479539 -0.407198
v -0.260873 -0.479539 -0.407198
v -0.260873 0.007266 -0.407198
v 0.225932 0.007266 -0.407198
vt 0.748086 0.751914
vt 0.998086 0.751914
vt 0.998086 1.001914
vt 0.748086 1.001914
vn -0.017 -0.229783 -0.973093
vn -0.017 -0.229783 -0.973093
vn -0.017 -0.229783 -0.973093
vn -0.017 -0.229783 -0.973093
usemtl datan_common_sgr_fbf9222c
f 5/5/5 6/6/6 7/7/7
f 7/7/7 8/8/8 5/5/5
