# Generated from Nova1492 GX by tools/nova1492/GxObjConverter
mtllib datan_common_ext_fca9f215.mtl
o datan_common_ext_fca9f215
v 0.635284 0 1.638135
v 0.314821 0.561217 1.638135
v 0.115565 -0 -0.357571
v 0.054962 0.106133 -0.357571
v -0.326103 0.561217 1.638135
v -0.066244 0.106133 -0.357571
v -0.646566 -0 1.638135
v -0.126848 -0 -0.357571
v -0.326104 -0.561217 1.638135
v -0.066244 -0.106133 -0.357571
v 0.314821 -0.561217 1.638135
v 0.054962 -0.106133 -0.357571
v 0.314821 -0.561217 1.638135
v 0.054962 -0.106133 -0.357571
v 0.90775 0.062684 2.080322
v 0.47172 0.763294 2.080321
v -0.400341 0.763294 2.080321
v -0.836371 0.062684 2.080322
v -0.400341 -0.700924 2.080322
v 0.47172 -0.700924 2.080322
v 0.47172 -0.700924 2.080322
v 1.10515 0.060225 2.433163
v 0.56961 0.998103 2.433163
v -0.501473 0.998103 2.433163
v -1.037014 0.060225 2.433163
v -0.501473 -0.877654 2.433163
v 0.569609 -0.877654 2.433163
v 0.569609 -0.877654 2.433163
v 1.397346 0.06015 2.734637
v 0.715683 1.253929 2.734637
v -0.647644 1.253929 2.734637
v -1.329308 0.06015 2.734637
v -0.647645 -1.133629 2.734637
v 0.715682 -1.133628 2.734637
v 0.715682 -1.133628 2.734637
v 1.750095 0.060128 2.985388
v 0.89205 1.5628 2.985388
v -0.82404 1.5628 2.985388
v -1.682086 0.060128 2.985388
v -0.824042 -1.442544 2.985388
v 0.892049 -1.442543 2.985388
v 0.892049 -1.442543 2.985388
v 2.135645 0.060124 3.244438
v 1.084824 1.9004 3.244437
v -1.01682 1.9004 3.244437
v -2.067642 0.060124 3.244438
v -1.016821 -1.780152 3.244438
v 1.084823 -1.780152 3.244438
v 1.084823 -1.780152 3.244438
vt 0.37894 0.725336
vt 0.291928 0.725336
vt 0.420892 0.993934
vt 0.281573 0.993934
vt 0.199274 0.725336
vt 0.158745 0.993934
vt 0.118137 0.725336
vt 0.097018 0.993934
vt 0.046966 0.725336
vt 0.044495 0.993934
vt 0.00582 0.725336
vt 0.00582 0.993934
vt 0.460928 0.725336
vt 0.484355 0.993934
vt 0.370903 0.664975
vt 0.291702 0.664975
vt 0.204742 0.664975
vt 0.12527 0.664975
vt 0.046445 0.664975
vt 0.00582 0.664975
vt 0.453293 0.664975
vt 0.371125 0.61681
vt 0.288729 0.61681
vt 0.207452 0.61681
vt 0.125046 0.61681
vt 0.046462 0.61681
vt 0.00582 0.61681
vt 0.45353 0.61681
vt 0.371131 0.575657
vt 0.288728 0.575657
vt 0.207445 0.575657
vt 0.125041 0.575657
vt 0.046463 0.575657
vt 0.001992 0.575657
vt 0.453536 0.575657
vt 0.371133 0.541428
vt 0.288728 0.541428
vt 0.207444 0.541428
vt 0.125039 0.541428
vt 0.046463 0.541428
vt 0.001992 0.541428
vt 0.453537 0.541428
vt 0.371133 0.506066
vt 0.288728 0.506066
vt 0.207444 0.506066
vt 0.125039 0.506066
vt 0.046463 0.506066
vt 0.001992 0.506066
vt 0.453537 0.506066
vn -0.919042 0.008112 0.394077
vn -0.46868 -0.799983 0.374655
vn -0.951714 -0.181147 0.247844
vn -0.318273 -0.91445 0.249966
vn 0.462164 -0.814682 0.350282
vn 0.636545 -0.729832 0.249309
vn 0.949814 0.002327 0.312806
vn 0.951714 0.181147 0.247844
vn 0.481601 0.824653 0.296662
vn 0.318273 0.914451 0.249966
vn -0 0.968549 0.248824
vn -0 0.974973 0.222325
vn -0.811404 0.463323 0.356309
vn -0.847009 0.483654 0.220577
vn -0.859317 -0.002055 0.511439
vn -0.410496 -0.722877 0.555825
vn 0.429606 -0.753363 0.497879
vn 0.893888 -0.011416 0.448146
vn 0.461231 0.781646 0.419877
vn -0 0.936337 0.351102
vn -0.782554 0.446849 0.433516
vn -0.791448 0.150337 0.592461
vn -0.515255 -0.590083 0.621542
vn 0.256066 -0.723126 0.641498
vn 0.782159 -0.153424 0.603894
vn 0.526978 0.603614 0.598285
vn -0 0.83418 0.551493
vn -0.727629 0.415486 0.545828
vn -0.650518 -0.011672 0.759402
vn -0.315501 -0.565502 0.762015
vn 0.335942 -0.553574 0.762036
vn 0.650427 0.011633 0.75948
vn 0.31544 0.565378 0.762132
vn -0 0.676817 0.736151
vn -0.628641 0.358963 0.689896
vn -0.568572 -0.001871 0.822631
vn -0.282949 -0.489503 0.824819
vn 0.286217 -0.487598 0.82482
vn 0.568549 0.00186 0.822647
vn 0.282935 0.489472 0.824842
vn -0 0.615961 0.787777
vn -0.543879 0.310563 0.779581
vn -0.554586 -0.105559 0.825404
vn -0.185027 -0.529571 0.827841
vn 0.370049 -0.423262 0.82699
vn 0.554579 0.105556 0.825409
vn 0.185023 0.529562 0.827847
vn -0 0.608751 0.793361
vn -0.531404 0.303439 0.790908
usemtl datan_common_ext_fca9f215
f 1/1/1 2/2/2 3/3/3
f 4/4/4 3/3/3 2/2/2
f 2/2/2 5/5/5 4/4/4
f 6/6/6 4/4/4 5/5/5
f 5/5/5 7/7/7 6/6/6
f 8/8/8 6/6/6 7/7/7
f 7/7/7 9/9/9 8/8/8
f 10/10/10 8/8/8 9/9/9
f 9/9/9 11/11/11 10/10/10
f 12/12/12 10/10/10 11/11/11
f 13/13/13 1/1/1 14/14/14
f 3/3/3 14/14/14 1/1/1
f 15/15/15 16/16/16 1/1/1
f 2/2/2 1/1/1 16/16/16
f 16/16/16 17/17/17 2/2/2
f 5/5/5 2/2/2 17/17/17
f 17/17/17 18/18/18 5/5/5
f 7/7/7 5/5/5 18/18/18
f 18/18/18 19/19/19 7/7/7
f 9/9/9 7/7/7 19/19/19
f 19/19/19 20/20/20 9/9/9
f 11/11/11 9/9/9 20/20/20
f 21/21/21 15/15/15 13/13/13
f 1/1/1 13/13/13 15/15/15
f 22/22/22 23/23/23 15/15/15
f 16/16/16 15/15/15 23/23/23
f 23/23/23 24/24/24 16/16/16
f 17/17/17 16/16/16 24/24/24
f 24/24/24 25/25/25 17/17/17
f 18/18/18 17/17/17 25/25/25
f 25/25/25 26/26/26 18/18/18
f 19/19/19 18/18/18 26/26/26
f 26/26/26 27/27/27 19/19/19
f 20/20/20 19/19/19 27/27/27
f 28/28/28 22/22/22 21/21/21
f 15/15/15 21/21/21 22/22/22
f 29/29/29 30/30/30 23/23/23
f 23/23/23 22/22/22 29/29/29
f 30/30/30 31/31/31 24/24/24
f 24/24/24 23/23/23 30/30/30
f 31/31/31 32/32/32 25/25/25
f 25/25/25 24/24/24 31/31/31
f 32/32/32 33/33/33 26/26/26
f 26/26/26 25/25/25 32/32/32
f 33/33/33 34/34/34 27/27/27
f 27/27/27 26/26/26 33/33/33
f 35/35/35 29/29/29 22/22/22
f 22/22/22 28/28/28 35/35/35
f 36/36/36 37/37/37 30/30/30
f 30/30/30 29/29/29 36/36/36
f 37/37/37 38/38/38 31/31/31
f 31/31/31 30/30/30 37/37/37
f 38/38/38 39/39/39 32/32/32
f 32/32/32 31/31/31 38/38/38
f 39/39/39 40/40/40 33/33/33
f 33/33/33 32/32/32 39/39/39
f 40/40/40 41/41/41 34/34/34
f 34/34/34 33/33/33 40/40/40
f 42/42/42 36/36/36 29/29/29
f 29/29/29 35/35/35 42/42/42
f 43/43/43 44/44/44 37/37/37
f 37/37/37 36/36/36 43/43/43
f 44/44/44 45/45/45 38/38/38
f 38/38/38 37/37/37 44/44/44
f 45/45/45 46/46/46 39/39/39
f 39/39/39 38/38/38 45/45/45
f 46/46/46 47/47/47 40/40/40
f 40/40/40 39/39/39 46/46/46
f 47/47/47 48/48/48 41/41/41
f 41/41/41 40/40/40 47/47/47
f 49/49/49 43/43/43 36/36/36
