# Generated from Nova1492 GX by tools/nova1492/GxObjConverter
mtllib datan_common_pul00_a69568a6.mtl
o datan_common_pul00_a69568a6
v -0.317341 6.822778 -3.572197
v 0.452808 6.811958 -3.566402
v 0.06426 6.239035 -4.14057
v -0.163189 0 0.163189
v 0.163189 0 0.163189
v 0.174066 3.595312 -0.459986
v -0.152297 3.598011 -0.46081
v 0.163189 0 0.163189
v 0 0 -0.163189
v 0.01006 3.442046 -0.739551
v 0.174066 3.595312 -0.459986
v 0 0 -0.163189
v -0.163189 0 0.163189
v -0.152297 3.598011 -0.46081
v 0.01006 3.442046 -0.739551
v -0.152297 3.598011 -0.46081
v 0.174066 3.595312 -0.459986
v 0.194478 5.141387 -1.629354
v 0.194478 5.141387 -1.629354
v -0.131851 5.146076 -1.632138
v -0.152297 3.598011 -0.46081
v 0.174066 3.595312 -0.459986
v 0.01006 3.442046 -0.739551
v 0.02853 4.875125 -1.797655
v 0.02853 4.875125 -1.797655
v 0.194478 5.141387 -1.629354
v 0.174066 3.595312 -0.459986
v 0.01006 3.442046 -0.739551
v -0.152297 3.598011 -0.46081
v -0.131851 5.146076 -1.632138
v -0.131851 5.146076 -1.632138
v 0.02853 4.875125 -1.797655
v 0.01006 3.442046 -0.739551
v -0.131851 5.146076 -1.632138
v 0.194478 5.141387 -1.629354
v 0.422525 5.575486 -1.831476
v 0.422525 5.575486 -1.831476
v -0.347625 5.586305 -1.837271
v -0.131851 5.146076 -1.632138
v 0.194478 5.141387 -1.629354
v 0.02853 4.875125 -1.797655
v 0.03315 5.028283 -2.358268
v 0.03315 5.028283 -2.358268
v 0.422525 5.575486 -1.831476
v 0.194478 5.141387 -1.629354
v 0.02853 4.875125 -1.797655
v -0.131851 5.146076 -1.632138
v -0.347625 5.586305 -1.837271
v -0.347625 5.586305 -1.837271
v 0.03315 5.028283 -2.358268
v 0.02853 4.875125 -1.797655
v -0.347625 5.586305 -1.837271
v 0.422525 5.575486 -1.831476
v 0.452808 6.811958 -3.566402
v 0.452808 6.811958 -3.566402
v -0.317341 6.822778 -3.572197
v -0.347625 5.586305 -1.837271
v 0.422525 5.575486 -1.831476
v 0.03315 5.028283 -2.358268
v 0.06426 6.239035 -4.14057
v 0.06426 6.239035 -4.14057
v 0.452808 6.811958 -3.566402
v 0.422525 5.575486 -1.831476
v 0.03315 5.028283 -2.358268
v -0.347625 5.586305 -1.837271
v -0.317341 6.822778 -3.572197
v -0.317341 6.822778 -3.572197
v 0.06426 6.239035 -4.14057
v 0.03315 5.028283 -2.358268
vt 0.446652 0.865456
vt 0.462008 0.94153
vt 0.053061 0.920867
vt 0.273526 0.000499
vt 0.465362 0.000499
vt 0.465363 0.417612
vt 0.273526 0.417612
vt 0.465362 0.000499
vt 0.869444 0.000499
vt 0.869444 0.417612
vt 0.465363 0.417612
vt -0.130556 0.000499
vt 0.273526 0.000499
vt 0.273526 0.417612
vt -0.130556 0.417612
vt 0.273526 0.417612
vt 0.465363 0.417612
vt 0.465363 0.696503
vt 0.465363 0.696503
vt 0.273526 0.696503
vt 0.273526 0.417612
vt 0.465363 0.417612
vt 0.869444 0.417612
vt 0.869444 0.696503
vt 0.869444 0.696503
vt 0.465363 0.696503
vt 0.465363 0.417612
vt -0.130556 0.417612
vt 0.273526 0.417612
vt 0.273526 0.696503
vt 0.273526 0.696503
vt -0.130556 0.696503
vt -0.130556 0.417612
vt 0.273526 0.696503
vt 0.465363 0.696503
vt 0.494444 0.753684
vt 0.494444 0.753684
vt 0.244445 0.753684
vt 0.273526 0.696503
vt 0.465363 0.696503
vt 0.869444 0.696503
vt 0.869444 0.753684
vt 0.869444 0.753684
vt 0.494444 0.753684
vt 0.465363 0.696503
vt -0.130556 0.696503
vt 0.273526 0.696503
vt 0.244445 0.753684
vt 0.244445 0.753684
vt -0.130556 0.753684
vt -0.130556 0.696503
vt 0.244445 0.753684
vt 0.494444 0.753684
vt 0.494444 0.999501
vt 0.494444 0.999501
vt 0.244445 0.999501
vt 0.244445 0.753684
vt 0.494444 0.753684
vt 0.869444 0.753684
vt 0.869444 0.999501
vt 0.869444 0.999501
vt 0.494444 0.999501
vt 0.494444 0.753684
vt -0.130556 0.753684
vt 0.244445 0.753684
vt 0.244445 0.999501
vt 0.244445 0.999501
vt -0.130556 0.999501
vt -0.130556 0.753684
vn 0.015224 0.702622 -0.711401
vn 0.015224 0.702622 -0.711401
vn 0.015224 0.702622 -0.711401
vn -0.000538 0.170832 0.9853
vn 0 0.170783 0.985309
vn -0.000538 0.170832 0.9853
vn -0.001076 0.170881 0.985291
vn 0.885415 -0.080663 -0.457748
vn 0.891754 -0.077267 -0.445876
vn 0.885415 -0.080663 -0.457748
vn 0.878907 -0.084043 -0.469532
vn -0.88581 -0.07537 -0.457886
vn -0.891932 -0.074643 -0.445965
vn -0.88581 -0.07537 -0.457886
vn -0.879529 -0.076084 -0.469724
vn 0.002973 0.603207 0.797579
vn 0.002973 0.603207 0.797579
vn 0.002973 0.603207 0.797579
vn 0.001866 0.603367 0.797462
vn 0.001866 0.603367 0.797462
vn 0.001866 0.603367 0.797462
vn 0.886996 -0.281631 -0.365954
vn 0.886996 -0.281631 -0.365954
vn 0.886996 -0.281631 -0.365954
vn 0.872892 -0.301605 -0.383529
vn 0.872892 -0.301605 -0.383529
vn 0.872892 -0.301605 -0.383529
vn -0.890184 -0.267368 -0.3689
vn -0.890184 -0.267368 -0.3689
vn -0.890184 -0.267368 -0.3689
vn -0.876344 -0.278752 -0.392834
vn -0.876344 -0.278752 -0.392834
vn -0.876344 -0.278752 -0.392834
vn -0.001656 0.422816 0.906214
vn -0.001656 0.422816 0.906214
vn -0.001656 0.422816 0.906214
vn -0.000893 0.422006 0.906592
vn -0.000893 0.422006 0.906592
vn -0.000893 0.422006 0.906592
vn 0.874942 -0.468895 -0.12089
vn 0.874942 -0.468895 -0.12089
vn 0.874942 -0.468895 -0.12089
vn 0.85735 -0.502448 -0.11179
vn 0.85735 -0.502448 -0.11179
vn 0.85735 -0.502448 -0.11179
vn -0.878993 -0.469541 -0.08308
vn -0.878993 -0.469541 -0.08308
vn -0.878993 -0.469541 -0.08308
vn -0.872698 -0.469124 -0.135355
vn -0.872698 -0.469124 -0.135355
vn -0.872698 -0.469124 -0.135355
vn 0.007072 0.814267 0.580447
vn 0.007072 0.814267 0.580447
vn 0.007072 0.814267 0.580447
vn 0.007072 0.814267 0.580447
vn 0.007072 0.814267 0.580447
vn 0.007072 0.814267 0.580447
vn 0.88621 -0.390268 -0.249647
vn 0.88621 -0.390268 -0.249647
vn 0.88621 -0.390268 -0.249647
vn 0.898551 -0.364652 -0.244201
vn 0.898551 -0.364652 -0.244201
vn 0.898551 -0.364652 -0.244201
vn -0.893907 -0.357512 -0.2704
vn -0.893907 -0.357512 -0.2704
vn -0.893907 -0.357512 -0.2704
vn -0.903863 -0.346392 -0.251088
vn -0.903863 -0.346392 -0.251088
vn -0.903863 -0.346392 -0.251088
usemtl datan_common_pul00_a69568a6
f 1/1/1 2/2/2 3/3/3
f 4/4/4 5/5/5 6/6/6
f 6/6/6 7/7/7 4/4/4
f 8/8/8 9/9/9 10/10/10
f 10/10/10 11/11/11 8/8/8
f 12/12/12 13/13/13 14/14/14
f 14/14/14 15/15/15 12/12/12
f 16/16/16 17/17/17 18/18/18
f 19/19/19 20/20/20 21/21/21
f 22/22/22 23/23/23 24/24/24
f 25/25/25 26/26/26 27/27/27
f 28/28/28 29/29/29 30/30/30
f 31/31/31 32/32/32 33/33/33
f 34/34/34 35/35/35 36/36/36
f 37/37/37 38/38/38 39/39/39
f 40/40/40 41/41/41 42/42/42
f 43/43/43 44/44/44 45/45/45
f 46/46/46 47/47/47 48/48/48
f 49/49/49 50/50/50 51/51/51
f 52/52/52 53/53/53 54/54/54
f 55/55/55 56/56/56 57/57/57
f 58/58/58 59/59/59 60/60/60
f 61/61/61 62/62/62 63/63/63
f 64/64/64 65/65/65 66/66/66
f 67/67/67 68/68/68 69/69/69
