# Generated from Nova1492 GX by tools/nova1492/GxObjConverter
mtllib datan_common_nung04_89078c49.mtl
o datan_common_nung04_89078c49_mesh00
v 2.94223 1.368837 0
v 5.086174 0.467047 -0
v 4.014202 0.800815 -1.041969
v 1.870258 0.800815 -1.041969
v 0.798287 0.467047 0
v 1.870259 0.800815 1.041969
v 4.014203 0.800815 1.041969
v 4.413345 -0 -1.399718
v 5.88446 -0 -0
v 1.471115 -0 -1.399717
v 0 -0 0
v 1.471116 -0 1.399718
v 4.413346 -0 1.399717
vt 0.5 0.5
vt 0.151479 0.5
vt 0.32574 0.249166
vt 0.67426 0.249166
vt 0.84852 0.5
vt 0.67426 0.750834
vt 0.32574 0.750834
vt 0.256546 0.104011
vt 0.013092 0.5
vt 0.743454 0.104011
vt 0.986908 0.5
vt 0.743454 0.895989
vt 0.256546 0.895989
vn 0 1 -0
vn 0.504439 0.849116 -0.156663
vn 0.236718 0.715139 -0.657679
vn -0.320337 0.794681 -0.515623
vn -0.504439 0.849116 0.156663
vn -0.236718 0.715139 0.657679
vn 0.320337 0.794681 0.515623
vn 0.397858 0.619364 -0.676829
vn 0.568096 0.811106 0.139191
vn -0.201391 0.481449 -0.853023
vn -0.568096 0.811106 -0.139191
vn -0.397858 0.619364 0.676829
vn 0.201391 0.481449 0.853023
usemtl datan_common_nung04_89078c49
f 1/1/1 2/2/2 3/3/3
f 1/1/1 3/3/3 4/4/4
f 1/1/1 4/4/4 5/5/5
f 1/1/1 5/5/5 6/6/6
f 1/1/1 6/6/6 7/7/7
f 1/1/1 7/7/7 2/2/2
f 8/8/8 3/3/3 2/2/2
f 2/2/2 9/9/9 8/8/8
f 10/10/10 4/4/4 3/3/3
f 3/3/3 8/8/8 10/10/10
f 11/11/11 5/5/5 4/4/4
f 4/4/4 10/10/10 11/11/11
f 12/12/12 6/6/6 5/5/5
f 5/5/5 11/11/11 12/12/12
f 13/13/13 7/7/7 6/6/6
f 6/6/6 12/12/12 13/13/13
f 9/9/9 2/2/2 7/7/7
f 7/7/7 13/13/13 9/9/9
