# Generated from Nova1492 GX by tools/nova1492/GxObjConverter
mtllib datan_common_0c26b6d6.mtl
o datan_common_0c26b6d6
v 2.815974 -22.88934 0.000033
v 4.290085 -18.6784 0.000017
v 2.815974 -22.88805 1.014964
v 4.373057 -18.86497 1.437789
v -2.84749 -22.88934 0.000032
v 2.815974 -22.88934 0.000033
v -2.847491 -22.88805 1.014962
v 2.815974 -22.88805 1.014964
v -4.328772 -18.6784 0.000015
v -2.84749 -22.88934 0.000032
v -4.411546 -18.86497 1.437788
v -2.847491 -22.88805 1.014962
v 4.290085 -18.6784 0.000017
v -4.328772 -18.6784 0.000015
v 4.373057 -18.86497 1.437789
v -4.411546 -18.86497 1.437788
v -3.754022 -19.40937 1.886844
v -2.525079 -22.4489 1.56739
v 3.741027 -19.40938 1.886845
v 2.517561 -22.4489 1.567391
v 2.815974 -22.88805 1.014964
v 4.373057 -18.86497 1.437789
v 2.517561 -22.4489 1.567391
v 3.741027 -19.40938 1.886845
v 2.517561 -22.4489 1.567391
v 4.373057 -18.86497 1.437789
v -2.847491 -22.88805 1.014962
v 2.815974 -22.88805 1.014964
v -2.525079 -22.4489 1.56739
v 2.517561 -22.4489 1.567391
v -2.525079 -22.4489 1.56739
v 2.815974 -22.88805 1.014964
v -4.411546 -18.86497 1.437788
v -2.847491 -22.88805 1.014962
v -3.754022 -19.40937 1.886844
v -2.525079 -22.4489 1.56739
v -3.754022 -19.40937 1.886844
v -2.847491 -22.88805 1.014962
v 4.373057 -18.86497 1.437789
v -4.411546 -18.86497 1.437788
v 3.741027 -19.40938 1.886845
v -3.754022 -19.40937 1.886844
v 3.741027 -19.40938 1.886845
v -4.411546 -18.86497 1.437788
v 2.815975 -22.88805 -1.014938
v 4.290086 -18.6784 0.00001
v 2.815975 -22.88934 -0.000008
v 4.373059 -18.86497 -1.437762
v -2.847491 -22.88804 -1.014941
v 2.815975 -22.88934 -0.000008
v -2.847491 -22.88934 -0.00001
v 2.815975 -22.88805 -1.014938
v -4.411547 -18.86496 -1.437766
v -2.847491 -22.88934 -0.00001
v -4.328773 -18.6784 0.000007
v -2.847491 -22.88804 -1.014941
v 4.373059 -18.86497 -1.437762
v -4.328773 -18.6784 0.000007
v 4.290086 -18.6784 0.00001
v -4.411547 -18.86496 -1.437766
v 3.741028 -19.40938 -1.886819
v -2.525079 -22.44889 -1.567368
v -3.754022 -19.40937 -1.886822
v 2.517563 -22.4489 -1.567366
v 2.517563 -22.4489 -1.567366
v 4.373059 -18.86497 -1.437762
v 2.815975 -22.88805 -1.014938
v 4.373059 -18.86497 -1.437762
v 2.517563 -22.4489 -1.567366
v 3.741028 -19.40938 -1.886819
v -2.525079 -22.44889 -1.567368
v 2.815975 -22.88805 -1.014938
v -2.847491 -22.88804 -1.014941
v 2.815975 -22.88805 -1.014938
v -2.525079 -22.44889 -1.567368
v 2.517563 -22.4489 -1.567366
v -3.754022 -19.40937 -1.886822
v -2.847491 -22.88804 -1.014941
v -4.411547 -18.86496 -1.437766
v -2.847491 -22.88804 -1.014941
v -3.754022 -19.40937 -1.886822
v -2.525079 -22.44889 -1.567368
v 3.741028 -19.40938 -1.886819
v -4.411547 -18.86496 -1.437766
v 4.373059 -18.86497 -1.437762
v -4.411547 -18.86496 -1.437766
v 3.741028 -19.40938 -1.886819
v -3.754022 -19.40937 -1.886822
vt 0.253415 1.008627
vt 0.139759 0.661897
vt 0.253415 0.999737
vt 0.118163 0.664817
vt 0.745358 1.008626
vt 0.253415 1.008627
vt 0.745358 0.999737
vt 0.253415 0.999737
vt 0.859621 0.661897
vt 0.745358 1.008626
vt 0.881216 0.664816
vt 0.745358 0.999737
vt 0.139759 0.661897
vt 0.859621 0.661897
vt 0.118163 0.664817
vt 0.881216 0.664816
vt 0.831428 0.698165
vt 0.722626 0.966387
vt 0.167868 0.698166
vt 0.276185 0.966387
vt 0.253415 0.999737
vt 0.118163 0.664817
vt 0.276185 0.966387
vt 0.167868 0.698166
vt 0.276185 0.966387
vt 0.118163 0.664817
vt 0.745358 0.999737
vt 0.253415 0.999737
vt 0.722626 0.966387
vt 0.276185 0.966387
vt 0.722626 0.966387
vt 0.253415 0.999737
vt 0.881216 0.664816
vt 0.745358 0.999737
vt 0.831428 0.698165
vt 0.722626 0.966387
vt 0.831428 0.698165
vt 0.745358 0.999737
vt 0.118163 0.664817
vt 0.881216 0.664816
vt 0.167868 0.698166
vt 0.831428 0.698165
vt 0.167868 0.698166
vt 0.881216 0.664816
vt 0.746585 0.999394
vt 0.860241 0.650861
vt 0.746585 0.9995
vt 0.881838 0.666308
vt 0.254642 0.999393
vt 0.746585 0.9995
vt 0.254642 0.9995
vt 0.746585 0.999394
vt 0.118784 0.666307
vt 0.254642 0.9995
vt 0.140379 0.650861
vt 0.254642 0.999393
vt 0.881838 0.666308
vt 0.140379 0.650861
vt 0.860241 0.650861
vt 0.118784 0.666307
vt 0.832132 0.703832
vt 0.277374 0.970584
vt 0.168572 0.703831
vt 0.723815 0.970584
vt 0.723815 0.970584
vt 0.881838 0.666308
vt 0.746585 0.999394
vt 0.881838 0.666308
vt 0.723815 0.970584
vt 0.832132 0.703832
vt 0.277374 0.970584
vt 0.746585 0.999394
vt 0.254642 0.999393
vt 0.746585 0.999394
vt 0.277374 0.970584
vt 0.723815 0.970584
vt 0.168572 0.703831
vt 0.254642 0.999393
vt 0.118784 0.666307
vt 0.254642 0.999393
vt 0.168572 0.703831
vt 0.277374 0.970584
vt 0.832132 0.703832
vt 0.118784 0.666307
vt 0.881838 0.666308
vt 0.118784 0.666307
vt 0.832132 0.703832
vt 0.168572 0.703831
vn 0.943839 -0.330407 0.000421
vn 0.938874 -0.340691 -0.049445
vn 0.938874 -0.340691 -0.049445
vn 0.931453 -0.350084 -0.099182
vn -0 -0.999999 0.001272
vn -0 -0.999999 0.001272
vn -0 -0.999999 0.001272
vn -0 -0.999999 0.001272
vn -0.938896 -0.330276 -0.09691
vn -0.936698 -0.346792 -0.048288
vn -0.936698 -0.346792 -0.048288
vn -0.932026 -0.362393 0.000461
vn -0 0.991685 0.128688
vn 0 0.991686 0.128684
vn 0 0.991686 0.128684
vn 0.000001 0.991686 0.12868
vn -0 -0.104524 0.994522
vn -0 -0.104524 0.994522
vn -0 -0.104524 0.994522
vn -0 -0.104524 0.994522
vn 0.691644 -0.334943 0.639877
vn 0.691644 -0.334943 0.639877
vn 0.691644 -0.334943 0.639877
vn 0.724807 -0.353876 0.591123
vn 0.724807 -0.353876 0.591123
vn 0.724807 -0.353876 0.591123
vn -0 -0.782795 0.622279
vn -0 -0.782795 0.622279
vn -0 -0.782795 0.622279
vn -0 -0.782795 0.622279
vn -0 -0.782795 0.622279
vn -0 -0.782795 0.622279
vn -0.705818 -0.339733 0.621613
vn -0.705818 -0.339733 0.621613
vn -0.705818 -0.339733 0.621613
vn -0.669135 -0.339996 0.660803
vn -0.669135 -0.339996 0.660803
vn -0.669135 -0.339996 0.660803
vn 0 0.636315 0.771429
vn 0 0.636315 0.771429
vn 0 0.636315 0.771429
vn 0.000001 0.636316 0.771429
vn 0.000001 0.636316 0.771429
vn 0.000001 0.636316 0.771429
vn 0.938874 -0.340691 0.049446
vn 0.938874 -0.340691 0.049446
vn 0.943839 -0.330407 -0.000419
vn 0.931453 -0.350084 0.099183
vn -0 -0.999999 -0.001272
vn -0 -0.999999 -0.001272
vn 0 -0.999999 -0.001274
vn -0.000001 -0.999999 -0.00127
vn -0.936698 -0.346793 0.048287
vn -0.936698 -0.346793 0.048287
vn -0.938896 -0.330276 0.096909
vn -0.932025 -0.362393 -0.000462
vn 0 0.991686 -0.128683
vn 0 0.991686 -0.128683
vn -0 0.991685 -0.128688
vn 0.000001 0.991686 -0.128679
vn 0 -0.104524 -0.994522
vn 0 -0.104524 -0.994522
vn 0 -0.104524 -0.994522
vn 0 -0.104524 -0.994522
vn 0.691643 -0.334943 -0.639877
vn 0.691643 -0.334943 -0.639877
vn 0.691643 -0.334943 -0.639877
vn 0.724807 -0.353876 -0.591123
vn 0.724807 -0.353876 -0.591123
vn 0.724807 -0.353876 -0.591123
vn -0 -0.782795 -0.62228
vn -0 -0.782795 -0.62228
vn -0 -0.782795 -0.62228
vn -0 -0.782794 -0.622281
vn -0 -0.782794 -0.622281
vn -0 -0.782794 -0.622281
vn -0.705818 -0.339733 -0.621613
vn -0.705818 -0.339733 -0.621613
vn -0.705818 -0.339733 -0.621613
vn -0.669134 -0.339996 -0.660804
vn -0.669134 -0.339996 -0.660804
vn -0.669134 -0.339996 -0.660804
vn 0.000001 0.636316 -0.771429
vn 0.000001 0.636316 -0.771429
vn 0.000001 0.636316 -0.771429
vn 0.000001 0.636315 -0.771429
vn 0.000001 0.636315 -0.771429
vn 0.000001 0.636315 -0.771429
usemtl datan_common_0c26b6d6
f 1/1/1 2/2/2 3/3/3
f 3/3/3 2/2/2 4/4/4
f 5/5/5 6/6/6 7/7/7
f 7/7/7 6/6/6 8/8/8
f 9/9/9 10/10/10 11/11/11
f 11/11/11 10/10/10 12/12/12
f 13/13/13 14/14/14 15/15/15
f 15/15/15 14/14/14 16/16/16
f 17/17/17 18/18/18 19/19/19
f 18/18/18 20/20/20 19/19/19
f 21/21/21 22/22/22 23/23/23
f 24/24/24 25/25/25 26/26/26
f 27/27/27 28/28/28 29/29/29
f 30/30/30 31/31/31 32/32/32
f 33/33/33 34/34/34 35/35/35
f 36/36/36 37/37/37 38/38/38
f 39/39/39 40/40/40 41/41/41
f 42/42/42 43/43/43 44/44/44
f 45/45/45 46/46/46 47/47/47
f 48/48/48 46/46/46 45/45/45
f 49/49/49 50/50/50 51/51/51
f 52/52/52 50/50/50 49/49/49
f 53/53/53 54/54/54 55/55/55
f 56/56/56 54/54/54 53/53/53
f 57/57/57 58/58/58 59/59/59
f 60/60/60 58/58/58 57/57/57
f 61/61/61 62/62/62 63/63/63
f 61/61/61 64/64/64 62/62/62
f 65/65/65 66/66/66 67/67/67
f 68/68/68 69/69/69 70/70/70
f 71/71/71 72/72/72 73/73/73
f 74/74/74 75/75/75 76/76/76
f 77/77/77 78/78/78 79/79/79
f 80/80/80 81/81/81 82/82/82
f 83/83/83 84/84/84 85/85/85
f 86/86/86 87/87/87 88/88/88
