# Generated from Nova1492 GX by tools/nova1492/GxObjConverter
mtllib datan_common_5ae79b8b.mtl
o datan_common_5ae79b8b
v 1.674186 4.061882 -3.241813
v -0.000001 -0.000001 -3.844491
v -1.688356 4.056011 -3.241812
v -4.061882 1.674184 -3.241812
v -4.056013 -1.688357 -3.241812
v -1.674186 -4.061882 -3.241812
v 1.688356 -4.056012 -3.241813
v 4.061882 -1.674185 -3.241813
v 4.056011 1.688357 -3.241813
v 4.336034 10.51241 0
v 3.893633 9.443427 -1.148492
v -4.37273 10.51241 0.000001
v -3.925518 9.433674 -1.151245
v -10.52001 4.336033 0.000001
v -9.445598 3.893192 -1.149633
v -10.50481 -4.372732 0
v -9.431952 -3.926145 -1.149633
v -4.336033 -10.52001 -0
v -3.893193 -9.445599 -1.149633
v 4.372731 -10.50481 -0.000001
v 3.926144 -9.431951 -1.149634
v 10.52001 -4.336032 -0.000001
v 9.445598 -3.893191 -1.149635
v 10.50481 4.372733 -0
v 9.431951 3.926146 -1.149635
v 0 0 0
v 3.118181 7.564023 -2.230891
v -3.143983 7.554174 -2.232168
v -7.564679 3.117932 -2.231421
v -7.55375 -3.144331 -2.23142
v -3.11793 -7.56469 -2.231421
v 3.144334 -7.553758 -2.231421
v 7.564692 -3.117939 -2.231421
v 7.553762 3.144326 -2.231422
v -1.688355 4.056011 3.241813
v -0 -0.000001 3.844491
v 1.674186 4.061881 3.241813
v -4.061881 1.674185 3.241813
v -4.056013 -1.688357 3.241812
v -1.674186 -4.061882 3.241812
v 1.688356 -4.056012 3.241812
v 4.061882 -1.674186 3.241812
v 4.056012 1.688356 3.241813
v -4.37273 10.51241 0.000001
v 3.893634 9.443427 1.148492
v 4.336034 10.51241 0
v -3.925517 9.433674 1.151246
v -10.52001 4.336033 0.000001
v -9.445598 3.893193 1.149634
v -10.50481 -4.372732 0
v -9.431952 -3.926145 1.149633
v -4.336033 -10.52001 -0
v -3.893193 -9.445599 1.149633
v 4.372731 -10.50481 -0.000001
v 3.926143 -9.431951 1.149633
v 10.52001 -4.336032 -0.000001
v 9.445598 -3.893192 1.149633
v 10.50481 4.372733 -0
v 9.431951 3.926145 1.149634
v -0 0 -0
v -3.143982 7.554174 2.232169
v 3.118182 7.564023 2.230891
v -7.564679 3.117933 2.231422
v -7.55375 -3.144331 2.231421
v -3.117931 -7.56469 2.23142
v 3.144333 -7.553758 2.23142
v 7.564692 -3.117939 2.231421
v 7.553762 3.144325 2.231421
vt 0.420508 0.693112
vt 0.5 0.500181
vt 0.580165 0.692834
vt 0.692862 0.579701
vt 0.692583 0.419987
vt 0.579492 0.307249
vt 0.419835 0.307528
vt 0.307138 0.42066
vt 0.307417 0.580374
vt 0.294121 0.999501
vt 0.315127 0.948726
vt 0.707622 0.9995
vt 0.686388 0.948263
vt 0.999501 0.706134
vt 0.948486 0.6851
vt 0.998779 0.292484
vt 0.947838 0.313696
vt 0.705879 0.000499
vt 0.684853 0.051532
vt 0.292378 0.001222
vt 0.313583 0.05218
vt 0.0005 0.294227
vt 0.051514 0.315261
vt 0.001221 0.707877
vt 0.052162 0.686665
vt 0.5 0.500181
vt 0.351946 0.859458
vt 0.64928 0.85899
vt 0.859179 0.648276
vt 0.858659 0.350831
vt 0.648042 0.140872
vt 0.350704 0.141391
vt 0.140821 0.352084
vt 0.14134 0.64953
vt 0.419835 0.692834
vt 0.5 0.50018
vt 0.579492 0.693112
vt 0.307138 0.579701
vt 0.307416 0.419987
vt 0.420508 0.307249
vt 0.580165 0.307527
vt 0.692862 0.42066
vt 0.692584 0.580374
vt 0.292379 0.999501
vt 0.684874 0.948726
vt 0.705879 0.999501
vt 0.313613 0.948263
vt 0.0005 0.706134
vt 0.051514 0.6851
vt 0.001221 0.292484
vt 0.052161 0.313696
vt 0.294121 0.000499
vt 0.315147 0.051532
vt 0.707622 0.001221
vt 0.686417 0.05218
vt 0.999501 0.294227
vt 0.948486 0.315261
vt 0.998779 0.707877
vt 0.947838 0.686665
vt 0.5 0.500181
vt 0.350721 0.85899
vt 0.648055 0.859458
vt 0.140822 0.648277
vt 0.14134 0.350831
vt 0.351957 0.140872
vt 0.649296 0.141391
vt 0.859179 0.352084
vt 0.85866 0.64953
vn 0.099457 0.185341 -0.977628
vn -0 -0 -1
vn -0.060607 0.201316 -0.97765
vn -0.185255 0.099402 -0.97765
vn -0.201332 -0.060684 -0.977642
vn -0.099453 -0.185273 -0.977642
vn 0.060684 -0.201332 -0.977642
vn 0.185273 -0.099453 -0.977642
vn 0.201332 0.060684 -0.977642
vn 0.503879 0.863491 -0.022111
vn 0.149926 0.5761 -0.803512
vn -0.253466 0.967051 -0.023824
vn -0.301372 0.512268 -0.804212
vn -0.863709 0.50343 -0.023772
vn -0.575957 0.149291 -0.803732
vn -0.966834 -0.254344 -0.023277
vn -0.51286 -0.30163 -0.803737
vn -0.503806 -0.863503 -0.023277
vn -0.149362 -0.575932 -0.803737
vn 0.254344 -0.966834 -0.023277
vn 0.301631 -0.512861 -0.803737
vn 0.863503 -0.503806 -0.023277
vn 0.575933 -0.149362 -0.803737
vn 0.966781 0.25455 -0.023233
vn 0.512947 0.30194 -0.803565
vn 0 -0 1
vn 0.152584 0.332387 -0.930719
vn -0.126846 0.342612 -0.930874
vn -0.33218 0.152366 -0.930828
vn -0.342724 -0.127074 -0.930802
vn -0.152487 -0.332197 -0.930802
vn 0.127074 -0.342724 -0.930802
vn 0.332198 -0.152488 -0.930802
vn 0.342721 0.127116 -0.930798
vn -0.060607 0.201316 0.97765
vn -0 -0 1
vn 0.099457 0.185341 0.977628
vn -0.185255 0.099402 0.97765
vn -0.201332 -0.060684 0.977642
vn -0.099453 -0.185273 0.977642
vn 0.060684 -0.201332 0.977642
vn 0.185273 -0.099453 0.977642
vn 0.201332 0.060684 0.977642
vn -0.253465 0.967051 0.023825
vn 0.149926 0.5761 0.803512
vn 0.503879 0.863491 0.022111
vn -0.301372 0.512268 0.804212
vn -0.863709 0.50343 0.023772
vn -0.575957 0.149291 0.803732
vn -0.966834 -0.254344 0.023277
vn -0.51286 -0.30163 0.803737
vn -0.503806 -0.863503 0.023277
vn -0.149362 -0.575932 0.803737
vn 0.254344 -0.966834 0.023277
vn 0.301631 -0.512861 0.803737
vn 0.863503 -0.503806 0.023277
vn 0.575933 -0.149363 0.803737
vn 0.966781 0.25455 0.023233
vn 0.512947 0.30194 0.803565
vn -0 0 -1
vn -0.126846 0.342612 0.930874
vn 0.152584 0.332387 0.930719
vn -0.33218 0.152366 0.930828
vn -0.342723 -0.127074 0.930802
vn -0.152487 -0.332198 0.930802
vn 0.127074 -0.342724 0.930802
vn 0.332198 -0.152488 0.930802
vn 0.342721 0.127116 0.930798
usemtl datan_common_5ae79b8b
f 1/1/1 2/2/2 3/3/3
f 3/3/3 2/2/2 4/4/4
f 4/4/4 2/2/2 5/5/5
f 5/5/5 2/2/2 6/6/6
f 6/6/6 2/2/2 7/7/7
f 7/7/7 2/2/2 8/8/8
f 8/8/8 2/2/2 9/9/9
f 9/9/9 2/2/2 1/1/1
f 10/10/10 11/11/11 12/12/12
f 12/12/12 11/11/11 13/13/13
f 12/12/12 13/13/13 14/14/14
f 14/14/14 13/13/13 15/15/15
f 14/14/14 15/15/15 16/16/16
f 16/16/16 15/15/15 17/17/17
f 16/16/16 17/17/17 18/18/18
f 18/18/18 17/17/17 19/19/19
f 18/18/18 19/19/19 20/20/20
f 20/20/20 19/19/19 21/21/21
f 20/20/20 21/21/21 22/22/22
f 22/22/22 21/21/21 23/23/23
f 22/22/22 23/23/23 24/24/24
f 24/24/24 23/23/23 25/25/25
f 24/24/24 25/25/25 10/10/10
f 10/10/10 25/25/25 11/11/11
f 12/12/12 26/26/26 10/10/10
f 14/14/14 26/26/26 12/12/12
f 16/16/16 26/26/26 14/14/14
f 18/18/18 26/26/26 16/16/16
f 20/20/20 26/26/26 18/18/18
f 22/22/22 26/26/26 20/20/20
f 24/24/24 26/26/26 22/22/22
f 10/10/10 26/26/26 24/24/24
f 11/11/11 27/27/27 28/28/28
f 28/28/28 13/13/13 11/11/11
f 13/13/13 28/28/28 29/29/29
f 29/29/29 15/15/15 13/13/13
f 15/15/15 29/29/29 30/30/30
f 30/30/30 17/17/17 15/15/15
f 17/17/17 30/30/30 31/31/31
f 31/31/31 19/19/19 17/17/17
f 19/19/19 31/31/31 32/32/32
f 32/32/32 21/21/21 19/19/19
f 21/21/21 32/32/32 33/33/33
f 33/33/33 23/23/23 21/21/21
f 23/23/23 33/33/33 34/34/34
f 34/34/34 25/25/25 23/23/23
f 27/27/27 11/11/11 25/25/25
f 25/25/25 34/34/34 27/27/27
f 27/27/27 1/1/1 3/3/3
f 3/3/3 28/28/28 27/27/27
f 28/28/28 3/3/3 4/4/4
f 4/4/4 29/29/29 28/28/28
f 29/29/29 4/4/4 5/5/5
f 5/5/5 30/30/30 29/29/29
f 30/30/30 5/5/5 6/6/6
f 6/6/6 31/31/31 30/30/30
f 31/31/31 6/6/6 7/7/7
f 7/7/7 32/32/32 31/31/31
f 32/32/32 7/7/7 8/8/8
f 8/8/8 33/33/33 32/32/32
f 33/33/33 8/8/8 9/9/9
f 9/9/9 34/34/34 33/33/33
f 1/1/1 27/27/27 34/34/34
f 34/34/34 9/9/9 1/1/1
f 35/35/35 36/36/36 37/37/37
f 38/38/38 36/36/36 35/35/35
f 39/39/39 36/36/36 38/38/38
f 40/40/40 36/36/36 39/39/39
f 41/41/41 36/36/36 40/40/40
f 42/42/42 36/36/36 41/41/41
f 43/43/43 36/36/36 42/42/42
f 37/37/37 36/36/36 43/43/43
f 44/44/44 45/45/45 46/46/46
f 47/47/47 45/45/45 44/44/44
f 48/48/48 47/47/47 44/44/44
f 49/49/49 47/47/47 48/48/48
f 50/50/50 49/49/49 48/48/48
f 51/51/51 49/49/49 50/50/50
f 52/52/52 51/51/51 50/50/50
f 53/53/53 51/51/51 52/52/52
f 54/54/54 53/53/53 52/52/52
f 55/55/55 53/53/53 54/54/54
f 56/56/56 55/55/55 54/54/54
f 57/57/57 55/55/55 56/56/56
f 58/58/58 57/57/57 56/56/56
f 59/59/59 57/57/57 58/58/58
f 46/46/46 59/59/59 58/58/58
f 45/45/45 59/59/59 46/46/46
f 46/46/46 60/60/60 44/44/44
f 44/44/44 60/60/60 48/48/48
f 48/48/48 60/60/60 50/50/50
f 50/50/50 60/60/60 52/52/52
f 52/52/52 60/60/60 54/54/54
f 54/54/54 60/60/60 56/56/56
f 56/56/56 60/60/60 58/58/58
f 58/58/58 60/60/60 46/46/46
f 61/61/61 62/62/62 45/45/45
f 45/45/45 47/47/47 61/61/61
f 63/63/63 61/61/61 47/47/47
f 47/47/47 49/49/49 63/63/63
f 64/64/64 63/63/63 49/49/49
f 49/49/49 51/51/51 64/64/64
f 65/65/65 64/64/64 51/51/51
f 51/51/51 53/53/53 65/65/65
f 66/66/66 65/65/65 53/53/53
f 53/53/53 55/55/55 66/66/66
f 67/67/67 66/66/66 55/55/55
f 55/55/55 57/57/57 67/67/67
f 68/68/68 67/67/67 57/57/57
