# Generated from Nova1492 GX by tools/nova1492/GxObjConverter
mtllib datan_common__2_44c623c6.mtl
o datan_common__2_44c623c6_mesh00
v -0 0.739098 -0
v -0.081974 1.726157 -1.22535
v -1.075551 1.781128 -0.400282
v -1.059847 1.922734 0.461598
v -0.4277 2.077048 0.908495
v 0.46014 1.475566 0.799482
v 0.944059 1.186888 -0.007653
v 0.720984 1.020297 -0.733198
vt 0.417005 0.484442
vt 0.999501 0.484442
vt 0.718667 0.897541
vt 0.333787 0.999501
vt 0.0005 0.636647
vt 0.0005 0.299071
vt 0.364326 0.0005
vt 0.749206 0.054247
vn 0.258091 0.946126 -0.195536
vn 0.392677 0.728866 0.560856
vn 0.636779 0.740201 0.215906
vn 0.571941 0.686956 -0.448303
vn 0.337678 0.600255 -0.72503
vn -0.030996 0.743971 -0.667492
vn -0.411238 0.861929 -0.296584
vn -0.07243 0.952975 0.294265
usemtl datan_common__2_44c623c6
f 1/1/1 2/2/2 3/3/3
f 1/1/1 3/3/3 4/4/4
f 1/1/1 4/4/4 5/5/5
f 1/1/1 5/5/5 6/6/6
f 1/1/1 6/6/6 7/7/7
f 1/1/1 7/7/7 8/8/8
f 1/1/1 8/8/8 2/2/2
o datan_common__2_44c623c6_mesh01
v -0.231336 0.054317 -1.84197
v -1.075551 1.781128 -0.400282
v -0.081974 1.726157 -1.22535
v -1.486413 0.054317 -0.746312
v -1.059847 1.922734 0.461598
v -1.561805 0.054317 0.543483
v -0.4277 2.077048 0.908495
v -0.394247 0.054317 1.645469
v 0.46014 1.475566 0.799482
v 0.964455 0.054317 1.23517
v 0.944059 1.186888 -0.007653
v 1.413554 0.054317 0.260782
v 0.720984 1.020297 -0.733198
v 1.391981 0.054317 -1.541374
v -0 0.739098 -0
vt 0.999501 0.494249
vt 0.614001 0.812094
vt 0.816563 0.471326
vt 0.72823 0.926746
vt 0.36513 0.840143
vt 0.359295 0.999501
vt 0.214012 0.660474
vt 0.0005 0.678226
vt 0.214012 0.379979
vt 0.070646 0.239668
vt 0.429436 0.198521
vt 0.335489 0.062655
vt 0.66878 0.210321
vt 0.85547 0.000499
vt 0.460628 0.49264
vn -0.63478 0.309223 -0.708121
vn -0.789328 0.307223 -0.531577
vn -0.299022 0.585067 -0.753845
vn -0.916493 0.280826 -0.284917
vn -0.932553 0.252732 0.25782
vn -0.814331 0.254857 0.521452
vn -0.350635 0.289054 0.890788
vn -0.024785 0.354971 0.934549
vn 0.514156 0.394248 0.761716
vn 0.689897 0.431171 0.581493
vn 0.905903 0.399721 0.139868
vn 0.890208 0.455456 0.009416
vn 0.829618 0.524771 -0.190655
vn 0.658932 0.60799 -0.442897
vn -0.993099 0.04951 0.106319
usemtl datan_common__2_44c623c6
f 9/9/9 10/10/10 11/11/11
f 9/9/9 12/12/12 10/10/10
f 12/12/12 13/13/13 10/10/10
f 12/12/12 14/14/14 13/13/13
f 14/14/14 15/15/15 13/13/13
f 14/14/14 16/16/16 15/15/15
f 16/16/16 17/17/17 15/15/15
f 16/16/16 18/18/18 17/17/17
f 18/18/18 19/19/19 17/17/17
f 18/18/18 20/20/20 19/19/19
f 20/20/20 21/21/21 19/19/19
f 20/20/20 22/22/22 21/21/21
f 22/22/22 11/11/11 21/21/21
f 22/22/22 9/9/9 11/11/11
f 9/9/9 23/23/23 11/11/11
o datan_common__2_44c623c6_mesh02
v -0.461119 0 -2.108369
v -1.486413 0.054317 -0.746312
v -0.231336 0.054317 -1.84197
v -1.757659 0 -0.97068
v -1.561805 0.054317 0.543483
v -1.853857 0 0.510817
v -0.394247 0.054317 1.645469
v -0.5198 0 1.998269
v 0.964455 0.054317 1.23517
v 1.200848 0 1.495773
v 1.413554 0.054317 0.260782
v 2.342517 0 0.286614
v 1.391981 0.054317 -1.541374
v 1.809886 0 -1.884981
vt 0.936321 0.582146
vt 0.67318 0.828519
vt 0.873607 0.541432
vt 0.72803 0.878866
vt 0.400593 0.876813
vt 0.41518 0.936321
vt 0.135498 0.663554
vt 0.063679 0.698442
vt 0.187325 0.372443
vt 0.125672 0.330216
vt 0.383004 0.254944
vt 0.353225 0.063679
vt 0.767191 0.213686
vt 0.829412 0.118632
vn -0.06044 0.986852 -0.149902
vn -0.130201 0.988188 -0.080826
vn -0.018476 0.987921 -0.153852
vn -0.157317 0.986459 -0.046365
vn -0.191384 0.979426 0.064008
vn -0.168997 0.980108 0.104058
vn -0.091157 0.982046 0.165154
vn -0.007548 0.989033 0.147505
vn 0.083165 0.987472 0.134099
vn 0.08502 0.99181 0.09531
vn 0.088609 0.995231 0.040787
vn 0.074291 0.997197 0.008862
vn 0.063325 0.996649 -0.051772
vn 0.051056 0.99092 -0.124385
usemtl datan_common__2_44c623c6
f 24/24/24 25/25/25 26/26/26
f 24/24/24 27/27/27 25/25/25
f 27/27/27 28/28/28 25/25/25
f 27/27/27 29/29/29 28/28/28
f 29/29/29 30/30/30 28/28/28
f 29/29/29 31/31/31 30/30/30
f 31/31/31 32/32/32 30/30/30
f 31/31/31 33/33/33 32/32/32
f 33/33/33 34/34/34 32/32/32
f 33/33/33 35/35/35 34/34/34
f 35/35/35 36/36/36 34/34/34
f 35/35/35 37/37/37 36/36/36
f 37/37/37 26/26/26 36/36/36
f 37/37/37 24/24/24 26/26/26
