# Generated from Nova1492 GX by tools/nova1492/GxObjConverter
mtllib datan_common_061aac59.mtl
o datan_common_061aac59
v -22.88278 -2.818259 0.000031
v -18.67184 -4.292373 0.000014
v -22.88148 -2.818259 1.014961
v -18.85841 -4.375345 1.437786
v -22.88277 2.845208 0.00003
v -22.88278 -2.818259 0.000031
v -22.88148 2.845208 1.014961
v -22.88148 -2.818259 1.014961
v -18.67183 4.326488 0.000013
v -22.88277 2.845208 0.00003
v -18.8584 4.409262 1.437786
v -22.88148 2.845208 1.014961
v -18.67184 -4.292373 0.000014
v -18.67183 4.326488 0.000013
v -18.85841 -4.375345 1.437786
v -18.8584 4.409262 1.437786
v -19.40281 3.751738 1.886842
v -22.44233 2.522796 1.567389
v -19.40282 -3.743314 1.886842
v -22.44234 -2.519847 1.567389
v -22.88148 -2.818259 1.014961
v -18.85841 -4.375345 1.437786
v -22.44234 -2.519847 1.567389
v -19.40282 -3.743314 1.886842
v -22.44234 -2.519847 1.567389
v -18.85841 -4.375345 1.437786
v -22.88148 2.845208 1.014961
v -22.88148 -2.818259 1.014961
v -22.44233 2.522796 1.567389
v -22.44234 -2.519847 1.567389
v -22.44233 2.522796 1.567389
v -22.88148 -2.818259 1.014961
v -18.8584 4.409262 1.437786
v -22.88148 2.845208 1.014961
v -19.40281 3.751738 1.886842
v -22.44233 2.522796 1.567389
v -19.40281 3.751738 1.886842
v -22.88148 2.845208 1.014961
v -18.85841 -4.375345 1.437786
v -18.8584 4.409262 1.437786
v -19.40282 -3.743314 1.886842
v -19.40281 3.751738 1.886842
v -19.40282 -3.743314 1.886842
v -18.8584 4.409262 1.437786
v -22.88148 -2.818259 -1.014942
v -18.67184 -4.292373 0.000006
v -22.88278 -2.818258 -0.000011
v -18.85841 -4.375345 -1.437766
v -18.8584 4.409263 -1.437769
v -22.88277 2.845209 -0.000012
v -18.67183 4.326488 0.000005
v -22.88148 2.845209 -1.014943
v -18.85841 -4.375345 -1.437766
v -18.67183 4.326488 0.000005
v -18.67184 -4.292373 0.000006
v -18.8584 4.409263 -1.437769
v -19.40282 -3.743314 -1.886822
v -22.44233 2.522796 -1.56737
v -19.40281 3.751739 -1.886825
v -22.44234 -2.519846 -1.567369
v -22.44234 -2.519846 -1.567369
v -18.85841 -4.375345 -1.437766
v -22.88148 -2.818259 -1.014942
v -18.85841 -4.375345 -1.437766
v -22.44234 -2.519846 -1.567369
v -19.40282 -3.743314 -1.886822
v -22.44233 2.522796 -1.56737
v -22.88148 -2.818259 -1.014942
v -22.88148 2.845209 -1.014943
v -22.88148 -2.818259 -1.014942
v -22.44233 2.522796 -1.56737
v -22.44234 -2.519846 -1.567369
v -19.40281 3.751739 -1.886825
v -22.88148 2.845209 -1.014943
v -18.8584 4.409263 -1.437769
v -22.88148 2.845209 -1.014943
v -19.40281 3.751739 -1.886825
v -22.44233 2.522796 -1.56737
v -19.40282 -3.743314 -1.886822
v -18.8584 4.409263 -1.437769
v -18.85841 -4.375345 -1.437766
v -18.8584 4.409263 -1.437769
v -19.40282 -3.743314 -1.886822
v -19.40281 3.751739 -1.886825
vt 0.253415 1.008627
vt 0.139759 0.661897
vt 0.253415 0.999737
vt 0.118163 0.664817
vt 0.745358 1.008626
vt 0.253415 1.008627
vt 0.745358 0.999737
vt 0.253415 0.999737
vt 0.859621 0.661897
vt 0.745358 1.008626
vt 0.881216 0.664816
vt 0.745358 0.999737
vt 0.139759 0.661897
vt 0.859621 0.661897
vt 0.118163 0.664817
vt 0.881216 0.664816
vt 0.831428 0.698165
vt 0.722626 0.966387
vt 0.167868 0.698166
vt 0.276185 0.966387
vt 0.253415 0.999737
vt 0.118163 0.664817
vt 0.276185 0.966387
vt 0.167868 0.698166
vt 0.276185 0.966387
vt 0.118163 0.664817
vt 0.745358 0.999737
vt 0.253415 0.999737
vt 0.722626 0.966387
vt 0.276185 0.966387
vt 0.722626 0.966387
vt 0.253415 0.999737
vt 0.881216 0.664816
vt 0.745358 0.999737
vt 0.831428 0.698165
vt 0.722626 0.966387
vt 0.831428 0.698165
vt 0.745358 0.999737
vt 0.118163 0.664817
vt 0.881216 0.664816
vt 0.167868 0.698166
vt 0.831428 0.698165
vt 0.167868 0.698166
vt 0.881216 0.664816
vt 0.746585 0.999394
vt 0.860241 0.650861
vt 0.746585 0.9995
vt 0.881838 0.666308
vt 0.118784 0.666307
vt 0.254642 0.9995
vt 0.140379 0.650861
vt 0.254642 0.999393
vt 0.881838 0.666308
vt 0.140379 0.650861
vt 0.860241 0.650861
vt 0.118784 0.666307
vt 0.832132 0.703832
vt 0.277374 0.970584
vt 0.168572 0.703831
vt 0.723815 0.970584
vt 0.723815 0.970584
vt 0.881838 0.666308
vt 0.746585 0.999394
vt 0.881838 0.666308
vt 0.723815 0.970584
vt 0.832132 0.703832
vt 0.277374 0.970584
vt 0.746585 0.999394
vt 0.254642 0.999393
vt 0.746585 0.999394
vt 0.277374 0.970584
vt 0.723815 0.970584
vt 0.168572 0.703831
vt 0.254642 0.999393
vt 0.118784 0.666307
vt 0.254642 0.999393
vt 0.168572 0.703831
vt 0.277374 0.970584
vt 0.832132 0.703832
vt 0.118784 0.666307
vt 0.881838 0.666308
vt 0.118784 0.666307
vt 0.832132 0.703832
vt 0.168572 0.703831
vn -0.330407 -0.943838 0.00042
vn -0.340692 -0.938874 -0.049445
vn -0.340692 -0.938874 -0.049445
vn -0.350084 -0.931453 -0.099182
vn -0.999999 0.000001 0.001272
vn -0.999999 0.000001 0.001272
vn -0.999999 0.000001 0.001272
vn -0.999999 0.000001 0.001272
vn -0.330276 0.938897 -0.096909
vn -0.346792 0.936698 -0.048288
vn -0.346792 0.936698 -0.048288
vn -0.362392 0.932026 0.000461
vn 0.991685 -0 0.128688
vn 0.991686 -0.000001 0.128683
vn 0.991686 -0.000001 0.128683
vn 0.991686 -0.000002 0.128679
vn -0.104524 0 0.994522
vn -0.104524 0 0.994522
vn -0.104524 0 0.994522
vn -0.104524 0 0.994522
vn -0.334944 -0.691643 0.639877
vn -0.334944 -0.691643 0.639877
vn -0.334944 -0.691643 0.639877
vn -0.353876 -0.724806 0.591124
vn -0.353876 -0.724806 0.591124
vn -0.353876 -0.724806 0.591124
vn -0.782794 0.000001 0.622281
vn -0.782794 0.000001 0.622281
vn -0.782794 0.000001 0.622281
vn -0.782796 0.000001 0.622279
vn -0.782796 0.000001 0.622279
vn -0.782796 0.000001 0.622279
vn -0.339732 0.705818 0.621613
vn -0.339732 0.705818 0.621613
vn -0.339732 0.705818 0.621613
vn -0.339995 0.669134 0.660805
vn -0.339995 0.669134 0.660805
vn -0.339995 0.669134 0.660805
vn 0.636316 -0.000001 0.771428
vn 0.636316 -0.000001 0.771428
vn 0.636316 -0.000001 0.771428
vn 0.636315 -0.000001 0.771429
vn 0.636315 -0.000001 0.771429
vn 0.636315 -0.000001 0.771429
vn -0.340692 -0.938874 0.049446
vn -0.340692 -0.938874 0.049446
vn -0.330407 -0.943838 -0.00042
vn -0.350084 -0.931453 0.099182
vn -0.346792 0.936698 0.048288
vn -0.346792 0.936698 0.048288
vn -0.330276 0.938897 0.096909
vn -0.362392 0.932026 -0.000461
vn 0.991686 -0.000001 -0.128683
vn 0.991686 -0.000001 -0.128683
vn 0.991685 -0 -0.128688
vn 0.991686 -0.000002 -0.128679
vn -0.104524 -0 -0.994522
vn -0.104524 -0 -0.994522
vn -0.104524 -0 -0.994522
vn -0.104524 -0 -0.994522
vn -0.334944 -0.691643 -0.639877
vn -0.334944 -0.691643 -0.639877
vn -0.334944 -0.691643 -0.639877
vn -0.353876 -0.724806 -0.591124
vn -0.353876 -0.724806 -0.591124
vn -0.353876 -0.724806 -0.591124
vn -0.782795 0.000001 -0.62228
vn -0.782795 0.000001 -0.62228
vn -0.782795 0.000001 -0.62228
vn -0.782795 0.000001 -0.622279
vn -0.782795 0.000001 -0.622279
vn -0.782795 0.000001 -0.622279
vn -0.339732 0.705818 -0.621613
vn -0.339732 0.705818 -0.621613
vn -0.339732 0.705818 -0.621613
vn -0.339996 0.669135 -0.660804
vn -0.339996 0.669135 -0.660804
vn -0.339996 0.669135 -0.660804
vn 0.636316 -0.000001 -0.771428
vn 0.636316 -0.000001 -0.771428
vn 0.636316 -0.000001 -0.771428
vn 0.636315 -0.000001 -0.771429
vn 0.636315 -0.000001 -0.771429
vn 0.636315 -0.000001 -0.771429
usemtl datan_common_061aac59
f 1/1/1 2/2/2 3/3/3
f 3/3/3 2/2/2 4/4/4
f 5/5/5 6/6/6 7/7/7
f 7/7/7 6/6/6 8/8/8
f 9/9/9 10/10/10 11/11/11
f 11/11/11 10/10/10 12/12/12
f 13/13/13 14/14/14 15/15/15
f 15/15/15 14/14/14 16/16/16
f 17/17/17 18/18/18 19/19/19
f 18/18/18 20/20/20 19/19/19
f 21/21/21 22/22/22 23/23/23
f 24/24/24 25/25/25 26/26/26
f 27/27/27 28/28/28 29/29/29
f 30/30/30 31/31/31 32/32/32
f 33/33/33 34/34/34 35/35/35
f 36/36/36 37/37/37 38/38/38
f 39/39/39 40/40/40 41/41/41
f 42/42/42 43/43/43 44/44/44
f 45/45/45 46/46/46 47/47/47
f 48/48/48 46/46/46 45/45/45
f 49/49/49 50/50/50 51/51/51
f 52/52/52 50/50/50 49/49/49
f 53/53/53 54/54/54 55/55/55
f 56/56/56 54/54/54 53/53/53
f 57/57/57 58/58/58 59/59/59
f 57/57/57 60/60/60 58/58/58
f 61/61/61 62/62/62 63/63/63
f 64/64/64 65/65/65 66/66/66
f 67/67/67 68/68/68 69/69/69
f 70/70/70 71/71/71 72/72/72
f 73/73/73 74/74/74 75/75/75
f 76/76/76 77/77/77 78/78/78
f 79/79/79 80/80/80 81/81/81
f 82/82/82 83/83/83 84/84/84
