# Generated from Nova1492 GX by tools/nova1492/GxObjConverter
mtllib datan_common_0d5f8d6b.mtl
o datan_common_0d5f8d6b_mesh00
v -0.212567 0.256227 0.123328
v 0.213089 0.256227 0.122425
v -0.000522 0.256227 -0.245753
vt 0.124949 0.488359
vt 0.006525 0.013906
vt 0.243374 0.013907
vn 0 1 0
vn 0 1 0
vn 0 1 0
usemtl datan_common_0d5f8d6b
f 1/1/1 2/2/2 3/3/3
o datan_common_0d5f8d6b_mesh01
v -0.000522 -0.099132 -0.245753
v -0.212567 -0.099132 0.123328
v -0.212567 0.256227 0.123328
v -0.000522 0.256227 -0.245753
v -0.212567 -0.099132 0.123328
v 0.213089 -0.099132 0.122425
v 0.213089 0.256227 0.122425
v -0.212567 0.256227 0.123328
v 0.213089 -0.099132 0.122425
v -0.000522 -0.099132 -0.245753
v -0.000522 0.256227 -0.245753
v 0.213089 0.256227 0.122425
vt 0.25582 0.013533
vt 0.49418 0.013533
vt 0.49418 0.486467
vt 0.25582 0.486467
vt 0.25582 0.013866
vt 0.49418 0.013866
vt 0.49418 0.486134
vt 0.25582 0.486134
vt 0.49418 0.011641
vt 0.25582 0.011641
vt 0.25582 0.488359
vt 0.49418 0.488359
vn -0.867085 -0 -0.49816
vn -0.867085 0 -0.49816
vn -0.867085 -0 -0.49816
vn -0.867085 -0 -0.49816
vn 0.002123 0 0.999998
vn 0.002123 -0 0.999998
vn 0.002123 0 0.999998
vn 0.002123 0 0.999998
vn 0.864962 0 -0.501838
vn 0.864962 0 -0.501838
vn 0.864962 0 -0.501838
vn 0.864962 0 -0.501838
usemtl datan_common_0d5f8d6b
f 4/4/4 5/5/5 6/6/6
f 6/6/6 7/7/7 4/4/4
f 8/8/8 9/9/9 10/10/10
f 10/10/10 11/11/11 8/8/8
f 12/12/12 13/13/13 14/14/14
f 14/14/14 15/15/15 12/12/12
o datan_common_0d5f8d6b_mesh02
v 0.063213 -0.51633 0.036297
v -0.061859 -0.51633 0.036563
v 0.000447 -0.51633 -0.071885
v -0.150548 -0.094977 0.088019
v 0.15212 -0.094977 0.087376
v 0.000229 -0.094977 -0.17442
vt 0.160723 0.525755
vt 0.25 0.70431
vt 0.339278 0.525756
vt 0.248086 0.74418
vt 0.130821 0.50582
vt 0.36918 0.505821
vn 0.858629 -0.120783 -0.498165
vn -0.860738 -0.120783 -0.494512
vn -0.860738 -0.120783 -0.494512
vn -0.860738 -0.120783 -0.494512
vn 0.858629 -0.120783 -0.498165
vn -0.860738 -0.120783 -0.494512
usemtl datan_common_0d5f8d6b
f 16/16/16 17/17/17 18/18/18
f 19/19/19 17/17/17 16/16/16
f 16/16/16 20/20/20 19/19/19
f 20/20/20 16/16/16 18/18/18
f 18/18/18 21/21/21 20/20/20
f 21/21/21 18/18/18 17/17/17
f 17/17/17 19/19/19 21/21/21
o datan_common_0d5f8d6b_mesh03
v -0.113224 0.305837 0.066364
v 0.114704 0.305837 0.06588
v 0.000321 0.305837 -0.131269
v -0.150548 0.261575 0.088019
v 0.15212 0.261575 0.087376
v 0.000229 0.261575 -0.17442
vt 0.25 0.70431
vt 0.160723 0.525755
vt 0.339278 0.525756
vt 0.248086 0.74418
vt 0.130821 0.50582
vt 0.36918 0.505821
vn -0.779418 0.438165 -0.447792
vn 0.777509 0.438166 -0.4511
vn -0.779418 0.438166 -0.447792
vn -0.779418 0.438165 -0.447792
vn 0.777509 0.438166 -0.4511
vn -0.779418 0.438165 -0.447792
usemtl datan_common_0d5f8d6b
f 22/22/22 23/23/23 24/24/24
f 23/23/23 22/22/22 25/25/25
f 25/25/25 26/26/26 23/23/23
f 24/24/24 23/23/23 26/26/26
f 26/26/26 27/27/27 24/24/24
f 22/22/22 24/24/24 27/27/27
f 27/27/27 25/25/25 22/22/22
o datan_common_0d5f8d6b_mesh04
v -0.212567 0.257898 0.123328
v 0.213089 0.257898 0.122425
v -0.000522 0.257898 -0.245753
vt 0.374949 0.988359
vt 0.256525 0.513906
vt 0.493374 0.513907
vn 0 1 0
vn 0 1 0
vn 0 1 0
usemtl datan_common_0d5f8d6b
f 28/28/28 29/29/29 30/30/30
o datan_common_0d5f8d6b_mesh05
v -0.428555 0.169947 -0.134128
v -0.477614 -0 -0.049155
v -0.050827 -0 0.088035
v -0.025413 0.088035 0.044017
v -0.428555 -0.169947 -0.134128
v -0.025413 -0.088035 0.044017
v -0.658278 0.098041 -0.314695
v -0.68658 -0 -0.265674
v -0.658278 -0.098041 -0.314695
v -0.330436 0.169947 -0.304075
v 0.025413 0.088035 -0.044017
v 0.050827 -0 -0.088035
v -0.281377 -0 -0.389048
v 0.025413 -0.088035 -0.044017
v -0.330436 -0.169947 -0.304075
v -0.601674 0.098041 -0.412736
v -0.573372 -0 -0.461757
v -0.601674 -0.098041 -0.412736
vt 0.102381 0.983905
vt 0.10349 0.753849
vt 0.243198 0.753851
vt 0.242623 0.87699
vt 0.102382 0.516136
vt 0.242624 0.630712
vt 0.00582 0.883326
vt 0.00646 0.753847
vt 0.00582 0.616713
vt 0.102381 0.983905
vt 0.242623 0.869333
vt 0.243198 0.753851
vt 0.099662 0.753849
vt 0.242624 0.630712
vt 0.098553 0.516136
vt 0.00582 0.890982
vt 0.00646 0.753847
vt 0.00582 0.616713
vn -0.629164 0.485229 0.607212
vn -0.629163 -0.485229 0.607212
vn -0.266512 -0.491487 0.829103
vn -0.266512 0.491487 0.829103
vn -0.629163 -0.485229 0.607212
vn -0.266512 -0.491487 0.829103
vn -0.629164 0.485229 0.607212
vn -0.629163 -0.485229 0.607212
vn -0.629164 -0.485229 0.607212
vn 0.211276 0.48523 -0.848478
vn 0.584767 0.491487 -0.645359
vn 0.584767 -0.491487 -0.645359
vn 0.211276 -0.48523 -0.848478
vn 0.584767 -0.491487 -0.645359
vn 0.211276 -0.48523 -0.848478
vn 0.211276 0.485229 -0.848478
vn 0.211276 -0.48523 -0.848478
vn 0.211276 -0.48523 -0.848478
usemtl datan_common_0d5f8d6b
f 31/31/31 32/32/32 33/33/33
f 33/33/33 34/34/34 31/31/31
f 32/32/32 35/35/35 36/36/36
f 36/36/36 33/33/33 32/32/32
f 37/37/37 38/38/38 32/32/32
f 32/32/32 31/31/31 37/37/37
f 38/38/38 39/39/39 35/35/35
f 35/35/35 32/32/32 38/38/38
f 40/40/40 41/41/41 42/42/42
f 42/42/42 43/43/43 40/40/40
f 43/43/43 42/42/42 44/44/44
f 44/44/44 45/45/45 43/43/43
f 46/46/46 40/40/40 43/43/43
f 43/43/43 47/47/47 46/46/46
f 47/47/47 43/43/43 45/45/45
f 45/45/45 48/48/48 47/47/47
o datan_common_0d5f8d6b_mesh06
v -0.330436 0.169947 -0.304075
v -0.428555 0.169947 -0.134128
v -0.025413 0.088035 0.044017
v 0.025413 0.088035 -0.044017
v -0.601674 0.098041 -0.412736
v -0.658278 0.098041 -0.314695
v -0.330436 -0.169947 -0.304075
v 0.025413 -0.088035 -0.044017
v -0.025413 -0.088035 0.044017
v -0.428555 -0.169947 -0.134128
v -0.601674 -0.098041 -0.412736
v -0.658278 -0.098041 -0.314695
vt 0.703028 0.98432
vt 0.703027 0.514072
vt 0.994179 0.629232
vt 0.99418 0.876793
vt 0.505821 0.883225
vt 0.50582 0.615182
vt 0.703028 0.98432
vt 0.99418 0.869137
vt 0.994179 0.629232
vt 0.703027 0.514072
vt 0.505821 0.883225
vt 0.50582 0.615182
vn -0.208944 0.970459 -0.120634
vn -0.208944 0.970459 -0.120634
vn 0.159127 0.982974 0.091872
vn 0.159127 0.982974 0.091872
vn -0.208944 0.970459 -0.120634
vn -0.208943 0.970459 -0.120634
vn -0.208943 -0.970459 -0.120633
vn 0.159127 -0.982974 0.091872
vn 0.159127 -0.982974 0.091872
vn -0.208943 -0.970459 -0.120633
vn -0.208943 -0.970459 -0.120633
vn -0.208943 -0.970459 -0.120633
usemtl datan_common_0d5f8d6b
f 49/49/49 50/50/50 51/51/51
f 51/51/51 52/52/52 49/49/49
f 53/53/53 54/54/54 50/50/50
f 50/50/50 49/49/49 53/53/53
f 55/55/55 56/56/56 57/57/57
f 57/57/57 58/58/58 55/55/55
f 59/59/59 55/55/55 58/58/58
f 58/58/58 60/60/60 59/59/59
o datan_common_0d5f8d6b_mesh07
v -0.563682 -0 -0.392093
v -0.578112 -0.04999 -0.367099
v -0.606974 -0.04999 -0.317109
v -0.621404 -0 -0.292114
v -0.606974 0.049989 -0.317109
v -0.578112 0.049989 -0.367099
v -0.68658 -0 -0.265674
v -0.658278 0.098041 -0.314695
v -0.601674 0.098041 -0.412736
v -0.573372 -0 -0.461757
v -0.601674 -0.098041 -0.412736
v -0.658278 -0.098041 -0.314695
vt 0.580775 0.253984
vt 0.603845 0.169362
vt 0.646156 0.169362
vt 0.669225 0.253984
vt 0.649984 0.346263
vt 0.603845 0.346263
vt 0.74418 0.253984
vt 0.683633 0.496172
vt 0.566367 0.496172
vt 0.50582 0.253984
vt 0.566367 0.019453
vt 0.683633 0.019453
vn -0.933451 0.334382 0.12984
vn -0.643865 0.668768 -0.371735
vn -0.354282 0.334385 -0.87331
vn -0.354279 0.334385 -0.873312
vn -0.643865 -0.66877 -0.371733
vn -0.93345 -0.334384 0.129841
vn -0.354279 0.334385 -0.873312
vn -0.643865 -0.668768 -0.371735
vn -0.93345 -0.334384 0.12984
vn -0.93345 0.334385 0.129842
vn -0.643864 0.668769 -0.371735
vn -0.354279 0.334385 -0.873312
usemtl datan_common_0d5f8d6b
f 61/61/61 62/62/62 63/63/63
f 63/63/63 64/64/64 65/65/65
f 61/61/61 63/63/63 65/65/65
f 61/61/61 65/65/65 66/66/66
f 65/65/65 64/64/64 67/67/67
f 67/67/67 68/68/68 65/65/65
f 66/66/66 65/65/65 68/68/68
f 68/68/68 69/69/69 66/66/66
f 61/61/61 66/66/66 69/69/69
f 69/69/69 70/70/70 61/61/61
f 62/62/62 61/61/61 70/70/70
f 70/70/70 71/71/71 62/62/62
f 63/63/63 62/62/62 71/71/71
f 71/71/71 72/72/72 63/63/63
f 64/64/64 63/63/63 72/72/72
f 72/72/72 67/67/67 64/64/64
o datan_common_0d5f8d6b_mesh08
v -0.564318 -0 -0.39246
v -0.578749 -0.04999 -0.367465
v -0.60761 -0.04999 -0.317476
v -0.622041 -0 -0.292481
v -0.60761 0.049989 -0.317476
v -0.578749 0.049989 -0.367465
v -0.687216 -0 -0.266041
v -0.658914 0.098041 -0.315061
v -0.602311 0.098041 -0.413103
v -0.574009 -0 -0.462123
v -0.602311 -0.098041 -0.413103
v -0.658914 -0.098041 -0.315061
vt 0.830775 0.246172
vt 0.853845 0.16155
vt 0.896156 0.16155
vt 0.923053 0.246172
vt 0.899984 0.33845
vt 0.853845 0.33845
vt 0.99418 0.246172
vt 0.937461 0.488359
vt 0.816367 0.488359
vt 0.75582 0.246172
vt 0.816367 0.011641
vt 0.937461 0.011641
vn -0.93345 0.334384 0.129842
vn -0.643867 0.668768 -0.371734
vn -0.354284 0.334386 -0.87331
vn -0.35428 0.334385 -0.873312
vn -0.643865 -0.66877 -0.371732
vn -0.93345 -0.334384 0.129841
vn -0.35428 0.334385 -0.873312
vn -0.643866 -0.668768 -0.371735
vn -0.93345 -0.334384 0.129842
vn -0.93345 0.334384 0.129842
vn -0.643865 0.668769 -0.371734
vn -0.35428 0.334385 -0.873312
usemtl datan_common_0d5f8d6b
f 73/73/73 74/74/74 75/75/75
f 75/75/75 76/76/76 77/77/77
f 73/73/73 75/75/75 77/77/77
f 73/73/73 77/77/77 78/78/78
f 77/77/77 76/76/76 79/79/79
f 79/79/79 80/80/80 77/77/77
f 78/78/78 77/77/77 80/80/80
f 80/80/80 81/81/81 78/78/78
f 73/73/73 78/78/78 81/81/81
f 81/81/81 82/82/82 73/73/73
f 74/74/74 73/73/73 82/82/82
f 82/82/82 83/83/83 74/74/74
f 75/75/75 74/74/74 83/83/83
f 83/83/83 84/84/84 75/75/75
f 76/76/76 75/75/75 84/84/84
f 84/84/84 79/79/79 76/76/76
o datan_common_0d5f8d6b_mesh09
v 0.330436 0.169947 -0.304075
v 0.281377 -0 -0.389049
v -0.050827 -0 -0.088035
v -0.025413 0.088035 -0.044017
v 0.330436 -0.169947 -0.304075
v -0.025413 -0.088035 -0.044017
v 0.601673 0.098041 -0.412737
v 0.573371 -0 -0.461758
v 0.601673 -0.098041 -0.412737
v 0.428555 0.169947 -0.134129
v 0.025413 0.088035 0.044017
v 0.050827 -0 0.088035
v 0.477614 -0 -0.049155
v 0.025413 -0.088035 0.044017
v 0.428555 -0.169947 -0.134128
v 0.658277 0.098041 -0.314696
v 0.686579 -0 -0.265675
v 0.658277 -0.098041 -0.314696
vt 0.102381 0.983905
vt 0.10349 0.753849
vt 0.243198 0.753851
vt 0.242623 0.87699
vt 0.102382 0.516136
vt 0.242624 0.630712
vt 0.00582 0.883326
vt 0.00646 0.753847
vt 0.00582 0.616713
vt 0.102381 0.983905
vt 0.242623 0.869333
vt 0.243198 0.753851
vt 0.099662 0.753849
vt 0.242624 0.630712
vt 0.098553 0.516136
vt 0.00582 0.890982
vt 0.00646 0.753847
vt 0.00582 0.616713
vn -0.211278 0.485229 -0.848478
vn -0.211278 -0.485229 -0.848478
vn -0.584767 -0.491487 -0.645359
vn -0.584767 0.491487 -0.645359
vn -0.211278 -0.485229 -0.848478
vn -0.584767 -0.491487 -0.645359
vn -0.211278 0.485229 -0.848478
vn -0.211278 -0.485229 -0.848478
vn -0.211278 -0.48523 -0.848478
vn 0.629164 0.48523 0.607211
vn 0.266513 0.491487 0.829103
vn 0.266513 -0.491487 0.829103
vn 0.629164 -0.485229 0.607211
vn 0.266513 -0.491487 0.829103
vn 0.629164 -0.485229 0.607211
vn 0.629164 0.485229 0.607211
vn 0.629164 -0.485229 0.607211
vn 0.629164 -0.485229 0.607211
usemtl datan_common_0d5f8d6b
f 85/85/85 86/86/86 87/87/87
f 87/87/87 88/88/88 85/85/85
f 86/86/86 89/89/89 90/90/90
f 90/90/90 87/87/87 86/86/86
f 91/91/91 92/92/92 86/86/86
f 86/86/86 85/85/85 91/91/91
f 92/92/92 93/93/93 89/89/89
f 89/89/89 86/86/86 92/92/92
f 94/94/94 95/95/95 96/96/96
f 96/96/96 97/97/97 94/94/94
f 97/97/97 96/96/96 98/98/98
f 98/98/98 99/99/99 97/97/97
f 100/100/100 94/94/94 97/97/97
f 97/97/97 101/101/101 100/100/100
f 101/101/101 97/97/97 99/99/99
f 99/99/99 102/102/102 101/101/101
o datan_common_0d5f8d6b_mesh10
v 0.428555 0.169947 -0.134129
v 0.330436 0.169947 -0.304075
v -0.025413 0.088035 -0.044017
v 0.025413 0.088035 0.044017
v 0.658277 0.098041 -0.314696
v 0.601673 0.098041 -0.412737
v 0.428555 -0.169947 -0.134128
v 0.025413 -0.088035 0.044017
v -0.025413 -0.088035 -0.044017
v 0.330436 -0.169947 -0.304075
v 0.658277 -0.098041 -0.314696
v 0.601673 -0.098041 -0.412737
vt 0.703028 0.98432
vt 0.703027 0.514072
vt 0.994179 0.629232
vt 0.99418 0.876793
vt 0.505821 0.883225
vt 0.50582 0.615182
vt 0.703028 0.98432
vt 0.99418 0.869137
vt 0.994179 0.629232
vt 0.703027 0.514072
vt 0.505821 0.883225
vt 0.50582 0.615182
vn 0.208943 0.970459 -0.120634
vn 0.208943 0.970459 -0.120634
vn -0.159127 0.982974 0.091872
vn -0.159127 0.982974 0.091872
vn 0.208943 0.970459 -0.120634
vn 0.208943 0.970459 -0.120634
vn 0.208943 -0.970459 -0.120633
vn -0.159127 -0.982974 0.091872
vn -0.159127 -0.982974 0.091872
vn 0.208943 -0.970459 -0.120634
vn 0.208943 -0.970459 -0.120634
vn 0.208943 -0.970459 -0.120634
usemtl datan_common_0d5f8d6b
f 103/103/103 104/104/104 105/105/105
f 105/105/105 106/106/106 103/103/103
f 107/107/107 108/108/108 104/104/104
f 104/104/104 103/103/103 107/107/107
f 109/109/109 110/110/110 111/111/111
f 111/111/111 112/112/112 109/109/109
f 113/113/113 109/109/109 112/112/112
f 112/112/112 114/114/114 113/113/113
o datan_common_0d5f8d6b_mesh11
v 0.621404 -0 -0.292115
v 0.606973 -0.049989 -0.31711
v 0.578112 -0.049989 -0.367099
v 0.563681 -0 -0.392094
v 0.578112 0.049989 -0.367099
v 0.606973 0.049989 -0.31711
v 0.573371 -0 -0.461758
v 0.601673 0.098041 -0.412737
v 0.658277 0.098041 -0.314696
v 0.686579 -0 -0.265675
v 0.658277 -0.098041 -0.314696
v 0.601673 -0.098041 -0.412737
vt 0.580775 0.253984
vt 0.603845 0.169362
vt 0.646156 0.169362
vt 0.669225 0.253984
vt 0.649984 0.346263
vt 0.603845 0.346263
vt 0.74418 0.253984
vt 0.683633 0.496172
vt 0.566367 0.496172
vt 0.50582 0.253984
vt 0.566367 0.019453
vt 0.683633 0.019453
vn 0.35428 0.334384 -0.873312
vn 0.643865 0.668768 -0.371736
vn 0.93345 0.334384 0.129842
vn 0.93345 0.334384 0.129839
vn 0.643865 -0.668768 -0.371736
vn 0.354279 -0.334384 -0.873312
vn 0.93345 0.334384 0.129839
vn 0.643865 -0.668768 -0.371736
vn 0.35428 -0.334384 -0.873312
vn 0.35428 0.334384 -0.873312
vn 0.643865 0.668768 -0.371736
vn 0.93345 0.334384 0.129839
usemtl datan_common_0d5f8d6b
f 115/115/115 116/116/116 117/117/117
f 117/117/117 118/118/118 119/119/119
f 115/115/115 117/117/117 119/119/119
f 115/115/115 119/119/119 120/120/120
f 119/119/119 118/118/118 121/121/121
f 121/121/121 122/122/122 119/119/119
f 120/120/120 119/119/119 122/122/122
f 122/122/122 123/123/123 120/120/120
f 115/115/115 120/120/120 123/123/123
f 123/123/123 124/124/124 115/115/115
f 116/116/116 115/115/115 124/124/124
f 124/124/124 125/125/125 116/116/116
f 117/117/117 116/116/116 125/125/125
f 125/125/125 126/126/126 117/117/117
f 118/118/118 117/117/117 126/126/126
f 126/126/126 121/121/121 118/118/118
o datan_common_0d5f8d6b_mesh12
v 0.62204 -0 -0.292483
v 0.607609 -0.049989 -0.317477
v 0.578748 -0.049989 -0.367467
v 0.564317 -0 -0.392461
v 0.578748 0.049989 -0.367467
v 0.607609 0.049989 -0.317477
v 0.574007 -0 -0.462125
v 0.602309 0.098041 -0.413104
v 0.658913 0.098041 -0.315063
v 0.687215 -0 -0.266043
v 0.658913 -0.098041 -0.315063
v 0.602309 -0.098041 -0.413104
vt 0.830775 0.246172
vt 0.853845 0.16155
vt 0.896156 0.16155
vt 0.923053 0.246172
vt 0.899984 0.33845
vt 0.853845 0.33845
vt 0.99418 0.246172
vt 0.937461 0.488359
vt 0.816367 0.488359
vt 0.75582 0.246172
vt 0.816367 0.011641
vt 0.937461 0.011641
vn 0.35428 0.334384 -0.873312
vn 0.643865 0.668769 -0.371735
vn 0.93345 0.334384 0.129842
vn 0.93345 0.334384 0.129839
vn 0.643865 -0.668768 -0.371736
vn 0.354279 -0.334384 -0.873312
vn 0.93345 0.334384 0.129839
vn 0.643865 -0.668768 -0.371736
vn 0.35428 -0.334384 -0.873312
vn 0.354279 0.334385 -0.873312
vn 0.643865 0.668768 -0.371736
vn 0.93345 0.334384 0.129839
usemtl datan_common_0d5f8d6b
f 127/127/127 128/128/128 129/129/129
f 129/129/129 130/130/130 131/131/131
f 127/127/127 129/129/129 131/131/131
f 127/127/127 131/131/131 132/132/132
f 131/131/131 130/130/130 133/133/133
f 133/133/133 134/134/134 131/131/131
f 132/132/132 131/131/131 134/134/134
f 134/134/134 135/135/135 132/132/132
f 127/127/127 132/132/132 135/135/135
f 135/135/135 136/136/136 127/127/127
f 128/128/128 127/127/127 136/136/136
f 136/136/136 137/137/137 128/128/128
f 129/129/129 128/128/128 137/137/137
f 137/137/137 138/138/138 129/129/129
f 130/130/130 129/129/129 138/138/138
f 138/138/138 133/133/133 130/130/130
o datan_common_0d5f8d6b_mesh13
v 0.098119 0.169947 0.438204
v 0.196238 -0 0.438204
v 0.101654 -0 -0
v 0.050827 0.088035 0
v 0.098119 -0.169947 0.438204
v 0.050827 -0.088035 -0
v 0.056604 0.098041 0.727433
v 0.113208 -0 0.727433
v 0.056604 -0.098041 0.727433
v -0.098119 0.169947 0.438204
v -0.050827 0.088035 0
v -0.101654 -0 -0
v -0.196238 -0 0.438204
v -0.050827 -0.088035 -0
v -0.098119 -0.169947 0.438204
v -0.056604 0.098041 0.727433
v -0.113208 -0 0.727433
v -0.056604 -0.098041 0.727433
vt 0.102381 0.983905
vt 0.10349 0.753849
vt 0.243198 0.753851
vt 0.242623 0.87699
vt 0.102382 0.516136
vt 0.242624 0.630712
vt 0.00582 0.883326
vt 0.00646 0.753847
vt 0.00582 0.616713
vt 0.102381 0.983905
vt 0.242623 0.869333
vt 0.243198 0.753851
vt 0.099662 0.753849
vt 0.242624 0.630712
vt 0.098553 0.516136
vt 0.00582 0.890982
vt 0.00646 0.753847
vt 0.00582 0.616713
vn 0.840442 0.48523 0.241267
vn 0.840442 -0.485229 0.241267
vn 0.851281 -0.491487 -0.183744
vn 0.851281 0.491487 -0.183744
vn 0.840442 -0.485229 0.241267
vn 0.851281 -0.491487 -0.183744
vn 0.840442 0.48523 0.241267
vn 0.840442 -0.485229 0.241267
vn 0.840442 -0.485229 0.241267
vn -0.840442 0.485229 0.241267
vn -0.851281 0.491487 -0.183744
vn -0.851281 -0.491487 -0.183744
vn -0.840442 -0.485229 0.241267
vn -0.851281 -0.491487 -0.183744
vn -0.840442 -0.485229 0.241267
vn -0.840442 0.485229 0.241267
vn -0.840442 -0.485229 0.241267
vn -0.840442 -0.485229 0.241267
usemtl datan_common_0d5f8d6b
f 139/139/139 140/140/140 141/141/141
f 141/141/141 142/142/142 139/139/139
f 140/140/140 143/143/143 144/144/144
f 144/144/144 141/141/141 140/140/140
f 145/145/145 146/146/146 140/140/140
f 140/140/140 139/139/139 145/145/145
f 146/146/146 147/147/147 143/143/143
f 143/143/143 140/140/140 146/146/146
f 148/148/148 149/149/149 150/150/150
f 150/150/150 151/151/151 148/148/148
f 151/151/151 150/150/150 152/152/152
f 152/152/152 153/153/153 151/151/151
f 154/154/154 148/148/148 151/151/151
f 151/151/151 155/155/155 154/154/154
f 155/155/155 151/151/151 153/153/153
f 153/153/153 156/156/156 155/155/155
o datan_common_0d5f8d6b_mesh14
v -0.098119 0.169947 0.438204
v 0.098119 0.169947 0.438204
v 0.050827 0.088035 0
v -0.050827 0.088035 0
v -0.056604 0.098041 0.727433
v 0.056604 0.098041 0.727433
v -0.098119 -0.169947 0.438204
v -0.050827 -0.088035 -0
v 0.050827 -0.088035 -0
v 0.098119 -0.169947 0.438204
v -0.056604 -0.098041 0.727433
v 0.056604 -0.098041 0.727433
vt 0.703028 0.98432
vt 0.703027 0.514072
vt 0.994179 0.629232
vt 0.99418 0.876793
vt 0.505821 0.883225
vt 0.50582 0.615182
vt 0.703028 0.98432
vt 0.99418 0.869137
vt 0.994179 0.629232
vt 0.703027 0.514072
vt 0.505821 0.883225
vt 0.50582 0.615182
vn 0 0.970459 0.241267
vn 0 0.970459 0.241267
vn -0 0.982974 -0.183744
vn -0 0.982974 -0.183744
vn 0 0.970459 0.241267
vn -0 0.970459 0.241267
vn -0 -0.970459 0.241267
vn 0 -0.982974 -0.183744
vn -0 -0.982974 -0.183744
vn 0 -0.970459 0.241267
vn 0 -0.970459 0.241267
vn 0 -0.970459 0.241267
usemtl datan_common_0d5f8d6b
f 157/157/157 158/158/158 159/159/159
f 159/159/159 160/160/160 157/157/157
f 161/161/161 162/162/162 158/158/158
f 158/158/158 157/157/157 161/161/161
f 163/163/163 164/164/164 165/165/165
f 165/165/165 166/166/166 163/163/163
f 167/167/167 163/163/163 166/166/166
f 166/166/166 168/168/168 167/167/167
o datan_common_0d5f8d6b_mesh15
v -0.057723 -0 0.684209
v -0.028861 -0.049989 0.684209
v 0.028861 -0.049989 0.684209
v 0.057723 -0 0.684209
v 0.028861 0.049989 0.684209
v -0.028861 0.049989 0.684209
v 0.113208 -0 0.727433
v 0.056604 0.098041 0.727433
v -0.056604 0.098041 0.727433
v -0.113208 -0 0.727433
v -0.056604 -0.098041 0.727433
v 0.056604 -0.098041 0.727433
vt 0.580775 0.253984
vt 0.603845 0.169362
vt 0.646156 0.169362
vt 0.669225 0.253984
vt 0.649984 0.346263
vt 0.603845 0.346263
vt 0.74418 0.253984
vt 0.683633 0.496172
vt 0.566367 0.496172
vt 0.50582 0.253984
vt 0.566367 0.019453
vt 0.683633 0.019453
vn 0.57917 0.334384 0.743471
vn -0 0.668769 0.743471
vn -0.579171 0.334384 0.743471
vn -0.57917 0.334384 0.743471
vn 0 -0.668768 0.743471
vn 0.57917 -0.334384 0.743471
vn -0.57917 0.334384 0.743471
vn 0 -0.668768 0.743471
vn 0.579171 -0.334384 0.743471
vn 0.57917 0.334384 0.743471
vn -0 0.668768 0.743471
vn -0.57917 0.334384 0.743471
usemtl datan_common_0d5f8d6b
f 169/169/169 170/170/170 171/171/171
f 171/171/171 172/172/172 173/173/173
f 169/169/169 171/171/171 173/173/173
f 169/169/169 173/173/173 174/174/174
f 173/173/173 172/172/172 175/175/175
f 175/175/175 176/176/176 173/173/173
f 174/174/174 173/173/173 176/176/176
f 176/176/176 177/177/177 174/174/174
f 169/169/169 174/174/174 177/177/177
f 177/177/177 178/178/178 169/169/169
f 170/170/170 169/169/169 178/178/178
f 178/178/178 179/179/179 170/170/170
f 171/171/171 170/170/170 179/179/179
f 179/179/179 180/180/180 171/171/171
f 172/172/172 171/171/171 180/180/180
f 180/180/180 175/175/175 172/172/172
o datan_common_0d5f8d6b_mesh16
v -0.057723 -0 0.684944
v -0.028861 -0.049989 0.684944
v 0.028861 -0.049989 0.684944
v 0.057723 -0 0.684944
v 0.028861 0.049989 0.684944
v -0.028861 0.049989 0.684944
v 0.113208 -0 0.728167
v 0.056604 0.098041 0.728167
v -0.056604 0.098041 0.728167
v -0.113208 -0 0.728167
v -0.056604 -0.098041 0.728167
v 0.056604 -0.098041 0.728167
vt 0.830775 0.246172
vt 0.853845 0.16155
vt 0.896156 0.16155
vt 0.923053 0.246172
vt 0.899984 0.33845
vt 0.853845 0.33845
vt 0.99418 0.246172
vt 0.937461 0.488359
vt 0.816367 0.488359
vt 0.75582 0.246172
vt 0.816367 0.011641
vt 0.937461 0.011641
vn 0.57917 0.334384 0.743471
vn -0 0.668768 0.743471
vn -0.57917 0.334384 0.743471
vn -0.57917 0.334384 0.743471
vn 0 -0.668768 0.743471
vn 0.57917 -0.334384 0.743471
vn -0.57917 0.334384 0.743471
vn 0 -0.668768 0.743471
vn 0.579171 -0.334384 0.743471
vn 0.57917 0.334384 0.743471
vn -0 0.668768 0.743471
vn -0.57917 0.334384 0.743471
usemtl datan_common_0d5f8d6b
f 181/181/181 182/182/182 183/183/183
f 183/183/183 184/184/184 185/185/185
f 181/181/181 183/183/183 185/185/185
f 181/181/181 185/185/185 186/186/186
f 185/185/185 184/184/184 187/187/187
f 187/187/187 188/188/188 185/185/185
f 186/186/186 185/185/185 188/188/188
f 188/188/188 189/189/189 186/186/186
f 181/181/181 186/186/186 189/189/189
f 189/189/189 190/190/190 181/181/181
f 182/182/182 181/181/181 190/190/190
f 190/190/190 191/191/191 182/182/182
f 183/183/183 182/182/182 191/191/191
f 191/191/191 192/192/192 183/183/183
f 184/184/184 183/183/183 192/192/192
f 192/192/192 187/187/187 184/184/184
