# Generated from Nova1492 GX by tools/nova1492/GxObjConverter
mtllib datan_common_body6_skd_9d3557d0.mtl
o datan_common_body6_skd_9d3557d0_mesh00
v -0.068642 0.265681 0.552646
v 0.06939 0.265829 0.552646
v 0.106158 0.357841 0.137151
v -0.105259 0.357615 0.137152
v -0.089875 0.092455 0.582697
v 0.090188 0.092648 0.582696
v 0.093715 0.106431 0.359979
v 0.093714 0.185226 -0.017914
v -0.093552 0.185026 -0.017913
v -0.108889 0.352804 -0.07969
v 0.109774 0.353038 -0.079691
v -0.093552 0.106231 0.359979
v 0.093597 0.062073 0.221874
v 0.093598 0.092918 0.048139
v -0.093669 0.092717 0.04814
v -0.093669 0.061873 0.221875
v 0.01803 0.393881 0.408407
v 0.106158 0.357841 0.137151
v 0.020034 0.494956 0.156334
v 0.064973 0.279352 0.462537
v 0.080506 0.337993 -0.258163
v -0.079693 0.337821 -0.258163
v -0.046876 0.428238 -0.325168
v 0.047916 0.42834 -0.325169
v -0.105259 0.357615 0.137152
v -0.064191 0.279214 0.462537
v -0.016961 0.393844 0.408407
v -0.01879 0.494915 0.156334
v -0.026629 0.496988 -0.026066
v 0.109774 0.353038 -0.079691
v 0.027875 0.497046 -0.026066
v -0.108889 0.352804 -0.07969
vt 0.937987 0.912089
vt 0.937987 0.912089
vt 0.353789 0.978744
vt 0.353789 0.978745
vt 0.96882 0.703721
vt 0.96882 0.703721
vt 0.662354 0.632975
vt 0.179545 0.634061
vt 0.179545 0.634061
vt 0.03118 0.972944
vt 0.03118 0.972944
vt 0.662354 0.632975
vt 0.537314 0.521255
vt 0.329317 0.522341
vt 0.329317 0.522341
vt 0.537314 0.521255
vt 0.857485 0.405169
vt 0.649865 0.321571
vt 0.612068 0.485656
vt 0.987868 0.261758
vt 0.068493 0.281411
vt 0.068493 0.281411
vt 0.012132 0.386883
vt 0.012132 0.386883
vt 0.649865 0.321571
vt 0.987868 0.261758
vt 0.857485 0.397512
vt 0.612068 0.485656
vt 0.334326 0.488242
vt 0.388 0.315536
vt 0.334326 0.488242
vt 0.388 0.315536
vn -0.994588 0.03903 0.096287
vn 0.983343 0.138514 0.117692
vn 0.995905 -0.088477 0.018567
vn -0.999364 -0.0311 0.017421
vn -0.991767 0.125754 0.024149
vn 0.983343 0.138514 0.117692
vn 0.999999 -0.001599 -0.000335
vn 0.999999 -0.001599 -0.000335
vn -0.999999 0.001482 0.00031
vn -0.994924 -0.098512 -0.020539
vn 0.995905 -0.088477 0.018567
vn -0.999999 0.001482 0.00031
vn 0.999999 -0.001599 -0.000335
vn 0.999999 -0.001441 -0.000254
vn -0.999999 0.001482 0.00031
vn -0.999999 0.001705 0.000301
vn -0.000454 0.427157 0.904178
vn 0.846955 0.531659 0.002348
vn -0.00107 0.999934 0.011413
vn -0.000454 0.427157 0.904178
vn 0.960424 0.21612 -0.175722
vn -0.95996 0.218445 -0.175381
vn -0.95996 0.218445 -0.175381
vn -0.001044 0.974601 -0.223946
vn -0.848076 0.528172 0.042451
vn -0.000454 0.427157 0.904178
vn -0.000455 0.427157 0.904177
vn -0.00107 0.999934 0.011413
vn -0.00107 0.999934 0.011413
vn 0.87527 0.481707 0.043149
vn -0.00107 0.999934 0.011413
vn -0.869148 0.49454 0.00358
usemtl datan_common_body6_skd_9d3557d0
f 1/1/1 2/2/2 3/3/3
f 3/3/3 4/4/4 1/1/1
f 5/5/5 6/6/6 2/2/2
f 2/2/2 1/1/1 5/5/5
f 6/6/6 7/7/7 3/3/3
f 3/3/3 2/2/2 6/6/6
f 8/8/8 9/9/9 10/10/10
f 10/10/10 11/11/11 8/8/8
f 12/12/12 5/5/5 1/1/1
f 1/1/1 4/4/4 12/12/12
f 3/3/3 7/7/7 8/8/8
f 8/8/8 11/11/11 3/3/3
f 12/12/12 4/4/4 10/10/10
f 10/10/10 9/9/9 12/12/12
f 13/13/13 14/14/14 8/8/8
f 8/8/8 7/7/7 13/13/13
f 15/15/15 16/16/16 12/12/12
f 12/12/12 9/9/9 15/15/15
f 17/17/17 18/18/18 19/19/19
f 18/18/18 17/17/17 20/20/20
f 21/21/21 22/22/22 23/23/23
f 23/23/23 24/24/24 21/21/21
f 25/25/25 26/26/26 27/27/27
f 27/27/27 28/28/28 25/25/25
f 24/24/24 23/23/23 29/29/29
f 24/24/24 30/30/30 21/21/21
f 30/30/30 24/24/24 31/31/31
f 32/32/32 29/29/29 23/23/23
f 23/23/23 22/22/22 32/32/32
f 19/19/19 28/28/28 27/27/27
f 29/29/29 31/31/31 24/24/24
f 27/27/27 17/17/17 19/19/19
f 17/17/17 27/27/27 26/26/26
f 26/26/26 20/20/20 17/17/17
f 18/18/18 30/30/30 19/19/19
f 31/31/31 19/19/19 30/30/30
f 32/32/32 25/25/25 29/29/29
f 28/28/28 29/29/29 25/25/25
f 29/29/29 28/28/28 31/31/31
f 19/19/19 31/31/31 28/28/28
