# Generated from Nova1492 GX by tools/nova1492/GxObjConverter
mtllib datan_common_body59_hrot_044b421d.mtl
o datan_common_body59_hrot_044b421d
v 0.12869 0.022957 0.085607
v 0.151287 0.045853 0.085988
v 0.15343 0.048025 0.34328
v 0.128689 0.022957 0.345007
v 0.198712 0.369454 0.635972
v 0.198712 0.107381 0.700768
v 0.106624 0.107381 0.394425
v 0.106624 0.372535 0.292134
v -0.128689 0.022957 0.085607
v -0.128689 0.022957 0.342854
v -0.153429 0.048025 0.343279
v -0.151286 0.045853 0.085891
v -0.198712 0.369454 0.635972
v -0.106624 0.372535 0.292134
v -0.106624 0.107381 0.394425
v -0.198712 0.107381 0.700768
v -0.070059 0.535417 0.189396
v -0.0339 0.369454 0.635972
v 0.0339 0.369454 0.635972
v 0.07006 0.535417 0.189396
v -0.070059 0.453516 0.0176
v -0.070059 0.372535 0.292134
v 0.07006 0.372535 0.292134
v 0.07006 0.453516 0.0176
v 0.07006 0.349568 0.017341
v -0.070059 0.349568 0.017341
v -0.070059 0.453516 0.0176
v 0.07006 0.453516 0.0176
v 0.0339 0.369454 0.635972
v 0.07006 0.372535 0.292134
v 0.07006 0.535417 0.189396
v -0.0339 0.369454 0.635972
v -0.070059 0.535417 0.189396
v -0.070059 0.372535 0.292134
v 0.07006 0.240387 0.34328
v 0.07006 0.372535 0.292134
v 0.106624 0.372535 0.292134
v 0.07006 0.10781 0.394425
v 0.198712 0.369454 0.635972
v 0.106624 0.372535 0.292134
v 0.07006 0.372535 0.292134
v 0.198712 0.107381 0.700768
v 0.198712 0.369454 0.635972
v 0.0339 0.369454 0.635972
v 0.0339 0.107381 0.700768
v -0.070059 0.240387 0.34328
v -0.070059 0.10781 0.394425
v -0.070059 0.372535 0.292134
v -0.106624 0.372535 0.292134
v -0.198712 0.369454 0.635972
v -0.198712 0.107381 0.700768
v -0.0339 0.107381 0.700768
v -0.0339 0.369454 0.635972
v -0.106624 0.372535 0.292134
v -0.198712 0.369454 0.635972
v -0.070059 0.372535 0.292134
v 0.07006 0.228904 0.051474
v 0.07006 0.10781 0.085607
v 0.07006 0.105814 -0.186855
v 0.07006 0.348 -0.195283
v -0.070059 0.228904 0.051474
v -0.070059 0.348 -0.195283
v -0.070059 0.10781 0.085607
v -0.070059 0.105814 -0.186855
v -0.070059 0.349568 0.017341
v 0.07006 0.349568 0.017341
v 0.07006 0.348 -0.195283
v -0.070059 0.348 -0.195283
v 0.07006 0.240387 0.34328
v -0.070059 0.240387 0.34328
v 0.07006 0.10781 0.394425
v 0.07006 0.10781 0.085607
v -0.070059 0.10781 0.085607
v -0.070059 0.10781 0.394425
v -0 0.118328 0.802374
v 0.0339 0.107381 0.700768
v -0.0339 0.107381 0.700768
v -0.090568 0.368258 -0.134049
v 0.090569 0.368258 -0.134049
v 0.090569 0.445931 -0.488596
v -0.090568 0.445931 -0.488596
v -0.090568 0.031712 -0.134049
v 0.090569 0.031712 -0.134049
v 0.090569 0.368258 -0.134049
v -0.090568 0.368258 -0.134049
v 0.090569 0.031712 -0.443815
v 0.090569 0.445931 -0.488596
v -0.090568 0.031712 -0.443815
v -0.090568 0.445931 -0.488596
v 0.156097 0.057605 -0.471745
v 0.084708 0.111137 -0.471745
v 0.085518 0.085355 -0.082739
v 0.134292 0.048781 -0.082739
v 0.016853 0.052199 -0.471746
v 0.039158 0.045088 -0.082739
v 0.046304 -0.03776 -0.471746
v 0.05928 -0.016373 -0.082739
v 0.132362 -0.034419 -0.471746
v 0.118076 -0.014091 -0.082739
v 0.016853 0.052199 -0.471746
v 0.132362 -0.034419 -0.471746
v 0.046304 -0.03776 -0.471746
v 0.084708 0.111137 -0.471745
v 0.156097 0.057605 -0.471745
v 0.039158 0.045088 -0.082739
v 0.05928 -0.016373 -0.082739
v 0.118076 -0.014091 -0.082739
v 0.085518 0.085355 -0.082739
v 0.134292 0.048781 -0.082739
v -0.02037 0.057605 -0.471746
v -0.091759 0.111137 -0.471745
v -0.090949 0.085355 -0.082739
v -0.042175 0.048781 -0.082739
v -0.159614 0.052199 -0.471745
v -0.137309 0.045088 -0.082739
v -0.130163 -0.03776 -0.471746
v -0.117187 -0.016373 -0.082739
v -0.044105 -0.034419 -0.471746
v -0.058391 -0.01409 -0.082739
v -0.159614 0.052199 -0.471745
v -0.044105 -0.034419 -0.471746
v -0.130163 -0.03776 -0.471746
v -0.091759 0.111137 -0.471745
v -0.02037 0.057605 -0.471746
v -0.137309 0.045088 -0.082739
v -0.117187 -0.016373 -0.082739
v -0.058391 -0.01409 -0.082739
v -0.090949 0.085355 -0.082739
v -0.042175 0.048781 -0.082739
v 0.079259 0.37659 -0.629273
v -0.00318 0.434857 -0.6153
v -0.002245 0.383173 -0.439838
v 0.054079 0.343364 -0.449384
v -0.08154 0.370706 -0.630684
v -0.055781 0.339345 -0.450348
v -0.04753 0.272791 -0.654164
v -0.032545 0.272448 -0.46639
v 0.05185 0.276428 -0.653292
v 0.035352 0.274932 -0.465794
v -0.08154 0.370706 -0.630684
v 0.05185 0.276428 -0.653292
v -0.04753 0.272791 -0.654164
v -0.00318 0.434857 -0.6153
v 0.079259 0.37659 -0.629273
v 0.079259 0.140653 -0.643812
v -0.00318 0.19892 -0.657785
v -0.002245 0.19448 -0.468864
v 0.054078 0.154671 -0.459318
v -0.08154 0.134769 -0.642402
v -0.055781 0.150651 -0.458354
v -0.04753 0.036854 -0.618922
v -0.032545 0.083755 -0.442312
v 0.05185 0.040491 -0.619794
v 0.035352 0.086239 -0.442908
v -0.08154 0.134769 -0.642402
v 0.05185 0.040491 -0.619794
v -0.04753 0.036854 -0.618922
v -0.00318 0.19892 -0.657785
v 0.079259 0.140653 -0.643812
vt 0.489454 0.129575
vt 0.489208 0.145526
vt 0.327539 0.147765
vt 0.326421 0.129575
vt 0.139649 0.4559
vt 0.095779 0.215408
vt 0.286762 0.211363
vt 0.354358 0.455033
vt 0.489454 0.129576
vt 0.327814 0.129575
vt 0.327539 0.147765
vt 0.48927 0.145526
vt 0.139649 0.4559
vt 0.354358 0.455033
vt 0.286762 0.211363
vt 0.095779 0.215408
vt 0.422664 0.824905
vt 0.135342 0.78947
vt 0.135342 0.729863
vt 0.422664 0.695744
vt 0.535419 0.97536
vt 0.363733 0.975361
vt 0.363732 0.844645
vt 0.535419 0.8462
vt 0.538303 0.448736
vt 0.538303 0.448736
vt 0.541963 0.546234
vt 0.541963 0.546234
vt 0.135831 0.46843
vt 0.354358 0.47363
vt 0.420889 0.622588
vt 0.135831 0.46843
vt 0.420889 0.622588
vt 0.354358 0.47363
vt 0.327539 0.339635
vt 0.35262 0.455592
vt 0.35262 0.455592
vt 0.294418 0.211805
vt 0.135342 0.632824
vt 0.353993 0.632824
vt 0.353993 0.686532
vt 0.021539 0.635745
vt 0.021538 0.886362
vt 0.119221 0.886362
vt 0.119212 0.635745
vt 0.319883 0.331979
vt 0.294418 0.211805
vt 0.35262 0.455592
vt 0.35262 0.455592
vt 0.021527 0.886362
vt 0.021526 0.635745
vt 0.119236 0.635745
vt 0.119227 0.886362
vt 0.353993 0.88627
vt 0.135342 0.88627
vt 0.353993 0.832561
vt 0.519215 0.324757
vt 0.497111 0.211805
vt 0.669416 0.209747
vt 0.674874 0.439463
vt 0.519214 0.332413
vt 0.674873 0.439463
vt 0.497111 0.211805
vt 0.669416 0.209747
vt 0.543254 0.824904
vt 0.543254 0.695744
vt 0.674322 0.695744
vt 0.674322 0.824904
vt 0.327539 0.342231
vt 0.327539 0.342231
vt 0.320092 0.137155
vt 0.489454 0.137155
vt 0.489454 0.137155
vt 0.320092 0.137155
vt 0.02401 0.22265
vt 0.086214 0.215408
vt 0.086214 0.215408
vt 0.641989 0.845613
vt 0.641989 0.675035
vt 0.867049 0.675034
vt 0.867049 0.845613
vt 0.637694 0.140017
vt 0.637694 0.140017
vt 0.637694 0.460147
vt 0.633866 0.460147
vt 0.83636 0.137186
vt 0.866984 0.534367
vt 0.844016 0.137186
vt 0.866984 0.534367
vt 0.823275 0.16402
vt 0.823275 0.208186
vt 0.60184 0.185648
vt 0.60184 0.155764
vt 0.823275 0.163835
vt 0.60184 0.155662
vt 0.823275 0.070058
vt 0.60184 0.091553
vt 0.823275 0.070162
vt 0.60184 0.091679
vt 0.138089 0.1155
vt 0.058579 0.027359
vt 0.116512 0.025518
vt 0.095989 0.181296
vt 0.040736 0.122821
vt 0.138024 0.115471
vt 0.116496 0.025554
vt 0.058607 0.027415
vt 0.095985 0.181121
vt 0.040779 0.122797
vt 0.823275 0.16402
vt 0.823274 0.208186
vt 0.60184 0.185648
vt 0.60184 0.155764
vt 0.823275 0.163835
vt 0.60184 0.155662
vt 0.823275 0.070058
vt 0.60184 0.091553
vt 0.823275 0.070162
vt 0.60184 0.091679
vt 0.138087 0.1155
vt 0.058578 0.027359
vt 0.116511 0.025518
vt 0.095986 0.181296
vt 0.040735 0.122821
vt 0.138022 0.115471
vt 0.116495 0.025554
vt 0.058606 0.027415
vt 0.095982 0.181121
vt 0.040778 0.122797
vt 0.959609 0.475683
vt 0.950118 0.526995
vt 0.841441 0.483384
vt 0.847923 0.440344
vt 0.959638 0.475489
vt 0.847946 0.440189
vt 0.97502 0.377404
vt 0.858452 0.378524
vt 0.974986 0.377628
vt 0.858432 0.378657
vt 0.284574 0.116022
vt 0.204406 0.028722
vt 0.263107 0.025911
vt 0.24131 0.180764
vt 0.187238 0.121257
vt 0.968155 0.242632
vt 0.976276 0.293842
vt 0.860237 0.289264
vt 0.853782 0.256084
vt 0.968095 0.242233
vt 0.853704 0.255566
vt 0.95273 0.142237
vt 0.845933 0.19003
vt 0.952761 0.142443
vt 0.845955 0.182521
vt 0.284574 0.116213
vt 0.204406 0.028844
vt 0.263107 0.026166
vt 0.24131 0.180941
vt 0.187238 0.121338
vn -0.069841 -0.817542 -0.571618
vn 0.791416 -0.164829 -0.588635
vn 0.804224 -0.137422 0.57822
vn -0.032418 -0.835603 0.548377
vn 0.683983 0.604017 0.409061
vn 0.736468 0.162365 0.656698
vn 0.657407 -0.261341 -0.706765
vn 0.483126 0.477523 -0.733868
vn 0.063778 -0.848394 -0.525509
vn 0.036074 -0.9086 0.416107
vn -0.874397 -0.186624 0.447886
vn -0.826231 -0.182724 -0.532873
vn -0.683983 0.604017 0.409061
vn -0.48326 0.477775 -0.733615
vn -0.65741 -0.261386 -0.706746
vn -0.736469 0.162365 0.656697
vn -0.562748 0.524606 -0.63883
vn -0.124001 0.767649 0.628759
vn 0.124001 0.767649 0.628759
vn 0.562748 0.524606 -0.63883
vn -0.563853 0.66207 -0.493693
vn -0.836092 0.369219 -0.405744
vn 0.836278 0.368928 -0.405624
vn 0.563853 0.66207 -0.493693
vn 0.903376 0.302501 -0.303981
vn -0.903376 0.302501 -0.303982
vn -0.563853 0.66207 -0.493693
vn 0.563853 0.66207 -0.493693
vn 0.124001 0.767649 0.628759
vn 0.836278 0.368928 -0.405624
vn 0.562748 0.524606 -0.63883
vn -0.124001 0.767649 0.628759
vn -0.562748 0.524606 -0.63883
vn -0.836092 0.369219 -0.405744
vn 0.756103 -0.106236 -0.645772
vn 0.836278 0.368928 -0.405624
vn 0.483126 0.477523 -0.733868
vn 0.697793 -0.674682 -0.240603
vn 0.683983 0.604017 0.409061
vn 0.483126 0.477523 -0.733868
vn 0.836278 0.368928 -0.405624
vn 0.736468 0.162365 0.656698
vn 0.683983 0.604017 0.409061
vn 0.124001 0.767649 0.628759
vn 0.60684 0.190771 0.77159
vn -0.753999 -0.093824 -0.650141
vn -0.447428 -0.874706 0.186276
vn -0.836092 0.369219 -0.405744
vn -0.48326 0.477775 -0.733615
vn -0.683983 0.604017 0.409061
vn -0.736469 0.162365 0.656697
vn -0.606841 0.190771 0.77159
vn -0.124001 0.767649 0.628759
vn -0.48326 0.477775 -0.733615
vn -0.683983 0.604017 0.409061
vn -0.836092 0.369219 -0.405744
vn 0.994961 0.074754 -0.066821
vn -0.148579 -0.519944 -0.841179
vn 1 0 0
vn 0.700856 0.713284 -0.00526
vn -0.994577 0.07852 -0.068205
vn -0.700856 0.713284 -0.00526
vn 0.315739 -0.535158 -0.783527
vn -1 -0 -0
vn -0.903376 0.302501 -0.303982
vn 0.903376 0.302501 -0.303981
vn 0.700856 0.713284 -0.00526
vn -0.700856 0.713284 -0.00526
vn 0.756103 -0.106236 -0.645772
vn -0.753999 -0.093824 -0.650141
vn 0.697793 -0.674682 -0.240603
vn -0.148579 -0.519944 -0.841179
vn 0.315739 -0.535158 -0.783527
vn -0.447428 -0.874706 0.186276
vn -0 0.320289 0.94732
vn 0.60684 0.190771 0.77159
vn -0.606841 0.190771 0.77159
vn -0.589547 0.506366 0.629308
vn 0.589547 0.506366 0.629308
vn 0.562225 0.61547 -0.552358
vn -0.562225 0.61547 -0.552359
vn -0.707107 -0.000001 0.707107
vn 0.707107 -0.000001 0.707107
vn 0.589547 0.506366 0.629308
vn -0.589547 0.506366 0.629308
vn 0.730142 -0.073443 -0.679337
vn 0.562225 0.61547 -0.552358
vn -0.730142 -0.073443 -0.679337
vn -0.562225 0.61547 -0.552359
vn 0.769701 0.27093 -0.578063
vn -0.029516 0.824861 -0.564565
vn -0.028412 0.788786 0.614011
vn 0.738145 0.258153 0.623297
vn -0.785916 0.217856 -0.578684
vn -0.753582 0.207553 0.623727
vn -0.620066 -0.203001 -0.757832
vn -0.609491 -0.199541 0.767271
vn 0.629044 -0.162245 -0.76025
vn 0.618385 -0.159498 0.76952
vn -0.785916 0.217856 -0.578684
vn 0.629044 -0.162245 -0.76025
vn -0.620066 -0.203001 -0.757832
vn -0.029516 0.824861 -0.564565
vn 0.769701 0.27093 -0.578063
vn -0.753582 0.207553 0.623727
vn -0.609491 -0.199541 0.767271
vn 0.618385 -0.159498 0.76952
vn -0.028412 0.788786 0.614011
vn 0.738145 0.258153 0.623297
vn 0.769701 0.27093 -0.578064
vn -0.029516 0.824861 -0.564565
vn -0.028412 0.788786 0.614012
vn 0.738145 0.258153 0.623297
vn -0.785916 0.217856 -0.578684
vn -0.753583 0.207553 0.623727
vn -0.620065 -0.203001 -0.757833
vn -0.609491 -0.19954 0.767271
vn 0.629044 -0.162245 -0.76025
vn 0.618385 -0.159497 0.76952
vn -0.785916 0.217856 -0.578684
vn 0.629044 -0.162245 -0.76025
vn -0.620065 -0.203001 -0.757833
vn -0.029516 0.824861 -0.564565
vn 0.769701 0.27093 -0.578064
vn -0.753583 0.207553 0.623727
vn -0.609491 -0.19954 0.767271
vn 0.618385 -0.159497 0.76952
vn -0.028412 0.788786 0.614012
vn 0.738145 0.258153 0.623297
vn 0.791915 0.375325 -0.481666
vn -0.030247 0.930482 -0.365087
vn -0.027166 0.627556 0.778098
vn 0.714702 0.126382 0.687916
vn -0.808876 0.321302 -0.492427
vn -0.730033 0.077689 0.678982
vn -0.474563 -0.584309 -0.658311
vn -0.432752 -0.733048 0.524754
vn 0.521967 -0.549515 -0.652369
vn 0.475394 -0.701507 0.530932
vn -0.808876 0.321302 -0.492427
vn 0.521967 -0.549515 -0.652369
vn -0.474563 -0.584309 -0.658311
vn -0.030247 0.930482 -0.365087
vn 0.791915 0.375325 -0.481666
vn 0.789467 0.178838 -0.587162
vn -0.029734 0.729914 -0.682892
vn -0.027288 0.86645 0.498518
vn 0.713543 0.369685 0.595138
vn -0.806942 0.124711 -0.577314
vn -0.728998 0.321479 0.604329
vn -0.480206 -0.782024 -0.397292
vn -0.432354 -0.494008 0.754338
vn 0.52761 -0.746824 -0.404823
vn 0.475241 -0.462229 0.748659
vn -0.806942 0.124711 -0.577314
vn 0.52761 -0.746824 -0.404823
vn -0.480206 -0.782024 -0.397292
vn -0.029734 0.729914 -0.682892
vn 0.789467 0.178838 -0.587162
usemtl datan_common_body59_hrot_044b421d
f 1/1/1 2/2/2 3/3/3
f 3/3/3 4/4/4 1/1/1
f 5/5/5 6/6/6 7/7/7
f 7/7/7 8/8/8 5/5/5
f 9/9/9 10/10/10 11/11/11
f 11/11/11 12/12/12 9/9/9
f 13/13/13 14/14/14 15/15/15
f 15/15/15 16/16/16 13/13/13
f 17/17/17 18/18/18 19/19/19
f 19/19/19 20/20/20 17/17/17
f 21/21/21 22/22/22 23/23/23
f 23/23/23 24/24/24 21/21/21
f 25/25/25 26/26/26 27/27/27
f 27/27/27 28/28/28 25/25/25
f 29/29/29 30/30/30 31/31/31
f 32/32/32 33/33/33 34/34/34
f 33/33/33 31/31/31 30/30/30
f 30/30/30 34/34/34 33/33/33
f 35/35/35 36/36/36 37/37/37
f 38/38/38 35/35/35 37/37/37
f 38/38/38 37/37/37 7/7/7
f 39/39/39 40/40/40 41/41/41
f 41/41/41 19/19/19 39/39/39
f 42/42/42 43/43/43 44/44/44
f 44/44/44 45/45/45 42/42/42
f 46/46/46 47/47/47 15/15/15
f 48/48/48 46/46/46 15/15/15
f 48/48/48 15/15/15 49/49/49
f 50/50/50 51/51/51 52/52/52
f 52/52/52 53/53/53 50/50/50
f 54/54/54 55/55/55 18/18/18
f 18/18/18 56/56/56 54/54/54
f 57/57/57 58/58/58 59/59/59
f 25/25/25 57/57/57 59/59/59
f 25/25/25 59/59/59 60/60/60
f 61/61/61 26/26/26 62/62/62
f 63/63/63 61/61/61 62/62/62
f 63/63/63 62/62/62 64/64/64
f 65/65/65 66/66/66 67/67/67
f 67/67/67 68/68/68 65/65/65
f 25/25/25 28/28/28 30/30/30
f 25/25/25 30/30/30 69/69/69
f 57/57/57 25/25/25 69/69/69
f 27/27/27 26/26/26 61/61/61
f 34/34/34 27/27/27 61/61/61
f 70/70/70 34/34/34 61/61/61
f 71/71/71 72/72/72 1/1/1
f 1/1/1 4/4/4 71/71/71
f 58/58/58 57/57/57 2/2/2
f 2/2/2 1/1/1 58/58/58
f 57/57/57 69/69/69 3/3/3
f 3/3/3 2/2/2 57/57/57
f 69/69/69 38/38/38 4/4/4
f 4/4/4 3/3/3 69/69/69
f 73/73/73 74/74/74 10/10/10
f 10/10/10 9/9/9 73/73/73
f 47/47/47 70/70/70 11/11/11
f 11/11/11 10/10/10 47/47/47
f 70/70/70 61/61/61 12/12/12
f 12/12/12 11/11/11 70/70/70
f 61/61/61 63/63/63 9/9/9
f 9/9/9 12/12/12 61/61/61
f 75/75/75 76/76/76 29/29/29
f 29/29/29 32/32/32 75/75/75
f 32/32/32 77/77/77 75/75/75
f 78/78/78 79/79/79 80/80/80
f 80/80/80 81/81/81 78/78/78
f 82/82/82 83/83/83 84/84/84
f 84/84/84 85/85/85 82/82/82
f 83/83/83 86/86/86 87/87/87
f 87/87/87 84/84/84 83/83/83
f 86/86/86 88/88/88 89/89/89
f 89/89/89 87/87/87 86/86/86
f 88/88/88 82/82/82 85/85/85
f 85/85/85 89/89/89 88/88/88
f 90/90/90 91/91/91 92/92/92
f 90/90/90 92/92/92 93/93/93
f 91/91/91 94/94/94 95/95/95
f 91/91/91 95/95/95 92/92/92
f 94/94/94 96/96/96 97/97/97
f 94/94/94 97/97/97 95/95/95
f 98/98/98 90/90/90 93/93/93
f 98/98/98 93/93/93 99/99/99
f 100/100/100 101/101/101 102/102/102
f 103/103/103 101/101/101 100/100/100
f 104/104/104 101/101/101 103/103/103
f 105/105/105 106/106/106 107/107/107
f 108/108/108 105/105/105 107/107/107
f 109/109/109 108/108/108 107/107/107
f 110/110/110 111/111/111 112/112/112
f 110/110/110 112/112/112 113/113/113
f 111/111/111 114/114/114 115/115/115
f 111/111/111 115/115/115 112/112/112
f 114/114/114 116/116/116 117/117/117
f 114/114/114 117/117/117 115/115/115
f 118/118/118 110/110/110 113/113/113
f 118/118/118 113/113/113 119/119/119
f 120/120/120 121/121/121 122/122/122
f 123/123/123 121/121/121 120/120/120
f 124/124/124 121/121/121 123/123/123
f 125/125/125 126/126/126 127/127/127
f 128/128/128 125/125/125 127/127/127
f 129/129/129 128/128/128 127/127/127
f 130/130/130 131/131/131 132/132/132
f 130/130/130 132/132/132 133/133/133
f 131/131/131 134/134/134 135/135/135
f 131/131/131 135/135/135 132/132/132
f 134/134/134 136/136/136 137/137/137
f 134/134/134 137/137/137 135/135/135
f 136/136/136 138/138/138 139/139/139
f 136/136/136 139/139/139 137/137/137
f 138/138/138 130/130/130 133/133/133
f 138/138/138 133/133/133 139/139/139
f 140/140/140 141/141/141 142/142/142
f 143/143/143 141/141/141 140/140/140
f 144/144/144 141/141/141 143/143/143
f 135/135/135 137/137/137 139/139/139
f 132/132/132 135/135/135 139/139/139
f 133/133/133 132/132/132 139/139/139
f 145/145/145 146/146/146 147/147/147
f 145/145/145 147/147/147 148/148/148
f 146/146/146 149/149/149 150/150/150
f 146/146/146 150/150/150 147/147/147
f 149/149/149 151/151/151 152/152/152
f 149/149/149 152/152/152 150/150/150
f 151/151/151 153/153/153 154/154/154
f 151/151/151 154/154/154 152/152/152
f 153/153/153 145/145/145 148/148/148
f 153/153/153 148/148/148 154/154/154
f 155/155/155 156/156/156 157/157/157
f 158/158/158 156/156/156 155/155/155
f 159/159/159 156/156/156 158/158/158
