# Generated from Nova1492 GX by tools/nova1492/GxObjConverter
mtllib datan_common_body32_brps_5f5b2911.mtl
o datan_common_body32_brps_5f5b2911
v -0.286887 0.245688 1.145224
v 0.286887 0.245688 1.145224
v 0.222825 0.333002 0.504468
v -0.222825 0.333002 0.504468
v 0.222825 0.333002 -0.634702
v -0.222825 0.333002 -0.634702
v -0.321314 -0.057283 1.230675
v 0.321314 -0.057283 1.230675
v 0.236395 0.095472 0.504468
v 0.236395 -0.016058 -0.634702
v -0.236395 -0.016058 -0.634702
v -0.236395 0.095472 0.504468
v 0.259671 0.135916 -0.503853
v 0.175499 0.541042 -0.434794
v 0.871013 0.280888 -0.434794
v 0.870114 0.070059 -0.503853
v 0.259671 0.135916 0.0405
v 0.870114 0.070059 0.0405
v 0.871013 0.280888 -0.02856
v 0.175499 0.541042 -0.02856
v -0.175453 0.541042 -0.434794
v -0.259624 0.135916 -0.503853
v -0.870967 0.280888 -0.434794
v -0.870068 0.070059 -0.503853
v -0.870068 0.070059 0.0405
v -0.259624 0.135916 0.0405
v -0.870967 0.280888 -0.02856
v -0.175453 0.541042 -0.02856
v 0.49326 -0.022261 1.219254
v 0.517102 -0.058165 1.136073
v 0.475872 0.273817 1.136073
v 0.45203 0.237913 1.219254
v 0.331426 -0.075596 1.255353
v 0.33364 -0.126221 1.136073
v 0.287108 -0.087376 0.804053
v 0.248521 0.303028 0.804053
v 0.338482 0.267781 0.804053
v 0.379712 -0.052129 0.804053
v 0.286586 0.341873 1.136073
v 0.292839 0.291248 1.255353
v 0.331426 -0.075596 1.255353
v 0.292839 0.291248 1.255353
v 0.286586 0.341873 1.136073
v 0.33364 -0.126221 1.136073
v 0.248521 0.303028 0.804053
v 0.287108 -0.087376 0.804053
v -0.36323 0.18959 0.358961
v -0.22962 0.200959 0.415216
v -0.423826 0.179767 0.042155
v -0.22962 0.200959 0.042155
v -0.434693 0.086547 0.420024
v -0.22962 0.086547 0.503612
v -0.507757 0.086547 0.042155
v 0.229559 0.200959 0.415216
v 0.363169 0.18959 0.358961
v 0.423765 0.179767 0.042155
v 0.229559 0.200959 0.042155
v 0.229559 0.086547 0.503612
v 0.434632 0.086547 0.420024
v 0.507697 0.086547 0.042155
v 0.000001 0.306133 0.700354
v 0.12045 0.333218 0.505089
v 0.000001 0.384074 0.542323
v 0.000001 0.333218 0.125842
v -0.120447 0.333218 0.505089
v -0.517091 -0.058165 1.136073
v -0.493248 -0.022261 1.219254
v -0.475861 0.273817 1.136073
v -0.452018 0.237913 1.219254
v -0.333628 -0.126221 1.136073
v -0.331414 -0.075596 1.255353
v -0.24851 0.303028 0.804053
v -0.287096 -0.087376 0.804053
v -0.338471 0.267781 0.804053
v -0.379701 -0.052129 0.804053
v -0.292827 0.291248 1.255353
v -0.286574 0.341873 1.136073
v -0.292827 0.291248 1.255353
v -0.331414 -0.075596 1.255353
v -0.286574 0.341873 1.136073
v -0.333628 -0.126221 1.136073
v -0.24851 0.303028 0.804053
v -0.287096 -0.087376 0.804053
v -0.216168 0.329125 -0.746529
v -0.240289 0.329499 -0.746529
v -0.121987 0.858522 -0.841866
v -0.108201 0.830953 -0.837161
v 0.121967 0.858522 -0.841866
v 0.108182 0.830953 -0.837161
v 0.24027 0.329499 -0.746529
v 0.216149 0.329125 -0.746529
v -0.216168 0.329124 0.041046
v -0.108201 0.697261 0.041046
v -0.121987 0.72483 0.041046
v -0.240289 0.329498 0.041046
v 0.108182 0.697261 0.041046
v 0.121967 0.72483 0.041046
v 0.216149 0.329124 0.041046
v 0.24027 0.329498 0.041046
v 0.24027 0.329498 -0.117849
v 0.121967 0.72483 -0.117849
v -0.121987 0.72483 -0.117849
v -0.240289 0.329498 -0.117849
v 0.121967 0.858522 -0.252165
v -0.121987 0.858522 -0.252165
v 0.24027 0.329498 -0.252165
v -0.240289 0.329498 -0.252165
v -0.216168 0.329124 -0.117849
v -0.108201 0.697261 -0.117849
v -0.108201 0.697261 0.041046
v -0.216168 0.329124 0.041046
v 0.108182 0.697261 -0.117849
v 0.216149 0.329124 -0.117849
v 0.216149 0.329124 0.041046
v 0.108182 0.697261 0.041046
v -0.216168 0.329124 -0.252165
v -0.108201 0.830953 -0.252165
v 0.108182 0.830953 -0.252165
v 0.216149 0.329124 -0.252165
v -0.216168 0.329125 -0.746529
v -0.108201 0.830953 -0.837161
v 0.108182 0.830953 -0.837161
v 0.216149 0.329125 -0.746529
vt 0.024325 0.068031
vt 0.225675 0.068031
vt 0.202339 0.214113
vt 0.040005 0.214113
vt 0.202339 0.487436
vt 0.040005 0.487436
vt 0.011785 0.01212
vt 0.238215 0.012119
vt 0.233976 0.214113
vt 0.233976 0.487436
vt 0.016024 0.487436
vt 0.016024 0.214113
vt 0.071621 0.988117
vt 0.011883 0.858196
vt 0.488117 0.858196
vt 0.487511 0.988117
vt 0.071621 0.511883
vt 0.487511 0.511883
vt 0.488117 0.641804
vt 0.011883 0.64946
vt 0.011883 0.858196
vt 0.071621 0.988117
vt 0.488117 0.858196
vt 0.487511 0.988117
vt 0.487511 0.511883
vt 0.071621 0.511883
vt 0.488117 0.641804
vt 0.011883 0.64946
vt 0.530487 0.313759
vt 0.565986 0.295799
vt 0.565986 0.454201
vt 0.530487 0.436241
vt 0.511758 0.28708
vt 0.573642 0.261758
vt 0.74207 0.281188
vt 0.74207 0.468812
vt 0.74207 0.451181
vt 0.738242 0.298819
vt 0.573642 0.488242
vt 0.511758 0.46292
vt 0.761695 0.398512
vt 0.761695 0.476488
vt 0.782918 0.488305
vt 0.790575 0.386695
vt 0.863305 0.479237
vt 0.863305 0.395763
vt 0.366577 0.163566
vt 0.261758 0.104576
vt 0.417588 0.488117
vt 0.261758 0.488118
vt 0.426735 0.091878
vt 0.261758 0.011883
vt 0.488242 0.488117
vt 0.261758 0.104576
vt 0.366577 0.163566
vt 0.417588 0.488117
vt 0.261758 0.488118
vt 0.261758 0.011883
vt 0.426735 0.091878
vt 0.488242 0.488117
vt 0.129276 0.17477
vt 0.165495 0.213964
vt 0.129276 0.20503
vt 0.12162 0.304957
vt 0.077745 0.213964
vt 0.565986 0.295799
vt 0.530487 0.313759
vt 0.565986 0.454201
vt 0.530487 0.436241
vt 0.573642 0.261758
vt 0.511758 0.28708
vt 0.74207 0.468812
vt 0.74207 0.281188
vt 0.74207 0.451181
vt 0.738242 0.298819
vt 0.511758 0.46292
vt 0.573642 0.488242
vt 0.761695 0.476488
vt 0.761695 0.398512
vt 0.782918 0.488305
vt 0.790575 0.386695
vt 0.863305 0.479237
vt 0.863305 0.395763
vt 0.536171 0.943523
vt 0.511883 0.943523
vt 0.668925 0.988117
vt 0.685311 0.985539
vt 0.831075 0.988117
vt 0.822345 0.985539
vt 0.988117 0.943523
vt 0.963829 0.943523
vt 0.536171 0.508055
vt 0.677655 0.508055
vt 0.668925 0.508055
vt 0.511883 0.511883
vt 0.822345 0.511883
vt 0.827247 0.511883
vt 0.963829 0.511883
vt 0.988117 0.511883
vt 0.988117 0.598967
vt 0.831075 0.598967
vt 0.676581 0.598967
vt 0.511883 0.598967
vt 0.831075 0.672581
vt 0.676581 0.672581
vt 0.988118 0.672581
vt 0.511883 0.672581
vt 0.76718 0.398703
vt 0.7932 0.398703
vt 0.7932 0.386695
vt 0.76718 0.386695
vt 0.8318 0.398703
vt 0.85782 0.398703
vt 0.85782 0.386695
vt 0.8318 0.386695
vt 0.76718 0.422982
vt 0.800857 0.422982
vt 0.8318 0.422982
vt 0.85782 0.422982
vt 0.76718 0.476506
vt 0.800857 0.487723
vt 0.8318 0.487723
vt 0.85782 0.476506
vn -0.99417 0.056797 -0.091657
vn 0.992283 0.08816 -0.087194
vn 0.998372 0.057037 -0
vn -0.99417 0.056797 -0.091657
vn 0 0.000001 -1
vn -0.999245 0.038846 0
vn -0.991543 0.08501 -0.098064
vn 0.992283 0.08816 -0.087194
vn 0.998372 0.057037 -0
vn 0 0.000001 -1
vn -0.999245 0.038846 0
vn -0.99417 0.056797 -0.091657
vn 0.37468 0.412635 -0.830269
vn 0.567014 0.809079 -0.154551
vn 0.567014 0.809079 -0.154551
vn 0.972777 0.176409 -0.150284
vn 0.54279 0.437653 0.716825
vn 0.972777 0.176409 -0.150284
vn 0.567014 0.809079 -0.154551
vn 0.567014 0.809079 -0.154551
vn -0.566993 0.809093 -0.154554
vn -0.374652 0.412641 -0.830279
vn -0.566993 0.809093 -0.154554
vn -0.972775 0.176414 -0.150289
vn -0.972775 0.176414 -0.150289
vn -0.542759 0.437664 0.716842
vn -0.566993 0.809093 -0.154554
vn -0.566993 0.809093 -0.154554
vn 0.301693 0.068751 0.950923
vn 0.886816 0.148984 0.437449
vn 0.477059 0.671985 0.566437
vn 0.301693 0.068751 0.950923
vn 0.291539 0.061824 0.954559
vn 0.41309 -0.433988 0.800632
vn 0.963456 0.258247 0.07114
vn 0.49093 0.661764 0.566617
vn 0.49093 0.661764 0.566617
vn 0.887066 0.151973 0.43591
vn 0.49093 0.661764 0.566617
vn 0.301693 0.068751 0.950923
vn -0.490084 0.006482 0.871651
vn -0.495751 0.002696 0.868461
vn -0.45195 0.006636 0.892019
vn -0.451216 0.007918 0.89238
vn -0.451216 0.007918 0.89238
vn -0.451216 0.007918 0.89238
vn -0.805189 0.524005 0.277649
vn -0.517788 0.493544 0.698792
vn -0.805189 0.524005 0.277649
vn -0.391865 0.894655 0.214559
vn -0.805189 0.524005 0.277649
vn -0.517788 0.493544 0.698792
vn -0.778751 0.557718 0.287224
vn 0.517757 0.493555 0.698807
vn 0.805175 0.524023 0.277659
vn 0.805175 0.524023 0.277659
vn 0.391824 0.894671 0.214563
vn 0.517757 0.493555 0.698807
vn 0.805175 0.524023 0.277659
vn 0.778734 0.557737 0.287234
vn -0.308846 0.780497 0.543543
vn 0.26033 0.94037 0.218933
vn -0.308846 0.780497 0.543543
vn -0.260329 0.940371 0.218933
vn -0.308846 0.780497 0.543543
vn -0.886814 0.148985 0.437452
vn -0.301688 0.068751 0.950925
vn -0.477053 0.671988 0.566439
vn -0.301688 0.068751 0.950925
vn -0.413084 -0.433989 0.800634
vn -0.291534 0.061825 0.954561
vn -0.490925 0.661767 0.56662
vn -0.963454 0.258254 0.071142
vn -0.490925 0.661767 0.56662
vn -0.887065 0.151974 0.435913
vn -0.301688 0.068751 0.950925
vn -0.490925 0.661767 0.56662
vn 0.495758 0.002696 0.868457
vn 0.490091 0.006482 0.871647
vn 0.451957 0.006636 0.892015
vn 0.451224 0.007918 0.892376
vn 0.451224 0.007918 0.892376
vn 0.451224 0.007918 0.892376
vn -0.009466 0.289548 -0.957117
vn -0.733089 0.610008 -0.300783
vn -0.000006 0.969862 -0.243654
vn -0.000007 0.293509 -0.955956
vn 0.733083 0.610015 -0.300786
vn 0.001893 0.288167 -0.957578
vn 0.733083 0.610015 -0.300786
vn 0.001893 0.288167 -0.957578
vn -0.000014 0.703682 0.710515
vn -0.000012 0.703682 0.710516
vn -0.703703 0.646761 -0.294113
vn -0.703703 0.646761 -0.294113
vn -0.000012 0.703682 0.710516
vn -0.000006 0.969862 -0.243655
vn -0.000004 0.703683 0.710514
vn 0.703696 0.646767 -0.294116
vn 0.703696 0.646767 -0.294115
vn 0.754815 0.63881 -0.148913
vn -0.754822 0.638803 -0.148911
vn -0.703704 0.646761 -0.294112
vn 0.733083 0.610015 -0.300786
vn -0.754822 0.638803 -0.148911
vn 0.733082 0.610015 -0.300786
vn -0.754822 0.638803 -0.148911
vn 0.883845 0.287744 -0.36881
vn 0.799471 0.324135 -0.505749
vn 0.883846 0.287744 -0.36881
vn 0.883846 0.287744 -0.36881
vn -0.778961 0.272148 -0.564938
vn -0.869857 0.34121 -0.356266
vn -0.883849 0.287739 -0.368804
vn -0.883849 0.287739 -0.368804
vn 0.869852 0.341216 -0.356271
vn 0.869852 0.341216 -0.356271
vn -0.869857 0.34121 -0.356265
vn -0.869857 0.34121 -0.356265
vn 0.869852 0.341216 -0.356271
vn 0.869852 0.341216 -0.356271
vn -0.869857 0.34121 -0.356265
vn -0.869857 0.34121 -0.356265
usemtl datan_common_body32_brps_5f5b2911
f 1/1/1 2/2/2 3/3/3
f 3/3/3 4/4/4 1/1/1
f 4/4/4 3/3/3 5/5/5
f 5/5/5 6/6/6 4/4/4
f 7/7/7 8/8/8 2/2/2
f 2/2/2 1/1/1 7/7/7
f 8/8/8 9/9/9 3/3/3
f 3/3/3 2/2/2 8/8/8
f 9/9/9 10/10/10 5/5/5
f 5/5/5 3/3/3 9/9/9
f 10/10/10 11/11/11 6/6/6
f 6/6/6 5/5/5 10/10/10
f 11/11/11 12/12/12 4/4/4
f 4/4/4 6/6/6 11/11/11
f 12/12/12 7/7/7 1/1/1
f 1/1/1 4/4/4 12/12/12
f 13/13/13 14/14/14 15/15/15
f 15/15/15 16/16/16 13/13/13
f 17/17/17 18/18/18 19/19/19
f 19/19/19 20/20/20 17/17/17
f 16/16/16 15/15/15 19/19/19
f 19/19/19 18/18/18 16/16/16
f 15/15/15 14/14/14 20/20/20
f 20/20/20 19/19/19 15/15/15
f 21/21/21 22/22/22 23/23/23
f 24/24/24 23/23/23 22/22/22
f 25/25/25 26/26/26 27/27/27
f 28/28/28 27/27/27 26/26/26
f 23/23/23 24/24/24 27/27/27
f 25/25/25 27/27/27 24/24/24
f 21/21/21 23/23/23 28/28/28
f 27/27/27 28/28/28 23/23/23
f 29/29/29 30/30/30 31/31/31
f 31/31/31 32/32/32 29/29/29
f 33/33/33 34/34/34 30/30/30
f 30/30/30 29/29/29 33/33/33
f 35/35/35 36/36/36 37/37/37
f 37/37/37 38/38/38 35/35/35
f 39/39/39 40/40/40 32/32/32
f 32/32/32 31/31/31 39/39/39
f 40/40/40 33/33/33 29/29/29
f 29/29/29 32/32/32 40/40/40
f 31/31/31 30/30/30 38/38/38
f 38/38/38 37/37/37 31/31/31
f 39/39/39 31/31/31 37/37/37
f 37/37/37 36/36/36 39/39/39
f 41/41/41 42/42/42 43/43/43
f 43/43/43 44/44/44 41/41/41
f 44/44/44 43/43/43 45/45/45
f 45/45/45 46/46/46 44/44/44
f 47/47/47 48/48/48 49/49/49
f 50/50/50 49/49/49 48/48/48
f 51/51/51 52/52/52 47/47/47
f 48/48/48 47/47/47 52/52/52
f 53/53/53 51/51/51 49/49/49
f 47/47/47 49/49/49 51/51/51
f 54/54/54 55/55/55 56/56/56
f 56/56/56 57/57/57 54/54/54
f 58/58/58 59/59/59 55/55/55
f 55/55/55 54/54/54 58/58/58
f 59/59/59 60/60/60 56/56/56
f 56/56/56 55/55/55 59/59/59
f 61/61/61 62/62/62 63/63/63
f 62/62/62 64/64/64 63/63/63
f 64/64/64 65/65/65 63/63/63
f 65/65/65 61/61/61 63/63/63
f 66/66/66 67/67/67 68/68/68
f 69/69/69 68/68/68 67/67/67
f 70/70/70 71/71/71 66/66/66
f 67/67/67 66/66/66 71/71/71
f 72/72/72 73/73/73 74/74/74
f 75/75/75 74/74/74 73/73/73
f 76/76/76 77/77/77 69/69/69
f 68/68/68 69/69/69 77/77/77
f 71/71/71 76/76/76 67/67/67
f 69/69/69 67/67/67 76/76/76
f 66/66/66 68/68/68 75/75/75
f 74/74/74 75/75/75 68/68/68
f 68/68/68 77/77/77 74/74/74
f 72/72/72 74/74/74 77/77/77
f 78/78/78 79/79/79 80/80/80
f 81/81/81 80/80/80 79/79/79
f 80/80/80 81/81/81 82/82/82
f 83/83/83 82/82/82 81/81/81
f 84/84/84 85/85/85 86/86/86
f 86/86/86 87/87/87 84/84/84
f 87/87/87 86/86/86 88/88/88
f 88/88/88 89/89/89 87/87/87
f 89/89/89 88/88/88 90/90/90
f 90/90/90 91/91/91 89/89/89
f 92/92/92 93/93/93 94/94/94
f 94/94/94 95/95/95 92/92/92
f 93/93/93 96/96/96 97/97/97
f 97/97/97 94/94/94 93/93/93
f 96/96/96 98/98/98 99/99/99
f 99/99/99 97/97/97 96/96/96
f 100/100/100 101/101/101 97/97/97
f 97/97/97 99/99/99 100/100/100
f 101/101/101 102/102/102 94/94/94
f 94/94/94 97/97/97 101/101/101
f 102/102/102 103/103/103 95/95/95
f 95/95/95 94/94/94 102/102/102
f 102/102/102 101/101/101 104/104/104
f 104/104/104 105/105/105 102/102/102
f 101/101/101 100/100/100 106/106/106
f 106/106/106 104/104/104 101/101/101
f 107/107/107 105/105/105 86/86/86
f 86/86/86 85/85/85 107/107/107
f 105/105/105 104/104/104 88/88/88
f 88/88/88 86/86/86 105/105/105
f 104/104/104 106/106/106 90/90/90
f 90/90/90 88/88/88 104/104/104
f 102/102/102 107/107/107 103/103/103
f 105/105/105 107/107/107 102/102/102
f 108/108/108 109/109/109 110/110/110
f 110/110/110 111/111/111 108/108/108
f 112/112/112 113/113/113 114/114/114
f 114/114/114 115/115/115 112/112/112
f 109/109/109 108/108/108 116/116/116
f 116/116/116 117/117/117 109/109/109
f 113/113/113 112/112/112 118/118/118
f 118/118/118 119/119/119 113/113/113
f 117/117/117 116/116/116 120/120/120
f 120/120/120 121/121/121 117/117/117
f 119/119/119 118/118/118 122/122/122
f 122/122/122 123/123/123 119/119/119
