# Generated from Nova1492 GX by tools/nova1492/GxObjConverter
mtllib datan_common_ss0_body64_prt_5b4047be.mtl
o datan_common_ss0_body64_prt_5b4047be_mesh00
v 0 0.407919 0.799916
v -0.124164 0.309704 0.554544
v -0.134352 0.344033 0.894273
v 0.134352 0.344033 0.894273
v 0.124164 0.309704 0.554544
v 0 0.376808 0.554544
v 0 0.265331 1.028625
v -0.124164 0.084558 0.771412
v 0.124164 0.084558 0.771412
v 0.134352 0.344033 0.894273
v 0 0.265331 1.028625
v 0.124164 0.084558 0.771412
v 0.134352 0.344033 0.894273
v 0.124164 0.084558 0.771412
v 0.124164 0.309704 0.554544
v -0.124164 0.084558 0.771412
v 0 0.265331 1.028625
v -0.134352 0.344033 0.894273
v -0.124164 0.309704 0.554544
v -0.124164 0.084558 0.771412
v -0.134352 0.344033 0.894273
v -0.124164 0.084558 -0.287436
v -0.124164 0.416543 -0.287436
v 0 0.483647 -0.287436
v 0 0.483647 -0.287436
v 0.124164 0.416543 -0.287436
v -0.124164 0.084558 -0.287436
v 0.124164 0.084558 -0.287436
v -0.124164 0.084558 -0.287436
v 0.124164 0.084558 -0.287436
v 0.124164 0.084558 0.01529
v -0.124164 0.084558 0.01529
v 0.124164 0.084558 -0.287436
v 0.124164 0.309704 0.457514
v 0.124164 0.084558 0.01529
v 0.124164 0.416543 -0.287436
v 0 0.483647 -0.287436
v 0 0.412663 -0.227408
v 0.124164 0.345558 -0.227408
v -0.124164 0.416543 -0.287436
v -0.124164 0.084558 -0.287436
v -0.124164 0.345558 -0.227408
v -0.124164 0.380541 0.328628
v -0.124164 0.309704 0.457514
v 0 0.376808 0.457514
v 0 0.447645 0.328628
v 0 0.802739 1.028625
v 0 0.762351 1.155984
v 0.089096 0.76131 1.120867
v 0.130211 0.760269 1.028625
v 0.089096 0.76131 0.936383
v 0 0.802739 1.028625
v 0 0.762351 0.901267
v 0 0.675683 1.244052
v 0 0.612285 1.258645
v 0.098901 0.593229 1.244985
v 0.157656 0.673185 1.177121
v 0.190002 0.534035 1.218627
v 0.268704 0.534035 1.028625
v 0.224498 0.672123 1.028604
v 0.190002 0.534035 0.838623
v 0.157656 0.673185 0.880087
v 0 0.534035 0.759921
v 0 0.674051 0.811071
v 0 0.445969 1.267653
v 0.177914 0.439034 1.202302
v 0.190002 0.534035 1.218627
v 0.251429 0.427056 1.026625
v 0.178083 0.424714 0.846413
v 0 0.407919 0.799916
v 0 0.265331 1.028625
v 0.114753 0.332552 1.143378
v 0 0.308879 1.171575
v 0.134352 0.344033 0.894273
v 0.190002 0.344033 1.028625
v 0 0.445969 1.267653
v 0.11859 0.532249 1.422555
v 0.071232 0.532129 1.4671
v 0.098901 0.593229 1.244985
v 0 0.612285 1.258645
v 0.11859 0.532249 1.422555
v 0.190002 0.534035 1.218627
v 0.071232 0.532129 1.4671
v 0 0.532001 1.48889
v 0 0.532001 1.48889
v 0.190002 0.534035 1.218627
v 0 0.374815 1.240839
v 0.146055 0.369556 1.173542
v 0.134352 0.344033 0.894273
v 0 0.802739 1.028625
v -0.089096 0.76131 1.120867
v 0 0.762351 1.155984
v -0.130211 0.760269 1.028625
v -0.089096 0.76131 0.936383
v 0 0.802739 1.028625
v 0 0.762351 0.901267
v 0 0.675683 1.244052
v -0.157656 0.673185 1.177121
v -0.098901 0.593229 1.244985
v 0 0.612285 1.258645
v -0.224498 0.672123 1.028604
v -0.268704 0.534035 1.028625
v -0.190002 0.534035 1.218627
v -0.157656 0.673185 0.880087
v -0.190002 0.534035 0.838623
v 0 0.674051 0.811071
v 0 0.534035 0.759921
v 0 0.445969 1.267653
v -0.190002 0.534035 1.218627
v -0.177914 0.439034 1.202302
v -0.251429 0.427056 1.026625
v -0.178083 0.424714 0.846413
v 0 0.407919 0.799916
v 0 0.265331 1.028625
v 0 0.308879 1.171575
v -0.114753 0.332552 1.143378
v -0.190002 0.344033 1.028625
v -0.134352 0.344033 0.894273
v 0 0.445969 1.267653
v -0.071232 0.532129 1.4671
v -0.11859 0.532249 1.422555
v -0.098901 0.593229 1.244985
v -0.11859 0.532249 1.422555
v 0 0.612285 1.258645
v -0.190002 0.534035 1.218627
v -0.071232 0.532129 1.4671
v 0 0.532001 1.48889
v 0 0.532001 1.48889
v -0.190002 0.534035 1.218627
v -0.146055 0.369556 1.173542
v 0 0.374815 1.240839
v -0.134352 0.344033 0.894273
v 0.118885 0.309301 0.556129
v 0.260465 0.339102 0.501289
v 0.117342 0.232518 0.556129
v 0.124067 0.329322 0.760372
v 0.121457 0.266409 0.771299
v 0.260465 0.339102 0.56576
v 0.117342 0.232518 0.556129
v 0.260465 0.339102 0.501289
v 0.260465 0.339102 0.56576
v 0.121457 0.266409 0.771299
v 0.260465 0.339102 0.501289
v 0.118885 0.309301 0.556129
v 0.124067 0.329322 0.760372
v 0.260465 0.339102 0.56576
v -0.118885 0.309301 0.556129
v -0.117342 0.232518 0.556129
v -0.260465 0.339102 0.501289
v -0.124067 0.329322 0.760372
v -0.260465 0.339102 0.56576
v -0.121457 0.266409 0.771299
v -0.117342 0.232518 0.556129
v -0.121457 0.266409 0.771299
v -0.260465 0.339102 0.56576
v -0.260465 0.339102 0.501289
v -0.260465 0.339102 0.501289
v -0.260465 0.339102 0.56576
v -0.124067 0.329322 0.760372
v -0.118885 0.309301 0.556129
v -0.124164 0.416543 -0.287436
v -0.124164 0.345558 -0.227408
v 0.124164 0.309704 0.457514
v 0.124164 0.380541 0.328628
v 0 0.495753 -0.069082
v 0 0.534212 0.015309
v 0.124164 0.467108 0.015309
v 0.124164 0.428649 -0.069082
v -0.124164 0.428649 -0.069082
v -0.124164 0.467108 0.015309
v 0 0.508663 0.228566
v 0.124164 0.441559 0.228566
v -0.124164 0.441559 0.228566
v 0 0.533985 0.131392
v 0.124164 0.466881 0.131392
v -0.124164 0.466881 0.131392
v 0 0.398613 -0.168659
v 0.124164 0.331508 -0.168659
v -0.124164 0.331508 -0.168659
v 0.124164 0.309704 0.457514
v 0.124164 0.084558 0.458275
v -0.124164 0.084558 0.458275
v 0.124164 0.084558 0.458275
v -0.124164 0.084558 0.458275
v -0.124164 0.309704 0.457514
v 0.124164 0.416543 -0.287436
v 0.124164 0.345558 -0.227408
v 0.124164 0.331508 -0.168659
v 0.124164 0.380541 0.328628
v 0.124164 0.467108 0.015309
v 0.124164 0.466881 0.131392
v 0.124164 0.084558 -0.287436
v 0.124164 0.331508 -0.168659
v 0.124164 0.428649 -0.069082
v 0.124164 0.441559 0.228566
v -0.124164 0.309704 0.457514
v -0.124164 0.380541 0.328628
v -0.124164 0.309704 0.457514
v -0.124164 0.084558 0.01529
v -0.124164 0.084558 -0.287436
v -0.124164 0.380541 0.328628
v -0.124164 0.441559 0.228566
v -0.124164 0.466881 0.131392
v -0.124164 0.467108 0.015309
v -0.124164 0.428649 -0.069082
v -0.124164 0.331508 -0.168659
v -0.124164 0.331508 -0.168659
vt 0.50102 0.064881
vt 0.603675 0.09587
vt 0.483954 0.122394
vt 0.483954 0.007369
vt 0.603675 0.033893
vt 0.603675 0.064881
vt 0.488412 0.139576
vt 0.595446 0.108506
vt 0.595512 0.170271
vt 0.552619 0.259279
vt 0.495319 0.219036
vt 0.595512 0.170271
vt 0.552619 0.259279
vt 0.595512 0.170271
vt 0.669232 0.220949
vt 0.595512 0.170291
vt 0.495319 0.219056
vt 0.552619 0.259299
vt 0.669232 0.220968
vt 0.595512 0.170291
vt 0.552619 0.259299
vt 0.995839 0.170354
vt 0.995827 0.272888
vt 0.964839 0.272894
vt 0.964839 0.272894
vt 0.93385 0.2729
vt 0.995839 0.170354
vt 0.933862 0.170327
vt 0.933823 0.108258
vt 0.933862 0.170327
vt 0.837127 0.170315
vt 0.83708 0.108329
vt 0.933862 0.170327
vt 0.726722 0.220875
vt 0.837127 0.170315
vt 0.876994 0.033893
vt 0.876994 0.064881
vt 0.864902 0.064881
vt 0.864902 0.033894
vt 0.933858 0.272868
vt 0.933862 0.170327
vt 0.923065 0.268248
vt 0.69736 0.09587
vt 0.661117 0.09587
vt 0.661117 0.064881
vt 0.69736 0.064883
vt 0.208078 0.261303
vt 0.165457 0.246978
vt 0.18357 0.226445
vt 0.206783 0.21979
vt 0.23113 0.227371
vt 0.208078 0.261303
vt 0.251737 0.244941
vt 0.11614 0.21746
vt 0.101043 0.198971
vt 0.122745 0.169639
vt 0.158321 0.180835
vt 0.138126 0.130855
vt 0.204493 0.132018
vt 0.205127 0.174523
vt 0.266356 0.138253
vt 0.251449 0.183243
vt 0.328454 0.156611
vt 0.297253 0.209493
vt 0.106741 0.058719
vt 0.154269 0.099856
vt 0.138126 0.130855
vt 0.21065 0.101523
vt 0.267947 0.102075
vt 0.328201 0.103321
vt 0.214423 0.005998
vt 0.177138 0.054776
vt 0.149908 0.026321
vt 0.268347 0.068737
vt 0.216137 0.072621
vt 0.080652 0.067674
vt 0.044766 0.131666
vt 0.027107 0.118033
vt 0.098932 0.16552
vt 0.082051 0.196471
vt 0.044766 0.131666
vt 0.117949 0.131894
vt 0.026858 0.144979
vt 0.00765 0.159258
vt 0.008166 0.103409
vt 0.117949 0.131894
vt 0.130363 0.037464
vt 0.166337 0.07298
vt 0.268347 0.068737
vt 0.208078 0.261303
vt 0.183345 0.226765
vt 0.165625 0.246785
vt 0.206194 0.219966
vt 0.230569 0.227238
vt 0.208078 0.261303
vt 0.252275 0.245429
vt 0.11614 0.21746
vt 0.158321 0.180835
vt 0.122745 0.169639
vt 0.101043 0.198971
vt 0.205127 0.174523
vt 0.204493 0.132018
vt 0.138126 0.130855
vt 0.251449 0.183243
vt 0.266356 0.138253
vt 0.297253 0.209493
vt 0.328454 0.156611
vt 0.106741 0.058719
vt 0.138126 0.130855
vt 0.154269 0.099856
vt 0.21065 0.101523
vt 0.267947 0.102075
vt 0.328201 0.103321
vt 0.214423 0.005998
vt 0.149908 0.026321
vt 0.177138 0.054776
vt 0.216137 0.072621
vt 0.268347 0.068737
vt 0.080652 0.067674
vt 0.027107 0.118033
vt 0.044766 0.131666
vt 0.098932 0.16552
vt 0.044766 0.131666
vt 0.082051 0.196471
vt 0.117949 0.131894
vt 0.026858 0.144979
vt 0.00765 0.159258
vt 0.008166 0.103409
vt 0.117949 0.131894
vt 0.166337 0.07298
vt 0.130363 0.037464
vt 0.268347 0.068737
vt 0.350807 0.184631
vt 0.440176 0.208974
vt 0.327501 0.207143
vt 0.350804 0.092453
vt 0.363107 0.06248
vt 0.440176 0.180354
vt 0.45487 0.071224
vt 0.468666 0.183067
vt 0.440176 0.180354
vt 0.363107 0.06248
vt 0.440176 0.208974
vt 0.350807 0.184631
vt 0.350804 0.092453
vt 0.440176 0.180354
vt 0.350807 0.184631
vt 0.327501 0.207143
vt 0.440176 0.208974
vt 0.350804 0.092453
vt 0.440176 0.180354
vt 0.363107 0.06248
vt 0.45487 0.071224
vt 0.363107 0.06248
vt 0.440176 0.180354
vt 0.468666 0.183067
vt 0.440176 0.208974
vt 0.440176 0.180354
vt 0.350804 0.092453
vt 0.350807 0.184631
vt 0.876994 0.09587
vt 0.864902 0.095869
vt 0.661117 0.033893
vt 0.69736 0.033891
vt 0.828625 0.064881
vt 0.803203 0.064881
vt 0.803203 0.033894
vt 0.828625 0.033895
vt 0.828625 0.095868
vt 0.803203 0.095869
vt 0.746656 0.064882
vt 0.746655 0.033892
vt 0.746655 0.09587
vt 0.777781 0.064881
vt 0.777781 0.033893
vt 0.777781 0.09587
vt 0.85281 0.064881
vt 0.85281 0.033894
vt 0.85281 0.095869
vt 0.726722 0.220875
vt 0.695574 0.170312
vt 0.695516 0.108438
vt 0.695574 0.170312
vt 0.695573 0.170302
vt 0.726722 0.220895
vt 0.93385 0.2729
vt 0.92312 0.268191
vt 0.912391 0.263482
vt 0.763556 0.220828
vt 0.86593 0.246878
vt 0.840928 0.239693
vt 0.933862 0.170327
vt 0.912391 0.263482
vt 0.890931 0.254063
vt 0.809831 0.230161
vt 0.726722 0.220895
vt 0.762626 0.216565
vt 0.726722 0.220895
vt 0.837127 0.170317
vt 0.933862 0.170327
vt 0.762626 0.216565
vt 0.810419 0.230322
vt 0.840944 0.239526
vt 0.865815 0.246957
vt 0.890685 0.254388
vt 0.912272 0.263628
vt 0.912272 0.263628
vn 0 0.992879 -0.119125
vn -0.476848 0.877348 -0.05364
vn -0.484873 0.86858 -0.102308
vn 0.484873 0.86858 -0.102308
vn 0.476848 0.877348 -0.05364
vn 0 0.997934 -0.06425
vn 0 -0.818149 0.575006
vn 0 -0.965532 0.260285
vn 0 -0.965532 0.260285
vn 0.756764 -0.303783 0.578813
vn 0.756764 -0.303783 0.578813
vn 0.756764 -0.303783 0.578813
vn 0.999281 -0.026305 -0.027309
vn 0.999741 -0.015801 -0.016404
vn 0.999944 -0.007344 -0.007625
vn -0.756764 -0.303783 0.578813
vn -0.756764 -0.303783 0.578813
vn -0.756764 -0.303783 0.578813
vn -0.999944 -0.007344 -0.007624
vn -0.999741 -0.015801 -0.016404
vn -0.999281 -0.026305 -0.027309
vn 0 0 -1
vn 0 0 -1
vn 0 0 -1
vn 0 0 -1
vn 0 0 -1
vn 0 0 -1
vn 0 0 -1
vn 0 -1 0
vn 0 -1 0
vn 0 -1 0
vn 0 -1 0
vn 1 0 0
vn 1 0 0
vn 1 0 0
vn 0.329491 0.609662 0.720935
vn 0 0.64572 0.763574
vn 0 0.82047 0.571689
vn 0.427141 0.790346 0.439207
vn -1 0 0
vn -1 0 0
vn -1 0 0
vn -0.424299 0.785087 0.451231
vn -0.465304 0.860959 0.205528
vn 0 0.963157 0.26894
vn 0 0.863539 0.504282
vn 0 1 0
vn 0 0.829358 0.558717
vn 0.386929 0.829614 0.402525
vn 0.550552 0.834801 0.000025
vn 0.387065 0.829839 -0.401929
vn 0 1 0
vn 0 0.829991 -0.557777
vn 0 0.542197 0.840252
vn 0 0.396266 0.918136
vn 0.371715 0.367584 0.852473
vn 0.613931 0.523313 0.590959
vn 0.761079 0.063457 0.645548
vn 0.996968 0.077677 0.004663
vn 0.858124 0.513442 -0.000032
vn 0.695717 0.074353 -0.714457
vn 0.611789 0.516363 -0.599235
vn 0 0.069043 -0.997614
vn 0 0.520275 -0.853999
vn 0 -0.382003 0.924161
vn 0.650452 -0.340583 0.678908
vn 0.761079 0.063457 0.645548
vn 0.929113 -0.369748 0.006017
vn 0.631011 -0.387782 -0.6719
vn 0 -0.33107 -0.943606
vn 0 -0.994608 0.103705
vn 0.396062 -0.827544 0.397877
vn 0 -0.862437 0.506164
vn 0.534435 -0.723912 -0.43627
vn 0.656916 -0.753742 0.01829
vn 0 -0.972496 0.23292
vn 0.346543 -0.906862 0.239811
vn 0.186133 -0.924421 0.332867
vn 0.400992 0.879161 0.257453
vn 0 0.952736 0.303801
vn 0.314373 0.911413 0.26551
vn 0.447199 -0.881957 0.148878
vn 0.165576 0.938124 0.304152
vn 0 0.944243 0.32925
vn 0 -0.932012 0.362427
vn 0.574546 0.791568 0.208129
vn 0 -0.57319 0.819423
vn 0.539102 -0.60989 0.580864
vn 0.534435 -0.723912 -0.43627
vn 0 1 0
vn -0.386929 0.829614 0.402525
vn 0 0.829358 0.558717
vn -0.550552 0.834801 0.000025
vn -0.387065 0.829839 -0.401929
vn 0 1 0
vn 0 0.829991 -0.557777
vn 0 0.542197 0.840252
vn -0.613931 0.523313 0.590959
vn -0.371715 0.367584 0.852473
vn 0 0.396266 0.918136
vn -0.858124 0.513442 -0.000032
vn -0.996968 0.077677 0.004663
vn -0.761079 0.063457 0.645548
vn -0.611789 0.516363 -0.599235
vn -0.695717 0.074353 -0.714457
vn 0 0.520275 -0.853999
vn 0 0.069043 -0.997614
vn 0 -0.382003 0.924161
vn -0.761079 0.063457 0.645548
vn -0.650452 -0.340583 0.678907
vn -0.929113 -0.369748 0.006017
vn -0.631011 -0.387782 -0.6719
vn 0 -0.33107 -0.943606
vn 0 -0.994608 0.103705
vn 0 -0.862437 0.506164
vn -0.396062 -0.827544 0.397877
vn -0.656916 -0.753742 0.01829
vn -0.534434 -0.723912 -0.43627
vn 0 -0.972496 0.23292
vn -0.186133 -0.924421 0.332867
vn -0.346543 -0.906862 0.239811
vn -0.400992 0.879161 0.257453
vn -0.314373 0.911413 0.26551
vn 0 0.952736 0.303801
vn -0.447199 -0.881957 0.148878
vn -0.165576 0.938124 0.304152
vn 0 0.944243 0.32925
vn 0 -0.932012 0.362427
vn -0.574546 0.791568 0.208129
vn -0.539102 -0.60989 0.580864
vn 0 -0.57319 0.819423
vn -0.534434 -0.723912 -0.43627
vn -0.362518 0.007283 -0.931948
vn -0.362518 0.007283 -0.931948
vn -0.362518 0.007283 -0.931948
vn 0.815548 0.066016 0.574912
vn 0.815548 0.066016 0.574911
vn 0.815548 0.066016 0.574911
vn 0.591098 -0.801733 0.088467
vn 0.591098 -0.801733 0.088467
vn 0.591098 -0.801733 0.088467
vn 0.591098 -0.801733 0.088467
vn -0.200989 0.977166 -0.068926
vn -0.200989 0.977166 -0.068926
vn -0.200989 0.977166 -0.068926
vn -0.200989 0.977166 -0.068926
vn 0.362518 0.007283 -0.931948
vn 0.362518 0.007283 -0.931948
vn 0.362518 0.007283 -0.931948
vn -0.815548 0.066016 0.574912
vn -0.815548 0.066016 0.574911
vn -0.815548 0.066016 0.574911
vn -0.591098 -0.801733 0.088467
vn -0.591098 -0.801733 0.088467
vn -0.591098 -0.801733 0.088467
vn -0.591098 -0.801733 0.088467
vn 0.200989 0.977166 -0.068926
vn 0.200989 0.977166 -0.068926
vn 0.200989 0.977166 -0.068926
vn 0.200989 0.977166 -0.068926
vn -0.329491 0.609662 0.720935
vn -0.427141 0.790346 0.439207
vn 0.465304 0.860959 0.205528
vn 0.424299 0.785087 0.451231
vn 0 0.840615 -0.541634
vn 0 0.980001 -0.198994
vn 0.465858 0.861985 -0.199894
vn 0.399685 0.739544 -0.541597
vn -0.399685 0.739544 -0.541597
vn -0.465858 0.861985 -0.199894
vn 0 0.926835 0.375469
vn 0.442575 0.818903 0.365411
vn -0.442575 0.818903 0.365411
vn 0 0.992347 0.123482
vn 0.472164 0.873653 0.117434
vn -0.472164 0.873653 0.117434
vn 0 0.949749 -0.313012
vn 0.465082 0.86055 -0.207731
vn -0.465082 0.86055 -0.207731
vn 1 0 0
vn 0 -1 0
vn 0 -1 0
vn 1 0 0
vn -1 0 0
vn -1 0 0
vn 1 0 0
vn 1 0 0
vn 1 0 0
vn 1 0 0
vn 1 0 0
vn 1 0 0
vn 1 0 0
vn 1 0 0
vn 1 0 0
vn 1 0 0
vn -1 0 0
vn -1 0 0
vn -1 0 0
vn -1 0 0
vn -1 0 0
vn -1 0 0
vn -1 0 0
vn -1 0 0
vn -1 0 0
vn -1 0 0
vn -1 0 0
vn -1 0 0
usemtl datan_common_ss0_body64_prt_5b4047be
f 1/1/1 2/2/2 3/3/3
f 1/1/1 4/4/4 5/5/5
f 1/1/1 6/6/6 2/2/2
f 1/1/1 5/5/5 6/6/6
f 44/44/44 2/2/2 6/6/6
f 6/6/6 5/5/5 163/163/163
f 163/163/163 45/45/45 6/6/6
f 6/6/6 45/45/45 44/44/44
f 43/43/43 44/44/44 45/45/45
f 45/45/45 46/46/46 43/43/43
f 46/46/46 45/45/45 163/163/163
f 163/163/163 164/164/164 46/46/46
f 171/171/171 46/46/46 164/164/164
f 173/173/173 43/43/43 46/46/46
f 46/46/46 171/171/171 173/173/173
f 164/164/164 172/172/172 171/171/171
f 174/174/174 171/171/171 172/172/172
f 176/176/176 173/173/173 171/171/171
f 171/171/171 174/174/174 176/176/176
f 172/172/172 175/175/175 174/174/174
f 166/166/166 174/174/174 175/175/175
f 170/170/170 176/176/176 174/174/174
f 174/174/174 166/166/166 170/170/170
f 175/175/175 167/167/167 166/166/166
f 165/165/165 166/166/166 167/167/167
f 169/169/169 170/170/170 166/166/166
f 166/166/166 165/165/165 169/169/169
f 167/167/167 168/168/168 165/165/165
f 177/177/177 165/165/165 168/168/168
f 179/179/179 169/169/169 165/165/165
f 165/165/165 177/177/177 179/179/179
f 168/168/168 178/178/178 177/177/177
f 38/38/38 177/177/177 178/178/178
f 162/162/162 179/179/179 177/177/177
f 177/177/177 38/38/38 162/162/162
f 178/178/178 39/39/39 38/38/38
f 36/36/36 37/37/37 38/38/38
f 38/38/38 39/39/39 36/36/36
f 162/162/162 38/38/38 37/37/37
f 37/37/37 161/161/161 162/162/162
f 7/7/7 8/8/8 9/9/9
f 181/181/181 9/9/9 8/8/8
f 8/8/8 182/182/182 181/181/181
f 31/31/31 181/181/181 182/182/182
f 182/182/182 32/32/32 31/31/31
f 29/29/29 30/30/30 31/31/31
f 31/31/31 32/32/32 29/29/29
f 10/10/10 11/11/11 12/12/12
f 13/13/13 14/14/14 15/15/15
f 180/180/180 15/15/15 14/14/14
f 34/34/34 14/14/14 183/183/183
f 33/33/33 34/34/34 35/35/35
f 33/33/33 189/189/189 34/34/34
f 34/34/34 183/183/183 35/35/35
f 33/33/33 195/195/195 189/189/189
f 33/33/33 191/191/191 195/195/195
f 33/33/33 190/190/190 191/191/191
f 33/33/33 186/186/186 187/187/187
f 187/187/187 188/188/188 33/33/33
f 33/33/33 194/194/194 190/190/190
f 192/192/192 193/193/193 194/194/194
f 16/16/16 17/17/17 18/18/18
f 19/19/19 20/20/20 21/21/21
f 20/20/20 19/19/19 198/198/198
f 184/184/184 20/20/20 185/185/185
f 199/199/199 184/184/184 185/185/185
f 41/41/41 199/199/199 185/185/185
f 40/40/40 41/41/41 42/42/42
f 41/41/41 196/196/196 197/197/197
f 41/41/41 207/207/207 42/42/42
f 22/22/22 23/23/23 24/24/24
f 22/22/22 26/26/26 28/28/28
f 25/25/25 26/26/26 27/27/27
f 47/47/47 48/48/48 49/49/49
f 47/47/47 49/49/49 50/50/50
f 47/47/47 50/50/50 51/51/51
f 48/48/48 54/54/54 57/57/57
f 57/57/57 49/49/49 48/48/48
f 49/49/49 57/57/57 60/60/60
f 60/60/60 50/50/50 49/49/49
f 50/50/50 60/60/60 62/62/62
f 62/62/62 51/51/51 50/50/50
f 52/52/52 51/51/51 53/53/53
f 51/51/51 62/62/62 64/64/64
f 64/64/64 53/53/53 51/51/51
f 61/61/61 62/62/62 60/60/60
f 62/62/62 61/61/61 63/63/63
f 63/63/63 64/64/64 62/62/62
f 59/59/59 60/60/60 57/57/57
f 60/60/60 59/59/59 61/61/61
f 69/69/69 61/61/61 59/59/59
f 61/61/61 69/69/69 70/70/70
f 70/70/70 63/63/63 61/61/61
f 57/57/57 58/58/58 59/59/59
f 68/68/68 59/59/59 58/58/58
f 59/59/59 68/68/68 69/69/69
f 74/74/74 69/69/69 68/68/68
f 69/69/69 89/89/89 70/70/70
f 67/67/67 66/66/66 68/68/68
f 68/68/68 75/75/75 74/74/74
f 75/75/75 68/68/68 66/66/66
f 71/71/71 74/74/74 75/75/75
f 75/75/75 72/72/72 71/71/71
f 66/66/66 88/88/88 75/75/75
f 75/75/75 88/88/88 72/72/72
f 65/65/65 66/66/66 67/67/67
f 88/88/88 66/66/66 65/65/65
f 65/65/65 87/87/87 88/88/88
f 72/72/72 88/88/88 87/87/87
f 71/71/71 72/72/72 73/73/73
f 87/87/87 73/73/73 72/72/72
f 56/56/56 58/58/58 57/57/57
f 54/54/54 55/55/55 56/56/56
f 56/56/56 57/57/57 54/54/54
f 76/76/76 77/77/77 78/78/78
f 76/76/76 82/82/82 77/77/77
f 78/78/78 85/85/85 76/76/76
f 79/79/79 80/80/80 81/81/81
f 81/81/81 86/86/86 79/79/79
f 80/80/80 83/83/83 81/81/81
f 80/80/80 84/84/84 83/83/83
f 90/90/90 91/91/91 92/92/92
f 90/90/90 93/93/93 91/91/91
f 90/90/90 94/94/94 93/93/93
f 92/92/92 91/91/91 98/98/98
f 91/91/91 93/93/93 101/101/101
f 101/101/101 98/98/98 91/91/91
f 98/98/98 97/97/97 92/92/92
f 97/97/97 98/98/98 99/99/99
f 98/98/98 101/101/101 102/102/102
f 102/102/102 103/103/103 98/98/98
f 99/99/99 98/98/98 103/103/103
f 101/101/101 104/104/104 105/105/105
f 105/105/105 102/102/102 101/101/101
f 104/104/104 101/101/101 93/93/93
f 93/93/93 94/94/94 104/104/104
f 104/104/104 106/106/106 107/107/107
f 107/107/107 105/105/105 104/104/104
f 106/106/106 104/104/104 94/94/94
f 102/102/102 105/105/105 112/112/112
f 105/105/105 107/107/107 113/113/113
f 113/113/113 112/112/112 105/105/105
f 103/103/103 102/102/102 111/111/111
f 112/112/112 111/111/111 102/102/102
f 111/111/111 112/112/112 118/118/118
f 112/112/112 113/113/113 132/132/132
f 111/111/111 110/110/110 109/109/109
f 118/118/118 117/117/117 111/111/111
f 130/130/130 110/110/110 111/111/111
f 111/111/111 117/117/117 130/130/130
f 114/114/114 117/117/117 118/118/118
f 116/116/116 117/117/117 114/114/114
f 116/116/116 130/130/130 117/117/117
f 108/108/108 110/110/110 130/130/130
f 130/130/130 131/131/131 108/108/108
f 130/130/130 116/116/116 115/115/115
f 115/115/115 131/131/131 130/130/130
f 108/108/108 109/109/109 110/110/110
f 114/114/114 115/115/115 116/116/116
f 95/95/95 96/96/96 94/94/94
f 94/94/94 96/96/96 106/106/106
f 99/99/99 100/100/100 97/97/97
f 119/119/119 120/120/120 121/121/121
f 119/119/119 121/121/121 125/125/125
f 120/120/120 119/119/119 128/128/128
f 122/122/122 123/123/123 124/124/124
f 123/123/123 122/122/122 129/129/129
f 124/124/124 123/123/123 126/126/126
f 124/124/124 126/126/126 127/127/127
f 133/133/133 134/134/134 135/135/135
f 136/136/136 137/137/137 138/138/138
f 139/139/139 140/140/140 141/141/141
f 141/141/141 142/142/142 139/139/139
f 143/143/143 144/144/144 145/145/145
f 145/145/145 146/146/146 143/143/143
f 147/147/147 148/148/148 149/149/149
f 150/150/150 151/151/151 152/152/152
f 153/153/153 154/154/154 155/155/155
f 155/155/155 156/156/156 153/153/153
f 157/157/157 158/158/158 159/159/159
f 159/159/159 160/160/160 157/157/157
f 200/200/200 201/201/201 202/202/202
f 200/200/200 202/202/202 203/203/203
f 200/200/200 204/204/204 205/205/205
f 200/200/200 205/205/205 206/206/206
f 200/200/200 203/203/203 204/204/204
