# Generated from Nova1492 GX by tools/nova1492/GxObjConverter
mtllib datan_common_body38_qrso_221babe8.mtl
o datan_common_body38_qrso_221babe8_mesh00
v -0.097138 0.201667 -0.016904
v -0.082427 0.379904 -0.016904
v 0.082427 0.379904 -0.016904
v 0.097138 0.201667 -0.016904
v -0.097138 0.201667 0.577473
v 0.097138 0.201667 0.577473
v 0.082427 0.379904 0.605898
v -0.082427 0.379904 0.605898
v 0.082427 0.379904 0.605898
v 0.097138 0.201667 0.577473
v -0.082427 0.379904 0.605898
v -0.097138 0.201667 0.577473
v -0.058611 0.000031 0.036665
v -0.065791 0.220539 -0.016904
v 0.065791 0.220539 -0.016904
v 0.058611 0.000031 0.036665
v -0.058611 0.000031 0.475483
v 0.058611 0.000031 0.475483
v 0.065791 0.220539 0.52893
v -0.065791 0.220539 0.52893
v 0.065791 0.220539 0.52893
v 0.058611 0.000031 0.475483
v -0.065791 0.220539 0.52893
v -0.058611 0.000031 0.475483
vt 0.996026 0.578634
vt 0.996026 0.989958
vt 0.996026 0.989958
vt 0.996026 0.578634
vt 0.008062 0.578424
vt 0.247642 0.578424
vt 0.229229 0.990508
vt 0.026796 0.990508
vt 0.23144 0.989958
vt 0.266411 0.578634
vt 0.23144 0.989958
vt 0.266411 0.578634
vt 0.930339 0.01368
vt 0.996187 0.522972
vt 0.996187 0.522972
vt 0.930339 0.01368
vt 0.055641 0.014574
vt 0.199341 0.014574
vt 0.208686 0.523474
vt 0.046801 0.523474
vt 0.325013 0.522972
vt 0.390916 0.01368
vt 0.325013 0.522972
vt 0.390916 0.01368
vn -0.723418 0.059706 -0.687824
vn -0.55095 0.598295 -0.581805
vn 0.55095 0.598295 -0.581805
vn 0.723418 0.059706 -0.687824
vn -0.759844 -0.040763 0.648826
vn 0.759844 -0.040763 0.648826
vn 0.544871 0.552011 0.631189
vn -0.544871 0.552011 0.631189
vn 0.544871 0.552011 0.631189
vn 0.759844 -0.040763 0.648826
vn -0.544871 0.552011 0.631189
vn -0.759844 -0.040763 0.648826
vn -0.745319 -0.180207 -0.641892
vn -0.574967 0.502523 -0.645666
vn 0.574967 0.502523 -0.645666
vn 0.745319 -0.180207 -0.641892
vn -0.74523 -0.179895 0.642083
vn 0.74523 -0.179895 0.642083
vn 0.574993 0.502679 0.645521
vn -0.574993 0.502679 0.645521
vn 0.574993 0.502679 0.645521
vn 0.74523 -0.179895 0.642083
vn -0.574993 0.502679 0.645521
vn -0.74523 -0.179895 0.642083
usemtl datan_common_body38_qrso_221babe8
f 1/1/1 2/2/2 3/3/3
f 3/3/3 4/4/4 1/1/1
f 5/5/5 6/6/6 7/7/7
f 7/7/7 8/8/8 5/5/5
f 4/4/4 3/3/3 9/9/9
f 9/9/9 10/10/10 4/4/4
f 3/3/3 2/2/2 11/11/11
f 11/11/11 9/9/9 3/3/3
f 2/2/2 1/1/1 12/12/12
f 12/12/12 11/11/11 2/2/2
f 13/13/13 14/14/14 15/15/15
f 15/15/15 16/16/16 13/13/13
f 17/17/17 18/18/18 19/19/19
f 19/19/19 20/20/20 17/17/17
f 16/16/16 15/15/15 21/21/21
f 21/21/21 22/22/22 16/16/16
f 15/15/15 14/14/14 23/23/23
f 23/23/23 21/21/21 15/15/15
f 14/14/14 13/13/13 24/24/24
f 24/24/24 23/23/23 14/14/14
o datan_common_body38_qrso_221babe8_mesh01
v 0.136092 0.265777 -0.014922
v 0.060536 0.253378 -0.072484
v 0.060536 0.327895 -0.072484
v 0.136092 0.315496 -0.014922
v 0.136092 0.248131 0.494514
v 0.136092 0.333142 0.494514
v 0.060536 0.354343 0.55183
v 0.060536 0.22693 0.537311
v 0.169593 0.225089 0.230189
v 0.060536 0.217929 0.224096
v 0.169593 0.356184 0.230189
v 0.060536 0.363344 0.224096
v 0.136092 0.248131 0.494514
v 0.060536 0.22693 0.537311
v 0.136092 0.333142 0.494514
v 0.060536 0.354343 0.55183
v -0.062458 0.328667 -0.059176
v -0.037723 0.456794 -0.016905
v 0.037724 0.456794 -0.016905
v 0.062459 0.328667 -0.059176
v -0.072547 0.328667 0.563221
v 0.072547 0.328667 0.563221
v 0.043817 0.480874 0.494514
v -0.043816 0.480874 0.494514
v 0.043817 0.480874 0.494514
v 0.072547 0.328667 0.563221
v -0.043816 0.480874 0.494514
v -0.072547 0.328667 0.563221
v -0.135117 0.265777 -0.014922
v -0.059561 0.327895 -0.072484
v -0.059561 0.253378 -0.072484
v -0.135117 0.315496 -0.014922
v -0.135117 0.248131 0.494514
v -0.059561 0.354343 0.55183
v -0.135117 0.333142 0.494514
v -0.059561 0.22693 0.537311
v -0.059561 0.217929 0.224096
v -0.168618 0.225089 0.230189
v -0.168618 0.356184 0.230189
v -0.059561 0.363344 0.224096
v -0.135117 0.248131 0.494514
v -0.059561 0.22693 0.537311
v -0.135117 0.333142 0.494514
v -0.059561 0.354343 0.55183
vt 0.918144 0.14682
vt 0.991214 0.11397
vt 0.991214 0.316642
vt 0.918144 0.282846
vt 0.154666 0.097657
vt 0.154477 0.33013
vt 0.058633 0.388578
vt 0.058633 0.04098
vt 0.607283 0.067582
vt 0.616664 0.016981
vt 0.607912 0.36038
vt 0.615234 0.412026
vt 0.27274 0.099911
vt 0.217979 0.039958
vt 0.273818 0.33018
vt 0.217143 0.389234
vt 0.973477 0.574102
vt 0.92027 0.923093
vt 0.92027 0.923093
vt 0.973477 0.574102
vt 0.005787 0.57433
vt 0.190312 0.57433
vt 0.153244 0.986957
vt 0.042603 0.986957
vt 0.274168 0.987518
vt 0.202148 0.574102
vt 0.274168 0.987518
vt 0.202148 0.574102
vt 0.918144 0.14682
vt 0.991214 0.316642
vt 0.991214 0.11397
vt 0.918144 0.282846
vt 0.154666 0.097657
vt 0.058633 0.388578
vt 0.154477 0.33013
vt 0.058633 0.04098
vt 0.616664 0.016981
vt 0.607283 0.067582
vt 0.607912 0.36038
vt 0.615234 0.412026
vt 0.27274 0.099911
vt 0.217979 0.039958
vt 0.273818 0.33018
vt 0.217143 0.389234
vn 0.742808 -0.51273 -0.430518
vn 0.580209 -0.479624 -0.65827
vn 0.580209 0.479624 -0.65827
vn 0.742808 0.51273 -0.430517
vn 0.743715 -0.51739 0.423316
vn 0.761179 0.512677 0.397202
vn 0.583647 0.496872 0.642242
vn 0.516206 -0.593862 0.617138
vn 0.729879 -0.683133 -0.02461
vn 0.105571 -0.993412 -0.044576
vn 0.729879 0.683133 -0.02461
vn 0.105964 0.993366 -0.044684
vn 0.743715 -0.51739 0.423316
vn 0.516206 -0.593862 0.617138
vn 0.761179 0.512677 0.397202
vn 0.583647 0.496872 0.642242
vn -0.635396 0.349785 -0.688421
vn -0.525425 0.694425 -0.491632
vn 0.523674 0.694911 -0.492813
vn 0.634742 0.347847 -0.690004
vn -0.607603 0.420753 0.673636
vn 0.607166 0.419284 0.674945
vn 0.53569 0.735347 0.415091
vn -0.537191 0.73483 0.414065
vn 0.53569 0.735347 0.415091
vn 0.607166 0.419284 0.674945
vn -0.537191 0.73483 0.414065
vn -0.607603 0.420753 0.673636
vn -0.742807 -0.51273 -0.430518
vn -0.580209 0.479624 -0.65827
vn -0.580209 -0.479624 -0.65827
vn -0.742808 0.51273 -0.430517
vn -0.743714 -0.51739 0.423316
vn -0.583647 0.496872 0.642242
vn -0.761179 0.512677 0.397202
vn -0.516206 -0.593862 0.617138
vn -0.10557 -0.993412 -0.044576
vn -0.729879 -0.683133 -0.02461
vn -0.729879 0.683133 -0.02461
vn -0.105964 0.993366 -0.044684
vn -0.743714 -0.51739 0.423316
vn -0.516206 -0.593862 0.617138
vn -0.761179 0.512677 0.397202
vn -0.583647 0.496872 0.642242
usemtl datan_common_body38_qrso_221babe8
f 25/25/25 26/26/26 27/27/27
f 27/27/27 28/28/28 25/25/25
f 29/29/29 30/30/30 31/31/31
f 31/31/31 32/32/32 29/29/29
f 25/25/25 33/33/33 34/34/34
f 34/34/34 26/26/26 25/25/25
f 28/28/28 35/35/35 33/33/33
f 33/33/33 25/25/25 28/28/28
f 28/28/28 27/27/27 36/36/36
f 36/36/36 35/35/35 28/28/28
f 37/37/37 38/38/38 34/34/34
f 34/34/34 33/33/33 37/37/37
f 39/39/39 37/37/37 33/33/33
f 33/33/33 35/35/35 39/39/39
f 36/36/36 40/40/40 39/39/39
f 39/39/39 35/35/35 36/36/36
f 41/41/41 42/42/42 43/43/43
f 43/43/43 44/44/44 41/41/41
f 45/45/45 46/46/46 47/47/47
f 47/47/47 48/48/48 45/45/45
f 44/44/44 43/43/43 49/49/49
f 49/49/49 50/50/50 44/44/44
f 43/43/43 42/42/42 51/51/51
f 51/51/51 49/49/49 43/43/43
f 42/42/42 41/41/41 52/52/52
f 52/52/52 51/51/51 42/42/42
f 53/53/53 54/54/54 55/55/55
f 54/54/54 53/53/53 56/56/56
f 57/57/57 58/58/58 59/59/59
f 58/58/58 57/57/57 60/60/60
f 53/53/53 61/61/61 62/62/62
f 61/61/61 53/53/53 55/55/55
f 56/56/56 62/62/62 63/63/63
f 62/62/62 56/56/56 53/53/53
f 56/56/56 64/64/64 54/54/54
f 64/64/64 56/56/56 63/63/63
f 65/65/65 61/61/61 66/66/66
f 61/61/61 65/65/65 62/62/62
f 67/67/67 62/62/62 65/65/65
f 62/62/62 67/67/67 63/63/63
f 64/64/64 67/67/67 68/68/68
f 67/67/67 64/64/64 63/63/63
o datan_common_body38_qrso_221babe8_mesh02
v -0.058611 0.034619 -0.384443
v -0.065791 0.341135 -0.438012
v 0.065791 0.341135 -0.438012
v 0.058611 0.034619 -0.384443
v 0.058611 0.034619 -0.384443
v 0.065791 0.341135 -0.438012
v 0.065791 0.341135 0.038288
v 0.058611 0.034619 0.037934
v 0.065791 0.341135 -0.438012
v -0.065791 0.341135 -0.438012
v -0.065791 0.341135 0.038288
v 0.065791 0.341135 0.038288
v -0.065791 0.341135 -0.438012
v -0.058611 0.034619 -0.384443
v -0.058611 0.034619 0.037934
v -0.065791 0.341135 0.038288
vt 0.90503 0.005564
vt 0.995942 0.992194
vt 0.995942 0.992194
vt 0.90503 0.005564
vt 0.90503 0.005564
vt 0.995942 0.992194
vt 0.002764 0.992194
vt 0.00337 0.005564
vt 0.995942 0.992194
vt 0.995942 0.992194
vt 0.002764 0.992194
vt 0.002764 0.992194
vt 0.995942 0.992194
vt 0.90503 0.005564
vt 0.00337 0.005564
vt 0.002764 0.992194
vn -0 -0.17216 -0.985069
vn -0 -0.17216 -0.985069
vn -0 -0.17216 -0.985069
vn 0 -0.17216 -0.985069
vn 0.999726 -0.023418 0
vn 0.999726 -0.023418 0
vn 0.999726 -0.023418 0
vn 0.999726 -0.023418 0
vn 0 1 0
vn 0 1 0
vn 0 1 0
vn 0 1 0
vn -0.999726 -0.023418 -0
vn -0.999726 -0.023418 -0
vn -0.999726 -0.023418 -0
vn -0.999726 -0.023418 -0
usemtl datan_common_body38_qrso_221babe8
f 69/69/69 70/70/70 71/71/71
f 71/71/71 72/72/72 69/69/69
f 73/73/73 74/74/74 75/75/75
f 75/75/75 76/76/76 73/73/73
f 77/77/77 78/78/78 79/79/79
f 79/79/79 80/80/80 77/77/77
f 81/81/81 82/82/82 83/83/83
f 83/83/83 84/84/84 81/81/81
o datan_common_body38_qrso_221babe8_mesh03
v -0.057602 0.375171 0.542834
v 0.057602 0.375171 0.542834
v 0.043817 0.480874 0.495607
v -0.043816 0.480874 0.495607
vt 0.002781 0.006662
vt 0.989239 0.006662
vt 0.914243 0.994085
vt 0.08488 0.994085
vn 0 0.407925 0.913016
vn 0 0.407925 0.913016
vn 0 0.407925 0.913016
vn 0 0.407924 0.913016
usemtl datan_common_body38_qrso_221babe8
f 85/85/85 86/86/86 87/87/87
f 87/87/87 88/88/88 85/85/85
o datan_common_body38_qrso_221babe8_mesh04
v -0.141818 0.248131 0.495607
v -0.066262 0.354343 0.552923
v -0.141818 0.333142 0.495607
v -0.066262 0.22693 0.538405
vt 0.938322 0.992741
vt 0.008002 0.009812
vt 0.066449 0.992552
vt 0.994999 0.009812
vn -0.549914 -0.058425 0.833175
vn -0.55764 -0.050432 0.828549
vn -0.604375 0 0.7967
vn -0.511056 -0.097316 0.854021
usemtl datan_common_body38_qrso_221babe8
f 89/89/89 90/90/90 91/91/91
f 90/90/90 89/89/89 92/92/92
o datan_common_body38_qrso_221babe8_mesh05
v 0.144341 0.248131 0.495607
v 0.144341 0.333142 0.495607
v 0.068785 0.354343 0.552924
v 0.068785 0.22693 0.538405
vt 0.936735 0.990249
vt 0.065123 0.990061
vt 0.006675 0.010195
vt 0.993411 0.010195
vn 0.549914 -0.058425 0.833175
vn 0.604375 0 0.7967
vn 0.55764 -0.050432 0.828549
vn 0.511055 -0.097317 0.854021
usemtl datan_common_body38_qrso_221babe8
f 93/93/93 94/94/94 95/95/95
f 95/95/95 96/96/96 93/93/93
