# Generated from Nova1492 GX by tools/nova1492/GxObjConverter
mtllib datan_common_body51_pomsx_7793cd4c.mtl
o datan_common_body51_pomsx_7793cd4c
v 0.550783 2.231418 0.000002
v -0.155923 1.063649 -0.100098
v -0.155923 1.06365 0.100102
v 0.242009 0.871083 -0.032213
v 0.242009 0.871083 0.032217
v -0.053289 -0.12353 0.000002
v 0.648135 1.059623 -0.100098
v 0.648135 1.059623 0.100102
v 0.225941 1.268641 -0.032222
v 0.225941 1.268641 0.032225
v 0.550783 2.231418 0.000002
vt 0.456018 0.976235
vt 0.047031 0.55837
vt 0.047031 0.55837
vt 0.53725 0.370307
vt 0.53725 0.370307
vt 0.099593 0.023765
vt 0.952969 0.416273
vt 0.952969 0.416273
vt 0.400631 0.644484
vt 0.400631 0.644484
vt 0.456018 0.976235
vn -0.518652 0.379547 -0.766123
vn -0.500188 -0.479461 -0.721061
vn -0.419647 -0.184095 0.888823
vn -0.459069 -0.175415 -0.870911
vn -0.515643 -0.386761 0.764544
vn -0.922938 -0.384948 -0.000001
vn 0.513575 0.471231 -0.717065
vn 0.433742 0.17889 0.8831
vn 0.468436 0.160374 -0.86882
vn 0.526668 0.372859 0.763936
vn 0.737792 -0.227662 0.635478
usemtl datan_common_body51_pomsx_7793cd4c
f 1/1/1 2/2/2 3/3/3
f 2/2/2 4/4/4 5/5/5
f 2/2/2 5/5/5 3/3/3
f 4/4/4 6/6/6 5/5/5
f 6/6/6 7/7/7 8/8/8
f 7/7/7 9/9/9 10/10/10
f 7/7/7 10/10/10 8/8/8
f 9/9/9 11/11/11 10/10/10
