# Generated from Nova1492 GX by tools/nova1492/GxObjConverter
mtllib datan_common_body19_spd_76e60ddb.mtl
o datan_common_body19_spd_76e60ddb
v -0.081788 0.314544 0.068856
v -0.179934 0.333611 -0.056323
v 0.179934 0.333611 -0.056323
v 0.081788 0.314544 0.068856
v -0.081788 0.3554 0.068856
v 0.081788 0.3554 0.068856
v 0.179934 0.374467 -0.057448
v -0.179934 0.374467 -0.057448
v 0.128524 0.374467 -0.389306
v -0.128524 0.374467 -0.389306
v 0.230383 0.001912 -0.098067
v 0.230383 0.001912 0.043733
v -0.230383 0.001912 -0.098067
v -0.230383 0.001912 0.043733
v -0.178374 0.191433 -0.244214
v -0.077893 0.273801 -0.720038
v 0.077893 0.273801 -0.720038
v 0.178374 0.191433 -0.244214
v 0.077893 0.339696 -0.720038
v -0.077893 0.339696 -0.720038
v 0.138936 0.363693 -0.057448
v 0.17789 0.001912 0.043733
v -0.17789 0.001912 0.043733
v -0.138936 0.363693 -0.057448
v 0.170651 0.001912 -0.098067
v 0.095202 0.363693 -0.389306
v -0.095202 0.363693 -0.389306
v -0.170651 0.001912 -0.098067
v 0.138936 0.363693 -0.057448
v 0.095202 0.363693 -0.389306
v 0.170651 0.001912 -0.098067
v 0.17789 0.001912 0.043733
v -0.095202 0.363693 -0.389306
v -0.138936 0.363693 -0.057448
v -0.17789 0.001912 0.043733
v -0.170651 0.001912 -0.098067
v 0.258339 0.251145 -0.351856
v 0.23597 0.293471 -0.325404
v 0.271582 0.254004 -0.154456
v 0.300378 0.204557 -0.150061
v 0.199775 0.269992 -0.303836
v 0.22499 0.242048 -0.182799
v 0.199775 0.213155 -0.316957
v 0.22499 0.185212 -0.195921
v 0.23597 0.201507 -0.346635
v 0.271582 0.162041 -0.175687
v 0.158211 0.232037 -0.064194
v 0.167105 0.179982 -0.043511
v 0.157838 0.227294 -0.118891
v 0.166734 0.17051 -0.132012
v 0.17285 0.141325 -0.085425
v -0.231643 0.293471 -0.325404
v -0.254013 0.251145 -0.351856
v -0.267256 0.254004 -0.154456
v -0.296051 0.204557 -0.150061
v -0.195448 0.269992 -0.303836
v -0.220663 0.242048 -0.182799
v -0.195448 0.213155 -0.316957
v -0.220663 0.185212 -0.195921
v -0.231643 0.201507 -0.346635
v -0.267256 0.162041 -0.175687
v -0.153884 0.232037 -0.064194
v -0.162778 0.179982 -0.043511
v -0.153511 0.227294 -0.118891
v -0.162407 0.17051 -0.132012
v -0.168523 0.141325 -0.085425
v 0.170681 0.133822 -0.274046
v 0.170681 0.133822 -0.583033
v 0.2991 0.161378 -0.583033
v 0.298732 0.161378 -0.309287
v 0.170681 0.154489 -0.683932
v 0.260156 0.176574 -0.683932
v 0.147505 0.34202 -0.274046
v 0.298732 0.314465 -0.309287
v 0.2991 0.314465 -0.583033
v 0.147505 0.34202 -0.583033
v 0.260156 0.299269 -0.683932
v 0.147505 0.321354 -0.683932
v 0.2991 0.314465 -0.583033
v 0.298732 0.314465 -0.309287
v 0.260156 0.299269 -0.683932
v 0.260156 0.18164 -0.838311
v 0.170681 0.161378 -0.90832
v 0.147505 0.314465 -0.90832
v 0.260156 0.294203 -0.838311
v 0.260156 0.294203 -0.838311
v 0.147505 0.314465 -0.90832
v 0.170681 0.133822 -0.274046
v 0.298732 0.161378 -0.309287
v 0.298732 0.314465 -0.309287
v 0.147505 0.34202 -0.274046
v 0.170681 0.154489 -0.683932
v 0.170681 0.133822 -0.583033
v 0.147505 0.34202 -0.583033
v 0.147505 0.321354 -0.683932
v 0.170681 0.133822 -0.274046
v 0.147505 0.34202 -0.274046
v 0.147505 0.314465 -0.90832
v 0.170681 0.161378 -0.90832
v -0.172622 0.133822 -0.583033
v -0.172622 0.133822 -0.274046
v -0.301041 0.161378 -0.583033
v -0.300673 0.161378 -0.309287
v -0.172622 0.154489 -0.683932
v -0.262097 0.176574 -0.683932
v -0.300673 0.314465 -0.309287
v -0.149446 0.34202 -0.274046
v -0.301041 0.314465 -0.583033
v -0.149446 0.34202 -0.583033
v -0.262097 0.299269 -0.683932
v -0.149446 0.321354 -0.683932
v -0.301041 0.314465 -0.583033
v -0.300673 0.314465 -0.309287
v -0.262097 0.299269 -0.683932
v -0.172622 0.161378 -0.90832
v -0.262097 0.18164 -0.838311
v -0.149446 0.314465 -0.90832
v -0.262097 0.294203 -0.838311
v -0.262097 0.294203 -0.838311
v -0.149446 0.314465 -0.90832
v -0.300673 0.161378 -0.309287
v -0.172622 0.133822 -0.274046
v -0.300673 0.314465 -0.309287
v -0.149446 0.34202 -0.274046
v -0.172622 0.133822 -0.583033
v -0.172622 0.154489 -0.683932
v -0.149446 0.34202 -0.583033
v -0.149446 0.321354 -0.683932
v -0.172622 0.133822 -0.274046
v -0.149446 0.34202 -0.274046
v -0.149446 0.314465 -0.90832
v -0.172622 0.161378 -0.90832
vt 0.858259 0.011883
vt 0.835874 0.081009
vt 0.914126 0.081009
vt 0.895569 0.011883
vt 0.858259 0.011883
vt 0.891741 0.011883
vt 0.914126 0.081699
vt 0.835874 0.081699
vt 0.906229 0.285253
vt 0.8476 0.285253
vt 0.994059 0.106614
vt 0.994059 0.027292
vt 0.755941 0.106614
vt 0.755941 0.027293
vt 0.841841 0.235979
vt 0.859148 0.488118
vt 0.890852 0.488117
vt 0.911987 0.228323
vt 0.894681 0.488117
vt 0.859148 0.488118
vt 0.908603 0.081699
vt 0.982086 0.027292
vt 0.767914 0.027292
vt 0.845225 0.081699
vt 0.980435 0.11427
vt 0.898628 0.285253
vt 0.851372 0.285253
vt 0.769565 0.11427
vt 0.908857 0.310161
vt 0.905591 0.365983
vt 0.992435 0.366343
vt 0.992345 0.302305
vt 0.843103 0.365356
vt 0.839656 0.305893
vt 0.756595 0.305225
vt 0.756496 0.365725
vt 0.494059 0.628819
vt 0.494059 0.714829
vt 0.391578 0.714829
vt 0.387749 0.628819
vt 0.494059 0.679072
vt 0.391578 0.679072
vt 0.494059 0.570963
vt 0.391577 0.570963
vt 0.494059 0.535173
vt 0.391577 0.535173
vt 0.285268 0.714829
vt 0.285268 0.628819
vt 0.285268 0.679073
vt 0.285268 0.570964
vt 0.285268 0.535174
vt 0.494059 0.714829
vt 0.494059 0.628819
vt 0.391578 0.714829
vt 0.387749 0.628819
vt 0.494059 0.679072
vt 0.391578 0.679072
vt 0.494059 0.570963
vt 0.391577 0.570963
vt 0.494059 0.535173
vt 0.391577 0.535173
vt 0.285268 0.714829
vt 0.285268 0.628819
vt 0.285268 0.679073
vt 0.285268 0.570964
vt 0.285268 0.535174
vt 0.506066 0.513975
vt 0.741768 0.513975
vt 0.741768 0.545115
vt 0.533386 0.552771
vt 0.823814 0.544219
vt 0.823814 0.575009
vt 0.506066 0.988359
vt 0.533386 0.779082
vt 0.741768 0.778553
vt 0.745596 0.988359
vt 0.823814 0.834543
vt 0.823814 0.988359
vt 0.745596 0.770675
vt 0.533386 0.778332
vt 0.823814 0.756093
vt 0.94349 0.580128
vt 0.993934 0.551242
vt 0.993934 0.770675
vt 0.94349 0.74868
vt 0.939662 0.834543
vt 0.993934 0.988359
vt 0.25708 0.011758
vt 0.313493 0.017523
vt 0.313493 0.236681
vt 0.256563 0.238242
vt 0.430412 0.035
vt 0.406084 0.011758
vt 0.406084 0.238242
vt 0.430412 0.215
vt 0.319861 0.011758
vt 0.319861 0.238242
vt 0.493027 0.207253
vt 0.493027 0.035091
vt 0.741768 0.513975
vt 0.506066 0.513975
vt 0.741768 0.545115
vt 0.533386 0.552771
vt 0.823814 0.544219
vt 0.823814 0.575009
vt 0.533386 0.779082
vt 0.506066 0.988359
vt 0.741768 0.778553
vt 0.745596 0.988359
vt 0.823814 0.834543
vt 0.823814 0.988359
vt 0.745596 0.770675
vt 0.533386 0.778332
vt 0.823814 0.756093
vt 0.993934 0.551242
vt 0.94349 0.580128
vt 0.993934 0.770675
vt 0.94349 0.74868
vt 0.939662 0.834543
vt 0.993934 0.988359
vt 0.313493 0.017523
vt 0.25708 0.011758
vt 0.313493 0.236681
vt 0.256563 0.238242
vt 0.406084 0.011758
vt 0.430412 0.035
vt 0.406084 0.238242
vt 0.430412 0.215
vt 0.319861 0.011758
vt 0.319861 0.238242
vt 0.493027 0.207253
vt 0.493027 0.035091
vn -0.786958 0 0.617007
vn -0.788275 0.01694 0.61509
vn 0.785582 0.017035 0.618523
vn 0.789629 0 0.613585
vn -0.788275 0.01694 0.61509
vn 0.789629 0 0.613585
vn -0.066515 0.253116 0.965147
vn -0 0.262095 0.965042
vn -0 0.621201 0.783652
vn 0 0.621201 0.783652
vn -0 -0.61588 -0.78784
vn -0.066515 0.253116 0.965147
vn -0.185345 -0.573256 -0.798138
vn -0 0.262095 0.965042
vn -0 0.621201 0.783652
vn -0.988484 -0 -0.151324
vn 0 0 -1
vn -0 0.621201 0.783652
vn 0 0 -1
vn -0.988484 -0 -0.151324
vn -0.066515 0.253116 0.965147
vn 0 0.269341 0.963045
vn -0 0.262095 0.965042
vn 0.068804 0.261825 0.96266
vn -0 -0.61588 -0.78784
vn 0.191091 -0.591028 -0.78369
vn -0.185345 -0.573256 -0.798138
vn 0 -0.627073 -0.77896
vn -0.994384 -0.092872 0.050758
vn -0.986352 -0.101063 0.129987
vn -0.994384 -0.092872 0.050758
vn -0.994384 -0.092872 0.050758
vn 0.98502 -0.16495 0.050281
vn 0.988993 -0.070036 0.130335
vn 0.98502 -0.16495 0.050281
vn 0.98502 -0.16495 0.050281
vn 0.864818 -0.418853 -0.276862
vn -0.396833 0.872795 0.284171
vn -0.252043 0.964244 -0.081907
vn 0.534341 -0.671415 0.5135
vn -0.980014 -0.044749 0.19383
vn -0.694804 0.05682 -0.716951
vn -0.396833 -0.909035 -0.127197
vn -0.312788 -0.822856 -0.474418
vn 0.864818 -0.418853 -0.276862
vn 0.631723 -0.524764 0.570569
vn -0.252043 0.964244 -0.081907
vn 0.631723 -0.524764 0.570569
vn -0.694804 0.05682 -0.716951
vn -0.312788 -0.822856 -0.474418
vn 0.631723 -0.524764 0.570569
vn 0.396833 0.872795 0.284171
vn -0.864818 -0.418853 -0.276862
vn 0.252043 0.964244 -0.081906
vn -0.534341 -0.671415 0.5135
vn 0.980014 -0.044749 0.193829
vn 0.694804 0.05682 -0.716951
vn 0.396833 -0.909035 -0.127197
vn 0.312788 -0.822856 -0.474418
vn -0.864818 -0.418853 -0.276862
vn -0.631723 -0.524764 0.570569
vn 0.252043 0.964244 -0.081906
vn -0.631723 -0.524764 0.570569
vn 0.694804 0.05682 -0.716951
vn 0.312788 -0.822856 -0.474418
vn -0.631723 -0.524764 0.570569
vn 0.21045 -0.977605 0.000283
vn 0.204541 -0.953233 -0.22251
vn 0.932922 0 -0.360078
vn 0.999999 0 0.001343
vn 0.239529 -0.970432 -0.029793
vn 1 0 -0.000001
vn 0.178841 0.983878 -0
vn 0.179316 0.983792 0.000241
vn 0.174765 0.961459 -0.212257
vn 0.188612 0.962078 -0.197059
vn 0.192285 0.980811 -0.032182
vn 0.195027 0.980336 -0.030097
vn 0.932922 0 -0.360078
vn 0.999999 0 0.001343
vn 1 0 -0.000001
vn 1 0 -0.000001
vn 0.244347 -0.969166 -0.0318
vn 0.52784 0 -0.849344
vn 1 0 -0.000001
vn 0.195027 0.980336 -0.030097
vn 0.195027 0.980336 -0.030097
vn 0.231328 0.025751 0.972535
vn 0.265348 -0 0.964153
vn 0.231328 0.025751 0.972535
vn 0.231328 0.025751 0.972535
vn -0.988723 -0.149685 -0.004595
vn -0.993861 -0.110634 -0
vn -0.993861 -0.110634 -0
vn -0.990483 -0.13757 0.004224
vn -0.993861 -0.110634 0
vn -0.993861 -0.110634 -0
vn -0.988723 -0.149685 -0.004595
vn -0.988723 -0.149685 -0.004595
vn -0.204541 -0.953233 -0.22251
vn -0.21045 -0.977605 0.000283
vn -0.932922 0 -0.360078
vn -0.999999 0 0.001343
vn -0.239529 -0.970432 -0.029793
vn -1 0 -0.000001
vn -0.179316 0.983792 0.000241
vn -0.178841 0.983878 0
vn -0.174765 0.961459 -0.212257
vn -0.188612 0.962078 -0.197059
vn -0.192285 0.980811 -0.032182
vn -0.195027 0.980336 -0.030097
vn -0.932922 0 -0.360078
vn -0.999999 0 0.001343
vn -1 -0 -0.000001
vn -0.244347 -0.969166 -0.0318
vn -1 -0 -0.000001
vn -0.52784 0 -0.849344
vn -1 -0 -0.000001
vn -0.195027 0.980336 -0.030097
vn -0.195027 0.980336 -0.030097
vn -0.265348 0 0.964153
vn -0.231328 0.025751 0.972535
vn -0.231328 0.025751 0.972535
vn -0.231328 0.025751 0.972535
vn 0.993861 -0.110634 0
vn 0.988723 -0.149685 -0.004595
vn 0.993861 -0.110634 0
vn 0.990483 -0.13757 0.004224
vn 0.993861 -0.110634 0
vn 0.993861 -0.110634 0
vn 0.988723 -0.149685 -0.004595
vn 0.988723 -0.149685 -0.004595
usemtl datan_common_body19_spd_76e60ddb
f 1/1/1 2/2/2 3/3/3
f 3/3/3 4/4/4 1/1/1
f 5/5/5 6/6/6 7/7/7
f 7/7/7 8/8/8 5/5/5
f 1/1/1 4/4/4 6/6/6
f 6/6/6 5/5/5 1/1/1
f 4/4/4 3/3/3 7/7/7
f 7/7/7 6/6/6 4/4/4
f 2/2/2 1/1/1 5/5/5
f 5/5/5 8/8/8 2/2/2
f 8/8/8 7/7/7 9/9/9
f 9/9/9 10/10/10 8/8/8
f 7/7/7 11/11/11 9/9/9
f 11/11/11 7/7/7 12/12/12
f 13/13/13 14/14/14 8/8/8
f 8/8/8 10/10/10 13/13/13
f 15/15/15 16/16/16 17/17/17
f 17/17/17 18/18/18 15/15/15
f 10/10/10 9/9/9 19/19/19
f 19/19/19 20/20/20 10/10/10
f 9/9/9 17/17/17 19/19/19
f 17/17/17 9/9/9 18/18/18
f 17/17/17 16/16/16 20/20/20
f 20/20/20 19/19/19 17/17/17
f 16/16/16 15/15/15 10/10/10
f 10/10/10 20/20/20 16/16/16
f 21/21/21 22/22/22 12/12/12
f 12/12/12 7/7/7 21/21/21
f 23/23/23 24/24/24 8/8/8
f 8/8/8 14/14/14 23/23/23
f 25/25/25 26/26/26 9/9/9
f 9/9/9 11/11/11 25/25/25
f 27/27/27 28/28/28 13/13/13
f 13/13/13 10/10/10 27/27/27
f 29/29/29 30/30/30 31/31/31
f 29/29/29 31/31/31 32/32/32
f 33/33/33 34/34/34 35/35/35
f 33/33/33 35/35/35 36/36/36
f 9/9/9 10/10/10 15/15/15
f 9/9/9 15/15/15 18/18/18
f 37/37/37 38/38/38 39/39/39
f 37/37/37 39/39/39 40/40/40
f 38/38/38 41/41/41 42/42/42
f 38/38/38 42/42/42 39/39/39
f 41/41/41 43/43/43 44/44/44
f 41/41/41 44/44/44 42/42/42
f 43/43/43 45/45/45 46/46/46
f 43/43/43 46/46/46 44/44/44
f 45/45/45 37/37/37 40/40/40
f 45/45/45 40/40/40 46/46/46
f 40/40/40 39/39/39 47/47/47
f 40/40/40 47/47/47 48/48/48
f 39/39/39 42/42/42 49/49/49
f 39/39/39 49/49/49 47/47/47
f 42/42/42 44/44/44 50/50/50
f 42/42/42 50/50/50 49/49/49
f 44/44/44 46/46/46 51/51/51
f 44/44/44 51/51/51 50/50/50
f 46/46/46 40/40/40 48/48/48
f 46/46/46 48/48/48 51/51/51
f 52/52/52 53/53/53 54/54/54
f 54/54/54 53/53/53 55/55/55
f 56/56/56 52/52/52 57/57/57
f 57/57/57 52/52/52 54/54/54
f 58/58/58 56/56/56 59/59/59
f 59/59/59 56/56/56 57/57/57
f 60/60/60 58/58/58 61/61/61
f 61/61/61 58/58/58 59/59/59
f 53/53/53 60/60/60 55/55/55
f 55/55/55 60/60/60 61/61/61
f 54/54/54 55/55/55 62/62/62
f 62/62/62 55/55/55 63/63/63
f 57/57/57 54/54/54 64/64/64
f 64/64/64 54/54/54 62/62/62
f 59/59/59 57/57/57 65/65/65
f 65/65/65 57/57/57 64/64/64
f 61/61/61 59/59/59 66/66/66
f 66/66/66 59/59/59 65/65/65
f 55/55/55 61/61/61 63/63/63
f 63/63/63 61/61/61 66/66/66
f 67/67/67 68/68/68 69/69/69
f 69/69/69 70/70/70 67/67/67
f 68/68/68 71/71/71 72/72/72
f 72/72/72 69/69/69 68/68/68
f 73/73/73 74/74/74 75/75/75
f 75/75/75 76/76/76 73/73/73
f 76/76/76 75/75/75 77/77/77
f 77/77/77 78/78/78 76/76/76
f 70/70/70 69/69/69 79/79/79
f 79/79/79 80/80/80 70/70/70
f 69/69/69 72/72/72 81/81/81
f 81/81/81 79/79/79 69/69/69
f 82/82/82 83/83/83 84/84/84
f 84/84/84 85/85/85 82/82/82
f 72/72/72 71/71/71 83/83/83
f 83/83/83 82/82/82 72/72/72
f 78/78/78 77/77/77 86/86/86
f 86/86/86 87/87/87 78/78/78
f 81/81/81 72/72/72 82/82/82
f 82/82/82 85/85/85 81/81/81
f 88/88/88 89/89/89 90/90/90
f 90/90/90 91/91/91 88/88/88
f 92/92/92 93/93/93 94/94/94
f 94/94/94 95/95/95 92/92/92
f 93/93/93 96/96/96 97/97/97
f 97/97/97 94/94/94 93/93/93
f 92/92/92 95/95/95 98/98/98
f 98/98/98 99/99/99 92/92/92
f 100/100/100 101/101/101 102/102/102
f 103/103/103 102/102/102 101/101/101
f 104/104/104 100/100/100 105/105/105
f 102/102/102 105/105/105 100/100/100
f 106/106/106 107/107/107 108/108/108
f 109/109/109 108/108/108 107/107/107
f 108/108/108 109/109/109 110/110/110
f 111/111/111 110/110/110 109/109/109
f 102/102/102 103/103/103 112/112/112
f 113/113/113 112/112/112 103/103/103
f 105/105/105 102/102/102 114/114/114
f 112/112/112 114/114/114 102/102/102
f 115/115/115 116/116/116 117/117/117
f 118/118/118 117/117/117 116/116/116
f 104/104/104 105/105/105 115/115/115
f 116/116/116 115/115/115 105/105/105
f 110/110/110 111/111/111 119/119/119
f 120/120/120 119/119/119 111/111/111
f 105/105/105 114/114/114 116/116/116
f 118/118/118 116/116/116 114/114/114
f 121/121/121 122/122/122 123/123/123
f 124/124/124 123/123/123 122/122/122
f 125/125/125 126/126/126 127/127/127
f 128/128/128 127/127/127 126/126/126
f 129/129/129 125/125/125 130/130/130
f 127/127/127 130/130/130 125/125/125
f 128/128/128 126/126/126 131/131/131
f 132/132/132 131/131/131 126/126/126
