# Generated from Nova1492 GX by tools/nova1492/GxObjConverter
mtllib datan_common_body38_qrso_221babe8.mtl
o datan_common_body38_qrso_221babe8
v 0.136092 0.265777 -0.014922
v 0.060536 0.253378 -0.072484
v 0.060536 0.327895 -0.072484
v 0.136092 0.315496 -0.014922
v 0.136092 0.248131 0.494514
v 0.136092 0.333142 0.494514
v 0.060536 0.354343 0.55183
v 0.060536 0.22693 0.537311
v 0.169593 0.225089 0.230189
v 0.060536 0.217929 0.224096
v 0.169593 0.356184 0.230189
v 0.060536 0.363344 0.224096
v 0.136092 0.248131 0.494514
v 0.060536 0.22693 0.537311
v 0.136092 0.333142 0.494514
v 0.060536 0.354343 0.55183
v -0.062458 0.328667 -0.059176
v -0.037723 0.456794 -0.016905
v 0.037724 0.456794 -0.016905
v 0.062459 0.328667 -0.059176
v -0.072547 0.328667 0.563221
v 0.072547 0.328667 0.563221
v 0.043817 0.480874 0.494514
v -0.043816 0.480874 0.494514
v 0.043817 0.480874 0.494514
v 0.072547 0.328667 0.563221
v -0.043816 0.480874 0.494514
v -0.072547 0.328667 0.563221
v -0.135117 0.265777 -0.014922
v -0.059561 0.327895 -0.072484
v -0.059561 0.253378 -0.072484
v -0.135117 0.315496 -0.014922
v -0.135117 0.248131 0.494514
v -0.059561 0.354343 0.55183
v -0.135117 0.333142 0.494514
v -0.059561 0.22693 0.537311
v -0.059561 0.217929 0.224096
v -0.168618 0.225089 0.230189
v -0.168618 0.356184 0.230189
v -0.059561 0.363344 0.224096
v -0.135117 0.248131 0.494514
v -0.059561 0.22693 0.537311
v -0.135117 0.333142 0.494514
v -0.059561 0.354343 0.55183
vt 0.918144 0.14682
vt 0.991214 0.11397
vt 0.991214 0.316642
vt 0.918144 0.282846
vt 0.154666 0.097657
vt 0.154477 0.33013
vt 0.058633 0.388578
vt 0.058633 0.04098
vt 0.607283 0.067582
vt 0.616664 0.016981
vt 0.607912 0.36038
vt 0.615234 0.412026
vt 0.27274 0.099911
vt 0.217979 0.039958
vt 0.273818 0.33018
vt 0.217143 0.389234
vt 0.973477 0.574102
vt 0.92027 0.923093
vt 0.92027 0.923093
vt 0.973477 0.574102
vt 0.005787 0.57433
vt 0.190312 0.57433
vt 0.153244 0.986957
vt 0.042603 0.986957
vt 0.274168 0.987518
vt 0.202148 0.574102
vt 0.274168 0.987518
vt 0.202148 0.574102
vt 0.918144 0.14682
vt 0.991214 0.316642
vt 0.991214 0.11397
vt 0.918144 0.282846
vt 0.154666 0.097657
vt 0.058633 0.388578
vt 0.154477 0.33013
vt 0.058633 0.04098
vt 0.616664 0.016981
vt 0.607283 0.067582
vt 0.607912 0.36038
vt 0.615234 0.412026
vt 0.27274 0.099911
vt 0.217979 0.039958
vt 0.273818 0.33018
vt 0.217143 0.389234
vn 0.742808 -0.51273 -0.430518
vn 0.580209 -0.479624 -0.65827
vn 0.580209 0.479624 -0.65827
vn 0.742808 0.51273 -0.430517
vn 0.743715 -0.51739 0.423316
vn 0.761179 0.512677 0.397202
vn 0.583647 0.496872 0.642242
vn 0.516206 -0.593862 0.617138
vn 0.729879 -0.683133 -0.02461
vn 0.105571 -0.993412 -0.044576
vn 0.729879 0.683133 -0.02461
vn 0.105964 0.993366 -0.044684
vn 0.743715 -0.51739 0.423316
vn 0.516206 -0.593862 0.617138
vn 0.761179 0.512677 0.397202
vn 0.583647 0.496872 0.642242
vn -0.635396 0.349785 -0.688421
vn -0.525425 0.694425 -0.491632
vn 0.523674 0.694911 -0.492813
vn 0.634742 0.347847 -0.690004
vn -0.607603 0.420753 0.673636
vn 0.607166 0.419284 0.674945
vn 0.53569 0.735347 0.415091
vn -0.537191 0.73483 0.414065
vn 0.53569 0.735347 0.415091
vn 0.607166 0.419284 0.674945
vn -0.537191 0.73483 0.414065
vn -0.607603 0.420753 0.673636
vn -0.742807 -0.51273 -0.430518
vn -0.580209 0.479624 -0.65827
vn -0.580209 -0.479624 -0.65827
vn -0.742808 0.51273 -0.430517
vn -0.743714 -0.51739 0.423316
vn -0.583647 0.496872 0.642242
vn -0.761179 0.512677 0.397202
vn -0.516206 -0.593862 0.617138
vn -0.10557 -0.993412 -0.044576
vn -0.729879 -0.683133 -0.02461
vn -0.729879 0.683133 -0.02461
vn -0.105964 0.993366 -0.044684
vn -0.743714 -0.51739 0.423316
vn -0.516206 -0.593862 0.617138
vn -0.761179 0.512677 0.397202
vn -0.583647 0.496872 0.642242
usemtl datan_common_body38_qrso_221babe8
f 1/1/1 2/2/2 3/3/3
f 3/3/3 4/4/4 1/1/1
f 5/5/5 6/6/6 7/7/7
f 7/7/7 8/8/8 5/5/5
f 1/1/1 9/9/9 10/10/10
f 10/10/10 2/2/2 1/1/1
f 4/4/4 11/11/11 9/9/9
f 9/9/9 1/1/1 4/4/4
f 4/4/4 3/3/3 12/12/12
f 12/12/12 11/11/11 4/4/4
f 13/13/13 14/14/14 10/10/10
f 10/10/10 9/9/9 13/13/13
f 15/15/15 13/13/13 9/9/9
f 9/9/9 11/11/11 15/15/15
f 12/12/12 16/16/16 15/15/15
f 15/15/15 11/11/11 12/12/12
f 17/17/17 18/18/18 19/19/19
f 19/19/19 20/20/20 17/17/17
f 21/21/21 22/22/22 23/23/23
f 23/23/23 24/24/24 21/21/21
f 20/20/20 19/19/19 25/25/25
f 25/25/25 26/26/26 20/20/20
f 19/19/19 18/18/18 27/27/27
f 27/27/27 25/25/25 19/19/19
f 18/18/18 17/17/17 28/28/28
f 28/28/28 27/27/27 18/18/18
f 29/29/29 30/30/30 31/31/31
f 30/30/30 29/29/29 32/32/32
f 33/33/33 34/34/34 35/35/35
f 34/34/34 33/33/33 36/36/36
f 29/29/29 37/37/37 38/38/38
f 37/37/37 29/29/29 31/31/31
f 32/32/32 38/38/38 39/39/39
f 38/38/38 32/32/32 29/29/29
f 32/32/32 40/40/40 30/30/30
f 40/40/40 32/32/32 39/39/39
f 41/41/41 37/37/37 42/42/42
f 37/37/37 41/41/41 38/38/38
f 43/43/43 38/38/38 41/41/41
f 38/38/38 43/43/43 39/39/39
f 40/40/40 43/43/43 44/44/44
