# Generated from Nova1492 GX by tools/nova1492/GxObjConverter
mtllib datan_common_body29_onms_1e41cf45.mtl
o datan_common_body29_onms_1e41cf45
v -0.486905 0.618025 -0.357218
v -0.486905 0.77129 -0.126784
v -0.294444 0.77129 -0.126784
v -0.29756 0.617929 -0.356939
v -0.486905 0.618025 0.103649
v -0.294444 0.618037 0.103443
v -0.339523 0.240335 0.168379
v -0.339523 0.240335 -0.421947
v -0.250645 0.618396 0.421989
v -0.284922 0.240769 0.42385
v 0.284921 0.240769 0.42385
v -0.116873 0.61847 0.421847
v 0.116872 0.61847 0.421847
v -0.339523 0.240335 -0.421947
v -0.136699 0.618037 -0.357012
v 0.136699 0.618037 -0.357012
v 0.297559 0.617999 -0.356939
v 0.339522 0.240335 -0.421947
v 0.297559 0.617999 -0.356939
v 0.294443 0.77129 -0.126784
v 0.486904 0.77129 -0.126784
v 0.486904 0.618025 -0.357218
v 0.294443 0.618037 0.103443
v 0.486904 0.618025 0.103649
v 0.339522 0.240335 0.168379
v 0.339522 0.240335 -0.421947
v -0.486905 0.618025 0.103649
v -0.486905 0.618025 -0.357218
v -0.747797 0.618025 -0.357218
v -0.747797 0.618025 0.103649
v -0.747797 0.618025 0.103649
v -0.931197 0.240335 0.168379
v -0.931197 0.240335 -0.421947
v -0.747797 0.618025 -0.357218
v 0.486904 0.618025 -0.357218
v 0.486904 0.618025 0.103649
v 0.747797 0.618025 0.103649
v 0.747797 0.618025 -0.357218
v 0.931196 0.240335 0.168379
v 0.747797 0.618025 0.103649
v 0.747797 0.618025 -0.357218
v 0.931196 0.240335 -0.421947
v -0.931197 0.618037 -0.357012
v -0.931197 0.618037 0.103443
v -0.747797 0.77129 -0.126784
v -0.931197 0.77129 -0.126784
v 0.931196 0.618037 -0.357012
v 0.931196 0.618037 0.103443
v 0.747797 0.77129 -0.126784
v 0.931196 0.77129 -0.126784
v -0.486905 0.618025 -0.357218
v -0.486905 0.618025 0.103649
v -0.486905 0.77129 -0.126784
v 0.486904 0.618025 -0.357218
v 0.486904 0.77129 -0.126784
v 0.486904 0.618025 0.103649
v -0.747797 0.618025 -0.357218
v -0.747797 0.77129 -0.126784
v -0.747797 0.618025 0.103649
v 0.747797 0.618025 -0.357218
v 0.747797 0.618025 0.103649
v 0.747797 0.77129 -0.126784
v 0.250643 0.618396 0.421989
v -0.29756 0.617929 -0.356939
v -0.121484 0.981206 -1.136396
v -0.255093 0.981374 -1.136396
v -0.107468 1.164556 -1.136397
v -0.227529 1.164458 -1.136397
v -0.107468 1.164556 -1.136397
v -0.255093 0.981374 -1.136396
v 0.255092 0.981374 -1.136396
v 0.121483 0.981206 -1.136396
v 0.227528 1.164458 -1.136397
v 0.107467 1.164556 -1.136397
v 0.227528 1.164458 -1.136397
v 0.121483 0.981206 -1.136396
v -0.107468 1.164556 -1.136397
v -0.227529 1.164458 -1.136397
v -0.107468 1.107606 -0.124645
v -0.229716 1.10758 -0.124633
v -0.107468 1.107606 -0.124645
v -0.227529 1.164458 -1.136397
v 0.227528 1.164458 -1.136397
v 0.107467 1.164556 -1.136397
v 0.229714 1.10758 -0.124633
v 0.107467 1.107606 -0.124645
v 0.229714 1.10758 -0.124633
v 0.107467 1.164556 -1.136397
v -0.136699 0.618037 -0.357012
v -0.29756 0.617929 -0.356939
v -0.121484 0.981206 -1.136396
v -0.255093 0.981374 -1.136396
v -0.121484 0.981206 -1.136396
v -0.29756 0.617929 -0.356939
v 0.297559 0.617999 -0.356939
v 0.136699 0.618037 -0.357012
v 0.255092 0.981374 -1.136396
v 0.121483 0.981206 -1.136396
v 0.255092 0.981374 -1.136396
v 0.136699 0.618037 -0.357012
v 0.116872 0.61847 0.421847
v 0.250643 0.618396 0.421989
v 0.107467 1.107606 -0.124645
v 0.229714 1.10758 -0.124633
v 0.107467 1.107606 -0.124645
v 0.250643 0.618396 0.421989
v -0.250645 0.618396 0.421989
v -0.116873 0.61847 0.421847
v -0.229716 1.10758 -0.124633
v -0.107468 1.107606 -0.124645
v -0.229716 1.10758 -0.124633
v -0.116873 0.61847 0.421847
v 0.294443 0.77129 -0.126784
v -0.294444 0.77129 -0.126784
v -0.294444 0.618037 0.103443
v 0.294443 0.77129 -0.126784
v -0.294444 0.618037 0.103443
v 0.294443 0.618037 0.103443
v 0.297559 0.617999 -0.356939
v -0.29756 0.617929 -0.356939
v -0.294444 0.77129 -0.126784
v 0.297559 0.617999 -0.356939
v -0.294444 0.77129 -0.126784
v 0.294443 0.77129 -0.126784
v 0.294443 0.618037 0.103443
v -0.294444 0.618037 0.103443
v -0.250645 0.618396 0.421989
v 0.294443 0.618037 0.103443
v -0.250645 0.618396 0.421989
v 0.250643 0.618396 0.421989
v 0.18019 0.335415 0.417719
v 0.18019 0.524408 0.417719
v 0.112619 0.488972 0.512722
v 0.112619 0.370852 0.512722
v 0.18019 0.524408 0.417719
v -0 0.618905 0.417719
v -0 0.548033 0.512722
v 0.112619 0.488972 0.512722
v -0 0.618905 0.417719
v -0.180191 0.524408 0.417719
v -0.112619 0.488972 0.512722
v -0 0.548033 0.512722
v -0.180191 0.524408 0.417719
v -0.180191 0.335415 0.417719
v -0.112619 0.370852 0.512722
v -0.112619 0.488972 0.512722
v -0.180191 0.335415 0.417719
v -0 0.240919 0.417719
v -0 0.311791 0.512722
v -0.112619 0.370852 0.512722
v -0 0.240919 0.417719
v 0.18019 0.335415 0.417719
v 0.112619 0.370852 0.512722
v -0 0.311791 0.512722
vt 0.814807 0.928397
vt 0.814807 0.993056
vt 0.742346 0.993056
vt 0.741523 0.928372
vt 0.818635 0.928397
vt 0.742346 0.9284
vt 0.759471 0.757997
vt 0.759471 0.757997
vt 0.522136 0.924666
vt 0.510008 0.758521
vt 0.732711 0.758521
vt 0.576365 0.928514
vt 0.669708 0.928514
vt 0.741895 0.759526
vt 0.746915 0.920809
vt 0.751657 0.920809
vt 0.760527 0.920808
vt 0.760572 0.759526
vt 0.742514 0.928169
vt 0.741691 0.992613
vt 0.815063 0.992613
vt 0.818892 0.928176
vt 0.741691 0.928179
vt 0.815063 0.928175
vt 0.759344 0.758155
vt 0.759344 0.758155
vt 0.846935 0.991996
vt 0.846936 0.930412
vt 0.891916 0.930551
vt 0.895748 0.992335
vt 0.919208 0.928397
vt 0.992612 0.757997
vt 0.992612 0.757997
vt 0.923036 0.928397
vt 0.846919 0.992054
vt 0.846919 0.930404
vt 0.892019 0.930553
vt 0.895843 0.9923
vt 0.992919 0.758155
vt 0.923631 0.928175
vt 0.919803 0.928175
vt 0.992919 0.758155
vt 0.992612 0.9284
vt 0.992612 0.9284
vt 0.923036 0.993056
vt 0.992612 0.993056
vt 0.992919 0.928179
vt 0.992919 0.928179
vt 0.923631 0.992929
vt 0.992919 0.992929
vt 0.816721 0.928397
vt 0.816721 0.928397
vt 0.816721 0.993056
vt 0.816977 0.928176
vt 0.816977 0.992613
vt 0.816977 0.928175
vt 0.921122 0.928397
vt 0.921122 0.993056
vt 0.921122 0.928397
vt 0.921717 0.928175
vt 0.921717 0.928175
vt 0.921717 0.992929
vt 0.724106 0.928494
vt 0.741873 0.924634
vt 0.590163 0.949889
vt 0.583413 0.949933
vt 0.590142 0.979513
vt 0.583586 0.979487
vt 0.590142 0.979513
vt 0.583413 0.949933
vt 0.66049 0.953095
vt 0.652048 0.953051
vt 0.660655 0.979487
vt 0.652069 0.979513
vt 0.660655 0.979487
vt 0.652048 0.953051
vt 0.575576 0.991845
vt 0.5515 0.992405
vt 0.575576 0.9703
vt 0.551499 0.970294
vt 0.575576 0.9703
vt 0.5515 0.992405
vt 0.69003 0.992405
vt 0.668268 0.991845
vt 0.690027 0.970294
vt 0.668268 0.9703
vt 0.690027 0.970294
vt 0.668268 0.991845
vt 0.590882 0.929183
vt 0.583703 0.929241
vt 0.59084 0.98181
vt 0.583751 0.98182
vt 0.59084 0.98181
vt 0.583703 0.929241
vt 0.660199 0.929181
vt 0.653697 0.929183
vt 0.660151 0.98182
vt 0.65374 0.98181
vt 0.660151 0.98182
vt 0.653697 0.929183
vt 0.668451 0.928514
vt 0.69017 0.928494
vt 0.668268 0.966472
vt 0.690027 0.966466
vt 0.668268 0.966472
vt 0.69017 0.928494
vt 0.551495 0.928494
vt 0.575416 0.928514
vt 0.551499 0.966466
vt 0.575576 0.966472
vt 0.551499 0.966466
vt 0.575416 0.928514
vt 0.659437 0.973438
vt 0.584831 0.973353
vt 0.584832 0.949423
vt 0.659437 0.973438
vt 0.584832 0.949423
vt 0.659438 0.94954
vt 0.65943 0.988659
vt 0.584822 0.988615
vt 0.584831 0.977181
vt 0.65943 0.988659
vt 0.584831 0.977181
vt 0.659437 0.977266
vt 0.659438 0.945711
vt 0.584832 0.945595
vt 0.584872 0.931972
vt 0.659438 0.945711
vt 0.584872 0.931972
vt 0.659392 0.932078
vt 0.691291 0.801733
vt 0.691291 0.881215
vt 0.668145 0.866247
vt 0.668145 0.816702
vt 0.691291 0.885043
vt 0.62285 0.923661
vt 0.62285 0.897236
vt 0.668145 0.870075
vt 0.619022 0.923661
vt 0.55092 0.885043
vt 0.577217 0.870075
vt 0.62285 0.897236
vt 0.55092 0.881215
vt 0.55092 0.801733
vt 0.573389 0.816702
vt 0.577217 0.870075
vt 0.55092 0.797905
vt 0.619022 0.759604
vt 0.619022 0.785713
vt 0.577217 0.816702
vt 0.62285 0.759604
vt 0.691291 0.797905
vt 0.664317 0.812874
vt 0.62285 0.789541
vn 0 0.16892 -0.98563
vn 0 0.832437 0.55412
vn 0 0.832437 0.55412
vn 0.001539 0.169503 -0.985529
vn 0 0.16892 0.98563
vn 0.001047 0.169316 0.985561
vn -0 0.16892 0.98563
vn 0 0.16892 -0.98563
vn 0.001056 0.006426 0.999979
vn -0 0.004929 0.999988
vn 0.001056 0.006426 0.999979
vn 0.001056 0.006426 0.999979
vn -0.001056 0.004833 0.999988
vn 0.000486 0.168842 -0.985643
vn -0.00056 0.169729 -0.985491
vn 0.000486 0.168842 -0.985643
vn 0.000486 0.168842 -0.985643
vn -0 0.169639 -0.985506
vn -0.001477 0.169479 -0.985533
vn -0.000001 0.832645 0.553808
vn -0.000001 0.832645 0.553808
vn 0 0.16892 -0.98563
vn -0.001047 0.169316 0.985561
vn 0 0.16892 0.98563
vn 0 0.16892 0.98563
vn -0 0.16892 -0.98563
vn 0 1 0
vn 0 1 0
vn 0 1 0
vn 0 1 0
vn -0.000567 0.832437 0.55412
vn -0.001098 0.169438 0.98554
vn -0.001098 0.169438 -0.98554
vn -0.000566 0.832645 -0.553808
vn 0 1 0
vn 0 1 0
vn 0 1 0
vn 0 1 0
vn 0.001098 0.169438 0.98554
vn 0.000566 0.832644 0.553808
vn 0.000567 0.832436 -0.55412
vn 0.001098 0.169438 -0.98554
vn -0 0.832437 -0.55412
vn -0.000567 0.832437 0.55412
vn -0 0.832645 0.553808
vn -0.000567 0.832437 0.55412
vn 0.000567 0.832436 -0.55412
vn 0 0.832437 0.554121
vn 0 0.832645 -0.553808
vn 0.000567 0.832436 -0.55412
vn -1 -0 0
vn -1 -0 0
vn -1 -0 0
vn 1 0.000001 0
vn 1 0.000001 0
vn 1 0.000001 0
vn 1 0 -0
vn 1 0 -0
vn 1 0 -0
vn -1 -0.000001 0
vn -1 -0.000001 0
vn -1 -0.000001 0
vn -0.001056 0.004833 0.999988
vn -0.00056 0.169729 -0.985491
vn -0 -0.000005 -1
vn -0 -0.000005 -1
vn -0 -0.000005 -1
vn -0.000002 -0.000004 -1
vn -0.000002 -0.000004 -1
vn -0.000002 -0.000004 -1
vn 0 -0.000004 -1
vn 0 -0.000004 -1
vn 0 -0.000004 -1
vn 0.000002 -0.000005 -1
vn 0.000002 -0.000005 -1
vn 0.000002 -0.000005 -1
vn -0.000813 0.998419 0.056199
vn -0.000813 0.998419 0.056199
vn -0.000813 0.998419 0.056199
vn -0.000206 0.998424 0.056127
vn -0.000206 0.998424 0.056127
vn -0.000206 0.998424 0.056127
vn 0.000813 0.998423 0.056126
vn 0.000813 0.998423 0.056126
vn 0.000813 0.998423 0.056126
vn 0.000206 0.99842 0.056199
vn 0.000206 0.99842 0.056199
vn 0.000206 0.99842 0.056199
vn 0.000418 -0.906429 -0.422359
vn 0.000418 -0.906429 -0.422359
vn 0.000418 -0.906429 -0.422359
vn -0.001138 -0.906294 -0.422648
vn -0.001138 -0.906294 -0.422648
vn -0.001138 -0.906294 -0.422648
vn -0.000026 -0.906349 -0.422529
vn -0.000026 -0.906349 -0.422529
vn -0.000026 -0.906349 -0.422529
vn 0.001137 -0.906416 -0.422384
vn 0.001137 -0.906416 -0.422384
vn 0.001137 -0.906416 -0.422384
vn -0.000291 0.745124 0.666926
vn -0.000291 0.745124 0.666926
vn -0.000291 0.745124 0.666926
vn 0.000092 0.745174 0.66687
vn 0.000092 0.745174 0.66687
vn 0.000092 0.745174 0.66687
vn 0.000291 0.745167 0.666878
vn 0.000291 0.745167 0.666878
vn 0.000291 0.745167 0.666878
vn -0.000092 0.745127 0.666922
vn -0.000092 0.745127 0.666922
vn -0.000092 0.745127 0.666922
vn 0 0.832437 0.55412
vn 0 0.832437 0.55412
vn 0 0.832437 0.55412
vn -0 0.832437 0.55412
vn -0 0.832437 0.55412
vn -0 0.832437 0.55412
vn -0.000097 0.832176 -0.554511
vn -0.000097 0.832176 -0.554511
vn -0.000097 0.832176 -0.554511
vn 0 0.832292 -0.554338
vn 0 0.832292 -0.554338
vn 0 0.832292 -0.554338
vn 0 0.999999 -0.001126
vn 0 0.999999 -0.001126
vn 0 0.999999 -0.001126
vn -0 0.999999 -0.001126
vn -0 0.999999 -0.001126
vn -0 0.999999 -0.001126
vn 0.814901 0.000001 0.5796
vn 0.814901 -0 0.579601
vn 0.814901 0.000001 0.5796
vn 0.814901 0.000001 0.5796
vn 0.387505 0.738911 0.551227
vn 0.387504 0.738911 0.551227
vn 0.387505 0.738911 0.551227
vn 0.387505 0.738911 0.551227
vn -0.387505 0.738911 0.551227
vn -0.387505 0.738911 0.551227
vn -0.387505 0.738911 0.551227
vn -0.387505 0.738911 0.551227
vn -0.8149 0 0.579601
vn -0.814901 -0 0.579601
vn -0.8149 0 0.579601
vn -0.8149 0 0.579601
vn -0.387504 -0.73891 0.551228
vn -0.387504 -0.73891 0.551228
vn -0.387504 -0.73891 0.551228
vn -0.387504 -0.73891 0.551228
vn 0.387504 -0.738911 0.551228
vn 0.387504 -0.73891 0.551228
vn 0.387504 -0.738911 0.551228
vn 0.387504 -0.738911 0.551228
usemtl datan_common_body29_onms_1e41cf45
f 1/1/1 2/2/2 3/3/3
f 1/1/1 3/3/3 4/4/4
f 2/2/2 5/5/5 6/6/6
f 2/2/2 6/6/6 3/3/3
f 5/5/5 7/7/7 6/6/6
f 8/8/8 1/1/1 4/4/4
f 9/9/9 10/10/10 11/11/11
f 12/12/12 11/11/11 13/13/13
f 14/14/14 15/15/15 16/16/16
f 14/14/14 17/17/17 18/18/18
f 19/19/19 20/20/20 21/21/21
f 19/19/19 21/21/21 22/22/22
f 20/20/20 23/23/23 24/24/24
f 20/20/20 24/24/24 21/21/21
f 23/23/23 25/25/25 24/24/24
f 26/26/26 19/19/19 22/22/22
f 27/27/27 28/28/28 29/29/29
f 29/29/29 30/30/30 27/27/27
f 7/7/7 5/5/5 31/31/31
f 31/31/31 32/32/32 7/7/7
f 1/1/1 8/8/8 33/33/33
f 33/33/33 34/34/34 1/1/1
f 35/35/35 36/36/36 37/37/37
f 37/37/37 38/38/38 35/35/35
f 24/24/24 25/25/25 39/39/39
f 39/39/39 40/40/40 24/24/24
f 26/26/26 22/22/22 41/41/41
f 41/41/41 42/42/42 26/26/26
f 33/33/33 43/43/43 34/34/34
f 32/32/32 31/31/31 44/44/44
f 45/45/45 34/34/34 43/43/43
f 43/43/43 46/46/46 45/45/45
f 31/31/31 45/45/45 46/46/46
f 46/46/46 44/44/44 31/31/31
f 42/42/42 41/41/41 47/47/47
f 39/39/39 48/48/48 40/40/40
f 49/49/49 40/40/40 48/48/48
f 48/48/48 50/50/50 49/49/49
f 41/41/41 49/49/49 50/50/50
f 50/50/50 47/47/47 41/41/41
f 51/51/51 52/52/52 53/53/53
f 54/54/54 55/55/55 56/56/56
f 57/57/57 58/58/58 59/59/59
f 60/60/60 61/61/61 62/62/62
f 13/13/13 11/11/11 63/63/63
f 14/14/14 64/64/64 15/15/15
f 65/65/65 66/66/66 67/67/67
f 68/68/68 69/69/69 70/70/70
f 71/71/71 72/72/72 73/73/73
f 74/74/74 75/75/75 76/76/76
f 77/77/77 78/78/78 79/79/79
f 80/80/80 81/81/81 82/82/82
f 83/83/83 84/84/84 85/85/85
f 86/86/86 87/87/87 88/88/88
f 11/11/11 12/12/12 9/9/9
f 14/14/14 16/16/16 17/17/17
f 89/89/89 90/90/90 91/91/91
f 92/92/92 93/93/93 94/94/94
f 95/95/95 96/96/96 97/97/97
f 98/98/98 99/99/99 100/100/100
f 101/101/101 102/102/102 103/103/103
f 104/104/104 105/105/105 106/106/106
f 107/107/107 108/108/108 109/109/109
f 110/110/110 111/111/111 112/112/112
f 113/113/113 114/114/114 115/115/115
f 116/116/116 117/117/117 118/118/118
f 119/119/119 120/120/120 121/121/121
f 122/122/122 123/123/123 124/124/124
f 125/125/125 126/126/126 127/127/127
f 128/128/128 129/129/129 130/130/130
f 131/131/131 132/132/132 133/133/133
f 131/131/131 133/133/133 134/134/134
f 135/135/135 136/136/136 137/137/137
f 135/135/135 137/137/137 138/138/138
f 139/139/139 140/140/140 141/141/141
f 139/139/139 141/141/141 142/142/142
f 143/143/143 144/144/144 145/145/145
f 143/143/143 145/145/145 146/146/146
f 147/147/147 148/148/148 149/149/149
f 147/147/147 149/149/149 150/150/150
f 151/151/151 152/152/152 153/153/153
f 151/151/151 153/153/153 154/154/154
