# Generated from Nova1492 GX by tools/nova1492/GxObjConverter
mtllib datan_common_body53_ozsx_6ec83a29.mtl
o datan_common_body53_ozsx_6ec83a29_mesh00
v 0.134514 1.262884 -0.006856
v 0.001336 0.904803 -0.139041
v -0.131842 1.262884 -0.006856
v -0.380563 0.897452 -0.034347
v -0.127005 0.119369 -0.006856
v 0.129677 0.119369 -0.006856
v 0.383234 0.897452 -0.034347
v -0.156633 1.309744 -0.00001
v 0.159304 1.309744 -0.00001
v -0.432244 0.904802 -0.00001
v -0.16102 0.072509 -0.00001
v 0.163692 0.072509 -0.000011
v 0.434915 0.904803 -0.00001
v -0.131842 1.262884 0.006835
v 0.001336 0.904803 0.13902
v 0.134514 1.262884 0.006835
v -0.380563 0.897452 0.034326
v -0.127006 0.119369 0.006835
v 0.129677 0.119369 0.006835
v 0.383234 0.897452 0.034326
vt 0.320488 0.93958
vt 0.25 0.674797
vt 0.179512 0.93958
vt 0.040721 0.669047
vt 0.174555 0.06042
vt 0.317789 0.06042
vt 0.459279 0.653734
vt 0.165679 0.976235
vt 0.334321 0.976235
vt 0.011883 0.674797
vt 0.155574 0.023765
vt 0.33677 0.023765
vt 0.488117 0.659484
vt 0.179512 0.93958
vt 0.25 0.674797
vt 0.320488 0.93958
vt 0.040721 0.669047
vt 0.174555 0.06042
vt 0.317789 0.06042
vt 0.459279 0.653734
vn 0.175121 0.246598 -0.953164
vn -0 0.076532 -0.997067
vn -0.064328 0.201277 -0.97742
vn -0.34013 0.076052 -0.937298
vn -0.197072 -0.140764 -0.970231
vn 0.073402 -0.12933 -0.988881
vn 0.34678 0.053963 -0.936393
vn -0.678905 0.734226 0
vn 0.307011 0.951706 0
vn -0.997931 0.06429 0
vn -0.38064 -0.924723 -0
vn 0.859244 -0.511566 -0
vn 0.971836 0.235657 0
vn -0.064328 0.201277 0.97742
vn 0 0.076532 0.997067
vn 0.175121 0.246598 0.953164
vn -0.34013 0.076052 0.937298
vn -0.197072 -0.140764 0.970231
vn 0.073403 -0.129331 0.988881
vn 0.34678 0.053963 0.936393
usemtl datan_common_body53_ozsx_6ec83a29
f 1/1/1 2/2/2 3/3/3
f 3/3/3 2/2/2 4/4/4
f 4/4/4 2/2/2 5/5/5
f 5/5/5 2/2/2 6/6/6
f 6/6/6 2/2/2 7/7/7
f 7/7/7 2/2/2 1/1/1
f 8/8/8 9/9/9 3/3/3
f 1/1/1 3/3/3 9/9/9
f 10/10/10 8/8/8 4/4/4
f 3/3/3 4/4/4 8/8/8
f 11/11/11 10/10/10 5/5/5
f 4/4/4 5/5/5 10/10/10
f 12/12/12 11/11/11 6/6/6
f 5/5/5 6/6/6 11/11/11
f 13/13/13 12/12/12 7/7/7
f 6/6/6 7/7/7 12/12/12
f 9/9/9 13/13/13 1/1/1
f 7/7/7 1/1/1 13/13/13
f 14/14/14 15/15/15 16/16/16
f 17/17/17 15/15/15 14/14/14
f 18/18/18 15/15/15 17/17/17
f 19/19/19 15/15/15 18/18/18
f 20/20/20 15/15/15 19/19/19
f 16/16/16 15/15/15 20/20/20
f 14/14/14 9/9/9 8/8/8
f 9/9/9 14/14/14 16/16/16
f 17/17/17 8/8/8 10/10/10
f 8/8/8 17/17/17 14/14/14
f 18/18/18 10/10/10 11/11/11
f 10/10/10 18/18/18 17/17/17
f 19/19/19 11/11/11 12/12/12
f 11/11/11 19/19/19 18/18/18
f 20/20/20 12/12/12 13/13/13
f 12/12/12 20/20/20 19/19/19
f 16/16/16 13/13/13 9/9/9
f 13/13/13 16/16/16 20/20/20
o datan_common_body53_ozsx_6ec83a29_mesh01
v -0.605244 1.235011 0.60657
v 0.607916 1.235011 0.60657
v 0.607916 1.235011 -0.606591
v -0.605244 1.235011 -0.606591
vt 0.505941 0.005941
vt 0.744059 0.005941
vt 0.744059 0.244059
vt 0.505941 0.244059
vn 0 1 0
vn 0 1 0
vn 0 1 0
vn 0 1 0
usemtl datan_common_body53_ozsx_6ec83a29
f 21/21/21 22/22/22 23/23/23
f 23/23/23 24/24/24 21/21/21
o datan_common_body53_ozsx_6ec83a29_mesh02
v 0.607916 0.298459 -0.606591
v -0.605244 0.298459 -0.60659
v -0.605244 0.298459 0.60657
v 0.607916 0.298459 0.60657
vt 0.505941 0.005941
vt 0.744059 0.005941
vt 0.744059 0.244059
vt 0.505941 0.244059
vn -0 1 -0
vn -0 1 -0
vn -0 1 -0
vn -0 1 -0
usemtl datan_common_body53_ozsx_6ec83a29
f 25/25/25 26/26/26 27/27/27
f 27/27/27 28/28/28 25/25/25
o datan_common_body53_ozsx_6ec83a29_mesh03
v -0.041302 -0.000045 -0.001067
v -0.041302 0.074821 -0.001067
v 0.041321 0.074821 -0.001067
v 0.041321 -0.000045 -0.001067
v -0.041302 -0.000045 0.001046
v 0.041321 -0.000045 0.001046
v 0.041321 0.074821 0.001046
v -0.041302 0.074821 0.001046
vt 0.753984 0.023516
vt 0.753984 0.476485
vt 0.988359 0.476485
vt 0.996016 0.023515
vt 0.761641 0.023516
vt 0.996016 0.023516
vt 0.996016 0.476485
vt 0.753984 0.476485
vn -0.333334 -0.666669 -0.666664
vn -0.816497 0.408248 -0.408248
vn 0.333333 0.666667 -0.666667
vn 0.816498 -0.408249 -0.408246
vn -0.666666 -0.333333 0.666668
vn 0.408247 -0.816495 0.408253
vn 0.666667 0.333333 0.666667
vn -0.408248 0.816497 0.408248
usemtl datan_common_body53_ozsx_6ec83a29
f 29/29/29 30/30/30 31/31/31
f 31/31/31 32/32/32 29/29/29
f 33/33/33 34/34/34 35/35/35
f 35/35/35 36/36/36 33/33/33
f 29/29/29 32/32/32 34/34/34
f 34/34/34 33/33/33 29/29/29
f 32/32/32 31/31/31 35/35/35
f 35/35/35 34/34/34 32/32/32
f 31/31/31 30/30/30 36/36/36
f 36/36/36 35/35/35 31/31/31
f 30/30/30 29/29/29 33/33/33
f 33/33/33 36/36/36 30/30/30
