# Generated from Nova1492 GX by tools/nova1492/GxObjConverter
mtllib datan_common_body21_rzo_56411c08.mtl
o datan_common_body21_rzo_56411c08
v -0.041571 0.276372 0.453654
v 0.041494 0.276372 0.453654
v 0.04354 0.460199 0.389631
v -0.043617 0.460199 0.389631
v -0.042973 0.519809 0.242078
v 0.042896 0.519809 0.242078
v 0.071246 0.455851 -0.154019
v -0.071323 0.455851 -0.154019
v 0.052498 0.396352 -0.613529
v -0.052575 0.396352 -0.613529
v -0.090847 0.136916 0.458535
v 0.090769 0.136917 0.458535
v 0.108033 0.277096 0.375259
v 0.117678 0.143225 0.13065
v 0.104759 0.435814 0.292077
v 0.107959 0.225254 -0.160727
v 0.082281 0.263592 -0.652446
v -0.082358 0.263592 -0.652446
v -0.108036 0.225254 -0.160727
v -0.117755 0.143225 0.13065
v -0.104836 0.435814 0.292077
v -0.10811 0.277096 0.375259
v -0.097325 0.050268 0.459549
v -0.117755 0.050268 0.13065
v 0.117678 0.143225 0.13065
v 0.117678 0.050268 0.130651
v 0.097248 0.050268 0.459549
v 0.117678 0.050268 0.13065
v 0.066143 0.143225 0.54719
v -0.06622 0.143225 0.54719
v -0.06622 0.050268 0.54719
v 0.066143 0.050268 0.547189
v -0.090846 0.136917 0.458535
v -0.097325 0.050268 0.459549
v 0.090769 0.136917 0.458535
v 0.097248 0.050268 0.459549
v -0.05511 -0.183192 0.151243
v 0.055025 -0.183192 0.151243
v 0.088617 0.187116 0.203621
v -0.088702 0.187116 0.203621
v 0.055025 -0.183192 -0.0668
v 0.088617 0.187116 -0.10377
v 0.055025 -0.183192 -0.0668
v -0.05511 -0.183192 -0.0668
v -0.088702 0.187116 -0.10377
v 0.088617 0.187116 -0.10377
vt 0.252715 0.192959
vt 0.289073 0.192959
vt 0.290157 0.233456
vt 0.243975 0.233456
vt 0.251973 0.35055
vt 0.289816 0.35055
vt 0.317375 0.6531
vt 0.217074 0.6531
vt 0.294904 0.929801
vt 0.239229 0.929801
vt 0.216259 0.133339
vt 0.324303 0.133339
vt 0.338408 0.266236
vt 0.438276 0.393514
vt 0.351617 0.320443
vt 0.366103 0.657139
vt 0.321154 0.976235
vt 0.212979 0.976235
vt 0.168347 0.672452
vt 0.102667 0.408827
vt 0.190488 0.320443
vt 0.20338 0.266236
vt 0.157776 0.097722
vt 0.05238 0.362603
vt 0.053722 0.497136
vt 0.011883 0.465176
vt 0.375129 0.097722
vt 0.488117 0.362603
vt 0.302134 0.064534
vt 0.239655 0.064534
vt 0.239655 0.023765
vt 0.302134 0.023765
vt 0.168215 0.064686
vt 0.168091 0.024226
vt 0.365917 0.064686
vt 0.366041 0.024226
vt 0.750859 0.523515
vt 0.817727 0.523515
vt 0.819626 0.976485
vt 0.74896 0.976485
vt 0.982606 0.523515
vt 0.976438 0.976485
vt 0.519995 0.523515
vt 0.578324 0.523515
vt 0.584492 0.976485
vt 0.513827 0.976485
vn -0.85354 0.16287 0.494917
vn 0.730642 0.279959 0.622724
vn 0 0.927195 0.37458
vn 0 0.927195 0.37458
vn 0 0.927195 0.37458
vn 0 0.927195 0.37458
vn 0.814576 0.578989 -0.035189
vn -0.814575 0.57899 -0.035189
vn 0 0.281301 -0.95962
vn -0.96873 0.237938 -0.070333
vn -0.730643 0.279959 0.622723
vn 0.730642 0.279959 0.622724
vn 0.730642 0.279959 0.622724
vn 0.998076 -0 0.061997
vn 0.814576 0.578989 -0.035189
vn 0.986626 0.158218 -0.039186
vn 0 0.281301 -0.95962
vn -0.96873 0.237938 -0.070333
vn -0.985048 0.158773 -0.066871
vn 0 -0 -1
vn -0.85354 0.16287 0.494917
vn -0.730643 0.279959 0.622723
vn -0.993703 0.075272 0.082999
vn 0 -0 -1
vn -0 -0.000002 -1
vn 0 -0 -1
vn 0.998076 -0 0.061997
vn 0.998076 -0 0.061997
vn 0.963517 -0 0.267646
vn -0.963517 -0 0.267646
vn -0.963517 -0 0.267646
vn 0.939808 0.074175 0.333557
vn -0.963517 -0 0.267646
vn -0.939808 0.074175 0.333556
vn 0.939808 0.074175 0.333557
vn 0.939808 0.074175 0.333557
vn -0.994696 0.089962 0.049862
vn 0.994695 0.089969 0.049866
vn 0.994695 0.089969 0.049866
vn -0.994696 0.089962 0.049862
vn 0.994695 0.089969 0.049866
vn 0.994695 0.089969 0.049866
vn -0.000045 0.085468 -0.996341
vn -0.994696 0.089962 0.049862
vn -0.994696 0.089962 0.049862
vn -0.000045 0.085468 -0.996341
usemtl datan_common_body21_rzo_56411c08
f 1/1/1 2/2/2 3/3/3
f 3/3/3 4/4/4 1/1/1
f 5/5/5 6/6/6 7/7/7
f 7/7/7 8/8/8 5/5/5
f 8/8/8 7/7/7 9/9/9
f 9/9/9 10/10/10 8/8/8
f 11/11/11 12/12/12 2/2/2
f 2/2/2 1/1/1 11/11/11
f 13/13/13 14/14/14 15/15/15
f 14/14/14 13/13/13 12/12/12
f 15/15/15 16/16/16 7/7/7
f 16/16/16 15/15/15 14/14/14
f 7/7/7 17/17/17 9/9/9
f 17/17/17 7/7/7 16/16/16
f 17/17/17 18/18/18 10/10/10
f 10/10/10 9/9/9 17/17/17
f 18/18/18 19/19/19 8/8/8
f 8/8/8 10/10/10 18/18/18
f 19/19/19 20/20/20 21/21/21
f 21/21/21 8/8/8 19/19/19
f 20/20/20 11/11/11 22/22/22
f 22/22/22 21/21/21 20/20/20
f 23/23/23 20/20/20 24/24/24
f 20/20/20 23/23/23 11/11/11
f 20/20/20 25/25/25 26/26/26
f 26/26/26 24/24/24 20/20/20
f 14/14/14 12/12/12 27/27/27
f 27/27/27 28/28/28 14/14/14
f 29/29/29 30/30/30 31/31/31
f 31/31/31 32/32/32 29/29/29
f 12/12/12 11/11/11 30/30/30
f 30/30/30 29/29/29 12/12/12
f 33/33/33 34/34/34 31/31/31
f 31/31/31 30/30/30 33/33/33
f 32/32/32 35/35/35 29/29/29
f 35/35/35 32/32/32 36/36/36
f 2/2/2 13/13/13 15/15/15
f 15/15/15 3/3/3 2/2/2
f 22/22/22 1/1/1 21/21/21
f 21/21/21 5/5/5 8/8/8
f 13/13/13 2/2/2 12/12/12
f 1/1/1 22/22/22 11/11/11
f 5/5/5 21/21/21 4/4/4
f 15/15/15 6/6/6 3/3/3
f 4/4/4 21/21/21 1/1/1
f 6/6/6 15/15/15 7/7/7
f 5/5/5 4/4/4 6/6/6
f 3/3/3 6/6/6 4/4/4
f 37/37/37 38/38/38 39/39/39
f 39/39/39 40/40/40 37/37/37
f 38/38/38 41/41/41 42/42/42
f 42/42/42 39/39/39 38/38/38
f 43/43/43 44/44/44 45/45/45
f 45/45/45 46/46/46 43/43/43
