# Generated from Nova1492 GX by tools/nova1492/GxObjConverter
mtllib datan_common_body9_btro_4c6bc349.mtl
o datan_common_body9_btro_4c6bc349
v -0.096934 0.020168 0.279694
v -0.105701 0.099163 0.221943
v 0.1057 0.099163 0.221943
v 0.096934 0.020168 0.279695
v -0.079443 0.002893 0.420472
v 0.079443 0.002893 0.420472
v 0.079442 0.095548 0.485226
v -0.079443 0.095548 0.485226
v 0.110504 0.177005 0.397907
v 0.096971 0.440347 0.097232
v -0.110506 0.177005 0.397907
v -0.096975 0.440346 0.097232
v 0.077915 0.46516 0.2463
v 0.077221 0.311422 0.418565
v -0.077918 0.46516 0.2463
v -0.077223 0.311422 0.418565
v 0.068635 0.440676 -0.505992
v 0.1057 0.154581 0.111895
v 0.068636 0.206449 -0.504708
v -0.105701 0.154581 0.111895
v -0.068638 0.440675 -0.505992
v -0.068637 0.206449 -0.504708
v 0.068636 0.206449 -0.504708
v -0.068637 0.206449 -0.504708
v -0.068638 0.440675 -0.505992
v 0.068635 0.440676 -0.505992
v -0.079443 0.095548 0.485226
v 0.079442 0.095548 0.485226
v 0.110504 0.177005 0.397907
v -0.110506 0.177005 0.397907
v -0.077223 0.311422 0.418565
v 0.077221 0.311422 0.418565
v 0.077915 0.46516 0.2463
v -0.077918 0.46516 0.2463
v -0.068467 0.153159 -0.001038
v -0.121574 0.108524 0.078788
v -0.076124 0.146301 0.086345
v -0.114322 0.11754 -0.00097
v -0.080602 0.070808 0.172367
v -0.04726 0.109022 0.178875
v -0.097199 0.078556 0.255495
v -0.045962 0.110001 0.254486
v -0.124966 0.477405 0.005703
v 0.124963 0.477406 0.005703
v 0.115706 0.44584 -0.225234
v -0.115709 0.44584 -0.225234
v -0.124965 0.03303 -0.001844
v 0.124964 0.033031 -0.001844
v 0.115708 0.089259 -0.225234
v -0.115708 0.089259 -0.225234
v 0.121573 0.108524 0.078788
v 0.068466 0.15316 -0.001038
v 0.076123 0.146301 0.086345
v 0.114321 0.117541 -0.000971
v 0.080602 0.070809 0.172367
v 0.047259 0.109022 0.185961
v 0.097198 0.078556 0.255495
v 0.045961 0.110001 0.254486
vt 0.387786 0.065354
vt 0.393911 0.293649
vt 0.393911 0.293649
vt 0.387786 0.065354
vt 0.458453 0.023765
vt 0.458453 0.023765
vt 0.488117 0.318704
vt 0.488117 0.318704
vt 0.432791 0.427621
vt 0.319903 0.887682
vt 0.432791 0.427621
vt 0.319903 0.887682
vt 0.352213 0.976235
vt 0.434106 0.751225
vt 0.352213 0.976235
vt 0.434106 0.751225
vt 0.014583 0.794436
vt 0.328909 0.456093
vt 0.011883 0.513818
vt 0.328909 0.456093
vt 0.014583 0.779123
vt 0.011883 0.513818
vt 0.864735 0.354595
vt 0.770214 0.354598
vt 0.770214 0.023522
vt 0.872391 0.023519
vt 0.544665 0.523516
vt 0.705335 0.523515
vt 0.738242 0.631582
vt 0.511758 0.646894
vt 0.547018 0.782149
vt 0.702982 0.782149
vt 0.703718 0.976485
vt 0.546283 0.976485
vt 0.978794 0.937988
vt 0.915602 0.880781
vt 0.96124 0.87313
vt 0.940246 0.946866
vt 0.886641 0.686698
vt 0.934227 0.686369
vt 0.910712 0.532573
vt 0.944778 0.540919
vt 0.271932 0.907797
vt 0.271932 0.907797
vt 0.17339 0.891123
vt 0.165733 0.891124
vt 0.268 0.172231
vt 0.268 0.172231
vt 0.165733 0.280564
vt 0.165733 0.280564
vt 0.915602 0.880781
vt 0.978794 0.937988
vt 0.96124 0.87313
vt 0.940246 0.946866
vt 0.886641 0.686698
vt 0.934227 0.686369
vt 0.910712 0.532573
vt 0.944778 0.540919
vn -0.96699 -0.201366 0.156145
vn -0.999385 0.031328 0.015779
vn 0.999385 0.031335 0.015778
vn 0.995008 -0.098438 0.01638
vn -0.990394 -0.079212 0.113335
vn 0.96718 -0.145552 0.208271
vn 0.96718 -0.145552 0.208271
vn -0.96699 -0.201366 0.156145
vn 0.981739 0.162806 0.098404
vn 0.998899 -0.000255 -0.046922
vn -0.98174 0.162798 0.098404
vn -0.98174 0.162798 0.098404
vn 0.981739 0.162806 0.098404
vn 0.959444 0.208393 0.189842
vn -0.98174 0.162798 0.098404
vn -0.959445 0.208385 0.189843
vn 0.998899 -0.000255 -0.046922
vn 0.999385 0.031335 0.015778
vn 0.998899 -0.000255 -0.046922
vn -0.998197 -0.000331 -0.060029
vn -0.998197 -0.000331 -0.060029
vn -0.998197 -0.000331 -0.060029
vn 0 -0.005479 -0.999985
vn 0 -0.005479 -0.999985
vn 0 -0.005479 -0.999985
vn 0 -0.005479 -0.999985
vn -0.000002 0.731231 0.68213
vn -0.000001 0.731231 0.68213
vn 0 -0.151909 0.988395
vn 0 -0.151909 0.988395
vn 0 -0.151909 0.988395
vn 0 -0.151909 0.988395
vn -0.000001 0.74609 0.665846
vn -0.000001 0.74609 0.665846
vn -0.813481 0.56965 0.117249
vn -0.788223 0.458116 0.410894
vn -0.788223 0.458116 0.410894
vn -0.813481 0.56965 0.117249
vn -0.886093 0.462812 -0.025364
vn -0.886093 0.462812 -0.025364
vn -0.886093 0.462812 -0.025364
vn -0.752857 0.650804 0.09829
vn -0.996478 0.04597 -0.070127
vn 0.99642 0.046329 -0.070723
vn -0 0.060236 -0.998184
vn -0.996478 0.04597 -0.070127
vn -0.99642 0.046325 -0.070723
vn 0.99642 0.046329 -0.070723
vn -0 0.060236 -0.998184
vn -0.996478 0.04597 -0.070127
vn 0.788221 0.45812 0.410895
vn 0.813478 0.569655 0.117249
vn 0.788221 0.45812 0.410895
vn 0.813478 0.569655 0.117249
vn 0.876254 0.481176 -0.025457
vn 0.876254 0.481176 -0.025457
vn 0.876254 0.481176 -0.025457
vn 0.752866 0.650814 0.098149
usemtl datan_common_body9_btro_4c6bc349
f 1/1/1 2/2/2 3/3/3
f 3/3/3 4/4/4 1/1/1
f 5/5/5 6/6/6 7/7/7
f 7/7/7 8/8/8 5/5/5
f 6/6/6 4/4/4 9/9/9
f 9/9/9 7/7/7 6/6/6
f 9/9/9 3/3/3 10/10/10
f 3/3/3 9/9/9 4/4/4
f 2/2/2 1/1/1 11/11/11
f 2/2/2 11/11/11 12/12/12
f 1/1/1 5/5/5 8/8/8
f 8/8/8 11/11/11 1/1/1
f 13/13/13 14/14/14 9/9/9
f 15/15/15 11/11/11 16/16/16
f 12/12/12 10/10/10 17/17/17
f 10/10/10 18/18/18 19/19/19
f 20/20/20 12/12/12 21/21/21
f 12/12/12 13/13/13 10/10/10
f 15/15/15 13/13/13 12/12/12
f 17/17/17 21/21/21 12/12/12
f 10/10/10 3/3/3 18/18/18
f 13/13/13 9/9/9 10/10/10
f 19/19/19 17/17/17 10/10/10
f 20/20/20 2/2/2 12/12/12
f 12/12/12 11/11/11 15/15/15
f 21/21/21 22/22/22 20/20/20
f 23/23/23 24/24/24 25/25/25
f 25/25/25 26/26/26 23/23/23
f 27/27/27 28/28/28 29/29/29
f 29/29/29 30/30/30 27/27/27
f 31/31/31 32/32/32 33/33/33
f 33/33/33 34/34/34 31/31/31
f 30/30/30 29/29/29 32/32/32
f 32/32/32 31/31/31 30/30/30
f 35/35/35 36/36/36 37/37/37
f 35/35/35 38/38/38 36/36/36
f 37/37/37 39/39/39 40/40/40
f 37/37/37 36/36/36 39/39/39
f 40/40/40 41/41/41 42/42/42
f 40/40/40 39/39/39 41/41/41
f 43/43/43 44/44/44 45/45/45
f 45/45/45 46/46/46 43/43/43
f 47/47/47 48/48/48 44/44/44
f 44/44/44 43/43/43 47/47/47
f 44/44/44 49/49/49 45/45/45
f 49/49/49 44/44/44 48/48/48
f 49/49/49 50/50/50 46/46/46
f 46/46/46 45/45/45 49/49/49
f 50/50/50 47/47/47 43/43/43
f 43/43/43 46/46/46 50/50/50
f 51/51/51 52/52/52 53/53/53
f 54/54/54 52/52/52 51/51/51
f 55/55/55 53/53/53 56/56/56
f 51/51/51 53/53/53 55/55/55
f 57/57/57 56/56/56 58/58/58
