# Generated from Nova1492 GX by tools/nova1492/GxObjConverter
mtllib datan_common_body58_scrs_af595b28.mtl
o datan_common_body58_scrs_af595b28_mesh00
v 0.150619 0.222482 -0.514531
v -0.015435 0.222482 -0.535902
v -0.203086 0.236082 -0.033441
v 0.204936 0.236082 0.019069
v -0.25984 0.236082 0.231937
v 0.192648 0.236082 0.29017
v -0.187282 0.093869 0.509813
v 0.052097 0.093869 0.54062
v -0.039958 0 -0.539058
v -0.263344 0.001869 -0.041196
v -0.326665 0.001869 0.223337
v -0.222634 0.001869 0.505263
v 0.08745 0.001869 0.545169
v 0.259473 0.001869 0.29877
v 0.265194 0.001869 0.026823
v 0.175143 0 -0.511375
vt 0.160942 0.012132
vt 0.339057 0.012132
vt 0.414594 0.489444
vt 0.085405 0.489444
vt 0.432949 0.740564
vt 0.067051 0.740564
vt 0.344983 0.985675
vt 0.147361 0.985675
vt 0.366493 0.012132
vt 0.464341 0.489444
vt 0.488117 0.740564
vt 0.374168 0.985675
vt 0.125832 0.985675
vt 0.011883 0.74822
vt 0.028003 0.4971
vt 0.125851 0.012132
vn 0.635402 0.765099 -0.104347
vn -0.621259 0.741945 -0.252101
vn -0.593687 0.775166 -0.215993
vn 0.60913 0.792948 -0.013945
vn -0.612016 0.786124 0.086288
vn 0.49388 0.74872 0.442156
vn -0.50245 0.575747 0.645026
vn 0.12892 0.362591 0.922988
vn -0.910305 0.174703 -0.375265
vn -0.926306 0.256503 -0.275976
vn -0.942835 0.29207 0.160491
vn -0.43972 0.124986 0.889396
vn 0.536722 0.213935 0.816187
vn 0.939859 0.266603 0.213515
vn 0.976032 0.201075 -0.083253
vn 0.980698 0.105766 -0.164457
usemtl datan_common_body58_scrs_af595b28
f 1/1/1 2/2/2 3/3/3
f 3/3/3 4/4/4 1/1/1
f 4/4/4 3/3/3 5/5/5
f 5/5/5 6/6/6 4/4/4
f 6/6/6 5/5/5 7/7/7
f 7/7/7 8/8/8 6/6/6
f 9/9/9 10/10/10 3/3/3
f 3/3/3 2/2/2 9/9/9
f 10/10/10 11/11/11 5/5/5
f 5/5/5 3/3/3 10/10/10
f 11/11/11 12/12/12 7/7/7
f 7/7/7 5/5/5 11/11/11
f 12/12/12 13/13/13 8/8/8
f 8/8/8 7/7/7 12/12/12
f 13/13/13 14/14/14 6/6/6
f 6/6/6 8/8/8 13/13/13
f 14/14/14 15/15/15 4/4/4
f 4/4/4 6/6/6 14/14/14
f 15/15/15 16/16/16 1/1/1
f 1/1/1 4/4/4 15/15/15
o datan_common_body58_scrs_af595b28_mesh01
v 0.291673 -0.028361 0.241274
v 0.291673 0.023073 -0.170544
v 0.418547 0.131462 0.239284
v 0.328455 0.13828 -0.170544
v 0.328455 0.058712 0.581093
v 0.20838 0.214558 -0.170544
v 0.208381 0.261368 0.240643
v 0.328455 0.058712 0.581093
v 0.257052 0.131462 0.239284
v 0.291673 -0.028361 0.241274
v 0.291673 0.023073 -0.170544
v 0.328455 0.13828 -0.170544
v 0.208381 0.261368 0.240643
v 0.20838 0.214558 -0.170544
vt 0.777906 0.511758
vt 0.988118 0.541048
vt 0.778959 0.621172
vt 0.988118 0.628828
vt 0.511883 0.561344
vt 0.988117 0.697548
vt 0.77824 0.738242
vt 0.516661 0.555063
vt 0.771906 0.514676
vt 0.771906 0.514639
vt 0.988117 0.543718
vt 0.988117 0.54389
vt 0.779563 0.514714
vt 0.988117 0.54404
vn 0.81179 -0.550766 0.194046
vn 0.901366 -0.426908 0.072724
vn 0.97004 0.170517 0.173052
vn 0.961257 0.274009 0.030082
vn 0.90673 0.090357 0.411919
vn 0.648501 0.751582 0.120711
vn 0.619918 0.725391 0.29918
vn -0.849724 -0.337071 0.405404
vn -0.887895 -0.373817 0.268148
vn -0.903009 -0.269461 0.334613
vn -0.98655 0.021001 0.162105
vn -0.895831 -0.437835 0.076073
vn -0.839899 -0.41968 0.34415
vn -0.659237 -0.720795 0.214152
usemtl datan_common_body58_scrs_af595b28
f 17/17/17 18/18/18 19/19/19
f 20/20/20 19/19/19 18/18/18
f 17/17/17 19/19/19 21/21/21
f 19/19/19 22/22/22 23/23/23
f 22/22/22 19/19/19 20/20/20
f 21/21/21 19/19/19 23/23/23
f 24/24/24 25/25/25 26/26/26
f 27/27/27 25/25/25 28/28/28
f 25/25/25 27/27/27 26/26/26
f 25/25/25 24/24/24 29/29/29
f 28/28/28 25/25/25 30/30/30
f 29/29/29 30/30/30 25/25/25
o datan_common_body58_scrs_af595b28_mesh02
v -0.291792 0.023073 -0.170544
v -0.291792 -0.028361 0.241274
v -0.418665 0.131462 0.239284
v -0.328573 0.13828 -0.170544
v -0.328573 0.058712 0.581094
v -0.208499 0.214558 -0.170544
v -0.208499 0.261368 0.240643
v -0.328573 0.058712 0.581094
v -0.257171 0.131462 0.239284
v -0.291792 -0.028361 0.241274
v -0.291792 0.023073 -0.170544
v -0.328573 0.13828 -0.170544
v -0.208499 0.261368 0.240643
v -0.208499 0.214558 -0.170544
vt 0.988118 0.541048
vt 0.777906 0.511758
vt 0.778959 0.621172
vt 0.988118 0.628828
vt 0.511883 0.561344
vt 0.988117 0.697548
vt 0.77824 0.738242
vt 0.516661 0.555063
vt 0.771906 0.514676
vt 0.771906 0.514639
vt 0.988117 0.543718
vt 0.988117 0.54389
vt 0.779563 0.514714
vt 0.988117 0.54404
vn -0.901385 -0.426869 0.072718
vn -0.811824 -0.550721 0.19403
vn -0.970046 0.170501 0.173035
vn -0.961264 0.273982 0.03008
vn -0.906746 0.090349 0.411884
vn -0.648564 0.751529 0.120703
vn -0.619983 0.725344 0.299161
vn -0.97299 0.216816 0.079255
vn -0.954403 0.22927 0.191183
vn -0.977955 0.154792 0.140157
vn -0.961302 -0.060962 0.268666
vn -0.909143 0.256203 0.328358
vn -0.952173 0.276727 0.129571
vn -0.82286 0.51957 0.230104
usemtl datan_common_body58_scrs_af595b28
f 31/31/31 32/32/32 33/33/33
f 33/33/33 34/34/34 31/31/31
f 33/33/33 32/32/32 35/35/35
f 36/36/36 33/33/33 37/37/37
f 33/33/33 36/36/36 34/34/34
f 33/33/33 35/35/35 37/37/37
f 38/38/38 39/39/39 40/40/40
f 41/41/41 39/39/39 42/42/42
f 39/39/39 41/41/41 40/40/40
f 39/39/39 38/38/38 43/43/43
f 42/42/42 39/39/39 44/44/44
f 43/43/43 44/44/44 39/39/39
o datan_common_body58_scrs_af595b28_mesh03
v 0.194733 -0.003549 -0.803163
v -0.194733 -0.003549 -0.803163
v -0.084038 0.232034 -0.783423
v 0.084038 0.232034 -0.783423
v 0.089177 0.325724 -0.627704
v -0.089177 0.325724 -0.627704
v -0.132543 0.254088 -0.471135
v 0.132543 0.254088 -0.471135
v -0.194733 -0.004205 -0.416717
v -0.089177 0.325724 -0.627704
v -0.132543 0.254088 -0.471135
v -0.194733 -0.004205 -0.416717
v 0.194733 -0.004205 -0.416717
v 0.089177 0.325724 -0.627704
v 0.132543 0.254088 -0.471135
v 0.194733 -0.004205 -0.416717
v -0.070681 0.467649 -0.696973
v 0.070681 0.467649 -0.696973
v -0.070681 0.467649 -0.696973
v 0.070681 0.467649 -0.696973
v -0.070682 0.608635 -1.034805
v 0.070681 0.608635 -1.034805
v -0.070681 0.728229 -0.981263
v 0.070681 0.728229 -0.981263
v -0.070681 0.728229 -0.981263
v 0.070681 0.728229 -0.981263
v -0 0.469854 -1.288834
v -0 0.899318 -1.290951
v -0 0.899318 -1.290951
vt 0.734932 0.762311
vt 0.734932 0.762311
vt 0.730803 0.810343
vt 0.730803 0.817999
vt 0.630184 0.94394
vt 0.630184 0.969446
vt 0.546931 0.97734
vt 0.546931 0.936046
vt 0.513398 0.762128
vt 0.638598 0.839679
vt 0.545886 0.823038
vt 0.514444 0.988306
vt 0.514444 0.92508
vt 0.630942 0.832023
vt 0.545886 0.815382
vt 0.513398 0.762128
vt 0.679951 0.873326
vt 0.679193 0.9482
vt 0.679193 0.974095
vt 0.679951 0.873326
vt 0.873221 0.906638
vt 0.880877 0.906638
vt 0.849898 0.93517
vt 0.841257 0.947574
vt 0.848913 0.974095
vt 0.849898 0.93517
vt 0.986854 0.873246
vt 0.987132 0.960265
vt 0.986837 0.960834
vn 0.253185 0.195301 -0.947499
vn -0.531165 0.271697 -0.802524
vn -0.440038 0.057938 -0.896108
vn 0.550877 -0.004441 -0.834574
vn 0 0.999967 -0.008107
vn 0 0.972092 0.234601
vn 0 0.997911 0.06461
vn 0 0.899952 0.435989
vn -0.783261 0.242177 -0.572584
vn -0.761666 0.242316 -0.600956
vn -0.758276 0.189816 -0.623688
vn 0 0.571378 0.820687
vn 0 0.571378 0.820687
vn 0.779484 0.168181 -0.603423
vn 0.758276 0.189816 -0.623688
vn 0.767252 0.261751 -0.585501
vn -0.84056 0.07775 -0.536111
vn 0 0.936551 0.350531
vn 0 0.978441 0.206526
vn 0.840559 0.07775 -0.536111
vn -0.63773 -0.265704 -0.722981
vn 0.742659 -0.20856 -0.636365
vn -0.813736 0.071216 -0.576856
vn 0 1 0.00025
vn 0 0.999326 -0.036723
vn 0.813736 0.071216 -0.576856
vn -0 -0.814324 -0.58041
vn -0 0.136733 -0.990608
vn 0 0.98995 -0.141421
usemtl datan_common_body58_scrs_af595b28
f 45/45/45 46/46/46 47/47/47
f 47/47/47 48/48/48 45/45/45
f 49/49/49 50/50/50 51/51/51
f 51/51/51 52/52/52 49/49/49
f 46/46/46 53/53/53 54/54/54
f 54/54/54 47/47/47 46/46/46
f 55/55/55 54/54/54 53/53/53
f 56/56/56 57/57/57 52/52/52
f 52/52/52 51/51/51 56/56/56
f 58/58/58 59/59/59 60/60/60
f 60/60/60 45/45/45 48/48/48
f 48/48/48 58/58/58 60/60/60
f 47/47/47 54/54/54 61/61/61
f 50/50/50 49/49/49 62/62/62
f 62/62/62 63/63/63 50/50/50
f 48/48/48 64/64/64 58/58/58
f 48/48/48 47/47/47 65/65/65
f 65/65/65 66/66/66 48/48/48
f 65/65/65 61/61/61 67/67/67
f 61/61/61 65/65/65 47/47/47
f 63/63/63 62/62/62 68/68/68
f 68/68/68 69/69/69 63/63/63
f 64/64/64 48/48/48 66/66/66
f 66/66/66 70/70/70 64/64/64
f 66/66/66 65/65/65 71/71/71
f 65/65/65 67/67/67 72/72/72
f 72/72/72 71/71/71 65/65/65
f 69/69/69 68/68/68 73/73/73
f 72/72/72 66/66/66 71/71/71
f 66/66/66 72/72/72 70/70/70
o datan_common_body58_scrs_af595b28_mesh04
v -0.003818 0.208534 -0.694881
v -0.003818 0.253361 -0.658958
v -0.404312 0.198561 -0.614522
v -0.404312 0.198561 -0.614522
v -0.26692 0.311288 -0.778202
v -0.003818 0.208534 -0.694881
v -0.003818 0.297663 -0.622609
v -0.26692 0.400417 -0.705929
v -0.404312 0.198561 -0.614522
v -0.26692 0.400417 -0.705929
v -0.26692 0.311288 -0.778202
v -0.340315 0.39709 -0.847777
v -0.003818 0.468925 -0.906026
v -0.003818 0.558054 -0.833753
v -0.340315 0.48622 -0.775504
v -0.340315 0.48622 -0.775504
v -0.340315 0.39709 -0.847777
v -0.262765 0.591704 -0.933311
v -0.422192 0.562315 -0.957142
v -0.422192 0.621092 -0.909481
v -0.422192 0.562315 -0.957142
v -0.262765 0.591704 -0.933311
v -0.422192 0.621092 -0.909481
v -0.003818 0.468925 -0.906026
v -0.550644 0.899556 -1.182941
v -0.550644 0.899556 -1.182941
v -0.550644 0.899556 -1.182941
v 0.396676 0.198561 -0.614522
v 0.396676 0.198561 -0.614522
v 0.259284 0.311288 -0.778202
v 0.259284 0.400417 -0.705929
v 0.396676 0.198561 -0.614522
v 0.259284 0.311288 -0.778202
v 0.259284 0.400417 -0.705929
v 0.332679 0.39709 -0.847777
v 0.33268 0.48622 -0.775504
v 0.33268 0.48622 -0.775504
v 0.332679 0.39709 -0.847777
v 0.255129 0.591704 -0.933311
v 0.414556 0.562315 -0.957142
v 0.414556 0.621092 -0.909481
v 0.414556 0.562315 -0.957142
v 0.255129 0.591704 -0.933311
v 0.414556 0.621092 -0.909481
v 0.543008 0.899557 -1.182942
v 0.543008 0.899557 -1.182942
v 0.543008 0.899557 -1.182942
vt 0.544132 0.229178
vt 0.544188 0.229178
vt 0.5141 0.376267
vt 0.5141 0.071436
vt 0.61502 0.122443
vt 0.551788 0.216545
vt 0.551788 0.229178
vt 0.622676 0.32278
vt 0.512836 0.437682
vt 0.614709 0.46611
vt 0.614709 0.409254
vt 0.681131 0.087138
vt 0.730823 0.216545
vt 0.730823 0.221521
vt 0.681131 0.352852
vt 0.680641 0.46611
vt 0.680641 0.401598
vt 0.784708 0.119064
vt 0.784708 0.064005
vt 0.783265 0.455125
vt 0.783265 0.412582
vt 0.784708 0.322081
vt 0.784708 0.383764
vt 0.730823 0.221521
vt 0.988359 0.012536
vt 0.986212 0.433854
vt 0.988359 0.436789
vt 0.5141 0.376293
vt 0.5141 0.071462
vt 0.622676 0.114853
vt 0.622676 0.322846
vt 0.512836 0.437682
vt 0.614709 0.409254
vt 0.614709 0.46611
vt 0.681131 0.087276
vt 0.681131 0.352989
vt 0.680641 0.46611
vt 0.680641 0.401598
vt 0.784708 0.119048
vt 0.784708 0.05627
vt 0.783265 0.455125
vt 0.783265 0.412582
vt 0.784708 0.322065
vt 0.784708 0.383685
vt 0.988359 0.012584
vt 0.986211 0.433854
vt 0.988359 0.436837
vn 0 -0.85923 0.51159
vn 0 -0.866451 0.499263
vn 0.31352 0.100996 0.944195
vn -0.072002 -0.293579 -0.953219
vn -0.034381 -0.233454 -0.97176
vn -0 -0.21363 -0.976915
vn 0 0.926137 0.377188
vn -0.035035 0.998487 -0.042387
vn -0.464898 0.40546 -0.787065
vn -0.73582 0.259808 -0.625355
vn -0.82635 0.177082 -0.534591
vn 0.019935 -0.106684 -0.994093
vn -0 -0.09176 -0.995781
vn 0 0.929687 -0.368352
vn 0.041772 0.974544 -0.22027
vn -0.929498 0.022759 -0.368125
vn -0.912122 0.058018 -0.405791
vn 0.067064 -0.053657 -0.996305
vn 0.124363 -0.07132 -0.98967
vn -0.883258 0.105495 -0.456866
vn -0.878296 0.112696 -0.464646
vn 0.158241 0.885613 -0.436633
vn 0.19994 0.950559 -0.237615
vn -0 0.48405 -0.875041
vn 0.125542 -0.078075 -0.989011
vn -0.862963 0.133602 -0.487284
vn 0.202036 0.952428 -0.22817
vn -0.313519 0.100996 0.944196
vn 0.072002 -0.293579 -0.95322
vn 0.034381 -0.233454 -0.97176
vn 0.035035 0.998487 -0.042387
vn 0.464898 0.40546 -0.787066
vn 0.82635 0.177082 -0.534591
vn 0.73582 0.259808 -0.625355
vn -0.019936 -0.106684 -0.994093
vn -0.041772 0.974544 -0.22027
vn 0.929498 0.022759 -0.368126
vn 0.912122 0.058018 -0.405792
vn -0.067064 -0.053657 -0.996305
vn -0.124363 -0.07132 -0.98967
vn 0.883258 0.105496 -0.456866
vn 0.878296 0.112696 -0.464646
vn -0.158241 0.885613 -0.436633
vn -0.19994 0.950559 -0.237615
vn -0.125542 -0.078075 -0.989011
vn 0.862963 0.133602 -0.487284
vn -0.202036 0.952428 -0.22817
usemtl datan_common_body58_scrs_af595b28
f 74/74/74 75/75/75 76/76/76
f 77/77/77 78/78/78 79/79/79
f 80/80/80 81/81/81 76/76/76
f 76/76/76 75/75/75 80/80/80
f 82/82/82 83/83/83 84/84/84
f 79/79/79 78/78/78 85/85/85
f 85/85/85 86/86/86 79/79/79
f 81/81/81 80/80/80 87/87/87
f 87/87/87 88/88/88 81/81/81
f 84/84/84 83/83/83 89/89/89
f 89/89/89 90/90/90 84/84/84
f 91/91/91 85/85/85 92/92/92
f 85/85/85 91/91/91 86/86/86
f 90/90/90 89/89/89 93/93/93
f 93/93/93 94/94/94 90/90/90
f 88/88/88 87/87/87 95/95/95
f 95/95/95 96/96/96 88/88/88
f 87/87/87 97/97/97 95/95/95
f 91/91/91 92/92/92 98/98/98
f 94/94/94 93/93/93 99/99/99
f 96/96/96 95/95/95 100/100/100
f 74/74/74 101/101/101 75/75/75
f 102/102/102 79/79/79 103/103/103
f 80/80/80 101/101/101 104/104/104
f 101/101/101 80/80/80 75/75/75
f 105/105/105 106/106/106 107/107/107
f 79/79/79 108/108/108 103/103/103
f 108/108/108 79/79/79 86/86/86
f 104/104/104 87/87/87 80/80/80
f 87/87/87 104/104/104 109/109/109
f 106/106/106 110/110/110 107/107/107
f 110/110/110 106/106/106 111/111/111
f 86/86/86 112/112/112 108/108/108
f 113/113/113 108/108/108 112/112/112
f 111/111/111 114/114/114 110/110/110
f 114/114/114 111/111/111 115/115/115
f 109/109/109 116/116/116 87/87/87
f 116/116/116 109/109/109 117/117/117
f 87/87/87 116/116/116 97/97/97
f 112/112/112 118/118/118 113/113/113
f 115/115/115 119/119/119 114/114/114
f 117/117/117 120/120/120 116/116/116
o datan_common_body58_scrs_af595b28_mesh05
v 0.22811 0.244728 0.263206
v -0.22811 0.244728 0.263206
v -0.120677 0.102515 0.529548
v 0.120677 0.102515 0.529548
vt 0.131643 0.88132
vt 0.24418 0.88132
vt 0.216949 0.99386
vt 0.155155 0.99386
vn 0 0.772666 0.634812
vn 0 0.772666 0.634812
vn 0 0.772666 0.634812
vn 0 0.772666 0.634812
usemtl datan_common_body58_scrs_af595b28
f 121/121/121 122/122/122 123/123/123
f 123/123/123 124/124/124 121/121/121
