# Generated from Nova1492 GX by tools/nova1492/GxObjConverter
mtllib datan_common_body59_hrot_044b421d.mtl
o datan_common_body59_hrot_044b421d_mesh00
v 0.115772 0.017897 0.103407
v 0.137928 0.040732 0.108171
v 0.105312 0.027792 0.363077
v 0.080766 0.002665 0.359982
v 0.108114 0.331482 0.677402
v 0.101461 0.066057 0.726247
v 0.05156 0.084041 0.410791
v 0.063249 0.354744 0.325038
v -0.139244 0.017886 0.068613
v -0.17396 0.002781 0.323059
v -0.19873 0.027779 0.321593
v -0.161854 0.040725 0.067172
v -0.285661 0.331465 0.623676
v -0.148042 0.354735 0.29621
v -0.15973 0.084032 0.381963
v -0.292314 0.06604 0.672521
v -0.099248 0.523369 0.209009
v -0.122362 0.331472 0.645956
v -0.055185 0.331475 0.655122
v 0.039584 0.523375 0.227951
v -0.07541 0.451698 0.03432
v -0.111813 0.354736 0.301153
v 0.02702 0.354742 0.320095
v 0.063422 0.451704 0.053262
v 0.064287 0.34795 0.046959
v -0.074546 0.347944 0.028016
v -0.07541 0.451698 0.03432
v 0.063422 0.451704 0.053262
v -0.055185 0.331475 0.655122
v 0.02702 0.354742 0.320095
v 0.039584 0.523375 0.227951
v -0.122362 0.331472 0.645956
v -0.099248 0.523369 0.209009
v -0.111813 0.354736 0.301153
v 0.021172 0.219819 0.362997
v 0.02702 0.354742 0.320095
v 0.063249 0.354744 0.325038
v 0.015328 0.084467 0.405873
v 0.108114 0.331482 0.677402
v 0.063249 0.354744 0.325038
v 0.02702 0.354742 0.320095
v 0.101461 0.066057 0.726247
v 0.108114 0.331482 0.677402
v -0.055185 0.331475 0.655122
v -0.061838 0.06605 0.703967
v -0.117661 0.219813 0.344054
v -0.123505 0.084461 0.386931
v -0.111813 0.354736 0.301153
v -0.148042 0.354735 0.29621
v -0.285661 0.331465 0.623676
v -0.292314 0.06604 0.672521
v -0.129015 0.066047 0.694801
v -0.122362 0.331472 0.645956
v -0.148042 0.354735 0.29621
v -0.285661 0.331465 0.623676
v -0.111813 0.354736 0.301153
v 0.060643 0.225489 0.073701
v 0.057003 0.1026 0.100418
v 0.093788 0.116606 -0.169193
v 0.092993 0.35887 -0.163441
v -0.078189 0.225483 0.054758
v -0.04584 0.358864 -0.182383
v -0.081829 0.102594 0.081475
v -0.045044 0.1166 -0.188136
v -0.074546 0.347944 0.028016
v 0.064287 0.34795 0.046959
v 0.092993 0.35887 -0.163441
v -0.04584 0.358864 -0.182383
v 0.021172 0.219819 0.362997
v -0.117661 0.219813 0.344054
v 0.015328 0.084467 0.405873
v 0.057003 0.1026 0.100418
v -0.081829 0.102594 0.081475
v -0.123505 0.084461 0.386931
v -0.109226 0.071011 0.80052
v -0.061838 0.06605 0.703967
v -0.129015 0.066047 0.694801
v -0.074586 0.375489 -0.12341
v 0.104889 0.375497 -0.098923
v 0.152116 0.473854 -0.445091
v -0.027359 0.473846 -0.469579
v -0.0719 0.039524 -0.142988
v 0.107575 0.039532 -0.118501
v 0.104889 0.375497 -0.098923
v -0.074586 0.375489 -0.12341
v 0.149378 0.057721 -0.424894
v 0.152116 0.473854 -0.445091
v -0.030097 0.057713 -0.449381
v -0.027359 0.473846 -0.469579
v 0.217867 0.085212 -0.442155
v 0.146706 0.138649 -0.448692
v 0.095218 0.09007 -0.065312
v 0.143835 0.053561 -0.060846
v 0.079944 0.079809 -0.461294
v 0.049605 0.04987 -0.073921
v 0.109843 -0.009993 -0.462546
v 0.070032 -0.011484 -0.074777
v 0.195084 -0.006654 -0.450717
v 0.12827 -0.009203 -0.066696
v 0.079944 0.079809 -0.461294
v 0.195084 -0.006654 -0.450717
v 0.109843 -0.009993 -0.462546
v 0.146706 0.138649 -0.448692
v 0.217867 0.085212 -0.442155
v 0.049605 0.04987 -0.073921
v 0.070032 -0.011484 -0.074777
v 0.12827 -0.009203 -0.066696
v 0.095218 0.09007 -0.065312
v 0.143835 0.053561 -0.060846
v 0.04302 0.085204 -0.466011
v -0.028141 0.138641 -0.472548
v -0.079629 0.090062 -0.089168
v -0.031012 0.053553 -0.084702
v -0.094903 0.079801 -0.48515
v -0.125242 0.049862 -0.097778
v -0.065004 -0.010001 -0.486402
v -0.104815 -0.011492 -0.098633
v 0.020237 -0.006662 -0.474573
v -0.046577 -0.00921 -0.090552
v -0.094903 0.079801 -0.48515
v 0.020237 -0.006662 -0.474573
v -0.065004 -0.010001 -0.486402
v -0.028141 0.138641 -0.472548
v 0.04302 0.085204 -0.466011
v -0.125242 0.049862 -0.097778
v -0.104815 -0.011492 -0.098633
v -0.046577 -0.00921 -0.090552
v -0.079629 0.090062 -0.089168
v -0.031012 0.053553 -0.084702
v 0.160448 0.412893 -0.589799
v 0.076414 0.470236 -0.583734
v 0.054074 0.408338 -0.413062
v 0.111487 0.369161 -0.417206
v 0.001362 0.407095 -0.613275
v 0.002798 0.3652 -0.433245
v 0.03901 0.310729 -0.637597
v 0.028519 0.299362 -0.449862
v 0.13733 0.314313 -0.623088
v 0.095693 0.30181 -0.43995
v 0.001362 0.407095 -0.613275
v 0.13733 0.314313 -0.623088
v 0.03901 0.310729 -0.637597
v 0.076414 0.470236 -0.583734
v 0.160448 0.412893 -0.589799
v 0.164292 0.178217 -0.617905
v 0.08403 0.2372 -0.639481
v 0.059497 0.221675 -0.452749
v 0.114333 0.181377 -0.438008
v 0.004826 0.172253 -0.63859
v 0.005384 0.177302 -0.45214
v 0.036137 0.07313 -0.616464
v 0.026776 0.10958 -0.437023
v 0.134693 0.076816 -0.60368
v 0.09411 0.112098 -0.428289
v 0.004826 0.172253 -0.63859
v 0.134693 0.076816 -0.60368
v 0.036137 0.07313 -0.616464
v 0.08403 0.2372 -0.639481
v 0.164292 0.178217 -0.617905
vt 0.489454 0.129575
vt 0.489208 0.145526
vt 0.327539 0.147765
vt 0.326421 0.129575
vt 0.139649 0.4559
vt 0.095779 0.215408
vt 0.286762 0.211363
vt 0.354358 0.455033
vt 0.489454 0.129576
vt 0.327814 0.129575
vt 0.327539 0.147765
vt 0.48927 0.145526
vt 0.139649 0.4559
vt 0.354358 0.455033
vt 0.286762 0.211363
vt 0.095779 0.215408
vt 0.422664 0.824905
vt 0.135342 0.78947
vt 0.135342 0.729863
vt 0.422664 0.695744
vt 0.535419 0.97536
vt 0.363733 0.975361
vt 0.363732 0.844645
vt 0.535419 0.8462
vt 0.538303 0.448736
vt 0.538303 0.448736
vt 0.541963 0.546234
vt 0.541963 0.546234
vt 0.135831 0.46843
vt 0.354358 0.47363
vt 0.420889 0.622588
vt 0.135831 0.46843
vt 0.420889 0.622588
vt 0.354358 0.47363
vt 0.327539 0.339635
vt 0.35262 0.455592
vt 0.35262 0.455592
vt 0.294418 0.211805
vt 0.135342 0.632824
vt 0.353993 0.632824
vt 0.353993 0.686532
vt 0.021539 0.635745
vt 0.021538 0.886362
vt 0.119221 0.886362
vt 0.119212 0.635745
vt 0.319883 0.331979
vt 0.294418 0.211805
vt 0.35262 0.455592
vt 0.35262 0.455592
vt 0.021527 0.886362
vt 0.021526 0.635745
vt 0.119236 0.635745
vt 0.119227 0.886362
vt 0.353993 0.88627
vt 0.135342 0.88627
vt 0.353993 0.832561
vt 0.519215 0.324757
vt 0.497111 0.211805
vt 0.669416 0.209747
vt 0.674874 0.439463
vt 0.519214 0.332413
vt 0.674873 0.439463
vt 0.497111 0.211805
vt 0.669416 0.209747
vt 0.543254 0.824904
vt 0.543254 0.695744
vt 0.674322 0.695744
vt 0.674322 0.824904
vt 0.327539 0.342231
vt 0.327539 0.342231
vt 0.320092 0.137155
vt 0.489454 0.137155
vt 0.489454 0.137155
vt 0.320092 0.137155
vt 0.02401 0.22265
vt 0.086214 0.215408
vt 0.086214 0.215408
vt 0.641989 0.845613
vt 0.641989 0.675035
vt 0.867049 0.675034
vt 0.867049 0.845613
vt 0.637694 0.140017
vt 0.637694 0.140017
vt 0.637694 0.460147
vt 0.633866 0.460147
vt 0.83636 0.137186
vt 0.866984 0.534367
vt 0.844016 0.137186
vt 0.866984 0.534367
vt 0.823275 0.16402
vt 0.823275 0.208186
vt 0.60184 0.185648
vt 0.60184 0.155764
vt 0.823275 0.163835
vt 0.60184 0.155662
vt 0.823275 0.070058
vt 0.60184 0.091553
vt 0.823275 0.070162
vt 0.60184 0.091679
vt 0.138089 0.1155
vt 0.058579 0.027359
vt 0.116512 0.025518
vt 0.095989 0.181296
vt 0.040736 0.122821
vt 0.138024 0.115471
vt 0.116496 0.025554
vt 0.058607 0.027415
vt 0.095985 0.181121
vt 0.040779 0.122797
vt 0.823275 0.16402
vt 0.823274 0.208186
vt 0.60184 0.185648
vt 0.60184 0.155764
vt 0.823275 0.163835
vt 0.60184 0.155662
vt 0.823275 0.070058
vt 0.60184 0.091553
vt 0.823275 0.070162
vt 0.60184 0.091679
vt 0.138087 0.1155
vt 0.058578 0.027359
vt 0.116511 0.025518
vt 0.095986 0.181296
vt 0.040735 0.122821
vt 0.138022 0.115471
vt 0.116495 0.025554
vt 0.058606 0.027415
vt 0.095982 0.181121
vt 0.040778 0.122797
vt 0.959609 0.475683
vt 0.950118 0.526995
vt 0.841441 0.483384
vt 0.847923 0.440344
vt 0.959638 0.475489
vt 0.847946 0.440189
vt 0.97502 0.377404
vt 0.858452 0.378524
vt 0.974986 0.377628
vt 0.858432 0.378657
vt 0.284574 0.116022
vt 0.204406 0.028722
vt 0.263107 0.025911
vt 0.24131 0.180764
vt 0.187238 0.121257
vt 0.968155 0.242632
vt 0.976276 0.293842
vt 0.860237 0.289264
vt 0.853782 0.256084
vt 0.968095 0.242233
vt 0.853704 0.255566
vt 0.95273 0.142237
vt 0.845933 0.19003
vt 0.952761 0.142443
vt 0.845955 0.182521
vt 0.284574 0.116213
vt 0.204406 0.028844
vt 0.263107 0.026166
vt 0.24131 0.180941
vt 0.187238 0.121338
vn 0.014465 -0.78257 -0.622394
vn 0.864904 -0.129948 -0.484825
vn 0.719907 -0.171102 0.67265
vn -0.099456 -0.866361 0.489414
vn 0.61768 0.578986 0.53221
vn 0.63979 0.123557 0.758553
vn 0.748837 -0.219363 -0.625399
vn 0.573916 0.51981 -0.632786
vn 0.140881 -0.816071 -0.560518
vn -0.013161 -0.931463 0.363597
vn -0.925323 -0.212638 0.313946
vn -0.745276 -0.151156 -0.649396
vn -0.737728 0.578927 0.347278
vn -0.383634 0.520006 -0.763164
vn -0.553913 -0.219465 -0.803129
vn -0.819626 0.123493 0.559431
vn -0.475558 0.561187 -0.677432
vn -0.213841 0.729401 0.649805
vn 0.031885 0.729411 0.683332
vn 0.639607 0.561235 -0.52528
vn -0.497336 0.689892 -0.526028
vn -0.776607 0.39237 -0.492876
vn 0.880397 0.392145 -0.266691
vn 0.620018 0.689941 -0.373577
vn 0.933692 0.319867 -0.160949
vn -0.856475 0.31979 -0.405199
vn -0.497336 0.689892 -0.526028
vn 0.620018 0.689941 -0.373577
vn 0.031885 0.729411 0.683332
vn 0.880397 0.392145 -0.266691
vn 0.639607 0.561235 -0.52528
vn -0.213841 0.729401 0.649805
vn -0.475558 0.561187 -0.677432
vn -0.776607 0.39237 -0.492876
vn 0.837158 -0.068103 -0.542705
vn 0.880397 0.392145 -0.266691
vn 0.573916 0.51981 -0.632786
vn 0.729241 -0.65936 -0.182899
vn 0.61768 0.578986 0.53221
vn 0.573916 0.51981 -0.632786
vn 0.880397 0.392145 -0.266691
vn 0.63979 0.123557 0.758553
vn 0.61768 0.578986 0.53221
vn 0.031885 0.729411 0.683332
vn 0.49562 0.145163 0.856323
vn -0.658591 -0.05552 -0.75045
vn -0.461478 -0.884153 0.072877
vn -0.776607 0.39237 -0.492876
vn -0.383634 0.520006 -0.763164
vn -0.737728 0.578927 0.347278
vn -0.819626 0.123493 0.559431
vn -0.706919 0.14511 0.692249
vn -0.213841 0.729401 0.649805
vn -0.383634 0.520006 -0.763164
vn -0.737728 0.578927 0.347278
vn -0.776607 0.39237 -0.492876
vn 0.994248 0.078592 0.072761
vn -0.029548 -0.469661 -0.882352
vn 0.99082 0.000043 0.135187
vn 0.689439 0.712392 0.131037
vn -0.976869 0.082347 -0.197348
vn -0.699404 0.712332 -0.058456
vn 0.422849 -0.488214 -0.763443
vn -0.99082 -0.000043 -0.135187
vn -0.856475 0.31979 -0.405199
vn 0.933692 0.319867 -0.160949
vn 0.689439 0.712392 0.131037
vn -0.699404 0.712332 -0.058456
vn 0.837158 -0.068103 -0.542705
vn -0.658591 -0.05552 -0.75045
vn 0.729241 -0.65936 -0.182899
vn -0.029548 -0.469661 -0.882352
vn 0.422849 -0.488214 -0.763443
vn -0.461478 -0.884153 0.072877
vn -0.130398 0.264113 0.955636
vn 0.49562 0.145163 0.856323
vn -0.706919 0.14511 0.692249
vn -0.673102 0.468516 0.572213
vn 0.495168 0.468566 0.731611
vn 0.626694 0.646865 -0.434535
vn -0.487434 0.646817 -0.586546
vn -0.79604 -0.04155 0.603816
vn 0.605191 -0.04149 0.794999
vn 0.495168 0.468566 0.731611
vn -0.673102 0.468516 0.572213
vn 0.815703 -0.033396 -0.577507
vn 0.626694 0.646865 -0.434535
vn -0.631176 -0.033459 -0.774918
vn -0.487434 0.646817 -0.586546
vn 0.838484 0.304438 -0.451954
vn 0.040362 0.856586 -0.514424
vn -0.117308 0.751371 0.64937
vn 0.645194 0.221141 0.731315
vn -0.702346 0.251425 -0.665955
vn -0.832494 0.170539 0.527135
vn -0.510484 -0.15818 -0.845213
vn -0.705847 -0.244275 0.664913
vn 0.727161 -0.117299 -0.676371
vn 0.510134 -0.20438 0.83546
vn -0.702346 0.251425 -0.665955
vn 0.727161 -0.117299 -0.676371
vn -0.510484 -0.15818 -0.845213
vn 0.040362 0.856586 -0.514424
vn 0.838484 0.304438 -0.451954
vn -0.832494 0.170539 0.527135
vn -0.705847 -0.244275 0.664913
vn 0.510134 -0.20438 0.83546
vn -0.117308 0.751371 0.64937
vn 0.645194 0.221141 0.731315
vn 0.838483 0.304438 -0.451955
vn 0.040361 0.856586 -0.514424
vn -0.117308 0.75137 0.64937
vn 0.645194 0.221141 0.731315
vn -0.702346 0.251425 -0.665955
vn -0.832494 0.170539 0.527134
vn -0.510483 -0.158179 -0.845214
vn -0.705847 -0.244274 0.664913
vn 0.727161 -0.117298 -0.676371
vn 0.510133 -0.20438 0.83546
vn -0.702346 0.251425 -0.665955
vn 0.727161 -0.117298 -0.676371
vn -0.510483 -0.158179 -0.845214
vn 0.040361 0.856586 -0.514424
vn 0.838483 0.304438 -0.451955
vn -0.832494 0.170539 0.527134
vn -0.705847 -0.244274 0.664913
vn 0.510133 -0.20438 0.83546
vn -0.117308 0.75137 0.64937
vn 0.645194 0.221141 0.731315
vn 0.846651 0.402994 -0.347531
vn 0.011874 0.950312 -0.311073
vn -0.136929 0.580784 0.802459
vn 0.614298 0.085803 0.784396
vn -0.737561 0.349627 -0.577723
vn -0.815581 0.037656 0.577417
vn -0.376704 -0.544667 -0.749288
vn -0.493746 -0.762613 0.417894
vn 0.609598 -0.510239 -0.606669
vn 0.404978 -0.731451 0.548609
vn -0.737561 0.349627 -0.577723
vn 0.609598 -0.510239 -0.606669
vn -0.376704 -0.544667 -0.749288
vn 0.011874 0.950312 -0.311073
vn 0.846651 0.402994 -0.347531
vn 0.86003 0.21304 -0.46364
vn 0.056871 0.768751 -0.637015
vn -0.101227 0.835682 0.539804
vn 0.623728 0.334133 0.706625
vn -0.722621 0.158359 -0.672861
vn -0.806426 0.285408 0.517899
vn -0.415942 -0.757368 -0.503375
vn -0.526242 -0.537467 0.658938
vn 0.583358 -0.721743 -0.372533
vn 0.373535 -0.50537 0.777864
vn -0.722621 0.158359 -0.672861
vn 0.583358 -0.721743 -0.372533
vn -0.415942 -0.757368 -0.503375
vn 0.056871 0.768751 -0.637015
vn 0.86003 0.21304 -0.46364
usemtl datan_common_body59_hrot_044b421d
f 1/1/1 2/2/2 3/3/3
f 3/3/3 4/4/4 1/1/1
f 5/5/5 6/6/6 7/7/7
f 7/7/7 8/8/8 5/5/5
f 9/9/9 10/10/10 11/11/11
f 11/11/11 12/12/12 9/9/9
f 13/13/13 14/14/14 15/15/15
f 15/15/15 16/16/16 13/13/13
f 17/17/17 18/18/18 19/19/19
f 19/19/19 20/20/20 17/17/17
f 21/21/21 22/22/22 23/23/23
f 23/23/23 24/24/24 21/21/21
f 25/25/25 26/26/26 27/27/27
f 27/27/27 28/28/28 25/25/25
f 29/29/29 30/30/30 31/31/31
f 32/32/32 33/33/33 34/34/34
f 33/33/33 31/31/31 30/30/30
f 30/30/30 34/34/34 33/33/33
f 35/35/35 36/36/36 37/37/37
f 38/38/38 35/35/35 37/37/37
f 38/38/38 37/37/37 7/7/7
f 39/39/39 40/40/40 41/41/41
f 41/41/41 19/19/19 39/39/39
f 42/42/42 43/43/43 44/44/44
f 44/44/44 45/45/45 42/42/42
f 46/46/46 47/47/47 15/15/15
f 48/48/48 46/46/46 15/15/15
f 48/48/48 15/15/15 49/49/49
f 50/50/50 51/51/51 52/52/52
f 52/52/52 53/53/53 50/50/50
f 54/54/54 55/55/55 18/18/18
f 18/18/18 56/56/56 54/54/54
f 57/57/57 58/58/58 59/59/59
f 25/25/25 57/57/57 59/59/59
f 25/25/25 59/59/59 60/60/60
f 61/61/61 26/26/26 62/62/62
f 63/63/63 61/61/61 62/62/62
f 63/63/63 62/62/62 64/64/64
f 65/65/65 66/66/66 67/67/67
f 67/67/67 68/68/68 65/65/65
f 25/25/25 28/28/28 30/30/30
f 25/25/25 30/30/30 69/69/69
f 57/57/57 25/25/25 69/69/69
f 27/27/27 26/26/26 61/61/61
f 34/34/34 27/27/27 61/61/61
f 70/70/70 34/34/34 61/61/61
f 71/71/71 72/72/72 1/1/1
f 1/1/1 4/4/4 71/71/71
f 58/58/58 57/57/57 2/2/2
f 2/2/2 1/1/1 58/58/58
f 57/57/57 69/69/69 3/3/3
f 3/3/3 2/2/2 57/57/57
f 69/69/69 38/38/38 4/4/4
f 4/4/4 3/3/3 69/69/69
f 73/73/73 74/74/74 10/10/10
f 10/10/10 9/9/9 73/73/73
f 47/47/47 70/70/70 11/11/11
f 11/11/11 10/10/10 47/47/47
f 70/70/70 61/61/61 12/12/12
f 12/12/12 11/11/11 70/70/70
f 61/61/61 63/63/63 9/9/9
f 9/9/9 12/12/12 61/61/61
f 75/75/75 76/76/76 29/29/29
f 29/29/29 32/32/32 75/75/75
f 32/32/32 77/77/77 75/75/75
f 78/78/78 79/79/79 80/80/80
f 80/80/80 81/81/81 78/78/78
f 82/82/82 83/83/83 84/84/84
f 84/84/84 85/85/85 82/82/82
f 83/83/83 86/86/86 87/87/87
f 87/87/87 84/84/84 83/83/83
f 86/86/86 88/88/88 89/89/89
f 89/89/89 87/87/87 86/86/86
f 88/88/88 82/82/82 85/85/85
f 85/85/85 89/89/89 88/88/88
f 90/90/90 91/91/91 92/92/92
f 90/90/90 92/92/92 93/93/93
f 91/91/91 94/94/94 95/95/95
f 91/91/91 95/95/95 92/92/92
f 94/94/94 96/96/96 97/97/97
f 94/94/94 97/97/97 95/95/95
f 98/98/98 90/90/90 93/93/93
f 98/98/98 93/93/93 99/99/99
f 100/100/100 101/101/101 102/102/102
f 103/103/103 101/101/101 100/100/100
f 104/104/104 101/101/101 103/103/103
f 105/105/105 106/106/106 107/107/107
f 108/108/108 105/105/105 107/107/107
f 109/109/109 108/108/108 107/107/107
f 110/110/110 111/111/111 112/112/112
f 110/110/110 112/112/112 113/113/113
f 111/111/111 114/114/114 115/115/115
f 111/111/111 115/115/115 112/112/112
f 114/114/114 116/116/116 117/117/117
f 114/114/114 117/117/117 115/115/115
f 118/118/118 110/110/110 113/113/113
f 118/118/118 113/113/113 119/119/119
f 120/120/120 121/121/121 122/122/122
f 123/123/123 121/121/121 120/120/120
f 124/124/124 121/121/121 123/123/123
f 125/125/125 126/126/126 127/127/127
f 128/128/128 125/125/125 127/127/127
f 129/129/129 128/128/128 127/127/127
f 130/130/130 131/131/131 132/132/132
f 130/130/130 132/132/132 133/133/133
f 131/131/131 134/134/134 135/135/135
f 131/131/131 135/135/135 132/132/132
f 134/134/134 136/136/136 137/137/137
f 134/134/134 137/137/137 135/135/135
f 136/136/136 138/138/138 139/139/139
f 136/136/136 139/139/139 137/137/137
f 138/138/138 130/130/130 133/133/133
f 138/138/138 133/133/133 139/139/139
f 140/140/140 141/141/141 142/142/142
f 143/143/143 141/141/141 140/140/140
f 144/144/144 141/141/141 143/143/143
f 135/135/135 137/137/137 139/139/139
f 132/132/132 135/135/135 139/139/139
f 133/133/133 132/132/132 139/139/139
f 145/145/145 146/146/146 147/147/147
f 145/145/145 147/147/147 148/148/148
f 146/146/146 149/149/149 150/150/150
f 146/146/146 150/150/150 147/147/147
f 149/149/149 151/151/151 152/152/152
f 149/149/149 152/152/152 150/150/150
f 151/151/151 153/153/153 154/154/154
f 151/151/151 154/154/154 152/152/152
f 153/153/153 145/145/145 148/148/148
f 153/153/153 148/148/148 154/154/154
f 155/155/155 156/156/156 157/157/157
f 158/158/158 156/156/156 155/155/155
f 159/159/159 156/156/156 158/158/158
f 150/150/150 152/152/152 154/154/154
f 147/147/147 150/150/150 154/154/154
f 148/148/148 147/147/147 154/154/154
o datan_common_body59_hrot_044b421d_mesh01
v -0.146817 0.066249 0.119681
v -0.148784 0.066249 0.306754
v -0.108128 0.155338 0.119681
v -0.110096 0.155338 0.306754
vt 0.994059 0.130879
vt 0.755941 0.130879
vt 0.994059 0.244121
vt 0.755941 0.244121
vn -0.885633 0.431191 0.172418
vn -0.885633 0.431191 0.172418
vn -0.885633 0.431191 0.172418
vn -0.885633 0.431191 0.172418
usemtl datan_common_body59_hrot_044b421d
f 160/160/160 161/161/161 162/162/162
f 163/163/163 162/162/162 161/161/161
o datan_common_body59_hrot_044b421d_mesh02
v 0.14893 0.066249 0.306754
v 0.146963 0.066249 0.119681
v 0.108274 0.155338 0.119681
v 0.110241 0.155338 0.306754
vt 0.755941 0.130879
vt 0.994059 0.130879
vt 0.994059 0.244121
vt 0.755941 0.244121
vn 0.88566 0.431144 0.1724
vn 0.88566 0.431144 0.172399
vn 0.88566 0.431144 0.1724
vn 0.88566 0.431144 0.1724
usemtl datan_common_body59_hrot_044b421d
f 164/164/164 165/165/165 166/166/166
f 166/166/166 167/167/167 164/164/164
o datan_common_body59_hrot_044b421d_mesh03
v -0.172167 0.205489 0.67988
v -0.052355 0.205489 0.682048
v -0.052355 0.249903 0.672203
v -0.172167 0.249903 0.670035
vt 0.255941 0.005879
vt 0.494059 0.005879
vt 0.494059 0.119121
vt 0.255941 0.119121
vn -0.017663 0.216378 0.97615
vn -0.017663 0.216378 0.97615
vn -0.017663 0.216378 0.97615
vn -0.017663 0.216378 0.97615
usemtl datan_common_body59_hrot_044b421d
f 168/168/168 169/169/169 170/170/170
f 170/170/170 171/171/171 168/168/168
o datan_common_body59_hrot_044b421d_mesh04
v 0.051643 0.205489 0.67988
v 0.171454 0.205489 0.682048
v 0.171454 0.249903 0.672202
v 0.051643 0.249903 0.670035
vt 0.255941 0.005879
vt 0.494059 0.005879
vt 0.494059 0.119121
vt 0.255941 0.119121
vn -0.017663 0.216378 0.97615
vn -0.017663 0.216378 0.97615
vn -0.017663 0.216378 0.97615
vn -0.017663 0.216378 0.97615
usemtl datan_common_body59_hrot_044b421d
f 172/172/172 173/173/173 174/174/174
f 174/174/174 175/175/175 172/172/172
