# Generated from Nova1492 GX by tools/nova1492/GxObjConverter
mtllib datan_common_body53_ozsx_6ec83a29.mtl
o datan_common_body53_ozsx_6ec83a29
v 0.147763 0.564604 -0.006845
v 0.014585 0.206523 -0.139031
v -0.118593 0.564604 -0.006845
v -0.367314 0.199172 -0.034336
v -0.113756 -0.578911 -0.006845
v 0.142926 -0.578911 -0.006845
v 0.396484 0.199172 -0.034337
v -0.143383 0.611464 0
v 0.172553 0.611464 -0
v -0.418995 0.206522 0
v -0.147771 -0.625771 -0
v 0.176941 -0.625771 -0
v 0.448164 0.206523 -0
v -0.118593 0.564604 0.006845
v 0.014585 0.206523 0.139031
v 0.147763 0.564604 0.006845
v -0.367314 0.199172 0.034337
v -0.113756 -0.578911 0.006845
v 0.142926 -0.578911 0.006845
v 0.396484 0.199172 0.034336
vt 0.320488 0.93958
vt 0.25 0.674797
vt 0.179512 0.93958
vt 0.040721 0.669047
vt 0.174555 0.06042
vt 0.317789 0.06042
vt 0.459279 0.653734
vt 0.165679 0.976235
vt 0.334321 0.976235
vt 0.011883 0.674797
vt 0.155574 0.023765
vt 0.33677 0.023765
vt 0.488117 0.659484
vt 0.179512 0.93958
vt 0.25 0.674797
vt 0.320488 0.93958
vt 0.040721 0.669047
vt 0.174555 0.06042
vt 0.317789 0.06042
vt 0.459279 0.653734
vn 0.175121 0.246598 -0.953164
vn -0 0.076532 -0.997067
vn -0.064328 0.201277 -0.97742
vn -0.34013 0.076052 -0.937298
vn -0.197072 -0.140764 -0.970231
vn 0.073402 -0.12933 -0.988881
vn 0.34678 0.053963 -0.936393
vn -0.678905 0.734226 0
vn 0.307011 0.951706 0
vn -0.997931 0.06429 0
vn -0.38064 -0.924723 -0
vn 0.859244 -0.511566 -0
vn 0.971836 0.235657 0
vn -0.064328 0.201277 0.97742
vn 0 0.076532 0.997067
vn 0.175121 0.246598 0.953164
vn -0.34013 0.076052 0.937298
vn -0.197072 -0.140764 0.970231
vn 0.073403 -0.129331 0.988881
vn 0.34678 0.053963 0.936393
usemtl datan_common_body53_ozsx_6ec83a29
f 1/1/1 2/2/2 3/3/3
f 3/3/3 2/2/2 4/4/4
f 4/4/4 2/2/2 5/5/5
f 5/5/5 2/2/2 6/6/6
f 6/6/6 2/2/2 7/7/7
f 7/7/7 2/2/2 1/1/1
f 8/8/8 9/9/9 3/3/3
f 1/1/1 3/3/3 9/9/9
f 10/10/10 8/8/8 4/4/4
f 3/3/3 4/4/4 8/8/8
f 11/11/11 10/10/10 5/5/5
f 4/4/4 5/5/5 10/10/10
f 12/12/12 11/11/11 6/6/6
f 5/5/5 6/6/6 11/11/11
f 13/13/13 12/12/12 7/7/7
f 6/6/6 7/7/7 12/12/12
f 9/9/9 13/13/13 1/1/1
f 7/7/7 1/1/1 13/13/13
f 14/14/14 15/15/15 16/16/16
f 17/17/17 15/15/15 14/14/14
f 18/18/18 15/15/15 17/17/17
f 19/19/19 15/15/15 18/18/18
f 20/20/20 15/15/15 19/19/19
