# Generated from Nova1492 GX by tools/nova1492/GxObjConverter
mtllib datan_common_body28_kp2_599df616.mtl
o datan_common_body28_kp2_599df616
v 0.100721 0.025621 0.142598
v 0.000048 0.112388 0.508504
v 0.000048 -0.052592 0.570976
v 0.041248 0.464831 0.305957
v 0.052372 0.503709 0.142598
v -0.100625 0.025621 0.142598
v -0.052276 0.503709 0.142598
v -0.041152 0.464831 0.305957
v -0.113706 0.289029 0.218023
v -0.059409 0.474429 0.218023
v -0.079599 0.405098 0.097938
v -0.100876 0.187677 0.097938
v -0.080112 0.086112 0.218023
v -0.045752 0.187677 0.338108
v -0.042747 0.405098 0.338108
v 0.059359 0.474429 0.218023
v 0.07955 0.405098 0.097938
v 0.045703 0.187677 0.338108
v 0.042698 0.405098 0.338108
v 0.113656 0.289029 0.218023
v 0.100826 0.187677 0.097938
v 0.080062 0.086112 0.218023
v -0.107114 0.018671 0.215115
v -0.063504 0.018671 0.296734
v -0.070508 0.089355 0.255924
v -0.090136 0.089355 0.174305
v -0.103872 0.018671 0.133495
v -0.0782 -0.052014 0.174305
v -0.0782 -0.052014 0.255924
v 0.107064 0.018671 0.215115
v 0.070459 0.089355 0.255924
v 0.063454 0.018671 0.296734
v 0.090087 0.089355 0.174305
v 0.103823 0.01867 0.133495
v 0.07815 -0.052014 0.174305
v 0.07815 -0.052014 0.255924
v 0.041248 0.464831 0.305957
v -0.041152 0.464831 0.305957
v 0.000048 0.112388 0.508504
v -0.041152 0.464831 0.305957
v 0.041248 0.464831 0.305957
v 0.052372 0.503709 0.142598
v -0.052276 0.503709 0.142598
v -0.042021 0.468661 0.20998
v 0.042021 0.468661 0.20998
v 0.049585 0.46866 -0.100277
v -0.049585 0.46866 -0.100277
v 0.055821 0.103344 0.153504
v 0.065869 0.214336 -0.100277
v 0.049585 0.46866 -0.100277
v 0.042021 0.468661 0.20998
v -0.110139 0.497435 -0.085447
v 0.110139 0.497435 -0.085447
v 0.110139 0.497435 -0.46844
v -0.110139 0.497435 -0.46844
v 0.08708 0.02042 -0.085447
v 0.08708 0.02042 -0.46844
v 0.110139 0.497435 -0.46844
v 0.110139 0.497435 -0.085447
v -0.039561 0.464406 -0.468366
v 0.039444 0.464406 -0.468366
v 0.039444 0.464406 -0.62849
v -0.039561 0.464406 -0.62849
v 0.086083 0.372618 -0.468366
v 0.086083 0.372618 -0.62849
v 0.086083 0.171489 -0.468366
v 0.086083 0.171489 -0.62849
v 0.026168 0.27054 -0.62849
v 0.026168 0.27054 -0.468366
v 0.028595 0.067031 -0.62849
v 0.028828 0.067031 -0.468366
v -0.055821 0.103344 0.153504
v -0.049585 0.46866 -0.100277
v -0.065869 0.214336 -0.100277
v -0.042021 0.468661 0.20998
v -0.08708 0.02042 -0.085447
v -0.110139 0.497435 -0.46844
v -0.08708 0.02042 -0.46844
v -0.110139 0.497435 -0.085447
v -0.039561 0.464406 -0.468366
v -0.039561 0.464406 -0.62849
v -0.086083 0.372618 -0.468366
v -0.086083 0.372618 -0.62849
v -0.086083 0.171489 -0.468366
v -0.026168 0.27054 -0.62849
v -0.086083 0.171489 -0.62849
v -0.026168 0.27054 -0.468366
v -0.028595 0.067031 -0.62849
v -0.028828 0.067031 -0.468366
v 0.100721 0.025621 0.142598
v -0.100625 0.025621 0.142598
v -0.052276 0.503709 0.142598
v 0.052372 0.503709 0.142598
v -0.079599 0.405098 0.097938
v 0.07955 0.405098 0.097938
v 0.100826 0.187677 0.097938
v -0.100876 0.187677 0.097938
v 0.08708 0.02042 -0.46844
v -0.08708 0.02042 -0.46844
v -0.110139 0.497435 -0.46844
v 0.110139 0.497435 -0.46844
v -0.086083 0.372618 -0.62849
v -0.039561 0.464406 -0.62849
v 0.039444 0.464406 -0.62849
v 0.086083 0.372618 -0.62849
v 0.026168 0.27054 -0.62849
v -0.026168 0.27054 -0.62849
v 0.086083 0.171489 -0.62849
v 0.028595 0.067031 -0.62849
v -0.028595 0.067031 -0.62849
v -0.086083 0.171489 -0.62849
v -0.08708 0.02042 -0.085447
v 0.08708 0.02042 -0.085447
v 0.110139 0.497435 -0.085447
v -0.110139 0.497435 -0.085447
vt 0.057567 0.081292
vt 0.424213 0.150634
vt 0.488117 0.011883
vt 0.217019 0.364904
vt 0.057567 0.399405
vt 0.057567 0.073635
vt 0.057567 0.399405
vt 0.217019 0.364904
vt 0.127066 0.258025
vt 0.127066 0.373422
vt 0.011883 0.315723
vt 0.011883 0.188843
vt 0.127066 0.127317
vt 0.249907 0.188843
vt 0.249907 0.311895
vt 0.127067 0.373422
vt 0.011883 0.311895
vt 0.249907 0.196499
vt 0.249907 0.311895
vt 0.127067 0.250369
vt 0.011883 0.188843
vt 0.127066 0.127317
vt 0.131748 0.075123
vt 0.207584 0.075123
vt 0.169666 0.130194
vt 0.082346 0.130194
vt 0.048256 0.067467
vt 0.082346 0.012396
vt 0.165838 0.012396
vt 0.131748 0.075123
vt 0.169666 0.130194
vt 0.207584 0.075123
vt 0.082346 0.130194
vt 0.048256 0.067467
vt 0.082346 0.012396
vt 0.165838 0.012396
vt 0.295126 0.404655
vt 0.224675 0.364904
vt 0.424213 0.158291
vt 0.217019 0.37256
vt 0.241946 0.434756
vt 0.089225 0.488117
vt 0.057567 0.399405
vt 0.059115 0.515725
vt 0.109735 0.515725
vt 0.11498 0.643923
vt 0.050042 0.651579
vt 0.286275 0.511883
vt 0.291611 0.640118
vt 0.122636 0.643923
vt 0.109735 0.515725
vt 0.011883 0.673873
vt 0.156968 0.673872
vt 0.156968 0.87124
vt 0.011883 0.878897
vt 0.488117 0.673872
vt 0.488117 0.87124
vt 0.164624 0.87124
vt 0.164624 0.673872
vt 0.07025 0.906169
vt 0.142399 0.906169
vt 0.14207 0.988117
vt 0.06252 0.988117
vt 0.21007 0.906169
vt 0.21007 0.988117
vt 0.338891 0.906169
vt 0.338891 0.988117
vt 0.280692 0.988117
vt 0.273036 0.906169
vt 0.408938 0.988117
vt 0.408938 0.906169
vt 0.286275 0.511883
vt 0.122636 0.643923
vt 0.291611 0.640118
vt 0.109735 0.515725
vt 0.488117 0.673872
vt 0.164624 0.87124
vt 0.488117 0.87124
vt 0.164624 0.673872
vt 0.150056 0.906169
vt 0.149727 0.988117
vt 0.21007 0.906169
vt 0.21007 0.988117
vt 0.338891 0.906169
vt 0.280692 0.988117
vt 0.338891 0.988117
vt 0.273036 0.906169
vt 0.408938 0.988117
vt 0.408938 0.906169
vt 0.893183 0.027368
vt 0.893183 0.027368
vt 0.893183 0.093273
vt 0.897011 0.093273
vt 0.882867 0.073513
vt 0.882867 0.073513
vt 0.882867 0.053383
vt 0.886695 0.045727
vt 0.909919 0.090741
vt 0.890306 0.090741
vt 0.886695 0.090741
vt 0.921185 0.086913
vt 0.886695 0.095722
vt 0.916221 0.113305
vt 0.958705 0.113305
vt 0.988305 0.088066
vt 0.957936 0.059998
vt 0.924721 0.059998
vt 0.988305 0.032762
vt 0.959476 0.011695
vt 0.92318 0.011695
vt 0.886695 0.032762
vt 0.786268 0.511883
vt 0.963732 0.511883
vt 0.988242 0.988118
vt 0.761758 0.988118
vn 0.990769 0.100196 0.091313
vn -0.965675 0.035031 0.257381
vn -0.96544 0.092293 0.243738
vn 0.990769 0.100196 0.091313
vn 0.990769 0.100196 0.091313
vn -0.965675 0.035031 0.257381
vn -0.990769 0.100197 0.091311
vn -0.965675 0.035031 0.257381
vn -0.920368 0.269541 0.28332
vn 0 0.866025 0.5
vn 0 0.866025 -0.5
vn -0.986052 -0.163247 0.032429
vn -0.909462 -0.150567 0.387567
vn 0 0 1
vn 0 0.866025 0.5
vn 0.920368 0.269541 0.28332
vn 0.978017 0.095706 -0.185267
vn 0.865891 0.011967 0.50009
vn 0.920368 0.269541 0.28332
vn 0.920368 0.269541 0.28332
vn 0.986052 -0.163247 0.03243
vn 0.909462 -0.150567 0.387567
vn -0.878547 -0.088359 0.469412
vn -0.878547 -0.088359 0.469412
vn -0.912303 0.345788 0.219394
vn -0.976469 0.212143 -0.038779
vn -0.932233 -0.359961 -0.037022
vn -0.925558 -0.378605 -0
vn -0.878547 -0.088359 0.469412
vn 0.878547 -0.088359 0.469412
vn 0.912304 0.345787 0.219394
vn 0.878547 -0.088359 0.469412
vn 0.976469 0.212143 -0.038778
vn 0.932233 -0.359961 -0.037021
vn 0.925558 -0.378605 0
vn 0.878547 -0.088359 0.469412
vn -0 0.498273 0.867021
vn -0 0.498273 0.867021
vn -0 0.498273 0.867021
vn -0.000001 0.972829 0.231523
vn -0 0.972829 0.231524
vn -0.000001 0.972829 0.231523
vn -0.000001 0.972829 0.231523
vn 0 1 -0
vn -0 1 -0
vn 0 1 -0
vn 0 1 -0
vn 0.999126 0.033976 0.024358
vn 0.995694 0.063752 0.067304
vn 0.999126 0.033976 0.024358
vn 0.999126 0.033976 0.024358
vn 0 1 -0
vn -0 1 0
vn 0 1 -0
vn 0 1 -0
vn 0.998834 -0.048283 0
vn 0.998834 -0.048283 0
vn 0.998834 -0.048283 0
vn 0.998834 -0.048283 0
vn 0 1 -0
vn 0.891516 0.45299 0
vn 0.891516 0.45299 0
vn 0 1 -0
vn 0.862415 -0.506203 0
vn 0.862415 -0.506203 0
vn 0.876911 -0.480652 -0.001273
vn 0.876088 -0.482151 0
vn 0.855642 0.517569 0
vn 0.855642 0.517569 0
vn 0.876911 -0.480652 -0.001273
vn 0.876911 -0.480652 -0.001273
vn -0.999126 0.033976 0.024358
vn -0.999126 0.033976 0.024358
vn -0.995694 0.063752 0.067304
vn -0.999126 0.033976 0.024358
vn -0.998834 -0.048283 0
vn -0.998834 -0.048283 0
vn -0.998834 -0.048283 0
vn -0.998834 -0.048283 0
vn -0.891972 0.452091 0
vn -0.891972 0.452091 0
vn -0.862415 -0.506203 0
vn -0.862415 -0.506203 0
vn -0.876911 -0.480652 -0.001273
vn -0.855642 0.517569 0
vn -0.876088 -0.482151 0
vn -0.855642 0.517569 0
vn -0.876911 -0.480652 -0.001273
vn -0.876911 -0.480652 -0.001273
vn 0.000001 0 -1
vn -0 -0 -1
vn 0.000001 0 -1
vn 0.000001 0 -1
vn 0 0 -1
vn 0 -0 -1
vn 0 0 -1
vn 0 0 -1
vn 0 -0 -1
vn 0 0 -1
vn 0 -0 -1
vn 0 -0 -1
vn -0 -0 -1
vn 0 0 -1
vn 0 0 -1
vn 0 -0 -1
vn 0 0 -1
vn 0 0 -1
vn 0 0 -1
vn -0 0 -1
vn -0 0 -1
vn 0 0 -1
vn 0 0 1
vn -0 0 1
vn 0 0 1
vn 0 0 1
usemtl datan_common_body28_kp2_599df616
f 1/1/1 2/2/2 3/3/3
f 2/2/2 1/1/1 4/4/4
f 5/5/5 4/4/4 1/1/1
f 6/6/6 3/3/3 2/2/2
f 7/7/7 6/6/6 8/8/8
f 2/2/2 8/8/8 6/6/6
f 9/9/9 10/10/10 11/11/11
f 9/9/9 11/11/11 12/12/12
f 9/9/9 12/12/12 13/13/13
f 9/9/9 13/13/13 14/14/14
f 9/9/9 14/14/14 15/15/15
f 9/9/9 15/15/15 10/10/10
f 10/10/10 16/16/16 17/17/17
f 10/10/10 17/17/17 11/11/11
f 14/14/14 18/18/18 19/19/19
f 14/14/14 19/19/19 15/15/15
f 15/15/15 19/19/19 16/16/16
f 15/15/15 16/16/16 10/10/10
f 20/20/20 17/17/17 16/16/16
f 20/20/20 21/21/21 17/17/17
f 20/20/20 22/22/22 21/21/21
f 20/20/20 18/18/18 22/22/22
f 20/20/20 19/19/19 18/18/18
f 20/20/20 16/16/16 19/19/19
f 23/23/23 24/24/24 25/25/25
f 23/23/23 25/25/25 26/26/26
f 23/23/23 26/26/26 27/27/27
f 23/23/23 27/27/27 28/28/28
f 23/23/23 28/28/28 29/29/29
f 23/23/23 29/29/29 24/24/24
f 30/30/30 31/31/31 32/32/32
f 30/30/30 33/33/33 31/31/31
f 30/30/30 34/34/34 33/33/33
f 30/30/30 35/35/35 34/34/34
f 30/30/30 36/36/36 35/35/35
f 30/30/30 32/32/32 36/36/36
f 37/37/37 38/38/38 39/39/39
f 40/40/40 41/41/41 42/42/42
f 42/42/42 43/43/43 40/40/40
f 44/44/44 45/45/45 46/46/46
f 46/46/46 47/47/47 44/44/44
f 48/48/48 49/49/49 50/50/50
f 50/50/50 51/51/51 48/48/48
f 52/52/52 53/53/53 54/54/54
f 54/54/54 55/55/55 52/52/52
f 56/56/56 57/57/57 58/58/58
f 58/58/58 59/59/59 56/56/56
f 60/60/60 61/61/61 62/62/62
f 62/62/62 63/63/63 60/60/60
f 61/61/61 64/64/64 62/62/62
f 65/65/65 62/62/62 64/64/64
f 66/66/66 67/67/67 68/68/68
f 68/68/68 64/64/64 69/69/69
f 65/65/65 64/64/64 68/68/68
f 68/68/68 69/69/69 66/66/66
f 66/66/66 70/70/70 67/67/67
f 71/71/71 70/70/70 66/66/66
f 72/72/72 73/73/73 74/74/74
f 73/73/73 72/72/72 75/75/75
f 76/76/76 77/77/77 78/78/78
f 77/77/77 76/76/76 79/79/79
f 80/80/80 81/81/81 82/82/82
f 83/83/83 82/82/82 81/81/81
f 84/84/84 85/85/85 86/86/86
f 85/85/85 87/87/87 82/82/82
f 83/83/83 85/85/85 82/82/82
f 85/85/85 84/84/84 87/87/87
f 84/84/84 86/86/86 88/88/88
f 89/89/89 84/84/84 88/88/88
f 90/90/90 91/91/91 92/92/92
f 92/92/92 93/93/93 90/90/90
f 94/94/94 95/95/95 96/96/96
f 94/94/94 96/96/96 97/97/97
f 98/98/98 99/99/99 100/100/100
f 100/100/100 101/101/101 98/98/98
f 102/102/102 103/103/103 104/104/104
f 102/102/102 104/104/104 105/105/105
f 102/102/102 105/105/105 106/106/106
f 102/102/102 106/106/106 107/107/107
f 108/108/108 109/109/109 110/110/110
f 108/108/108 110/110/110 111/111/111
f 108/108/108 111/111/111 107/107/107
f 108/108/108 107/107/107 106/106/106
f 112/112/112 113/113/113 114/114/114
f 114/114/114 115/115/115 112/112/112
