# Generated from Nova1492 GX by tools/nova1492/GxObjConverter
mtllib datan_common_body36_rzn_9e3e52b7.mtl
o datan_common_body36_rzn_9e3e52b7_mesh00
v -0.105674 0.496136 0.320126
v 0.106014 0.496136 0.320126
v 0.106014 0.496177 -0.048831
v -0.105674 0.496177 -0.048831
v 0.089229 0.000887 0.320126
v 0.089229 0.000997 -0.048831
v 0.089229 0.221258 -0.048831
v 0.089229 0.221258 0.320126
v 0.106014 0.250141 0.320126
v 0.106014 0.250141 -0.048831
v -0.088889 0.000997 -0.048831
v -0.088889 0.000887 0.320126
v -0.088889 0.221258 0.320126
v -0.088889 0.221258 -0.048831
v -0.105674 0.250141 -0.048831
v -0.105674 0.250141 0.320126
v 0.09381 0.359112 0.286016
v 0.046908 0.448471 0.637252
v 0.09381 0.359112 0.637252
v 0.046908 0.448471 0.286016
v -0.046895 0.448471 0.637252
v -0.046895 0.448471 0.286016
v -0.093797 0.359112 0.637252
v -0.093797 0.359112 0.286016
v -0.046895 0.269752 0.637252
v -0.046895 0.269752 0.286016
v 0.046908 0.269752 0.286016
v 0.046908 0.269752 0.637252
v 0.081886 0.110142 0.261874
v 0.040946 0.188142 0.524132
v 0.081886 0.110142 0.524132
v 0.040946 0.188142 0.261874
v -0.040933 0.188142 0.524132
v -0.040933 0.188142 0.261874
v -0.081873 0.110142 0.524132
v -0.081873 0.110142 0.261874
v -0.040933 0.032141 0.524132
v -0.040933 0.032141 0.261874
v 0.040946 0.032141 0.261874
v 0.040946 0.032141 0.524132
v 0.000006 0.359112 0.685047
v 0.09381 0.359112 0.637252
v 0.046908 0.448471 0.637252
v -0.046895 0.448471 0.637252
v -0.093797 0.359112 0.637252
v -0.046895 0.269752 0.637252
v 0.046908 0.269752 0.637252
v 0.000006 0.110142 0.565851
v 0.081886 0.110142 0.524132
v 0.040946 0.188142 0.524132
v -0.040933 0.188142 0.524132
v -0.081873 0.110142 0.524132
v -0.040933 0.032141 0.524132
v 0.040946 0.032141 0.524132
v -0.088889 0.000887 0.320126
v 0.089229 0.000887 0.320126
v 0.089229 0.221258 0.320126
v -0.088889 0.221258 0.320126
v 0.106014 0.496136 0.320126
v -0.105674 0.496136 0.320126
v 0.106014 0.250141 0.320126
v -0.105674 0.250141 0.320126
v -0.123989 0.05775 -0.0423
v 0.123989 0.05775 -0.0423
v 0.123989 0.508422 -0.0423
v -0.123989 0.508422 -0.0423
v 0.123989 0.058232 -0.267237
v -0.123989 0.058232 -0.267237
v -0.123989 0.508422 -0.427879
v 0.123989 0.508422 -0.427879
v 0.091808 0.158981 -0.617402
v -0.091808 0.158981 -0.617402
v -0.052937 0.471529 -0.617402
v 0.052937 0.471529 -0.617402
v -0.123989 0.508422 -0.0423
v 0.123989 0.508422 -0.0423
v 0.123989 0.508422 -0.427879
v -0.123989 0.508422 -0.427879
v 0.123989 0.058232 -0.267237
v 0.123989 0.05775 -0.0423
v -0.123989 0.058232 -0.267237
v -0.123989 0.05775 -0.0423
v -0.052937 0.471529 -0.394346
v 0.052937 0.471529 -0.394346
v 0.052937 0.471529 -0.617402
v -0.052937 0.471529 -0.617402
v 0.091808 0.102371 -0.26254
v 0.091808 0.158981 -0.617402
v -0.091808 0.158981 -0.617402
v -0.091808 0.102371 -0.26254
vt 0.695983 0.731338
vt 0.804018 0.731338
vt 0.804018 0.988117
vt 0.695983 0.988118
vt 0.984515 0.731338
vt 0.984515 0.988117
vt 0.891293 0.988117
vt 0.891293 0.731338
vt 0.885207 0.731338
vt 0.885207 0.988117
vt 0.521925 0.988118
vt 0.521925 0.731338
vt 0.607787 0.731338
vt 0.615443 0.988118
vt 0.621883 0.988118
vt 0.621883 0.731338
vt 0.820849 0.712644
vt 0.780768 0.511883
vt 0.820849 0.511883
vt 0.780768 0.7203
vt 0.726888 0.511883
vt 0.726888 0.7203
vt 0.679151 0.511883
vt 0.679151 0.7203
vt 0.644107 0.511883
vt 0.644107 0.7203
vt 0.863549 0.712644
vt 0.863549 0.511883
vt 0.820849 0.712644
vt 0.780768 0.511883
vt 0.820849 0.511883
vt 0.780768 0.7203
vt 0.726888 0.511883
vt 0.726888 0.7203
vt 0.679151 0.511883
vt 0.679151 0.7203
vt 0.644107 0.511883
vt 0.644107 0.7203
vt 0.863549 0.712644
vt 0.863549 0.511883
vt 0.378828 0.378828
vt 0.488242 0.378828
vt 0.433535 0.488242
vt 0.320293 0.488242
vt 0.261758 0.371172
vt 0.320293 0.261758
vt 0.429707 0.261758
vt 0.378828 0.378828
vt 0.488242 0.378828
vt 0.433535 0.488242
vt 0.320293 0.488242
vt 0.261758 0.371172
vt 0.320293 0.261758
vt 0.429707 0.261758
vt 0.056398 0.011883
vt 0.193602 0.011883
vt 0.193602 0.246172
vt 0.048742 0.246172
vt 0.238242 0.488117
vt 0.011758 0.488117
vt 0.238242 0.246172
vt 0.011758 0.246172
vt 0.540105 0.450968
vt 0.584895 0.450968
vt 0.569803 0.446657
vt 0.555197 0.446657
vt 0.587451 0.476468
vt 0.537549 0.476468
vt 0.554217 0.472157
vt 0.570783 0.472157
vt 0.574426 0.490927
vt 0.550574 0.490927
vt 0.559384 0.484398
vt 0.573272 0.484398
vt 0.197908 0.511883
vt 0.302092 0.511883
vt 0.302092 0.812272
vt 0.190252 0.819929
vt 0.47927 0.701145
vt 0.480397 0.511883
vt 0.02073 0.693489
vt 0.019603 0.511883
vt 0.222038 0.852961
vt 0.277962 0.852961
vt 0.277962 0.988117
vt 0.214382 0.988117
vt 0.483036 0.720593
vt 0.464286 0.988117
vt 0.035714 0.988117
vt 0.016964 0.720593
vn -1 0 -0
vn 1 -0 -0
vn 1 -0 -0
vn -1 0 -0
vn 1 0 0
vn 1 0 0
vn 1 0 0
vn 1 0 0
vn 1 -0 -0
vn 1 0 -0
vn -1 0 0
vn -1 0 0
vn -1 0 0
vn -1 0 0
vn -1 0 -0
vn -1 0 -0
vn 0.885448 -0.464739 0
vn 0 1 0
vn 0.885448 -0.464739 0
vn -0 1 -0
vn -0.885448 0.464739 -0
vn -0.885448 0.46474 0
vn -0.885447 -0.46474 0
vn -0.885447 -0.46474 0
vn -0.885447 -0.46474 0
vn -0.885447 -0.46474 0
vn 0.885448 -0.464739 0
vn 0.885448 -0.464739 0
vn 0.885448 -0.46474 0
vn 0 1 0
vn 0.885448 -0.46474 0
vn -0.000001 1 -0
vn -0.885448 0.464739 -0
vn -0.885448 0.464739 -0
vn -0.885447 -0.46474 -0
vn -0.885447 -0.46474 0
vn -0.885447 -0.46474 0
vn -0.885447 -0.46474 0
vn 0.885448 -0.46474 0
vn 0.885448 -0.464739 -0
vn 0.441623 -0.231792 0.866742
vn 0.441623 -0.231792 0.866742
vn 0 0.471634 0.881794
vn -0.441623 0.231792 0.866742
vn -0.441623 -0.231792 0.866742
vn 0 -0.471634 0.881794
vn 0.441623 -0.231792 0.866742
vn 0.441622 -0.231791 0.866743
vn 0.441622 -0.231791 0.866743
vn 0 0.471634 0.881795
vn -0.441622 0.231792 0.866743
vn -0.441622 -0.231792 0.866743
vn 0 -0.471634 0.881795
vn 0.441622 -0.231791 0.866743
vn 0 0 1
vn 0 0 1
vn 0 0 1
vn 0 0 1
vn 0 0 1
vn 0 0 1
vn 0 0 1
vn 0 0 1
vn -0 0.371147 0.928574
vn -0 0.371147 0.928574
vn -0 0.371147 0.928574
vn -0 0.371147 0.928574
vn -0 -0.053568 -0.998564
vn -0 -0.053568 -0.998564
vn -0 -0.053568 -0.998564
vn -0 -0.053568 -0.998564
vn -0 0.197453 -0.980313
vn -0 0.197453 -0.980313
vn -0 0.197453 -0.980313
vn -0 0.197453 -0.980313
vn -0.920361 0.246524 -0.303582
vn 0.920361 0.246524 -0.303582
vn 0.920361 0.246524 -0.303582
vn -0.920361 0.246524 -0.303582
vn 0.920361 0.246524 -0.303582
vn 0.920361 0.246524 -0.303582
vn -0.920361 0.246524 -0.303582
vn -0.920361 0.246524 -0.303582
vn -0.888775 0.350434 -0.295422
vn 0.894299 0.335035 -0.296616
vn 0.894299 0.335035 -0.296616
vn -0.888775 0.350434 -0.295422
vn 0.894299 0.335035 -0.296616
vn 0.893272 0.352254 -0.279252
vn -0.888775 0.350434 -0.295422
vn -0.896577 0.341793 -0.281651
usemtl datan_common_body36_rzn_9e3e52b7
f 1/1/1 2/2/2 3/3/3
f 3/3/3 4/4/4 1/1/1
f 5/5/5 6/6/6 7/7/7
f 7/7/7 8/8/8 5/5/5
f 9/9/9 10/10/10 3/3/3
f 3/3/3 2/2/2 9/9/9
f 11/11/11 12/12/12 13/13/13
f 13/13/13 14/14/14 11/11/11
f 15/15/15 16/16/16 1/1/1
f 1/1/1 4/4/4 15/15/15
f 17/17/17 18/18/18 19/19/19
f 17/17/17 20/20/20 18/18/18
f 20/20/20 21/21/21 18/18/18
f 20/20/20 22/22/22 21/21/21
f 22/22/22 23/23/23 21/21/21
f 22/22/22 24/24/24 23/23/23
f 24/24/24 25/25/25 23/23/23
f 24/24/24 26/26/26 25/25/25
f 27/27/27 19/19/19 28/28/28
f 27/27/27 17/17/17 19/19/19
f 29/29/29 30/30/30 31/31/31
f 29/29/29 32/32/32 30/30/30
f 32/32/32 33/33/33 30/30/30
f 32/32/32 34/34/34 33/33/33
f 34/34/34 35/35/35 33/33/33
f 34/34/34 36/36/36 35/35/35
f 36/36/36 37/37/37 35/35/35
f 36/36/36 38/38/38 37/37/37
f 39/39/39 31/31/31 40/40/40
f 39/39/39 29/29/29 31/31/31
f 41/41/41 42/42/42 43/43/43
f 41/41/41 43/43/43 44/44/44
f 41/41/41 44/44/44 45/45/45
f 41/41/41 45/45/45 46/46/46
f 41/41/41 46/46/46 47/47/47
f 41/41/41 47/47/47 42/42/42
f 48/48/48 49/49/49 50/50/50
f 48/48/48 50/50/50 51/51/51
f 48/48/48 51/51/51 52/52/52
f 48/48/48 52/52/52 53/53/53
f 48/48/48 53/53/53 54/54/54
f 48/48/48 54/54/54 49/49/49
f 55/55/55 56/56/56 57/57/57
f 57/57/57 58/58/58 55/55/55
f 58/58/58 57/57/57 59/59/59
f 59/59/59 60/60/60 58/58/58
f 59/59/59 57/57/57 61/61/61
f 60/60/60 62/62/62 58/58/58
f 63/63/63 64/64/64 65/65/65
f 65/65/65 66/66/66 63/63/63
f 67/67/67 68/68/68 69/69/69
f 69/69/69 70/70/70 67/67/67
f 71/71/71 72/72/72 73/73/73
f 73/73/73 74/74/74 71/71/71
f 75/75/75 76/76/76 77/77/77
f 77/77/77 78/78/78 75/75/75
f 76/76/76 79/79/79 77/77/77
f 79/79/79 76/76/76 80/80/80
f 81/81/81 82/82/82 75/75/75
f 75/75/75 78/78/78 81/81/81
f 83/83/83 84/84/84 85/85/85
f 85/85/85 86/86/86 83/83/83
f 87/87/87 88/88/88 85/85/85
f 85/85/85 84/84/84 87/87/87
f 89/89/89 90/90/90 83/83/83
f 83/83/83 86/86/86 89/89/89
