# Generated from Nova1492 GX by tools/nova1492/GxObjConverter
mtllib datan_common_g_body68_vts_bbcb4ca1.mtl
o datan_common_g_body68_vts_bbcb4ca1
v -0.004575 0.093547 1.043303
v -0.004575 0.234789 0.910564
v -0.177197 0.19342 0.910563
v -0.325037 0.093547 0.910564
v -0.177197 -0.006326 0.910564
v -0.004575 -0.047695 0.910564
v -0.004575 0.093547 1.043303
v -0.004575 -0.047695 0.910564
v 0.168047 -0.006326 0.910564
v 0.315888 0.093547 0.910564
v 0.168047 0.19342 0.910563
v -0.004575 0.234789 0.910564
v -0.004575 0.236983 0.458354
v -0.227999 0.234789 0.458354
v -0.457777 0.093547 0.590827
v -0.227999 -0.047695 0.458354
v -0.004575 -0.049889 0.458354
v -0.004575 -0.049889 0.458354
v 0.218849 -0.047695 0.458354
v 0.448627 0.093547 0.590827
v 0.218849 0.234789 0.458354
v -0.004575 0.236983 0.458354
v -0.004575 0.236983 0.458354
v -0.227999 0.234789 0.458354
v -0.457777 0.093547 0.590827
v -0.227999 -0.047695 0.458354
v -0.004575 -0.049889 0.458354
v -0.004575 -0.049889 0.458354
v 0.218849 -0.047695 0.458354
v 0.448627 0.093547 0.590827
v 0.218849 0.234789 0.458354
v -0.004575 0.236983 0.458354
v -0.004575 0.093547 0.458354
v -0.227999 0.234789 0.458354
v -0.004575 0.236983 0.458354
v -0.227999 -0.047695 0.458354
v -0.457777 0.093547 0.590827
v -0.004575 -0.049889 0.458354
v -0.004575 0.093547 0.458354
v 0.218849 -0.047695 0.458354
v -0.004575 -0.049889 0.458354
v 0.218849 0.234789 0.458354
v 0.448627 0.093547 0.590827
v -0.004575 0.236983 0.458354
v 0.279629 0.075868 0.8072
v 0.260635 0.116113 0.813181
v 0.488953 0.208381 1.092775
v 0.52727 0.127196 1.08071
v 0.223823 0.120011 0.838595
v 0.414695 0.216245 1.144043
v 0.206007 0.083666 0.85803
v 0.378753 0.142925 1.183248
v 0.206007 0.083666 0.85803
v 0.225001 0.043421 0.852049
v 0.417069 0.06174 1.171183
v 0.378753 0.142925 1.183248
v 0.261812 0.039523 0.826634
v 0.491328 0.053876 1.119914
v 0.279629 0.075868 0.8072
v 0.52727 0.127196 1.08071
v 0.52727 0.127196 1.08071
v 0.488953 0.208381 1.092775
v 0.414695 0.216245 1.144043
v 0.378753 0.142925 1.183248
v 0.417069 0.06174 1.171183
v 0.491328 0.053876 1.119914
v 0.192458 -0.065322 0.395182
v -0.004575 -0.065322 0.281425
v -0.004575 0.252415 0.281425
v 0.192458 0.252415 0.395182
v -0.004575 -0.065322 0.281425
v -0.201608 -0.065322 0.395182
v -0.201608 0.252415 0.395182
v -0.004575 0.252415 0.281425
v -0.201608 -0.065322 0.622696
v -0.201608 0.252415 0.622696
v -0.004575 -0.065322 0.736453
v -0.004575 0.252415 0.736453
v -0.004575 -0.065322 0.736453
v 0.192458 -0.065322 0.622696
v 0.192458 0.252415 0.622696
v -0.004575 0.252415 0.736453
v -0.270145 0.116113 0.813181
v -0.289139 0.075868 0.8072
v -0.498464 0.208381 1.092775
v -0.53678 0.127196 1.08071
v -0.233334 0.120011 0.838595
v -0.424206 0.216245 1.144043
v -0.215517 0.083666 0.85803
v -0.388264 0.142925 1.183247
v -0.234511 0.043421 0.852049
v -0.215517 0.083666 0.85803
v -0.42658 0.06174 1.171183
v -0.388264 0.142925 1.183247
v -0.271322 0.039523 0.826634
v -0.500838 0.053876 1.119914
v -0.289139 0.075868 0.8072
v -0.53678 0.127196 1.08071
v -0.498464 0.208381 1.092775
v -0.53678 0.127196 1.08071
v -0.424206 0.216245 1.144043
v -0.388264 0.142925 1.183247
v -0.42658 0.06174 1.171183
v -0.500838 0.053876 1.119914
vt 0.323494 0.015711
vt 0.323505 0.186825
vt 0.576795 0.186825
vt 0.795646 0.186825
vt 0.576795 0.186825
vt 0.323505 0.186825
vt 0.323465 0.015711
vt 0.323454 0.186825
vt 0.576764 0.186825
vt 0.795572 0.186825
vt 0.576764 0.186825
vt 0.323454 0.186825
vt 0.323528 0.763272
vt 0.651903 0.763271
vt 0.990346 0.594981
vt 0.651903 0.763271
vt 0.323528 0.763272
vt 0.323432 0.763271
vt 0.6519 0.763271
vt 0.990192 0.594981
vt 0.6519 0.763271
vt 0.323432 0.763271
vt 0.323528 0.763272
vt 0.651903 0.763271
vt 0.990346 0.594981
vt 0.651903 0.763271
vt 0.323528 0.763272
vt 0.323432 0.763271
vt 0.6519 0.763271
vt 0.990192 0.594981
vt 0.6519 0.763271
vt 0.323432 0.763271
vt 0.155981 0.439042
vt 0.014468 0.229744
vt 0.012793 0.439042
vt 0.296494 0.229744
vt 0.156178 0.014294
vt 0.298168 0.439042
vt 0.155981 0.439042
vt 0.014468 0.229744
vt 0.012793 0.439042
vt 0.296494 0.229744
vt 0.156178 0.014294
vt 0.298168 0.439042
vt 0.24785 0.966088
vt 0.196578 0.965966
vt 0.205394 0.633367
vt 0.274527 0.633617
vt 0.145104 0.965967
vt 0.135508 0.633367
vt 0.096157 0.966088
vt 0.069271 0.633617
vt 0.24781 0.966089
vt 0.196547 0.965966
vt 0.205394 0.633368
vt 0.274523 0.633622
vt 0.145033 0.965965
vt 0.135513 0.633367
vt 0.096084 0.966089
vt 0.069273 0.633621
vt 0.070764 0.540097
vt 0.121061 0.461266
vt 0.22298 0.461266
vt 0.273807 0.540097
vt 0.22388 0.617355
vt 0.12001 0.617355
vt 0.612888 0.844976
vt 0.323474 0.989109
vt 0.323474 0.989109
vt 0.612888 0.844976
vt 0.323485 0.989109
vt 0.612939 0.844976
vt 0.612939 0.844976
vt 0.323485 0.989109
vt 0.612921 0.552807
vt 0.612921 0.552807
vt 0.323502 0.409593
vt 0.323502 0.409593
vt 0.323457 0.409593
vt 0.612907 0.552807
vt 0.612907 0.552807
vt 0.323457 0.409593
vt 0.196578 0.965966
vt 0.24785 0.966088
vt 0.205394 0.633367
vt 0.274527 0.633617
vt 0.145104 0.965967
vt 0.135508 0.633367
vt 0.096157 0.966088
vt 0.069271 0.633617
vt 0.196547 0.965966
vt 0.24781 0.966089
vt 0.205394 0.633368
vt 0.274523 0.633622
vt 0.145033 0.965965
vt 0.135513 0.633367
vt 0.096084 0.966089
vt 0.069273 0.633621
vt 0.121061 0.461266
vt 0.070764 0.540097
vt 0.22298 0.461266
vt 0.273807 0.540097
vt 0.22388 0.617355
vt 0.12001 0.617355
vn -0 -0 1
vn 0.018702 0.917426 0.397468
vn -0.351551 0.801437 0.483851
vn -0.801725 -0.022954 0.597252
vn -0.352602 -0.817966 0.454536
vn -0.018702 -0.917426 0.397468
vn -0 -0 1
vn -0.018702 -0.917426 0.397468
vn 0.351551 -0.801436 0.483851
vn 0.801725 0.022954 0.597252
vn 0.352602 0.817967 0.454536
vn 0.018702 0.917426 0.397468
vn 0.026603 0.998907 0.038426
vn -0.246663 0.96595 0.078084
vn -0.939129 -0.019154 0.343031
vn -0.223498 -0.966057 0.129549
vn -0.026603 -0.998907 0.038426
vn -0.026603 -0.998907 0.038426
vn 0.246663 -0.96595 0.078084
vn 0.939129 0.019154 0.343031
vn 0.223498 0.966057 0.129549
vn 0.026603 0.998907 0.038426
vn 0 0 -1
vn -0.209783 -0 -0.977748
vn -0.499464 -0 -0.866335
vn -0.209783 0 -0.977748
vn 0 0 -1
vn 0 0 -1
vn 0.209783 0 -0.977748
vn 0.499464 0 -0.866335
vn 0.209783 0 -0.977748
vn 0 0 -1
vn -0 0 -1
vn -0.209783 -0 -0.977748
vn 0 0 -1
vn -0.209783 0 -0.977748
vn -0.499464 -0 -0.866335
vn 0 0 -1
vn -0 0 -1
vn 0.209783 0 -0.977748
vn 0 0 -1
vn 0.209783 0 -0.977748
vn 0.499464 0 -0.866335
vn 0 0 -1
vn 0.746898 -0.103432 -0.656845
vn 0.326882 0.785135 -0.526034
vn 0.650129 0.753395 0.098632
vn 0.999854 0.013092 -0.010961
vn -0.489463 0.871462 0.0313
vn -0.028224 0.824866 0.564624
vn -0.886172 0.067378 0.458432
vn -0.356862 0.155955 0.921047
vn -0.886172 0.067378 0.458432
vn -0.464986 -0.822685 0.327074
vn -0.00709 -0.584411 0.811427
vn -0.356862 0.155955 0.921047
vn 0.35175 -0.907176 -0.230876
vn 0.671276 -0.655808 0.345405
vn 0.746898 -0.103432 -0.656845
vn 0.999854 0.013092 -0.010961
vn 0.999854 0.013092 -0.010961
vn 0.650129 0.753395 0.098632
vn -0.028224 0.824866 0.564624
vn -0.356862 0.155955 0.921047
vn -0.00709 -0.584411 0.811427
vn 0.671276 -0.655808 0.345405
vn 0.866025 0 -0.5
vn -0 0 -1
vn 0 0.609994 -0.792406
vn 0.686244 0.609994 -0.396203
vn -0 0 -1
vn -0.866025 0 -0.5
vn -0.686244 0.609994 -0.396203
vn 0 0.609994 -0.792406
vn -0.866025 0 0.5
vn -0.686244 0.609994 0.396203
vn 0 0 1
vn 0 0.609994 0.792406
vn 0 0 1
vn 0.866026 0 0.5
vn 0.686244 0.609994 0.396203
vn 0 0.609994 0.792406
vn -0.326882 0.785135 -0.526034
vn -0.746898 -0.103432 -0.656845
vn -0.65013 0.753395 0.098631
vn -0.999854 0.013091 -0.010961
vn 0.489463 0.871462 0.0313
vn 0.028224 0.824865 0.564624
vn 0.886172 0.067377 0.458432
vn 0.356862 0.155955 0.921047
vn 0.464987 -0.822685 0.327074
vn 0.886172 0.067377 0.458432
vn 0.00709 -0.584411 0.811427
vn 0.356862 0.155955 0.921047
vn -0.35175 -0.907176 -0.230875
vn -0.671276 -0.655807 0.345407
vn -0.746898 -0.103432 -0.656845
vn -0.999854 0.013091 -0.010961
vn -0.65013 0.753395 0.098631
vn -0.999854 0.013091 -0.010961
vn 0.028224 0.824865 0.564624
vn 0.356862 0.155955 0.921047
vn 0.00709 -0.584411 0.811427
vn -0.671276 -0.655807 0.345407
usemtl datan_common_g_body68_vts_bbcb4ca1
f 1/1/1 2/2/2 3/3/3
f 1/1/1 3/3/3 4/4/4
f 1/1/1 4/4/4 5/5/5
f 1/1/1 5/5/5 6/6/6
f 7/7/7 8/8/8 9/9/9
f 7/7/7 9/9/9 10/10/10
f 7/7/7 10/10/10 11/11/11
f 7/7/7 11/11/11 12/12/12
f 2/2/2 13/13/13 14/14/14
f 2/2/2 14/14/14 3/3/3
f 3/3/3 14/14/14 15/15/15
f 3/3/3 15/15/15 4/4/4
f 4/4/4 15/15/15 16/16/16
f 4/4/4 16/16/16 5/5/5
f 5/5/5 16/16/16 17/17/17
f 5/5/5 17/17/17 6/6/6
f 8/8/8 18/18/18 19/19/19
f 8/8/8 19/19/19 9/9/9
f 9/9/9 19/19/19 20/20/20
f 9/9/9 20/20/20 10/10/10
f 10/10/10 20/20/20 21/21/21
f 10/10/10 21/21/21 11/11/11
f 11/11/11 21/21/21 22/22/22
f 11/11/11 22/22/22 12/12/12
f 13/13/13 23/23/23 24/24/24
f 13/13/13 24/24/24 14/14/14
f 14/14/14 24/24/24 25/25/25
f 14/14/14 25/25/25 15/15/15
f 15/15/15 25/25/25 26/26/26
f 15/15/15 26/26/26 16/16/16
f 16/16/16 26/26/26 27/27/27
f 16/16/16 27/27/27 17/17/17
f 18/18/18 28/28/28 29/29/29
f 18/18/18 29/29/29 19/19/19
f 19/19/19 29/29/29 30/30/30
f 19/19/19 30/30/30 20/20/20
f 20/20/20 30/30/30 31/31/31
f 20/20/20 31/31/31 21/21/21
f 21/21/21 31/31/31 32/32/32
f 21/21/21 32/32/32 22/22/22
f 33/33/33 34/34/34 35/35/35
f 33/33/33 36/36/36 34/34/34
f 34/34/34 36/36/36 37/37/37
f 33/33/33 38/38/38 36/36/36
f 39/39/39 40/40/40 41/41/41
f 39/39/39 42/42/42 40/40/40
f 40/40/40 42/42/42 43/43/43
f 39/39/39 44/44/44 42/42/42
f 45/45/45 46/46/46 47/47/47
f 45/45/45 47/47/47 48/48/48
f 46/46/46 49/49/49 50/50/50
f 46/46/46 50/50/50 47/47/47
f 49/49/49 51/51/51 52/52/52
f 49/49/49 52/52/52 50/50/50
f 53/53/53 54/54/54 55/55/55
f 53/53/53 55/55/55 56/56/56
f 54/54/54 57/57/57 58/58/58
f 54/54/54 58/58/58 55/55/55
f 57/57/57 59/59/59 60/60/60
f 57/57/57 60/60/60 58/58/58
f 61/61/61 62/62/62 63/63/63
f 61/61/61 63/63/63 64/64/64
f 61/61/61 64/64/64 65/65/65
f 61/61/61 65/65/65 66/66/66
f 67/67/67 68/68/68 69/69/69
f 67/67/67 69/69/69 70/70/70
f 71/71/71 72/72/72 73/73/73
f 71/71/71 73/73/73 74/74/74
f 72/72/72 75/75/75 76/76/76
f 72/72/72 76/76/76 73/73/73
f 75/75/75 77/77/77 78/78/78
f 75/75/75 78/78/78 76/76/76
f 79/79/79 80/80/80 81/81/81
f 79/79/79 81/81/81 82/82/82
f 80/80/80 67/67/67 70/70/70
f 80/80/80 70/70/70 81/81/81
f 76/76/76 74/74/74 73/73/73
f 78/78/78 74/74/74 76/76/76
f 70/70/70 69/69/69 82/82/82
f 70/70/70 82/82/82 81/81/81
f 83/83/83 84/84/84 85/85/85
f 85/85/85 84/84/84 86/86/86
f 87/87/87 83/83/83 88/88/88
f 88/88/88 83/83/83 85/85/85
f 89/89/89 87/87/87 90/90/90
f 90/90/90 87/87/87 88/88/88
f 91/91/91 92/92/92 93/93/93
f 93/93/93 92/92/92 94/94/94
f 95/95/95 91/91/91 96/96/96
f 96/96/96 91/91/91 93/93/93
f 97/97/97 95/95/95 98/98/98
f 98/98/98 95/95/95 96/96/96
f 99/99/99 100/100/100 101/101/101
f 101/101/101 100/100/100 102/102/102
f 102/102/102 100/100/100 103/103/103
f 103/103/103 100/100/100 104/104/104
