# Generated from Nova1492 GX by tools/nova1492/GxObjConverter
mtllib datan_common_body52_onmsx_9b8c6164.mtl
o datan_common_body52_onmsx_9b8c6164
v -0.018613 -0.660013 -0.040145
v 0.017184 -0.445637 -0.040145
v 0.017275 -0.660012 -0.040145
v -0.018956 -0.445649 -0.040145
v -0.372397 0.275104 -0.040145
v -0.126236 -0.109073 -0.096347
v -0.372397 -0.07415 -0.040145
v -0.126236 0.310032 -0.096347
v 0.105197 0.624357 -0.040145
v -0.105197 0.624357 -0.040145
v 0.126236 0.310032 -0.096347
v 0.372397 -0.07415 -0.040145
v 0.372397 0.275104 -0.040145
v 0.126236 -0.109073 -0.096347
v 0.105197 -0.445468 -0.040145
v -0.105197 -0.445472 -0.040145
v 0.140263 -0.481613 0
v 0.05228 -0.481782 0
v 0.168315 -0.151962 0
v 0.413774 -0.109891 0
v 0.413774 0.310765 0
v 0.168315 0.352826 0
v 0.140263 0.660019 0
v -0.140263 0.660019 0
v -0.168315 0.352826 0
v -0.413774 0.310765 0
v -0.413774 -0.109891 0
v -0.168315 -0.151962 0
v -0.140263 -0.481613 0
v -0.053909 -0.481789 0
v -0.053566 -0.660019 0
v 0.052371 -0.660019 0
v -0.018613 -0.660012 0.040145
v 0.017275 -0.660012 0.040145
v 0.017184 -0.445637 0.040145
v -0.018956 -0.445648 0.040145
v -0.372397 0.275104 0.040145
v -0.372397 -0.07415 0.040145
v -0.126236 -0.109072 0.096347
v -0.126236 0.310032 0.096347
v 0.105197 0.624357 0.040145
v -0.105197 0.624357 0.040145
v 0.126236 0.310032 0.096347
v 0.372397 -0.07415 0.040145
v 0.372397 0.275104 0.040145
v 0.126236 -0.109072 0.096347
v 0.105197 -0.445468 0.040145
v -0.105197 -0.445472 0.040145
vt 0.481972 0.012137
vt 0.516057 0.164184
vt 0.516183 0.012137
vt 0.481498 0.164176
vt 0.072154 0.701116
vt 0.347176 0.448589
vt 0.072154 0.448589
vt 0.347176 0.701116
vt 0.637511 0.961301
vt 0.362489 0.961301
vt 0.637511 0.708773
vt 0.927846 0.448588
vt 0.927846 0.701116
vt 0.652824 0.448588
vt 0.637511 0.171967
vt 0.362489 0.171964
vt 0.6859 0.14504
vt 0.5798 0.144914
vt 0.6859 0.414306
vt 0.976235 0.421962
vt 0.976235 0.727683
vt 0.701213 0.727683
vt 0.6859 0.987868
vt 0.3141 0.987868
vt 0.3141 0.73534
vt 0.023765 0.727684
vt 0.023765 0.421962
vt 0.298787 0.421962
vt 0.3141 0.14504
vt 0.417951 0.144908
vt 0.433737 0.012132
vt 0.564613 0.012132
vt 0.481972 0.012137
vt 0.516183 0.012137
vt 0.516057 0.164184
vt 0.481498 0.164176
vt 0.072154 0.701117
vt 0.072154 0.448589
vt 0.347176 0.448589
vt 0.347176 0.701116
vt 0.637511 0.961301
vt 0.362489 0.961301
vt 0.637511 0.708773
vt 0.927846 0.448588
vt 0.927846 0.701116
vt 0.652824 0.448589
vt 0.637511 0.171967
vt 0.362489 0.171964
vn -0.273093 -0.000437 -0.961988
vn 0.104385 -0.250503 -0.962472
vn 0.54508 0.000255 -0.838384
vn -0.348968 -0.172312 -0.921157
vn -0.446522 0.122271 -0.886379
vn -0.249746 -0.176346 -0.952118
vn -0.360421 -0.435237 -0.825024
vn -0.24678 0.316443 -0.91595
vn 0.144735 0.443908 -0.884306
vn -0.471129 0.331295 -0.817485
vn 0.316402 0.181562 -0.931088
vn 0.446487 -0.122112 -0.886419
vn 0.360488 0.435627 -0.824789
vn 0.292812 -0.336629 -0.894954
vn 0.375265 -0.294158 -0.879004
vn -0.148901 -0.403715 -0.902686
vn 0.42513 -0.905132 0.000001
vn 0.897223 -0.441577 0
vn 0.85483 -0.518908 0
vn 0.60615 -0.79535 0.000001
vn 0.911754 0.410738 -0
vn 0.611683 0.791103 -0
vn 0.840543 0.541745 -0
vn -0.41965 0.907686 -0.000001
vn -0.851166 0.524897 -0
vn -0.605875 0.79556 -0
vn -0.911899 -0.410416 0.000001
vn -0.613655 -0.789574 0
vn -0.847357 -0.531024 0.000001
vn -0.453584 -0.891213 0.000001
vn -0.999999 -0.001763 0
vn 1 0.000511 0
vn -0.273093 -0.000437 0.961988
vn 0.54508 0.000255 0.838384
vn 0.104385 -0.250499 0.962473
vn -0.348969 -0.172306 0.921158
vn -0.446521 0.122271 0.886379
vn -0.360421 -0.435237 0.825025
vn -0.249746 -0.176346 0.952118
vn -0.24678 0.316443 0.91595
vn 0.144735 0.443909 0.884306
vn -0.471129 0.331295 0.817485
vn 0.316402 0.181562 0.931088
vn 0.446487 -0.122111 0.886419
vn 0.360488 0.435628 0.824789
vn 0.292812 -0.336628 0.894954
vn 0.375265 -0.294157 0.879004
vn -0.148901 -0.40371 0.902689
usemtl datan_common_body52_onmsx_9b8c6164
f 1/1/1 2/2/2 3/3/3
f 4/4/4 2/2/2 1/1/1
f 5/5/5 6/6/6 7/7/7
f 8/8/8 6/6/6 5/5/5
f 9/9/9 8/8/8 10/10/10
f 11/11/11 8/8/8 9/9/9
f 11/11/11 6/6/6 8/8/8
f 12/12/12 11/11/11 13/13/13
f 14/14/14 11/11/11 12/12/12
f 14/14/14 6/6/6 11/11/11
f 15/15/15 6/6/6 14/14/14
f 2/2/2 6/6/6 15/15/15
f 2/2/2 16/16/16 6/6/6
f 4/4/4 16/16/16 2/2/2
f 17/17/17 18/18/18 2/2/2
f 2/2/2 15/15/15 17/17/17
f 19/19/19 17/17/17 15/15/15
f 15/15/15 14/14/14 19/19/19
f 20/20/20 19/19/19 14/14/14
f 14/14/14 12/12/12 20/20/20
f 21/21/21 20/20/20 12/12/12
f 12/12/12 13/13/13 21/21/21
f 22/22/22 21/21/21 13/13/13
f 13/13/13 11/11/11 22/22/22
f 23/23/23 22/22/22 11/11/11
f 11/11/11 9/9/9 23/23/23
f 24/24/24 23/23/23 9/9/9
f 9/9/9 10/10/10 24/24/24
f 25/25/25 24/24/24 10/10/10
f 10/10/10 8/8/8 25/25/25
f 26/26/26 25/25/25 8/8/8
f 8/8/8 5/5/5 26/26/26
f 27/27/27 26/26/26 5/5/5
f 5/5/5 7/7/7 27/27/27
f 28/28/28 27/27/27 7/7/7
f 7/7/7 6/6/6 28/28/28
f 29/29/29 28/28/28 6/6/6
f 6/6/6 16/16/16 29/29/29
f 30/30/30 29/29/29 16/16/16
f 16/16/16 4/4/4 30/30/30
f 31/31/31 30/30/30 4/4/4
f 4/4/4 1/1/1 31/31/31
f 18/18/18 32/32/32 3/3/3
f 3/3/3 2/2/2 18/18/18
f 33/33/33 34/34/34 35/35/35
f 36/36/36 33/33/33 35/35/35
f 37/37/37 38/38/38 39/39/39
f 40/40/40 37/37/37 39/39/39
f 41/41/41 42/42/42 40/40/40
f 43/43/43 41/41/41 40/40/40
f 43/43/43 40/40/40 39/39/39
f 44/44/44 45/45/45 43/43/43
f 46/46/46 44/44/44 43/43/43
f 46/46/46 43/43/43 39/39/39
f 47/47/47 46/46/46 39/39/39
f 35/35/35 47/47/47 39/39/39
f 35/35/35 39/39/39 48/48/48
