# Generated from Nova1492 GX by tools/nova1492/GxObjConverter
mtllib datan_common_body51_pomsx_7793cd4c.mtl
o datan_common_body51_pomsx_7793cd4c_mesh00
v 0.39911 1.7046 0.000009
v -0.112995 0.85839 -0.072527
v -0.112995 0.858391 0.072546
v 0.175362 0.718849 -0.023335
v 0.175362 0.718849 0.023353
v -0.038623 -0.001885 0.000009
v 0.469655 0.855472 -0.072527
v 0.469655 0.855472 0.072546
v 0.163718 1.006935 -0.023341
v 0.163718 1.006935 0.02336
v 0.39911 1.7046 0.000009
vt 0.456018 0.976235
vt 0.047031 0.55837
vt 0.047031 0.55837
vt 0.53725 0.370307
vt 0.53725 0.370307
vt 0.099593 0.023765
vt 0.952969 0.416273
vt 0.952969 0.416273
vt 0.400631 0.644484
vt 0.400631 0.644484
vt 0.456018 0.976235
vn -0.518652 0.379547 -0.766123
vn -0.500188 -0.479461 -0.721061
vn -0.419647 -0.184095 0.888823
vn -0.459069 -0.175415 -0.870911
vn -0.515643 -0.386761 0.764544
vn -0.922938 -0.384948 -0.000001
vn 0.513575 0.471231 -0.717065
vn 0.433742 0.17889 0.8831
vn 0.468436 0.160374 -0.86882
vn 0.526668 0.372859 0.763936
vn 0.737792 -0.227662 0.635478
usemtl datan_common_body51_pomsx_7793cd4c
f 1/1/1 2/2/2 3/3/3
f 2/2/2 4/4/4 5/5/5
f 2/2/2 5/5/5 3/3/3
f 4/4/4 6/6/6 5/5/5
f 6/6/6 7/7/7 8/8/8
f 7/7/7 9/9/9 10/10/10
f 7/7/7 10/10/10 8/8/8
f 9/9/9 11/11/11 10/10/10
f 4/4/4 7/7/7 6/6/6
f 9/9/9 2/2/2 1/1/1
f 4/4/4 9/9/9 7/7/7
f 2/2/2 9/9/9 4/4/4
f 5/5/5 6/6/6 8/8/8
f 10/10/10 11/11/11 3/3/3
f 5/5/5 8/8/8 10/10/10
f 3/3/3 5/5/5 10/10/10
o datan_common_body51_pomsx_7793cd4c_mesh01
v 0.675243 0.380703 0.525434
v 0.675243 0.380703 -0.520393
v -0.370584 0.380703 -0.520393
v -0.370584 0.380703 0.525434
vt 0.255941 0.005941
vt 0.494059 0.005941
vt 0.494059 0.244059
vt 0.255941 0.244059
vn 0 1 -0
vn 0 1 -0
vn 0 1 -0
vn 0 1 -0
usemtl datan_common_body51_pomsx_7793cd4c
f 12/12/12 13/13/13 14/14/14
f 14/14/14 15/15/15 12/12/12
o datan_common_body51_pomsx_7793cd4c_mesh02
v -0.370585 1.317255 0.525434
v 0.675243 1.317255 0.525434
v 0.675243 1.317255 -0.520393
v -0.370585 1.317255 -0.520393
vt 0.255941 0.005941
vt 0.494059 0.005941
vt 0.494059 0.244059
vt 0.255941 0.244059
vn 0 1 -0
vn 0 1 -0
vn 0 1 -0
vn 0 1 -0
usemtl datan_common_body51_pomsx_7793cd4c
f 16/16/16 17/17/17 18/18/18
f 18/18/18 19/19/19 16/16/16
