# Generated from Nova1492 GX by tools/nova1492/GxObjConverter
mtllib datan_common_g_body69_kpk_01970fff.mtl
o datan_common_g_body69_kpk_01970fff
v 0.213152 0.006941 0.11179
v 0.213152 0.006941 -0.181243
v 0.449429 -0.028999 -0.181243
v 0.449429 -0.028999 0.11179
v 0.509572 -0.125096 -0.181243
v 0.594113 -0.164979 -0.181243
v 0.594113 -0.164979 0.11179
v 0.509465 -0.125634 0.11179
v 0.308899 0.284318 0.065919
v 0.405094 0.239461 0.065919
v 0.405094 0.239461 -0.135373
v 0.308899 0.284318 -0.135373
v 0.425224 0.130898 0.11179
v 0.677275 0.013365 0.11179
v 0.677275 0.013365 -0.181243
v 0.425224 0.130898 -0.181243
v 0.213151 0.041413 0.151405
v 0.465347 0.005137 0.151405
v 0.409306 0.096762 0.151405
v 0.213141 0.196155 0.151405
v 0.520133 -0.088861 0.151405
v 0.580665 -0.11715 0.151405
v 0.631993 -0.007078 0.151405
v 0.594113 -0.164979 0.11179
v 0.594113 -0.164979 -0.181243
v 0.677275 0.013365 -0.181243
v 0.677275 0.013365 0.11179
v 0.594113 -0.164979 -0.181243
v 0.509572 -0.125096 -0.181243
v 0.425224 0.130898 -0.181243
v 0.677275 0.013365 -0.181243
v 0.449429 -0.028999 -0.181243
v 0.213152 0.006941 -0.181243
v 0.213141 0.229955 -0.181243
v 0.213152 0.006941 0.11179
v 0.449429 -0.028999 0.11179
v 0.509465 -0.125634 0.11179
v 0.594113 -0.164979 0.11179
v 0.213141 0.229955 0.11179
v 0.425224 0.130898 0.11179
v 0.677275 0.013365 0.11179
v 0.213141 0.229955 0.11179
v 0.213141 0.229955 -0.181243
v -0.213152 0.006941 -0.181243
v -0.213152 0.006941 0.11179
v -0.449429 -0.028999 -0.181243
v -0.449429 -0.028999 0.11179
v -0.509572 -0.125096 -0.181243
v -0.594113 -0.164979 0.11179
v -0.594113 -0.164979 -0.181243
v -0.509465 -0.125634 0.11179
v -0.405094 0.239461 0.065919
v -0.308899 0.284318 0.065919
v -0.405094 0.239461 -0.135373
v -0.308899 0.284318 -0.135373
v -0.677275 0.013365 0.11179
v -0.425224 0.130898 0.11179
v -0.677275 0.013365 -0.181243
v -0.425224 0.130898 -0.181243
v -0.465347 0.005137 0.151405
v -0.213151 0.041413 0.151405
v -0.409306 0.096762 0.151405
v -0.213141 0.196155 0.151405
v -0.580665 -0.11715 0.151405
v -0.520133 -0.088861 0.151405
v -0.631993 -0.007078 0.151405
v -0.594113 -0.164979 -0.181243
v -0.594113 -0.164979 0.11179
v -0.677275 0.013365 -0.181243
v -0.677275 0.013365 0.11179
v -0.509572 -0.125096 -0.181243
v -0.594113 -0.164979 -0.181243
v -0.425224 0.130898 -0.181243
v -0.677275 0.013365 -0.181243
v -0.213152 0.006941 -0.181243
v -0.449429 -0.028999 -0.181243
v -0.213141 0.229955 -0.181243
v -0.213152 0.006941 0.11179
v -0.449429 -0.028999 0.11179
v -0.509465 -0.125634 0.11179
v -0.594113 -0.164979 0.11179
v -0.213141 0.229956 0.11179
v -0.425224 0.130898 0.11179
v -0.677275 0.013365 0.11179
v -0.213141 0.229956 0.11179
v -0.213141 0.229955 -0.181243
vt 0.746475 0.910295
vt 0.676516 0.910295
vt 0.676516 0.744383
vt 0.746475 0.744383
vt 0.676516 0.661613
vt 0.676516 0.597511
vt 0.746475 0.597511
vt 0.746475 0.65766
vt 0.517691 0.68454
vt 0.541952 0.68454
vt 0.541952 0.822747
vt 0.517691 0.826575
vt 0.5589 0.652338
vt 0.624533 0.652338
vt 0.624533 0.853634
vt 0.5589 0.857462
vt 0.522146 0.529692
vt 0.579077 0.577669
vt 0.557481 0.619389
vt 0.506366 0.628261
vt 0.602556 0.537893
vt 0.616762 0.537854
vt 0.616762 0.619389
vt 0.672483 0.649444
vt 0.672483 0.853351
vt 0.626083 0.853351
vt 0.626083 0.649444
vt 0.624465 0.990642
vt 0.601998 0.990439
vt 0.559995 0.858583
vt 0.626379 0.858583
vt 0.579556 0.949213
vt 0.525823 0.99416
vt 0.503646 0.858689
vt 0.525661 0.507734
vt 0.580991 0.555024
vt 0.603972 0.5113
vt 0.626494 0.511381
vt 0.502919 0.649793
vt 0.559395 0.64969
vt 0.626494 0.64969
vt 0.503069 0.652338
vt 0.503069 0.857462
vt 0.676516 0.910295
vt 0.746475 0.910295
vt 0.676516 0.744383
vt 0.746475 0.744383
vt 0.676516 0.661613
vt 0.746475 0.597511
vt 0.676516 0.597511
vt 0.746475 0.65766
vt 0.541952 0.68454
vt 0.517691 0.68454
vt 0.541952 0.822747
vt 0.517691 0.826575
vt 0.624533 0.652338
vt 0.5589 0.652338
vt 0.624533 0.853634
vt 0.5589 0.857462
vt 0.579077 0.577669
vt 0.522146 0.529692
vt 0.557481 0.619389
vt 0.506366 0.628261
vt 0.616762 0.537854
vt 0.602556 0.537893
vt 0.616762 0.619389
vt 0.672483 0.853351
vt 0.672483 0.649444
vt 0.626083 0.853351
vt 0.626083 0.649444
vt 0.601998 0.990439
vt 0.624465 0.990642
vt 0.559995 0.858583
vt 0.626379 0.858583
vt 0.525823 0.99416
vt 0.579556 0.949213
vt 0.503646 0.858689
vt 0.525661 0.507734
vt 0.580991 0.555024
vt 0.603972 0.5113
vt 0.626494 0.511381
vt 0.502919 0.649793
vt 0.559395 0.64969
vt 0.626494 0.64969
vt 0.503069 0.652338
vt 0.503069 0.857462
vn -0.150381 -0.988628 0
vn -0.150381 -0.988628 -0
vn -0.847672 -0.53052 -0
vn -0.849419 -0.527718 -0.001277
vn -0.849419 -0.527718 -0.001277
vn -0.426661 -0.90441 -0.001814
vn -0.421503 -0.906827 0
vn -0.849419 -0.527718 -0.001277
vn -0.493696 0.869635 0
vn 0.98324 0.182317 -0
vn 0.192105 0.41197 -0.890717
vn -0.493696 0.869635 0
vn 0.98324 0.182317 -0
vn 0.422618 0.906308 0
vn 0.422618 0.906308 -0
vn 0.192105 0.41197 -0.890717
vn -0.107878 -0.749984 0.6526
vn -0 0 1
vn 0.306281 0.656822 0.689041
vn 0.327638 0.646638 0.688848
vn -0.68979 -0.428546 0.583556
vn 0.701546 -0.327136 0.6331
vn -0 0 1
vn 0.906308 -0.422618 0
vn 0.906308 -0.422618 0
vn 0.906308 -0.422618 0
vn 0.906308 -0.422618 0
vn -0 0 -1
vn 0 0 -1
vn 0 0 -1
vn -0 0 -1
vn 0 0 -1
vn -0 -0 -1
vn 0 0 -1
vn -0.111095 -0.730353 0.673975
vn -0.68979 -0.428546 0.583556
vn -0.68979 -0.428546 0.583556
vn 0.701547 -0.327136 0.633099
vn 0.334807 0.716828 0.611607
vn 0.306281 0.656821 0.689041
vn 0.701547 -0.327136 0.633099
vn -0.493696 0.869635 0
vn -0.493696 0.869635 0
vn 0.150381 -0.988628 0
vn 0.150381 -0.988628 0
vn 0.847672 -0.530521 0
vn 0.849419 -0.527718 -0.001278
vn 0.849419 -0.527718 -0.001278
vn 0.421503 -0.906827 0
vn 0.426662 -0.90441 -0.001815
vn 0.849419 -0.527718 -0.001278
vn -0.98324 0.182317 0
vn 0.493696 0.869635 -0
vn -0.192105 0.41197 -0.890717
vn 0.493696 0.869635 -0
vn -0.422618 0.906308 -0
vn -0.98324 0.182317 0
vn -0.422618 0.906308 -0
vn -0.192105 0.41197 -0.890717
vn -0 0 1
vn 0.107878 -0.749984 0.6526
vn -0.306281 0.656822 0.689041
vn -0.327638 0.646639 0.688848
vn -0.701547 -0.327136 0.633099
vn 0.68979 -0.428546 0.583557
vn -0 0 1
vn -0.906308 -0.422618 0
vn -0.906308 -0.422618 0
vn -0.906308 -0.422618 0
vn -0.906308 -0.422618 0
vn -0 -0 -1
vn 0 -0 -1
vn -0 -0 -1
vn 0 -0 -1
vn 0 -0 -1
vn -0 -0 -1
vn 0 -0 -1
vn 0.111095 -0.730353 0.673975
vn 0.68979 -0.428546 0.583557
vn 0.68979 -0.428546 0.583557
vn -0.701547 -0.327136 0.633099
vn -0.334807 0.716827 0.611607
vn -0.306281 0.656821 0.689041
vn -0.701547 -0.327136 0.633099
vn 0.493696 0.869635 -0
vn 0.493696 0.869635 -0
usemtl datan_common_g_body69_kpk_01970fff
f 1/1/1 2/2/2 3/3/3
f 3/3/3 4/4/4 1/1/1
f 4/4/4 3/3/3 5/5/5
f 6/6/6 7/7/7 8/8/8
f 9/9/9 10/10/10 11/11/11
f 11/11/11 12/12/12 9/9/9
f 13/13/13 14/14/14 15/15/15
f 15/15/15 16/16/16 13/13/13
f 17/17/17 18/18/18 19/19/19
f 19/19/19 20/20/20 17/17/17
f 21/21/21 22/22/22 23/23/23
f 23/23/23 19/19/19 18/18/18
f 24/24/24 25/25/25 26/26/26
f 26/26/26 27/27/27 24/24/24
f 28/28/28 29/29/29 30/30/30
f 30/30/30 31/31/31 28/28/28
f 32/32/32 33/33/33 34/34/34
f 34/34/34 30/30/30 32/32/32
f 17/17/17 35/35/35 18/18/18
f 36/36/36 18/18/18 35/35/35
f 21/21/21 37/37/37 22/22/22
f 38/38/38 22/22/22 37/37/37
f 39/39/39 20/20/20 40/40/40
f 19/19/19 40/40/40 20/20/20
f 40/40/40 19/19/19 41/41/41
f 23/23/23 41/41/41 19/19/19
f 22/22/22 38/38/38 23/23/23
f 41/41/41 23/23/23 38/38/38
f 18/18/18 36/36/36 21/21/21
f 18/18/18 21/21/21 23/23/23
f 37/37/37 21/21/21 36/36/36
f 6/6/6 8/8/8 5/5/5
f 5/5/5 8/8/8 4/4/4
f 29/29/29 32/32/32 30/30/30
f 42/42/42 13/13/13 10/10/10
f 10/10/10 9/9/9 42/42/42
f 13/13/13 16/16/16 11/11/11
f 11/11/11 10/10/10 13/13/13
f 16/16/16 43/43/43 12/12/12
f 12/12/12 11/11/11 16/16/16
f 43/43/43 42/42/42 9/9/9
f 9/9/9 12/12/12 43/43/43
f 44/44/44 45/45/45 46/46/46
f 47/47/47 46/46/46 45/45/45
f 46/46/46 47/47/47 48/48/48
f 49/49/49 50/50/50 51/51/51
f 52/52/52 53/53/53 54/54/54
f 55/55/55 54/54/54 53/53/53
f 56/56/56 57/57/57 58/58/58
f 59/59/59 58/58/58 57/57/57
f 60/60/60 61/61/61 62/62/62
f 63/63/63 62/62/62 61/61/61
f 64/64/64 65/65/65 66/66/66
f 62/62/62 66/66/66 60/60/60
f 67/67/67 68/68/68 69/69/69
f 70/70/70 69/69/69 68/68/68
f 71/71/71 72/72/72 73/73/73
f 74/74/74 73/73/73 72/72/72
f 75/75/75 76/76/76 77/77/77
f 73/73/73 77/77/77 76/76/76
f 78/78/78 61/61/61 60/60/60
f 60/60/60 79/79/79 78/78/78
f 80/80/80 65/65/65 64/64/64
f 64/64/64 81/81/81 80/80/80
f 63/63/63 82/82/82 83/83/83
f 83/83/83 62/62/62 63/63/63
f 62/62/62 83/83/83 84/84/84
f 84/84/84 66/66/66 62/62/62
f 81/81/81 64/64/64 66/66/66
f 66/66/66 84/84/84 81/81/81
f 79/79/79 60/60/60 65/65/65
f 65/65/65 60/60/60 66/66/66
f 65/65/65 80/80/80 79/79/79
f 51/51/51 50/50/50 48/48/48
f 51/51/51 48/48/48 47/47/47
f 76/76/76 71/71/71 73/73/73
f 57/57/57 85/85/85 52/52/52
f 53/53/53 52/52/52 85/85/85
f 59/59/59 57/57/57 54/54/54
f 52/52/52 54/54/54 57/57/57
f 86/86/86 59/59/59 55/55/55
