# Generated from Nova1492 GX by tools/nova1492/GxObjConverter
mtllib datan_common_body2_prt_ccf3d653.mtl
o datan_common_body2_prt_ccf3d653_mesh00
v -0.081301 0.003317 0.415857
v 0.081301 0.003317 0.415857
v -0.081301 0.314821 0.414155
v 0.081301 0.314821 0.414155
v -0.081301 0.314821 -0.322568
v 0.081301 0.159069 -0.139101
v -0.081301 0.159069 -0.139101
v 0.081301 0.314821 -0.322568
v -0.081301 0.314821 0.414155
v 0.081301 0.314821 0.414155
v -0.081301 0.314821 -0.322568
v 0.081301 0.314821 -0.322568
v -0.081301 0.003317 -0.064201
v -0.081301 0.003317 0.415857
v -0.081301 0.159069 -0.139101
v 0.081301 0.159069 -0.139101
v 0.081301 0.003317 0.415857
v 0.081301 0.003317 -0.064201
v -0.162602 -0.03331 0.47908
v 0.162602 -0.03331 0.47908
v -0.162602 0.058682 0.47908
v 0.162602 0.058682 0.47908
v -0.162602 0.058682 0.47908
v 0.162602 0.058682 0.47908
v -0.162602 0.058682 0.42595
v 0.162602 0.058682 0.42595
v -0.162602 -0.03331 0.42595
v -0.162602 -0.03331 0.47908
v 0.162602 -0.03331 0.42595
v 0.162602 -0.03331 0.47908
v -0.065041 0.001724 0.499478
v 0.065041 0.001724 0.499478
v -0.065041 0.122675 0.499478
v 0.065041 0.122675 0.499478
v -0.02896 0.158756 0.499478
v 0.02896 0.158756 0.499478
v -0.02896 0.158756 0.499478
v 0.02896 0.158756 0.499478
v -0.02896 0.158756 0.413828
v 0.02896 0.158756 0.413828
v -0.065041 0.001724 0.413828
v -0.065041 0.001724 0.499478
v -0.065041 0.122675 0.413828
v -0.065041 0.122675 0.499478
v 0.065041 0.001724 0.413828
v 0.065041 0.122675 0.413828
v 0.065041 0.001724 0.499478
v 0.065041 0.122675 0.499478
v -0.142056 0.466111 0.084997
v -0.041566 0.475678 0.180288
v 0 0.510887 -0.102155
v -0.131292 0.449851 -0.101266
v -0.167815 0.455324 -0.00639
v 0.167815 0.455324 -0.00639
v 0.131292 0.449851 -0.101266
v 0.142056 0.466111 0.084997
v 0.041566 0.475678 0.180288
v -0.062458 0.437467 -0.224619
v -0.024274 0.441144 -0.407956
v -0.102983 0.446268 -0.177712
v 0.102983 0.446268 -0.177712
v 0.062458 0.437467 -0.224619
v 0.024274 0.441144 -0.407956
v -0.186431 0.374168 0.153618
v -0.066487 0.374168 0.329657
v 0.186431 0.374168 0.153618
v 0.066487 0.374168 0.329657
v 0.216335 0.374168 0.029288
v 0.185437 0.374168 -0.101266
v 0.139915 0.374168 -0.202218
v 0.094884 0.374168 -0.283852
v 0.032935 0.370978 -0.676378
v -0.094884 0.374168 -0.283852
v -0.032935 0.370978 -0.676378
v -0.139915 0.374168 -0.202218
v -0.185437 0.374168 -0.101266
v -0.216335 0.374168 0.029288
v -0.186431 0.374168 0.153618
v -0.066487 0.31379 0.311765
v -0.066487 0.374168 0.329657
v -0.176382 0.31379 0.142891
v 0.066487 0.31379 0.311765
v 0.176382 0.31379 0.142891
v 0.186431 0.374168 0.153618
v 0.066487 0.374168 0.329657
v 0.216335 0.374168 0.029288
v 0.176606 0.31379 -0.100692
v 0.185437 0.374168 -0.101266
v 0.206226 0.31379 0.018535
v 0.133558 0.31379 -0.192273
v 0.139915 0.374168 -0.202218
v 0.094884 0.374168 -0.283852
v 0.032935 0.347888 -0.653981
v 0.032935 0.370978 -0.676378
v 0.08977 0.31379 -0.273907
v -0.032935 0.347888 -0.653981
v -0.08977 0.31379 -0.273907
v -0.094884 0.374168 -0.283852
v -0.032935 0.370978 -0.676378
v -0.139915 0.374168 -0.202218
v -0.176606 0.31379 -0.100692
v -0.185437 0.374168 -0.101266
v -0.133558 0.31379 -0.192273
v -0.206226 0.31379 0.018535
v -0.216335 0.374168 0.029288
vt 0.570293 0.125586
vt 0.679707 0.125586
vt 0.570293 0.976235
vt 0.679707 0.976235
vt 0.570293 0.976235
vt 0.679707 0.558567
vt 0.570293 0.558567
vt 0.679707 0.976235
vt 0.416701 0.984141
vt 0.416701 0.984141
vt 0.011883 0.984141
vt 0.011883 0.976485
vt 0.172145 0.572784
vt 0.454499 0.572784
vt 0.125685 0.766978
vt 0.118029 0.78229
vt 0.454499 0.572784
vt 0.172145 0.572784
vt 0.511758 0.023765
vt 0.738242 0.023765
vt 0.511758 0.264184
vt 0.738242 0.264184
vt 0.475465 0.6396
vt 0.475465 0.6396
vt 0.450165 0.6396
vt 0.442509 0.647256
vt 0.442509 0.523516
vt 0.475465 0.523516
vt 0.442509 0.523515
vt 0.475465 0.523515
vt 0.582 0.121156
vt 0.668 0.121156
vt 0.582 0.442081
vt 0.668 0.442081
vt 0.607978 0.542384
vt 0.649678 0.542384
vt 0.488117 0.774213
vt 0.488117 0.774213
vt 0.442646 0.774213
vt 0.43499 0.781869
vt 0.442646 0.57064
vt 0.488117 0.57064
vt 0.442646 0.718023
vt 0.488117 0.733335
vt 0.43499 0.57064
vt 0.43499 0.718023
vt 0.488117 0.57064
vt 0.488117 0.718023
vt 0.806305 0.269335
vt 0.849951 0.173691
vt 0.871172 0.441871
vt 0.799508 0.440979
vt 0.788015 0.361062
vt 0.961985 0.361062
vt 0.958148 0.440979
vt 0.943695 0.269335
vt 0.900049 0.173691
vt 0.839927 0.580103
vt 0.864565 0.74881
vt 0.814687 0.517709
vt 0.94297 0.517709
vt 0.91773 0.580103
vt 0.893091 0.74881
vt 0.783651 0.185146
vt 0.846806 0.023765
vt 0.974005 0.200459
vt 0.91085 0.023765
vt 0.988242 0.325252
vt 0.983204 0.440979
vt 0.965972 0.542306
vt 0.930269 0.639556
vt 0.89818 0.976235
vt 0.819731 0.639556
vt 0.859476 0.976235
vt 0.791684 0.542306
vt 0.766797 0.456291
vt 0.761758 0.325252
vt 0.407427 0.114722
vt 0.479138 0.023391
vt 0.488117 0.114721
vt 0.394387 0.023391
vt 0.479138 0.023391
vt 0.402043 0.023391
vt 0.407427 0.114721
vt 0.488117 0.114721
vt 0.337374 0.114721
vt 0.279799 0.023391
vt 0.279511 0.114721
vt 0.331978 0.023391
vt 0.226182 0.023391
vt 0.221191 0.114721
vt 0.180222 0.130034
vt 0.023123 0.135279
vt 0.011883 0.226609
vt 0.185213 0.023391
vt 0.023123 0.119966
vt 0.185213 0.023391
vt 0.180222 0.114722
vt 0.011883 0.22661
vt 0.228847 0.114722
vt 0.272143 0.023391
vt 0.271854 0.114722
vt 0.226182 0.023391
vt 0.331978 0.023391
vt 0.337374 0.114722
vn 0 0.005465 0.999985
vn 0 0.005465 0.999985
vn 0 0.005465 0.999985
vn 0 0.005465 0.999985
vn 0 -0.76234 -0.647177
vn 0 -0.76234 -0.647177
vn -0 -0.76234 -0.647177
vn 0 -0.76234 -0.647177
vn -1 -0 -0
vn 1 0 0
vn -1 0 0
vn 1 0 0
vn -0 -0.433384 -0.901209
vn -1 0 0
vn -1 0 0
vn 1 0 0
vn 1 0 0
vn 1 0 0
vn 0 0.066483 0.997788
vn 0 0.066483 0.997788
vn 0 0.066483 0.997788
vn 0 0.066483 0.997788
vn -0.921588 0.086617 0.378383
vn 0.921588 0.086617 0.378383
vn -0 0.157466 -0.987524
vn 0.921588 0.086617 0.378383
vn -0 0.157466 -0.987524
vn -0.921588 0.086617 0.378383
vn 0.921588 0.086617 0.378383
vn 0.921588 0.086617 0.378383
vn 0 0.090822 0.995867
vn 0 0.090822 0.995867
vn 0 0.090822 0.995867
vn 0 0.090822 0.995867
vn 0 0.090822 0.995867
vn 0 0.090822 0.995867
vn -0.60388 0.714066 0.354173
vn 0.60388 0.714066 0.354173
vn -0.60388 0.714066 0.354173
vn 0 0.215272 -0.976554
vn 0 0.215272 -0.976554
vn -0.917225 0.118341 0.380387
vn -0.60388 0.714066 0.354173
vn -0.60388 0.714066 0.354173
vn 0.917225 0.118341 0.380387
vn 0 0.215272 -0.976554
vn 0.917225 0.118341 0.380387
vn 0.60388 0.714066 0.354173
vn -0.642349 0.766363 0.008656
vn 0 0.949486 0.31381
vn 0.184878 0.905411 -0.382167
vn -0.608589 0.74961 -0.2602
vn -0.642349 0.766363 0.008656
vn 0.642349 0.766363 0.008656
vn 0.577413 0.724902 -0.375648
vn 0.642349 0.766363 0.008656
vn 0 0.949486 0.31381
vn -0.445405 0.69029 -0.570189
vn 0 0.959457 -0.281856
vn -0.445405 0.69029 -0.570189
vn 0.445404 0.69029 -0.570189
vn 0.445404 0.69029 -0.570189
vn 0 0.959457 -0.281856
vn -0.65043 0.758752 0.035153
vn 0 0.949486 0.31381
vn 0.65043 0.758752 0.035153
vn 0 0.949486 0.31381
vn 0.642349 0.766363 0.008656
vn 0.577413 0.724902 -0.375648
vn 0.445404 0.69029 -0.570189
vn 0.477797 0.794173 -0.3755
vn -0 0.959457 -0.281856
vn -0.477797 0.794173 -0.3755
vn 0 0.959457 -0.281856
vn -0.445405 0.69029 -0.570189
vn -0.608589 0.74961 -0.2602
vn -0.642349 0.766363 0.008656
vn -0.972901 0.21755 0.078337
vn 0 0.157025 0.987595
vn 0 0.157025 0.987595
vn -0.973138 0.216668 0.077831
vn 0 0.157025 0.987595
vn 0.973138 0.216668 0.077831
vn 0.972901 0.21755 0.078337
vn 0 0.157025 0.987595
vn 0.973138 0.216668 0.077831
vn 0.822634 0.251743 -0.509802
vn 0.822634 0.251743 -0.509802
vn 0.973138 0.216668 0.077831
vn 0.794111 0.223182 -0.565312
vn 0.794111 0.223182 -0.565312
vn 0.785634 0.236389 -0.571751
vn -0.000001 -0.310147 -0.950689
vn -0.000001 -0.310147 -0.950689
vn 0.794111 0.223182 -0.565312
vn -0.000001 -0.310147 -0.950689
vn -0.79411 0.223183 -0.565312
vn -0.785635 0.236389 -0.571751
vn -0.000001 -0.310147 -0.950689
vn -0.79411 0.223183 -0.565312
vn -0.900143 0.251706 -0.355511
vn -0.900143 0.251706 -0.355511
vn -0.79411 0.223183 -0.565312
vn -0.973138 0.216668 0.077831
vn -0.973138 0.216668 0.077831
usemtl datan_common_body2_prt_ccf3d653
f 1/1/1 2/2/2 3/3/3
f 4/4/4 3/3/3 2/2/2
f 5/5/5 6/6/6 7/7/7
f 5/5/5 8/8/8 6/6/6
f 9/9/9 10/10/10 11/11/11
f 12/12/12 11/11/11 10/10/10
f 13/13/13 14/14/14 15/15/15
f 9/9/9 11/11/11 14/14/14
f 15/15/15 16/16/16 13/13/13
f 17/17/17 18/18/18 10/10/10
f 12/12/12 10/10/10 16/16/16
f 15/15/15 14/14/14 11/11/11
f 18/18/18 13/13/13 16/16/16
f 16/16/16 10/10/10 18/18/18
f 19/19/19 20/20/20 21/21/21
f 22/22/22 21/21/21 20/20/20
f 23/23/23 24/24/24 25/25/25
f 26/26/26 25/25/25 24/24/24
f 27/27/27 28/28/28 25/25/25
f 23/23/23 25/25/25 28/28/28
f 29/29/29 27/27/27 26/26/26
f 25/25/25 26/26/26 27/27/27
f 30/30/30 29/29/29 24/24/24
f 26/26/26 24/24/24 29/29/29
f 31/31/31 32/32/32 33/33/33
f 34/34/34 35/35/35 32/32/32
f 36/36/36 35/35/35 34/34/34
f 33/33/33 32/32/32 35/35/35
f 37/37/37 38/38/38 39/39/39
f 40/40/40 39/39/39 38/38/38
f 41/41/41 42/42/42 43/43/43
f 44/44/44 43/43/43 42/42/42
f 45/45/45 41/41/41 46/46/46
f 43/43/43 40/40/40 41/41/41
f 47/47/47 45/45/45 48/48/48
f 46/46/46 48/48/48 45/45/45
f 39/39/39 40/40/40 43/43/43
f 44/44/44 37/37/37 39/39/39
f 39/39/39 43/43/43 44/44/44
f 38/38/38 48/48/48 46/46/46
f 46/46/46 40/40/40 38/38/38
f 46/46/46 41/41/41 40/40/40
f 49/49/49 50/50/50 51/51/51
f 51/51/51 52/52/52 53/53/53
f 51/51/51 54/54/54 55/55/55
f 56/56/56 51/51/51 57/57/57
f 58/58/58 51/51/51 59/59/59
f 51/51/51 60/60/60 52/52/52
f 51/51/51 55/55/55 61/61/61
f 62/62/62 63/63/63 51/51/51
f 64/64/64 65/65/65 50/50/50
f 50/50/50 49/49/49 64/64/64
f 57/57/57 66/66/66 56/56/56
f 66/66/66 57/57/57 67/67/67
f 54/54/54 68/68/68 55/55/55
f 69/69/69 55/55/55 68/68/68
f 55/55/55 70/70/70 61/61/61
f 70/70/70 55/55/55 69/69/69
f 71/71/71 72/72/72 63/63/63
f 63/63/63 62/62/62 71/71/71
f 59/59/59 73/73/73 58/58/58
f 73/73/73 59/59/59 74/74/74
f 60/60/60 75/75/75 52/52/52
f 76/76/76 52/52/52 75/75/75
f 52/52/52 77/77/77 53/53/53
f 77/77/77 52/52/52 76/76/76
f 50/50/50 57/57/57 51/51/51
f 53/53/53 49/49/49 51/51/51
f 56/56/56 54/54/54 51/51/51
f 58/58/58 60/60/60 51/51/51
f 63/63/63 59/59/59 51/51/51
f 61/61/61 62/62/62 51/51/51
f 65/65/65 67/67/67 50/50/50
f 57/57/57 50/50/50 67/67/67
f 77/77/77 64/64/64 49/49/49
f 49/49/49 53/53/53 77/77/77
f 66/66/66 68/68/68 56/56/56
f 54/54/54 56/56/56 68/68/68
f 70/70/70 71/71/71 62/62/62
f 62/62/62 61/61/61 70/70/70
f 72/72/72 74/74/74 63/63/63
f 59/59/59 63/63/63 74/74/74
f 73/73/73 75/75/75 58/58/58
f 60/60/60 58/58/58 75/75/75
f 78/78/78 79/79/79 80/80/80
f 79/79/79 78/78/78 81/81/81
f 82/82/82 83/83/83 84/84/84
f 84/84/84 85/85/85 82/82/82
f 86/86/86 87/87/87 88/88/88
f 87/87/87 86/86/86 89/89/89
f 87/87/87 90/90/90 91/91/91
f 91/91/91 88/88/88 87/87/87
f 92/92/92 93/93/93 94/94/94
f 93/93/93 92/92/92 95/95/95
f 96/96/96 97/97/97 98/98/98
f 98/98/98 99/99/99 96/96/96
f 100/100/100 101/101/101 102/102/102
f 101/101/101 100/100/100 103/103/103
f 101/101/101 104/104/104 105/105/105
f 105/105/105 102/102/102 101/101/101
f 85/85/85 80/80/80 82/82/82
f 79/79/79 82/82/82 80/80/80
f 78/78/78 105/105/105 81/81/81
f 104/104/104 81/81/81 105/105/105
f 86/86/86 84/84/84 83/83/83
f 83/83/83 89/89/89 86/86/86
f 92/92/92 91/91/91 95/95/95
f 90/90/90 95/95/95 91/91/91
f 99/99/99 94/94/94 96/96/96
f 93/93/93 96/96/96 94/94/94
f 100/100/100 98/98/98 97/97/97
f 97/97/97 103/103/103 100/100/100
