# Generated from Nova1492 GX by tools/nova1492/GxObjConverter
mtllib datan_common_n_body48_grbs_8ef2e67e.mtl
o datan_common_n_body48_grbs_8ef2e67e_mesh00
v -0.289221 -0.000003 1.037745
v -0.244262 0.262421 0.975596
v -0.20725 0.262421 -0.621436
v -0.245352 -0.000003 -0.621436
v 0.290403 -0.000003 1.037745
v 0.245855 -0.000003 -0.621436
v 0.207754 0.262421 -0.621436
v 0.245443 0.262421 0.975596
v -0.244262 0.262421 0.975596
v -0.289221 -0.000003 1.037745
v 0.290403 -0.000003 1.037745
v 0.245443 0.262421 0.975596
v -0.207138 -0.111296 1.00162
v -0.288138 -0.000018 1.028409
v -0.247638 -0.000002 0.672319
v 0.248747 -0.000002 0.672319
v 0.289247 -0.000018 1.028409
v 0.208247 -0.111296 1.00162
v 0.461353 0.027169 0.873956
v 0.461353 0.027169 0.561049
v 0.425895 0.111295 0.590522
v 0.425895 0.111295 0.844484
v 0.289425 0.003614 0.502763
v 0.275541 0.13485 0.539729
v 0.275541 0.13485 0.895276
v 0.289425 0.003614 0.932243
v -0.390103 0.261224 -0.688614
v -0.390103 0.002729 -0.688614
v -0.493122 0.231549 -0.688614
v -0.443248 -0.007786 -0.688614
v -0.390103 0.261224 -0.021335
v -0.785116 0.167089 -0.021335
v -0.390103 0.002729 -0.021335
v -0.759603 0.171937 -0.198334
v -0.718144 -0.040183 -0.198334
v -0.743658 -0.04268 -0.021335
v -0.743658 -0.04268 -0.021335
v -0.390103 0.002729 -0.021335
v -0.785116 0.167089 -0.021335
v -0.390103 0.261224 -0.021335
v -0.389388 0.000204 0.077722
v -0.389388 0.261432 -0.021088
v -0.389388 0.261432 -0.620575
v -0.389388 0.000204 -0.620575
v 0.390237 0.000204 0.077722
v 0.390237 0.000204 -0.620575
v 0.390237 0.261432 -0.620575
v 0.390237 0.261432 -0.021088
v -0.389388 0.173018 0.077469
v 0.390237 0.173018 0.077469
v -0.389388 0.000204 0.077722
v 0.390237 0.000204 0.077722
v 0.390237 0.173018 0.077469
v -0.389388 0.173018 0.077469
v 0.390237 0.261432 -0.021088
v -0.389388 0.261432 -0.021088
v -0.224549 0.261813 -0.02094
v -0.096742 0.54935 -0.069243
v -0.096742 0.54935 -0.621174
v -0.224549 0.261813 -0.621174
v 0.225812 0.261813 -0.02094
v 0.225812 0.261813 -0.621174
v 0.098005 0.54935 -0.621174
v 0.098005 0.54935 -0.069243
v -0.096742 0.54935 -0.069243
v -0.224549 0.261813 -0.02094
v 0.225812 0.261813 -0.02094
v 0.098005 0.54935 -0.069243
v 0.390199 0.002729 -0.688614
v 0.390199 0.261224 -0.688614
v 0.4938 0.231549 -0.688614
v 0.452239 -0.007873 -0.688614
v 0.390199 0.261224 -0.021335
v 0.785213 0.167089 -0.021335
v 0.390199 0.002729 -0.021335
v 0.759699 0.171937 -0.198334
v 0.71824 -0.040183 -0.198334
v 0.743754 -0.04268 -0.021335
v 0.390199 0.002729 -0.021335
v 0.743754 -0.04268 -0.021335
v 0.785213 0.167089 -0.021335
v 0.390199 0.261224 -0.021335
v -0.460159 0.027169 0.561049
v -0.460159 0.027169 0.873956
v -0.460159 0.111295 0.576554
v -0.460159 0.111295 0.858452
v -0.274347 0.13485 0.520174
v -0.288231 0.003614 0.502763
v -0.274347 0.13485 0.914831
v -0.288231 0.003614 0.932243
v 0.000209 0.536194 -0.613378
v 0.346002 0.262365 -0.613378
v -0.345584 0.262365 -0.613378
v -0.345584 0.262365 -0.109801
v 0.346002 0.262365 -0.109801
v 0.000209 0.536194 -0.109802
vt 0.610678 0.012476
vt 0.66616 0.059979
vt 0.66616 0.987524
vt 0.610678 0.987524
vt 0.889316 0.012476
vt 0.889316 0.987524
vt 0.833834 0.987524
vt 0.833834 0.059979
vt 0.133131 0.777942
vt 0.110284 0.593468
vt 0.389509 0.593468
vt 0.366662 0.785599
vt 0.13694 0.511986
vt 0.111092 0.585801
vt 0.124016 0.585812
vt 0.376255 0.585812
vt 0.389179 0.585801
vt 0.363331 0.511986
vt 0.976011 0.109485
vt 0.976011 0.287158
vt 0.965457 0.269702
vt 0.965457 0.126941
vt 0.904132 0.32168
vt 0.897091 0.299786
vt 0.897091 0.096857
vt 0.904132 0.074963
vt 0.023515 0.24207
vt 0.023515 0.24207
vt 0.154439 0.24207
vt 0.10621 0.238242
vt 0.023515 0.011758
vt 0.476485 0.011758
vt 0.023515 0.011758
vt 0.450514 0.066208
vt 0.408312 0.066208
vt 0.434283 0.011758
vt 0.434283 0.261758
vt 0.023515 0.296743
vt 0.476485 0.415716
vt 0.023515 0.488242
vt 0.516827 0.581082
vt 0.516827 0.639604
vt 0.516827 0.987015
vt 0.524483 0.987015
vt 0.983374 0.581081
vt 0.983374 0.987015
vt 0.983374 0.987015
vt 0.975718 0.639604
vt 0.524483 0.581231
vt 0.975718 0.581231
vt 0.023917 0.59362
vt 0.476083 0.59362
vt 0.476083 0.712487
vt 0.023917 0.720143
vt 0.476083 0.784874
vt 0.023917 0.784874
vt 0.623126 0.639517
vt 0.684297 0.639532
vt 0.684297 0.987369
vt 0.623126 0.987369
vt 0.877321 0.639517
vt 0.877321 0.987369
vt 0.816151 0.987369
vt 0.816151 0.639532
vt 0.199393 0.988014
vt 0.122758 0.785154
vt 0.37749 0.785154
vt 0.300855 0.988014
vt 0.023516 0.24207
vt 0.023516 0.24207
vt 0.154439 0.24207
vt 0.114249 0.238242
vt 0.023515 0.011758
vt 0.476485 0.011758
vt 0.023515 0.011758
vt 0.450514 0.066208
vt 0.408312 0.066208
vt 0.434283 0.011758
vt 0.023515 0.296743
vt 0.434283 0.261758
vt 0.476485 0.415716
vt 0.023515 0.488242
vt 0.516332 0.287158
vt 0.516332 0.109485
vt 0.516332 0.277975
vt 0.523988 0.118668
vt 0.618221 0.311368
vt 0.61118 0.32168
vt 0.618221 0.085275
vt 0.61118 0.074963
vt 0.749971 0.98658
vt 0.949246 0.98658
vt 0.550696 0.98658
vt 0.550696 0.68832
vt 0.949246 0.68832
vt 0.749971 0.68832
vn -0.989285 0.143635 -0.026157
vn 0 1 -0
vn 0 1 -0
vn 0 0 -1
vn 0.986275 0.163461 -0.023276
vn 0 0 -1
vn 0 1 -0
vn 0 1 -0
vn 0 0.230451 0.973084
vn 0 0.230451 0.973084
vn 0 0.230451 0.973084
vn 0 0.230451 0.973084
vn -0.000011 -0.156978 0.987602
vn -0.000011 -0.156978 0.987602
vn -0.638365 -0.490736 0.593017
vn 0.638346 -0.490746 0.593029
vn -0.000011 -0.156978 0.987602
vn -0.000011 -0.156978 0.987602
vn 0.320867 0.29483 0.900067
vn 0.660217 0.711584 -0.240337
vn 0.269473 0.79682 0.540797
vn 0.320867 0.29483 0.900067
vn 0.660217 0.711584 -0.240337
vn 0.269473 0.79682 0.540797
vn 0.320867 0.29483 0.900067
vn 0.272772 0.204959 0.939993
vn 0.84068 0.125979 -0.526675
vn 0.84068 0.125979 -0.526675
vn -0.509974 0.814024 -0.278014
vn -0.834894 -0.053287 -0.547825
vn 0.84068 0.125979 -0.526675
vn -0.509974 0.814024 -0.278014
vn 0.84068 0.125979 -0.526675
vn -0.509974 0.814024 -0.278014
vn -0.939724 -0.070177 -0.334656
vn -0.94015 -0.071629 -0.333147
vn -0.5544 0.108617 0.825132
vn -0.5544 0.108617 0.825132
vn -0.5544 0.108617 0.825132
vn -0.5544 0.108617 0.825132
vn -0.954 0.124814 -0.27259
vn -0.954 0.124814 -0.27259
vn 0.000096 0.969535 -0.244953
vn 0.000087 0.101226 -0.994864
vn 0.95402 0.124789 -0.272533
vn 0.000087 0.101226 -0.994864
vn 0.000096 0.969535 -0.244953
vn 0.95402 0.124789 -0.272533
vn -0.954 0.124814 -0.27259
vn 0.95402 0.124789 -0.272533
vn 0.000155 0.182093 0.983281
vn 0.000155 0.182092 0.983281
vn 0.000118 0.916476 0.400091
vn 0.000118 0.916476 0.400091
vn 0.000118 0.916476 0.400091
vn 0.000118 0.916476 0.400091
vn -0.722994 0.642432 -0.254088
vn 0.000171 0.974891 -0.222681
vn 0.000171 0.974891 -0.222681
vn 0.000179 0.293492 -0.955961
vn 0.72318 0.642251 -0.254017
vn 0.000179 0.293492 -0.955961
vn 0.000171 0.974891 -0.222681
vn 0.000171 0.974891 -0.222681
vn 0.00028 0.651541 0.758614
vn 0.000281 0.651542 0.758613
vn 0.00028 0.651541 0.758614
vn 0.00028 0.651541 0.758614
vn -0.840796 0.125937 -0.526501
vn -0.840796 0.125937 -0.526501
vn 0.51023 0.813845 -0.278068
vn 0.83959 -0.054151 -0.540515
vn -0.840796 0.125937 -0.526501
vn 0.51023 0.813845 -0.278068
vn -0.840796 0.125937 -0.526501
vn 0.51023 0.813845 -0.278068
vn 0.939703 -0.070188 -0.334711
vn 0.94013 -0.071641 -0.333202
vn 0.554165 0.108638 0.825287
vn 0.554165 0.108637 0.825287
vn 0.554165 0.108638 0.825287
vn 0.554165 0.108638 0.825287
vn -0.834265 0.406446 -0.372565
vn -0.291176 0.138397 0.946606
vn -0.24839 0.802476 0.542526
vn -0.291176 0.138397 0.946606
vn -0.24839 0.802476 0.542526
vn -0.834265 0.406446 -0.372565
vn -0.291176 0.138397 0.946606
vn -0.286411 0.129128 0.949366
vn -0.448651 0.855076 -0.259919
vn 0.448619 0.855091 -0.259923
vn -0.448651 0.855076 -0.259919
vn -0.448651 0.855076 -0.259919
vn 0.448619 0.855091 -0.259923
vn -0.448651 0.855076 -0.259919
usemtl datan_common_n_body48_grbs_8ef2e67e
f 1/1/1 2/2/2 3/3/3
f 3/3/3 4/4/4 1/1/1
f 5/5/5 6/6/6 7/7/7
f 7/7/7 8/8/8 5/5/5
f 4/4/4 3/3/3 7/7/7
f 7/7/7 6/6/6 4/4/4
f 3/3/3 2/2/2 8/8/8
f 8/8/8 7/7/7 3/3/3
f 9/9/9 10/10/10 11/11/11
f 11/11/11 12/12/12 9/9/9
f 13/13/13 14/14/14 15/15/15
f 16/16/16 17/17/17 18/18/18
f 14/14/14 13/13/13 18/18/18
f 18/18/18 17/17/17 14/14/14
f 19/19/19 20/20/20 21/21/21
f 21/21/21 22/22/22 19/19/19
f 23/23/23 24/24/24 21/21/21
f 21/21/21 20/20/20 23/23/23
f 24/24/24 25/25/25 22/22/22
f 22/22/22 21/21/21 24/24/24
f 25/25/25 26/26/26 19/19/19
f 19/19/19 22/22/22 25/25/25
f 27/27/27 28/28/28 29/29/29
f 30/30/30 29/29/29 28/28/28
f 27/27/27 29/29/29 31/31/31
f 32/32/32 31/31/31 29/29/29
f 28/28/28 27/27/27 33/33/33
f 31/31/31 33/33/33 27/27/27
f 29/29/29 30/30/30 34/34/34
f 35/35/35 34/34/34 30/30/30
f 36/36/36 32/32/32 35/35/35
f 34/34/34 35/35/35 32/32/32
f 32/32/32 29/29/29 34/34/34
f 37/37/37 38/38/38 39/39/39
f 40/40/40 39/39/39 38/38/38
f 41/41/41 42/42/42 43/43/43
f 43/43/43 44/44/44 41/41/41
f 45/45/45 46/46/46 47/47/47
f 47/47/47 48/48/48 45/45/45
f 44/44/44 43/43/43 47/47/47
f 47/47/47 46/46/46 44/44/44
f 43/43/43 42/42/42 48/48/48
f 48/48/48 47/47/47 43/43/43
f 42/42/42 41/41/41 49/49/49
f 45/45/45 48/48/48 50/50/50
f 51/51/51 52/52/52 53/53/53
f 53/53/53 54/54/54 51/51/51
f 55/55/55 56/56/56 54/54/54
f 54/54/54 53/53/53 55/55/55
f 57/57/57 58/58/58 59/59/59
f 59/59/59 60/60/60 57/57/57
f 61/61/61 62/62/62 63/63/63
f 63/63/63 64/64/64 61/61/61
f 60/60/60 59/59/59 63/63/63
f 63/63/63 62/62/62 60/60/60
f 59/59/59 58/58/58 64/64/64
f 64/64/64 63/63/63 59/59/59
f 65/65/65 66/66/66 67/67/67
f 67/67/67 68/68/68 65/65/65
f 69/69/69 70/70/70 71/71/71
f 71/71/71 72/72/72 69/69/69
f 71/71/71 70/70/70 73/73/73
f 73/73/73 74/74/74 71/71/71
f 70/70/70 69/69/69 75/75/75
f 75/75/75 73/73/73 70/70/70
f 72/72/72 71/71/71 76/76/76
f 76/76/76 77/77/77 72/72/72
f 74/74/74 78/78/78 77/77/77
f 77/77/77 76/76/76 74/74/74
f 71/71/71 74/74/74 76/76/76
f 79/79/79 80/80/80 81/81/81
f 81/81/81 82/82/82 79/79/79
f 83/83/83 84/84/84 85/85/85
f 86/86/86 85/85/85 84/84/84
f 87/87/87 88/88/88 85/85/85
f 83/83/83 85/85/85 88/88/88
f 89/89/89 87/87/87 86/86/86
f 85/85/85 86/86/86 87/87/87
f 90/90/90 89/89/89 84/84/84
f 86/86/86 84/84/84 89/89/89
f 91/91/91 92/92/92 93/93/93
f 94/94/94 95/95/95 96/96/96
f 92/92/92 91/91/91 96/96/96
f 96/96/96 95/95/95 92/92/92
f 91/91/91 93/93/93 94/94/94
f 94/94/94 96/96/96 91/91/91
