# Generated from Nova1492 GX by tools/nova1492/GxObjConverter
mtllib datan_common_no21-body_fa6f5532.mtl
o datan_common_no21-body_fa6f5532_mesh00
v 0.078777 1.118517 1.227045
v 0.078777 1.118517 0.793382
v -0.078777 1.118517 0.793382
v -0.078777 1.118517 1.227045
v 0.253812 0.798236 1.310216
v -0.253812 0.798236 1.310216
v -0.253812 0.386869 1.310216
v 0.253812 0.386869 1.310216
v 0.253812 0.386869 0.793382
v 0.253812 0.798236 0.793382
v 0.253812 0.798236 1.310216
v 0.253812 0.386869 1.310216
v -0.253812 0.798236 -0.527542
v 0.253812 0.798236 -0.527542
v 0.253812 0.386869 -0.527542
v -0.253812 0.386869 -0.527542
v -0.253812 0.386869 0.245765
v -0.253812 0.798236 0.083397
v -0.253812 0.798236 -0.527542
v -0.253812 0.386869 -0.527542
v 0.078777 1.118517 1.227045
v -0.078777 1.118517 1.227045
v -0.1419 1.066214 -0.527542
v 0.1419 1.066214 -0.527542
v -0.1419 1.118517 0.083397
v -0.1419 1.066214 -0.527542
v 0.253812 0.386869 0.245765
v 0.253812 0.798236 0.083397
v -0.253812 0.798236 0.793382
v -0.253812 0.386869 0.793382
v -0.078777 1.118517 1.227045
v -0.078777 1.118517 0.793382
v 0.1419 1.066214 -0.527542
v -0.1419 1.066214 -0.527542
v -0.1419 1.118517 0.083397
v 0.1419 1.118517 0.083397
v 0.1419 1.066214 -0.527542
v 0.1419 1.118517 0.083397
v 0.1419 1.118517 0.083397
v -0.1419 1.118517 0.083397
v -0.253812 0.798236 0.083397
v 0.253812 0.798236 0.083397
v 0.253812 0.798236 0.793382
v -0.253812 0.798236 0.793382
v -0.078777 1.118517 0.793382
v 0.078777 1.118517 0.793382
v 0.162218 0.005978 -0.194539
v -0.162218 0.005978 -0.194539
v 0.162218 0.005978 0.136206
v 0.162218 0.005978 -0.194539
v -0 0.386869 0.361875
v -0 0.005978 0.194042
v 0.162218 0.005978 0.136206
v 0.253812 0.386869 0.245765
v -0.162218 0.005978 -0.194539
v -0.162218 0.005978 0.136206
v -0.210905 0.168085 0.879932
v -0.210905 0.168085 1.262151
v -0.253812 0.386869 0.793382
v 0.253812 0.386869 0.793382
v 0.210904 0.168085 0.879932
v -0.210905 0.168085 0.879932
v 0.210904 0.168085 1.262151
v 0.210904 0.168085 0.879932
v -0.210905 0.168085 1.262151
v 0.210904 0.168085 1.262151
v -0.253812 0.386869 0.245765
v -0.162218 0.005978 0.136206
v -0.110067 1.035502 0.798602
v 0.110067 1.035502 0.798602
v 0.110067 1.035502 0.083078
v -0.110067 1.035502 0.083078
v 0.186806 0.786982 0.798602
v 0.186806 0.786982 0.083078
v -0.186806 0.786982 0.083078
v -0.186806 0.786982 0.798602
v -0 0.575855 1.518399
v 0.096336 0.742715 1.518399
v 0.192672 0.575855 1.518399
v -0.096336 0.742715 1.518399
v -0.192673 0.575855 1.518399
v -0.096336 0.408996 1.518399
v 0.096336 0.408996 1.518399
v 0.192672 0.575855 1.518399
v 0.096336 0.742715 1.792346
v 0.192672 0.575855 1.792346
v -0.096336 0.742715 1.792346
v -0.192673 0.575855 1.792346
v -0.192673 0.575855 1.518399
v -0.096336 0.408996 1.792346
v -0.096336 0.408996 1.518399
v 0.096336 0.408996 1.518399
v 0.096336 0.408996 1.792346
v -0 0.575855 1.792346
v 0.192672 0.575855 1.792346
v -0.192673 0.575855 1.792346
v -0.096336 0.408996 1.792346
v 0.096336 0.408996 1.792346
v 0.113365 0.575855 1.305729
v 0.056682 0.674032 1.536416
v 0.113365 0.575855 1.536416
v 0.056682 0.674032 1.305729
v -0.056682 0.674032 1.536416
v -0.056682 0.674032 1.305729
v -0.113365 0.575855 1.536416
v -0.113365 0.575855 1.305729
v -0.056682 0.477679 1.536416
v -0.056682 0.477679 1.305729
v 0.056682 0.477679 1.305729
v 0.056682 0.477679 1.536416
v -0.233208 1.04163 0.744737
v -0.338352 1.032431 0.744737
v -0.347947 1.036906 0.934761
v -0.242818 1.046111 0.911104
v -0.382958 0.936775 0.744737
v -0.392553 0.941249 0.934761
v -0.322419 0.850317 0.744737
v -0.332028 0.854798 0.911104
v -0.217275 0.859516 0.744737
v -0.17267 0.955173 0.744737
v -0.182293 0.95966 0.887447
v -0.226899 0.864003 0.887447
v -0.296501 1.012916 1.109092
v -0.214371 1.032846 1.031822
v -0.341106 0.917259 1.109092
v -0.303582 0.841533 1.031822
v -0.176847 0.95712 0.954553
v -0.162997 0.950662 1.19284
v -0.140694 0.99849 1.101435
v -0.207603 0.855005 1.19284
v -0.229905 0.807177 1.101435
v -0.162997 0.950662 1.01003
v -0.217275 0.859516 0.744737
v -0.322419 0.850317 0.744737
v -0.382958 0.936775 0.744737
v -0.338352 1.032431 0.744737
v -0.233208 1.04163 0.744737
v -0.17267 0.955173 0.744737
v 0.233208 1.04163 0.744737
v 0.347947 1.036906 0.934761
v 0.338352 1.032431 0.744737
v 0.242818 1.046111 0.911104
v 0.392553 0.941249 0.934761
v 0.382958 0.936775 0.744737
v 0.332028 0.854798 0.911104
v 0.322419 0.850317 0.744737
v 0.217275 0.859516 0.744737
v 0.182293 0.95966 0.887447
v 0.17267 0.955173 0.744737
v 0.226899 0.864003 0.887447
v 0.296501 1.012916 1.109092
v 0.214371 1.032846 1.031822
v 0.341106 0.917259 1.109092
v 0.303582 0.841533 1.031822
v 0.176847 0.95712 0.954553
v 0.162997 0.950662 1.19284
v 0.140694 0.99849 1.101435
v 0.207602 0.855005 1.19284
v 0.229905 0.807177 1.101435
v 0.162997 0.950662 1.01003
v 0.217275 0.859516 0.744737
v 0.382958 0.936775 0.744737
v 0.322419 0.850317 0.744737
v 0.233208 1.04163 0.744737
v 0.338352 1.032431 0.744737
v 0.17267 0.955173 0.744737
vt 0.673148 0.638896
vt 0.548072 0.638896
vt 0.548111 0.593419
vt 0.673186 0.593419
vt 0.018815 0.321044
vt 0.165226 0.321055
vt 0.165226 0.439699
vt 0.018815 0.439689
vt 0.548033 0.849952
vt 0.548033 0.731307
vt 0.697097 0.731307
vt 0.697097 0.849952
vt 0.020744 0.73097
vt 0.167104 0.731138
vt 0.167104 0.849783
vt 0.020744 0.849615
vt 0.472234 0.43971
vt 0.519063 0.321065
vt 0.695268 0.321065
vt 0.695268 0.43971
vt 0.069298 0.22867
vt 0.114739 0.22867
vt 0.053021 0.653681
vt 0.134873 0.653681
vt 0.519063 0.228691
vt 0.695268 0.243776
vt 0.390092 0.849952
vt 0.343263 0.731307
vt 0.314292 0.321065
vt 0.314292 0.43971
vt 0.189217 0.228691
vt 0.314292 0.228691
vt 0.695931 0.147005
vt 0.695931 0.228858
vt 0.519082 0.228858
vt 0.519082 0.147005
vt 0.167058 0.654018
vt 0.343263 0.638933
vt 0.44134 0.084764
vt 0.44134 0.166616
vt 0.348846 0.199145
vt 0.348846 0.052738
vt 0.144134 0.052805
vt 0.144134 0.199212
vt 0.051938 0.148545
vt 0.051938 0.103103
vt 0.140733 0.95947
vt 0.047161 0.95947
vt 0.358494 0.959807
vt 0.263101 0.959807
vt 0.446817 0.55339
vt 0.446817 0.710324
vt 0.385644 0.718758
vt 0.351104 0.570321
vt 0.599225 0.549565
vt 0.503832 0.549565
vt 0.28933 0.502811
vt 0.179092 0.502811
vt 0.315942 0.456499
vt 0.462349 0.456499
vt 0.449974 0.524357
vt 0.328318 0.524357
vt 0.683234 0.913052
vt 0.572996 0.913052
vt 0.152847 0.50279
vt 0.031191 0.50279
vt 0.54253 0.570321
vt 0.50799 0.718758
vt 0.717192 0.705118
vt 0.717288 0.641797
vt 0.923657 0.641797
vt 0.92356 0.705118
vt 0.717212 0.566809
vt 0.923581 0.566809
vt 0.923388 0.779993
vt 0.71702 0.779993
vt 0.766303 0.395085
vt 0.814408 0.422858
vt 0.766303 0.450655
vt 0.81442 0.367285
vt 0.766303 0.339515
vt 0.718178 0.3673
vt 0.718178 0.42287
vt 0.814268 0.478389
vt 0.893361 0.422884
vt 0.893279 0.478389
vt 0.893376 0.36731
vt 0.893403 0.311711
vt 0.814393 0.311711
vt 0.893397 0.25617
vt 0.814387 0.25617
vt 0.814183 0.533944
vt 0.893194 0.533944
vt 0.941409 0.395175
vt 0.941409 0.450745
vt 0.941409 0.339605
vt 0.989533 0.36739
vt 0.989533 0.42296
vt 0.909449 0.827465
vt 0.842955 0.860131
vt 0.842915 0.827465
vt 0.909489 0.860131
vt 0.842969 0.892753
vt 0.909503 0.892753
vt 0.842959 0.925305
vt 0.909492 0.925305
vt 0.842994 0.957897
vt 0.909528 0.957897
vt 0.909471 0.794765
vt 0.842937 0.794765
vt 0.751653 0.155925
vt 0.75226 0.124037
vt 0.807134 0.1237
vt 0.799704 0.154247
vt 0.752838 0.091871
vt 0.805169 0.09358
vt 0.752193 0.061318
vt 0.795663 0.062896
vt 0.751994 0.216534
vt 0.750932 0.186157
vt 0.792175 0.184576
vt 0.793243 0.215107
vt 0.856834 0.126054
vt 0.83777 0.156674
vt 0.847271 0.091241
vt 0.831561 0.063912
vt 0.813475 0.184362
vt 0.896374 0.125852
vt 0.873323 0.166727
vt 0.885035 0.087219
vt 0.858591 0.05606
vt 0.840005 0.191589
vt 0.704385 0.065131
vt 0.734826 0.065131
vt 0.750046 0.091494
vt 0.734826 0.117856
vt 0.704385 0.117856
vt 0.689164 0.091494
vt 0.751653 0.155925
vt 0.807134 0.1237
vt 0.75226 0.124037
vt 0.799704 0.154247
vt 0.805169 0.09358
vt 0.752838 0.091871
vt 0.795663 0.062896
vt 0.752193 0.061318
vt 0.751994 0.216534
vt 0.792175 0.184576
vt 0.750932 0.186157
vt 0.793243 0.215107
vt 0.856834 0.126054
vt 0.83777 0.156674
vt 0.847271 0.091241
vt 0.831561 0.063912
vt 0.813475 0.184362
vt 0.896374 0.125852
vt 0.873323 0.166727
vt 0.885035 0.087219
vt 0.858591 0.05606
vt 0.840005 0.191589
vt 0.704385 0.065131
vt 0.750046 0.091494
vt 0.734826 0.065131
vt 0.704385 0.117856
vt 0.734826 0.117856
vt 0.689164 0.091494
vn 0.877508 0.479563 0
vn 0.877508 0.479563 -0
vn 0 1 0
vn 0 1 0
vn -0 0.251345 0.967898
vn -0.877508 0.479563 0
vn 0 -0.214575 0.976708
vn 0 -0.214575 0.976708
vn 0.981306 -0.192453 0
vn 1 0 0
vn 0.877508 0.479563 0
vn 0.981306 -0.192453 0
vn 0 0 -1
vn 0.944029 0.329863 0
vn 0.972283 -0.233808 0
vn -0 -0.658194 -0.752849
vn -0.972283 -0.233808 0
vn -1 0 0
vn -0.922765 0.385364 0
vn -0.972283 -0.233808 -0
vn -0 0.251345 0.967898
vn 0 0.251345 0.967898
vn 0 0 -1
vn 0 0 -1
vn -0.943653 0.329732 -0.028228
vn -0.922765 0.385364 0
vn 0.972283 -0.233808 0
vn 0.944029 0.329863 0
vn -1 0 0
vn -0.981306 -0.192453 -0
vn -0.877508 0.479563 0
vn -0.877508 0.479563 0
vn 0 0.996356 -0.085298
vn 0 0.996356 -0.085298
vn 0 0.996356 -0.085298
vn 0 0.996356 -0.085298
vn 0.922263 0.385154 -0.032973
vn 0.944029 0.329863 0
vn 0 -0 1
vn 0 0 1
vn 0 1 -0
vn -0 1 0
vn -0 1 0
vn -0 1 0
vn 0 0 -1
vn 0 0 -1
vn -0 -0.658194 -0.752849
vn -0 -0.658194 -0.752849
vn 0.972283 -0.233808 0
vn 0.972283 -0.233808 0
vn -0.310172 -0.383336 0.869969
vn -0.310172 -0.383336 0.869969
vn 0.39121 -0.340056 0.855171
vn 0.39121 -0.340056 0.855171
vn -0.972283 -0.233808 0
vn -0.972283 -0.233808 0
vn -0.981306 -0.192453 0
vn -0.981306 -0.192453 0
vn -0 -0.367857 -0.929883
vn 0 -0.367857 -0.929883
vn -0 -0.367857 -0.929883
vn -0 -0.367857 -0.929883
vn 0.981306 -0.192453 0
vn 0.981306 -0.192453 0
vn 0 -0.214575 0.976708
vn 0 -0.214575 0.976708
vn -0.39121 -0.340056 0.855171
vn -0.310172 -0.383336 0.869969
vn -0.955486 0.295037 0
vn 0.955486 0.295037 -0
vn 0.955486 0.295037 -0
vn -0.955486 0.295037 0
vn 0.955486 0.295037 -0
vn 0.955486 0.295037 0
vn -0.955486 0.295037 0
vn -0.955486 0.295037 0
vn 0 -0 -1
vn 0 1 -0
vn 0 -0 -1
vn -0.866026 0.5 0
vn -0 0 -1
vn -0 -0 -1
vn 0 -0 -1
vn 0.866026 -0.5 0
vn 0 -0 1
vn 0.866026 -0.5 0
vn 0 0 1
vn -0.866025 -0.5 0
vn -0.866025 -0.5 0
vn -0.866025 -0.5 0
vn -0.866025 -0.5 0
vn 0.866026 -0.5 0
vn 0.866026 -0.5 0
vn -0 0 1
vn -0 0 1
vn 0 0 1
vn -0 0 1
vn -0 0 1
vn 0.866026 -0.5 0
vn 0 1 -0
vn 0.866026 -0.5 0
vn 0 1 -0
vn -0.866026 0.5 0
vn -0.866026 0.5 0
vn -0.866026 -0.5 0
vn -0.866026 -0.5 0
vn -0.866026 -0.5 0
vn -0.866026 -0.5 0
vn 0.866026 -0.5 0
vn 0.866026 -0.5 0
vn 0.818736 0.573286 0.031849
vn -0.904905 0.421963 -0.055628
vn -0.861774 0.401851 0.309616
vn 0.796897 0.591506 -0.122787
vn -0.822473 -0.568107 -0.028154
vn -0.809093 -0.565199 0.160992
vn -0.818737 -0.573285 -0.031849
vn -0.796897 -0.591506 0.122786
vn 0.90381 -0.421453 0.0742
vn 0.823432 0.56616 0.037724
vn 0.872482 0.485826 -0.052422
vn 0.90381 -0.421453 0.0742
vn -0.447934 0.208875 0.869325
vn 0.693176 0.555191 -0.459641
vn -0.599865 -0.639416 0.480946
vn -0.646729 -0.677651 0.350045
vn 0.822229 0.551393 -0.141083
vn -0.447934 0.208875 0.869325
vn 0.693176 0.555191 -0.459641
vn -0.599865 -0.639416 0.480946
vn -0.599865 -0.639416 0.480946
vn 0.693176 0.555191 -0.459641
vn -0 0 -1
vn -0 0 -1
vn 0 0 -1
vn 0 0 -1
vn -0 0 -1
vn -0 0 -1
vn -0.818736 0.573286 0.031849
vn 0.861774 0.401851 0.309616
vn 0.904905 0.421963 -0.055628
vn -0.796896 0.591506 -0.122787
vn 0.809093 -0.565199 0.160992
vn 0.822473 -0.568107 -0.028154
vn 0.796897 -0.591506 0.122786
vn 0.818737 -0.573285 -0.031849
vn -0.90381 -0.421453 0.0742
vn -0.872482 0.485826 -0.052422
vn -0.823432 0.56616 0.037724
vn -0.90381 -0.421453 0.0742
vn 0.447934 0.208875 0.869325
vn -0.693176 0.555191 -0.459641
vn 0.599865 -0.639416 0.480946
vn 0.646729 -0.677651 0.350045
vn -0.822229 0.551393 -0.141083
vn 0.447934 0.208875 0.869325
vn -0.693176 0.555191 -0.459641
vn 0.599865 -0.639416 0.480946
vn 0.599865 -0.639416 0.480946
vn -0.693176 0.555191 -0.459641
vn 0 -0 -1
vn 0 0 -1
vn 0 -0 -1
vn 0 -0 -1
vn 0 0 -1
vn 0 -0 -1
usemtl datan_common_no21-body_fa6f5532
f 1/1/1 2/2/2 3/3/3
f 3/3/3 4/4/4 1/1/1
f 5/5/5 6/6/6 7/7/7
f 7/7/7 8/8/8 5/5/5
f 9/9/9 10/10/10 11/11/11
f 11/11/11 12/12/12 9/9/9
f 13/13/13 14/14/14 15/15/15
f 15/15/15 16/16/16 13/13/13
f 17/17/17 18/18/18 19/19/19
f 19/19/19 20/20/20 17/17/17
f 21/21/21 22/22/22 6/6/6
f 6/6/6 5/5/5 21/21/21
f 10/10/10 2/2/2 1/1/1
f 1/1/1 11/11/11 10/10/10
f 23/23/23 24/24/24 14/14/14
f 14/14/14 13/13/13 23/23/23
f 18/18/18 25/25/25 26/26/26
f 26/26/26 19/19/19 18/18/18
f 27/27/27 28/28/28 10/10/10
f 10/10/10 9/9/9 27/27/27
f 7/7/7 6/6/6 29/29/29
f 29/29/29 30/30/30 7/7/7
f 6/6/6 31/31/31 32/32/32
f 32/32/32 29/29/29 6/6/6
f 30/30/30 29/29/29 18/18/18
f 18/18/18 17/17/17 30/30/30
f 33/33/33 34/34/34 35/35/35
f 35/35/35 36/36/36 33/33/33
f 15/15/15 14/14/14 28/28/28
f 28/28/28 27/27/27 15/15/15
f 14/14/14 37/37/37 38/38/38
f 38/38/38 28/28/28 14/14/14
f 39/39/39 40/40/40 41/41/41
f 41/41/41 42/42/42 39/39/39
f 43/43/43 44/44/44 45/45/45
f 45/45/45 46/46/46 43/43/43
f 42/42/42 41/41/41 44/44/44
f 44/44/44 43/43/43 42/42/42
f 16/16/16 15/15/15 47/47/47
f 47/47/47 48/48/48 16/16/16
f 15/15/15 27/27/27 49/49/49
f 49/49/49 50/50/50 15/15/15
f 51/51/51 52/52/52 53/53/53
f 53/53/53 54/54/54 51/51/51
f 17/17/17 20/20/20 55/55/55
f 55/55/55 56/56/56 17/17/17
f 7/7/7 30/30/30 57/57/57
f 57/57/57 58/58/58 7/7/7
f 59/59/59 60/60/60 61/61/61
f 61/61/61 62/62/62 59/59/59
f 9/9/9 12/12/12 63/63/63
f 63/63/63 64/64/64 9/9/9
f 8/8/8 7/7/7 65/65/65
f 65/65/65 66/66/66 8/8/8
f 51/51/51 67/67/67 68/68/68
f 68/68/68 52/52/52 51/51/51
f 69/69/69 70/70/70 71/71/71
f 71/71/71 72/72/72 69/69/69
f 73/73/73 74/74/74 71/71/71
f 71/71/71 70/70/70 73/73/73
f 75/75/75 76/76/76 69/69/69
f 69/69/69 72/72/72 75/75/75
f 77/77/77 78/78/78 79/79/79
f 77/77/77 80/80/80 78/78/78
f 77/77/77 81/81/81 80/80/80
f 77/77/77 82/82/82 81/81/81
f 77/77/77 83/83/83 82/82/82
f 77/77/77 79/79/79 83/83/83
f 84/84/84 85/85/85 86/86/86
f 84/84/84 78/78/78 85/85/85
f 78/78/78 87/87/87 85/85/85
f 78/78/78 80/80/80 87/87/87
f 80/80/80 88/88/88 87/87/87
f 80/80/80 89/89/89 88/88/88
f 89/89/89 90/90/90 88/88/88
f 89/89/89 91/91/91 90/90/90
f 92/92/92 86/86/86 93/93/93
f 92/92/92 84/84/84 86/86/86
f 94/94/94 95/95/95 85/85/85
f 94/94/94 85/85/85 87/87/87
f 94/94/94 87/87/87 96/96/96
f 94/94/94 96/96/96 97/97/97
f 94/94/94 97/97/97 98/98/98
f 94/94/94 98/98/98 95/95/95
f 99/99/99 100/100/100 101/101/101
f 99/99/99 102/102/102 100/100/100
f 102/102/102 103/103/103 100/100/100
f 102/102/102 104/104/104 103/103/103
f 104/104/104 105/105/105 103/103/103
f 104/104/104 106/106/106 105/105/105
f 106/106/106 107/107/107 105/105/105
f 106/106/106 108/108/108 107/107/107
f 109/109/109 101/101/101 110/110/110
f 109/109/109 99/99/99 101/101/101
f 111/111/111 112/112/112 113/113/113
f 113/113/113 114/114/114 111/111/111
f 112/112/112 115/115/115 116/116/116
f 116/116/116 113/113/113 112/112/112
f 115/115/115 117/117/117 118/118/118
f 118/118/118 116/116/116 115/115/115
f 119/119/119 120/120/120 121/121/121
f 121/121/121 122/122/122 119/119/119
f 120/120/120 111/111/111 114/114/114
f 114/114/114 121/121/121 120/120/120
f 114/114/114 113/113/113 123/123/123
f 123/123/123 124/124/124 114/114/114
f 113/113/113 116/116/116 125/125/125
f 125/125/125 123/123/123 113/113/113
f 116/116/116 118/118/118 126/126/126
f 126/126/126 125/125/125 116/116/116
f 121/121/121 114/114/114 124/124/124
f 124/124/124 127/127/127 121/121/121
f 124/124/124 123/123/123 128/128/128
f 128/128/128 129/129/129 124/124/124
f 123/123/123 125/125/125 130/130/130
f 130/130/130 128/128/128 123/123/123
f 125/125/125 126/126/126 131/131/131
f 131/131/131 130/130/130 125/125/125
f 132/132/132 127/127/127 124/124/124
f 124/124/124 129/129/129 132/132/132
f 133/133/133 134/134/134 135/135/135
f 135/135/135 136/136/136 137/137/137
f 133/133/133 135/135/135 137/137/137
f 138/138/138 133/133/133 137/137/137
f 139/139/139 140/140/140 141/141/141
f 140/140/140 139/139/139 142/142/142
f 141/141/141 143/143/143 144/144/144
f 143/143/143 141/141/141 140/140/140
f 144/144/144 145/145/145 146/146/146
f 145/145/145 144/144/144 143/143/143
f 147/147/147 148/148/148 149/149/149
f 148/148/148 147/147/147 150/150/150
f 149/149/149 142/142/142 139/139/139
f 142/142/142 149/149/149 148/148/148
f 142/142/142 151/151/151 140/140/140
f 151/151/151 142/142/142 152/152/152
f 140/140/140 153/153/153 143/143/143
f 153/153/153 140/140/140 151/151/151
f 143/143/143 154/154/154 145/145/145
f 154/154/154 143/143/143 153/153/153
f 148/148/148 152/152/152 142/142/142
f 152/152/152 148/148/148 155/155/155
f 152/152/152 156/156/156 151/151/151
f 156/156/156 152/152/152 157/157/157
f 151/151/151 158/158/158 153/153/153
f 158/158/158 151/151/151 156/156/156
f 153/153/153 159/159/159 154/154/154
f 159/159/159 153/153/153 158/158/158
f 160/160/160 152/152/152 155/155/155
f 152/152/152 160/160/160 157/157/157
f 161/161/161 162/162/162 163/163/163
f 162/162/162 164/164/164 165/165/165
f 161/161/161 164/164/164 162/162/162
f 166/166/166 164/164/164 161/161/161
o datan_common_no21-body_fa6f5532_mesh01
v 1 -1 -0
v 1 1 0
v -1 -1 -0
v -1 1 0
vt 0.00582 0.49418
vt 0.00582 0.00582
vt 0.49418 0.49418
vt 0.49418 0.00582
vn 0 0 -1
vn 0 0 -1
vn 0 0 -1
vn 0 0 -1
usemtl datan_common_no21-body_fa6f5532
f 167/167/167 168/168/168 169/169/169
f 170/170/170 169/169/169 168/168/168
f 168/168/168 167/167/167 169/169/169
f 169/169/169 170/170/170 168/168/168
o datan_common_no21-body_fa6f5532_mesh02
v 0 0 1.519176
v -0 1.414213 0.104963
v 0 -1.414213 0.104963
v -0 -0 -1.30925
v 0.000001 -0 1.519176
v 1.414213 0 0.104963
v -1.414213 -0 0.104964
v -0.000001 0 -1.30925
vt 0.50582 0.49418
vt 0.50582 0.00582
vt 0.99418 0.49418
vt 0.99418 0.00582
vt 0.50582 0.49418
vt 0.50582 0.00582
vt 0.99418 0.49418
vt 0.99418 0.00582
vn 1 0 -0
vn 1 0 -0
vn 1 0 -0
vn 1 0 -0
vn 0 -1 -0
vn 0 -1 -0
vn 0 -1 -0
vn 0 -1 -0
usemtl datan_common_no21-body_fa6f5532
f 171/171/171 172/172/172 173/173/173
f 174/174/174 173/173/173 172/172/172
f 171/171/171 173/173/173 172/172/172
f 174/174/174 172/172/172 173/173/173
f 175/175/175 176/176/176 177/177/177
f 178/178/178 177/177/177 176/176/176
f 175/175/175 177/177/177 176/176/176
f 178/178/178 176/176/176 177/177/177
o datan_common_no21-body_fa6f5532_mesh03
v -1 1 0
v -1 -1 -0
v 1 1 0
v 1 -1 -0
vt 0.00582 0.49418
vt 0.00582 0.00582
vt 0.49418 0.49418
vt 0.49418 0.00582
vn 0 0 -1
vn 0 0 -1
vn 0 0 -1
vn 0 0 -1
usemtl datan_common_no21-body_fa6f5532
f 179/179/179 180/180/180 181/181/181
f 182/182/182 181/181/181 180/180/180
f 180/180/180 179/179/179 181/181/181
f 181/181/181 182/182/182 180/180/180
