# Generated from Nova1492 GX by tools/nova1492/GxObjConverter
mtllib datan_common_sp_black_bf8ebafc.mtl
o datan_common_sp_black_bf8ebafc_mesh00
v -0 -0.000993 0.372539
v -0 0.531884 0.121449
v -0.483553 0.273665 0.167062
v -0.616684 -0.000993 0.200741
v -0.721061 -0.275651 0.165991
v 0 -0.460684 0.34841
v 0.721061 -0.275651 0.165991
v 0.616684 -0.000993 0.200741
v 0.483553 0.273665 0.167062
v -0 0.692775 -0
v -0.683847 0.387432 -0
v -0.872122 -0.000993 -0
v -1.019734 -0.389419 -0
v 0 -0.621575 -0
v 1.019734 -0.389419 -0
v 0.872122 -0.000993 -0
v 0.683846 0.387432 -0
v -0 0.531884 -0.137826
v -0.483553 0.273665 -0.18344
v -0.616683 -0.000993 -0.187495
v -0.721061 -0.275651 -0.165991
v 0 -0.460684 -0.34841
v 0.721061 -0.275651 -0.165991
v 0.616684 -0.000993 -0.207095
v 0.483552 0.273665 -0.18344
v -0 -0.000993 -0.372539
vt 0.5 0.526046
vt 0.5 0.183602
vt 0.712862 0.257296
vt 0.810981 0.43794
vt 0.823832 0.633268
vt 0.5 0.833076
vt 0.234906 0.618584
vt 0.189019 0.457519
vt 0.287138 0.267086
vt 0.5 0.055829
vt 0.78684 0.194636
vt 0.895537 0.388993
vt 0.940763 0.671455
vt 0.5 0.965744
vt 0.10329 0.646981
vt 0.075094 0.442835
vt 0.198475 0.194636
vt 0.5 0.183602
vt 0.712862 0.257296
vt 0.810981 0.43794
vt 0.823831 0.633268
vt 0.5 0.833076
vt 0.234906 0.618584
vt 0.189019 0.457519
vt 0.287138 0.267086
vt 0.5 0.526046
vn -0 0.160337 0.987062
vn -0.007026 0.544852 0.838503
vn -0.327335 0.420563 0.846155
vn -0.429437 0.188644 0.883175
vn -0.352694 -0.294104 0.888318
vn -0.030204 -0.561399 0.826994
vn 0.417052 -0.114579 0.901632
vn 0.430311 0.160986 0.88821
vn 0.309379 0.422443 0.851955
vn -0.00141 0.999682 0.025193
vn -0.720235 0.693372 0.022292
vn -0.921555 0.387612 -0.022231
vn -0.904834 -0.425649 0.009913
vn 0 -1 -0
vn 0.904077 -0.42729 -0.008221
vn 0.925852 0.377282 0.021352
vn 0.711644 0.702515 0.006025
vn 0.004461 0.568771 -0.822484
vn -0.340547 0.397235 -0.852193
vn -0.438828 0.158549 -0.884473
vn -0.413869 -0.103466 -0.904437
vn 0.030204 -0.561398 -0.826994
vn 0.347788 -0.305189 -0.886512
vn 0.432499 0.166569 -0.886115
vn 0.337982 0.419201 -0.842638
vn -0.004083 0.144194 -0.989541
usemtl datan_common_sp_black_bf8ebafc
f 1/1/1 2/2/2 3/3/3
f 1/1/1 3/3/3 4/4/4
f 1/1/1 4/4/4 5/5/5
f 1/1/1 5/5/5 6/6/6
f 1/1/1 6/6/6 7/7/7
f 1/1/1 7/7/7 8/8/8
f 1/1/1 8/8/8 9/9/9
f 1/1/1 9/9/9 2/2/2
f 2/2/2 10/10/10 11/11/11
f 2/2/2 11/11/11 3/3/3
f 3/3/3 11/11/11 12/12/12
f 3/3/3 12/12/12 4/4/4
f 4/4/4 12/12/12 13/13/13
f 4/4/4 13/13/13 5/5/5
f 5/5/5 13/13/13 14/14/14
f 5/5/5 14/14/14 6/6/6
f 6/6/6 14/14/14 15/15/15
f 6/6/6 15/15/15 7/7/7
f 7/7/7 15/15/15 16/16/16
f 7/7/7 16/16/16 8/8/8
f 8/8/8 16/16/16 17/17/17
f 8/8/8 17/17/17 9/9/9
f 9/9/9 17/17/17 10/10/10
f 9/9/9 10/10/10 2/2/2
f 10/10/10 18/18/18 19/19/19
f 10/10/10 19/19/19 11/11/11
f 11/11/11 19/19/19 20/20/20
f 11/11/11 20/20/20 12/12/12
f 12/12/12 20/20/20 21/21/21
f 12/12/12 21/21/21 13/13/13
f 13/13/13 21/21/21 22/22/22
f 13/13/13 22/22/22 14/14/14
f 14/14/14 22/22/22 23/23/23
f 14/14/14 23/23/23 15/15/15
f 15/15/15 23/23/23 24/24/24
f 15/15/15 24/24/24 16/16/16
f 16/16/16 24/24/24 25/25/25
f 16/16/16 25/25/25 17/17/17
f 17/17/17 25/25/25 18/18/18
f 17/17/17 18/18/18 10/10/10
f 26/26/26 19/19/19 18/18/18
f 26/26/26 20/20/20 19/19/19
f 26/26/26 21/21/21 20/20/20
f 26/26/26 22/22/22 21/21/21
f 26/26/26 23/23/23 22/22/22
f 26/26/26 24/24/24 23/23/23
f 26/26/26 25/25/25 24/24/24
f 26/26/26 18/18/18 25/25/25
o datan_common_sp_black_bf8ebafc_mesh01
v -2.422749 -2.422749 -0
v 2.422749 -2.422749 -0
v 2.422749 2.422749 -0
v -2.422749 2.422749 -0
v 2.422749 -2.422749 -0
v -2.422749 -2.422749 -0
v -2.422749 2.422749 -0
v 2.422749 2.422749 -0
v -2.422749 0 -2.422749
v 2.422749 0 -2.422749
v 2.422749 -0 2.422749
v -2.422749 -0 2.422749
v 2.422749 0 -2.422749
v -2.422749 0 -2.422749
v -2.422749 -0 2.422749
v 2.422749 -0 2.422749
v 0 -2.422749 -2.422749
v 0 2.422749 -2.422749
v 0 2.422749 2.422749
v 0 -2.422749 2.422749
v 0 2.422749 -2.422749
v 0 -2.422749 -2.422749
v 0 -2.422749 2.422749
v 0 2.422749 2.422749
vt 0.0005 0.0005
vt 0.999501 0.0005
vt 0.999501 0.999501
vt 0.0005 0.999501
vt 0.999501 0.0005
vt 0.0005 0.0005
vt 0.0005 0.999501
vt 0.999501 0.999501
vt 0.0005 0.0005
vt 0.999501 0.0005
vt 0.999501 0.999501
vt 0.0005 0.999501
vt 0.999501 0.0005
vt 0.0005 0.0005
vt 0.0005 0.999501
vt 0.999501 0.999501
vt 0.0005 0.0005
vt 0.999501 0.0005
vt 0.999501 0.999501
vt 0.0005 0.999501
vt 0.999501 0.0005
vt 0.0005 0.0005
vt 0.0005 0.999501
vt 0.999501 0.999501
vn 0 0 1
vn 0 0 1
vn 0 0 1
vn 0 0 1
vn 0 0 -1
vn 0 0 -1
vn 0 0 -1
vn 0 0 -1
vn 0 -1 -0
vn 0 -1 -0
vn 0 -1 -0
vn 0 -1 -0
vn 0 1 0
vn 0 1 0
vn 0 1 0
vn 0 1 0
vn 1 0 -0
vn 1 0 -0
vn 1 0 -0
vn 1 0 -0
vn -1 0 -0
vn -1 0 -0
vn -1 0 -0
vn -1 0 -0
usemtl datan_common_sp_black_bf8ebafc
f 27/27/27 28/28/28 29/29/29
f 29/29/29 30/30/30 27/27/27
f 31/31/31 32/32/32 33/33/33
f 33/33/33 34/34/34 31/31/31
f 35/35/35 36/36/36 37/37/37
f 37/37/37 38/38/38 35/35/35
f 39/39/39 40/40/40 41/41/41
f 41/41/41 42/42/42 39/39/39
f 43/43/43 44/44/44 45/45/45
f 45/45/45 46/46/46 43/43/43
f 47/47/47 48/48/48 49/49/49
f 49/49/49 50/50/50 47/47/47
