# Generated from Nova1492 GX by tools/nova1492/GxObjConverter
mtllib datan_common_Hp240_b7ff84a3.mtl
o datan_common_Hp240_b7ff84a3_mesh00
v 0.34677 0 0.300466
v -0.34677 0 0.300466
v 0.262705 -0.17916 0.147073
v -0.262705 -0.17916 0.147073
v 0.475075 0 0
v 0.262705 -0.17916 0.147073
v 0.328359 -0.17916 -0
v -0.34677 0 -0.300466
v 0.34677 0 -0.300466
v -0.262705 -0.17916 -0.147073
v 0.262705 -0.17916 -0.147073
v -0.262705 -0.17916 -0.147073
v -0.328182 -0.17916 -0
v -0.475075 0 0
v 0.34677 0 -0.300466
v 0.262705 -0.17916 -0.147073
v 0.34677 0 0.300466
v -0.34677 0 0.300466
v -0.262705 -0.17916 0.147073
v -0.34677 0 -0.300466
v 0.34677 0 0.300466
v 0.475075 0 0
v 0.34677 0 -0.300466
v -0.34677 0 -0.300466
v -0.475075 0 0
v -0.34677 0 0.300466
vt 0.864599 0.999501
vt 0.135401 0.999501
vt 0.776211 0.0005
vt 0.223789 0.0005
vt 0.999501 0.9995
vt 0.776211 0.0005
vt 0.845241 0.000499
vt 0.135401 0.9995
vt 0.864599 0.9995
vt 0.223789 0.000499
vt 0.776211 0.000499
vt 0.223789 0.000499
vt 0.154944 0.000499
vt 0.0005 0.9995
vt 0.864599 0.9995
vt 0.776211 0.000499
vt 0.864599 0.999501
vt 0.135401 0.999501
vt 0.223789 0.0005
vt 0.135401 0.9995
vt 0.864599 0.999501
vt 0.999501 0.9995
vt 0.864599 0.9995
vt 0.135401 0.9995
vt 0.0005 0.9995
vt 0.135401 0.999501
vn 0 -0.650369 0.759619
vn 0 -0.650369 0.759619
vn 0 -0.650369 0.759619
vn -0 -0.650369 0.759619
vn 0.770021 -0.638018 0
vn 0.730214 -0.605012 0.317408
vn 0.77368 -0.633577 -0
vn 0 -0.650369 -0.759619
vn 0 -0.650369 -0.759619
vn 0 -0.650369 -0.759619
vn 0 -0.650369 -0.759619
vn -0.730169 -0.605256 -0.317045
vn -0.773307 -0.634032 -0
vn -0.769874 -0.638196 0
vn 0.729465 -0.608976 -0.311496
vn 0.730214 -0.605012 -0.317408
vn 0.729464 -0.608976 0.311496
vn -0.729464 -0.608976 0.311496
vn -0.730169 -0.605256 0.317045
vn -0.729465 -0.608976 -0.311496
vn 0 1 -0
vn 0 1 -0
vn 0 1 -0
vn 0 1 -0
vn 0 1 -0
vn 0 1 -0
usemtl datan_common_Hp240_b7ff84a3
f 1/1/1 2/2/2 3/3/3
f 4/4/4 3/3/3 2/2/2
f 5/5/5 6/6/6 7/7/7
f 8/8/8 9/9/9 10/10/10
f 11/11/11 10/10/10 9/9/9
f 12/12/12 13/13/13 14/14/14
f 15/15/15 5/5/5 16/16/16
f 6/6/6 5/5/5 17/17/17
f 18/18/18 14/14/14 19/19/19
f 12/12/12 14/14/14 20/20/20
f 13/13/13 19/19/19 14/14/14
f 5/5/5 7/7/7 16/16/16
f 21/21/21 22/22/22 23/23/23
f 21/21/21 23/23/23 24/24/24
f 21/21/21 24/24/24 25/25/25
f 21/21/21 25/25/25 26/26/26
o datan_common_Hp240_b7ff84a3_mesh01
v -0.236409 0.341685 0.115364
v 0.236409 0.341685 0.115364
v 0.236409 0.341685 -0.115364
v -0.236409 0.341685 -0.115364
v -0.300239 0.021363 0.242264
v 0.300239 0.021363 0.242264
v 0.236409 0.341685 0.115364
v -0.236409 0.341685 0.115364
v 0.300239 0.021363 -0.242264
v -0.300239 0.021363 -0.242264
v -0.236409 0.341685 -0.115364
v 0.236409 0.341685 -0.115364
vt 0.106693 0.262143
vt 0.893307 0.262143
vt 0.893307 0.737857
vt 0.106693 0.737857
vt 0.0005 0.0005
vt 0.9995 0.000499
vt 0.893307 0.262143
vt 0.106693 0.262143
vt 0.999501 0.9995
vt 0.0005 0.999501
vt 0.106693 0.737857
vt 0.893307 0.737857
vn 0 1 -0
vn 0 1 0
vn 0 1 -0
vn -0 1 -0
vn 0 0.368315 0.929701
vn 0 0.368315 0.929701
vn 0 0.368315 0.929701
vn 0 0.368315 0.929701
vn 0 0.368315 -0.929701
vn -0 0.368315 -0.929701
vn 0 0.368315 -0.929701
vn 0 0.368315 -0.929701
usemtl datan_common_Hp240_b7ff84a3
f 27/27/27 28/28/28 29/29/29
f 29/29/29 30/30/30 27/27/27
f 31/31/31 32/32/32 33/33/33
f 33/33/33 34/34/34 31/31/31
f 35/35/35 36/36/36 37/37/37
f 37/37/37 38/38/38 35/35/35
o datan_common_Hp240_b7ff84a3_mesh02
v 0.262705 0.364934 0.147073
v 0.475075 -0 0
v 0.262705 0.364934 -0.147073
v -0.262705 0.364934 0.147073
v -0.262705 0.364934 -0.147073
v -0.475075 -0 0
v -0.262705 0.364934 -0.147073
v 0.262705 0.364934 0.147073
v 0.262705 0.364934 -0.147073
v -0.262705 0.364934 0.147073
v 0.34677 -0 -0.300466
v -0.34677 -0 -0.300466
v -0.262705 0.364934 -0.147073
v 0.262705 0.364934 -0.147073
v 0.475075 -0 0
v 0.34677 -0 -0.300466
v 0.262705 0.364934 -0.147073
v -0.475075 -0 0
v -0.262705 0.364934 -0.147073
v -0.34677 -0 -0.300466
v -0.34677 -0 0.300466
v 0.34677 -0 0.300466
v 0.262705 0.364934 0.147073
v -0.262705 0.364934 0.147073
v 0.475075 -0 0
v 0.262705 0.364934 0.147073
v 0.34677 -0 0.300466
v -0.475075 -0 0
v -0.34677 -0 0.300466
v -0.262705 0.364934 0.147073
vt 0.776211 0.255502
vt 0.999501 0.5
vt 0.776211 0.744498
vt 0.223789 0.255502
vt 0.223789 0.744498
vt 0.0005 0.5
vt 0.223789 0.744498
vt 0.776211 0.255502
vt 0.776211 0.744498
vt 0.223789 0.255502
vt 0.864599 0.9995
vt 0.135401 0.999501
vt 0.223789 0.744498
vt 0.776211 0.744498
vt 0.999501 0.5
vt 0.864599 0.9995
vt 0.776211 0.744498
vt 0.0005 0.5
vt 0.223789 0.744498
vt 0.135401 0.999501
vt 0.135401 0.0005
vt 0.864599 0.000499
vt 0.776211 0.255502
vt 0.223789 0.255502
vt 0.999501 0.5
vt 0.776211 0.255502
vt 0.864599 0.000499
vt 0.0005 0.5
vt 0.135401 0.0005
vt 0.223789 0.255502
vn 0.864302 0.502973 -0
vn 0.864302 0.502973 -0
vn 0.864302 0.502973 -0
vn -0.864302 0.502973 -0
vn -0.864302 0.502973 -0
vn -0.864302 0.502973 -0
vn 0 1 -0
vn 0 1 -0
vn 0 1 0
vn 0 1 -0
vn 0 0.38749 -0.921874
vn -0 0.38749 -0.921874
vn 0 0.38749 -0.921874
vn 0 0.38749 -0.921874
vn 0.860561 0.352698 -0.367477
vn 0.860561 0.352698 -0.367477
vn 0.860561 0.352698 -0.367477
vn -0.860561 0.352698 -0.367477
vn -0.860561 0.352698 -0.367477
vn -0.860561 0.352698 -0.367477
vn 0 0.38749 0.921874
vn 0 0.38749 0.921874
vn 0 0.38749 0.921874
vn 0 0.38749 0.921874
vn 0.860561 0.352698 0.367477
vn 0.860561 0.352698 0.367477
vn 0.860561 0.352698 0.367477
vn -0.860561 0.352698 0.367477
vn -0.860561 0.352698 0.367477
vn -0.860561 0.352698 0.367477
usemtl datan_common_Hp240_b7ff84a3
f 39/39/39 40/40/40 41/41/41
f 42/42/42 43/43/43 44/44/44
f 45/45/45 46/46/46 47/47/47
f 48/48/48 46/46/46 45/45/45
f 49/49/49 50/50/50 51/51/51
f 51/51/51 52/52/52 49/49/49
f 53/53/53 54/54/54 55/55/55
f 56/56/56 57/57/57 58/58/58
f 59/59/59 60/60/60 61/61/61
f 61/61/61 62/62/62 59/59/59
f 63/63/63 64/64/64 65/65/65
f 66/66/66 67/67/67 68/68/68
o datan_common_Hp240_b7ff84a3_mesh03
v -0.300239 -0.015318 0.216307
v -0.300239 -0.015318 -0.216307
v 0.300238 -0.015318 -0.216307
v 0.300238 -0.015318 0.216307
v -0.236409 0.305003 0.103004
v 0.236408 0.305003 0.103004
v 0.236408 0.305003 -0.103004
v -0.236409 0.305003 -0.103004
v -0.300239 -0.015318 0.216307
v 0.300238 -0.015318 0.216307
v 0.236408 0.305003 0.103004
v -0.236409 0.305003 0.103004
v 0.300238 -0.015318 0.216307
v 0.300238 -0.015318 -0.216307
v 0.236408 0.305003 -0.103004
v 0.236408 0.305003 0.103004
v 0.300238 -0.015318 -0.216307
v -0.300239 -0.015318 -0.216307
v -0.236409 0.305003 -0.103004
v 0.236408 0.305003 -0.103004
v -0.300239 -0.015318 -0.216307
v -0.300239 -0.015318 0.216307
v -0.236409 0.305003 0.103004
v -0.236409 0.305003 -0.103004
vt 0.0005 0.0005
vt 0.0005 0.999501
vt 0.999501 0.9995
vt 0.9995 0.000499
vt 0.106693 0.262143
vt 0.893307 0.262143
vt 0.893307 0.737857
vt 0.106693 0.737857
vt 0.0005 0.0005
vt 0.9995 0.000499
vt 0.893307 0.262143
vt 0.106693 0.262143
vt 0.9995 0.000499
vt 0.999501 0.9995
vt 0.893307 0.737857
vt 0.893307 0.262143
vt 0.999501 0.9995
vt 0.0005 0.999501
vt 0.106693 0.737857
vt 0.893307 0.737857
vt 0.0005 0.999501
vt 0.0005 0.0005
vt 0.106693 0.262143
vt 0.106693 0.737857
vn 0 -1 -0
vn 0 -1 -0
vn 0 -1 -0
vn 0 -1 -0
vn 0 1 -0
vn 0 1 0
vn 0 1 -0
vn -0 1 -0
vn 0 0.333472 0.94276
vn 0 0.333472 0.94276
vn 0 0.333472 0.94276
vn 0 0.333472 0.94276
vn 0.980718 0.195427 -0
vn 0.980718 0.195427 -0
vn 0.980718 0.195427 -0
vn 0.980718 0.195427 0
vn 0 0.333472 -0.94276
vn -0 0.333472 -0.94276
vn 0 0.333472 -0.94276
vn 0 0.333472 -0.94276
vn -0.980718 0.195427 -0
vn -0.980718 0.195427 -0
vn -0.980718 0.195427 -0
vn -0.980718 0.195427 -0
usemtl datan_common_Hp240_b7ff84a3
f 69/69/69 70/70/70 71/71/71
f 71/71/71 72/72/72 69/69/69
f 73/73/73 74/74/74 75/75/75
f 75/75/75 76/76/76 73/73/73
f 77/77/77 78/78/78 79/79/79
f 79/79/79 80/80/80 77/77/77
f 81/81/81 82/82/82 83/83/83
f 83/83/83 84/84/84 81/81/81
f 85/85/85 86/86/86 87/87/87
f 87/87/87 88/88/88 85/85/85
f 89/89/89 90/90/90 91/91/91
f 91/91/91 92/92/92 89/89/89
