# Generated from Nova1492 GX by tools/nova1492/GxObjConverter
mtllib datan_common_guild1_53eb6817.mtl
o datan_common_guild1_53eb6817_mesh00
v -0.016775 0 0.016775
v -0.016775 0 -0.016775
v 0.016775 0 -0.016775
v 0.016775 0 0.016775
v -0.016775 1.342 0.016775
v 0.016775 1.342 0.016775
v 0.016775 1.342 -0.016775
v -0.016775 1.342 -0.016775
v -0.016775 0 0.016775
v 0.016775 0 0.016775
v 0.016775 1.342 0.016775
v -0.016775 1.342 0.016775
v 0.016775 0 -0.016775
v 0.016775 1.342 0.016775
v 0.016775 0 -0.016775
v -0.016775 0 -0.016775
v -0.016775 1.342 -0.016775
v 0.016775 1.342 -0.016775
v -0.016775 0 -0.016775
v -0.016775 1.342 0.016775
v -0.081784 -0.057424 0.097851
v -0.081784 -0.057424 -0.076803
v 0.083609 -0.057424 -0.076803
v 0.083609 -0.057424 0.097851
v -0.062215 0.002633 0.077186
v 0.064039 0.002633 0.077186
v 0.064039 0.002633 -0.056137
v -0.062215 0.002633 -0.056137
v -0.081784 -0.057424 0.097851
v 0.083609 -0.057424 0.097851
v 0.064039 0.002633 0.077186
v -0.062215 0.002633 0.077186
v 0.083609 -0.057424 -0.076803
v 0.064039 0.002633 -0.056137
v 0.064039 0.002633 0.077186
v 0.083609 -0.057424 -0.076803
v -0.081784 -0.057424 -0.076803
v -0.062215 0.002633 -0.056137
v -0.081784 -0.057424 -0.076803
v -0.081784 -0.057424 0.097851
vt 0.476719 0.023281
vt 0.476719 0.476719
vt 0.023281 0.476719
vt 0.023281 0.023281
vt 0.023281 0.023281
vt 0.476719 0.023281
vt 0.476719 0.476719
vt 0.023281 0.476719
vt 0.023281 0.023281
vt 0.476719 0.023281
vt 0.476719 0.476719
vt 0.023281 0.476719
vt 0.476719 0.023281
vt 0.023281 0.476719
vt 0.023281 0.023281
vt 0.476719 0.023281
vt 0.476719 0.476719
vt 0.023281 0.476719
vt 0.023281 0.023281
vt 0.476719 0.476719
vt 0.023516 0.015859
vt 0.476484 0.015859
vt 0.476484 0.015859
vt 0.023516 0.023516
vt 0.023516 0.484141
vt 0.023516 0.484141
vt 0.476484 0.484141
vt 0.476484 0.476484
vt 0.015859 0.023516
vt 0.015859 0.023516
vt 0.015859 0.476485
vt 0.023516 0.476485
vt 0.476484 0.023515
vt 0.476484 0.476484
vt 0.023516 0.476485
vt 0.484141 0.023515
vt 0.484141 0.023515
vt 0.484141 0.476484
vt 0.476484 0.023515
vt 0.023516 0.023516
vn -0.447214 -0.894427 0
vn 0 -1 0
vn 0 -1 0
vn 0.894427 -0.447214 0
vn 0 1 0
vn 0 1 0
vn 0.707107 0.707107 0
vn -0.707107 0.707107 0
vn 0 0 1
vn 0 0 1
vn 0 0 1
vn 0 0 1
vn 1 0 0
vn 1 0 0
vn 0 0 -1
vn 0 0 -1
vn 0 0 -1
vn 0 0 -1
vn -1 0 0
vn -1 0 0
vn 0.002506 -0.999579 0.028916
vn 0.002506 -0.999579 0.028916
vn 0.002506 -0.999579 0.028916
vn 0.931167 -0.363141 0.03252
vn 0.003661 0.999101 0.042235
vn 0.003661 0.999101 0.042235
vn 0.003661 0.999101 0.042235
vn -0.68432 0.728072 0.040218
vn 0.003009 0.139393 0.990233
vn 0.003009 0.139393 0.990233
vn 0.003009 0.139393 0.990233
vn -0.855864 0.230073 0.46321
vn 0.991235 0.127193 0.035699
vn 0.884924 0.23616 -0.401419
vn 0.991235 0.127193 0.035699
vn 0.003231 0.149674 -0.98873
vn 0.003231 0.149674 -0.98873
vn 0.003231 0.149674 -0.98873
vn -0.991126 0.127978 0.035919
vn -0.991126 0.127978 0.035919
usemtl datan_common_guild1_53eb6817
f 1/1/1 2/2/2 3/3/3
f 3/3/3 4/4/4 1/1/1
f 5/5/5 6/6/6 7/7/7
f 7/7/7 8/8/8 5/5/5
f 9/9/9 10/10/10 11/11/11
f 11/11/11 12/12/12 9/9/9
f 4/4/4 13/13/13 7/7/7
f 7/7/7 14/14/14 4/4/4
f 15/15/15 16/16/16 17/17/17
f 17/17/17 18/18/18 15/15/15
f 19/19/19 1/1/1 20/20/20
f 20/20/20 8/8/8 19/19/19
f 21/21/21 22/22/22 23/23/23
f 23/23/23 24/24/24 21/21/21
f 25/25/25 26/26/26 27/27/27
f 27/27/27 28/28/28 25/25/25
f 29/29/29 30/30/30 31/31/31
f 31/31/31 32/32/32 29/29/29
f 24/24/24 33/33/33 34/34/34
f 34/34/34 35/35/35 24/24/24
f 36/36/36 37/37/37 38/38/38
f 38/38/38 34/34/34 36/36/36
f 39/39/39 40/40/40 32/32/32
f 32/32/32 28/28/28 39/39/39
o datan_common_guild1_53eb6817_mesh01
v -1.599445 -0.061379 1.602529
v 1.592724 -0.061379 1.602529
v 1.592724 -0.061379 -1.58964
v -1.599445 -0.061379 -1.58964
vt 0.006066 0.006066
vt 0.493934 0.006066
vt 0.493934 0.493934
vt 0.006066 0.493934
vn -0.011652 0.999683 0.022344
vn -0.011652 0.999683 0.022344
vn -0.011652 0.999683 0.022344
vn -0.011652 0.999683 0.022344
usemtl datan_common_guild1_53eb6817
f 41/41/41 42/42/42 43/43/43
f 43/43/43 44/44/44 41/41/41
o datan_common_guild1_53eb6817_mesh02
v -0.000767 0.24728 -0.000094
v 0.276568 0.172707 0.04279
v 0.276592 0.172707 0.042745
v -0.000744 0.24728 -0.000139
v -0.000767 -0.243542 -0.000094
v 0.276568 -0.158017 0.04279
v 0.276568 0.172707 0.04279
v 0.276592 -0.158017 0.042745
v -0.000744 -0.243542 -0.000139
v -0.000744 0.24728 -0.000139
v 0.276592 0.172707 0.042745
vt 0.023281 0.976719
vt 0.322521 0.947916
vt 0.322548 0.947916
vt 0.023281 0.992031
vt 0.023281 0.523281
vt 0.32252 0.579593
vt 0.322521 0.932604
vt 0.322548 0.579593
vt 0.023281 0.523281
vt 0.023281 0.976719
vt 0.322548 0.932604
vn 0.14109 0.832662 0.535508
vn 0.239118 0.962585 0.127487
vn 0.239547 0.962795 0.125071
vn 0.239976 0.962999 0.122654
vn -0.152813 0 0.988255
vn -0.152813 0 0.988255
vn -0.152813 0 0.988255
vn 0.152812 0 -0.988255
vn 0.152812 0 -0.988255
vn 0.152812 0 -0.988255
vn 0.152812 0 -0.988255
usemtl datan_common_guild1_53eb6817
f 45/45/45 46/46/46 47/47/47
f 47/47/47 48/48/48 45/45/45
f 49/49/49 50/50/50 51/51/51
f 51/51/51 45/45/45 49/49/49
f 52/52/52 53/53/53 54/54/54
f 54/54/54 55/55/55 52/52/52
o datan_common_guild1_53eb6817_mesh03
v -0.002739 0.162684 0.000293
v 0.286718 0.08702 -0.028167
v 0.286703 0.08702 -0.028213
v -0.002754 0.162684 0.000247
v -0.002739 -0.166384 0.000293
v 0.286718 -0.077669 -0.028167
v 0.286718 0.08702 -0.028167
v 0.286703 -0.077669 -0.028213
v -0.002754 -0.166384 0.000247
vt 0.337972 0.931247
vt 0.663171 0.862293
vt 0.663154 0.862293
vt 0.337954 0.931247
vt 0.337972 0.580082
vt 0.663171 0.678881
vt 0.663171 0.846981
vt 0.663154 0.678881
vt 0.337954 0.580082
vn 0.268696 0.884142 0.382225
vn 0.244731 0.966292 -0.079912
vn 0.171375 0.8457 -0.505393
vn 0.021462 0.42286 -0.905941
vn 0.09785 0 0.995201
vn 0.09785 0 0.995201
vn 0.09785 0 0.995201
vn -0.09785 0 -0.995201
vn -0.09785 0 -0.995201
usemtl datan_common_guild1_53eb6817
f 56/56/56 57/57/57 58/58/58
f 58/58/58 59/59/59 56/56/56
f 60/60/60 61/61/61 62/62/62
f 62/62/62 56/56/56 60/60/60
f 63/63/63 64/64/64 59/59/59
f 59/59/59 58/58/58 63/63/63
o datan_common_guild1_53eb6817_mesh04
v -0.007038 0.086124 0.002141
v 0.268079 0.010356 -0.080487
v 0.268022 0.010356 -0.080544
v -0.00708 0.086124 0.0021
v 0.268079 0.010356 -0.080487
v -0.007038 -0.077515 0.002141
v 0.268022 0.010356 -0.080544
v -0.00708 -0.077515 0.0021
v -0.00708 0.086124 0.0021
vt 0.680088 0.845983
vt 0.976719 0.776914
vt 0.976719 0.776914
vt 0.68004 0.861296
vt 0.976719 0.761602
vt 0.680088 0.679054
vt 0.976719 0.761602
vt 0.68004 0.679054
vt 0.68004 0.845983
vn 0.328178 0.908143 0.259953
vn 0.202881 0.95795 -0.202908
vn 0.202262 0.957692 -0.204733
vn 0.201641 0.957431 -0.206558
vn 0.287645 0 0.957737
vn 0.287645 0 0.957737
vn -0.28771 0 -0.957718
vn -0.28771 0 -0.957718
vn -0.28771 0 -0.957718
usemtl datan_common_guild1_53eb6817
f 65/65/65 66/66/66 67/67/67
f 67/67/67 68/68/68 65/65/65
f 69/69/69 65/65/65 70/70/70
f 71/71/71 72/72/72 73/73/73
