# Generated from Nova1492 GX by tools/nova1492/GxObjConverter
mtllib datan_common_mbsel_fca278ea.mtl
o datan_common_mbsel_fca278ea_mesh00
v -0.75 -0.000036 -0.75
v -0.75 -0.000036 0.75
v 0.75 -0.000036 -0.75
v 0.75 -0.000036 0.75
vt 0.75582 0.24418
vt 0.75582 0.00582
vt 0.99418 0.24418
vt 0.99418 0.00582
vn 0 1 0
vn 0 1 0
vn 0 1 0
vn 0 1 0
usemtl datan_common_mbsel_fca278ea
f 1/1/1 2/2/2 3/3/3
f 4/4/4 3/3/3 2/2/2
o datan_common_mbsel_fca278ea_mesh01
v -0.75 -0.000112 -0.75
v -0.75 -0.000112 0.75
v 0.75 -0.000112 -0.75
v 0.75 -0.000112 0.75
vt 0.25582 0.74418
vt 0.25582 0.50582
vt 0.49418 0.74418
vt 0.49418 0.50582
vn 0 1 0
vn 0 1 0
vn 0 1 0
vn 0 1 0
usemtl datan_common_mbsel_fca278ea
f 5/5/5 6/6/6 7/7/7
f 8/8/8 7/7/7 6/6/6
o datan_common_mbsel_fca278ea_mesh02
v -0.75 0.000095 -0.75
v -0.75 0.000095 0.75
v 0.75 0.000095 -0.75
v 0.75 0.000095 0.75
vt 0.00582 0.24418
vt 0.00582 0.00582
vt 0.24418 0.24418
vt 0.24418 0.00582
vn 0 1 0
vn 0 1 0
vn 0 1 0
vn 0 1 0
usemtl datan_common_mbsel_fca278ea
f 9/9/9 10/10/10 11/11/11
f 12/12/12 11/11/11 10/10/10
