# Generated from Nova1492 GX by tools/nova1492/GxObjConverter
mtllib datan_common_scan_0c2616db.mtl
o datan_common_scan_0c2616db_mesh00
v -0.013983 0 -0.013983
v -0.013983 0 0.013983
v 0.013983 0 -0.013983
v 0.013983 0 0.013983
vt 0.752971 0.122029
vt 0.752971 0.002971
vt 0.872029 0.122029
vt 0.872029 0.002971
vn -0 1 0
vn 0 1 0
vn 0 1 0
vn 0 1 0
usemtl datan_common_scan_0c2616db
f 1/1/1 2/2/2 3/3/3
f 4/4/4 3/3/3 2/2/2
o datan_common_scan_0c2616db_mesh01
v -0.013983 0 -0.013983
v -0.013983 0 0.013983
v 0.013983 0 -0.013983
v 0.013983 0 0.013983
vt 0.752971 0.122029
vt 0.752971 0.002971
vt 0.872029 0.122029
vt 0.872029 0.002971
vn -0 1 0
vn 0 1 0
vn 0 1 0
vn 0 1 0
usemtl datan_common_scan_0c2616db
f 5/5/5 6/6/6 7/7/7
f 8/8/8 7/7/7 6/6/6
o datan_common_scan_0c2616db_mesh02
v -0.013983 0 -0.013983
v -0.013983 0 0.013983
v 0.013983 0 -0.013983
v 0.013983 0 0.013983
vt 0.752971 0.122029
vt 0.752971 0.002971
vt 0.872029 0.122029
vt 0.872029 0.002971
vn -0 1 0
vn 0 1 0
vn 0 1 0
vn 0 1 0
usemtl datan_common_scan_0c2616db
f 9/9/9 10/10/10 11/11/11
f 12/12/12 11/11/11 10/10/10
o datan_common_scan_0c2616db_mesh03
v -0.013983 0 -0.013983
v -0.013983 0 0.013983
v 0.013983 0 -0.013983
v 0.013983 0 0.013983
vt 0.752971 0.122029
vt 0.752971 0.002971
vt 0.872029 0.122029
vt 0.872029 0.002971
vn -0 1 0
vn 0 1 0
vn 0 1 0
vn 0 1 0
usemtl datan_common_scan_0c2616db
f 13/13/13 14/14/14 15/15/15
f 16/16/16 15/15/15 14/14/14
o datan_common_scan_0c2616db_mesh04
v -0.013983 0 -0.013983
v -0.013983 0 0.013983
v 0.013983 0 -0.013983
v 0.013983 0 0.013983
vt 0.752971 0.122029
vt 0.752971 0.002971
vt 0.872029 0.122029
vt 0.872029 0.002971
vn -0 1 0
vn 0 1 0
vn 0 1 0
vn 0 1 0
usemtl datan_common_scan_0c2616db
f 17/17/17 18/18/18 19/19/19
f 20/20/20 19/19/19 18/18/18
o datan_common_scan_0c2616db_mesh05
v -0.013983 0 -0.013983
v -0.013983 0 0.013983
v 0.013983 0 -0.013983
v 0.013983 0 0.013983
vt 0.752971 0.122029
vt 0.752971 0.002971
vt 0.872029 0.122029
vt 0.872029 0.002971
vn -0 1 0
vn 0 1 0
vn 0 1 0
vn 0 1 0
usemtl datan_common_scan_0c2616db
f 21/21/21 22/22/22 23/23/23
f 24/24/24 23/23/23 22/22/22
o datan_common_scan_0c2616db_mesh06
v -0.013983 0 -0.013983
v -0.013983 0 0.013983
v 0.013983 0 -0.013983
v 0.013983 0 0.013983
vt 0.752971 0.122029
vt 0.752971 0.002971
vt 0.872029 0.122029
vt 0.872029 0.002971
vn -0 1 0
vn 0 1 0
vn 0 1 0
vn 0 1 0
usemtl datan_common_scan_0c2616db
f 25/25/25 26/26/26 27/27/27
f 28/28/28 27/27/27 26/26/26
o datan_common_scan_0c2616db_mesh07
v -0.013983 0 -0.013983
v -0.013983 0 0.013983
v 0.013983 0 -0.013983
v 0.013983 0 0.013983
vt 0.752971 0.122029
vt 0.752971 0.002971
vt 0.872029 0.122029
vt 0.872029 0.002971
vn -0 1 0
vn 0 1 0
vn 0 1 0
vn 0 1 0
usemtl datan_common_scan_0c2616db
f 29/29/29 30/30/30 31/31/31
f 32/32/32 31/31/31 30/30/30
o datan_common_scan_0c2616db_mesh08
v -0.013983 0 -0.013983
v -0.013983 0 0.013983
v 0.013983 0 -0.013983
v 0.013983 0 0.013983
vt 0.752971 0.122029
vt 0.752971 0.002971
vt 0.872029 0.122029
vt 0.872029 0.002971
vn -0 1 0
vn 0 1 0
vn 0 1 0
vn 0 1 0
usemtl datan_common_scan_0c2616db
f 33/33/33 34/34/34 35/35/35
f 36/36/36 35/35/35 34/34/34
o datan_common_scan_0c2616db_mesh09
v -0.013983 0 -0.013983
v -0.013983 0 0.013983
v 0.013983 0 -0.013983
v 0.013983 0 0.013983
vt 0.752971 0.122029
vt 0.752971 0.002971
vt 0.872029 0.122029
vt 0.872029 0.002971
vn -0 1 0
vn 0 1 0
vn 0 1 0
vn 0 1 0
usemtl datan_common_scan_0c2616db
f 37/37/37 38/38/38 39/39/39
f 40/40/40 39/39/39 38/38/38
o datan_common_scan_0c2616db_mesh10
v -0.013983 0 -0.013983
v -0.013983 0 0.013983
v 0.013983 0 -0.013983
v 0.013983 0 0.013983
vt 0.752971 0.122029
vt 0.752971 0.002971
vt 0.872029 0.122029
vt 0.872029 0.002971
vn -0 1 0
vn 0 1 0
vn 0 1 0
vn 0 1 0
usemtl datan_common_scan_0c2616db
f 41/41/41 42/42/42 43/43/43
f 44/44/44 43/43/43 42/42/42
o datan_common_scan_0c2616db_mesh11
v -0.013983 0 -0.013983
v -0.013983 0 0.013983
v 0.013983 0 -0.013983
v 0.013983 0 0.013983
vt 0.752971 0.122029
vt 0.752971 0.002971
vt 0.872029 0.122029
vt 0.872029 0.002971
vn -0 1 0
vn 0 1 0
vn 0 1 0
vn 0 1 0
usemtl datan_common_scan_0c2616db
f 45/45/45 46/46/46 47/47/47
f 48/48/48 47/47/47 46/46/46
o datan_common_scan_0c2616db_mesh12
v -0.013983 0 -0.013983
v -0.013983 0 0.013983
v 0.013983 0 -0.013983
v 0.013983 0 0.013983
vt 0.752971 0.122029
vt 0.752971 0.002971
vt 0.872029 0.122029
vt 0.872029 0.002971
vn -0 1 0
vn 0 1 0
vn 0 1 0
vn 0 1 0
usemtl datan_common_scan_0c2616db
f 49/49/49 50/50/50 51/51/51
f 52/52/52 51/51/51 50/50/50
o datan_common_scan_0c2616db_mesh13
v -0.013983 0 -0.013983
v -0.013983 0 0.013983
v 0.013983 0 -0.013983
v 0.013983 0 0.013983
vt 0.752971 0.122029
vt 0.752971 0.002971
vt 0.872029 0.122029
vt 0.872029 0.002971
vn -0 1 0
vn 0 1 0
vn 0 1 0
vn 0 1 0
usemtl datan_common_scan_0c2616db
f 53/53/53 54/54/54 55/55/55
f 56/56/56 55/55/55 54/54/54
o datan_common_scan_0c2616db_mesh14
v -0.013983 0 -0.013983
v -0.013983 0 0.013983
v 0.013983 0 -0.013983
v 0.013983 0 0.013983
vt 0.752971 0.122029
vt 0.752971 0.002971
vt 0.872029 0.122029
vt 0.872029 0.002971
vn -0 1 0
vn 0 1 0
vn 0 1 0
vn 0 1 0
usemtl datan_common_scan_0c2616db
f 57/57/57 58/58/58 59/59/59
f 60/60/60 59/59/59 58/58/58
o datan_common_scan_0c2616db_mesh15
v -0.013983 0 -0.013983
v -0.013983 0 0.013983
v 0.013983 0 -0.013983
v 0.013983 0 0.013983
vt 0.752971 0.122029
vt 0.752971 0.002971
vt 0.872029 0.122029
vt 0.872029 0.002971
vn -0 1 0
vn 0 1 0
vn 0 1 0
vn 0 1 0
usemtl datan_common_scan_0c2616db
f 61/61/61 62/62/62 63/63/63
f 64/64/64 63/63/63 62/62/62
o datan_common_scan_0c2616db_mesh16
v -0.013983 0 -0.013983
v -0.013983 0 0.013983
v 0.013983 0 -0.013983
v 0.013983 0 0.013983
vt 0.752971 0.122029
vt 0.752971 0.002971
vt 0.872029 0.122029
vt 0.872029 0.002971
vn -0 1 0
vn 0 1 0
vn 0 1 0
vn 0 1 0
usemtl datan_common_scan_0c2616db
f 65/65/65 66/66/66 67/67/67
f 68/68/68 67/67/67 66/66/66
o datan_common_scan_0c2616db_mesh17
v -4.90301 -0.000054 -4.90301
v -4.90301 -0.000054 4.90301
v 4.90301 -0.000054 -4.90301
v 4.90301 -0.000054 4.90301
vt 0.503033 0.496967
vt 0.503033 0.253033
vt 0.746967 0.496967
vt 0.746967 0.253033
vn -0 1 0
vn 0 1 0
vn 0 1 0
vn 0 1 0
usemtl datan_common_scan_0c2616db
f 69/69/69 70/70/70 71/71/71
f 72/72/72 71/71/71 70/70/70
o datan_common_scan_0c2616db_mesh18
v -5.785553 -0.000064 -5.785553
v -5.785553 -0.000064 5.785553
v 5.785553 -0.000064 -5.785553
v 5.785553 -0.000064 5.785553
vt 0.503033 0.496967
vt 0.503033 0.253033
vt 0.746967 0.496967
vt 0.746967 0.253033
vn -0 1 0
vn 0 1 0
vn 0 1 0
vn 0 1 0
usemtl datan_common_scan_0c2616db
f 73/73/73 74/74/74 75/75/75
f 76/76/76 75/75/75 74/74/74
o datan_common_scan_0c2616db_mesh19
v 0.066672 -0.000001 0.066672
v 0.066672 -0.000001 -0.066672
v -0.066672 -0.000001 0.066672
v -0.066672 -0.000001 -0.066672
vt 0.503158 0.996842
vt 0.503158 0.503158
vt 0.996842 0.996842
vt 0.996842 0.503158
vn 0 1 0
vn -0 1 0
vn -0 1 0
vn -0 1 0
usemtl datan_common_scan_0c2616db
f 77/77/77 78/78/78 79/79/79
f 80/80/80 79/79/79 78/78/78
o datan_common_scan_0c2616db_mesh20
v -0 -0 -0.025646
v -0.025646 -0 0
v 0.025646 -0 -0
v 0 -0 0.025646
vt 0.003158 0.996842
vt 0.003158 0.503158
vt 0.496842 0.996842
vt 0.496842 0.503158
vn -0 1 -0
vn 0 1 0
vn 0 1 0
vn 0 1 0
usemtl datan_common_scan_0c2616db
f 81/81/81 82/82/82 83/83/83
f 84/84/84 83/83/83 82/82/82
o datan_common_scan_0c2616db_mesh21
v -0.047717 -0.000001 -0.047717
v -0.047717 -0.000001 0.047717
v 0.047717 -0.000001 -0.047717
v 0.047717 -0.000001 0.047717
vt 0.003158 0.496842
vt 0.003158 0.003158
vt 0.496842 0.496842
vt 0.496842 0.003158
vn -0 1 0
vn 0 1 0
vn 0 1 0
vn 0 1 0
usemtl datan_common_scan_0c2616db
f 85/85/85 86/86/86 87/87/87
f 88/88/88 87/87/87 86/86/86
o datan_common_scan_0c2616db_mesh22
v -3.197106 -0.000071 6.281975
v 6.281975 -0.000071 3.197106
v -6.281975 -0.000071 -3.197106
v 3.197106 -0.000071 -6.281975
vt 0.503158 0.996842
vt 0.503158 0.503158
vt 0.996842 0.996842
vt 0.996842 0.503158
vn 0 1 0
vn 0 1 -0
vn 0 1 -0
vn 0 1 -0
usemtl datan_common_scan_0c2616db
f 89/89/89 90/90/90 91/91/91
f 92/92/92 91/91/91 90/90/90
o datan_common_scan_0c2616db_mesh23
v -0.743084 -0.000029 -0.111106
v -0.743084 -0.000029 0.111106
v 0.743084 -0.000029 -0.111106
v 0.743084 -0.000029 0.111106
vt 0.516643 0.028326
vt 0.516643 0.002924
vt 0.635701 0.028326
vt 0.635701 0.002924
vn -0 1 0
vn 0 1 0
vn 0 1 0
vn 0 1 0
usemtl datan_common_scan_0c2616db
f 93/93/93 94/94/94 95/95/95
f 96/96/96 95/95/95 94/94/94
o datan_common_scan_0c2616db_mesh24
v -0.111106 -0.000029 0.743084
v 0.111106 -0.000029 0.743084
v -0.111106 -0.000029 -0.743084
v 0.111106 -0.000029 -0.743084
vt 0.516643 0.028326
vt 0.516643 0.002924
vt 0.635701 0.028326
vt 0.635701 0.002924
vn -0 1 0
vn 0 1 -0
vn 0 1 -0
vn 0 1 -0
usemtl datan_common_scan_0c2616db
f 97/97/97 98/98/98 99/99/99
f 100/100/100 99/99/99 98/98/98
o datan_common_scan_0c2616db_mesh25
v -0.604003 -0.000029 0.446876
v -0.446875 -0.000029 0.604003
v 0.446875 -0.000029 -0.604003
v 0.604003 -0.000029 -0.446876
vt 0.516643 0.028326
vt 0.516643 0.002924
vt 0.635701 0.028326
vt 0.635701 0.002924
vn -0 1 0
vn 0 1 0
vn 0 1 0
vn 0 1 0
usemtl datan_common_scan_0c2616db
f 101/101/101 102/102/102 103/103/103
f 104/104/104 103/103/103 102/102/102
o datan_common_scan_0c2616db_mesh26
v -0.446876 -0.000029 -0.604003
v -0.604003 -0.000029 -0.446875
v 0.604003 -0.000029 0.446875
v 0.446876 -0.000029 0.604003
vt 0.516643 0.028326
vt 0.516643 0.002924
vt 0.635701 0.028326
vt 0.635701 0.002924
vn 0 1 -0
vn 0 1 0
vn 0 1 0
vn 0 1 0
usemtl datan_common_scan_0c2616db
f 105/105/105 106/106/106 107/107/107
f 108/108/108 107/107/107 106/106/106
o datan_common_scan_0c2616db_mesh27
v -0.446876 -0.000029 -0.604003
v -0.604003 -0.000029 -0.446875
v 0.604003 -0.000029 0.446875
v 0.446876 -0.000029 0.604003
vt 0.516643 0.028326
vt 0.516643 0.002924
vt 0.635701 0.028326
vt 0.635701 0.002924
vn 0 1 -0
vn 0 1 0
vn 0 1 0
vn 0 1 0
usemtl datan_common_scan_0c2616db
f 109/109/109 110/110/110 111/111/111
f 112/112/112 111/111/111 110/110/110
o datan_common_scan_0c2616db_mesh28
v -0.604003 -0.000029 0.446876
v -0.446875 -0.000029 0.604003
v 0.446875 -0.000029 -0.604003
v 0.604003 -0.000029 -0.446876
vt 0.516643 0.028326
vt 0.516643 0.002924
vt 0.635701 0.028326
vt 0.635701 0.002924
vn -0 1 0
vn 0 1 0
vn 0 1 0
vn 0 1 0
usemtl datan_common_scan_0c2616db
f 113/113/113 114/114/114 115/115/115
f 116/116/116 115/115/115 114/114/114
o datan_common_scan_0c2616db_mesh29
v -0.111106 -0.000029 0.743084
v 0.111106 -0.000029 0.743084
v -0.111106 -0.000029 -0.743084
v 0.111106 -0.000029 -0.743084
vt 0.516643 0.028326
vt 0.516643 0.002924
vt 0.635701 0.028326
vt 0.635701 0.002924
vn -0 1 0
vn 0 1 -0
vn 0 1 -0
vn 0 1 -0
usemtl datan_common_scan_0c2616db
f 117/117/117 118/118/118 119/119/119
f 120/120/120 119/119/119 118/118/118
o datan_common_scan_0c2616db_mesh30
v -0.743084 -0.000029 -0.111106
v -0.743084 -0.000029 0.111106
v 0.743084 -0.000029 -0.111106
v 0.743084 -0.000029 0.111106
vt 0.516643 0.028326
vt 0.516643 0.002924
vt 0.635701 0.028326
vt 0.635701 0.002924
vn -0 1 0
vn 0 1 0
vn 0 1 0
vn 0 1 0
usemtl datan_common_scan_0c2616db
f 121/121/121 122/122/122 123/123/123
f 124/124/124 123/123/123 122/122/122
o datan_common_scan_0c2616db_mesh31
v 0.183747 -0.000029 0.728529
v 0.388806 -0.000029 0.642921
v -0.388806 -0.000029 -0.642921
v -0.183747 -0.000029 -0.728529
vt 0.516643 0.028326
vt 0.516643 0.002924
vt 0.635701 0.028326
vt 0.635701 0.002924
vn 0 1 0
vn 0 1 -0
vn 0 1 -0
vn 0 1 -0
usemtl datan_common_scan_0c2616db
f 125/125/125 126/126/126 127/127/127
f 128/128/128 127/127/127 126/126/126
o datan_common_scan_0c2616db_mesh32
v -0.38522 -0.000029 0.645076
v -0.179686 -0.000029 0.729541
v 0.179686 -0.000029 -0.729541
v 0.38522 -0.000029 -0.645076
vt 0.516643 0.028326
vt 0.516643 0.002924
vt 0.635701 0.028326
vt 0.635701 0.002924
vn -0 1 0
vn 0 1 0
vn 0 1 0
vn 0 1 0
usemtl datan_common_scan_0c2616db
f 129/129/129 130/130/130 131/131/131
f 132/132/132 131/131/131 130/130/130
o datan_common_scan_0c2616db_mesh33
v -0.645076 -0.000029 -0.38522
v -0.729541 -0.000029 -0.179686
v 0.729541 -0.000029 0.179686
v 0.645076 -0.000029 0.38522
vt 0.516643 0.028326
vt 0.516643 0.002924
vt 0.635701 0.028326
vt 0.635701 0.002924
vn 0 1 -0
vn 0 1 0
vn 0 1 0
vn 0 1 0
usemtl datan_common_scan_0c2616db
f 133/133/133 134/134/134 135/135/135
f 136/136/136 135/135/135 134/134/134
o datan_common_scan_0c2616db_mesh34
v -0.645076 -0.000029 -0.38522
v -0.729541 -0.000029 -0.179686
v 0.729541 -0.000029 0.179686
v 0.645076 -0.000029 0.38522
vt 0.516643 0.028326
vt 0.516643 0.002924
vt 0.635701 0.028326
vt 0.635701 0.002924
vn 0 1 -0
vn 0 1 0
vn 0 1 0
vn 0 1 0
usemtl datan_common_scan_0c2616db
f 137/137/137 138/138/138 139/139/139
f 140/140/140 139/139/139 138/138/138
o datan_common_scan_0c2616db_mesh35
v -0.38522 -0.000029 0.645076
v -0.179686 -0.000029 0.729541
v 0.179686 -0.000029 -0.729541
v 0.38522 -0.000029 -0.645076
vt 0.516643 0.028326
vt 0.516643 0.002924
vt 0.635701 0.028326
vt 0.635701 0.002924
vn -0 1 0
vn 0 1 0
vn 0 1 0
vn 0 1 0
usemtl datan_common_scan_0c2616db
f 141/141/141 142/142/142 143/143/143
f 144/144/144 143/143/143 142/142/142
o datan_common_scan_0c2616db_mesh36
v 0.183747 -0.000029 0.728529
v 0.388806 -0.000029 0.642921
v -0.388806 -0.000029 -0.642921
v -0.183747 -0.000029 -0.728529
vt 0.516643 0.028326
vt 0.516643 0.002924
vt 0.635701 0.028326
vt 0.635701 0.002924
vn 0 1 0
vn 0 1 -0
vn 0 1 -0
vn 0 1 -0
usemtl datan_common_scan_0c2616db
f 145/145/145 146/146/146 147/147/147
f 148/148/148 147/147/147 146/146/146
o datan_common_scan_0c2616db_mesh37
v -0.728529 -0.000029 0.183746
v -0.642921 -0.000029 0.388806
v 0.642921 -0.000029 -0.388806
v 0.728529 -0.000029 -0.183746
vt 0.516643 0.028326
vt 0.516643 0.002924
vt 0.635701 0.028326
vt 0.635701 0.002924
vn -0 1 0
vn 0 1 0
vn 0 1 0
vn 0 1 0
usemtl datan_common_scan_0c2616db
f 149/149/149 150/150/150 151/151/151
f 152/152/152 151/151/151 150/150/150
o datan_common_scan_0c2616db_mesh38
v -0.728529 -0.000029 0.183746
v -0.642921 -0.000029 0.388806
v 0.642921 -0.000029 -0.388806
v 0.728529 -0.000029 -0.183746
vt 0.516643 0.028326
vt 0.516643 0.002924
vt 0.635701 0.028326
vt 0.635701 0.002924
vn -0 1 0
vn 0 1 0
vn 0 1 0
vn 0 1 0
usemtl datan_common_scan_0c2616db
f 153/153/153 154/154/154 155/155/155
f 156/156/156 155/155/155 154/154/154
o datan_common_scan_0c2616db_mesh39
v -0.00679 -0 -0.00679
v -0.00679 -0 0.00679
v 0.00679 -0 -0.00679
v 0.00679 -0 0.00679
vt 0.753033 0.496967
vt 0.753033 0.253033
vt 0.996967 0.496967
vt 0.996967 0.253033
vn -0 1 0
vn 0 1 0
vn 0 1 0
vn 0 1 0
usemtl datan_common_scan_0c2616db
f 157/157/157 158/158/158 159/159/159
f 160/160/160 159/159/159 158/158/158
o datan_common_scan_0c2616db_mesh40
v -0.00679 -0 -0.00679
v -0.00679 -0 0.00679
v 0.00679 -0 -0.00679
v 0.00679 -0 0.00679
vt 0.877971 0.122029
vt 0.877971 0.002971
vt 0.997029 0.122029
vt 0.997029 0.002971
vn -0 1 0
vn 0 1 0
vn 0 1 0
vn 0 1 0
usemtl datan_common_scan_0c2616db
f 161/161/161 162/162/162 163/163/163
f 164/164/164 163/163/163 162/162/162
o datan_common_scan_0c2616db_mesh41
v -0.00679 -0 -0.00679
v -0.00679 -0 0.00679
v 0.00679 -0 -0.00679
v 0.00679 -0 0.00679
vt 0.753033 0.496967
vt 0.753033 0.253033
vt 0.996967 0.496967
vt 0.996967 0.253033
vn -0 1 0
vn 0 1 0
vn 0 1 0
vn 0 1 0
usemtl datan_common_scan_0c2616db
f 165/165/165 166/166/166 167/167/167
f 168/168/168 167/167/167 166/166/166
