# Generated from Nova1492 GX by tools/nova1492/GxObjConverter
mtllib datan_common_itemwatt_1670bb9f.mtl
o datan_common_itemwatt_1670bb9f_mesh00
v 0.710512 0 -0.320723
v -0.710512 0 -0.320723
v -0.710512 0.510959 -0.320723
v 0.848361 0.510959 -0.320723
v -0.710512 1.021919 -0.320723
v 0.710512 1.021919 -0.320723
v -0.710512 1.021919 0.15242
v 0.710512 1.021919 0.15242
v 0.710512 1.021919 -0.320723
v -0.710512 1.021919 -0.320723
v -0.710512 0 -0.320723
v -0.710512 0 0.320723
v -0.710512 0.510959 0.320723
v -0.710512 0.510959 -0.320723
v -0.710512 1.021919 0.15242
v -0.710512 1.021919 -0.320723
v -0.710512 0 0.320723
v 0.710512 0 0.320723
v 0.848361 0.510959 0.320723
v -0.710512 0.510959 0.320723
v 0.710512 1.021919 0.15242
v -0.710512 1.021919 0.15242
v 0.710512 0 0.320723
v 0.710512 0 -0.320723
v 0.848361 0.510959 -0.320723
v 0.848361 0.510959 0.320723
v 0.710512 1.021919 -0.320723
v 0.710512 1.021919 0.15242
v -0.392499 0.90971 0.447241
v 0.539418 0.90971 0.447241
v 0.663134 0.961278 0.160128
v -0.516216 0.961278 0.160128
v -0.392499 0.623742 0.447241
v 0.539418 0.623742 0.447241
v 0.663134 0.572173 0.160128
v -0.516216 0.572173 0.160128
v -0.392499 0.382255 0.596549
v 0.539418 0.382255 0.596549
v 0.663134 0.433824 0.309436
v -0.516216 0.433824 0.309436
v -0.392499 0.096287 0.596549
v 0.539418 0.096287 0.596549
v 0.663134 0.044718 0.309436
v -0.516216 0.044718 0.309436
vt 0.099092 0.761758
vt 0.987868 0.761758
vt 0.987868 0.871172
vt 0.012132 0.878828
vt 0.987868 0.988242
vt 0.099092 0.988242
vt 0.987868 0.738242
vt 0.012132 0.738242
vt 0.012132 0.511758
vt 0.987868 0.511758
vt 0.988242 0.011883
vt 0.761758 0.011883
vt 0.761758 0.246172
vt 0.988242 0.246172
vt 0.823192 0.488117
vt 0.988242 0.488117
vt 0.011883 0.011758
vt 0.445328 0.011758
vt 0.488117 0.121172
vt 0.011883 0.121172
vt 0.445328 0.238242
vt 0.011883 0.238242
vt 0.511758 0.011883
vt 0.738242 0.011883
vt 0.738242 0.246172
vt 0.511758 0.246172
vt 0.738242 0.488117
vt 0.511758 0.488117
vt 0.062644 0.464868
vt 0.437356 0.464868
vt 0.488117 0.488242
vt 0.011883 0.488242
vt 0.062644 0.292789
vt 0.437356 0.292789
vt 0.488117 0.261758
vt 0.011883 0.261758
vt 0.062644 0.464868
vt 0.437356 0.464868
vt 0.488117 0.488242
vt 0.011883 0.488242
vt 0.062644 0.292789
vt 0.437356 0.292789
vt 0.488117 0.261758
vt 0.011883 0.261758
vn 0 0 -1
vn 0 0 -1
vn 0 0 -1
vn 0 0 -1
vn 0 0 -1
vn 0 0 -1
vn 0 1 0
vn 0 1 0
vn 0 1 0
vn 0 1 0
vn -1 0 0
vn -1 0 0
vn -1 0 0
vn -1 0 0
vn -1 0 0
vn -1 0 0
vn 0 0 1
vn 0 0 1
vn 0 0.105467 0.994423
vn 0 0.210934 0.9775
vn 0 0.312851 0.949802
vn 0 0.312851 0.949802
vn 0.965481 -0.260472 0
vn 0.965481 -0.260472 0
vn 0.995981 -0.089567 0
vn 0.995981 0.089567 0
vn 0.965481 0.260472 0
vn 0.965481 0.260472 0
vn -0.533573 0.57185 0.623127
vn 0.316304 0.338995 0.886021
vn 0.627797 0.672833 0.391365
vn -0.627797 0.672833 0.391365
vn -0.357939 0 0.933745
vn 0.715878 0 0.698225
vn 0.91837 0 0.395724
vn -0.91837 0 0.395724
vn -0.533573 0.57185 0.623127
vn 0.316304 0.338995 0.886022
vn 0.627797 0.672833 0.391365
vn -0.627797 0.672833 0.391365
vn -0.357939 0 0.933745
vn 0.715878 0 0.698225
vn 0.91837 0 0.395724
vn -0.91837 0 0.395724
usemtl datan_common_itemwatt_1670bb9f
f 1/1/1 2/2/2 3/3/3
f 3/3/3 4/4/4 1/1/1
f 4/4/4 3/3/3 5/5/5
f 5/5/5 6/6/6 4/4/4
f 7/7/7 8/8/8 9/9/9
f 9/9/9 10/10/10 7/7/7
f 11/11/11 12/12/12 13/13/13
f 13/13/13 14/14/14 11/11/11
f 14/14/14 13/13/13 15/15/15
f 15/15/15 16/16/16 14/14/14
f 17/17/17 18/18/18 19/19/19
f 19/19/19 20/20/20 17/17/17
f 20/20/20 19/19/19 21/21/21
f 21/21/21 22/22/22 20/20/20
f 23/23/23 24/24/24 25/25/25
f 25/25/25 26/26/26 23/23/23
f 26/26/26 25/25/25 27/27/27
f 27/27/27 28/28/28 26/26/26
f 29/29/29 30/30/30 31/31/31
f 31/31/31 32/32/32 29/29/29
f 33/33/33 34/34/34 30/30/30
f 30/30/30 29/29/29 33/33/33
f 34/34/34 35/35/35 31/31/31
f 31/31/31 30/30/30 34/34/34
f 36/36/36 33/33/33 29/29/29
f 29/29/29 32/32/32 36/36/36
f 37/37/37 38/38/38 39/39/39
f 39/39/39 40/40/40 37/37/37
f 41/41/41 42/42/42 38/38/38
f 38/38/38 37/37/37 41/41/41
f 42/42/42 43/43/43 39/39/39
f 39/39/39 38/38/38 42/42/42
f 44/44/44 41/41/41 37/37/37
f 37/37/37 40/40/40 44/44/44
o datan_common_itemwatt_1670bb9f_mesh01
v 0.408017 0.408017 0
v 0.408017 -0.408017 0
v -0.408017 0.408017 -0
v -0.408017 -0.408017 -0
vt 0.251914 0.24418
vt 0.251914 0.00582
vt 0.490273 0.24418
vt 0.490273 0.00582
vn 0 0 -1
vn 0 0 -1
vn 0 0 -1
vn 0 0 -1
usemtl datan_common_itemwatt_1670bb9f
f 45/45/45 46/46/46 47/47/47
f 48/48/48 47/47/47 46/46/46
o datan_common_itemwatt_1670bb9f_mesh02
v -0.50429 0.169625 -0
v -0.50429 -0.169625 0
v 0.50429 0.169625 -0
v 0.50429 -0.169625 0
vt 0.75582 0.24418
vt 0.75582 0.19332
vt 0.99418 0.24418
vt 0.99418 0.19332
vn 0 0 1
vn 0 0 1
vn 0 0 1
vn 0 0 1
usemtl datan_common_itemwatt_1670bb9f
f 49/49/49 50/50/50 51/51/51
f 52/52/52 51/51/51 50/50/50
o datan_common_itemwatt_1670bb9f_mesh03
v -0.50429 0.169625 -0
v -0.50429 -0.169625 0
v 0.50429 0.169625 -0
v 0.50429 -0.169625 0
vt 0.75582 0.24418
vt 0.75582 0.19332
vt 0.99418 0.24418
vt 0.99418 0.19332
vn 0 0 1
vn 0 0 1
vn 0 0 1
vn 0 0 1
usemtl datan_common_itemwatt_1670bb9f
f 53/53/53 54/54/54 55/55/55
f 56/56/56 55/55/55 54/54/54
o datan_common_itemwatt_1670bb9f_mesh04
v 0 0.2455 -0.2455
v 0 -0.2455 -0.2455
v 0 0.2455 0.2455
v 0 -0.2455 0.2455
vt 0.50582 0.24418
vt 0.50582 0.00582
vt 0.74418 0.24418
vt 0.74418 0.00582
vn -1 0 0
vn -1 0 0
vn -1 0 0
vn -1 0 0
usemtl datan_common_itemwatt_1670bb9f
f 57/57/57 58/58/58 59/59/59
f 60/60/60 59/59/59 58/58/58
o datan_common_itemwatt_1670bb9f_mesh05
v 0 0.2455 -0.2455
v 0 -0.2455 -0.2455
v 0 0.2455 0.2455
v 0 -0.2455 0.2455
vt 0.50582 0.24418
vt 0.50582 0.00582
vt 0.74418 0.24418
vt 0.74418 0.00582
vn -1 0 0
vn -1 0 0
vn -1 0 0
vn -1 0 0
usemtl datan_common_itemwatt_1670bb9f
f 61/61/61 62/62/62 63/63/63
f 64/64/64 63/63/63 62/62/62
