# Generated from Nova1492 GX by tools/nova1492/GxObjConverter
mtllib datan_common_itemDelay_d190518f.mtl
o datan_common_itemDelay_d190518f
v -0.192316 1.01374 0.143571
v -0.192315 0.263352 0.143571
v -0.064105 0.263352 0.143571
v -0.064105 1.151778 0.143571
v 0.064105 0.263352 0.143571
v 0.064105 1.151778 0.143571
v 0.192315 0.263352 0.143571
v 0.192315 1.01374 0.143571
v -0.192315 0.882704 -0.324643
v -0.192315 0.641465 -0.463477
v -0.192315 0.263389 -0.471223
v -0.192315 0.263356 -0.325965
v 0.192316 0.882704 -0.324643
v 0.192315 0.263357 -0.325965
v 0.192315 0.26339 -0.471223
v 0.192315 0.641465 -0.463477
v -0.064105 0.709006 -0.57277
v -0.064105 0.263334 -0.613882
v 0.064105 0.709006 -0.57277
v 0.064105 0.263334 -0.613882
v -0.064105 1.000736 -0.382379
v 0.064105 1.000736 -0.382379
v -0.192316 0.263332 -0.118753
v -0.192316 1.01374 -0.118753
v 0.192315 1.01374 -0.118753
v 0.192315 0.263332 -0.118753
v -0.064105 1.151778 -0.118753
v 0.064105 1.151778 -0.118753
v -0.192315 0.263352 0.143571
v -0.192316 1.01374 0.143571
v -0.064105 1.151778 0.143571
v 0.064105 1.151778 0.143571
v 0.192315 1.01374 0.143571
v 0.192315 0.263352 0.143571
v 0.306352 0.006806 0.178665
v 0.306352 0.006806 -0.274175
v 0.306352 0.376479 -0.274175
v 0.306352 0.376479 0.178665
v 0.306352 0.653326 -0.219425
v 0.306352 0.653326 0.123915
v 0.306352 0.751911 -0.11744
v 0.306352 0.751911 0.019374
v 0.195222 0.006806 -0.378585
v 0.195222 0.376479 -0.378585
v 0.195222 0.653326 -0.324579
v 0.195222 0.83964 -0.163203
v 0.195222 0.83964 0.065137
v 0.195222 0.653326 0.226513
v 0.195222 0.376479 0.280519
v 0.195222 0.006806 0.280519
v -0.192315 0.89098 0.143593
v -0.192315 0.768873 0.277592
v 0.192309 0.768873 0.277592
v 0.192329 0.89098 0.143593
v -0.192315 0.548461 0.368029
v 0.19231 0.548461 0.368029
v -0.192315 0.263237 0.370871
v 0.192312 0.263237 0.370871
v -0.192315 0.263237 0.370871
v -0.192315 0.548461 0.368029
v -0.192315 0.548461 0.143593
v -0.192315 0.263237 0.143593
v -0.192315 0.768873 0.277592
v -0.192315 0.89098 0.143593
v 0.192312 0.263237 0.370871
v 0.192312 0.263237 0.143593
v 0.19231 0.548461 0.143593
v 0.19231 0.548461 0.368029
v 0.192329 0.89098 0.143593
v 0.192309 0.768873 0.277592
v -0.192315 0.263331 -0.471177
v -0.192315 0.263331 0.492322
v -0.064105 0.263331 0.63673
v -0.064105 0.263331 -0.61381
v 0.064105 0.263331 0.63673
v 0.064105 0.263331 -0.61381
v 0.192315 0.263331 0.492322
v 0.192315 0.263331 -0.471177
v -0.192315 0.004811 0.492322
v -0.192315 0.263331 0.492322
v -0.192315 0.263331 -0.471177
v -0.192315 0.004811 -0.471177
v 0.192315 0.004811 0.492322
v 0.192315 0.004811 -0.471177
v 0.192315 0.263331 -0.471177
v 0.192315 0.263331 0.492322
v -0.064105 0.263331 -0.61381
v -0.064105 0.004811 -0.61381
v 0.064105 0.263331 -0.61381
v 0.064105 0.004811 -0.61381
v -0.064105 0.004811 0.63673
v -0.064105 0.263331 0.63673
v 0.064105 0.004811 0.63673
v 0.064105 0.263331 0.63673
v -0.303539 0.006806 -0.274175
v -0.303539 0.006806 0.178665
v -0.303539 0.376479 -0.274175
v -0.303539 0.376479 0.178665
v -0.303539 0.653326 -0.219425
v -0.303539 0.653326 0.123915
v -0.303539 0.751911 -0.11744
v -0.303539 0.751911 0.019374
v -0.192409 0.376479 -0.378585
v -0.192409 0.006806 -0.378585
v -0.192409 0.653326 -0.324579
v -0.192409 0.83964 -0.163203
v -0.192409 0.83964 0.065137
v -0.192409 0.653326 0.226512
v -0.192409 0.376479 0.280519
v -0.192409 0.006806 0.280519
vt 0.766301 0.823801
vt 0.7663 0.026918
vt 0.83366 0.026918
vt 0.841316 0.973208
vt 0.916332 0.026918
vt 0.916332 0.973208
vt 0.983691 0.026918
vt 0.983692 0.823801
vt 0.383861 0.749197
vt 0.429922 0.545645
vt 0.432919 0.241948
vt 0.376715 0.24192
vt 0.383861 0.749197
vt 0.384372 0.24192
vt 0.432919 0.241948
vt 0.429922 0.545645
vt 0.47221 0.602635
vt 0.488117 0.241901
vt 0.47221 0.602635
vt 0.488117 0.241901
vt 0.398543 0.84879
vt 0.398543 0.84879
vt 0.296541 0.241899
vt 0.296541 0.859763
vt 0.296541 0.859763
vt 0.296541 0.241899
vt 0.296541 0.976234
vt 0.296541 0.976234
vt 0.195041 0.241917
vt 0.195041 0.859763
vt 0.195041 0.976235
vt 0.195041 0.976235
vt 0.195041 0.859763
vt 0.195041 0.241917
vt 0.188714 0.027561
vt 0.355716 0.027561
vt 0.355716 0.32304
vt 0.181057 0.32304
vt 0.334599 0.555791
vt 0.202174 0.555791
vt 0.295264 0.638673
vt 0.242496 0.638673
vt 0.395986 0.027561
vt 0.395987 0.32304
vt 0.375156 0.555791
vt 0.312914 0.71243
vt 0.224845 0.71243
vt 0.162603 0.571104
vt 0.141773 0.338353
vt 0.141773 0.027561
vt 0.766301 0.690928
vt 0.766301 0.574077
vt 0.983688 0.574077
vt 0.983699 0.690928
vt 0.766301 0.33551
vt 0.983688 0.335509
vt 0.766301 0.026792
vt 0.983689 0.026792
vt 0.11475 0.241819
vt 0.11585 0.467171
vt 0.195033 0.467171
vt 0.195033 0.241819
vt 0.143186 0.65315
vt 0.195033 0.75618
vt 0.11475 0.241819
vt 0.195033 0.241819
vt 0.195033 0.467171
vt 0.108193 0.467171
vt 0.195033 0.75618
vt 0.143186 0.65315
vt 0.766301 0.019239
vt 0.766301 0.019238
vt 0.83366 0.019238
vt 0.841316 0.026896
vt 0.916332 0.026895
vt 0.916332 0.026896
vt 0.983691 0.026895
vt 0.983691 0.026895
vt 0.067757 0.023766
vt 0.067757 0.226587
vt 0.432901 0.226586
vt 0.432901 0.023766
vt 0.067757 0.023766
vt 0.432901 0.023766
vt 0.432901 0.226586
vt 0.067757 0.226587
vt 0.488089 0.226586
vt 0.488089 0.023766
vt 0.488089 0.226586
vt 0.488089 0.023766
vt 0.011883 0.023766
vt 0.011883 0.226587
vt 0.011883 0.023766
vt 0.011883 0.226587
vt 0.355716 0.027561
vt 0.188714 0.027561
vt 0.355716 0.32304
vt 0.181057 0.32304
vt 0.334599 0.555791
vt 0.202174 0.555791
vt 0.295264 0.638673
vt 0.242496 0.638673
vt 0.395987 0.32304
vt 0.395986 0.027561
vt 0.375156 0.555791
vt 0.312914 0.71243
vt 0.224845 0.71243
vt 0.162603 0.571104
vt 0.141773 0.338353
vt 0.141773 0.027561
vn 0 0 1
vn 0 0 1
vn 0 0 1
vn 0 0 1
vn 0 0 1
vn 0 0 1
vn 0 0 1
vn 0 0 1
vn -0.966638 0.175119 -0.186934
vn -0.812859 0.211221 -0.542814
vn -0.921988 0.020921 -0.386654
vn -1 0 -0.000002
vn 0.898373 0.311193 -0.309976
vn 1 -0.000001 0.000002
vn 0.971575 0.004849 -0.236683
vn 0.833452 0.116094 -0.54026
vn -0.389914 0.305504 -0.868697
vn -0.26787 0.0885 -0.959382
vn 0.373445 0.286337 -0.882355
vn 0.505141 0.062241 -0.860789
vn -0.5004 0.619386 -0.604947
vn 0.251309 0.702438 -0.665902
vn -1 0 -0.000002
vn -0.928942 0.345151 -0.133929
vn 0.930348 0.359546 -0.071968
vn 1 0 0
vn -0.400027 0.880946 -0.252809
vn 0.394503 0.889349 -0.231139
vn -1 -0.000001 0.000002
vn -0.875449 0.483312 0
vn -0.26367 0.964613 0
vn 0.527342 0.849653 0
vn 0.970362 0.241655 0
vn 1 0 0
vn 0.915333 0 0.402697
vn 0.917804 0 -0.397034
vn 0.917788 0.025941 -0.396222
vn 0.914934 0.052196 0.400215
vn 0.912096 0.164231 -0.375645
vn 0.909409 0.229135 0.347091
vn 0.863947 0.428893 -0.263905
vn 0.79763 0.585755 0.143794
vn 0.684728 0 -0.728799
vn 0.682516 0.094528 -0.724732
vn 0.637598 0.425092 -0.642469
vn 0.656941 0.725888 -0.203753
vn 0.643082 0.654143 0.398174
vn 0.65033 0.279889 0.70621
vn 0.674906 0.047556 0.73637
vn 0.67567 0 0.737204
vn 0 0.739144 0.673547
vn 0 0.510489 0.859884
vn 0 0.632988 0.774162
vn 0 0.739144 0.673547
vn 0 0.135331 0.990801
vn 0 0.260537 0.965464
vn 0 0.009964 0.99995
vn 0 0.009964 0.99995
vn -1 0 0
vn -1 0 0
vn -1 0 0
vn -1 0 0
vn -1 0 0
vn -1 0 0
vn 1 0.000007 0
vn 1 0.000007 0
vn 1 -0.000014 0
vn 1 0.000019 0.000082
vn 1 0.000025 0.000122
vn 1 0.000105 0.000245
vn 0 1 0
vn 0 1 0
vn 0 1 0
vn 0 1 0
vn 0 1 0
vn 0 1 0
vn 0 1 0
vn 0 1 0
vn -0.972029 0 0.234861
vn -0.882814 0 0.469722
vn -0.971577 0 -0.236725
vn -0.880821 0 -0.473449
vn 0.934827 0 0.355104
vn 0.933731 0 -0.357975
vn 0.933731 0 -0.357975
vn 0.934827 0 0.355104
vn -0.536934 0 -0.843624
vn -0.268467 0 -0.963289
vn 0.268467 0 -0.963289
vn 0.536934 0 -0.843624
vn -0.540536 0 0.841321
vn -0.270268 0 0.962785
vn 0.270268 0 0.962785
vn 0.540536 0 0.841321
vn -0.917804 0 -0.397034
vn -0.915333 0 0.402697
vn -0.917788 0.025941 -0.396222
vn -0.914933 0.052196 0.400216
vn -0.912096 0.164231 -0.375645
vn -0.909409 0.229135 0.347092
vn -0.863947 0.428893 -0.263905
vn -0.79763 0.585755 0.143794
vn -0.682516 0.094528 -0.724732
vn -0.684728 0 -0.728798
vn -0.637598 0.425092 -0.642469
vn -0.656941 0.725888 -0.203753
vn -0.643081 0.654143 0.398175
vn -0.650328 0.27989 0.706212
vn -0.674906 0.047557 0.73637
vn -0.67567 0 0.737204
usemtl datan_common_itemDelay_d190518f
f 1/1/1 2/2/2 3/3/3
f 3/3/3 4/4/4 1/1/1
f 4/4/4 3/3/3 5/5/5
f 5/5/5 6/6/6 4/4/4
f 6/6/6 5/5/5 7/7/7
f 7/7/7 8/8/8 6/6/6
f 9/9/9 10/10/10 11/11/11
f 11/11/11 12/12/12 9/9/9
f 13/13/13 14/14/14 15/15/15
f 15/15/15 16/16/16 13/13/13
f 11/11/11 10/10/10 17/17/17
f 17/17/17 18/18/18 11/11/11
f 18/18/18 17/17/17 19/19/19
f 19/19/19 20/20/20 18/18/18
f 20/20/20 19/19/19 16/16/16
f 16/16/16 15/15/15 20/20/20
f 10/10/10 9/9/9 21/21/21
f 21/21/21 17/17/17 10/10/10
f 17/17/17 21/21/21 22/22/22
f 22/22/22 19/19/19 17/17/17
f 19/19/19 22/22/22 13/13/13
f 13/13/13 16/16/16 19/19/19
f 9/9/9 12/12/12 23/23/23
f 23/23/23 24/24/24 9/9/9
f 14/14/14 13/13/13 25/25/25
f 25/25/25 26/26/26 14/14/14
f 21/21/21 9/9/9 24/24/24
f 24/24/24 27/27/27 21/21/21
f 22/22/22 21/21/21 27/27/27
f 27/27/27 28/28/28 22/22/22
f 13/13/13 22/22/22 28/28/28
f 28/28/28 25/25/25 13/13/13
f 24/24/24 23/23/23 29/29/29
f 29/29/29 30/30/30 24/24/24
f 27/27/27 24/24/24 30/30/30
f 30/30/30 31/31/31 27/27/27
f 28/28/28 27/27/27 31/31/31
f 31/31/31 32/32/32 28/28/28
f 26/26/26 25/25/25 33/33/33
f 33/33/33 34/34/34 26/26/26
f 25/25/25 28/28/28 32/32/32
f 32/32/32 33/33/33 25/25/25
f 35/35/35 36/36/36 37/37/37
f 37/37/37 38/38/38 35/35/35
f 38/38/38 37/37/37 39/39/39
f 39/39/39 40/40/40 38/38/38
f 40/40/40 39/39/39 41/41/41
f 41/41/41 42/42/42 40/40/40
f 43/43/43 44/44/44 37/37/37
f 37/37/37 36/36/36 43/43/43
f 44/44/44 45/45/45 39/39/39
f 39/39/39 37/37/37 44/44/44
f 45/45/45 46/46/46 41/41/41
f 41/41/41 39/39/39 45/45/45
f 46/46/46 47/47/47 42/42/42
f 42/42/42 41/41/41 46/46/46
f 47/47/47 48/48/48 40/40/40
f 40/40/40 42/42/42 47/47/47
f 48/48/48 49/49/49 38/38/38
f 38/38/38 40/40/40 48/48/48
f 49/49/49 50/50/50 35/35/35
f 35/35/35 38/38/38 49/49/49
f 51/51/51 52/52/52 53/53/53
f 53/53/53 54/54/54 51/51/51
f 52/52/52 55/55/55 56/56/56
f 56/56/56 53/53/53 52/52/52
f 55/55/55 57/57/57 58/58/58
f 58/58/58 56/56/56 55/55/55
f 59/59/59 60/60/60 61/61/61
f 61/61/61 62/62/62 59/59/59
f 60/60/60 63/63/63 64/64/64
f 64/64/64 61/61/61 60/60/60
f 65/65/65 66/66/66 67/67/67
f 67/67/67 68/68/68 65/65/65
f 68/68/68 67/67/67 69/69/69
f 69/69/69 70/70/70 68/68/68
f 71/71/71 72/72/72 73/73/73
f 73/73/73 74/74/74 71/71/71
f 74/74/74 73/73/73 75/75/75
f 75/75/75 76/76/76 74/74/74
f 76/76/76 75/75/75 77/77/77
f 77/77/77 78/78/78 76/76/76
f 79/79/79 80/80/80 81/81/81
f 81/81/81 82/82/82 79/79/79
f 83/83/83 84/84/84 85/85/85
f 85/85/85 86/86/86 83/83/83
f 82/82/82 81/81/81 87/87/87
f 87/87/87 88/88/88 82/82/82
f 88/88/88 87/87/87 89/89/89
f 89/89/89 90/90/90 88/88/88
f 90/90/90 89/89/89 85/85/85
f 85/85/85 84/84/84 90/90/90
f 80/80/80 79/79/79 91/91/91
f 91/91/91 92/92/92 80/80/80
f 92/92/92 91/91/91 93/93/93
f 93/93/93 94/94/94 92/92/92
f 94/94/94 93/93/93 83/83/83
f 83/83/83 86/86/86 94/94/94
f 95/95/95 96/96/96 97/97/97
f 98/98/98 97/97/97 96/96/96
f 97/97/97 98/98/98 99/99/99
f 100/100/100 99/99/99 98/98/98
f 99/99/99 100/100/100 101/101/101
f 102/102/102 101/101/101 100/100/100
f 103/103/103 104/104/104 97/97/97
f 95/95/95 97/97/97 104/104/104
f 105/105/105 103/103/103 99/99/99
f 97/97/97 99/99/99 103/103/103
f 106/106/106 105/105/105 101/101/101
f 99/99/99 101/101/101 105/105/105
f 107/107/107 106/106/106 102/102/102
f 101/101/101 102/102/102 106/106/106
f 108/108/108 107/107/107 100/100/100
f 102/102/102 100/100/100 107/107/107
f 109/109/109 108/108/108 98/98/98
f 100/100/100 98/98/98 108/108/108
f 110/110/110 109/109/109 96/96/96
