# Generated from Nova1492 GX by tools/nova1492/GxObjConverter
mtllib datan_common_key_581b4ead.mtl
o datan_common_key_581b4ead
v -27.22815 -13.98396 0
v -32.23805 -8.169453 0
v -12.12983 -13.98396 0
v -5.238543 -10.19755 0
v -7.643967 -9.498093 0
v -1.876768 -3.936215 0
v -1.876768 -3.936215 0
v 36.5334 0.850234 0
v 36.44645 -3.936215 0
v -7.643967 -9.498093 2.222016
v -5.238543 -10.19755 2.222016
v -7.643967 10.78666 2.222016
v -1.876768 -3.936215 2.222016
v 33.33986 4.791561 2.222016
v -1.876768 4.342685 2.222016
v -27.22815 -13.98396 0
v -12.12983 -13.98396 2.222016
v -27.22815 -13.98396 2.222016
v -5.238543 -10.19755 0
v -1.876768 -3.936215 2.222016
v -5.238543 -10.19755 2.222016
v -1.876768 -3.936215 0
v 36.44645 -3.936215 2.222016
v -1.876768 -3.936215 2.222016
v 36.44645 -3.936215 0
v 36.50594 -0.661225 2.222016
v 36.44645 -3.936215 2.222016
v 32.25617 5.875245 0
v -1.876768 5.875244 0.699883
v 32.25617 5.875245 0.699883
v -1.876768 5.875244 0
v -5.511736 11.3468 2.222016
v -1.876768 5.875244 0.699883
v -11.98236 15.12506 0
v -27.22815 15.12506 2.222016
v -11.98236 15.12506 2.222016
v -32.23805 10.1748 0
v -32.23805 -8.169453 2.222016
v -32.23805 10.1748 2.222016
v 36.02734 2.104081 0
v 32.25617 5.875245 0
v 36.02734 2.104081 0.699883
v -7.643967 10.78666 0
v -11.98236 15.12506 0
v -5.511736 11.3468 0
v -11.98236 15.12506 2.222016
v -5.511736 11.3468 2.222016
v -5.511736 11.3468 0
v -11.98236 15.12506 2.222016
v -5.511736 11.3468 2.222016
v -27.22815 15.12506 0
v -32.23805 10.1748 2.222016
v -27.22815 15.12506 2.222016
v -12.12983 -13.98396 2.222016
v -12.12983 -13.98396 0
v -5.238543 -10.19755 2.222016
v -12.12983 -13.98396 2.222016
v -27.22815 -13.98396 2.222016
v -32.23805 -8.169453 0
v -27.22815 -13.98396 0
v -2.724821 7.15178 2.222016
v -1.876768 4.342685 2.222016
v 33.33986 4.791561 2.222016
v -1.876768 5.875244 0.699883
v -1.876768 4.342685 2.222016
v 36.5334 0.850234 0
v 36.02734 2.104081 0.699883
v 36.5334 0.850234 0.699883
v 36.02734 2.104081 0.699883
v 36.50594 -0.661225 2.222016
v 36.5334 0.850234 0.699883
v -12.12983 -13.98396 2.222016
v -27.22815 -13.98396 2.222016
v 32.25617 5.875245 0.699883
v 33.33986 4.791561 2.222016
v 36.02734 2.104081 0.699883
v -32.23805 10.1748 0
v -27.22815 15.12506 0
v -1.876768 5.875244 0
v 32.25617 5.875245 0
v 36.02734 2.104081 0
v 36.5334 0.850234 0
v -1.876768 5.875244 0
v 32.25617 5.875245 0
v -1.876768 -3.936215 2.222016
v -1.876768 4.342685 2.222016
v -2.724821 7.15178 2.222016
v 36.44645 -3.936215 2.222016
v 36.50594 -0.661225 2.222016
v 34.9584 3.17302 2.222016
v 36.44645 -3.936215 2.222016
v 34.9584 3.17302 2.222016
v -12.12983 -13.98396 0
v -1.876768 -3.936215 0
v 36.44645 -3.936215 0
v 36.5334 0.850234 0
v 36.5334 0.850234 0.699883
v -1.876768 5.875244 0
v -5.511736 11.3468 0
v -27.22815 15.12506 0
v -32.23805 -8.169453 0
v 32.25617 5.875245 0.699883
v -11.98236 15.12506 0
v -32.23805 10.1748 0
v -5.238543 -10.19755 0
v -32.23805 -8.169453 2.222016
v 32.25617 5.875245 0.699883
v 36.02734 2.104081 0
v 34.9584 3.17302 2.222016
v -27.22815 15.12506 2.222016
v -32.23805 10.1748 2.222016
v -32.23805 -8.169453 2.222016
v 34.9584 3.17302 2.222016
vt 0.099231 0.48903
vt 0.015046 0.391328
vt 0.35294 0.489033
vt 0.468747 0.425408
vt 0.428327 0.413654
vt 0.525241 0.320195
vt 0.990147 0.014953
vt 0.883479 0.994683
vt 0.990147 0.994683
vt 0.42864 0.080272
vt 0.470658 0.069835
vt 0.421066 0.421126
vt 0.990147 0.014953
vt 0.78267 0.900043
vt 0.78267 0.014953
vt 0.014978 0.784691
vt 0.75411 0.981948
vt 0.014978 0.981948
vt 0.014978 0.784691
vt 0.75411 0.981948
vt 0.014978 0.981948
vt 0.014978 0.784691
vt 0.75411 0.981948
vt 0.014978 0.981948
vt 0.013461 0.50469
vt 0.227106 0.75833
vt 0.013461 0.75833
vt 0.75411 0.981948
vt 0.014978 0.890608
vt 0.75411 0.890608
vt 0.55277 0.40758
vt 0.748296 0.014859
vt 0.66021 0.40758
vt 0.75411 0.981948
vt 0.014978 0.784691
vt 0.75411 0.784691
vt 0.75411 0.981948
vt 0.014978 0.784691
vt 0.75411 0.784691
vt 0.443963 0.50469
vt 0.755917 0.50469
vt 0.443963 0.633193
vt 0.428317 0.072798
vt 0.355414 -0.000101
vt 0.46415 0.063385
vt 0.348037 0.492326
vt 0.456796 0.431289
vt 0.75411 0.981948
vt 0.014978 0.784691
vt 0.75411 0.784691
vt 0.75411 0.981948
vt 0.014978 0.784691
vt 0.75411 0.784691
vt 0.356679 0.002148
vt 0.014978 0.784691
vt 0.75411 0.981948
vt 0.014978 0.981948
vt 0.014978 0.784691
vt 0.75411 0.981948
vt 0.014978 0.981948
vt 0.748296 0.331273
vt 0.748296 0.486686
vt 0.75411 0.784691
vt 0.014978 0.890608
vt 0.014978 0.784691
vt 0.342441 0.50469
vt 0.42121 0.633193
vt 0.342441 0.633193
vt 0.42121 0.65776
vt 0.263486 0.75833
vt 0.342441 0.65776
vt 0.353862 0.003342
vt 0.099242 -0.000586
vt 0.755917 0.65776
vt 0.668299 0.75833
vt 0.443963 0.65776
vt 0.015041 0.08308
vt 0.099228 -0.000102
vt 0.525239 0.155327
vt 0.78267 0.900043
vt 0.822464 0.967538
vt 0.883479 0.994683
vt 0.78267 0.014953
vt 0.78267 0.900043
vt 0.524005 0.176762
vt 0.519989 0.315788
vt 0.504566 0.362395
vt 0.990147 0.994683
vt 0.883479 0.994683
vt 0.822464 0.967538
vt 0.990147 0.994683
vt 0.822464 0.967538
vt 0.75411 0.784691
vt 0.75411 0.784691
vt 0.75411 0.784691
vt 0.321324 0.50469
vt 0.321324 0.633193
vt 0.014978 0.981948
vt 0.55277 0.014859
vt 0.014978 0.981948
vt 0.014978 0.981948
vt 0.755917 0.633193
vt 0.014978 0.981948
vt 0.014978 0.981948
vt 0.75411 0.784691
vt 0.75411 0.784691
vt 0.75411 0.890608
vt 0.42121 0.50469
vt 0.49995 0.75833
vt 0.092843 0.488646
vt 0.010292 0.405147
vt 0.012753 0.096487
vt 0.519262 0.75833
vn 0 0 -1
vn 0 0 -1
vn 0 0 -1
vn 0 0 -1
vn 0 0 -1
vn 0 0 -1
vn 0 0 -1
vn 0 0 -1
vn 0 0 -1
vn 0 0 1
vn 0 0 1
vn 0 0 1
vn 0 0 1
vn 0 0 1
vn 0 0 1
vn 0 -1 0
vn 0.248576 -0.968612 0
vn 0 -1 0
vn 0.881041 -0.47304 -0
vn 0.881041 -0.47304 -0
vn 0.881041 -0.47304 -0
vn 0 -1 0
vn 0 -1 0
vn 0 -1 0
vn 0.999835 -0.018163 0
vn 0.991514 0.082864 0.100169
vn 0.999835 -0.018163 0
vn -0 1 0
vn -0 1 0
vn -0 1 0
vn 0.832944 0.553357 0
vn 0.686348 0.727273 0
vn 0.883559 0.455065 0.110633
vn 0 1 0
vn 0 1 0
vn 0 1 0
vn -1 0 0
vn -1 0 0
vn -1 0 0
vn 0.833985 0.551788 0
vn 0.707107 0.707107 0
vn 0.849724 0.50898 0.137506
vn 0 0 -1
vn 0 0 -1
vn 0 0 -1
vn 0 0 1
vn 0 0 1
vn 0.686348 0.727273 0
vn 0.504242 0.863562 0
vn 0.686348 0.727273 0
vn -0.70286 0.711328 -0
vn -0.70286 0.711329 -0
vn -0.70286 0.711328 -0.000001
vn 0 0 1
vn 0.248576 -0.968612 0
vn 0.481548 -0.87642 0
vn 0.248576 -0.968612 0
vn -0.757577 -0.652745 -0.000001
vn -0.757577 -0.652745 -0
vn -0.757577 -0.652745 -0.000001
vn 0.868845 0.489603 0.073469
vn 0.919199 0.277502 0.279403
vn -0.000523 0.808877 0.587978
vn -0.008683 0.708704 0.705452
vn -0.008982 0.704661 0.709487
vn 0.983352 0.18171 0
vn 0.849724 0.50898 0.137506
vn 0.964968 0.22345 0.137505
vn 0.849724 0.50898 0.137506
vn 0.991514 0.082864 0.100169
vn 0.964968 0.22345 0.137505
vn 0 0 1
vn 0 0 1
vn 0.707107 0.707107 0
vn 0.707107 0.707107 0
vn 0.849724 0.50898 0.137506
vn 0 0 -1
vn 0 0 -1
vn 0 0 -1
vn 0 0 -1
vn 0 0 -1
vn 0 0 -1
vn 0 0 -1
vn 0 0 -1
vn 0 0 1
vn 0 0 1
vn 0 0 1
vn 0 0 1
vn 0 0 1
vn 0 0 1
vn 0 0 1
vn 0 0 1
vn 0.248576 -0.968612 0
vn 0.881041 -0.47304 0
vn 0 -1 0
vn 0.983352 0.18171 0
vn 0.964968 0.22345 0.137505
vn -0 1 0
vn 0.686348 0.727273 0
vn 0 1 0
vn -1 0 0
vn 0.707107 0.707107 0
vn 0.504242 0.863562 0
vn -0.70286 0.711329 0
vn 0.481548 -0.87642 0
vn -0.757577 -0.652745 0
vn -0 0.814632 0.579978
vn 0.833985 0.551788 0
vn 0.771245 0.628608 0.100169
vn 0 0 1
vn 0 0 1
vn 0 0 1
vn 0.771245 0.628608 0.100169
usemtl datan_common_key_581b4ead
f 1/1/1 2/2/2 3/3/3
f 2/2/2 77/77/77 78/78/78
f 2/2/2 78/78/78 43/43/43
f 2/2/2 43/43/43 3/3/3
f 3/3/3 5/5/5 4/4/4
f 43/43/43 5/5/5 3/3/3
f 43/43/43 44/44/44 45/45/45
f 78/78/78 44/44/44 43/43/43
f 5/5/5 43/43/43 45/45/45
f 4/4/4 5/5/5 6/6/6
f 5/5/5 45/45/45 79/79/79
f 5/5/5 79/79/79 6/6/6
f 7/7/7 8/8/8 9/9/9
f 7/7/7 83/83/83 8/8/8
f 83/83/83 84/84/84 8/8/8
f 10/10/10 11/11/11 12/12/12
f 11/11/11 10/10/10 54/54/54
f 72/72/72 10/10/10 73/73/73
f 10/10/10 12/12/12 46/46/46
f 10/10/10 46/46/46 73/73/73
f 11/11/11 85/85/85 87/87/87
f 11/11/11 87/87/87 12/12/12
f 46/46/46 12/12/12 47/47/47
f 87/87/87 47/47/47 12/12/12
f 46/46/46 110/110/110 111/111/111
f 46/46/46 111/111/111 73/73/73
f 111/111/111 112/112/112 73/73/73
f 85/85/85 86/86/86 87/87/87
f 13/13/13 14/14/14 15/15/15
f 13/13/13 91/91/91 14/14/14
f 91/91/91 92/92/92 14/14/14
f 16/16/16 17/17/17 18/18/18
f 16/16/16 93/93/93 17/17/17
f 19/19/19 20/20/20 21/21/21
f 19/19/19 94/94/94 20/20/20
f 22/22/22 23/23/23 24/24/24
f 22/22/22 95/95/95 23/23/23
f 25/25/25 26/26/26 27/27/27
f 25/25/25 96/96/96 26/26/26
f 96/96/96 97/97/97 26/26/26
f 28/28/28 29/29/29 30/30/30
f 28/28/28 98/98/98 29/29/29
f 31/31/31 32/32/32 33/33/33
f 31/31/31 99/99/99 32/32/32
f 32/32/32 61/61/61 33/33/33
f 33/33/33 61/61/61 62/62/62
f 34/34/34 35/35/35 36/36/36
f 34/34/34 100/100/100 35/35/35
f 37/37/37 38/38/38 39/39/39
f 37/37/37 101/101/101 38/38/38
f 40/40/40 41/41/41 42/42/42
f 41/41/41 102/102/102 42/42/42
f 48/48/48 49/49/49 50/50/50
f 48/48/48 103/103/103 49/49/49
f 51/51/51 52/52/52 53/53/53
f 51/51/51 104/104/104 52/52/52
f 55/55/55 56/56/56 57/57/57
f 55/55/55 105/105/105 56/56/56
f 58/58/58 59/59/59 60/60/60
f 58/58/58 106/106/106 59/59/59
f 63/63/63 64/64/64 65/65/65
f 63/63/63 107/107/107 64/64/64
f 66/66/66 67/67/67 68/68/68
f 66/66/66 108/108/108 67/67/67
f 69/69/69 70/70/70 71/71/71
f 69/69/69 109/109/109 70/70/70
f 74/74/74 75/75/75 76/76/76
f 75/75/75 113/113/113 76/76/76
