# Generated from Nova1492 GX by tools/nova1492/GxObjConverter
mtllib datan_common_DeckNum3_150d58f4.mtl
o datan_common_DeckNum3_150d58f4_mesh00
v 14.51239 -14.51239 36.54133
v 9.461504 -16.01028 31.53445
v 20 -20 0
v 14.51239 14.51239 36.54133
v 16.01028 9.461504 31.53445
v 20 20 0
v -14.51239 14.51239 36.54133
v -9.461504 16.01028 31.53445
v -20 20 0
v -14.51239 -14.51239 36.54133
v -16.01028 -9.461504 31.53445
v -20 -20 0
v 20 -20 0
v 16.01028 9.461504 31.53445
v 16.01028 -9.461504 31.53445
v 20 20 0
v 16.01028 -9.461504 31.53445
v 14.51239 -14.51239 36.54133
v 20 -20 0
v 9.461504 16.01028 31.53445
v 14.51239 14.51239 36.54133
v 20 20 0
v 9.461504 16.01028 31.53445
v 20 20 0
v -20 20 0
v -9.461504 16.01028 31.53445
v -16.01028 9.461504 31.53445
v -14.51239 14.51239 36.54133
v -20 20 0
v -9.461504 -16.01028 31.53445
v -14.51239 -14.51239 36.54133
v -20 -20 0
v -16.01028 9.461504 31.53445
v -20 20 0
v -20 -20 0
v -16.01028 -9.461504 31.53445
v -9.461504 -16.01028 31.53445
v -20 -20 0
v 20 -20 0
v 9.461504 -16.01028 31.53445
v -14.51239 -14.51239 36.54133
v -9.461504 -16.01028 31.53445
v -5.386209 -5.386209 43.46432
v -9.461504 -16.01028 31.53445
v -16.01028 -9.461504 31.53445
v -5.386209 -5.386209 43.46432
v -16.01028 -9.461504 31.53445
v -14.51239 -14.51239 36.54133
v -5.386209 -5.386209 43.46432
v 14.51239 -14.51239 36.54133
v 16.01028 -9.461504 31.53445
v 5.386209 -5.386209 43.46432
v 16.01028 -9.461504 31.53445
v 9.461504 -16.01028 31.53445
v 5.386209 -5.386209 43.46432
v 9.461504 -16.01028 31.53445
v 14.51239 -14.51239 36.54133
v 5.386209 -5.386209 43.46432
v 14.51239 14.51239 36.54133
v 9.461504 16.01028 31.53445
v 5.386209 5.386209 43.46432
v 9.461504 16.01028 31.53445
v 16.01028 9.461504 31.53445
v 5.386209 5.386209 43.46432
v 16.01028 9.461504 31.53445
v 14.51239 14.51239 36.54133
v 5.386209 5.386209 43.46432
v -14.51239 14.51239 36.54133
v -16.01028 9.461504 31.53445
v -5.386209 5.386209 43.46432
v -16.01028 9.461504 31.53445
v -9.461504 16.01028 31.53445
v -5.386209 5.386209 43.46432
v -9.461504 16.01028 31.53445
v -14.51239 14.51239 36.54133
v -5.386209 5.386209 43.46432
v -6.695739 -9.333139 27.41583
v -16.01028 -9.461504 31.53445
v -9.461504 -16.01028 31.53445
v -9.333139 -6.695739 27.41583
v -9.461504 -16.01028 31.53445
v 9.461504 -16.01028 31.53445
v 6.695739 -9.333139 27.41583
v -6.695739 -9.333139 27.41583
v 16.01028 -9.461504 31.53445
v 9.333139 -6.695739 27.41583
v 9.461504 -16.01028 31.53445
v 6.695739 -9.333139 27.41583
v 9.333139 6.695739 27.41583
v 16.01028 -9.461504 31.53445
v 16.01028 9.461504 31.53445
v 9.333139 -6.695739 27.41583
v 9.333139 6.695739 27.41583
v 16.01028 9.461504 31.53445
v 6.695739 9.333139 27.41583
v 9.461504 16.01028 31.53445
v 9.461504 16.01028 31.53445
v -9.461504 16.01028 31.53445
v -6.695739 9.333139 27.41583
v 6.695739 9.333139 27.41583
v -9.461504 16.01028 31.53445
v -9.333139 6.695739 27.41583
v -6.695739 9.333139 27.41583
v -16.01028 9.461504 31.53445
v -9.333139 -6.695739 27.41583
v -9.333139 6.695739 27.41583
v -16.01028 9.461504 31.53445
v -16.01028 -9.461504 31.53445
v -9.333139 -6.695739 27.41583
v -6.695739 -9.333139 27.41583
v 0 0 38.45656
v -6.695739 -9.333139 27.41583
v 6.695739 -9.333139 27.41583
v 0 0 38.45656
v 6.695739 -9.333139 27.41583
v 9.333139 -6.695739 27.41583
v 0 0 38.45656
v 9.333139 -6.695739 27.41583
v 9.333139 6.695739 27.41583
v 0 0 38.45656
v 9.333139 6.695739 27.41583
v 6.695739 9.333139 27.41583
v 0 0 38.45656
v 6.695739 9.333139 27.41583
v -6.695739 9.333139 27.41583
v 0 0 38.45656
v -6.695739 9.333139 27.41583
v -9.333139 6.695739 27.41583
v 0 0 38.45656
v -9.333139 6.695739 27.41583
v -9.333139 -6.695739 27.41583
v 0 0 38.45656
vt 0.131959 0.956117
vt 0.262806 0.826608
vt 0.005361 0.018372
vt 0.131959 0.956117
vt 0.262806 0.826608
vt 0.005361 0.018372
vt 0.131959 0.956117
vt 0.262806 0.826608
vt 0.005361 0.018372
vt 0.131959 0.956117
vt 0.262806 0.826608
vt 0.005361 0.018372
vt 0.012683 0.007688
vt 0.643694 0.688481
vt 0.238398 0.688481
vt 0.869409 0.007688
vt 0.262806 0.826608
vt 0.131959 0.956117
vt 0.005361 0.018372
vt 0.262806 0.826608
vt 0.131959 0.956117
vt 0.005361 0.018372
vt 0.238398 0.688481
vt 0.012683 0.007688
vt 0.869409 0.007688
vt 0.643694 0.688481
vt 0.262806 0.826608
vt 0.131959 0.956117
vt 0.005361 0.018372
vt 0.262806 0.826608
vt 0.131959 0.956117
vt 0.005361 0.018372
vt 0.238398 0.688481
vt 0.012683 0.007688
vt 0.869409 0.007688
vt 0.643694 0.688481
vt 0.238398 0.688481
vt 0.012683 0.007688
vt 0.869409 0.007688
vt 0.643694 0.688481
vt 0.292848 0.994716
vt 0.234335 0.881484
vt 0.523452 0.881627
vt 0.991881 0.615775
vt 0.673248 0.615775
vt 0.831646 0.270883
vt 0.234335 0.881484
vt 0.292848 0.994716
vt 0.523452 0.881627
vt 0.292848 0.994716
vt 0.234335 0.881484
vt 0.523452 0.881627
vt 0.991881 0.615775
vt 0.673248 0.615775
vt 0.831646 0.270883
vt 0.234335 0.881484
vt 0.292848 0.994716
vt 0.523452 0.881627
vt 0.292848 0.994716
vt 0.234335 0.881484
vt 0.523452 0.881627
vt 0.991881 0.615775
vt 0.673248 0.615775
vt 0.831646 0.270883
vt 0.234335 0.881484
vt 0.292848 0.994716
vt 0.523452 0.881627
vt 0.292848 0.994716
vt 0.234335 0.881484
vt 0.523452 0.881627
vt 0.991881 0.615775
vt 0.673248 0.615775
vt 0.831646 0.270883
vt 0.234335 0.881484
vt 0.292848 0.994716
vt 0.523452 0.881627
vt 0.725745 0.787873
vt 0.554672 0.99449
vt 0.798586 0.99449
vt 0.627513 0.787873
vt 0.247046 0.699596
vt 0.644141 0.699596
vt 0.586102 0.864225
vt 0.305085 0.864226
vt 0.798586 0.99449
vt 0.725745 0.787873
vt 0.554672 0.99449
vt 0.627513 0.787873
vt 0.586102 0.864225
vt 0.247046 0.699596
vt 0.644141 0.699596
vt 0.305085 0.864226
vt 0.627513 0.787873
vt 0.554672 0.99449
vt 0.725745 0.787873
vt 0.798586 0.99449
vt 0.247046 0.699596
vt 0.644141 0.699596
vt 0.586102 0.864225
vt 0.305085 0.864226
vt 0.554672 0.99449
vt 0.725745 0.787873
vt 0.627513 0.787873
vt 0.798586 0.99449
vt 0.586102 0.864226
vt 0.305084 0.864226
vt 0.247045 0.699596
vt 0.644141 0.699596
vt 0.009294 0.977019
vt 0.122489 0.977019
vt 0.055254 0.515579
vt 0.680636 0.653246
vt 0.995436 0.653246
vt 0.834853 0.993095
vt 0.009294 0.977019
vt 0.122489 0.977019
vt 0.055254 0.515579
vt 0.680636 0.653246
vt 0.995436 0.653246
vt 0.834853 0.993095
vt 0.009294 0.977019
vt 0.122489 0.977019
vt 0.055254 0.515579
vt 0.680636 0.653246
vt 0.995436 0.653246
vt 0.834853 0.993095
vt 0.009294 0.977019
vt 0.122489 0.977019
vt 0.055254 0.515579
vt 0.680636 0.653246
vt 0.995436 0.653246
vt 0.834853 0.993095
vn 0.125742 -0.978115 0.165772
vn 0.065441 -0.987007 0.146745
vn 0.015386 -0.991321 0.130563
vn 0.978115 0.125742 0.165772
vn 0.987007 0.065441 0.146745
vn 0.991321 0.015386 0.130563
vn -0.125742 0.978115 0.165772
vn -0.065441 0.987007 0.146745
vn -0.015386 0.991321 0.130563
vn -0.978115 -0.125742 0.165772
vn -0.987007 -0.065441 0.146745
vn -0.991321 -0.015386 0.130563
vn 0.991321 -0.015386 0.130563
vn 0.987007 0.065441 0.146745
vn 0.987007 -0.065441 0.146745
vn 0.991321 0.015386 0.130563
vn 0.987007 -0.065441 0.146745
vn 0.978115 -0.125742 0.165772
vn 0.991321 -0.015386 0.130563
vn 0.065441 0.987007 0.146745
vn 0.125742 0.978115 0.165772
vn 0.015386 0.991321 0.130563
vn 0.065441 0.987007 0.146745
vn 0.015386 0.991321 0.130563
vn -0.015386 0.991321 0.130563
vn -0.065441 0.987007 0.146745
vn -0.987007 0.065441 0.146745
vn -0.978115 0.125742 0.165772
vn -0.991321 0.015386 0.130563
vn -0.065441 -0.987007 0.146745
vn -0.125742 -0.978115 0.165772
vn -0.015386 -0.991321 0.130563
vn -0.987007 0.065441 0.146745
vn -0.991321 0.015386 0.130563
vn -0.991321 -0.015386 0.130563
vn -0.987007 -0.065441 0.146745
vn -0.065441 -0.987007 0.146745
vn -0.015386 -0.991321 0.130563
vn 0.015386 -0.991321 0.130563
vn 0.065441 -0.987007 0.146745
vn 0.331919 -0.757928 0.561583
vn 0.331919 -0.757928 0.561583
vn 0.331919 -0.757928 0.561583
vn 0.533139 0.533139 -0.656906
vn 0.533139 0.533139 -0.656906
vn 0.533139 0.533139 -0.656906
vn -0.757928 0.331919 0.561583
vn -0.757928 0.331919 0.561583
vn -0.757928 0.331919 0.561583
vn 0.757928 0.331919 0.561583
vn 0.757928 0.331919 0.561583
vn 0.757928 0.331919 0.561583
vn -0.533139 0.533139 -0.656906
vn -0.533139 0.533139 -0.656906
vn -0.533139 0.533139 -0.656906
vn -0.331919 -0.757928 0.561583
vn -0.331919 -0.757928 0.561583
vn -0.331919 -0.757928 0.561583
vn -0.331919 0.757928 0.561583
vn -0.331919 0.757928 0.561583
vn -0.331919 0.757928 0.561583
vn -0.533139 -0.533139 -0.656906
vn -0.533139 -0.533139 -0.656906
vn -0.533139 -0.533139 -0.656906
vn 0.757928 -0.331919 0.561583
vn 0.757928 -0.331919 0.561583
vn 0.757928 -0.331919 0.561583
vn -0.757928 -0.331919 0.561583
vn -0.757928 -0.331919 0.561583
vn -0.757928 -0.331919 0.561583
vn 0.533139 -0.533139 -0.656906
vn 0.533139 -0.533139 -0.656906
vn 0.533139 -0.533139 -0.656906
vn 0.331919 0.757928 0.561583
vn 0.331919 0.757928 0.561583
vn 0.331919 0.757928 0.561583
vn 0.37122 0.37122 0.851112
vn 0.37122 0.37122 0.851112
vn 0.37122 0.37122 0.851112
vn 0.37122 0.37122 0.851112
vn 0 0.524985 0.851112
vn 0 0.524985 0.851112
vn 0 0.524985 0.851112
vn 0 0.524985 0.851112
vn -0.37122 0.37122 0.851112
vn -0.37122 0.37122 0.851112
vn -0.37122 0.37122 0.851112
vn -0.37122 0.37122 0.851112
vn -0.524985 0 0.851112
vn -0.524985 0 0.851112
vn -0.524985 0 0.851112
vn -0.524985 0 0.851112
vn -0.37122 -0.37122 0.851112
vn -0.37122 -0.37122 0.851112
vn -0.37122 -0.37122 0.851112
vn -0.37122 -0.37122 0.851112
vn 0 -0.524985 0.851112
vn 0 -0.524985 0.851112
vn 0 -0.524985 0.851112
vn 0 -0.524985 0.851112
vn 0.37122 -0.37122 0.851112
vn 0.37122 -0.37122 0.851112
vn 0.37122 -0.37122 0.851112
vn 0.37122 -0.37122 0.851112
vn 0.524985 0 0.851112
vn 0.524985 0 0.851112
vn 0.524985 0 0.851112
vn 0.524985 0 0.851112
vn -0.493401 -0.493401 0.716318
vn -0.493401 -0.493401 0.716318
vn -0.493401 -0.493401 0.716318
vn 0 -0.763694 0.645579
vn 0 -0.763694 0.645579
vn 0 -0.763694 0.645579
vn 0.493401 -0.493401 0.716318
vn 0.493401 -0.493401 0.716318
vn 0.493401 -0.493401 0.716318
vn 0.763694 0 0.645579
vn 0.763694 0 0.645579
vn 0.763694 0 0.645579
vn 0.493401 0.493401 0.716318
vn 0.493401 0.493401 0.716318
vn 0.493401 0.493401 0.716318
vn 0 0.763694 0.645579
vn 0 0.763694 0.645579
vn 0 0.763694 0.645579
vn -0.493401 0.493401 0.716318
vn -0.493401 0.493401 0.716318
vn -0.493401 0.493401 0.716318
vn -0.763694 0 0.645579
vn -0.763694 0 0.645579
vn -0.763694 0 0.645579
usemtl datan_common_DeckNum3_150d58f4
f 1/1/1 2/2/2 3/3/3
f 4/4/4 5/5/5 6/6/6
f 7/7/7 8/8/8 9/9/9
f 10/10/10 11/11/11 12/12/12
f 13/13/13 14/14/14 15/15/15
f 14/14/14 13/13/13 16/16/16
f 17/17/17 18/18/18 19/19/19
f 20/20/20 21/21/21 22/22/22
f 23/23/23 24/24/24 25/25/25
f 23/23/23 25/25/25 26/26/26
f 27/27/27 28/28/28 29/29/29
f 30/30/30 31/31/31 32/32/32
f 33/33/33 34/34/34 35/35/35
f 33/33/33 35/35/35 36/36/36
f 37/37/37 38/38/38 39/39/39
f 37/37/37 39/39/39 40/40/40
f 41/41/41 42/42/42 43/43/43
f 44/44/44 45/45/45 46/46/46
f 47/47/47 48/48/48 49/49/49
f 50/50/50 51/51/51 52/52/52
f 53/53/53 54/54/54 55/55/55
f 56/56/56 57/57/57 58/58/58
f 59/59/59 60/60/60 61/61/61
f 62/62/62 63/63/63 64/64/64
f 65/65/65 66/66/66 67/67/67
f 68/68/68 69/69/69 70/70/70
f 71/71/71 72/72/72 73/73/73
f 74/74/74 75/75/75 76/76/76
f 77/77/77 78/78/78 79/79/79
f 78/78/78 77/77/77 80/80/80
f 81/81/81 82/82/82 83/83/83
f 81/81/81 83/83/83 84/84/84
f 85/85/85 86/86/86 87/87/87
f 87/87/87 86/86/86 88/88/88
f 89/89/89 90/90/90 91/91/91
f 90/90/90 89/89/89 92/92/92
f 93/93/93 94/94/94 95/95/95
f 94/94/94 96/96/96 95/95/95
f 97/97/97 98/98/98 99/99/99
f 97/97/97 99/99/99 100/100/100
f 101/101/101 102/102/102 103/103/103
f 102/102/102 101/101/101 104/104/104
f 105/105/105 106/106/106 107/107/107
f 107/107/107 108/108/108 105/105/105
f 109/109/109 110/110/110 111/111/111
f 112/112/112 113/113/113 114/114/114
f 115/115/115 116/116/116 117/117/117
f 118/118/118 119/119/119 120/120/120
f 121/121/121 122/122/122 123/123/123
f 124/124/124 125/125/125 126/126/126
f 127/127/127 128/128/128 129/129/129
f 130/130/130 131/131/131 132/132/132
o datan_common_DeckNum3_150d58f4_mesh01
v 0 0 13.47773
v 4.910117 -4.910117 3.075818
v 4.910117 4.910117 3.075818
v 4.910117 4.910117 -3.075818
v 0 0 -13.47773
v -4.910117 4.910117 -3.075818
v -4.910117 4.910117 3.075818
v -4.910117 -4.910117 3.075818
v 0 0 13.47773
v -4.910117 -4.910117 -3.075818
v 0 0 -13.47773
v 4.910117 -4.910117 -3.075818
v 4.910117 4.910117 3.075818
v -4.910117 4.910117 3.075818
v 0 0 13.47773
v -4.910117 -4.910117 3.075818
v 4.910117 -4.910117 3.075818
v 0 0 13.47773
v 4.910117 -4.910117 -3.075818
v 0 0 -13.47773
v 4.910117 4.910117 -3.075818
v -4.910117 -4.910117 -3.075818
v -4.910117 4.910117 -3.075818
v 0 0 -13.47773
v 8.777322 4.282109 0
v 8.777322 -4.282109 0
v 4.910117 -4.910117 -3.075818
v 4.910117 4.910117 -3.075818
v 8.777322 -4.282109 0
v 8.777322 4.282109 0
v 4.910117 4.910117 3.075818
v 4.910117 -4.910117 3.075818
v 4.282109 8.777322 0
v -4.282109 8.777322 0
v -4.910117 4.910117 3.075818
v 4.910117 4.910117 3.075818
v 4.910117 4.910117 -3.075818
v -4.910117 4.910117 -3.075818
v -4.282109 8.777322 0
v 4.282109 8.777322 0
v -8.777322 -4.282109 0
v -4.910117 4.910117 -3.075818
v -4.910117 -4.910117 -3.075818
v -8.777322 4.282109 0
v -8.777322 4.282109 0
v -4.910117 -4.910117 3.075818
v -4.910117 4.910117 3.075818
v -8.777322 -4.282109 0
v 4.910117 -4.910117 3.075818
v -4.910117 -4.910117 3.075818
v -4.282109 -8.777322 0
v 4.282109 -8.777322 0
v 4.282109 -8.777322 0
v -4.282109 -8.777322 0
v -4.910117 -4.910117 -3.075818
v 4.910117 -4.910117 -3.075818
v 4.910117 -4.910117 3.075818
v 4.282109 -8.777322 0
v 8.777322 -4.282109 0
v 4.910117 4.910117 -3.075818
v 4.282109 8.777322 0
v 8.777322 4.282109 0
v -4.910117 4.910117 -3.075818
v -8.777322 4.282109 0
v -4.282109 8.777322 0
v -4.910117 -4.910117 -3.075818
v -4.282109 -8.777322 0
v -8.777322 -4.282109 0
v 4.282109 -8.777322 0
v 4.910117 -4.910117 -3.075818
v 8.777322 -4.282109 0
v 4.282109 8.777322 0
v 4.910117 4.910117 3.075818
v 8.777322 4.282109 0
v -8.777322 4.282109 0
v -4.910117 4.910117 3.075818
v -4.282109 8.777322 0
v -4.282109 -8.777322 0
v -4.910117 -4.910117 3.075818
v -8.777322 -4.282109 0
vt 0.427239 0.995189
vt 0.007997 0.004935
vt 0.85342 0.004935
vt 0.85342 0.004935
vt 0.427239 0.995189
vt 0.007997 0.004935
vt 0.007997 0.004935
vt 0.85342 0.004935
vt 0.427239 0.995189
vt 0.85342 0.004935
vt 0.427239 0.995189
vt 0.007997 0.004935
vt 0.007997 0.004935
vt 0.85342 0.004935
vt 0.427239 0.995189
vt 0.007997 0.004935
vt 0.85342 0.004935
vt 0.427239 0.995189
vt 0.85342 0.004935
vt 0.427239 0.995189
vt 0.007997 0.004935
vt 0.007997 0.004935
vt 0.85342 0.004935
vt 0.427239 0.995189
vt 0.701735 0.956385
vt 0.701735 0.446948
vt 0.995661 0.409592
vt 0.995661 0.993742
vt 0.701735 0.956385
vt 0.701735 0.446948
vt 0.995661 0.409592
vt 0.995661 0.993742
vt 0.701735 0.956385
vt 0.701735 0.446948
vt 0.995661 0.409592
vt 0.995661 0.993742
vt 0.995661 0.409592
vt 0.995661 0.993742
vt 0.701735 0.956385
vt 0.701735 0.446948
vt 0.701735 0.956385
vt 0.995661 0.409592
vt 0.995661 0.993742
vt 0.701735 0.446948
vt 0.701735 0.956385
vt 0.995661 0.409592
vt 0.995661 0.993742
vt 0.701735 0.446948
vt 0.995661 0.409592
vt 0.995661 0.993742
vt 0.701735 0.956385
vt 0.701735 0.446948
vt 0.701735 0.956385
vt 0.701735 0.446948
vt 0.995661 0.409592
vt 0.995661 0.993742
vt 0.297109 0.747145
vt 0.010247 0.98487
vt 0.010287 0.509373
vt 0.297109 0.747145
vt 0.010247 0.98487
vt 0.010287 0.509373
vt 0.297109 0.747145
vt 0.010247 0.98487
vt 0.010287 0.509373
vt 0.297109 0.747145
vt 0.010247 0.98487
vt 0.010287 0.509373
vt 0.010287 0.509373
vt 0.297109 0.747145
vt 0.010247 0.98487
vt 0.010287 0.509373
vt 0.297109 0.747145
vt 0.010247 0.98487
vt 0.010287 0.509373
vt 0.297109 0.747145
vt 0.010247 0.98487
vt 0.010287 0.509373
vt 0.297109 0.747145
vt 0.010247 0.98487
vn 0.904312 0 0.426872
vn 0.904312 0 0.426872
vn 0.904312 0 0.426872
vn 0 0.904312 -0.426872
vn 0 0.904312 -0.426872
vn 0 0.904312 -0.426872
vn -0.904312 0 0.426872
vn -0.904312 0 0.426872
vn -0.904312 0 0.426872
vn 0 -0.904312 -0.426872
vn 0 -0.904312 -0.426872
vn 0 -0.904312 -0.426872
vn 0 0.904312 0.426872
vn 0 0.904312 0.426872
vn 0 0.904312 0.426872
vn 0 -0.904312 0.426872
vn 0 -0.904312 0.426872
vn 0 -0.904312 0.426872
vn 0.904312 0 -0.426872
vn 0.904312 0 -0.426872
vn 0.904312 0 -0.426872
vn -0.904312 0 -0.426872
vn -0.904312 0 -0.426872
vn -0.904312 0 -0.426872
vn 0.622478 0 -0.782637
vn 0.622478 0 -0.782637
vn 0.622478 0 -0.782637
vn 0.622478 0 -0.782637
vn 0.622478 0 0.782637
vn 0.622478 0 0.782637
vn 0.622478 0 0.782637
vn 0.622478 0 0.782637
vn 0 0.622478 0.782637
vn 0 0.622478 0.782637
vn 0 0.622478 0.782637
vn 0 0.622478 0.782637
vn 0 0.622478 -0.782637
vn 0 0.622478 -0.782637
vn 0 0.622478 -0.782637
vn 0 0.622478 -0.782637
vn -0.622478 0 -0.782637
vn -0.622478 0 -0.782637
vn -0.622478 0 -0.782637
vn -0.622478 0 -0.782637
vn -0.622478 0 0.782637
vn -0.622478 0 0.782637
vn -0.622478 0 0.782637
vn -0.622478 0 0.782637
vn 0 -0.622478 0.782637
vn 0 -0.622478 0.782637
vn 0 -0.622478 0.782637
vn 0 -0.622478 0.782637
vn 0 -0.622478 -0.782637
vn 0 -0.622478 -0.782637
vn 0 -0.622478 -0.782637
vn 0 -0.622478 -0.782637
vn 0.567134 -0.567134 0.597259
vn 0.567134 -0.567134 0.597259
vn 0.567134 -0.567134 0.597259
vn 0.567134 0.567134 -0.597259
vn 0.567134 0.567134 -0.597259
vn 0.567134 0.567134 -0.597259
vn -0.567134 0.567134 -0.597259
vn -0.567134 0.567134 -0.597259
vn -0.567134 0.567134 -0.597259
vn -0.567134 -0.567134 -0.597259
vn -0.567134 -0.567134 -0.597259
vn -0.567134 -0.567134 -0.597259
vn 0.567134 -0.567134 -0.597259
vn 0.567134 -0.567134 -0.597259
vn 0.567134 -0.567134 -0.597259
vn 0.567134 0.567134 0.597259
vn 0.567134 0.567134 0.597259
vn 0.567134 0.567134 0.597259
vn -0.567134 0.567134 0.597259
vn -0.567134 0.567134 0.597259
vn -0.567134 0.567134 0.597259
vn -0.567134 -0.567134 0.597259
vn -0.567134 -0.567134 0.597259
vn -0.567134 -0.567134 0.597259
usemtl datan_common_DeckNum3_150d58f4
f 133/133/133 134/134/134 135/135/135
f 136/136/136 137/137/137 138/138/138
f 139/139/139 140/140/140 141/141/141
f 142/142/142 143/143/143 144/144/144
f 145/145/145 146/146/146 147/147/147
f 148/148/148 149/149/149 150/150/150
f 151/151/151 152/152/152 153/153/153
f 154/154/154 155/155/155 156/156/156
f 157/157/157 158/158/158 159/159/159
f 159/159/159 160/160/160 157/157/157
f 161/161/161 162/162/162 163/163/163
f 163/163/163 164/164/164 161/161/161
f 165/165/165 166/166/166 167/167/167
f 165/165/165 167/167/167 168/168/168
f 169/169/169 170/170/170 171/171/171
f 169/169/169 171/171/171 172/172/172
f 173/173/173 174/174/174 175/175/175
f 174/174/174 173/173/173 176/176/176
f 177/177/177 178/178/178 179/179/179
f 178/178/178 177/177/177 180/180/180
f 181/181/181 182/182/182 183/183/183
f 181/181/181 183/183/183 184/184/184
f 185/185/185 186/186/186 187/187/187
f 185/185/185 187/187/187 188/188/188
f 189/189/189 190/190/190 191/191/191
f 192/192/192 193/193/193 194/194/194
f 195/195/195 196/196/196 197/197/197
f 198/198/198 199/199/199 200/200/200
f 201/201/201 202/202/202 203/203/203
f 204/204/204 205/205/205 206/206/206
f 207/207/207 208/208/208 209/209/209
f 210/210/210 211/211/211 212/212/212
