# Generated from Nova1492 GX by tools/nova1492/GxObjConverter
mtllib datan_common_Watt130_6385699d.mtl
o datan_common_Watt130_6385699d_mesh00
v 0 0.848996 0
v 0.116126 0.839782 0
v 0.058063 0.839782 -0.100568
v -0.058063 0.839782 -0.100568
v -0.116126 0.839782 0
v -0.058063 0.839782 0.100568
v 0.058063 0.839782 0.100568
v 0.058063 0.839782 -0.100568
v 0.116126 0.839782 0
v 0.111624 0.76276 -0.193339
v 0.223249 0.76276 0
v -0.058063 0.839782 -0.100568
v -0.111624 0.76276 -0.193339
v -0.116126 0.839782 0
v -0.223249 0.76276 0
v -0.058063 0.839782 0.100568
v -0.111624 0.76276 0.193339
v 0.058063 0.839782 0.100568
v 0.111624 0.76276 0.193339
vt 0.5 0.5
vt 0.759821 0.5
vt 0.629911 0.759821
vt 0.370089 0.759821
vt 0.240179 0.5
vt 0.370089 0.240179
vt 0.629911 0.240179
vt 0.629911 0.759821
vt 0.759821 0.5
vt 0.74975 0.9995
vt 0.999501 0.5
vt 0.370089 0.759821
vt 0.25025 0.999501
vt 0.240179 0.5
vt 0.0005 0.5
vt 0.370089 0.240179
vt 0.25025 0.0005
vt 0.629911 0.240179
vt 0.74975 0.000499
vn 0 1 0
vn 0.079101 0.996867 0
vn 0.03955 0.996867 -0.068503
vn -0.03955 0.996867 -0.068503
vn -0.079101 0.996867 0
vn -0.03955 0.996867 0.068503
vn 0.03955 0.996867 0.068503
vn 0.291885 0.811919 -0.50556
vn 0.58377 0.811919 -0
vn 0.291885 0.811919 -0.50556
vn 0.58377 0.811919 -0
vn -0.291885 0.811919 -0.50556
vn -0.291885 0.811919 -0.50556
vn -0.58377 0.811919 0
vn -0.58377 0.811919 0
vn -0.291885 0.811919 0.50556
vn -0.291885 0.811919 0.50556
vn 0.291885 0.811919 0.50556
vn 0.291885 0.811919 0.50556
usemtl datan_common_Watt130_6385699d
f 1/1/1 2/2/2 3/3/3
f 1/1/1 3/3/3 4/4/4
f 1/1/1 4/4/4 5/5/5
f 1/1/1 5/5/5 6/6/6
f 1/1/1 6/6/6 7/7/7
f 1/1/1 7/7/7 2/2/2
f 8/8/8 9/9/9 10/10/10
f 9/9/9 11/11/11 10/10/10
f 12/12/12 8/8/8 13/13/13
f 8/8/8 10/10/10 13/13/13
f 14/14/14 12/12/12 15/15/15
f 12/12/12 13/13/13 15/15/15
f 16/16/16 14/14/14 17/17/17
f 14/14/14 15/15/15 17/17/17
f 18/18/18 16/16/16 19/19/19
f 16/16/16 17/17/17 19/19/19
f 9/9/9 18/18/18 11/11/11
f 18/18/18 19/19/19 11/11/11
o datan_common_Watt130_6385699d_mesh01
v 0.231097 -0.109581 -0
v 0.115548 -0.109581 -0.200136
v 0.318754 0 -0
v 0.159377 0 -0.276049
v -0.115548 -0.109581 -0.200136
v -0.159377 0 -0.276049
v -0.231097 -0.109581 0
v -0.318754 0 0
v -0.115548 -0.109581 0.200136
v -0.159377 0 0.276049
v 0.115549 -0.109581 0.200136
v 0.159377 0 0.276049
v -0.159377 0 0.276049
v 0.159377 0 0.276049
v 0.318754 0 -0
v 0.159377 0 -0.276049
v -0.159377 0 -0.276049
v -0.318754 0 0
vt 0.862138 0.5
vt 0.681069 0.862138
vt 0.999501 0.5
vt 0.74975 0.9995
vt 0.318931 0.862138
vt 0.25025 0.999501
vt 0.137862 0.5
vt 0.0005 0.5
vt 0.318931 0.137862
vt 0.25025 0.0005
vt 0.681069 0.137862
vt 0.74975 0.0005
vt 0.25025 0.0005
vt 0.74975 0.0005
vt 0.999501 0.5
vt 0.74975 0.9995
vt 0.25025 0.999501
vt 0.0005 0.5
vn 0.780893 -0.624665 -0
vn 0.390447 -0.624665 -0.676273
vn 0.780893 -0.624664 -0
vn 0.390447 -0.624665 -0.676273
vn -0.390447 -0.624665 -0.676273
vn -0.390447 -0.624665 -0.676273
vn -0.780893 -0.624665 0
vn -0.780893 -0.624664 0
vn -0.390447 -0.624665 0.676274
vn -0.390447 -0.624665 0.676274
vn 0.390447 -0.624665 0.676273
vn 0.390447 -0.624665 0.676273
vn 0 1 0
vn 0 1 0
vn 0 1 0
vn 0 1 -0
vn 0 1 -0
vn 0 1 -0
usemtl datan_common_Watt130_6385699d
f 20/20/20 21/21/21 22/22/22
f 21/21/21 23/23/23 22/22/22
f 21/21/21 24/24/24 23/23/23
f 24/24/24 25/25/25 23/23/23
f 24/24/24 26/26/26 25/25/25
f 26/26/26 27/27/27 25/25/25
f 26/26/26 28/28/28 27/27/27
f 28/28/28 29/29/29 27/27/27
f 28/28/28 30/30/30 29/29/29
f 30/30/30 31/31/31 29/29/29
f 30/30/30 20/20/20 31/31/31
f 20/20/20 22/22/22 31/31/31
f 32/32/32 33/33/33 34/34/34
f 32/32/32 34/34/34 35/35/35
f 32/32/32 35/35/35 36/36/36
f 32/32/32 36/36/36 37/37/37
o datan_common_Watt130_6385699d_mesh02
v 0.095898 0.623929 -0.22254
v -0 0.642108 -0.231599
v -0 0.642108 0.231599
v 0.095898 0.623929 -0.22254
v -0 0.508353 -0.253972
v -0 0.642108 -0.231599
v 0.095898 0.623929 0.22254
v -0.095898 0.623929 -0.22254
v -0.095898 0.623929 0.22254
v 0.042883 0.487939 0.300762
v 0.122283 0.487938 0.251352
v 0.095898 0.623929 0.22254
v -0 0.508353 0.253972
v -0 0.642108 0.231599
v -0.095898 0.623929 0.22254
v -0.042883 0.487939 -0.300762
v -0.122283 0.487938 -0.251352
v -0.095898 0.623929 -0.22254
v 0.095898 0.623929 0.22254
v 0.122283 0.487938 -0.251352
v 0.14001 0 -0.297492
v 0.042883 0.487939 -0.300762
v 0.043325 0.076184 -0.34901
v 0.14001 0 0.297492
v 0.043325 0.076184 0.34901
v -0.14001 0 0.297492
v -0.042883 0.487939 0.300762
v -0.122283 0.487938 0.251352
v -0.043325 0.076184 0.34901
v -0.095898 0.623929 0.22254
v -0.095898 0.623929 -0.22254
v -0.14001 0 -0.297492
v -0.043325 0.076184 -0.34901
v 0.095898 0.623929 -0.22254
v -0 0.508353 0.253972
v -0.042883 0.487939 0.300762
v 0.042883 0.487939 0.300762
v 0.042883 0.487939 -0.300762
v -0.042883 0.487939 -0.300762
v -0 0.508353 -0.253972
v 0.095898 0.623929 -0.22254
v 0.095898 0.623929 0.22254
v -0.095898 0.623929 0.22254
v -0.095898 0.623929 -0.22254
v 0.043325 0.076184 0.34901
v -0.043325 0.076184 0.34901
v -0.14001 0 0.297492
v 0.043325 0.076184 0.34901
v -0.14001 0 0.297492
v 0.14001 0 0.297492
v -0.043325 0.076184 -0.34901
v 0.043325 0.076184 -0.34901
v 0.14001 0 -0.297492
v -0.043325 0.076184 -0.34901
v 0.14001 0 -0.297492
v -0.14001 0 -0.297492
vt 0.842124 0.971217
vt 0.5 0.999501
vt 0.5 0.999501
vt 0.842124 0.971217
vt 0.5 0.791402
vt 0.5 0.999501
vt 0.842123 0.971217
vt 0.157877 0.971217
vt 0.157876 0.971217
vt 0.652989 0.759641
vt 0.936254 0.759641
vt 0.842123 0.971217
vt 0.5 0.791402
vt 0.5 0.999501
vt 0.157876 0.971217
vt 0.347011 0.759641
vt 0.063746 0.759641
vt 0.157877 0.971217
vt 0.842123 0.971217
vt 0.936255 0.759641
vt 0.999501 0.000499
vt 0.65299 0.759641
vt 0.654567 0.119027
vt 0.9995 0.000499
vt 0.654566 0.119027
vt 0.0005 0.000499
vt 0.34701 0.759641
vt 0.063745 0.759641
vt 0.345433 0.119027
vt 0.157876 0.971217
vt 0.157877 0.971217
vt 0.0005 0.000499
vt 0.345434 0.119027
vt 0.842124 0.971217
vt 0.5 0.791402
vt 0.34701 0.759641
vt 0.652989 0.759641
vt 0.65299 0.759641
vt 0.347011 0.759641
vt 0.5 0.791402
vt 0.842124 0.971217
vt 0.842123 0.971217
vt 0.157876 0.971217
vt 0.157877 0.971217
vt 0.654566 0.119027
vt 0.345433 0.119027
vt 0.0005 0.000499
vt 0.654566 0.119027
vt 0.0005 0.000499
vt 0.9995 0.000499
vt 0.345434 0.119027
vt 0.654567 0.119027
vt 0.999501 0.000499
vt 0.345434 0.119027
vt 0.999501 0.000499
vt 0.0005 0.000499
vn 0.186255 0.982501 -0
vn -0 1 -0
vn -0 1 -0
vn 0.123494 0.163711 -0.978748
vn 0 0.164973 -0.986298
vn -0 0.164973 -0.986298
vn 0.186255 0.982501 0
vn -0.186255 0.982501 -0
vn -0.186255 0.982501 -0
vn 0.338901 0.15306 0.928288
vn 0.519206 0.185203 0.834341
vn 0.508461 0.271765 0.817075
vn 0 0.164973 0.986298
vn -0 0.164973 0.986298
vn -0.123494 0.163711 0.978748
vn -0.338901 0.15306 -0.928288
vn -0.519206 0.185203 -0.834341
vn -0.508461 0.271765 -0.817075
vn 0.123494 0.163711 0.978748
vn 0.519206 0.185203 -0.834341
vn 0.527401 0.099328 -0.843791
vn 0.338901 0.15306 -0.928288
vn 0.315141 0.110783 -0.942557
vn 0.527401 0.099328 0.843791
vn 0.315141 0.110783 0.942557
vn -0.5274 0.099328 0.843791
vn -0.338901 0.15306 0.928288
vn -0.519206 0.185203 0.834341
vn -0.315141 0.110783 0.942557
vn -0.508461 0.271765 0.817075
vn -0.123494 0.163711 -0.978748
vn -0.5274 0.099328 -0.843791
vn -0.315141 0.110783 -0.942557
vn 0.508461 0.271765 -0.817075
vn 0 0.754548 0.656245
vn 0.283081 0.75653 0.589515
vn -0.283081 0.75653 0.589515
vn -0.283081 0.75653 -0.589515
vn 0.283081 0.75653 -0.589515
vn 0 0.754548 -0.656245
vn -0.466094 0.570615 -0.676133
vn -0.466094 0.570615 0.676133
vn 0.466094 0.570615 0.676133
vn 0.466094 0.570615 -0.676133
vn 0 -0.560171 0.828377
vn 0 -0.560171 0.828377
vn 0 -0.560171 0.828377
vn 0 -0.56017 0.828377
vn 0 -0.56017 0.828377
vn 0 -0.56017 0.828377
vn 0 -0.56017 -0.828378
vn 0 -0.56017 -0.828378
vn 0 -0.56017 -0.828378
vn 0 -0.560171 -0.828377
vn 0 -0.560171 -0.828377
vn 0 -0.560171 -0.828377
usemtl datan_common_Watt130_6385699d
f 38/38/38 39/39/39 40/40/40
f 41/41/41 42/42/42 43/43/43
f 40/40/40 44/44/44 38/38/38
f 40/40/40 39/39/39 45/45/45
f 40/40/40 45/45/45 46/46/46
f 47/47/47 48/48/48 49/49/49
f 50/50/50 51/51/51 52/52/52
f 53/53/53 54/54/54 55/55/55
f 56/56/56 51/51/51 50/50/50
f 57/57/57 58/58/58 59/59/59
f 58/58/58 60/60/60 59/59/59
f 47/47/47 61/61/61 48/48/48
f 62/62/62 61/61/61 47/47/47
f 63/63/63 64/64/64 65/65/65
f 66/66/66 64/64/64 63/63/63
f 64/64/64 67/67/67 65/65/65
f 43/43/43 42/42/42 68/68/68
f 53/53/53 69/69/69 54/54/54
f 70/70/70 69/69/69 53/53/53
f 59/59/59 71/71/71 57/57/57
f 72/72/72 73/73/73 74/74/74
f 75/75/75 76/76/76 77/77/77
f 78/78/78 75/75/75 77/77/77
f 79/79/79 72/72/72 74/74/74
f 80/80/80 73/73/73 72/72/72
f 81/81/81 77/77/77 76/76/76
f 60/60/60 70/70/70 59/59/59
f 53/53/53 59/59/59 70/70/70
f 66/66/66 62/62/62 64/64/64
f 47/47/47 64/64/64 62/62/62
f 82/82/82 83/83/83 84/84/84
f 85/85/85 86/86/86 87/87/87
f 88/88/88 89/89/89 90/90/90
f 91/91/91 92/92/92 93/93/93
o datan_common_Watt130_6385699d_mesh03
v 0.122283 0.487938 0.251352
v 0.122283 0.487938 -0.251352
v 0.095898 0.623929 -0.22254
v -0.122283 0.487938 -0.251352
v -0.122283 0.487938 0.251352
v -0.095898 0.623929 0.22254
v 0.14001 0 -0.297492
v 0.14001 0 0.297492
v 0.095898 0.623929 0.22254
v -0.14001 0 0.297492
v -0.14001 0 -0.297492
v -0.095898 0.623929 -0.22254
vt 0.07797 0.78176
vt 0.92203 0.78176
vt 0.873653 0.999501
vt 0.92203 0.78176
vt 0.07797 0.78176
vt 0.126347 0.999501
vt 0.9995 0.0005
vt 0.0005 0.0005
vt 0.126347 0.999501
vt 0.0005 0.0005
vt 0.999501 0.0005
vt 0.873654 0.999501
vn 0.994356 0.106094 -0
vn 0.994356 0.106094 -0
vn 0.981693 0.19047 -0
vn -0.994356 0.106094 -0
vn -0.994356 0.106094 -0
vn -0.981693 0.19047 -0
vn 0.999341 0.036308 -0
vn 0.999341 0.036308 -0
vn 0.981693 0.19047 0
vn -0.999341 0.036308 -0
vn -0.999341 0.036308 -0
vn -0.981693 0.19047 -0
usemtl datan_common_Watt130_6385699d
f 94/94/94 95/95/95 96/96/96
f 97/97/97 98/98/98 99/99/99
f 94/94/94 100/100/100 95/95/95
f 101/101/101 100/100/100 94/94/94
f 96/96/96 102/102/102 94/94/94
f 97/97/97 103/103/103 98/98/98
f 104/104/104 103/103/103 97/97/97
f 99/99/99 105/105/105 97/97/97
o datan_common_Watt130_6385699d_mesh04
v -0.312441 0 -0.297782
v -0.312441 0 0.297782
v 0.312441 0 -0.297782
v 0.312441 0 0.297782
vt 0.0005 0.0005
vt 0.99307 0.0005
vt 0.00693 0.999501
vt 0.999501 0.9995
vn 0 1 -0
vn 0 1 -0
vn 0 1 -0
vn 0 1 -0
usemtl datan_common_Watt130_6385699d
f 106/106/106 107/107/107 108/108/108
f 109/109/109 108/108/108 107/107/107
o datan_common_Watt130_6385699d_mesh05
v 0.127502 0 0.220839
v 0.178599 0.610208 0
v 0.089299 0.610208 0.154671
v 0.255003 0 -0
v 0.089299 0.610208 -0.154671
v 0.127502 0 -0.220839
vt 0.685 0.0005
vt 1 0.999501
vt 0.683666 0.999501
vt 0.999501 0.000499
vt 0.683666 0.999501
vt 0.685 0.000499
vn 0.860978 0.107804 0.497086
vn 0.992252 0.124241 -0
vn 0.860978 0.107804 0.497086
vn 0.992252 0.124241 -0
vn 0.860978 0.107804 -0.497086
vn 0.860978 0.107804 -0.497086
usemtl datan_common_Watt130_6385699d
f 110/110/110 111/111/111 112/112/112
f 110/110/110 113/113/113 111/111/111
f 113/113/113 114/114/114 111/111/111
f 113/113/113 115/115/115 114/114/114
o datan_common_Watt130_6385699d_mesh06
v -0.255003 0 0
v -0.089299 0.610208 0.154671
v -0.178599 0.610208 0
v -0.127502 0 0.220839
v -0.127502 0 -0.220839
v -0.089299 0.610208 -0.154671
vt 0.0005 0.000499
vt 0.316334 0.999501
vt 0 0.999501
vt 0.315 0.0005
vt 0.315 0.000499
vt 0.316335 0.999501
vn -0.992252 0.124241 0
vn -0.860978 0.107804 0.497086
vn -0.992252 0.124241 0
vn -0.860978 0.107804 0.497086
vn -0.860978 0.107804 -0.497086
vn -0.860978 0.107804 -0.497086
usemtl datan_common_Watt130_6385699d
f 116/116/116 117/117/117 118/118/118
f 116/116/116 119/119/119 117/117/117
f 120/120/120 118/118/118 121/121/121
f 120/120/120 116/116/116 118/118/118
o datan_common_Watt130_6385699d_mesh07
v -0.127502 0 0.220839
v 0.089299 0.610208 0.154671
v -0.089299 0.610208 0.154671
v 0.127502 0 0.220839
v 0.127502 0 -0.220839
v -0.089299 0.610208 -0.154671
v 0.089299 0.610208 -0.154671
v -0.127502 0 -0.220839
vt 0.315 0.0005
vt 0.683666 0.999501
vt 0.316334 0.999501
vt 0.685 0.0005
vt 0.685 0.000499
vt 0.316335 0.999501
vt 0.683666 0.999501
vt 0.315 0.000499
vn 0 0.107804 0.994172
vn 0 0.107804 0.994172
vn 0 0.107804 0.994172
vn 0 0.107804 0.994172
vn -0 0.107804 -0.994172
vn -0 0.107804 -0.994172
vn -0 0.107804 -0.994172
vn -0 0.107804 -0.994172
usemtl datan_common_Watt130_6385699d
f 122/122/122 123/123/123 124/124/124
f 122/122/122 125/125/125 123/123/123
f 126/126/126 127/127/127 128/128/128
f 126/126/126 129/129/129 127/127/127
o datan_common_Watt130_6385699d_mesh08
v -0.312441 0 -0.297782
v -0.312441 0 0.297782
v 0.312441 0 -0.297782
v 0.312441 0 0.297782
vt 0.0005 0.0005
vt 0.99307 0.0005
vt 0.00693 0.999501
vt 0.999501 0.9995
vn 0 1 -0
vn 0 1 -0
vn 0 1 -0
vn 0 1 -0
usemtl datan_common_Watt130_6385699d
f 130/130/130 131/131/131 132/132/132
f 133/133/133 132/132/132 131/131/131
