# Generated from Nova1492 GX by tools/nova1492/GxObjConverter
mtllib datan_common_pendant_logo_a6aa7803.mtl
o datan_common_pendant_logo_a6aa7803_mesh00
v 0.378748 0.410489 -0.076991
v 0.34124 0.574822 -0.076991
v 0.421046 0.410489 -0.026215
v 0.379349 0.593174 -0.026215
v 0.236146 0.706606 -0.076991
v 0.262518 0.739676 -0.026215
v 0.084279 0.779741 -0.076992
v 0.093691 0.820978 -0.026215
v -0.084279 0.779741 -0.076992
v -0.093691 0.820978 -0.026215
v -0.236146 0.706606 -0.076992
v -0.262518 0.739676 -0.026215
v -0.34124 0.574822 -0.076992
v -0.379349 0.593174 -0.026215
v -0.378748 0.410489 -0.076992
v -0.421046 0.410489 -0.026215
v -0.34124 0.246157 -0.076992
v -0.379349 0.227804 -0.026215
v -0.236146 0.114372 -0.076992
v -0.262518 0.081302 -0.026215
v -0.084279 0.041237 -0.076992
v -0.093691 0 -0.026215
v 0.084279 0.041237 -0.076992
v 0.093691 0 -0.026215
v 0.236146 0.114372 -0.076991
v 0.262518 0.081303 -0.026215
v 0.34124 0.246157 -0.076991
v 0.379349 0.227804 -0.026215
v 0.421046 0.410489 0.024562
v 0.379349 0.593174 0.024562
v 0.262518 0.739676 0.024562
v 0.093691 0.820978 0.024562
v -0.093691 0.820978 0.024562
v -0.262518 0.739676 0.024562
v -0.379349 0.593174 0.024561
v -0.421046 0.410489 0.024561
v -0.379349 0.227804 0.024561
v -0.262518 0.081302 0.024562
v -0.093691 0 0.024562
v 0.093691 0 0.024562
v 0.262518 0.081303 0.024562
v 0.379349 0.227804 0.024562
v 0.378748 0.410489 0.075339
v 0.34124 0.574822 0.075339
v 0.236146 0.706606 0.075338
v 0.084279 0.779741 0.075338
v -0.084279 0.779741 0.075338
v -0.236146 0.706606 0.075338
v -0.34124 0.574822 0.075338
v -0.378748 0.410489 0.075338
v -0.34124 0.246157 0.075338
v -0.236146 0.114372 0.075338
v -0.084279 0.041237 0.075338
v 0.084279 0.041237 0.075338
v 0.236145 0.114372 0.075338
v 0.34124 0.246157 0.075339
v 0.0291 0.928155 -0.025561
v -0.029101 0.928155 -0.025562
v -0.029101 0.928155 0.024122
v 0.0291 0.928155 0.024122
v -0.052529 0.870792 -0.025562
v 0.052528 0.870791 -0.025561
v 0.052528 0.870791 0.024122
v -0.052529 0.870792 0.024122
v -0.006292 0.845786 -0.008861
v -0.012079 0.819602 -0.012152
v -0.012309 0.89965 -0.057245
v -0.006093 0.898819 -0.038992
v -0.02776 0.827391 -0.00991
v -0.027822 0.899349 -0.049938
v -0.021972 0.853574 -0.006619
v -0.021607 0.898518 -0.031685
v -0.012121 0.970445 -0.008671
v -0.005932 0.96564 0.006864
v -0.027645 0.968624 -0.002427
v -0.021456 0.963819 0.013108
v -0.00739 1.273654 -0.011527
v -0.001244 1.272164 0.004017
v -0.022936 1.272654 -0.005361
v -0.016789 1.271164 0.010184
v -0.021935 1.499995 0.038961
v -0.015788 1.500605 0.054915
v -0.037373 1.497876 0.045002
v -0.031226 1.498487 0.060956
v -0.066448 1.710992 -0.002464
v -0.061065 1.716267 0.012498
v -0.082257 1.711056 0.00337
v -0.076874 1.716331 0.018331
v -0.067772 1.866561 -0.070169
v -0.062179 1.872828 -0.055721
v -0.083568 1.875036 -0.067755
v -0.077975 1.881304 -0.053307
v 0.001518 1.926298 -0.123521
v 0.000167 1.924336 -0.10297
v 0.000317 1.947152 -0.129974
v -0.001034 1.94519 -0.109423
v 0.066586 1.880887 -0.06417
v 0.057535 1.885923 -0.051045
v 0.079522 1.892257 -0.059844
v 0.07047 1.897293 -0.046718
v 0.090385 1.735229 0.014774
v 0.08168 1.739672 0.028394
v 0.104948 1.73754 0.02374
v 0.096243 1.741983 0.03736
v 0.041036 1.494431 0.038267
v 0.031802 1.495181 0.05239
v 0.054666 1.491436 0.047527
v 0.045432 1.492186 0.06165
v 0.009846 1.274093 -0.012284
v 0.000483 1.273273 0.001561
v 0.023697 1.272103 -0.002905
v 0.014333 1.271283 0.010941
v 0.009574 0.974459 -0.009451
v 0.000073 0.970291 0.004308
v 0.023323 0.97164 0.000088
v 0.013823 0.967471 0.013847
v 0.009697 0.89829 -0.060432
v 0.000182 0.897909 -0.044145
v 0.023436 0.898048 -0.049158
v 0.013922 0.897666 -0.032872
v 0.010832 0.816807 -0.011291
v 0.000077 0.834393 -0.006975
v 0.02362 0.838399 -0.011796
v 0.012865 0.855985 -0.00748
v 0.038532 0.893587 0.054986
v 0.022985 0.898419 0.049564
v 0.042803 0.894215 0.035606
v 0.027256 0.899048 0.030184
v 0.055227 0.979872 0.007333
v 0.036761 0.966592 0.008868
v 0.059262 0.966149 -0.003139
v 0.040796 0.952869 -0.001604
v -0.01013 0.964703 -0.040747
v -0.009008 0.951564 -0.028937
v -0.012357 0.953443 -0.06119
v -0.011235 0.940304 -0.049379
v -0.048154 0.976108 0.000924
v -0.030578 0.962054 -0.001378
v -0.05756 0.963778 -0.005481
v -0.039985 0.949724 -0.007782
v -0.009532 0.895702 0.066736
v 0.002691 0.899136 0.054794
v -0.021671 0.894773 0.047787
v -0.009448 0.898207 0.035846
v 0.033887 1.119679 0.000155
v 0.017119 1.119679 -0.028888
v 0.057787 1.210475 0.000155
v 0.029069 1.210475 -0.049586
v -0.016417 1.119679 -0.028888
v -0.028367 1.210475 -0.049586
v -0.033185 1.119679 0.000155
v -0.057085 1.210475 0.000155
v -0.016417 1.119679 0.029198
v -0.028367 1.210475 0.049896
v 0.017119 1.119679 0.029198
v 0.029069 1.210475 0.049896
v 0.033887 1.301271 0.000155
v 0.017119 1.301271 -0.028888
v -0.016417 1.301271 -0.028888
v -0.033185 1.301271 0.000155
v -0.016417 1.301271 0.029198
v 0.017119 1.301271 0.029198
vt 0.918705 0.509189
vt 0.884414 0.67019
vt 0.968884 0.509189
vt 0.929624 0.689943
vt 0.774478 0.821105
vt 0.805764 0.856699
vt 0.590912 0.921605
vt 0.602078 0.957267
vt 0.390945 0.921605
vt 0.379779 0.957267
vt 0.221195 0.823883
vt 0.189909 0.859477
vt 0.110191 0.67963
vt 0.064981 0.699383
vt 0.06542 0.509189
vt 0.015241 0.509189
vt 0.101072 0.333787
vt 0.055862 0.314034
vt 0.211008 0.180151
vt 0.179722 0.144557
vt 0.400017 0.083517
vt 0.388851 0.046503
vt 0.599983 0.083517
vt 0.611149 0.046503
vt 0.784683 0.1848
vt 0.815969 0.149206
vt 0.891217 0.339117
vt 0.936427 0.319364
vt 0.968884 0.509189
vt 0.929624 0.689943
vt 0.805764 0.856699
vt 0.602078 0.957267
vt 0.379779 0.957267
vt 0.189909 0.859477
vt 0.064981 0.699383
vt 0.015241 0.509189
vt 0.055862 0.314034
vt 0.179722 0.144557
vt 0.388851 0.046503
vt 0.611149 0.046503
vt 0.815969 0.149206
vt 0.936427 0.319364
vt 0.918705 0.509189
vt 0.884414 0.67019
vt 0.774478 0.821105
vt 0.590912 0.921605
vt 0.390945 0.921605
vt 0.221195 0.823883
vt 0.110191 0.67963
vt 0.06542 0.509189
vt 0.101072 0.333787
vt 0.211008 0.180151
vt 0.400017 0.083517
vt 0.599983 0.083517
vt 0.784683 0.1848
vt 0.891217 0.339117
vt 0.525451 0.867162
vt 0.456405 0.867162
vt 0.456405 0.867162
vt 0.525451 0.867162
vt 0.428612 0.958428
vt 0.553244 0.958427
vt 0.553244 0.958427
vt 0.428612 0.958428
vt 0.943075 0.282734
vt 0.940728 0.288969
vt 0.940635 0.269907
vt 0.943156 0.270105
vt 0.934367 0.287115
vt 0.934342 0.269979
vt 0.936715 0.280879
vt 0.936863 0.270177
vt 0.940711 0.253049
vt 0.943221 0.254193
vt 0.934414 0.253482
vt 0.936924 0.254627
vt 0.941851 0.180845
vt 0.944344 0.1812
vt 0.935545 0.181083
vt 0.938038 0.181438
vt 0.93673 0.126946
vt 0.939223 0.126801
vt 0.930468 0.127451
vt 0.932961 0.127305
vt 0.918674 0.076701
vt 0.920858 0.075445
vt 0.912261 0.076686
vt 0.914445 0.07543
vt 0.918137 0.039655
vt 0.920406 0.038163
vt 0.911729 0.037637
vt 0.913998 0.036144
vt 0.946243 0.02543
vt 0.945695 0.025897
vt 0.945756 0.020464
vt 0.945208 0.020931
vt 0.972637 0.036244
vt 0.968966 0.035044
vt 0.977884 0.033536
vt 0.974213 0.032337
vt 0.982291 0.070929
vt 0.97876 0.069871
vt 0.988198 0.070379
vt 0.984667 0.069321
vt 0.962273 0.128271
vt 0.958528 0.128092
vt 0.967802 0.128984
vt 0.964056 0.128806
vt 0.948842 0.180741
vt 0.945044 0.180936
vt 0.95446 0.181215
vt 0.950662 0.18141
vt 0.949511 0.252093
vt 0.945657 0.253086
vt 0.955088 0.252764
vt 0.951235 0.253757
vt 0.949561 0.270231
vt 0.945702 0.270322
vt 0.955134 0.270289
vt 0.951275 0.27038
vt 0.950021 0.289635
vt 0.945659 0.285447
vt 0.955209 0.284493
vt 0.950846 0.280305
vt 0.961258 0.271351
vt 0.954951 0.2702
vt 0.96299 0.271202
vt 0.956684 0.270051
vt 0.96803 0.250804
vt 0.960539 0.253967
vt 0.969666 0.254072
vt 0.962176 0.257234
vt 0.941519 0.254416
vt 0.941974 0.257545
vt 0.940615 0.257097
vt 0.94107 0.260226
vt 0.926095 0.2517
vt 0.933224 0.255047
vt 0.922279 0.254636
vt 0.929408 0.257983
vt 0.941761 0.270848
vt 0.946719 0.27003
vt 0.936837 0.271069
vt 0.941795 0.270251
vt 0.373675 0.828559
vt 0.381251 0.822547
vt 0.368087 0.825954
vt 0.381063 0.815656
vt 0.389092 0.826203
vt 0.394491 0.821918
vt 0.389356 0.835872
vt 0.394944 0.838477
vt 0.381779 0.841884
vt 0.381968 0.848775
vt 0.373939 0.838228
vt 0.368539 0.842513
vt 0.373675 0.828559
vt 0.381251 0.822547
vt 0.389092 0.826203
vt 0.389356 0.835872
vt 0.381779 0.841884
vt 0.373939 0.838228
vn 0.47134 -0 -0.881952
vn 0.424662 0.204506 -0.881952
vn 0.945433 -0 -0.325818
vn 0.851805 0.410208 -0.325818
vn 0.293876 0.368508 -0.881952
vn 0.589468 0.739169 -0.325818
vn 0.104883 0.459522 -0.881952
vn 0.410029 0.784859 -0.464622
vn -0.104883 0.459522 -0.881952
vn -0.41003 0.784857 -0.464624
vn -0.293875 0.368508 -0.881952
vn -0.589467 0.739169 -0.325819
vn -0.424661 0.204506 -0.881952
vn -0.851805 0.410208 -0.325819
vn -0.471339 0 -0.881952
vn -0.945432 0 -0.325819
vn -0.424661 -0.204506 -0.881952
vn -0.851805 -0.410208 -0.325819
vn -0.293875 -0.368508 -0.881952
vn -0.589467 -0.739169 -0.325819
vn -0.104882 -0.459522 -0.881952
vn -0.210378 -0.921728 -0.325819
vn 0.104883 -0.459522 -0.881952
vn 0.210379 -0.921728 -0.325818
vn 0.293876 -0.368508 -0.881952
vn 0.589468 -0.739169 -0.325818
vn 0.424663 -0.204506 -0.881952
vn 0.851805 -0.410208 -0.325818
vn 0.945432 -0 0.325819
vn 0.851805 0.410208 0.325819
vn 0.589467 0.739169 0.325819
vn 0.410488 0.784604 0.464646
vn -0.41049 0.784602 0.464647
vn -0.589468 0.739169 0.325818
vn -0.851805 0.410208 0.325818
vn -0.945433 0 0.325818
vn -0.851805 -0.410208 0.325818
vn -0.589468 -0.739169 0.325818
vn -0.210379 -0.921728 0.325818
vn 0.210379 -0.921728 0.325818
vn 0.589467 -0.739169 0.325819
vn 0.851805 -0.410208 0.325819
vn 0.471339 -0 0.881952
vn 0.424661 0.204506 0.881952
vn 0.293875 0.368508 0.881952
vn 0.104882 0.459522 0.881952
vn -0.104883 0.459522 0.881952
vn -0.293876 0.368508 0.881952
vn -0.424662 0.204506 0.881952
vn -0.47134 -0 0.881952
vn -0.424662 -0.204506 0.881952
vn -0.293876 -0.368508 0.881952
vn -0.104883 -0.459522 0.881952
vn 0.104883 -0.459522 0.881952
vn 0.293875 -0.368508 0.881952
vn 0.424661 -0.204506 0.881952
vn 0.445889 0.663741 -0.600525
vn -0.445888 0.663741 -0.600526
vn -0.445889 0.663741 0.600525
vn 0.445888 0.663741 0.600526
vn -0.574235 0.350315 -0.739955
vn 0.574233 0.350317 -0.739956
vn 0.574362 0.348192 0.740858
vn -0.574366 0.34819 0.740856
vn 0.992077 0.07828 -0.098261
vn 0.306374 -0.936682 -0.169594
vn 0.322016 0.040424 -0.945871
vn 0.986937 -0.011952 0.160665
vn -0.782091 -0.621184 -0.049634
vn -0.833802 0.024657 -0.551513
vn -0.756129 0.648341 0.08901
vn -0.522894 -0.040672 0.851427
vn 0.451627 0.255682 -0.854786
vn 0.86755 -0.152079 0.473528
vn -0.963271 0.087024 -0.254041
vn -0.353995 -0.270119 0.89539
vn 0.392173 0.105802 -0.913787
vn 0.938129 -0.01386 0.346008
vn -0.895484 0.025902 -0.44434
vn -0.400161 -0.105154 0.910392
vn 0.463956 0.077212 -0.882487
vn 0.879594 0.112828 0.462151
vn -0.935523 -0.123071 -0.331134
vn -0.343801 -0.060397 0.937098
vn 0.415612 -0.228787 -0.880297
vn 0.864945 0.234972 0.443462
vn -0.919268 -0.206885 -0.334881
vn -0.449567 0.220603 0.865577
vn 0.252218 -0.576038 -0.777539
vn 0.790631 0.027986 0.611653
vn -0.88672 0.130049 -0.443639
vn -0.465856 0.604129 0.646534
vn 0.094649 -0.563949 -0.820368
vn -0.035075 -0.583005 0.811711
vn -0.001574 0.643415 -0.765516
vn -0.111804 0.910529 0.398041
vn -0.008283 -0.63377 -0.773477
vn -0.8689 -0.159646 0.468536
vn 0.902664 0.292307 -0.315838
vn 0.224466 0.6879 0.690224
vn -0.162833 -0.285163 -0.944546
vn -0.94213 0.123888 0.311516
vn 0.990524 -0.066927 -0.119927
vn 0.274065 0.274413 0.92173
vn -0.217522 0.100743 -0.970843
vn -0.953354 0.1475 0.263364
vn 0.978112 -0.160601 -0.132306
vn 0.163158 -0.092435 0.98226
vn -0.203415 0.11869 -0.971872
vn -0.989039 0.054092 0.137394
vn 0.967647 -0.041252 -0.248914
vn 0.163354 -0.11759 0.979535
vn -0.20973 0.279795 -0.936872
vn -0.954152 -0.085539 0.286841
vn 0.998872 0.013945 -0.045401
vn 0.158754 -0.282382 0.946075
vn -0.143118 0.017914 -0.989543
vn -0.998368 -0.005744 -0.056812
vn 0.926723 0.002494 -0.375736
vn 0.250673 -0.034748 0.967448
vn -0.04249 -0.99408 -0.099996
vn -0.943713 -0.279796 0.176408
vn 0.931263 -0.275448 -0.23849
vn -0.200994 0.969532 0.140033
vn 0.38614 -0.201854 0.900084
vn -0.746886 0.134548 0.651197
vn 0.931315 -0.25172 -0.26323
vn -0.611232 0.215802 -0.761463
vn 0.452444 0.844824 0.285598
vn -0.668214 0.416788 0.616261
vn 0.899291 0.041649 -0.435364
vn -0.122441 -0.883009 -0.453105
vn -0.063373 0.986148 -0.153286
vn -0.031184 -0.448493 0.893242
vn -0.132439 0.064637 -0.989081
vn -0.092051 -0.922779 -0.374172
vn -0.284406 0.914268 0.28849
vn 0.886799 0.386498 0.253392
vn -0.985112 0.086775 -0.148404
vn -0.147547 -0.910627 -0.385991
vn -0.007801 -0.05582 0.99841
vn 0.922415 0.193292 0.334349
vn -0.966653 -0.162391 0.19802
vn 0.352898 0.226097 -0.907934
vn 0.709426 -0.70478 0
vn 0.354713 -0.704781 -0.614381
vn 1 -0 0
vn 0.5 -0 -0.866025
vn -0.354713 -0.70478 -0.614381
vn -0.5 -0 -0.866025
vn -0.709426 -0.704781 -0
vn -1 -0 -0
vn -0.354713 -0.704781 0.61438
vn -0.5 -0 0.866025
vn 0.354713 -0.704781 0.614381
vn 0.5 -0 0.866025
vn 0.709426 0.70478 0
vn 0.354713 0.70478 -0.614381
vn -0.354713 0.70478 -0.614381
vn -0.709426 0.70478 -0
vn -0.354713 0.70478 0.614381
vn 0.354713 0.70478 0.614381
usemtl datan_common_pendant_logo_a6aa7803
f 1/1/1 2/2/2 3/3/3
f 2/2/2 4/4/4 3/3/3
f 2/2/2 5/5/5 4/4/4
f 5/5/5 6/6/6 4/4/4
f 5/5/5 7/7/7 6/6/6
f 7/7/7 8/8/8 6/6/6
f 7/7/7 9/9/9 8/8/8
f 9/9/9 10/10/10 8/8/8
f 9/9/9 11/11/11 10/10/10
f 11/11/11 12/12/12 10/10/10
f 11/11/11 13/13/13 12/12/12
f 13/13/13 14/14/14 12/12/12
f 13/13/13 15/15/15 14/14/14
f 15/15/15 16/16/16 14/14/14
f 15/15/15 17/17/17 16/16/16
f 17/17/17 18/18/18 16/16/16
f 17/17/17 19/19/19 18/18/18
f 19/19/19 20/20/20 18/18/18
f 19/19/19 21/21/21 20/20/20
f 21/21/21 22/22/22 20/20/20
f 21/21/21 23/23/23 22/22/22
f 23/23/23 24/24/24 22/22/22
f 23/23/23 25/25/25 24/24/24
f 25/25/25 26/26/26 24/24/24
f 25/25/25 27/27/27 26/26/26
f 27/27/27 28/28/28 26/26/26
f 27/27/27 1/1/1 28/28/28
f 1/1/1 3/3/3 28/28/28
f 3/3/3 4/4/4 29/29/29
f 4/4/4 30/30/30 29/29/29
f 4/4/4 6/6/6 30/30/30
f 6/6/6 31/31/31 30/30/30
f 6/6/6 8/8/8 31/31/31
f 8/8/8 32/32/32 31/31/31
f 10/10/10 12/12/12 33/33/33
f 12/12/12 34/34/34 33/33/33
f 12/12/12 14/14/14 34/34/34
f 14/14/14 35/35/35 34/34/34
f 14/14/14 16/16/16 35/35/35
f 16/16/16 36/36/36 35/35/35
f 16/16/16 18/18/18 36/36/36
f 18/18/18 37/37/37 36/36/36
f 18/18/18 20/20/20 37/37/37
f 20/20/20 38/38/38 37/37/37
f 20/20/20 22/22/22 38/38/38
f 22/22/22 39/39/39 38/38/38
f 22/22/22 24/24/24 39/39/39
f 24/24/24 40/40/40 39/39/39
f 24/24/24 26/26/26 40/40/40
f 26/26/26 41/41/41 40/40/40
f 26/26/26 28/28/28 41/41/41
f 28/28/28 42/42/42 41/41/41
f 28/28/28 3/3/3 42/42/42
f 3/3/3 29/29/29 42/42/42
f 29/29/29 30/30/30 43/43/43
f 30/30/30 44/44/44 43/43/43
f 30/30/30 31/31/31 44/44/44
f 31/31/31 45/45/45 44/44/44
f 31/31/31 32/32/32 45/45/45
f 32/32/32 46/46/46 45/45/45
f 32/32/32 33/33/33 46/46/46
f 33/33/33 47/47/47 46/46/46
f 33/33/33 34/34/34 47/47/47
f 34/34/34 48/48/48 47/47/47
f 34/34/34 35/35/35 48/48/48
f 35/35/35 49/49/49 48/48/48
f 35/35/35 36/36/36 49/49/49
f 36/36/36 50/50/50 49/49/49
f 36/36/36 37/37/37 50/50/50
f 37/37/37 51/51/51 50/50/50
f 37/37/37 38/38/38 51/51/51
f 38/38/38 52/52/52 51/51/51
f 38/38/38 39/39/39 52/52/52
f 39/39/39 53/53/53 52/52/52
f 39/39/39 40/40/40 53/53/53
f 40/40/40 54/54/54 53/53/53
f 40/40/40 41/41/41 54/54/54
f 41/41/41 55/55/55 54/54/54
f 41/41/41 42/42/42 55/55/55
f 42/42/42 56/56/56 55/55/55
f 42/42/42 29/29/29 56/56/56
f 29/29/29 43/43/43 56/56/56
f 55/55/55 56/56/56 43/43/43
f 54/54/54 55/55/55 43/43/43
f 53/53/53 54/54/54 43/43/43
f 52/52/52 53/53/53 43/43/43
f 51/51/51 52/52/52 43/43/43
f 51/51/51 43/43/43 44/44/44
f 50/50/50 51/51/51 44/44/44
f 49/49/49 50/50/50 44/44/44
f 49/49/49 44/44/44 45/45/45
f 49/49/49 45/45/45 46/46/46
f 49/49/49 46/46/46 47/47/47
f 48/48/48 49/49/49 47/47/47
f 25/25/25 1/1/1 27/27/27
f 23/23/23 1/1/1 25/25/25
f 21/21/21 1/1/1 23/23/23
f 19/19/19 1/1/1 21/21/21
f 17/17/17 1/1/1 19/19/19
f 17/17/17 2/2/2 1/1/1
f 15/15/15 2/2/2 17/17/17
f 13/13/13 2/2/2 15/15/15
f 13/13/13 5/5/5 2/2/2
f 13/13/13 7/7/7 5/5/5
f 13/13/13 9/9/9 7/7/7
f 11/11/11 9/9/9 13/13/13
f 57/57/57 58/58/58 59/59/59
f 59/59/59 60/60/60 57/57/57
f 8/8/8 10/10/10 61/61/61
f 61/61/61 62/62/62 8/8/8
f 33/33/33 32/32/32 63/63/63
f 63/63/63 64/64/64 33/33/33
f 32/32/32 8/8/8 62/62/62
f 62/62/62 63/63/63 32/32/32
f 10/10/10 33/33/33 64/64/64
f 64/64/64 61/61/61 10/10/10
f 62/62/62 61/61/61 58/58/58
f 58/58/58 57/57/57 62/62/62
f 61/61/61 64/64/64 59/59/59
f 59/59/59 58/58/58 61/61/61
f 64/64/64 63/63/63 60/60/60
f 60/60/60 59/59/59 64/64/64
f 63/63/63 62/62/62 57/57/57
f 57/57/57 60/60/60 63/63/63
f 65/65/65 66/66/66 67/67/67
f 67/67/67 68/68/68 65/65/65
f 66/66/66 69/69/69 70/70/70
f 70/70/70 67/67/67 66/66/66
f 69/69/69 71/71/71 72/72/72
f 72/72/72 70/70/70 69/69/69
f 71/71/71 65/65/65 68/68/68
f 68/68/68 72/72/72 71/71/71
f 68/68/68 67/67/67 73/73/73
f 73/73/73 74/74/74 68/68/68
f 67/67/67 70/70/70 75/75/75
f 75/75/75 73/73/73 67/67/67
f 70/70/70 72/72/72 76/76/76
f 76/76/76 75/75/75 70/70/70
f 72/72/72 68/68/68 74/74/74
f 74/74/74 76/76/76 72/72/72
f 74/74/74 73/73/73 77/77/77
f 77/77/77 78/78/78 74/74/74
f 73/73/73 75/75/75 79/79/79
f 79/79/79 77/77/77 73/73/73
f 75/75/75 76/76/76 80/80/80
f 80/80/80 79/79/79 75/75/75
f 76/76/76 74/74/74 78/78/78
f 78/78/78 80/80/80 76/76/76
f 78/78/78 77/77/77 81/81/81
f 81/81/81 82/82/82 78/78/78
f 77/77/77 79/79/79 83/83/83
f 83/83/83 81/81/81 77/77/77
f 79/79/79 80/80/80 84/84/84
f 84/84/84 83/83/83 79/79/79
f 80/80/80 78/78/78 82/82/82
f 82/82/82 84/84/84 80/80/80
f 82/82/82 81/81/81 85/85/85
f 85/85/85 86/86/86 82/82/82
f 81/81/81 83/83/83 87/87/87
f 87/87/87 85/85/85 81/81/81
f 83/83/83 84/84/84 88/88/88
f 88/88/88 87/87/87 83/83/83
f 84/84/84 82/82/82 86/86/86
f 86/86/86 88/88/88 84/84/84
f 86/86/86 85/85/85 89/89/89
f 89/89/89 90/90/90 86/86/86
f 85/85/85 87/87/87 91/91/91
f 91/91/91 89/89/89 85/85/85
f 87/87/87 88/88/88 92/92/92
f 92/92/92 91/91/91 87/87/87
f 88/88/88 86/86/86 90/90/90
f 90/90/90 92/92/92 88/88/88
f 90/90/90 89/89/89 93/93/93
f 93/93/93 94/94/94 90/90/90
f 89/89/89 91/91/91 95/95/95
f 95/95/95 93/93/93 89/89/89
f 91/91/91 92/92/92 96/96/96
f 96/96/96 95/95/95 91/91/91
f 92/92/92 90/90/90 94/94/94
f 94/94/94 96/96/96 92/92/92
f 94/94/94 93/93/93 97/97/97
f 97/97/97 98/98/98 94/94/94
f 93/93/93 95/95/95 99/99/99
f 99/99/99 97/97/97 93/93/93
f 95/95/95 96/96/96 100/100/100
f 100/100/100 99/99/99 95/95/95
f 96/96/96 94/94/94 98/98/98
f 98/98/98 100/100/100 96/96/96
f 98/98/98 97/97/97 101/101/101
f 101/101/101 102/102/102 98/98/98
f 97/97/97 99/99/99 103/103/103
f 103/103/103 101/101/101 97/97/97
f 99/99/99 100/100/100 104/104/104
f 104/104/104 103/103/103 99/99/99
f 100/100/100 98/98/98 102/102/102
f 102/102/102 104/104/104 100/100/100
f 102/102/102 101/101/101 105/105/105
f 105/105/105 106/106/106 102/102/102
f 101/101/101 103/103/103 107/107/107
f 107/107/107 105/105/105 101/101/101
f 103/103/103 104/104/104 108/108/108
f 108/108/108 107/107/107 103/103/103
f 104/104/104 102/102/102 106/106/106
f 106/106/106 108/108/108 104/104/104
f 106/106/106 105/105/105 109/109/109
f 109/109/109 110/110/110 106/106/106
f 105/105/105 107/107/107 111/111/111
f 111/111/111 109/109/109 105/105/105
f 107/107/107 108/108/108 112/112/112
f 112/112/112 111/111/111 107/107/107
f 108/108/108 106/106/106 110/110/110
f 110/110/110 112/112/112 108/108/108
f 110/110/110 109/109/109 113/113/113
f 113/113/113 114/114/114 110/110/110
f 109/109/109 111/111/111 115/115/115
f 115/115/115 113/113/113 109/109/109
f 111/111/111 112/112/112 116/116/116
f 116/116/116 115/115/115 111/111/111
f 112/112/112 110/110/110 114/114/114
f 114/114/114 116/116/116 112/112/112
f 114/114/114 113/113/113 117/117/117
f 117/117/117 118/118/118 114/114/114
f 113/113/113 115/115/115 119/119/119
f 119/119/119 117/117/117 113/113/113
f 115/115/115 116/116/116 120/120/120
f 120/120/120 119/119/119 115/115/115
f 116/116/116 114/114/114 118/118/118
f 118/118/118 120/120/120 116/116/116
f 118/118/118 117/117/117 121/121/121
f 121/121/121 122/122/122 118/118/118
f 117/117/117 119/119/119 123/123/123
f 123/123/123 121/121/121 117/117/117
f 119/119/119 120/120/120 124/124/124
f 124/124/124 123/123/123 119/119/119
f 120/120/120 118/118/118 122/122/122
f 122/122/122 124/124/124 120/120/120
f 122/122/122 121/121/121 125/125/125
f 125/125/125 126/126/126 122/122/122
f 121/121/121 123/123/123 127/127/127
f 127/127/127 125/125/125 121/121/121
f 123/123/123 124/124/124 128/128/128
f 128/128/128 127/127/127 123/123/123
f 124/124/124 122/122/122 126/126/126
f 126/126/126 128/128/128 124/124/124
f 126/126/126 125/125/125 129/129/129
f 129/129/129 130/130/130 126/126/126
f 125/125/125 127/127/127 131/131/131
f 131/131/131 129/129/129 125/125/125
f 127/127/127 128/128/128 132/132/132
f 132/132/132 131/131/131 127/127/127
f 128/128/128 126/126/126 130/130/130
f 130/130/130 132/132/132 128/128/128
f 130/130/130 129/129/129 133/133/133
f 133/133/133 134/134/134 130/130/130
f 129/129/129 131/131/131 135/135/135
f 135/135/135 133/133/133 129/129/129
f 131/131/131 132/132/132 136/136/136
f 136/136/136 135/135/135 131/131/131
f 132/132/132 130/130/130 134/134/134
f 134/134/134 136/136/136 132/132/132
f 134/134/134 133/133/133 137/137/137
f 137/137/137 138/138/138 134/134/134
f 133/133/133 135/135/135 139/139/139
f 139/139/139 137/137/137 133/133/133
f 135/135/135 136/136/136 140/140/140
f 140/140/140 139/139/139 135/135/135
f 136/136/136 134/134/134 138/138/138
f 138/138/138 140/140/140 136/136/136
f 138/138/138 137/137/137 141/141/141
f 141/141/141 142/142/142 138/138/138
f 137/137/137 139/139/139 143/143/143
f 143/143/143 141/141/141 137/137/137
f 139/139/139 140/140/140 144/144/144
f 144/144/144 143/143/143 139/139/139
f 140/140/140 138/138/138 142/142/142
f 142/142/142 144/144/144 140/140/140
f 142/142/142 141/141/141 66/66/66
f 66/66/66 65/65/65 142/142/142
f 141/141/141 143/143/143 69/69/69
f 69/69/69 66/66/66 141/141/141
f 143/143/143 144/144/144 71/71/71
f 71/71/71 69/69/69 143/143/143
f 144/144/144 142/142/142 65/65/65
f 65/65/65 71/71/71 144/144/144
f 145/145/145 146/146/146 147/147/147
f 146/146/146 148/148/148 147/147/147
f 146/146/146 149/149/149 148/148/148
f 149/149/149 150/150/150 148/148/148
f 149/149/149 151/151/151 150/150/150
f 151/151/151 152/152/152 150/150/150
f 151/151/151 153/153/153 152/152/152
f 153/153/153 154/154/154 152/152/152
f 153/153/153 155/155/155 154/154/154
f 155/155/155 156/156/156 154/154/154
f 155/155/155 145/145/145 156/156/156
f 145/145/145 147/147/147 156/156/156
f 147/147/147 148/148/148 157/157/157
f 148/148/148 158/158/158 157/157/157
f 148/148/148 150/150/150 158/158/158
f 150/150/150 159/159/159 158/158/158
f 150/150/150 152/152/152 159/159/159
f 152/152/152 160/160/160 159/159/159
f 152/152/152 154/154/154 160/160/160
f 154/154/154 161/161/161 160/160/160
f 154/154/154 156/156/156 161/161/161
f 156/156/156 162/162/162 161/161/161
f 156/156/156 147/147/147 162/162/162
f 147/147/147 157/157/157 162/162/162
f 157/157/157 158/158/158 159/159/159
f 157/157/157 159/159/159 160/160/160
f 157/157/157 160/160/160 161/161/161
f 157/157/157 161/161/161 162/162/162
f 145/145/145 149/149/149 146/146/146
f 145/145/145 151/151/151 149/149/149
f 145/145/145 153/153/153 151/151/151
f 145/145/145 155/155/155 153/153/153
