# Generated from Nova1492 GX by tools/nova1492/GxObjConverter
mtllib datan_common_reinforce_n1_a3d96330.mtl
o datan_common_reinforce_n1_a3d96330_mesh00
v 0.3116 0.5554 -0.4682
v -0.3122 0.5554 -0.4682
v -0.3122 0.8356 -0.4682
v 0.3116 0.8356 -0.4682
v -0.5187 1.0915 -0.4968
v -0.5187 0.2995 -0.0292
v -0.5187 1.0915 -0.0292
v -0.5187 0.2995 -0.4968
v 0.5187 0.2995 -0.4968
v -0.5187 0.2995 -0.4968
v -0.4108 0.4319 -0.5895
v 0.4126 0.4319 -0.5895
v -0.5187 1.0915 -0.4968
v -0.4108 0.4319 -0.5895
v -0.5187 0.2995 -0.4968
v -0.4108 0.9592 -0.5895
v 0.5187 1.0915 -0.4968
v -0.4108 0.9592 -0.5895
v -0.5187 1.0915 -0.4968
v 0.4126 0.9592 -0.5895
v 0.5187 1.0915 -0.4968
v 0.5187 0.2995 -0.4968
v 0.4126 0.4319 -0.5895
v 0.4126 0.9592 -0.5895
v -0.4108 0.4319 -0.5895
v 0.3116 0.5554 -0.4682
v 0.4126 0.4319 -0.5895
v -0.3122 0.5554 -0.4682
v -0.4108 0.4319 -0.5895
v -0.4108 0.9592 -0.5895
v -0.3122 0.8356 -0.4682
v -0.3122 0.5554 -0.4682
v -0.4108 0.9592 -0.5895
v 0.4126 0.9592 -0.5895
v 0.3116 0.8356 -0.4682
v -0.3122 0.8356 -0.4682
v 0.4126 0.4319 -0.5895
v 0.3116 0.8356 -0.4682
v 0.4126 0.9592 -0.5895
v 0.3116 0.5554 -0.4682
v 0.5187 0.2995 -0.0292
v -0.5187 0.2995 -0.0292
v -0.5187 0.2995 -0.4968
v 0.5187 0.2995 -0.4968
v -0.5187 1.0915 -0.0292
v 0.5187 1.0915 -0.0292
v 0.5187 1.0915 -0.4968
v -0.5187 1.0915 -0.4968
v 0.5187 1.0915 -0.0292
v 0.5187 0.2995 -0.0292
v 0.5187 0.2995 -0.4968
v 0.5187 1.0915 -0.4968
v -0.3122 0.8356 0.4098
v 0.3116 0.5554 0.4098
v 0.3116 0.8356 0.4098
v -0.3122 0.5554 0.4098
v -0.5187 1.0915 0.4383
v -0.5187 0.2995 -0.0292
v -0.5187 0.2995 0.4383
v -0.5187 1.0915 -0.0292
v 0.5187 0.2995 0.4383
v -0.4108 0.4319 0.531
v -0.5187 0.2995 0.4383
v 0.4126 0.4319 0.531
v -0.5187 1.0915 0.4383
v -0.4108 0.4319 0.531
v -0.4108 0.9592 0.531
v -0.5187 0.2995 0.4383
v -0.4108 0.9592 0.531
v 0.5187 1.0915 0.4383
v -0.5187 1.0915 0.4383
v 0.4126 0.9592 0.531
v 0.4126 0.4319 0.531
v 0.5187 1.0915 0.4383
v 0.4126 0.9592 0.531
v 0.5187 0.2995 0.4383
v -0.4108 0.4319 0.531
v 0.3116 0.5554 0.4098
v -0.3122 0.5554 0.4098
v 0.4126 0.4319 0.531
v -0.3122 0.8356 0.4098
v -0.4108 0.4319 0.531
v -0.3122 0.5554 0.4098
v -0.4108 0.9592 0.531
v 0.3116 0.8356 0.4098
v -0.4108 0.9592 0.531
v -0.3122 0.8356 0.4098
v 0.4126 0.9592 0.531
v 0.3116 0.8356 0.4098
v 0.4126 0.4319 0.531
v 0.4126 0.9592 0.531
v 0.3116 0.5554 0.4098
v -0.5187 0.2995 -0.0292
v 0.5187 0.2995 -0.0292
v -0.5187 0.2995 0.4383
v 0.5187 0.2995 0.4383
v 0.5187 1.0915 -0.0292
v -0.5187 1.0915 -0.0292
v 0.5187 1.0915 0.4383
v -0.5187 1.0915 0.4383
v 0.5187 1.0915 0.4383
v 0.5187 0.2995 0.4383
v 0.5187 1.0915 -0.0292
v 0.5187 0.2995 -0.0292
vt 0.2419 0.2376
vt 0.7585 0.2379
vt 0.7585 0.4159
vt 0.2419 0.4162
vt 0.0088 0.9947
vt 0.2589 0.6522
vt 0.2589 0.9947
vt 0.0088 0.6522
vt 0.0089 0.0126
vt 0.9914 0.0126
vt 0.8703 0.1292
vt 0.1284 0.129
vt 0.9914 0.6412
vt 0.8703 0.1292
vt 0.9914 0.0126
vt 0.8703 0.5246
vt 0.0089 0.6412
vt 0.8703 0.5246
vt 0.9914 0.6412
vt 0.1284 0.5248
vt 0.0089 0.6412
vt 0.0089 0.0126
vt 0.1284 0.129
vt 0.1284 0.5248
vt 0.8703 0.1292
vt 0.2419 0.2376
vt 0.1284 0.129
vt 0.7585 0.2379
vt 0.8703 0.1292
vt 0.8703 0.5246
vt 0.7585 0.4159
vt 0.7585 0.2379
vt 0.8703 0.5246
vt 0.1284 0.5248
vt 0.2419 0.4162
vt 0.7585 0.4159
vt 0.1284 0.129
vt 0.2419 0.4162
vt 0.1284 0.5248
vt 0.2419 0.2376
vt 0.2703 0.6671
vt 0.9927 0.6671
vt 0.9927 0.9927
vt 0.2703 0.9927
vt 0.2703 0.6671
vt 0.9927 0.6671
vt 0.9927 0.9927
vt 0.2703 0.9927
vt 0.0088 0.9937
vt 0.0088 0.6512
vt 0.2589 0.6512
vt 0.2589 0.9937
vt 0.7585 0.4159
vt 0.2419 0.2376
vt 0.2419 0.4162
vt 0.7585 0.2379
vt 0.2589 0.9947
vt 0.0088 0.6522
vt 0.2589 0.6522
vt 0.0088 0.9947
vt 0.0089 0.0126
vt 0.8703 0.1292
vt 0.9914 0.0126
vt 0.1284 0.129
vt 0.9914 0.6412
vt 0.8703 0.1292
vt 0.8703 0.5246
vt 0.9914 0.0126
vt 0.8703 0.5246
vt 0.0089 0.6412
vt 0.9914 0.6412
vt 0.1284 0.5248
vt 0.1284 0.129
vt 0.0089 0.6412
vt 0.1284 0.5248
vt 0.0089 0.0126
vt 0.8703 0.1292
vt 0.2419 0.2376
vt 0.7585 0.2379
vt 0.1284 0.129
vt 0.7585 0.4159
vt 0.8703 0.1292
vt 0.7585 0.2379
vt 0.8703 0.5246
vt 0.2419 0.4162
vt 0.8703 0.5246
vt 0.7585 0.4159
vt 0.1284 0.5248
vt 0.2419 0.4162
vt 0.1284 0.129
vt 0.1284 0.5248
vt 0.2419 0.2376
vt 0.9927 0.9927
vt 0.2703 0.9927
vt 0.9927 0.6671
vt 0.2703 0.6671
vt 0.9927 0.9927
vt 0.2703 0.9927
vt 0.9927 0.6671
vt 0.2703 0.6671
vt 0.0088 0.9947
vt 0.0088 0.6522
vt 0.2589 0.9947
vt 0.2589 0.6522
vn 0 0 -1
vn 0 0 -1
vn 0 0 -1
vn 0 0 -1
vn -1 0 0
vn -1 0 0
vn -1 0 0
vn -1 0 0
vn 0 -0.654908 -0.755709
vn 0 -0.654908 -0.755709
vn 0 -0.654908 -0.755709
vn 0 -0.654908 -0.755709
vn -0.651902 0 -0.758303
vn -0.651902 0 -0.758303
vn -0.651902 0 -0.758303
vn -0.651902 0 -0.758303
vn 0 0.654908 -0.755709
vn 0 0.654908 -0.755709
vn 0 0.654908 -0.755709
vn 0 0.654908 -0.755709
vn 0.658009 0 -0.75301
vn 0.658009 0 -0.75301
vn 0.658009 0 -0.75301
vn 0.658009 0 -0.75301
vn 0 0.771922 -0.635718
vn 0 0.771922 -0.635718
vn 0 0.771922 -0.635718
vn 0 0.771922 -0.635718
vn 0.775523 0 -0.631319
vn 0.775523 0 -0.631319
vn 0.775523 0 -0.631319
vn 0.775523 0 -0.631319
vn 0 -0.771922 -0.635718
vn 0 -0.771922 -0.635718
vn 0 -0.771922 -0.635718
vn 0 -0.771922 -0.635718
vn -0.768344 0 -0.640037
vn -0.768344 0 -0.640037
vn -0.768344 0 -0.640037
vn -0.768344 0 -0.640037
vn 0 -1 0
vn 0 -1 0
vn 0 -1 0
vn 0 -1 0
vn 0 1 0
vn 0 1 0
vn 0 1 0
vn 0 1 0
vn 1 0 0
vn 1 0 0
vn 1 0 0
vn 1 0 0
vn 0 0 1
vn 0 0 1
vn 0 0 1
vn 0 0 1
vn -1 0 0
vn -1 0 0
vn -1 0 0
vn -1 0 0
vn 0 -0.654908 0.755709
vn 0 -0.654908 0.755709
vn 0 -0.654908 0.755709
vn 0 -0.654908 0.755709
vn -0.651902 0 0.758303
vn -0.651902 0 0.758303
vn -0.651902 0 0.758303
vn -0.651902 0 0.758303
vn 0 0.654908 0.755709
vn 0 0.654908 0.755709
vn 0 0.654908 0.755709
vn 0 0.654908 0.755709
vn 0.658009 0 0.75301
vn 0.658009 0 0.75301
vn 0.658009 0 0.75301
vn 0.658009 0 0.75301
vn 0 0.771922 0.635718
vn 0 0.771922 0.635718
vn 0 0.771922 0.635718
vn 0 0.771922 0.635718
vn 0.775523 0 0.631319
vn 0.775523 0 0.631319
vn 0.775523 0 0.631319
vn 0.775523 0 0.631319
vn 0 -0.771922 0.635718
vn 0 -0.771922 0.635718
vn 0 -0.771922 0.635718
vn 0 -0.771922 0.635718
vn -0.768344 0 0.640037
vn -0.768344 0 0.640037
vn -0.768344 0 0.640037
vn -0.768344 0 0.640037
vn 0 -1 0
vn 0 -1 0
vn 0 -1 0
vn 0 -1 0
vn 0 1 0
vn 0 1 0
vn 0 1 0
vn 0 1 0
vn 1 0 0
vn 1 0 0
vn 1 0 0
vn 1 0 0
usemtl datan_common_reinforce_n1_a3d96330
f 1/1/1 2/2/2 3/3/3
f 1/1/1 3/3/3 4/4/4
f 5/5/5 6/6/6 7/7/7
f 6/6/6 5/5/5 8/8/8
f 9/9/9 10/10/10 11/11/11
f 9/9/9 11/11/11 12/12/12
f 13/13/13 14/14/14 15/15/15
f 14/14/14 13/13/13 16/16/16
f 17/17/17 18/18/18 19/19/19
f 18/18/18 17/17/17 20/20/20
f 21/21/21 22/22/22 23/23/23
f 21/21/21 23/23/23 24/24/24
f 25/25/25 26/26/26 27/27/27
f 26/26/26 25/25/25 28/28/28
f 29/29/29 30/30/30 31/31/31
f 29/29/29 31/31/31 32/32/32
f 33/33/33 34/34/34 35/35/35
f 33/33/33 35/35/35 36/36/36
f 37/37/37 38/38/38 39/39/39
f 38/38/38 37/37/37 40/40/40
f 41/41/41 42/42/42 43/43/43
f 41/41/41 43/43/43 44/44/44
f 45/45/45 46/46/46 47/47/47
f 45/45/45 47/47/47 48/48/48
f 49/49/49 50/50/50 51/51/51
f 49/49/49 51/51/51 52/52/52
f 53/53/53 54/54/54 55/55/55
f 54/54/54 53/53/53 56/56/56
f 57/57/57 58/58/58 59/59/59
f 58/58/58 57/57/57 60/60/60
f 61/61/61 62/62/62 63/63/63
f 62/62/62 61/61/61 64/64/64
f 65/65/65 66/66/66 67/67/67
f 66/66/66 65/65/65 68/68/68
f 69/69/69 70/70/70 71/71/71
f 70/70/70 69/69/69 72/72/72
f 73/73/73 74/74/74 75/75/75
f 76/76/76 74/74/74 73/73/73
f 77/77/77 78/78/78 79/79/79
f 78/78/78 77/77/77 80/80/80
f 81/81/81 82/82/82 83/83/83
f 84/84/84 82/82/82 81/81/81
f 85/85/85 86/86/86 87/87/87
f 88/88/88 86/86/86 85/85/85
f 89/89/89 90/90/90 91/91/91
f 90/90/90 89/89/89 92/92/92
f 93/93/93 94/94/94 95/95/95
f 96/96/96 95/95/95 94/94/94
f 97/97/97 98/98/98 99/99/99
f 100/100/100 99/99/99 98/98/98
f 101/101/101 102/102/102 103/103/103
f 102/102/102 104/104/104 103/103/103
o datan_common_reinforce_n1_a3d96330_mesh01
v -0.5873 0.4094 0.5581
v -0.3576 0.4094 0.5581
v -0.5873 0.4094 0.3284
v -0.3576 0.4094 0.3284
v -0.683 0 0.6349
v -0.5873 0.4094 0.3284
v -0.683 0 0.2138
v -0.5873 0.4094 0.5581
v -0.2619 0 0.6349
v -0.5873 0.4094 0.5581
v -0.683 0 0.6349
v -0.3576 0.4094 0.5581
v -0.3576 0.4094 0.5581
v -0.2619 0 0.6349
v -0.3576 0.4094 0.3284
v -0.2619 0 0.2138
v -0.683 0 0.2138
v -0.5873 0.4094 0.3284
v -0.2619 0 0.2138
v -0.3576 0.4094 0.3284
v 0.3576 0.4094 0.5581
v 0.5873 0.4094 0.5581
v 0.3576 0.4094 0.3284
v 0.5873 0.4094 0.3284
v 0.2619 -0.0004 0.6349
v 0.3576 0.4094 0.3284
v 0.2619 -0.0004 0.2138
v 0.3576 0.4094 0.5581
v 0.2619 -0.0004 0.6349
v 0.683 -0.0004 0.6349
v 0.5873 0.4094 0.5581
v 0.3576 0.4094 0.5581
v 0.5873 0.4094 0.5581
v 0.683 -0.0004 0.6349
v 0.5873 0.4094 0.3284
v 0.683 -0.0004 0.2138
v 0.2619 -0.0004 0.2138
v 0.5873 0.4094 0.3284
v 0.683 -0.0004 0.2138
v 0.3576 0.4094 0.3284
v -0.5873 0.4094 -0.3868
v -0.3576 0.4094 -0.3868
v -0.5873 0.4094 -0.6165
v -0.3576 0.4094 -0.6165
v -0.683 0 -0.31
v -0.5873 0.4094 -0.6165
v -0.683 0 -0.7312
v -0.5873 0.4094 -0.3868
v -0.2619 0 -0.31
v -0.5873 0.4094 -0.3868
v -0.683 0 -0.31
v -0.3576 0.4094 -0.3868
v -0.3576 0.4094 -0.3868
v -0.2619 0 -0.31
v -0.3576 0.4094 -0.6165
v -0.2619 0 -0.7312
v -0.683 0 -0.7312
v -0.5873 0.4094 -0.6165
v -0.2619 0 -0.7312
v -0.3576 0.4094 -0.6165
v 0.3576 0.4094 -0.3868
v 0.5873 0.4094 -0.3868
v 0.3576 0.4094 -0.6165
v 0.5873 0.4094 -0.6165
v 0.2619 -0.0004 -0.31
v 0.3576 0.4094 -0.6165
v 0.2619 -0.0004 -0.7312
v 0.3576 0.4094 -0.3868
v 0.2619 -0.0004 -0.31
v 0.683 -0.0004 -0.31
v 0.5873 0.4094 -0.3868
v 0.3576 0.4094 -0.3868
v 0.5873 0.4094 -0.3868
v 0.683 -0.0004 -0.31
v 0.5873 0.4094 -0.6165
v 0.683 -0.0004 -0.7312
v 0.2619 -0.0004 -0.7312
v 0.5873 0.4094 -0.6165
v 0.683 -0.0004 -0.7312
v 0.3576 0.4094 -0.6165
vt 0.637 0.6459
vt 0.9812 0.6459
vt 0.637 0.9901
vt 0.9812 0.9901
vt 0.7449 0.0098
vt 0.1797 0.711
vt 0.0036 0.0098
vt 0.5841 0.711
vt 0.7449 0.0098
vt 0.1797 0.711
vt 0.0036 0.0098
vt 0.5841 0.711
vt 0.1797 0.711
vt 0.0036 0.0098
vt 0.5841 0.711
vt 0.7449 0.0098
vt 0.7449 0.0098
vt 0.5841 0.711
vt 0.0036 0.0098
vt 0.1797 0.711
vt 0.637 0.6459
vt 0.9812 0.6459
vt 0.637 0.9901
vt 0.9812 0.9901
vt 0.7449 0.0098
vt 0.1797 0.711
vt 0.0036 0.0098
vt 0.5841 0.711
vt 0.0036 0.0098
vt 0.7449 0.0098
vt 0.5841 0.711
vt 0.1797 0.711
vt 0.1797 0.711
vt 0.0036 0.0098
vt 0.5841 0.711
vt 0.7449 0.0098
vt 0.7449 0.0098
vt 0.1797 0.711
vt 0.0036 0.0098
vt 0.5841 0.711
vt 0.637 0.6459
vt 0.9812 0.6459
vt 0.637 0.9901
vt 0.9812 0.9901
vt 0.7449 0.0098
vt 0.1797 0.711
vt 0.0036 0.0098
vt 0.5841 0.711
vt 0.7449 0.0098
vt 0.1797 0.711
vt 0.0036 0.0098
vt 0.5841 0.711
vt 0.1797 0.711
vt 0.0036 0.0098
vt 0.5841 0.711
vt 0.7449 0.0098
vt 0.7449 0.0098
vt 0.5841 0.711
vt 0.0036 0.0098
vt 0.1797 0.711
vt 0.637 0.6459
vt 0.9812 0.6459
vt 0.637 0.9901
vt 0.9812 0.9901
vt 0.7449 0.0098
vt 0.1797 0.711
vt 0.0036 0.0098
vt 0.5841 0.711
vt 0.0036 0.0098
vt 0.7449 0.0098
vt 0.5841 0.711
vt 0.1797 0.711
vt 0.1797 0.711
vt 0.0036 0.0098
vt 0.5841 0.711
vt 0.7449 0.0098
vt 0.7449 0.0098
vt 0.1797 0.711
vt 0.0036 0.0098
vt 0.5841 0.711
vn 0 1 0
vn 0 1 0
vn 0 1 0
vn 0 1 0
vn -0.973757 0.22759 0
vn -0.973757 0.22759 0
vn -0.973757 0.22759 0
vn -0.973757 0.22759 0
vn 0 0.184295 0.982871
vn 0 0.184295 0.982871
vn 0 0.184295 0.982871
vn 0 0.184295 0.982871
vn 0.973757 0.22759 0
vn 0.973757 0.22759 0
vn 0.973757 0.22759 0
vn 0.973757 0.22759 0
vn 0 0.269593 -0.962974
vn 0 0.269593 -0.962974
vn 0 0.269593 -0.962974
vn 0 0.269593 -0.962974
vn 0 1 0
vn 0 1 0
vn 0 1 0
vn 0 1 0
vn -0.973801 0.2274 0
vn -0.973801 0.2274 0
vn -0.973801 0.2274 0
vn -0.973801 0.2274 0
vn 0 0.184101 0.982907
vn 0 0.184101 0.982907
vn 0 0.184101 0.982907
vn 0 0.184101 0.982907
vn 0.973801 0.2274 0
vn 0.973801 0.2274 0
vn 0.973801 0.2274 0
vn 0.973801 0.2274 0
vn 0 0.269407 -0.963026
vn 0 0.269407 -0.963026
vn 0 0.269407 -0.963026
vn 0 0.269407 -0.963026
vn 0 1 0
vn 0 1 0
vn 0 1 0
vn 0 1 0
vn -0.973757 0.22759 0
vn -0.973757 0.22759 0
vn -0.973757 0.22759 0
vn -0.973757 0.22759 0
vn 0 0.184295 0.982871
vn 0 0.184295 0.982871
vn 0 0.184295 0.982871
vn 0 0.184295 0.982871
vn 0.973757 0.22759 0
vn 0.973757 0.22759 0
vn 0.973757 0.22759 0
vn 0.973757 0.22759 0
vn 0 0.269593 -0.962974
vn 0 0.269593 -0.962974
vn 0 0.269593 -0.962974
vn 0 0.269593 -0.962974
vn 0 1 0
vn 0 1 0
vn 0 1 0
vn 0 1 0
vn -0.973801 0.2274 0
vn -0.973801 0.2274 0
vn -0.973801 0.2274 0
vn -0.973801 0.2274 0
vn 0 0.184101 0.982907
vn 0 0.184101 0.982907
vn 0 0.184101 0.982907
vn 0 0.184101 0.982907
vn 0.973801 0.2274 0
vn 0.973801 0.2274 0
vn 0.973801 0.2274 0
vn 0.973801 0.2274 0
vn 0 0.269407 -0.963026
vn 0 0.269407 -0.963026
vn 0 0.269407 -0.963026
vn 0 0.269407 -0.963026
usemtl datan_common_reinforce_n1_a3d96330
f 105/105/105 106/106/106 107/107/107
f 106/106/106 108/108/108 107/107/107
f 109/109/109 110/110/110 111/111/111
f 110/110/110 109/109/109 112/112/112
f 113/113/113 114/114/114 115/115/115
f 114/114/114 113/113/113 116/116/116
f 117/117/117 118/118/118 119/119/119
f 118/118/118 120/120/120 119/119/119
f 121/121/121 122/122/122 123/123/123
f 123/123/123 122/122/122 124/124/124
f 125/125/125 126/126/126 127/127/127
f 126/126/126 128/128/128 127/127/127
f 129/129/129 130/130/130 131/131/131
f 130/130/130 129/129/129 132/132/132
f 133/133/133 134/134/134 135/135/135
f 133/133/133 135/135/135 136/136/136
f 137/137/137 138/138/138 139/139/139
f 138/138/138 140/140/140 139/139/139
f 141/141/141 142/142/142 143/143/143
f 142/142/142 141/141/141 144/144/144
f 145/145/145 146/146/146 147/147/147
f 146/146/146 148/148/148 147/147/147
f 149/149/149 150/150/150 151/151/151
f 150/150/150 149/149/149 152/152/152
f 153/153/153 154/154/154 155/155/155
f 154/154/154 153/153/153 156/156/156
f 157/157/157 158/158/158 159/159/159
f 158/158/158 160/160/160 159/159/159
f 161/161/161 162/162/162 163/163/163
f 163/163/163 162/162/162 164/164/164
f 165/165/165 166/166/166 167/167/167
f 166/166/166 168/168/168 167/167/167
f 169/169/169 170/170/170 171/171/171
f 170/170/170 169/169/169 172/172/172
f 173/173/173 174/174/174 175/175/175
f 173/173/173 175/175/175 176/176/176
f 177/177/177 178/178/178 179/179/179
f 178/178/178 180/180/180 179/179/179
f 181/181/181 182/182/182 183/183/183
f 182/182/182 181/181/181 184/184/184
