# Generated from Nova1492 GX by tools/nova1492/GxObjConverter
mtllib datan_common_bu10_5c03d3a4.mtl
o datan_common_bu10_5c03d3a4_mesh00
v -0.2944 1.3774 0.0856
v 0.5925 0.022 0.0574
v 0.5925 1.3774 0.0856
v -0.5925 0.022 0.0574
v -0.427 1.3774 0.0856
v -0.5925 1.3774 0.0856
v 0.5925 0.022 -0.1147
v -0.5925 0.022 -0.1147
v 0.5925 1.3774 -0.0864
v -0.5925 1.3774 -0.0864
v -0.5925 1.3774 -0.0864
v -0.5925 0.022 0.0574
v -0.5925 1.3774 0.0856
v -0.5925 0.022 -0.1147
v -0.5925 0.022 -0.1147
v 0.5925 0.022 -0.1147
v -0.5925 0.022 0.0574
v 0.5925 0.022 0.0574
v 0.5925 0.022 -0.1147
v 0.5925 1.3774 -0.0864
v 0.5925 0.022 0.0574
v 0.5925 1.3774 0.0856
v 0.5925 1.3774 -0.0864
v -0.5925 1.3774 -0.0864
v 0.5925 1.3774 0.0856
v -0.5925 1.3774 0.0856
vt 0.2286 0.9814
vt 0.9027 0.002
vt 0.9027 0.9814
vt 0.002 0.002
vt 0.1235 0.9814
vt 0.002 0.9814
vt 0.002 0.002
vt 0.9027 0.002
vt 0.002 0.9814
vt 0.9027 0.9814
vt 0.8753 0.9779
vt 0.8753 -0.0015
vt 0.8753 0.9779
vt 0.8753 -0.0015
vt 0.002 0.002
vt 0.9027 0.002
vt 0.002 0.002
vt 0.9027 0.002
vt 0.874 0.0174
vt 0.874 0.9968
vt 0.874 0.0174
vt 0.874 0.9968
vt 0.9027 0.5422
vt 0.002 0.5422
vt 0.9027 0.5422
vt 0.002 0.5422
vn 0 -0.0209 0.999782
vn 0 -0.0209 0.999782
vn 0 -0.0209 0.999782
vn 0 -0.0209 0.999782
vn 0 -0.0209 0.999782
vn 0 -0.0209 0.999782
vn 0 0.0209 -0.999782
vn 0 0.0209 -0.999782
vn 0 0.0209 -0.999782
vn 0 0.0209 -0.999782
vn -1 0 0
vn -1 0 0
vn -1 0 0
vn -1 0 0
vn 0 -1 0
vn 0 -1 0
vn 0 -1 0
vn 0 -1 0
vn 1 0 0
vn 1 0 0
vn 1 0 0
vn 1 0 0
vn 0 1 0
vn 0 1 0
vn 0 1 0
vn 0 1 0
usemtl datan_common_bu10_5c03d3a4
f 1/1/1 2/2/2 3/3/3
f 2/2/2 1/1/1 4/4/4
f 5/5/5 4/4/4 1/1/1
f 6/6/6 4/4/4 5/5/5
f 7/7/7 8/8/8 9/9/9
f 8/8/8 10/10/10 9/9/9
f 11/11/11 12/12/12 13/13/13
f 12/12/12 11/11/11 14/14/14
f 15/15/15 16/16/16 17/17/17
f 18/18/18 17/17/17 16/16/16
f 19/19/19 20/20/20 21/21/21
f 22/22/22 21/21/21 20/20/20
f 23/23/23 24/24/24 25/25/25
f 26/26/26 25/25/25 24/24/24
