# Generated from Nova1492 GX by tools/nova1492/GxObjConverter
mtllib datan_common_num-01_4b6bde21.mtl
o datan_common_num-01_4b6bde21_mesh00
v -0.5 0.993908 0
v -0.5 1.993908 0
v 0.5 1.993908 0
v 0.5 0.993908 0
v -0.5 0.993908 0
v 0.5 0.993908 0
v 0.5 1.993908 0
v -0.5 1.993908 0
vt 0.0005 0.0005
vt 0.0005 0.999501
vt 0.999501 0.9995
vt 0.9995 0.000499
vt 0.0005 0.0005
vt 0.9995 0.000499
vt 0.999501 0.9995
vt 0.0005 0.999501
vn 0 0 -1
vn -0 0 -1
vn 0 0 -1
vn 0 -0 -1
vn 0 0 1
vn 0 0 1
vn 0 0 1
vn 0 0 1
usemtl datan_common_num-01_4b6bde21
f 1/1/1 2/2/2 3/3/3
f 3/3/3 4/4/4 1/1/1
f 5/5/5 6/6/6 7/7/7
f 7/7/7 8/8/8 5/5/5
o datan_common_num-01_4b6bde21_mesh01
v -2.106444 -2.106444 -0.000211
v -2.106444 2.106444 -0.000211
v 2.106444 2.106444 -0.000211
v 2.106444 -2.106444 -0.000211
v -2.106444 -2.106444 -0.000211
v 2.106444 -2.106444 -0.000211
v 2.106444 2.106444 -0.000211
v -2.106444 2.106444 -0.000211
vt 0.0005 0.0005
vt 0.0005 0.999501
vt 0.999501 0.9995
vt 0.9995 0.000499
vt 0.0005 0.0005
vt 0.9995 0.000499
vt 0.999501 0.9995
vt 0.0005 0.999501
vn 0 0 -1
vn -0 0 -1
vn 0 0 -1
vn 0 -0 -1
vn 0 0 1
vn 0 0 1
vn 0 0 1
vn 0 0 1
usemtl datan_common_num-01_4b6bde21
f 9/9/9 10/10/10 11/11/11
f 11/11/11 12/12/12 9/9/9
f 13/13/13 14/14/14 15/15/15
f 15/15/15 16/16/16 13/13/13
o datan_common_num-01_4b6bde21_mesh02
v -2.106444 -2.106444 -0.000211
v -2.106444 2.106444 -0.000211
v 2.106444 2.106444 -0.000211
v 2.106444 -2.106444 -0.000211
v -2.106444 -2.106444 -0.000211
v 2.106444 -2.106444 -0.000211
v 2.106444 2.106444 -0.000211
v -2.106444 2.106444 -0.000211
vt 0.0005 0.0005
vt 0.0005 0.999501
vt 0.999501 0.9995
vt 0.9995 0.000499
vt 0.0005 0.0005
vt 0.9995 0.000499
vt 0.999501 0.9995
vt 0.0005 0.999501
vn 0 0 -1
vn -0 0 -1
vn 0 0 -1
vn 0 -0 -1
vn 0 0 1
vn 0 0 1
vn 0 0 1
vn 0 0 1
usemtl datan_common_num-01_4b6bde21
f 17/17/17 18/18/18 19/19/19
f 19/19/19 20/20/20 17/17/17
f 21/21/21 22/22/22 23/23/23
f 23/23/23 24/24/24 21/21/21
