# Generated from Nova1492 GX by tools/nova1492/GxObjConverter
mtllib datan_common_legs6_ok_919e17d1.mtl
o datan_common_legs6_ok_919e17d1
v -0.022498 -0.576742 -0.254898
v -0.030975 -0.056799 -0.144593
v 0.019217 -0.052781 -0.144593
v 0.109551 -0.566172 -0.254898
v -0.051171 -0.571802 0.072441
v 0.136851 -0.556752 0.072441
v 0.050604 -0.040485 0.110819
v -0.064219 -0.049677 0.110819
v -0.022498 -0.576742 -0.254898
v 0.109551 -0.566172 -0.254898
v 0.172515 -0.663762 -0.108393
v -0.065984 -0.682853 -0.108393
v -0.050577 -0.370205 0.085481
v 0.098982 -0.358234 0.085481
v 0.03829 -0.116408 0.228831
v -0.035358 -0.122303 0.228831
v 0.050577 -0.058832 0.102845
v -0.059895 -0.067675 0.102845
v 0.109551 -0.566172 -0.254898
v 0.019217 -0.052781 -0.144593
v 0.080906 -0.006498 0.030034
v 0.172515 -0.663762 -0.108393
v 0.050604 -0.040485 0.110819
v 0.136851 -0.556752 0.072441
v 0.019217 -0.052781 -0.144593
v -0.030975 -0.056799 -0.144593
v -0.100511 -0.021019 0.030034
v 0.080906 -0.006498 0.030034
v -0.064219 -0.049677 0.110819
v 0.050604 -0.040485 0.110819
v 0.088073 -0.44849 -0.215566
v 0.033479 -0.092189 -0.124508
v 0.083436 -0.136011 -0.09417
v 0.193692 -0.411085 -0.162915
v 0.122116 -0.48379 0.061521
v 0.196131 -0.436582 0.024306
v 0.085383 -0.15637 0.055321
v 0.056481 -0.12071 0.096739
v 0.223356 -0.407443 -0.060158
v 0.152685 -0.577768 -0.089677
v 0.121433 -0.090423 0.006098
v 0.079004 -0.033815 0.022383
v -0.035358 -0.122303 0.228831
v 0.03829 -0.116408 0.228831
v 0.050577 -0.058832 0.102845
v -0.059895 -0.067675 0.102845
v 0.235015 -0.544656 -0.024099
v 0.187455 -0.569623 -0.100013
v 0.230945 -0.529113 -0.165743
v 0.278505 -0.504145 -0.089828
v 0.138915 -0.361688 -0.05274
v 0.095425 -0.402199 0.012989
v 0.091355 -0.386656 -0.128655
v 0.047865 -0.427166 -0.062925
v 0.043165 0.000674 0.10661
v 0.015681 0.118272 0.006521
v -0.043784 0.113512 0.006521
v -0.056646 -0.007316 0.10661
v 0.027597 0.027134 -0.123932
v -0.046337 0.021216 -0.123932
v 0.045329 -0.087998 -0.06643
v -0.042652 -0.095041 -0.06643
v -0.030975 -0.056799 -0.144593
v -0.022498 -0.576742 -0.254898
v -0.065984 -0.682853 -0.108393
v -0.100511 -0.021019 0.030034
v -0.051171 -0.571802 0.072441
v -0.064219 -0.049677 0.110819
v -0.02703 -0.457703 -0.215566
v -0.08115 -0.149186 -0.094169
v -0.035566 -0.097716 -0.124508
v -0.134377 -0.437346 -0.162915
v -0.054493 -0.497927 0.061521
v -0.089887 -0.1704 0.055321
v -0.131939 -0.462843 0.024306
v -0.059698 -0.13001 0.096739
v -0.164282 -0.438472 -0.060158
v -0.06608 -0.595279 -0.089677
v -0.127222 -0.110327 0.006099
v -0.096181 -0.047838 0.022383
vt 0.565395 0.127859
vt 0.574646 0.234662
vt 0.580594 0.234662
vt 0.589966 0.120203
vt 0.518268 0.107219
vt 0.606733 0.107219
vt 0.588767 0.473623
vt 0.536233 0.473623
vt 0.532005 0.062643
vt 0.592995 0.062643
vt 0.619121 0.011883
vt 0.505879 0.011883
vt 0.527948 0.251155
vt 0.597533 0.251155
vt 0.579232 0.432042
vt 0.546909 0.432042
vt 0.587899 0.459863
vt 0.537501 0.459863
vt 0.994121 0.083731
vt 0.958811 0.454043
vt 0.906739 0.488118
vt 0.951051 0.011883
vt 0.880879 0.463095
vt 0.893164 0.090666
vt 0.947905 0.449543
vt 0.923267 0.449543
vt 0.894889 0.488117
vt 0.98394 0.488117
vt 0.911233 0.473623
vt 0.967596 0.473623
vt 0.98153 0.17037
vt 0.95621 0.42503
vt 0.946498 0.392767
vt 0.968504 0.190252
vt 0.89666 0.144382
vt 0.904745 0.179137
vt 0.898644 0.377778
vt 0.885386 0.404032
vt 0.935611 0.192934
vt 0.94506 0.075193
vt 0.914401 0.42633
vt 0.909188 0.468006
vt 0.272158 0.014471
vt 0.346537 0.013459
vt 0.367168 0.238359
vt 0.25582 0.238359
vt 0.3825 0.01544
vt 0.441064 0.013334
vt 0.494121 0.011758
vt 0.431729 0.013863
vt 0.430108 0.229009
vt 0.380879 0.238242
vt 0.492501 0.226904
vt 0.439443 0.236137
vt 0.241636 0.018295
vt 0.210084 0.17467
vt 0.145646 0.171673
vt 0.130879 0.013265
vt 0.223764 0.234586
vt 0.142714 0.23086
vt 0.244121 0.110399
vt 0.146944 0.105965
vt 0.837639 0.461958
vt 0.869121 0.089464
vt 0.826051 0.011883
vt 0.781739 0.488117
vt 0.768164 0.093076
vt 0.755879 0.467165
vt 0.85653 0.176498
vt 0.821498 0.39441
vt 0.83121 0.432042
vt 0.843504 0.183726
vt 0.77166 0.147089
vt 0.773644 0.3789
vt 0.779745 0.17274
vt 0.760386 0.408431
vt 0.810611 0.182903
vt 0.82006 0.075911
vt 0.789401 0.422821
vt 0.784188 0.468509
vn -0.016589 0.207242 -0.978149
vn -0.016589 0.207242 -0.978149
vn -0.016589 0.207242 -0.978149
vn -0.016589 0.207242 -0.978149
vn 0.068251 -0.85264 0.518022
vn 0.068251 -0.85264 0.518022
vn 0.005856 -0.073159 0.997303
vn 0.005856 -0.073159 0.997303
vn 0.06542 -0.817277 -0.57252
vn 0.06542 -0.817277 -0.57252
vn 0.068251 -0.85264 0.518022
vn 0.068251 -0.85264 0.518022
vn -0.983894 -0.0403 0.174151
vn 0.975443 0.148258 0.162884
vn 0.975443 0.148258 0.162884
vn -0.983894 -0.0403 0.174151
vn 0.975443 0.148258 0.162884
vn -0.983894 -0.0403 0.174151
vn 0.941575 0.18983 -0.278211
vn 0.894022 0.23876 -0.379102
vn 0.927751 0.05146 0.369636
vn 0.982473 0.156615 0.101086
vn 0.982473 0.156615 0.101086
vn 0.982473 0.156615 0.101086
vn -0.077658 0.970158 -0.2297
vn -0.077657 0.970158 -0.2297
vn -0.074351 0.928857 0.362901
vn -0.074352 0.928857 0.362901
vn -0.074352 0.928857 0.362901
vn -0.074352 0.928857 0.362901
vn 0.764172 -0.211461 -0.609365
vn 0.728404 0.528655 -0.435835
vn 0.61299 0.605477 -0.507584
vn 0.898253 0.345545 -0.271553
vn 0.630288 -0.595801 0.497753
vn 0.871996 0.301994 0.385258
vn 0.8148 -0.012801 0.579601
vn 0.8148 -0.012801 0.579601
vn 0.871996 0.301994 0.385258
vn 0.630288 -0.595801 0.497753
vn 0.8148 -0.012801 0.579601
vn 0.702884 0.348448 0.620112
vn -0.072824 0.909774 0.408667
vn -0.072824 0.909774 0.408667
vn -0.072824 0.909774 0.408667
vn -0.072824 0.909774 0.408667
vn -0.524201 -0.65526 0.543919
vn -0.524201 -0.65526 0.543919
vn -0.611564 -0.425618 -0.666962
vn 0.524202 0.65526 -0.543919
vn 0.524202 0.65526 -0.543919
vn -0.524201 -0.65526 0.543919
vn -0.611564 -0.425618 -0.666962
vn -0.524201 -0.65526 0.543919
vn 0.983171 0.167284 -0.073425
vn 0.983171 0.167284 -0.073425
vn -0.995141 0.027657 -0.094499
vn -0.995141 0.027657 -0.094499
vn 0.989155 0.146392 -0.011919
vn -0.999384 -0.016296 0.03109
vn 0.983171 0.167284 -0.073425
vn -0.995141 0.027657 -0.094499
vn -0.926496 0.030119 -0.375097
vn -0.965293 0.039046 -0.258234
vn -0.988494 -0.0786 0.129239
vn -0.917704 -0.051884 0.393862
vn -0.917704 -0.051884 0.393862
vn -0.917704 -0.051884 0.393862
vn -0.725046 -0.341478 -0.598082
vn -0.707772 0.485354 -0.513312
vn -0.780904 0.418004 -0.464179
vn -0.947898 0.162392 -0.274077
vn -0.543267 -0.686329 0.483542
vn -0.803011 -0.010824 0.595866
vn -0.920729 0.092184 0.379157
vn -0.803011 -0.010824 0.595866
vn -0.920729 0.092184 0.379157
vn -0.543267 -0.686329 0.483542
vn -0.803011 -0.010824 0.595866
vn -0.759511 0.217527 0.613046
usemtl datan_common_legs6_ok_919e17d1
f 1/1/1 2/2/2 3/3/3
f 3/3/3 4/4/4 1/1/1
f 5/5/5 6/6/6 7/7/7
f 7/7/7 8/8/8 5/5/5
f 9/9/9 10/10/10 11/11/11
f 11/11/11 12/12/12 9/9/9
f 12/12/12 11/11/11 6/6/6
f 6/6/6 5/5/5 12/12/12
f 13/13/13 14/14/14 15/15/15
f 15/15/15 16/16/16 13/13/13
f 17/17/17 15/15/15 14/14/14
f 16/16/16 18/18/18 13/13/13
f 19/19/19 20/20/20 21/21/21
f 21/21/21 22/22/22 19/19/19
f 22/22/22 21/21/21 23/23/23
f 23/23/23 24/24/24 22/22/22
f 25/25/25 26/26/26 27/27/27
f 27/27/27 28/28/28 25/25/25
f 28/28/28 27/27/27 29/29/29
f 29/29/29 30/30/30 28/28/28
f 31/31/31 32/32/32 33/33/33
f 33/33/33 34/34/34 31/31/31
f 35/35/35 36/36/36 37/37/37
f 37/37/37 38/38/38 35/35/35
f 31/31/31 34/34/34 39/39/39
f 39/39/39 40/40/40 31/31/31
f 40/40/40 39/39/39 36/36/36
f 36/36/36 35/35/35 40/40/40
f 34/34/34 33/33/33 41/41/41
f 41/41/41 39/39/39 34/34/34
f 39/39/39 41/41/41 37/37/37
f 37/37/37 36/36/36 39/39/39
f 33/33/33 32/32/32 42/42/42
f 42/42/42 41/41/41 33/33/33
f 41/41/41 42/42/42 38/38/38
f 38/38/38 37/37/37 41/41/41
f 43/43/43 44/44/44 45/45/45
f 45/45/45 46/46/46 43/43/43
f 47/47/47 48/48/48 49/49/49
f 49/49/49 50/50/50 47/47/47
f 47/47/47 50/50/50 51/51/51
f 51/51/51 52/52/52 47/47/47
f 50/50/50 49/49/49 53/53/53
f 53/53/53 51/51/51 50/50/50
f 49/49/49 48/48/48 54/54/54
f 54/54/54 53/53/53 49/49/49
f 48/48/48 47/47/47 52/52/52
f 52/52/52 54/54/54 48/48/48
f 55/55/55 56/56/56 57/57/57
f 55/55/55 57/57/57 58/58/58
f 56/56/56 59/59/59 60/60/60
f 56/56/56 60/60/60 57/57/57
f 59/59/59 61/61/61 62/62/62
f 59/59/59 62/62/62 60/60/60
f 61/61/61 55/55/55 58/58/58
f 61/61/61 58/58/58 62/62/62
f 56/56/56 61/61/61 59/59/59
f 55/55/55 61/61/61 56/56/56
f 57/57/57 60/60/60 62/62/62
f 58/58/58 57/57/57 62/62/62
f 63/63/63 64/64/64 65/65/65
f 65/65/65 66/66/66 63/63/63
f 66/66/66 65/65/65 67/67/67
f 67/67/67 68/68/68 66/66/66
f 69/69/69 70/70/70 71/71/71
f 70/70/70 69/69/69 72/72/72
f 73/73/73 74/74/74 75/75/75
f 74/74/74 73/73/73 76/76/76
f 69/69/69 77/77/77 72/72/72
f 77/77/77 69/69/69 78/78/78
f 78/78/78 75/75/75 77/77/77
f 75/75/75 78/78/78 73/73/73
f 72/72/72 79/79/79 70/70/70
f 79/79/79 72/72/72 77/77/77
f 77/77/77 74/74/74 79/79/79
f 74/74/74 77/77/77 75/75/75
f 70/70/70 80/80/80 71/71/71
