# Generated from Nova1492 GX by tools/nova1492/GxObjConverter
mtllib datan_common_g_legs60_hord_e9dbaa85.mtl
o datan_common_g_legs60_hord_e9dbaa85
v -0.090773 -0.39464 0.182732
v -0.301594 -0.399014 -0.006624
v -0.301594 -0.636453 -0.006624
v -0.199424 -0.775324 -0.119453
v -0.199424 -0.775324 -0.006624
v -0.301594 -0.658039 -0.221828
v -0.079893 0.018297 -0.116316
v 0.098911 0.018297 -0.116316
v -0.079893 -0.091324 -0.304423
v 0.098911 -0.091324 -0.304423
v -0.079893 0.018297 -0.116316
v -0.079893 -0.091324 -0.304423
v -0.301594 -0.378139 -0.213925
v -0.103967 -0.498109 0.179821
v 0.063406 -0.498109 0.179821
v 0.076601 -0.39464 0.182732
v -0.079893 0.018297 0.104318
v 0.098911 0.018297 0.104318
v -0.116799 -0.297353 -0.416439
v 0.098911 -0.297353 -0.416439
v -0.116799 -0.297353 -0.416439
v 0.098911 -0.484846 -0.205798
v 0.119958 -0.370198 -0.188196
v 0.160787 -0.775324 -0.119453
v 0.160787 -0.775324 -0.006624
v 0.119958 -0.347042 -0.042156
v 0.098911 0.018297 -0.116316
v 0.160787 -0.775324 -0.006624
v 0.063406 -0.498109 0.179821
v -0.199424 -0.775324 -0.006624
v -0.103967 -0.498109 0.179821
v 0.160787 -0.775324 -0.119453
v -0.199424 -0.775324 -0.119453
v 0.098911 -0.484846 -0.205798
v -0.116799 -0.484846 -0.205798
v -0.301594 -0.658039 -0.221828
v -0.079893 0.018297 0.104318
v 0.098911 0.018297 0.104318
v -0.079893 0.018297 -0.116316
v 0.098911 0.018297 -0.116316
v -0.116799 -0.297353 -0.416439
v 0.098911 -0.297353 -0.416439
v -0.182143 0.172859 0.226715
v -0.186944 -0.236199 0.024944
v -0.271661 0.12927 0.267176
v -0.119967 -0.203586 -0.005329
v -0.12485 0.12927 0.306514
v -0.119967 -0.203586 -0.005329
v -0.182143 0.172859 0.226715
v -0.0771 -0.236199 0.054377
v -0.214367 0.085681 0.346975
v -0.144077 -0.268813 0.08465
v -0.271661 0.12927 0.267176
v -0.205182 0.167491 0.312696
v -0.182143 0.172859 0.226715
v -0.12485 0.12927 0.306514
v -0.214367 0.085681 0.346975
v 0.091762 -0.244532 0.020421
v 0.100014 0.161518 0.228071
v 0.196732 0.121894 0.253089
v 0.019397 -0.214885 0.001703
v 0.019397 -0.214885 0.001703
v 0.058164 0.114296 0.315071
v 0.100014 0.161518 0.228071
v -0.011915 -0.250217 0.066797
v 0.154882 0.074672 0.340089
v 0.06045 -0.279863 0.085515
v 0.136601 0.156316 0.309229
v 0.196732 0.121894 0.253089
v 0.100014 0.161518 0.228071
v 0.058164 0.114296 0.315071
v 0.154882 0.074672 0.340089
vt 0.773062 0.116414
vt 0.837833 0.115124
vt 0.837833 0.052729
vt 0.870511 0.011758
vt 0.828351 0.011758
vt 0.899906 0.038704
vt 0.503828 0.238242
vt 0.542188 0.238242
vt 0.503828 0.213557
vt 0.549682 0.205901
vt 0.872617 0.238242
vt 0.980547 0.205901
vt 0.905475 0.128939
vt 0.770548 0.085888
vt 0.728696 0.085888
vt 0.724125 0.116414
vt 0.767124 0.238242
vt 0.711284 0.238242
vt 0.980547 0.145117
vt 0.549799 0.145117
vt 0.503828 0.145117
vt 0.584319 0.089801
vt 0.608624 0.123625
vt 0.634973 0.011758
vt 0.67311 0.011758
vt 0.651808 0.130457
vt 0.636432 0.238242
vt 0.305531 0.042945
vt 0.318082 0.073456
vt 0.332929 0.042945
vt 0.319876 0.073456
vt 0.296919 0.042945
vt 0.344178 0.042945
vt 0.287715 0.075282
vt 0.277266 0.042891
vt 0.350815 0.051437
vt 0.32676 0.148383
vt 0.314151 0.148383
vt 0.342924 0.148383
vt 0.297249 0.144555
vt 0.367495 0.101096
vt 0.277686 0.101096
vt 0.988359 0.528222
vt 0.937422 0.261883
vt 0.937422 0.528222
vt 0.988359 0.261883
vt 0.812578 0.528222
vt 0.761641 0.261883
vt 0.761641 0.528222
vt 0.820234 0.261883
vt 0.878828 0.528222
vt 0.878828 0.261883
vt 0.971103 0.641302
vt 0.878166 0.641302
vt 0.878166 0.738249
vt 0.777573 0.633646
vt 0.878166 0.536699
vt 0.937422 0.261883
vt 0.988359 0.528222
vt 0.937422 0.528222
vt 0.988359 0.261883
vt 0.761641 0.261883
vt 0.812578 0.528222
vt 0.761641 0.528222
vt 0.820234 0.261883
vt 0.878828 0.528222
vt 0.878828 0.261883
vt 0.878166 0.641302
vt 0.971103 0.641302
vt 0.878166 0.738249
vt 0.777573 0.633646
vt 0.878166 0.536699
vn -0.661764 0.156658 0.733163
vn -0.883112 0.469162 0
vn -1 -0 -0
vn -0.754023 -0.656849 0
vn -0.941916 0.111202 0.316903
vn -0.742299 0.018913 -0.669802
vn -0 0.863995 -0.503501
vn 0 0.863995 -0.503501
vn 0 0.477658 -0.878546
vn 0.996024 0.042553 -0.078267
vn -0.883112 0.469162 0
vn -0.748358 0.415263 -0.517221
vn -0.748358 0.415263 -0.517221
vn -0.941916 0.111202 0.316903
vn 0.797056 -0.118303 0.592205
vn 0.982456 -0.017828 0.18564
vn -0.883112 0.469162 0
vn 0.982456 -0.017828 0.18564
vn -0.748358 0.415263 -0.517221
vn 0.996024 0.042553 -0.078267
vn 0 0.477658 -0.878546
vn 0.75029 -0.036394 -0.660106
vn 0.998536 0.054097 -0
vn 0.995099 0.09766 -0.015485
vn 0.797056 -0.118303 0.592205
vn 0.982456 -0.017828 0.18564
vn 0.998536 0.054097 -0
vn 0 -1 0
vn 0 -0.558084 0.829784
vn 0 -1 0
vn 0 -0.558084 0.829784
vn 0 -0.284929 -0.958549
vn 0.414991 -0.365681 -0.833102
vn -0 -0.746958 -0.664872
vn 0 -0.746958 -0.664872
vn 0.60394 -0.595348 -0.529923
vn -0 1 -0
vn -0 1 -0
vn -0 1 -0
vn -0 1 -0
vn 0 -0.746958 -0.664872
vn 0 -0.746958 -0.664872
vn -0.678161 0.169614 -0.715073
vn -0.788822 -0.519298 0.32877
vn -0.788822 -0.519298 0.32877
vn -0.678161 0.169614 -0.715073
vn 0.362335 -0.595779 0.716771
vn 0.873153 0.213721 -0.438095
vn 0.873153 0.213721 -0.438096
vn 0.362335 -0.595779 0.716771
vn -0.788822 -0.519298 0.328771
vn -0.788822 -0.519298 0.32877
vn -0.742743 0.130026 0.65683
vn -0.742743 0.130026 0.65683
vn 0.376007 0.881353 0.28607
vn 0.093567 0.14582 0.984877
vn -0.742743 0.130026 0.65683
vn 0.816607 -0.530103 0.228352
vn 0.480168 0.210659 -0.851506
vn 0.816607 -0.530103 0.228352
vn 0.480168 0.210659 -0.851506
vn -0.964149 0.13766 -0.226862
vn -0.299186 -0.602981 0.739528
vn -0.964149 0.137661 -0.226862
vn -0.299186 -0.602981 0.739528
vn 0.816606 -0.530103 0.228352
vn 0.816607 -0.530103 0.228352
vn 0.784001 0.152863 0.601644
vn 0.784001 0.152863 0.601644
vn -0.480679 0.792026 0.376354
vn -0.052825 0.108903 0.992648
vn 0.784001 0.152863 0.601644
usemtl datan_common_g_legs60_hord_e9dbaa85
f 1/1/1 2/2/2 3/3/3
f 4/4/4 5/5/5 6/6/6
f 3/3/3 6/6/6 5/5/5
f 7/7/7 8/8/8 9/9/9
f 10/10/10 9/9/9 8/8/8
f 11/11/11 12/12/12 13/13/13
f 14/14/14 15/15/15 1/1/1
f 16/16/16 1/1/1 15/15/15
f 1/1/1 16/16/16 17/17/17
f 18/18/18 17/17/17 16/16/16
f 5/5/5 1/1/1 3/3/3
f 1/1/1 5/5/5 14/14/14
f 6/6/6 3/3/3 13/13/13
f 2/2/2 13/13/13 3/3/3
f 13/13/13 19/19/19 6/6/6
f 17/17/17 2/2/2 1/1/1
f 13/13/13 2/2/2 11/11/11
f 17/17/17 11/11/11 2/2/2
f 12/12/12 19/19/19 13/13/13
f 20/20/20 21/21/21 10/10/10
f 9/9/9 10/10/10 21/21/21
f 22/22/22 20/20/20 23/23/23
f 23/23/23 24/24/24 22/22/22
f 25/25/25 24/24/24 26/26/26
f 23/23/23 26/26/26 24/24/24
f 25/25/25 26/26/26 16/16/16
f 16/16/16 15/15/15 25/25/25
f 23/23/23 10/10/10 27/27/27
f 10/10/10 23/23/23 20/20/20
f 26/26/26 23/23/23 18/18/18
f 27/27/27 18/18/18 23/23/23
f 18/18/18 16/16/16 26/26/26
f 28/28/28 29/29/29 30/30/30
f 31/31/31 30/30/30 29/29/29
f 32/32/32 28/28/28 33/33/33
f 30/30/30 33/33/33 28/28/28
f 34/34/34 32/32/32 35/35/35
f 33/33/33 35/35/35 32/32/32
f 36/36/36 35/35/35 33/33/33
f 37/37/37 38/38/38 39/39/39
f 40/40/40 39/39/39 38/38/38
f 35/35/35 36/36/36 41/41/41
f 34/34/34 35/35/35 42/42/42
f 41/41/41 42/42/42 35/35/35
f 43/43/43 44/44/44 45/45/45
f 46/46/46 44/44/44 43/43/43
f 47/47/47 48/48/48 49/49/49
f 50/50/50 48/48/48 47/47/47
f 51/51/51 50/50/50 47/47/47
f 52/52/52 50/50/50 51/51/51
f 45/45/45 52/52/52 51/51/51
f 44/44/44 52/52/52 45/45/45
f 53/53/53 54/54/54 55/55/55
f 55/55/55 54/54/54 56/56/56
f 56/56/56 54/54/54 57/57/57
f 57/57/57 54/54/54 53/53/53
f 58/58/58 59/59/59 60/60/60
f 58/58/58 61/61/61 59/59/59
f 62/62/62 63/63/63 64/64/64
f 62/62/62 65/65/65 63/63/63
f 65/65/65 66/66/66 63/63/63
f 65/65/65 67/67/67 66/66/66
f 67/67/67 60/60/60 66/66/66
f 67/67/67 58/58/58 60/60/60
f 68/68/68 69/69/69 70/70/70
f 68/68/68 70/70/70 71/71/71
f 68/68/68 71/71/71 72/72/72
