# Generated from Nova1492 GX by tools/nova1492/GxObjConverter
mtllib datan_common_legs47_tower2_1ec3c768.mtl
o datan_common_legs47_tower2_1ec3c768_mesh00
v 0.212624 0.788383 -0.320518
v 0.213016 0.788382 0.716664
v 0.269304 0.002019 0.75128
v 0.27091 0.002019 -0.319471
v 0.213016 0.788382 0.716664
v 0.102664 0.788382 0.86428
v 0.12728 0.002019 1.039511
v 0.269304 0.002019 0.75128
v -0.091161 0.788383 0.86428
v -0.115206 0.002019 1.039511
v -0.091161 0.788383 0.86428
v -0.215197 0.788383 0.716664
v -0.27182 0.002019 0.75128
v -0.115206 0.002019 1.039511
v -0.215197 0.788383 0.716664
v -0.216142 0.788383 -0.320518
v -0.271551 0.002019 -0.319471
v -0.27182 0.002019 0.75128
v -0.216142 0.788383 -0.320518
v 0.212624 0.788383 -0.320518
v 0.27091 0.002019 -0.319471
v -0.271551 0.002019 -0.319471
v -0.215197 0.788383 0.716664
v 0.212624 0.788383 -0.320518
v -0.216142 0.788383 -0.320518
v 0.213016 0.788382 0.716664
v -0.091161 0.788383 0.86428
v 0.102664 0.788382 0.86428
v 0.262113 0.004396 0.39597
v 0.225094 0.578408 0.517126
v 0.426122 0.006106 0.479219
v 0.426122 0.006106 0.587622
v 0.225094 0.578408 0.549714
v 0.262113 0.004396 0.67087
v 0.262113 0.004396 0.194931
v 0.225094 0.578408 0.316087
v 0.426122 0.006106 0.278179
v 0.426122 0.006106 0.386582
v 0.225094 0.578408 0.348674
v 0.262113 0.004396 0.46983
v -0.263713 0.004396 0.671511
v -0.226693 0.578408 0.550355
v -0.427721 0.006106 0.588262
v -0.427721 0.006106 0.479859
v -0.226693 0.578408 0.517767
v -0.263713 0.004396 0.396611
v -0.263712 0.004396 0.470471
v -0.226693 0.578408 0.349315
v -0.427721 0.006106 0.387223
v -0.427721 0.006106 0.27882
v -0.226693 0.578408 0.316727
v -0.263713 0.004396 0.195571
vt 0.489606 0.244059
vt 0.148127 0.244059
vt 0.136088 0.005941
vt 0.489126 0.005941
vt 0.113498 0.242826
vt 0.07901 0.242826
vt 0.087799 0.007586
vt 0.132052 0.007586
vt 0.014467 0.242826
vt 0.007179 0.007586
vt 0.079521 0.242826
vt 0.113708 0.242825
vt 0.131537 0.007586
vt 0.084322 0.007586
vt 0.148127 0.244059
vt 0.489606 0.244059
vt 0.489126 0.005941
vt 0.136088 0.005941
vt 0.003906 0.003906
vt 0.003906 0.003906
vt 0.003906 0.003906
vt 0.00582 0.00582
vt 0.053688 0.244059
vt 0.00582 0.00582
vt 0.00582 0.00582
vt 0.442787 0.244059
vt 0.166395 0.244059
vt 0.342515 0.244059
vt 0.248426 0.009001
vt 0.212042 0.176543
vt 0.224992 0.009401
vt 0.18517 0.009401
vt 0.197684 0.176543
vt 0.162365 0.00889
vt 0.316314 0.00889
vt 0.279541 0.176543
vt 0.293243 0.009401
vt 0.253035 0.009401
vt 0.265183 0.176543
vt 0.229116 0.00889
vt 0.162158 0.00889
vt 0.197477 0.176543
vt 0.184963 0.009401
vt 0.224785 0.009401
vt 0.211835 0.176543
vt 0.24822 0.009001
vt 0.228909 0.00889
vt 0.264976 0.176543
vt 0.252828 0.009401
vt 0.293036 0.009401
vt 0.279334 0.176543
vt 0.316107 0.00889
vn 0.997263 0.073921 0.001496
vn 0.997449 0.071381 -0.000377
vn 0.997263 0.073921 0.001496
vn 0.997263 0.073921 0.001496
vn 0.893892 0.083374 0.440461
vn 0 0.217503 0.97606
vn 0 0.217503 0.97606
vn 0.893892 0.083374 0.440461
vn 0.000001 0.217503 0.97606
vn 0 0.217503 0.97606
vn -0.870968 0.13209 0.473251
vn -0.762952 0.083157 0.641084
vn -0.870968 0.13209 0.473251
vn -0.870968 0.13209 0.473251
vn -0.997418 0.071808 -0.000251
vn -0.997526 0.070288 0.000909
vn -0.997418 0.071808 -0.000251
vn -0.997418 0.071808 -0.000251
vn -0 -0.001332 -0.999999
vn -0 -0.001332 -0.999999
vn -0 -0.001332 -0.999999
vn -0 -0.001332 -0.999999
vn 0 1 -0
vn 0 1 0
vn 0 1 0
vn 0.000001 1 0
vn 0.000001 1 0
vn 0.000001 1 0
vn -0.997927 -0.064359 0
vn -0.997927 -0.064359 -0
vn 0.943487 0.331411 -0
vn 0.943487 0.331411 -0
vn -0.997927 -0.064359 -0
vn -0.997927 -0.064359 -0
vn -0.997927 -0.064359 -0
vn -0.997927 -0.064359 -0
vn 0.943487 0.331411 0
vn 0.943487 0.331411 0
vn -0.997927 -0.064359 -0
vn -0.997927 -0.064359 -0
vn 0.997927 -0.064359 -0
vn 0.997927 -0.064359 0
vn -0.943487 0.331411 0
vn -0.943487 0.331411 0
vn 0.997927 -0.064359 0
vn 0.997927 -0.064359 0
vn 0.997927 -0.064359 -0
vn 0.997927 -0.064359 0
vn -0.943487 0.331411 0
vn -0.943487 0.331411 0
vn 0.997927 -0.064359 0
vn 0.997927 -0.064359 0
usemtl datan_common_legs47_tower2_1ec3c768
f 1/1/1 2/2/2 3/3/3
f 1/1/1 3/3/3 4/4/4
f 5/5/5 6/6/6 7/7/7
f 5/5/5 7/7/7 8/8/8
f 6/6/6 9/9/9 10/10/10
f 6/6/6 10/10/10 7/7/7
f 11/11/11 12/12/12 13/13/13
f 11/11/11 13/13/13 14/14/14
f 15/15/15 16/16/16 17/17/17
f 15/15/15 17/17/17 18/18/18
f 19/19/19 20/20/20 21/21/21
f 19/19/19 21/21/21 22/22/22
f 23/23/23 24/24/24 25/25/25
f 23/23/23 26/26/26 24/24/24
f 27/27/27 26/26/26 23/23/23
f 27/27/27 28/28/28 26/26/26
f 29/29/29 30/30/30 31/31/31
f 32/32/32 33/33/33 34/34/34
f 31/31/31 30/30/30 33/33/33
f 33/33/33 32/32/32 31/31/31
f 30/30/30 29/29/29 34/34/34
f 34/34/34 33/33/33 30/30/30
f 35/35/35 36/36/36 37/37/37
f 38/38/38 39/39/39 40/40/40
f 37/37/37 36/36/36 39/39/39
f 39/39/39 38/38/38 37/37/37
f 36/36/36 35/35/35 40/40/40
f 40/40/40 39/39/39 36/36/36
f 41/41/41 42/42/42 43/43/43
f 44/44/44 45/45/45 46/46/46
f 43/43/43 42/42/42 45/45/45
f 45/45/45 44/44/44 43/43/43
f 42/42/42 41/41/41 46/46/46
f 46/46/46 45/45/45 42/42/42
f 47/47/47 48/48/48 49/49/49
f 50/50/50 51/51/51 52/52/52
f 49/49/49 48/48/48 51/51/51
f 51/51/51 50/50/50 49/49/49
f 48/48/48 47/47/47 52/52/52
f 52/52/52 51/51/51 48/48/48
o datan_common_legs47_tower2_1ec3c768_mesh01
v 0.218277 1.055112 0.134554
v 0.218675 1.055112 0.453899
v 0.218675 0.781048 0.724169
v 0.218277 0.781048 0.147577
v 0.108188 0.940729 0.871785
v 0.108188 0.781048 0.871785
v -0.090255 0.940729 0.871785
v -0.090255 0.781048 0.871784
v -0.219197 1.055112 0.453899
v -0.219198 0.781048 0.724169
v -0.220171 1.055112 0.134554
v -0.220171 0.781048 0.147577
v -0.219197 1.055112 0.453899
v 0.218277 1.055112 0.134554
v -0.220171 1.055112 0.134554
v -0.219197 1.055112 0.453899
v 0.218675 1.055112 0.453899
v 0.218277 1.055112 0.134554
v -0.090255 0.940729 0.871785
v 0.218675 1.055112 0.453899
v -0.219197 1.055112 0.453899
v -0.090255 0.940729 0.871785
v 0.108188 0.940729 0.871785
v 0.218675 1.055112 0.453899
vt 0.751574 0.493934
vt 0.747965 0.284775
vt 0.747965 0.104518
vt 0.747746 0.485248
vt 0.688965 0.006066
vt 0.688965 0.006066
vt 0.581473 0.006066
vt 0.581473 0.006066
vt 0.510384 0.280947
vt 0.510384 0.104518
vt 0.509848 0.493934
vt 0.509848 0.485248
vt 0.510384 0.284775
vt 0.747746 0.493934
vt 0.509848 0.493934
vt 0.510384 0.284775
vt 0.747965 0.284775
vt 0.747746 0.493934
vt 0.581473 0.006066
vt 0.747965 0.280947
vt 0.510384 0.280947
vt 0.581473 0.006066
vt 0.687051 0.006066
vt 0.747965 0.280947
vn 1 -0.000033 -0.00069
vn 0.891331 0.318326 0.322796
vn 0.891331 0.318326 0.322796
vn 1 -0.000033 -0.00069
vn -0 -0.000001 1
vn -0 -0.000001 1
vn -0.753135 -0 0.657866
vn -0.753135 -0 0.657866
vn -0.999997 0.001665 0.001688
vn -0.999997 0.001665 0.001688
vn -0.999995 0.000145 0.003049
vn -0.999997 0.001665 0.001688
vn 0 1 -0
vn 0 1 -0
vn 0 1 -0
vn 0 1 -0
vn 0 1 -0
vn 0 1 -0
vn 0 0.964521 0.264008
vn 0 0.964521 0.264008
vn 0 0.964521 0.264008
vn -0 0.964521 0.264008
vn -0 0.964521 0.264008
vn -0 0.964521 0.264008
usemtl datan_common_legs47_tower2_1ec3c768
f 53/53/53 54/54/54 55/55/55
f 53/53/53 55/55/55 56/56/56
f 55/55/55 57/57/57 58/58/58
f 54/54/54 57/57/57 55/55/55
f 57/57/57 59/59/59 60/60/60
f 57/57/57 60/60/60 58/58/58
f 59/59/59 61/61/61 62/62/62
f 59/59/59 62/62/62 60/60/60
f 61/61/61 63/63/63 64/64/64
f 61/61/61 64/64/64 62/62/62
f 65/65/65 66/66/66 67/67/67
f 68/68/68 69/69/69 70/70/70
f 71/71/71 72/72/72 73/73/73
f 74/74/74 75/75/75 76/76/76
o datan_common_legs47_tower2_1ec3c768_mesh02
v -0.629368 0.681775 -0.296274
v -0.629368 0.482071 -0.421606
v -0.629368 0.000783 -0.421606
v -0.629369 0.000783 -0.033994
v -0.629369 0.482071 -0.033994
v -0.629368 0.681775 -0.159326
v -0.449918 0.866913 -0.32503
v -0.449951 0.613798 -0.503001
v -0.629368 0.482071 -0.421606
v -0.629368 0.681775 -0.296274
v -0.451848 0 -0.503001
v -0.629368 0.000783 -0.421606
v -0.45185 0 0.047407
v -0.449952 0.613798 0.047408
v -0.629369 0.482071 -0.033994
v -0.629369 0.000783 -0.033994
v -0.449918 0.866913 -0.130563
v -0.629368 0.681775 -0.159326
v -0.262236 0 0.220698
v -0.220153 0.612461 0.219018
v -0.413771 0.612717 0.15161
v -0.414984 0.001065 0.152284
v -0.220153 0.612461 -0.675439
v -0.262236 0 -0.676291
v -0.414984 0.001065 -0.607876
v -0.41377 0.612717 -0.607946
v -0.451848 0.001065 0.047408
v -0.449952 0.613798 0.047408
v -0.451848 0.001065 -0.503001
v -0.449951 0.613798 -0.503001
v 0.262236 0 0.220698
v 0.41377 0.612717 0.15161
v 0.220153 0.612461 0.219018
v 0.414984 0.001065 0.152283
v 0.220153 0.612461 -0.675439
v 0.414984 0.001065 -0.607876
v 0.262236 0 -0.67629
v 0.41377 0.612717 -0.607945
v 0.451848 0.001065 0.047408
v 0.449952 0.613798 0.047408
v 0.451848 0.001065 -0.503001
v 0.449951 0.613798 -0.503001
v -0.220153 0.612461 -0.675439
v 0.220153 0.612461 -0.675439
v 0.262236 0 -0.67629
v -0.220153 0.612461 -0.675439
v 0.262236 0 -0.67629
v -0.262236 0 -0.676291
v -0.412912 1.01674 -0.521376
v -0.41377 0.612717 -0.607946
v -0.449951 0.613798 -0.503001
v -0.449918 0.866913 -0.32503
v -0.413771 0.612717 0.15161
v -0.412913 1.01674 0.06568
v -0.449918 0.866913 -0.130563
v -0.449952 0.613798 0.047408
v -0.220102 1.055534 -0.59885
v -0.220153 0.612461 -0.675439
v -0.220153 0.612461 0.219018
v -0.220102 1.055534 0.143717
v 0.412912 1.01674 -0.521376
v 0.449951 0.613798 -0.503001
v 0.41377 0.612717 -0.607945
v 0.449917 0.866913 -0.32503
v 0.41377 0.612717 0.15161
v 0.449918 0.866913 -0.130563
v 0.412912 1.01674 0.06568
v 0.449952 0.613798 0.047408
v 0.220102 1.055534 -0.59885
v 0.220153 0.612461 -0.675439
v 0.220153 0.612461 0.219018
v 0.220102 1.055534 0.143717
v -0.220102 1.055534 0.143717
v 0.220102 1.055534 0.143717
v 0.220102 1.055534 -0.59885
v -0.220102 1.055534 0.143717
v 0.220102 1.055534 -0.59885
v -0.220102 1.055534 -0.59885
v -0.220102 1.055534 -0.59885
v 0.220102 1.055534 -0.59885
v 0.220153 0.612461 -0.675439
v -0.220102 1.055534 -0.59885
v 0.220153 0.612461 -0.675439
v -0.220153 0.612461 -0.675439
v 0.629368 0.681775 -0.296274
v 0.629368 0.000783 -0.421606
v 0.629368 0.482071 -0.421606
v 0.629369 0.000783 -0.033994
v 0.629368 0.681775 -0.159326
v 0.629369 0.482071 -0.033994
v 0.449918 0.866913 -0.32503
v 0.629368 0.482071 -0.421606
v 0.449951 0.613798 -0.503001
v 0.629368 0.681775 -0.296274
v 0.629368 0.000783 -0.421606
v 0.451848 0 -0.503001
v 0.45185 0 0.047407
v 0.629369 0.482071 -0.033994
v 0.449952 0.613798 0.047408
v 0.629369 0.000783 -0.033994
v 0.629368 0.681775 -0.159326
v 0.449918 0.866913 -0.130563
vt 0.789451 0.819827
vt 0.854325 0.726799
vt 0.854325 0.506431
vt 0.645679 0.506431
vt 0.645679 0.726799
vt 0.710553 0.819827
vt 0.805215 0.906069
vt 0.898943 0.79199
vt 0.854325 0.730627
vt 0.789451 0.823655
vt 0.902771 0.506066
vt 0.858153 0.506431
vt 0.601058 0.506066
vt 0.601058 0.788162
vt 0.641851 0.726799
vt 0.645679 0.506431
vt 0.698615 0.906069
vt 0.714381 0.823655
vt 0.506066 0.506066
vt 0.506987 0.787539
vt 0.54011 0.787658
vt 0.543569 0.506563
vt 0.993467 0.787538
vt 0.993934 0.506066
vt 0.96026 0.506563
vt 0.960298 0.791486
vt 0.601057 0.506563
vt 0.601058 0.788162
vt 0.902771 0.506563
vt 0.902771 0.79199
vt 0.506066 0.506066
vt 0.54011 0.787658
vt 0.506987 0.787539
vt 0.543568 0.506563
vt 0.993467 0.787538
vt 0.96026 0.506563
vt 0.993934 0.506066
vt 0.960298 0.791486
vt 0.601057 0.506563
vt 0.601058 0.788162
vt 0.902771 0.506563
vt 0.902771 0.79199
vt 0.997296 0.787538
vt 0.997295 0.787538
vt 0.993934 0.506066
vt 0.997296 0.787538
vt 0.993934 0.506066
vt 0.993934 0.506066
vt 0.912844 0.975862
vt 0.95647 0.791486
vt 0.902771 0.79199
vt 0.805215 0.909897
vt 0.543938 0.791486
vt 0.591041 0.975862
vt 0.694787 0.906069
vt 0.601058 0.79199
vt 0.955313 0.993934
vt 0.993467 0.791367
vt 0.506987 0.791367
vt 0.548265 0.993934
vt 0.912844 0.975862
vt 0.902771 0.79199
vt 0.95647 0.791486
vt 0.805214 0.909897
vt 0.543938 0.791486
vt 0.694787 0.906069
vt 0.591041 0.975862
vt 0.601058 0.79199
vt 0.955312 0.993934
vt 0.993467 0.791367
vt 0.506987 0.791367
vt 0.548265 0.993934
vt 0.548265 0.995848
vt 0.548265 0.995848
vt 0.951484 0.995848
vt 0.548265 0.995848
vt 0.951484 0.995848
vt 0.951484 0.995848
vt 0.955313 0.993934
vt 0.955312 0.993934
vt 0.993467 0.791367
vt 0.955313 0.993934
vt 0.993467 0.791367
vt 0.993467 0.791367
vt 0.789451 0.819827
vt 0.854325 0.506431
vt 0.854325 0.726799
vt 0.645679 0.506431
vt 0.710553 0.819827
vt 0.645679 0.726799
vt 0.805214 0.906069
vt 0.854325 0.730627
vt 0.898943 0.79199
vt 0.789451 0.823655
vt 0.858153 0.506431
vt 0.902771 0.506066
vt 0.601058 0.506066
vt 0.641851 0.726799
vt 0.601058 0.788162
vt 0.645679 0.506431
vt 0.714381 0.823655
vt 0.698615 0.906069
vn -1 0.000001 -0.000003
vn -1 0 -0.000001
vn -1 0.000001 -0.000004
vn -1 0.000001 -0.000003
vn -1 0 -0.000008
vn -1 0.000001 -0.000003
vn -0.718049 0.695992 -0.000002
vn -0.413139 0 -0.910668
vn -0.413139 0 -0.910668
vn -0.718049 0.695992 -0.000002
vn -0.416786 0.001289 -0.909004
vn -0.413139 0 -0.910668
vn -0.416818 -0 0.90899
vn -0.612359 0.420252 0.66963
vn -0.612359 0.420252 0.66963
vn -0.416818 -0 0.90899
vn -0.718049 0.695992 -0.000002
vn -0.718049 0.695992 -0.000002
vn -0.408752 0.001815 0.912644
vn -0.328659 0.025172 0.944113
vn -0.944665 0.002235 0.328029
vn -0.944665 0.002235 0.328029
vn -0.329166 0.000546 -0.944272
vn -0.408417 0.029331 -0.912324
vn -0.943412 0.001834 -0.331617
vn -0.94538 0.002928 -0.325958
vn -0.94341 0.002921 0.331616
vn -0.944665 0.002235 0.328029
vn -0.94538 0.002928 -0.325958
vn -0.94538 0.002928 -0.325958
vn 0.408752 0.001815 0.912644
vn 0.944665 0.002235 0.328029
vn 0.328659 0.025172 0.944113
vn 0.944665 0.002235 0.328029
vn 0.329166 0.000546 -0.944272
vn 0.943412 0.001834 -0.331617
vn 0.408417 0.029331 -0.912324
vn 0.94538 0.002927 -0.325959
vn 0.94341 0.00292 0.331616
vn 0.944665 0.002235 0.328029
vn 0.94538 0.002927 -0.325959
vn 0.94538 0.002927 -0.325959
vn 0 0.00139 -0.999999
vn 0 0.00139 -0.999999
vn 0 0.00139 -0.999999
vn 0 0.00139 -0.999999
vn 0 0.00139 -0.999999
vn 0 0.00139 -0.999999
vn -0.197253 0.980353 0
vn -0.399016 0.192923 -0.896419
vn -0.988945 0.085375 -0.121238
vn -0.970826 0.239787 -0.000003
vn -0.322077 0.197602 0.925862
vn -0.197253 0.980353 0
vn -0.970826 0.239787 -0.000003
vn -0.919449 0.226246 0.321599
vn -0.197253 0.980353 0
vn -0.324675 0.161141 -0.931998
vn -0.322077 0.197602 0.925862
vn -0.197253 0.980353 0
vn 0.197253 0.980353 0
vn 0.988945 0.085375 -0.121237
vn 0.399015 0.192923 -0.896419
vn 0.970826 0.239787 -0.000003
vn 0.322077 0.197602 0.925862
vn 0.970826 0.239787 -0.000003
vn 0.197253 0.980353 0
vn 0.919449 0.226246 0.321599
vn 0.197253 0.980353 -0
vn 0.324675 0.161141 -0.931998
vn 0.322077 0.197602 0.925862
vn 0.197253 0.980353 0
vn -0 1 0
vn -0 1 0
vn -0 1 0
vn -0 1 0
vn -0 1 0
vn -0 1 0
vn 0 0.170332 -0.985387
vn 0 0.170332 -0.985387
vn 0 0.170332 -0.985387
vn 0 0.170332 -0.985387
vn 0 0.170332 -0.985387
vn 0 0.170332 -0.985387
vn 1 0.000001 -0.000004
vn 1 0.000001 -0.000004
vn 1 -0 0
vn 1 0.000001 -0.000004
vn 1 0.000001 -0.000004
vn 1 0 -0.000008
vn 0.71805 0.695992 -0.000002
vn 0.413138 0 -0.910668
vn 0.413138 0 -0.910668
vn 0.718049 0.695992 -0.000003
vn 0.413138 0 -0.910668
vn 0.416785 0.001289 -0.909004
vn 0.416817 0 0.90899
vn 0.612359 0.420252 0.669631
vn 0.612359 0.420252 0.669631
vn 0.416817 0 0.90899
vn 0.718049 0.695992 -0.000003
vn 0.718049 0.695992 -0.000003
usemtl datan_common_legs47_tower2_1ec3c768
f 77/77/77 78/78/78 79/79/79
f 80/80/80 81/81/81 82/82/82
f 79/79/79 80/80/80 77/77/77
f 82/82/82 77/77/77 80/80/80
f 83/83/83 84/84/84 85/85/85
f 85/85/85 86/86/86 83/83/83
f 84/84/84 87/87/87 88/88/88
f 88/88/88 85/85/85 84/84/84
f 89/89/89 90/90/90 91/91/91
f 91/91/91 92/92/92 89/89/89
f 90/90/90 93/93/93 94/94/94
f 94/94/94 91/91/91 90/90/90
f 93/93/93 83/83/83 86/86/86
f 86/86/86 94/94/94 93/93/93
f 95/95/95 96/96/96 97/97/97
f 97/97/97 98/98/98 95/95/95
f 99/99/99 100/100/100 101/101/101
f 101/101/101 102/102/102 99/99/99
f 103/103/103 98/98/98 104/104/104
f 97/97/97 104/104/104 98/98/98
f 101/101/101 105/105/105 102/102/102
f 106/106/106 102/102/102 105/105/105
f 107/107/107 108/108/108 109/109/109
f 108/108/108 107/107/107 110/110/110
f 111/111/111 112/112/112 113/113/113
f 112/112/112 111/111/111 114/114/114
f 115/115/115 116/116/116 110/110/110
f 108/108/108 110/110/110 116/116/116
f 112/112/112 114/114/114 117/117/117
f 118/118/118 117/117/117 114/114/114
f 119/119/119 120/120/120 121/121/121
f 122/122/122 123/123/123 124/124/124
f 125/125/125 126/126/126 127/127/127
f 127/127/127 128/128/128 125/125/125
f 129/129/129 130/130/130 131/131/131
f 131/131/131 132/132/132 129/129/129
f 130/130/130 125/125/125 128/128/128
f 128/128/128 131/131/131 130/130/130
f 133/133/133 134/134/134 126/126/126
f 126/126/126 125/125/125 133/133/133
f 135/135/135 136/136/136 130/130/130
f 130/130/130 129/129/129 135/135/135
f 136/136/136 133/133/133 125/125/125
f 125/125/125 130/130/130 136/136/136
f 137/137/137 138/138/138 139/139/139
f 138/138/138 137/137/137 140/140/140
f 141/141/141 142/142/142 143/143/143
f 142/142/142 141/141/141 144/144/144
f 143/143/143 140/140/140 137/137/137
f 140/140/140 143/143/143 142/142/142
f 145/145/145 139/139/139 146/146/146
f 139/139/139 145/145/145 137/137/137
f 147/147/147 143/143/143 148/148/148
f 143/143/143 147/147/147 141/141/141
f 148/148/148 137/137/137 145/145/145
f 137/137/137 148/148/148 143/143/143
f 149/149/149 150/150/150 151/151/151
f 152/152/152 153/153/153 154/154/154
f 155/155/155 156/156/156 157/157/157
f 158/158/158 159/159/159 160/160/160
f 161/161/161 162/162/162 163/163/163
f 164/164/164 165/165/165 166/166/166
f 162/162/162 161/161/161 164/164/164
f 165/165/165 164/164/164 161/161/161
f 167/167/167 168/168/168 169/169/169
f 168/168/168 167/167/167 170/170/170
f 169/169/169 171/171/171 172/172/172
f 171/171/171 169/169/169 168/168/168
f 173/173/173 174/174/174 175/175/175
f 174/174/174 173/173/173 176/176/176
f 175/175/175 177/177/177 178/178/178
f 177/177/177 175/175/175 174/174/174
f 178/178/178 170/170/170 167/167/167
f 170/170/170 178/178/178 177/177/177
o datan_common_legs47_tower2_1ec3c768_mesh03
v -0.139518 1.056305 -0.585154
v 0.139517 1.056305 -0.585154
v 0.139517 1.056305 -0.795776
v -0.139518 1.056305 -0.795776
v 0.139517 0.002018 -0.662418
v 0.139517 0.002018 -0.943771
v 0.139517 1.056305 -0.795776
v 0.139517 1.056305 -0.585154
v 0.139517 0.002018 -0.943771
v -0.139518 0.002018 -0.943771
v -0.139518 1.056305 -0.795776
v 0.139517 1.056305 -0.795776
v -0.139518 0.002018 -0.943771
v -0.139518 0.002018 -0.662418
v -0.139518 1.056305 -0.585154
v -0.139518 1.056305 -0.795776
vt 0.880879 0.495848
vt 0.880879 0.495848
vt 0.945808 0.495848
vt 0.949636 0.493934
vt 0.906102 0.006066
vt 0.994121 0.006066
vt 0.949636 0.493934
vt 0.880879 0.493934
vt 0.994121 0.006066
vt 0.994121 0.006066
vt 0.949636 0.493934
vt 0.949636 0.493934
vt 0.994121 0.006066
vt 0.906102 0.006066
vt 0.880879 0.493934
vt 0.949636 0.493934
vn 0 1 -0
vn -0 1 0
vn 0 1 -0
vn 0 1 -0
vn 1 0 -0
vn 1 0 -0
vn 1 0 -0
vn 1 0 -0
vn 0 0.139012 -0.990291
vn 0 0.139012 -0.990291
vn 0 0.139012 -0.990291
vn 0 0.139012 -0.990291
vn -1 0 -0
vn -1 0 0
vn -1 0 -0
vn -1 0 -0
usemtl datan_common_legs47_tower2_1ec3c768
f 179/179/179 180/180/180 181/181/181
f 181/181/181 182/182/182 179/179/179
f 183/183/183 184/184/184 185/185/185
f 185/185/185 186/186/186 183/183/183
f 187/187/187 188/188/188 189/189/189
f 189/189/189 190/190/190 187/187/187
f 191/191/191 192/192/192 193/193/193
f 193/193/193 194/194/194 191/191/191
