# Generated from Nova1492 GX by tools/nova1492/GxObjConverter
mtllib datan_common_legs48_tower2_9feb06d6.mtl
o datan_common_legs48_tower2_9feb06d6
v 0.026539 0.066348 0.112791
v 0.026539 -0.066348 0.112791
v 0.026539 0.066348 -0.112791
v 0.026539 -0.066348 -0.112791
v -0.026539 -0.066348 -0.112791
v -0.026539 -0.066348 0.112791
v -0.026539 0.066348 -0.112791
v -0.026539 0.066348 0.112791
v 0.026539 -0.066348 -0.112791
v 0.026539 -0.066348 0.112791
v -0.026539 -0.066348 -0.112791
v -0.026539 -0.066348 0.112791
v 0.026539 0.066348 -0.112791
v 0.026539 -0.066348 -0.112791
v -0.026539 0.066348 -0.112791
v -0.026539 -0.066348 -0.112791
v 0.026539 0.066348 0.112791
v 0.026539 0.066348 -0.112791
v -0.026539 0.066348 0.112791
v -0.026539 0.066348 -0.112791
v 0.026539 -0.066348 0.112791
v 0.026539 0.066348 0.112791
v -0.026539 -0.066348 0.112791
v -0.026539 0.066348 0.112791
vt 0.0005 0.999501
vt 0.000499 0.0005
vt 0.999501 0.9995
vt 0.9995 0.0005
vt 0.0005 0.0005
vt 0.999501 0.0005
vt 0.000499 0.9995
vt 0.9995 0.999501
vt 0.9995 0.999501
vt 0.000499 0.999501
vt 0.9995 0.000499
vt 0.000499 0.000499
vt 0.9995 0.999501
vt 0.0005 0.999501
vt 0.9995 0.000499
vt 0.0005 0.000499
vt 0.9995 0.999501
vt 0.000499 0.999501
vt 0.9995 0.000499
vt 0.000499 0.000499
vt 0.9995 0.999501
vt 0.0005 0.999501
vt 0.9995 0.000499
vt 0.0005 0.000499
vn 1 0 0
vn 1 0 -0
vn 1 0 -0
vn 1 0 -0
vn -1 0 0
vn -1 -0 -0
vn -1 -0 -0
vn -1 -0 -0
vn -0 -1 0
vn 0 -1 0
vn 0 -1 0
vn 0 -1 0
vn -0 -0 -1
vn 0 0 -1
vn 0 0 -1
vn 0 0 -1
vn 0 1 0
vn -0 1 0
vn -0 1 0
vn -0 1 0
vn 0 -0 1
vn -0 0 1
vn -0 0 1
vn -0 0 1
usemtl datan_common_legs48_tower2_9feb06d6
f 1/1/1 2/2/2 3/3/3
f 4/4/4 3/3/3 2/2/2
f 5/5/5 6/6/6 7/7/7
f 8/8/8 7/7/7 6/6/6
f 9/9/9 10/10/10 11/11/11
f 12/12/12 11/11/11 10/10/10
f 13/13/13 14/14/14 15/15/15
f 16/16/16 15/15/15 14/14/14
f 17/17/17 18/18/18 19/19/19
f 20/20/20 19/19/19 18/18/18
f 21/21/21 22/22/22 23/23/23
f 24/24/24 23/23/23 22/22/22
