# Generated from Nova1492 GX by tools/nova1492/GxObjConverter
mtllib datan_common_legs53_rgd_3f073fd8.mtl
o datan_common_legs53_rgd_3f073fd8
v -0.284106 -0.395765 0.795054
v -0.418601 -0.539456 0.3653
v 0.417792 -0.539456 0.3653
v 0.283296 -0.395765 0.795054
v -0.418601 -0.539456 0.3653
v -0.37051 -0.509949 -0.706978
v 0.369701 -0.509949 -0.706978
v 0.417792 -0.539456 0.3653
v -0.284106 -0.169963 0.795054
v 0.283296 -0.169963 0.795054
v 0.417792 -0.026272 0.3653
v -0.418601 -0.026272 0.3653
v 0.369701 -0.055779 -0.706978
v -0.37051 -0.055779 -0.706978
v -0.284106 -0.395765 0.795054
v 0.283296 -0.395765 0.795054
v 0.36454 -0.282864 0.851655
v -0.365349 -0.282864 0.851655
v 0.283296 -0.169963 0.795054
v -0.284106 -0.169963 0.795054
v 0.283296 -0.395765 0.795054
v 0.417792 -0.539456 0.3653
v 0.53755 -0.282864 0.3653
v 0.36454 -0.282864 0.851655
v 0.369701 -0.509949 -0.706978
v 0.475687 -0.282864 -0.851655
v 0.417792 -0.026272 0.3653
v 0.283296 -0.169963 0.795054
v 0.369701 -0.055779 -0.706978
v -0.476497 -0.282864 -0.851655
v 0.475687 -0.282864 -0.851655
v 0.475687 -0.282864 -0.851655
v -0.476497 -0.282864 -0.851655
v -0.37051 -0.509949 -0.706978
v -0.418601 -0.539456 0.3653
v -0.53836 -0.282864 0.3653
v -0.476497 -0.282864 -0.851655
v -0.284106 -0.395765 0.795054
v -0.365349 -0.282864 0.851655
v -0.418601 -0.026272 0.3653
v -0.37051 -0.055779 -0.706978
v -0.284106 -0.169963 0.795054
v -0.352342 -0.244323 0.700891
v -0.362382 -0.011321 0.566879
v -0.453048 -0.049222 0.557836
v -0.504405 -0.244323 0.676155
v -0.382463 -0.011321 0.298855
v -0.500041 -0.049222 0.336494
v -0.392504 -0.244323 0.164843
v -0.549788 -0.244323 0.228505
v -0.382463 -0.477325 0.298855
v -0.500041 -0.439423 0.336494
v -0.362382 -0.477325 0.566879
v -0.471472 -0.439423 0.559719
v -0.089203 -0.016321 0.708684
v 0.088394 -0.016321 0.708684
v 0.088394 -0.060704 0.327362
v -0.108623 -0.060704 0.327362
v -0.140668 -0.179043 0.753478
v 0.139859 -0.179043 0.753478
v 0.088394 -0.016321 0.708684
v -0.089203 -0.016321 0.708684
v 0.139859 -0.179043 0.753478
v 0.139859 -0.179043 0.401338
v -0.140668 -0.179043 0.401338
v -0.140668 -0.179043 0.753478
v -0.362382 -0.013696 -0.672882
v -0.352342 -0.244322 -0.805527
v -0.453048 -0.051212 -0.663931
v -0.504405 -0.244322 -0.781044
v -0.382463 -0.013697 -0.407591
v -0.500041 -0.051212 -0.444846
v -0.392504 -0.244323 -0.274946
v -0.549788 -0.244323 -0.337959
v -0.382463 -0.474949 -0.407592
v -0.500041 -0.437434 -0.444847
v -0.362382 -0.474949 -0.672883
v -0.471473 -0.437434 -0.665795
v 0.352342 -0.244323 -0.805527
v 0.362382 -0.013697 -0.672882
v 0.453048 -0.051212 -0.663932
v 0.504405 -0.244323 -0.781044
v 0.382463 -0.013697 -0.407591
v 0.500041 -0.051212 -0.444847
v 0.392504 -0.244323 -0.274946
v 0.549788 -0.244323 -0.337959
v 0.382463 -0.474949 -0.407592
v 0.500041 -0.437434 -0.444847
v 0.362382 -0.474949 -0.672882
v 0.471473 -0.437434 -0.665795
v 0.362382 -0.011321 0.566879
v 0.352342 -0.244323 0.700891
v 0.453048 -0.049222 0.557836
v 0.504405 -0.244323 0.676155
v 0.382463 -0.011321 0.298855
v 0.500041 -0.049222 0.336494
v 0.392504 -0.244323 0.164843
v 0.549788 -0.244323 0.228505
v 0.382463 -0.477325 0.298855
v 0.500041 -0.439423 0.336494
v 0.362382 -0.477325 0.566879
v 0.471472 -0.439423 0.559719
vt 0.479681 0.007218
vt 0.383109 0.007347
vt 0.983668 0.007347
vt 0.889542 0.007218
vt 0.014386 0.354404
vt 0.033096 0.916393
vt 0.033096 0.916393
vt 0.014386 0.354404
vt 0.479054 0.130678
vt 0.889632 0.130879
vt 0.985422 0.354117
vt 0.391861 0.351294
vt 0.948846 0.917292
vt 0.417166 0.917038
vt 0.479111 0.01458
vt 0.88965 0.01458
vt 0.943117 0.071769
vt 0.422644 0.071769
vt 0.88965 0.130457
vt 0.479111 0.130457
vt 0.118152 0.124566
vt 0.014518 0.353027
vt 0.200422 0.351714
vt 0.200306 0.100415
vt 0.035621 0.915303
vt 0.199178 0.999971
vt 0.387578 0.351057
vt 0.278922 0.126645
vt 0.362496 0.919815
vt 0.196816 0.992961
vt 0.196816 0.992961
vt 0.988061 0.992441
vt 0.377403 0.992561
vt 0.035627 0.915306
vt 0.014487 0.353048
vt 0.200521 0.353168
vt 0.199188 0.993152
vt 0.118146 0.124501
vt 0.200316 0.100461
vt 0.387579 0.352415
vt 0.362466 0.913005
vt 0.278933 0.126652
vt 0.225473 0.200982
vt 0.370072 0.263399
vt 0.348361 0.275128
vt 0.224754 0.220447
vt 0.370129 0.371877
vt 0.348046 0.363727
vt 0.2256 0.432822
vt 0.224803 0.412768
vt 0.079591 0.370322
vt 0.103393 0.363038
vt 0.079586 0.264451
vt 0.10363 0.274301
vt 0.619151 0.174412
vt 0.748209 0.17466
vt 0.748139 0.333912
vt 0.619044 0.33391
vt 0.210683 0.01736
vt 0.412057 0.01736
vt 0.376155 0.103861
vt 0.246584 0.103861
vt 0.783189 0.149802
vt 0.783146 0.333974
vt 0.584359 0.333972
vt 0.585027 0.151424
vt 0.370809 0.8807
vt 0.225616 0.94388
vt 0.349533 0.874504
vt 0.223934 0.925448
vt 0.370324 0.773806
vt 0.351166 0.78374
vt 0.225435 0.713426
vt 0.225219 0.734606
vt 0.081823 0.772931
vt 0.10021 0.784118
vt 0.080619 0.881677
vt 0.099869 0.873544
vt 0.225538 0.943934
vt 0.370945 0.880653
vt 0.349547 0.874507
vt 0.223934 0.925466
vt 0.370513 0.77383
vt 0.351217 0.783761
vt 0.22561 0.713287
vt 0.225599 0.734343
vt 0.081839 0.772919
vt 0.100242 0.78425
vt 0.080511 0.881692
vt 0.099979 0.873602
vt 0.369961 0.263415
vt 0.225465 0.200972
vt 0.348417 0.275283
vt 0.224811 0.220404
vt 0.369937 0.371916
vt 0.34799 0.363759
vt 0.225553 0.432914
vt 0.224828 0.412928
vt 0.079655 0.370173
vt 0.103386 0.36304
vt 0.079616 0.264427
vt 0.103622 0.274325
vn -0.232439 -0.750001 0.61925
vn -0.533152 -0.831854 0.154167
vn 0.539525 -0.823429 0.175717
vn 0.293495 -0.74711 0.596395
vn -0.533152 -0.831854 0.154167
vn -0.424485 -0.811008 -0.402591
vn 0.421598 -0.811659 -0.404308
vn 0.539525 -0.823429 0.175717
vn -0.293495 0.74711 0.596395
vn 0.23244 0.750001 0.619251
vn 0.533152 0.831854 0.154167
vn -0.539526 0.823429 0.175717
vn 0.424485 0.811008 -0.402591
vn -0.421598 0.811659 -0.404308
vn -0.232439 -0.750001 0.61925
vn 0.293495 -0.74711 0.596395
vn 0.602115 -0.02988 0.79785
vn -0.602115 0.02988 0.79785
vn 0.23244 0.750001 0.619251
vn -0.293495 0.74711 0.596395
vn 0.293495 -0.74711 0.596395
vn 0.539525 -0.823429 0.175717
vn 0.987987 -0.01062 0.154174
vn 0.602115 -0.02988 0.79785
vn 0.421598 -0.811659 -0.404308
vn 0.669799 0.000874 -0.742542
vn 0.533152 0.831854 0.154167
vn 0.23244 0.750001 0.619251
vn 0.424485 0.811008 -0.402591
vn -0.669799 -0.000875 -0.742542
vn 0.669799 0.000874 -0.742542
vn 0.669799 0.000874 -0.742542
vn -0.669799 -0.000875 -0.742542
vn -0.424485 -0.811008 -0.402591
vn -0.533152 -0.831854 0.154167
vn -0.987987 0.01062 0.154174
vn -0.669799 -0.000875 -0.742542
vn -0.232439 -0.750001 0.61925
vn -0.602115 0.02988 0.79785
vn -0.539526 0.823429 0.175717
vn -0.421598 0.811659 -0.404308
vn -0.293495 0.74711 0.596395
vn 0.577784 0.01749 0.816003
vn 0.484115 0.771459 0.412898
vn -0.597031 0.668852 0.442935
vn -0.669617 0.024238 0.742311
vn 0.438404 0.764803 -0.4721
vn -0.715753 0.657571 -0.235154
vn 0.421472 -0.011804 -0.906765
vn -0.80965 -0.01102 -0.586809
vn 0.430537 -0.762998 -0.482154
vn -0.708493 -0.65545 -0.261579
vn 0.507754 -0.773041 0.380256
vn -0.632018 -0.664813 0.398218
vn -0.468156 0.750721 0.466098
vn 0.48024 0.748939 0.456574
vn 0.476575 0.874886 -0.086318
vn -0.518506 0.851973 -0.072756
vn -0.658515 0.386091 0.645981
vn 0.661465 0.400695 0.633963
vn 0.48024 0.748939 0.456574
vn -0.468156 0.750721 0.466098
vn 0.661465 0.400695 0.633963
vn 0.917035 0.398807 -0
vn -0.960285 0.278706 0.013238
vn -0.658515 0.386091 0.645981
vn 0.485671 0.77075 -0.412393
vn 0.578711 0.01744 -0.815346
vn -0.59401 0.670966 -0.443798
vn -0.669018 0.02426 -0.742851
vn 0.43969 0.764219 0.47185
vn -0.713916 0.659396 0.23563
vn 0.422495 -0.011771 0.906289
vn -0.809167 -0.010967 0.587476
vn 0.43182 -0.762462 0.481854
vn -0.706622 -0.65723 0.262172
vn 0.50911 -0.772329 -0.379889
vn -0.629762 -0.666533 -0.398916
vn -0.57871 0.017439 -0.815347
vn -0.485671 0.77075 -0.412394
vn 0.594009 0.670966 -0.443799
vn 0.669018 0.024258 -0.74285
vn -0.43969 0.764219 0.471849
vn 0.713916 0.659396 0.235628
vn -0.422495 -0.011769 0.906289
vn 0.809167 -0.010966 0.587476
vn -0.43182 -0.762461 0.481855
vn 0.706622 -0.657229 0.262173
vn -0.509109 -0.77233 -0.379888
vn 0.629762 -0.666534 -0.398915
vn -0.484115 0.771459 0.412897
vn -0.577784 0.01749 0.816003
vn 0.597031 0.668852 0.442934
vn 0.669617 0.024238 0.742311
vn -0.438404 0.764803 -0.4721
vn 0.715754 0.657571 -0.235154
vn -0.421472 -0.011804 -0.906765
vn 0.80965 -0.01102 -0.586809
vn -0.430537 -0.762997 -0.482154
vn 0.708493 -0.65545 -0.261579
vn -0.507754 -0.77304 0.380255
vn 0.632018 -0.664813 0.398218
usemtl datan_common_legs53_rgd_3f073fd8
f 1/1/1 2/2/2 3/3/3
f 3/3/3 4/4/4 1/1/1
f 5/5/5 6/6/6 7/7/7
f 7/7/7 8/8/8 5/5/5
f 9/9/9 10/10/10 11/11/11
f 11/11/11 12/12/12 9/9/9
f 12/12/12 11/11/11 13/13/13
f 13/13/13 14/14/14 12/12/12
f 15/15/15 16/16/16 17/17/17
f 17/17/17 18/18/18 15/15/15
f 18/18/18 17/17/17 19/19/19
f 19/19/19 20/20/20 18/18/18
f 21/21/21 22/22/22 23/23/23
f 23/23/23 24/24/24 21/21/21
f 22/22/22 25/25/25 26/26/26
f 26/26/26 23/23/23 22/22/22
f 24/24/24 23/23/23 27/27/27
f 27/27/27 28/28/28 24/24/24
f 23/23/23 26/26/26 29/29/29
f 29/29/29 27/27/27 23/23/23
f 7/7/7 6/6/6 30/30/30
f 30/30/30 31/31/31 7/7/7
f 32/32/32 33/33/33 14/14/14
f 14/14/14 13/13/13 32/32/32
f 34/34/34 35/35/35 36/36/36
f 36/36/36 37/37/37 34/34/34
f 35/35/35 38/38/38 39/39/39
f 39/39/39 36/36/36 35/35/35
f 37/37/37 36/36/36 40/40/40
f 40/40/40 41/41/41 37/37/37
f 36/36/36 39/39/39 42/42/42
f 42/42/42 40/40/40 36/36/36
f 43/43/43 44/44/44 45/45/45
f 43/43/43 45/45/45 46/46/46
f 44/44/44 47/47/47 48/48/48
f 44/44/44 48/48/48 45/45/45
f 47/47/47 49/49/49 50/50/50
f 47/47/47 50/50/50 48/48/48
f 49/49/49 51/51/51 52/52/52
f 49/49/49 52/52/52 50/50/50
f 51/51/51 53/53/53 54/54/54
f 51/51/51 54/54/54 52/52/52
f 53/53/53 43/43/43 46/46/46
f 53/53/53 46/46/46 54/54/54
f 43/43/43 47/47/47 44/44/44
f 43/43/43 49/49/49 47/47/47
f 43/43/43 51/51/51 49/49/49
f 43/43/43 53/53/53 51/51/51
f 46/46/46 45/45/45 48/48/48
f 46/46/46 48/48/48 50/50/50
f 46/46/46 50/50/50 52/52/52
f 46/46/46 52/52/52 54/54/54
f 55/55/55 56/56/56 57/57/57
f 57/57/57 58/58/58 55/55/55
f 59/59/59 60/60/60 61/61/61
f 61/61/61 62/62/62 59/59/59
f 63/63/63 64/64/64 57/57/57
f 57/57/57 56/56/56 63/63/63
f 65/65/65 66/66/66 55/55/55
f 55/55/55 58/58/58 65/65/65
f 67/67/67 68/68/68 69/69/69
f 69/69/69 68/68/68 70/70/70
f 71/71/71 67/67/67 72/72/72
f 72/72/72 67/67/67 69/69/69
f 73/73/73 71/71/71 74/74/74
f 74/74/74 71/71/71 72/72/72
f 75/75/75 73/73/73 76/76/76
f 76/76/76 73/73/73 74/74/74
f 77/77/77 75/75/75 78/78/78
f 78/78/78 75/75/75 76/76/76
f 68/68/68 77/77/77 70/70/70
f 70/70/70 77/77/77 78/78/78
f 71/71/71 68/68/68 67/67/67
f 73/73/73 68/68/68 71/71/71
f 75/75/75 68/68/68 73/73/73
f 77/77/77 68/68/68 75/75/75
f 69/69/69 70/70/70 72/72/72
f 72/72/72 70/70/70 74/74/74
f 74/74/74 70/70/70 76/76/76
f 76/76/76 70/70/70 78/78/78
f 79/79/79 80/80/80 81/81/81
f 79/79/79 81/81/81 82/82/82
f 80/80/80 83/83/83 84/84/84
f 80/80/80 84/84/84 81/81/81
f 83/83/83 85/85/85 86/86/86
f 83/83/83 86/86/86 84/84/84
f 85/85/85 87/87/87 88/88/88
f 85/85/85 88/88/88 86/86/86
f 87/87/87 89/89/89 90/90/90
f 87/87/87 90/90/90 88/88/88
f 89/89/89 79/79/79 82/82/82
f 89/89/89 82/82/82 90/90/90
f 79/79/79 83/83/83 80/80/80
f 79/79/79 85/85/85 83/83/83
f 79/79/79 87/87/87 85/85/85
f 79/79/79 89/89/89 87/87/87
f 82/82/82 81/81/81 84/84/84
f 82/82/82 84/84/84 86/86/86
f 82/82/82 86/86/86 88/88/88
f 82/82/82 88/88/88 90/90/90
f 91/91/91 92/92/92 93/93/93
f 93/93/93 92/92/92 94/94/94
f 95/95/95 91/91/91 96/96/96
f 96/96/96 91/91/91 93/93/93
f 97/97/97 95/95/95 98/98/98
f 98/98/98 95/95/95 96/96/96
f 99/99/99 97/97/97 100/100/100
f 100/100/100 97/97/97 98/98/98
f 101/101/101 99/99/99 102/102/102
