# Generated from Nova1492 GX by tools/nova1492/GxObjConverter
mtllib datan_common_legs51_ppo_c6fb22ee.mtl
o datan_common_legs51_ppo_c6fb22ee
v -0 0 0.225073
v -0 0.200989 0.112537
v -0.680852 0.200989 0.112537
v -0.680852 -0 0.225073
v -0 0.200989 0.112537
v 0 0.200989 -0.112537
v -0.680852 0.200989 -0.112537
v -0.680852 0.200989 0.112537
v 0 0.200989 -0.112537
v 0 -0 -0.225073
v -0.680852 -0 -0.225073
v -0.680852 0.200989 -0.112537
v 0 -0 -0.225073
v 0 -0.200989 -0.112537
v -0.680852 -0.200989 -0.112537
v -0.680852 -0 -0.225073
v -0 -0.200989 0.112537
v -0 0 0.225073
v -0.680852 -0 0.225073
v -0.680852 -0.200989 0.112537
v -0 0.200989 0.112537
v 0 -0 -0.225073
v 0 0.200989 -0.112537
v 0 -0.200989 -0.112537
v -0 -0.200989 0.112537
v -0 0 0.225073
v -0.680852 0.200989 0.112537
v -0.680852 0.200989 -0.112537
v -0.680852 -0 -0.225073
v -0.680852 -0.200989 -0.112537
v -0.680852 -0.200989 0.112537
v -0.680852 -0 0.225073
v -0.027359 -0.277746 -0.661012
v -0.113782 0.010052 -0.661012
v -0.113782 -0.035869 -0.032378
v -0.027359 -0.173669 -0.0917
v -0.200204 -0.277746 -0.661012
v -0.200204 -0.173669 -0.0917
v -0.113782 -0.035869 -0.032378
v -0.113782 0.010052 -0.661012
v -0.027359 -0.277746 -0.661012
v -0.027359 -0.173669 -0.0917
v -0.200204 -0.173669 -0.0917
v -0.200204 -0.277746 -0.661012
v -0.113782 0.010052 -0.661012
v -0.027359 -0.277746 -0.661012
v -0.200204 -0.277746 -0.661012
v -0.3056 -0.175334 -0.490851
v -0.3056 0.040374 -0.578904
v 0.026207 0.040374 -0.578904
v 0.026207 -0.175334 -0.490851
v -0.139697 0.215896 -0.933666
v -0.064663 0.117494 -1.005753
v -0.214731 0.117494 -1.005753
v -0.3056 -0.175334 -0.490851
v 0.026207 -0.175334 -0.490851
v -0.023059 -0.0677 -0.125021
v -0.256335 -0.0677 -0.125021
v 0.026207 -0.175334 -0.490851
v 0.026207 0.040374 -0.578904
v -0.023059 -0.0677 -0.125021
v -0.139697 0.236535 -0.553401
v -0.139697 0.169414 -0.125021
v -0.139697 0.169414 -0.125021
v -0.3056 0.040374 -0.578904
v -0.256335 -0.0677 -0.125021
v -0.139697 0.236535 -0.553401
v -0.3056 -0.175334 -0.490851
v 0.026207 0.040374 -0.578904
v -0.3056 0.040374 -0.578904
v -0.214731 0.117494 -1.005753
v -0.064663 0.117494 -1.005753
v -0.3056 0.040374 -0.578904
v -0.139697 0.236535 -0.553401
v -0.139697 0.215896 -0.933666
v -0.139697 0.215896 -0.933666
v -0.214731 0.117494 -1.005753
v -0.3056 0.040374 -0.578904
v -0.139697 0.236535 -0.553401
v 0.026207 0.040374 -0.578904
v -0.064663 0.117494 -1.005753
v -0.064663 0.117494 -1.005753
v -0.139697 0.215896 -0.933666
v -0.139697 0.236535 -0.553401
v -0.562491 0.010052 -0.661012
v -0.648914 -0.277746 -0.661012
v -0.562491 -0.035869 -0.032378
v -0.648914 -0.173669 -0.0917
v -0.476069 -0.173669 -0.0917
v -0.476069 -0.277746 -0.661012
v -0.562491 -0.035869 -0.032378
v -0.562491 0.010052 -0.661012
v -0.648914 -0.173669 -0.0917
v -0.648914 -0.277746 -0.661012
v -0.476069 -0.173669 -0.0917
v -0.476069 -0.277746 -0.661012
v -0.648914 -0.277746 -0.661012
v -0.562491 0.010052 -0.661012
v -0.476069 -0.277746 -0.661012
v -0.371424 0.040374 -0.578904
v -0.371424 -0.175334 -0.490851
v -0.703231 0.040374 -0.578904
v -0.703231 -0.175334 -0.490851
v -0.612362 0.117494 -1.005753
v -0.537328 0.215896 -0.933666
v -0.462294 0.117494 -1.005753
v -0.703231 -0.175334 -0.490851
v -0.371424 -0.175334 -0.490851
v -0.653966 -0.0677 -0.125021
v -0.42069 -0.0677 -0.125021
v -0.703231 0.040374 -0.578904
v -0.703231 -0.175334 -0.490851
v -0.653966 -0.0677 -0.125021
v -0.537328 0.236535 -0.553401
v -0.537328 0.169414 -0.125021
v -0.371424 0.040374 -0.578904
v -0.537328 0.169414 -0.125021
v -0.42069 -0.0677 -0.125021
v -0.537328 0.236535 -0.553401
v -0.371424 -0.175334 -0.490851
v -0.371424 0.040374 -0.578904
v -0.703231 0.040374 -0.578904
v -0.462294 0.117494 -1.005753
v -0.612362 0.117494 -1.005753
v -0.537328 0.236535 -0.553401
v -0.371424 0.040374 -0.578904
v -0.537328 0.215896 -0.933666
v -0.462294 0.117494 -1.005753
v -0.537328 0.215896 -0.933666
v -0.371424 0.040374 -0.578904
v -0.703231 0.040374 -0.578904
v -0.537328 0.236535 -0.553401
v -0.612362 0.117494 -1.005753
v -0.537328 0.215896 -0.933666
v -0.612362 0.117494 -1.005753
v -0.537328 0.236535 -0.553401
v -0.781506 -0.018029 0.471187
v -0.701175 -0.15813 0.49253
v -0.846382 0.045369 0.715362
v -0.778769 -0.089675 0.78457
v -0.621001 0.223925 0.513832
v -0.673151 0.180501 0.710111
v -0.460392 -0.017905 0.556505
v -0.621001 0.223925 0.513832
v -0.525257 0.045486 0.800639
v -0.673151 0.180501 0.710111
v -0.701175 -0.15813 0.49253
v -0.781506 -0.018029 0.471187
v -0.460392 -0.017905 0.556505
v -0.540618 -0.158068 0.535189
v -0.525257 0.045486 0.800639
v -0.778769 -0.089675 0.78457
v -0.618206 -0.089617 0.827208
v -0.846382 0.045369 0.715362
v -0.673151 0.180501 0.710111
v -0.572708 -0.042692 0.075726
v -0.509074 0.101564 0.092634
v -0.509074 0.101564 0.092634
v -0.445398 -0.042618 0.109552
v 0.024151 -0.15813 0.49253
v 0.104481 -0.018029 0.471187
v 0.169357 0.045369 0.715362
v 0.101744 -0.089675 0.78457
v -0.056024 0.223925 0.513832
v -0.003873 0.180501 0.710111
v -0.056024 0.223925 0.513832
v -0.216633 -0.017904 0.556505
v -0.151767 0.045486 0.800639
v -0.003873 0.180501 0.710111
v 0.104481 -0.018029 0.471187
v 0.024151 -0.15813 0.49253
v -0.216633 -0.017904 0.556505
v -0.136406 -0.158068 0.535189
v 0.101744 -0.089675 0.78457
v -0.151767 0.045486 0.800639
v -0.058818 -0.089617 0.827208
v 0.169357 0.045369 0.715362
v -0.003873 0.180501 0.710111
v -0.104316 -0.042692 0.075726
v -0.167951 0.101564 0.092634
v -0.167951 0.101564 0.092634
v -0.231626 -0.042618 0.109552
vt 0.888092 0.508955
vt 0.900943 0.508955
vt 0.900943 0.652594
vt 0.888092 0.652594
vt 0.904771 0.508955
vt 0.934203 0.508955
vt 0.934203 0.652594
vt 0.904771 0.652594
vt 0.938031 0.508955
vt 0.950465 0.508955
vt 0.950465 0.652594
vt 0.938031 0.652594
vt 0.950465 0.508955
vt 0.938031 0.508955
vt 0.938031 0.652594
vt 0.954293 0.652594
vt 0.900943 0.508955
vt 0.888092 0.508955
vt 0.888092 0.652594
vt 0.904771 0.652594
vt 0.828788 0.619633
vt 0.780624 0.57792
vt 0.798216 0.619633
vt 0.798216 0.53238
vt 0.833139 0.53238
vt 0.85047 0.577744
vt 0.828788 0.619633
vt 0.798216 0.619633
vt 0.780624 0.57792
vt 0.798216 0.53238
vt 0.833139 0.53238
vt 0.85047 0.577744
vt 0.988536 0.824764
vt 0.988536 0.880826
vt 0.872159 0.872224
vt 0.883203 0.817356
vt 0.988441 0.774183
vt 0.883505 0.793819
vt 0.872319 0.815362
vt 0.988441 0.827658
vt 0.988536 0.820935
vt 0.883203 0.817356
vt 0.883203 0.817356
vt 0.988536 0.824764
vt 0.856053 0.829358
vt 0.839653 0.780207
vt 0.869042 0.780207
vt 0.22894 0.572779
vt 0.22894 0.641443
vt 0.153784 0.641443
vt 0.149956 0.572779
vt 0.193425 0.689016
vt 0.177339 0.654078
vt 0.209511 0.654078
vt 0.10129 0.623034
vt 0.10129 0.623034
vt 0.030694 0.602798
vt 0.026866 0.602798
vt 0.104158 0.631051
vt 0.127873 0.679573
vt 0.009382 0.65682
vt 0.12076 0.741575
vt 0.009382 0.725008
vt 0.009309 0.526048
vt 0.127301 0.567158
vt 0.009309 0.590408
vt 0.120787 0.509581
vt 0.103088 0.624331
vt 0.131578 0.567075
vt 0.131578 0.567075
vt 0.241849 0.543923
vt 0.241849 0.543923
vt 0.131129 0.567158
vt 0.124615 0.509581
vt 0.22336 0.514759
vt 0.22336 0.514759
vt 0.242186 0.540975
vt 0.131129 0.567158
vt 0.124589 0.741575
vt 0.131701 0.683401
vt 0.24226 0.710579
vt 0.24226 0.710579
vt 0.222935 0.736795
vt 0.124589 0.741575
vt 0.988536 0.880826
vt 0.988536 0.824764
vt 0.872159 0.872224
vt 0.883203 0.817356
vt 0.883505 0.793819
vt 0.988441 0.774183
vt 0.872319 0.815362
vt 0.988441 0.827658
vt 0.883203 0.817356
vt 0.988536 0.820935
vt 0.883203 0.817356
vt 0.988536 0.824764
vt 0.839653 0.780207
vt 0.856053 0.829358
vt 0.869042 0.780207
vt 0.22894 0.641443
vt 0.22894 0.572779
vt 0.153784 0.641443
vt 0.149956 0.572779
vt 0.177339 0.654078
vt 0.193425 0.689016
vt 0.209511 0.654078
vt 0.10129 0.623034
vt 0.10129 0.623034
vt 0.030694 0.602798
vt 0.026866 0.602798
vt 0.127873 0.679573
vt 0.104158 0.631051
vt 0.009382 0.65682
vt 0.12076 0.741575
vt 0.009382 0.725008
vt 0.127301 0.567158
vt 0.009309 0.526048
vt 0.009309 0.590408
vt 0.120787 0.509581
vt 0.103088 0.624331
vt 0.131578 0.567075
vt 0.131578 0.567075
vt 0.241849 0.543923
vt 0.241849 0.543923
vt 0.124615 0.509581
vt 0.131129 0.567158
vt 0.22336 0.514759
vt 0.242186 0.540975
vt 0.22336 0.514759
vt 0.131129 0.567158
vt 0.131701 0.683401
vt 0.124589 0.741575
vt 0.24226 0.710579
vt 0.222935 0.736795
vt 0.24226 0.710579
vt 0.124589 0.741575
vt 0.350732 0.666345
vt 0.350771 0.628711
vt 0.274423 0.679847
vt 0.259146 0.64312
vt 0.351617 0.74271
vt 0.291684 0.732774
vt 0.351056 0.579776
vt 0.351334 0.507279
vt 0.274269 0.566612
vt 0.292401 0.517572
vt 0.275835 0.586158
vt 0.267823 0.61868
vt 0.334055 0.618557
vt 0.326539 0.586051
vt 0.368458 0.624579
vt 0.443724 0.591326
vt 0.39486 0.591372
vt 0.469765 0.628745
vt 0.417363 0.662245
vt 0.491789 0.676207
vt 0.490498 0.717222
vt 0.491204 0.533358
vt 0.491942 0.57395
vt 0.350771 0.628711
vt 0.350732 0.666345
vt 0.274423 0.679847
vt 0.259146 0.64312
vt 0.351617 0.74271
vt 0.291684 0.732774
vt 0.351334 0.507279
vt 0.351056 0.579776
vt 0.274269 0.566612
vt 0.292401 0.517572
vt 0.267823 0.61868
vt 0.275835 0.586158
vt 0.334055 0.618557
vt 0.326539 0.586051
vt 0.443724 0.591326
vt 0.368458 0.624579
vt 0.39486 0.591372
vt 0.469765 0.628745
vt 0.417363 0.662245
vt 0.491789 0.676207
vt 0.490498 0.717222
vt 0.491204 0.533358
vt 0.491942 0.57395
vn -0 0.488546 0.872538
vn -0 0.488546 0.872538
vn -0 0.488546 0.872538
vn -0 0.488546 0.872538
vn -0 1 -0
vn -0 1 -0
vn -0 1 -0
vn -0 1 -0
vn 0 0.488546 -0.872538
vn 0 0.488546 -0.872538
vn 0 0.488546 -0.872538
vn 0 0.488546 -0.872538
vn 0 -0.488546 -0.872538
vn 0 -0.488546 -0.872538
vn 0 -0.488546 -0.872538
vn 0 -0.488546 -0.872538
vn -0 -0.488546 0.872538
vn -0 -0.488546 0.872538
vn -0 -0.488546 0.872538
vn -0 -0.488546 0.872538
vn 1 0 0
vn 1 0 0
vn 1 0 0
vn 1 0 0
vn 1 0 0
vn 1 0 0
vn -1 -0 -0
vn -1 -0 0
vn -1 0 0
vn -1 0 -0
vn -1 -0 -0
vn -1 -0 -0.000001
vn 0.82996 0.180002 -0.527983
vn 0.847876 0.137679 -0.512007
vn 0.759645 0.302566 -0.575668
vn 0.697391 0.380483 -0.607353
vn -0.858047 0.165723 -0.486099
vn -0.743394 0.355087 -0.566815
vn -0.797629 0.280611 -0.533896
vn -0.873297 0.126511 -0.470475
vn -0.045855 -0.94473 -0.324628
vn -0.045855 -0.94473 -0.324628
vn -0.045855 -0.94473 -0.324628
vn -0.045855 -0.94473 -0.324628
vn -0.03469 -0.089553 -0.995378
vn -0.03469 -0.089553 -0.995378
vn -0.03469 -0.089553 -0.995378
vn -0.034533 -0.328242 -0.943962
vn -0.034533 -0.328242 -0.943962
vn -0.034533 -0.328242 -0.943962
vn -0.034533 -0.328242 -0.943962
vn -0.037753 0.311263 -0.949574
vn -0.037753 0.311263 -0.949574
vn -0.037753 0.311263 -0.949574
vn -0.047982 -0.967145 -0.249655
vn -0.047982 -0.967145 -0.249655
vn -0.047982 -0.967145 -0.249655
vn -0.047982 -0.967145 -0.249655
vn 0.899016 -0.088498 -0.428881
vn 0.864568 0.249255 -0.436343
vn 0.89562 0.199897 -0.397374
vn 0.723085 0.502113 -0.474374
vn 0.829365 0.374193 -0.41489
vn -0.860392 0.341326 -0.378448
vn -0.88882 0.227302 -0.397912
vn -0.914877 0.181433 -0.36067
vn -0.770156 0.463657 -0.438043
vn -0.916568 -0.080811 -0.391629
vn -0.040437 -0.833389 -0.551205
vn -0.040437 -0.833389 -0.551205
vn -0.040437 -0.833389 -0.551205
vn -0.040437 -0.833389 -0.551205
vn -0.719656 0.44757 -0.530826
vn -0.719656 0.44757 -0.530826
vn -0.719656 0.44757 -0.530826
vn -0.725582 0.426682 -0.539883
vn -0.725582 0.426682 -0.539883
vn -0.725582 0.426682 -0.539883
vn 0.664016 0.477852 -0.5751
vn 0.664016 0.477852 -0.5751
vn 0.664016 0.477852 -0.5751
vn 0.68764 0.453908 -0.566673
vn 0.68764 0.453908 -0.566673
vn 0.68764 0.453908 -0.566673
vn -0.941624 0.087424 -0.325118
vn -0.934296 0.115037 -0.337427
vn -0.904766 0.198152 -0.377007
vn -0.877555 0.254549 -0.406328
vn 0.246438 0.514516 -0.821305
vn 0.473669 0.284192 -0.833591
vn 0.343869 0.436873 -0.831202
vn 0.511213 0.22318 -0.829971
vn -0.463303 -0.838101 -0.287988
vn -0.463303 -0.838101 -0.287988
vn -0.463303 -0.838101 -0.287988
vn -0.463303 -0.838101 -0.287988
vn -0.36764 -0.083331 -0.926227
vn -0.36764 -0.083331 -0.926227
vn -0.36764 -0.083331 -0.926227
vn -0.366201 -0.305623 -0.878915
vn -0.366201 -0.305623 -0.878915
vn -0.366201 -0.305623 -0.878915
vn -0.366201 -0.305623 -0.878915
vn -0.395244 0.286122 -0.872878
vn -0.395244 0.286122 -0.872878
vn -0.395244 0.286122 -0.872878
vn -0.479968 -0.849442 -0.219271
vn -0.479968 -0.849442 -0.219272
vn -0.479968 -0.849442 -0.219272
vn -0.479968 -0.849441 -0.219272
vn -0.951055 0.153278 -0.268327
vn -0.96223 -0.055017 -0.266623
vn -0.963096 0.120956 -0.240448
vn -0.898071 0.319728 -0.302065
vn -0.939675 0.2291 -0.254017
vn 0.503266 0.428621 -0.750338
vn 0.391654 0.616243 -0.683266
vn 0.574172 0.36793 -0.731406
vn 0.207813 0.711031 -0.671751
vn 0.629681 -0.156994 -0.760825
vn -0.418598 -0.75748 -0.500999
vn -0.418598 -0.75748 -0.500999
vn -0.418598 -0.75748 -0.500999
vn -0.418598 -0.75748 -0.500999
vn 0.174137 0.634757 -0.752834
vn 0.174137 0.634757 -0.752834
vn 0.174137 0.634757 -0.752834
vn 0.191861 0.608535 -0.769983
vn 0.191861 0.608535 -0.769983
vn 0.191861 0.608535 -0.769983
vn -0.866956 0.318507 -0.383327
vn -0.866956 0.318507 -0.383327
vn -0.866956 0.318507 -0.383327
vn -0.877174 0.30019 -0.374768
vn -0.877174 0.30019 -0.374768
vn -0.877174 0.30019 -0.374768
vn -0.989143 0.097753 -0.109726
vn -0.814707 -0.301866 -0.495106
vn -0.891259 0.127394 0.435234
vn -0.765452 -0.01543 0.643308
vn -0.489782 0.843206 0.221623
vn -0.510417 0.577855 0.636834
vn 0.456283 0.854304 0.248939
vn -0.489782 0.843206 0.221623
vn -0.245897 0.45913 0.85366
vn -0.510417 0.577855 0.636834
vn -0.814707 -0.301866 -0.495106
vn -0.989143 0.097753 -0.109726
vn 0.456283 0.854304 0.248939
vn -0.501724 -0.042415 -0.863987
vn -0.245897 0.45913 0.85366
vn -0.765452 -0.01543 0.643308
vn -0.526855 0.200667 0.825928
vn -0.891259 0.127394 0.435234
vn -0.510417 0.577855 0.636834
vn -0.953629 0.300616 0.014874
vn -0.51007 0.858737 0.048991
vn -0.51007 0.858737 0.048991
vn 0.508156 0.588569 0.62878
vn 0.287461 -0.4986 -0.81778
vn 0.961373 0.183096 -0.205521
vn 0.732968 0.191096 0.65287
vn 0.496052 -0.020821 0.868043
vn -0.118478 0.96034 0.25241
vn 0.039336 0.671461 0.739995
vn -0.118478 0.96034 0.25241
vn -0.887979 0.44152 0.128656
vn -0.267472 0.456416 0.848613
vn 0.039336 0.671461 0.739995
vn 0.961373 0.183096 -0.205521
vn 0.287461 -0.4986 -0.81778
vn -0.887979 0.44152 0.128656
vn -0.515436 -0.042017 -0.855898
vn 0.496052 -0.020821 0.868043
vn -0.267472 0.456416 0.848613
vn 0.113643 0.234561 0.965436
vn 0.732968 0.191096 0.65287
vn 0.039336 0.671461 0.739995
vn 0.851892 0.523077 0.025882
vn -0.147891 0.987398 0.056331
vn -0.147891 0.987398 0.056331
vn -0.876221 0.329326 0.351825
usemtl datan_common_legs51_ppo_c6fb22ee
f 1/1/1 2/2/2 3/3/3
f 1/1/1 3/3/3 4/4/4
f 5/5/5 6/6/6 7/7/7
f 5/5/5 7/7/7 8/8/8
f 9/9/9 10/10/10 11/11/11
f 9/9/9 11/11/11 12/12/12
f 13/13/13 14/14/14 15/15/15
f 13/13/13 15/15/15 16/16/16
f 17/17/17 18/18/18 19/19/19
f 17/17/17 19/19/19 20/20/20
f 21/21/21 22/22/22 23/23/23
f 21/21/21 24/24/24 22/22/22
f 21/21/21 25/25/25 24/24/24
f 26/26/26 25/25/25 21/21/21
f 27/27/27 28/28/28 29/29/29
f 27/27/27 29/29/29 30/30/30
f 27/27/27 30/30/30 31/31/31
f 32/32/32 27/27/27 31/31/31
f 33/33/33 34/34/34 35/35/35
f 35/35/35 36/36/36 33/33/33
f 37/37/37 38/38/38 39/39/39
f 39/39/39 40/40/40 37/37/37
f 41/41/41 42/42/42 43/43/43
f 43/43/43 44/44/44 41/41/41
f 45/45/45 46/46/46 47/47/47
f 48/48/48 49/49/49 50/50/50
f 50/50/50 51/51/51 48/48/48
f 52/52/52 53/53/53 54/54/54
f 55/55/55 56/56/56 57/57/57
f 57/57/57 58/58/58 55/55/55
f 59/59/59 60/60/60 61/61/61
f 60/60/60 62/62/62 63/63/63
f 63/63/63 61/61/61 60/60/60
f 64/64/64 65/65/65 66/66/66
f 65/65/65 64/64/64 67/67/67
f 65/65/65 68/68/68 66/66/66
f 69/69/69 70/70/70 71/71/71
f 71/71/71 72/72/72 69/69/69
f 73/73/73 74/74/74 75/75/75
f 76/76/76 77/77/77 78/78/78
f 79/79/79 80/80/80 81/81/81
f 82/82/82 83/83/83 84/84/84
f 85/85/85 86/86/86 87/87/87
f 88/88/88 87/87/87 86/86/86
f 89/89/89 90/90/90 91/91/91
f 92/92/92 91/91/91 90/90/90
f 93/93/93 94/94/94 95/95/95
f 96/96/96 95/95/95 94/94/94
f 97/97/97 98/98/98 99/99/99
f 100/100/100 101/101/101 102/102/102
f 103/103/103 102/102/102 101/101/101
f 104/104/104 105/105/105 106/106/106
f 107/107/107 108/108/108 109/109/109
f 110/110/110 109/109/109 108/108/108
f 111/111/111 112/112/112 113/113/113
f 114/114/114 111/111/111 115/115/115
f 113/113/113 115/115/115 111/111/111
f 116/116/116 117/117/117 118/118/118
f 117/117/117 116/116/116 119/119/119
f 120/120/120 116/116/116 118/118/118
f 121/121/121 122/122/122 123/123/123
f 124/124/124 123/123/123 122/122/122
f 125/125/125 126/126/126 127/127/127
f 128/128/128 129/129/129 130/130/130
f 131/131/131 132/132/132 133/133/133
f 134/134/134 135/135/135 136/136/136
f 137/137/137 138/138/138 139/139/139
f 139/139/139 138/138/138 140/140/140
f 141/141/141 139/139/139 142/142/142
f 141/141/141 137/137/137 139/139/139
f 143/143/143 144/144/144 145/145/145
f 145/145/145 144/144/144 146/146/146
f 147/147/147 148/148/148 149/149/149
f 150/150/150 147/147/147 149/149/149
f 151/151/151 152/152/152 153/153/153
f 154/154/154 152/152/152 151/151/151
f 154/154/154 151/151/151 155/155/155
f 137/137/137 141/141/141 156/156/156
f 157/157/157 156/156/156 141/141/141
f 144/144/144 143/143/143 158/158/158
f 159/159/159 158/158/158 143/143/143
f 160/160/160 161/161/161 162/162/162
f 160/160/160 162/162/162 163/163/163
f 162/162/162 164/164/164 165/165/165
f 161/161/161 164/164/164 162/162/162
f 166/166/166 167/167/167 168/168/168
f 166/166/166 168/168/168 169/169/169
f 170/170/170 171/171/171 172/172/172
f 171/171/171 173/173/173 172/172/172
f 174/174/174 175/175/175 176/176/176
f 174/174/174 177/177/177 175/175/175
f 175/175/175 177/177/177 178/178/178
f 164/164/164 161/161/161 179/179/179
f 179/179/179 180/180/180 164/164/164
f 167/167/167 166/166/166 181/181/181
f 181/181/181 182/182/182 167/167/167
