# Generated from Nova1492 GX by tools/nova1492/GxObjConverter
mtllib datan_common_n_legs41_tdr_fd9e43f8.mtl
o datan_common_n_legs41_tdr_fd9e43f8
v -0.088809 0.045824 0.033941
v -0.067405 -0.052038 0.100893
v -0.043943 0.02877 0.122481
v -0.127632 -0.309218 0.077475
v -0.067599 -0.169027 0.143653
v -0.081835 -0.17175 0.117801
v -0.036402 -0.037961 -0.122954
v -0.137023 -0.043884 -0.065714
v -0.087353 0.045585 -0.045285
v -0.14025 -0.049917 0.022953
v -0.050346 -0.179959 -0.131382
v -0.131385 -0.287312 -0.067814
v -0.150351 -0.162694 -0.068538
v -0.153617 -0.170433 0.037582
v -0.055242 -0.048776 0.134675
v -0.17746 -0.452461 0.142766
v -0.135867 -0.399184 0.235255
v 0.077935 0.021453 0.118384
v -0.043943 0.02877 0.122481
v -0.055242 -0.048776 0.134675
v -0.135867 -0.399184 0.235255
v 0.04847 -0.418564 0.233363
v 0.053483 -0.180325 0.138887
v -0.067599 -0.169027 0.143653
v 0.066514 -0.060194 0.129828
v -0.087353 0.045585 -0.045285
v 0.102482 0.037567 -0.040797
v 0.067336 -0.045047 -0.122157
v -0.088809 0.045824 0.033941
v 0.09886 0.037328 0.038387
v -0.043943 0.02877 0.122481
v 0.077935 0.021453 0.118384
v -0.036402 -0.037961 -0.122954
v 0.077914 -0.297798 -0.075556
v -0.131385 -0.287312 -0.067814
v -0.050346 -0.179959 -0.131382
v 0.072205 -0.324595 0.07921
v 0.071994 -0.47604 0.141401
v -0.17746 -0.452461 0.142766
v -0.127632 -0.309218 0.077475
v 0.054012 -0.187132 -0.130407
v -0.135867 -0.399184 0.235255
v 0.04847 -0.418564 0.233363
v 0.075652 -0.066087 0.104056
v 0.12788 -0.076988 0.034984
v 0.09886 0.037328 0.038387
v 0.077935 0.021453 0.118384
v 0.06468 -0.185845 0.113477
v 0.053483 -0.180325 0.138887
v 0.072205 -0.324595 0.07921
v 0.067336 -0.045047 -0.122157
v 0.102482 0.037567 -0.040797
v 0.134657 -0.073029 -0.047809
v 0.121681 -0.18996 0.041392
v 0.054012 -0.187132 -0.130407
v 0.123701 -0.177436 -0.055153
v 0.077914 -0.297798 -0.075556
v 0.066514 -0.060194 0.129828
v 0.04847 -0.418564 0.233363
v -0.050346 -0.179959 -0.131382
v -0.036402 -0.037961 -0.122954
v 0.071994 -0.47604 0.141401
v 0.070006 -0.514817 -0.020146
v 0.055967 -0.52679 -0.040064
v 0.098084 -0.514817 -0.020146
v 0.055967 -0.502843 -0.000227
v 0.070007 -0.223828 -0.257476
v -0.085687 -0.413639 -0.041242
v -0.063936 -0.206406 -0.071512
v 0.048158 -0.213136 -0.071512
v 0.031254 -0.420659 -0.041242
v -0.114444 -0.43504 0.171435
v 0.013011 -0.451125 0.171435
v 0.04814 -0.213135 0.119624
v -0.076405 -0.205658 0.119624
v -0.134003 -0.52679 -0.040064
v -0.148042 -0.514816 -0.020146
v -0.17612 -0.514816 -0.020146
v -0.134003 -0.502842 -0.000227
v -0.148041 -0.223827 -0.257476
vt 0.808668 0.485088
vt 0.826218 0.402078
vt 0.833112 0.471606
vt 0.822569 0.157243
vt 0.839872 0.284581
vt 0.831617 0.281223
vt 0.75857 0.417041
vt 0.773019 0.405809
vt 0.779542 0.484945
vt 0.805159 0.392307
vt 0.755879 0.275292
vt 0.772348 0.177597
vt 0.772117 0.285863
vt 0.80983 0.278413
vt 0.840833 0.39817
vt 0.843417 0.019959
vt 0.869121 0.064663
vt 0.244012 0.988118
vt 0.170719 0.988118
vt 0.167582 0.910095
vt 0.134785 0.520989
vt 0.248027 0.511883
vt 0.238964 0.765501
vt 0.16214 0.77757
vt 0.241008 0.905594
vt 0.507801 0.342646
vt 0.744059 0.333797
vt 0.708243 0.486547
vt 0.505941 0.17879
vt 0.739517 0.170025
vt 0.564239 0.011883
vt 0.714774 0.019961
vt 0.580595 0.488118
vt 0.488087 0.327595
vt 0.26603 0.338077
vt 0.335612 0.482718
vt 0.484118 0.169676
vt 0.473899 0.107396
vt 0.291077 0.097495
vt 0.265023 0.184566
vt 0.451222 0.483231
vt 0.315989 0.019983
vt 0.457696 0.026979
vt 0.952228 0.389139
vt 0.934001 0.381849
vt 0.935087 0.479876
vt 0.960631 0.463794
vt 0.955236 0.268436
vt 0.96335 0.272987
vt 0.948123 0.146258
vt 0.883824 0.408422
vt 0.905975 0.480305
vt 0.903736 0.385948
vt 0.936047 0.267785
vt 0.88119 0.266626
vt 0.901391 0.279657
vt 0.894876 0.171737
vt 0.964286 0.3865
vt 0.993517 0.056702
vt 0.880879 0.267479
vt 0.88357 0.401572
vt 0.967981 0.00407
vt 0.171902 0.105391
vt 0.171902 0.152367
vt 0.171902 0.105391
vt 0.173816 0.050758
vt 0.224621 0.097734
vt 0.016637 0.075489
vt 0.005879 0.488117
vt 0.005879 0.488117
vt 0.016637 0.075489
vt 0.119121 0.028879
vt 0.119121 0.011883
vt 0.097983 0.488117
vt 0.094155 0.488117
vt 0.171902 0.152367
vt 0.171902 0.105391
vt 0.171902 0.105391
vt 0.173816 0.050758
vt 0.224621 0.097734
vn -0.87992 0.474796 -0.017606
vn -0.718755 0.161793 0.676176
vn -0.930134 0.185366 0.317002
vn -0.932424 0.332706 0.141042
vn -0.932424 0.332706 0.141042
vn -0.731423 0.181028 0.657457
vn -0.496418 0.099931 -0.862313
vn -0.874416 0.485176 0.001189
vn -0.874416 0.485176 0.001189
vn -0.718755 0.161793 0.676176
vn -0.520658 0.078615 -0.850138
vn -0.988614 -0.150449 0.002847
vn -0.979561 -0.196177 -0.044449
vn -0.979561 -0.196177 -0.044449
vn -0.930134 0.185366 0.317002
vn -0.901404 0.394695 0.178007
vn -0.932424 0.332706 0.141042
vn 0.051743 0.131524 0.989962
vn 0.042171 0.149199 0.987908
vn 0.0462 0.069648 0.996501
vn 0.069505 0.351029 0.933781
vn 0.048152 0.367329 0.928844
vn 0.045767 0.070179 0.996484
vn 0.045767 0.070179 0.996484
vn 0.045767 0.070179 0.996484
vn 0.053109 0.697097 -0.715007
vn 0.045109 0.998969 0.005079
vn 0.053109 0.697097 -0.715007
vn 0.045109 0.998969 0.005079
vn 0.06564 0.97534 0.210721
vn 0.06564 0.97534 0.210721
vn 0.06564 0.97534 0.210721
vn 0.053109 0.697097 -0.715007
vn -0.022434 -0.447859 -0.893823
vn -0.074622 -0.986349 -0.146793
vn -0.022434 -0.447859 -0.893823
vn -0.074622 -0.986349 -0.146793
vn -0.077934 -0.854263 0.513967
vn -0.077934 -0.854263 0.513967
vn -0.074622 -0.986349 -0.146793
vn -0.022434 -0.447859 -0.893823
vn -0.083634 -0.846753 0.525372
vn -0.077934 -0.854263 0.513967
vn 0.795472 -0.025254 0.605464
vn 0.965904 0.242508 0.090664
vn 0.965904 0.242508 0.090664
vn 0.933344 -0.081551 0.349599
vn 0.784158 -0.007835 0.620512
vn 0.981792 0.051817 0.182753
vn 0.976589 0.080544 0.199463
vn 0.735388 -0.029552 -0.677002
vn 0.959987 0.276447 0.044755
vn 0.735388 -0.029552 -0.677002
vn 0.935799 -0.351571 -0.026028
vn 0.735293 -0.029642 -0.677101
vn 0.935799 -0.351571 -0.026028
vn 0.935799 -0.351571 -0.026028
vn 0.933344 -0.081551 0.349599
vn 0.976589 0.080544 0.199463
vn 0.01331 0.057942 -0.998231
vn 0.01155 0.056879 -0.998314
vn 0.976589 0.080544 0.199463
vn 0.047943 -0.939545 0.339053
vn -0.886881 -0.46045 -0.037786
vn 0.648758 0.080548 0.75672
vn 0.648758 0.080548 0.75672
vn 0.648758 0.080548 0.75672
vn -0.960555 -0.203797 -0.189212
vn -0.980149 -0.145866 -0.134279
vn 0.071518 0.992289 -0.101227
vn 0.916073 -0.400978 -0.005166
vn -0.980149 -0.145866 -0.134279
vn 0.916073 -0.400978 -0.005166
vn 0.071518 0.992289 -0.101227
vn -0.980149 -0.145866 -0.134279
vn 0.869269 -0.492683 -0.040431
vn -0.100987 -0.935818 0.337708
vn -0.697789 0.075821 0.71228
vn -0.697789 0.075821 0.71228
vn -0.697789 0.075821 0.71228
usemtl datan_common_n_legs41_tdr_fd9e43f8
f 1/1/1 2/2/2 3/3/3
f 4/4/4 5/5/5 6/6/6
f 7/7/7 8/8/8 9/9/9
f 10/10/10 2/2/2 1/1/1
f 11/11/11 12/12/12 13/13/13
f 4/4/4 6/6/6 14/14/14
f 2/2/2 6/6/6 5/5/5
f 2/2/2 5/5/5 15/15/15
f 13/13/13 14/14/14 10/10/10
f 13/13/13 10/10/10 8/8/8
f 3/3/3 2/2/2 15/15/15
f 4/4/4 16/16/16 17/17/17
f 7/7/7 11/11/11 8/8/8
f 13/13/13 8/8/8 11/11/11
f 1/1/1 9/9/9 10/10/10
f 8/8/8 10/10/10 9/9/9
f 6/6/6 2/2/2 14/14/14
f 10/10/10 14/14/14 2/2/2
f 12/12/12 4/4/4 13/13/13
f 14/14/14 13/13/13 4/4/4
f 5/5/5 4/4/4 17/17/17
f 18/18/18 19/19/19 20/20/20
f 21/21/21 22/22/22 23/23/23
f 23/23/23 24/24/24 21/21/21
f 20/20/20 25/25/25 18/18/18
f 25/25/25 20/20/20 24/24/24
f 24/24/24 23/23/23 25/25/25
f 26/26/26 27/27/27 28/28/28
f 27/27/27 26/26/26 29/29/29
f 30/30/30 29/29/29 31/31/31
f 29/29/29 30/30/30 27/27/27
f 31/31/31 32/32/32 30/30/30
f 28/28/28 33/33/33 26/26/26
f 34/34/34 35/35/35 36/36/36
f 35/35/35 34/34/34 37/37/37
f 37/37/37 38/38/38 39/39/39
f 39/39/39 40/40/40 37/37/37
f 37/37/37 40/40/40 35/35/35
f 36/36/36 41/41/41 34/34/34
f 42/42/42 39/39/39 43/43/43
f 38/38/38 43/43/43 39/39/39
f 44/44/44 45/45/45 46/46/46
f 46/46/46 47/47/47 44/44/44
f 48/48/48 49/49/49 50/50/50
f 51/51/51 52/52/52 53/53/53
f 48/48/48 50/50/50 54/54/54
f 55/55/55 56/56/56 57/57/57
f 44/44/44 58/58/58 49/49/49
f 44/44/44 49/49/49 48/48/48
f 54/54/54 56/56/56 53/53/53
f 54/54/54 53/53/53 45/45/45
f 44/44/44 47/47/47 58/58/58
f 44/44/44 48/48/48 45/45/45
f 54/54/54 45/45/45 48/48/48
f 52/52/52 46/46/46 53/53/53
f 45/45/45 53/53/53 46/46/46
f 59/59/59 50/50/50 49/49/49
f 60/60/60 61/61/61 55/55/55
f 51/51/51 55/55/55 61/61/61
f 55/55/55 51/51/51 56/56/56
f 53/53/53 56/56/56 51/51/51
f 50/50/50 57/57/57 54/54/54
f 56/56/56 54/54/54 57/57/57
f 50/50/50 59/59/59 62/62/62
f 63/63/63 64/64/64 65/65/65
f 63/63/63 66/66/66 64/64/64
f 63/63/63 65/65/65 66/66/66
f 65/65/65 64/64/64 67/67/67
f 64/64/64 66/66/66 67/67/67
f 66/66/66 65/65/65 67/67/67
f 68/68/68 69/69/69 70/70/70
f 70/70/70 71/71/71 68/68/68
f 72/72/72 73/73/73 74/74/74
f 74/74/74 75/75/75 72/72/72
f 68/68/68 71/71/71 73/73/73
f 73/73/73 72/72/72 68/68/68
f 71/71/71 70/70/70 74/74/74
f 74/74/74 73/73/73 71/71/71
f 70/70/70 69/69/69 75/75/75
f 75/75/75 74/74/74 70/70/70
f 69/69/69 68/68/68 72/72/72
f 72/72/72 75/75/75 69/69/69
f 76/76/76 77/77/77 78/78/78
f 79/79/79 77/77/77 76/76/76
f 78/78/78 77/77/77 79/79/79
f 76/76/76 78/78/78 80/80/80
