# Generated from Nova1492 GX by tools/nova1492/GxObjConverter
mtllib datan_common_legs5_ko_cf6d709a.mtl
o datan_common_legs5_ko_cf6d709a
v -0.086538 0.023368 0.274298
v 0.086538 0.023368 0.274298
v 0.087017 0.103646 -0.064361
v -0.087017 0.103646 -0.064361
v 0.047336 0.041044 -0.598307
v -0.047336 0.041044 -0.598307
v 0.034491 -0.138125 -1.027859
v -0.034491 -0.138125 -1.027859
v 0 -0.31676 -1.457411
v 0.099849 -0.216964 -0.598307
v 0.079138 -0.251979 -0.98974
v -0.079138 -0.251979 -0.98974
v -0.099849 -0.216964 -0.598307
v -0.146197 -0.354341 -0.087042
v -0.156742 -0.360053 0.223344
v -0.252145 -0.301331 0.209426
v -0.140769 -0.213828 0.239797
v -0.207488 -0.164184 0.208027
v -0.123492 -0.101805 0.316677
v -0.233042 -0.160131 -0.074912
v -0.16 -0.342542 0.320957
v -0.215134 -0.301331 0.307039
v -0.15533 -0.239322 0.33741
v -0.132321 -0.295516 0.457088
v 0.156742 -0.360053 0.223344
v 0.146197 -0.354341 -0.087042
v 0.252146 -0.301331 0.209426
v 0.207488 -0.164184 0.208027
v 0.140769 -0.213828 0.239797
v 0.123492 -0.101805 0.316677
v 0.233042 -0.160131 -0.074912
v 0.215134 -0.301331 0.307039
v 0.16 -0.342542 0.320957
v 0.15533 -0.239322 0.33741
v 0.132321 -0.295516 0.457088
v 0 -0.013159 0.104012
v 0 -0.338648 0.00906
v 0.140769 -0.213828 0.239797
v 0.086538 0.023368 0.274298
v -0.086538 0.023368 0.274298
v -0.140769 -0.213828 0.239797
v -0.156742 -0.360053 0.223344
v 0.156742 -0.360053 0.223344
v -0.123492 -0.101805 0.316677
v -0.15533 -0.239322 0.33741
v -0.132321 -0.295516 0.457088
v -0.16 -0.342542 0.320957
v 0.123492 -0.101805 0.316677
v 0.132321 -0.295516 0.457088
v 0.15533 -0.239322 0.33741
v 0.16 -0.342542 0.320957
v 0.132543 -0.194169 0.174154
v 0.050253 -0.263897 0.53796
v -0.04951 -0.263897 0.53796
v -0.1318 -0.194169 0.174154
v 0.146197 -0.354341 -0.087042
v -0.146197 -0.354341 -0.087042
v 0.099849 -0.216964 -0.598307
v -0.099849 -0.216964 -0.598307
v 0.079138 -0.251979 -0.98974
v -0.079138 -0.251979 -0.98974
v 0 -0.31676 -1.457411
v -0.06212 -0.221696 0.561912
v 0.062863 -0.221696 0.561912
v 0.066431 0.023385 0.174154
v -0.065688 0.023385 0.174154
v 0.132543 -0.194169 0.174154
v -0.1318 -0.194169 0.174154
v -0.04951 -0.263897 0.53796
v 0.050253 -0.263897 0.53796
v 0.334402 -0.153047 -0.00051
v -0.334402 -0.24941 -0.056145
v -0.334402 -0.153047 -0.00051
v 0.334402 -0.24941 -0.056145
v 0.334402 -0.24941 0.055125
v -0.334402 -0.24941 0.055125
vt 0.943521 0.976408
vt 0.943521 0.976408
vt 0.837029 0.976408
vt 0.837029 0.980236
vt 0.726708 0.988242
vt 0.726708 0.988242
vt 0.616387 0.917817
vt 0.616387 0.917817
vt 0.506066 0.794851
vt 0.726708 0.877053
vt 0.626177 0.848724
vt 0.626177 0.848724
vt 0.726708 0.877053
vt 0.858015 0.765224
vt 0.933902 0.761758
vt 0.930328 0.789738
vt 0.941956 0.850496
vt 0.933797 0.880623
vt 0.961701 0.880623
vt 0.86113 0.883083
vt 0.958972 0.772384
vt 0.959225 0.797394
vt 0.967026 0.835025
vt 0.993934 0.800923
vt 0.933902 0.761758
vt 0.858015 0.765224
vt 0.930328 0.789738
vt 0.933797 0.880623
vt 0.941956 0.850496
vt 0.961701 0.880623
vt 0.86113 0.883083
vt 0.959225 0.797394
vt 0.958972 0.772384
vt 0.967026 0.835025
vt 0.993934 0.800923
vt 0.835561 0.089769
vt 0.832852 0.017757
vt 0.835608 0.053107
vt 0.836207 0.105996
vt 0.836207 0.105996
vt 0.835608 0.04545
vt 0.835138 0.011695
vt 0.835138 0.011695
vt 0.837802 0.05951
vt 0.842222 0.03823
vt 0.841809 0.029972
vt 0.841752 0.016654
vt 0.837802 0.05951
vt 0.841809 0.029972
vt 0.842222 0.03823
vt 0.841752 0.016654
vt 0.791004 0.035379
vt 0.838434 0.011695
vt 0.838434 0.011695
vt 0.791004 0.035379
vt 0.830109 0.005657
vt 0.830109 0.005657
vt 0.81552 0.057843
vt 0.81552 0.057843
vt 0.80435 0.044623
vt 0.80435 0.044623
vt 0.791004 0.019482
vt 0.994121 0.655663
vt 0.994121 0.655663
vt 0.880879 0.738305
vt 0.880879 0.738305
vt 0.880879 0.668035
vt 0.880879 0.668035
vt 0.98689 0.636695
vt 0.98689 0.636695
vt 0.791004 0.066328
vt 0.841809 0.113305
vt 0.841809 0.066328
vt 0.791004 0.113305
vt 0.791004 0.011695
vt 0.841809 0.011695
vn -0.87107 0.477638 0.114455
vn 0.87107 0.477638 0.114455
vn 0.87107 0.477638 0.114455
vn -0.87107 0.477638 0.114455
vn 0.977539 0.19896 -0.06952
vn -0.975406 0.198526 -0.095765
vn 0.93314 0.299183 -0.199346
vn -0.936073 0.313872 -0.15891
vn -0.93314 0.299183 -0.199346
vn 0.839049 0.475094 -0.265108
vn 0.93314 0.299183 -0.199346
vn -0.936073 0.313872 -0.15891
vn -0.839049 0.475094 -0.265108
vn -0.885484 0.284585 -0.367329
vn -0.533485 -0.835436 0.132061
vn -0.639377 0.729675 0.242429
vn -0.639377 0.729675 0.242429
vn -0.885484 0.284585 -0.367329
vn -0.612934 -0.380656 0.692397
vn -0.87107 0.477638 0.114455
vn -0.614648 -0.69859 0.366306
vn -0.750434 0.530972 0.393595
vn -0.750434 0.530972 0.393595
vn -0.750434 0.530972 0.393595
vn 0.533485 -0.835436 0.132061
vn 0.885484 0.284585 -0.367329
vn 0.639377 0.729675 0.242429
vn 0.885484 0.284585 -0.367329
vn 0.639377 0.729675 0.242429
vn 0.612934 -0.380656 0.692397
vn 0.87107 0.477638 0.114455
vn 0.750434 0.530972 0.393595
vn 0.614648 -0.69859 0.366306
vn 0.750434 0.530972 0.393595
vn 0.750434 0.530972 0.393595
vn 0 -0.97776 0.209729
vn 0 -0.986927 0.161166
vn -0.991987 -0.114397 0.053631
vn 0 -0.97776 0.209729
vn 0 -0.97776 0.209729
vn 0.991987 -0.114397 0.053631
vn 0.116031 -0.993142 -0.014333
vn -0.116031 -0.993142 -0.014333
vn 0.961915 -0.239176 0.132344
vn 0.989285 -0.065551 0.130458
vn 0.98075 -0.013318 -0.194815
vn 0.991987 -0.114397 0.053631
vn -0.961915 -0.239176 0.132345
vn -0.98075 -0.013319 -0.194815
vn -0.989285 -0.065551 0.130457
vn -0.991987 -0.114397 0.053631
vn 0 -0.982124 -0.188236
vn -0 -0.982124 -0.188236
vn 0 -0.982124 -0.188236
vn 0 -0.982124 -0.188236
vn 0 -0.965744 -0.259497
vn 0 -0.965744 -0.259497
vn 0 -0.996023 0.089097
vn 0 -0.996023 0.089097
vn 0 -0.990542 0.13721
vn 0 -0.990542 0.13721
vn 0 -0.990542 0.13721
vn 0 -0.4936 0.869689
vn 0 -0.4936 0.869689
vn 0.939534 0.285511 0.189102
vn -0.939534 0.285511 0.189102
vn 0.923853 -0.355929 0.140749
vn -0.923853 -0.355929 0.140749
vn 0 -0.4936 0.869689
vn 0 -0.4936 0.869689
vn 0 0.5 0.866026
vn 0 0.5 -0.866025
vn 0 0.5 0.866026
vn 0 0.5 -0.866025
vn 0 0.5 0.866026
vn 0 0.5 0.866026
usemtl datan_common_legs5_ko_cf6d709a
f 1/1/1 2/2/2 3/3/3
f 3/3/3 4/4/4 1/1/1
f 4/4/4 3/3/3 5/5/5
f 5/5/5 6/6/6 4/4/4
f 6/6/6 5/5/5 7/7/7
f 7/7/7 8/8/8 6/6/6
f 8/8/8 7/7/7 9/9/9
f 3/3/3 10/10/10 5/5/5
f 5/5/5 11/11/11 7/7/7
f 11/11/11 5/5/5 10/10/10
f 9/9/9 7/7/7 11/11/11
f 9/9/9 12/12/12 8/8/8
f 12/12/12 13/13/13 6/6/6
f 6/6/6 8/8/8 12/12/12
f 4/4/4 6/6/6 13/13/13
f 14/14/14 15/15/15 16/16/16
f 17/17/17 18/18/18 16/16/16
f 19/19/19 1/1/1 18/18/18
f 13/13/13 14/14/14 20/20/20
f 20/20/20 14/14/14 18/18/18
f 20/20/20 4/4/4 13/13/13
f 20/20/20 18/18/18 1/1/1
f 1/1/1 4/4/4 20/20/20
f 19/19/19 18/18/18 17/17/17
f 18/18/18 14/14/14 16/16/16
f 21/21/21 22/22/22 16/16/16
f 16/16/16 15/15/15 21/21/21
f 22/22/22 23/23/23 17/17/17
f 17/17/17 16/16/16 22/22/22
f 22/22/22 21/21/21 24/24/24
f 23/23/23 22/22/22 24/24/24
f 25/25/25 26/26/26 27/27/27
f 28/28/28 29/29/29 27/27/27
f 2/2/2 30/30/30 28/28/28
f 26/26/26 10/10/10 31/31/31
f 26/26/26 31/31/31 28/28/28
f 3/3/3 31/31/31 10/10/10
f 28/28/28 31/31/31 2/2/2
f 3/3/3 2/2/2 31/31/31
f 28/28/28 30/30/30 29/29/29
f 26/26/26 28/28/28 27/27/27
f 32/32/32 33/33/33 27/27/27
f 25/25/25 27/27/27 33/33/33
f 34/34/34 32/32/32 29/29/29
f 27/27/27 29/29/29 32/32/32
f 33/33/33 32/32/32 35/35/35
f 32/32/32 34/34/34 35/35/35
f 36/36/36 37/37/37 38/38/38
f 38/38/38 39/39/39 36/36/36
f 37/37/37 36/36/36 40/40/40
f 40/40/40 41/41/41 37/37/37
f 41/41/41 42/42/42 37/37/37
f 43/43/43 38/38/38 37/37/37
f 40/40/40 44/44/44 41/41/41
f 45/45/45 46/46/46 47/47/47
f 41/41/41 45/45/45 47/47/47
f 41/41/41 47/47/47 42/42/42
f 48/48/48 39/39/39 38/38/38
f 49/49/49 50/50/50 51/51/51
f 50/50/50 38/38/38 51/51/51
f 51/51/51 38/38/38 43/43/43
f 52/52/52 53/53/53 54/54/54
f 52/52/52 54/54/54 55/55/55
f 56/56/56 43/43/43 37/37/37
f 37/37/37 42/42/42 57/57/57
f 37/37/37 57/57/57 56/56/56
f 58/58/58 56/56/56 57/57/57
f 58/58/58 57/57/57 59/59/59
f 60/60/60 58/58/58 59/59/59
f 60/60/60 59/59/59 61/61/61
f 62/62/62 60/60/60 61/61/61
f 39/39/39 40/40/40 36/36/36
f 63/63/63 64/64/64 65/65/65
f 65/65/65 66/66/66 63/63/63
f 64/64/64 67/67/67 65/65/65
f 63/63/63 66/66/66 68/68/68
f 68/68/68 69/69/69 63/63/63
f 64/64/64 70/70/70 67/67/67
f 64/64/64 63/63/63 69/69/69
f 69/69/69 70/70/70 64/64/64
f 71/71/71 72/72/72 73/73/73
f 71/71/71 74/74/74 72/72/72
f 75/75/75 73/73/73 76/76/76
