# Generated from Nova1492 GX by tools/nova1492/GxObjConverter
mtllib datan_common_legs112_d88263df.mtl
o datan_common_legs112_d88263df_mesh00
v -0.09197 0.809896 -0.332792
v -0.116801 1.225966 -0.330383
v 0.116797 1.225966 -0.330383
v 0.091966 0.809896 -0.332792
v -0.09197 0.809896 0.294936
v 0.091966 0.809896 0.294936
v 0.116797 1.225966 0.362772
v -0.116801 1.225966 0.362772
v 0.091966 0.809896 -0.332792
v 0.116797 1.225966 -0.330383
v -0.116801 1.225966 -0.330383
v -0.116801 1.225966 0.362772
v -0.09197 0.809896 -0.332792
v -0.09197 0.809896 0.294936
vt 0.286647 0.261758
vt 0.261758 0.488242
vt 0.488242 0.488242
vt 0.463353 0.261758
vt 0.286647 0.261758
vt 0.463353 0.261758
vt 0.488242 0.488242
vt 0.261758 0.488242
vt 0.47101 0.261758
vt 0.488242 0.49207
vt 0.261758 0.49207
vt 0.261758 0.49207
vt 0.27899 0.261758
vt 0.27899 0.261758
vn 0 0.00579 -0.999983
vn -0.892962 -0.050702 -0.447268
vn 0.446481 -0.021467 -0.894536
vn 0 0.00579 -0.999983
vn 0 -0.160915 0.986968
vn 0.702492 -0.155167 0.694571
vn 0.697414 0.195282 0.68955
vn -0.702492 -0.155167 0.694571
vn 0.998224 -0.059574 0
vn 0 1 0
vn 0 1 0
vn 0 1 0
vn -0.998224 -0.059574 0
vn -0.998224 -0.059574 0
usemtl datan_common_legs112_d88263df
f 1/1/1 2/2/2 3/3/3
f 3/3/3 4/4/4 1/1/1
f 5/5/5 6/6/6 7/7/7
f 7/7/7 8/8/8 5/5/5
f 9/9/9 3/3/3 7/7/7
f 7/7/7 6/6/6 9/9/9
f 10/10/10 11/11/11 12/12/12
f 12/12/12 7/7/7 10/10/10
f 2/2/2 13/13/13 14/14/14
f 14/14/14 8/8/8 2/2/2
o datan_common_legs112_d88263df_mesh01
v 0.586708 1.049884 -0.070038
v 0.180631 1.192503 -0.302394
v -0.015036 1.192503 0.235195
v 0.445393 1.049884 0.318221
v 0.50902 0.741332 -0.098321
v 0.093979 0.848349 -0.33394
v 0.180631 1.192503 -0.302394
v 0.586708 1.049884 -0.070038
v 0.093979 0.848349 -0.33394
v -0.101688 0.848349 0.20365
v -0.015036 1.192503 0.235195
v -0.101688 0.848349 0.20365
v 0.367705 0.741332 0.289939
v 0.445393 1.049884 0.318221
v 0.367705 0.741332 0.289939
v 0.50902 0.741332 -0.098321
v 0.586708 1.049884 -0.070038
v 0.73694 0.942085 0.07196
v 0.106374 1.147374 -0.240171
v -0.032397 1.147374 0.141098
v 0.651279 0.942085 0.307312
v 0.684156 0.733149 0.05269
v 0.045352 0.905013 -0.262388
v 0.106374 1.147374 -0.240171
v 0.73694 0.942085 0.07196
v -0.093419 0.905013 0.118881
v 0.598495 0.733149 0.288042
v 0.651279 0.942085 0.307312
v 0.598495 0.733149 0.288042
v 0.684156 0.733149 0.05269
v 0.73694 0.942085 0.07196
v 0.651279 0.942085 0.307312
vt 0.172288 0.863335
vt 0.465968 0.90844
vt 0.465969 0.591338
vt 0.164631 0.636443
vt 0.172288 0.928566
vt 0.465968 0.988117
vt 0.465968 0.916097
vt 0.164631 0.870991
vt 0.469796 0.988117
vt 0.469797 0.511883
vt 0.469797 0.591338
vt 0.465969 0.511883
vt 0.172288 0.571434
vt 0.172288 0.628786
vt 0.168459 0.57909
vt 0.168459 0.92091
vt 0.168459 0.863335
vt 0.040514 0.816696
vt 0.488117 0.86077
vt 0.488117 0.638101
vt 0.040514 0.682176
vt 0.011883 0.849607
vt 0.488117 0.917089
vt 0.488117 0.868426
vt 0.040514 0.824352
vt 0.488118 0.58156
vt 0.011883 0.630107
vt 0.040514 0.674519
vt 0.011883 0.637764
vt 0.011883 0.84195
vt 0.032857 0.816696
vt 0.032857 0.682176
vn 0.277693 0.955338 0.101072
vn -0.45422 0.875416 -0.165323
vn 0.16304 0.833595 0.527767
vn 0.822621 0.483372 0.29941
vn 0.485033 -0.042057 -0.873484
vn 0.485033 -0.042057 -0.873484
vn 0.485033 -0.042057 -0.873484
vn 0.485034 -0.042056 -0.873484
vn -0.907673 0.258818 -0.330367
vn -0.907674 0.258818 -0.330367
vn -0.907673 0.258818 -0.330367
vn -0.189916 -0.042091 0.980898
vn -0.189916 -0.042092 0.980898
vn -0.189916 -0.042091 0.980898
vn 0.907674 -0.258818 0.330366
vn 0.907674 -0.258819 0.330366
vn 0.907674 -0.258818 0.330366
vn 0.264692 0.959509 0.09634
vn 0.264692 0.959509 0.09634
vn 0.127535 0.845093 0.519184
vn 0.264692 0.959509 0.09634
vn 0.436281 -0.027335 -0.899395
vn 0.436248 -0.027391 -0.89941
vn 0.436281 -0.027335 -0.899395
vn 0.436314 -0.027278 -0.899381
vn -0.243913 -0.027619 0.969404
vn -0.243904 -0.027789 0.969401
vn -0.243913 -0.027619 0.969404
vn 0.907448 -0.259713 0.330284
vn 0.907448 -0.259713 0.330283
vn 0.907448 -0.259713 0.330284
vn 0.907448 -0.259713 0.330284
usemtl datan_common_legs112_d88263df
f 15/15/15 16/16/16 17/17/17
f 17/17/17 18/18/18 15/15/15
f 19/19/19 20/20/20 21/21/21
f 21/21/21 22/22/22 19/19/19
f 23/23/23 24/24/24 25/25/25
f 25/25/25 16/16/16 23/23/23
f 26/26/26 27/27/27 28/28/28
f 28/28/28 17/17/17 26/26/26
f 29/29/29 30/30/30 31/31/31
f 31/31/31 18/18/18 29/29/29
f 32/32/32 33/33/33 34/34/34
f 34/34/34 35/35/35 32/32/32
f 36/36/36 37/37/37 38/38/38
f 38/38/38 39/39/39 36/36/36
f 40/40/40 41/41/41 42/42/42
f 42/42/42 34/34/34 40/40/40
f 43/43/43 44/44/44 45/45/45
f 45/45/45 46/46/46 43/43/43
o datan_common_legs112_d88263df_mesh02
v 0.311304 0.192288 0.034692
v 0.458663 0.721126 0.345999
v 0.457963 0.727943 0.094402
v 0.292286 0.453383 -0.265324
v 0.714724 0.192288 -0.073404
v 0.581186 0.453383 -0.342734
v 0.617569 0.727943 0.051636
v 0.742761 0.721126 0.269875
v 0.292286 0.453383 -0.265324
v 0.581186 0.453383 -0.342734
v 0.457963 0.727943 0.094402
v 0.617569 0.727943 0.051636
v 0.457963 0.727943 0.094402
v 0.617569 0.727943 0.051636
v 0.458663 0.721126 0.345999
vt 0.511758 0.511882
vt 0.559565 0.988118
vt 0.665345 0.870734
vt 0.738242 0.520095
vt 0.511758 0.511882
vt 0.738242 0.520095
vt 0.665345 0.870734
vt 0.559565 0.988118
vt 0.738242 0.512438
vt 0.738242 0.512438
vt 0.673002 0.870734
vt 0.673002 0.870734
vt 0.665345 0.878391
vt 0.665345 0.878391
vt 0.551909 0.988118
vn -0.793107 -0.604054 -0.078103
vn -0.604066 0.796595 0.023264
vn -0.959397 0.247622 0.135056
vn -0.516485 0.778605 -0.356394
vn 0.832418 -0.543453 0.108347
vn 0.515643 0.680137 -0.521082
vn 0.89839 0.247622 -0.362737
vn 0.518944 0.83334 0.190374
vn -0.171628 -0.748511 -0.640527
vn -0.171628 -0.748511 -0.640528
vn -0.148901 0.817935 -0.555708
vn -0.148901 0.817935 -0.555708
vn 0.007252 0.999607 0.027064
vn 0.007252 0.999607 0.027064
vn 0.217925 -0.539486 0.813305
usemtl datan_common_legs112_d88263df
f 47/47/47 48/48/48 49/49/49
f 49/49/49 50/50/50 47/47/47
f 51/51/51 52/52/52 53/53/53
f 53/53/53 54/54/54 51/51/51
f 47/47/47 55/55/55 56/56/56
f 56/56/56 51/51/51 47/47/47
f 50/50/50 57/57/57 58/58/58
f 58/58/58 52/52/52 50/50/50
f 59/59/59 48/48/48 54/54/54
f 54/54/54 60/60/60 59/59/59
f 61/61/61 47/47/47 51/51/51
f 51/51/51 54/54/54 61/61/61
o datan_common_legs112_d88263df_mesh03
v 0.084146 -0.006951 -0.263801
v 0.137655 0.235991 -0.218539
v 0.358279 0.235991 -0.277655
v 0.381989 -0.006951 -0.343608
v 0.255851 -0.006951 0.377012
v 0.553694 -0.006951 0.297205
v 0.500185 0.235991 0.251943
v 0.279561 0.235991 0.311059
v 0.358279 0.235991 -0.277655
v 0.500185 0.235991 0.251943
v 0.358279 0.235991 -0.277655
v 0.137655 0.235991 -0.218539
v 0.137655 0.235991 -0.218539
v 0.446535 -0.006951 -0.360903
v 0.500044 0.235991 -0.315641
v 0.720669 0.235991 -0.374757
v 0.744378 -0.006951 -0.44071
v 0.61824 -0.006951 0.27991
v 0.916083 -0.006951 0.200103
v 0.862574 0.235991 0.154841
v 0.641949 0.235991 0.213957
v 0.720669 0.235991 -0.374757
v 0.862574 0.235991 0.154841
v 0.720669 0.235991 -0.374757
v 0.500044 0.235991 -0.315641
v 0.641949 0.235991 0.213957
v 0.862574 0.235991 0.154841
v 0.500044 0.235991 -0.315641
v 0.641949 0.235991 0.213957
vt 0.761758 0.988118
vt 0.792109 0.953783
vt 0.957891 0.953783
vt 0.988242 0.988117
vt 0.761758 0.511883
vt 0.988242 0.511882
vt 0.957891 0.546217
vt 0.792109 0.553873
vt 0.965547 0.946127
vt 0.965547 0.553873
vt 0.957891 0.946127
vt 0.792109 0.946127
vt 0.784453 0.946127
vt 0.011758 0.488118
vt 0.042109 0.453783
vt 0.207891 0.453783
vt 0.238242 0.488117
vt 0.011758 0.011883
vt 0.238242 0.011882
vt 0.207891 0.046217
vt 0.034453 0.046217
vt 0.215547 0.446127
vt 0.215547 0.053873
vt 0.207891 0.446127
vt 0.042109 0.446127
vt 0.042109 0.053873
vt 0.207891 0.053873
vt 0.034453 0.446127
vt 0.034453 0.053873
vn -0.64196 0.274757 -0.715819
vn -0.251845 0.23058 -0.939897
vn -0.251845 0.230581 -0.939897
vn 0.729024 0.244691 -0.639257
vn -0.486842 0.272784 0.829804
vn 0.83652 0.272782 0.47521
vn 0.251845 0.230581 0.939897
vn -0.2536 0.865359 0.432252
vn 0.953111 0.162351 -0.255386
vn 0.801997 0.557334 -0.214895
vn 0 1 0
vn 0 1 0
vn -0.953111 0.162349 0.255386
vn -0.641959 0.274758 -0.715819
vn -0.251844 0.23058 -0.939898
vn -0.251844 0.230581 -0.939897
vn 0.729025 0.24469 -0.639257
vn -0.486843 0.272783 0.829804
vn 0.83652 0.272782 0.47521
vn 0.251844 0.230581 0.939897
vn 0.251844 0.230582 0.939897
vn 0.953112 0.162346 -0.255385
vn 0.953112 0.162347 -0.255385
vn 0 1 0
vn 0 1 0
vn 0 1 0
vn 0 1 0
vn -0.953112 0.162347 0.255385
vn -0.953112 0.162346 0.255385
usemtl datan_common_legs112_d88263df
f 62/62/62 63/63/63 64/64/64
f 64/64/64 65/65/65 62/62/62
f 66/66/66 67/67/67 68/68/68
f 68/68/68 69/69/69 66/66/66
f 65/65/65 70/70/70 71/71/71
f 71/71/71 67/67/67 65/65/65
f 72/72/72 73/73/73 69/69/69
f 69/69/69 71/71/71 72/72/72
f 74/74/74 62/62/62 66/66/66
f 66/66/66 69/69/69 74/74/74
f 75/75/75 76/76/76 77/77/77
f 77/77/77 78/78/78 75/75/75
f 79/79/79 80/80/80 81/81/81
f 81/81/81 82/82/82 79/79/79
f 78/78/78 83/83/83 84/84/84
f 84/84/84 80/80/80 78/78/78
f 85/85/85 86/86/86 87/87/87
f 87/87/87 88/88/88 85/85/85
f 89/89/89 75/75/75 79/79/79
f 79/79/79 90/90/90 89/89/89
o datan_common_legs112_d88263df_mesh04
v -0.445484 1.049883 0.318966
v 0.014945 1.192503 0.23594
v -0.180722 1.192503 -0.30165
v -0.586799 1.049883 -0.069294
v -0.367792 0.741332 0.290694
v 0.101601 0.848349 0.204406
v 0.014945 1.192503 0.23594
v -0.445484 1.049883 0.318966
v 0.101601 0.848349 0.204406
v -0.094065 0.848349 -0.333184
v -0.180722 1.192503 -0.30165
v -0.094065 0.848349 -0.333184
v -0.509106 0.741332 -0.097565
v -0.586799 1.049883 -0.069294
v -0.180722 1.192503 -0.30165
v -0.509106 0.741332 -0.097565
v -0.367792 0.741332 0.290694
v -0.445484 1.049883 0.318966
v -0.651292 0.942085 0.306555
v 0.032384 1.147374 0.140342
v -0.106387 1.147374 -0.240927
v -0.736953 0.942085 0.071204
v -0.598471 0.733149 0.287389
v 0.09341 0.905013 0.118137
v 0.032384 1.147374 0.140342
v -0.045361 0.905013 -0.263133
v -0.684132 0.733149 0.052037
v -0.106387 1.147374 -0.240927
v -0.684132 0.733149 0.052037
v -0.598471 0.733149 0.287389
v -0.651292 0.942085 0.306555
v -0.736953 0.942085 0.071204
vt 0.172288 0.636665
vt 0.465968 0.59156
vt 0.465969 0.908662
vt 0.164631 0.871214
vt 0.172288 0.571434
vt 0.465968 0.511883
vt 0.465968 0.583903
vt 0.164631 0.636665
vt 0.469796 0.511883
vt 0.469797 0.988117
vt 0.469797 0.908662
vt 0.465969 0.988117
vt 0.172288 0.928566
vt 0.172288 0.871214
vt 0.465969 0.916319
vt 0.168459 0.92091
vt 0.168459 0.57909
vt 0.168459 0.636665
vt 0.040514 0.683305
vt 0.488117 0.63923
vt 0.488117 0.861899
vt 0.040514 0.825481
vt 0.011883 0.650394
vt 0.488117 0.582911
vt 0.488117 0.631574
vt 0.488117 0.91844
vt 0.011883 0.869893
vt 0.488117 0.869556
vt 0.011883 0.862236
vt 0.011883 0.65805
vt 0.032857 0.683305
vt 0.032857 0.825481
vn -0.277695 0.955338 0.101073
vn 0.45422 0.875416 -0.165323
vn -0.277695 0.955338 0.101073
vn -0.822623 0.483369 0.29941
vn 0.189907 -0.04206 0.980901
vn 0.189907 -0.04206 0.980901
vn 0.189907 -0.04206 0.980901
vn 0.189907 -0.04206 0.980901
vn 0.907674 0.258819 -0.330366
vn 0.907674 0.25882 -0.330365
vn 0.907674 0.258819 -0.330366
vn -0.485024 -0.042094 -0.873487
vn -0.485025 -0.042096 -0.873487
vn -0.485024 -0.042094 -0.873487
vn -0.485024 -0.042092 -0.873488
vn -0.907673 -0.25882 0.330365
vn -0.907674 -0.25882 0.330365
vn -0.907673 -0.25882 0.330365
vn -0.127548 0.84511 0.519154
vn -0.264692 0.959509 0.09634
vn -0.264692 0.959509 0.09634
vn -0.508115 0.404027 -0.760645
vn 0.243909 -0.027332 0.969413
vn 0.243945 -0.027391 0.969402
vn 0.243909 -0.027332 0.969413
vn -0.436274 -0.027617 -0.89939
vn -0.436279 -0.027789 -0.899382
vn -0.436268 -0.027445 -0.899398
vn -0.907449 -0.25971 0.330285
vn -0.907449 -0.259709 0.330284
vn -0.907449 -0.25971 0.330285
vn -0.907448 -0.259711 0.330285
usemtl datan_common_legs112_d88263df
f 91/91/91 92/92/92 93/93/93
f 93/93/93 94/94/94 91/91/91
f 95/95/95 96/96/96 97/97/97
f 97/97/97 98/98/98 95/95/95
f 99/99/99 100/100/100 101/101/101
f 101/101/101 92/92/92 99/99/99
f 102/102/102 103/103/103 104/104/104
f 104/104/104 105/105/105 102/102/102
f 106/106/106 107/107/107 108/108/108
f 108/108/108 94/94/94 106/106/106
f 109/109/109 110/110/110 111/111/111
f 111/111/111 112/112/112 109/109/109
f 113/113/113 114/114/114 115/115/115
f 115/115/115 109/109/109 113/113/113
f 116/116/116 117/117/117 112/112/112
f 112/112/112 118/118/118 116/116/116
f 119/119/119 120/120/120 121/121/121
f 121/121/121 122/122/122 119/119/119
o datan_common_legs112_d88263df_mesh05
v -0.71471 0.192288 -0.073404
v -0.742747 0.721126 0.269875
v -0.617555 0.727942 0.051636
v -0.581173 0.453383 -0.342734
v -0.31129 0.192288 0.034692
v -0.292272 0.453383 -0.265324
v -0.457949 0.727942 0.094402
v -0.458649 0.721126 0.345999
v -0.581173 0.453383 -0.342734
v -0.292272 0.453383 -0.265324
v -0.617555 0.727942 0.051636
v -0.457949 0.727942 0.094402
v -0.617555 0.727942 0.051636
v -0.457949 0.727942 0.094402
v -0.742747 0.721126 0.269875
vt 0.511758 0.511882
vt 0.559565 0.988118
vt 0.665345 0.870734
vt 0.738242 0.520095
vt 0.511758 0.511882
vt 0.738242 0.520095
vt 0.665345 0.870734
vt 0.559565 0.988118
vt 0.738242 0.512438
vt 0.738242 0.512438
vt 0.673002 0.870734
vt 0.673002 0.870734
vt 0.665345 0.878391
vt 0.665345 0.878391
vt 0.551909 0.988118
vn -0.6478 -0.604054 -0.464192
vn -0.534768 0.796594 -0.281888
vn -0.898391 0.247622 -0.362736
vn -0.269095 0.778606 -0.566887
vn 0.666722 -0.543452 0.510041
vn 0.707099 0.680139 -0.193448
vn 0.959397 0.247623 0.135056
vn 0.354232 0.833341 0.424337
vn 0.171627 -0.74851 -0.640529
vn 0.171628 -0.74851 -0.640528
vn 0.1489 0.817935 -0.555707
vn 0.1489 0.817936 -0.555707
vn -0.007251 0.999608 0.02706
vn -0.007251 0.999608 0.02706
vn -0.217925 -0.539486 0.813305
usemtl datan_common_legs112_d88263df
f 123/123/123 124/124/124 125/125/125
f 125/125/125 126/126/126 123/123/123
f 127/127/127 128/128/128 129/129/129
f 129/129/129 130/130/130 127/127/127
f 123/123/123 131/131/131 132/132/132
f 132/132/132 127/127/127 123/123/123
f 126/126/126 133/133/133 134/134/134
f 134/134/134 128/128/128 126/126/126
f 135/135/135 124/124/124 130/130/130
f 130/130/130 136/136/136 135/135/135
f 137/137/137 123/123/123 127/127/127
f 127/127/127 130/130/130 137/137/137
o datan_common_legs112_d88263df_mesh06
v -0.382002 -0.006951 -0.342698
v -0.358292 0.235991 -0.276745
v -0.137668 0.235991 -0.217629
v -0.084159 -0.006951 -0.262891
v -0.553707 -0.006951 0.298115
v -0.255864 -0.006951 0.377922
v -0.279574 0.235991 0.311969
v -0.500198 0.235991 0.252853
v -0.137668 0.235991 -0.217629
v -0.279574 0.235991 0.311969
v -0.137668 0.235991 -0.217629
v -0.358292 0.235991 -0.276745
v -0.500198 0.235991 0.252853
v -0.279574 0.235991 0.311969
v -0.358292 0.235991 -0.276745
v -0.500198 0.235991 0.252853
v -0.74439 -0.006951 -0.4398
v -0.720681 0.235991 -0.373847
v -0.500056 0.235991 -0.314731
v -0.446547 -0.006951 -0.359993
v -0.916095 -0.006951 0.201013
v -0.618252 -0.006951 0.28082
v -0.641961 0.23536 0.214867
v -0.862586 0.23536 0.155751
v -0.500056 0.235991 -0.314731
v -0.641961 0.23536 0.214867
v -0.500056 0.235991 -0.314731
v -0.720681 0.235991 -0.373847
v -0.720681 0.235991 -0.373847
vt 0.011758 0.488118
vt 0.042109 0.453783
vt 0.207891 0.453783
vt 0.238242 0.488117
vt 0.011758 0.011883
vt 0.238242 0.011882
vt 0.207891 0.046217
vt 0.034453 0.046217
vt 0.215547 0.446127
vt 0.215547 0.053873
vt 0.207891 0.446127
vt 0.042109 0.446127
vt 0.042109 0.053873
vt 0.207891 0.053873
vt 0.034453 0.446127
vt 0.034453 0.053873
vt 0.761758 0.988118
vt 0.792109 0.953783
vt 0.957891 0.953783
vt 0.988242 0.988117
vt 0.761758 0.511883
vt 0.988242 0.511882
vt 0.957891 0.546217
vt 0.792109 0.553873
vt 0.965547 0.946127
vt 0.965547 0.553873
vt 0.957891 0.946127
vt 0.792109 0.946127
vt 0.784453 0.946127
vn -0.198044 0.274759 -0.940897
vn 0.251845 0.230581 -0.939897
vn 0.251845 0.230581 -0.939897
vn 0.950983 0.24469 -0.1891
vn -0.836519 0.272784 0.47521
vn 0.486841 0.272785 0.829803
vn -0.251845 0.230581 0.939897
vn -0.251845 0.23058 0.939897
vn 0.953111 0.162346 0.255387
vn 0.953111 0.162348 0.255386
vn 0 1 0
vn 0 1 0
vn 0 1 0
vn 0 1 0
vn -0.953111 0.162348 -0.255386
vn -0.953111 0.162346 -0.255387
vn -0.198045 0.274758 -0.940897
vn 0.251844 0.230582 -0.939897
vn 0.251844 0.230581 -0.939897
vn 0.950954 0.244856 -0.189032
vn -0.836392 0.273304 0.475136
vn 0.486777 0.273439 0.829626
vn -0.25181 0.231149 0.939767
vn -0.435679 0.8652 0.24822
vn 0.95307 0.162304 0.255567
vn 0.801775 0.557451 0.215417
vn -0.000298 0.999999 0.001112
vn -0.000298 0.999999 0.001112
vn -0.9531 0.162574 -0.255285
usemtl datan_common_legs112_d88263df
f 138/138/138 139/139/139 140/140/140
f 140/140/140 141/141/141 138/138/138
f 142/142/142 143/143/143 144/144/144
f 144/144/144 145/145/145 142/142/142
f 141/141/141 146/146/146 147/147/147
f 147/147/147 143/143/143 141/141/141
f 148/148/148 149/149/149 150/150/150
f 150/150/150 151/151/151 148/148/148
f 152/152/152 138/138/138 142/142/142
f 142/142/142 153/153/153 152/152/152
f 154/154/154 155/155/155 156/156/156
f 156/156/156 157/157/157 154/154/154
f 158/158/158 159/159/159 160/160/160
f 160/160/160 161/161/161 158/158/158
f 157/157/157 162/162/162 163/163/163
f 163/163/163 159/159/159 157/157/157
f 164/164/164 165/165/165 161/161/161
f 161/161/161 163/163/163 164/164/164
f 166/166/166 154/154/154 158/158/158
f 158/158/158 161/161/161 166/166/166
