# Generated from Nova1492 GX by tools/nova1492/GxObjConverter
mtllib datan_common_tmissile_028db0ed.mtl
o datan_common_tmissile_028db0ed
v -0.148934 -0.00125 -0.285156
v 0.00125 0.126215 -0.285156
v 0.148934 0.00125 -0.285156
v -0.00125 -0.126215 -0.285156
v -0.001575 -0.159031 0.011967
v -0.187657 -0.001575 0.011967
v 0.187657 0.001575 0.011967
v 0.001575 0.159031 0.011967
v 0 0 0.285156
vt 0.992071 0.381575
vt 0.992071 0.476609
vt 0.99207 0.383738
vt 0.988242 0.273391
vt 0.803149 0.273391
vt 0.803149 0.366262
vt 0.803149 0.368425
vt 0.803149 0.476609
vt 0.761641 0.367344
vn -0.630607 -0.248543 -0.735229
vn -0.241073 0.850842 -0.466854
vn 0.630607 0.248543 -0.735229
vn 0.241073 -0.850842 -0.466854
vn -0.16955 -0.974314 0.148209
vn -0.956979 0.233513 0.172227
vn 0.956979 -0.233513 0.172227
vn 0.16955 0.974314 0.148209
vn 0 0 1
usemtl datan_common_tmissile_028db0ed
f 1/1/1 2/2/2 3/3/3
f 3/3/3 4/4/4 1/1/1
f 1/1/1 4/4/4 5/5/5
f 5/5/5 6/6/6 1/1/1
f 4/4/4 3/3/3 7/7/7
f 7/7/7 5/5/5 4/4/4
f 3/3/3 2/2/2 8/8/8
f 8/8/8 7/7/7 3/3/3
f 2/2/2 1/1/1 6/6/6
f 6/6/6 8/8/8 2/2/2
f 6/6/6 5/5/5 9/9/9
