# Generated from Nova1492 GX by tools/nova1492/GxObjConverter
mtllib datan_common_0913missile_311fffe0.mtl
o datan_common_0913missile_311fffe0_mesh00
v 0.106784 -0.01169 -0.208921
v 0.053392 0.080787 -0.208718
v 0.075448 0.129223 0.664331
v 0.150897 -0.001457 0.664045
v 0.053392 0.080787 -0.208718
v -0.053392 0.080787 -0.208718
v -0.075448 0.129223 0.664331
v 0.075448 0.129223 0.664331
v -0.053392 0.080787 -0.208718
v -0.106784 -0.01169 -0.208921
v -0.150897 -0.001457 0.664045
v -0.075448 0.129223 0.664331
v -0.106784 -0.01169 -0.208921
v -0.053392 -0.104168 -0.209123
v -0.075448 -0.132137 0.663758
v -0.150897 -0.001457 0.664045
v -0.053392 -0.104168 -0.209123
v 0.053392 -0.104168 -0.209123
v 0.075448 -0.132137 0.663758
v -0.075448 -0.132137 0.663758
v 0.053392 -0.104168 -0.209123
v 0.106784 -0.01169 -0.208921
v 0.150897 -0.001457 0.664045
v 0.075448 -0.132137 0.663758
v 0.040662 0.068397 0.926615
v 0.081325 -0.002032 0.92646
v -0.040662 0.068397 0.926615
v 0.040662 0.068397 0.926615
v -0.081325 -0.002032 0.92646
v -0.040662 0.068397 0.926615
v -0.040662 -0.072461 0.926306
v -0.081325 -0.002032 0.92646
v 0.040662 -0.072461 0.926306
v -0.040662 -0.072461 0.926306
v 0.081325 -0.002032 0.92646
v 0.040662 -0.072461 0.926306
v -0.053392 0.080787 -0.208718
v -0.053392 -0.104168 -0.209123
v -0.106784 -0.01169 -0.208921
v 0.053392 0.080787 -0.208718
v 0.106784 -0.01169 -0.208921
v 0.053392 -0.104168 -0.209123
v -0.040662 0.068397 0.926615
v -0.081325 -0.002032 0.92646
v -0.040662 -0.072461 0.926306
v 0.040662 0.068397 0.926615
v 0.081325 -0.002032 0.92646
v 0.040662 -0.072461 0.926306
vt 0.159137 0.948595
vt 0.159334 0.646997
vt 0.716769 0.611262
vt 0.716597 0.961879
vt 0.159138 0.557551
vt 0.159138 0.208065
vt 0.715721 0.180801
vt 0.715721 0.58671
vt 0.159334 0.646992
vt 0.159137 0.948593
vt 0.716597 0.961855
vt 0.716769 0.611241
vt 0.159155 0.948579
vt 0.159388 0.646947
vt 0.716678 0.611048
vt 0.716485 0.961632
vt 0.15914 0.557561
vt 0.15914 0.208075
vt 0.715716 0.181222
vt 0.715717 0.58706
vt 0.159388 0.646945
vt 0.159155 0.948578
vt 0.716485 0.961618
vt 0.716678 0.611036
vt 0.884042 0.732549
vt 0.884057 0.961418
vt 0.884263 0.251113
vt 0.884266 0.51452
vt 0.884057 0.961416
vt 0.884042 0.732547
vt 0.884042 0.732524
vt 0.884057 0.961397
vt 0.884252 0.251239
vt 0.884258 0.514619
vt 0.884057 0.961396
vt 0.884042 0.732522
vt 0.156438 0.559029
vt 0.010898 0.556799
vt 0.084105 0.734966
vt 0.156438 0.209417
vt 0.083668 0.033496
vt 0.010898 0.210845
vt 0.884314 0.250655
vt 0.937773 0.120761
vt 0.992208 0.247627
vt 0.884304 0.514341
vt 0.939053 0.645476
vt 0.992208 0.516815
vn 0.7775 -0.002143 -0.628879
vn 0.388449 0.670677 -0.631902
vn 0.496841 0.86258 0.095416
vn 0.995048 0.002033 0.099373
vn 0.388449 0.670677 -0.631902
vn -0.388449 0.670677 -0.631902
vn -0.496841 0.86258 0.095416
vn 0.496841 0.86258 0.095416
vn -0.388449 0.670677 -0.631902
vn -0.7775 -0.002143 -0.628879
vn -0.995048 0.002033 0.099373
vn -0.496841 0.86258 0.095416
vn -0.7775 -0.002143 -0.628879
vn -0.389027 -0.675964 -0.625885
vn -0.498203 -0.860874 0.103392
vn -0.995048 0.002033 0.099373
vn -0.389027 -0.675964 -0.625885
vn 0.389027 -0.675964 -0.625885
vn 0.498203 -0.860874 0.103392
vn -0.498203 -0.860874 0.103392
vn 0.389027 -0.675964 -0.625885
vn 0.7775 -0.002143 -0.628879
vn 0.995048 0.002033 0.099373
vn 0.498203 -0.860874 0.103392
vn 0.354398 0.612285 0.70676
vn 0.708795 -0.001548 0.705413
vn -0.354398 0.612285 0.706759
vn 0.354398 0.612285 0.70676
vn -0.708795 -0.001548 0.705413
vn -0.354398 0.612285 0.706759
vn -0.354398 -0.61538 0.704066
vn -0.708795 -0.001548 0.705413
vn 0.354398 -0.61538 0.704066
vn -0.354398 -0.61538 0.704066
vn 0.708795 -0.001548 0.705413
vn 0.354398 -0.61538 0.704066
vn -0.388449 0.670677 -0.631902
vn -0.389027 -0.675964 -0.625885
vn -0.7775 -0.002143 -0.628879
vn 0.388449 0.670677 -0.631902
vn 0.7775 -0.002143 -0.628879
vn 0.389027 -0.675964 -0.625885
vn -0.354398 0.612285 0.706759
vn -0.708795 -0.001548 0.705413
vn -0.354398 -0.61538 0.704066
vn 0.354398 0.612285 0.70676
vn 0.708795 -0.001548 0.705413
vn 0.354398 -0.61538 0.704066
usemtl datan_common_0913missile_311fffe0
f 1/1/1 2/2/2 3/3/3
f 1/1/1 3/3/3 4/4/4
f 5/5/5 6/6/6 7/7/7
f 5/5/5 7/7/7 8/8/8
f 9/9/9 10/10/10 11/11/11
f 9/9/9 11/11/11 12/12/12
f 13/13/13 14/14/14 15/15/15
f 13/13/13 15/15/15 16/16/16
f 17/17/17 18/18/18 19/19/19
f 17/17/17 19/19/19 20/20/20
f 21/21/21 22/22/22 23/23/23
f 21/21/21 23/23/23 24/24/24
f 4/4/4 3/3/3 25/25/25
f 4/4/4 25/25/25 26/26/26
f 8/8/8 7/7/7 27/27/27
f 8/8/8 27/27/27 28/28/28
f 12/12/12 11/11/11 29/29/29
f 12/12/12 29/29/29 30/30/30
f 16/16/16 15/15/15 31/31/31
f 16/16/16 31/31/31 32/32/32
f 20/20/20 19/19/19 33/33/33
f 20/20/20 33/33/33 34/34/34
f 24/24/24 23/23/23 35/35/35
f 24/24/24 35/35/35 36/36/36
f 37/37/37 38/38/38 39/39/39
f 40/40/40 38/38/38 37/37/37
f 41/41/41 38/38/38 40/40/40
f 41/41/41 42/42/42 38/38/38
f 43/43/43 44/44/44 45/45/45
f 46/46/46 43/43/43 45/45/45
f 47/47/47 46/46/46 45/45/45
f 47/47/47 45/45/45 48/48/48
o datan_common_0913missile_311fffe0_mesh01
v -0.240311 -0 -0.002103
v -0.245232 0 -1.251899
v 0.235365 0 -1.253792
v 0.240287 0 -0.003996
v -0.000012 -0.240301 -0.00305
v -0.004933 -0.2403 -1.252846
v -0.004933 0.240301 -1.252846
v -0.000012 0.240301 -0.00305
v -0.004933 -0.2403 -1.252846
v -0.004933 0.240301 -1.252846
v -0.000012 0.240301 -0.00305
v -0.000012 -0.240301 -0.00305
v -0.004933 0.240301 -1.252846
v -0.004933 -0.2403 -1.252846
v -0.000012 0.240301 -0.00305
v -0.000012 -0.240301 -0.00305
vt 0 0
vt 1 0
vt 1 1
vt 0 1
vt 0 0
vt 1 0
vt 1 1
vt 0 1
vt 1 1
vt 1 0
vt 0 0
vt 0 1
vt 1 0
vt 1 1
vt 0 0
vt 0 1
vn -0 -1 -0.000001
vn 0 1 0
vn -0 1 0
vn -0 1 -0
vn 0.999992 0 -0.003938
vn 0.999992 0 -0.003938
vn 0.999992 0 -0.003938
vn 0.999992 0 -0.003938
vn 0.999992 0 -0.003938
vn 0.999992 0 -0.003938
vn 0.999992 0 -0.003938
vn 0.999992 0 -0.003938
vn -0.999992 -0 0.003938
vn -0.999992 -0 0.003938
vn -0.999992 -0 0.003938
vn -0.999992 -0 0.003938
usemtl datan_common_0913missile_311fffe0
f 49/49/49 50/50/50 51/51/51
f 51/51/51 52/52/52 49/49/49
f 53/53/53 54/54/54 55/55/55
f 55/55/55 56/56/56 53/53/53
f 51/51/51 50/50/50 49/49/49
f 49/49/49 52/52/52 51/51/51
f 57/57/57 58/58/58 59/59/59
f 59/59/59 60/60/60 57/57/57
f 61/61/61 62/62/62 63/63/63
f 64/64/64 63/63/63 62/62/62
