# Generated from Nova1492 GX by tools/nova1492/GxObjConverter
mtllib datan_common_missile-_73053d90.mtl
o datan_common_missile-_73053d90_mesh00
v -0.170715 -0 0.004221
v 0 0.149756 0.004221
v -0 0 -1.341864
v -0 0 -1.341864
v 0.170715 0 0.004221
v 0 -0.149756 0.004221
v -0 0 -1.341864
vt 0.623086 0.027549
vt 0.505942 0.027549
vt 0.505942 0.224281
vt 0.626914 0.224281
vt 0.626914 0.027549
vt 0.744059 0.027549
vt 0.744059 0.224281
vn -0.992054 0 -0.125816
vn 0 0.993868 -0.110571
vn 0 0.993868 -0.110571
vn 0.657159 -0.749131 -0.083343
vn 0.992054 0 -0.125816
vn 0 -0.993868 -0.110571
vn -0.657159 -0.749131 -0.083343
usemtl datan_common_missile-_73053d90
f 1/1/1 2/2/2 3/3/3
f 4/4/4 5/5/5 6/6/6
f 7/7/7 6/6/6 1/1/1
f 3/3/3 2/2/2 5/5/5
o datan_common_missile-_73053d90_mesh01
v 0.08748 -0.08748 -0.456477
v -0.08748 -0.08748 -0.456477
v -0.039366 0.08748 -0.456477
v 0.039366 0.08748 -0.456477
v 0.10935 -0.10935 0.561543
v 0.049208 0.10935 0.561543
v -0.049207 0.10935 0.561543
v -0.10935 -0.10935 0.561543
v 0.073811 0.164025 0.31533
v 0.164025 -0.164025 0.31533
v -0.073811 0.164025 0.31533
v -0.164025 -0.164025 0.31533
vt 0.983891 0.265562
vt 0.983892 0.265563
vt 0.983892 0.734438
vt 0.976235 0.734438
vt 0.016108 0.203125
vt 0.016108 0.796875
vt 0.016108 0.796875
vt 0.023765 0.203125
vt 0.208402 0.952969
vt 0.208402 0.047031
vt 0.208402 0.952969
vt 0.208402 0.047031
vn 0.644045 -0.156032 -0.748906
vn -0.409876 -0.735347 -0.539691
vn -0.579301 0.458962 -0.673621
vn 0.348611 0.817171 -0.459023
vn 0.294632 -0.522729 0.799966
vn 0.665326 0.523806 0.531948
vn -0.269447 0.626243 0.731586
vn -0.767969 -0.182233 0.614015
vn 0.608136 0.790378 0.073981
vn 0.794327 -0.603304 0.071199
vn -0.60602 0.793593 0.054321
vn -0.796363 -0.59701 0.09688
usemtl datan_common_missile-_73053d90
f 8/8/8 9/9/9 10/10/10
f 10/10/10 11/11/11 8/8/8
f 12/12/12 13/13/13 14/14/14
f 14/14/14 15/15/15 12/12/12
f 8/8/8 11/11/11 16/16/16
f 16/16/16 17/17/17 8/8/8
f 17/17/17 16/16/16 13/13/13
f 13/13/13 12/12/12 17/17/17
f 11/11/11 10/10/10 18/18/18
f 18/18/18 16/16/16 11/11/11
f 16/16/16 18/18/18 14/14/14
f 14/14/14 13/13/13 16/16/16
f 10/10/10 9/9/9 19/19/19
f 19/19/19 18/18/18 10/10/10
f 18/18/18 19/19/19 15/15/15
f 15/15/15 14/14/14 18/18/18
f 9/9/9 8/8/8 17/17/17
f 17/17/17 19/19/19 9/9/9
f 19/19/19 17/17/17 12/12/12
f 12/12/12 15/15/15 19/19/19
