# Generated from Nova1492 GX by tools/nova1492/GxObjConverter
mtllib datan_common_soccerball_gold_271a5675.mtl
o datan_common_soccerball_gold_271a5675_mesh00
v 0.000006 -0.24177 -0.14141
v 0.000006 -0.27917 0.00009
v -0.099075 -0.24177 -0.094217
v -0.139568 -0.24177 0.00009
v -0.099075 -0.24177 -0.094217
v -0.158702 -0.153618 -0.157738
v -0.000008 -0.153618 -0.240392
v 0.000006 -0.24177 -0.14141
v -0.139568 -0.24177 0.00009
v -0.24058 -0.153618 0.000059
v -0.200202 -0.000018 -0.205405
v 0.000006 -0.000018 -0.293811
v -0.289969 -0.000018 0.000089
v 0.101422 -0.24177 -0.092786
v 0.139156 -0.24177 0.000108
v 0.173652 -0.153618 -0.160098
v 0.101422 -0.24177 -0.092786
v 0.239819 -0.153618 0.00005
v 0.139156 -0.24177 0.000108
v 0.209367 -0.000018 -0.199011
v 0.290836 -0.000018 0.000096
v -0.10332 -0.241771 0.097508
v 0.000007 -0.24177 0.14141
v 0.000007 -0.24177 0.14141
v -0.000008 -0.153618 0.240328
v -0.172749 -0.153618 0.172134
v -0.10332 -0.241771 0.097508
v -0.207281 -0.000018 0.208838
v 0.000006 -0.000018 0.293719
v 0.093808 -0.24177 0.098214
v 0.000007 -0.24177 0.14141
v 0.093808 -0.24177 0.098214
v 0.166271 -0.153618 0.167343
v -0.000008 -0.153618 0.240328
v 0.200594 -0.000018 0.205341
v 0.000006 -0.000018 0.293719
v -0.099075 0.241734 -0.094217
v 0.000006 0.279133 0.00009
v 0.000006 0.241734 -0.14141
v -0.139568 0.241734 0.00009
v -0.099075 0.241734 -0.094217
v 0.000006 0.241734 -0.14141
v -0.000008 0.153458 -0.240392
v -0.158702 0.153458 -0.157738
v -0.139568 0.241734 0.00009
v -0.24058 0.153458 0.000059
v 0.104414 0.241734 -0.09004
v 0.139156 0.241734 0.000108
v 0.173652 0.153458 -0.160098
v 0.104414 0.241734 -0.09004
v 0.139156 0.241734 0.000108
v 0.239819 0.153458 0.00005
v 0.000007 0.241734 0.14141
v -0.10332 0.241734 0.097508
v 0.000007 0.241734 0.14141
v -0.10332 0.241734 0.097508
v -0.172749 0.153458 0.172134
v -0.000008 0.153458 0.240328
v 0.093808 0.241734 0.098214
v 0.093808 0.241734 0.098214
v 0.000007 0.241734 0.14141
v -0.000008 0.153458 0.240328
v 0.166271 0.153458 0.167343
vt 0.327081 0.410049
vt 0.251975 0.22138
vt 0.443479 0.300145
vt 0.443206 0.141373
vt 0.40122 0.4483
vt 0.401222 0.549398
vt 0.507954 0.549397
vt 0.507953 0.448299
vt 0.29449 0.448301
vt 0.294491 0.5494
vt 0.400418 0.665366
vt 0.50715 0.665366
vt 0.293687 0.665367
vt 0.166562 0.410699
vt 0.061633 0.301341
vt 0.616894 0.549396
vt 0.616893 0.448299
vt 0.733071 0.549395
vt 0.73307 0.448298
vt 0.61609 0.665366
vt 0.732267 0.665365
vt 0.326827 0.032363
vt 0.165937 0.033124
vt 0.081027 0.448302
vt 0.081028 0.549402
vt 0.18776 0.549401
vt 0.187759 0.448302
vt 0.186956 0.665367
vt 0.080224 0.665368
vt 0.061511 0.142964
vt 0.952966 0.448296
vt 0.84326 0.448297
vt 0.843262 0.549394
vt 0.952967 0.549392
vt 0.842458 0.665365
vt 0.952164 0.665364
vt 0.443479 0.300145
vt 0.251975 0.22138
vt 0.443206 0.141373
vt 0.327081 0.410049
vt 0.400729 0.882433
vt 0.507462 0.882433
vt 0.507462 0.781335
vt 0.40073 0.781335
vt 0.293999 0.882433
vt 0.293999 0.781335
vt 0.326827 0.032363
vt 0.165937 0.033124
vt 0.616402 0.781335
vt 0.616402 0.882433
vt 0.732579 0.882433
vt 0.732579 0.781335
vt 0.061633 0.301341
vt 0.166562 0.410699
vt 0.080536 0.882433
vt 0.187268 0.882433
vt 0.187268 0.781335
vt 0.080536 0.781335
vt 0.061511 0.142964
vt 0.842769 0.882433
vt 0.952475 0.882433
vt 0.952475 0.781335
vt 0.84277 0.781335
vn 0.000822 -0.853597 -0.520934
vn 0.002135 -0.999997 -0.001262
vn -0.399096 -0.839321 -0.369138
vn -0.519018 -0.854416 -0.024344
vn -0.399096 -0.839321 -0.369138
vn -0.61211 -0.531289 -0.585708
vn -0.007053 -0.532421 -0.84645
vn 0.000822 -0.853597 -0.520934
vn -0.519018 -0.854416 -0.024344
vn -0.853567 -0.51909 -0.044379
vn -0.715267 0.00013 -0.698851
vn 0.004346 0.000115 -0.999991
vn -0.999481 0.00011 -0.032215
vn 0.374212 -0.855937 -0.356843
vn 0.512718 -0.858487 0.010989
vn 0.616038 -0.527157 -0.585323
vn 0.374212 -0.855937 -0.356843
vn 0.851438 -0.524363 0.009804
vn 0.512718 -0.858487 0.010989
vn 0.718439 0.000115 -0.69559
vn 0.999937 0.000112 0.011275
vn -0.373282 -0.860099 0.347693
vn 0.010357 -0.857594 0.514223
vn 0.010357 -0.857594 0.514223
vn 0.013978 -0.526677 0.849951
vn -0.60353 -0.524369 0.600657
vn -0.373282 -0.860099 0.347693
vn -0.707207 0.000111 0.707007
vn 0.012066 -0.000049 0.999927
vn 0.360326 -0.858702 0.364411
vn 0.010357 -0.857594 0.514223
vn 0.360326 -0.858702 0.364411
vn 0.604323 -0.523993 0.600187
vn 0.013978 -0.526677 0.849951
vn 0.704871 -0.000057 0.709336
vn 0.012066 -0.000049 0.999927
vn -0.399336 0.839105 -0.369369
vn 0.00194 0.999997 -0.001344
vn -0.000529 0.854477 -0.519489
vn -0.517553 0.855209 -0.027508
vn -0.399336 0.839105 -0.369369
vn -0.000529 0.854477 -0.519489
vn -0.007754 0.531479 -0.847036
vn -0.612172 0.531158 -0.585762
vn -0.517553 0.855209 -0.027508
vn -0.854281 0.517831 -0.045339
vn 0.381319 0.85689 -0.346895
vn 0.512134 0.858751 0.016302
vn 0.616699 0.525082 -0.586491
vn 0.381319 0.85689 -0.346895
vn 0.512134 0.858751 0.016302
vn 0.85211 0.523255 0.01064
vn 0.013564 0.856347 0.516223
vn -0.369745 0.861059 0.349093
vn 0.013564 0.856347 0.516223
vn -0.369745 0.861059 0.349093
vn -0.60339 0.523215 0.601803
vn 0.014584 0.527698 0.849307
vn 0.359657 0.857474 0.367947
vn 0.359657 0.857474 0.367947
vn 0.013564 0.856347 0.516223
vn 0.014584 0.527698 0.849307
vn 0.603435 0.524993 0.600208
usemtl datan_common_soccerball_gold_271a5675
f 1/1/1 2/2/2 3/3/3
f 3/3/3 2/2/2 4/4/4
f 5/5/5 6/6/6 7/7/7
f 7/7/7 8/8/8 5/5/5
f 9/9/9 10/10/10 6/6/6
f 6/6/6 5/5/5 9/9/9
f 7/7/7 6/6/6 11/11/11
f 11/11/11 12/12/12 7/7/7
f 6/6/6 10/10/10 13/13/13
f 13/13/13 11/11/11 6/6/6
f 14/14/14 2/2/2 1/1/1
f 15/15/15 2/2/2 14/14/14
f 7/7/7 16/16/16 17/17/17
f 17/17/17 8/8/8 7/7/7
f 17/17/17 16/16/16 18/18/18
f 18/18/18 19/19/19 17/17/17
f 20/20/20 16/16/16 7/7/7
f 7/7/7 12/12/12 20/20/20
f 21/21/21 18/18/18 16/16/16
f 16/16/16 20/20/20 21/21/21
f 22/22/22 2/2/2 23/23/23
f 4/4/4 2/2/2 22/22/22
f 24/24/24 25/25/25 26/26/26
f 26/26/26 27/27/27 24/24/24
f 26/26/26 10/10/10 9/9/9
f 9/9/9 27/27/27 26/26/26
f 28/28/28 26/26/26 25/25/25
f 25/25/25 29/29/29 28/28/28
f 13/13/13 10/10/10 26/26/26
f 26/26/26 28/28/28 13/13/13
f 23/23/23 2/2/2 30/30/30
f 30/30/30 2/2/2 15/15/15
f 31/31/31 32/32/32 33/33/33
f 33/33/33 34/34/34 31/31/31
f 19/19/19 18/18/18 33/33/33
f 33/33/33 32/32/32 19/19/19
f 34/34/34 33/33/33 35/35/35
f 35/35/35 36/36/36 34/34/34
f 33/33/33 18/18/18 21/21/21
f 21/21/21 35/35/35 33/33/33
f 37/37/37 38/38/38 39/39/39
f 40/40/40 38/38/38 37/37/37
f 41/41/41 42/42/42 43/43/43
f 43/43/43 44/44/44 41/41/41
f 45/45/45 41/41/41 44/44/44
f 44/44/44 46/46/46 45/45/45
f 43/43/43 12/12/12 11/11/11
f 11/11/11 44/44/44 43/43/43
f 44/44/44 11/11/11 13/13/13
f 13/13/13 46/46/46 44/44/44
f 39/39/39 38/38/38 47/47/47
f 47/47/47 38/38/38 48/48/48
f 49/49/49 43/43/43 42/42/42
f 42/42/42 50/50/50 49/49/49
f 50/50/50 51/51/51 52/52/52
f 52/52/52 49/49/49 50/50/50
f 20/20/20 12/12/12 43/43/43
f 43/43/43 49/49/49 20/20/20
f 21/21/21 20/20/20 49/49/49
f 49/49/49 52/52/52 21/21/21
f 53/53/53 38/38/38 54/54/54
f 54/54/54 38/38/38 40/40/40
f 55/55/55 56/56/56 57/57/57
f 57/57/57 58/58/58 55/55/55
f 46/46/46 57/57/57 56/56/56
f 56/56/56 45/45/45 46/46/46
f 28/28/28 29/29/29 58/58/58
f 58/58/58 57/57/57 28/28/28
f 13/13/13 28/28/28 57/57/57
f 57/57/57 46/46/46 13/13/13
f 59/59/59 38/38/38 53/53/53
f 48/48/48 38/38/38 59/59/59
f 60/60/60 61/61/61 62/62/62
f 62/62/62 63/63/63 60/60/60
f 51/51/51 60/60/60 63/63/63
f 63/63/63 52/52/52 51/51/51
f 63/63/63 62/62/62 36/36/36
f 36/36/36 35/35/35 63/63/63
f 63/63/63 35/35/35 21/21/21
f 21/21/21 52/52/52 63/63/63
o datan_common_soccerball_gold_271a5675_mesh01
v -0.791672 0.791673 0.33831
v -0.791672 -0.791672 0.33831
v 0.791672 0.791673 0.33831
v 0.791672 -0.791672 0.33831
vt 0 1
vt 0 0
vt 1 1
vt 1 0
vn 0 -0 1
vn 0 -0 1
vn 0 -0 1
vn 0 -0 1
usemtl datan_common_soccerball_gold_271a5675
f 64/64/64 65/65/65 66/66/66
f 67/67/67 66/66/66 65/65/65
o datan_common_soccerball_gold_271a5675_mesh02
v -0.73272 -0.73272 -0
v -0.73272 0.73272 -0
v 0.73272 0.73272 0
v 0.73272 -0.73272 0
v -0.73272 -0.73272 -0
v 0.73272 -0.73272 0
v 0.73272 0.73272 0
v -0.73272 0.73272 -0
v 0 -0.73272 0.73272
v 0 0.73272 0.73272
v -0 0.73272 -0.73272
v -0 -0.73272 -0.73272
v 0 -0.73272 0.73272
v -0 -0.73272 -0.73272
v -0 0.73272 -0.73272
v 0 0.73272 0.73272
vt 0.0005 0.0005
vt 0.0005 0.999501
vt 0.999501 0.9995
vt 0.9995 0.000499
vt 0.0005 0.0005
vt 0.9995 0.000499
vt 0.999501 0.9995
vt 0.0005 0.999501
vt 0.0005 0.0005
vt 0.0005 0.999501
vt 0.999501 0.9995
vt 0.9995 0.000499
vt 0.0005 0.0005
vt 0.9995 0.000499
vt 0.999501 0.9995
vt 0.0005 0.999501
vn 0 0 -1
vn 0 0 -1
vn 0 0 -1
vn 0 0 -1
vn -0 -0 1
vn -0 -0 1
vn -0 -0 1
vn -0 -0 1
vn -1 0 0
vn -1 0 0
vn -1 0 0
vn -1 0 0
vn 1 -0 -0
vn 1 -0 -0
vn 1 -0 -0
vn 1 -0 -0
usemtl datan_common_soccerball_gold_271a5675
f 68/68/68 69/69/69 70/70/70
f 70/70/70 71/71/71 68/68/68
f 72/72/72 73/73/73 74/74/74
f 74/74/74 75/75/75 72/72/72
f 76/76/76 77/77/77 78/78/78
f 78/78/78 79/79/79 76/76/76
f 80/80/80 81/81/81 82/82/82
f 82/82/82 83/83/83 80/80/80
o datan_common_soccerball_gold_271a5675_mesh03
v -0.73272 0 -0.73272
v -0.73272 0 0.73272
v 0.73272 -0 0.73272
v 0.73272 -0 -0.73272
v -0.73272 0 -0.73272
v 0.73272 -0 -0.73272
v 0.73272 -0 0.73272
v -0.73272 0 0.73272
v 0 -0.73272 -0.73272
v 0 -0.73272 0.73272
v -0 0.73272 0.73272
v -0 0.73272 -0.73272
v 0 -0.73272 -0.73272
v -0 0.73272 -0.73272
v -0 0.73272 0.73272
v 0 -0.73272 0.73272
vt 0.0005 0.0005
vt 0.0005 0.999501
vt 0.999501 0.9995
vt 0.9995 0.000499
vt 0.0005 0.0005
vt 0.9995 0.000499
vt 0.999501 0.9995
vt 0.0005 0.999501
vt 0.0005 0.0005
vt 0.0005 0.999501
vt 0.999501 0.9995
vt 0.9995 0.000499
vt 0.0005 0.0005
vt 0.9995 0.000499
vt 0.999501 0.9995
vt 0.0005 0.999501
vn 0 1 0
vn 0 1 0
vn 0 1 0
vn 0 1 0
vn -0 -1 -0
vn -0 -1 -0
vn -0 -1 -0
vn -0 -1 -0
vn -1 -0 0
vn -1 -0 0
vn -1 -0 0
vn -1 -0 0
vn 1 0 -0
vn 1 0 -0
vn 1 0 -0
vn 1 0 -0
usemtl datan_common_soccerball_gold_271a5675
f 84/84/84 85/85/85 86/86/86
f 86/86/86 87/87/87 84/84/84
f 88/88/88 89/89/89 90/90/90
f 90/90/90 91/91/91 88/88/88
f 92/92/92 93/93/93 94/94/94
f 94/94/94 95/95/95 92/92/92
f 96/96/96 97/97/97 98/98/98
f 98/98/98 99/99/99 96/96/96
