# Generated from Nova1492 GX by tools/nova1492/GxObjConverter
mtllib datan_common_dol05_aef84e71.mtl
o datan_common_dol05_aef84e71_mesh00
v 1.145326 0.718417 1.818282
v 0.79698 1.624189 1.048364
v -0.02086 0.599598 1.222781
v 1.462252 0.619736 0.170713
v 1.226343 1.456453 0.713558
v 1.709157 0.718417 1.112266
v -0.02086 0.599598 1.222781
v 0.266728 1.155635 0.634332
v 0.521569 0.766185 -0.056028
v 0.623339 0.002745 2.269911
v 1.50276 0.002745 1.701789
v 1.145326 0.718417 1.818282
v 1.145326 0.718417 1.818282
v -0.02086 0.599598 1.222781
v 0.623339 0.002745 2.269911
v 1.145326 0.718417 1.818282
v 1.709157 0.718417 1.112266
v 1.226343 1.456453 0.713558
v 1.226343 1.456453 0.713558
v 0.79698 1.624189 1.048364
v 1.145326 0.718417 1.818282
v 2.207376 0.002745 0.622639
v 1.400865 0.002745 0.076656
v 1.462252 0.619736 0.170713
v 1.462252 0.619736 0.170713
v 1.709157 0.718417 1.112266
v 2.207376 0.002745 0.622639
v 1.462252 0.619736 0.170713
v 0.521569 0.766185 -0.056028
v 1.226343 1.456453 0.713558
v -0.144211 0.002745 1.019099
v 0.021865 0.002745 1.760622
v -0.02086 0.599598 1.222781
v -0.02086 0.599598 1.222781
v 0.79698 1.624189 1.048364
v 0.266728 1.155635 0.634332
v 1.226343 1.456453 0.713558
v 0.521569 0.766185 -0.056028
v 0.266728 1.155635 0.634332
v 0.266728 1.155635 0.634332
v 0.79698 1.624189 1.048364
v 1.226343 1.456453 0.713558
v 1.031583 0.287017 -0.491307
v 1.729397 0.738529 -0.562591
v 1.432655 0.440219 -1.19523
v 1.53167 0.379879 -0.03962
v 1.729397 0.738529 -0.562591
v 1.031583 0.287017 -0.491307
v 2.669888 0.478508 -0.91698
v 1.729397 0.738529 -0.562591
v 1.53167 0.379879 -0.03962
v 2.052502 0.719327 -1.352814
v 1.888546 1.014093 -0.699091
v 2.38822 1.008898 -1.032071
v 2.052502 0.719327 -1.352814
v 2.38822 1.008898 -1.032071
v 2.510005 0.474507 -1.541496
v 1.729397 0.738529 -0.562591
v 2.052502 0.719327 -1.352814
v 1.432655 0.440219 -1.19523
v 2.38822 1.008898 -1.032071
v 1.888546 1.014093 -0.699091
v 1.729397 0.738529 -0.562591
v 1.729397 0.738529 -0.562591
v 2.669888 0.478508 -0.91698
v 2.38822 1.008898 -1.032071
v 1.888546 1.014093 -0.699091
v 2.052502 0.719327 -1.352814
v 1.729397 0.738529 -0.562591
v 0.106925 0.428449 -2.030543
v 0.089515 0.990533 -1.203281
v 0.774276 0.685221 -1.429033
v -0.149549 0.002745 -2.269911
v -0.618346 0.707671 -1.155256
v 0.106925 0.428449 -2.030543
v 0.779958 0.002745 -1.88555
v 0.349121 0.002745 -1.823731
v 0.106925 0.428449 -2.030543
v 0.106925 0.428449 -2.030543
v 0.774276 0.685221 -1.429033
v 0.779958 0.002745 -1.88555
v -0.149549 0.002745 -2.269911
v -0.830685 0.002745 -1.708687
v -0.618346 0.707671 -1.155256
v 0.106925 0.428449 -2.030543
v -0.618346 0.707671 -1.155256
v 0.089515 0.990533 -1.203281
v -0.692352 0.002745 -1.003511
v -0.21609 0.002745 -0.225887
v 0.055219 0.498096 -0.642123
v 0.055219 0.498096 -0.642123
v -0.618346 0.707671 -1.155256
v -0.692352 0.002745 -1.003511
v 0.982075 0.002745 -0.927518
v 0.779958 0.002745 -1.88555
v 0.774276 0.685221 -1.429033
v 0.982075 0.002745 -0.927518
v 0.774276 0.685221 -1.429033
v 0.055219 0.498096 -0.642123
v 0.055219 0.498096 -0.642123
v 0.774276 0.685221 -1.429033
v 0.089515 0.990533 -1.203281
v -2.113992 0.330997 -0.873836
v -1.650334 0.759488 -0.020966
v -1.076551 0.45616 -0.934616
v -2.775424 0.002745 -0.484264
v -2.149117 0.562377 -0.259712
v -2.113992 0.330997 -0.873836
v -0.697826 0.458948 0.000745
v -1.12479 0.940005 -0.201816
v -1.282771 0.402544 0.64147
v -1.527643 0.002745 -1.456569
v -2.113992 0.330997 -0.873836
v -1.076551 0.45616 -0.934616
v -2.113992 0.330997 -0.873836
v -2.149117 0.562377 -0.259712
v -1.650334 0.759488 -0.020966
v -2.775424 0.002745 -0.484264
v -2.264428 0 0.468819
v -2.149117 0.562377 -0.259712
v -1.770241 0.002745 0.932568
v -1.40397 0.002745 0.648047
v -1.282771 0.402544 0.64147
v -1.282771 0.402544 0.64147
v -2.264428 0 0.468819
v -1.770241 0.002745 0.932568
v -0.799474 0.002745 0.7742
v -0.475981 0.002745 0.122702
v -0.697826 0.458948 0.000745
v -0.697826 0.458948 0.000745
v -1.282771 0.402544 0.64147
v -0.799474 0.002745 0.7742
v -0.697826 0.458948 0.000745
v -0.475981 0.002745 0.122702
v -1.076551 0.45616 -0.934616
v -1.282771 0.402544 0.64147
v -1.12479 0.940005 -0.201816
v -1.650334 0.759488 -0.020966
v -0.697826 0.458948 0.000745
v -1.076551 0.45616 -0.934616
v -1.12479 0.940005 -0.201816
v -1.076551 0.45616 -0.934616
v -1.650334 0.759488 -0.020966
v -1.12479 0.940005 -0.201816
vt 0.566814 0.334224
vt 0.510841 0.996627
vt 0.160274 0.482117
vt 0.88227 0.550553
vt 0.590895 1.074183
vt 0.427096 0.479788
vt 0.068648 1.019219
vt 0.327542 0.811755
vt 0.408272 0.113755
vt 0.423765 0.103977
vt 0.882097 0.29451
vt 0.706956 0.699341
vt 0.706956 0.699341
vt 0.210762 1.017212
vt 0.423765 0.103977
vt 0.566814 0.334224
vt 0.850987 0.525814
vt 0.70713 1.003781
vt 0.70713 1.003781
vt 0.510841 0.996627
vt 0.566814 0.334224
vt 0.680538 -0.074182
vt 0.98824 0.289091
vt 0.88227 0.550553
vt 0.88227 0.550553
vt 0.427096 0.479788
vt 0.680538 -0.074182
vt 0.650343 0.758847
vt 0.085298 0.877342
vt 0.545565 0.232825
vt -0.126421 0.305241
vt 0.582608 0.305241
vt 0.415681 1.017933
vt 0.753316 0.421132
vt 0.81415 0.841764
vt 0.666804 0.713965
vt 0.696081 0.68348
vt 0.408272 0.113755
vt 0.327542 0.811755
vt 0.327542 0.811755
vt 0.540561 0.924223
vt 0.696081 0.68348
vt 0.164765 0.589509
vt 0.494674 0.361093
vt 0.518807 0.938158
vt 0.276496 0.061842
vt 0.494674 0.361093
vt 0.164765 0.589509
vt 0.585976 0.450679
vt 0.450235 0.530889
vt 0.392976 0.252386
vt 0.539382 0.529391
vt 0.253697 0.976911
vt 0.625104 0.94551
vt 0.539382 0.529391
vt 0.625104 0.94551
vt 0.844483 0.429333
vt 0.494674 0.361093
vt 0.835235 0.803505
vt 0.518807 0.938158
vt 0.667118 0.837731
vt 0.448237 0.72711
vt 0.44082 0.417067
vt 0.44082 0.417067
vt 0.820193 0.542495
vt 0.667118 0.837731
vt 0.599739 0.396046
vt 0.835235 0.803505
vt 0.494674 0.361093
vt 0.305682 0.774451
vt 0.530141 0.428149
vt 0.774451 0.698218
vt 0.217883 0.205028
vt 0.740981 0.794973
vt 0.140935 0.561295
vt 0.492449 0.192165
vt 0.332922 0.192165
vt 0.181847 0.576198
vt 0.181847 0.576198
vt 0.606167 0.807835
vt 0.492449 0.192165
vt 0.217883 0.205028
vt 0.717156 0.205028
vt 0.740981 0.794973
vt 0.305682 0.774451
vt 0.225549 0.225549
vt 0.530141 0.428149
vt 0.442224 0.244674
vt 0.982693 0.244674
vt 0.80215 0.603508
vt 0.80215 0.603508
vt 0.371258 0.755326
vt 0.442224 0.244674
vt 0.818153 0.192165
vt 0.492449 0.192165
vt 0.606167 0.807835
vt 0.705297 0.174835
vt 0.64532 0.825165
vt 0.177247 0.646854
vt 0.344954 0.421132
vt 0.430675 0.785544
vt 0.29869 0.868053
vt 0.181847 0.378946
vt 0.681855 0.142362
vt 0.562019 0.999501
vt 0.19167 0.003168
vt 0.271811 0.391805
vt 0.129785 0.391805
vt 0.736285 0.455912
vt 0.629509 0.870593
vt 0.334815 0.375478
vt 0.264653 0.844731
vt 0.252723 0.223952
vt 0.747277 0.562808
vt 0.181847 0.378946
vt 0.398561 0.0005
vt 0.681855 0.142362
vt 0.010714 0.073445
vt 0.591243 -0.017602
vt 0.293824 0.961443
vt 0.94474 0.168218
vt 0.942313 0.676658
vt 0.953573 1.105406
vt 0.953573 1.105406
vt 0.591243 -0.017602
vt 0.94474 0.168218
vt 0.482513 -0.007638
vt 0.787121 0.17838
vt 0.736285 0.455912
vt 0.736285 0.455912
vt 0.334815 0.375478
vt 0.482513 -0.007638
vt 0.767933 0.562617
vt 0.940845 1.098027
vt 0.115224 0.850764
vt 0.334815 0.375478
vt 0.629509 0.870593
vt 0.37853 0.963378
vt 0.767933 0.562617
vt 0.115224 0.850764
vt 0.450957 -0.058255
vt 0.562019 0.999501
vt 0.681855 0.142362
vt 0.818153 0.544354
vn -0.437471 0.47877 0.761182
vn -0.437471 0.47877 0.761182
vn -0.437471 0.47877 0.761182
vn 0.866038 0.420079 -0.271129
vn 0.866038 0.420079 -0.271129
vn 0.866038 0.420079 -0.271129
vn -0.921533 0.073023 -0.381372
vn -0.921533 0.073023 -0.381372
vn -0.921533 0.073023 -0.381372
vn 0.537808 0.133093 0.832496
vn 0.537808 0.133093 0.832496
vn 0.537808 0.133093 0.832496
vn -0.388111 0.677413 0.624885
vn -0.388111 0.677413 0.624885
vn -0.388111 0.677413 0.624885
vn 0.595878 0.646896 0.475873
vn 0.595878 0.646896 0.475873
vn 0.595878 0.646896 0.475873
vn 0.61386 0.634874 0.46916
vn 0.61386 0.634874 0.46916
vn 0.61386 0.634874 0.46916
vn 0.559206 0.070288 -0.826044
vn 0.559206 0.070288 -0.826044
vn 0.559206 0.070288 -0.826044
vn 0.703599 0.663629 -0.254058
vn 0.703599 0.663629 -0.254058
vn 0.703599 0.663629 -0.254058
vn 0.275194 0.576658 -0.769243
vn 0.275194 0.576658 -0.769243
vn 0.275194 0.576658 -0.769243
vn -0.968039 0.126076 0.216808
vn -0.968039 0.126076 0.216808
vn -0.968039 0.126076 0.216808
vn -0.739999 0.630535 0.234152
vn -0.739999 0.630535 0.234152
vn -0.739999 0.630535 0.234152
vn -0.211316 0.815861 -0.538254
vn -0.211316 0.815861 -0.538254
vn -0.211316 0.815861 -0.538254
vn -0.187225 0.76088 -0.621296
vn -0.187225 0.76088 -0.621296
vn -0.187225 0.76088 -0.621296
vn -0.547955 0.825957 -0.132444
vn -0.547955 0.825957 -0.132444
vn -0.547955 0.825957 -0.132444
vn -0.478864 0.797892 0.366139
vn -0.478864 0.797892 0.366139
vn -0.478864 0.797892 0.366139
vn 0.416906 0.668383 0.615998
vn 0.416906 0.668383 0.615998
vn 0.416906 0.668383 0.615998
vn -0.29321 0.841845 -0.453128
vn -0.29321 0.841845 -0.453128
vn -0.29321 0.841845 -0.453128
vn 0.079278 0.697232 -0.712448
vn 0.079278 0.697232 -0.712448
vn 0.079278 0.697232 -0.712448
vn -0.444468 0.872506 -0.202934
vn -0.444468 0.872506 -0.202934
vn -0.444468 0.872506 -0.202934
vn 0.552899 0.09096 0.828269
vn 0.552899 0.09096 0.828269
vn 0.552899 0.09096 0.828269
vn 0.417869 0.399021 0.816191
vn 0.417869 0.399021 0.816191
vn 0.417869 0.399021 0.816191
vn -0.873062 0.323508 -0.364837
vn -0.873062 0.323508 -0.364837
vn -0.873062 0.323508 -0.364837
vn 0.182103 0.815085 -0.549978
vn 0.182103 0.815085 -0.549978
vn 0.182103 0.815085 -0.549978
vn -0.485509 0.632092 -0.603938
vn -0.485509 0.632092 -0.603938
vn -0.485509 0.632092 -0.603938
vn -0.123833 -0.489726 -0.863038
vn -0.123833 -0.489726 -0.863038
vn -0.123833 -0.489726 -0.863038
vn 0.46983 0.493505 -0.731924
vn 0.46983 0.493505 -0.731924
vn 0.46983 0.493505 -0.731924
vn -0.497172 0.623482 -0.603398
vn -0.497172 0.623482 -0.603398
vn -0.497172 0.623482 -0.603398
vn -0.345002 0.772962 -0.532451
vn -0.345002 0.772962 -0.532451
vn -0.345002 0.772962 -0.532451
vn -0.631989 0.671394 0.387066
vn -0.631989 0.671394 0.387066
vn -0.631989 0.671394 0.387066
vn -0.54318 0.230801 0.807271
vn -0.54318 0.230801 0.807271
vn -0.54318 0.230801 0.807271
vn 0.968166 0.144689 -0.204255
vn 0.968166 0.144689 -0.204255
vn 0.968166 0.144689 -0.204255
vn 0.511203 0.604557 0.610886
vn 0.511203 0.604557 0.610886
vn 0.511203 0.604557 0.610886
vn 0.482745 0.643411 0.594121
vn 0.482745 0.643411 0.594121
vn 0.482745 0.643411 0.594121
vn -0.132754 0.91273 -0.386394
vn -0.132754 0.91273 -0.386394
vn -0.132754 0.91273 -0.386394
vn -0.565359 0.76069 -0.318936
vn -0.565359 0.76069 -0.318936
vn -0.565359 0.76069 -0.318936
vn 0.512706 0.677254 0.527692
vn 0.512706 0.677254 0.527692
vn 0.512706 0.677254 0.527692
vn -0.130889 0.801661 -0.583274
vn -0.130889 0.801661 -0.583274
vn -0.130889 0.801661 -0.583274
vn -0.191311 0.914841 -0.355621
vn -0.191311 0.914841 -0.355621
vn -0.191311 0.914841 -0.355621
vn -0.689146 0.622277 0.371279
vn -0.689146 0.622277 0.371279
vn -0.689146 0.622277 0.371279
vn 0.604485 -0.170447 0.778168
vn 0.604485 -0.170447 0.778168
vn 0.604485 -0.170447 0.778168
vn -0.406312 0.80719 0.428201
vn -0.406312 0.80719 0.428201
vn -0.406312 0.80719 0.428201
vn 0.783323 0.484895 0.388949
vn 0.783323 0.484895 0.388949
vn 0.783323 0.484895 0.388949
vn 0.46993 0.731897 0.49345
vn 0.46993 0.731897 0.49345
vn 0.46993 0.731897 0.49345
vn 0.874524 0.330344 -0.355077
vn 0.874524 0.330344 -0.355077
vn 0.874524 0.330344 -0.355077
vn -0.11246 0.847353 0.518985
vn -0.11246 0.847353 0.518985
vn -0.11246 0.847353 0.518985
vn 0.771846 0.552769 -0.314166
vn 0.771846 0.552769 -0.314166
vn 0.771846 0.552769 -0.314166
vn -0.431748 0.739391 -0.516618
vn -0.431748 0.739391 -0.516618
vn -0.431748 0.739391 -0.516618
usemtl datan_common_dol05_aef84e71
f 1/1/1 2/2/2 3/3/3
f 4/4/4 5/5/5 6/6/6
f 7/7/7 8/8/8 9/9/9
f 10/10/10 11/11/11 12/12/12
f 13/13/13 14/14/14 15/15/15
f 16/16/16 17/17/17 18/18/18
f 19/19/19 20/20/20 21/21/21
f 22/22/22 23/23/23 24/24/24
f 25/25/25 26/26/26 27/27/27
f 28/28/28 29/29/29 30/30/30
f 31/31/31 32/32/32 33/33/33
f 34/34/34 35/35/35 36/36/36
f 37/37/37 38/38/38 39/39/39
f 40/40/40 41/41/41 42/42/42
f 43/43/43 44/44/44 45/45/45
f 46/46/46 47/47/47 48/48/48
f 49/49/49 50/50/50 51/51/51
f 52/52/52 53/53/53 54/54/54
f 55/55/55 56/56/56 57/57/57
f 58/58/58 59/59/59 60/60/60
f 61/61/61 62/62/62 63/63/63
f 64/64/64 65/65/65 66/66/66
f 67/67/67 68/68/68 69/69/69
f 70/70/70 71/71/71 72/72/72
f 73/73/73 74/74/74 75/75/75
f 76/76/76 77/77/77 78/78/78
f 79/79/79 80/80/80 81/81/81
f 82/82/82 83/83/83 84/84/84
f 85/85/85 86/86/86 87/87/87
f 88/88/88 89/89/89 90/90/90
f 91/91/91 92/92/92 93/93/93
f 94/94/94 95/95/95 96/96/96
f 97/97/97 98/98/98 99/99/99
f 100/100/100 101/101/101 102/102/102
f 103/103/103 104/104/104 105/105/105
f 106/106/106 107/107/107 108/108/108
f 109/109/109 110/110/110 111/111/111
f 112/112/112 113/113/113 114/114/114
f 115/115/115 116/116/116 117/117/117
f 118/118/118 119/119/119 120/120/120
f 121/121/121 122/122/122 123/123/123
f 124/124/124 125/125/125 126/126/126
f 127/127/127 128/128/128 129/129/129
f 130/130/130 131/131/131 132/132/132
f 133/133/133 134/134/134 135/135/135
f 136/136/136 137/137/137 138/138/138
f 139/139/139 140/140/140 141/141/141
f 142/142/142 143/143/143 144/144/144
o datan_common_dol05_aef84e71_mesh01
v 1.50276 0.002745 1.701789
v 1.709157 0.718417 1.112266
v 1.145326 0.718417 1.818282
v 1.50276 0.002745 1.701789
v 2.207376 0.002745 0.622639
v 1.709157 0.718417 1.112266
v 1.400865 0.002745 0.076656
v 0.676665 0.002745 -0.310216
v 0.521569 0.766185 -0.056028
v 0.521569 0.766185 -0.056028
v 1.462252 0.619736 0.170713
v 1.400865 0.002745 0.076656
v 0.676665 0.002745 -0.310216
v -0.316283 0.002745 0.040006
v 0.521569 0.766185 -0.056028
v -0.144211 0.002745 1.019099
v -0.02086 0.599598 1.222781
v 0.521569 0.766185 -0.056028
v 0.521569 0.766185 -0.056028
v -0.316283 0.002745 0.040006
v -0.144211 0.002745 1.019099
v 0.021865 0.002745 1.760622
v 0.623339 0.002745 2.269911
v -0.02086 0.599598 1.222781
v 2.27285 0.002745 -1.703268
v 2.052502 0.719327 -1.352814
v 2.510005 0.474507 -1.541496
v 2.510005 0.474507 -1.541496
v 2.38822 1.008898 -1.032071
v 2.669888 0.478508 -0.91698
v 2.775424 0.002745 -0.693235
v 2.27285 0.002745 -1.703268
v 2.510005 0.474507 -1.541496
v 2.510005 0.474507 -1.541496
v 2.669888 0.478508 -0.91698
v 2.775424 0.002745 -0.693235
v 2.27285 0.002745 -1.703268
v 1.498736 0.002745 -1.181057
v 1.432655 0.440219 -1.19523
v 1.432655 0.440219 -1.19523
v 2.052502 0.719327 -1.352814
v 2.27285 0.002745 -1.703268
v 1.498736 0.002745 -1.181057
v 0.939853 0.002745 -0.398024
v 1.031583 0.287017 -0.491307
v 1.031583 0.287017 -0.491307
v 1.432655 0.440219 -1.19523
v 1.498736 0.002745 -1.181057
v 0.939853 0.002745 -0.398024
v 1.636663 0.002745 0.018792
v 1.53167 0.379879 -0.03962
v 1.53167 0.379879 -0.03962
v 1.031583 0.287017 -0.491307
v 0.939853 0.002745 -0.398024
v 1.636663 0.002745 0.018792
v 2.775424 0.002745 -0.693235
v 2.669888 0.478508 -0.91698
v 2.669888 0.478508 -0.91698
v 1.53167 0.379879 -0.03962
v 1.636663 0.002745 0.018792
v 0.055219 0.498096 -0.642123
v 0.089515 0.990533 -1.203281
v -0.618346 0.707671 -1.155256
v 0.349121 0.002745 -1.823731
v -0.149549 0.002745 -2.269911
v 0.106925 0.428449 -2.030543
v -0.830685 0.002745 -1.708687
v -0.692352 0.002745 -1.003511
v -0.618346 0.707671 -1.155256
v -0.21609 0.002745 -0.225887
v 0.26882 0.002745 -0.728841
v 0.055219 0.498096 -0.642123
v 0.26882 0.002745 -0.728841
v 0.982075 0.002745 -0.927518
v 0.055219 0.498096 -0.642123
v -2.264428 0 0.468819
v -1.650334 0.759488 -0.020966
v -2.149117 0.562377 -0.259712
v -1.282771 0.402544 0.64147
v -1.650334 0.759488 -0.020966
v -2.264428 0 0.468819
v -0.79447 0.002745 -0.590096
v -1.527643 0.002745 -1.456569
v -1.076551 0.45616 -0.934616
v -1.527643 0.002745 -1.456569
v -2.052566 0.002745 -0.955789
v -2.113992 0.330997 -0.873836
v -2.052566 0.002745 -0.955789
v -2.775424 0.002745 -0.484264
v -2.113992 0.330997 -0.873836
v -1.40397 0.002745 0.648047
v -0.799474 0.002745 0.7742
v -1.282771 0.402544 0.64147
v -0.475981 0.002745 0.122702
v -0.79447 0.002745 -0.590096
v -1.076551 0.45616 -0.934616
vt 0.714133 0.015882
vt 0.850987 0.525814
vt 0.566814 0.334224
vt 0.190166 0.139317
vt 0.680538 -0.074182
vt 0.427096 0.479788
vt 0.873799 0.030713
vt 0.527191 0.030713
vt 0.469013 0.842909
vt 0.469013 0.842909
vt 0.906098 0.687106
vt 0.873799 0.030713
vt 0.527191 0.030713
vt 0.093902 0.030713
vt 0.469013 0.842909
vt 0.639079 0.169205
vt 0.827017 0.830795
vt 0.157105 0.777587
vt 0.157105 0.777587
vt 0.287514 0.169205
vt 0.639079 0.169205
vt 0.582608 0.305241
vt 1.461334 0.305241
vt 0.415681 1.017933
vt 0.76443 0.023089
vt 0.539382 0.529391
vt 0.844483 0.429333
vt 0.797048 0.472244
vt 0.39087 0.945921
vt 0.241957 0.47579
vt 0.034165 0.054079
vt 0.977016 0.054079
vt 0.797048 0.472244
vt 0.797048 0.472244
vt 0.241957 0.47579
vt 0.034165 0.054079
vt 0.76443 0.023089
vt 0.187121 0.070596
vt 0.155517 0.282658
vt 0.155517 0.282658
vt 0.539382 0.529391
vt 0.76443 0.023089
vt 0.063739 0.000499
vt 0.199936 0.000499
vt 0.186129 0.253961
vt 0.186129 0.253961
vt 0.074118 0.421132
vt 0.063739 0.000499
vt 0.199936 0.000499
vt 0.297379 0.000499
vt 0.311536 0.421132
vt 0.311536 0.421132
vt 0.186129 0.253961
vt 0.199936 0.000499
vt 0.165554 0.086896
vt 0.858921 0.086896
vt 0.86728 0.603619
vt 0.86728 0.603619
vt 0.13272 0.496498
vt 0.165554 0.086896
vt 0.758809 0.241191
vt 0.594104 0.758809
vt 0.241191 0.323147
vt 0.594841 0.000499
vt 0.717337 0.000499
vt 0.725544 0.302849
vt 0.012775 0.244674
vt 0.442224 0.244674
vt 0.371258 0.755326
vt 0.162781 0.000499
vt 0.26138 0.000499
vt 0.247807 0.421132
vt 0.301104 0.174835
vt 0.705297 0.174835
vt 0.177247 0.646854
vt 0.404663 -0.052882
vt 0.452697 1.052882
vt 0.204438 0.790098
vt 0.795563 0.661108
vt 0.452697 1.052882
vt 0.404663 -0.052882
vt 0.609154 0.043921
vt 0.0005 0.043921
vt 0.370805 0.527506
vt 0.00029 0.112684
vt 0.46265 0.131522
vt 0.526838 0.472406
vt 0.46265 0.131522
vt 0.999291 0.153387
vt 0.526838 0.472406
vt 0.358325 0.04355
vt 1.10922 0.04355
vt 0.509985 0.550227
vt 0.999501 0.043921
vt 0.609154 0.043921
vt 0.370805 0.527506
vn 0.750742 0.277358 0.599549
vn 0.750742 0.277358 0.599549
vn 0.750742 0.277358 0.599549
vn 0.819631 0.204456 0.535166
vn 0.819631 0.204456 0.535166
vn 0.819631 0.204456 0.535166
vn 0.439074 0.362859 -0.821917
vn 0.439074 0.362859 -0.821917
vn 0.439074 0.362859 -0.821917
vn 0.250429 0.121504 -0.96048
vn 0.250429 0.121504 -0.96048
vn 0.250429 0.121504 -0.96048
vn -0.322964 0.239261 -0.915668
vn -0.322964 0.239261 -0.915668
vn -0.322964 0.239261 -0.915668
vn -0.891627 0.299999 -0.339119
vn -0.891627 0.299999 -0.339119
vn -0.891627 0.299999 -0.339119
vn -0.661637 0.740753 0.116281
vn -0.661637 0.740753 0.116281
vn -0.661637 0.740753 0.116281
vn -0.543917 0.539922 0.642369
vn -0.543917 0.539922 0.642369
vn -0.543917 0.539922 0.642369
vn -0.163283 0.392469 -0.905156
vn -0.163283 0.392469 -0.905156
vn -0.163283 0.392469 -0.905156
vn 0.87957 0.41766 -0.227854
vn 0.87957 0.41766 -0.227854
vn 0.87957 0.41766 -0.227854
vn 0.858168 -0.284976 -0.427009
vn 0.858168 -0.284976 -0.427009
vn 0.858168 -0.284976 -0.427009
vn 0.963993 0.097482 -0.247417
vn 0.963993 0.097482 -0.247417
vn 0.963993 0.097482 -0.247417
vn -0.555807 -0.110649 -0.823915
vn -0.555807 -0.110649 -0.823915
vn -0.555807 -0.110649 -0.823915
vn -0.364958 0.316065 -0.875733
vn -0.364958 0.316065 -0.875733
vn -0.364958 0.316065 -0.875733
vn -0.811841 0.071824 -0.579444
vn -0.811841 0.071824 -0.579444
vn -0.811841 0.071824 -0.579444
vn -0.845911 -0.14441 -0.513401
vn -0.845911 -0.14441 -0.513401
vn -0.845911 -0.14441 -0.513401
vn -0.513319 -0.009994 0.85814
vn -0.513319 -0.009994 0.85814
vn -0.513319 -0.009994 0.85814
vn -0.650437 0.417999 0.634199
vn -0.650437 0.417999 0.634199
vn -0.650437 0.417999 0.634199
vn 0.471068 0.458803 0.753389
vn 0.471068 0.458803 0.753389
vn 0.471068 0.458803 0.753389
vn 0.571073 0.278583 0.772183
vn 0.571073 0.278583 0.772183
vn 0.571073 0.278583 0.772183
vn -0.251029 0.735117 0.629752
vn -0.251029 0.735117 0.629752
vn -0.251029 0.735117 0.629752
vn 0.666697 0.017312 -0.745128
vn 0.666697 0.017312 -0.745128
vn 0.666697 0.017312 -0.745128
vn -0.971216 0.142975 0.190521
vn -0.971216 0.142975 0.190521
vn -0.971216 0.142975 0.190521
vn 0.70739 0.185639 0.682011
vn 0.70739 0.185639 0.682011
vn 0.70739 0.185639 0.682011
vn 0.267959 -0.052862 0.961979
vn 0.267959 -0.052862 0.961979
vn 0.267959 -0.052862 0.961979
vn -0.510327 0.717938 0.473426
vn -0.510327 0.717938 0.473426
vn -0.510327 0.717938 0.473426
vn -0.392239 0.701142 0.59544
vn -0.392239 0.701142 0.59544
vn -0.392239 0.701142 0.59544
vn 0.763288 -0.015886 -0.645863
vn 0.763288 -0.015886 -0.645863
vn 0.763288 -0.015886 -0.645863
vn -0.689359 0.051406 -0.722594
vn -0.689359 0.051406 -0.722594
vn -0.689359 0.051406 -0.722594
vn -0.543253 0.106266 -0.832817
vn -0.543253 0.106266 -0.832817
vn -0.543253 0.106266 -0.832817
vn -0.203672 0.077797 0.975943
vn -0.203672 0.077797 0.975943
vn -0.203672 0.077797 0.975943
vn 0.88405 0.249852 -0.395006
vn 0.88405 0.249852 -0.395006
vn 0.88405 0.249852 -0.395006
usemtl datan_common_dol05_aef84e71
f 145/145/145 146/146/146 147/147/147
f 148/148/148 149/149/149 150/150/150
f 151/151/151 152/152/152 153/153/153
f 154/154/154 155/155/155 156/156/156
f 157/157/157 158/158/158 159/159/159
f 160/160/160 161/161/161 162/162/162
f 163/163/163 164/164/164 165/165/165
f 166/166/166 167/167/167 168/168/168
f 169/169/169 170/170/170 171/171/171
f 172/172/172 173/173/173 174/174/174
f 175/175/175 176/176/176 177/177/177
f 178/178/178 179/179/179 180/180/180
f 181/181/181 182/182/182 183/183/183
f 184/184/184 185/185/185 186/186/186
f 187/187/187 188/188/188 189/189/189
f 190/190/190 191/191/191 192/192/192
f 193/193/193 194/194/194 195/195/195
f 196/196/196 197/197/197 198/198/198
f 199/199/199 200/200/200 201/201/201
f 202/202/202 203/203/203 204/204/204
f 205/205/205 206/206/206 207/207/207
f 208/208/208 209/209/209 210/210/210
f 211/211/211 212/212/212 213/213/213
f 214/214/214 215/215/215 216/216/216
f 217/217/217 218/218/218 219/219/219
f 220/220/220 221/221/221 222/222/222
f 223/223/223 224/224/224 225/225/225
f 226/226/226 227/227/227 228/228/228
f 229/229/229 230/230/230 231/231/231
f 232/232/232 233/233/233 234/234/234
f 235/235/235 236/236/236 237/237/237
f 238/238/238 239/239/239 240/240/240
