# Generated from Nova1492 GX by tools/nova1492/GxObjConverter
mtllib datan_common_dol02_c39885cb.mtl
o datan_common_dol02_c39885cb_mesh00
v 0.515549 0.718417 -0.197602
v 0.088632 1.624189 -0.926891
v -0.706496 0.599598 -0.667941
v 0.65852 0.619736 -1.869274
v 0.480646 1.456453 -1.304743
v 1.002491 0.718417 -0.958687
v -0.706496 0.599598 -0.667941
v -0.481994 1.155635 -1.283229
v -0.300711 0.766185 -1.996444
v 0.043629 0.002745 0.306116
v 0.858847 0.002745 -0.35082
v 0.515549 0.718417 -0.197602
v 0.515549 0.718417 -0.197602
v -0.706496 0.599598 -0.667941
v 0.043629 0.002745 0.306116
v 0.515549 0.718417 -0.197602
v 1.002491 0.718417 -0.958687
v 0.480646 1.456453 -1.304743
v 0.480646 1.456453 -1.304743
v 0.088632 1.624189 -0.926891
v 0.515549 0.718417 -0.197602
v 1.4468 0.002745 -1.49771
v 0.587637 0.002745 -1.956399
v 0.65852 0.619736 -1.869274
v 0.65852 0.619736 -1.869274
v 1.002491 0.718417 -0.958687
v 1.4468 0.002745 -1.49771
v 0.65852 0.619736 -1.869274
v -0.300711 0.766185 -1.996444
v 0.480646 1.456453 -1.304743
v -0.850462 0.002745 -0.857614
v -0.607786 0.002745 -0.137512
v -0.706496 0.599598 -0.667941
v -0.706496 0.599598 -0.667941
v 0.088632 1.624189 -0.926891
v -0.481994 1.155635 -1.283229
v 0.480646 1.456453 -1.304743
v -0.300711 0.766185 -1.996444
v -0.481994 1.155635 -1.283229
v -0.481994 1.155635 -1.283229
v 0.088632 1.624189 -0.926891
v 0.480646 1.456453 -1.304743
v 1.046679 0.287017 0.29944
v 1.69156 0.738529 0.575401
v 1.738733 0.440219 -0.121781
v 1.265083 0.379879 0.936942
v 1.69156 0.738529 0.575401
v 1.046679 0.287017 0.29944
v 2.685943 0.478508 0.721404
v 1.69156 0.738529 0.575401
v 1.265083 0.379879 0.936942
v 2.357262 0.719327 0.0409
v 1.896932 1.014093 0.533172
v 2.495388 1.008898 0.484188
v 2.357262 0.719327 0.0409
v 2.495388 1.008898 0.484188
v 2.848878 0.474507 0.097677
v 1.69156 0.738529 0.575401
v 2.357262 0.719327 0.0409
v 1.738733 0.440219 -0.121781
v 2.495388 1.008898 0.484188
v 1.896932 1.014093 0.533172
v 1.69156 0.738529 0.575401
v 1.69156 0.738529 0.575401
v 2.685943 0.478508 0.721404
v 2.495388 1.008898 0.484188
v 1.896932 1.014093 0.533172
v 2.357262 0.719327 0.0409
v 1.69156 0.738529 0.575401
v -0.24327 0.428449 0.563845
v 0.180347 0.990533 1.274629
v 0.641427 0.685221 0.720312
v -0.587619 0.002745 0.496759
v -0.394504 0.707671 1.690465
v -0.24327 0.428449 0.563845
v 0.404328 0.002745 0.330153
v 0.071717 0.002745 0.610887
v -0.24327 0.428449 0.563845
v -0.24327 0.428449 0.563845
v 0.641427 0.685221 0.720312
v 0.404328 0.002745 0.330153
v -0.587619 0.002745 0.496759
v -0.867851 0.002745 1.333652
v -0.394504 0.707671 1.690465
v -0.24327 0.428449 0.563845
v -0.394504 0.707671 1.690465
v 0.180347 0.990533 1.274629
v -0.376852 0.002745 1.858369
v 0.439119 0.002745 2.265452
v 0.448631 0.498096 1.768692
v 0.448631 0.498096 1.768692
v -0.394504 0.707671 1.690465
v -0.376852 0.002745 1.858369
v 1.083412 0.002745 1.035505
v 0.404328 0.002745 0.330153
v 0.641427 0.685221 0.720312
v 1.083412 0.002745 1.035505
v 0.641427 0.685221 0.720312
v 0.448631 0.498096 1.768692
v 0.448631 0.498096 1.768692
v 0.641427 0.685221 0.720312
v 0.180347 0.990533 1.274629
v -2.643704 0.330997 0.131699
v -1.717723 0.759488 0.423119
v -1.939652 0.45616 -0.632689
v -2.848878 0.002745 0.871403
v -2.242363 0.562377 0.597863
v -2.643704 0.330997 0.131699
v -1.017463 0.458948 -0.222932
v -1.465307 0.940005 -0.072048
v -0.993154 0.402544 0.644305
v -2.62672 0.002745 -0.694796
v -2.643704 0.330997 0.131699
v -1.939652 0.45616 -0.632689
v -2.643704 0.330997 0.131699
v -2.242363 0.562377 0.597863
v -1.717723 0.759488 0.423119
v -2.848878 0.002745 0.871403
v -1.819232 0 1.202026
v -2.242363 0.562377 0.597863
v -1.141596 0.002745 1.192328
v -1.075767 0.002745 0.733227
v -0.993154 0.402544 0.644305
v -0.993154 0.402544 0.644305
v -1.819232 0 1.202026
v -1.141596 0.002745 1.192328
v -0.553297 0.002745 0.404057
v -0.773164 0.002745 -0.289309
v -1.017463 0.458948 -0.222932
v -1.017463 0.458948 -0.222932
v -0.993154 0.402544 0.644305
v -0.553297 0.002745 0.404057
v -1.017463 0.458948 -0.222932
v -0.773164 0.002745 -0.289309
v -1.939652 0.45616 -0.632689
v -0.993154 0.402544 0.644305
v -1.465307 0.940005 -0.072048
v -1.717723 0.759488 0.423119
v -1.017463 0.458948 -0.222932
v -1.939652 0.45616 -0.632689
v -1.465307 0.940005 -0.072048
v -1.939652 0.45616 -0.632689
v -1.717723 0.759488 0.423119
v -1.465307 0.940005 -0.072048
vt 0.566814 0.334224
vt 0.510841 0.996627
vt 0.160274 0.482117
vt 0.88227 0.550553
vt 0.590895 1.074183
vt 0.427096 0.479788
vt 0.068648 1.019219
vt 0.327542 0.811755
vt 0.408272 0.113755
vt 0.423765 0.103977
vt 0.882097 0.29451
vt 0.706956 0.699341
vt 0.706956 0.699341
vt 0.210762 1.017212
vt 0.423765 0.103977
vt 0.566814 0.334224
vt 0.850987 0.525814
vt 0.70713 1.003781
vt 0.70713 1.003781
vt 0.510841 0.996627
vt 0.566814 0.334224
vt 0.680538 -0.074182
vt 0.98824 0.28909
vt 0.88227 0.550553
vt 0.88227 0.550553
vt 0.427096 0.479788
vt 0.680538 -0.074182
vt 0.686328 0.160772
vt 0.408272 0.113755
vt 0.696081 0.68348
vt -0.126421 0.305241
vt 0.582608 0.305241
vt 0.415681 1.017933
vt 0.753316 0.421132
vt 0.81415 0.841764
vt 0.666804 0.713965
vt 0.696081 0.68348
vt 0.408272 0.113755
vt 0.327542 0.811755
vt 0.327542 0.811755
vt 0.540561 0.924223
vt 0.696081 0.68348
vt 0.164765 0.589509
vt 0.494674 0.361093
vt 0.518807 0.938158
vt 0.276496 0.061842
vt 0.494674 0.361093
vt 0.164765 0.589509
vt 0.585976 0.450679
vt 0.450235 0.530889
vt 0.392976 0.252386
vt 0.539382 0.529391
vt 0.253697 0.976911
vt 0.625104 0.94551
vt 0.539382 0.529391
vt 0.625104 0.94551
vt 0.844483 0.429333
vt 0.494674 0.361093
vt 0.835235 0.803505
vt 0.518807 0.938158
vt 0.667118 0.837731
vt 0.448237 0.72711
vt 0.44082 0.417067
vt 0.44082 0.417067
vt 0.820193 0.542495
vt 0.667118 0.837731
vt 0.599739 0.396046
vt 0.835235 0.803505
vt 0.494674 0.361093
vt 0.305682 0.774451
vt 0.530141 0.428149
vt 0.774451 0.698218
vt 0.217883 0.205028
vt 0.740981 0.794973
vt 0.140935 0.561295
vt 0.492449 0.192165
vt 0.332922 0.192165
vt 0.181847 0.576198
vt 0.181847 0.576198
vt 0.606167 0.807835
vt 0.492449 0.192165
vt 0.217883 0.205028
vt 0.717156 0.205028
vt 0.740981 0.794973
vt 0.305682 0.774451
vt 0.225549 0.225549
vt 0.530141 0.428149
vt 0.442224 0.244674
vt 0.982693 0.244674
vt 0.80215 0.603508
vt 0.80215 0.603508
vt 0.371258 0.755326
vt 0.442224 0.244674
vt 0.818153 0.192165
vt 0.492449 0.192165
vt 0.606167 0.807835
vt 0.705297 0.174835
vt 0.64532 0.825165
vt 0.177247 0.646854
vt 0.344954 0.421132
vt 0.430675 0.785544
vt 0.29869 0.868053
vt 0.181847 0.378946
vt 0.681855 0.142362
vt 0.562019 0.999501
vt 0.19167 0.003168
vt 0.271811 0.391805
vt 0.129785 0.391805
vt 0.736285 0.455912
vt 0.629509 0.870593
vt 0.334815 0.375478
vt 0.264653 0.844731
vt 0.252723 0.223952
vt 0.747277 0.562808
vt 0.181847 0.378946
vt 0.398561 0.0005
vt 0.681855 0.142362
vt 0.19167 0.003168
vt 0.360066 0.000499
vt 0.271811 0.391805
vt 0.452281 0.003168
vt 0.508346 0.003168
vt 0.527218 0.391805
vt 0.527218 0.391805
vt 0.360066 0.000499
vt 0.452281 0.003168
vt 0.482513 -0.007638
vt 0.787121 0.17838
vt 0.736285 0.455912
vt 0.736285 0.455912
vt 0.334815 0.375478
vt 0.482513 -0.007638
vt 0.767933 0.562617
vt 0.940845 1.098027
vt 0.115224 0.850764
vt 0.334815 0.375478
vt 0.629509 0.870593
vt 0.37853 0.963378
vt 0.767933 0.562617
vt 0.115224 0.850764
vt 0.450957 -0.058255
vt 0.562019 0.999501
vt 0.681855 0.142362
vt 0.818153 0.544354
vn -0.355509 0.478771 0.802741
vn -0.355509 0.478771 0.802741
vn -0.355509 0.478771 0.802741
vn 0.832953 0.420079 -0.36017
vn 0.832953 0.420079 -0.36017
vn 0.832953 0.420079 -0.36017
vn -0.956349 0.073022 -0.282956
vn -0.956349 0.073022 -0.282956
vn -0.956349 0.073022 -0.282956
vn 0.621882 0.133092 0.771719
vn 0.621882 0.133092 0.771719
vn 0.621882 0.133092 0.771719
vn -0.320667 0.677413 0.662031
vn -0.320667 0.677413 0.662031
vn -0.320667 0.677413 0.662031
vn 0.642357 0.646895 0.41098
vn 0.642357 0.646895 0.41098
vn 0.642357 0.646895 0.41098
vn 0.659537 0.634874 0.402425
vn 0.659537 0.634874 0.402425
vn 0.659537 0.634874 0.402425
vn 0.469798 0.070288 -0.879971
vn 0.469798 0.070288 -0.879971
vn 0.469798 0.070288 -0.879971
vn 0.673188 0.663629 -0.326213
vn 0.673188 0.663629 -0.326213
vn 0.673188 0.663629 -0.326213
vn 0.193278 0.576658 -0.793794
vn 0.193278 0.576658 -0.793794
vn 0.193278 0.576658 -0.793794
vn -0.940073 0.126076 0.316808
vn -0.940073 0.126076 0.316808
vn -0.940073 0.126076 0.316808
vn -0.71147 0.630535 0.31022
vn -0.71147 0.630535 0.31022
vn -0.71147 0.630535 0.31022
vn -0.266421 0.815861 -0.513217
vn -0.266421 0.815861 -0.513217
vn -0.266421 0.815861 -0.513217
vn -0.251142 0.760879 -0.598323
vn -0.251142 0.760879 -0.598323
vn -0.251142 0.760879 -0.598323
vn -0.415042 0.825957 -0.381492
vn -0.415042 0.825957 -0.381492
vn -0.415042 0.825957 -0.381492
vn -0.596332 0.797892 0.088074
vn -0.596332 0.797892 0.088074
vn -0.596332 0.797892 0.088074
vn 0.065992 0.668384 0.740884
vn 0.065992 0.668384 0.740884
vn 0.065992 0.668384 0.740884
vn -0.036766 0.841845 -0.538466
vn -0.036766 0.841845 -0.538466
vn -0.036766 0.841845 -0.538466
vn 0.41474 0.697232 -0.584686
vn 0.41474 0.697232 -0.584686
vn 0.41474 0.697232 -0.584686
vn -0.290356 0.872506 -0.392973
vn -0.290356 0.872506 -0.392973
vn -0.290356 0.872506 -0.392973
vn 0.082024 0.090959 0.992471
vn 0.082024 0.090959 0.992471
vn 0.082024 0.090959 0.992471
vn -0.03022 0.399021 0.916444
vn -0.03022 0.399021 0.916444
vn -0.03022 0.399021 0.916444
vn -0.58672 0.323508 -0.742363
vn -0.58672 0.323508 -0.742363
vn -0.58672 0.323508 -0.742363
vn -0.137012 0.815085 -0.562908
vn -0.137012 0.815085 -0.562908
vn -0.137012 0.815085 -0.562908
vn -0.731773 0.632092 -0.254888
vn -0.731773 0.632092 -0.254888
vn -0.731773 0.632092 -0.254888
vn -0.562357 -0.489726 -0.666276
vn -0.562357 -0.489726 -0.666276
vn -0.562357 -0.489726 -0.666276
vn 0.010578 0.493505 -0.869678
vn 0.010578 0.493505 -0.869678
vn 0.010578 0.493505 -0.869678
vn -0.741378 0.623482 -0.24825
vn -0.741378 0.623482 -0.24825
vn -0.741378 0.623482 -0.24825
vn -0.574734 0.772962 -0.268721
vn -0.574734 0.772962 -0.268721
vn -0.574734 0.772962 -0.268721
vn -0.330843 0.671394 0.663154
vn -0.330843 0.671394 0.663154
vn -0.330843 0.671394 0.663154
vn -0.032855 0.230801 0.972446
vn -0.032855 0.230801 0.972446
vn -0.032855 0.230801 0.972446
vn 0.712813 0.144689 -0.686268
vn 0.712813 0.144689 -0.686268
vn 0.712813 0.144689 -0.686268
vn 0.757245 0.604557 0.247164
vn 0.757245 0.604557 0.247164
vn 0.757245 0.604557 0.247164
vn 0.724227 0.643411 0.248027
vn 0.724227 0.643411 0.248027
vn 0.724227 0.643411 0.248027
vn -0.363908 0.91273 -0.18573
vn -0.363908 0.91273 -0.18573
vn -0.363908 0.91273 -0.18573
vn -0.628237 0.76069 0.163309
vn -0.628237 0.76069 0.163309
vn -0.628237 0.76069 0.163309
vn 0.735376 0.677254 0.023435
vn 0.735376 0.677254 0.023435
vn 0.735376 0.677254 0.023435
vn -0.49933 0.801661 -0.328649
vn -0.49933 0.801661 -0.328649
vn -0.49933 0.801661 -0.328649
vn -0.384653 0.914841 -0.122917
vn -0.384653 0.914841 -0.122917
vn -0.384653 0.914841 -0.122917
vn -0.237818 0.622277 0.745797
vn -0.237818 0.622277 0.745797
vn -0.237818 0.622277 0.745797
vn 0.975391 -0.170447 0.139858
vn 0.975391 -0.170447 0.139858
vn 0.975391 -0.170447 0.139858
vn 0.005177 0.80719 0.59027
vn 0.005177 0.80719 0.59027
vn 0.005177 0.80719 0.59027
vn 0.833662 0.484895 -0.264355
vn 0.833662 0.484895 -0.264355
vn 0.833662 0.484895 -0.264355
vn 0.680818 0.731897 0.028518
vn 0.680818 0.731897 0.028518
vn 0.680818 0.731897 0.028518
vn 0.382423 0.330344 -0.862917
vn 0.382423 0.330344 -0.862917
vn 0.382423 0.330344 -0.862917
vn 0.279621 0.847353 0.451448
vn 0.279621 0.847353 0.451448
vn 0.279621 0.847353 0.451448
vn 0.336981 0.552769 -0.762161
vn 0.336981 0.552769 -0.762161
vn 0.336981 0.552769 -0.762161
vn -0.669447 0.739391 -0.071707
vn -0.669447 0.739391 -0.071707
vn -0.669447 0.739391 -0.071707
usemtl datan_common_dol02_c39885cb
f 1/1/1 2/2/2 3/3/3
f 4/4/4 5/5/5 6/6/6
f 7/7/7 8/8/8 9/9/9
f 10/10/10 11/11/11 12/12/12
f 13/13/13 14/14/14 15/15/15
f 16/16/16 17/17/17 18/18/18
f 19/19/19 20/20/20 21/21/21
f 22/22/22 23/23/23 24/24/24
f 25/25/25 26/26/26 27/27/27
f 28/28/28 29/29/29 30/30/30
f 31/31/31 32/32/32 33/33/33
f 34/34/34 35/35/35 36/36/36
f 37/37/37 38/38/38 39/39/39
f 40/40/40 41/41/41 42/42/42
f 43/43/43 44/44/44 45/45/45
f 46/46/46 47/47/47 48/48/48
f 49/49/49 50/50/50 51/51/51
f 52/52/52 53/53/53 54/54/54
f 55/55/55 56/56/56 57/57/57
f 58/58/58 59/59/59 60/60/60
f 61/61/61 62/62/62 63/63/63
f 64/64/64 65/65/65 66/66/66
f 67/67/67 68/68/68 69/69/69
f 70/70/70 71/71/71 72/72/72
f 73/73/73 74/74/74 75/75/75
f 76/76/76 77/77/77 78/78/78
f 79/79/79 80/80/80 81/81/81
f 82/82/82 83/83/83 84/84/84
f 85/85/85 86/86/86 87/87/87
f 88/88/88 89/89/89 90/90/90
f 91/91/91 92/92/92 93/93/93
f 94/94/94 95/95/95 96/96/96
f 97/97/97 98/98/98 99/99/99
f 100/100/100 101/101/101 102/102/102
f 103/103/103 104/104/104 105/105/105
f 106/106/106 107/107/107 108/108/108
f 109/109/109 110/110/110 111/111/111
f 112/112/112 113/113/113 114/114/114
f 115/115/115 116/116/116 117/117/117
f 118/118/118 119/119/119 120/120/120
f 121/121/121 122/122/122 123/123/123
f 124/124/124 125/125/125 126/126/126
f 127/127/127 128/128/128 129/129/129
f 130/130/130 131/131/131 132/132/132
f 133/133/133 134/134/134 135/135/135
f 136/136/136 137/137/137 138/138/138
f 139/139/139 140/140/140 141/141/141
f 142/142/142 143/143/143 144/144/144
o datan_common_dol02_c39885cb_mesh01
v 0.858847 0.002745 -0.35082
v 1.002491 0.718417 -0.958687
v 0.515549 0.718417 -0.197602
v 0.858847 0.002745 -0.35082
v 1.4468 0.002745 -1.49771
v 1.002491 0.718417 -0.958687
v 0.587637 0.002745 -1.956399
v -0.173034 0.002745 -2.265452
v -0.300711 0.766185 -1.996444
v -0.300711 0.766185 -1.996444
v 0.65852 0.619736 -1.869274
v 0.587637 0.002745 -1.956399
v -0.173034 0.002745 -2.265452
v -1.123935 0.002745 -1.813357
v -0.300711 0.766185 -1.996444
v -0.850462 0.002745 -0.857614
v -0.706496 0.599598 -0.667941
v -0.300711 0.766185 -1.996444
v -0.300711 0.766185 -1.996444
v -1.123935 0.002745 -1.813357
v -0.850462 0.002745 -0.857614
v -0.607786 0.002745 -0.137512
v 0.043629 0.002745 0.306116
v -0.706496 0.599598 -0.667941
v 2.719886 0.002745 -0.158786
v 2.357262 0.719327 0.0409
v 2.848878 0.474507 0.097677
v 2.848878 0.474507 0.097677
v 2.495388 1.008898 0.484188
v 2.685943 0.478508 0.721404
v 2.669774 0.002745 0.968261
v 2.719886 0.002745 -0.158786
v 2.848878 0.474507 0.097677
v 2.848878 0.474507 0.097677
v 2.685943 0.478508 0.721404
v 2.669774 0.002745 0.968261
v 2.719886 0.002745 -0.158786
v 1.789657 0.002745 -0.077348
v 1.738733 0.440219 -0.121781
v 1.738733 0.440219 -0.121781
v 2.357262 0.719327 0.0409
v 2.719886 0.002745 -0.158786
v 1.789657 0.002745 -0.077348
v 0.921225 0.002745 0.336557
v 1.046679 0.287017 0.29944
v 1.046679 0.287017 0.29944
v 1.738733 0.440219 -0.121781
v 1.789657 0.002745 -0.077348
v 0.921225 0.002745 0.336557
v 1.328593 0.002745 1.038931
v 1.265083 0.379879 0.936942
v 1.265083 0.379879 0.936942
v 1.046679 0.287017 0.29944
v 0.921225 0.002745 0.336557
v 1.328593 0.002745 1.038931
v 2.669774 0.002745 0.968261
v 2.685943 0.478508 0.721404
v 2.685943 0.478508 0.721404
v 1.265083 0.379879 0.936942
v 1.328593 0.002745 1.038931
v 0.448631 0.498096 1.768692
v 0.180347 0.990533 1.274629
v -0.394504 0.707671 1.690465
v 0.071717 0.002745 0.610887
v -0.587619 0.002745 0.496759
v -0.24327 0.428449 0.563845
v -0.867851 0.002745 1.333652
v -0.376852 0.002745 1.858369
v -0.394504 0.707671 1.690465
v 0.439119 0.002745 2.265452
v 0.583821 0.002745 1.581959
v 0.448631 0.498096 1.768692
v 0.583821 0.002745 1.581959
v 1.083412 0.002745 1.035505
v 0.448631 0.498096 1.768692
v -1.819232 0 1.202026
v -1.717723 0.759488 0.423119
v -2.242363 0.562377 0.597863
v -0.993154 0.402544 0.644305
v -1.717723 0.759488 0.423119
v -1.819232 0 1.202026
v -1.497416 0.002745 -0.580813
v -2.62672 0.002745 -0.694796
v -1.939652 0.45616 -0.632689
v -2.62672 0.002745 -0.694796
v -2.656447 0.002745 0.030077
v -2.643704 0.330997 0.131699
v -2.656447 0.002745 0.030077
v -2.848878 0.002745 0.871403
v -2.643704 0.330997 0.131699
v -1.075767 0.002745 0.733227
v -0.553297 0.002745 0.404057
v -0.993154 0.402544 0.644305
v -0.773164 0.002745 -0.289309
v -1.497416 0.002745 -0.580813
v -1.939652 0.45616 -0.632689
vt 0.714133 0.015882
vt 0.850987 0.525814
vt 0.566814 0.334224
vt 0.190166 0.139317
vt 0.680538 -0.074182
vt 0.427096 0.479788
vt 0.873799 0.030713
vt 0.527191 0.030713
vt 0.469013 0.842909
vt 0.469013 0.842909
vt 0.906098 0.687106
vt 0.873799 0.030713
vt 0.527191 0.030713
vt 0.093902 0.030713
vt 0.469013 0.842909
vt 0.639079 0.169205
vt 0.827017 0.830795
vt 0.157105 0.777587
vt 0.157105 0.777587
vt 0.287514 0.169205
vt 0.639079 0.169205
vt 0.582608 0.305241
vt 1.461334 0.305241
vt 0.415681 1.017933
vt 0.76443 0.023089
vt 0.539382 0.529391
vt 0.844483 0.429333
vt 0.797048 0.472244
vt 0.39087 0.945921
vt 0.241957 0.47579
vt 0.034165 0.054079
vt 0.977016 0.054079
vt 0.797048 0.472244
vt 0.797048 0.472244
vt 0.241957 0.47579
vt 0.034165 0.054079
vt 0.76443 0.023089
vt 0.187121 0.070596
vt 0.155517 0.282658
vt 0.155517 0.282658
vt 0.539382 0.529391
vt 0.76443 0.023089
vt 0.063739 0.000499
vt 0.199936 0.000499
vt 0.186129 0.253961
vt 0.186129 0.253961
vt 0.074118 0.421132
vt 0.063739 0.000499
vt 0.199936 0.000499
vt 0.297379 0.000499
vt 0.311536 0.421132
vt 0.311536 0.421132
vt 0.186129 0.253961
vt 0.199936 0.000499
vt 0.165554 0.086896
vt 0.858921 0.086896
vt 0.86728 0.603619
vt 0.86728 0.603619
vt 0.13272 0.496498
vt 0.165554 0.086896
vt 0.758809 0.241191
vt 0.594104 0.758809
vt 0.241191 0.323147
vt 0.594841 0.000499
vt 0.717337 0.000499
vt 0.725544 0.302849
vt 0.012775 0.244674
vt 0.442224 0.244674
vt 0.371258 0.755326
vt 0.162781 0.000499
vt 0.26138 0.000499
vt 0.247807 0.421132
vt 0.301104 0.174835
vt 0.705297 0.174835
vt 0.177247 0.646854
vt 0.404663 -0.052882
vt 0.452697 1.052882
vt 0.204438 0.790098
vt 0.795563 0.661108
vt 0.452697 1.052882
vt 0.404663 -0.052882
vt 0.609154 0.043921
vt 0.0005 0.043921
vt 0.370805 0.527506
vt 0.00029 0.112684
vt 0.46265 0.131522
vt 0.526838 0.472406
vt 0.46265 0.131522
vt 0.999291 0.153387
vt 0.526838 0.472406
vt 0.286699 0.321392
vt 0.482513 -0.007638
vt 0.334815 0.375478
vt 0.999501 0.043921
vt 0.609154 0.043921
vt 0.370805 0.527506
vn 0.8093 0.277357 0.51779
vn 0.8093 0.277357 0.51779
vn 0.8093 0.277357 0.51779
vn 0.871081 0.204456 0.44656
vn 0.871081 0.204456 0.44656
vn 0.871081 0.204456 0.44656
vn 0.350754 0.362858 -0.863311
vn 0.350754 0.362858 -0.863311
vn 0.350754 0.362858 -0.863311
vn 0.148659 0.121504 -0.981396
vn 0.148659 0.121504 -0.981396
vn 0.148659 0.121504 -0.981396
vn -0.416908 0.239261 -0.876893
vn -0.416908 0.239261 -0.876893
vn -0.416908 0.239261 -0.876893
vn -0.92219 0.3 -0.24406
vn -0.92219 0.3 -0.24406
vn -0.92219 0.3 -0.24406
vn -0.645858 0.740753 0.184804
vn -0.645858 0.740753 0.184804
vn -0.645858 0.740753 0.184804
vn -0.473791 0.539922 0.695705
vn -0.473791 0.539922 0.695705
vn -0.473791 0.539922 0.695705
vn 0.296018 0.392469 -0.870828
vn 0.296018 0.392469 -0.870828
vn 0.296018 0.392469 -0.870828
vn 0.879755 0.41766 0.227138
vn 0.879755 0.41766 0.227138
vn 0.879755 0.41766 0.227138
vn 0.957589 -0.284975 0.042578
vn 0.957589 -0.284975 0.042578
vn 0.957589 -0.284975 0.042578
vn 0.963077 0.097483 0.250958
vn 0.963077 0.097483 0.250958
vn 0.963077 0.097483 0.250958
vn -0.086677 -0.110649 -0.990073
vn -0.086677 -0.110649 -0.990073
vn -0.086677 -0.110649 -0.990073
vn 0.105365 0.316065 -0.942869
vn 0.105365 0.316065 -0.942869
vn 0.105365 0.316065 -0.942869
vn -0.429132 0.071823 -0.900382
vn -0.429132 0.071823 -0.900382
vn -0.429132 0.071823 -0.900382
vn -0.490949 -0.144409 -0.859136
vn -0.490949 -0.144409 -0.859136
vn -0.490949 -0.144409 -0.859136
vn -0.864993 -0.009994 0.501684
vn -0.864993 -0.009994 0.501684
vn -0.864993 -0.009994 0.501684
vn -0.876351 0.417999 0.239344
vn -0.876351 0.417999 0.239344
vn -0.876351 0.417999 0.239344
vn 0.046754 0.458804 0.887307
vn 0.046754 0.458804 0.887307
vn 0.046754 0.458804 0.887307
vn 0.12511 0.278584 0.952228
vn 0.12511 0.278584 0.952228
vn 0.12511 0.278584 0.952228
vn 0.120833 0.735117 0.667085
vn 0.120833 0.735117 0.667085
vn 0.120833 0.735117 0.667085
vn 0.170533 0.017313 -0.9852
vn 0.170533 0.017313 -0.9852
vn 0.170533 0.017313 -0.9852
vn -0.722677 0.142975 0.676237
vn -0.722677 0.142975 0.676237
vn -0.722677 0.142975 0.676237
vn 0.961311 0.185639 0.203518
vn 0.961311 0.185639 0.203518
vn 0.961311 0.185639 0.203518
vn 0.737013 -0.052862 0.673808
vn 0.737013 -0.052862 0.673808
vn 0.737013 -0.052862 0.673808
vn -0.038229 0.717938 0.695057
vn -0.038229 0.717938 0.695057
vn -0.038229 0.717938 0.695057
vn 0.131475 0.701142 0.700796
vn 0.131475 0.701142 0.700796
vn 0.131475 0.701142 0.700796
vn 0.100409 -0.015886 -0.994819
vn 0.100409 -0.015886 -0.994819
vn 0.100409 -0.015886 -0.994819
vn -0.997839 0.051406 -0.040921
vn -0.997839 0.051406 -0.040921
vn -0.997839 0.051406 -0.040921
vn -0.969307 0.106265 -0.221703
vn -0.969307 0.106265 -0.221703
vn -0.969307 0.106265 -0.221703
vn 0.531438 0.077798 0.843517
vn 0.531438 0.077798 0.843517
vn 0.531438 0.077798 0.843517
vn 0.361538 0.249852 -0.898256
vn 0.361538 0.249852 -0.898256
vn 0.361538 0.249852 -0.898256
usemtl datan_common_dol02_c39885cb
f 145/145/145 146/146/146 147/147/147
f 148/148/148 149/149/149 150/150/150
f 151/151/151 152/152/152 153/153/153
f 154/154/154 155/155/155 156/156/156
f 157/157/157 158/158/158 159/159/159
f 160/160/160 161/161/161 162/162/162
f 163/163/163 164/164/164 165/165/165
f 166/166/166 167/167/167 168/168/168
f 169/169/169 170/170/170 171/171/171
f 172/172/172 173/173/173 174/174/174
f 175/175/175 176/176/176 177/177/177
f 178/178/178 179/179/179 180/180/180
f 181/181/181 182/182/182 183/183/183
f 184/184/184 185/185/185 186/186/186
f 187/187/187 188/188/188 189/189/189
f 190/190/190 191/191/191 192/192/192
f 193/193/193 194/194/194 195/195/195
f 196/196/196 197/197/197 198/198/198
f 199/199/199 200/200/200 201/201/201
f 202/202/202 203/203/203 204/204/204
f 205/205/205 206/206/206 207/207/207
f 208/208/208 209/209/209 210/210/210
f 211/211/211 212/212/212 213/213/213
f 214/214/214 215/215/215 216/216/216
f 217/217/217 218/218/218 219/219/219
f 220/220/220 221/221/221 222/222/222
f 223/223/223 224/224/224 225/225/225
f 226/226/226 227/227/227 228/228/228
f 229/229/229 230/230/230 231/231/231
f 232/232/232 233/233/233 234/234/234
f 235/235/235 236/236/236 237/237/237
f 238/238/238 239/239/239 240/240/240
