# Generated from Nova1492 GX by tools/nova1492/GxObjConverter
mtllib datan_common_tree02_74db4f06.mtl
o datan_common_tree02_74db4f06_mesh00
v 72.87365 195.3901 6.297711
v 8.286304 1216.425 -14.35233
v 16.57262 1216.425 -0.000005
v 30.42686 195.39 -55.51508
v 30.42686 195.39 -55.51508
v -8.286333 1216.425 -14.35233
v 8.286304 1216.425 -14.35233
v -25.75992 195.39 -66.43832
v -16.57265 1216.425 -0.000003
v -49.51352 195.39 1.053686
v -8.286332 1216.425 14.35233
v -26.01527 195.39 51.32014
v 8.286307 1216.425 14.35232
v 25.51264 195.39 40.1832
v 176.8892 731.0342 437.8038
v 467.5986 731.0342 65.71262
v 0.00344 1428.989 -0.003565
v 467.5986 731.0342 65.71262
v 290.7129 731.0342 -372.0948
v 0.00344 1428.989 -0.003565
v 290.7129 731.0342 -372.0948
v -176.8824 731.0342 -437.8109
v 0.00344 1428.989 -0.003565
v -176.8824 731.0342 -437.8109
v -467.5917 731.0342 -65.71969
v 0.00344 1428.989 -0.003565
v -467.5917 731.0342 -65.71969
v -290.7059 731.0342 372.0877
v 0.00344 1428.989 -0.003565
v -290.7059 731.0342 372.0877
v 176.8892 731.0342 437.8038
v 0.00344 1428.989 -0.003565
v -455.3166 997.8661 242.0944
v -17.99357 997.8661 515.3641
v 0.003427 1457.047 -0.003566
v -17.99357 997.8661 515.3641
v 437.3265 997.8661 273.2661
v 0.003427 1457.047 -0.003566
v 437.3265 997.8661 273.2661
v 455.3234 997.8661 -242.1016
v 0.003427 1457.047 -0.003566
v 455.3234 997.8661 -242.1016
v 18.00038 997.8661 -515.3713
v 0.003427 1457.047 -0.003566
v 18.00038 997.8661 -515.3713
v -437.3196 997.8661 -273.2732
v 0.003427 1457.047 -0.003566
v -437.3196 997.8661 -273.2732
v -455.3166 997.8661 242.0944
v 0.003427 1457.047 -0.003566
v -177.563 1140.593 546.4897
v 384.4972 1140.593 427.02
v 0.003427 1468.579 -0.003566
v 384.4972 1140.593 427.02
v 562.0637 1140.593 -119.4732
v 0.003427 1468.579 -0.003566
v 562.0637 1140.593 -119.4732
v 177.5698 1140.593 -546.4968
v 0.003427 1468.579 -0.003566
v 177.5698 1140.593 -546.4968
v -384.4904 1140.593 -427.0271
v 0.003427 1468.579 -0.003566
v -384.4904 1140.593 -427.0271
v -562.0567 1140.593 119.4661
v 0.003427 1468.579 -0.003566
v -562.0567 1140.593 119.4661
v -177.563 1140.593 546.4897
v 0.003427 1468.579 -0.003566
v 83.91525 1456.195 92.95602
v -155.0763 1649.429 308.1451
v -322.6669 1649.429 122.017
v -83.6754 1456.195 -93.17213
v 83.91525 1456.195 92.95602
v -83.6754 1456.195 -93.17213
v -322.6669 1649.429 122.017
v -155.0763 1649.429 308.1451
v 38.54462 1456.195 -119.1508
v 344.3996 1649.429 -19.77257
v 267.0031 1649.429 218.4293
v -38.85182 1456.195 119.051
v 38.54462 1456.195 -119.1508
v -38.85182 1456.195 119.051
v 267.0031 1649.429 218.4293
v 344.3996 1649.429 -19.77257
v -122.46 1456.195 26.19472
v -189.3234 1649.429 -288.3726
v 55.66362 1649.429 -340.4463
v 122.527 1456.195 -25.87894
v -122.46 1456.195 26.19472
v 122.527 1456.195 -25.87894
v 55.66362 1649.429 -340.4463
v -189.3234 1649.429 -288.3726
vt 0.937461 0.506066
vt 0.973997 0.993934
vt 0.937461 0.993934
vt 0.977826 0.506066
vt 0.751992 0.506066
vt 0.772175 0.993934
vt 0.751992 0.993934
vt 0.776003 0.506066
vt 0.816367 0.993934
vt 0.816367 0.506066
vt 0.856732 0.993934
vt 0.856732 0.506066
vt 0.897096 0.993934
vt 0.897096 0.506066
vt 0.897152 0.014838
vt 0.99418 0.247347
vt 0.751914 0.248086
vt 0.99418 0.251175
vt 0.880534 0.493934
vt 0.751914 0.251914
vt 0.880534 0.493934
vt 0.605226 0.492295
vt 0.748086 0.251914
vt 0.605226 0.492295
vt 0.50582 0.243142
vt 0.748086 0.251914
vt 0.50582 0.239314
vt 0.617089 0.010822
vt 0.748086 0.248086
vt 0.617089 0.010822
vt 0.897152 0.014838
vt 0.751914 0.248086
vt 0.993934 0.251914
vt 0.872924 0.493934
vt 0.751914 0.251914
vt 0.87101 0.493934
vt 0.62899 0.493934
vt 0.75 0.251914
vt 0.627076 0.493934
vt 0.506066 0.247159
vt 0.748086 0.251914
vt 0.506066 0.243331
vt 0.590947 0.006066
vt 0.748086 0.248086
vt 0.590947 0.006066
vt 0.878143 0.006066
vt 0.748086 0.248086
vt 0.878143 0.006066
vt 0.993934 0.248086
vt 0.751914 0.248086
vt 0.493934 0.242403
vt 0.372924 0.493934
vt 0.251914 0.251914
vt 0.37101 0.493934
vt 0.12899 0.493934
vt 0.25 0.251914
vt 0.127076 0.493934
vt 0.006066 0.251914
vt 0.248086 0.251914
vt 0.006066 0.248086
vt 0.090947 0.006066
vt 0.248086 0.248086
vt 0.090947 0.006066
vt 0.378143 0.006066
vt 0.248086 0.248086
vt 0.378143 0.006066
vt 0.493934 0.238575
vt 0.251914 0.248086
vt 0.505941 0.755941
vt 0.505942 0.994059
vt 0.744059 0.994059
vt 0.744059 0.755941
vt 0.505941 0.755941
vt 0.744059 0.755941
vt 0.744059 0.994059
vt 0.505942 0.994059
vt 0.505941 0.755941
vt 0.505942 0.994059
vt 0.744059 0.994059
vt 0.744059 0.755941
vt 0.505941 0.755941
vt 0.744059 0.755941
vt 0.744059 0.994059
vt 0.505942 0.994059
vt 0.505941 0.755941
vt 0.505942 0.994059
vt 0.744059 0.994059
vt 0.744059 0.755941
vt 0.505941 0.755941
vt 0.744059 0.755941
vt 0.744059 0.994059
vt 0.505942 0.994059
vn 0.581477 0.037076 0.812718
vn 0.823668 0.040663 -0.565612
vn 0.581477 0.037076 0.812718
vn 0.823668 0.040663 -0.565612
vn 0.190628 0.046758 -0.980548
vn -0.865322 0.040295 -0.499594
vn 0 0.040282 -0.999188
vn -0.942858 0.030076 -0.331836
vn -0.865675 0.028444 0.499798
vn -0.905466 0.031048 0.423282
vn 0 0.036183 0.999345
vn 0.211172 0.028281 0.97704
vn 0.865704 0.02725 0.499814
vn 0.581477 0.037076 0.812718
vn 0.679908 0.50552 0.531202
vn 0.679908 0.50552 0.531202
vn 0.679908 0.50552 0.531202
vn 0.799988 0.50552 -0.323216
vn 0.799988 0.50552 -0.323216
vn 0.799988 0.50552 -0.323216
vn 0.120081 0.50552 -0.854418
vn 0.120081 0.50552 -0.854418
vn 0.120081 0.50552 -0.854418
vn -0.679908 0.50552 -0.531202
vn -0.679908 0.50552 -0.531202
vn -0.679908 0.50552 -0.531202
vn -0.799988 0.50552 0.323216
vn -0.799988 0.50552 0.323216
vn -0.799988 0.50552 0.323216
vn -0.120081 0.50552 0.854418
vn -0.120081 0.50552 0.854418
vn -0.120081 0.50552 0.854418
vn -0.37988 0.697213 0.607935
vn -0.37988 0.697213 0.607935
vn -0.37988 0.697213 0.607935
vn 0.336547 0.697213 0.632953
vn 0.336547 0.697213 0.632953
vn 0.336547 0.697213 0.632953
vn 0.716427 0.697213 0.025018
vn 0.716427 0.697213 0.025018
vn 0.716427 0.697213 0.025018
vn 0.37988 0.697213 -0.607935
vn 0.37988 0.697213 -0.607935
vn 0.37988 0.697213 -0.607935
vn -0.336547 0.697213 -0.632953
vn -0.336547 0.697213 -0.632953
vn -0.336547 0.697213 -0.632953
vn -0.716427 0.697213 -0.025018
vn -0.716427 0.697213 -0.025018
vn -0.716427 0.697213 -0.025018
vn 0.114417 0.834958 0.538289
vn 0.114417 0.834958 0.538289
vn 0.114417 0.834958 0.538289
vn 0.52338 0.834958 0.170057
vn 0.52338 0.834958 0.170057
vn 0.52338 0.834958 0.170057
vn 0.408963 0.834957 -0.368232
vn 0.408963 0.834957 -0.368232
vn 0.408963 0.834957 -0.368232
vn -0.114417 0.834957 -0.538289
vn -0.114417 0.834957 -0.538289
vn -0.114417 0.834957 -0.538289
vn -0.52338 0.834957 -0.170057
vn -0.52338 0.834957 -0.170057
vn -0.52338 0.834957 -0.170057
vn -0.408963 0.834958 0.368232
vn -0.408963 0.834958 0.368232
vn -0.408963 0.834958 0.368232
vn -0.382748 -0.857168 0.344628
vn -0.382748 -0.857168 0.344628
vn -0.382748 -0.857168 0.344628
vn -0.382748 -0.857168 0.344628
vn 0.382748 0.857168 -0.344628
vn 0.382748 0.857168 -0.344628
vn 0.382748 0.857168 -0.344628
vn 0.382748 0.857168 -0.344628
vn 0.48983 -0.857167 0.159155
vn 0.48983 -0.857167 0.159155
vn 0.48983 -0.857167 0.159155
vn 0.48983 -0.857167 0.159155
vn -0.48983 0.857167 -0.159155
vn -0.48983 0.857167 -0.159155
vn -0.48983 0.857167 -0.159155
vn -0.48983 0.857167 -0.159155
vn -0.107083 -0.857168 -0.503783
vn -0.107083 -0.857168 -0.503783
vn -0.107083 -0.857168 -0.503783
vn -0.107083 -0.857168 -0.503783
vn 0.107083 0.857168 0.503783
vn 0.107083 0.857168 0.503783
vn 0.107083 0.857168 0.503783
vn 0.107083 0.857168 0.503783
usemtl datan_common_tree02_74db4f06
f 1/1/1 2/2/2 3/3/3
f 1/1/1 4/4/4 2/2/2
f 5/5/5 6/6/6 7/7/7
f 5/5/5 8/8/8 6/6/6
f 8/8/8 9/9/9 6/6/6
f 8/8/8 10/10/10 9/9/9
f 10/10/10 11/11/11 9/9/9
f 10/10/10 12/12/12 11/11/11
f 12/12/12 13/13/13 11/11/11
f 12/12/12 14/14/14 13/13/13
f 14/14/14 3/3/3 13/13/13
f 14/14/14 1/1/1 3/3/3
f 15/15/15 16/16/16 17/17/17
f 18/18/18 19/19/19 20/20/20
f 21/21/21 22/22/22 23/23/23
f 24/24/24 25/25/25 26/26/26
f 27/27/27 28/28/28 29/29/29
f 30/30/30 31/31/31 32/32/32
f 33/33/33 34/34/34 35/35/35
f 36/36/36 37/37/37 38/38/38
f 39/39/39 40/40/40 41/41/41
f 42/42/42 43/43/43 44/44/44
f 45/45/45 46/46/46 47/47/47
f 48/48/48 49/49/49 50/50/50
f 51/51/51 52/52/52 53/53/53
f 54/54/54 55/55/55 56/56/56
f 57/57/57 58/58/58 59/59/59
f 60/60/60 61/61/61 62/62/62
f 63/63/63 64/64/64 65/65/65
f 66/66/66 67/67/67 68/68/68
f 69/69/69 70/70/70 71/71/71
f 71/71/71 72/72/72 69/69/69
f 73/73/73 74/74/74 75/75/75
f 75/75/75 76/76/76 73/73/73
f 77/77/77 78/78/78 79/79/79
f 79/79/79 80/80/80 77/77/77
f 81/81/81 82/82/82 83/83/83
f 83/83/83 84/84/84 81/81/81
f 85/85/85 86/86/86 87/87/87
f 87/87/87 88/88/88 85/85/85
f 89/89/89 90/90/90 91/91/91
f 91/91/91 92/92/92 89/89/89
