# Generated from Nova1492 GX by tools/nova1492/GxObjConverter
mtllib datan_common_dol06_bb6d9593.mtl
o datan_common_dol06_bb6d9593_mesh00
v 0.521109 0.722796 -1.470141
v 0.762019 1.492796 -0.827905
v 1.412372 0.718417 -0.906557
v 0.162182 0.799992 0.252134
v 0.762019 1.492796 -0.827905
v -0.389901 0.599073 -0.921974
v 1.214375 0.002745 0.668225
v 1.518454 0.002745 -0.010033
v 1.148244 0.718417 0.12728
v 1.148244 0.718417 0.12728
v 1.412372 0.718417 -0.906557
v 0.762019 1.492796 -0.827905
v 0.762019 1.492796 -0.827905
v 0.725437 1.325369 -0.055158
v 1.148244 0.718417 0.12728
v 1.527644 0.002745 -1.595519
v 0.738638 0.002745 -1.804988
v 0.521109 0.722796 -1.470141
v 0.521109 0.722796 -1.470141
v 1.412372 0.718417 -0.906557
v 1.527644 0.002745 -1.595519
v 0.521109 0.722796 -1.470141
v -0.389901 0.599073 -0.921974
v 0.762019 1.492796 -0.827905
v -0.235565 0.002745 -0.18419
v 0.190198 0.002745 0.504417
v 0.162182 0.799992 0.252134
v 0.725437 1.325369 -0.055158
v 0.162182 0.799992 0.252134
v 1.148244 0.718417 0.12728
v 0.725437 1.325369 -0.055158
v 0.762019 1.492796 -0.827905
v 0.162182 0.799992 0.252134
v -2.272934 0.259451 -1.000008
v -2.147862 0.779148 -1.166677
v -2.535939 0.402544 -1.407867
v -1.521589 0.231964 -2.147765
v -1.689954 0.852317 -1.903648
v -1.128305 0.528355 -1.586031
v -2.169882 0.580624 -1.892356
v -1.757405 0.977486 -1.510427
v -1.689954 0.852317 -1.903648
v -2.535939 0.402544 -1.407867
v -2.147862 0.779148 -1.166677
v -2.169882 0.580624 -1.892356
v -2.446468 0.002745 -1.005874
v -2.272934 0.259451 -1.000008
v -2.535939 0.402544 -1.407867
v -1.666814 0.002745 -0.390785
v -1.031154 0 -0.998192
v -1.738476 0.474025 -0.776247
v -1.128305 0.528355 -1.586031
v -1.031154 0 -0.998192
v -0.926447 0.002745 -1.598682
v -1.110193 0.002745 -2.212243
v -1.690886 0.002745 -2.324131
v -1.521589 0.231964 -2.147765
v -1.521589 0.231964 -2.147765
v -1.128305 0.528355 -1.586031
v -1.110193 0.002745 -2.212243
v -1.521589 0.231964 -2.147765
v -1.690886 0.002745 -2.324131
v -2.169882 0.580624 -1.892356
v -1.757405 0.977486 -1.510427
v -2.147862 0.779148 -1.166677
v -1.738476 0.474025 -0.776247
v -1.738476 0.474025 -0.776247
v -1.128305 0.528355 -1.586031
v -1.757405 0.977486 -1.510427
v -1.757405 0.977486 -1.510427
v -1.128305 0.528355 -1.586031
v -1.689954 0.852317 -1.903648
v -2.169882 0.580624 -1.892356
v -2.147862 0.779148 -1.166677
v -1.757405 0.977486 -1.510427
v -1.585314 0.610154 0.095101
v -1.909253 0.564626 1.64934
v -0.836866 0.60182 0.990698
v -0.836866 0.60182 0.990698
v -0.432611 0.472803 0.102112
v -1.585314 0.610154 0.095101
v -0.312836 0.002632 0.901021
v -0.175288 0.002632 0.030564
v -0.432611 0.472803 0.102112
v -0.836866 0.60182 0.990698
v -0.312836 0.002632 0.901021
v -0.432611 0.472803 0.102112
v -1.909253 0.564626 1.64934
v -1.585314 0.610154 0.095101
v -2.280901 0.003229 0.76203
v 2.159402 0.002745 1.195806
v 1.284685 0.631471 0.746325
v 1.79218 0.435825 1.82686
v 0.127993 0.002745 1.432121
v 0.80741 0.498096 1.946502
v 0.46103 0.498096 1.225837
v 0.46103 0.498096 1.225837
v 0.707006 1.043117 1.468328
v 0.741483 0.498096 0.877282
v 1.79218 0.435825 1.82686
v 1.343416 0.95914 1.583404
v 0.80741 0.498096 1.946502
v 1.916651 0.002745 2.171915
v 1.79183 0.002745 1.754948
v 1.79218 0.435825 1.82686
v 2.159402 0.002745 1.195806
v 1.503663 0.002745 0.605106
v 1.284685 0.631471 0.746325
v 1.79218 0.435825 1.82686
v 1.284685 0.631471 0.746325
v 1.343416 0.95914 1.583404
v 0.566088 0.002745 0.795858
v 0.127993 0.002745 1.432121
v 0.46103 0.498096 1.225837
v 0.46103 0.498096 1.225837
v 0.741483 0.498096 0.877282
v 0.566088 0.002745 0.795858
v 0.46103 0.498096 1.225837
v 0.80741 0.498096 1.946502
v 0.707006 1.043117 1.468328
v 0.741483 0.498096 0.877282
v 0.707006 1.043117 1.468328
v 1.343416 0.95914 1.583404
v 0.999018 0.002745 2.513417
v 1.916651 0.002745 2.171915
v 1.79218 0.435825 1.82686
v 0.999018 0.002745 2.513417
v 1.79218 0.435825 1.82686
v 0.80741 0.498096 1.946502
v 0.80741 0.498096 1.946502
v 1.343416 0.95914 1.583404
v 0.707006 1.043117 1.468328
vt 0.147756 0.535454
vt 0.417125 0.96792
vt 0.810669 0.470528
vt 0.842124 0.348922
vt 0.4263 0.934587
vt 0.34745 0.065413
vt 1.038193 0.006797
vt 0.568958 0.041883
vt 0.77936 0.977926
vt 0.803242 0.562742
vt 0.196758 0.84991
vt 0.209811 0.317624
vt 0.209811 0.317624
vt 0.671574 0.233243
vt 0.803242 0.562742
vt 0.70896 0.021045
vt 0.220188 0.098842
vt 0.147756 0.535454
vt 0.147756 0.535454
vt 0.810669 0.470528
vt 0.70896 0.021045
vt 0.157876 0.552679
vt 0.34745 0.065413
vt 0.4263 0.934587
vt 0.544026 0.13633
vt 0.992554 0.149186
vt 0.877758 0.740176
vt 0.557353 0.999692
vt 0.199743 0.618645
vt 0.793977 0.577421
vt 0.59684 0.668068
vt 0.658148 0.397746
vt 0.797728 0.625778
vt 0.186376 0.305408
vt 0.298948 1.074472
vt 0.497841 0.517162
vt 0.957604 0.750419
vt 0.714299 0.7775
vt 0.705113 0.2225
vt 0.800481 0.600283
vt 0.757159 0.999501
vt 0.655094 0.829021
vt 0.497841 0.517162
vt 0.298948 1.074472
vt 0.824916 0.78069
vt 0.201592 -0.074472
vt 0.186376 0.305408
vt 0.497841 0.517162
vt 0.19167 0.003168
vt 0.360066 0.000499
vt 0.271811 0.391805
vt 0.500551 0.531821
vt 0.086186 0.011997
vt 0.462256 0.008127
vt 0.574785 0.003168
vt 0.663494 0.003168
vt 0.629925 0.225987
vt 0.629925 0.225987
vt 0.527218 0.391805
vt 0.574785 0.003168
vt 0.72512 0.256874
vt 0.797824 -0.028087
vt 0.202176 0.690323
vt 0.572577 0.854643
vt 0.309575 0.863423
vt 0.23 0.487142
vt 0.23 0.487142
vt 0.77 0.436932
vt 0.572577 0.854643
vt 0.402603 0.667082
vt 0.705113 0.2225
vt 0.714299 0.7775
vt 0.800481 0.600283
vt 0.922591 0.780442
vt 0.757159 0.999501
vt 0.209835 0.570085
vt 0.39875 0.115158
vt 0.461722 0.534057
vt 0.461722 0.534057
vt 0.477465 0.999501
vt 0.281379 0.828623
vt 0.580987 0.000499
vt 0.697005 0.000499
vt 0.682949 0.279579
vt 0.517523 0.367136
vt 0.580987 0.000499
vt 0.604396 0.546306
vt 0.13 0.33226
vt 0.87 0.331632
vt 0.494093 0.993222
vt 0.513856 0.000499
vt 0.999501 0.794427
vt 0.0005 0.475254
vt 0.162781 0.000499
vt 0.247807 0.421132
vt 0.119845 0.421132
vt 0.119845 0.421132
vt 0.154963 0.894343
vt 0.030635 0.421132
vt 0.924451 0.225189
vt 0.55083 0.999088
vt 0.032961 0.279442
vt 0.139119 0.031242
vt 0.493505 0.052535
vt 0.437572 0.637837
vt 0.717337 0.000499
vt 0.873961 0.000499
vt 0.911243 0.534389
vt 0.0005 0.475254
vt 0.999501 0.794427
vt 0.248898 0.999501
vt 0.044172 0.000499
vt 0.162781 0.000499
vt 0.119845 0.421132
vt 0.119845 0.421132
vt 0.030635 0.421132
vt 0.044172 0.000499
vt 0.119845 0.421132
vt 0.247807 0.421132
vt 0.225876 0.705983
vt 0.030635 0.421132
vt 0.154963 0.894343
vt 0.022127 0.841764
vt 0.178269 0.000499
vt 0.999501 0.16953
vt 0.945598 0.959491
vt 0.178269 0.000499
vt 0.945598 0.959491
vt 0.000499 0.999501
vt 0.031739 0.176851
vt 0.679309 0.893257
vt 0.170426 0.882857
vn 0.472682 0.472526 -0.743836
vn 0.472682 0.472526 -0.743836
vn 0.472682 0.472526 -0.743836
vn -0.613412 0.774213 0.155949
vn -0.613412 0.774213 0.155949
vn -0.613412 0.774213 0.155949
vn 0.849109 0.366198 0.380675
vn 0.849109 0.366198 0.380675
vn 0.849109 0.366198 0.380675
vn 0.760795 0.619203 0.194371
vn 0.760795 0.619203 0.194371
vn 0.760795 0.619203 0.194371
vn 0.784919 0.596817 0.166467
vn 0.784919 0.596817 0.166467
vn 0.784919 0.596817 0.166467
vn 0.227004 0.466207 -0.855056
vn 0.227004 0.466207 -0.855056
vn 0.227004 0.466207 -0.855056
vn 0.399932 0.668274 -0.627267
vn 0.399932 0.668274 -0.627267
vn 0.399932 0.668274 -0.627267
vn -0.454642 0.650074 -0.608855
vn -0.454642 0.650074 -0.608855
vn -0.454642 0.650074 -0.608855
vn -0.842734 0.135271 0.521058
vn -0.842734 0.135271 0.521058
vn -0.842734 0.135271 0.521058
vn 0.146985 0.377236 0.914379
vn 0.146985 0.377236 0.914379
vn 0.146985 0.377236 0.914379
vn -0.635616 0.760178 0.134614
vn -0.635616 0.760178 0.134614
vn -0.635616 0.760178 0.134614
vn -0.719916 0.36298 0.59158
vn -0.719916 0.36298 0.59158
vn -0.719916 0.36298 0.59158
vn 0.619084 0.427305 -0.658898
vn 0.619084 0.427305 -0.658898
vn 0.619084 0.427305 -0.658898
vn -0.469355 0.814958 -0.339926
vn -0.469355 0.814958 -0.339926
vn -0.469355 0.814958 -0.339926
vn -0.6207 0.76085 -0.189312
vn -0.6207 0.76085 -0.189312
vn -0.6207 0.76085 -0.189312
vn -0.674819 0.442687 0.590464
vn -0.674819 0.442687 0.590464
vn -0.674819 0.442687 0.590464
vn 0.568483 0.570926 0.592344
vn 0.568483 0.570926 0.592344
vn 0.568483 0.570926 0.592344
vn 0.922427 0.350344 0.162445
vn 0.922427 0.350344 0.162445
vn 0.922427 0.350344 0.162445
vn 0.161105 0.524347 -0.836125
vn 0.161105 0.524347 -0.836125
vn 0.161105 0.524347 -0.836125
vn 0.312938 0.731918 -0.605282
vn 0.312938 0.731918 -0.605282
vn 0.312938 0.731918 -0.605282
vn 0.011307 0.60451 -0.796518
vn 0.011307 0.60451 -0.796518
vn 0.011307 0.60451 -0.796518
vn 0.077073 0.823189 0.562512
vn 0.077073 0.823189 0.562512
vn 0.077073 0.823189 0.562512
vn 0.551406 0.694572 0.462084
vn 0.551406 0.694572 0.462084
vn 0.551406 0.694572 0.462084
vn 0.560326 0.812192 -0.162418
vn 0.560326 0.812192 -0.162418
vn 0.560326 0.812192 -0.162418
vn -0.577461 0.791773 -0.199084
vn -0.577461 0.791773 -0.199084
vn -0.577461 0.791773 -0.199084
vn -0.019133 0.999497 0.02529
vn -0.019133 0.999497 0.02529
vn -0.019133 0.999497 0.02529
vn 0.11838 0.988906 -0.089727
vn 0.11838 0.988906 -0.089727
vn 0.11838 0.988906 -0.089727
vn 0.877477 0.45914 0.138657
vn 0.877477 0.45914 0.138657
vn 0.877477 0.45914 0.138657
vn 0.747015 0.615834 0.250433
vn 0.747015 0.615834 0.250433
vn 0.747015 0.615834 0.250433
vn -0.719722 0.681977 -0.13003
vn -0.719722 0.681977 -0.13003
vn -0.719722 0.681977 -0.13003
vn 0.628379 0.761861 -0.157186
vn 0.628379 0.761861 -0.157186
vn 0.628379 0.761861 -0.157186
vn -0.708482 0.618139 0.340525
vn -0.708482 0.618139 0.340525
vn -0.708482 0.618139 0.340525
vn -0.65904 0.533363 -0.530274
vn -0.65904 0.533363 -0.530274
vn -0.65904 0.533363 -0.530274
vn 0.135439 0.511034 0.848823
vn 0.135439 0.511034 0.848823
vn 0.135439 0.511034 0.848823
vn 0.956947 0.046794 -0.286467
vn 0.956947 0.046794 -0.286467
vn 0.956947 0.046794 -0.286467
vn 0.621431 0.371386 -0.689852
vn 0.621431 0.371386 -0.689852
vn 0.621431 0.371386 -0.689852
vn 0.78938 0.550847 -0.27101
vn 0.78938 0.550847 -0.27101
vn 0.78938 0.550847 -0.27101
vn -0.785003 0.302688 -0.540509
vn -0.785003 0.302688 -0.540509
vn -0.785003 0.302688 -0.540509
vn -0.728563 0.354331 -0.586213
vn -0.728563 0.354331 -0.586213
vn -0.728563 0.354331 -0.586213
vn -0.881337 0.20929 0.423606
vn -0.881337 0.20929 0.423606
vn -0.881337 0.20929 0.423606
vn 0.214086 0.724297 -0.655409
vn 0.214086 0.724297 -0.655409
vn 0.214086 0.724297 -0.655409
vn 0.266153 0.646299 0.715165
vn 0.266153 0.646299 0.715165
vn 0.266153 0.646299 0.715165
vn 0.124906 0.767674 0.62855
vn 0.124906 0.767674 0.62855
vn 0.124906 0.767674 0.62855
vn -0.050359 0.653409 0.755328
vn -0.050359 0.653409 0.755328
vn -0.050359 0.653409 0.755328
usemtl datan_common_dol06_bb6d9593
f 1/1/1 2/2/2 3/3/3
f 4/4/4 5/5/5 6/6/6
f 7/7/7 8/8/8 9/9/9
f 10/10/10 11/11/11 12/12/12
f 13/13/13 14/14/14 15/15/15
f 16/16/16 17/17/17 18/18/18
f 19/19/19 20/20/20 21/21/21
f 22/22/22 23/23/23 24/24/24
f 25/25/25 26/26/26 27/27/27
f 28/28/28 29/29/29 30/30/30
f 31/31/31 32/32/32 33/33/33
f 34/34/34 35/35/35 36/36/36
f 37/37/37 38/38/38 39/39/39
f 40/40/40 41/41/41 42/42/42
f 43/43/43 44/44/44 45/45/45
f 46/46/46 47/47/47 48/48/48
f 49/49/49 50/50/50 51/51/51
f 52/52/52 53/53/53 54/54/54
f 55/55/55 56/56/56 57/57/57
f 58/58/58 59/59/59 60/60/60
f 61/61/61 62/62/62 63/63/63
f 64/64/64 65/65/65 66/66/66
f 67/67/67 68/68/68 69/69/69
f 70/70/70 71/71/71 72/72/72
f 73/73/73 74/74/74 75/75/75
f 76/76/76 77/77/77 78/78/78
f 79/79/79 80/80/80 81/81/81
f 82/82/82 83/83/83 84/84/84
f 85/85/85 86/86/86 87/87/87
f 88/88/88 89/89/89 90/90/90
f 91/91/91 92/92/92 93/93/93
f 94/94/94 95/95/95 96/96/96
f 97/97/97 98/98/98 99/99/99
f 100/100/100 101/101/101 102/102/102
f 103/103/103 104/104/104 105/105/105
f 106/106/106 107/107/107 108/108/108
f 109/109/109 110/110/110 111/111/111
f 112/112/112 113/113/113 114/114/114
f 115/115/115 116/116/116 117/117/117
f 118/118/118 119/119/119 120/120/120
f 121/121/121 122/122/122 123/123/123
f 124/124/124 125/125/125 126/126/126
f 127/127/127 128/128/128 129/129/129
f 130/130/130 131/131/131 132/132/132
o datan_common_dol06_bb6d9593_mesh01
v 1.518454 0.002745 -0.010033
v 1.412372 0.718417 -0.906557
v 1.148244 0.718417 0.12728
v -0.055192 0.002745 -1.44955
v -0.389901 0.599073 -0.921974
v 0.521109 0.722796 -1.470141
v 0.190198 0.002745 0.504417
v 1.148244 0.718417 0.12728
v 0.162182 0.799992 0.252134
v 1.518454 0.002745 -0.010033
v 1.897715 0.002745 -0.426823
v 1.412372 0.718417 -0.906557
v 1.897715 0.002745 -0.426823
v 1.433004 0.002745 -0.786334
v 1.412372 0.718417 -0.906557
v 1.433004 0.002745 -0.786334
v 1.527644 0.002745 -1.595519
v 1.412372 0.718417 -0.906557
v 0.738638 0.002745 -1.804988
v -0.055192 0.002745 -1.44955
v 0.521109 0.722796 -1.470141
v -0.055192 0.002745 -1.44955
v -0.856502 0.002745 -0.583509
v -0.389901 0.599073 -0.921974
v -0.235565 0.002745 -0.18419
v 0.162182 0.799992 0.252134
v -0.389901 0.599073 -0.921974
v -0.389901 0.599073 -0.921974
v -0.856502 0.002745 -0.583509
v -0.235565 0.002745 -0.18419
v 0.190198 0.002745 0.504417
v 1.214375 0.002745 0.668225
v 1.148244 0.718417 0.12728
v -2.180123 0.002745 -1.919748
v -2.535939 0.402544 -1.407867
v -2.169882 0.580624 -1.892356
v -1.738476 0.474025 -0.776247
v -2.147862 0.779148 -1.166677
v -2.272934 0.259451 -1.000008
v -1.031154 0 -0.998192
v -1.128305 0.528355 -1.586031
v -1.738476 0.474025 -0.776247
v -2.169882 0.580624 -1.892356
v -1.689954 0.852317 -1.903648
v -1.521589 0.231964 -2.147765
v -2.180123 0.002745 -1.919748
v -2.446468 0.002745 -1.005874
v -2.535939 0.402544 -1.407867
v -2.446468 0.002745 -1.005874
v -1.666814 0.002745 -0.390785
v -1.738476 0.474025 -0.776247
v -1.738476 0.474025 -0.776247
v -2.272934 0.259451 -1.000008
v -2.446468 0.002745 -1.005874
v -0.926447 0.002745 -1.598682
v -1.110193 0.002745 -2.212243
v -1.128305 0.528355 -1.586031
v -1.690886 0.002745 -2.324131
v -2.180123 0.002745 -1.919748
v -2.169882 0.580624 -1.892356
v -0.816622 0.002632 -0.008782
v -1.585314 0.610154 0.095101
v -0.432611 0.472803 0.102112
v -1.525831 0.002632 1.715266
v -0.312836 0.002632 0.901021
v -0.836866 0.60182 0.990698
v -0.836866 0.60182 0.990698
v -1.909253 0.564626 1.64934
v -1.525831 0.002632 1.715266
v -0.175288 0.002632 0.030564
v -0.816622 0.002632 -0.008782
v -0.432611 0.472803 0.102112
v -0.816622 0.002632 -0.008782
v -1.471611 0.002632 -0.409429
v -1.585314 0.610154 0.095101
v -1.471611 0.002632 -0.409429
v -1.813005 0.002632 0.228055
v -2.280901 0.003229 0.76203
v -2.280901 0.003229 0.76203
v -1.585314 0.610154 0.095101
v -1.471611 0.002632 -0.409429
v -2.280901 0.003229 0.76203
v -1.525831 0.002632 1.715266
v -1.909253 0.564626 1.64934
v 1.087273 0.002745 0.896444
v 0.741483 0.498096 0.877282
v 1.284685 0.631471 0.746325
v 1.79183 0.002745 1.754948
v 2.159402 0.002745 1.195806
v 1.79218 0.435825 1.82686
v 1.503663 0.002745 0.605106
v 1.087273 0.002745 0.896444
v 1.284685 0.631471 0.746325
v 1.087273 0.002745 0.896444
v 0.566088 0.002745 0.795858
v 0.741483 0.498096 0.877282
v 1.284685 0.631471 0.746325
v 0.741483 0.498096 0.877282
v 1.343416 0.95914 1.583404
v 0.127993 0.002745 1.432121
v 0.450467 0.002745 2.060081
v 0.80741 0.498096 1.946502
v 0.450467 0.002745 2.060081
v 0.999018 0.002745 2.513417
v 0.80741 0.498096 1.946502
vt 0.568958 0.041883
vt 0.138672 1.070325
vt 0.77936 0.977926
vt 0.299536 0.0005
vt 0.36539 0.350988
vt 0.286857 0.547426
vt 0.194277 0.075045
vt 0.793977 0.577421
vt 0.199743 0.618645
vt 0.568958 0.041883
vt 0.208673 0.025881
vt 0.138672 1.070325
vt 0.933664 0.0005
vt 0.998306 0.0005
vt 0.965631 0.421132
vt -0.001694 0.0005
vt 0.078715 0.0005
vt 0.067655 0.421132
vt 0.170904 0.0005
vt 0.228495 0.0005
vt 0.204893 0.305133
vt 0.299536 0.0005
vt 0.421285 0.0005
vt 0.36539 0.350988
vt 0.544026 0.13633
vt 0.877758 0.740176
vt 0.180288 0.646181
vt 0.180288 0.646181
vt 0.13916 -0.012765
vt 0.544026 0.13633
vt 0.194277 0.075045
vt 0.800927 0.001646
vt 0.793977 0.577421
vt 0.845365 -0.074472
vt 0.497841 0.517162
vt 0.824916 0.78069
vt 0.661828 0.600917
vt 0.334801 0.971557
vt 0.291823 0.340269
vt 0.516776 0.060382
vt 0.77 0.436932
vt 0.23 0.487142
vt 0.202176 0.690323
vt 0.436245 1.028087
vt 0.72512 0.256874
vt 0.612259 0.06249
vt 0.000499 0.06249
vt 0.204758 0.667862
vt 0.184983 0.028443
vt 0.782213 0.028443
vt 0.661828 0.600917
vt 0.661828 0.600917
vt 0.291823 0.340269
vt 0.184983 0.028443
vt 0.462256 0.008127
vt 0.913814 0.101515
vt 0.500551 0.531821
vt 0.797824 -0.028087
vt 0.220972 -0.028087
vt 0.202176 0.690323
vt 0.767374 0.000499
vt 0.843429 0.550454
vt 0.757176 0.573368
vt 0.389685 0.000499
vt 0.580987 0.000499
vt 0.517523 0.367136
vt 0.517523 0.367136
vt 0.339637 0.550454
vt 0.389685 0.000499
vt 0.697005 0.000499
vt 0.767374 0.000499
vt 0.757176 0.573368
vt 0.767374 0.000499
vt 0.880849 0.000499
vt 0.843429 0.550454
vt -0.119152 0.000499
vt -0.005019 0.011222
vt 0.107541 0.001125
vt 0.107541 0.001125
vt -0.037719 0.713623
vt -0.119152 0.000499
vt 0.107541 0.001125
vt 0.266334 0.000499
vt 0.247836 0.513714
vt -0.037991 0.000499
vt 0.030635 0.421132
vt -0.088757 0.534389
vt 0.493505 0.052535
vt 0.837714 0.018781
vt 0.437572 0.637837
vt 0.873961 0.000499
vt 0.962009 0.000499
vt 0.911243 0.534389
vt -0.037991 0.000499
vt 0.044172 0.000499
vt 0.030635 0.421132
vt -0.088757 0.534389
vt 0.030635 0.421132
vt 0.022127 0.841764
vt 0.162781 0.000499
vt 0.26138 0.000499
vt 0.247807 0.421132
vt 0.26138 0.000499
vt 0.382012 0.000499
vt 0.344954 0.421132
vn 0.882316 0.413164 0.225418
vn 0.882316 0.413164 0.225418
vn 0.882316 0.413164 0.225418
vn -0.513197 0.388862 -0.765125
vn -0.513197 0.388862 -0.765125
vn -0.513197 0.388862 -0.765125
vn 0.144347 0.303146 0.941948
vn 0.144347 0.303146 0.941948
vn 0.144347 0.303146 0.941948
vn 0.535495 0.689788 0.487277
vn 0.535495 0.689788 0.487277
vn 0.535495 0.689788 0.487277
vn 0.607868 -0.11447 -0.785744
vn 0.607868 -0.11447 -0.785744
vn 0.607868 -0.11447 -0.785744
vn 0.992081 0.048092 0.116031
vn 0.992081 0.048092 0.116031
vn 0.992081 0.048092 0.116031
vn -0.391318 0.288202 -0.873962
vn -0.391318 0.288202 -0.873962
vn -0.391318 0.288202 -0.873962
vn -0.721256 0.185577 -0.667347
vn -0.721256 0.185577 -0.667347
vn -0.721256 0.185577 -0.667347
vn -0.893954 0.238255 0.37958
vn -0.893954 0.238255 0.37958
vn -0.893954 0.238255 0.37958
vn -0.401923 0.669217 0.624985
vn -0.401923 0.669217 0.624985
vn -0.401923 0.669217 0.624985
vn -0.127453 0.590546 0.796876
vn -0.127453 0.590546 0.796876
vn -0.127453 0.590546 0.796876
vn -0.804576 0.042336 -0.592338
vn -0.804576 0.042336 -0.592338
vn -0.804576 0.042336 -0.592338
vn -0.481347 0.37059 0.794335
vn -0.481347 0.37059 0.794335
vn -0.481347 0.37059 0.794335
vn 0.586692 0.648097 0.485554
vn 0.586692 0.648097 0.485554
vn 0.586692 0.648097 0.485554
vn -0.198384 0.311811 -0.929203
vn -0.198384 0.311811 -0.929203
vn -0.198384 0.311811 -0.929203
vn -0.860007 -0.444482 -0.250646
vn -0.860007 -0.444482 -0.250646
vn -0.860007 -0.444482 -0.250646
vn -0.543179 0.480538 0.688505
vn -0.543179 0.480538 0.688505
vn -0.543179 0.480538 0.688505
vn -0.467808 0.29722 0.832356
vn -0.467808 0.29722 0.832356
vn -0.467808 0.29722 0.832356
vn 0.897028 0.350965 -0.268636
vn 0.897028 0.350965 -0.268636
vn 0.897028 0.350965 -0.268636
vn -0.636371 0.047772 -0.769903
vn -0.636371 0.047772 -0.769903
vn -0.636371 0.047772 -0.769903
vn 0.030473 0.20581 -0.978117
vn 0.030473 0.20581 -0.978117
vn 0.030473 0.20581 -0.978117
vn 0.523865 0.341355 0.780411
vn 0.523865 0.341355 0.780411
vn 0.523865 0.341355 0.780411
vn 0.466869 0.410412 0.783323
vn 0.466869 0.410412 0.783323
vn 0.466869 0.410412 0.783323
vn 0.060209 0.182297 -0.981398
vn 0.060209 0.182297 -0.981398
vn 0.060209 0.182297 -0.981398
vn 0.406249 0.62759 -0.664148
vn 0.406249 0.62759 -0.664148
vn 0.406249 0.62759 -0.664148
vn -0.00328 -0.999993 -0.001757
vn -0.00328 -0.999993 -0.001757
vn -0.00328 -0.999993 -0.001757
vn -0.783961 0.30318 -0.541745
vn -0.783961 0.30318 -0.541745
vn -0.783961 0.30318 -0.541745
vn -0.711709 -0.419464 0.56349
vn -0.711709 -0.419464 0.56349
vn -0.711709 -0.419464 0.56349
vn -0.191096 -0.17079 -0.966599
vn -0.191096 -0.17079 -0.966599
vn -0.191096 -0.17079 -0.966599
vn 0.832107 -0.091504 0.547015
vn 0.832107 -0.091504 0.547015
vn 0.832107 -0.091504 0.547015
vn -0.573213 -0.01563 -0.819257
vn -0.573213 -0.01563 -0.819257
vn -0.573213 -0.01563 -0.819257
vn 0.188661 0.093884 -0.977544
vn 0.188661 0.093884 -0.977544
vn 0.188661 0.093884 -0.977544
vn -0.299307 0.895452 -0.329518
vn -0.299307 0.895452 -0.329518
vn -0.299307 0.895452 -0.329518
vn -0.713102 0.597818 0.366196
vn -0.713102 0.597818 0.366196
vn -0.713102 0.597818 0.366196
vn -0.537584 0.536528 0.650493
vn -0.537584 0.536528 0.650493
vn -0.537584 0.536528 0.650493
usemtl datan_common_dol06_bb6d9593
f 133/133/133 134/134/134 135/135/135
f 136/136/136 137/137/137 138/138/138
f 139/139/139 140/140/140 141/141/141
f 142/142/142 143/143/143 144/144/144
f 145/145/145 146/146/146 147/147/147
f 148/148/148 149/149/149 150/150/150
f 151/151/151 152/152/152 153/153/153
f 154/154/154 155/155/155 156/156/156
f 157/157/157 158/158/158 159/159/159
f 160/160/160 161/161/161 162/162/162
f 163/163/163 164/164/164 165/165/165
f 166/166/166 167/167/167 168/168/168
f 169/169/169 170/170/170 171/171/171
f 172/172/172 173/173/173 174/174/174
f 175/175/175 176/176/176 177/177/177
f 178/178/178 179/179/179 180/180/180
f 181/181/181 182/182/182 183/183/183
f 184/184/184 185/185/185 186/186/186
f 187/187/187 188/188/188 189/189/189
f 190/190/190 191/191/191 192/192/192
f 193/193/193 194/194/194 195/195/195
f 196/196/196 197/197/197 198/198/198
f 199/199/199 200/200/200 201/201/201
f 202/202/202 203/203/203 204/204/204
f 205/205/205 206/206/206 207/207/207
f 208/208/208 209/209/209 210/210/210
f 211/211/211 212/212/212 213/213/213
f 214/214/214 215/215/215 216/216/216
f 217/217/217 218/218/218 219/219/219
f 220/220/220 221/221/221 222/222/222
f 223/223/223 224/224/224 225/225/225
f 226/226/226 227/227/227 228/228/228
f 229/229/229 230/230/230 231/231/231
f 232/232/232 233/233/233 234/234/234
f 235/235/235 236/236/236 237/237/237
