# Generated from Nova1492 GX by tools/nova1492/GxObjConverter
mtllib datan_common_Xmas_01_8485033e.mtl
o datan_common_Xmas_01_8485033e_mesh00
v -0.576087 -0.128159 -0.015226
v -0.576087 0.128159 -0.015226
v -0.525653 0.132841 -0.253844
v -0.521481 -0.121835 -0.256135
v -0.358766 0.155795 -0.435036
v -0.357591 -0.093563 -0.435364
v -0.576087 -0.128159 -0.015226
v -0.521481 -0.121835 -0.256135
v -0.525653 0.132841 -0.253844
v -0.576087 0.128159 -0.015226
v -0.357591 -0.093563 -0.435364
v -0.358766 0.155795 -0.435036
vt 0.0005 0.000499
vt 0.0005 0.902274
vt 0.491069 0.918746
vt 0.499624 0.022749
vt 0.997672 0.999501
vt 0.9995 0.122216
vt 0.0005 0.000499
vt 0.499624 0.022749
vt 0.491069 0.918746
vt 0.0005 0.902274
vt 0.9995 0.122216
vt 0.997672 0.999501
vn -0.976742 -0.007181 -0.2143
vn -0.978385 0 -0.206793
vn -0.883638 -0.006604 -0.468125
vn -0.889971 -0.00962 -0.455916
vn -0.736433 -0.004312 -0.676497
vn -0.737774 -0.002589 -0.675043
vn 0.976742 0.007181 0.2143
vn 0.889971 0.00962 0.455916
vn 0.883638 0.006604 0.468125
vn 0.978385 -0 0.206793
vn 0.737774 0.002589 0.675043
vn 0.736433 0.004312 0.676497
usemtl datan_common_Xmas_01_8485033e
f 1/1/1 2/2/2 3/3/3
f 3/3/3 4/4/4 1/1/1
f 4/4/4 3/3/3 5/5/5
f 5/5/5 6/6/6 4/4/4
f 7/7/7 8/8/8 9/9/9
f 9/9/9 10/10/10 7/7/7
f 8/8/8 11/11/11 12/12/12
f 12/12/12 9/9/9 8/8/8
o datan_common_Xmas_01_8485033e_mesh01
v -0.543187 -0.128159 -0.192501
v -0.543187 0.128159 -0.192501
v -0.421483 0.132841 -0.403856
v -0.416808 -0.121835 -0.404745
v -0.206774 0.155795 -0.524608
v -0.205554 -0.093563 -0.524557
v -0.543187 -0.128159 -0.192501
v -0.416808 -0.121835 -0.404745
v -0.421483 0.132841 -0.403856
v -0.543187 0.128159 -0.192501
v -0.205554 -0.093563 -0.524557
v -0.206774 0.155795 -0.524608
vt 0.0005 0.000499
vt 0.0005 0.902274
vt 0.491069 0.918746
vt 0.499624 0.022749
vt 0.997672 0.999501
vt 0.9995 0.122216
vt 0.0005 0.000499
vt 0.499624 0.022749
vt 0.491069 0.918746
vt 0.0005 0.902274
vt 0.9995 0.122216
vt 0.997672 0.999501
vn -0.862714 -0.007181 -0.505641
vn -0.866597 0 -0.49901
vn -0.695731 -0.006604 -0.718272
vn -0.705527 -0.00962 -0.708618
vn -0.49134 -0.004312 -0.870957
vn -0.493065 -0.002589 -0.869989
vn 0.862714 0.007181 0.505641
vn 0.705527 0.00962 0.708618
vn 0.695731 0.006604 0.718272
vn 0.866597 0 0.49901
vn 0.493065 0.002589 0.869989
vn 0.49134 0.004312 0.870957
usemtl datan_common_Xmas_01_8485033e
f 13/13/13 14/14/14 15/15/15
f 15/15/15 16/16/16 13/13/13
f 16/16/16 15/15/15 17/17/17
f 17/17/17 18/18/18 16/16/16
f 19/19/19 20/20/20 21/21/21
f 21/21/21 22/22/22 19/19/19
f 20/20/20 23/23/23 24/24/24
f 24/24/24 21/21/21 20/20/20
o datan_common_Xmas_01_8485033e_mesh02
v -0.576087 -0.128159 0.015225
v -0.576087 0.128159 0.015225
v -0.525653 0.132841 0.253844
v -0.521481 -0.121835 0.256135
v -0.358766 0.155795 0.435035
v -0.357591 -0.093563 0.435364
v -0.576087 -0.128159 0.015225
v -0.521481 -0.121835 0.256135
v -0.525653 0.132841 0.253844
v -0.576087 0.128159 0.015225
v -0.357591 -0.093563 0.435364
v -0.358766 0.155795 0.435035
vt 0.0005 0.000499
vt 0.0005 0.902274
vt 0.491069 0.918746
vt 0.499624 0.022749
vt 0.997672 0.999501
vt 0.9995 0.122216
vt 0.0005 0.000499
vt 0.499624 0.022749
vt 0.491069 0.918746
vt 0.0005 0.902274
vt 0.9995 0.122216
vt 0.997672 0.999501
vn 0.976742 0.007181 -0.2143
vn 0.978385 -0 -0.206793
vn 0.883638 0.006604 -0.468125
vn 0.889971 0.00962 -0.455915
vn 0.736433 0.004312 -0.676497
vn 0.737774 0.002589 -0.675043
vn -0.976742 -0.007181 0.2143
vn -0.889971 -0.00962 0.455915
vn -0.883638 -0.006604 0.468125
vn -0.978385 0 0.206793
vn -0.737774 -0.002589 0.675043
vn -0.736433 -0.004312 0.676497
usemtl datan_common_Xmas_01_8485033e
f 25/25/25 26/26/26 27/27/27
f 27/27/27 28/28/28 25/25/25
f 28/28/28 27/27/27 29/29/29
f 29/29/29 30/30/30 28/28/28
f 31/31/31 32/32/32 33/33/33
f 33/33/33 34/34/34 31/31/31
f 32/32/32 35/35/35 36/36/36
f 36/36/36 33/33/33 32/32/32
o datan_common_Xmas_01_8485033e_mesh03
v 0.576087 -0.128159 -0.015225
v 0.576087 0.128159 -0.015225
v 0.525653 0.132841 -0.253844
v 0.521481 -0.121835 -0.256135
v 0.358766 0.155795 -0.435036
v 0.357591 -0.093563 -0.435364
v 0.576087 -0.128159 -0.015225
v 0.521481 -0.121835 -0.256135
v 0.525653 0.132841 -0.253844
v 0.576087 0.128159 -0.015225
v 0.357591 -0.093563 -0.435364
v 0.358766 0.155795 -0.435036
vt 0.0005 0.000499
vt 0.0005 0.902274
vt 0.491069 0.918746
vt 0.499624 0.022749
vt 0.997672 0.999501
vt 0.9995 0.122216
vt 0.0005 0.000499
vt 0.499624 0.022749
vt 0.491069 0.918746
vt 0.0005 0.902274
vt 0.9995 0.122216
vt 0.997672 0.999501
vn -0.976742 0.007181 0.2143
vn -0.978385 0 0.206793
vn -0.883638 0.006604 0.468125
vn -0.889971 0.00962 0.455915
vn -0.736433 0.004312 0.676497
vn -0.737774 0.002589 0.675043
vn 0.976742 -0.007181 -0.2143
vn 0.889971 -0.00962 -0.455915
vn 0.883638 -0.006604 -0.468125
vn 0.978385 -0 -0.206793
vn 0.737774 -0.002589 -0.675043
vn 0.736433 -0.004312 -0.676497
usemtl datan_common_Xmas_01_8485033e
f 37/37/37 38/38/38 39/39/39
f 39/39/39 40/40/40 37/37/37
f 40/40/40 39/39/39 41/41/41
f 41/41/41 42/42/42 40/40/40
f 43/43/43 44/44/44 45/45/45
f 45/45/45 46/46/46 43/43/43
f 44/44/44 47/47/47 48/48/48
f 48/48/48 45/45/45 44/44/44
o datan_common_Xmas_01_8485033e_mesh04
v -0.324062 0.210266 0.357234
v 0.374338 0.210266 0.357234
v 0.374338 0.210266 -0.341166
v -0.324062 0.210266 -0.341166
v -0.324062 -0.006668 0.357234
v 0.374338 -0.006668 0.357234
v 0.374338 0.210266 0.357234
v -0.324062 0.210266 0.357234
v 0.374338 -0.006668 0.357234
v 0.374338 -0.006668 -0.341166
v 0.374338 0.210266 -0.341166
v 0.374338 0.210266 0.357234
v 0.374338 -0.006668 -0.341166
v -0.324062 -0.006668 -0.341166
v -0.324062 0.210266 -0.341166
v 0.374338 0.210266 -0.341166
v -0.324062 -0.006668 -0.341166
v -0.324062 -0.006668 0.357234
v -0.324062 0.210266 0.357234
v -0.324062 0.210266 -0.341166
v -0.289142 -0.434649 0.322314
v 0.339418 -0.434649 0.322314
v 0.339418 0.016036 0.322314
v -0.289142 0.016036 0.322314
v 0.339418 -0.434649 0.322314
v 0.339418 -0.434649 -0.306246
v 0.339418 0.016036 -0.306246
v 0.339418 0.016036 0.322314
v 0.339418 -0.434649 -0.306246
v -0.289142 -0.434649 -0.306246
v -0.289142 0.016036 -0.306246
v 0.339418 0.016036 -0.306246
v -0.289142 -0.434649 -0.306246
v -0.289142 -0.434649 0.322314
v -0.289142 0.016036 0.322314
v -0.289142 0.016036 -0.306246
vt 0.0005 0.0005
vt 0.9995 0.000499
vt 0.999501 0.9995
vt 0.0005 0.999501
vt -0.000399 -0.001125
vt 0.998601 -0.001126
vt 0.998602 0.317443
vt -0.000399 0.317443
vt -0.00005 -0.002496
vt 0.998951 -0.002496
vt 0.998951 0.316072
vt -0.000049 0.316073
vt 0.0005 -0.001126
vt 0.999501 -0.001125
vt 0.999501 0.298986
vt 0.0005 0.298986
vt 0.998951 -0.002496
vt -0.000049 -0.002496
vt -0.000049 0.316072
vt 0.998951 0.316072
vt 0.0005 0.0005
vt 0.9995 0.0005
vt 0.9995 0.999501
vt 0.0005 0.999501
vt 0.0005 0.000499
vt 0.999501 0.0005
vt 0.9995 0.999501
vt 0.0005 0.9995
vt -0.000399 0.0005
vt 0.998602 0.0005
vt 0.998602 0.999501
vt -0.000399 0.999501
vt 0.999501 0.0005
vt 0.0005 0.000499
vt 0.000499 0.9995
vt 0.9995 0.999501
vn 0 1 -0
vn 0 1 0
vn 0 1 -0
vn -0 1 -0
vn 0 0 1
vn 0 0 1
vn 0 0 1
vn 0 0 1
vn 1 0 -0
vn 1 -0 -0
vn 1 0 -0
vn 1 0 0
vn 0 0 -1
vn 0 0 -1
vn 0 0 -1
vn 0 0 -1
vn -1 0 -0
vn -1 0 -0
vn -1 0 -0
vn -1 -0 0
vn 0 0 1
vn 0 0 1
vn 0 0 1
vn 0 0 1
vn 1 0 -0
vn 1 -0 -0
vn 1 0 -0
vn 1 0 0
vn 0 0 -1
vn 0 0 -1
vn 0 0 -1
vn 0 0 -1
vn -1 0 -0
vn -1 0 -0
vn -1 0 -0
vn -1 -0 0
usemtl datan_common_Xmas_01_8485033e
f 49/49/49 50/50/50 51/51/51
f 51/51/51 52/52/52 49/49/49
f 53/53/53 54/54/54 55/55/55
f 55/55/55 56/56/56 53/53/53
f 57/57/57 58/58/58 59/59/59
f 59/59/59 60/60/60 57/57/57
f 61/61/61 62/62/62 63/63/63
f 63/63/63 64/64/64 61/61/61
f 65/65/65 66/66/66 67/67/67
f 67/67/67 68/68/68 65/65/65
f 69/69/69 70/70/70 71/71/71
f 71/71/71 72/72/72 69/69/69
f 73/73/73 74/74/74 75/75/75
f 75/75/75 76/76/76 73/73/73
f 77/77/77 78/78/78 79/79/79
f 79/79/79 80/80/80 77/77/77
f 81/81/81 82/82/82 83/83/83
f 83/83/83 84/84/84 81/81/81
o datan_common_Xmas_01_8485033e_mesh05
v 0.270821 0.312865 -0.127085
v -0.056483 0.207471 -0.037101
v -0.056483 0.207471 0.025805
v 0.270821 0.312865 0.100349
v 0.508067 0.2179 -0.083604
v 0.508067 0.2179 0.072351
v 0.126983 0.434648 0.149326
v 0.198238 0.434648 0.064407
v 0.013373 0.224244 -0.014543
v 0.013373 0.224244 -0.014543
v 0.219819 0.273946 0.095986
v 0.148564 0.273946 0.167435
v 0.394765 0.382492 0.177358
v 0.272352 0.382492 0.323244
v 0.119083 0.434648 -0.183316
v 0.013373 0.224244 -0.014543
v 0.190338 0.434649 -0.098397
v 0.013373 0.224244 -0.014543
v 0.140664 0.273946 -0.201425
v 0.211919 0.273946 -0.116506
v 0.264452 0.382492 -0.357234
v 0.386865 0.382492 -0.211348
v -0.090301 0.434649 -0.180294
v -0.161556 0.434648 -0.095375
v -0.183137 0.273946 -0.113484
v -0.111882 0.273946 -0.198402
v -0.358083 0.382492 -0.208325
v -0.23567 0.382492 -0.354212
v -0.270821 0.312865 -0.127085
v 0.056482 0.20747 0.025805
v 0.056482 0.20747 -0.037101
v -0.270821 0.312865 0.116477
v -0.508067 0.2179 -0.083604
v -0.508067 0.2179 0.072351
v -0.102274 0.434649 0.156113
v -0.17353 0.434648 0.071194
v -0.123855 0.273946 0.174221
v -0.195111 0.273946 0.089302
v -0.247644 0.382492 0.330031
v -0.370057 0.382492 0.184144
v -0.056483 0.207471 0.025805
v 0.287572 0.226007 0.122833
v 0.287572 0.226007 -0.133439
v -0.056483 0.207471 -0.037101
v 0.508067 0.2179 0.072351
v 0.508067 0.2179 -0.083604
v 0.270821 0.312865 0.100349
v 0.270821 0.312865 -0.127085
v 0.198238 0.434648 0.064407
v 0.126983 0.434648 0.149326
v 0.013373 0.224244 -0.014543
v 0.013373 0.224244 -0.014543
v 0.148564 0.273946 0.167435
v 0.219819 0.273946 0.095986
v 0.272352 0.382492 0.323244
v 0.394765 0.382492 0.177358
v 0.190338 0.434649 -0.098397
v 0.013373 0.224244 -0.014543
v 0.119083 0.434648 -0.183316
v 0.013373 0.224244 -0.014543
v 0.211919 0.273946 -0.116506
v 0.140664 0.273946 -0.201425
v 0.386865 0.382492 -0.211348
v 0.264452 0.382492 -0.357234
v -0.161556 0.434648 -0.095375
v -0.090301 0.434649 -0.180294
v -0.111882 0.273946 -0.198402
v -0.183137 0.273946 -0.113484
v -0.23567 0.382492 -0.354212
v -0.358083 0.382492 -0.208325
v 0.056482 0.20747 0.025805
v -0.287572 0.226007 -0.133439
v -0.287572 0.226007 0.122833
v 0.056482 0.20747 -0.037101
v -0.508067 0.2179 -0.083604
v -0.508067 0.2179 0.072351
v -0.270821 0.312865 -0.127085
v -0.270821 0.312865 0.116477
v -0.17353 0.434648 0.071194
v -0.102274 0.434649 0.156113
v -0.195111 0.273946 0.089302
v -0.123855 0.273946 0.174221
v -0.370057 0.382492 0.184144
v -0.247644 0.382492 0.330031
v -0.206598 0.209855 0.504607
v -0.095751 0.144189 0.469179
v -0.152908 0.175902 0.483148
v -0.152908 0.175902 0.483148
v -0.112033 0.209855 0.529946
v -0.095751 0.144189 0.469179
v -0.206598 0.209855 0.504607
v -0.190315 0.144189 0.44384
v -0.084436 0.14917 0.426951
v -0.179001 0.14917 0.401612
v -0.064476 0.229349 0.354457
v -0.152496 0.234677 0.349803
v -0.029419 0.266872 0.263371
v -0.105903 0.266872 0.241183
v 0.031983 0.219091 0.019
v -0.020038 0.219091 0.005061
v -0.206598 0.209855 0.504607
v -0.190315 0.144189 0.44384
v -0.095751 0.144189 0.469179
v -0.112033 0.209855 0.529946
v -0.152908 0.175902 0.483148
v -0.206598 0.209855 0.504607
v -0.152908 0.175902 0.483148
v -0.095751 0.144189 0.469179
v 0.240159 0.171214 0.521962
v 0.186469 0.148876 0.484634
v 0.129312 0.134242 0.455147
v 0.186469 0.148876 0.484634
v 0.129312 0.134242 0.455147
v 0.145594 0.151804 0.538249
v 0.240159 0.171214 0.521962
v 0.223877 0.146912 0.433203
v 0.117997 0.14917 0.426951
v 0.212562 0.14917 0.401612
v 0.098038 0.229349 0.354457
v 0.186057 0.229349 0.344742
v 0.06298 0.266872 0.263371
v 0.139464 0.266872 0.241183
v 0.001578 0.219091 0.019
v 0.053599 0.219091 0.005061
v 0.240159 0.171214 0.521962
v 0.129312 0.134242 0.455147
v 0.223877 0.146912 0.433203
v 0.186469 0.148876 0.484634
v 0.145594 0.151804 0.538249
v 0.240159 0.171214 0.521962
v 0.129312 0.134242 0.455147
v 0.186469 0.148876 0.484634
vt 0.445502 0.509507
vt 0.994702 0.509507
vt 0.994702 0.999501
vt 0.445502 0.9995
vt 0.002899 0.509507
vt 0.002899 0.999501
vt 0.404392 0.509507
vt 0.404392 0.9995
vt 0.996059 0.999501
vt 0.996059 0.509507
vt 0.404391 0.999501
vt 0.404391 0.509507
vt 0.005074 0.999501
vt 0.005074 0.509507
vt 0.484235 0.509507
vt 0.994702 0.999501
vt 0.484235 0.9995
vt 0.994702 0.509507
vt 0.484235 0.509507
vt 0.484235 0.9995
vt 0.002899 0.509507
vt 0.002899 0.9995
vt 0.484235 0.509507
vt 0.484235 0.9995
vt 0.484235 0.9995
vt 0.484235 0.509507
vt 0.002899 0.9995
vt 0.002899 0.509507
vt 0.445502 0.509507
vt 0.994702 0.999501
vt 0.994702 0.509507
vt 0.445502 0.9995
vt 0.002899 0.509507
vt 0.002899 0.999501
vt 0.484235 0.509507
vt 0.484235 0.9995
vt 0.484235 0.509507
vt 0.484235 0.9995
vt 0.002899 0.509507
vt 0.002899 0.9995
vt 0.994702 0.499316
vt 0.404391 0.499316
vt 0.404391 0.009322
vt 0.994702 0.009322
vt 0.002899 0.499316
vt 0.002899 0.009322
vt 0.445502 0.499316
vt 0.445502 0.009322
vt 0.404392 0.499316
vt 0.404392 0.009322
vt 0.996059 0.009322
vt 0.996059 0.499316
vt 0.404391 0.009322
vt 0.404391 0.499316
vt 0.005074 0.009322
vt 0.005074 0.499316
vt 0.484235 0.499316
vt 0.994702 0.009322
vt 0.484235 0.009322
vt 0.994702 0.499316
vt 0.484235 0.499316
vt 0.484235 0.009322
vt 0.002899 0.499316
vt 0.002899 0.009322
vt 0.484235 0.499316
vt 0.484235 0.009322
vt 0.484235 0.009322
vt 0.484235 0.499316
vt 0.002899 0.009322
vt 0.002899 0.499316
vt 0.994702 0.499316
vt 0.404391 0.009322
vt 0.404391 0.499316
vt 0.994702 0.009322
vt 0.002899 0.009322
vt 0.002899 0.499316
vt 0.445502 0.009322
vt 0.445502 0.499316
vt 0.484235 0.499316
vt 0.484235 0.009322
vt 0.484235 0.499316
vt 0.484235 0.009322
vt 0.002899 0.499316
vt 0.002899 0.009322
vt 0.0005 0.984536
vt 0.215573 0.527018
vt 0.098668 0.755777
vt 0.098668 0.755777
vt 0.0005 0.527018
vt 0.215573 0.527018
vt 0.0005 0.984536
vt 0.215573 0.984536
vt 0.3056 0.527018
vt 0.3056 0.984536
vt 0.429886 0.527018
vt 0.429886 0.984536
vt 0.549724 0.527018
vt 0.549724 0.984536
vt 0.9995 0.527018
vt 0.9995 0.984536
vt 0.0005 0.475123
vt 0.215573 0.475123
vt 0.215573 0.017605
vt 0.0005 0.017605
vt 0.098668 0.246364
vt 0.0005 0.475123
vt 0.098668 0.246364
vt 0.215573 0.017605
vt 0.0005 0.984536
vt 0.098668 0.755777
vt 0.215573 0.527018
vt 0.098668 0.755777
vt 0.215573 0.527018
vt 0.0005 0.527018
vt 0.0005 0.984536
vt 0.215573 0.984536
vt 0.3056 0.527018
vt 0.3056 0.984536
vt 0.429886 0.527018
vt 0.429886 0.984536
vt 0.549724 0.527018
vt 0.549724 0.984536
vt 0.9995 0.527018
vt 0.9995 0.984536
vt 0.0005 0.475123
vt 0.215573 0.017605
vt 0.215573 0.475123
vt 0.098668 0.246364
vt 0.0005 0.017605
vt 0.0005 0.475123
vt 0.215573 0.017605
vt 0.098668 0.246364
vn 0.046198 0.998932 -0
vn -0.306509 0.951868 -0
vn -0.306509 0.951868 -0
vn 0.047944 0.99885 -0
vn 0.371613 0.928388 -0
vn 0.371613 0.928388 -0
vn -0.177733 0.972712 -0.149136
vn -0.174655 0.973662 -0.146553
vn -0.020001 -0.999797 0.002428
vn -0.020001 -0.999797 0.002428
vn 0.281548 -0.917546 0.280785
vn 0.272262 -0.927351 0.256699
vn 0.740939 0.194568 0.642769
vn 0.758183 0.142894 0.636191
vn -0.175212 0.973492 0.14702
vn -0.020001 -0.999797 0.002428
vn -0.181512 0.971523 0.152306
vn -0.020001 -0.999797 0.002428
vn 0.289146 -0.926029 -0.242622
vn 0.287281 -0.927017 -0.241058
vn 0.758183 0.142894 -0.636191
vn 0.758183 0.142895 -0.636191
vn 0.178362 0.972516 0.149664
vn 0.183685 0.970826 0.154131
vn -0.288655 -0.92629 -0.24221
vn -0.290206 -0.925463 -0.243512
vn -0.758183 0.142895 -0.636191
vn -0.758184 0.142894 -0.636191
vn -0.046198 0.998932 -0
vn 0.306509 0.951868 0
vn 0.306509 0.951868 0
vn -0.046139 0.998935 0
vn -0.371613 0.928388 0
vn -0.371613 0.928388 0
vn 0.171341 0.974665 -0.143773
vn 0.17232 0.974371 -0.144594
vn -0.285438 -0.927987 0.239511
vn -0.285137 -0.928145 0.239259
vn -0.758184 0.142894 0.636191
vn -0.758183 0.142895 0.636191
vn -0.053798 0.998552 -0
vn -0.007688 0.99997 -0
vn -0.007673 0.999971 -0
vn -0.053798 0.998552 -0
vn -0.921747 0.387791 -0
vn -0.956547 0.29158 -0
vn -0.371613 -0.928388 -0
vn -0.371613 -0.928388 -0
vn 0.565371 -0.674757 0.474403
vn 0.565371 -0.674757 0.474403
vn 0.020001 0.999797 -0.002428
vn 0.020001 0.999797 -0.002428
vn -0.257024 0.931791 -0.256328
vn -0.278899 0.923769 -0.262425
vn -0.372828 0.867867 -0.328338
vn -0.385612 0.864065 -0.323567
vn 0.569262 -0.66916 -0.477667
vn 0.020001 0.999797 -0.002428
vn 0.569262 -0.66916 -0.477667
vn 0.020001 0.999797 -0.002428
vn -0.287281 0.927017 0.241058
vn -0.289146 0.926029 0.242622
vn -0.372611 0.873731 0.312657
vn -0.372611 0.873731 0.312657
vn -0.573989 -0.662242 -0.481634
vn -0.573989 -0.662242 -0.481634
vn 0.290207 0.925463 0.243512
vn 0.288655 0.92629 0.24221
vn 0.372611 0.873731 0.312658
vn 0.372611 0.873731 0.312658
vn 0.053798 0.998552 0
vn 0.007673 0.999971 0
vn 0.007688 0.99997 0
vn 0.053798 0.998552 0
vn 0.956546 0.29158 -0
vn 0.956425 0.291977 0
vn 0.371613 -0.928388 -0
vn 0.371613 -0.928388 0
vn -0.557492 -0.685838 0.467792
vn -0.557492 -0.685838 0.467792
vn 0.285137 0.928145 -0.239259
vn 0.285438 0.927987 -0.239511
vn 0.372611 0.873731 -0.312658
vn 0.372611 0.873731 -0.312658
vn -0.152768 -0.656444 0.738744
vn -0.187603 -0.675759 0.712849
vn 0.397524 0.858808 -0.323145
vn -0.397524 -0.858808 0.323145
vn 0.215128 0.691495 -0.689605
vn 0.08647 0.940117 -0.3297
vn 0.152768 0.656444 -0.738744
vn 0.087943 0.940502 -0.32821
vn -0.116297 0.893363 0.434026
vn -0.076311 0.881676 0.465645
vn -0.025956 0.808107 0.588463
vn -0.013634 0.737877 0.674798
vn 0.011232 0.997904 0.063734
vn -0.015121 0.998573 0.05122
vn 0.049185 0.982304 -0.180722
vn 0.048531 0.982263 -0.18112
vn -0.152768 -0.656444 0.738744
vn -0.186892 -0.691792 0.697492
vn -0.187603 -0.675759 0.712849
vn -0.215128 -0.691495 0.689605
vn 0.397524 0.858808 -0.323145
vn 0.152768 0.656444 -0.738744
vn -0.397524 -0.858808 0.323145
vn 0.08647 0.940117 -0.3297
vn 0.249981 -0.961141 0.117126
vn 0.229473 0.61833 -0.751671
vn 0.201242 -0.968875 0.144166
vn -0.229473 -0.61833 0.751671
vn -0.106673 0.976577 0.186864
vn -0.158918 0.971797 -0.17423
vn -0.249981 0.961141 -0.117126
vn -0.089687 0.995024 -0.043404
vn 0.098568 0.818317 0.566252
vn 0.084548 0.904344 0.418346
vn 0.086887 0.825722 0.557346
vn 0.080009 0.770397 0.632525
vn 0.007978 0.997207 0.074266
vn 0.023432 0.99653 0.079866
vn -0.049185 0.982304 -0.180722
vn -0.048531 0.982263 -0.18112
vn 0.249981 -0.961141 0.117126
vn 0.201242 -0.968875 0.144166
vn 0.181205 -0.956494 0.228655
vn 0.229473 0.61833 -0.751671
vn 0.158918 -0.971797 0.17423
vn -0.249981 0.961141 -0.117126
vn -0.106673 0.976577 0.186864
vn -0.229473 -0.61833 0.751671
usemtl datan_common_Xmas_01_8485033e
f 85/85/85 86/86/86 87/87/87
f 85/85/85 87/87/87 88/88/88
f 89/89/89 85/85/85 88/88/88
f 89/89/89 88/88/88 90/90/90
f 91/91/91 92/92/92 93/93/93
f 94/94/94 95/95/95 96/96/96
f 96/96/96 97/97/97 98/98/98
f 96/96/96 95/95/95 97/97/97
f 98/98/98 92/92/92 91/91/91
f 98/98/98 97/97/97 92/92/92
f 99/99/99 100/100/100 101/101/101
f 102/102/102 103/103/103 104/104/104
f 103/103/103 105/105/105 106/106/106
f 103/103/103 106/106/106 104/104/104
f 105/105/105 99/99/99 101/101/101
f 105/105/105 101/101/101 106/106/106
f 107/107/107 108/108/108 100/100/100
f 102/102/102 109/109/109 110/110/110
f 110/110/110 111/111/111 112/112/112
f 110/110/110 109/109/109 111/111/111
f 112/112/112 108/108/108 107/107/107
f 112/112/112 111/111/111 108/108/108
f 113/113/113 114/114/114 115/115/115
f 113/113/113 116/116/116 114/114/114
f 117/117/117 116/116/116 113/113/113
f 117/117/117 118/118/118 116/116/116
f 119/119/119 100/100/100 120/120/120
f 102/102/102 121/121/121 122/122/122
f 121/121/121 123/123/123 124/124/124
f 121/121/121 124/124/124 122/122/122
f 123/123/123 119/119/119 120/120/120
f 123/123/123 120/120/120 124/124/124
f 125/125/125 126/126/126 127/127/127
f 125/125/125 127/127/127 128/128/128
f 126/126/126 129/129/129 130/130/130
f 126/126/126 130/130/130 127/127/127
f 129/129/129 131/131/131 132/132/132
f 129/129/129 132/132/132 130/130/130
f 133/133/133 134/134/134 135/135/135
f 136/136/136 137/137/137 138/138/138
f 138/138/138 139/139/139 140/140/140
f 138/138/138 137/137/137 139/139/139
f 141/141/141 142/142/142 143/143/143
f 144/144/144 145/145/145 146/146/146
f 145/145/145 147/147/147 148/148/148
f 145/145/145 148/148/148 146/146/146
f 149/149/149 150/150/150 142/142/142
f 144/144/144 151/151/151 152/152/152
f 152/152/152 153/153/153 154/154/154
f 152/152/152 151/151/151 153/153/153
f 155/155/155 156/156/156 157/157/157
f 155/155/155 158/158/158 156/156/156
f 157/157/157 159/159/159 160/160/160
f 157/157/157 156/156/156 159/159/159
f 160/160/160 161/161/161 162/162/162
f 160/160/160 159/159/159 161/161/161
f 163/163/163 142/142/142 164/164/164
f 144/144/144 165/165/165 166/166/166
f 165/165/165 167/167/167 168/168/168
f 165/165/165 168/168/168 166/166/166
f 169/169/169 170/170/170 171/171/171
f 172/172/172 173/173/173 174/174/174
f 175/175/175 172/172/172 174/174/174
f 175/175/175 174/174/174 176/176/176
f 177/177/177 178/178/178 176/176/176
f 176/176/176 174/174/174 177/177/177
f 179/179/179 180/180/180 178/178/178
f 178/178/178 177/177/177 179/179/179
f 181/181/181 182/182/182 180/180/180
f 180/180/180 179/179/179 181/181/181
f 183/183/183 184/184/184 182/182/182
f 182/182/182 181/181/181 183/183/183
f 185/185/185 186/186/186 187/187/187
f 187/187/187 188/188/188 189/189/189
f 185/185/185 187/187/187 189/189/189
f 190/190/190 191/191/191 192/192/192
f 193/193/193 194/194/194 195/195/195
f 196/196/196 197/197/197 198/198/198
f 199/199/199 197/197/197 196/196/196
f 199/199/199 200/200/200 197/197/197
f 201/201/201 200/200/200 202/202/202
f 200/200/200 201/201/201 197/197/197
f 203/203/203 202/202/202 204/204/204
f 202/202/202 203/203/203 201/201/201
f 205/205/205 204/204/204 206/206/206
f 204/204/204 205/205/205 203/203/203
f 207/207/207 206/206/206 208/208/208
f 206/206/206 207/207/207 205/205/205
f 209/209/209 210/210/210 211/211/211
f 210/210/210 212/212/212 213/213/213
f 209/209/209 212/212/212 210/210/210
f 214/214/214 215/215/215 216/216/216
