# Generated from Nova1492 GX by tools/nova1492/GxObjConverter
mtllib datan_common_dol09_d1715784.mtl
o datan_common_dol09_d1715784_mesh00
v 0.478172 0.722796 -1.168002
v 0.998479 1.492796 -1.312899
v 0.981416 0.718417 -1.828437
v 1.804502 0.799992 -0.768264
v 0.998479 1.492796 -1.312899
v 0.845638 0.599073 -0.415782
v 2.203095 0.002745 -1.565055
v 1.691934 0.002745 -1.850123
v 1.774237 0.718417 -1.550304
v 1.774237 0.718417 -1.550304
v 0.981416 0.718417 -1.828437
v 0.998479 1.492796 -1.312899
v 0.998479 1.492796 -1.312899
v 1.602115 1.325369 -1.231173
v 1.774237 0.718417 -1.550304
v 0.4489 0.002745 -1.966138
v 0.230445 0.002745 -1.361613
v 0.478172 0.722796 -1.168002
v 0.478172 0.722796 -1.168002
v 0.981416 0.718417 -1.828437
v 0.4489 0.002745 -1.966138
v 0.478172 0.722796 -1.168002
v 0.845638 0.599073 -0.415782
v 0.998479 1.492796 -1.312899
v 1.434951 0.002745 -0.486213
v 2.004317 0.002745 -0.772926
v 1.804502 0.799992 -0.768264
v 1.602115 1.325369 -1.231173
v 1.804502 0.799992 -0.768264
v 1.774237 0.718417 -1.550304
v 1.602115 1.325369 -1.231173
v 0.998479 1.492796 -1.312899
v 1.804502 0.799992 -0.768264
v -1.713387 0.259451 -1.93623
v -1.485603 0.779148 -1.849314
v -1.339496 0.402544 -2.363557
v -0.180227 0.231964 -1.461356
v -0.509076 0.852317 -1.571985
v -0.685163 0.528355 -0.837883
v -0.676551 0.580624 -2.108108
v -0.973075 0.977486 -1.521035
v -0.509076 0.852317 -1.571985
v -1.339496 0.402544 -2.363557
v -1.485603 0.779148 -1.849314
v -0.676551 0.580624 -2.108108
v -1.762754 0.002745 -2.133291
v -1.713387 0.259451 -1.93623
v -1.339496 0.402544 -2.363557
v -2.203095 0.002745 -1.058069
v -1.314961 0 -0.539044
v -1.792685 0.474025 -1.262976
v -0.685163 0.528355 -0.837883
v -1.314961 0 -0.539044
v -0.605837 0.002745 -0.614937
v 0.024964 0.002745 -1.019462
v -0.036469 0.002745 -1.708638
v -0.180227 0.231964 -1.461356
v -0.180227 0.231964 -1.461356
v -0.685163 0.528355 -0.837883
v 0.024964 0.002745 -1.019462
v -0.180227 0.231964 -1.461356
v -0.036469 0.002745 -1.708638
v -0.676551 0.580624 -2.108108
v -0.973075 0.977486 -1.521035
v -1.485603 0.779148 -1.849314
v -1.792685 0.474025 -1.262976
v -1.792685 0.474025 -1.262976
v -0.685163 0.528355 -0.837883
v -0.973075 0.977486 -1.521035
v -0.973075 0.977486 -1.521035
v -0.685163 0.528355 -0.837883
v -0.509076 0.852317 -1.571985
v -0.676551 0.580624 -2.108108
v -1.485603 0.779148 -1.849314
v -0.973075 0.977486 -1.521035
v 1.095006 0.520957 0.307931
v 0.066675 0.48215 -0.002016
v 0.447318 0.513854 0.759519
v 0.447318 0.513854 0.759519
v 1.022317 0.403882 1.084345
v 1.095006 0.520957 0.307931
v 0.476856 0.003117 1.11796
v 1.055363 0.003117 1.261978
v 1.022317 0.403882 1.084345
v 0.447318 0.513854 0.759519
v 0.476856 0.003117 1.11796
v 1.022317 0.403882 1.084345
v 0.066675 0.48215 -0.002016
v 1.095006 0.520957 0.307931
v 0.686562 0.003626 -0.200161
v -0.033421 0.002745 -0.042789
v -0.858227 0.631471 -0.387758
v -0.321219 0.435825 0.555322
v -1.857607 0.002745 0.316274
v -1.296359 0.498096 0.837387
v -1.570494 0.498096 0.105567
v -0.183801 0.002745 0.859162
v -0.326665 0.002745 0.490173
v -0.321219 0.435825 0.555322
v -0.033421 0.002745 -0.042789
v -0.669841 0.002745 -0.531362
v -0.858227 0.631471 -0.387758
v -0.321219 0.435825 0.555322
v -0.858227 0.631471 -0.387758
v -0.745293 0.95914 0.366689
v -1.50595 0.002745 -0.291612
v -1.857607 0.002745 0.316274
v -1.570494 0.498096 0.105567
v -1.570494 0.498096 0.105567
v -1.341184 0.498096 -0.230328
v -1.50595 0.002745 -0.291612
v -1.341184 0.498096 -0.230328
v -1.252669 1.043117 0.590575
v -0.745293 0.95914 0.366689
v -0.991083 0.002745 1.234113
v -0.183801 0.002745 0.859162
v -0.321219 0.435825 0.555322
v -0.991083 0.002745 1.234113
v -0.321219 0.435825 0.555322
v -1.296359 0.498096 0.837387
vt 0.147756 0.535454
vt 0.417125 0.96792
vt 0.810669 0.470528
vt 0.842124 0.348922
vt 0.4263 0.934587
vt 0.34745 0.065413
vt 1.038193 0.006797
vt 0.568958 0.041883
vt 0.77936 0.977926
vt 0.803242 0.562742
vt 0.196758 0.84991
vt 0.209811 0.317624
vt 0.209811 0.317624
vt 0.671574 0.233243
vt 0.803242 0.562742
vt 0.70896 0.021045
vt 0.220188 0.098842
vt 0.147756 0.535454
vt 0.147756 0.535454
vt 0.810669 0.470528
vt 0.70896 0.021045
vt 0.157876 0.552679
vt 0.34745 0.065413
vt 0.4263 0.934587
vt 0.544026 0.13633
vt 0.992554 0.149186
vt 0.877758 0.740176
vt 0.557353 0.999692
vt 0.199743 0.618645
vt 0.793977 0.577421
vt 0.59684 0.668068
vt 0.658148 0.397746
vt 0.797728 0.625778
vt 0.186376 0.305408
vt 0.298948 1.074472
vt 0.497841 0.517162
vt 0.957604 0.750419
vt 0.714299 0.7775
vt 0.705113 0.2225
vt 0.800481 0.600283
vt 0.757159 0.999501
vt 0.655094 0.829021
vt 0.497841 0.517162
vt 0.298948 1.074472
vt 0.824916 0.78069
vt 0.201592 -0.074472
vt 0.186376 0.305408
vt 0.497841 0.517162
vt 0.19167 0.003168
vt 0.360066 0.000499
vt 0.271811 0.391805
vt 0.500551 0.531821
vt 0.086186 0.011997
vt 0.462256 0.008127
vt 0.574785 0.003168
vt 0.663494 0.003168
vt 0.629925 0.225987
vt 0.629925 0.225987
vt 0.527218 0.391805
vt 0.574785 0.003168
vt 0.72512 0.256874
vt 0.797824 -0.028087
vt 0.202176 0.690323
vt 0.572577 0.854643
vt 0.309575 0.863423
vt 0.23 0.487142
vt 0.23 0.487142
vt 0.77 0.436932
vt 0.572577 0.854643
vt 0.402603 0.667082
vt 0.705113 0.2225
vt 0.714299 0.7775
vt 0.800481 0.600283
vt 0.922591 0.780442
vt 0.757159 0.999501
vt 0.209835 0.570085
vt 0.39875 0.115158
vt 0.461722 0.534057
vt 0.461722 0.534057
vt 0.477465 0.999501
vt 0.281379 0.828623
vt 0.580987 0.000499
vt 0.697005 0.000499
vt 0.682949 0.279579
vt 0.517523 0.367136
vt 0.580987 0.000499
vt 0.604396 0.546306
vt 0.13 0.33226
vt 0.87 0.331632
vt 0.494093 0.993222
vt 0.513856 0.000499
vt 0.999501 0.794427
vt 0.0005 0.475254
vt 0.162781 0.000499
vt 0.247807 0.421132
vt 0.119845 0.421132
vt 0.139119 0.031242
vt 0.493505 0.052535
vt 0.437572 0.637837
vt 0.717337 0.000499
vt 0.873961 0.000499
vt 0.911243 0.534389
vt 0.0005 0.475254
vt 0.999501 0.794427
vt 0.248898 0.999501
vt 0.044172 0.000499
vt 0.162781 0.000499
vt 0.119845 0.421132
vt 0.119845 0.421132
vt 0.030635 0.421132
vt 0.044172 0.000499
vt 0.030635 0.421132
vt 0.154963 0.894343
vt 0.022127 0.841764
vt 0.178269 0.000499
vt 0.999501 0.16953
vt 0.945598 0.959491
vt 0.178269 0.000499
vt 0.945598 0.959491
vt 0.000499 0.999501
vn -0.73153 0.388933 -0.559996
vn -0.73153 0.388933 -0.559996
vn -0.73153 0.388933 -0.559996
vn 0.11595 0.69372 0.71085
vn 0.11595 0.69372 0.71085
vn 0.11595 0.69372 0.71085
vn 0.46524 0.295984 -0.834233
vn 0.46524 0.295984 -0.834233
vn 0.46524 0.295984 -0.834233
vn 0.281232 0.527501 -0.801656
vn 0.281232 0.527501 -0.801656
vn 0.281232 0.527501 -0.801656
vn 0.251912 0.505379 -0.825307
vn 0.251912 0.505379 -0.825307
vn 0.251912 0.505379 -0.825307
vn -0.868663 0.38326 -0.313906
vn -0.868663 0.38326 -0.313906
vn -0.868663 0.38326 -0.313906
vn -0.64752 0.577476 -0.497231
vn -0.64752 0.577476 -0.497231
vn -0.64752 0.577476 -0.497231
vn -0.705268 0.55869 0.436421
vn -0.705268 0.55869 0.436421
vn -0.705268 0.55869 0.436421
vn 0.447183 0.106885 0.888033
vn 0.447183 0.106885 0.888033
vn 0.447183 0.106885 0.888033
vn 0.949746 0.305409 -0.068613
vn 0.949746 0.305409 -0.068613
vn 0.949746 0.305409 -0.068613
vn 0.089092 0.677564 0.730048
vn 0.089092 0.677564 0.730048
vn 0.089092 0.677564 0.730048
vn -0.74911 0.414727 -0.516562
vn -0.74911 0.414727 -0.516562
vn -0.74911 0.414727 -0.516562
vn 0.778233 0.483915 0.400226
vn 0.778233 0.483915 0.400226
vn 0.778233 0.483915 0.400226
vn 0.176901 0.854545 -0.488322
vn 0.176901 0.854545 -0.488322
vn 0.176901 0.854545 -0.488322
vn 0.009885 0.808082 -0.588988
vn 0.009885 0.808082 -0.588988
vn 0.009885 0.808082 -0.588988
vn -0.727749 0.50018 -0.469257
vn -0.727749 0.50018 -0.469257
vn -0.727749 0.50018 -0.469257
vn -0.389924 0.631115 0.670561
vn -0.389924 0.631115 0.670561
vn -0.389924 0.631115 0.670561
vn 0.095955 0.400926 0.911071
vn 0.095955 0.400926 0.911071
vn 0.095955 0.400926 0.911071
vn 0.808148 0.584557 -0.072038
vn 0.808148 0.584557 -0.072038
vn 0.808148 0.584557 -0.072038
vn 0.610487 0.782507 0.122425
vn 0.610487 0.782507 0.122425
vn 0.610487 0.782507 0.122425
vn 0.721673 0.663938 -0.195894
vn 0.721673 0.663938 -0.195894
vn 0.721673 0.663938 -0.195894
vn -0.464638 0.861457 0.204948
vn -0.464638 0.861457 0.204948
vn -0.464638 0.861457 0.204948
vn -0.26922 0.748749 0.605719
vn -0.26922 0.748749 0.605719
vn -0.26922 0.748749 0.605719
vn 0.278527 0.852213 0.442894
vn 0.278527 0.852213 0.442894
vn 0.278527 0.852213 0.442894
vn 0.02902 0.834855 -0.549705
vn 0.02902 0.834855 -0.549705
vn 0.02902 0.834855 -0.549705
vn -0.029634 0.999202 -0.026785
vn -0.029634 0.999202 -0.026785
vn -0.029634 0.999202 -0.026785
vn 0.098987 0.982557 0.157427
vn 0.098987 0.982557 0.157427
vn 0.098987 0.982557 0.157427
vn -0.223503 0.379503 0.897789
vn -0.223503 0.379503 0.897789
vn -0.223503 0.379503 0.897789
vn -0.3393 0.527153 0.779092
vn -0.3393 0.527153 0.779092
vn -0.3393 0.527153 0.779092
vn 0.211308 0.594868 -0.775552
vn 0.211308 0.594868 -0.775552
vn 0.211308 0.594868 -0.775552
vn 0.647593 0.730365 -0.217235
vn 0.647593 0.730365 -0.217235
vn 0.647593 0.730365 -0.217235
vn -0.770056 0.569039 0.288459
vn -0.770056 0.569039 0.288459
vn -0.770056 0.569039 0.288459
vn 0.931698 0.042548 -0.360734
vn 0.931698 0.042548 -0.360734
vn 0.931698 0.042548 -0.360734
vn 0.572281 0.34174 -0.745459
vn 0.572281 0.34174 -0.745459
vn 0.572281 0.34174 -0.745459
vn 0.786678 0.514501 -0.341215
vn 0.786678 0.514501 -0.341215
vn 0.786678 0.514501 -0.341215
vn -0.83163 0.277385 -0.481092
vn -0.83163 0.277385 -0.481092
vn -0.83163 0.277385 -0.481092
vn -0.780865 0.325687 -0.533083
vn -0.780865 0.325687 -0.533083
vn -0.780865 0.325687 -0.533083
vn -0.101447 0.833809 -0.542651
vn -0.101447 0.833809 -0.542651
vn -0.101447 0.833809 -0.542651
vn 0.333769 0.610074 0.718616
vn 0.333769 0.610074 0.718616
vn 0.333769 0.610074 0.718616
vn 0.240851 0.692811 0.679708
vn 0.240851 0.692811 0.679708
vn 0.240851 0.692811 0.679708
usemtl datan_common_dol09_d1715784
f 1/1/1 2/2/2 3/3/3
f 4/4/4 5/5/5 6/6/6
f 7/7/7 8/8/8 9/9/9
f 10/10/10 11/11/11 12/12/12
f 13/13/13 14/14/14 15/15/15
f 16/16/16 17/17/17 18/18/18
f 19/19/19 20/20/20 21/21/21
f 22/22/22 23/23/23 24/24/24
f 25/25/25 26/26/26 27/27/27
f 28/28/28 29/29/29 30/30/30
f 31/31/31 32/32/32 33/33/33
f 34/34/34 35/35/35 36/36/36
f 37/37/37 38/38/38 39/39/39
f 40/40/40 41/41/41 42/42/42
f 43/43/43 44/44/44 45/45/45
f 46/46/46 47/47/47 48/48/48
f 49/49/49 50/50/50 51/51/51
f 52/52/52 53/53/53 54/54/54
f 55/55/55 56/56/56 57/57/57
f 58/58/58 59/59/59 60/60/60
f 61/61/61 62/62/62 63/63/63
f 64/64/64 65/65/65 66/66/66
f 67/67/67 68/68/68 69/69/69
f 70/70/70 71/71/71 72/72/72
f 73/73/73 74/74/74 75/75/75
f 76/76/76 77/77/77 78/78/78
f 79/79/79 80/80/80 81/81/81
f 82/82/82 83/83/83 84/84/84
f 85/85/85 86/86/86 87/87/87
f 88/88/88 89/89/89 90/90/90
f 91/91/91 92/92/92 93/93/93
f 94/94/94 95/95/95 96/96/96
f 97/97/97 98/98/98 99/99/99
f 100/100/100 101/101/101 102/102/102
f 103/103/103 104/104/104 105/105/105
f 106/106/106 107/107/107 108/108/108
f 109/109/109 110/110/110 111/111/111
f 112/112/112 113/113/113 114/114/114
f 115/115/115 116/116/116 117/117/117
f 118/118/118 119/119/119 120/120/120
o datan_common_dol09_d1715784_mesh01
v 1.691934 0.002745 -1.850123
v 0.981416 0.718417 -1.828437
v 1.774237 0.718417 -1.550304
v 0.454775 0.002745 -0.714536
v 0.845638 0.599073 -0.415782
v 0.478172 0.722796 -1.168002
v 2.004317 0.002745 -0.772926
v 1.774237 0.718417 -1.550304
v 1.804502 0.799992 -0.768264
v 1.691934 0.002745 -1.850123
v 1.391028 0.002745 -2.17622
v 0.981416 0.718417 -1.828437
v 1.391028 0.002745 -2.17622
v 1.077135 0.002745 -1.83637
v 0.981416 0.718417 -1.828437
v 1.077135 0.002745 -1.83637
v 0.4489 0.002745 -1.966138
v 0.981416 0.718417 -1.828437
v 0.230445 0.002745 -1.361613
v 0.454775 0.002745 -0.714536
v 0.478172 0.722796 -1.168002
v 0.454775 0.002745 -0.714536
v 1.07911 0.002745 -0.026551
v 0.845638 0.599073 -0.415782
v 1.434951 0.002745 -0.486213
v 1.804502 0.799992 -0.768264
v 0.845638 0.599073 -0.415782
v 0.845638 0.599073 -0.415782
v 1.07911 0.002745 -0.026551
v 1.434951 0.002745 -0.486213
v 2.004317 0.002745 -0.772926
v 2.203095 0.002745 -1.565055
v 1.774237 0.718417 -1.550304
v -0.649047 0.002745 -2.128459
v -1.339496 0.402544 -2.363557
v -0.676551 0.580624 -2.108108
v -1.792685 0.474025 -1.262976
v -1.485603 0.779148 -1.849314
v -1.713387 0.259451 -1.93623
v -1.314961 0 -0.539044
v -0.685163 0.528355 -0.837883
v -1.792685 0.474025 -1.262976
v -0.676551 0.580624 -2.108108
v -0.509076 0.852317 -1.571985
v -0.180227 0.231964 -1.461356
v -0.649047 0.002745 -2.128459
v -1.762754 0.002745 -2.133291
v -1.339496 0.402544 -2.363557
v -1.762754 0.002745 -2.133291
v -2.203095 0.002745 -1.058069
v -1.792685 0.474025 -1.262976
v -1.792685 0.474025 -1.262976
v -1.713387 0.259451 -1.93623
v -1.762754 0.002745 -2.133291
v -0.605837 0.002745 -0.614937
v 0.024964 0.002745 -1.019462
v -0.685163 0.528355 -0.837883
v -0.036469 0.002745 -1.708638
v -0.649047 0.002745 -2.128459
v -0.676551 0.580624 -2.108108
v 1.119692 0.003117 0.832091
v 1.095006 0.520957 0.307931
v 1.022317 0.403882 1.084345
v -0.000361 0.003117 0.252492
v 0.476856 0.003117 1.11796
v 0.447318 0.513854 0.759519
v 0.447318 0.513854 0.759519
v 0.066675 0.48215 -0.002016
v -0.000361 0.003117 0.252492
v 1.055363 0.003117 1.261978
v 1.119692 0.003117 0.832091
v 1.022317 0.403882 1.084345
v 1.119692 0.003117 0.832091
v 1.428314 0.003117 0.414305
v 1.095006 0.520957 0.307931
v 1.428314 0.003117 0.414305
v 1.018831 0.003117 0.146646
v 0.686562 0.003626 -0.200161
v 0.686562 0.003626 -0.200161
v 1.095006 0.520957 0.307931
v 1.428314 0.003117 0.414305
v 0.686562 0.003626 -0.200161
v -0.000361 0.003117 0.252492
v 0.066675 0.48215 -0.002016
v -1.026431 0.002745 -0.237626
v -1.341184 0.498096 -0.230328
v -0.858227 0.631471 -0.387758
v -1.570494 0.498096 0.105567
v -1.252669 1.043117 0.590575
v -1.341184 0.498096 -0.230328
v -0.321219 0.435825 0.555322
v -0.745293 0.95914 0.366689
v -1.296359 0.498096 0.837387
v -0.326665 0.002745 0.490173
v -0.033421 0.002745 -0.042789
v -0.321219 0.435825 0.555322
v -0.669841 0.002745 -0.531362
v -1.026431 0.002745 -0.237626
v -0.858227 0.631471 -0.387758
v -1.026431 0.002745 -0.237626
v -1.50595 0.002745 -0.291612
v -1.341184 0.498096 -0.230328
v -0.858227 0.631471 -0.387758
v -1.341184 0.498096 -0.230328
v -0.745293 0.95914 0.366689
v -1.570494 0.498096 0.105567
v -1.296359 0.498096 0.837387
v -1.252669 1.043117 0.590575
v -1.857607 0.002745 0.316274
v -1.31293 0.002745 0.642949
v -1.296359 0.498096 0.837387
v -1.31293 0.002745 0.642949
v -0.991083 0.002745 1.234113
v -1.296359 0.498096 0.837387
v -1.296359 0.498096 0.837387
v -0.745293 0.95914 0.366689
v -1.252669 1.043117 0.590575
vt 0.568958 0.041883
vt 0.138672 1.070325
vt 0.77936 0.977926
vt 0.299536 0.0005
vt 0.36539 0.350988
vt 0.286857 0.547426
vt 0.194277 0.075045
vt 0.793977 0.577421
vt 0.199743 0.618645
vt 0.568958 0.041883
vt 0.208673 0.025881
vt 0.138672 1.070325
vt 0.933664 0.0005
vt 0.998306 0.0005
vt 0.965631 0.421132
vt -0.001694 0.0005
vt 0.078715 0.0005
vt 0.067655 0.421132
vt 0.170904 0.0005
vt 0.228495 0.0005
vt 0.204893 0.305133
vt 0.299536 0.0005
vt 0.421285 0.0005
vt 0.36539 0.350988
vt 0.544026 0.13633
vt 0.877758 0.740176
vt 0.180288 0.646181
vt 0.180288 0.646181
vt 0.13916 -0.012765
vt 0.544026 0.13633
vt 0.194277 0.075045
vt 0.800927 0.001646
vt 0.793977 0.577421
vt 0.845365 -0.074472
vt 0.497841 0.517162
vt 0.824916 0.78069
vt 0.661828 0.600917
vt 0.334801 0.971557
vt 0.291823 0.340269
vt 0.516776 0.060382
vt 0.77 0.436932
vt 0.23 0.487142
vt 0.202176 0.690323
vt 0.436245 1.028087
vt 0.72512 0.256874
vt 0.612259 0.06249
vt 0.000499 0.06249
vt 0.204758 0.667862
vt 0.184983 0.028443
vt 0.782213 0.028443
vt 0.661828 0.600917
vt 0.661828 0.600917
vt 0.291823 0.340269
vt 0.184983 0.028443
vt 0.462256 0.008127
vt 0.913814 0.101515
vt 0.500551 0.531821
vt 0.797824 -0.028087
vt 0.220972 -0.028087
vt 0.202176 0.690323
vt 0.767374 0.000499
vt 0.843429 0.550454
vt 0.757176 0.573368
vt 0.389685 0.000499
vt 0.580987 0.000499
vt 0.517523 0.367136
vt 0.517523 0.367136
vt 0.339637 0.550454
vt 0.389685 0.000499
vt 0.697005 0.000499
vt 0.767374 0.000499
vt 0.757176 0.573368
vt 0.767374 0.000499
vt 0.880849 0.000499
vt 0.843429 0.550454
vt -0.119152 0.000499
vt -0.005019 0.011222
vt 0.107541 0.001125
vt 0.107541 0.001125
vt -0.037719 0.713623
vt -0.119152 0.000499
vt 0.107541 0.001125
vt 0.266334 0.000499
vt 0.247836 0.513714
vt -0.037991 0.000499
vt 0.030635 0.421132
vt -0.088757 0.534389
vt 0.119845 0.421132
vt 0.154963 0.894343
vt 0.030635 0.421132
vt 0.947973 0.12941
vt 0.679309 0.893257
vt 0.031739 0.176851
vt 0.493505 0.052535
vt 0.837714 0.018781
vt 0.437572 0.637837
vt 0.873961 0.000499
vt 0.962009 0.000499
vt 0.911243 0.534389
vt -0.037991 0.000499
vt 0.044172 0.000499
vt 0.030635 0.421132
vt -0.088757 0.534389
vt 0.030635 0.421132
vt 0.022127 0.841764
vt 0.119845 0.421132
vt 0.247807 0.421132
vt 0.225876 0.705983
vt 0.162781 0.000499
vt 0.26138 0.000499
vt 0.247807 0.421132
vt 0.26138 0.000499
vt 0.382012 0.000499
vt 0.344954 0.421132
vt 0.031739 0.176851
vt 0.679309 0.893257
vt 0.170426 0.882857
vn 0.311739 0.33642 -0.888617
vn 0.311739 0.33642 -0.888617
vn 0.311739 0.33642 -0.888617
vn -0.831174 0.315386 0.457909
vn -0.831174 0.315386 0.457909
vn -0.831174 0.315386 0.457909
vn 0.967996 0.242978 -0.062807
vn 0.967996 0.242978 -0.062807
vn 0.967996 0.242978 -0.062807
vn 0.587888 0.600092 -0.542473
vn 0.587888 0.600092 -0.542473
vn 0.587888 0.600092 -0.542473
vn -0.731598 -0.090359 -0.675722
vn -0.731598 -0.090359 -0.675722
vn -0.731598 -0.090359 -0.675722
vn 0.202144 0.037884 -0.978623
vn 0.202144 0.037884 -0.978623
vn 0.202144 0.037884 -0.978623
vn -0.919367 0.230599 0.318728
vn -0.919367 0.230599 0.318728
vn -0.919367 0.230599 0.318728
vn -0.732477 0.147089 0.664712
vn -0.732477 0.147089 0.664712
vn -0.732477 0.147089 0.664712
vn 0.303513 0.189659 0.933761
vn 0.303513 0.189659 0.933761
vn 0.303513 0.189659 0.933761
vn 0.645021 0.578458 0.499334
vn 0.645021 0.578458 0.499334
vn 0.645021 0.578458 0.499334
vn 0.840399 0.499253 0.210891
vn 0.840399 0.499253 0.210891
vn 0.840399 0.499253 0.210891
vn 0.347506 0.049517 -0.936369
vn 0.347506 0.049517 -0.936369
vn 0.347506 0.049517 -0.936369
vn -0.874366 0.423006 -0.237803
vn -0.874366 0.423006 -0.237803
vn -0.874366 0.423006 -0.237803
vn -0.283832 0.705577 0.649308
vn -0.283832 0.705577 0.649308
vn -0.283832 0.705577 0.649308
vn 0.82388 0.358447 -0.439018
vn 0.82388 0.358447 -0.439018
vn 0.82388 0.358447 -0.439018
vn 0.003752 -0.50207 -0.864819
vn 0.003752 -0.50207 -0.864819
vn 0.003752 -0.50207 -0.864819
vn -0.779051 0.539711 -0.319049
vn -0.779051 0.539711 -0.319049
vn -0.779051 0.539711 -0.319049
vn -0.914279 0.342216 -0.216755
vn -0.914279 0.342216 -0.216755
vn -0.914279 0.342216 -0.216755
vn 0.494376 0.401606 0.770912
vn 0.494376 0.401606 0.770912
vn 0.494376 0.401606 0.770912
vn 0.564433 0.05587 -0.823586
vn 0.564433 0.05587 -0.823586
vn 0.564433 0.05587 -0.823586
vn 0.979447 0.164637 0.116522
vn 0.979447 0.164637 0.116522
vn 0.979447 0.164637 0.116522
vn -0.841444 0.276955 0.46397
vn -0.841444 0.276955 0.46397
vn -0.841444 0.276955 0.46397
vn -0.847887 0.336379 0.409801
vn -0.847887 0.336379 0.409801
vn -0.847887 0.336379 0.409801
vn 0.978452 0.145578 0.146418
vn 0.978452 0.145578 0.146418
vn 0.978452 0.145578 0.146418
vn 0.677543 0.538916 0.500506
vn 0.677543 0.538916 0.500506
vn 0.677543 0.538916 0.500506
vn 0.002565 -0.999989 -0.003924
vn 0.002565 -0.999989 -0.003924
vn 0.002565 -0.999989 -0.003924
vn 0.618625 0.24482 -0.74657
vn 0.618625 0.24482 -0.74657
vn 0.618625 0.24482 -0.74657
vn -0.516415 -0.344307 -0.784072
vn -0.516415 -0.344307 -0.784072
vn -0.516415 -0.344307 -0.784072
vn -0.267022 -0.155658 -0.951036
vn -0.267022 -0.155658 -0.951036
vn -0.267022 -0.155658 -0.951036
vn -0.588876 0.701147 -0.402016
vn -0.588876 0.701147 -0.402016
vn -0.588876 0.701147 -0.402016
vn 0.268708 0.511869 0.815957
vn 0.268708 0.511869 0.815957
vn 0.268708 0.511869 0.815957
vn 0.873094 -0.083247 0.480392
vn 0.873094 -0.083247 0.480392
vn 0.873094 -0.083247 0.480392
vn -0.635738 -0.01421 -0.771774
vn -0.635738 -0.01421 -0.771774
vn -0.635738 -0.01421 -0.771774
vn 0.111467 0.085414 -0.990091
vn 0.111467 0.085414 -0.990091
vn 0.111467 0.085414 -0.990091
vn -0.349464 0.877381 -0.32875
vn -0.349464 0.877381 -0.32875
vn -0.349464 0.877381 -0.32875
vn -0.911839 0.227772 0.34157
vn -0.911839 0.227772 0.34157
vn -0.911839 0.227772 0.34157
vn -0.489955 -0.304272 0.816922
vn -0.489955 -0.304272 0.816922
vn -0.489955 -0.304272 0.816922
vn -0.867471 -0.15636 0.472276
vn -0.867471 -0.15636 0.472276
vn -0.867471 -0.15636 0.472276
vn 0.426134 0.344624 0.836448
vn 0.426134 0.344624 0.836448
vn 0.426134 0.344624 0.836448
usemtl datan_common_dol09_d1715784
f 121/121/121 122/122/122 123/123/123
f 124/124/124 125/125/125 126/126/126
f 127/127/127 128/128/128 129/129/129
f 130/130/130 131/131/131 132/132/132
f 133/133/133 134/134/134 135/135/135
f 136/136/136 137/137/137 138/138/138
f 139/139/139 140/140/140 141/141/141
f 142/142/142 143/143/143 144/144/144
f 145/145/145 146/146/146 147/147/147
f 148/148/148 149/149/149 150/150/150
f 151/151/151 152/152/152 153/153/153
f 154/154/154 155/155/155 156/156/156
f 157/157/157 158/158/158 159/159/159
f 160/160/160 161/161/161 162/162/162
f 163/163/163 164/164/164 165/165/165
f 166/166/166 167/167/167 168/168/168
f 169/169/169 170/170/170 171/171/171
f 172/172/172 173/173/173 174/174/174
f 175/175/175 176/176/176 177/177/177
f 178/178/178 179/179/179 180/180/180
f 181/181/181 182/182/182 183/183/183
f 184/184/184 185/185/185 186/186/186
f 187/187/187 188/188/188 189/189/189
f 190/190/190 191/191/191 192/192/192
f 193/193/193 194/194/194 195/195/195
f 196/196/196 197/197/197 198/198/198
f 199/199/199 200/200/200 201/201/201
f 202/202/202 203/203/203 204/204/204
f 205/205/205 206/206/206 207/207/207
f 208/208/208 209/209/209 210/210/210
f 211/211/211 212/212/212 213/213/213
f 214/214/214 215/215/215 216/216/216
f 217/217/217 218/218/218 219/219/219
f 220/220/220 221/221/221 222/222/222
f 223/223/223 224/224/224 225/225/225
f 226/226/226 227/227/227 228/228/228
f 229/229/229 230/230/230 231/231/231
f 232/232/232 233/233/233 234/234/234
f 235/235/235 236/236/236 237/237/237
