# Generated from Nova1492 GX by tools/nova1492/GxObjConverter
mtllib datan_common_tree03_6f430523.mtl
o datan_common_tree03_6f430523_mesh00
v 0.120424 -3.545705 -0.208872
v -0.03964 -0.064816 -0.061696
v 0.033516 -0.064816 -0.06553
v -0.115586 -3.545705 -0.177896
v -0.115586 -3.545705 -0.177896
v -0.072898 -0.064816 0.003576
v -0.03964 -0.064816 -0.061696
v -0.227458 -3.545705 -0.034715
v -0.033 -0.064816 0.065014
v -0.070791 -3.545705 0.12974
v 0.040156 -0.064816 0.06118
v 0.105252 -3.545705 0.135719
v 0.073414 -0.064816 -0.004092
v 0.148012 -3.545705 -0.026077
v -0.278981 -0.000008 -0.283892
v 0.284654 -0.000008 0.278219
v 0.896864 -1.204354 -1.459703
v 1.460412 -1.204354 -0.89768
v 0.278981 -0.000008 0.283891
v -0.284654 -0.000008 -0.278219
v -0.896864 -1.204354 1.459703
v -1.460412 -1.204354 0.897681
v 0.283892 -0.000008 -0.278981
v -0.278219 -0.000008 0.284654
v 1.459704 -1.204353 0.896864
v 0.897681 -1.204353 1.460412
v -0.283892 -0.000008 0.278981
v 0.278219 -0.000008 -0.284654
v -1.459703 -1.204353 -0.896864
v -0.89768 -1.204354 -1.460412
v -0.003472 -0.000008 0.398011
v -0.00455 -0.000008 -0.398011
v -1.666345 -1.204354 0.397988
v -1.667423 -1.204354 -0.397911
v -0.398011 -0.000008 -0.003472
v 0.398011 -0.000008 -0.00455
v -0.397988 -1.204353 -1.666345
v 0.397911 -1.204354 -1.667423
v 0.003472 -0.000008 -0.398011
v 0.004551 -0.000008 0.398011
v 1.666345 -1.204353 -0.397988
v 1.667423 -1.204354 0.397911
v 0.398011 -0.000008 0.003472
v -0.398011 -0.000008 0.004551
v 0.397988 -1.204354 1.666345
v -0.397911 -1.204354 1.667423
v 0.018545 0.141955 -0.227689
v -0.074854 0.141954 0.21466
v 0.942335 -0.591785 -0.031318
v 0.848951 -0.591785 0.410963
v -0.154271 0.147911 -0.170605
v 0.092475 0.147911 0.208226
v 0.637802 -0.585828 -0.684968
v 0.88451 -0.585829 -0.306196
v 0.166848 0.151748 -0.158147
v -0.211983 0.151748 0.088599
v 0.681211 -0.581991 0.633927
v 0.302439 -0.581992 0.880634
v 0.155631 0.150447 0.168038
v -0.091115 0.150447 -0.210793
v -0.636443 -0.583293 0.682401
v -0.88315 -0.583293 0.303629
v 0.227054 0.143633 0.016725
v -0.215296 0.143633 -0.076673
v 0.030682 -0.590107 0.940515
v -0.411599 -0.590107 0.847132
v -0.227512 0.140277 -0.021756
v 0.214838 0.140277 0.071643
v -0.03114 -0.593463 -0.945546
v 0.411141 -0.593463 -0.852162
v -0.021922 0.140375 0.226436
v 0.071476 0.140375 -0.215914
v -0.945712 -0.593365 0.030064
v -0.852329 -0.593365 -0.412217
v -0.214464 0.143156 0.139222
v 0.164367 0.143156 -0.107524
v -0.728827 -0.590584 -0.652851
v -0.350055 -0.590584 -0.899559
vt 0.687461 0.506066
vt 0.723997 0.993934
vt 0.687461 0.993934
vt 0.723997 0.506066
vt 0.501992 0.506066
vt 0.522175 0.993934
vt 0.501992 0.993934
vt 0.526003 0.506066
vt 0.566367 0.993934
vt 0.566367 0.506066
vt 0.606732 0.993934
vt 0.606732 0.506066
vt 0.647096 0.993934
vt 0.647096 0.506066
vt 0.255941 0.506066
vt 0.494059 0.506305
vt 0.255949 0.993695
vt 0.494028 0.993934
vt 0.255941 0.506066
vt 0.494059 0.506305
vt 0.255949 0.993695
vt 0.494028 0.993934
vt 0.255941 0.506066
vt 0.494059 0.506305
vt 0.255949 0.993695
vt 0.494028 0.993934
vt 0.255941 0.506066
vt 0.494059 0.506305
vt 0.255949 0.993695
vt 0.494028 0.993934
vt 0.255941 0.506066
vt 0.494059 0.506305
vt 0.255949 0.993695
vt 0.494028 0.993934
vt 0.255941 0.506066
vt 0.494059 0.506305
vt 0.255949 0.993695
vt 0.494028 0.993934
vt 0.255941 0.506066
vt 0.494059 0.506305
vt 0.255949 0.993695
vt 0.494028 0.993934
vt 0.255941 0.506066
vt 0.494059 0.506305
vt 0.255949 0.993695
vt 0.494028 0.993934
vt 0.005941 0.506066
vt 0.244059 0.506305
vt 0.005949 0.993695
vt 0.244029 0.993934
vt 0.005941 0.506066
vt 0.244059 0.506305
vt 0.005949 0.993695
vt 0.244029 0.993934
vt 0.005941 0.506066
vt 0.244059 0.506305
vt 0.005949 0.993695
vt 0.244029 0.993934
vt 0.005941 0.506066
vt 0.244059 0.506305
vt 0.005949 0.993695
vt 0.244029 0.993934
vt 0.005941 0.506066
vt 0.244059 0.506305
vt 0.005949 0.993695
vt 0.244029 0.993934
vt 0.005941 0.506066
vt 0.244059 0.506305
vt 0.005949 0.993695
vt 0.244029 0.993934
vt 0.005941 0.506066
vt 0.244059 0.506305
vt 0.005949 0.993695
vt 0.244029 0.993934
vt 0.005941 0.506066
vt 0.244059 0.506305
vt 0.005949 0.993695
vt 0.244029 0.993934
vn 0.988332 0.030818 -0.149165
vn -0.13005 0.035914 -0.990857
vn 0.988332 0.030818 -0.149165
vn -0.13005 0.035914 -0.990857
vn -0.787307 0.041725 -0.615148
vn -0.838262 0.031233 0.544373
vn -0.890474 0.034574 -0.453719
vn -0.723889 0.020682 0.689606
vn 0.052327 0.017998 0.998468
vn -0.033935 0.020762 0.999208
vn 0.890697 0.026375 0.453833
vn 0.966629 0.019102 0.255467
vn 0.838478 0.021408 -0.544514
vn 0.988332 0.030818 -0.149165
vn 0.414208 0.809896 -0.415331
vn 0.414208 0.809896 -0.415331
vn 0.414208 0.809896 -0.415331
vn 0.414208 0.809896 -0.415331
vn -0.414207 0.809896 0.415331
vn -0.414208 0.809896 0.415331
vn -0.414208 0.809896 0.415331
vn -0.414208 0.809896 0.415331
vn 0.415331 0.809897 0.414207
vn 0.415331 0.809897 0.414208
vn 0.415331 0.809897 0.414208
vn 0.415331 0.809897 0.414208
vn -0.415331 0.809897 -0.414208
vn -0.415331 0.809896 -0.414208
vn -0.415331 0.809896 -0.414208
vn -0.415331 0.809896 -0.414208
vn -0.586572 0.809897 0.000795
vn -0.586573 0.809896 0.000794
vn -0.586573 0.809896 0.000794
vn -0.586573 0.809896 0.000794
vn -0.000794 0.809897 -0.586572
vn -0.000794 0.809897 -0.586572
vn -0.000794 0.809897 -0.586572
vn -0.000794 0.809897 -0.586572
vn 0.586572 0.809897 -0.000795
vn 0.586572 0.809897 -0.000794
vn 0.586572 0.809897 -0.000794
vn 0.586572 0.809897 -0.000794
vn 0.000795 0.809897 0.586572
vn 0.000794 0.809896 0.586573
vn 0.000794 0.809896 0.586573
vn 0.000794 0.809896 0.586573
vn 0.60028 0.789683 0.126744
vn 0.60028 0.789683 0.126744
vn 0.60028 0.789683 0.126744
vn 0.60028 0.789683 0.126744
vn 0.514084 0.789683 -0.334841
vn 0.514084 0.789683 -0.334841
vn 0.514084 0.789683 -0.334841
vn 0.514084 0.789683 -0.334841
vn 0.334841 0.789683 0.514084
vn 0.334841 0.789683 0.514084
vn 0.334841 0.789683 0.514084
vn 0.334841 0.789683 0.514084
vn -0.514084 0.789683 0.334841
vn -0.514084 0.789683 0.334841
vn -0.514084 0.789683 0.334841
vn -0.514084 0.789683 0.334841
vn -0.126744 0.789683 0.600281
vn -0.126744 0.789683 0.600281
vn -0.126744 0.789683 0.600281
vn -0.126744 0.789683 0.600281
vn 0.126744 0.789683 -0.60028
vn 0.126744 0.789683 -0.60028
vn 0.126744 0.789683 -0.60028
vn 0.126744 0.789683 -0.60028
vn -0.60028 0.789683 -0.126744
vn -0.600281 0.789683 -0.126744
vn -0.600281 0.789683 -0.126744
vn -0.600281 0.789683 -0.126744
vn -0.334841 0.789683 -0.514084
vn -0.334841 0.789683 -0.514084
vn -0.334841 0.789683 -0.514084
vn -0.334841 0.789683 -0.514084
usemtl datan_common_tree03_6f430523
f 1/1/1 2/2/2 3/3/3
f 1/1/1 4/4/4 2/2/2
f 5/5/5 6/6/6 7/7/7
f 5/5/5 8/8/8 6/6/6
f 8/8/8 9/9/9 6/6/6
f 8/8/8 10/10/10 9/9/9
f 10/10/10 11/11/11 9/9/9
f 10/10/10 12/12/12 11/11/11
f 12/12/12 13/13/13 11/11/11
f 12/12/12 14/14/14 13/13/13
f 14/14/14 3/3/3 13/13/13
f 14/14/14 1/1/1 3/3/3
f 15/15/15 16/16/16 17/17/17
f 18/18/18 17/17/17 16/16/16
f 19/19/19 20/20/20 21/21/21
f 22/22/22 21/21/21 20/20/20
f 23/23/23 24/24/24 25/25/25
f 26/26/26 25/25/25 24/24/24
f 27/27/27 28/28/28 29/29/29
f 30/30/30 29/29/29 28/28/28
f 31/31/31 32/32/32 33/33/33
f 34/34/34 33/33/33 32/32/32
f 35/35/35 36/36/36 37/37/37
f 38/38/38 37/37/37 36/36/36
f 39/39/39 40/40/40 41/41/41
f 42/42/42 41/41/41 40/40/40
f 43/43/43 44/44/44 45/45/45
f 46/46/46 45/45/45 44/44/44
f 47/47/47 48/48/48 49/49/49
f 50/50/50 49/49/49 48/48/48
f 51/51/51 52/52/52 53/53/53
f 54/54/54 53/53/53 52/52/52
f 55/55/55 56/56/56 57/57/57
f 58/58/58 57/57/57 56/56/56
f 59/59/59 60/60/60 61/61/61
f 62/62/62 61/61/61 60/60/60
f 63/63/63 64/64/64 65/65/65
f 66/66/66 65/65/65 64/64/64
f 67/67/67 68/68/68 69/69/69
f 70/70/70 69/69/69 68/68/68
f 71/71/71 72/72/72 73/73/73
f 74/74/74 73/73/73 72/72/72
f 75/75/75 76/76/76 77/77/77
f 78/78/78 77/77/77 76/76/76
