# Generated from Nova1492 GX by tools/nova1492/GxObjConverter
mtllib datan_common_tube_bd26a2bc.mtl
o datan_common_tube_bd26a2bc_mesh00
v -0.215969 0.091264 -0.297255
v -0.000012 -0 -0.420119
v -0.24694 -0 -0.339884
v -0.000012 0.091264 -0.367428
v -0.154026 0.091264 -0.211999
v -0.000012 0.091264 -0.262045
v -0.123055 -0 -0.169371
v -0.000012 -0 -0.209354
v -0.349445 0.091264 -0.113542
v -0.399557 -0 -0.129824
v -0.24922 0.091264 -0.080976
v -0.199107 -0 -0.064694
v -0.349445 0.091264 0.113542
v -0.399557 -0 0.129824
v -0.24922 0.091264 0.080976
v -0.199107 -0 0.064694
v -0.215969 0.091264 0.297255
v -0.24694 -0 0.339884
v -0.154026 0.091264 0.211999
v -0.123055 -0 0.169371
v -0.000012 0.091264 0.367428
v -0.000012 -0 0.420119
v -0.000012 0.091264 0.262045
v -0.000012 -0 0.209354
v 0.246916 -0 -0.339884
v -0.000012 -0 -0.420119
v 0.215945 0.091264 -0.297255
v -0.000012 0.091264 -0.367428
v 0.154003 0.091264 -0.211999
v -0.000012 0.091264 -0.262045
v 0.123031 -0 -0.169371
v -0.000012 -0 -0.209354
v 0.399534 -0 -0.129824
v 0.349421 0.091264 -0.113542
v 0.249196 0.091264 -0.080976
v 0.199083 -0 -0.064694
v 0.399534 -0 0.129824
v 0.349421 0.091264 0.113542
v 0.249196 0.091264 0.080976
v 0.199083 -0 0.064694
v 0.246916 -0 0.339884
v 0.215945 0.091264 0.297255
v 0.154003 0.091264 0.211999
v 0.123031 -0 0.169371
v -0.000012 -0 0.420119
v -0.000012 0.091264 0.367428
v -0.000012 0.091264 0.262045
v -0.000012 -0 0.209354
v -0.215969 -0.091264 -0.297255
v -0.000012 -0.091264 -0.367428
v -0.154026 -0.091264 -0.211999
v -0.000012 -0.091264 -0.262045
v -0.349445 -0.091264 -0.113541
v -0.24922 -0.091264 -0.080976
v -0.349445 -0.091264 0.113542
v -0.24922 -0.091264 0.080976
v -0.215969 -0.091264 0.297256
v -0.154026 -0.091264 0.211999
v -0.000012 -0.091264 0.367428
v -0.000012 -0.091264 0.262045
v 0.215945 -0.091264 -0.297256
v -0.000012 -0.091264 -0.367428
v 0.154003 -0.091264 -0.211999
v -0.000012 -0.091264 -0.262045
v 0.349421 -0.091264 -0.113542
v 0.249196 -0.091264 -0.080976
v 0.349421 -0.091264 0.113541
v 0.249196 -0.091264 0.080976
v 0.215945 -0.091264 0.297255
v 0.154002 -0.091264 0.211999
v -0.000012 -0.091264 0.367428
v -0.000012 -0.091264 0.262045
vt 0.806857 0.248111
vt 0.721611 0.039588
vt 0.882902 0.191788
vt 0.674085 0.111739
vt 0.732134 0.305105
vt 0.62211 0.190184
vt 0.663809 0.359059
vt 0.572313 0.262642
vt 0.884391 0.426398
vt 0.975226 0.407018
vt 0.784635 0.443183
vt 0.710266 0.454664
vt 0.872083 0.61703
vt 0.960538 0.642961
vt 0.77671 0.586553
vt 0.705247 0.56591
vt 0.774746 0.789601
vt 0.843357 0.848662
vt 0.702796 0.728802
vt 0.648306 0.670257
vt 0.626083 0.894011
vt 0.661116 0.973386
vt 0.581752 0.803533
vt 0.553596 0.732998
vt 0.365648 0.815035
vt 0.194836 0.97917
vt 0.285072 0.762736
vt 0.142514 0.893837
vt 0.204012 0.709489
vt 0.08593 0.812259
vt 0.133274 0.663085
vt 0.044036 0.748604
vt 0.458255 0.596913
vt 0.36211 0.584178
vt 0.266124 0.572198
vt 0.18616 0.556459
vt 0.447381 0.361795
vt 0.3567 0.391432
vt 0.266147 0.421127
vt 0.189407 0.439475
vt 0.331767 0.159937
vt 0.266711 0.222727
vt 0.200023 0.286896
vt 0.139883 0.334504
vt 0.140415 0.026262
vt 0.102169 0.111551
vt 0.06733 0.195028
vt 0.031846 0.258262
vt 0.806857 0.248111
vt 0.674085 0.111739
vt 0.732134 0.305105
vt 0.62211 0.190184
vt 0.884391 0.426398
vt 0.784635 0.443183
vt 0.872083 0.61703
vt 0.77671 0.586553
vt 0.774746 0.789601
vt 0.702796 0.728802
vt 0.626083 0.894011
vt 0.581752 0.803533
vt 0.285072 0.762736
vt 0.142514 0.893837
vt 0.204012 0.709489
vt 0.08593 0.812259
vt 0.36211 0.584178
vt 0.266124 0.572198
vt 0.3567 0.391432
vt 0.266147 0.421127
vt 0.266711 0.222727
vt 0.200023 0.286896
vt 0.102169 0.111551
vt 0.06733 0.195028
vn -0.333594 0.823347 -0.459145
vn -0 0 -1
vn -0.587791 -0 -0.809013
vn -0 0.823344 -0.567542
vn 0.245586 0.908535 0.338012
vn 0 0.90854 0.417799
vn 0.587796 0 0.809009
vn 0 -0 1
vn -0.539762 0.823346 -0.175379
vn -0.951057 -0 -0.309017
vn 0.397357 0.908536 0.129109
vn 0.951057 0 0.309017
vn -0.539762 0.823346 0.175379
vn -0.951057 0 0.309017
vn 0.397357 0.908536 -0.129109
vn 0.951057 -0 -0.309017
vn -0.333594 0.823348 0.459144
vn -0.587791 0 0.809013
vn 0.245587 0.908534 -0.338013
vn 0.587798 -0 -0.809008
vn 0 0.823345 0.567542
vn 0 0 1
vn -0 0.908539 -0.4178
vn -0 0 -1
vn 0.58779 0 -0.809013
vn -0 0 -1
vn 0.333594 0.823348 -0.459145
vn -0 0.823344 -0.567542
vn -0.245586 0.908535 0.338012
vn 0 0.90854 0.417799
vn -0.587796 -0 0.809009
vn 0 -0 1
vn 0.951057 0 -0.309017
vn 0.539762 0.823347 -0.175379
vn -0.397357 0.908536 0.129109
vn -0.951057 -0 0.309017
vn 0.951057 -0 0.309017
vn 0.539762 0.823346 0.175379
vn -0.397357 0.908536 -0.129109
vn -0.951057 0 -0.309017
vn 0.587791 -0 0.809013
vn 0.333594 0.823347 0.459145
vn -0.245587 0.908534 -0.338013
vn -0.587798 0 -0.809008
vn 0 0 1
vn 0 0.823345 0.567542
vn -0 0.908539 -0.4178
vn -0 0 -1
vn -0.333594 -0.823348 -0.459145
vn -0 -0.823344 -0.567542
vn 0.245586 -0.908535 0.338012
vn 0 -0.90854 0.417799
vn -0.539762 -0.823346 -0.175379
vn 0.397358 -0.908536 0.129109
vn -0.539762 -0.823346 0.175379
vn 0.397357 -0.908536 -0.129109
vn -0.333594 -0.823348 0.459145
vn 0.245587 -0.908534 -0.338013
vn 0 -0.823345 0.567542
vn -0 -0.908539 -0.4178
vn 0.333594 -0.823347 -0.459145
vn -0 -0.823344 -0.567542
vn -0.245586 -0.908535 0.338012
vn 0 -0.90854 0.417799
vn 0.539762 -0.823346 -0.175379
vn -0.397357 -0.908536 0.129109
vn 0.539762 -0.823347 0.175379
vn -0.397358 -0.908536 -0.129109
vn 0.333594 -0.823348 0.459144
vn -0.245587 -0.908534 -0.338013
vn 0 -0.823345 0.567542
vn -0 -0.908539 -0.4178
usemtl datan_common_tube_bd26a2bc
f 1/1/1 2/2/2 3/3/3
f 4/4/4 2/2/2 1/1/1
f 5/5/5 4/4/4 1/1/1
f 6/6/6 4/4/4 5/5/5
f 7/7/7 6/6/6 5/5/5
f 8/8/8 6/6/6 7/7/7
f 9/9/9 3/3/3 10/10/10
f 1/1/1 3/3/3 9/9/9
f 11/11/11 1/1/1 9/9/9
f 5/5/5 1/1/1 11/11/11
f 12/12/12 5/5/5 11/11/11
f 7/7/7 5/5/5 12/12/12
f 13/13/13 10/10/10 14/14/14
f 9/9/9 10/10/10 13/13/13
f 15/15/15 9/9/9 13/13/13
f 11/11/11 9/9/9 15/15/15
f 16/16/16 11/11/11 15/15/15
f 12/12/12 11/11/11 16/16/16
f 17/17/17 14/14/14 18/18/18
f 13/13/13 14/14/14 17/17/17
f 19/19/19 13/13/13 17/17/17
f 15/15/15 13/13/13 19/19/19
f 20/20/20 15/15/15 19/19/19
f 16/16/16 15/15/15 20/20/20
f 21/21/21 18/18/18 22/22/22
f 17/17/17 18/18/18 21/21/21
f 23/23/23 17/17/17 21/21/21
f 19/19/19 17/17/17 23/23/23
f 24/24/24 19/19/19 23/23/23
f 20/20/20 19/19/19 24/24/24
f 25/25/25 26/26/26 27/27/27
f 27/27/27 26/26/26 28/28/28
f 27/27/27 28/28/28 29/29/29
f 29/29/29 28/28/28 30/30/30
f 29/29/29 30/30/30 31/31/31
f 31/31/31 30/30/30 32/32/32
f 33/33/33 25/25/25 34/34/34
f 34/34/34 25/25/25 27/27/27
f 34/34/34 27/27/27 35/35/35
f 35/35/35 27/27/27 29/29/29
f 35/35/35 29/29/29 36/36/36
f 36/36/36 29/29/29 31/31/31
f 37/37/37 33/33/33 38/38/38
f 38/38/38 33/33/33 34/34/34
f 38/38/38 34/34/34 39/39/39
f 39/39/39 34/34/34 35/35/35
f 39/39/39 35/35/35 40/40/40
f 40/40/40 35/35/35 36/36/36
f 41/41/41 37/37/37 42/42/42
f 42/42/42 37/37/37 38/38/38
f 42/42/42 38/38/38 43/43/43
f 43/43/43 38/38/38 39/39/39
f 43/43/43 39/39/39 44/44/44
f 44/44/44 39/39/39 40/40/40
f 45/45/45 41/41/41 46/46/46
f 46/46/46 41/41/41 42/42/42
f 46/46/46 42/42/42 47/47/47
f 47/47/47 42/42/42 43/43/43
f 47/47/47 43/43/43 48/48/48
f 48/48/48 43/43/43 44/44/44
f 3/3/3 2/2/2 49/49/49
f 49/49/49 2/2/2 50/50/50
f 49/49/49 50/50/50 51/51/51
f 51/51/51 50/50/50 52/52/52
f 51/51/51 52/52/52 7/7/7
f 7/7/7 52/52/52 8/8/8
f 10/10/10 3/3/3 53/53/53
f 53/53/53 3/3/3 49/49/49
f 53/53/53 49/49/49 54/54/54
f 54/54/54 49/49/49 51/51/51
f 54/54/54 51/51/51 12/12/12
f 12/12/12 51/51/51 7/7/7
f 14/14/14 10/10/10 55/55/55
f 55/55/55 10/10/10 53/53/53
f 55/55/55 53/53/53 56/56/56
f 56/56/56 53/53/53 54/54/54
f 56/56/56 54/54/54 16/16/16
f 16/16/16 54/54/54 12/12/12
f 18/18/18 14/14/14 57/57/57
f 57/57/57 14/14/14 55/55/55
f 57/57/57 55/55/55 58/58/58
f 58/58/58 55/55/55 56/56/56
f 58/58/58 56/56/56 20/20/20
f 20/20/20 56/56/56 16/16/16
f 22/22/22 18/18/18 59/59/59
f 59/59/59 18/18/18 57/57/57
f 59/59/59 57/57/57 60/60/60
f 60/60/60 57/57/57 58/58/58
f 60/60/60 58/58/58 24/24/24
f 24/24/24 58/58/58 20/20/20
f 61/61/61 26/26/26 25/25/25
f 62/62/62 26/26/26 61/61/61
f 63/63/63 62/62/62 61/61/61
f 64/64/64 62/62/62 63/63/63
f 31/31/31 64/64/64 63/63/63
f 32/32/32 64/64/64 31/31/31
f 65/65/65 25/25/25 33/33/33
f 61/61/61 25/25/25 65/65/65
f 66/66/66 61/61/61 65/65/65
f 63/63/63 61/61/61 66/66/66
f 36/36/36 63/63/63 66/66/66
f 31/31/31 63/63/63 36/36/36
f 67/67/67 33/33/33 37/37/37
f 65/65/65 33/33/33 67/67/67
f 68/68/68 65/65/65 67/67/67
f 66/66/66 65/65/65 68/68/68
f 40/40/40 66/66/66 68/68/68
f 36/36/36 66/66/66 40/40/40
f 69/69/69 37/37/37 41/41/41
f 67/67/67 37/37/37 69/69/69
f 70/70/70 67/67/67 69/69/69
f 68/68/68 67/67/67 70/70/70
f 44/44/44 68/68/68 70/70/70
f 40/40/40 68/68/68 44/44/44
f 71/71/71 41/41/41 45/45/45
f 69/69/69 41/41/41 71/71/71
f 72/72/72 69/69/69 71/71/71
f 70/70/70 69/69/69 72/72/72
f 48/48/48 70/70/70 72/72/72
f 44/44/44 70/70/70 48/48/48
