# Generated from Nova1492 GX by tools/nova1492/GxObjConverter
mtllib datan_common_soccer-4_6330b78f.mtl
o datan_common_soccer-4_6330b78f_mesh00
v 0 0.739695 -0
v -0 0.523044 -0.523044
v -0.369848 0.523044 -0.369848
v 0 0.739695 -0
v -0.523044 0.523044 0
v 0 0.739695 -0
v -0.369848 0.523044 0.369848
v 0 0.739695 -0
v 0 0.523044 0.523044
v 0 0.739695 -0
v 0.369848 0.523044 0.369848
v 0 0.739695 -0
v 0.523044 0.523044 -0
v 0 0.739695 -0
v 0.369848 0.523044 -0.369848
v 0 0.739695 -0
v -0 0.523044 -0.523044
v -0 -0 -0.739695
v -0.523044 -0 -0.523044
v -0.739695 -0 0
v -0.523044 -0 0.523044
v 0 -0 0.739695
v 0.523044 -0 0.523043
v 0.739695 -0 -0
v 0.523043 -0 -0.523044
v -0 -0 -0.739695
v -0 -0.523044 -0.523044
v -0.369848 -0.523044 -0.369848
v -0.523044 -0.523044 0
v -0.369848 -0.523044 0.369848
v 0 -0.523044 0.523044
v 0.369848 -0.523044 0.369848
v 0.523044 -0.523044 -0
v 0.369848 -0.523044 -0.369848
v -0 -0.523044 -0.523044
v 0 -0.739695 -0
v 0 -0.739695 -0
v 0 -0.739695 -0
v 0 -0.739695 -0
v 0 -0.739695 -0
v 0 -0.739695 -0
v 0 -0.739695 -0
v 0 -0.739695 -0
vt 0.0625 1
vt -0 0.75
vt 0.125 0.75
vt 0.1875 1
vt 0.25 0.75
vt 0.3125 1
vt 0.375 0.75
vt 0.4375 1
vt 0.5 0.75
vt 0.5625 1
vt 0.625 0.75
vt 0.6875 1
vt 0.75 0.75
vt 0.8125 1
vt 0.875 0.75
vt 0.9375 1
vt 1 0.75
vt -0 0.5
vt 0.125 0.5
vt 0.25 0.5
vt 0.375 0.5
vt 0.5 0.5
vt 0.625 0.5
vt 0.75 0.5
vt 0.875 0.5
vt 1 0.5
vt -0 0.25
vt 0.125 0.25
vt 0.25 0.25
vt 0.375 0.25
vt 0.5 0.25
vt 0.625 0.25
vt 0.75 0.25
vt 0.875 0.25
vt 1 0.25
vt 0.0625 0
vt 0.1875 0
vt 0.3125 0
vt 0.4375 0
vt 0.5625 0
vt 0.6875 0
vt 0.8125 0
vt 0.9375 0
vn -0 1 -0
vn -0 0.663004 -0.748616
vn -0.529351 0.663004 -0.529351
vn -0 1 -0
vn -0.748616 0.663004 0
vn -0 1 -0
vn -0.529351 0.663004 0.529351
vn -0 1 -0
vn 0 0.663004 0.748616
vn -0 1 -0
vn 0.529351 0.663004 0.529351
vn -0 1 -0
vn 0.748616 0.663004 -0
vn -0 1 -0
vn 0.529351 0.663004 -0.529351
vn -0 1 -0
vn -0 0.663004 -0.748616
vn -0 -0 -1
vn -0.707107 -0 -0.707107
vn -1 -0 0
vn -0.707107 -0 0.707107
vn 0 -0 1
vn 0.707107 -0 0.707107
vn 1 -0 -0
vn 0.707107 -0 -0.707107
vn -0 -0 -1
vn -0 -0.663004 -0.748616
vn -0.529351 -0.663004 -0.529351
vn -0.748616 -0.663004 0
vn -0.529351 -0.663004 0.529351
vn 0 -0.663004 0.748616
vn 0.529351 -0.663004 0.529351
vn 0.748616 -0.663004 -0
vn 0.529351 -0.663004 -0.529351
vn -0 -0.663004 -0.748616
vn 0 -1 -0
vn 0 -1 -0
vn 0 -1 -0
vn 0 -1 -0
vn 0 -1 -0
vn 0 -1 -0
vn 0 -1 -0
vn 0 -1 -0
usemtl datan_common_soccer-4_6330b78f
f 1/1/1 2/2/2 3/3/3
f 4/4/4 3/3/3 5/5/5
f 6/6/6 5/5/5 7/7/7
f 8/8/8 7/7/7 9/9/9
f 10/10/10 9/9/9 11/11/11
f 12/12/12 11/11/11 13/13/13
f 14/14/14 13/13/13 15/15/15
f 16/16/16 15/15/15 17/17/17
f 2/2/2 18/18/18 19/19/19
f 2/2/2 19/19/19 3/3/3
f 3/3/3 19/19/19 20/20/20
f 3/3/3 20/20/20 5/5/5
f 5/5/5 20/20/20 21/21/21
f 5/5/5 21/21/21 7/7/7
f 7/7/7 21/21/21 22/22/22
f 7/7/7 22/22/22 9/9/9
f 9/9/9 22/22/22 23/23/23
f 9/9/9 23/23/23 11/11/11
f 11/11/11 23/23/23 24/24/24
f 11/11/11 24/24/24 13/13/13
f 13/13/13 24/24/24 25/25/25
f 13/13/13 25/25/25 15/15/15
f 15/15/15 25/25/25 26/26/26
f 15/15/15 26/26/26 17/17/17
f 18/18/18 27/27/27 28/28/28
f 18/18/18 28/28/28 19/19/19
f 19/19/19 28/28/28 29/29/29
f 19/19/19 29/29/29 20/20/20
f 20/20/20 29/29/29 30/30/30
f 20/20/20 30/30/30 21/21/21
f 21/21/21 30/30/30 31/31/31
f 21/21/21 31/31/31 22/22/22
f 22/22/22 31/31/31 32/32/32
f 22/22/22 32/32/32 23/23/23
f 23/23/23 32/32/32 33/33/33
f 23/23/23 33/33/33 24/24/24
f 24/24/24 33/33/33 34/34/34
f 24/24/24 34/34/34 25/25/25
f 25/25/25 34/34/34 35/35/35
f 25/25/25 35/35/35 26/26/26
f 36/36/36 28/28/28 27/27/27
f 37/37/37 29/29/29 28/28/28
f 38/38/38 30/30/30 29/29/29
f 39/39/39 31/31/31 30/30/30
f 40/40/40 32/32/32 31/31/31
f 41/41/41 33/33/33 32/32/32
f 42/42/42 34/34/34 33/33/33
f 43/43/43 35/35/35 34/34/34
