# Generated from Nova1492 GX by tools/nova1492/GxObjConverter
mtllib datan_common_dol08_c8acc382.mtl
o datan_common_dol08_c8acc382_mesh00
v 2.089341 0.718417 -0.275245
v 1.662424 1.377898 -1.004534
v 0.867296 0.599598 -0.745584
v 2.232312 0.619736 -1.946916
v 2.054438 1.210162 -1.382386
v 2.576283 0.718417 -1.03633
v 0.867296 0.599598 -0.745584
v 1.091798 1.155635 -1.360872
v 1.273081 0.766185 -2.074087
v 1.617421 0.002745 0.228472
v 2.432639 0.002745 -0.428463
v 2.089341 0.718417 -0.275245
v 2.089341 0.718417 -0.275245
v 0.867296 0.599598 -0.745584
v 1.617421 0.002745 0.228472
v 2.089341 0.718417 -0.275245
v 2.576283 0.718417 -1.03633
v 2.054438 1.210162 -1.382386
v 2.054438 1.210162 -1.382386
v 1.662424 1.377898 -1.004534
v 2.089341 0.718417 -0.275245
v 3.020593 0.002745 -1.575353
v 2.161429 0.002745 -2.034042
v 2.232312 0.619736 -1.946916
v 2.232312 0.619736 -1.946916
v 2.576283 0.718417 -1.03633
v 3.020593 0.002745 -1.575353
v 2.232312 0.619736 -1.946916
v 1.273081 0.766185 -2.074087
v 2.054438 1.210162 -1.382386
v 0.72333 0.002745 -0.935257
v 0.966007 0.002745 -0.215156
v 0.867296 0.599598 -0.745584
v 0.867296 0.599598 -0.745584
v 1.662424 1.377898 -1.004534
v 1.091798 1.155635 -1.360872
v 2.054438 1.210162 -1.382386
v 1.273081 0.766185 -2.074087
v 1.091798 1.155635 -1.360872
v 1.091798 1.155635 -1.360872
v 1.662424 1.377898 -1.004534
v 2.054438 1.210162 -1.382386
v -1.03409 0.287017 0.056292
v -0.333004 0.738529 0.033858
v -0.584893 0.440219 -0.617939
v -0.56673 0.379879 0.541763
v -0.333004 0.738529 0.033858
v -1.03409 0.287017 0.056292
v 0.629917 0.478508 -0.254062
v -0.333004 0.738529 0.033858
v -0.56673 0.379879 0.541763
v 0.044437 0.719327 -0.731901
v -0.164721 1.014093 -0.091207
v 0.356963 1.008898 -0.38852
v 0.044437 0.719327 -0.731901
v 0.356963 1.008898 -0.38852
v 0.513988 0.474507 -0.88821
v -0.333004 0.738529 0.033858
v 0.044437 0.719327 -0.731901
v -0.584893 0.440219 -0.617939
v 0.356963 1.008898 -0.38852
v -0.164721 1.014093 -0.091207
v -0.333004 0.738529 0.033858
v -0.333004 0.738529 0.033858
v 0.629917 0.478508 -0.254062
v 0.356963 1.008898 -0.38852
v -0.164721 1.014093 -0.091207
v 0.044437 0.719327 -0.731901
v -0.333004 0.738529 0.033858
v 0.20103 0.428449 0.72685
v 0.855674 0.990533 1.232919
v 1.081513 0.685221 0.548187
v -0.143945 0.002745 0.790636
v 0.473228 0.707671 1.830504
v 0.20103 0.428449 0.72685
v 0.717918 0.002745 0.272073
v 0.51134 0.002745 0.655175
v 0.20103 0.428449 0.72685
v 0.20103 0.428449 0.72685
v 1.081513 0.685221 0.548187
v 0.717918 0.002745 0.272073
v -0.143945 0.002745 0.790636
v -0.097956 0.002745 1.672001
v 0.473228 0.707671 1.830504
v 0.20103 0.428449 0.72685
v 0.473228 0.707671 1.830504
v 0.855674 0.990533 1.232919
v 0.551188 0.002745 1.980256
v 1.459578 0.002745 2.059958
v 1.286365 0.498096 1.594278
v 1.286365 0.498096 1.594278
v 0.473228 0.707671 1.830504
v 0.551188 0.002745 1.980256
v 1.608263 0.002745 0.679459
v 0.717918 0.002745 0.272073
v 1.081513 0.685221 0.548187
v 1.608263 0.002745 0.679459
v 1.081513 0.685221 0.548187
v 1.286365 0.498096 1.594278
v 1.286365 0.498096 1.594278
v 1.081513 0.685221 0.548187
v 0.855674 0.990533 1.232919
v -2.237458 0.330997 1.924984
v -1.681078 0.759488 1.129491
v -2.754755 0.45616 1.023661
v -1.593686 0.002745 2.343095
v -1.672184 0.562377 1.682397
v -2.237458 0.330997 1.924984
v -2.086655 0.458948 0.267371
v -2.077424 0.940005 0.739859
v -1.252247 0.402544 0.504969
v -3.020593 0.002745 1.660254
v -2.237458 0.330997 1.924984
v -2.754755 0.45616 1.023661
v -2.237458 0.330997 1.924984
v -1.672184 0.562377 1.682397
v -1.681078 0.759488 1.129491
v -0.774225 0.002745 0.811335
v -1.192282 0.002745 0.610499
v -1.252247 0.402544 0.504969
v -1.252247 0.402544 0.504969
v -0.805796 0 1.590637
v -0.774225 0.002745 0.811335
v -1.349108 0.002745 0.013226
v -2.076498 0.002745 0.014418
v -2.086655 0.458948 0.267371
v -2.086655 0.458948 0.267371
v -1.252247 0.402544 0.504969
v -1.349108 0.002745 0.013226
v -2.086655 0.458948 0.267371
v -2.076498 0.002745 0.014418
v -2.754755 0.45616 1.023661
v -1.252247 0.402544 0.504969
v -2.077424 0.940005 0.739859
v -1.681078 0.759488 1.129491
v -2.086655 0.458948 0.267371
v -2.754755 0.45616 1.023661
v -2.077424 0.940005 0.739859
v -2.754755 0.45616 1.023661
v -1.681078 0.759488 1.129491
v -2.077424 0.940005 0.739859
vt 0.566814 0.334224
vt 0.510841 0.996627
vt 0.160274 0.482117
vt 0.88227 0.550553
vt 0.590895 1.074183
vt 0.427096 0.479788
vt 0.068648 1.019219
vt 0.327542 0.811755
vt 0.408272 0.113755
vt 0.423765 0.103977
vt 0.882097 0.29451
vt 0.706956 0.699341
vt 0.706956 0.699341
vt 0.210762 1.017212
vt 0.423765 0.103977
vt 0.566814 0.334224
vt 0.850987 0.525814
vt 0.70713 1.003781
vt 0.70713 1.003781
vt 0.510841 0.996627
vt 0.566814 0.334224
vt 0.680538 -0.074182
vt 0.98824 0.28909
vt 0.88227 0.550553
vt 0.88227 0.550553
vt 0.427096 0.479788
vt 0.680538 -0.074182
vt 0.650343 0.758847
vt 0.085298 0.877342
vt 0.545565 0.232825
vt -0.126421 0.305241
vt 0.582608 0.305241
vt 0.415681 1.017933
vt 0.753316 0.421132
vt 0.81415 0.841764
vt 0.666804 0.713965
vt 0.696081 0.68348
vt 0.408272 0.113755
vt 0.327542 0.811755
vt 0.327542 0.811755
vt 0.540561 0.924223
vt 0.696081 0.68348
vt 0.164765 0.589509
vt 0.494674 0.361093
vt 0.518807 0.938158
vt 0.276496 0.061842
vt 0.494674 0.361093
vt 0.164765 0.589509
vt 0.585976 0.450679
vt 0.450235 0.530889
vt 0.392976 0.252386
vt 0.539382 0.529391
vt 0.253697 0.976911
vt 0.625104 0.94551
vt 0.539382 0.529391
vt 0.625104 0.94551
vt 0.844483 0.429333
vt 0.494674 0.361093
vt 0.835235 0.803505
vt 0.518807 0.938158
vt 0.667118 0.837731
vt 0.448237 0.72711
vt 0.44082 0.417067
vt 0.44082 0.417067
vt 0.820193 0.542495
vt 0.667118 0.837731
vt 0.599739 0.396046
vt 0.835235 0.803505
vt 0.494674 0.361093
vt 0.305682 0.774451
vt 0.530141 0.428149
vt 0.774451 0.698218
vt 0.217883 0.205028
vt 0.740981 0.794973
vt 0.140935 0.561295
vt 0.492449 0.192165
vt 0.332922 0.192165
vt 0.181847 0.576198
vt 0.181847 0.576198
vt 0.606167 0.807835
vt 0.492449 0.192165
vt 0.217883 0.205028
vt 0.717156 0.205028
vt 0.740981 0.794973
vt 0.305682 0.774451
vt 0.225549 0.225549
vt 0.530141 0.428149
vt 0.442224 0.244674
vt 0.982693 0.244674
vt 0.80215 0.603508
vt 0.80215 0.603508
vt 0.371258 0.755326
vt 0.442224 0.244674
vt 0.818153 0.192165
vt 0.492449 0.192165
vt 0.606167 0.807835
vt 0.705297 0.174835
vt 0.64532 0.825165
vt 0.177247 0.646854
vt 0.344954 0.421132
vt 0.430675 0.785544
vt 0.29869 0.868053
vt 0.181847 0.378946
vt 0.681855 0.142362
vt 0.562019 0.999501
vt 0.19167 0.003168
vt 0.271811 0.391805
vt 0.129785 0.391805
vt 0.736285 0.455912
vt 0.629509 0.870593
vt 0.334815 0.375478
vt 0.264653 0.844731
vt 0.252723 0.223952
vt 0.747277 0.562808
vt 0.181847 0.378946
vt 0.398561 0.0005
vt 0.681855 0.142362
vt 0.94474 0.168218
vt 0.964436 0.665493
vt 0.953573 1.105406
vt 0.953573 1.105406
vt 0.591243 -0.017602
vt 0.94474 0.168218
vt 0.482513 -0.007638
vt 0.787121 0.17838
vt 0.736285 0.455912
vt 0.736285 0.455912
vt 0.334815 0.375478
vt 0.482513 -0.007638
vt 0.767933 0.562617
vt 0.940845 1.098027
vt 0.115224 0.850764
vt 0.334815 0.375478
vt 0.629509 0.870593
vt 0.37853 0.963378
vt 0.767933 0.562617
vt 0.115224 0.850764
vt 0.450957 -0.058255
vt 0.562019 0.999501
vt 0.681855 0.142362
vt 0.818153 0.544354
vn -0.339285 0.590303 0.732412
vn -0.339285 0.590303 0.732412
vn -0.339285 0.590303 0.732412
vn 0.754688 0.557728 -0.345523
vn 0.754688 0.557728 -0.345523
vn 0.754688 0.557728 -0.345523
vn -0.956349 0.073022 -0.282956
vn -0.956349 0.073022 -0.282956
vn -0.956349 0.073022 -0.282956
vn 0.621882 0.133092 0.771719
vn 0.621882 0.133092 0.771719
vn 0.621882 0.133092 0.771719
vn -0.320667 0.677413 0.662031
vn -0.320667 0.677413 0.662031
vn -0.320667 0.677413 0.662031
vn 0.520308 0.786423 0.332893
vn 0.520308 0.786423 0.332893
vn 0.520308 0.786423 0.332893
vn 0.608344 0.732283 0.306071
vn 0.608344 0.732283 0.306071
vn 0.608344 0.732283 0.306071
vn 0.469798 0.070288 -0.879971
vn 0.469798 0.070288 -0.879971
vn 0.469798 0.070288 -0.879971
vn 0.673188 0.663629 -0.326213
vn 0.673188 0.663629 -0.326213
vn 0.673188 0.663629 -0.326213
vn 0.197965 0.707902 -0.678
vn 0.197965 0.707902 -0.678
vn 0.197965 0.707902 -0.678
vn -0.940073 0.126076 0.316808
vn -0.940073 0.126076 0.316808
vn -0.940073 0.126076 0.316808
vn -0.550936 0.709203 0.439887
vn -0.550936 0.709203 0.439887
vn -0.550936 0.709203 0.439887
vn -0.06021 0.869568 -0.490129
vn -0.06021 0.869568 -0.490129
vn -0.06021 0.869568 -0.490129
vn -0.060482 0.88754 -0.456744
vn -0.060482 0.88754 -0.456744
vn -0.060482 0.88754 -0.456744
vn -0.537381 0.825957 -0.170345
vn -0.537381 0.825957 -0.170345
vn -0.537381 0.825957 -0.170345
vn -0.503238 0.797892 0.331843
vn -0.503238 0.797892 0.331843
vn -0.503238 0.797892 0.331843
vn 0.37292 0.668383 0.643579
vn 0.37292 0.668383 0.643579
vn 0.37292 0.668383 0.643579
vn -0.260887 0.841845 -0.472478
vn -0.260887 0.841845 -0.472478
vn -0.260887 0.841845 -0.472478
vn 0.128783 0.697232 -0.705182
vn 0.128783 0.697232 -0.705182
vn 0.128783 0.697232 -0.705182
vn -0.429229 0.872506 -0.233445
vn -0.429229 0.872506 -0.233445
vn -0.429229 0.872506 -0.233445
vn 0.493775 0.090959 0.864819
vn 0.493775 0.090959 0.864819
vn 0.493775 0.090959 0.864819
vn 0.359917 0.399021 0.843352
vn 0.359917 0.399021 0.843352
vn 0.359917 0.399021 0.843352
vn -0.845485 0.323508 -0.42485
vn -0.845485 0.323508 -0.42485
vn -0.845485 0.323508 -0.42485
vn -0.333785 0.815085 -0.473524
vn -0.333785 0.815085 -0.473524
vn -0.333785 0.815085 -0.473524
vn -0.774271 0.632092 0.031043
vn -0.774271 0.632092 0.031043
vn -0.774271 0.632092 0.031043
vn -0.767418 -0.489726 -0.413811
vn -0.767418 -0.489726 -0.413811
vn -0.767418 -0.489726 -0.413811
vn -0.308897 0.493505 -0.813041
vn -0.308897 0.493505 -0.813041
vn -0.308897 0.493505 -0.813041
vn -0.780775 0.623482 0.04074
vn -0.780775 0.623482 0.04074
vn -0.780775 0.623482 0.04074
vn -0.633229 0.772962 -0.039382
vn -0.633229 0.772962 -0.039382
vn -0.633229 0.772962 -0.039382
vn -0.064776 0.671394 0.738264
vn -0.064776 0.671394 0.738264
vn -0.064776 0.671394 0.738264
vn 0.325834 0.230801 0.916822
vn 0.325834 0.230801 0.916822
vn 0.325834 0.230801 0.916822
vn 0.411696 0.144689 -0.899762
vn 0.411696 0.144689 -0.899762
vn 0.411696 0.144689 -0.899762
vn 0.79514 0.604557 -0.047565
vn 0.79514 0.604557 -0.047565
vn 0.79514 0.604557 -0.047565
vn 0.764736 0.643411 -0.034661
vn 0.764736 0.643411 -0.034661
vn 0.764736 0.643411 -0.034661
vn -0.286563 0.91273 0.291215
vn -0.286563 0.91273 0.291215
vn -0.286563 0.91273 0.291215
vn -0.033164 0.76069 0.648268
vn -0.033164 0.76069 0.648268
vn -0.033164 0.76069 0.648268
vn 0.243482 0.677254 -0.694293
vn 0.243482 0.677254 -0.694293
vn 0.243482 0.677254 -0.694293
vn -0.46359 0.801661 0.377392
vn -0.46359 0.801661 0.377392
vn -0.46359 0.801661 0.377392
vn -0.232895 0.914841 0.329888
vn -0.232895 0.914841 0.329888
vn -0.232895 0.914841 0.329888
vn 0.426691 -0.170446 -0.888191
vn 0.426691 -0.170446 -0.888191
vn 0.426691 -0.170446 -0.888191
vn 0.630571 0.775616 0.028278
vn 0.630571 0.775616 0.028278
vn 0.630571 0.775616 0.028278
vn -0.001433 0.484895 -0.874571
vn -0.001433 0.484895 -0.874571
vn -0.001433 0.484895 -0.874571
vn 0.231924 0.731897 -0.640733
vn 0.231924 0.731897 -0.640733
vn 0.231924 0.731897 -0.640733
vn -0.707982 0.330344 -0.624207
vn -0.707982 0.330344 -0.624207
vn -0.707982 0.330344 -0.624207
vn 0.514637 0.847353 -0.130926
vn 0.514637 0.847353 -0.130926
vn 0.514637 0.847353 -0.130926
vn -0.625554 0.552769 -0.550571
vn -0.625554 0.552769 -0.550571
vn -0.625554 0.552769 -0.550571
vn -0.269695 0.739391 0.6169
vn -0.269695 0.739391 0.6169
vn -0.269695 0.739391 0.6169
usemtl datan_common_dol08_c8acc382
f 1/1/1 2/2/2 3/3/3
f 4/4/4 5/5/5 6/6/6
f 7/7/7 8/8/8 9/9/9
f 10/10/10 11/11/11 12/12/12
f 13/13/13 14/14/14 15/15/15
f 16/16/16 17/17/17 18/18/18
f 19/19/19 20/20/20 21/21/21
f 22/22/22 23/23/23 24/24/24
f 25/25/25 26/26/26 27/27/27
f 28/28/28 29/29/29 30/30/30
f 31/31/31 32/32/32 33/33/33
f 34/34/34 35/35/35 36/36/36
f 37/37/37 38/38/38 39/39/39
f 40/40/40 41/41/41 42/42/42
f 43/43/43 44/44/44 45/45/45
f 46/46/46 47/47/47 48/48/48
f 49/49/49 50/50/50 51/51/51
f 52/52/52 53/53/53 54/54/54
f 55/55/55 56/56/56 57/57/57
f 58/58/58 59/59/59 60/60/60
f 61/61/61 62/62/62 63/63/63
f 64/64/64 65/65/65 66/66/66
f 67/67/67 68/68/68 69/69/69
f 70/70/70 71/71/71 72/72/72
f 73/73/73 74/74/74 75/75/75
f 76/76/76 77/77/77 78/78/78
f 79/79/79 80/80/80 81/81/81
f 82/82/82 83/83/83 84/84/84
f 85/85/85 86/86/86 87/87/87
f 88/88/88 89/89/89 90/90/90
f 91/91/91 92/92/92 93/93/93
f 94/94/94 95/95/95 96/96/96
f 97/97/97 98/98/98 99/99/99
f 100/100/100 101/101/101 102/102/102
f 103/103/103 104/104/104 105/105/105
f 106/106/106 107/107/107 108/108/108
f 109/109/109 110/110/110 111/111/111
f 112/112/112 113/113/113 114/114/114
f 115/115/115 116/116/116 117/117/117
f 118/118/118 119/119/119 120/120/120
f 121/121/121 122/122/122 123/123/123
f 124/124/124 125/125/125 126/126/126
f 127/127/127 128/128/128 129/129/129
f 130/130/130 131/131/131 132/132/132
f 133/133/133 134/134/134 135/135/135
f 136/136/136 137/137/137 138/138/138
f 139/139/139 140/140/140 141/141/141
o datan_common_dol08_c8acc382_mesh01
v 2.432639 0.002745 -0.428463
v 2.576283 0.718417 -1.03633
v 2.089341 0.718417 -0.275245
v 2.432639 0.002745 -0.428463
v 3.020593 0.002745 -1.575353
v 2.576283 0.718417 -1.03633
v 2.161429 0.002745 -2.034042
v 1.400758 0.002745 -2.343095
v 1.273081 0.766185 -2.074087
v 1.273081 0.766185 -2.074087
v 2.232312 0.619736 -1.946916
v 2.161429 0.002745 -2.034042
v 1.400758 0.002745 -2.343095
v 0.449857 0.002745 -1.891
v 1.273081 0.766185 -2.074087
v 0.72333 0.002745 -0.935257
v 0.867296 0.599598 -0.745584
v 1.273081 0.766185 -2.074087
v 1.273081 0.766185 -2.074087
v 0.449857 0.002745 -1.891
v 0.72333 0.002745 -0.935257
v 0.966007 0.002745 -0.215156
v 1.617421 0.002745 0.228472
v 0.867296 0.599598 -0.745584
v 0.288695 0.002745 -1.06613
v 0.044437 0.719327 -0.731901
v 0.513988 0.474507 -0.88821
v 0.513988 0.474507 -0.88821
v 0.356963 1.008898 -0.38852
v 0.629917 0.478508 -0.254062
v 0.719589 0.002745 -0.0235
v 0.288695 0.002745 -1.06613
v 0.513988 0.474507 -0.88821
v 0.513988 0.474507 -0.88821
v 0.629917 0.478508 -0.254062
v 0.719589 0.002745 -0.0235
v 0.288695 0.002745 -1.06613
v -0.519961 0.002745 -0.599191
v -0.584893 0.440219 -0.617939
v -0.584893 0.440219 -0.617939
v 0.044437 0.719327 -0.731901
v 0.288695 0.002745 -1.06613
v -0.519961 0.002745 -0.599191
v -1.132104 0.002745 0.14295
v -1.03409 0.287017 0.056292
v -1.03409 0.287017 0.056292
v -0.584893 0.440219 -0.617939
v -0.519961 0.002745 -0.599191
v -1.132104 0.002745 0.14295
v -0.466067 0.002745 0.607356
v -0.56673 0.379879 0.541763
v -0.56673 0.379879 0.541763
v -1.03409 0.287017 0.056292
v -1.132104 0.002745 0.14295
v -0.466067 0.002745 0.607356
v 0.719589 0.002745 -0.0235
v 0.629917 0.478508 -0.254062
v 0.629917 0.478508 -0.254062
v -0.56673 0.379879 0.541763
v -0.466067 0.002745 0.607356
v 1.286365 0.498096 1.594278
v 0.855674 0.990533 1.232919
v 0.473228 0.707671 1.830504
v 0.51134 0.002745 0.655175
v -0.143945 0.002745 0.790636
v 0.20103 0.428449 0.72685
v -0.097956 0.002745 1.672001
v 0.551188 0.002745 1.980256
v 0.473228 0.707671 1.830504
v 1.459578 0.002745 2.059958
v 1.34371 0.002745 1.370991
v 1.286365 0.498096 1.594278
v 1.34371 0.002745 1.370991
v 1.608263 0.002745 0.679459
v 1.286365 0.498096 1.594278
v -0.805796 0 1.590637
v -1.681078 0.759488 1.129491
v -1.672184 0.562377 1.682397
v -1.252247 0.402544 0.504969
v -1.681078 0.759488 1.129491
v -0.805796 0 1.590637
v -2.572297 0.002745 0.617493
v -3.020593 0.002745 1.660254
v -2.754755 0.45616 1.023661
v -3.020593 0.002745 1.660254
v -2.338208 0.002745 1.906579
v -2.237458 0.330997 1.924984
v -2.338208 0.002745 1.906579
v -1.593686 0.002745 2.343095
v -2.237458 0.330997 1.924984
v -1.593686 0.002745 2.343095
v -0.805796 0 1.590637
v -1.672184 0.562377 1.682397
v -1.192282 0.002745 0.610499
v -1.349108 0.002745 0.013226
v -1.252247 0.402544 0.504969
v -2.076498 0.002745 0.014418
v -2.572297 0.002745 0.617493
v -2.754755 0.45616 1.023661
vt 0.714133 0.015882
vt 0.850987 0.525814
vt 0.566814 0.334224
vt 0.190166 0.139317
vt 0.680538 -0.074182
vt 0.427096 0.479788
vt 0.873799 0.030713
vt 0.527191 0.030713
vt 0.469013 0.842909
vt 0.469013 0.842909
vt 0.906098 0.687106
vt 0.873799 0.030713
vt 0.527191 0.030713
vt 0.093902 0.030713
vt 0.469013 0.842909
vt 0.639079 0.169205
vt 0.827017 0.830795
vt 0.157105 0.777587
vt 0.157105 0.777587
vt 0.287514 0.169205
vt 0.639079 0.169205
vt 0.582608 0.305241
vt 1.461334 0.305241
vt 0.415681 1.017933
vt 0.76443 0.023089
vt 0.539382 0.529391
vt 0.844483 0.429333
vt 0.797048 0.472244
vt 0.39087 0.945921
vt 0.241957 0.47579
vt 0.034165 0.054079
vt 0.977016 0.054079
vt 0.797048 0.472244
vt 0.797048 0.472244
vt 0.241957 0.47579
vt 0.034165 0.054079
vt 0.76443 0.023089
vt 0.187121 0.070596
vt 0.155517 0.282658
vt 0.155517 0.282658
vt 0.539382 0.529391
vt 0.76443 0.023089
vt 0.063739 0.000499
vt 0.199936 0.000499
vt 0.186129 0.253961
vt 0.186129 0.253961
vt 0.074118 0.421132
vt 0.063739 0.000499
vt 0.199936 0.000499
vt 0.297379 0.000499
vt 0.311536 0.421132
vt 0.311536 0.421132
vt 0.186129 0.253961
vt 0.199936 0.000499
vt 0.165554 0.086896
vt 0.858921 0.086896
vt 0.86728 0.603619
vt 0.86728 0.603619
vt 0.13272 0.496498
vt 0.165554 0.086896
vt 0.758809 0.241191
vt 0.594104 0.758809
vt 0.241191 0.323147
vt 0.594841 0.000499
vt 0.717337 0.000499
vt 0.725544 0.302849
vt 0.012775 0.244674
vt 0.442224 0.244674
vt 0.371258 0.755326
vt 0.162781 0.000499
vt 0.26138 0.000499
vt 0.247807 0.421132
vt 0.301104 0.174835
vt 0.705297 0.174835
vt 0.177247 0.646854
vt 0.404663 -0.052882
vt 0.452697 1.052882
vt 0.204438 0.790098
vt 0.795563 0.661108
vt 0.452697 1.052882
vt 0.404663 -0.052882
vt 0.609154 0.043921
vt 0.0005 0.043921
vt 0.370805 0.527506
vt 0.00029 0.112684
vt 0.46265 0.131522
vt 0.526838 0.472406
vt 0.46265 0.131522
vt 0.999291 0.153387
vt 0.526838 0.472406
vt 0.010714 0.073445
vt 0.591243 -0.017602
vt 0.293824 0.961443
vt 0.358325 0.04355
vt 1.10922 0.04355
vt 0.509985 0.550227
vt 0.999501 0.043921
vt 0.609154 0.043921
vt 0.370805 0.527506
vn 0.8093 0.277357 0.51779
vn 0.8093 0.277357 0.51779
vn 0.8093 0.277357 0.51779
vn 0.871081 0.204456 0.44656
vn 0.871081 0.204456 0.44656
vn 0.871081 0.204456 0.44656
vn 0.350755 0.362859 -0.86331
vn 0.350755 0.362859 -0.86331
vn 0.350755 0.362859 -0.86331
vn 0.14866 0.121504 -0.981395
vn 0.14866 0.121504 -0.981395
vn 0.14866 0.121504 -0.981395
vn -0.416909 0.239261 -0.876893
vn -0.416909 0.239261 -0.876893
vn -0.416909 0.239261 -0.876893
vn -0.92219 0.3 -0.24406
vn -0.92219 0.3 -0.24406
vn -0.92219 0.3 -0.24406
vn -0.645858 0.740753 0.184804
vn -0.645858 0.740753 0.184804
vn -0.645858 0.740753 0.184804
vn -0.473791 0.539922 0.695705
vn -0.473791 0.539922 0.695705
vn -0.473791 0.539922 0.695705
vn -0.099745 0.392469 -0.914341
vn -0.099745 0.392469 -0.914341
vn -0.099745 0.392469 -0.914341
vn 0.893321 0.41766 -0.165943
vn 0.893321 0.41766 -0.165943
vn 0.893321 0.41766 -0.165943
vn 0.885864 -0.284976 -0.366106
vn 0.885864 -0.284976 -0.366106
vn 0.885864 -0.284976 -0.366106
vn 0.978904 0.097483 -0.179569
vn 0.978904 0.097483 -0.179569
vn 0.978904 0.097483 -0.179569
vn -0.496979 -0.110649 -0.860679
vn -0.496979 -0.110649 -0.860679
vn -0.496979 -0.110649 -0.860679
vn -0.302981 0.316065 -0.899059
vn -0.302981 0.316065 -0.899059
vn -0.302981 0.316065 -0.899059
vn -0.769444 0.071824 -0.634664
vn -0.769444 0.071824 -0.634664
vn -0.769444 0.071824 -0.634664
vn -0.808037 -0.14441 -0.571158
vn -0.808037 -0.14441 -0.571158
vn -0.808037 -0.14441 -0.571158
vn -0.571929 -0.009994 0.820242
vn -0.571929 -0.009994 0.820242
vn -0.571929 -0.009994 0.820242
vn -0.693093 0.417999 0.587281
vn -0.693093 0.417999 0.587281
vn -0.693093 0.417999 0.587281
vn 0.417366 0.458804 0.784414
vn 0.417366 0.458804 0.784414
vn 0.417366 0.458804 0.784414
vn 0.515818 0.278584 0.810138
vn 0.515818 0.278584 0.810138
vn 0.515818 0.278584 0.810138
vn 0.356913 0.735117 0.576382
vn 0.356913 0.735117 0.576382
vn 0.356913 0.735117 0.576382
vn -0.20241 0.017313 -0.979148
vn -0.20241 0.017313 -0.979148
vn -0.20241 0.017313 -0.979148
vn -0.42455 0.142975 0.894045
vn -0.42455 0.142975 0.894045
vn -0.42455 0.142975 0.894045
vn 0.96901 0.185639 -0.162965
vn 0.96901 0.185639 -0.162965
vn 0.96901 0.185639 -0.162965
vn 0.932681 -0.052862 0.356807
vn 0.932681 -0.052862 0.356807
vn 0.932681 -0.052862 0.356807
vn 0.543872 0.79317 0.274017
vn 0.543872 0.79317 0.274017
vn 0.543872 0.79317 0.274017
vn 0.651246 0.758746 0.013521
vn 0.651246 0.758746 0.013521
vn 0.651246 0.758746 0.013521
vn -0.918582 -0.015887 -0.39491
vn -0.918582 -0.015887 -0.39491
vn -0.918582 -0.015887 -0.39491
vn -0.339084 0.051405 0.939351
vn -0.339084 0.051405 0.939351
vn -0.339084 0.051405 0.939351
vn -0.502918 0.106265 0.857777
vn -0.502918 0.106265 0.857777
vn -0.502918 0.106265 0.857777
vn 0.502243 0.688349 0.523381
vn 0.502243 0.688349 0.523381
vn 0.502243 0.688349 0.523381
vn 0.964283 0.077798 -0.253192
vn 0.964283 0.077798 -0.253192
vn 0.964283 0.077798 -0.253192
vn -0.747966 0.249851 -0.614916
vn -0.747966 0.249851 -0.614916
vn -0.747966 0.249851 -0.614916
usemtl datan_common_dol08_c8acc382
f 142/142/142 143/143/143 144/144/144
f 145/145/145 146/146/146 147/147/147
f 148/148/148 149/149/149 150/150/150
f 151/151/151 152/152/152 153/153/153
f 154/154/154 155/155/155 156/156/156
f 157/157/157 158/158/158 159/159/159
f 160/160/160 161/161/161 162/162/162
f 163/163/163 164/164/164 165/165/165
f 166/166/166 167/167/167 168/168/168
f 169/169/169 170/170/170 171/171/171
f 172/172/172 173/173/173 174/174/174
f 175/175/175 176/176/176 177/177/177
f 178/178/178 179/179/179 180/180/180
f 181/181/181 182/182/182 183/183/183
f 184/184/184 185/185/185 186/186/186
f 187/187/187 188/188/188 189/189/189
f 190/190/190 191/191/191 192/192/192
f 193/193/193 194/194/194 195/195/195
f 196/196/196 197/197/197 198/198/198
f 199/199/199 200/200/200 201/201/201
f 202/202/202 203/203/203 204/204/204
f 205/205/205 206/206/206 207/207/207
f 208/208/208 209/209/209 210/210/210
f 211/211/211 212/212/212 213/213/213
f 214/214/214 215/215/215 216/216/216
f 217/217/217 218/218/218 219/219/219
f 220/220/220 221/221/221 222/222/222
f 223/223/223 224/224/224 225/225/225
f 226/226/226 227/227/227 228/228/228
f 229/229/229 230/230/230 231/231/231
f 232/232/232 233/233/233 234/234/234
f 235/235/235 236/236/236 237/237/237
f 238/238/238 239/239/239 240/240/240
