# Generated from Nova1492 GX by tools/nova1492/GxObjConverter
mtllib datan_common_dol07_f3e04a6c.mtl
o datan_common_dol07_f3e04a6c_mesh00
v -0.489418 0.330997 2.729697
v -0.451099 0.779148 2.373334
v -0.797375 0.402544 2.046324
v -0.120976 0.002745 3.265837
v 0.137208 0.545506 2.772622
v -0.489418 0.330997 2.729697
v 0.392492 0.231964 1.501355
v 0.169785 0.852317 1.715719
v 0.677474 0.528355 2.156867
v -0.291268 0.568495 1.597511
v 0.019169 0.977486 2.103355
v 0.169785 0.852317 1.715719
v -0.797375 0.402544 2.046324
v -0.451099 0.779148 2.373334
v -0.291268 0.568495 1.597511
v -0.804885 0.002745 2.58497
v -0.489418 0.330997 2.729697
v -0.797375 0.402544 2.046324
v -0.797375 0.402544 2.046324
v -0.986002 0.002745 2.049573
v -0.804885 0.002745 2.58497
v 0.137208 0.545506 2.772622
v -0.451099 0.779148 2.373334
v -0.489418 0.330997 2.729697
v -0.120976 0.002745 3.265837
v 0.654546 0 2.777503
v 0.137208 0.545506 2.772622
v 1.017382 0.002745 2.332306
v 0.755198 0.002745 2.039482
v 0.677474 0.528355 2.156867
v 0.677474 0.528355 2.156867
v 0.654546 0 2.777503
v 1.017382 0.002745 2.332306
v 0.826111 0.002745 1.520988
v 0.00385 0.002745 1.355178
v 0.392492 0.231964 1.501355
v 0.392492 0.231964 1.501355
v 0.677474 0.528355 2.156867
v 0.826111 0.002745 1.520988
v 0.392492 0.231964 1.501355
v 0.00385 0.002745 1.355178
v -0.291268 0.568495 1.597511
v 0.019169 0.977486 2.103355
v -0.451099 0.779148 2.373334
v 0.137208 0.545506 2.772622
v 0.137208 0.545506 2.772622
v 0.677474 0.528355 2.156867
v 0.019169 0.977486 2.103355
v 0.019169 0.977486 2.103355
v 0.677474 0.528355 2.156867
v 0.169785 0.852317 1.715719
v -0.291268 0.568495 1.597511
v -0.451099 0.779148 2.373334
v 0.019169 0.977486 2.103355
v 0.167008 0.428449 -3.768007
v -0.009047 0.957937 -3.324163
v 0.763448 0.51545 -2.96572
v -0.070217 0.002745 -4.120029
v -1.010884 0.564783 -2.999791
v 0.167008 0.428449 -3.768007
v -0.705034 0.002745 -1.728261
v 0.245842 0.498096 -2.095625
v -0.789579 0.498096 -2.194674
v 0.921039 0.002745 -3.413868
v 0.396262 0.002745 -3.458255
v 0.167008 0.428449 -3.768007
v 0.167008 0.428449 -3.768007
v 0.763448 0.51545 -2.96572
v 0.921039 0.002745 -3.413868
v -0.070217 0.002745 -4.120029
v -1.040454 0.002745 -3.209228
v -1.010884 0.564783 -2.999791
v 0.167008 0.428449 -3.768007
v -1.010884 0.564783 -2.999791
v -0.009047 0.957937 -3.324163
v -1.010884 0.564783 -2.999791
v -0.450225 1.076004 -2.546319
v -0.009047 0.957937 -3.324163
v -1.040454 0.002745 -3.209228
v -0.705034 0.002745 -1.728261
v -0.789579 0.498096 -2.194674
v -0.789579 0.498096 -2.194674
v -1.010884 0.564783 -2.999791
v -1.040454 0.002745 -3.209228
v 0.898565 0.002745 -2.229346
v 0.921039 0.002745 -3.413868
v 0.763448 0.51545 -2.96572
v 0.898565 0.002745 -2.229346
v 0.763448 0.51545 -2.96572
v 0.245842 0.498096 -2.095625
v 0.245842 0.498096 -2.095625
v 0.763448 0.51545 -2.96572
v 0.176405 1.024405 -2.25508
v -0.450225 1.076004 -2.546319
v -0.17628 0.833546 -1.989438
v 0.176405 1.024405 -2.25508
v -0.009047 0.957937 -3.324163
v -0.450225 1.076004 -2.546319
v 0.176405 1.024405 -2.25508
v 0.176405 1.024405 -2.25508
v 0.763448 0.51545 -2.96572
v -0.009047 0.957937 -3.324163
v 0.578764 0.002745 -1.508437
v 0.458134 0.355831 -1.065834
v 1.093121 0.593627 -0.987379
v 1.981125 0.002745 0.08088
v 1.475806 0.002745 -0.692099
v 1.093121 0.593627 -0.987379
v 1.093121 0.593627 -0.987379
v 1.435953 0.637566 0.036473
v 1.981125 0.002745 0.08088
v 1.093121 0.593627 -0.987379
v 0.982371 1.071339 -0.464144
v 1.435953 0.637566 0.036473
v 1.093121 0.593627 -0.987379
v 0.458134 0.355831 -1.065834
v 0.323686 1.009992 -0.342385
v 0.323686 1.009992 -0.342385
v 0.982371 1.071339 -0.464144
v 1.093121 0.593627 -0.987379
v 0.982371 1.071339 -0.464144
v 0.323686 1.009992 -0.342385
v 1.061458 0.562517 0.813161
v 1.061458 0.562517 0.813161
v 1.435953 0.637566 0.036473
v 0.982371 1.071339 -0.464144
vt 0.375912 0.211773
vt 0.402987 0.448373
vt 0.158322 0.665485
vt 0.322253 0.0005
vt 0.54772 0.999501
vt 0.0005 0.789889
vt 1.080258 0.251535
vt 0.696697 1.025663
vt -0.094752 0.239257
vt 0.515917 0.963465
vt 0.735259 0.62762
vt 0.841678 0.884983
vt 0.158322 0.665485
vt 0.402987 0.448373
vt 0.515917 0.963465
vt 0.533091 0.141053
vt 0.745739 0.494597
vt 0.263005 0.571657
vt 0.263005 0.571657
vt 0.181429 0.141053
vt 0.533091 0.141053
vt 0.248504 0.669746
vt 0.143811 0.780442
vt 0.129785 0.391805
vt 0.322253 0.0005
vt 0.999501 0.377647
vt 0.54772 0.999501
vt 0.999501 0.000499
vt 1.084211 0.28579
vt 0.948781 0.850635
vt 0.948781 0.850635
vt 0.330589 0.071239
vt 0.999501 0.000499
vt 0.65207 0.057621
vt 0.000499 0.000499
vt 0.355839 0.460513
vt 0.355839 0.460513
vt 0.999501 0.999501
vt 0.65207 0.057621
vt -0.004274 0.294559
vt 0.561398 -0.0068
vt 1.001392 0.666347
vt 0.340543 0.675306
vt 0.138467 0.510199
vt 0.391264 0.266014
vt 0.391264 0.266014
vt 0.623419 0.642581
vt 0.340543 0.675306
vt 0.340543 0.675306
vt 0.623419 0.642581
vt 0.405263 0.912366
vt 0.515917 0.963465
vt 0.402987 0.448373
vt 0.735259 0.62762
vt 0.849993 0.269455
vt 0.772908 0.669286
vt 0.478266 0.358294
vt 0.115819 0.072153
vt 0.863239 0.572208
vt 0.17846 0.456771
vt 0.663855 0.132753
vt 0.818958 0.47175
vt 0.517405 0.47175
vt 0.561488 -0.030085
vt 0.70372 0.095489
vt 0.849993 0.269455
vt 0.849993 0.269455
vt 0.478266 0.358294
vt 0.561488 -0.030085
vt 0.115819 0.072153
vt 0.770682 0.064527
vt 0.863239 0.572208
vt 0.17846 0.456771
vt 0.863239 0.572208
vt 0.422475 0.933223
vt -0.088757 0.534389
vt 0.022127 0.841764
vt -0.216683 0.839895
vt 0.181042 0.132753
vt 0.663855 0.132753
vt 0.517405 0.47175
vt 0.517405 0.47175
vt 0.244572 0.517389
vt 0.181042 0.132753
vt 0.146714 0.238521
vt 0.561488 -0.030085
vt 0.478266 0.358294
vt 0.861717 0.044021
vt 0.975263 0.492132
vt 0.491019 0.476964
vt 0.491019 0.476964
vt 0.975263 0.492132
vt 0.494838 0.936965
vt 0.154963 0.894343
vt 0.225876 0.705983
vt 0.29869 0.868053
vt 0.772908 0.669286
vt 0.5811 0.998962
vt 0.37161 0.898804
vt 0.37161 0.898804
vt 0.478266 0.358294
vt 0.772908 0.669286
vt 0.711726 0.000499
vt 0.762048 0.26068
vt 0.647997 0.421132
vt 0.0005 0.157913
vt 0.453286 0.012578
vt 0.738128 0.635014
vt 0.738128 0.635014
vt 0.205192 0.9995
vt 0.0005 0.157913
vt 0.932603 0.222947
vt 0.772309 0.909027
vt 0.476403 0.44904
vt 0.60796 0.183941
vt 0.954558 0.653806
vt 0.172351 0.986169
vt 0.172351 0.986169
vt 0.043628 0.434845
vt 0.60796 0.183941
vt 0.796507 0.382635
vt 0.87 0.928748
vt 0.13 0.719753
vt 0.13 0.719753
vt 0.448364 0.188747
vt 0.796507 0.382635
vn -0.820405 0.397206 0.411295
vn -0.820405 0.397206 0.411295
vn -0.820405 0.397206 0.411295
vn -0.288505 0.715459 0.636305
vn -0.288505 0.715459 0.636305
vn -0.288505 0.715459 0.636305
vn 0.732256 0.441933 -0.518167
vn 0.732256 0.441933 -0.518167
vn 0.732256 0.441933 -0.518167
vn -0.396142 0.817568 -0.417915
vn -0.396142 0.817568 -0.417915
vn -0.396142 0.817568 -0.417915
vn -0.540656 0.777029 -0.322362
vn -0.540656 0.777029 -0.322362
vn -0.540656 0.777029 -0.322362
vn -0.743561 0.54185 0.39181
vn -0.743561 0.54185 0.39181
vn -0.743561 0.54185 0.39181
vn -0.863986 0.410007 0.292273
vn -0.863986 0.410007 0.292273
vn -0.863986 0.410007 0.292273
vn -0.261308 0.614359 0.7445
vn -0.261308 0.614359 0.7445
vn -0.261308 0.614359 0.7445
vn 0.475042 0.45724 0.751842
vn 0.475042 0.45724 0.751842
vn 0.475042 0.45724 0.751842
vn 0.721187 0.250855 -0.645726
vn 0.721187 0.250855 -0.645726
vn 0.721187 0.250855 -0.645726
vn 0.629809 0.579815 0.516871
vn 0.629809 0.579815 0.516871
vn 0.629809 0.579815 0.516871
vn 0.189852 0.278507 -0.941483
vn 0.189852 0.278507 -0.941483
vn 0.189852 0.278507 -0.941483
vn 0.417756 0.745838 -0.51885
vn 0.417756 0.745838 -0.51885
vn 0.417756 0.745838 -0.51885
vn 0.084909 0.429415 -0.899107
vn 0.084909 0.429415 -0.899107
vn 0.084909 0.429415 -0.899107
vn -0.038889 0.83641 0.546723
vn -0.038889 0.83641 0.546723
vn -0.038889 0.83641 0.546723
vn 0.491195 0.768756 0.409564
vn 0.491195 0.768756 0.409564
vn 0.491195 0.768756 0.409564
vn 0.565539 0.823429 -0.046148
vn 0.565539 0.823429 -0.046148
vn 0.565539 0.823429 -0.046148
vn -0.518823 0.791955 -0.321917
vn -0.518823 0.791955 -0.321917
vn -0.518823 0.791955 -0.321917
vn 0.593363 0.623764 -0.508762
vn 0.593363 0.623764 -0.508762
vn 0.593363 0.623764 -0.508762
vn -0.329068 0.7039 -0.629475
vn -0.329068 0.7039 -0.629475
vn -0.329068 0.7039 -0.629475
vn -0.070043 0.677476 0.732203
vn -0.070043 0.677476 0.732203
vn -0.070043 0.677476 0.732203
vn 0.069705 -0.56211 -0.82412
vn 0.069705 -0.56211 -0.82412
vn 0.069705 -0.56211 -0.82412
vn 0.591886 0.625872 -0.507893
vn 0.591886 0.625872 -0.507893
vn 0.591886 0.625872 -0.507893
vn -0.654156 0.294088 -0.696844
vn -0.654156 0.294088 -0.696844
vn -0.654156 0.294088 -0.696844
vn -0.436338 0.488386 -0.755703
vn -0.436338 0.488386 -0.755703
vn -0.436338 0.488386 -0.755703
vn -0.441228 0.815713 -0.374071
vn -0.441228 0.815713 -0.374071
vn -0.441228 0.815713 -0.374071
vn -0.974458 0.041492 0.220702
vn -0.974458 0.041492 0.220702
vn -0.974458 0.041492 0.220702
vn -0.964169 -0.046593 0.261165
vn -0.964169 -0.046593 0.261165
vn -0.964169 -0.046593 0.261165
vn 0.960067 0.279177 0.018216
vn 0.960067 0.279177 0.018216
vn 0.960067 0.279177 0.018216
vn 0.607869 0.699604 0.375565
vn 0.607869 0.699604 0.375565
vn 0.607869 0.699604 0.375565
vn 0.827602 0.259917 0.497511
vn 0.827602 0.259917 0.497511
vn 0.827602 0.259917 0.497511
vn -0.137181 0.881727 0.451374
vn -0.137181 0.881727 0.451374
vn -0.137181 0.881727 0.451374
vn 0.119712 0.989393 -0.08228
vn 0.119712 0.989393 -0.08228
vn 0.119712 0.989393 -0.08228
vn 0.541704 0.827891 -0.145441
vn 0.541704 0.827891 -0.145441
vn 0.541704 0.827891 -0.145441
vn -0.197377 0.739418 -0.643664
vn -0.197377 0.739418 -0.643664
vn -0.197377 0.739418 -0.643664
vn 0.808352 0.259451 -0.528444
vn 0.808352 0.259451 -0.528444
vn 0.808352 0.259451 -0.528444
vn 0.739022 0.615499 -0.273873
vn 0.739022 0.615499 -0.273873
vn 0.739022 0.615499 -0.273873
vn 0.809663 0.50856 -0.292937
vn 0.809663 0.50856 -0.292937
vn 0.809663 0.50856 -0.292937
vn -0.182909 0.71207 -0.677865
vn -0.182909 0.71207 -0.677865
vn -0.182909 0.71207 -0.677865
vn -0.191944 0.704202 -0.683563
vn -0.191944 0.704202 -0.683563
vn -0.191944 0.704202 -0.683563
vn -0.0179 0.928472 0.370971
vn -0.0179 0.928472 0.370971
vn -0.0179 0.928472 0.370971
vn 0.462126 0.83332 0.303345
vn 0.462126 0.83332 0.303345
vn 0.462126 0.83332 0.303345
usemtl datan_common_dol07_f3e04a6c
f 1/1/1 2/2/2 3/3/3
f 4/4/4 5/5/5 6/6/6
f 7/7/7 8/8/8 9/9/9
f 10/10/10 11/11/11 12/12/12
f 13/13/13 14/14/14 15/15/15
f 16/16/16 17/17/17 18/18/18
f 19/19/19 20/20/20 21/21/21
f 22/22/22 23/23/23 24/24/24
f 25/25/25 26/26/26 27/27/27
f 28/28/28 29/29/29 30/30/30
f 31/31/31 32/32/32 33/33/33
f 34/34/34 35/35/35 36/36/36
f 37/37/37 38/38/38 39/39/39
f 40/40/40 41/41/41 42/42/42
f 43/43/43 44/44/44 45/45/45
f 46/46/46 47/47/47 48/48/48
f 49/49/49 50/50/50 51/51/51
f 52/52/52 53/53/53 54/54/54
f 55/55/55 56/56/56 57/57/57
f 58/58/58 59/59/59 60/60/60
f 61/61/61 62/62/62 63/63/63
f 64/64/64 65/65/65 66/66/66
f 67/67/67 68/68/68 69/69/69
f 70/70/70 71/71/71 72/72/72
f 73/73/73 74/74/74 75/75/75
f 76/76/76 77/77/77 78/78/78
f 79/79/79 80/80/80 81/81/81
f 82/82/82 83/83/83 84/84/84
f 85/85/85 86/86/86 87/87/87
f 88/88/88 89/89/89 90/90/90
f 91/91/91 92/92/92 93/93/93
f 94/94/94 95/95/95 96/96/96
f 97/97/97 98/98/98 99/99/99
f 100/100/100 101/101/101 102/102/102
f 103/103/103 104/104/104 105/105/105
f 106/106/106 107/107/107 108/108/108
f 109/109/109 110/110/110 111/111/111
f 112/112/112 113/113/113 114/114/114
f 115/115/115 116/116/116 117/117/117
f 118/118/118 119/119/119 120/120/120
f 121/121/121 122/122/122 123/123/123
f 124/124/124 125/125/125 126/126/126
o datan_common_dol07_f3e04a6c_mesh01
v -0.406587 0.002745 1.770485
v -0.797375 0.402544 2.046324
v -0.291268 0.568495 1.597511
v 0.654546 0 2.777503
v 0.677474 0.528355 2.156867
v 0.137208 0.545506 2.772622
v -0.291268 0.568495 1.597511
v 0.169785 0.852317 1.715719
v 0.392492 0.231964 1.501355
v 0.00385 0.002745 1.355178
v -0.406587 0.002745 1.770485
v -0.291268 0.568495 1.597511
v -0.406587 0.002745 1.770485
v -0.986002 0.002745 2.049573
v -0.797375 0.402544 2.046324
v -0.804885 0.002745 2.58497
v -0.120976 0.002745 3.265837
v -0.489418 0.330997 2.729697
v 0.755198 0.002745 2.039482
v 0.826111 0.002745 1.520988
v 0.677474 0.528355 2.156867
v -0.789579 0.498096 -2.194674
v -0.450225 1.076004 -2.546319
v -1.010884 0.564783 -2.999791
v 0.396262 0.002745 -3.458255
v -0.070217 0.002745 -4.120029
v 0.167008 0.428449 -3.768007
v -0.789579 0.498096 -2.194674
v 0.245842 0.498096 -2.095625
v -0.17628 0.833546 -1.989438
v -0.17628 0.833546 -1.989438
v -0.450225 1.076004 -2.546319
v -0.789579 0.498096 -2.194674
v -0.705034 0.002745 -1.728261
v 0.003569 0.002745 -2.18925
v 0.245842 0.498096 -2.095625
v 0.003569 0.002745 -2.18925
v 0.898565 0.002745 -2.229346
v 0.245842 0.498096 -2.095625
v 0.245842 0.498096 -2.095625
v 0.176405 1.024405 -2.25508
v -0.17628 0.833546 -1.989438
v -0.302406 0.002745 -0.630599
v 0.323686 1.009992 -0.342385
v -0.065571 0.573577 -0.900189
v -0.065571 0.573577 -0.900189
v 0.323686 1.009992 -0.342385
v 0.458134 0.355831 -1.065834
v 0.578764 0.002745 -1.508437
v -0.302406 0.002745 -0.630599
v -0.065571 0.573577 -0.900189
v -0.065571 0.573577 -0.900189
v 0.458134 0.355831 -1.065834
v 0.578764 0.002745 -1.508437
v -0.302406 0.002745 -0.630599
v 0.211351 0.002745 0.096994
v 0.199915 0.532089 0.489211
v 0.199915 0.532089 0.489211
v 0.323686 1.009992 -0.342385
v -0.302406 0.002745 -0.630599
v 0.211351 0.002745 0.096994
v 0.243783 0.002745 0.721774
v 0.199915 0.532089 0.489211
v 0.243783 0.002745 0.721774
v 1.113924 0.002745 1.222065
v 1.061458 0.562517 0.813161
v 1.061458 0.562517 0.813161
v 0.199915 0.532089 0.489211
v 0.243783 0.002745 0.721774
v 0.199915 0.532089 0.489211
v 1.061458 0.562517 0.813161
v 0.323686 1.009992 -0.342385
v 1.113924 0.002745 1.222065
v 1.493293 0.002745 0.761202
v 1.435953 0.637566 0.036473
v 1.435953 0.637566 0.036473
v 1.061458 0.562517 0.813161
v 1.113924 0.002745 1.222065
v 1.493293 0.002745 0.761202
v 1.981125 0.002745 0.08088
v 1.435953 0.637566 0.036473
v 1.475806 0.002745 -0.692099
v 0.578764 0.002745 -1.508437
v 1.093121 0.593627 -0.987379
vt 0.55647 0.08033
vt 0.295278 0.547855
vt 0.633546 0.74192
vt 0.330589 0.071239
vt 0.948781 0.850635
vt 0.0005 0.9995
vt 1.001392 0.666347
vt 0.33287 1.007401
vt -0.004274 0.294559
vt 0.830795 0.08033
vt 0.55647 0.08033
vt 0.633546 0.74192
vt 0.55647 0.08033
vt 0.169205 0.08033
vt 0.295278 0.547855
vt 0.533091 0.141053
vt 1.180429 0.141053
vt 0.745739 0.494597
vt 0.406679 0.016755
vt 0.926581 0.012671
vt 0.298037 0.864669
vt 0.517405 0.47175
vt 0.514138 0.867247
vt 0.244572 0.517389
vt 0.594841 0.000499
vt 0.717337 0.000499
vt 0.725544 0.302849
vt 0.517405 0.47175
vt 0.82017 0.69287
vt 0.73498 0.701319
vt 0.73498 0.701319
vt 0.514138 0.867247
vt 0.517405 0.47175
vt -0.091984 0.044021
vt 0.389103 0.044021
vt 0.491019 0.476964
vt 0.389103 0.044021
vt 0.861717 0.044021
vt 0.491019 0.476964
vt 0.491019 0.476964
vt 0.494838 0.936965
vt 0.246377 0.770152
vt 0.900676 0.07933
vt 0.650556 0.92067
vt 0.981051 0.556139
vt 0.641214 0.978967
vt 0.406228 0.886309
vt 0.626115 0.645045
vt 0.711726 0.000499
vt 0.908457 0.000499
vt 0.862073 0.421132
vt 0.862073 0.421132
vt 0.762048 0.26068
vt 0.711726 0.000499
vt 0.900676 0.07933
vt 0.497854 0.213957
vt 0.289318 0.521484
vt 0.289318 0.521484
vt 0.650556 0.92067
vt 0.900676 0.07933
vt 0.468459 0.07933
vt 0.17364 0.07933
vt 0.289318 0.521484
vt 0.887122 0.077715
vt -0.005962 0.077715
vt 0.235886 0.681229
vt 0.235886 0.681229
vt 1.035067 0.648423
vt 0.887122 0.077715
vt 0.462355 0.999501
vt 0.000499 0.000499
vt 0.999501 0.370892
vt 0.0005 0.0005
vt 0.415306 0.11899
vt 0.702199 0.999501
vt 0.702199 0.999501
vt 0.119435 0.688553
vt 0.0005 0.0005
vt 0.415306 0.11899
vt 0.999501 0.30514
vt 0.702199 0.999501
vt 0.453286 0.012578
vt 0.999501 0.0005
vt 0.738128 0.635014
vn -0.641128 -0.101878 -0.760642
vn -0.641128 -0.101878 -0.760642
vn -0.641128 -0.101878 -0.760642
vn 0.615724 0.588618 0.523844
vn 0.615724 0.588618 0.523844
vn 0.615724 0.588618 0.523844
vn 0.033648 0.337186 -0.940836
vn 0.033648 0.337186 -0.940836
vn 0.033648 0.337186 -0.940836
vn -0.709532 -0.069764 -0.701211
vn -0.709532 -0.069764 -0.701211
vn -0.709532 -0.069764 -0.701211
vn -0.425738 0.193681 -0.883875
vn -0.425738 0.193681 -0.883875
vn -0.425738 0.193681 -0.883875
vn -0.662635 0.343363 0.665596
vn -0.662635 0.343363 0.665596
vn -0.662635 0.343363 0.665596
vn 0.984149 0.115469 0.134601
vn 0.984149 0.115469 0.134601
vn 0.984149 0.115469 0.134601
vn -0.756511 0.601055 0.25773
vn -0.756511 0.601055 0.25773
vn -0.756511 0.601055 0.25773
vn 0.81717 0.020947 -0.576016
vn 0.81717 0.020947 -0.576016
vn 0.81717 0.020947 -0.576016
vn -0.087324 -0.39885 0.912849
vn -0.087324 -0.39885 0.912849
vn -0.087324 -0.39885 0.912849
vn -0.535373 0.645686 0.544487
vn -0.535373 0.645686 0.544487
vn -0.535373 0.645686 0.544487
vn 0.501848 -0.391253 0.771408
vn 0.501848 -0.391253 0.771408
vn 0.501848 -0.391253 0.771408
vn 0.043793 -0.20618 0.977534
vn 0.043793 -0.20618 0.977534
vn 0.043793 -0.20618 0.977534
vn 0.457759 0.312559 0.832324
vn 0.457759 0.312559 0.832324
vn 0.457759 0.312559 0.832324
vn -0.854426 0.46447 0.23286
vn -0.854426 0.46447 0.23286
vn -0.854426 0.46447 0.23286
vn 0.103032 0.747237 -0.656523
vn 0.103032 0.747237 -0.656523
vn 0.103032 0.747237 -0.656523
vn -0.705151 -0.041727 -0.707828
vn -0.705151 -0.041727 -0.707828
vn -0.705151 -0.041727 -0.707828
vn 0.141725 0.792306 -0.593435
vn 0.141725 0.792306 -0.593435
vn 0.141725 0.792306 -0.593435
vn -0.746314 -0.406585 0.526976
vn -0.746314 -0.406585 0.526976
vn -0.746314 -0.406585 0.526976
vn -0.858327 0.489574 0.1536
vn -0.858327 0.489574 0.1536
vn -0.858327 0.489574 0.1536
vn -0.996864 -0.059877 0.051747
vn -0.996864 -0.059877 0.051747
vn -0.996864 -0.059877 0.051747
vn -0.429938 0.505943 0.74778
vn -0.429938 0.505943 0.74778
vn -0.429938 0.505943 0.74778
vn -0.34004 0.354504 0.871034
vn -0.34004 0.354504 0.871034
vn -0.34004 0.354504 0.871034
vn -0.2051 0.861471 0.464546
vn -0.2051 0.861471 0.464546
vn -0.2051 0.861471 0.464546
vn 0.604268 0.622445 0.497417
vn 0.604268 0.622445 0.497417
vn 0.604268 0.622445 0.497417
vn 0.813905 0.390521 0.430176
vn 0.813905 0.390521 0.430176
vn 0.813905 0.390521 0.430176
vn 0.653672 0.594148 0.468722
vn 0.653672 0.594148 0.468722
vn 0.653672 0.594148 0.468722
vn 0.67158 0.066163 -0.737972
vn 0.67158 0.066163 -0.737972
vn 0.67158 0.066163 -0.737972
usemtl datan_common_dol07_f3e04a6c
f 127/127/127 128/128/128 129/129/129
f 130/130/130 131/131/131 132/132/132
f 133/133/133 134/134/134 135/135/135
f 136/136/136 137/137/137 138/138/138
f 139/139/139 140/140/140 141/141/141
f 142/142/142 143/143/143 144/144/144
f 145/145/145 146/146/146 147/147/147
f 148/148/148 149/149/149 150/150/150
f 151/151/151 152/152/152 153/153/153
f 154/154/154 155/155/155 156/156/156
f 157/157/157 158/158/158 159/159/159
f 160/160/160 161/161/161 162/162/162
f 163/163/163 164/164/164 165/165/165
f 166/166/166 167/167/167 168/168/168
f 169/169/169 170/170/170 171/171/171
f 172/172/172 173/173/173 174/174/174
f 175/175/175 176/176/176 177/177/177
f 178/178/178 179/179/179 180/180/180
f 181/181/181 182/182/182 183/183/183
f 184/184/184 185/185/185 186/186/186
f 187/187/187 188/188/188 189/189/189
f 190/190/190 191/191/191 192/192/192
f 193/193/193 194/194/194 195/195/195
f 196/196/196 197/197/197 198/198/198
f 199/199/199 200/200/200 201/201/201
f 202/202/202 203/203/203 204/204/204
f 205/205/205 206/206/206 207/207/207
f 208/208/208 209/209/209 210/210/210
