# Generated from Nova1492 GX by tools/nova1492/GxObjConverter
mtllib datan_common_tree04_d95b10b2.mtl
o datan_common_tree04_d95b10b2
v -1.866024 -4.246346 4.547863
v -1.074396 -1.159126 6.23704
v 0.000001 0.127826 1.308258
v -1.074396 -1.159126 6.23704
v 0.79163 -0.862241 6.399481
v 0.000001 0.127826 1.308258
v 0.79163 -0.862241 6.399481
v 1.866027 -3.652576 4.872746
v 0.000001 0.127826 1.308258
v 1.866027 -3.652576 4.872746
v 1.074398 -6.739797 3.183569
v 0.000001 0.127826 1.308258
v 1.074398 -6.739797 3.183569
v -0.791628 -7.036681 3.021128
v 0.000001 0.127826 1.308258
v -0.791628 -7.036681 3.021128
v -1.866024 -4.246346 4.547863
v 0.000001 0.127826 1.308258
v 0.494897 -6.000305 1.43468
v -1.471538 -4.974902 1.99573
v 0.000001 0.291733 1.171496
v -1.471538 -4.974902 1.99573
v -1.966433 -1.36529 3.970734
v 0.000001 0.291733 1.171496
v -1.966433 -1.36529 3.970734
v -0.494894 1.21892 5.384688
v 0.000001 0.291733 1.171496
v -0.494894 1.21892 5.384688
v 1.471541 0.193517 4.823638
v 0.000001 0.291733 1.171496
v 1.471541 0.193517 4.823638
v 1.966436 -3.416095 2.848634
v 0.000001 0.291733 1.171496
v 1.966436 -3.416095 2.848634
v 0.494897 -6.000305 1.43468
v 0.000001 0.291733 1.171496
v -1.139735 -5.146829 0.749765
v -2.279472 -1.556919 2.71399
v 0.000001 0.359101 1.115285
v -2.279472 -1.556919 2.71399
v -1.139736 2.032993 4.678216
v 0.000001 0.359101 1.115285
v -1.139736 2.032993 4.678216
v 1.139737 2.032993 4.678216
v 0.000001 0.359101 1.115285
v 1.139737 2.032993 4.678216
v 2.279474 -1.556917 2.713991
v 0.000001 0.359101 1.115285
v 2.279474 -1.556917 2.713991
v 1.139738 -5.146828 0.749766
v 0.000001 0.359101 1.115285
v 1.139738 -5.146828 0.749766
v -1.139735 -5.146829 0.749765
v 0.000001 0.359101 1.115285
v 0.248976 1.068138 1.603653
v -0.562176 3.623081 0.648422
v -1.058956 2.058334 -0.207732
v -0.247805 -0.496608 0.7475
v 0.248976 1.068138 1.603653
v -0.247805 -0.496608 0.7475
v -1.058956 2.058334 -0.207732
v -0.562176 3.623081 0.648422
v 0.247805 -0.496609 0.7475
v 1.058957 2.058334 -0.207732
v 0.562176 3.623081 0.648422
v -0.248976 1.068138 1.603653
v 0.247805 -0.496609 0.7475
v -0.248976 1.068138 1.603653
v 0.562176 3.623081 0.648422
v 1.058957 2.058334 -0.207732
v -0.496781 0.28761 1.176586
v -0.496781 0.287609 -1.176586
v 0.496781 0.28761 -1.176586
v 0.496781 0.28761 1.176586
v -0.496781 0.28761 1.176586
v 0.496781 0.28761 1.176586
v 0.496781 0.28761 -1.176586
v -0.496781 0.287609 -1.176586
vt 0.397152 0.014838
vt 0.49418 0.247347
vt 0.251914 0.248086
vt 0.49418 0.251175
vt 0.380534 0.493934
vt 0.251914 0.251914
vt 0.380534 0.493934
vt 0.105226 0.492295
vt 0.248086 0.251914
vt 0.105226 0.492295
vt 0.00582 0.243142
vt 0.248086 0.251914
vt 0.00582 0.239314
vt 0.117089 0.010822
vt 0.248086 0.248086
vt 0.117089 0.010822
vt 0.397152 0.014838
vt 0.251914 0.248086
vt 0.493934 0.251914
vt 0.372924 0.493934
vt 0.251914 0.251914
vt 0.37101 0.493934
vt 0.12899 0.493934
vt 0.25 0.251914
vt 0.127076 0.493934
vt 0.006066 0.247159
vt 0.248086 0.251914
vt 0.006066 0.243331
vt 0.090947 0.006066
vt 0.248086 0.248086
vt 0.090947 0.006066
vt 0.378143 0.006066
vt 0.248086 0.248086
vt 0.378143 0.006066
vt 0.493934 0.248086
vt 0.251914 0.248086
vt 0.993934 0.242403
vt 0.872924 0.493934
vt 0.751914 0.251914
vt 0.87101 0.493934
vt 0.62899 0.493934
vt 0.75 0.251914
vt 0.627076 0.493934
vt 0.506066 0.251914
vt 0.748086 0.251914
vt 0.506066 0.248086
vt 0.590947 0.006066
vt 0.748086 0.248086
vt 0.590947 0.006066
vt 0.878143 0.006066
vt 0.748086 0.248086
vt 0.878143 0.006066
vt 0.993934 0.238575
vt 0.751914 0.248086
vt 0.755941 0.755941
vt 0.755942 0.994059
vt 0.994059 0.994059
vt 0.994059 0.755941
vt 0.755941 0.755941
vt 0.994059 0.755941
vt 0.994059 0.994059
vt 0.755942 0.994059
vt 0.755941 0.755941
vt 0.755942 0.994059
vt 0.994059 0.994059
vt 0.994059 0.755941
vt 0.755941 0.755941
vt 0.994059 0.755941
vt 0.994059 0.994059
vt 0.755942 0.994059
vt 0.755941 0.755941
vt 0.755942 0.994059
vt 0.994059 0.994059
vt 0.994059 0.755941
vt 0.755941 0.755941
vt 0.994059 0.755941
vt 0.994059 0.994059
vt 0.755942 0.994059
vn -0.942589 0.309855 -0.124564
vn -0.942589 0.309855 -0.124564
vn -0.942589 0.309855 -0.124564
vn -0.171611 0.961707 0.213703
vn -0.171611 0.961707 0.213703
vn -0.171611 0.961707 0.213703
vn 0.918299 0.390192 -0.066906
vn 0.918299 0.390192 -0.066906
vn 0.918299 0.390192 -0.066906
vn 0.893095 0.016963 -0.449549
vn 0.893095 0.016963 -0.449549
vn 0.893095 0.016963 -0.449549
vn 0.122504 -0.243557 -0.962119
vn 0.122504 -0.243557 -0.962119
vn 0.122504 -0.243557 -0.962119
vn -0.8455 -0.03398 -0.532893
vn -0.8455 -0.03398 -0.532893
vn -0.8455 -0.03398 -0.532893
vn -0.304381 -0.063695 -0.950418
vn -0.304381 -0.063695 -0.950418
vn -0.304381 -0.063695 -0.950418
vn -0.849638 0.158687 -0.502926
vn -0.849638 0.158687 -0.502926
vn -0.849638 0.158687 -0.502926
vn -0.791748 0.570419 -0.218532
vn -0.791748 0.570419 -0.218532
vn -0.791748 0.570419 -0.218532
vn 0.424091 0.893635 -0.146845
vn 0.424091 0.893635 -0.146845
vn 0.424091 0.893635 -0.146845
vn 0.884238 0.311588 -0.347902
vn 0.884238 0.311588 -0.347902
vn 0.884238 0.311588 -0.347902
vn 0.672391 0.021939 -0.739871
vn 0.672391 0.021939 -0.739871
vn 0.672391 0.021939 -0.739871
vn -0.663983 0.185534 -0.724365
vn -0.663983 0.185534 -0.724365
vn -0.663983 0.185534 -0.724365
vn -0.737603 0.48897 -0.465672
vn -0.737603 0.48897 -0.465672
vn -0.737603 0.48897 -0.465672
vn -0 0.905091 -0.425219
vn -0 0.905091 -0.425219
vn -0 0.905091 -0.425219
vn 0.737603 0.48897 -0.465672
vn 0.737603 0.48897 -0.465672
vn 0.737603 0.48897 -0.465672
vn 0.663983 0.185534 -0.724364
vn 0.663983 0.185534 -0.724364
vn 0.663983 0.185534 -0.724364
vn 0 0.066241 -0.997804
vn 0 0.066241 -0.997804
vn 0 0.066241 -0.997804
vn -0.822313 -0.049116 0.566912
vn -0.822313 -0.049116 0.566912
vn -0.822313 -0.049116 0.566912
vn -0.822313 -0.049116 0.566912
vn 0.822313 0.049116 -0.566912
vn 0.822313 0.049116 -0.566912
vn 0.822313 0.049116 -0.566912
vn 0.822313 0.049116 -0.566912
vn 0.822313 -0.049116 0.566912
vn 0.822313 -0.049116 0.566912
vn 0.822313 -0.049116 0.566912
vn 0.822313 -0.049116 0.566912
vn -0.822313 0.049116 -0.566912
vn -0.822313 0.049116 -0.566912
vn -0.822313 0.049116 -0.566912
vn -0.822313 0.049116 -0.566912
vn 0 -1 0
vn 0 -1 0
vn 0 -1 0
vn 0 -1 0
vn -0 1 -0
vn -0 1 -0
vn -0 1 -0
vn -0 1 -0
usemtl datan_common_tree04_d95b10b2
f 1/1/1 2/2/2 3/3/3
f 4/4/4 5/5/5 6/6/6
f 7/7/7 8/8/8 9/9/9
f 10/10/10 11/11/11 12/12/12
f 13/13/13 14/14/14 15/15/15
f 16/16/16 17/17/17 18/18/18
f 19/19/19 20/20/20 21/21/21
f 22/22/22 23/23/23 24/24/24
f 25/25/25 26/26/26 27/27/27
f 28/28/28 29/29/29 30/30/30
f 31/31/31 32/32/32 33/33/33
f 34/34/34 35/35/35 36/36/36
f 37/37/37 38/38/38 39/39/39
f 40/40/40 41/41/41 42/42/42
f 43/43/43 44/44/44 45/45/45
f 46/46/46 47/47/47 48/48/48
f 49/49/49 50/50/50 51/51/51
f 52/52/52 53/53/53 54/54/54
f 55/55/55 56/56/56 57/57/57
f 57/57/57 58/58/58 55/55/55
f 59/59/59 60/60/60 61/61/61
f 61/61/61 62/62/62 59/59/59
f 63/63/63 64/64/64 65/65/65
f 65/65/65 66/66/66 63/63/63
f 67/67/67 68/68/68 69/69/69
f 69/69/69 70/70/70 67/67/67
f 71/71/71 72/72/72 73/73/73
f 73/73/73 74/74/74 71/71/71
f 75/75/75 76/76/76 77/77/77
f 77/77/77 78/78/78 75/75/75
