# Generated from Nova1492 GX by tools/nova1492/GxObjConverter
mtllib datan_common_MBShield_067fd038.mtl
o datan_common_MBShield_067fd038_mesh00
v -0 4.996941 -0
v -2.627047 4.250652 -0
v -0.811802 4.250652 2.49847
v -4.469399 2.234699 -0
v -3.438849 2.627047 2.49847
v -1.381121 2.2347 4.250652
v 2.125326 4.250652 1.54414
v 1.313523 2.627047 4.04261
v 3.61582 2.2347 2.627047
v 2.125326 4.250652 -1.54414
v 4.250652 2.627047 -0
v 3.61582 2.2347 -2.627048
v -0.811802 4.250652 -2.49847
v 1.313523 2.627047 -4.04261
v -1.38112 2.234699 -4.250651
v -3.438849 2.627047 -2.49847
v -4.752373 -0 -1.544139
v -4.752373 -0 1.544139
v -2.937129 -0 4.04261
v -0 0 4.99694
v 2.937128 0 4.04261
v 4.752373 0 1.54414
v 4.752373 0 -1.54414
v 2.937129 0 -4.04261
v 0 0 -4.99694
v -2.937129 -0 -4.042609
vt 0.876914 0.126914
vt 0.939958 0.126914
vt 0.897579 0.183572
vt 0.986855 0.123086
vt 0.964451 0.183572
vt 0.912071 0.225992
vt 0.822814 0.160469
vt 0.843478 0.220955
vt 0.784873 0.186685
vt 0.822814 0.085703
vt 0.768713 0.123086
vt 0.784872 0.059487
vt 0.897579 0.0626
vt 0.843478 0.025217
vt 0.912071 0.02018
vt 0.964451 0.0626
vt 0.994059 0.089531
vt 0.994059 0.160469
vt 0.947851 0.220955
vt 0.876914 0.244059
vt 0.802149 0.220955
vt 0.755942 0.160469
vt 0.755942 0.085703
vt 0.802149 0.029045
vt 0.876914 0.005941
vt 0.947851 0.025217
vn -0 1 -0
vn -0.525731 0.850651 0
vn -0.16246 0.850651 0.5
vn -0.894427 0.447214 0
vn -0.688191 0.525731 0.5
vn -0.276393 0.447214 0.850651
vn 0.425325 0.850651 0.309017
vn 0.262866 0.525731 0.809017
vn 0.723607 0.447214 0.525731
vn 0.425325 0.850651 -0.309017
vn 0.850651 0.525731 0
vn 0.723607 0.447214 -0.525731
vn -0.16246 0.850651 -0.5
vn 0.262865 0.525731 -0.809017
vn -0.276393 0.447214 -0.850651
vn -0.688191 0.525731 -0.5
vn -0.924891 0.222409 -0.308401
vn -0.924891 0.222409 0.308401
vn -0.579114 0.222409 0.784322
vn 0.0075 0.222408 0.974925
vn 0.566979 0.222409 0.793139
vn 0.929526 0.222409 0.294136
vn 0.929526 0.222409 -0.294136
vn 0.566979 0.222409 -0.793139
vn 0.007499 0.222408 -0.974925
vn -0.579114 0.222409 -0.784323
usemtl datan_common_MBShield_067fd038
f 1/1/1 2/2/2 3/3/3
f 2/2/2 4/4/4 5/5/5
f 2/2/2 5/5/5 3/3/3
f 3/3/3 5/5/5 6/6/6
f 1/1/1 3/3/3 7/7/7
f 3/3/3 6/6/6 8/8/8
f 3/3/3 8/8/8 7/7/7
f 7/7/7 8/8/8 9/9/9
f 1/1/1 7/7/7 10/10/10
f 7/7/7 9/9/9 11/11/11
f 7/7/7 11/11/11 10/10/10
f 10/10/10 11/11/11 12/12/12
f 1/1/1 10/10/10 13/13/13
f 10/10/10 12/12/12 14/14/14
f 10/10/10 14/14/14 13/13/13
f 13/13/13 14/14/14 15/15/15
f 1/1/1 13/13/13 2/2/2
f 13/13/13 15/15/15 16/16/16
f 13/13/13 16/16/16 2/2/2
f 2/2/2 16/16/16 4/4/4
f 4/4/4 17/17/17 18/18/18
f 6/6/6 19/19/19 20/20/20
f 9/9/9 21/21/21 22/22/22
f 12/12/12 23/23/23 24/24/24
f 15/15/15 25/25/25 26/26/26
f 19/19/19 6/6/6 5/5/5
f 19/19/19 5/5/5 18/18/18
f 18/18/18 5/5/5 4/4/4
f 21/21/21 9/9/9 8/8/8
f 21/21/21 8/8/8 20/20/20
f 20/20/20 8/8/8 6/6/6
f 23/23/23 12/12/12 11/11/11
f 23/23/23 11/11/11 22/22/22
f 22/22/22 11/11/11 9/9/9
f 25/25/25 15/15/15 14/14/14
f 25/25/25 14/14/14 24/24/24
f 24/24/24 14/14/14 12/12/12
f 17/17/17 4/4/4 16/16/16
f 17/17/17 16/16/16 26/26/26
f 26/26/26 16/16/16 15/15/15
o datan_common_MBShield_067fd038_mesh01
v 0.000001 -4.996941 0
v -2.627046 -4.250651 0
v -0.811801 -4.250651 -2.49847
v -4.469399 -2.234701 0
v -3.438849 -2.627048 -2.49847
v -1.38112 -2.2347 -4.250652
v 2.125326 -4.250651 -1.544139
v 1.313524 -2.627047 -4.042609
v 3.615821 -2.234699 -2.627046
v 2.125326 -4.250649 1.54414
v 4.250652 -2.627046 0.000001
v 3.61582 -2.234699 2.627048
v -0.811802 -4.250651 2.498471
v 1.313523 -2.627046 4.04261
v -1.38112 -2.234699 4.250652
v -3.438849 -2.627047 2.49847
v -4.752373 -0 1.544139
v -4.752373 -0.000001 -1.544139
v -2.937128 -0.000001 -4.042609
v 0 -0 -4.99694
v 2.937128 0 -4.04261
v 4.752373 0 -1.544139
v 4.752373 0.000001 1.54414
v 2.937128 0.000001 4.042611
v -0 0 4.996941
v -2.937129 -0 4.042609
vt 0.126914 0.126914
vt 0.189958 0.126914
vt 0.147579 0.183572
vt 0.236855 0.123086
vt 0.210623 0.183572
vt 0.158243 0.225992
vt 0.068985 0.160469
vt 0.08965 0.220955
vt 0.031045 0.186685
vt 0.068985 0.085703
vt 0.014885 0.123086
vt 0.031044 0.059487
vt 0.143751 0.0626
vt 0.08965 0.025217
vt 0.158243 0.02018
vt 0.210623 0.0626
vt 0.244059 0.089531
vt 0.244059 0.160469
vt 0.197851 0.220955
vt 0.123086 0.244059
vt 0.048321 0.220955
vt 0.005941 0.160469
vt 0.005941 0.085703
vt 0.048321 0.029045
vt 0.123086 0.005941
vt 0.197851 0.025217
vn 0 -1 0
vn -0.525731 -0.850651 0
vn -0.16246 -0.850651 -0.5
vn -0.894427 -0.447214 0
vn -0.688191 -0.525731 -0.5
vn -0.276393 -0.447214 -0.850651
vn 0.425326 -0.850651 -0.309017
vn 0.262866 -0.525731 -0.809017
vn 0.723607 -0.447214 -0.525731
vn 0.425326 -0.850651 0.309017
vn 0.850651 -0.525731 0
vn 0.723607 -0.447214 0.525731
vn -0.16246 -0.850651 0.5
vn 0.262866 -0.525731 0.809017
vn -0.276393 -0.447214 0.850651
vn -0.688191 -0.525731 0.5
vn -0.924891 -0.222409 0.308401
vn -0.924891 -0.222409 -0.308401
vn -0.579114 -0.222408 -0.784323
vn 0.0075 -0.222408 -0.974925
vn 0.566979 -0.222409 -0.793139
vn 0.929526 -0.222409 -0.294136
vn 0.929526 -0.222409 0.294136
vn 0.566979 -0.222409 0.793139
vn 0.0075 -0.222409 0.974925
vn -0.579114 -0.222409 0.784322
usemtl datan_common_MBShield_067fd038
f 27/27/27 28/28/28 29/29/29
f 28/28/28 30/30/30 31/31/31
f 28/28/28 31/31/31 29/29/29
f 29/29/29 31/31/31 32/32/32
f 27/27/27 29/29/29 33/33/33
f 29/29/29 32/32/32 34/34/34
f 29/29/29 34/34/34 33/33/33
f 33/33/33 34/34/34 35/35/35
f 27/27/27 33/33/33 36/36/36
f 33/33/33 35/35/35 37/37/37
f 33/33/33 37/37/37 36/36/36
f 36/36/36 37/37/37 38/38/38
f 27/27/27 36/36/36 39/39/39
f 36/36/36 38/38/38 40/40/40
f 36/36/36 40/40/40 39/39/39
f 39/39/39 40/40/40 41/41/41
f 27/27/27 39/39/39 28/28/28
f 39/39/39 41/41/41 42/42/42
f 39/39/39 42/42/42 28/28/28
f 28/28/28 42/42/42 30/30/30
f 30/30/30 43/43/43 44/44/44
f 32/32/32 45/45/45 46/46/46
f 35/35/35 47/47/47 48/48/48
f 38/38/38 49/49/49 50/50/50
f 41/41/41 51/51/51 52/52/52
f 45/45/45 32/32/32 31/31/31
f 45/45/45 31/31/31 44/44/44
f 44/44/44 31/31/31 30/30/30
f 47/47/47 35/35/35 34/34/34
f 47/47/47 34/34/34 46/46/46
f 46/46/46 34/34/34 32/32/32
f 49/49/49 38/38/38 37/37/37
f 49/49/49 37/37/37 48/48/48
f 48/48/48 37/37/37 35/35/35
f 51/51/51 41/41/41 40/40/40
f 51/51/51 40/40/40 50/50/50
f 50/50/50 40/40/40 38/38/38
f 43/43/43 30/30/30 42/42/42
f 43/43/43 42/42/42 52/52/52
f 52/52/52 42/42/42 41/41/41
o datan_common_MBShield_067fd038_mesh02
v 0 4.287379 -0
v 2.254009 3.647063 -0
v 0.696527 3.647063 -2.14369
v 3.834748 1.917374 0
v 2.950536 2.254009 -2.14369
v 1.185002 1.917374 -3.647063
v 0 4.287379 -0
v 0.696527 3.647063 -2.14369
v -1.823532 3.647063 -1.324873
v 1.185002 1.917374 -3.647063
v -1.127004 2.254009 -3.468563
v -3.102377 1.917374 -2.254009
v -1.823531 3.647063 1.324874
v -3.647063 2.254009 0
v -3.102377 1.917374 2.254009
v 0.696527 3.647063 2.14369
v -1.127004 2.254009 3.468563
v 1.185003 1.917374 3.647063
v 2.950535 2.254009 2.14369
v 4.07754 0 1.324872
v 4.07754 0 -1.324873
v 2.520059 0 -3.468563
v 0 0 -4.28738
v -2.520058 0 -3.468563
v -4.07754 0 -1.324873
v -4.07754 0 1.324874
v -2.520058 0 3.468564
v -0 0 4.28738
v 2.520058 0 3.468562
v 0 0 -4.28738
v -5.404262 0.051294 1.755954
v -3.244987 1.762723 1.054362
v -2.005507 1.762723 2.760361
v -3.340011 0.051294 4.597151
v 0.000015 1.762723 3.411994
v 0.000016 0.051294 5.68239
v 2.005537 1.762723 2.760361
v 3.340042 0.051294 4.597149
v 3.245017 1.762723 1.054362
v 5.404293 0.051294 1.755952
v -5.404262 0.051294 -1.755958
v -3.244987 1.762723 -1.054368
v -3.244987 1.762723 1.054362
v -5.404262 0.051294 1.755954
v 5.404293 0.051294 1.755952
v 3.245017 1.762723 1.054362
v 3.245017 1.762723 -1.054368
v 5.404293 0.051294 -1.75596
v 0.000015 0.051294 -5.682398
v 0.000015 1.762723 -3.412
v -2.005507 1.762723 -2.760367
v -3.340012 0.051294 -4.597156
v -3.244987 1.762723 -1.054368
v -5.404262 0.051294 -1.755958
v 5.404293 0.051294 -1.75596
v 3.245017 1.762723 -1.054368
v 2.005537 1.762723 -2.760367
v 3.340041 0.051294 -4.597157
vt 0.998008 0.498008
vt 0.998008 0.498008
vt 0.998008 0.498008
vt 0.998008 0.498008
vt 0.998008 0.498008
vt 0.998008 0.498008
vt 0.802344 0.498008
vt 0.75582 0.498008
vt 0.897305 0.498008
vt 0.75582 0.498008
vt 0.804258 0.498008
vt 0.901133 0.498008
vt 0.998008 0.498008
vt 0.99418 0.498008
vt 0.998008 0.498008
vt 0.998008 0.498008
vt 0.998008 0.498008
vt 0.998008 0.498008
vt 0.998008 0.498008
vt 0.998008 0.498008
vt 0.998008 0.498008
vt 0.998008 0.498008
vt 0.998008 0.498008
vt 0.852695 0.498008
vt 0.945742 0.498008
vt 0.998008 0.498008
vt 0.998008 0.498008
vt 0.998008 0.498008
vt 0.998008 0.498008
vt 0.75582 0.49418
vt 0.256066 0.005942
vt 0.276462 0.244059
vt 0.358749 0.244059
vt 0.349972 0.005941
vt 0.498086 0.244059
vt 0.498086 0.005941
vt 0.637423 0.244059
vt 0.650028 0.005941
vt 0.723538 0.244058
vt 0.743934 0.005941
vt 0.681554 0.005941
vt 0.666334 0.244059
vt 0.333666 0.244059
vt 0.318445 0.005941
vt 0.318446 0.005941
vt 0.333667 0.244059
vt 0.666334 0.244059
vt 0.681555 0.005941
vt 0.501914 0.005941
vt 0.501914 0.244059
vt 0.637423 0.244058
vt 0.650028 0.005941
vt 0.723538 0.244059
vt 0.743934 0.005941
vt 0.256066 0.005942
vt 0.276462 0.244059
vt 0.358749 0.244059
vt 0.349972 0.005941
vn 0.027023 0.996169 0.083169
vn 0.525731 0.850651 0
vn 0.400276 0.822364 -0.404347
vn 0.894427 0.447213 0
vn 0.688191 0.525731 -0.5
vn 0.447822 0.387972 -0.805564
vn -0.10238 0.943522 -0.315094
vn -0.08616 0.822364 -0.5624
vn -0.425325 0.850651 -0.309017
vn 0.007032 0.505721 -0.862669
vn -0.262866 0.525731 -0.809017
vn -0.723607 0.447213 -0.525731
vn -0.425325 0.850651 0.309017
vn -0.850651 0.525731 0
vn -0.723607 0.447214 0.525731
vn 0.16246 0.850651 0.5
vn -0.262866 0.525731 0.809017
vn 0.276394 0.447213 0.850651
vn 0.688191 0.525731 0.5
vn 0.924891 0.222408 0.308401
vn 0.924891 0.222408 -0.308401
vn 0.579114 0.222409 -0.784322
vn 0.306569 0.125624 -0.943522
vn -0.566979 0.222408 -0.793139
vn -0.929526 0.222408 -0.294136
vn -0.929526 0.222408 0.294136
vn -0.566979 0.222409 0.793139
vn -0.007499 0.222409 0.974925
vn 0.579114 0.222408 0.784322
vn -0.166188 0.262227 -0.950588
vn 0.502521 -0.783692 -0.365103
vn -0.502521 0.783692 0.365103
vn 0.809017 -0 0.587785
vn -0.809017 -0 -0.587785
vn 1 -0 0
vn -1 -0 -0
vn 0.809017 -0 -0.587785
vn -0.809017 -0 0.587785
vn -0.502521 -0.783692 -0.365103
vn 0.502521 0.783692 0.365103
vn 0.62115 -0.783692 0
vn -0.62115 0.783692 0
vn 0.62115 -0.783692 0
vn -0.62115 0.783692 0
vn -0.62115 -0.783692 -0
vn 0.62115 0.783692 -0
vn -0.62115 -0.783692 -0
vn 0.62115 0.783692 -0
vn 1 -0 0
vn -1 -0.000001 -0
vn -0.809018 -0.000001 0.587784
vn 0.809018 0 -0.587784
vn 0.502521 -0.783692 0.365103
vn -0.502521 0.783692 -0.365103
vn -0.502521 -0.783692 0.365103
vn 0.502521 0.783692 -0.365103
vn -0.809018 0.000001 -0.587785
vn 0.809017 -0.000001 0.587785
usemtl datan_common_MBShield_067fd038
f 53/53/53 54/54/54 55/55/55
f 54/54/54 56/56/56 57/57/57
f 54/54/54 57/57/57 55/55/55
f 55/55/55 57/57/57 58/58/58
f 59/59/59 60/60/60 61/61/61
f 60/60/60 62/62/62 63/63/63
f 60/60/60 63/63/63 61/61/61
f 61/61/61 63/63/63 64/64/64
f 53/53/53 61/61/61 65/65/65
f 61/61/61 64/64/64 66/66/66
f 61/61/61 66/66/66 65/65/65
f 65/65/65 66/66/66 67/67/67
f 53/53/53 65/65/65 68/68/68
f 65/65/65 67/67/67 69/69/69
f 65/65/65 69/69/69 68/68/68
f 68/68/68 69/69/69 70/70/70
f 53/53/53 68/68/68 54/54/54
f 68/68/68 70/70/70 71/71/71
f 68/68/68 71/71/71 54/54/54
f 54/54/54 71/71/71 56/56/56
f 56/56/56 72/72/72 73/73/73
f 58/58/58 74/74/74 75/75/75
f 64/64/64 76/76/76 77/77/77
f 67/67/67 78/78/78 79/79/79
f 70/70/70 80/80/80 81/81/81
f 74/74/74 58/58/58 57/57/57
f 74/74/74 57/57/57 73/73/73
f 73/73/73 57/57/57 56/56/56
f 76/76/76 64/64/64 63/63/63
f 76/76/76 63/63/63 82/82/82
f 82/82/82 63/63/63 62/62/62
f 78/78/78 67/67/67 66/66/66
f 78/78/78 66/66/66 77/77/77
f 77/77/77 66/66/66 64/64/64
f 80/80/80 70/70/70 69/69/69
f 80/80/80 69/69/69 79/79/79
f 79/79/79 69/69/69 67/67/67
f 72/72/72 56/56/56 71/71/71
f 72/72/72 71/71/71 81/81/81
f 81/81/81 71/71/71 70/70/70
f 83/83/83 84/84/84 85/85/85
f 83/83/83 85/85/85 86/86/86
f 86/86/86 85/85/85 87/87/87
f 86/86/86 87/87/87 88/88/88
f 88/88/88 87/87/87 89/89/89
f 88/88/88 89/89/89 90/90/90
f 90/90/90 89/89/89 91/91/91
f 90/90/90 91/91/91 92/92/92
f 84/84/84 83/83/83 86/86/86
f 84/84/84 86/86/86 85/85/85
f 85/85/85 86/86/86 88/88/88
f 85/85/85 88/88/88 87/87/87
f 87/87/87 88/88/88 90/90/90
f 87/87/87 90/90/90 89/89/89
f 89/89/89 90/90/90 92/92/92
f 89/89/89 92/92/92 91/91/91
f 93/93/93 94/94/94 95/95/95
f 93/93/93 95/95/95 96/96/96
f 97/97/97 98/98/98 99/99/99
f 97/97/97 99/99/99 100/100/100
f 94/94/94 93/93/93 96/96/96
f 94/94/94 96/96/96 95/95/95
f 98/98/98 97/97/97 100/100/100
f 98/98/98 100/100/100 99/99/99
f 101/101/101 102/102/102 103/103/103
f 101/101/101 103/103/103 104/104/104
f 104/104/104 103/103/103 105/105/105
f 104/104/104 105/105/105 106/106/106
f 107/107/107 108/108/108 109/109/109
f 107/107/107 109/109/109 110/110/110
f 110/110/110 109/109/109 102/102/102
f 110/110/110 102/102/102 101/101/101
f 102/102/102 101/101/101 104/104/104
f 102/102/102 104/104/104 103/103/103
f 103/103/103 104/104/104 106/106/106
f 103/103/103 106/106/106 105/105/105
f 108/108/108 107/107/107 110/110/110
f 108/108/108 110/110/110 109/109/109
f 109/109/109 110/110/110 101/101/101
f 109/109/109 101/101/101 102/102/102
