# Generated from Nova1492 GX by tools/nova1492/GxObjConverter
mtllib datan_common_m2effect_d89119af.mtl
o datan_common_m2effect_d89119af
v -0.024507 0.637773 0.207671
v -0.024507 0.637773 -0.207671
v 0.097799 0.644393 0.200095
v 0.095064 0.620491 -0.195021
v 0.21996 0.625159 0.185556
v 0.207639 0.581226 -0.151416
v 0.338816 0.574956 0.17126
v 0.304605 0.522851 -0.078699
v 0.439561 0.498228 0.161384
v 0.38909 0.444801 0.02163
v 0.522633 0.394173 0.16433
v 0.453413 0.358424 0.139299
v 0.572196 0.276562 0.180939
v 0.499222 0.255505 0.276568
v 0.591786 0.145222 0.22004
v 0.523449 0.151486 0.417901
v 0.574936 0.020199 0.276235
v 0.522368 0.038319 0.5677
v 0.525438 -0.098072 0.356475
v 0.49681 -0.069176 0.710949
v 0.449447 -0.194453 0.452411
v 0.443289 -0.172389 0.849461
v -0.024507 0.603942 -0.103726
v -0.024507 0.671534 0.103945
v 0.090568 0.594705 -0.040698
v 0.102285 0.670125 0.046096
v 0.201686 0.566284 0.038036
v 0.225901 0.640069 -0.003498
v 0.299809 0.52038 0.127198
v 0.343602 0.577422 -0.034204
v 0.391848 0.451895 0.225535
v 0.436809 0.491149 -0.042093
v 0.467177 0.369848 0.324116
v 0.508898 0.382774 -0.020098
v 0.523664 0.267208 0.426302
v 0.547805 0.264883 0.03152
v 0.556894 0.154409 0.524201
v 0.558412 0.142306 0.113962
v 0.559915 0.033685 0.619515
v 0.537467 0.024823 0.224529
v 0.531333 -0.087457 0.710321
v 0.490987 -0.07983 0.357103
v 0.471948 -0.19659 0.791401
v 0.420848 -0.170303 0.510348
v -0.024507 0.671534 -0.103945
v -0.024507 0.603942 0.103726
v 0.100916 0.658161 -0.15167
v 0.091934 0.606644 0.156653
v 0.219734 0.61808 -0.172161
v 0.20784 0.588228 0.206344
v 0.326479 0.551342 -0.159315
v 0.316896 0.546405 0.252046
v 0.411546 0.464407 -0.112044
v 0.417057 0.47858 0.295339
v 0.474252 0.36488 -0.032627
v 0.501751 0.387704 0.336619
v 0.511279 0.254343 0.079385
v 0.560113 0.277725 0.378538
v 0.524207 0.145442 0.212997
v 0.591026 0.15128 0.425375
v 0.511156 0.033892 0.370415
v 0.586172 0.024635 0.473936
v 0.476658 -0.065367 0.534526
v 0.545633 -0.10189 0.53327
v 0.417765 -0.159259 0.709082
v 0.475024 -0.207611 0.593085
vt 0.00582 0.99418
vt 0.00582 0.75582
vt 0.051211 0.99418
vt 0.051211 0.75582
vt 0.10043 0.99418
vt 0.10043 0.75582
vt 0.149648 0.99418
vt 0.149648 0.75582
vt 0.198867 0.99418
vt 0.198867 0.75582
vt 0.248086 0.99418
vt 0.248086 0.75582
vt 0.297305 0.99418
vt 0.297305 0.75582
vt 0.346523 0.99418
vt 0.346523 0.75582
vt 0.395742 0.99418
vt 0.395742 0.75582
vt 0.444961 0.99418
vt 0.444961 0.75582
vt 0.49418 0.99418
vt 0.49418 0.75582
vt 0.00582 0.99418
vt 0.00582 0.75582
vt 0.051211 0.99418
vt 0.051211 0.75582
vt 0.10043 0.99418
vt 0.10043 0.75582
vt 0.149648 0.99418
vt 0.149648 0.75582
vt 0.198867 0.99418
vt 0.198867 0.75582
vt 0.248086 0.99418
vt 0.248086 0.75582
vt 0.297305 0.99418
vt 0.297305 0.75582
vt 0.346523 0.99418
vt 0.346523 0.75582
vt 0.395742 0.99418
vt 0.395742 0.75582
vt 0.444961 0.99418
vt 0.444961 0.75582
vt 0.49418 0.99418
vt 0.49418 0.75582
vt 0.00582 0.99418
vt 0.00582 0.75582
vt 0.051211 0.99418
vt 0.051211 0.75582
vt 0.10043 0.99418
vt 0.10043 0.75582
vt 0.149648 0.99418
vt 0.149648 0.75582
vt 0.198867 0.99418
vt 0.198867 0.75582
vt 0.248086 0.99418
vt 0.248086 0.75582
vt 0.297305 0.99418
vt 0.297305 0.75582
vt 0.346523 0.99418
vt 0.346523 0.75582
vt 0.395742 0.99418
vt 0.395742 0.75582
vt 0.444961 0.99418
vt 0.444961 0.75582
vt 0.49418 0.99418
vt 0.49418 0.75582
vn 0.054049 -0.998538 0
vn -0.14908 -0.986958 0.060739
vn -0.148188 -0.987092 0.060741
vn -0.372047 -0.918583 0.133365
vn -0.371973 -0.918613 0.133367
vn -0.626549 -0.741412 0.240303
vn -0.572825 -0.783242 0.241669
vn -0.832809 -0.345208 0.432737
vn -0.699716 -0.545557 0.461264
vn -0.516912 0.530404 0.671918
vn -0.336105 -0.008639 0.941785
vn 0.384162 0.795654 0.468353
vn 0.727832 0.293122 0.619951
vn 0.801089 0.539317 0.259603
vn 0.945227 0.019074 0.325855
vn 0.965476 0.204447 0.161422
vn 0.944927 -0.268512 0.187119
vn 0.989208 -0.116116 0.089358
vn 0.831341 -0.544458 0.111525
vn 0.906753 -0.420001 0.037404
vn 0.906753 -0.420001 0.037404
vn 0.906753 -0.420001 0.037404
vn 0.238736 0.923405 -0.300546
vn -0.270255 0.744509 -0.610467
vn 0.563288 0.584529 -0.58398
vn -0.419968 -0.336591 -0.842813
vn 0.40908 -0.545859 -0.731226
vn -0.509662 -0.758389 -0.406314
vn -0.252508 -0.888736 -0.382607
vn -0.672948 -0.70721 -0.216783
vn -0.578949 -0.787128 -0.212714
vn -0.815183 -0.566619 -0.120083
vn -0.814428 -0.567714 -0.120033
vn -0.940664 -0.334761 -0.055549
vn -0.94359 -0.326384 -0.055778
vn -0.996211 -0.086958 -0.00112
vn -0.999623 -0.027303 -0.002893
vn -0.973958 0.221056 0.050392
vn -0.963319 0.263881 0.048827
vn -0.850422 0.514843 0.108257
vn -0.83769 0.535513 0.107249
vn -0.603238 0.776447 0.182301
vn -0.603238 0.776447 0.182301
vn -0.603238 0.776447 0.182301
vn 0.214071 0.928857 0.302321
vn -0.096115 0.982211 0.161317
vn 0.340647 0.925672 0.164594
vn 0.122071 0.989141 0.081848
vn 0.521049 0.849446 0.083368
vn 0.350903 0.936211 0.019411
vn 0.707699 0.706073 0.02496
vn 0.571026 0.820131 -0.036257
vn 0.856167 0.515855 -0.029529
vn 0.749596 0.654852 -0.096302
vn 0.967794 0.236348 -0.086684
vn 0.895701 0.40745 -0.178061
vn 0.985176 -0.073325 -0.155089
vn 0.946082 0.119822 -0.300953
vn 0.850789 -0.459467 -0.255047
vn 0.772527 -0.252939 -0.58243
vn 0.443829 -0.805038 -0.393611
vn -0.207272 -0.360138 -0.909582
vn -0.402875 -0.742417 -0.535266
vn -0.819478 0.257673 -0.511919
vn -0.819478 0.257673 -0.511919
vn -0.819478 0.257673 -0.511919
usemtl datan_common_m2effect_d89119af
f 1/1/1 2/2/2 3/3/3
f 4/4/4 3/3/3 2/2/2
f 3/3/3 4/4/4 5/5/5
f 6/6/6 5/5/5 4/4/4
f 5/5/5 6/6/6 7/7/7
f 8/8/8 7/7/7 6/6/6
f 7/7/7 8/8/8 9/9/9
f 10/10/10 9/9/9 8/8/8
f 9/9/9 10/10/10 11/11/11
f 12/12/12 11/11/11 10/10/10
f 11/11/11 12/12/12 13/13/13
f 14/14/14 13/13/13 12/12/12
f 13/13/13 14/14/14 15/15/15
f 16/16/16 15/15/15 14/14/14
f 15/15/15 16/16/16 17/17/17
f 18/18/18 17/17/17 16/16/16
f 17/17/17 18/18/18 19/19/19
f 20/20/20 19/19/19 18/18/18
f 19/19/19 20/20/20 21/21/21
f 22/22/22 21/21/21 20/20/20
f 23/23/23 24/24/24 25/25/25
f 26/26/26 25/25/25 24/24/24
f 25/25/25 26/26/26 27/27/27
f 28/28/28 27/27/27 26/26/26
f 27/27/27 28/28/28 29/29/29
f 30/30/30 29/29/29 28/28/28
f 29/29/29 30/30/30 31/31/31
f 32/32/32 31/31/31 30/30/30
f 31/31/31 32/32/32 33/33/33
f 34/34/34 33/33/33 32/32/32
f 33/33/33 34/34/34 35/35/35
f 36/36/36 35/35/35 34/34/34
f 35/35/35 36/36/36 37/37/37
f 38/38/38 37/37/37 36/36/36
f 37/37/37 38/38/38 39/39/39
f 40/40/40 39/39/39 38/38/38
f 39/39/39 40/40/40 41/41/41
f 42/42/42 41/41/41 40/40/40
f 41/41/41 42/42/42 43/43/43
f 44/44/44 43/43/43 42/42/42
f 45/45/45 46/46/46 47/47/47
f 48/48/48 47/47/47 46/46/46
f 47/47/47 48/48/48 49/49/49
f 50/50/50 49/49/49 48/48/48
f 49/49/49 50/50/50 51/51/51
f 52/52/52 51/51/51 50/50/50
f 51/51/51 52/52/52 53/53/53
f 54/54/54 53/53/53 52/52/52
f 53/53/53 54/54/54 55/55/55
f 56/56/56 55/55/55 54/54/54
f 55/55/55 56/56/56 57/57/57
f 58/58/58 57/57/57 56/56/56
f 57/57/57 58/58/58 59/59/59
f 60/60/60 59/59/59 58/58/58
f 59/59/59 60/60/60 61/61/61
f 62/62/62 61/61/61 60/60/60
f 61/61/61 62/62/62 63/63/63
f 64/64/64 63/63/63 62/62/62
f 63/63/63 64/64/64 65/65/65
f 66/66/66 65/65/65 64/64/64
