# Generated from Nova1492 GX by tools/nova1492/GxObjConverter
mtllib datan_common_eff_g2g1_5dc02190.mtl
o datan_common_eff_g2g1_5dc02190_mesh00
v 0.150717 0 -0.236676
v 0.106449 0.184375 0.514949
v 0.212897 -0 0.514949
v 0.075359 0.130525 -0.236676
v -0.106449 0.184375 0.514949
v -0.075359 0.130525 -0.236676
v -0.212897 -0 0.514949
v -0.150717 0 -0.236676
v -0.106449 -0.184375 0.514949
v -0.075359 -0.130525 -0.236676
v 0.106449 -0.184375 0.514949
v 0.075359 -0.130525 -0.236676
v 0 -0 0.945071
vt 0.972791 0.515313
vt 0.379775 0.885136
vt 0.379775 0.515313
vt 0.972791 0.764871
vt 0.379775 0.885136
vt 0.972791 0.795496
vt 0.379775 0.515312
vt 0.972791 0.515312
vt 0.379775 0.107545
vt 0.972791 0.244314
vt 0.379775 0.107545
vt 0.972791 0.213689
vt 0.036943 0.515313
vn 0.752239 0.144769 -0.642789
vn 0.593526 0.793428 0.134902
vn 0.983892 -0.117294 0.134902
vn 0.297354 0.858387 -0.418033
vn -0.390366 0.910723 0.134902
vn -0.347439 0.401188 -0.847546
vn -0.983892 0.117294 0.134902
vn -0.892062 -0.171678 -0.418033
vn -0.593526 -0.793428 0.134902
vn -0.250746 -0.723843 -0.642789
vn 0.390366 -0.910723 0.134902
vn 0.501493 -0.579074 -0.642789
vn 0 -0 1
usemtl datan_common_eff_g2g1_5dc02190
f 1/1/1 2/2/2 3/3/3
f 1/1/1 4/4/4 2/2/2
f 4/4/4 5/5/5 2/2/2
f 4/4/4 6/6/6 5/5/5
f 6/6/6 7/7/7 5/5/5
f 6/6/6 8/8/8 7/7/7
f 8/8/8 9/9/9 7/7/7
f 8/8/8 10/10/10 9/9/9
f 10/10/10 11/11/11 9/9/9
f 10/10/10 12/12/12 11/11/11
f 12/12/12 3/3/3 11/11/11
f 12/12/12 1/1/1 3/3/3
f 13/13/13 3/3/3 2/2/2
f 13/13/13 2/2/2 5/5/5
f 13/13/13 5/5/5 7/7/7
f 13/13/13 7/7/7 9/9/9
f 13/13/13 9/9/9 11/11/11
f 13/13/13 11/11/11 3/3/3
f 6/6/6 4/4/4 1/1/1
f 6/6/6 1/1/1 12/12/12
f 6/6/6 12/12/12 10/10/10
f 6/6/6 10/10/10 8/8/8
