# Generated from Nova1492 GX by tools/nova1492/GxObjConverter
mtllib datan_common_MBAirStorm_a9f5fc5c.mtl
o datan_common_MBAirStorm_a9f5fc5c_mesh00
v -11 0 -11
v -11 0 11
v 11 0 -11
v 11 0 11
vt 0.00582 0.49418
vt 0.00582 0.00582
vt 0.49418 0.49418
vt 0.49418 0.00582
vn -0 1 0
vn 0 1 0
vn 0 1 0
vn 0 1 0
usemtl datan_common_MBAirStorm_a9f5fc5c
f 1/1/1 2/2/2 3/3/3
f 4/4/4 3/3/3 2/2/2
o datan_common_MBAirStorm_a9f5fc5c_mesh01
v -4.311584 0.988415 -4.311584
v -4.311584 0.988415 4.311584
v 4.311584 0.988415 -4.311584
v 4.311584 0.988415 4.311584
vt 0.376485 0.247029
vt 0.376485 0.127971
vt 0.436015 0.247029
vt 0.436015 0.127971
vn -0 1 0
vn -0 1 0
vn -0 1 0
vn -0 1 0
usemtl datan_common_MBAirStorm_a9f5fc5c
f 5/5/5 6/6/6 7/7/7
f 8/8/8 7/7/7 6/6/6
o datan_common_MBAirStorm_a9f5fc5c_mesh02
v -6 0.547641 -6
v -6 0.547641 6
v 6 0.547641 -6
v 6 0.547641 6
vt 0.50582 0.99418
vt 0.50582 0.50582
vt 0.99418 0.99418
vt 0.99418 0.50582
vn 0 1 -0
vn 0 1 -0
vn 0 1 -0
vn 0 1 -0
usemtl datan_common_MBAirStorm_a9f5fc5c
f 9/9/9 10/10/10 11/11/11
f 12/12/12 11/11/11 10/10/10
o datan_common_MBAirStorm_a9f5fc5c_mesh03
v -1.353659 1.353658 -0
v -1.353659 -1.353658 0
v 1.353659 1.353658 -0
v 1.353659 -1.353658 0
vt 0.001455 0.49709
vt 0.001455 0.25291
vt 0.123545 0.49709
vt 0.123545 0.25291
vn 0 0 1
vn 0 0 1
vn 0 0 1
vn 0 0 1
usemtl datan_common_MBAirStorm_a9f5fc5c
f 13/13/13 14/14/14 15/15/15
f 16/16/16 15/15/15 14/14/14
o datan_common_MBAirStorm_a9f5fc5c_mesh04
v -1.353659 1.353658 -0
v -1.353659 -1.353658 0
v 1.353659 1.353658 -0
v 1.353659 -1.353658 0
vt 0.001455 0.49709
vt 0.001455 0.25291
vt 0.123545 0.49709
vt 0.123545 0.25291
vn 0 0 1
vn 0 0 1
vn 0 0 1
vn 0 0 1
usemtl datan_common_MBAirStorm_a9f5fc5c
f 17/17/17 18/18/18 19/19/19
f 20/20/20 19/19/19 18/18/18
o datan_common_MBAirStorm_a9f5fc5c_mesh05
v -1.353659 1.353658 -0
v -1.353659 -1.353658 0
v 1.353659 1.353658 -0
v 1.353659 -1.353658 0
vt 0.001455 0.49709
vt 0.001455 0.25291
vt 0.123545 0.49709
vt 0.123545 0.25291
vn 0 0 1
vn 0 0 1
vn 0 0 1
vn 0 0 1
usemtl datan_common_MBAirStorm_a9f5fc5c
f 21/21/21 22/22/22 23/23/23
f 24/24/24 23/23/23 22/22/22
o datan_common_MBAirStorm_a9f5fc5c_mesh06
v -1.353659 1.353658 -0
v -1.353659 -1.353658 0
v 1.353659 1.353658 -0
v 1.353659 -1.353658 0
vt 0.001455 0.49709
vt 0.001455 0.25291
vt 0.123545 0.49709
vt 0.123545 0.25291
vn 0 0 1
vn 0 0 1
vn 0 0 1
vn 0 0 1
usemtl datan_common_MBAirStorm_a9f5fc5c
f 25/25/25 26/26/26 27/27/27
f 28/28/28 27/27/27 26/26/26
o datan_common_MBAirStorm_a9f5fc5c_mesh07
v -1.353659 1.353658 -0
v -1.353659 -1.353658 0
v 1.353659 1.353658 -0
v 1.353659 -1.353658 0
vt 0.126455 0.49709
vt 0.126455 0.25291
vt 0.248545 0.49709
vt 0.248545 0.25291
vn 0 0 1
vn 0 0 1
vn 0 0 1
vn 0 0 1
usemtl datan_common_MBAirStorm_a9f5fc5c
f 29/29/29 30/30/30 31/31/31
f 32/32/32 31/31/31 30/30/30
o datan_common_MBAirStorm_a9f5fc5c_mesh08
v -1.353659 1.353658 -0
v -1.353659 -1.353658 0
v 1.353659 1.353658 -0
v 1.353659 -1.353658 0
vt 0.126455 0.49709
vt 0.126455 0.25291
vt 0.248545 0.49709
vt 0.248545 0.25291
vn 0 0 1
vn 0 0 1
vn 0 0 1
vn 0 0 1
usemtl datan_common_MBAirStorm_a9f5fc5c
f 33/33/33 34/34/34 35/35/35
f 36/36/36 35/35/35 34/34/34
o datan_common_MBAirStorm_a9f5fc5c_mesh09
v -1.353659 1.353658 -0
v -1.353659 -1.353658 0
v 1.353659 1.353658 -0
v 1.353659 -1.353658 0
vt 0.126455 0.49709
vt 0.126455 0.25291
vt 0.248545 0.49709
vt 0.248545 0.25291
vn 0 0 1
vn 0 0 1
vn 0 0 1
vn 0 0 1
usemtl datan_common_MBAirStorm_a9f5fc5c
f 37/37/37 38/38/38 39/39/39
f 40/40/40 39/39/39 38/38/38
o datan_common_MBAirStorm_a9f5fc5c_mesh10
v -1.353659 1.353658 -0
v -1.353659 -1.353658 0
v 1.353659 1.353658 -0
v 1.353659 -1.353658 0
vt 0.126455 0.49709
vt 0.126455 0.25291
vt 0.248545 0.49709
vt 0.248545 0.25291
vn 0 0 1
vn 0 0 1
vn 0 0 1
vn 0 0 1
usemtl datan_common_MBAirStorm_a9f5fc5c
f 41/41/41 42/42/42 43/43/43
f 44/44/44 43/43/43 42/42/42
o datan_common_MBAirStorm_a9f5fc5c_mesh11
v -1.353659 1.353658 -0
v -1.353659 -1.353658 0
v 1.353659 1.353658 -0
v 1.353659 -1.353658 0
vt 0.001455 0.49709
vt 0.001455 0.25291
vt 0.123545 0.49709
vt 0.123545 0.25291
vn 0 0 1
vn 0 0 1
vn 0 0 1
vn 0 0 1
usemtl datan_common_MBAirStorm_a9f5fc5c
f 45/45/45 46/46/46 47/47/47
f 48/48/48 47/47/47 46/46/46
o datan_common_MBAirStorm_a9f5fc5c_mesh12
v -1.353659 1.353658 -0
v -1.353659 -1.353658 0
v 1.353659 1.353658 -0
v 1.353659 -1.353658 0
vt 0.126455 0.49709
vt 0.126455 0.25291
vt 0.248545 0.49709
vt 0.248545 0.25291
vn 0 0 1
vn 0 0 1
vn 0 0 1
vn 0 0 1
usemtl datan_common_MBAirStorm_a9f5fc5c
f 49/49/49 50/50/50 51/51/51
f 52/52/52 51/51/51 50/50/50
o datan_common_MBAirStorm_a9f5fc5c_mesh13
v -1.353659 1.353658 -0
v -1.353659 -1.353658 0
v 1.353659 1.353658 -0
v 1.353659 -1.353658 0
vt 0.001455 0.49709
vt 0.001455 0.25291
vt 0.123545 0.49709
vt 0.123545 0.25291
vn 0 0 1
vn 0 0 1
vn 0 0 1
vn 0 0 1
usemtl datan_common_MBAirStorm_a9f5fc5c
f 53/53/53 54/54/54 55/55/55
f 56/56/56 55/55/55 54/54/54
o datan_common_MBAirStorm_a9f5fc5c_mesh14
v -1.353659 1.353658 -0
v -1.353659 -1.353658 0
v 1.353659 1.353658 -0
v 1.353659 -1.353658 0
vt 0.001455 0.49709
vt 0.001455 0.25291
vt 0.123545 0.49709
vt 0.123545 0.25291
vn 0 0 1
vn 0 0 1
vn 0 0 1
vn 0 0 1
usemtl datan_common_MBAirStorm_a9f5fc5c
f 57/57/57 58/58/58 59/59/59
f 60/60/60 59/59/59 58/58/58
o datan_common_MBAirStorm_a9f5fc5c_mesh15
v -1.353659 1.353658 -0
v -1.353659 -1.353658 0
v 1.353659 1.353658 -0
v 1.353659 -1.353658 0
vt 0.001455 0.49709
vt 0.001455 0.25291
vt 0.123545 0.49709
vt 0.123545 0.25291
vn 0 0 1
vn 0 0 1
vn 0 0 1
vn 0 0 1
usemtl datan_common_MBAirStorm_a9f5fc5c
f 61/61/61 62/62/62 63/63/63
f 64/64/64 63/63/63 62/62/62
o datan_common_MBAirStorm_a9f5fc5c_mesh16
v -1.353659 1.353658 -0
v -1.353659 -1.353658 0
v 1.353659 1.353658 -0
v 1.353659 -1.353658 0
vt 0.126455 0.49709
vt 0.126455 0.25291
vt 0.248545 0.49709
vt 0.248545 0.25291
vn 0 0 1
vn 0 0 1
vn 0 0 1
vn 0 0 1
usemtl datan_common_MBAirStorm_a9f5fc5c
f 65/65/65 66/66/66 67/67/67
f 68/68/68 67/67/67 66/66/66
o datan_common_MBAirStorm_a9f5fc5c_mesh17
v -1.353659 1.353658 -0
v -1.353659 -1.353658 0
v 1.353659 1.353658 -0
v 1.353659 -1.353658 0
vt 0.001455 0.49709
vt 0.001455 0.25291
vt 0.123545 0.49709
vt 0.123545 0.25291
vn 0 0 1
vn 0 0 1
vn 0 0 1
vn 0 0 1
usemtl datan_common_MBAirStorm_a9f5fc5c
f 69/69/69 70/70/70 71/71/71
f 72/72/72 71/71/71 70/70/70
o datan_common_MBAirStorm_a9f5fc5c_mesh18
v -1.353659 1.353658 -0
v -1.353659 -1.353658 0
v 1.353659 1.353658 -0
v 1.353659 -1.353658 0
vt 0.126455 0.49709
vt 0.126455 0.25291
vt 0.248545 0.49709
vt 0.248545 0.25291
vn 0 0 1
vn 0 0 1
vn 0 0 1
vn 0 0 1
usemtl datan_common_MBAirStorm_a9f5fc5c
f 73/73/73 74/74/74 75/75/75
f 76/76/76 75/75/75 74/74/74
o datan_common_MBAirStorm_a9f5fc5c_mesh19
v -1.353659 1.353658 -0
v -1.353659 -1.353658 0
v 1.353659 1.353658 -0
v 1.353659 -1.353658 0
vt 0.001455 0.49709
vt 0.001455 0.25291
vt 0.123545 0.49709
vt 0.123545 0.25291
vn 0 0 1
vn 0 0 1
vn 0 0 1
vn 0 0 1
usemtl datan_common_MBAirStorm_a9f5fc5c
f 77/77/77 78/78/78 79/79/79
f 80/80/80 79/79/79 78/78/78
o datan_common_MBAirStorm_a9f5fc5c_mesh20
v -1.353659 1.353658 -0
v -1.353659 -1.353658 0
v 1.353659 1.353658 -0
v 1.353659 -1.353658 0
vt 0.001455 0.49709
vt 0.001455 0.25291
vt 0.123545 0.49709
vt 0.123545 0.25291
vn 0 0 1
vn 0 0 1
vn 0 0 1
vn 0 0 1
usemtl datan_common_MBAirStorm_a9f5fc5c
f 81/81/81 82/82/82 83/83/83
f 84/84/84 83/83/83 82/82/82
o datan_common_MBAirStorm_a9f5fc5c_mesh21
v -1.353659 1.353658 -0
v -1.353659 -1.353658 0
v 1.353659 1.353658 -0
v 1.353659 -1.353658 0
vt 0.126455 0.49709
vt 0.126455 0.25291
vt 0.248545 0.49709
vt 0.248545 0.25291
vn 0 0 1
vn 0 0 1
vn 0 0 1
vn 0 0 1
usemtl datan_common_MBAirStorm_a9f5fc5c
f 85/85/85 86/86/86 87/87/87
f 88/88/88 87/87/87 86/86/86
o datan_common_MBAirStorm_a9f5fc5c_mesh22
v -1.353659 1.353658 -0
v -1.353659 -1.353658 0
v 1.353659 1.353658 -0
v 1.353659 -1.353658 0
vt 0.126455 0.49709
vt 0.126455 0.25291
vt 0.248545 0.49709
vt 0.248545 0.25291
vn 0 0 1
vn 0 0 1
vn 0 0 1
vn 0 0 1
usemtl datan_common_MBAirStorm_a9f5fc5c
f 89/89/89 90/90/90 91/91/91
f 92/92/92 91/91/91 90/90/90
o datan_common_MBAirStorm_a9f5fc5c_mesh23
v -1.353659 1.353658 -0
v -1.353659 -1.353658 0
v 1.353659 1.353658 -0
v 1.353659 -1.353658 0
vt 0.126455 0.49709
vt 0.126455 0.25291
vt 0.248545 0.49709
vt 0.248545 0.25291
vn 0 0 1
vn 0 0 1
vn 0 0 1
vn 0 0 1
usemtl datan_common_MBAirStorm_a9f5fc5c
f 93/93/93 94/94/94 95/95/95
f 96/96/96 95/95/95 94/94/94
o datan_common_MBAirStorm_a9f5fc5c_mesh24
v -1.353659 1.353658 -0
v -1.353659 -1.353658 0
v 1.353659 1.353658 -0
v 1.353659 -1.353658 0
vt 0.001455 0.49709
vt 0.001455 0.25291
vt 0.123545 0.49709
vt 0.123545 0.25291
vn 0 0 1
vn 0 0 1
vn 0 0 1
vn 0 0 1
usemtl datan_common_MBAirStorm_a9f5fc5c
f 97/97/97 98/98/98 99/99/99
f 100/100/100 99/99/99 98/98/98
o datan_common_MBAirStorm_a9f5fc5c_mesh25
v -1.353659 1.353658 -0
v -1.353659 -1.353658 0
v 1.353659 1.353658 -0
v 1.353659 -1.353658 0
vt 0.001455 0.49709
vt 0.001455 0.25291
vt 0.123545 0.49709
vt 0.123545 0.25291
vn 0 0 1
vn 0 0 1
vn 0 0 1
vn 0 0 1
usemtl datan_common_MBAirStorm_a9f5fc5c
f 101/101/101 102/102/102 103/103/103
f 104/104/104 103/103/103 102/102/102
o datan_common_MBAirStorm_a9f5fc5c_mesh26
v -1.353659 1.353658 -0
v -1.353659 -1.353658 0
v 1.353659 1.353658 -0
v 1.353659 -1.353658 0
vt 0.126455 0.49709
vt 0.126455 0.25291
vt 0.248545 0.49709
vt 0.248545 0.25291
vn 0 0 1
vn 0 0 1
vn 0 0 1
vn 0 0 1
usemtl datan_common_MBAirStorm_a9f5fc5c
f 105/105/105 106/106/106 107/107/107
f 108/108/108 107/107/107 106/106/106
o datan_common_MBAirStorm_a9f5fc5c_mesh27
v -1.353659 1.353658 -0
v -1.353659 -1.353658 0
v 1.353659 1.353658 -0
v 1.353659 -1.353658 0
vt 0.126455 0.49709
vt 0.126455 0.25291
vt 0.248545 0.49709
vt 0.248545 0.25291
vn 0 0 1
vn 0 0 1
vn 0 0 1
vn 0 0 1
usemtl datan_common_MBAirStorm_a9f5fc5c
f 109/109/109 110/110/110 111/111/111
f 112/112/112 111/111/111 110/110/110
o datan_common_MBAirStorm_a9f5fc5c_mesh28
v -1.5 0 -1.5
v -1.5 0 1.5
v 1.5 0 -1.5
v 1.5 0 1.5
vt 0.251455 0.49709
vt 0.251455 0.25291
vt 0.373545 0.49709
vt 0.373545 0.25291
vn -0 1 0
vn 0 1 0
vn 0 1 0
vn 0 1 0
usemtl datan_common_MBAirStorm_a9f5fc5c
f 113/113/113 114/114/114 115/115/115
f 116/116/116 115/115/115 114/114/114
o datan_common_MBAirStorm_a9f5fc5c_mesh29
v -1.5 0 -1.5
v -1.5 0 1.5
v 1.5 0 -1.5
v 1.5 0 1.5
vt 0.251455 0.49709
vt 0.251455 0.25291
vt 0.373545 0.49709
vt 0.373545 0.25291
vn -0 1 0
vn 0 1 0
vn 0 1 0
vn 0 1 0
usemtl datan_common_MBAirStorm_a9f5fc5c
f 117/117/117 118/118/118 119/119/119
f 120/120/120 119/119/119 118/118/118
