# Generated from Nova1492 GX by tools/nova1492/GxObjConverter
mtllib datan_common_itemSpeed_fad9592c.mtl
o datan_common_itemSpeed_fad9592c_mesh00
v 0.524538 -0 0.392742
v 0.639664 -0 -0.16473
v 0.664284 0.265819 -0.283949
v 0.492945 0.265819 0.54572
v 0.521214 0.531639 -0.392742
v 0.418542 0.531639 0.262326
v -0.639664 -0 -0.16473
v -0.664284 0.265819 -0.283949
v -0.521214 0.531639 -0.392742
v -0.524538 -0 0.392742
v -0.492945 0.265819 0.54572
v -0.418542 0.531639 0.262326
v -0.418542 0.531639 0.262326
v 0.418542 0.531639 0.262326
v 0.521214 0.531639 -0.392742
v -0.521214 0.531639 -0.392742
v -0.492945 0.265819 0.54572
v 0.492945 0.265819 0.54572
v -0.524538 -0 0.392742
v 0.524538 -0 0.392742
v 0.492945 0.265819 0.54572
v -0.492945 0.265819 0.54572
v -0.140931 0.605926 -0.41715
v 0.140931 0.605926 -0.41715
v 0.062359 0.505705 -0.753483
v -0.062359 0.505705 -0.753483
v -0.452529 0.057225 -0.19099
v 0.452529 0.057225 -0.19099
v 0.452529 0 -0.626082
v -0.452529 0 -0.626082
v 0.452529 0 -0.626082
v -0.452529 0 -0.626082
v -0.062359 0.505705 -0.753483
v 0.062359 0.505705 -0.753483
v -0.5111 0.395344 -0.327813
v -0.372164 0.370845 -0.327813
v -0.422608 0.592579 -0.824339
v -0.529481 0.611423 -0.824339
v -0.460346 0.750776 -1.247837
v -0.554222 0.767329 -1.247837
v -0.544023 0.765531 -1.899779
v -0.610499 0.777252 -1.899779
v -0.439714 -0.012249 -0.172398
v -0.462705 0.27143 -0.824339
v -0.505366 0.363709 -1.247837
v -0.575343 0.376048 -1.899779
v -0.714279 0.400546 -1.899779
v -0.644302 0.388207 -1.247837
v -0.601641 0.295928 -0.824339
v -0.57865 0.012249 -0.172398
v 0.372165 0.370845 -0.327813
v 0.511101 0.395344 -0.327813
v 0.422608 0.592579 -0.824339
v 0.529482 0.611423 -0.824339
v 0.460347 0.750776 -1.247837
v 0.554222 0.767329 -1.247837
v 0.544024 0.765531 -1.899779
v 0.6105 0.777252 -1.899779
v 0.462706 0.27143 -0.824339
v 0.439715 -0.012249 -0.172398
v 0.505367 0.363709 -1.247837
v 0.575344 0.376048 -1.899779
v 0.71428 0.400546 -1.899779
v 0.644302 0.388207 -1.247837
v 0.601642 0.295928 -0.824339
v 0.578651 0.012249 -0.172398
vt 0.909239 0.011758
vt 0.62945 0.011758
vt 0.567979 0.121172
vt 0.988117 0.121172
vt 0.511883 0.238242
vt 0.84965 0.238242
vt 0.62945 0.011758
vt 0.567979 0.121172
vt 0.511883 0.238242
vt 0.909239 0.011758
vt 0.988117 0.121172
vt 0.849649 0.238242
vt 0.559543 0.832463
vt 0.940457 0.832463
vt 0.988118 0.988242
vt 0.511883 0.988242
vt 0.525005 0.761758
vt 0.974995 0.761758
vt 0.011883 0.261758
vt 0.488117 0.261758
vt 0.488117 0.488242
vt 0.011883 0.488242
vt 0.29356 0.988118
vt 0.293561 0.988118
vt 0.011883 0.915737
vt 0.011883 0.915737
vt 0.488117 0.557582
vt 0.488117 0.557582
vt 0.113824 0.511883
vt 0.12148 0.511883
vt 0.488117 0.011758
vt 0.011883 0.011758
vt 0.220488 0.199515
vt 0.279512 0.199515
vt 0.944581 0.617924
vt 0.944581 0.617924
vt 0.813145 0.675892
vt 0.813145 0.675892
vt 0.694511 0.722617
vt 0.694511 0.722617
vt 0.511883 0.722617
vt 0.511883 0.722617
vt 0.988117 0.496133
vt 0.813145 0.574693
vt 0.694511 0.608482
vt 0.511883 0.608482
vt 0.511883 0.608482
vt 0.694511 0.608482
vt 0.813145 0.582349
vt 0.988117 0.496133
vt 0.944581 0.617924
vt 0.944581 0.617924
vt 0.813145 0.675892
vt 0.813145 0.675892
vt 0.694511 0.722617
vt 0.694511 0.722617
vt 0.511883 0.722617
vt 0.511883 0.722617
vt 0.813145 0.574693
vt 0.988117 0.496133
vt 0.694511 0.608482
vt 0.511883 0.608482
vt 0.511883 0.608482
vt 0.694511 0.608482
vt 0.813145 0.582349
vt 0.988117 0.496133
vn 0.979335 -0 0.202247
vn 0.474386 -0.396451 -0.785993
vn 0.774896 -0.179141 -0.606172
vn 0.931808 0.31686 0.177016
vn 0.904677 0.283842 -0.317794
vn 0.903738 0.403972 0.141648
vn -0.948772 -0.198226 -0.246045
vn -0.769563 -0.069912 -0.634732
vn -0.439433 -0.127411 -0.889194
vn -0.979335 -0 0.202247
vn -0.968248 0.150046 0.199958
vn -0.865162 0.476114 0.157516
vn 0 0.969993 0.243134
vn 0 0.87381 0.486268
vn 0 1 0
vn 0 1 0
vn 0 0.729361 0.68413
vn 0 0.729361 0.68413
vn 0 -0.498793 0.866721
vn 0 -0.498793 0.866721
vn 0 -0.498793 0.866721
vn 0 -0.498793 0.866721
vn -0.450973 0.892447 -0.012757
vn 0.490767 0.800841 0.343221
vn 0.288742 0.896983 -0.33474
vn -0.439181 0.827734 -0.34925
vn -0.37497 0.527227 0.762515
vn 0.586358 0.570155 0.575419
vn 0.840747 0.502159 -0.202439
vn -0.840747 0.502159 -0.20244
vn 0 -0.244294 -0.969701
vn 0 -0.244294 -0.969701
vn 0 -0.244294 -0.969701
vn 0 -0.244294 -0.969701
vn -0.543864 0.762136 0.351227
vn 0.851519 0.505499 0.139233
vn 0.823065 0.543584 0.164559
vn -0.541398 0.772865 0.33101
vn 0.809511 0.583482 0.06512
vn -0.542743 0.825967 0.152343
vn 0.731782 0.559204 -0.389597
vn -0.325579 0.517012 -0.791642
vn 0.970797 -0.188039 -0.148976
vn 0.986 -0.120301 -0.115462
vn 0.987369 -0.102982 -0.120407
vn 0.425205 -0.034193 -0.904451
vn -0.897977 0.230314 -0.374956
vn -0.965127 0.22646 0.131326
vn -0.965551 0.221735 0.136177
vn -0.965795 0.22358 0.131346
vn -0.851519 0.505499 0.139233
vn 0.543865 0.762136 0.351227
vn -0.823065 0.543584 0.164559
vn 0.541398 0.772865 0.33101
vn -0.809511 0.583482 0.06512
vn 0.542743 0.825967 0.152343
vn -0.731782 0.559204 -0.389597
vn 0.325579 0.517012 -0.791642
vn -0.986 -0.120301 -0.115462
vn -0.970797 -0.188039 -0.148976
vn -0.987369 -0.102982 -0.120407
vn -0.425205 -0.034193 -0.904451
vn 0.897977 0.230314 -0.374956
vn 0.965127 0.22646 0.131326
vn 0.965551 0.221735 0.136177
vn 0.965795 0.22358 0.131346
usemtl datan_common_itemSpeed_fad9592c
f 1/1/1 2/2/2 3/3/3
f 3/3/3 4/4/4 1/1/1
f 4/4/4 3/3/3 5/5/5
f 5/5/5 6/6/6 4/4/4
f 2/2/2 7/7/7 8/8/8
f 8/8/8 3/3/3 2/2/2
f 3/3/3 8/8/8 9/9/9
f 9/9/9 5/5/5 3/3/3
f 7/7/7 10/10/10 11/11/11
f 11/11/11 8/8/8 7/7/7
f 8/8/8 11/11/11 12/12/12
f 12/12/12 9/9/9 8/8/8
f 13/13/13 14/14/14 15/15/15
f 15/15/15 16/16/16 13/13/13
f 17/17/17 18/18/18 14/14/14
f 14/14/14 13/13/13 17/17/17
f 19/19/19 20/20/20 21/21/21
f 21/21/21 22/22/22 19/19/19
f 23/23/23 24/24/24 25/25/25
f 25/25/25 26/26/26 23/23/23
f 27/27/27 28/28/28 24/24/24
f 24/24/24 23/23/23 27/27/27
f 24/24/24 29/29/29 25/25/25
f 29/29/29 24/24/24 28/28/28
f 30/30/30 27/27/27 23/23/23
f 23/23/23 26/26/26 30/30/30
f 31/31/31 32/32/32 33/33/33
f 33/33/33 34/34/34 31/31/31
f 35/35/35 36/36/36 37/37/37
f 37/37/37 38/38/38 35/35/35
f 38/38/38 37/37/37 39/39/39
f 39/39/39 40/40/40 38/38/38
f 40/40/40 39/39/39 41/41/41
f 41/41/41 42/42/42 40/40/40
f 43/43/43 44/44/44 37/37/37
f 37/37/37 36/36/36 43/43/43
f 44/44/44 45/45/45 39/39/39
f 39/39/39 37/37/37 44/44/44
f 45/45/45 46/46/46 41/41/41
f 41/41/41 39/39/39 45/45/45
f 46/46/46 47/47/47 42/42/42
f 42/42/42 41/41/41 46/46/46
f 47/47/47 48/48/48 40/40/40
f 40/40/40 42/42/42 47/47/47
f 48/48/48 49/49/49 38/38/38
f 38/38/38 40/40/40 48/48/48
f 49/49/49 50/50/50 35/35/35
f 35/35/35 38/38/38 49/49/49
f 51/51/51 52/52/52 53/53/53
f 54/54/54 53/53/53 52/52/52
f 53/53/53 54/54/54 55/55/55
f 56/56/56 55/55/55 54/54/54
f 55/55/55 56/56/56 57/57/57
f 58/58/58 57/57/57 56/56/56
f 59/59/59 60/60/60 53/53/53
f 51/51/51 53/53/53 60/60/60
f 61/61/61 59/59/59 55/55/55
f 53/53/53 55/55/55 59/59/59
f 62/62/62 61/61/61 57/57/57
f 55/55/55 57/57/57 61/61/61
f 63/63/63 62/62/62 58/58/58
f 57/57/57 58/58/58 62/62/62
f 64/64/64 63/63/63 56/56/56
f 58/58/58 56/56/56 63/63/63
f 65/65/65 64/64/64 54/54/54
f 56/56/56 54/54/54 64/64/64
f 66/66/66 65/65/65 52/52/52
f 54/54/54 52/52/52 65/65/65
o datan_common_itemSpeed_fad9592c_mesh01
v -0.188317 0.224427 -0.441422
v -0.188317 0.224427 0.441422
v 0.188317 -0.224427 -0.441422
v 0.188317 -0.224427 0.441422
vt 0.244059 0.130941
vt 0.244059 0.369059
vt 0.005941 0.130941
vt 0.005941 0.369059
vn 0.766044 0.642788 0
vn 0.766044 0.642788 0
vn 0.766044 0.642788 0
vn 0.766044 0.642788 0
usemtl datan_common_itemSpeed_fad9592c
f 67/67/67 68/68/68 69/69/69
f 70/70/70 69/69/69 68/68/68
o datan_common_itemSpeed_fad9592c_mesh02
v 0.188317 0.224427 0.441422
v 0.188317 0.224427 -0.441422
v -0.188317 -0.224427 -0.441422
v -0.188317 -0.224427 0.441422
vt 0.244059 0.369059
vt 0.244059 0.130941
vt 0.005941 0.130941
vt 0.005941 0.369059
vn -0.766044 0.642788 0
vn -0.766044 0.642788 0
vn -0.766044 0.642788 0
vn -0.766044 0.642788 0
usemtl datan_common_itemSpeed_fad9592c
f 71/71/71 72/72/72 73/73/73
f 73/73/73 74/74/74 71/71/71
o datan_common_itemSpeed_fad9592c_mesh03
v -0.432969 0 -0.466422
v -0.432969 0 0.466422
v 0.432969 0 -0.466422
v 0.432969 0 0.466422
vt 0.244059 0.130941
vt 0.244059 0.369059
vt 0.005941 0.130941
vt 0.005941 0.369059
vn 0 1 0
vn 0 1 0
vn 0 1 0
vn 0 1 0
usemtl datan_common_itemSpeed_fad9592c
f 75/75/75 76/76/76 77/77/77
f 78/78/78 77/77/77 76/76/76
