# Generated from Nova1492 GX by tools/nova1492/GxObjConverter
mtllib datan_common_blaze_0fc929d6.mtl
o datan_common_blaze_0fc929d6
v -1.098096 0.530088 1.230424
v -0.571075 0.508666 1.694698
v -0.3653 0.55588 1.000994
v -0.618253 0.541424 0.632271
v 0.019744 0.499654 1.838841
v -0.030296 0.54766 0.9473
v -0.124277 0.394064 -0.049045
v -0.999045 0.551788 -0.014327
v -0.977895 0.555309 0.395178
v -1.810421 0.504787 0.020373
v -1.591949 0.517782 0.685037
v 0.55238 0.535145 0.619678
v 0.825416 0.544002 0.380867
v 0.726571 0.520794 0.001589
v 1.147817 0.525523 1.229329
v 1.467572 0.533739 0.6892
v 1.507122 0.546203 0.064985
v 0.354504 0.55524 0.991978
v 0.649742 0.504358 1.692539
v -1.290089 0.504158 -1.275334
v -0.738151 0.553106 -0.701358
v -0.476025 0.558558 -1.027744
v -0.723332 0.500216 -1.687362
v -0.088209 0.547489 -0.941745
v -0.062932 0.514286 -1.753714
v -1.070112 0.559096 -0.431267
v -1.719702 0.49743 -0.684479
v 0.778518 0.537369 -0.337405
v 0.48913 0.525428 -0.578735
v 1.407014 0.546443 -0.536809
v 1.053786 0.54696 -1.067928
v 0.564681 0.53053 -1.546014
v 0.289098 0.549754 -0.928586
v -6.668824 -0.174759 5.569458
v -3.502961 -0.174759 8.221638
v -2.809406 0.18277 6.364915
v -5.238689 0.197902 4.475195
v -0.0003 -0.174759 9.287937
v -0.072018 0.138425 7.14077
v -0.111136 0.426121 5.445172
v -2.207133 0.41014 4.891792
v -4.033313 0.416684 3.588362
v 3.150695 -0.174759 8.35571
v 2.494049 0.178696 6.513868
v 5.784857 -0.174759 6.268618
v 4.71324 0.204997 4.980484
v 3.798112 0.429113 3.925295
v 1.955564 0.418215 5.039974
v -1.787425 0.277604 4.185871
v -3.277458 0.270862 3.116391
v -0.085054 0.30218 4.652718
v -0.031623 0.187091 4.070683
v -1.418206 0.170808 3.653488
v -2.655888 0.162623 2.704679
v 1.653399 0.291256 4.301976
v 3.195964 0.293943 3.335993
v 2.65112 0.167955 2.836661
v 1.40721 0.176575 3.723558
v 7.737018 -0.174759 3.87032
v 6.409995 0.150389 3.03689
v 8.593396 -0.174759 0.874308
v 7.196792 0.118943 0.554057
v 5.899247 0.486859 0.316028
v 5.221652 0.4702 2.350231
v 7.94021 -0.174759 -3.005928
v 6.686109 0.130457 -2.597043
v 5.94307 -0.174759 -6.500388
v 5.056618 0.063973 -5.446944
v 4.206365 0.492963 -4.441016
v 5.503962 0.487524 -2.176074
v 4.310672 0.322338 1.957116
v 4.799825 0.340625 0.242442
v 3.744729 0.161193 0.224174
v 3.452936 0.164043 1.63454
v 4.465723 0.336402 -1.730937
v 3.42851 0.37022 -3.530121
v 2.655541 0.16159 -2.667225
v 3.458571 0.159972 -1.287456
v 2.76759 -0.174759 -8.339071
v 2.486995 0.058613 -7.026181
v -0.797276 -0.174759 -8.79594
v -0.414694 0.054949 -7.456291
v -0.136606 0.490773 -6.21552
v 2.177031 0.491712 -5.793744
v -3.962571 -0.174759 -8.144955
v -3.04038 0.046223 -6.858809
v -6.625368 -0.174759 -6.707263
v -5.23119 0.02844 -5.477744
v -4.077225 0.491191 -4.39647
v -2.287109 0.492864 -5.687607
v 1.808329 0.404751 -4.722213
v -0.067506 0.433327 -5.172506
v -0.086791 0.195954 -4.133804
v 1.396719 0.172456 -3.682008
v -1.871679 0.416056 -4.746294
v -3.403688 0.380941 -3.611686
v -2.854252 0.187591 -2.908009
v -1.563886 0.195552 -3.824613
v -8.682742 -0.174759 -4.804016
v -6.828249 -0.001055 -3.557106
v -9.591744 -0.174759 -2.098989
v -7.49139 0.027916 -1.132493
v -5.781741 0.477643 -0.38244
v -5.309698 0.485055 -2.528574
v -8.809429 -0.174759 1.744042
v -6.880444 0.14814 1.7605
v -5.290564 0.448166 1.743412
v -4.463029 0.355842 -1.936795
v -4.853499 0.352953 -0.065272
v -4.115084 0.19311 0.009745
v -3.777573 0.18809 -1.537567
v -4.378896 0.309413 1.659234
v -3.648019 0.171584 1.456963
v -1.853371 0.287982 1.998625
v -0.9674 0.254967 2.70098
v 0.011306 0.226644 3.006346
v -2.600513 0.266362 1.085598
v -2.974913 0.232753 0.033345
v 1.907901 0.270153 2.051382
v 2.424324 0.297291 1.159496
v 2.580168 0.322876 0.152101
v 1.036651 0.244295 2.728406
v -2.072587 0.242073 -2.070055
v -1.133528 0.23993 -2.71231
v -0.073863 0.246783 -2.90597
v -2.74266 0.237787 -1.086687
v 2.369683 0.338104 -0.871453
v 1.819944 0.328254 -1.805293
v 0.958028 0.289845 -2.543548
vt 0.73572 0.22132
vt 0.746142 0.212524
vt 0.751706 0.227558
vt 0.748694 0.237583
vt 0.765945 0.204777
vt 0.764592 0.229018
vt 0.762051 0.256108
vt 0.738398 0.255164
vt 0.73897 0.24403
vt 0.71646 0.254221
vt 0.722367 0.236149
vt 0.780346 0.237926
vt 0.787729 0.244419
vt 0.785056 0.254731
vt 0.796446 0.221349
vt 0.805092 0.236035
vt 0.806161 0.253008
vt 0.774996 0.227803
vt 0.782979 0.208755
vt 0.730529 0.289451
vt 0.741624 0.277673
vt 0.748712 0.282719
vt 0.745853 0.300654
vt 0.763026 0.28038
vt 0.763709 0.302458
vt 0.736477 0.266501
vt 0.718913 0.273385
vt 0.786461 0.263949
vt 0.778636 0.27051
vt 0.803454 0.26937
vt 0.793904 0.283811
vt 0.780679 0.29681
vt 0.773228 0.280023
vt 0.585097 0.103343
vt 0.666869 0.035059
vt 0.685621 0.081714
vt 0.623766 0.133095
vt 0.765403 0.006066
vt 0.763464 0.060619
vt 0.762406 0.106722
vt 0.705734 0.121768
vt 0.656357 0.157208
vt 0.8506 0.031413
vt 0.832846 0.077664
vt 0.917996 0.084333
vt 0.892849 0.119357
vt 0.864277 0.148047
vt 0.818286 0.117739
vt 0.717082 0.140962
vt 0.676794 0.170041
vt 0.763111 0.128268
vt 0.764556 0.144094
vt 0.727065 0.155437
vt 0.6936 0.181235
vt 0.810116 0.137805
vt 0.851825 0.16407
vt 0.837093 0.177647
vt 0.80346 0.153532
vt 0.970779 0.149542
vt 0.938726 0.172202
vt 0.993934 0.231002
vt 0.96 0.23971
vt 0.924917 0.246182
vt 0.906596 0.190872
vt 0.976273 0.336505
vt 0.946192 0.325387
vt 0.926102 0.431518
vt 0.902134 0.402875
vt 0.879144 0.375525
vt 0.914229 0.313941
vt 0.881964 0.201561
vt 0.89519 0.248183
vt 0.866662 0.248679
vt 0.858773 0.210332
vt 0.886157 0.301838
vt 0.858112 0.350758
vt 0.837212 0.327296
vt 0.858925 0.28978
vt 0.840242 0.481512
vt 0.832655 0.445815
vt 0.743854 0.493934
vt 0.754198 0.457509
vt 0.761717 0.423773
vt 0.824274 0.412305
vt 0.65827 0.476234
vt 0.683204 0.441264
vt 0.586272 0.437143
vt 0.623968 0.403713
vt 0.65517 0.374313
vt 0.703571 0.409419
vt 0.814305 0.38317
vt 0.763586 0.395414
vt 0.763064 0.367172
vt 0.803176 0.354887
vt 0.714804 0.383825
vt 0.673381 0.352975
vt 0.688237 0.333843
vt 0.723126 0.358765
vt 0.530644 0.385395
vt 0.580787 0.351491
vt 0.506066 0.311846
vt 0.562856 0.285567
vt 0.609082 0.265173
vt 0.621846 0.323526
vt 0.527219 0.207355
vt 0.579375 0.206907
vt 0.622363 0.207372
vt 0.644738 0.307436
vt 0.63418 0.256549
vt 0.654146 0.25451
vt 0.663272 0.296581
vt 0.647013 0.209661
vt 0.666775 0.21516
vt 0.715299 0.200433
vt 0.739254 0.181336
vt 0.765717 0.173033
vt 0.695097 0.225258
vt 0.684974 0.253868
vt 0.816997 0.198998
vt 0.830961 0.223248
vt 0.835174 0.250639
vt 0.79344 0.18059
vt 0.709372 0.311059
vt 0.734762 0.328522
vt 0.763414 0.333787
vt 0.691254 0.284321
vt 0.829483 0.278469
vt 0.814619 0.30386
vt 0.791314 0.323933
vn -0.224668 0.961938 0.155563
vn -0.050258 0.958549 0.28046
vn -0.000206 0.982284 -0.187396
vn 0.021063 0.998967 0.040267
vn 0.055726 0.958885 0.278269
vn -0.03216 0.99716 0.068104
vn -0.014512 0.978105 0.207606
vn -0.069881 0.996993 0.03349
vn -0.061928 0.99768 0.028283
vn -0.278881 0.958891 -0.052475
vn -0.271191 0.960272 0.06582
vn -0.123802 0.983556 -0.131491
vn 0.007656 0.999655 0.025121
vn -0.044433 0.997583 0.053417
vn 0.147021 0.960866 0.234778
vn 0.274609 0.960672 0.041223
vn 0.245924 0.968446 -0.040429
vn -0.03216 0.99716 0.068104
vn 0.168602 0.957103 0.235641
vn -0.239042 0.957693 -0.160258
vn -0.035458 0.996855 -0.070878
vn 0.046013 0.997741 -0.048941
vn -0.05359 0.958237 -0.280909
vn -0.014512 0.978105 0.207606
vn 0.047612 0.959633 -0.277198
vn -0.106244 0.993987 -0.026492
vn -0.239042 0.957693 -0.160258
vn -0.014398 0.999838 0.010777
vn -0.125162 0.979808 0.155916
vn 0.211304 0.967434 -0.139362
vn 0.174086 0.960051 -0.219082
vn 0.174086 0.960051 -0.219082
vn -0.014512 0.978105 0.207606
vn -0.202784 0.972627 0.113473
vn -0.063635 0.975836 0.209032
vn -0.100455 0.984044 0.146855
vn -0.164218 0.983414 0.077006
vn 0.02408 0.983957 0.176775
vn 0.031033 0.978301 0.204853
vn -0.030897 0.98111 -0.190966
vn 0.043932 0.978525 -0.201394
vn 0.175459 0.979509 -0.098872
vn 0.143001 0.973127 0.180484
vn 0.040486 0.98232 0.182779
vn 0.225907 0.960295 0.163704
vn 0.167594 0.979447 0.112236
vn -0.165734 0.980129 -0.108993
vn -0.107003 0.980471 -0.165007
vn 0.116563 0.979797 -0.162516
vn 0.155516 0.98414 -0.085337
vn -0.041175 0.969518 -0.241536
vn -0.008902 0.998926 0.045467
vn -0.041239 0.99517 0.089087
vn -0.084202 0.993564 0.075769
vn -0.044375 0.974374 -0.220513
vn -0.174005 0.977921 -0.115728
vn 0.053919 0.996514 0.063664
vn 0.053919 0.996514 0.063664
vn 0.248985 0.965889 0.07117
vn 0.198529 0.957232 0.21046
vn 0.260487 0.964736 -0.037841
vn 0.341147 0.938625 -0.051013
vn -0.163923 0.986153 0.025142
vn -0.176407 0.983107 -0.048798
vn 0.244526 0.959519 -0.139751
vn 0.335252 0.940644 -0.052863
vn 0.109449 0.977152 -0.182195
vn 0.197724 0.924587 -0.325644
vn -0.058577 0.991624 0.115111
vn -0.141551 0.986359 0.084025
vn -0.177299 0.976542 -0.122195
vn -0.206531 0.977904 0.032375
vn 0.170261 0.985254 -0.016879
vn 0.145616 0.988955 0.027656
vn -0.196563 0.979822 0.03623
vn -0.114034 0.975142 0.189984
vn 0.080541 0.984247 -0.157389
vn 0.163132 0.982162 -0.093518
vn 0.026845 0.977448 -0.209466
vn 0.228345 0.910927 -0.343614
vn -0.04823 0.979769 -0.194234
vn -0.091072 0.919068 -0.383431
vn 0.004171 0.997706 0.06757
vn -0.017585 0.995443 0.093727
vn -0.081506 0.985174 -0.15096
vn -0.092108 0.920483 -0.379772
vn -0.112545 0.990829 -0.074777
vn -0.273273 0.9389 -0.20926
vn 0.103127 0.99115 0.083583
vn 0.054022 0.995606 0.076492
vn -0.155772 0.966059 0.206069
vn 0.053213 0.960374 0.273587
vn 0.051872 0.992957 -0.106517
vn 0.085815 0.99193 -0.093327
vn 0.05561 0.96203 0.26722
vn 0.219741 0.962859 0.156897
vn -0.05296 0.998124 -0.030717
vn -0.009837 0.998921 -0.045391
vn -0.093907 0.995081 -0.031557
vn -0.263249 0.949665 -0.169815
vn -0.10524 0.99403 -0.028807
vn -0.318313 0.947811 0.018196
vn 0.169144 0.985465 -0.015773
vn 0.158847 0.986527 0.039152
vn -0.202784 0.972627 0.113473
vn -0.226561 0.971546 0.069049
vn 0.175459 0.979509 -0.098872
vn 0.211078 0.967133 0.141775
vn 0.263278 0.963794 -0.042251
vn -0.052465 0.998503 -0.015442
vn -0.045608 0.998473 -0.031177
vn 0.213812 0.975541 -0.051027
vn -0.093919 0.994394 0.048581
vn -0.224668 0.961938 0.155563
vn -0.052333 0.959084 0.278242
vn -0.008902 0.998926 0.045467
vn -0.042367 0.998807 -0.024308
vn -0.278881 0.958891 -0.052475
vn 0.147021 0.960866 0.234778
vn 0.244226 0.967313 0.068261
vn 0.170261 0.985254 -0.016879
vn 0.147021 0.960866 0.234778
vn -0.05296 0.998124 -0.030717
vn -0.017266 0.998557 -0.050849
vn 0.047612 0.959633 -0.277198
vn -0.05296 0.998124 -0.030717
vn 0.211003 0.967854 -0.136879
vn 0.080541 0.984247 -0.157389
vn 0.080541 0.984247 -0.157389
usemtl datan_common_blaze_0fc929d6
f 1/1/1 2/2/2 3/3/3
f 3/3/3 4/4/4 1/1/1
f 5/5/5 6/6/6 3/3/3
f 3/3/3 2/2/2 5/5/5
f 7/7/7 4/4/4 3/3/3
f 3/3/3 6/6/6 7/7/7
f 7/7/7 8/8/8 9/9/9
f 9/9/9 4/4/4 7/7/7
f 10/10/10 11/11/11 9/9/9
f 9/9/9 8/8/8 10/10/10
f 1/1/1 4/4/4 9/9/9
f 9/9/9 11/11/11 1/1/1
f 7/7/7 12/12/12 13/13/13
f 13/13/13 14/14/14 7/7/7
f 15/15/15 16/16/16 13/13/13
f 13/13/13 12/12/12 15/15/15
f 17/17/17 14/14/14 13/13/13
f 13/13/13 16/16/16 17/17/17
f 15/15/15 12/12/12 18/18/18
f 18/18/18 19/19/19 15/15/15
f 7/7/7 6/6/6 18/18/18
f 18/18/18 12/12/12 7/7/7
f 5/5/5 19/19/19 18/18/18
f 18/18/18 6/6/6 5/5/5
f 20/20/20 21/21/21 22/22/22
f 22/22/22 23/23/23 20/20/20
f 7/7/7 24/24/24 22/22/22
f 22/22/22 21/21/21 7/7/7
f 25/25/25 23/23/23 22/22/22
f 22/22/22 24/24/24 25/25/25
f 7/7/7 21/21/21 26/26/26
f 26/26/26 8/8/8 7/7/7
f 20/20/20 27/27/27 26/26/26
f 26/26/26 21/21/21 20/20/20
f 10/10/10 8/8/8 26/26/26
f 26/26/26 27/27/27 10/10/10
f 7/7/7 14/14/14 28/28/28
f 28/28/28 29/29/29 7/7/7
f 17/17/17 30/30/30 28/28/28
f 28/28/28 14/14/14 17/17/17
f 31/31/31 29/29/29 28/28/28
f 28/28/28 30/30/30 31/31/31
f 31/31/31 32/32/32 33/33/33
f 33/33/33 29/29/29 31/31/31
f 25/25/25 24/24/24 33/33/33
f 33/33/33 32/32/32 25/25/25
f 7/7/7 29/29/29 33/33/33
f 33/33/33 24/24/24 7/7/7
f 34/34/34 35/35/35 36/36/36
f 36/36/36 37/37/37 34/34/34
f 38/38/38 39/39/39 36/36/36
f 36/36/36 35/35/35 38/38/38
f 40/40/40 41/41/41 36/36/36
f 36/36/36 39/39/39 40/40/40
f 42/42/42 37/37/37 36/36/36
f 36/36/36 41/41/41 42/42/42
f 38/38/38 43/43/43 44/44/44
f 44/44/44 39/39/39 38/38/38
f 45/45/45 46/46/46 44/44/44
f 44/44/44 43/43/43 45/45/45
f 47/47/47 48/48/48 44/44/44
f 44/44/44 46/46/46 47/47/47
f 40/40/40 39/39/39 44/44/44
f 44/44/44 48/48/48 40/40/40
f 42/42/42 41/41/41 49/49/49
f 49/49/49 50/50/50 42/42/42
f 40/40/40 51/51/51 49/49/49
f 49/49/49 41/41/41 40/40/40
f 52/52/52 53/53/53 49/49/49
f 49/49/49 51/51/51 52/52/52
f 54/54/54 50/50/50 49/49/49
f 49/49/49 53/53/53 54/54/54
f 40/40/40 48/48/48 55/55/55
f 55/55/55 51/51/51 40/40/40
f 47/47/47 56/56/56 55/55/55
f 55/55/55 48/48/48 47/47/47
f 57/57/57 58/58/58 55/55/55
f 55/55/55 56/56/56 57/57/57
f 52/52/52 51/51/51 55/55/55
f 55/55/55 58/58/58 52/52/52
f 45/45/45 59/59/59 60/60/60
f 60/60/60 46/46/46 45/45/45
f 61/61/61 62/62/62 60/60/60
f 60/60/60 59/59/59 61/61/61
f 63/63/63 64/64/64 60/60/60
f 60/60/60 62/62/62 63/63/63
f 47/47/47 46/46/46 60/60/60
f 60/60/60 64/64/64 47/47/47
f 61/61/61 65/65/65 66/66/66
f 66/66/66 62/62/62 61/61/61
f 67/67/67 68/68/68 66/66/66
f 66/66/66 65/65/65 67/67/67
f 69/69/69 70/70/70 66/66/66
f 66/66/66 68/68/68 69/69/69
f 63/63/63 62/62/62 66/66/66
f 66/66/66 70/70/70 63/63/63
f 47/47/47 64/64/64 71/71/71
f 71/71/71 56/56/56 47/47/47
f 63/63/63 72/72/72 71/71/71
f 71/71/71 64/64/64 63/63/63
f 73/73/73 74/74/74 71/71/71
f 71/71/71 72/72/72 73/73/73
f 57/57/57 56/56/56 71/71/71
f 71/71/71 74/74/74 57/57/57
f 63/63/63 70/70/70 75/75/75
f 75/75/75 72/72/72 63/63/63
f 69/69/69 76/76/76 75/75/75
f 75/75/75 70/70/70 69/69/69
f 77/77/77 78/78/78 75/75/75
f 75/75/75 76/76/76 77/77/77
f 73/73/73 72/72/72 75/75/75
f 75/75/75 78/78/78 73/73/73
f 67/67/67 79/79/79 80/80/80
f 80/80/80 68/68/68 67/67/67
f 81/81/81 82/82/82 80/80/80
f 80/80/80 79/79/79 81/81/81
f 83/83/83 84/84/84 80/80/80
f 80/80/80 82/82/82 83/83/83
f 69/69/69 68/68/68 80/80/80
f 80/80/80 84/84/84 69/69/69
f 81/81/81 85/85/85 86/86/86
f 86/86/86 82/82/82 81/81/81
f 87/87/87 88/88/88 86/86/86
f 86/86/86 85/85/85 87/87/87
f 89/89/89 90/90/90 86/86/86
f 86/86/86 88/88/88 89/89/89
f 83/83/83 82/82/82 86/86/86
f 86/86/86 90/90/90 83/83/83
f 69/69/69 84/84/84 91/91/91
f 91/91/91 76/76/76 69/69/69
f 83/83/83 92/92/92 91/91/91
f 91/91/91 84/84/84 83/83/83
f 93/93/93 94/94/94 91/91/91
f 91/91/91 92/92/92 93/93/93
f 77/77/77 76/76/76 91/91/91
f 91/91/91 94/94/94 77/77/77
f 83/83/83 90/90/90 95/95/95
f 95/95/95 92/92/92 83/83/83
f 89/89/89 96/96/96 95/95/95
f 95/95/95 90/90/90 89/89/89
f 97/97/97 98/98/98 95/95/95
f 95/95/95 96/96/96 97/97/97
f 93/93/93 92/92/92 95/95/95
f 95/95/95 98/98/98 93/93/93
f 87/87/87 99/99/99 100/100/100
f 100/100/100 88/88/88 87/87/87
f 101/101/101 102/102/102 100/100/100
f 100/100/100 99/99/99 101/101/101
f 103/103/103 104/104/104 100/100/100
f 100/100/100 102/102/102 103/103/103
f 89/89/89 88/88/88 100/100/100
f 100/100/100 104/104/104 89/89/89
f 101/101/101 105/105/105 106/106/106
f 106/106/106 102/102/102 101/101/101
f 34/34/34 37/37/37 106/106/106
f 106/106/106 105/105/105 34/34/34
f 42/42/42 107/107/107 106/106/106
f 106/106/106 37/37/37 42/42/42
f 103/103/103 102/102/102 106/106/106
f 106/106/106 107/107/107 103/103/103
f 89/89/89 104/104/104 108/108/108
f 108/108/108 96/96/96 89/89/89
f 103/103/103 109/109/109 108/108/108
f 108/108/108 104/104/104 103/103/103
f 110/110/110 111/111/111 108/108/108
f 108/108/108 109/109/109 110/110/110
f 97/97/97 96/96/96 108/108/108
f 108/108/108 111/111/111 97/97/97
f 103/103/103 107/107/107 112/112/112
f 112/112/112 109/109/109 103/103/103
f 42/42/42 50/50/50 112/112/112
f 112/112/112 107/107/107 42/42/42
f 54/54/54 113/113/113 112/112/112
f 112/112/112 50/50/50 54/54/54
f 110/110/110 109/109/109 112/112/112
f 112/112/112 113/113/113 110/110/110
f 1/1/1 114/114/114 115/115/115
f 115/115/115 2/2/2 1/1/1
f 54/54/54 53/53/53 115/115/115
f 115/115/115 114/114/114 54/54/54
f 52/52/52 116/116/116 115/115/115
f 115/115/115 53/53/53 52/52/52
f 5/5/5 2/2/2 115/115/115
f 115/115/115 116/116/116 5/5/5
f 54/54/54 114/114/114 117/117/117
f 117/117/117 113/113/113 54/54/54
f 1/1/1 11/11/11 117/117/117
f 117/117/117 114/114/114 1/1/1
f 10/10/10 118/118/118 117/117/117
f 117/117/117 11/11/11 10/10/10
f 110/110/110 113/113/113 117/117/117
f 117/117/117 118/118/118 110/110/110
f 15/15/15 119/119/119 120/120/120
f 120/120/120 16/16/16 15/15/15
f 57/57/57 74/74/74 120/120/120
f 120/120/120 119/119/119 57/57/57
f 73/73/73 121/121/121 120/120/120
f 120/120/120 74/74/74 73/73/73
f 17/17/17 16/16/16 120/120/120
f 120/120/120 121/121/121 17/17/17
f 5/5/5 116/116/116 122/122/122
f 122/122/122 19/19/19 5/5/5
f 52/52/52 58/58/58 122/122/122
f 122/122/122 116/116/116 52/52/52
f 57/57/57 119/119/119 122/122/122
f 122/122/122 58/58/58 57/57/57
f 15/15/15 19/19/19 122/122/122
f 122/122/122 119/119/119 15/15/15
f 97/97/97 123/123/123 124/124/124
f 124/124/124 98/98/98 97/97/97
f 20/20/20 23/23/23 124/124/124
f 124/124/124 123/123/123 20/20/20
f 25/25/25 125/125/125 124/124/124
f 124/124/124 23/23/23 25/25/25
f 93/93/93 98/98/98 124/124/124
f 124/124/124 125/125/125 93/93/93
f 110/110/110 118/118/118 126/126/126
f 126/126/126 111/111/111 110/110/110
f 10/10/10 27/27/27 126/126/126
f 126/126/126 118/118/118 10/10/10
f 20/20/20 123/123/123 126/126/126
f 126/126/126 27/27/27 20/20/20
f 97/97/97 111/111/111 126/126/126
f 126/126/126 123/123/123 97/97/97
f 17/17/17 121/121/121 127/127/127
f 127/127/127 30/30/30 17/17/17
f 73/73/73 78/78/78 127/127/127
f 127/127/127 121/121/121 73/73/73
f 77/77/77 128/128/128 127/127/127
f 127/127/127 78/78/78 77/77/77
f 31/31/31 30/30/30 127/127/127
f 127/127/127 128/128/128 31/31/31
f 93/93/93 125/125/125 129/129/129
