# Generated from Nova1492 GX by tools/nova1492/GxObjConverter
mtllib datan_common_ExplodeBU-_9152be4d.mtl
o datan_common_ExplodeBU-_9152be4d
v 0.00001 0.001144 -0.000017
v 0.000543 0.000969 0.000303
v 0.00048 0.000969 -0.000424
v 0.000918 0.000495 0.000527
v 0.001013 0.000587 -0.000104
v 0.000809 0.000495 -0.00071
v 0.00001 0.001144 -0.000017
v -0.000233 0.000969 -0.000588
v 0.000237 0.000587 -0.000995
v -0.000403 0.000495 -0.000989
v 0.00001 0.001144 -0.000017
v -0.000233 0.000969 -0.000588
v -0.00061 0.000969 0.000037
v -0.000403 0.000495 -0.000989
v -0.000853 0.000588 -0.000534
v -0.001045 0.000496 0.000075
v 0.00001 0.001144 -0.000017
v -0.00013 0.000969 0.000588
v -0.00075 0.000588 0.000642
v -0.000228 0.000496 0.001012
v 0.00001 0.001144 -0.000017
v 0.000403 0.000588 0.000907
v 0.000787 -0.000029 0.000874
v 0.001164 -0.00003 0.000248
v 0.000424 -0.000554 0.000954
v 0.000873 -0.000646 0.0005
v 0.001065 -0.000554 -0.000109
v 0.0011 -0.00003 -0.000478
v 0.00062 -0.00003 -0.001029
v 0.00077 -0.000647 -0.000676
v 0.000249 -0.000555 -0.001046
v -0.000093 -0.00003 -0.001193
v -0.000766 -0.000029 -0.000908
v -0.000383 -0.000647 -0.000941
v -0.000766 -0.000029 -0.000908
v -0.000383 -0.000647 -0.000941
v -0.000897 -0.000554 -0.000561
v -0.001143 -0.000029 -0.000282
v -0.001079 -0.000029 0.000444
v -0.000993 -0.000646 0.00007
v -0.000789 -0.000554 0.000675
v -0.0006 -0.000029 0.000995
v 0.000113 -0.000029 0.001159
v -0.000216 -0.000646 0.000961
v 0.000011 -0.001203 -0.000017
v 0.000151 -0.001028 -0.000622
v 0.00063 -0.001028 -0.000071
v 0.000011 -0.001203 -0.000017
v -0.000523 -0.001028 -0.000337
v 0.000151 -0.001028 -0.000622
v 0.000011 -0.001203 -0.000017
v -0.000459 -0.001027 0.00039
v 0.000011 -0.001203 -0.000017
v 0.000254 -0.001028 0.000554
v 0.000011 -0.001203 -0.000017
vt 0.599805 0.24709
vt 0.594229 0.227666
vt 0.605381 0.227666
vt 0.594229 0.204414
vt 0.599326 0.207881
vt 0.605381 0.204414
vt 0.611436 0.24709
vt 0.61749 0.225752
vt 0.611436 0.207881
vt 0.61749 0.204414
vt 0.563477 0.24709
vt 0.563477 0.227666
vt 0.569053 0.227666
vt 0.563955 0.204414
vt 0.563955 0.207881
vt 0.57001 0.204414
vt 0.576065 0.24709
vt 0.582119 0.225752
vt 0.576065 0.207881
vt 0.582119 0.204414
vt 0.588174 0.24709
vt 0.588174 0.207881
vt 0.591201 0.186543
vt 0.596299 0.186543
vt 0.588174 0.168672
vt 0.593272 0.165205
vt 0.599326 0.168672
vt 0.603311 0.186543
vt 0.608408 0.186543
vt 0.605381 0.165205
vt 0.611436 0.168672
vt 0.614463 0.186543
vt 0.620518 0.186543
vt 0.61749 0.165205
vt 0.562998 0.186543
vt 0.562998 0.167119
vt 0.562998 0.170586
vt 0.566982 0.186543
vt 0.573037 0.186543
vt 0.57001 0.165205
vt 0.576065 0.168672
vt 0.579092 0.186543
vt 0.585147 0.186543
vt 0.582119 0.165205
vt 0.605859 0.12791
vt 0.611436 0.147334
vt 0.600283 0.147334
vt 0.562998 0.12791
vt 0.562998 0.147334
vt 0.562998 0.147334
vt 0.57001 0.12791
vt 0.576065 0.147334
vt 0.582119 0.12791
vt 0.588174 0.147334
vt 0.594229 0.12791
vn 0.327708 0.944335 -0.028984
vn 0.518144 0.664249 0.538795
vn 0.135753 0.796289 -0.589487
vn 0.598963 0.332287 0.72858
vn 0.923902 0.332985 0.188486
vn 0.463288 0.332556 -0.821445
vn 0.074106 0.944029 -0.321432
vn -0.102997 0.663802 -0.740782
vn 0.463288 0.332556 -0.821445
vn -0.057408 0.332244 -0.941445
vn -0.281611 0.944321 -0.170155
vn -0.517246 0.796895 -0.312112
vn -0.455418 0.796874 0.396972
vn -0.636076 0.332443 -0.69634
vn -0.636076 0.332443 -0.69634
vn -0.85778 0.332533 0.391963
vn -0.247923 0.94438 0.216055
vn 0.23599 0.796423 0.556794
vn -0.85778 0.332533 0.391963
vn 0.10671 0.331831 0.937284
vn 0.128708 0.944184 0.303234
vn 0.10671 0.331831 0.937284
vn 0.382898 0.188499 0.904355
vn 0.923902 0.332985 0.188486
vn 0.459798 -0.664151 0.589482
vn 0.459798 -0.664151 0.589482
vn 0.735424 -0.664805 0.131095
vn 0.97815 0.189386 -0.085766
vn 0.463288 0.332556 -0.821445
vn 0.701604 -0.664741 -0.256654
vn -0.026983 -0.663741 -0.747476
vn 0.220201 0.188963 -0.956977
vn -0.382898 -0.188499 -0.904355
vn -0.026983 -0.663741 -0.747476
vn -0.636076 0.332443 -0.69634
vn -0.23599 -0.796423 -0.556794
vn -0.71818 -0.664776 -0.205645
vn -0.840998 0.188942 -0.506975
vn -0.85778 0.332533 0.391963
vn -0.71818 -0.664776 -0.205645
vn -0.416581 -0.664189 0.620736
vn -0.74024 0.188589 0.645352
vn 0.10671 0.331831 0.937284
vn -0.416581 -0.664189 0.620736
vn 0.247923 -0.94438 -0.216055
vn -0.026983 -0.663741 -0.747476
vn 0.517246 -0.796895 0.312112
vn -0.128708 -0.944184 -0.303235
vn -0.71818 -0.664776 -0.205645
vn -0.23599 -0.796423 -0.556794
vn -0.327708 -0.944334 0.028984
vn -0.416581 -0.664189 0.620736
vn -0.074106 -0.944029 0.321432
vn 0.459798 -0.664151 0.589482
vn 0.281611 -0.944321 0.170155
usemtl datan_common_ExplodeBU-_9152be4d
f 1/1/1 2/2/2 3/3/3
f 2/2/2 4/4/4 5/5/5
f 2/2/2 5/5/5 3/3/3
f 3/3/3 5/5/5 6/6/6
f 7/7/7 3/3/3 8/8/8
f 3/3/3 6/6/6 9/9/9
f 3/3/3 9/9/9 8/8/8
f 8/8/8 9/9/9 10/10/10
f 11/11/11 12/12/12 13/13/13
f 12/12/12 14/14/14 15/15/15
f 12/12/12 15/15/15 13/13/13
f 13/13/13 15/15/15 16/16/16
f 17/17/17 13/13/13 18/18/18
f 13/13/13 16/16/16 19/19/19
f 13/13/13 19/19/19 18/18/18
f 18/18/18 19/19/19 20/20/20
f 21/21/21 18/18/18 2/2/2
f 18/18/18 20/20/20 22/22/22
f 18/18/18 22/22/22 2/2/2
f 2/2/2 22/22/22 4/4/4
f 4/4/4 23/23/23 24/24/24
f 23/23/23 25/25/25 26/26/26
f 23/23/23 26/26/26 24/24/24
f 24/24/24 26/26/26 27/27/27
f 6/6/6 28/28/28 29/29/29
f 28/28/28 27/27/27 30/30/30
f 28/28/28 30/30/30 29/29/29
f 29/29/29 30/30/30 31/31/31
f 10/10/10 32/32/32 33/33/33
f 32/32/32 31/31/31 34/34/34
f 32/32/32 34/34/34 33/33/33
f 35/35/35 36/36/36 37/37/37
f 16/16/16 38/38/38 39/39/39
f 38/38/38 37/37/37 40/40/40
f 38/38/38 40/40/40 39/39/39
f 39/39/39 40/40/40 41/41/41
f 20/20/20 42/42/42 43/43/43
f 42/42/42 41/41/41 44/44/44
f 42/42/42 44/44/44 43/43/43
f 43/43/43 44/44/44 25/25/25
f 27/27/27 28/28/28 24/24/24
f 28/28/28 6/6/6 5/5/5
f 28/28/28 5/5/5 24/24/24
f 24/24/24 5/5/5 4/4/4
f 31/31/31 32/32/32 29/29/29
f 32/32/32 10/10/10 9/9/9
f 32/32/32 9/9/9 29/29/29
f 29/29/29 9/9/9 6/6/6
f 37/37/37 38/38/38 35/35/35
f 38/38/38 16/16/16 15/15/15
f 38/38/38 15/15/15 35/35/35
f 35/35/35 15/15/15 14/14/14
f 41/41/41 42/42/42 39/39/39
f 42/42/42 20/20/20 19/19/19
f 42/42/42 19/19/19 39/39/39
f 39/39/39 19/19/19 16/16/16
f 25/25/25 23/23/23 43/43/43
f 23/23/23 4/4/4 22/22/22
f 23/23/23 22/22/22 43/43/43
f 43/43/43 22/22/22 20/20/20
f 45/45/45 46/46/46 47/47/47
f 46/46/46 31/31/31 30/30/30
f 46/46/46 30/30/30 47/47/47
f 47/47/47 30/30/30 27/27/27
f 48/48/48 49/49/49 50/50/50
f 49/49/49 37/37/37 36/36/36
f 49/49/49 36/36/36 50/50/50
f 46/46/46 34/34/34 31/31/31
f 51/51/51 52/52/52 49/49/49
f 52/52/52 41/41/41 40/40/40
f 52/52/52 40/40/40 49/49/49
f 49/49/49 40/40/40 37/37/37
f 53/53/53 54/54/54 52/52/52
f 54/54/54 25/25/25 44/44/44
f 54/54/54 44/44/44 52/52/52
f 52/52/52 44/44/44 41/41/41
f 55/55/55 47/47/47 54/54/54
