# Generated from Nova1492 GX by tools/nova1492/GxObjConverter
mtllib datan_common_stop_af025213.mtl
o datan_common_stop_af025213_mesh00
v -2.75 -2.75 0
v 2.75 -2.75 0
v 2.75 2.75 -0
v -2.75 2.75 -0
vt 0.006066 0.012133
vt 0.493934 0.012132
vt 0.493934 0.987868
vt 0.006066 0.987868
vn 0 0 1
vn -0 0 1
vn 0 0 1
vn 0 0 1
usemtl datan_common_stop_af025213
f 1/1/1 2/2/2 3/3/3
f 3/3/3 4/4/4 1/1/1
o datan_common_stop_af025213_mesh01
v -0 -3.551132 0
v 3.551132 -0 0
v 0 3.551132 -0
v -3.551132 0 -0
vt 0.506066 0.009973
vt 0.993934 0.009972
vt 0.993934 0.49784
vt 0.506066 0.49784
vn -0 0 1
vn -0 0 1
vn -0 0 1
vn -0 0 1
usemtl datan_common_stop_af025213
f 5/5/5 6/6/6 7/7/7
f 7/7/7 8/8/8 5/5/5
o datan_common_stop_af025213_mesh02
v 0 0 -0
v 0 0 2.727769
v 2.727769 0 -0
v 2.727769 0 2.727769
vt 0.00582 0.99418
vt 0.00582 0.50582
vt 0.49418 0.99418
vt 0.49418 0.50582
vn -0 1 0
vn 0 1 0
vn 0 1 0
vn 0 1 0
usemtl datan_common_stop_af025213
f 9/9/9 10/10/10 11/11/11
f 12/12/12 11/11/11 10/10/10
o datan_common_stop_af025213_mesh03
v 0 0 -0
v 2.672993 0 -0
v 0 0 -2.672993
v 2.672993 0 -2.672993
vt 0.00582 0.99418
vt 0.00582 0.50582
vt 0.49418 0.99418
vt 0.49418 0.50582
vn -0 1 0
vn 0 1 -0
vn 0 1 -0
vn 0 1 -0
usemtl datan_common_stop_af025213
f 13/13/13 14/14/14 15/15/15
f 16/16/16 15/15/15 14/14/14
o datan_common_stop_af025213_mesh04
v 0 0 -0
v 0 0 -2.337746
v -2.337746 0 -0
v -2.337746 0 -2.337746
vt 0.00582 0.99418
vt 0.00582 0.50582
vt 0.49418 0.99418
vt 0.49418 0.50582
vn 0 1 0
vn -0 1 0
vn -0 1 0
vn -0 1 0
usemtl datan_common_stop_af025213
f 17/17/17 18/18/18 19/19/19
f 20/20/20 19/19/19 18/18/18
o datan_common_stop_af025213_mesh05
v 0 0 -0
v -2.411527 0 -0
v 0 0 2.411527
v -2.411527 0 2.411527
vt 0.00582 0.99418
vt 0.00582 0.50582
vt 0.49418 0.99418
vt 0.49418 0.50582
vn 0 1 -0
vn -0 1 0
vn -0 1 0
vn -0 1 0
usemtl datan_common_stop_af025213
f 21/21/21 22/22/22 23/23/23
f 24/24/24 23/23/23 22/22/22
o datan_common_stop_af025213_mesh06
v 0 0 -0
v 0 0 2.216489
v 2.216489 0 -0
v 2.216489 0 2.216489
vt 0.00582 0.99418
vt 0.00582 0.50582
vt 0.49418 0.99418
vt 0.49418 0.50582
vn -0 1 0
vn 0 1 0
vn 0 1 0
vn 0 1 0
usemtl datan_common_stop_af025213
f 25/25/25 26/26/26 27/27/27
f 28/28/28 27/27/27 26/26/26
o datan_common_stop_af025213_mesh07
v 0 0 -0
v 2.321736 0 -0
v 0 0 -2.321736
v 2.321736 0 -2.321736
vt 0.00582 0.99418
vt 0.00582 0.50582
vt 0.49418 0.99418
vt 0.49418 0.50582
vn -0 1 0
vn 0 1 -0
vn 0 1 -0
vn 0 1 -0
usemtl datan_common_stop_af025213
f 29/29/29 30/30/30 31/31/31
f 32/32/32 31/31/31 30/30/30
o datan_common_stop_af025213_mesh08
v 0 0 -0
v 0 0 -2.149096
v -2.149096 0 -0
v -2.149096 0 -2.149096
vt 0.00582 0.99418
vt 0.00582 0.50582
vt 0.49418 0.99418
vt 0.49418 0.50582
vn 0 1 0
vn -0 1 0
vn -0 1 0
vn -0 1 0
usemtl datan_common_stop_af025213
f 33/33/33 34/34/34 35/35/35
f 36/36/36 35/35/35 34/34/34
o datan_common_stop_af025213_mesh09
v 0 0 -0
v -2.0184 0 -0
v 0 0 2.0184
v -2.0184 0 2.0184
vt 0.00582 0.99418
vt 0.00582 0.50582
vt 0.49418 0.99418
vt 0.49418 0.50582
vn 0 1 -0
vn -0 1 0
vn -0 1 0
vn -0 1 0
usemtl datan_common_stop_af025213
f 37/37/37 38/38/38 39/39/39
f 40/40/40 39/39/39 38/38/38
o datan_common_stop_af025213_mesh10
v -0.53424 -0.049105 0.53424
v -0.040518 0.049105 0.040518
v -0.114699 -0.049105 -0.033663
v 0.53424 -0.049105 -0.53424
v 0.033663 -0.049105 0.114699
vt 0.560586 0.012132
vt 0.560586 0.171927
vt 0.505879 0.171927
vt 0.564414 0.987868
vt 0.619121 0.179584
vn 0.408495 0.726209 0.552949
vn 0.408495 0.726209 0.552949
vn -0.419252 0.727204 -0.543509
vn 0.54351 0.727204 0.419252
vn 0.408495 0.726209 0.552949
usemtl datan_common_stop_af025213
f 41/41/41 42/42/42 43/43/43
f 44/44/44 43/43/43 42/42/42
f 44/44/44 42/42/42 45/45/45
f 41/41/41 45/45/45 42/42/42
o datan_common_stop_af025213_mesh11
v -0.214582 -0.049105 0.724417
v -0.016274 0.049105 0.054942
v -0.116862 -0.049105 0.025146
v 0.214582 -0.049105 -0.724417
v 0.084313 -0.049105 0.084737
vt 0.560586 0.012132
vt 0.560586 0.171927
vt 0.505879 0.171927
vt 0.564414 0.987868
vt 0.619121 0.179584
vn 0.622837 0.726209 0.291025
vn 0.622837 0.726209 0.291025
vn -0.627786 0.727204 -0.277596
vn 0.677695 0.727204 0.109105
vn 0.622837 0.726209 0.291025
usemtl datan_common_stop_af025213
f 46/46/46 47/47/47 48/48/48
f 49/49/49 48/48/48 47/47/47
f 49/49/49 47/47/47 50/50/50
f 46/46/46 50/50/50 47/47/47
o datan_common_stop_af025213_mesh12
v -0.626363 -0.049105 0.422487
v -0.047505 0.049105 0.032042
v -0.106168 -0.049105 -0.05493
v 0.626363 -0.049105 -0.422487
v 0.011159 -0.049105 0.119014
vt 0.560586 0.012132
vt 0.560586 0.171927
vt 0.505879 0.171927
vt 0.564414 0.987868
vt 0.619121 0.179584
vn 0.295482 0.726209 0.620735
vn 0.295482 0.726209 0.620735
vn -0.307842 0.727204 -0.613521
vn 0.453527 0.727204 0.515256
vn 0.295482 0.726209 0.620735
usemtl datan_common_stop_af025213
f 51/51/51 52/52/52 53/53/53
f 54/54/54 53/53/53 52/52/52
f 54/54/54 52/52/52 55/55/55
f 51/51/51 55/55/55 52/52/52
o datan_common_stop_af025213_mesh13
v 0 -0.049105 0.75553
v 0 0.049105 0.057301
v -0.104907 -0.049105 0.057301
v -0 -0.049105 -0.75553
v 0.104907 -0.049105 0.057301
vt 0.560586 0.012132
vt 0.560586 0.171927
vt 0.505879 0.171927
vt 0.564414 0.987868
vt 0.619121 0.179584
vn 0.679844 0.726209 0.102145
vn 0.679844 0.726209 0.102145
vn -0.680775 0.727204 -0.087863
vn 0.680775 0.727204 -0.087863
vn 0.679844 0.726209 0.102145
usemtl datan_common_stop_af025213
f 56/56/56 57/57/57 58/58/58
f 59/59/59 58/58/58 57/57/57
f 59/59/59 57/57/57 60/60/60
f 56/56/56 60/60/60 57/57/57
o datan_common_stop_af025213_mesh14
v 0.673182 -0.049105 0.343003
v 0.051056 0.049105 0.026014
v 0.003429 -0.049105 0.119487
v -0.673182 -0.049105 -0.343003
v 0.098683 -0.049105 -0.067459
vt 0.560586 0.012132
vt 0.560586 0.171927
vt 0.505879 0.171927
vt 0.564414 0.987868
vt 0.619121 0.179584
vn 0.399654 0.726209 -0.559372
vn 0.399654 0.726209 -0.559372
vn -0.387352 0.727204 0.566686
vn 0.230779 0.727204 -0.646464
vn 0.399654 0.726209 -0.559372
usemtl datan_common_stop_af025213
f 61/61/61 62/62/62 63/63/63
f 64/64/64 63/63/63 62/62/62
f 64/64/64 62/62/62 65/65/65
f 61/61/61 65/65/65 62/62/62
o datan_common_stop_af025213_mesh15
v -0.38346 -0.049105 0.650987
v -0.029083 0.049105 0.049372
v -0.119474 -0.049105 -0.003872
v 0.38346 -0.049105 -0.650987
v 0.061309 -0.049105 0.102617
vt 0.560586 0.012132
vt 0.560586 0.171927
vt 0.505879 0.171927
vt 0.564414 0.987868
vt 0.619121 0.179584
vn 0.533931 0.726209 0.433058
vn 0.533931 0.726209 0.433058
vn -0.541981 0.727204 -0.421225
vn 0.63117 0.727204 0.269814
vn 0.533931 0.726209 0.433058
usemtl datan_common_stop_af025213
f 66/66/66 67/67/67 68/68/68
f 69/69/69 68/68/68 67/67/67
f 69/69/69 67/67/67 70/70/70
f 66/66/66 70/70/70 67/67/67
o datan_common_stop_af025213_mesh16
v -0.737621 -0.049105 -0.163527
v -0.055943 0.049105 -0.012402
v -0.033237 -0.049105 -0.114823
v 0.737621 -0.049105 0.163527
v -0.078649 -0.049105 0.090018
vt 0.560586 0.012132
vt 0.560586 0.171927
vt 0.505879 0.171927
vt 0.564414 0.987868
vt 0.619121 0.179584
vn -0.246869 0.726209 0.64162
vn -0.246869 0.726209 0.64162
vn 0.233127 0.727204 -0.645621
vn -0.061566 0.727204 0.683655
vn -0.246869 0.726209 0.64162
usemtl datan_common_stop_af025213
f 71/71/71 72/72/72 73/73/73
f 74/74/74 73/73/73 72/72/72
f 74/74/74 72/72/72 75/75/75
f 71/71/71 75/75/75 72/72/72
o datan_common_stop_af025213_mesh17
v -0.239733 -0.049105 -0.716487
v -0.018182 0.049105 -0.05434
v 0.081304 -0.049105 -0.087628
v 0.239733 -0.049105 0.716487
v -0.117668 -0.049105 -0.021053
vt 0.560586 0.012132
vt 0.560586 0.171927
vt 0.505879 0.171927
vt 0.564414 0.987868
vt 0.619121 0.179584
vn -0.677123 0.726209 0.118851
vn -0.677123 0.726209 0.118851
vn 0.673474 0.727204 -0.13269
vn -0.617716 0.727204 0.299336
vn -0.677123 0.726209 0.118851
usemtl datan_common_stop_af025213
f 76/76/76 77/77/77 78/78/78
f 79/79/79 78/78/78 77/77/77
f 79/79/79 77/77/77 80/80/80
f 76/76/76 80/80/80 77/77/77
o datan_common_stop_af025213_mesh18
v -2.477478 -2.477477 0
v 2.477478 -2.477477 0
v 2.477478 2.477477 -0
v -2.477478 2.477477 -0
vt 0.006066 0.012133
vt 0.493934 0.012132
vt 0.493934 0.987868
vt 0.006066 0.987868
vn 0 0 1
vn -0 0 1
vn 0 0 1
vn 0 0 1
usemtl datan_common_stop_af025213
f 81/81/81 82/82/82 83/83/83
f 83/83/83 84/84/84 81/81/81
o datan_common_stop_af025213_mesh19
v -0 -3.199218 0
v 3.199218 -0 0
v 0 3.199218 -0
v -3.199218 0 -0
vt 0.506066 0.009973
vt 0.993934 0.009972
vt 0.993934 0.49784
vt 0.506066 0.49784
vn -0 0 1
vn -0 0 1
vn -0 0 1
vn -0 0 1
usemtl datan_common_stop_af025213
f 85/85/85 86/86/86 87/87/87
f 87/87/87 88/88/88 85/85/85
o datan_common_stop_af025213_mesh20
v -0 -2.882179 0
v 2.882179 -0 0
v 0 2.882179 -0
v -2.882179 0 -0
vt 0.506066 0.009973
vt 0.993934 0.009972
vt 0.993934 0.49784
vt 0.506066 0.49784
vn -0 0 1
vn -0 0 1
vn -0 0 1
vn -0 0 1
usemtl datan_common_stop_af025213
f 89/89/89 90/90/90 91/91/91
f 91/91/91 92/92/92 89/89/89
