# Generated from Nova1492 GX by tools/nova1492/GxObjConverter
mtllib datan_common_ExplodeAirBU_eee817f1.mtl
o datan_common_ExplodeAirBU_eee817f1
v 0.002851 -0.001788 -0.062261
v -0.002517 -0.03505 -0.054436
v -0.027559 -0.006698 -0.052185
v -0.005772 -0.059372 -0.03024
v -0.032628 -0.040545 -0.033364
v -0.048375 -0.011136 -0.02641
v 0.002851 -0.001788 -0.062261
v -0.010222 0.027753 -0.050931
v -0.040332 0.022258 -0.029859
v -0.01888 0.047474 -0.024277
v 0.002851 -0.001788 -0.062261
v -0.010222 0.027753 -0.050931
v 0.025534 0.020692 -0.052407
v -0.01888 0.047474 -0.024277
v 0.012761 0.049647 -0.030081
v 0.041953 0.035462 -0.026788
v 0.002851 -0.001788 -0.062261
v 0.030296 -0.018123 -0.054573
v 0.05328 0.003772 -0.033723
v 0.050054 -0.030573 -0.030473
v 0.002851 -0.001788 -0.062261
v 0.025228 -0.05197 -0.035752
v 0.012265 -0.067921 -0.003132
v -0.023492 -0.06086 -0.001656
v 0.028 -0.057711 0.025022
v -0.003641 -0.059884 0.030826
v -0.032832 -0.045699 0.027534
v -0.048533 -0.032508 0.000595
v -0.053295 0.006306 0.002761
v -0.044159 -0.014009 0.034468
v -0.040934 0.020336 0.031219
v -0.035958 0.040757 0.004015
v -0.003145 0.057684 0.003878
v -0.016107 0.041733 0.036497
v -0.003145 0.057684 0.003878
v -0.016107 0.041733 0.036497
v 0.014892 0.049135 0.030986
v 0.032612 0.050623 0.002402
v 0.057654 0.022271 0.000151
v 0.041748 0.030308 0.034109
v 0.057496 0.000899 0.027156
v 0.062416 -0.016543 -0.002015
v 0.045079 -0.050994 -0.003269
v 0.049453 -0.032495 0.030604
v 0.006269 -0.008449 0.063006
v -0.021176 0.007886 0.055319
v -0.016414 -0.030929 0.053152
v 0.006269 -0.008449 0.063006
v 0.011638 0.024813 0.055182
v -0.021176 0.007886 0.055319
v 0.006269 -0.008449 0.063006
v 0.03668 -0.003539 0.05293
v 0.006269 -0.008449 0.063006
v 0.019343 -0.03799 0.051676
v 0.006269 -0.008449 0.063006
vt 0.849805 0.74709
vt 0.844229 0.727666
vt 0.855381 0.727666
vt 0.844229 0.706329
vt 0.850283 0.709795
vt 0.856338 0.706329
vt 0.862393 0.74709
vt 0.86749 0.727666
vt 0.862393 0.709795
vt 0.86749 0.706329
vt 0.813477 0.74709
vt 0.813477 0.727666
vt 0.819053 0.727666
vt 0.813955 0.706329
vt 0.813955 0.709795
vt 0.82001 0.706329
vt 0.826065 0.74709
vt 0.832119 0.727666
vt 0.826065 0.709795
vt 0.832119 0.706329
vt 0.838174 0.74709
vt 0.838174 0.709795
vt 0.841201 0.688457
vt 0.847256 0.688457
vt 0.838174 0.670586
vt 0.844229 0.667119
vt 0.850283 0.670586
vt 0.853311 0.688457
vt 0.859365 0.688457
vt 0.856338 0.667119
vt 0.862393 0.670586
vt 0.86542 0.688457
vt 0.870518 0.688457
vt 0.86749 0.667119
vt 0.812998 0.686543
vt 0.812998 0.667119
vt 0.812998 0.670586
vt 0.816982 0.688457
vt 0.823037 0.688457
vt 0.82001 0.667119
vt 0.826065 0.670586
vt 0.829092 0.688457
vt 0.835147 0.688457
vt 0.832119 0.667119
vt 0.855859 0.62791
vt 0.861436 0.647334
vt 0.850283 0.647334
vt 0.812998 0.62791
vt 0.812998 0.647334
vt 0.812998 0.647334
vt 0.82001 0.62791
vt 0.826065 0.649248
vt 0.832119 0.62791
vt 0.838174 0.649248
vt 0.844229 0.62791
vn -0.283898 -0.175912 -0.94258
vn 0.043534 -0.707522 -0.705349
vn -0.581731 0.319974 -0.747801
vn 0.148743 -0.910391 -0.386089
vn -0.508325 -0.784157 -0.355955
vn -0.940303 0.197882 -0.2769
vn -0.33736 0.203234 -0.919176
vn -0.533027 0.588105 -0.608289
vn -0.940303 0.197882 -0.2769
vn -0.703566 0.657966 -0.268469
vn 0.035031 0.371357 -0.927829
vn 0.09338 0.633456 -0.768123
vn 0.60318 0.118025 -0.788825
vn -0.116832 0.952799 -0.280221
vn -0.116832 0.952799 -0.280221
vn 0.867905 0.380178 -0.319696
vn 0.318853 0.091767 -0.943351
vn 0.253864 -0.498821 -0.828692
vn 0.867905 0.380178 -0.319696
vn 0.649369 -0.660447 -0.377001
vn 0.122888 -0.246005 -0.961447
vn 0.649369 -0.660447 -0.377001
vn 0.443655 -0.861994 -0.245227
vn -0.508325 -0.784157 -0.355955
vn 0.16649 -0.766025 0.620876
vn 0.16649 -0.766025 0.620876
vn -0.394289 -0.663891 0.635441
vn -0.74261 -0.640314 -0.196287
vn -0.940303 0.197882 -0.2769
vn -0.664637 -0.378534 0.644181
vn -0.549924 0.46729 0.69226
vn -0.883598 0.449447 -0.131346
vn -0.443655 0.861994 0.245227
vn -0.549924 0.46729 0.69226
vn -0.116832 0.952799 -0.280221
vn -0.253864 0.498821 0.828692
vn 0.363545 0.632113 0.684301
vn 0.186058 0.972089 -0.142916
vn 0.867905 0.380178 -0.319696
vn 0.363545 0.632113 0.684301
vn 0.782269 -0.125404 0.610188
vn 0.971803 0.130195 -0.196594
vn 0.649369 -0.660447 -0.377001
vn 0.782269 -0.125404 0.610188
vn -0.318853 -0.091767 0.943351
vn -0.549924 0.46729 0.69226
vn -0.09338 -0.633457 0.768123
vn -0.122888 0.246005 0.961447
vn 0.363545 0.632113 0.684301
vn -0.253864 0.498821 0.828692
vn 0.283898 0.175912 0.94258
vn 0.782269 -0.125404 0.610188
vn 0.33736 -0.203234 0.919176
vn 0.16649 -0.766025 0.620876
vn -0.035031 -0.371357 0.927829
usemtl datan_common_ExplodeAirBU_eee817f1
f 1/1/1 2/2/2 3/3/3
f 2/2/2 4/4/4 5/5/5
f 2/2/2 5/5/5 3/3/3
f 3/3/3 5/5/5 6/6/6
f 7/7/7 3/3/3 8/8/8
f 3/3/3 6/6/6 9/9/9
f 3/3/3 9/9/9 8/8/8
f 8/8/8 9/9/9 10/10/10
f 11/11/11 12/12/12 13/13/13
f 12/12/12 14/14/14 15/15/15
f 12/12/12 15/15/15 13/13/13
f 13/13/13 15/15/15 16/16/16
f 17/17/17 13/13/13 18/18/18
f 13/13/13 16/16/16 19/19/19
f 13/13/13 19/19/19 18/18/18
f 18/18/18 19/19/19 20/20/20
f 21/21/21 18/18/18 2/2/2
f 18/18/18 20/20/20 22/22/22
f 18/18/18 22/22/22 2/2/2
f 2/2/2 22/22/22 4/4/4
f 4/4/4 23/23/23 24/24/24
f 23/23/23 25/25/25 26/26/26
f 23/23/23 26/26/26 24/24/24
f 24/24/24 26/26/26 27/27/27
f 6/6/6 28/28/28 29/29/29
f 28/28/28 27/27/27 30/30/30
f 28/28/28 30/30/30 29/29/29
f 29/29/29 30/30/30 31/31/31
f 10/10/10 32/32/32 33/33/33
f 32/32/32 31/31/31 34/34/34
f 32/32/32 34/34/34 33/33/33
f 35/35/35 36/36/36 37/37/37
f 16/16/16 38/38/38 39/39/39
f 38/38/38 37/37/37 40/40/40
f 38/38/38 40/40/40 39/39/39
f 39/39/39 40/40/40 41/41/41
f 20/20/20 42/42/42 43/43/43
f 42/42/42 41/41/41 44/44/44
f 42/42/42 44/44/44 43/43/43
f 43/43/43 44/44/44 25/25/25
f 27/27/27 28/28/28 24/24/24
f 28/28/28 6/6/6 5/5/5
f 28/28/28 5/5/5 24/24/24
f 24/24/24 5/5/5 4/4/4
f 31/31/31 32/32/32 29/29/29
f 32/32/32 10/10/10 9/9/9
f 32/32/32 9/9/9 29/29/29
f 29/29/29 9/9/9 6/6/6
f 37/37/37 38/38/38 35/35/35
f 38/38/38 16/16/16 15/15/15
f 38/38/38 15/15/15 35/35/35
f 35/35/35 15/15/15 14/14/14
f 41/41/41 42/42/42 39/39/39
f 42/42/42 20/20/20 19/19/19
f 42/42/42 19/19/19 39/39/39
f 39/39/39 19/19/19 16/16/16
f 25/25/25 23/23/23 43/43/43
f 23/23/23 4/4/4 22/22/22
f 23/23/23 22/22/22 43/43/43
f 43/43/43 22/22/22 20/20/20
f 45/45/45 46/46/46 47/47/47
f 46/46/46 31/31/31 30/30/30
f 46/46/46 30/30/30 47/47/47
f 47/47/47 30/30/30 27/27/27
f 48/48/48 49/49/49 50/50/50
f 49/49/49 37/37/37 36/36/36
f 49/49/49 36/36/36 50/50/50
f 46/46/46 34/34/34 31/31/31
f 51/51/51 52/52/52 49/49/49
f 52/52/52 41/41/41 40/40/40
f 52/52/52 40/40/40 49/49/49
f 49/49/49 40/40/40 37/37/37
f 53/53/53 54/54/54 52/52/52
f 54/54/54 25/25/25 44/44/44
f 54/54/54 44/44/44 52/52/52
f 52/52/52 44/44/44 41/41/41
f 55/55/55 47/47/47 54/54/54
