# Generated from Nova1492 GX by tools/nova1492/GxObjConverter
mtllib datan_common_doom_e9e38393.mtl
o datan_common_doom_e9e38393_mesh00
v 0 0.000017 0.000017
v -0.000013 0 0.000029
v 0.000013 0 0.000029
v 0.000017 0.000017 -0
v 0.000029 0 0.000013
v 0.000029 -0 -0.000013
v 0 0.000017 -0.000017
v 0.000013 -0 -0.000029
v -0.000013 -0 -0.000029
v -0.000017 0.000017 -0
v -0.000029 -0 -0.000013
v -0.000029 0 0.000013
v -0.000013 0 0.000029
v 0 0.000017 0.000017
v 0.000013 0 0.000029
v 0.000029 0 0.000013
v 0.000017 0.000017 -0
v 0.000029 -0 -0.000013
v 0.000013 -0 -0.000029
v 0 0.000017 -0.000017
v -0.000013 -0 -0.000029
v -0.000029 -0 -0.000013
v -0.000017 0.000017 -0
v -0.000029 0 0.000013
vt 0.625 0.608596
vt 0.572778 0.506066
vt 0.677222 0.506066
vt 0.695702 0.75
vt 0.746967 0.645557
vt 0.746967 0.854443
vt 0.625 0.891404
vt 0.677222 0.993934
vt 0.572778 0.993934
vt 0.554298 0.75
vt 0.503033 0.854443
vt 0.503033 0.645557
vt 0.572778 0.506066
vt 0.625 0.608596
vt 0.677222 0.506066
vt 0.746967 0.645557
vt 0.695702 0.75
vt 0.746967 0.854443
vt 0.677222 0.993934
vt 0.625 0.891404
vt 0.572778 0.993934
vt 0.503033 0.854443
vt 0.554298 0.75
vt 0.503033 0.645557
vn 0.483628 0.729526 0.483628
vn -0.483628 0.729526 0.483628
vn 0.483628 0.729526 0.483628
vn 0.483628 0.729526 -0.483628
vn 0.483628 0.729526 0.483628
vn 0.483628 0.729526 -0.483628
vn -0.483628 0.729526 -0.483628
vn 0.483628 0.729526 -0.483628
vn -0.483628 0.729526 -0.483628
vn -0.483628 0.729526 -0.483628
vn -0.483628 0.729526 -0.483628
vn -0.483628 0.729526 0.483628
vn 0.483628 -0.729526 -0.483628
vn -0.483628 -0.729526 -0.483628
vn -0.483628 -0.729526 -0.483628
vn -0.483628 -0.729526 -0.483628
vn -0.483628 -0.729526 0.483628
vn -0.483628 -0.729526 0.483628
vn -0.483628 -0.729526 0.483628
vn 0.483628 -0.729526 0.483628
vn 0.483628 -0.729526 0.483628
vn 0.483628 -0.729526 0.483628
vn 0.483628 -0.729526 0.483628
vn 0.483628 -0.729526 -0.483628
usemtl datan_common_doom_e9e38393
f 1/1/1 2/2/2 3/3/3
f 4/4/4 5/5/5 6/6/6
f 7/7/7 8/8/8 9/9/9
f 10/10/10 11/11/11 12/12/12
f 1/1/1 10/10/10 2/2/2
f 12/12/12 2/2/2 10/10/10
f 4/4/4 1/1/1 5/5/5
f 3/3/3 5/5/5 1/1/1
f 7/7/7 4/4/4 8/8/8
f 6/6/6 8/8/8 4/4/4
f 10/10/10 7/7/7 11/11/11
f 9/9/9 11/11/11 7/7/7
f 13/13/13 14/14/14 15/15/15
f 16/16/16 17/17/17 18/18/18
f 19/19/19 20/20/20 21/21/21
f 22/22/22 23/23/23 24/24/24
f 23/23/23 14/14/14 13/13/13
f 13/13/13 24/24/24 23/23/23
f 14/14/14 17/17/17 16/16/16
f 16/16/16 15/15/15 14/14/14
f 17/17/17 20/20/20 19/19/19
f 19/19/19 18/18/18 17/17/17
f 20/20/20 23/23/23 22/22/22
f 22/22/22 21/21/21 20/20/20
o datan_common_doom_e9e38393_mesh01
v -0 0.000034 0.000033
v -0.000025 0 0.000058
v 0.000025 0 0.000058
v 0.000033 0.000034 -0
v 0.000058 0 0.000025
v 0.000058 0 -0.000025
v 0 0.000034 -0.000033
v 0.000025 0 -0.000058
v -0.000025 0 -0.000058
v -0.000033 0.000034 0
v -0.000058 0 -0.000025
v -0.000058 0 0.000025
v -0.000025 0 0.000058
v 0.000025 0 0.000058
v 0.000058 0 0.000025
v 0.000058 0 -0.000025
v 0.000025 0 -0.000058
v -0.000025 0 -0.000058
v -0.000058 0 -0.000025
v -0.000058 0 0.000025
vt 0.625 0.608596
vt 0.572778 0.506066
vt 0.677222 0.506066
vt 0.695702 0.75
vt 0.746967 0.645557
vt 0.746967 0.854443
vt 0.625 0.891404
vt 0.677222 0.993934
vt 0.572778 0.993934
vt 0.554298 0.75
vt 0.503033 0.854443
vt 0.503033 0.645557
vt 0.572778 0.506066
vt 0.677222 0.506066
vt 0.746967 0.645557
vt 0.746967 0.854443
vt 0.677222 0.993934
vt 0.572778 0.993934
vt 0.503033 0.854443
vt 0.503033 0.645557
vn -0.483628 -0.729526 -0.483628
vn -0.483628 0.729526 0.483628
vn 0.483628 0.729526 0.483628
vn -0.483628 -0.729526 0.483628
vn 0.483628 0.729526 0.483628
vn 0.483628 0.729526 -0.483628
vn 0.483628 -0.729526 0.483628
vn 0.483628 0.729526 -0.483628
vn -0.483628 0.729526 -0.483628
vn 0.483628 -0.729526 0.483628
vn -0.483628 0.729526 -0.483628
vn -0.483628 0.729526 0.483628
vn 0.483628 -0.729526 -0.483628
vn -0.483628 -0.729526 -0.483628
vn -0.483628 -0.729526 -0.483628
vn -0.483628 -0.729526 0.483628
vn -0.483628 -0.729526 0.483628
vn 0.483628 -0.729526 0.483628
vn 0.483628 -0.729526 0.483628
vn 0.483628 -0.729526 -0.483628
usemtl datan_common_doom_e9e38393
f 25/25/25 26/26/26 27/27/27
f 28/28/28 29/29/29 30/30/30
f 31/31/31 32/32/32 33/33/33
f 34/34/34 35/35/35 36/36/36
f 25/25/25 34/34/34 26/26/26
f 36/36/36 26/26/26 34/34/34
f 28/28/28 25/25/25 29/29/29
f 27/27/27 29/29/29 25/25/25
f 31/31/31 28/28/28 32/32/32
f 30/30/30 32/32/32 28/28/28
f 34/34/34 31/31/31 35/35/35
f 33/33/33 35/35/35 31/31/31
f 37/37/37 25/25/25 38/38/38
f 39/39/39 28/28/28 40/40/40
f 41/41/41 31/31/31 42/42/42
f 43/43/43 34/34/34 44/44/44
f 34/34/34 25/25/25 37/37/37
f 37/37/37 44/44/44 34/34/34
f 25/25/25 28/28/28 39/39/39
f 39/39/39 38/38/38 25/25/25
f 28/28/28 31/31/31 41/41/41
f 41/41/41 40/40/40 28/28/28
f 31/31/31 34/34/34 43/43/43
f 43/43/43 42/42/42 31/31/31
o datan_common_doom_e9e38393_mesh02
v -0 0.000059 0.000031
v -0.000027 0 0.000103
v 0.000027 0 0.000103
v 0.000031 0.000059 -0
v 0.000103 0 0.000027
v 0.000103 -0 -0.000027
v 0 0.000059 -0.000031
v 0.000027 -0 -0.000103
v -0.000027 -0 -0.000103
v -0.000031 0.000059 -0
v -0.000103 -0 -0.000027
v -0.000103 0 0.000027
v -0.000054 0 0.000094
v -0.000094 0 0.000054
v 0.000094 0 0.000054
v 0.000054 0 0.000094
v 0.000054 -0 -0.000094
v 0.000094 -0 -0.000054
v -0.000094 -0 -0.000054
v -0.000054 -0 -0.000094
vt 0.625 0.673386
vt 0.593814 0.506066
vt 0.656186 0.506066
vt 0.663307 0.75
vt 0.746967 0.687629
vt 0.746967 0.812371
vt 0.625 0.826614
vt 0.656186 0.993934
vt 0.593814 0.993934
vt 0.586693 0.75
vt 0.503033 0.812371
vt 0.503033 0.687629
vt 0.561299 0.529025
vt 0.514513 0.622598
vt 0.735488 0.622598
vt 0.688701 0.529025
vt 0.688701 0.970975
vt 0.735488 0.88123
vt 0.514513 0.88123
vt 0.561299 0.970975
vn 0.203349 0.791763 0.575987
vn -0.203349 0.791763 0.575987
vn 0.203349 0.791763 0.575987
vn 0.575986 0.791763 -0.203349
vn 0.575986 0.791763 0.203349
vn 0.575986 0.791763 -0.203349
vn -0.203349 0.791763 -0.575987
vn 0.203349 0.791763 -0.575987
vn -0.203349 0.791763 -0.575987
vn -0.575986 0.791763 0.203349
vn -0.575986 0.791763 -0.203349
vn -0.575986 0.791763 0.203349
vn -0.203349 0.791763 0.575987
vn -0.575986 0.791763 0.203349
vn 0.575986 0.791763 0.203349
vn 0.203349 0.791763 0.575987
vn 0.203349 0.791763 -0.575987
vn 0.575986 0.791763 -0.203349
vn -0.575986 0.791763 -0.203349
vn -0.203349 0.791763 -0.575987
usemtl datan_common_doom_e9e38393
f 45/45/45 46/46/46 47/47/47
f 48/48/48 49/49/49 50/50/50
f 51/51/51 52/52/52 53/53/53
f 54/54/54 55/55/55 56/56/56
f 45/45/45 54/54/54 57/57/57
f 58/58/58 57/57/57 54/54/54
f 48/48/48 45/45/45 59/59/59
f 60/60/60 59/59/59 45/45/45
f 51/51/51 48/48/48 61/61/61
f 62/62/62 61/61/61 48/48/48
f 54/54/54 51/51/51 63/63/63
f 64/64/64 63/63/63 51/51/51
f 57/57/57 46/46/46 45/45/45
f 47/47/47 60/60/60 45/45/45
f 59/59/59 49/49/49 48/48/48
f 50/50/50 62/62/62 48/48/48
f 61/61/61 52/52/52 51/51/51
f 53/53/53 64/64/64 51/51/51
f 63/63/63 55/55/55 54/54/54
f 56/56/56 58/58/58 54/54/54
o datan_common_doom_e9e38393_mesh03
v -0.000705 0 -0.000705
v -0.000705 0 0.000705
v 0.000705 0 -0.000705
v 0.000705 0 0.000705
vt 0.50291 0.99418
vt 0.50291 0.50582
vt 0.74709 0.99418
vt 0.74709 0.50582
vn -0 1 0
vn 0 1 0
vn 0 1 0
vn 0 1 0
usemtl datan_common_doom_e9e38393
f 65/65/65 66/66/66 67/67/67
f 68/68/68 67/67/67 66/66/66
