# Generated from Nova1492 GX by tools/nova1492/GxObjConverter
mtllib datan_common_superdefenceac_30b8305e.mtl
o datan_common_superdefenceac_30b8305e_mesh00
v -0.081253 -0.351906 0.111551
v 0.081211 -0.351906 0.111551
v 0.081211 0.351906 0.111551
v -0.081253 0.351906 0.111551
v 0.107829 -0.351906 0.176849
v 0.107829 0.351906 0.176849
v 0.378035 -0.351906 0.176849
v 0.378035 0.351906 0.176849
v 0.416061 -0.351906 0.062577
v 0.416061 0.351906 0.062577
v 0.464457 -0.351906 0.046253
v 0.464457 0.351906 0.046253
v 0.464457 -0.351906 -0.046266
v 0.464457 0.351906 -0.046266
v 0.416061 -0.351906 -0.062577
v 0.416061 0.351906 -0.062577
v 0.378035 -0.351906 -0.176849
v 0.378035 0.351906 -0.176849
v 0.107829 -0.351906 -0.176849
v 0.107829 0.351906 -0.176849
v 0.081211 -0.351906 -0.111551
v 0.081211 0.351906 -0.111551
v -0.081262 -0.351906 -0.111551
v -0.081262 0.351906 -0.111551
v -0.107829 -0.351906 -0.176849
v -0.107829 0.351906 -0.176849
v -0.378034 -0.351906 -0.176849
v -0.378034 0.351906 -0.176849
v -0.41606 -0.351906 -0.062577
v -0.41606 0.351906 -0.062577
v -0.464457 -0.351906 -0.046266
v -0.464457 0.351906 -0.046266
v -0.464457 -0.351906 0.046253
v -0.464457 0.351906 0.046253
v -0.41606 -0.351906 0.062577
v -0.41606 0.351906 0.062577
v -0.378034 -0.351906 0.176849
v -0.378034 0.351906 0.176849
v -0.107829 -0.351906 0.176849
v -0.107829 0.351906 0.176849
v -0.41606 0.351906 -0.062577
v -0.464457 0.351906 -0.046266
v -0.464457 0.351906 0.046253
v -0.41606 0.351906 0.062577
v 0.464457 0.351906 0.046253
v 0.464457 0.351906 -0.046266
v 0.416061 0.351906 -0.062577
v 0.416061 0.351906 0.062577
v -0.107829 0.351906 -0.176849
v -0.378034 0.351906 -0.176849
v -0.081262 0.351906 -0.111551
v -0.378034 0.351906 0.176849
v -0.107829 0.351906 0.176849
v -0.081253 0.351906 0.111551
v 0.081211 0.351906 -0.111551
v 0.081211 0.351906 0.111551
v 0.378035 0.351906 -0.176849
v 0.107829 0.351906 -0.176849
v 0.378035 0.351906 0.176849
v 0.107829 0.351906 0.176849
v -0.490393 0.034566 0.230219
v 0.490393 0.034566 0.230219
v 0.490393 0.034566 -0.230219
v -0.490393 0.034566 -0.230219
v -0.490393 -0.034566 0.230219
v 0.490393 -0.034566 0.230219
v 0.490393 0.034566 0.230219
v -0.490393 0.034566 0.230219
v 0.490393 -0.034566 0.230219
v 0.490393 -0.034566 -0.230219
v 0.490393 0.034566 -0.230219
v 0.490393 0.034566 0.230219
v 0.490393 -0.034566 -0.230219
v -0.490393 -0.034566 -0.230219
v -0.490393 0.034566 -0.230219
v 0.490393 0.034566 -0.230219
v -0.490393 -0.034566 -0.230219
v -0.490393 -0.034566 0.230219
v -0.490393 0.034566 0.230219
v -0.490393 0.034566 -0.230219
vt 0.41781 0.511883
vt 0.582145 0.511883
vt 0.582145 0.988117
vt 0.41781 0.988117
vt 0.610325 0.511883
vt 0.610325 0.988117
vt 0.896377 0.511883
vt 0.896377 0.988117
vt 0.936633 0.511883
vt 0.936633 0.988117
vt 0.987868 0.511883
vt 0.987868 0.988117
vt 0.987868 0.511883
vt 0.987868 0.988117
vt 0.944289 0.511883
vt 0.944289 0.988117
vt 0.904033 0.511883
vt 0.904033 0.988117
vt 0.617981 0.511883
vt 0.617981 0.988117
vt 0.589802 0.511883
vt 0.589802 0.988117
vt 0.4178 0.511883
vt 0.4178 0.988117
vt 0.389676 0.511883
vt 0.389676 0.988117
vt 0.103623 0.511883
vt 0.103623 0.988117
vt 0.063367 0.511883
vt 0.063367 0.988117
vt 0.012132 0.511883
vt 0.012132 0.988117
vt 0.012132 0.511883
vt 0.012132 0.988117
vt 0.055711 0.511883
vt 0.055711 0.988117
vt 0.095967 0.511883
vt 0.095967 0.988117
vt 0.382019 0.511883
vt 0.382019 0.988117
vt 0.055711 0.162597
vt 0.012132 0.151799
vt 0.012132 0.09821
vt 0.055711 0.079747
vt 0.987868 0.09821
vt 0.987868 0.151799
vt 0.944289 0.162597
vt 0.944289 0.079747
vt 0.382019 0.238242
vt 0.103623 0.238242
vt 0.410144 0.195016
vt 0.103623 0.011758
vt 0.382019 0.011758
vt 0.410154 0.047328
vt 0.582145 0.195016
vt 0.582145 0.047327
vt 0.896377 0.238242
vt 0.617981 0.238242
vt 0.896377 0.011758
vt 0.617981 0.011758
vt 0.511883 0.261758
vt 0.988117 0.261758
vt 0.988118 0.488242
vt 0.511883 0.488242
vt 0.511883 0.261758
vt 0.988117 0.261758
vt 0.988117 0.488242
vt 0.511883 0.488242
vt 0.511883 0.261758
vt 0.988117 0.261758
vt 0.988117 0.488242
vt 0.511883 0.488242
vt 0.511883 0.261758
vt 0.988117 0.261758
vt 0.988117 0.488242
vt 0.511883 0.488242
vt 0.511883 0.261758
vt 0.988117 0.261758
vt 0.988117 0.488242
vt 0.511883 0.488242
vn 0.363076 0 0.93176
vn -0.725873 0 0.687829
vn -0.362936 0 0.931814
vn 0.726151 0 0.687535
vn -0.362936 0 0.931814
vn -0.725873 0 0.687829
vn 0.758288 0 0.65192
vn 0.379144 0 0.925338
vn 0.583402 0 0.812184
vn 0.814558 0 0.580082
vn 0.925741 0 0.378159
vn 0.654205 0 0.756318
vn 0.654066 0 -0.756438
vn 0.925716 0 -0.378219
vn 0.814515 0 -0.580143
vn 0.58326 0 -0.812285
vn 0.379144 0 -0.925338
vn 0.758288 0 -0.65192
vn -0.725873 0 -0.687829
vn -0.362936 0 -0.931814
vn -0.362936 0 -0.931814
vn -0.725873 0 -0.687829
vn 0.726215 0 -0.687467
vn 0.363108 0 -0.931747
vn 0.363108 0 -0.931747
vn 0.726215 0 -0.687467
vn -0.758288 0 -0.65192
vn -0.379144 0 -0.925338
vn -0.58326 0 -0.812285
vn -0.814515 0 -0.580143
vn -0.925716 0 -0.378219
vn -0.654066 0 -0.756438
vn -0.654204 0 0.756318
vn -0.925741 0 0.378159
vn -0.814558 0 0.580082
vn -0.583402 0 0.812184
vn -0.379144 0 0.925338
vn -0.758288 0 0.65192
vn 0.726151 0 0.687535
vn 0.363076 0 0.93176
vn 0 1 0
vn 0 1 0
vn 0 1 0
vn 0 1 0
vn 0 1 0
vn 0 1 0
vn 0 1 0
vn 0 1 0
vn 0 1 0
vn 0 1 0
vn 0 1 0
vn 0 1 0
vn 0 1 0
vn 0 1 0
vn 0 1 0
vn 0 1 0
vn 0 1 0
vn 0 1 0
vn 0 1 0
vn 0 1 0
vn 0 1 0
vn 0 1 0
vn 0 1 0
vn 0 1 0
vn 0 0 1
vn 0 0 1
vn 0 0 1
vn 0 0 1
vn 1 0 0
vn 1 0 0
vn 1 0 0
vn 1 0 0
vn 0 0 -1
vn 0 0 -1
vn 0 0 -1
vn 0 0 -1
vn -1 0 0
vn -1 0 0
vn -1 0 0
vn -1 0 0
usemtl datan_common_superdefenceac_30b8305e
f 1/1/1 2/2/2 3/3/3
f 1/1/1 3/3/3 4/4/4
f 2/2/2 5/5/5 6/6/6
f 2/2/2 6/6/6 3/3/3
f 5/5/5 7/7/7 8/8/8
f 5/5/5 8/8/8 6/6/6
f 7/7/7 9/9/9 10/10/10
f 7/7/7 10/10/10 8/8/8
f 9/9/9 11/11/11 12/12/12
f 9/9/9 12/12/12 10/10/10
f 11/11/11 13/13/13 14/14/14
f 11/11/11 14/14/14 12/12/12
f 13/13/13 15/15/15 16/16/16
f 13/13/13 16/16/16 14/14/14
f 15/15/15 17/17/17 18/18/18
f 15/15/15 18/18/18 16/16/16
f 17/17/17 19/19/19 20/20/20
f 17/17/17 20/20/20 18/18/18
f 19/19/19 21/21/21 22/22/22
f 19/19/19 22/22/22 20/20/20
f 21/21/21 23/23/23 24/24/24
f 21/21/21 24/24/24 22/22/22
f 23/23/23 25/25/25 26/26/26
f 23/23/23 26/26/26 24/24/24
f 25/25/25 27/27/27 28/28/28
f 25/25/25 28/28/28 26/26/26
f 27/27/27 29/29/29 30/30/30
f 27/27/27 30/30/30 28/28/28
f 29/29/29 31/31/31 32/32/32
f 29/29/29 32/32/32 30/30/30
f 31/31/31 33/33/33 34/34/34
f 31/31/31 34/34/34 32/32/32
f 33/33/33 35/35/35 36/36/36
f 33/33/33 36/36/36 34/34/34
f 35/35/35 37/37/37 38/38/38
f 35/35/35 38/38/38 36/36/36
f 37/37/37 39/39/39 40/40/40
f 37/37/37 40/40/40 38/38/38
f 39/39/39 1/1/1 4/4/4
f 39/39/39 4/4/4 40/40/40
f 41/41/41 42/42/42 43/43/43
f 41/41/41 43/43/43 44/44/44
f 45/45/45 46/46/46 47/47/47
f 48/48/48 45/45/45 47/47/47
f 49/49/49 50/50/50 41/41/41
f 49/49/49 41/41/41 44/44/44
f 51/51/51 49/49/49 44/44/44
f 51/51/51 44/44/44 52/52/52
f 51/51/51 52/52/52 53/53/53
f 51/51/51 53/53/53 54/54/54
f 55/55/55 51/51/51 54/54/54
f 55/55/55 54/54/54 56/56/56
f 47/47/47 57/57/57 58/58/58
f 48/48/48 47/47/47 58/58/58
f 48/48/48 58/58/58 55/55/55
f 48/48/48 55/55/55 56/56/56
f 59/59/59 48/48/48 56/56/56
f 60/60/60 59/59/59 56/56/56
f 61/61/61 62/62/62 63/63/63
f 63/63/63 64/64/64 61/61/61
f 65/65/65 66/66/66 67/67/67
f 67/67/67 68/68/68 65/65/65
f 69/69/69 70/70/70 71/71/71
f 71/71/71 72/72/72 69/69/69
f 73/73/73 74/74/74 75/75/75
f 75/75/75 76/76/76 73/73/73
f 77/77/77 78/78/78 79/79/79
f 79/79/79 80/80/80 77/77/77
o datan_common_superdefenceac_30b8305e_mesh01
v -0.105629 0.350201 0.071968
v 0.105574 0.350201 0.071968
v 0.120955 0.394716 0.055789
v -0.121012 0.394716 0.055789
v 0.124768 0.350201 0.114096
v 0.134751 0.394716 0.088446
v 0.360369 0.350201 0.114096
v 0.343209 0.394716 0.088446
v 0.388841 0.350201 0.040372
v 0.366659 0.394716 0.031296
v 0.388841 0.350201 -0.040372
v 0.366659 0.394716 -0.031296
v 0.360369 0.350201 -0.114096
v 0.343209 0.394716 -0.088446
v 0.124768 0.350201 -0.114096
v 0.134751 0.394716 -0.088446
v 0.105574 0.350201 -0.071968
v 0.120955 0.394716 -0.055789
v -0.105642 0.350201 -0.071968
v -0.121026 0.394716 -0.055789
v -0.124769 0.350201 -0.114096
v -0.134749 0.394716 -0.088446
v -0.36037 0.350201 -0.114096
v -0.343209 0.394716 -0.088446
v -0.388842 0.350201 -0.040372
v -0.366659 0.394716 -0.031296
v -0.388842 0.350201 0.040372
v -0.366659 0.394716 0.031296
v -0.36037 0.350201 0.114096
v -0.343209 0.394716 0.088446
v -0.124769 0.350201 0.114096
v -0.134749 0.394716 0.088446
vt 0.68513 0.027492
vt 0.814836 0.027492
vt 0.824561 0.031964
vt 0.675404 0.031964
vt 0.8308 0.005879
vt 0.837112 0.01521
vt 0.975932 0.005879
vt 0.965082 0.01521
vt 0.993934 0.039873
vt 0.983737 0.04453
vt 0.993934 0.081298
vt 0.983737 0.076642
vt 0.97976 0.119121
vt 0.96891 0.105962
vt 0.8308 0.119121
vt 0.837112 0.105962
vt 0.818664 0.097508
vt 0.828389 0.089208
vt 0.685122 0.097508
vt 0.675394 0.089208
vt 0.673028 0.119121
vt 0.666718 0.105962
vt 0.524068 0.119121
vt 0.534918 0.105962
vt 0.506066 0.081298
vt 0.520091 0.076642
vt 0.506066 0.039874
vt 0.520091 0.04453
vt 0.524068 0.005879
vt 0.534918 0.01521
vt 0.673028 0.005879
vt 0.666718 0.01521
vn 0.312344 0.417984 0.853071
vn -0.633609 0.442016 0.63495
vn -0.148638 0.905874 0.39661
vn 0.349616 0.86932 0.34936
vn -0.311753 0.525892 0.791359
vn -0.509408 0.708715 0.488085
vn 0.609636 0.552806 0.568111
vn 0.193774 0.845094 0.498265
vn 0.881004 0.460845 0.10702
vn 0.419008 0.901593 0.107527
vn 0.851154 0.477211 -0.218648
vn 0.610093 0.788453 -0.07829
vn 0.305135 0.56102 -0.769512
vn 0.489793 0.743031 -0.456078
vn -0.6278 0.494632 -0.601005
vn -0.171292 0.889685 -0.423225
vn -0.312094 0.41793 -0.853189
vn -0.294463 0.909048 -0.294827
vn 0.63441 0.441917 -0.634219
vn 0.127902 0.931421 -0.340729
vn 0.312111 0.525878 -0.791226
vn 0.340889 0.881841 -0.325808
vn -0.609636 0.552806 -0.56811
vn -0.240354 0.748504 -0.618038
vn -0.881005 0.460845 -0.10702
vn -0.586333 0.795974 -0.150466
vn -0.851154 0.477211 0.218647
vn -0.511218 0.856944 0.065602
vn -0.305135 0.561021 0.769512
vn -0.394895 0.841931 0.367711
vn 0.628452 0.494522 0.600413
vn 0.207847 0.832978 0.512785
usemtl datan_common_superdefenceac_30b8305e
f 81/81/81 82/82/82 83/83/83
f 81/81/81 83/83/83 84/84/84
f 82/82/82 85/85/85 86/86/86
f 82/82/82 86/86/86 83/83/83
f 85/85/85 87/87/87 88/88/88
f 85/85/85 88/88/88 86/86/86
f 87/87/87 89/89/89 90/90/90
f 87/87/87 90/90/90 88/88/88
f 89/89/89 91/91/91 92/92/92
f 89/89/89 92/92/92 90/90/90
f 91/91/91 93/93/93 94/94/94
f 91/91/91 94/94/94 92/92/92
f 93/93/93 95/95/95 96/96/96
f 93/93/93 96/96/96 94/94/94
f 95/95/95 97/97/97 98/98/98
f 95/95/95 98/98/98 96/96/96
f 97/97/97 99/99/99 100/100/100
f 97/97/97 100/100/100 98/98/98
f 99/99/99 101/101/101 102/102/102
f 99/99/99 102/102/102 100/100/100
f 101/101/101 103/103/103 104/104/104
f 101/101/101 104/104/104 102/102/102
f 103/103/103 105/105/105 106/106/106
f 103/103/103 106/106/106 104/104/104
f 105/105/105 107/107/107 108/108/108
f 105/105/105 108/108/108 106/106/106
f 107/107/107 109/109/109 110/110/110
f 107/107/107 110/110/110 108/108/108
f 109/109/109 111/111/111 112/112/112
f 109/109/109 112/112/112 110/110/110
f 111/111/111 81/81/81 84/84/84
f 111/111/111 84/84/84 112/112/112
f 102/102/102 104/104/104 106/106/106
f 102/102/102 106/106/106 108/108/108
f 100/100/100 102/102/102 108/108/108
f 100/100/100 108/108/108 110/110/110
f 100/100/100 110/110/110 112/112/112
f 100/100/100 112/112/112 84/84/84
f 98/98/98 100/100/100 84/84/84
f 98/98/98 84/84/84 83/83/83
f 92/92/92 94/94/94 96/96/96
f 90/90/90 92/92/92 96/96/96
f 90/90/90 96/96/96 98/98/98
f 90/90/90 98/98/98 83/83/83
f 88/88/88 90/90/90 83/83/83
f 86/86/86 88/88/88 83/83/83
o datan_common_superdefenceac_30b8305e_mesh02
v -0.128098 -0.347684 -0
v -0.128098 0.347684 0
v 0.128098 -0.347684 -0
v 0.128098 0.347684 0
vt 0.00582 0.24418
vt 0.00582 0.00582
vt 0.11918 0.24418
vt 0.11918 0.00582
vn 0 0 -1
vn 0 0 -1
vn 0 0 -1
vn 0 0 -1
usemtl datan_common_superdefenceac_30b8305e
f 113/113/113 114/114/114 115/115/115
f 116/116/116 115/115/115 114/114/114
o datan_common_superdefenceac_30b8305e_mesh03
v -0.128098 -0.347684 -0
v -0.128098 0.347684 0
v 0.128098 -0.347684 -0
v 0.128098 0.347684 0
vt 0.00582 0.24418
vt 0.00582 0.00582
vt 0.11918 0.24418
vt 0.11918 0.00582
vn 0 0 -1
vn 0 0 -1
vn 0 0 -1
vn 0 0 -1
usemtl datan_common_superdefenceac_30b8305e
f 117/117/117 118/118/118 119/119/119
f 120/120/120 119/119/119 118/118/118
o datan_common_superdefenceac_30b8305e_mesh04
v -0.128098 -0.347684 -0
v -0.128098 0.347684 0
v 0.128098 -0.347684 -0
v 0.128098 0.347684 0
vt 0.00582 0.24418
vt 0.00582 0.00582
vt 0.11918 0.24418
vt 0.11918 0.00582
vn 0 0 -1
vn 0 0 -1
vn 0 0 -1
vn 0 0 -1
usemtl datan_common_superdefenceac_30b8305e
f 121/121/121 122/122/122 123/123/123
f 124/124/124 123/123/123 122/122/122
o datan_common_superdefenceac_30b8305e_mesh05
v -0.128098 -0.347684 -0
v -0.128098 0.347684 0
v 0.128098 -0.347684 -0
v 0.128098 0.347684 0
vt 0.00582 0.24418
vt 0.00582 0.00582
vt 0.11918 0.24418
vt 0.11918 0.00582
vn 0 0 -1
vn 0 0 -1
vn 0 0 -1
vn 0 0 -1
usemtl datan_common_superdefenceac_30b8305e
f 125/125/125 126/126/126 127/127/127
f 128/128/128 127/127/127 126/126/126
