# Generated from Nova1492 GX by tools/nova1492/GxObjConverter
mtllib datan_common_superdefenceac_30b8305e.mtl
o datan_common_superdefenceac_30b8305e
v -0.081253 -0.351906 0.111551
v 0.081211 -0.351906 0.111551
v 0.081211 0.351906 0.111551
v -0.081253 0.351906 0.111551
v 0.107829 -0.351906 0.176849
v 0.107829 0.351906 0.176849
v 0.378035 -0.351906 0.176849
v 0.378035 0.351906 0.176849
v 0.416061 -0.351906 0.062577
v 0.416061 0.351906 0.062577
v 0.464457 -0.351906 0.046253
v 0.464457 0.351906 0.046253
v 0.464457 -0.351906 -0.046266
v 0.464457 0.351906 -0.046266
v 0.416061 -0.351906 -0.062577
v 0.416061 0.351906 -0.062577
v 0.378035 -0.351906 -0.176849
v 0.378035 0.351906 -0.176849
v 0.107829 -0.351906 -0.176849
v 0.107829 0.351906 -0.176849
v 0.081211 -0.351906 -0.111551
v 0.081211 0.351906 -0.111551
v -0.081262 -0.351906 -0.111551
v -0.081262 0.351906 -0.111551
v -0.107829 -0.351906 -0.176849
v -0.107829 0.351906 -0.176849
v -0.378034 -0.351906 -0.176849
v -0.378034 0.351906 -0.176849
v -0.41606 -0.351906 -0.062577
v -0.41606 0.351906 -0.062577
v -0.464457 -0.351906 -0.046266
v -0.464457 0.351906 -0.046266
v -0.464457 -0.351906 0.046253
v -0.464457 0.351906 0.046253
v -0.41606 -0.351906 0.062577
v -0.41606 0.351906 0.062577
v -0.378034 -0.351906 0.176849
v -0.378034 0.351906 0.176849
v -0.107829 -0.351906 0.176849
v -0.107829 0.351906 0.176849
v -0.41606 0.351906 -0.062577
v -0.464457 0.351906 -0.046266
v -0.464457 0.351906 0.046253
v -0.41606 0.351906 0.062577
v 0.464457 0.351906 0.046253
v 0.464457 0.351906 -0.046266
v 0.416061 0.351906 -0.062577
v 0.416061 0.351906 0.062577
v -0.107829 0.351906 -0.176849
v -0.378034 0.351906 -0.176849
v -0.081262 0.351906 -0.111551
v -0.378034 0.351906 0.176849
v -0.107829 0.351906 0.176849
v -0.081253 0.351906 0.111551
v 0.081211 0.351906 -0.111551
v 0.081211 0.351906 0.111551
v 0.378035 0.351906 -0.176849
v 0.107829 0.351906 -0.176849
v 0.378035 0.351906 0.176849
v 0.107829 0.351906 0.176849
v -0.490393 0.034566 0.230219
v 0.490393 0.034566 0.230219
v 0.490393 0.034566 -0.230219
v -0.490393 0.034566 -0.230219
v -0.490393 -0.034566 0.230219
v 0.490393 -0.034566 0.230219
v 0.490393 0.034566 0.230219
v -0.490393 0.034566 0.230219
v 0.490393 -0.034566 0.230219
v 0.490393 -0.034566 -0.230219
v 0.490393 0.034566 -0.230219
v 0.490393 0.034566 0.230219
v 0.490393 -0.034566 -0.230219
v -0.490393 -0.034566 -0.230219
v -0.490393 0.034566 -0.230219
v 0.490393 0.034566 -0.230219
v -0.490393 -0.034566 -0.230219
v -0.490393 -0.034566 0.230219
v -0.490393 0.034566 0.230219
v -0.490393 0.034566 -0.230219
vt 0.41781 0.511883
vt 0.582145 0.511883
vt 0.582145 0.988117
vt 0.41781 0.988117
vt 0.610325 0.511883
vt 0.610325 0.988117
vt 0.896377 0.511883
vt 0.896377 0.988117
vt 0.936633 0.511883
vt 0.936633 0.988117
vt 0.987868 0.511883
vt 0.987868 0.988117
vt 0.987868 0.511883
vt 0.987868 0.988117
vt 0.944289 0.511883
vt 0.944289 0.988117
vt 0.904033 0.511883
vt 0.904033 0.988117
vt 0.617981 0.511883
vt 0.617981 0.988117
vt 0.589802 0.511883
vt 0.589802 0.988117
vt 0.4178 0.511883
vt 0.4178 0.988117
vt 0.389676 0.511883
vt 0.389676 0.988117
vt 0.103623 0.511883
vt 0.103623 0.988117
vt 0.063367 0.511883
vt 0.063367 0.988117
vt 0.012132 0.511883
vt 0.012132 0.988117
vt 0.012132 0.511883
vt 0.012132 0.988117
vt 0.055711 0.511883
vt 0.055711 0.988117
vt 0.095967 0.511883
vt 0.095967 0.988117
vt 0.382019 0.511883
vt 0.382019 0.988117
vt 0.055711 0.162597
vt 0.012132 0.151799
vt 0.012132 0.09821
vt 0.055711 0.079747
vt 0.987868 0.09821
vt 0.987868 0.151799
vt 0.944289 0.162597
vt 0.944289 0.079747
vt 0.382019 0.238242
vt 0.103623 0.238242
vt 0.410144 0.195016
vt 0.103623 0.011758
vt 0.382019 0.011758
vt 0.410154 0.047328
vt 0.582145 0.195016
vt 0.582145 0.047327
vt 0.896377 0.238242
vt 0.617981 0.238242
vt 0.896377 0.011758
vt 0.617981 0.011758
vt 0.511883 0.261758
vt 0.988117 0.261758
vt 0.988118 0.488242
vt 0.511883 0.488242
vt 0.511883 0.261758
vt 0.988117 0.261758
vt 0.988117 0.488242
vt 0.511883 0.488242
vt 0.511883 0.261758
vt 0.988117 0.261758
vt 0.988117 0.488242
vt 0.511883 0.488242
vt 0.511883 0.261758
vt 0.988117 0.261758
vt 0.988117 0.488242
vt 0.511883 0.488242
vt 0.511883 0.261758
vt 0.988117 0.261758
vt 0.988117 0.488242
vt 0.511883 0.488242
vn 0.363076 0 0.93176
vn -0.725873 0 0.687829
vn -0.362936 0 0.931814
vn 0.726151 0 0.687535
vn -0.362936 0 0.931814
vn -0.725873 0 0.687829
vn 0.758288 0 0.65192
vn 0.379144 0 0.925338
vn 0.583402 0 0.812184
vn 0.814558 0 0.580082
vn 0.925741 0 0.378159
vn 0.654205 0 0.756318
vn 0.654066 0 -0.756438
vn 0.925716 0 -0.378219
vn 0.814515 0 -0.580143
vn 0.58326 0 -0.812285
vn 0.379144 0 -0.925338
vn 0.758288 0 -0.65192
vn -0.725873 0 -0.687829
vn -0.362936 0 -0.931814
vn -0.362936 0 -0.931814
vn -0.725873 0 -0.687829
vn 0.726215 0 -0.687467
vn 0.363108 0 -0.931747
vn 0.363108 0 -0.931747
vn 0.726215 0 -0.687467
vn -0.758288 0 -0.65192
vn -0.379144 0 -0.925338
vn -0.58326 0 -0.812285
vn -0.814515 0 -0.580143
vn -0.925716 0 -0.378219
vn -0.654066 0 -0.756438
vn -0.654204 0 0.756318
vn -0.925741 0 0.378159
vn -0.814558 0 0.580082
vn -0.583402 0 0.812184
vn -0.379144 0 0.925338
vn -0.758288 0 0.65192
vn 0.726151 0 0.687535
vn 0.363076 0 0.93176
vn 0 1 0
vn 0 1 0
vn 0 1 0
vn 0 1 0
vn 0 1 0
vn 0 1 0
vn 0 1 0
vn 0 1 0
vn 0 1 0
vn 0 1 0
vn 0 1 0
vn 0 1 0
vn 0 1 0
vn 0 1 0
vn 0 1 0
vn 0 1 0
vn 0 1 0
vn 0 1 0
vn 0 1 0
vn 0 1 0
vn 0 1 0
vn 0 1 0
vn 0 1 0
vn 0 1 0
vn 0 0 1
vn 0 0 1
vn 0 0 1
vn 0 0 1
vn 1 0 0
vn 1 0 0
vn 1 0 0
vn 1 0 0
vn 0 0 -1
vn 0 0 -1
vn 0 0 -1
vn 0 0 -1
vn -1 0 0
vn -1 0 0
vn -1 0 0
vn -1 0 0
usemtl datan_common_superdefenceac_30b8305e
f 1/1/1 2/2/2 3/3/3
f 1/1/1 3/3/3 4/4/4
f 2/2/2 5/5/5 6/6/6
f 2/2/2 6/6/6 3/3/3
f 5/5/5 7/7/7 8/8/8
f 5/5/5 8/8/8 6/6/6
f 7/7/7 9/9/9 10/10/10
f 7/7/7 10/10/10 8/8/8
f 9/9/9 11/11/11 12/12/12
f 9/9/9 12/12/12 10/10/10
f 11/11/11 13/13/13 14/14/14
f 11/11/11 14/14/14 12/12/12
f 13/13/13 15/15/15 16/16/16
f 13/13/13 16/16/16 14/14/14
f 15/15/15 17/17/17 18/18/18
f 15/15/15 18/18/18 16/16/16
f 17/17/17 19/19/19 20/20/20
f 17/17/17 20/20/20 18/18/18
f 19/19/19 21/21/21 22/22/22
f 19/19/19 22/22/22 20/20/20
f 21/21/21 23/23/23 24/24/24
f 21/21/21 24/24/24 22/22/22
f 23/23/23 25/25/25 26/26/26
f 23/23/23 26/26/26 24/24/24
f 25/25/25 27/27/27 28/28/28
f 25/25/25 28/28/28 26/26/26
f 27/27/27 29/29/29 30/30/30
f 27/27/27 30/30/30 28/28/28
f 29/29/29 31/31/31 32/32/32
f 29/29/29 32/32/32 30/30/30
f 31/31/31 33/33/33 34/34/34
f 31/31/31 34/34/34 32/32/32
f 33/33/33 35/35/35 36/36/36
f 33/33/33 36/36/36 34/34/34
f 35/35/35 37/37/37 38/38/38
f 35/35/35 38/38/38 36/36/36
f 37/37/37 39/39/39 40/40/40
f 37/37/37 40/40/40 38/38/38
f 39/39/39 1/1/1 4/4/4
f 39/39/39 4/4/4 40/40/40
f 41/41/41 42/42/42 43/43/43
f 41/41/41 43/43/43 44/44/44
f 45/45/45 46/46/46 47/47/47
f 48/48/48 45/45/45 47/47/47
f 49/49/49 50/50/50 41/41/41
f 49/49/49 41/41/41 44/44/44
f 51/51/51 49/49/49 44/44/44
f 51/51/51 44/44/44 52/52/52
f 51/51/51 52/52/52 53/53/53
f 51/51/51 53/53/53 54/54/54
f 55/55/55 51/51/51 54/54/54
f 55/55/55 54/54/54 56/56/56
f 47/47/47 57/57/57 58/58/58
f 48/48/48 47/47/47 58/58/58
f 48/48/48 58/58/58 55/55/55
f 48/48/48 55/55/55 56/56/56
f 59/59/59 48/48/48 56/56/56
f 60/60/60 59/59/59 56/56/56
f 61/61/61 62/62/62 63/63/63
f 63/63/63 64/64/64 61/61/61
f 65/65/65 66/66/66 67/67/67
f 67/67/67 68/68/68 65/65/65
f 69/69/69 70/70/70 71/71/71
f 71/71/71 72/72/72 69/69/69
f 73/73/73 74/74/74 75/75/75
f 75/75/75 76/76/76 73/73/73
f 77/77/77 78/78/78 79/79/79
f 79/79/79 80/80/80 77/77/77
