# Generated from Nova1492 GX by tools/nova1492/GxObjConverter
mtllib datan_common_4774ef13.mtl
o datan_common_4774ef13
v 0.078994 0 0.304782
v 0.215508 -0 -0.01124
v 0.091006 0.187143 0.09071
v 0.091006 0.187143 0.09071
v -0.110442 0.115661 0.255667
v -0.110442 0.115661 0.255667
v -0.110443 -0.115661 0.255667
v -0.110443 -0.115661 0.255667
v 0.091006 -0.187143 0.09071
v 0.078994 0 0.304782
v 0.091006 -0.187143 0.09071
v 0.215508 -0 -0.01124
v 0.215508 -0 -0.01124
v 0.042869 -0.06131 -0.258929
v 0.04287 0.06131 -0.258929
v 0.091006 0.187143 0.09071
v 0.04287 0.06131 -0.258929
v -0.037181 0.099202 -0.089816
v -0.110442 0.115661 0.255667
v -0.037181 0.099202 -0.089816
v -0.215508 0 0.01124
v -0.110443 -0.115661 0.255667
v -0.215508 0 0.01124
v -0.037181 -0.099202 -0.089816
v 0.091006 -0.187143 0.09071
v -0.037181 -0.099202 -0.089816
v 0.042869 -0.06131 -0.258929
v 0.04287 0.06131 -0.258929
v 0.091006 0.187143 0.09071
v -0.110442 0.115661 0.255667
v -0.110443 -0.115661 0.255667
v 0.042869 -0.06131 -0.258929
v -0.022278 -0 -0.382895
v -0.037181 0.099202 -0.089816
v -0.215508 0 0.01124
v -0.037181 0.099202 -0.089816
v -0.037181 -0.099202 -0.089816
v -0.215508 0 0.01124
v -0.037181 -0.099202 -0.089816
v -0.022278 -0 -0.382895
vt 0.023281 0.023281
vt 0.976719 0.023281
vt 0.976719 0.976719
vt 0.976719 0.023281
vt 0.976719 0.976719
vt 0.976719 0.023281
vt 0.976719 0.976719
vt 0.976719 0.023281
vt 0.976719 0.976719
vt 0.976719 0.976719
vt 0.023281 0.976719
vt 0.023281 0.023281
vt 0.976719 0.976719
vt 0.023281 0.976719
vt 0.023281 0.023281
vt 0.023281 0.023281
vt 0.976719 0.023281
vt 0.976719 0.976719
vt 0.023281 0.023281
vt 0.976719 0.023281
vt 0.976719 0.976719
vt 0.023281 0.023281
vt 0.976719 0.023281
vt 0.976719 0.976719
vt 0.023281 0.023281
vt 0.976719 0.023281
vt 0.976719 0.976719
vt 0.976719 0.976719
vt 0.023281 0.976719
vt 0.023281 0.976719
vt 0.023281 0.976719
vt 0.023281 0.023281
vt 0.976719 0.976719
vt 0.023281 0.976719
vt 0.023281 0.976719
vt 0.023281 0.023281
vt 0.023281 0.976719
vt 0.023281 0.023281
vt 0.023281 0.023281
vt 0.023281 0.023281
vn 0.397236 0.127307 0.908844
vn 0.984444 -0.173592 0.027116
vn 0.853903 0.367135 0.368866
vn 0.271323 0.717036 0.642062
vn 0.271323 0.717036 0.642062
vn -0.250971 0.000001 0.967995
vn -0.250971 0.000001 0.967995
vn 0.271321 -0.717037 0.642062
vn 0.569964 -0.800286 0.186234
vn 0.853903 -0.367135 0.368866
vn 0.315959 -0.932626 0.174295
vn 0.984444 0.173592 0.027117
vn 0.820388 -0.000007 -0.571808
vn 0.409 -0.65241 -0.638029
vn 0.409004 0.652404 -0.638032
vn -0.319695 0.921208 -0.221748
vn 0.489882 0.670869 -0.556732
vn -0.319695 0.921208 -0.221748
vn -0.862932 0.485145 0.141361
vn -0.545881 0.823404 -0.154984
vn -0.862932 0.485145 0.141361
vn -0.487359 -0.861183 -0.144375
vn -0.545882 -0.823403 -0.154985
vn -0.487359 -0.861183 -0.144375
vn -0.206591 -0.929339 -0.306021
vn -0.206591 -0.929339 -0.306021
vn 0.489878 -0.670876 -0.556728
vn 0.695398 0.64033 -0.326189
vn 0.695398 0.64033 -0.326189
vn -0.426418 0.894688 -0.133047
vn -0.918721 0.000004 0.394907
vn 0.695397 -0.640331 -0.326191
vn -0.807185 0 -0.590299
vn -0.24748 0.913854 -0.321908
vn -0.58464 0.758973 -0.286628
vn -0.58464 0.758973 -0.286628
vn -0.58464 -0.758973 -0.286628
vn -0.58464 -0.758973 -0.286628
vn -0.247483 -0.913853 -0.321908
vn 0.885206 -0.000007 -0.4652
usemtl datan_common_4774ef13
f 1/1/1 2/2/2 3/3/3
f 1/1/1 4/4/4 5/5/5
f 1/1/1 6/6/6 7/7/7
f 1/1/1 8/8/8 9/9/9
f 10/10/10 11/11/11 12/12/12
f 13/13/13 14/14/14 15/15/15
f 16/16/16 17/17/17 18/18/18
f 19/19/19 20/20/20 21/21/21
f 22/22/22 23/23/23 24/24/24
f 25/25/25 26/26/26 27/27/27
f 28/28/28 29/29/29 12/12/12
f 18/18/18 30/30/30 16/16/16
f 21/21/21 31/31/31 19/19/19
f 24/24/24 11/11/11 22/22/22
f 32/32/32 2/2/2 9/9/9
f 33/33/33 34/34/34 15/15/15
f 33/33/33 35/35/35 36/36/36
f 33/33/33 37/37/37 38/38/38
f 33/33/33 14/14/14 39/39/39
f 40/40/40 17/17/17 27/27/27
