# Generated from Nova1492 GX by tools/nova1492/GxObjConverter
mtllib datan_common_explosion_0977a459.mtl
o datan_common_explosion_0977a459_mesh00
v 0.026265 -0.006653 0.004685
v -0.025618 0.006821 -0.017436
v -0.022524 0.025437 0.015417
v -0.031996 -0.012645 0.014436
vt 0.594923 0.742344
vt 0.023765 0.742344
vt 0.976234 0.523515
vt 0.976234 0.976484
vn 0.970192 -0.240565 -0.029256
vn -0.468757 0.13906 -0.872313
vn -0.347299 0.845193 0.406242
vn -0.707447 -0.602821 0.368951
usemtl datan_common_explosion_0977a459
f 1/1/1 2/2/2 3/3/3
f 1/1/1 3/3/3 4/4/4
f 1/1/1 4/4/4 2/2/2
f 3/3/3 2/2/2 4/4/4
o datan_common_explosion_0977a459_mesh01
v 0.001961 -0.014556 -0.027011
v -0.016204 0.014556 0.028007
v 0.019214 0.033843 0.015033
v 0.020675 -0.004731 0.035926
vt 0.594923 0.742344
vt 0.023765 0.742344
vt 0.976234 0.523515
vt 0.976234 0.976484
vn -0.136156 -0.475806 -0.868948
vn -0.81474 0.251988 0.522207
vn 0.418389 0.905235 0.074172
vn 0.468066 -0.406489 0.784654
usemtl datan_common_explosion_0977a459
f 5/5/5 6/6/6 7/7/7
f 5/5/5 7/7/7 8/8/8
f 5/5/5 8/8/8 6/6/6
f 7/7/7 6/6/6 8/8/8
o datan_common_explosion_0977a459_mesh02
v -0.014198 -0.011834 0.016829
v 0.024042 0.011834 -0.010678
v -0.005454 0.027515 -0.01907
v 0.003569 -0.003847 -0.03351
vt 0.594923 0.742344
vt 0.023765 0.742344
vt 0.976234 0.523515
vt 0.976234 0.976484
vn -0.400597 -0.475793 0.783035
vn 0.966089 0.25197 0.056415
vn -0.294886 0.905231 -0.305941
vn 0.082528 -0.406501 -0.909915
usemtl datan_common_explosion_0977a459
f 9/9/9 10/10/10 11/11/11
f 9/9/9 11/11/11 12/12/12
f 9/9/9 12/12/12 10/10/10
f 11/11/11 10/10/10 12/12/12
o datan_common_explosion_0977a459_mesh03
v -0.148048 0.657583 0.527385
v 0.3169 0.748936 -0.223749
v -0.56138 0.586303 -0.267512
v -0.148048 0.657583 0.527385
v -0.56138 0.586303 -0.267512
v -0.755347 0.019834 0.384358
v -0.148048 0.657583 0.527385
v 0.003048 -0.16764 0.831001
v -0.148048 0.657583 0.527385
v 0.665735 0.282974 0.45517
v -0.148048 0.657583 0.527385
v 0.755343 -0.019834 -0.384359
v -0.003051 0.16764 -0.831001
v -0.003051 0.16764 -0.831001
v -0.665739 -0.282974 -0.45517
v -0.316901 -0.748932 0.223748
v 0.561377 -0.586303 0.267511
v 0.148041 -0.657587 -0.527385
v 0.148041 -0.657587 -0.527385
v 0.148041 -0.657587 -0.527385
v 0.148041 -0.657587 -0.527385
v 0.148041 -0.657587 -0.527385
vt 0.839063 0.476719
vt 0.749844 0.326836
vt 0.928281 0.326836
vt 0.064063 0.476719
vt 0.023281 0.326836
vt 0.153281 0.326836
vt 0.265469 0.476719
vt 0.347031 0.326836
vt 0.443906 0.476719
vt 0.540781 0.326836
vt 0.637656 0.476719
vt 0.652969 0.173164
vt 0.831406 0.173164
vt 0.007969 0.173164
vt 0.056406 0.173164
vt 0.250156 0.173164
vt 0.443906 0.173164
vt 0.023281 0.023281
vt 0.168594 0.023281
vt 0.347031 0.023281
vt 0.540781 0.023281
vt 0.734531 0.023281
vn -0.182394 0.983203 0.006676
vn 0.380319 0.882971 -0.275172
vn -0.153849 0.924612 -0.348458
vn -0.720947 0.614815 0.319748
vn -0.890393 0.389646 -0.235324
vn -0.888135 0.010067 0.459473
vn -0.449535 0.234785 0.861855
vn -0.007379 -0.207648 0.978176
vn 0.251557 0.374422 0.892484
vn 0.781365 0.33531 0.526343
vn 0.416351 0.835199 0.359296
vn 0.888135 -0.010069 -0.459473
vn 0.339081 0.372608 -0.863821
vn -0.453723 -0.073461 -0.88811
vn -0.781366 -0.335311 -0.52634
vn -0.38032 -0.88297 0.275174
vn 0.651165 -0.689417 0.317314
vn -0.251558 -0.374419 -0.892485
vn -0.416357 -0.8352 -0.359288
vn 0.18239 -0.983204 -0.00667
vn 0.720947 -0.614815 -0.319748
vn 0.449535 -0.234786 -0.861855
usemtl datan_common_explosion_0977a459
f 13/13/13 14/14/14 15/15/15
f 16/16/16 17/17/17 18/18/18
f 19/19/19 18/18/18 20/20/20
f 21/21/21 20/20/20 22/22/22
f 23/23/23 22/22/22 14/14/14
f 14/14/14 24/24/24 25/25/25
f 17/17/17 26/26/26 27/27/27
f 18/18/18 27/27/27 28/28/28
f 20/20/20 28/28/28 29/29/29
f 22/22/22 29/29/29 24/24/24
f 25/25/25 15/15/15 14/14/14
f 27/27/27 18/18/18 17/17/17
f 28/28/28 20/20/20 18/18/18
f 29/29/29 22/22/22 20/20/20
f 24/24/24 14/14/14 22/22/22
f 30/30/30 27/27/27 26/26/26
f 31/31/31 28/28/28 27/27/27
f 32/32/32 29/29/29 28/28/28
f 33/33/33 24/24/24 29/29/29
f 34/34/34 25/25/25 24/24/24
o datan_common_explosion_0977a459_mesh04
v -0.003083 0.007263 0
v 0.003131 0.005162 0.004899
v 0.004383 0.005694 -0.003232
v -0.002327 0.002845 -0.006897
v -0.007727 0.000553 -0.001031
v -0.004353 0.001985 0.00626
v 0.002327 -0.002845 0.006897
v 0.007727 -0.000553 0.001031
v 0.004354 -0.001985 -0.00626
v -0.003131 -0.005162 -0.004899
v -0.004383 -0.005694 0.003232
v 0.003083 -0.007263 0
vt 0.507656 0.257656
vt 0.965342 0.257656
vt 0.65382 0.460012
vt 0.124993 0.37687
vt 0.124993 0.12313
vt 0.638508 0.039988
vt 0.890319 0.12313
vt 0.890319 0.37687
vt 0.361492 0.460012
vt 0.034658 0.242344
vt 0.346179 0.039988
vt 0.507656 0.242344
vn -0.390739 0.920502 0.000015
vn 0.410399 0.655539 0.633909
vn 0.560435 0.723311 -0.403402
vn -0.307146 0.352464 -0.883986
vn -0.987379 0.063712 -0.144999
vn -0.545932 0.253652 0.798511
vn 0.307144 -0.352455 0.88399
vn 0.987372 -0.063698 0.145046
vn 0.545962 -0.253646 -0.798492
vn -0.410401 -0.655543 -0.633904
vn -0.56044 -0.72329 0.403432
vn 0.390735 -0.920503 0.000017
usemtl datan_common_explosion_0977a459
f 35/35/35 36/36/36 37/37/37
f 35/35/35 37/37/37 38/38/38
f 35/35/35 38/38/38 39/39/39
f 35/35/35 39/39/39 40/40/40
f 35/35/35 40/40/40 36/36/36
f 36/36/36 41/41/41 42/42/42
f 37/37/37 42/42/42 43/43/43
f 38/38/38 43/43/43 44/44/44
f 39/39/39 44/44/44 45/45/45
f 40/40/40 45/45/45 41/41/41
f 42/42/42 37/37/37 36/36/36
f 43/43/43 38/38/38 37/37/37
f 44/44/44 39/39/39 38/38/38
f 45/45/45 40/40/40 39/39/39
f 41/41/41 36/36/36 40/40/40
f 46/46/46 43/43/43 42/42/42
f 46/46/46 44/44/44 43/43/43
f 46/46/46 45/45/45 44/44/44
f 46/46/46 41/41/41 45/45/45
f 46/46/46 42/42/42 41/41/41
