# Generated from Nova1492 GX by tools/nova1492/GxObjConverter
mtllib datan_common_eff_g2a1_82a57341.mtl
o datan_common_eff_g2a1_82a57341
v -0 0 -0.139613
v -0.000163 0.052168 -0.139613
v 0.045098 0.026225 -0.139613
v -0.045261 0.025943 -0.139613
v -0.045098 -0.026225 -0.139613
v 0.000163 -0.052168 -0.139613
v 0.045261 -0.025943 -0.139613
v -0.000348 0.111402 0.124404
v 0.096303 0.056002 0.124404
v -0.096651 0.0554 0.124404
v -0.096303 -0.056002 0.124404
v 0.000348 -0.111402 0.124404
v 0.096651 -0.0554 0.124404
v 0 -0 0.335409
vt 0.016109 0.515313
vt 0.016109 0.703979
vt 0.016109 0.595195
vt 0.023765 0.593471
vt 0.023765 0.404805
vt 0.023765 0.296022
vt 0.023765 0.406529
vt 0.546346 0.952969
vt 0.546346 0.751294
vt 0.546346 0.747613
vt 0.546346 0.279332
vt 0.546346 0.047031
vt 0.546346 0.252387
vt 0.976235 0.515313
vn 0 0 -1
vn -0.136452 0.69729 -0.703681
vn 0.535645 0.466816 -0.703681
vn -0.672097 0.230474 -0.703681
vn -0.535645 -0.466816 -0.703681
vn 0.136452 -0.69729 -0.703681
vn 0.672097 -0.230474 -0.703681
vn 0.114813 0.99143 0.062327
vn 0.91601 0.396284 0.062327
vn -0.801197 0.595146 0.062327
vn -0.91601 -0.396284 0.062327
vn -0.114813 -0.99143 0.062327
vn 0.801197 -0.595146 0.062327
vn 0 -0 1
usemtl datan_common_eff_g2a1_82a57341
f 1/1/1 2/2/2 3/3/3
f 1/1/1 4/4/4 2/2/2
f 1/1/1 5/5/5 4/4/4
f 1/1/1 6/6/6 5/5/5
f 1/1/1 7/7/7 6/6/6
f 1/1/1 3/3/3 7/7/7
f 3/3/3 8/8/8 9/9/9
f 3/3/3 2/2/2 8/8/8
f 2/2/2 10/10/10 8/8/8
f 2/2/2 4/4/4 10/10/10
f 4/4/4 11/11/11 10/10/10
f 4/4/4 5/5/5 11/11/11
f 5/5/5 12/12/12 11/11/11
f 5/5/5 6/6/6 12/12/12
f 6/6/6 13/13/13 12/12/12
f 6/6/6 7/7/7 13/13/13
f 7/7/7 9/9/9 13/13/13
f 7/7/7 3/3/3 9/9/9
f 9/9/9 8/8/8 14/14/14
