# Generated from Nova1492 GX by tools/nova1492/GxObjConverter
mtllib datan_common_AngelDown_ff7681dd.mtl
o datan_common_AngelDown_ff7681dd
v 0.000086 0.000002 0
v 0.331675 0.464624 -0.331675
v 0.469059 0.464624 -0
v 0.000061 0.000002 -0.000061
v -0 0.464624 -0.469059
v -0 0.000002 -0.000086
v -0.331675 0.464624 -0.331675
v -0 0.464624 -0.469059
v -0.000061 0.000002 -0.000061
v -0.469059 0.464624 -0
v -0.000086 0.000002 0
v -0.331675 0.464624 0.331675
v -0.000061 0.000002 0.000061
v 0 0.464624 0.469059
v 0 0.000002 0.000086
v 0.331675 0.464624 0.331675
v 0.000061 0.000002 0.000061
v 0.673221 2.281588 -0.673221
v 0.952079 2.281588 -0
v -0 2.281588 -0.952079
v -0.673221 2.281588 -0.673221
v -0 2.281588 -0.952079
v -0.952079 2.281588 -0
v -0.673221 2.281588 0.673221
v 0 2.281588 0.952079
v 0.673222 2.281588 0.673221
v 0.992116 8.563517 -0.992116
v 1.403063 8.563517 -0
v -0 8.563517 -1.403064
v -0.992116 8.563517 -0.992116
v -0 8.563517 -1.403064
v -1.403064 8.563517 0
v -0.992116 8.563517 0.992116
v 0 8.563517 1.403063
v 0.992116 8.563517 0.992116
v 1.087511 13.76926 -1.087511
v 1.537973 13.76926 0
v -0 13.76926 -1.537973
v -1.087512 13.76926 -1.087511
v -0 13.76926 -1.537973
v -1.537973 13.76926 0
v -1.087511 13.76926 1.087511
v 0 13.76926 1.537973
v 1.087512 13.76926 1.087511
v 1.028193 17.21158 -1.028193
v 1.454084 17.21158 0
v -0 17.21158 -1.454084
v -1.028193 17.21158 -1.028193
v -0 17.21158 -1.454084
v -1.454084 17.21158 0
v -1.028192 17.21158 1.028193
v 0 17.21158 1.454084
v 1.028193 17.21158 1.028192
v 0.934721 20.6539 -0.934721
v 1.321895 20.6539 0
v -0 20.6539 -1.321895
v -0.934721 20.6539 -0.934721
v -0 20.6539 -1.321895
v -1.321895 20.6539 0
v -0.934721 20.6539 0.934721
v 0 20.6539 1.321895
v 0.934721 20.6539 0.934721
vt 0.501914 0.693393
vt 0.682656 0.696228
vt 0.621133 0.696228
vt 0.501914 0.693393
vt 0.74418 0.700056
vt 0.501914 0.693393
vt 0.317344 0.700056
vt 0.25582 0.700056
vt 0.498086 0.693393
vt 0.378867 0.700056
vt 0.498086 0.693393
vt 0.440391 0.700056
vt 0.498086 0.693393
vt 0.498086 0.700056
vt 0.498086 0.693393
vt 0.559609 0.700056
vt 0.501914 0.693393
vt 0.682656 0.726114
vt 0.621133 0.726114
vt 0.74418 0.726114
vt 0.317344 0.726114
vt 0.25582 0.726114
vt 0.378867 0.726114
vt 0.440391 0.726114
vt 0.498086 0.726114
vt 0.559609 0.726114
vt 0.682656 0.816204
vt 0.621133 0.816204
vt 0.74418 0.816204
vt 0.317344 0.816204
vt 0.25582 0.816204
vt 0.378867 0.816204
vt 0.440391 0.816204
vt 0.498086 0.816204
vt 0.559609 0.816204
vt 0.682656 0.890861
vt 0.621133 0.890861
vt 0.74418 0.890861
vt 0.317344 0.890861
vt 0.25582 0.890861
vt 0.378867 0.890861
vt 0.440391 0.890861
vt 0.498086 0.890861
vt 0.559609 0.890861
vt 0.682656 0.940228
vt 0.621133 0.940228
vt 0.74418 0.940228
vt 0.317344 0.940228
vt 0.25582 0.940228
vt 0.378867 0.940228
vt 0.440391 0.940228
vt 0.498086 0.940228
vt 0.559609 0.940228
vt 0.682656 0.985767
vt 0.621133 0.985767
vt 0.74418 0.985767
vt 0.317344 0.985767
vt 0.25582 0.985767
vt 0.378867 0.985767
vt 0.440391 0.985767
vt 0.498086 0.985767
vt 0.559609 0.985767
vn 0.675523 -0.681849 0.280626
vn 0.371639 -0.238515 -0.897215
vn 0.897215 -0.238515 0.371639
vn 0.279701 -0.682041 -0.675713
vn 0.371639 -0.238515 -0.897215
vn -0.279727 -0.681969 -0.675775
vn -0.897215 -0.238515 -0.371639
vn -0.371639 -0.238515 -0.897215
vn -0.675488 -0.681813 -0.280798
vn -0.897215 -0.238515 0.371639
vn -0.675255 -0.68216 0.280514
vn -0.371639 -0.238515 0.897215
vn -0.279701 -0.68204 0.675713
vn 0.371639 -0.238515 0.897215
vn 0.279727 -0.681969 0.675775
vn 0.897215 -0.238515 0.371639
vn 0.675523 -0.681849 0.280626
vn 0.381845 -0.066181 -0.921854
vn 0.921854 -0.066181 0.381844
vn 0.381845 -0.066181 -0.921854
vn -0.921854 -0.066181 -0.381844
vn -0.381845 -0.066181 -0.921854
vn -0.921854 -0.066181 0.381845
vn -0.381845 -0.066181 0.921854
vn 0.381845 -0.066181 0.921854
vn 0.921854 -0.066181 0.381844
vn 0.382574 -0.023936 -0.923615
vn 0.923615 -0.023936 0.382574
vn 0.382574 -0.023936 -0.923615
vn -0.923615 -0.023936 -0.382574
vn -0.382574 -0.023936 -0.923615
vn -0.923615 -0.023936 0.382574
vn -0.382574 -0.023936 0.923615
vn 0.382574 -0.023936 0.923615
vn 0.923615 -0.023936 0.382574
vn 0.382587 0.022509 -0.923646
vn 0.923646 0.022509 0.382586
vn 0.382587 0.022509 -0.923646
vn -0.923646 0.022509 -0.382586
vn -0.382587 0.022509 -0.923646
vn -0.923645 0.022509 0.382587
vn -0.382586 0.022509 0.923646
vn 0.382587 0.022509 0.923645
vn 0.923646 0.022509 0.382586
vn 0.382443 0.035456 -0.923299
vn 0.923299 0.035456 0.382443
vn 0.382443 0.035456 -0.923299
vn -0.923299 0.035456 -0.382443
vn -0.382443 0.035456 -0.923299
vn -0.923299 0.035456 0.382443
vn -0.382443 0.035456 0.923299
vn 0.382443 0.035456 0.923299
vn 0.923299 0.035456 0.382443
vn 0.382443 0.035456 -0.923299
vn 0.923299 0.035456 0.382443
vn 0.382443 0.035456 -0.923299
vn -0.923299 0.035456 -0.382443
vn -0.382443 0.035456 -0.923299
vn -0.923299 0.035456 0.382443
vn -0.382443 0.035456 0.923299
vn 0.382443 0.035456 0.923299
vn 0.923299 0.035456 0.382443
usemtl datan_common_AngelDown_ff7681dd
f 1/1/1 2/2/2 3/3/3
f 1/1/1 4/4/4 2/2/2
f 4/4/4 5/5/5 2/2/2
f 4/4/4 6/6/6 5/5/5
f 6/6/6 7/7/7 8/8/8
f 6/6/6 9/9/9 7/7/7
f 9/9/9 10/10/10 7/7/7
f 9/9/9 11/11/11 10/10/10
f 11/11/11 12/12/12 10/10/10
f 11/11/11 13/13/13 12/12/12
f 13/13/13 14/14/14 12/12/12
f 13/13/13 15/15/15 14/14/14
f 15/15/15 16/16/16 14/14/14
f 15/15/15 17/17/17 16/16/16
f 17/17/17 3/3/3 16/16/16
f 17/17/17 1/1/1 3/3/3
f 3/3/3 18/18/18 19/19/19
f 3/3/3 2/2/2 18/18/18
f 2/2/2 20/20/20 18/18/18
f 2/2/2 5/5/5 20/20/20
f 8/8/8 21/21/21 22/22/22
f 8/8/8 7/7/7 21/21/21
f 7/7/7 23/23/23 21/21/21
f 7/7/7 10/10/10 23/23/23
f 10/10/10 24/24/24 23/23/23
f 10/10/10 12/12/12 24/24/24
f 12/12/12 25/25/25 24/24/24
f 12/12/12 14/14/14 25/25/25
f 14/14/14 26/26/26 25/25/25
f 14/14/14 16/16/16 26/26/26
f 16/16/16 19/19/19 26/26/26
f 16/16/16 3/3/3 19/19/19
f 19/19/19 27/27/27 28/28/28
f 19/19/19 18/18/18 27/27/27
f 18/18/18 29/29/29 27/27/27
f 18/18/18 20/20/20 29/29/29
f 22/22/22 30/30/30 31/31/31
f 22/22/22 21/21/21 30/30/30
f 21/21/21 32/32/32 30/30/30
f 21/21/21 23/23/23 32/32/32
f 23/23/23 33/33/33 32/32/32
f 23/23/23 24/24/24 33/33/33
f 24/24/24 34/34/34 33/33/33
f 24/24/24 25/25/25 34/34/34
f 25/25/25 35/35/35 34/34/34
f 25/25/25 26/26/26 35/35/35
f 26/26/26 28/28/28 35/35/35
f 26/26/26 19/19/19 28/28/28
f 28/28/28 36/36/36 37/37/37
f 28/28/28 27/27/27 36/36/36
f 27/27/27 38/38/38 36/36/36
f 27/27/27 29/29/29 38/38/38
f 31/31/31 39/39/39 40/40/40
f 31/31/31 30/30/30 39/39/39
f 30/30/30 41/41/41 39/39/39
f 30/30/30 32/32/32 41/41/41
f 32/32/32 42/42/42 41/41/41
f 32/32/32 33/33/33 42/42/42
f 33/33/33 43/43/43 42/42/42
f 33/33/33 34/34/34 43/43/43
f 34/34/34 44/44/44 43/43/43
f 34/34/34 35/35/35 44/44/44
f 35/35/35 37/37/37 44/44/44
f 35/35/35 28/28/28 37/37/37
f 37/37/37 45/45/45 46/46/46
f 37/37/37 36/36/36 45/45/45
f 36/36/36 47/47/47 45/45/45
f 36/36/36 38/38/38 47/47/47
f 40/40/40 48/48/48 49/49/49
f 40/40/40 39/39/39 48/48/48
f 39/39/39 50/50/50 48/48/48
f 39/39/39 41/41/41 50/50/50
f 41/41/41 51/51/51 50/50/50
f 41/41/41 42/42/42 51/51/51
f 42/42/42 52/52/52 51/51/51
f 42/42/42 43/43/43 52/52/52
f 43/43/43 53/53/53 52/52/52
f 43/43/43 44/44/44 53/53/53
f 44/44/44 46/46/46 53/53/53
f 44/44/44 37/37/37 46/46/46
f 46/46/46 54/54/54 55/55/55
f 46/46/46 45/45/45 54/54/54
f 45/45/45 56/56/56 54/54/54
f 45/45/45 47/47/47 56/56/56
f 49/49/49 57/57/57 58/58/58
f 49/49/49 48/48/48 57/57/57
f 48/48/48 59/59/59 57/57/57
f 48/48/48 50/50/50 59/59/59
f 50/50/50 60/60/60 59/59/59
f 50/50/50 51/51/51 60/60/60
f 51/51/51 61/61/61 60/60/60
f 51/51/51 52/52/52 61/61/61
f 52/52/52 62/62/62 61/61/61
