# Generated from Nova1492 GX by tools/nova1492/GxObjConverter
mtllib datan_common_75e9da13.mtl
o datan_common_75e9da13_mesh00
v -0 1.346599 0
v -0.081974 1.726157 -1.22535
v -1.075551 1.781128 -0.400282
v -1.059847 1.922734 0.461598
v -0.4277 2.077048 0.908495
v 0.46014 2.077048 0.799482
v 0.944059 2.077048 -0.007653
v 0.806223 1.857023 -0.821466
v -4.55355 2.316149 -0
v -2.444475 2.96899 0.116908
v -3.644745 3.06354 -1.752254
v -5.119421 3.307103 -1.906106
v -6.014861 3.572523 -0.920596
v -6.014861 3.572523 0.617957
v -4.738374 3.572523 1.613282
v -3.320157 3.194081 1.548558
v -1.289724 1.062933 2.17708
v -0.688436 1.357005 2.209993
v -1.030627 1.399596 1.683765
v -1.451051 1.509308 1.64045
v -1.706336 1.628867 1.917903
v -1.706336 1.628867 2.351054
v -1.342416 1.628867 2.63127
v -0.938089 1.458398 2.613048
vt 0.417005 0.484442
vt 0.999501 0.484442
vt 0.718667 0.897541
vt 0.333787 0.999501
vt 0.0005 0.636647
vt 0.0005 0.299071
vt 0.364326 0.0005
vt 0.749206 0.054247
vt 0.417005 0.484442
vt 0.999501 0.484442
vt 0.718667 0.897541
vt 0.333787 0.999501
vt 0.0005 0.636647
vt 0.0005 0.299071
vt 0.364326 0.0005
vt 0.749206 0.054247
vt 0.417005 0.484442
vt 0.999501 0.484442
vt 0.718667 0.897541
vt 0.333787 0.999501
vt 0.0005 0.636647
vt 0.0005 0.299071
vt 0.364326 0.0005
vt 0.749206 0.054247
vn -0.107999 0.972231 -0.207613
vn 0.000969 0.955241 0.295826
vn 0.355299 0.932946 0.058085
vn 0.316493 0.875249 -0.365747
vn 0.059126 0.791383 -0.608454
vn -0.342534 0.783399 -0.518611
vn -0.59684 0.768978 -0.22903
vn -0.457676 0.883502 0.099789
vn 0.219227 0.972231 -0.081893
vn -0.293739 0.955241 -0.03509
vn -0.100952 0.932946 0.345572
vn 0.324451 0.875249 0.358707
vn 0.596713 0.791383 0.132837
vn 0.55649 0.783399 -0.276778
vn 0.30006 0.768978 -0.56448
vn -0.043268 0.883502 -0.466425
vn 0.301456 0.947579 -0.105917
vn -0.436565 0.898267 -0.050271
vn -0.150695 0.851616 0.502038
vn 0.42923 0.753612 0.497825
vn 0.753622 0.634086 0.173172
vn 0.700247 0.622776 -0.349005
vn 0.369076 0.602377 -0.707761
vn -0.078516 0.769085 -0.634305
usemtl datan_common_75e9da13
f 1/1/1 2/2/2 3/3/3
f 1/1/1 3/3/3 4/4/4
f 1/1/1 4/4/4 5/5/5
f 1/1/1 5/5/5 6/6/6
f 1/1/1 6/6/6 7/7/7
f 1/1/1 7/7/7 8/8/8
f 1/1/1 8/8/8 2/2/2
f 9/9/9 10/10/10 11/11/11
f 9/9/9 11/11/11 12/12/12
f 9/9/9 12/12/12 13/13/13
f 9/9/9 13/13/13 14/14/14
f 9/9/9 14/14/14 15/15/15
f 9/9/9 15/15/15 16/16/16
f 9/9/9 16/16/16 10/10/10
f 17/17/17 18/18/18 19/19/19
f 17/17/17 19/19/19 20/20/20
f 17/17/17 20/20/20 21/21/21
f 17/17/17 21/21/21 22/22/22
f 17/17/17 22/22/22 23/23/23
f 17/17/17 23/23/23 24/24/24
f 17/17/17 24/24/24 18/18/18
o datan_common_75e9da13_mesh01
v -0.231336 0.054317 -1.84197
v -1.075551 1.781128 -0.400282
v -0.081974 1.726157 -1.22535
v -1.486413 0.054317 -0.746312
v -1.059847 1.922734 0.461598
v -1.561805 0.054317 0.543483
v -0.4277 2.077048 0.908495
v -0.394247 0.054317 1.645469
v 0.46014 2.077048 0.799482
v 0.964455 0.054317 1.23517
v 0.944059 2.077048 -0.007653
v 1.413554 0.054317 0.260782
v 0.806223 1.857023 -0.821466
v 1.391981 0.054317 -1.541374
v -0 1.346599 0
v -1.360484 0.093425 -0.008827
v -3.644745 3.06354 -1.752254
v -2.444475 2.96899 0.116908
v -2.967887 0.093425 -2.381135
v -5.119421 3.307103 -1.906106
v -5.153994 0.093425 -2.780203
v -6.014861 3.572523 -0.920596
v -7.280021 0.093425 -1.017966
v -6.014861 3.572523 0.617957
v -6.86437 0.093425 1.387587
v -4.738374 3.572523 1.613282
v -5.295053 0.093425 2.358526
v -3.320157 3.194081 1.548558
v -2.213929 0.093425 2.699457
v -4.55355 2.316149 -0
v -0.379396 0.061706 2.174595
v -1.030627 1.399596 1.683765
v -0.688436 1.357005 2.209993
v -0.837659 0.061706 1.506715
v -1.451051 1.509308 1.64045
v -1.460907 0.061706 1.394365
v -1.706336 1.628867 1.917903
v -2.067027 0.061706 1.89049
v -1.706336 1.628867 2.351054
v -1.948527 0.061706 2.567729
v -1.342416 1.628867 2.63127
v -1.501123 0.061706 2.841079
v -0.938089 1.458398 2.613048
v -0.622709 0.061706 2.937062
v -1.289724 1.062933 2.17708
vt 0.999501 0.494249
vt 0.614001 0.812094
vt 0.816563 0.471326
vt 0.72823 0.926746
vt 0.36513 0.840143
vt 0.359295 0.999501
vt 0.214012 0.660474
vt 0.0005 0.678226
vt 0.214012 0.379979
vt 0.070646 0.239668
vt 0.429436 0.198521
vt 0.335489 0.062655
vt 0.66878 0.210321
vt 0.85547 0.000499
vt 0.460628 0.49264
vt 0.999501 0.494249
vt 0.614001 0.812094
vt 0.816563 0.471326
vt 0.72823 0.926746
vt 0.36513 0.840143
vt 0.359295 0.999501
vt 0.214012 0.660474
vt 0.0005 0.678226
vt 0.214012 0.379979
vt 0.070646 0.239668
vt 0.429436 0.198521
vt 0.335489 0.062655
vt 0.66878 0.210321
vt 0.85547 0.000499
vt 0.460628 0.49264
vt 0.999501 0.494249
vt 0.614001 0.812094
vt 0.816563 0.471326
vt 0.72823 0.926746
vt 0.36513 0.840143
vt 0.359295 0.999501
vt 0.214012 0.660474
vt 0.0005 0.678226
vt 0.214012 0.379979
vt 0.070646 0.239668
vt 0.429436 0.198521
vt 0.335489 0.062655
vt 0.66878 0.210321
vt 0.85547 0.000499
vt 0.460628 0.49264
vn -0.631543 0.309936 -0.7107
vn -0.789328 0.307223 -0.531577
vn -0.379296 0.396504 -0.836014
vn -0.916493 0.280826 -0.284917
vn -0.932553 0.252732 0.25782
vn -0.814331 0.254857 0.521452
vn -0.412053 0.280687 0.866849
vn -0.10037 0.31541 0.943633
vn 0.43282 0.328904 0.839338
vn 0.702383 0.297146 0.64681
vn 0.933396 0.267569 0.239121
vn 0.962502 0.264158 0.061733
vn 0.841983 0.357951 -0.403653
vn 0.56854 0.426344 -0.703557
vn -0.994756 0.057731 0.08443
vn 0.782368 0.309936 -0.540223
vn 0.62381 0.307223 -0.718662
vn 0.876007 0.396504 -0.274584
vn 0.394486 0.280826 -0.874939
vn -0.142249 0.252732 -0.957023
vn -0.418323 0.254857 -0.87181
vn -0.810171 0.280687 -0.514623
vn -0.924367 0.31541 -0.214622
vn -0.885829 0.328904 0.327304
vn -0.727587 0.297146 0.618321
vn -0.35109 0.267569 0.897297
vn -0.178572 0.264158 0.947804
vn 0.298032 0.357951 0.8849
vn 0.629025 0.426345 0.650045
vn 0.037429 0.057731 -0.99763
vn 0.808795 0.202449 -0.552146
vn 0.64092 0.198979 -0.741369
vn 0.925229 0.265168 -0.271362
vn 0.402775 0.18047 -0.897331
vn -0.143038 0.161179 -0.976505
vn -0.42237 0.162935 -0.891659
vn -0.829745 0.1821 -0.527601
vn -0.953408 0.205885 -0.220512
vn -0.915279 0.215068 0.340602
vn -0.744535 0.192334 0.639278
vn -0.357834 0.17154 0.917894
vn -0.181261 0.169045 0.968797
vn 0.317668 0.235869 0.918397
vn 0.667622 0.284315 0.688074
vn 0.037 0.036119 -0.998662
usemtl datan_common_75e9da13
f 25/25/25 26/26/26 27/27/27
f 25/25/25 28/28/28 26/26/26
f 28/28/28 29/29/29 26/26/26
f 28/28/28 30/30/30 29/29/29
f 30/30/30 31/31/31 29/29/29
f 30/30/30 32/32/32 31/31/31
f 32/32/32 33/33/33 31/31/31
f 32/32/32 34/34/34 33/33/33
f 34/34/34 35/35/35 33/33/33
f 34/34/34 36/36/36 35/35/35
f 36/36/36 37/37/37 35/35/35
f 36/36/36 38/38/38 37/37/37
f 38/38/38 27/27/27 37/37/37
f 38/38/38 25/25/25 27/27/27
f 25/25/25 39/39/39 27/27/27
f 40/40/40 41/41/41 42/42/42
f 40/40/40 43/43/43 41/41/41
f 43/43/43 44/44/44 41/41/41
f 43/43/43 45/45/45 44/44/44
f 45/45/45 46/46/46 44/44/44
f 45/45/45 47/47/47 46/46/46
f 47/47/47 48/48/48 46/46/46
f 47/47/47 49/49/49 48/48/48
f 49/49/49 50/50/50 48/48/48
f 49/49/49 51/51/51 50/50/50
f 51/51/51 52/52/52 50/50/50
f 51/51/51 53/53/53 52/52/52
f 53/53/53 42/42/42 52/52/52
f 53/53/53 40/40/40 42/42/42
f 40/40/40 54/54/54 42/42/42
f 55/55/55 56/56/56 57/57/57
f 55/55/55 58/58/58 56/56/56
f 58/58/58 59/59/59 56/56/56
f 58/58/58 60/60/60 59/59/59
f 60/60/60 61/61/61 59/59/59
f 60/60/60 62/62/62 61/61/61
f 62/62/62 63/63/63 61/61/61
f 62/62/62 64/64/64 63/63/63
f 64/64/64 65/65/65 63/63/63
f 64/64/64 66/66/66 65/65/65
f 66/66/66 67/67/67 65/65/65
f 66/66/66 68/68/68 67/67/67
f 68/68/68 57/57/57 67/67/67
f 68/68/68 55/55/55 57/57/57
f 55/55/55 69/69/69 57/57/57
o datan_common_75e9da13_mesh02
v -0.461119 0 -2.108369
v -1.486413 0.054317 -0.746312
v -0.231336 0.054317 -1.84197
v -1.757659 0 -0.97068
v -1.561805 0.054317 0.543483
v -1.853857 0 0.510817
v -0.394247 0.054317 1.645469
v -0.5198 0 1.998269
v 0.964455 0.054317 1.23517
v 1.200848 0 1.495773
v 1.413554 0.054317 0.260782
v 2.342517 0 0.286614
v 1.391981 0.054317 -1.541374
v 1.809886 0 -1.884981
v -0.857529 0 -0.345266
v -2.967887 0.093425 -2.381135
v -1.360484 0.093425 -0.008827
v -2.527993 0 -2.79717
v -5.153994 0.093425 -2.780203
v -5.03701 0 -3.271942
v -7.280021 0.093425 -1.017966
v -7.855996 0 -1.30626
v -6.86437 0.093425 1.387587
v -7.358818 0 1.736527
v -5.295053 0.093425 2.358526
v -5.533879 0 3.939019
v -2.213929 0.093425 2.699457
v -1.714928 0 3.484921
v -0.236006 0.019622 2.079876
v -0.837659 0.061706 1.506715
v -0.379396 0.061706 2.174595
v -0.712247 0.019622 1.389588
v -1.460907 0.061706 1.394365
v -1.427556 0.019622 1.255925
v -2.067027 0.061706 1.89049
v -2.231235 0.019622 1.809326
v -1.948527 0.061706 2.567729
v -2.089492 0.019622 2.665967
v -1.501123 0.061706 2.841079
v -1.569211 0.019622 3.286038
v -0.622709 0.061706 2.937062
v -0.480446 0.019622 3.158195
vt 0.936321 0.582146
vt 0.67318 0.828519
vt 0.873607 0.541432
vt 0.72803 0.878866
vt 0.400593 0.876813
vt 0.41518 0.936321
vt 0.135498 0.663554
vt 0.063679 0.698442
vt 0.187325 0.372443
vt 0.125672 0.330216
vt 0.383004 0.254944
vt 0.353225 0.063679
vt 0.767191 0.213686
vt 0.829412 0.118632
vt 0.936321 0.582146
vt 0.67318 0.828519
vt 0.873607 0.541432
vt 0.72803 0.878866
vt 0.400593 0.876813
vt 0.41518 0.936321
vt 0.135498 0.663554
vt 0.063679 0.698442
vt 0.187325 0.372443
vt 0.125672 0.330216
vt 0.383004 0.254944
vt 0.353225 0.063679
vt 0.767191 0.213686
vt 0.829412 0.118632
vt 0.936321 0.582146
vt 0.67318 0.828519
vt 0.873607 0.541432
vt 0.72803 0.878866
vt 0.400593 0.876813
vt 0.41518 0.936321
vt 0.135498 0.663554
vt 0.063679 0.698442
vt 0.187325 0.372443
vt 0.125672 0.330216
vt 0.383004 0.254944
vt 0.353225 0.063679
vt 0.767191 0.213686
vt 0.829412 0.118632
vn -0.06044 0.986852 -0.149902
vn -0.130201 0.988188 -0.080826
vn -0.018476 0.987921 -0.153852
vn -0.157317 0.986459 -0.046365
vn -0.191384 0.979426 0.064008
vn -0.168997 0.980108 0.104058
vn -0.091157 0.982046 0.165154
vn -0.007548 0.989033 0.147505
vn 0.083165 0.987472 0.134099
vn 0.08502 0.99181 0.09531
vn 0.088609 0.995231 0.040787
vn 0.074291 0.997197 0.008862
vn 0.063325 0.996649 -0.051772
vn 0.051056 0.99092 -0.124385
vn 0.15615 0.986852 -0.041721
vn 0.096091 0.988188 -0.119381
vn 0.154956 0.987921 0.000412
vn 0.065192 0.986459 -0.150494
vn -0.040207 0.979426 -0.197758
vn -0.082687 0.980108 -0.180419
vn -0.152814 0.982046 -0.110605
vn -0.145485 0.989033 -0.025468
vn -0.143235 0.987472 0.066203
vn -0.104961 0.99181 0.072771
vn -0.051281 0.995231 0.082978
vn -0.01785 0.997197 0.072657
vn 0.043669 0.996649 0.069163
vn 0.117236 0.99092 0.065834
vn 0.241521 0.96813 -0.066279
vn 0.149456 0.970859 -0.187339
vn 0.23997 0.97078 0.00032
vn 0.101189 0.966555 -0.235655
vn -0.058883 0.950107 -0.306316
vn -0.124913 0.952041 -0.279312
vn -0.234447 0.957131 -0.170104
vn -0.226144 0.973264 -0.040215
vn -0.222137 0.969449 0.104042
vn -0.163446 0.979846 0.114838
vn -0.080094 0.988103 0.131291
vn -0.028148 0.992893 0.115638
vn 0.068335 0.991568 0.110104
vn 0.181504 0.977853 0.104215
usemtl datan_common_75e9da13
f 70/70/70 71/71/71 72/72/72
f 70/70/70 73/73/73 71/71/71
f 73/73/73 74/74/74 71/71/71
f 73/73/73 75/75/75 74/74/74
f 75/75/75 76/76/76 74/74/74
f 75/75/75 77/77/77 76/76/76
f 77/77/77 78/78/78 76/76/76
f 77/77/77 79/79/79 78/78/78
f 79/79/79 80/80/80 78/78/78
f 79/79/79 81/81/81 80/80/80
f 81/81/81 82/82/82 80/80/80
f 81/81/81 83/83/83 82/82/82
f 83/83/83 72/72/72 82/82/82
f 83/83/83 70/70/70 72/72/72
f 84/84/84 85/85/85 86/86/86
f 84/84/84 87/87/87 85/85/85
f 87/87/87 88/88/88 85/85/85
f 87/87/87 89/89/89 88/88/88
f 89/89/89 90/90/90 88/88/88
f 89/89/89 91/91/91 90/90/90
f 91/91/91 92/92/92 90/90/90
f 91/91/91 93/93/93 92/92/92
f 93/93/93 94/94/94 92/92/92
f 93/93/93 95/95/95 94/94/94
f 95/95/95 96/96/96 94/94/94
f 95/95/95 97/97/97 96/96/96
f 97/97/97 86/86/86 96/96/96
f 97/97/97 84/84/84 86/86/86
f 98/98/98 99/99/99 100/100/100
f 98/98/98 101/101/101 99/99/99
f 101/101/101 102/102/102 99/99/99
f 101/101/101 103/103/103 102/102/102
f 103/103/103 104/104/104 102/102/102
f 103/103/103 105/105/105 104/104/104
f 105/105/105 106/106/106 104/104/104
f 105/105/105 107/107/107 106/106/106
f 107/107/107 108/108/108 106/106/106
f 107/107/107 109/109/109 108/108/108
f 109/109/109 110/110/110 108/108/108
f 109/109/109 111/111/111 110/110/110
f 111/111/111 100/100/100 110/110/110
f 111/111/111 98/98/98 100/100/100
o datan_common_75e9da13_mesh03
v -3.242898 3.52086 -0
v -3.242898 -3.52086 0
v 3.242898 3.52086 -0
v 3.242898 -3.52086 0
vt 0.0005 0.999501
vt 0.0005 0.0005
vt 0.999501 0.9995
vt 0.9995 0.0005
vn 0 0 1
vn 0 0 1
vn 0 0 1
vn 0 0 1
usemtl datan_common_75e9da13
f 112/112/112 113/113/113 114/114/114
f 115/115/115 114/114/114 113/113/113
