# Generated from Nova1492 GX by tools/nova1492/GxObjConverter
mtllib datan_common_powerUPArea_1f33d279.mtl
o datan_common_powerUPArea_1f33d279_mesh00
v -0.291438 0 -0.291438
v -0.291438 0 0.291438
v 0.291438 0 -0.291438
v 0.291438 0 0.291438
vt 0.25291 0.49709
vt 0.25291 0.25291
vt 0.49709 0.49709
vt 0.49709 0.25291
vn -0 1 0
vn 0 1 0
vn 0 1 0
vn 0 1 0
usemtl datan_common_powerUPArea_1f33d279
f 1/1/1 2/2/2 3/3/3
f 4/4/4 3/3/3 2/2/2
o datan_common_powerUPArea_1f33d279_mesh01
v -0.291438 0 0.291438
v 0.291438 0 0.291438
v -0.291438 0 -0.291438
v 0.291438 0 -0.291438
vt 0.25291 0.49709
vt 0.25291 0.25291
vt 0.49709 0.49709
vt 0.49709 0.25291
vn -0 1 0
vn 0 1 -0
vn 0 1 -0
vn 0 1 -0
usemtl datan_common_powerUPArea_1f33d279
f 5/5/5 6/6/6 7/7/7
f 8/8/8 7/7/7 6/6/6
o datan_common_powerUPArea_1f33d279_mesh02
v -0.291438 0 0.291438
v 0.291438 0 0.291438
v -0.291438 0 -0.291438
v 0.291438 0 -0.291438
vt 0.75291 0.99709
vt 0.75291 0.75291
vt 0.99709 0.99709
vt 0.99709 0.75291
vn -0 1 0
vn 0 1 -0
vn 0 1 -0
vn 0 1 -0
usemtl datan_common_powerUPArea_1f33d279
f 9/9/9 10/10/10 11/11/11
f 12/12/12 11/11/11 10/10/10
o datan_common_powerUPArea_1f33d279_mesh03
v -0.291438 0 -0.291438
v -0.291438 0 0.291438
v 0.291438 0 -0.291438
v 0.291438 0 0.291438
vt 0.75291 0.99709
vt 0.75291 0.75291
vt 0.99709 0.99709
vt 0.99709 0.75291
vn -0 1 0
vn 0 1 0
vn 0 1 0
vn 0 1 0
usemtl datan_common_powerUPArea_1f33d279
f 13/13/13 14/14/14 15/15/15
f 16/16/16 15/15/15 14/14/14
o datan_common_powerUPArea_1f33d279_mesh04
v -0.291438 0 0.291438
v 0.291438 0 0.291438
v -0.291438 0 -0.291438
v 0.291438 0 -0.291438
vt 0.25291 0.49709
vt 0.25291 0.25291
vt 0.49709 0.49709
vt 0.49709 0.25291
vn -0 1 0
vn 0 1 -0
vn 0 1 -0
vn 0 1 -0
usemtl datan_common_powerUPArea_1f33d279
f 17/17/17 18/18/18 19/19/19
f 20/20/20 19/19/19 18/18/18
