# Generated from Nova1492 GX by tools/nova1492/GxObjConverter
mtllib datan_common_DevilSpritArea_b7ee8f76.mtl
o datan_common_DevilSpritArea_b7ee8f76_mesh00
v -2.072002 0 -2.072002
v -2.072002 0 2.072002
v 2.072002 0 -2.072002
v 2.072002 0 2.072002
vt 0 1
vt 0 0
vt 1 1
vt 1 0
vn -0 1 0
vn 0 1 0
vn 0 1 0
vn 0 1 0
usemtl datan_common_DevilSpritArea_b7ee8f76
f 1/1/1 2/2/2 3/3/3
f 4/4/4 3/3/3 2/2/2
o datan_common_DevilSpritArea_b7ee8f76_mesh01
v -2.072002 0 -2.072002
v -2.072002 0 2.072002
v 2.072002 0 -2.072002
v 2.072002 0 2.072002
vt 0 1
vt 0 0
vt 1 1
vt 1 0
vn -0 1 0
vn 0 1 0
vn 0 1 0
vn 0 1 0
usemtl datan_common_DevilSpritArea_b7ee8f76
f 5/5/5 6/6/6 7/7/7
f 8/8/8 7/7/7 6/6/6
o datan_common_DevilSpritArea_b7ee8f76_mesh02
v -3.956591 3.95659 -0
v -3.956591 -3.95659 0
v 3.956591 3.95659 -0
v 3.956591 -3.95659 0
vt 0 1
vt 0 0
vt 1 1
vt 1 0
vn 0 0 1
vn 0 0 1
vn 0 0 1
vn 0 0 1
usemtl datan_common_DevilSpritArea_b7ee8f76
f 9/9/9 10/10/10 11/11/11
f 12/12/12 11/11/11 10/10/10
o datan_common_DevilSpritArea_b7ee8f76_mesh03
v -3.108003 0 -3.108003
v -3.108003 0 3.108003
v 3.108003 0 -3.108003
v 3.108003 0 3.108003
vt 0 1
vt 0 0
vt 1 1
vt 1 0
vn -0 1 0
vn 0 1 0
vn 0 1 0
vn 0 1 0
usemtl datan_common_DevilSpritArea_b7ee8f76
f 13/13/13 14/14/14 15/15/15
f 16/16/16 15/15/15 14/14/14
o datan_common_DevilSpritArea_b7ee8f76_mesh04
v -3.108003 0.354634 -3.108003
v -3.108003 0.354634 3.108003
v 3.108003 0.354634 -3.108003
v 3.108003 0.354634 3.108003
vt 0 1
vt 0 0
vt 1 1
vt 1 0
vn 0 1 0
vn 0 1 0
vn 0 1 0
vn 0 1 0
usemtl datan_common_DevilSpritArea_b7ee8f76
f 17/17/17 18/18/18 19/19/19
f 20/20/20 19/19/19 18/18/18
o datan_common_DevilSpritArea_b7ee8f76_mesh05
v -3.108003 0.703014 -3.108003
v -3.108003 0.703014 3.108003
v 3.108003 0.703014 -3.108003
v 3.108003 0.703014 3.108003
vt 0 1
vt 0 0
vt 1 1
vt 1 0
vn 0 1 0
vn 0 1 0
vn 0 1 0
vn 0 1 0
usemtl datan_common_DevilSpritArea_b7ee8f76
f 21/21/21 22/22/22 23/23/23
f 24/24/24 23/23/23 22/22/22
o datan_common_DevilSpritArea_b7ee8f76_mesh06
v -3.956591 3.95659 -0
v -3.956591 -3.95659 0
v 3.956591 3.95659 -0
v 3.956591 -3.95659 0
vt 0 1
vt 0 0
vt 1 1
vt 1 0
vn 0 0 1
vn 0 0 1
vn 0 0 1
vn 0 0 1
usemtl datan_common_DevilSpritArea_b7ee8f76
f 25/25/25 26/26/26 27/27/27
f 28/28/28 27/27/27 26/26/26
