# Generated from Nova1492 GX by tools/nova1492/GxObjConverter
mtllib datan_common__1_9a2f935a.mtl
o datan_common__1_9a2f935a
v -0.231336 0.054317 -1.84197
v -1.075551 1.781128 -0.400282
v -0.081974 1.726157 -1.22535
v -1.486413 0.054317 -0.746312
v -1.059847 1.922734 0.461598
v -1.561805 0.054317 0.543483
v -0.4277 2.077048 0.908495
v -0.394247 0.054317 1.645469
v 0.46014 2.077048 0.799482
v 0.964455 0.054317 1.23517
v 0.944059 2.077048 -0.007653
v 1.413554 0.054317 0.260782
v 0.806223 1.857023 -0.821466
v 1.391981 0.054317 -1.541374
v -0 1.346599 0
v -1.360484 0.093425 -0.008827
v -3.644745 3.06354 -1.752254
v -2.444475 2.96899 0.116908
v -2.967887 0.093425 -2.381135
v -5.119421 3.307103 -1.906106
v -5.153994 0.093425 -2.780203
v -6.014861 3.572523 -0.920596
v -7.280021 0.093425 -1.017966
v -6.014861 3.572523 0.617957
v -6.86437 0.093425 1.387587
v -4.738374 3.572523 1.613282
v -5.295053 0.093425 2.358526
v -3.320157 3.194081 1.548558
v -2.213929 0.093425 2.699457
v -4.55355 2.316149 -0
v -0.379396 0.061706 2.174595
v -1.030627 1.399596 1.683765
v -0.688436 1.357005 2.209993
v -0.837659 0.061706 1.506715
v -1.451051 1.509308 1.64045
v -1.460907 0.061706 1.394365
v -1.706336 1.628867 1.917903
v -2.067027 0.061706 1.89049
v -1.706336 1.628867 2.351054
v -1.948527 0.061706 2.567729
v -1.342416 1.628867 2.63127
v -1.501123 0.061706 2.841079
v -0.938089 1.458398 2.613048
v -0.622709 0.061706 2.937062
v -1.289724 1.062933 2.17708
vt 0.999501 0.494249
vt 0.614001 0.812094
vt 0.816563 0.471326
vt 0.72823 0.926746
vt 0.36513 0.840143
vt 0.359295 0.999501
vt 0.214012 0.660474
vt 0.0005 0.678226
vt 0.214012 0.379979
vt 0.070646 0.239668
vt 0.429436 0.198521
vt 0.335489 0.062655
vt 0.66878 0.210321
vt 0.85547 0.000499
vt 0.460628 0.49264
vt 0.999501 0.494249
vt 0.614001 0.812094
vt 0.816563 0.471326
vt 0.72823 0.926746
vt 0.36513 0.840143
vt 0.359295 0.999501
vt 0.214012 0.660474
vt 0.0005 0.678226
vt 0.214012 0.379979
vt 0.070646 0.239668
vt 0.429436 0.198521
vt 0.335489 0.062655
vt 0.66878 0.210321
vt 0.85547 0.000499
vt 0.460628 0.49264
vt 0.999501 0.494249
vt 0.614001 0.812094
vt 0.816563 0.471326
vt 0.72823 0.926746
vt 0.36513 0.840143
vt 0.359295 0.999501
vt 0.214012 0.660474
vt 0.0005 0.678226
vt 0.214012 0.379979
vt 0.070646 0.239668
vt 0.429436 0.198521
vt 0.335489 0.062655
vt 0.66878 0.210321
vt 0.85547 0.000499
vt 0.460628 0.49264
vn -0.631543 0.309936 -0.7107
vn -0.789328 0.307223 -0.531577
vn -0.379296 0.396504 -0.836014
vn -0.916493 0.280826 -0.284917
vn -0.932553 0.252732 0.25782
vn -0.814331 0.254857 0.521452
vn -0.412053 0.280687 0.866849
vn -0.10037 0.31541 0.943633
vn 0.43282 0.328904 0.839338
vn 0.702383 0.297146 0.64681
vn 0.933396 0.267569 0.239121
vn 0.962502 0.264158 0.061733
vn 0.841983 0.357951 -0.403653
vn 0.56854 0.426344 -0.703557
vn -0.994756 0.057731 0.08443
vn 0.782368 0.309936 -0.540223
vn 0.62381 0.307223 -0.718662
vn 0.876007 0.396504 -0.274584
vn 0.394486 0.280826 -0.874939
vn -0.142249 0.252732 -0.957023
vn -0.418323 0.254857 -0.87181
vn -0.810171 0.280687 -0.514623
vn -0.924367 0.31541 -0.214622
vn -0.885829 0.328904 0.327304
vn -0.727587 0.297146 0.618321
vn -0.35109 0.267569 0.897297
vn -0.178572 0.264158 0.947804
vn 0.298032 0.357951 0.8849
vn 0.629025 0.426345 0.650045
vn 0.037429 0.057731 -0.99763
vn 0.808795 0.202449 -0.552146
vn 0.64092 0.198979 -0.741369
vn 0.925229 0.265168 -0.271362
vn 0.402775 0.18047 -0.897331
vn -0.143038 0.161179 -0.976505
vn -0.42237 0.162935 -0.891659
vn -0.829745 0.1821 -0.527601
vn -0.953408 0.205885 -0.220512
vn -0.915279 0.215068 0.340602
vn -0.744535 0.192334 0.639278
vn -0.357834 0.17154 0.917894
vn -0.181261 0.169045 0.968797
vn 0.317668 0.235869 0.918397
vn 0.667622 0.284315 0.688074
vn 0.037 0.036119 -0.998662
usemtl datan_common__1_9a2f935a
f 1/1/1 2/2/2 3/3/3
f 1/1/1 4/4/4 2/2/2
f 4/4/4 5/5/5 2/2/2
f 4/4/4 6/6/6 5/5/5
f 6/6/6 7/7/7 5/5/5
f 6/6/6 8/8/8 7/7/7
f 8/8/8 9/9/9 7/7/7
f 8/8/8 10/10/10 9/9/9
f 10/10/10 11/11/11 9/9/9
f 10/10/10 12/12/12 11/11/11
f 12/12/12 13/13/13 11/11/11
f 12/12/12 14/14/14 13/13/13
f 14/14/14 3/3/3 13/13/13
f 14/14/14 1/1/1 3/3/3
f 1/1/1 15/15/15 3/3/3
f 16/16/16 17/17/17 18/18/18
f 16/16/16 19/19/19 17/17/17
f 19/19/19 20/20/20 17/17/17
f 19/19/19 21/21/21 20/20/20
f 21/21/21 22/22/22 20/20/20
f 21/21/21 23/23/23 22/22/22
f 23/23/23 24/24/24 22/22/22
f 23/23/23 25/25/25 24/24/24
f 25/25/25 26/26/26 24/24/24
f 25/25/25 27/27/27 26/26/26
f 27/27/27 28/28/28 26/26/26
f 27/27/27 29/29/29 28/28/28
f 29/29/29 18/18/18 28/28/28
f 29/29/29 16/16/16 18/18/18
f 16/16/16 30/30/30 18/18/18
f 31/31/31 32/32/32 33/33/33
f 31/31/31 34/34/34 32/32/32
f 34/34/34 35/35/35 32/32/32
f 34/34/34 36/36/36 35/35/35
f 36/36/36 37/37/37 35/35/35
f 36/36/36 38/38/38 37/37/37
f 38/38/38 39/39/39 37/37/37
f 38/38/38 40/40/40 39/39/39
f 40/40/40 41/41/41 39/39/39
f 40/40/40 42/42/42 41/41/41
f 42/42/42 43/43/43 41/41/41
f 42/42/42 44/44/44 43/43/43
f 44/44/44 33/33/33 43/43/43
f 44/44/44 31/31/31 33/33/33
f 31/31/31 45/45/45 33/33/33
