# Generated from Nova1492 GX by tools/nova1492/GxObjConverter
mtllib datan_common__2_d9dc2021.mtl
o datan_common__2_d9dc2021
v -0.231336 0.054317 -1.84197
v -1.075551 1.781128 -0.400282
v -0.081974 1.726157 -1.22535
v -1.486413 0.054317 -0.746312
v -1.059847 1.922734 0.461598
v -1.561805 0.054317 0.543483
v -0.4277 2.077048 0.908495
v -0.394247 0.054317 1.645469
v 0.46014 1.475566 0.799482
v 0.964455 0.054317 1.23517
v 0.944059 1.186888 -0.007653
v 1.413554 0.054317 0.260782
v 0.720984 1.020297 -0.733198
v 1.391981 0.054317 -1.541374
v -0 0.739098 -0
vt 0.999501 0.494249
vt 0.614001 0.812094
vt 0.816563 0.471326
vt 0.72823 0.926746
vt 0.36513 0.840143
vt 0.359295 0.999501
vt 0.214012 0.660474
vt 0.0005 0.678226
vt 0.214012 0.379979
vt 0.070646 0.239668
vt 0.429436 0.198521
vt 0.335489 0.062655
vt 0.66878 0.210321
vt 0.85547 0.000499
vt 0.460628 0.49264
vn -0.63478 0.309223 -0.708121
vn -0.789328 0.307223 -0.531577
vn -0.299022 0.585067 -0.753845
vn -0.916493 0.280826 -0.284917
vn -0.932553 0.252732 0.25782
vn -0.814331 0.254857 0.521452
vn -0.350635 0.289054 0.890788
vn -0.024785 0.354971 0.934549
vn 0.514156 0.394248 0.761716
vn 0.689897 0.431171 0.581493
vn 0.905903 0.399721 0.139868
vn 0.890208 0.455456 0.009416
vn 0.829618 0.524771 -0.190655
vn 0.658932 0.60799 -0.442897
vn -0.993099 0.04951 0.106319
usemtl datan_common__2_d9dc2021
f 1/1/1 2/2/2 3/3/3
f 1/1/1 4/4/4 2/2/2
f 4/4/4 5/5/5 2/2/2
f 4/4/4 6/6/6 5/5/5
f 6/6/6 7/7/7 5/5/5
f 6/6/6 8/8/8 7/7/7
f 8/8/8 9/9/9 7/7/7
f 8/8/8 10/10/10 9/9/9
f 10/10/10 11/11/11 9/9/9
f 10/10/10 12/12/12 11/11/11
f 12/12/12 13/13/13 11/11/11
f 12/12/12 14/14/14 13/13/13
f 14/14/14 3/3/3 13/13/13
f 14/14/14 1/1/1 3/3/3
f 1/1/1 15/15/15 3/3/3
