# Generated from Nova1492 GX by tools/nova1492/GxObjConverter
mtllib datan_common_superhpac_45a7dab5.mtl
o datan_common_superhpac_45a7dab5
v 0.549593 0 0.302546
v 0.549593 0.418366 -0.440681
v 0.549575 1.147426 -0.565057
v 0.549593 1.147439 0.302546
v -0.549624 1.147343 -0.565057
v -0.549595 0 0.302546
v -0.549595 1.147439 0.302546
v -0.549595 0.418366 -0.440502
v 0.549593 0 -0.440681
v -0.549595 0 -0.440681
v 0.549575 0.70531 -0.749444
v -0.549624 0.705228 -0.749264
v -0.549595 0 0.302546
v 0.549593 0 0.302546
v 0.549593 1.147439 0.302546
v -0.549595 1.147439 0.302546
v -0.225785 0.418366 -0.440568
v -0.549595 0 -0.440681
v -0.549595 0.418366 -0.440502
v 0.225766 1.147426 -0.565057
v 0.549575 1.147426 -0.565057
v 0.549575 0.70531 -0.749444
v 0.225766 0.70531 -0.749405
v 0.225783 0.418366 -0.440642
v 0.549593 0.418366 -0.440681
v 0.549593 0 -0.440681
v -0.549624 1.147343 -0.565057
v -0.225815 1.147343 -0.565057
v -0.549624 0.705228 -0.749264
v -0.225815 0.705228 -0.749331
v 0.225783 1.147439 -0.440681
v -0.225785 1.147439 -0.440681
v 0.225783 1.147439 -0.440681
v 0.549593 1.147439 0.302546
v 0.549575 1.147426 -0.565057
v -0.549595 1.147439 0.302546
v -0.225785 1.147439 -0.440681
v -0.549624 1.147343 -0.565057
v 0.225766 1.147426 -0.565057
v -0.225815 1.147343 -0.565057
v -0.679111 0.950415 -0.501207
v -0.544837 0.802841 -0.618785
v -0.679111 0.802841 -0.586409
v -0.544837 0.978454 -0.517395
v -0.679111 0.950415 -0.330803
v -0.544837 0.978454 -0.314615
v -0.679111 0.802841 -0.245601
v -0.544837 0.802841 -0.213225
v -0.679111 0.655268 -0.330803
v -0.544837 0.627228 -0.314615
v -0.679111 0.655268 -0.501207
v -0.544837 0.627229 -0.517395
v -0.679111 0.802841 -0.416005
v 0.544837 0.802841 -0.618785
v 0.679111 0.950415 -0.501207
v 0.679111 0.802841 -0.586409
v 0.544837 0.978454 -0.517395
v 0.679111 0.950415 -0.330803
v 0.544837 0.978454 -0.314615
v 0.679111 0.802841 -0.245601
v 0.544837 0.802841 -0.213225
v 0.679111 0.655268 -0.330803
v 0.544837 0.627228 -0.314615
v 0.679111 0.655268 -0.501207
v 0.544837 0.627228 -0.517395
v 0.679111 0.802841 -0.416005
v -0.069937 0.967199 -0.443069
v 0.069906 0.967199 -0.443069
v 0.069906 0.839502 -0.625785
v -0.069937 0.839502 -0.625785
v 0.069906 0.204615 -0.443069
v 0.069906 0.204615 -0.625785
v -0.069937 0.204615 -0.625785
v -0.069937 0.204615 -0.443069
v -0.357008 0.207516 -0.446088
v 0.356977 0.207516 -0.446088
v 0.356977 0.207516 -0.678579
v -0.357008 0.207516 -0.678579
v -0.357008 0 -0.446088
v 0.356977 0 -0.446088
v 0.356977 0 -0.744983
v -0.357008 0 -0.744983
vt 0.988118 0.011883
vt 0.653906 0.188313
vt 0.596697 0.488112
vt 0.988118 0.488117
vt 0.596696 0.488077
vt 0.988117 0.011883
vt 0.988117 0.488117
vt 0.653989 0.180657
vt 0.653906 0.011883
vt 0.653906 0.011883
vt 0.511883 0.301666
vt 0.511965 0.301631
vt 0.261758 0.261758
vt 0.488242 0.261758
vt 0.488242 0.488242
vt 0.261758 0.488242
vt 0.853215 0.680657
vt 0.988105 0.511883
vt 0.988105 0.680657
vt 0.64678 0.988112
vt 0.51189 0.988112
vt 0.51189 0.809322
vt 0.654436 0.809322
vt 0.646772 0.680657
vt 0.511883 0.680657
vt 0.511883 0.511883
vt 0.988117 0.988077
vt 0.853228 0.988077
vt 0.988117 0.809287
vt 0.853228 0.809287
vt 0.654428 0.988118
vt 0.853215 0.988118
vt 0.353228 0.704677
vt 0.488117 0.511758
vt 0.48811 0.738242
vt 0.011895 0.511758
vt 0.146785 0.704677
vt 0.011883 0.738242
vt 0.345564 0.738242
vt 0.146772 0.738242
vt 0.071983 0.96955
vt 0.011758 0.878828
vt 0.03045 0.878828
vt 0.062637 0.988242
vt 0.170361 0.977207
vt 0.179707 0.988242
vt 0.21955 0.878828
vt 0.238242 0.878828
vt 0.170361 0.78045
vt 0.179707 0.761758
vt 0.071983 0.78045
vt 0.062637 0.761758
vt 0.121172 0.878828
vt 0.011758 0.878828
vt 0.071983 0.96955
vt 0.03045 0.878828
vt 0.062637 0.988242
vt 0.170361 0.977207
vt 0.179707 0.988242
vt 0.21955 0.878828
vt 0.238242 0.878828
vt 0.170361 0.78045
vt 0.179707 0.761758
vt 0.071983 0.78045
vt 0.062637 0.761758
vt 0.121172 0.878828
vt 0.011758 0.011883
vt 0.238242 0.011883
vt 0.238242 0.488117
vt 0.011758 0.488117
vt 0.238242 0.011883
vt 0.238242 0.488117
vt 0.011758 0.488117
vt 0.011758 0.011883
vt 0.488242 0.24207
vt 0.261758 0.24207
vt 0.261758 0.24207
vt 0.488242 0.238242
vt 0.488242 0.011758
vt 0.261758 0.011758
vt 0.261758 0.011758
vt 0.488242 0.011758
vn 1 0.000009 -0.000002
vn 1 0.000015 -0.000009
vn 1 0.000015 -0.000015
vn 1 0 -0.00002
vn -1 -0.000024 0.000026
vn -1 -0.000015 0.000003
vn -1 0 0.000034
vn -1 -0.000024 0.000014
vn 1 0 0
vn -1 0 0
vn 1 0.000017 -0.000041
vn -1 -0.000028 0.000068
vn 0 0 1
vn 0 0 1
vn 0 0 1
vn 0 0 1
vn 0.329551 -0.120677 -0.936394
vn -0.000102 0.000351 -1
vn -0.000174 -0.527146 -0.849775
vn -0.707158 0.272155 -0.65258
vn 0 0.384922 -0.922949
vn -0.000078 0.014745 -0.999891
vn -0.368057 -0.397462 -0.84057
vn -0.470415 -0.172271 -0.865467
vn -0.000104 -0.527173 -0.849758
vn -0.000095 0.00008 -1
vn 0 0.384603 -0.923082
vn 0.707022 0.272 -0.652791
vn -0.00013 0.014527 -0.999894
vn 0.36781 -0.397595 -0.840615
vn -0.447297 -0.000094 -0.894385
vn 0.707024 -0.00011 -0.70719
vn 0.000009 1 -0.00003
vn 0.000017 1 -0.000007
vn 0.000017 1 -0.000059
vn -0.000084 1 -0.000037
vn -0.000084 1 -0.000293
vn -0.000126 1 -0.000439
vn 0 1 -0.000104
vn 0 1 -0.000768
vn -0.710272 0.532119 -0.460829
vn -0.230408 0.183898 -0.95556
vn -0.710272 -0.13303 -0.691243
vn -0.230408 0.919488 -0.31852
vn -0.710272 0.665149 0.230414
vn -0.230408 0.73559 0.63704
vn -0.710272 0.13303 0.691243
vn -0.230408 -0.183898 0.95556
vn -0.710272 -0.532119 0.460829
vn -0.230408 -0.919488 0.31852
vn -0.710272 -0.665149 -0.230415
vn -0.230408 -0.73559 -0.63704
vn -1 0 0
vn 0.230408 0.183898 -0.95556
vn 0.710272 0.532119 -0.460829
vn 0.710272 -0.13303 -0.691243
vn 0.230408 0.919488 -0.31852
vn 0.710272 0.665149 0.230415
vn 0.230408 0.73559 0.63704
vn 0.710272 0.13303 0.691243
vn 0.230408 -0.183898 0.95556
vn 0.710272 -0.532119 0.460829
vn 0.230408 -0.919488 0.31852
vn 0.710272 -0.665149 -0.230414
vn 0.230408 -0.73559 -0.63704
vn 1 0 0
vn -0.707107 0.579589 -0.405064
vn 0.707107 0.579589 -0.405064
vn 0.595191 0.487856 -0.638549
vn -0.347285 0.284657 -0.893512
vn 1 0 0
vn 0.447214 0 -0.894427
vn -0.894427 0 -0.447214
vn -1 0 0
vn -0.666667 0.666667 0.333333
vn 0.408248 0.408248 0.816497
vn 0.625639 0.720978 -0.297937
vn -0.372185 0.599048 -0.708957
vn -0.447214 0 0.894427
vn 0.894427 0 0.447214
vn 0.447214 0.272596 -0.851875
vn -0.894427 0.136298 -0.425938
usemtl datan_common_superhpac_45a7dab5
f 1/1/1 2/2/2 3/3/3
f 3/3/3 4/4/4 1/1/1
f 5/5/5 6/6/6 7/7/7
f 6/6/6 5/5/5 8/8/8
f 1/1/1 9/9/9 2/2/2
f 6/6/6 8/8/8 10/10/10
f 3/3/3 2/2/2 11/11/11
f 5/5/5 12/12/12 8/8/8
f 13/13/13 14/14/14 15/15/15
f 15/15/15 16/16/16 13/13/13
f 17/17/17 18/18/18 19/19/19
f 20/20/20 21/21/21 22/22/22
f 20/20/20 22/22/22 23/23/23
f 24/24/24 25/25/25 26/26/26
f 27/27/27 28/28/28 29/29/29
f 18/18/18 17/17/17 26/26/26
f 29/29/29 28/28/28 30/30/30
f 24/24/24 17/17/17 31/31/31
f 32/32/32 31/31/31 17/17/17
f 26/26/26 17/17/17 24/24/24
f 25/25/25 24/24/24 23/23/23
f 23/23/23 22/22/22 25/25/25
f 24/24/24 31/31/31 20/20/20
f 20/20/20 23/23/23 24/24/24
f 30/30/30 19/19/19 29/29/29
f 19/19/19 30/30/30 17/17/17
f 28/28/28 17/17/17 30/30/30
f 17/17/17 28/28/28 32/32/32
f 33/33/33 34/34/34 35/35/35
f 34/34/34 33/33/33 36/36/36
f 37/37/37 38/38/38 36/36/36
f 36/36/36 33/33/33 37/37/37
f 35/35/35 39/39/39 33/33/33
f 38/38/38 37/37/37 40/40/40
f 41/41/41 42/42/42 43/43/43
f 44/44/44 42/42/42 41/41/41
f 45/45/45 44/44/44 41/41/41
f 46/46/46 44/44/44 45/45/45
f 47/47/47 46/46/46 45/45/45
f 48/48/48 46/46/46 47/47/47
f 49/49/49 48/48/48 47/47/47
f 50/50/50 48/48/48 49/49/49
f 51/51/51 50/50/50 49/49/49
f 52/52/52 50/50/50 51/51/51
f 43/43/43 52/52/52 51/51/51
f 42/42/42 52/52/52 43/43/43
f 43/43/43 53/53/53 41/41/41
f 41/41/41 53/53/53 45/45/45
f 45/45/45 53/53/53 47/47/47
f 47/47/47 53/53/53 49/49/49
f 49/49/49 53/53/53 51/51/51
f 51/51/51 53/53/53 43/43/43
f 54/54/54 55/55/55 56/56/56
f 54/54/54 57/57/57 55/55/55
f 57/57/57 58/58/58 55/55/55
f 57/57/57 59/59/59 58/58/58
f 59/59/59 60/60/60 58/58/58
f 59/59/59 61/61/61 60/60/60
f 61/61/61 62/62/62 60/60/60
f 61/61/61 63/63/63 62/62/62
f 63/63/63 64/64/64 62/62/62
f 63/63/63 65/65/65 64/64/64
f 65/65/65 56/56/56 64/64/64
f 65/65/65 54/54/54 56/56/56
f 66/66/66 56/56/56 55/55/55
f 66/66/66 55/55/55 58/58/58
f 66/66/66 58/58/58 60/60/60
f 66/66/66 60/60/60 62/62/62
f 66/66/66 62/62/62 64/64/64
f 66/66/66 64/64/64 56/56/56
f 67/67/67 68/68/68 69/69/69
f 69/69/69 70/70/70 67/67/67
f 71/71/71 72/72/72 69/69/69
f 69/69/69 68/68/68 71/71/71
f 72/72/72 73/73/73 70/70/70
f 70/70/70 69/69/69 72/72/72
f 73/73/73 74/74/74 67/67/67
f 67/67/67 70/70/70 73/73/73
f 75/75/75 76/76/76 77/77/77
f 77/77/77 78/78/78 75/75/75
f 79/79/79 80/80/80 76/76/76
f 76/76/76 75/75/75 79/79/79
f 80/80/80 81/81/81 77/77/77
f 77/77/77 76/76/76 80/80/80
f 81/81/81 82/82/82 78/78/78
