# Generated from Nova1492 GX by tools/nova1492/GxObjConverter
mtllib datan_common_novacup_3970b526.mtl
o datan_common_novacup_3970b526_mesh00
v -0.75 0.03 0.75
v 0.75 0.03 0.75
v 0.75 0.03 -0.75
v -0.75 0.03 -0.75
vt 0.0005 0.0005
vt 0.9995 0.0005
vt 0.9995 0.9995
vt 0.0005 0.9995
vn 0 1 0
vn 0 1 0
vn 0 1 0
vn 0 1 0
usemtl datan_common_novacup_3970b526
f 1/1/1 2/2/2 3/3/3
f 3/3/3 4/4/4 1/1/1
o datan_common_novacup_3970b526_mesh01
v 0.340783 0 -0
v 0.114327 0.418574 -0.114327
v 0.161682 0.418574 0
v 0.24097 0 -0.24097
v -0 0.418574 -0.161682
v -0 0 -0.340782
v -0 0 -0.340782
v -0.114327 0.418574 -0.114327
v -0 0.418574 -0.161682
v -0.24097 0 -0.24097
v -0.161682 0.418574 0
v -0.340783 0 0
v -0.114327 0.418574 0.114327
v -0.24097 0 0.24097
v 0 0.418574 0.161682
v 0 0 0.340782
v 0.24097 0 0.24097
v 0.114327 0.418574 0.114327
v 0.265976 1.292455 -0.268525
v 0.377203 1.292455 -0
v 0.114327 0.418574 -0.114327
v -0.002549 1.292455 -0.379752
v 0.265976 1.292455 -0.268525
v -0.271074 1.292455 -0.268525
v -0.382301 1.292455 0
v -0.271074 1.292455 0.268525
v -0.002549 1.292455 0.379752
v 0.265976 1.292455 0.268525
v 0 1.852262 -0
v -0 1.797154 -0.205664
v -0.102832 1.797154 -0.178111
v -0.178111 1.797154 -0.102832
v -0.205664 1.797154 0
v -0.178111 1.797154 0.102832
v -0.102832 1.797154 0.178111
v 0 1.797154 0.205664
v 0.102832 1.797154 0.178111
v 0.178111 1.797154 0.102832
v 0.205664 1.797154 -0
v 0.178111 1.797154 -0.102832
v 0.102832 1.797154 -0.178111
v -0 1.797154 -0.205664
v -0 1.646597 -0.356221
v -0.178111 1.646597 -0.308496
v -0.308497 1.646597 -0.178111
v -0.356221 1.646597 0
v -0.308497 1.646597 0.178111
v -0.178111 1.646597 0.308497
v 0 1.646597 0.356221
v 0.178111 1.646597 0.308496
v 0.308497 1.646597 0.178111
v 0.356221 1.646597 -0
v 0.308497 1.646597 -0.178111
v 0.178111 1.646597 -0.308497
v -0 1.646597 -0.356221
v -0 1.440933 -0.411329
v -0.205664 1.440933 -0.356221
v -0.356221 1.440933 -0.205664
v -0.411329 1.440933 0
v -0.356221 1.440933 0.205664
v -0.205664 1.440933 0.356221
v 0 1.440933 0.411329
v 0.205664 1.440933 0.356221
v 0.356221 1.440933 0.205664
v 0.411329 1.440933 -0
v 0.356221 1.440933 -0.205664
v 0.205664 1.440933 -0.356221
v -0 1.440933 -0.411329
v 0.205664 1.440933 -0.356221
vt 0.75 0.0005
vt 0.875 0.226254
vt 0.75 0.226254
vt 0.875 0.0005
vt 1 0.226254
vt 1 0.0005
vt -0 0.0005
vt 0.125 0.226254
vt -0 0.226254
vt 0.125 0.0005
vt 0.25 0.226254
vt 0.25 0.0005
vt 0.375 0.226254
vt 0.375 0.0005
vt 0.5 0.226254
vt 0.5 0.0005
vt 0.625 0.0005
vt 0.625 0.226254
vt 0.875759 0.697574
vt 0.75 0.697574
vt -0.125 0.226254
vt 0.001068 0.697574
vt -0.124241 0.697574
vt 0.125752 0.697574
vt 0.25 0.697574
vt 0.374248 0.697574
vt 0.498932 0.697574
vt 0.624241 0.697574
vt 0.5 0.9995
vt -0 0.969779
vt 0.083333 0.969779
vt 0.166667 0.969779
vt 0.25 0.969779
vt 0.333333 0.969779
vt 0.416667 0.969779
vt 0.5 0.969779
vt 0.583333 0.969779
vt 0.666667 0.969779
vt 0.75 0.969779
vt 0.833333 0.969779
vt 0.916667 0.969779
vt 1 0.969779
vt -0 0.888577
vt 0.083333 0.888577
vt 0.166667 0.888577
vt 0.25 0.888577
vt 0.333333 0.888577
vt 0.416667 0.888577
vt 0.5 0.888577
vt 0.583333 0.888577
vt 0.666667 0.888577
vt 0.75 0.888577
vt 0.833333 0.888577
vt 0.916667 0.888577
vt 1 0.888577
vt -0 0.777654
vt 0.083333 0.777654
vt 0.166667 0.777654
vt 0.25 0.777654
vt 0.333333 0.777654
vt 0.416667 0.777654
vt 0.5 0.777654
vt 0.583333 0.777654
vt 0.666667 0.777654
vt 0.75 0.777654
vt 0.833333 0.777654
vt 0.916667 0.777654
vt 1 0.777654
vt -0.083333 0.777654
vn 0.919374 0.393384 0
vn 0.812539 0.240544 -0.53096
vn 0.996337 0.015503 -0.084093
vn 0.555873 0.390252 -0.733967
vn 0.355881 0.367628 -0.859185
vn 0.355882 0.367629 -0.859184
vn -0.355881 0.367629 -0.859184
vn -0.707069 0.079885 -0.702618
vn -0.199782 -0.084289 -0.976208
vn -0.733966 0.390253 -0.555875
vn -0.996821 0.079616 0.003173
vn -0.912055 0.390253 0.125927
vn -0.70255 0.080155 0.707106
vn -0.555873 0.390252 0.733967
vn 0.003265 0.081185 0.996694
vn 0.125927 0.390252 0.912056
vn 0.650095 0.393384 0.650097
vn 0.742422 0.129401 0.657317
vn 0.873339 -0.247469 -0.41957
vn 0.959722 -0.259485 0.107708
vn 0.37299 -0.22362 -0.900484
vn 0.107765 -0.253594 -0.961289
vn 0.365729 -0.294364 -0.882945
vn -0.584582 -0.264427 -0.767035
vn -0.963018 -0.246751 -0.108216
vn -0.767618 -0.263057 0.584435
vn -0.108158 -0.252705 0.961479
vn 0.582664 -0.273442 0.765332
vn 0 1 0
vn -0.151906 0.809639 -0.566929
vn -0.305483 0.838458 -0.451296
vn -0.490205 0.838459 -0.238089
vn -0.543575 0.838458 0.038909
vn -0.451295 0.838459 0.305483
vn -0.249114 0.867044 0.431482
vn 0.000001 0.819146 0.573585
vn 0.305483 0.838458 0.451296
vn 0.490205 0.838459 0.238089
vn 0.543575 0.838458 -0.038909
vn 0.451295 0.838459 -0.305483
vn 0.238089 0.838459 -0.490205
vn 0.132323 0.859419 -0.493851
vn -0.235994 0.410628 -0.880734
vn -0.442355 0.501681 -0.743397
vn -0.754789 0.501681 -0.422622
vn -0.836344 0.546789 -0.03937
vn -0.77904 0.468036 0.417181
vn -0.389492 0.534013 0.750418
vn 0.000002 0.501716 0.865033
vn 0.417182 0.468036 0.779039
vn 0.754789 0.501681 0.422622
vn 0.864977 0.501682 -0.011395
vn 0.743397 0.501681 -0.442354
vn 0.422621 0.501681 -0.75479
vn 0.213873 0.563147 -0.7982
vn -0.16195 -0.148113 -0.97562
vn -0.456254 0.049589 -0.888467
vn -0.854004 0.020429 -0.519865
vn -0.99783 0.035852 0.055236
vn -0.8632 -0.002824 0.504854
vn -0.520059 0.017059 0.85396
vn 0.054921 0.028437 0.998086
vn 0.505088 -0.013529 0.862962
vn 0.853921 0.006152 0.520366
vn 0.999645 -0.01876 -0.018942
vn 0.888738 0.041224 -0.456558
vn 0.603151 0.161742 -0.781056
vn 0.250562 0.250563 -0.935113
vn 0.306548 -0.285996 -0.907874
usemtl datan_common_novacup_3970b526
f 5/5/5 6/6/6 7/7/7
f 5/5/5 8/8/8 6/6/6
f 8/8/8 9/9/9 6/6/6
f 8/8/8 10/10/10 9/9/9
f 11/11/11 12/12/12 13/13/13
f 11/11/11 14/14/14 12/12/12
f 14/14/14 15/15/15 12/12/12
f 14/14/14 16/16/16 15/15/15
f 16/16/16 17/17/17 15/15/15
f 16/16/16 18/18/18 17/17/17
f 18/18/18 19/19/19 17/17/17
f 18/18/18 20/20/20 19/19/19
f 20/20/20 21/21/21 22/22/22
f 19/19/19 20/20/20 22/22/22
f 21/21/21 5/5/5 22/22/22
f 22/22/22 5/5/5 7/7/7
f 7/7/7 6/6/6 23/23/23
f 23/23/23 24/24/24 7/7/7
f 25/25/25 13/13/13 26/26/26
f 26/26/26 27/27/27 25/25/25
f 13/13/13 12/12/12 28/28/28
f 28/28/28 26/26/26 13/13/13
f 12/12/12 15/15/15 29/29/29
f 29/29/29 28/28/28 12/12/12
f 15/15/15 17/17/17 30/30/30
f 30/30/30 29/29/29 15/15/15
f 17/17/17 19/19/19 31/31/31
f 31/31/31 30/30/30 17/17/17
f 19/19/19 22/22/22 32/32/32
f 32/32/32 31/31/31 19/19/19
f 22/22/22 7/7/7 24/24/24
f 24/24/24 32/32/32 22/22/22
f 33/33/33 34/34/34 35/35/35
f 33/33/33 35/35/35 36/36/36
f 33/33/33 36/36/36 37/37/37
f 33/33/33 37/37/37 38/38/38
f 33/33/33 38/38/38 39/39/39
f 33/33/33 39/39/39 40/40/40
f 33/33/33 40/40/40 41/41/41
f 33/33/33 41/41/41 42/42/42
f 33/33/33 42/42/42 43/43/43
f 33/33/33 43/43/43 44/44/44
f 33/33/33 44/44/44 45/45/45
f 33/33/33 45/45/45 46/46/46
f 34/34/34 47/47/47 48/48/48
f 34/34/34 48/48/48 35/35/35
f 35/35/35 48/48/48 49/49/49
f 35/35/35 49/49/49 36/36/36
f 36/36/36 49/49/49 50/50/50
f 36/36/36 50/50/50 37/37/37
f 38/38/38 37/37/37 51/51/51
f 37/37/37 50/50/50 51/51/51
f 39/39/39 38/38/38 52/52/52
f 38/38/38 51/51/51 52/52/52
f 40/40/40 52/52/52 53/53/53
f 39/39/39 52/52/52 40/40/40
f 40/40/40 53/53/53 54/54/54
f 40/40/40 54/54/54 41/41/41
f 41/41/41 54/54/54 55/55/55
f 41/41/41 55/55/55 42/42/42
f 42/42/42 55/55/55 56/56/56
f 42/42/42 56/56/56 43/43/43
f 43/43/43 56/56/56 57/57/57
f 43/43/43 57/57/57 44/44/44
f 44/44/44 57/57/57 58/58/58
f 44/44/44 58/58/58 45/45/45
f 45/45/45 58/58/58 59/59/59
f 45/45/45 59/59/59 46/46/46
f 47/47/47 60/60/60 61/61/61
f 47/47/47 61/61/61 48/48/48
f 48/48/48 61/61/61 62/62/62
f 48/48/48 62/62/62 49/49/49
f 49/49/49 62/62/62 63/63/63
f 49/49/49 63/63/63 50/50/50
f 51/51/51 63/63/63 64/64/64
f 50/50/50 63/63/63 51/51/51
f 52/52/52 51/51/51 65/65/65
f 51/51/51 64/64/64 65/65/65
f 52/52/52 65/65/65 66/66/66
f 52/52/52 66/66/66 53/53/53
f 54/54/54 66/66/66 67/67/67
f 53/53/53 66/66/66 54/54/54
f 54/54/54 67/67/67 68/68/68
f 54/54/54 68/68/68 55/55/55
f 55/55/55 68/68/68 69/69/69
f 55/55/55 69/69/69 56/56/56
f 56/56/56 69/69/69 70/70/70
f 56/56/56 70/70/70 57/57/57
f 57/57/57 70/70/70 71/71/71
f 57/57/57 71/71/71 58/58/58
f 58/58/58 71/71/71 72/72/72
f 58/58/58 72/72/72 59/59/59
f 60/60/60 26/26/26 28/28/28
f 60/60/60 28/28/28 61/61/61
f 61/61/61 28/28/28 62/62/62
f 62/62/62 28/28/28 29/29/29
f 62/62/62 29/29/29 63/63/63
f 63/63/63 29/29/29 30/30/30
f 63/63/63 30/30/30 64/64/64
f 64/64/64 30/30/30 65/65/65
f 65/65/65 30/30/30 31/31/31
f 65/65/65 31/31/31 66/66/66
f 66/66/66 31/31/31 32/32/32
f 66/66/66 32/32/32 67/67/67
f 67/67/67 32/32/32 68/68/68
f 68/68/68 32/32/32 24/24/24
f 68/68/68 24/24/24 69/69/69
f 69/69/69 24/24/24 23/23/23
f 69/69/69 23/23/23 70/70/70
f 70/70/70 23/23/23 71/71/71
f 73/73/73 27/27/27 26/26/26
f 73/73/73 26/26/26 60/60/60
