# Generated from Nova1492 GX by tools/nova1492/GxObjConverter
mtllib datan_common_Iv_exp_red_9747c44e.mtl
o datan_common_Iv_exp_red_9747c44e_mesh00
v 0.09555 0.69576 -0.28665
v 0.09555 0.69576 0.28665
v 0.09555 -0.654903 0.28665
v 0.09555 -0.654903 -0.28665
v -0.09555 0.738409 -0.28665
v -0.09555 -0.639402 -0.28665
v -0.09555 -0.639402 0.28665
v -0.09555 0.738409 0.28665
v 0.028687 0.762624 -0.28665
v 0.09555 0.69576 -0.28665
v 0.09555 -0.654903 -0.28665
v 0.083443 -0.66701 -0.28665
v -0.071336 0.762624 -0.28665
v -0.028421 -0.66701 -0.28665
v -0.09555 0.738409 -0.28665
v -0.044089 -0.66701 -0.28665
v -0.09555 -0.639402 -0.28665
v -0.067942 -0.66701 -0.28665
v 0.083443 -0.66701 -0.28665
v 0.083443 -0.66701 0.28665
v -0.028421 -0.66701 0.28665
v -0.028421 -0.66701 -0.28665
v 0.083443 -0.66701 0.28665
v 0.09555 -0.654903 0.28665
v 0.09555 0.69576 0.28665
v 0.028687 0.762624 0.28665
v -0.028421 -0.66701 0.28665
v -0.071336 0.762624 0.28665
v -0.044089 -0.66701 0.28665
v -0.09555 0.738409 0.28665
v -0.067942 -0.66701 0.28665
v -0.09555 -0.639402 0.28665
v 0.028687 0.762624 0.28665
v 0.028687 0.762624 -0.28665
v -0.071336 0.762624 -0.28665
v -0.071336 0.762624 0.28665
v -0.028421 -0.762624 0.28665
v -0.04409 -0.762624 0.28665
v -0.044089 -0.762624 -0.28665
v -0.028421 -0.762624 -0.28665
v -0.044089 -0.66701 0.28665
v -0.067942 -0.66701 0.28665
v -0.067942 -0.66701 -0.28665
v -0.044089 -0.66701 -0.28665
v -0.028421 -0.762624 -0.28665
v -0.044089 -0.762624 -0.28665
v -0.028421 -0.66701 -0.28665
v -0.028421 -0.66701 0.28665
v -0.028421 -0.762624 0.28665
v -0.028421 -0.762624 -0.28665
v -0.04409 -0.762624 0.28665
v -0.028421 -0.762624 0.28665
v -0.044089 -0.66701 0.28665
v -0.044089 -0.66701 -0.28665
v -0.044089 -0.762624 -0.28665
v -0.04409 -0.762624 0.28665
v 0.09555 0.69576 -0.28665
v 0.028687 0.762624 -0.28665
v 0.028687 0.762624 0.28665
v 0.09555 0.69576 0.28665
v -0.09555 0.738409 0.28665
v -0.071336 0.762624 0.28665
v -0.071336 0.762624 -0.28665
v -0.09555 0.738409 -0.28665
v -0.09555 -0.639402 -0.28665
v -0.067942 -0.66701 -0.28665
v -0.067942 -0.66701 0.28665
v -0.09555 -0.639402 0.28665
v 0.09555 -0.654903 0.28665
v 0.083443 -0.66701 0.28665
v 0.083443 -0.66701 -0.28665
v 0.09555 -0.654903 -0.28665
vt 0.742723 0.341055
vt 0.742723 0.645025
vt 0.026586 0.645025
vt 0.026586 0.341055
vt 0.029473 0.01062
vt 0.760004 0.01062
vt 0.760004 0.31459
vt 0.029473 0.31459
vt 0.819787 0.736869
vt 0.784337 0.772322
vt 0.0682 0.772346
vt 0.06178 0.765927
vt 0.819786 0.683837
vt 0.061776 0.706614
vt 0.806947 0.670998
vt 0.06178 0.698307
vt 0.076416 0.671022
vt 0.061778 0.685661
vt 0.31459 0.983483
vt 0.01062 0.983483
vt 0.01062 0.924172
vt 0.31459 0.924172
vt 0.063063 0.892831
vt 0.069483 0.89925
vt 0.785619 0.899227
vt 0.82107 0.863774
vt 0.063058 0.833518
vt 0.821068 0.810741
vt 0.063063 0.825211
vt 0.808229 0.797903
vt 0.063061 0.812565
vt 0.077699 0.797926
vt 0.846384 0.31459
vt 0.846384 0.01062
vt 0.793352 0.01062
vt 0.793352 0.31459
vt 0.67987 0.932753
vt 0.67987 0.924445
vt 0.98384 0.924445
vt 0.98384 0.932753
vt 0.793352 0.31459
vt 0.780705 0.31459
vt 0.780705 0.01062
vt 0.793352 0.01062
vt 0.011078 0.706558
vt 0.011087 0.698251
vt 0.98384 0.983449
vt 0.67987 0.983449
vt 0.67987 0.932753
vt 0.98384 0.932753
vt 0.012369 0.825155
vt 0.01236 0.833462
vt 0.645026 0.983449
vt 0.341055 0.983449
vt 0.341055 0.932753
vt 0.645026 0.932753
vt 0.742723 0.341055
vt 0.790306 0.341055
vt 0.790306 0.645025
vt 0.742723 0.645025
vt 0.029473 0.31459
vt 0.011316 0.31459
vt 0.011316 0.01062
vt 0.029473 0.01062
vt 0.760004 0.01062
vt 0.780705 0.01062
vt 0.780705 0.31459
vt 0.760004 0.31459
vt 0.026586 0.645025
vt 0.017508 0.645025
vt 0.017508 0.341055
vt 0.026586 0.341055
vn 1 -0 0
vn 1 -0 0
vn 1 -0 0
vn 1 -0 0
vn -1 0 -0
vn -1 0 -0
vn -1 0 -0
vn -1 0 -0
vn 0 0 -1
vn 0 0 -1
vn 0 0 -1
vn 0 0 -1
vn 0 0 -1
vn 0 0 -1
vn 0 0 -1
vn 0 0 -1
vn 0 0 -1
vn 0 0 -1
vn 0 -1 0
vn 0 -1 0
vn 0 -1 0
vn 0 -1 0
vn 0 0 1
vn 0 0 1
vn 0 0 1
vn 0 0 1
vn 0 0 1
vn 0 0 1
vn 0 0 1
vn 0 0 1
vn 0 0 1
vn 0 0 1
vn 0 1 0
vn 0 1 0
vn 0 1 0
vn 0 1 0
vn 0 -1 0
vn 0 -1 0
vn 0 -1 0
vn 0 -1 0
vn 0 -1 0
vn 0 -1 0
vn 0 -1 0
vn 0 -1 0
vn 0 0 -1
vn 0 0 -1
vn 1 -0 0
vn 1 -0 0
vn 1 -0 0
vn 1 -0 0
vn 0 0 1
vn 0 0 1
vn -1 0.000001 -0
vn -1 0.000001 -0
vn -1 0.000001 -0
vn -1 0.000001 -0
vn 0.707108 0.707106 0
vn 0.707108 0.707106 0
vn 0.707108 0.707106 0
vn 0.707108 0.707106 0
vn -0.707108 0.707106 -0
vn -0.707108 0.707106 -0
vn -0.707108 0.707106 -0
vn -0.707108 0.707106 -0
vn -0.707108 -0.707106 -0
vn -0.707108 -0.707106 -0
vn -0.707108 -0.707106 -0
vn -0.707108 -0.707106 -0
vn 0.707109 -0.707105 0
vn 0.707109 -0.707105 0
vn 0.707109 -0.707105 0
vn 0.707109 -0.707105 0
usemtl datan_common_Iv_exp_red_9747c44e
f 1/1/1 2/2/2 3/3/3
f 3/3/3 4/4/4 1/1/1
f 5/5/5 6/6/6 7/7/7
f 7/7/7 8/8/8 5/5/5
f 9/9/9 10/10/10 11/11/11
f 11/11/11 12/12/12 9/9/9
f 9/9/9 12/12/12 13/13/13
f 12/12/12 14/14/14 13/13/13
f 13/13/13 14/14/14 15/15/15
f 14/14/14 16/16/16 15/15/15
f 16/16/16 14/14/14 45/45/45
f 15/15/15 16/16/16 17/17/17
f 16/16/16 18/18/18 17/17/17
f 45/45/45 46/46/46 16/16/16
f 19/19/19 20/20/20 21/21/21
f 21/21/21 22/22/22 19/19/19
f 23/23/23 24/24/24 25/25/25
f 25/25/25 26/26/26 23/23/23
f 23/23/23 26/26/26 27/27/27
f 26/26/26 28/28/28 27/27/27
f 27/27/27 28/28/28 29/29/29
f 27/27/27 29/29/29 51/51/51
f 51/51/51 52/52/52 27/27/27
f 28/28/28 30/30/30 29/29/29
f 29/29/29 30/30/30 31/31/31
f 30/30/30 32/32/32 31/31/31
f 33/33/33 34/34/34 35/35/35
f 35/35/35 36/36/36 33/33/33
f 37/37/37 38/38/38 39/39/39
f 39/39/39 40/40/40 37/37/37
f 41/41/41 42/42/42 43/43/43
f 43/43/43 44/44/44 41/41/41
f 47/47/47 48/48/48 49/49/49
f 49/49/49 50/50/50 47/47/47
f 53/53/53 54/54/54 55/55/55
f 55/55/55 56/56/56 53/53/53
f 57/57/57 58/58/58 59/59/59
f 59/59/59 60/60/60 57/57/57
f 61/61/61 62/62/62 63/63/63
f 63/63/63 64/64/64 61/61/61
f 65/65/65 66/66/66 67/67/67
f 67/67/67 68/68/68 65/65/65
f 69/69/69 70/70/70 71/71/71
f 71/71/71 72/72/72 69/69/69
