# Generated from Nova1492 GX by tools/nova1492/GxObjConverter
mtllib datan_common_superwattac_6a728d57.mtl
o datan_common_superwattac_6a728d57
v -0.529505 0.529505 -0.442891
v -0.529505 0.410309 -0.442891
v -0.529505 0.410309 0.442891
v -0.529505 0.529505 0.442891
v -0.341542 0.390855 -0.408078
v -0.341542 0.27277 -0.408078
v -0.341542 0.27277 0.408078
v -0.341542 0.390855 0.408078
v -0.524921 0.199424 -0.442042
v -0.524921 0.199424 0.442042
v -0.52492 -0.387387 -0.442042
v -0.52492 -0.387387 0.442042
v -0.217167 -0.500849 -0.385042
v -0.217167 -0.500849 0.385042
v -0.176671 -0.4152 -0.377542
v -0.176671 -0.4152 0.377542
v -0.059073 -0.415213 -0.355761
v -0.008328 -0.580208 -0.346363
v -0.008328 -0.580208 0.346363
v -0.059073 -0.415213 0.355761
v 0.40114 -0.735805 -0.270525
v 0.40114 -0.735805 0.270525
v 0.529505 -0.501998 -0.24675
v 0.529505 -0.501998 0.24675
v 0.176502 0.735805 -0.31213
v 0.350711 0.515752 -0.279865
v 0.18567 0.199424 -0.310432
v 0.185671 -0.226931 -0.310432
v 0.176502 0.735805 0.31213
v 0.350711 0.515752 0.279865
v 0.18567 0.199424 0.310432
v 0.185671 -0.226931 0.310432
v 0.529505 -0.501998 -0.24675
v 0.185671 -0.226931 -0.310432
v 0.185671 -0.226931 0.310432
v 0.529505 -0.501998 0.24675
v 0.185671 -0.226931 -0.310432
v 0.18567 0.199424 -0.310432
v 0.18567 0.199424 0.310432
v 0.185671 -0.226931 0.310432
v 0.18567 0.199424 -0.310432
v 0.350711 0.515752 -0.279865
v 0.350711 0.515752 0.279865
v 0.18567 0.199424 0.310432
v 0.350711 0.515752 -0.279865
v 0.176502 0.735805 -0.31213
v 0.176502 0.735805 0.31213
v 0.350711 0.515752 0.279865
v 0.176502 0.735805 -0.31213
v -0.529505 0.529505 -0.442891
v -0.529505 0.529505 0.442891
v 0.176502 0.735805 0.31213
v 0.183539 -0.074162 0.149641
v 0.359662 -0.087786 0.110692
v 0.359662 -0.087786 -0.110692
v 0.183539 -0.074162 -0.149641
v 0.183539 -0.231162 0.149641
v 0.359662 -0.217538 0.110692
v 0.359662 -0.087786 0.110692
v 0.183539 -0.074162 0.149641
v 0.359662 -0.217538 0.110692
v 0.359662 -0.217538 -0.110692
v 0.359662 -0.087786 0.110692
v 0.359662 -0.217538 -0.110692
v 0.183539 -0.231162 -0.149641
v 0.183539 -0.074162 -0.149641
v 0.359662 -0.087786 -0.110692
v 0.183539 -0.231162 -0.149641
v 0.183539 -0.231162 0.149641
v 0.183539 -0.074162 0.149641
v -0.585436 0.123772 0.551828
v -0.400747 0.086156 0.510182
v -0.400747 0.086156 -0.510182
v -0.585436 0.123772 -0.551828
v -0.585436 -0.25238 0.551828
v -0.400747 -0.214765 0.510182
v -0.400747 0.086156 0.510182
v -0.585436 0.123772 0.551828
v -0.400747 -0.214765 0.510182
v -0.400747 -0.214765 -0.510182
v -0.400747 0.086156 0.510182
v -0.400747 -0.214765 -0.510182
v -0.585436 -0.25238 -0.551828
v -0.585436 0.123772 -0.551828
v -0.400747 0.086156 -0.510182
v -0.585436 -0.25238 -0.551828
v -0.585436 -0.25238 0.551828
v -0.585436 0.123772 0.551828
vt 0.008055 0.840565
vt 0.008054 0.77749
vt 0.008054 0.77749
vt 0.011883 0.840565
vt 0.09394 0.749383
vt 0.09394 0.68704
vt 0.09394 0.68704
vt 0.090112 0.749383
vt 0.013977 0.638805
vt 0.013977 0.638805
vt 0.013977 0.252898
vt 0.013977 0.252898
vt 0.146942 0.178281
vt 0.146942 0.178281
vt 0.165446 0.219294
vt 0.165446 0.219294
vt 0.226836 0.219285
vt 0.242367 0.126092
vt 0.242367 0.126092
vt 0.21918 0.219285
vt 0.429464 0.023765
vt 0.429464 0.023765
vt 0.488117 0.162212
vt 0.488117 0.162212
vt 0.326821 0.976235
vt 0.406422 0.846832
vt 0.33101 0.638804
vt 0.33101 0.358419
vt 0.326821 0.976235
vt 0.406422 0.846832
vt 0.33101 0.638804
vt 0.33101 0.358419
vt 0.988118 0.101262
vt 0.511883 0.023515
vt 0.511883 0.476485
vt 0.988118 0.397606
vt 0.512974 0.023516
vt 0.988359 0.104623
vt 0.988359 0.397642
vt 0.512974 0.476485
vt 0.511883 0.023515
vt 0.988117 0.104315
vt 0.988117 0.399082
vt 0.511883 0.476485
vt 0.988359 0.107181
vt 0.511641 0.023281
vt 0.511641 0.476719
vt 0.988359 0.397235
vt 0.988117 0.407356
vt 0.511883 0.476485
vt 0.511883 0.023515
vt 0.988117 0.092644
vt 0.761641 0.523281
vt 0.988359 0.523281
vt 0.988359 0.976719
vt 0.761641 0.976719
vt 0.761641 0.523281
vt 0.988359 0.523281
vt 0.988359 0.976719
vt 0.761641 0.976719
vt 0.761641 0.523281
vt 0.988359 0.523281
vt 0.761641 0.976719
vt 0.761641 0.523281
vt 0.988359 0.523281
vt 0.988359 0.976719
vt 0.761641 0.976719
vt 0.761641 0.523281
vt 0.988359 0.523281
vt 0.988359 0.976719
vt 0.761641 0.523281
vt 0.988359 0.523281
vt 0.988359 0.976719
vt 0.761641 0.976719
vt 0.761641 0.523281
vt 0.988359 0.523281
vt 0.988359 0.976719
vt 0.761641 0.976719
vt 0.761641 0.523281
vt 0.988359 0.523281
vt 0.761641 0.976719
vt 0.761641 0.523281
vt 0.988359 0.523281
vt 0.988359 0.976719
vt 0.761641 0.976719
vt 0.761641 0.523281
vt 0.988359 0.523281
vt 0.988359 0.976719
vn -0.639486 0.000001 -0.768803
vn -0.639486 0.000001 -0.768803
vn -0.879578 0.000001 0.475755
vn -0.307616 0.000001 0.951511
vn -0.216343 -0.000001 -0.976317
vn -0.324642 0.50389 -0.800439
vn -0.508241 0.258567 0.821483
vn -0.018187 -0 0.999835
vn -0.678226 0.313741 -0.664512
vn -0.454087 0.611695 0.647792
vn -0.438864 -0.620319 -0.650079
vn -0.672832 -0.318564 0.667693
vn 0.62661 -0.683339 -0.374711
vn 0.155498 -0.908555 0.387749
vn 0.319833 -0.068467 -0.944997
vn 0.43755 -0.128949 0.8899
vn -0.601985 -0.228725 -0.765048
vn -0.292727 -0.565515 -0.771041
vn -0.460148 -0.40725 0.78893
vn -0.285165 -0.141703 0.947946
vn 0.594529 -0.713899 -0.369979
vn 0.135411 -0.914054 0.382321
vn 0.522541 -0.202672 -0.828175
vn 0.695175 -0.316011 0.645654
vn 0.182114 0 -0.983277
vn 0.182114 -0 -0.983277
vn 0.182114 -0 -0.983277
vn 0.182114 0 -0.983277
vn 0.182114 0 0.983277
vn 0.182114 0 0.983277
vn 0.182114 -0 0.983277
vn 0.182114 -0 0.983277
vn 0.624695 0.780869 0
vn 0.624695 0.780869 0
vn 0.624695 0.780869 0
vn 0.624695 0.780869 0
vn 1 0.000001 0
vn 1 0.000001 0
vn 1 0.000001 0
vn 1 0.000001 0
vn 0.886585 -0.462566 0
vn 0.886585 -0.462566 0
vn 0.886585 -0.462566 0
vn 0.886585 -0.462566 0
vn 0.784046 0.620703 0
vn 0.784046 0.620703 0
vn 0.784046 0.620703 0
vn 0.784046 0.620703 0
vn -0.280479 0.95986 0
vn -0.280479 0.95986 0
vn -0.280479 0.95986 0
vn -0.280479 0.95986 0
vn 0.077125 0.997021 0
vn 0.077125 0.997021 0
vn 0.733868 0.679292 0
vn -0.679292 0.733868 0
vn 0.215932 -0 0.976408
vn 0.215932 0 0.976408
vn 0.215932 -0 0.976408
vn 0.215932 -0 0.976408
vn 1 0 0
vn 1 0 0
vn 1 0 0
vn 0.215932 -0 -0.976408
vn 0.215932 -0 -0.976408
vn 0.215932 -0 -0.976408
vn 0.215932 0 -0.976408
vn -1 0 0
vn -1 0 0
vn -1 0 0
vn 0.19957 0.979884 0
vn 0.19957 0.979884 0
vn 0.774458 0.632626 0
vn -0.632626 0.774458 0
vn 0.219971 0 0.975507
vn 0.219971 0 0.975507
vn 0.219971 0 0.975507
vn 0.219971 0 0.975507
vn 1 0 0
vn 1 0 0
vn 1 0 0
vn 0.219971 0 -0.975507
vn 0.219971 0 -0.975507
vn 0.219971 0 -0.975507
vn 0.219971 0 -0.975507
vn -1 -0 0
vn -1 -0 0
vn -1 -0 0
usemtl datan_common_superwattac_6a728d57
f 1/1/1 2/2/2 3/3/3
f 1/1/1 3/3/3 4/4/4
f 5/5/5 6/6/6 7/7/7
f 5/5/5 7/7/7 8/8/8
f 6/6/6 9/9/9 10/10/10
f 6/6/6 10/10/10 7/7/7
f 9/9/9 11/11/11 12/12/12
f 9/9/9 12/12/12 10/10/10
f 11/11/11 13/13/13 14/14/14
f 11/11/11 14/14/14 12/12/12
f 13/13/13 15/15/15 16/16/16
f 13/13/13 16/16/16 14/14/14
f 17/17/17 18/18/18 19/19/19
f 17/17/17 19/19/19 20/20/20
f 18/18/18 21/21/21 22/22/22
f 18/18/18 22/22/22 19/19/19
f 21/21/21 23/23/23 24/24/24
f 21/21/21 24/24/24 22/22/22
f 11/11/11 15/15/15 13/13/13
f 9/9/9 15/15/15 11/11/11
f 6/6/6 15/15/15 9/9/9
f 1/1/1 5/5/5 2/2/2
f 25/25/25 5/5/5 1/1/1
f 26/26/26 5/5/5 25/25/25
f 27/27/27 5/5/5 26/26/26
f 27/27/27 6/6/6 5/5/5
f 27/27/27 15/15/15 6/6/6
f 28/28/28 15/15/15 27/27/27
f 28/28/28 17/17/17 15/15/15
f 18/18/18 23/23/23 21/21/21
f 18/18/18 28/28/28 23/23/23
f 18/18/18 17/17/17 28/28/28
f 12/12/12 14/14/14 16/16/16
f 10/10/10 12/12/12 16/16/16
f 7/7/7 10/10/10 16/16/16
f 4/4/4 3/3/3 8/8/8
f 29/29/29 4/4/4 8/8/8
f 30/30/30 29/29/29 8/8/8
f 31/31/31 30/30/30 8/8/8
f 31/31/31 8/8/8 7/7/7
f 31/31/31 7/7/7 16/16/16
f 32/32/32 31/31/31 16/16/16
f 32/32/32 16/16/16 20/20/20
f 19/19/19 22/22/22 24/24/24
f 19/19/19 24/24/24 32/32/32
f 19/19/19 32/32/32 20/20/20
f 33/33/33 34/34/34 35/35/35
f 33/33/33 35/35/35 36/36/36
f 37/37/37 38/38/38 39/39/39
f 37/37/37 39/39/39 40/40/40
f 41/41/41 42/42/42 43/43/43
f 41/41/41 43/43/43 44/44/44
f 45/45/45 46/46/46 47/47/47
f 45/45/45 47/47/47 48/48/48
f 49/49/49 50/50/50 51/51/51
f 49/49/49 51/51/51 52/52/52
f 53/53/53 54/54/54 55/55/55
f 55/55/55 56/56/56 53/53/53
f 57/57/57 58/58/58 59/59/59
f 59/59/59 60/60/60 57/57/57
f 61/61/61 62/62/62 55/55/55
f 55/55/55 63/63/63 61/61/61
f 64/64/64 65/65/65 66/66/66
f 66/66/66 67/67/67 64/64/64
f 68/68/68 69/69/69 70/70/70
f 70/70/70 56/56/56 68/68/68
f 71/71/71 72/72/72 73/73/73
f 73/73/73 74/74/74 71/71/71
f 75/75/75 76/76/76 77/77/77
f 77/77/77 78/78/78 75/75/75
f 79/79/79 80/80/80 73/73/73
f 73/73/73 81/81/81 79/79/79
f 82/82/82 83/83/83 84/84/84
f 84/84/84 85/85/85 82/82/82
f 86/86/86 87/87/87 88/88/88
