# Generated from Nova1492 GX by tools/nova1492/GxObjConverter
mtllib datan_common_delayUp_4af4851a.mtl
o datan_common_delayUp_4af4851a_mesh00
v -1.4 -0.204933 1.988861
v 1.4 -0.204933 1.988861
v 1.4 2.595067 1.988861
v -1.4 2.595067 1.988861
vt 0.755941 0.511883
vt 0.994059 0.511883
vt 0.994059 0.988117
vt 0.755941 0.988118
vn 0 0 1
vn -0 0 1
vn 0 0 1
vn 0 0 1
usemtl datan_common_delayUp_4af4851a
f 1/1/1 2/2/2 3/3/3
f 3/3/3 4/4/4 1/1/1
o datan_common_delayUp_4af4851a_mesh01
v -0.152831 -0.000527 -0
v 0.152831 -0.000527 -0
v 0.152831 1.96993 0.000055
v -0.152831 1.96993 0.000055
vt 0.630879 0.511883
vt 0.744121 0.511883
vt 0.744121 0.988117
vt 0.630879 0.988118
vn 0 -0.000028 1
vn 0 -0.000028 1
vn 0 -0.000028 1
vn 0 -0.000028 1
usemtl datan_common_delayUp_4af4851a
f 5/5/5 6/6/6 7/7/7
f 7/7/7 8/8/8 5/5/5
o datan_common_delayUp_4af4851a_mesh02
v -0.152831 -0.000622 -0
v 0.152831 -0.000622 -0
v 0.152831 2.327663 0.000055
v -0.152831 2.327663 0.000055
vt 0.755879 0.011883
vt 0.869121 0.011883
vt 0.869121 0.488117
vt 0.755879 0.488118
vn 0 -0.000024 1
vn 0 -0.000024 1
vn 0 -0.000024 1
vn 0 -0.000024 1
usemtl datan_common_delayUp_4af4851a
f 9/9/9 10/10/10 11/11/11
f 11/11/11 12/12/12 9/9/9
o datan_common_delayUp_4af4851a_mesh03
v -0.152831 -0.00059 -0
v 0.152831 -0.00059 -0
v 0.152831 2.20682 0.000047
v -0.152831 2.20682 0.000047
vt 0.880879 0.011883
vt 0.994121 0.011883
vt 0.994121 0.488117
vt 0.880879 0.488118
vn 0 -0.000021 1
vn 0 -0.000021 1
vn 0 -0.000021 1
vn 0 -0.000021 1
usemtl datan_common_delayUp_4af4851a
f 13/13/13 14/14/14 15/15/15
f 15/15/15 16/16/16 13/13/13
o datan_common_delayUp_4af4851a_mesh04
v -0.152831 -0.000609 -0
v 0.152831 -0.000609 -0
v 0.152831 2.277791 0.000031
v -0.152831 2.277791 0.000031
vt 0.880879 0.011883
vt 0.994121 0.011883
vt 0.994121 0.488117
vt 0.880879 0.488118
vn 0 -0.000014 1
vn 0 -0.000014 1
vn 0 -0.000014 1
vn 0 -0.000014 1
usemtl datan_common_delayUp_4af4851a
f 17/17/17 18/18/18 19/19/19
f 19/19/19 20/20/20 17/17/17
o datan_common_delayUp_4af4851a_mesh05
v -0.152831 -0.000746 -0
v 0.152831 -0.000746 -0
v 0.152831 2.788542 0.000055
v -0.152831 2.788542 0.000055
vt 0.630879 0.511883
vt 0.744121 0.511883
vt 0.744121 0.988117
vt 0.630879 0.988118
vn 0 -0.00002 1
vn 0 -0.00002 1
vn 0 -0.00002 1
vn 0 -0.00002 1
usemtl datan_common_delayUp_4af4851a
f 21/21/21 22/22/22 23/23/23
f 23/23/23 24/24/24 21/21/21
o datan_common_delayUp_4af4851a_mesh06
v -0.152831 -0.000651 -0
v 0.152831 -0.000651 -0
v 0.152831 2.436037 0.000042
v -0.152831 2.436037 0.000042
vt 0.755879 0.011883
vt 0.869121 0.011883
vt 0.869121 0.488117
vt 0.755879 0.488118
vn 0 -0.000017 1
vn 0 -0.000017 1
vn 0 -0.000017 1
vn 0 -0.000017 1
usemtl datan_common_delayUp_4af4851a
f 25/25/25 26/26/26 27/27/27
f 27/27/27 28/28/28 25/25/25
o datan_common_delayUp_4af4851a_mesh07
v -0.152831 -0.000595 -0
v 0.152831 -0.000595 -0
v 0.152831 2.224083 0.000053
v -0.152831 2.224083 0.000053
vt 0.505879 0.511883
vt 0.619121 0.511883
vt 0.619121 0.988117
vt 0.505879 0.988118
vn 0 -0.000024 1
vn 0 -0.000024 1
vn 0 -0.000024 1
vn 0 -0.000024 1
usemtl datan_common_delayUp_4af4851a
f 29/29/29 30/30/30 31/31/31
f 31/31/31 32/32/32 29/29/29
o datan_common_delayUp_4af4851a_mesh08
v -0.152831 -0.00053 -0
v 0.152831 -0.00053 -0
v 0.152831 1.981438 0.000058
v -0.152831 1.981438 0.000058
vt 0.505879 0.511883
vt 0.619121 0.511883
vt 0.619121 0.988117
vt 0.505879 0.988118
vn 0 -0.000029 1
vn 0 -0.000029 1
vn 0 -0.000029 1
vn 0 -0.000029 1
usemtl datan_common_delayUp_4af4851a
f 33/33/33 34/34/34 35/35/35
f 35/35/35 36/36/36 33/33/33
