# Generated from Nova1492 GX by tools/nova1492/GxObjConverter
mtllib datan_common_powerac1_ba771092.mtl
o datan_common_powerac1_ba771092_mesh00
v -0.160346 1.033296 0.398095
v 0.160346 1.033296 0.398095
v 0.094879 1.033296 -0.261808
v -0.094879 1.033296 -0.261808
v -0.160346 0 0.398095
v 0.160346 0 0.398095
v 0.094879 0 -0.261808
v -0.094879 0 -0.261808
v 0.15821 0.193261 0.334604
v 0.245151 0.319781 0.461124
v 0.245151 0.193261 0.51353
v 0.245151 0.372188 0.334604
v 0.245151 0.319781 0.208084
v 0.245151 0.193261 0.155677
v 0.245151 0.066741 0.208084
v 0.245151 0.014335 0.334604
v 0.245151 0.066741 0.461124
v 0.00215 0.413031 0.554374
v 0.00215 0.193261 0.645405
v 0.00215 0.504063 0.334604
v 0.00215 0.413031 0.114834
v 0.00215 0.193261 0.023802
v 0.00215 -0.026509 0.114834
v 0.00215 -0.117541 0.334604
v 0.00215 -0.026509 0.554374
v -0.24085 0.319781 0.461124
v -0.24085 0.193261 0.51353
v -0.24085 0.372188 0.334604
v -0.24085 0.319781 0.208084
v -0.24085 0.193261 0.155677
v -0.24085 0.066741 0.208084
v -0.24085 0.014335 0.334604
v -0.24085 0.066741 0.461124
v -0.153909 0.193261 0.334604
vt 0.988117 0.983891
vt 0.988117 0.983891
vt 0.511883 0.983891
vt 0.511883 0.976235
vt 0.988117 0.023765
vt 0.988117 0.023765
vt 0.511883 0.023765
vt 0.511883 0.023765
vt 0.253828 0.507656
vt 0.344662 0.689325
vt 0.385458 0.507656
vt 0.246172 0.770917
vt 0.147682 0.689325
vt 0.106886 0.507656
vt 0.147682 0.310676
vt 0.246172 0.229083
vt 0.344662 0.310675
vt 0.417253 0.834506
vt 0.488117 0.507656
vt 0.246172 0.976235
vt 0.082747 0.849819
vt 0.011883 0.507656
vt 0.075091 0.165494
vt 0.246172 0.023765
vt 0.417253 0.150181
vt 0.344662 0.689325
vt 0.385458 0.507656
vt 0.246172 0.770917
vt 0.147682 0.704637
vt 0.106886 0.507656
vt 0.147682 0.310676
vt 0.246172 0.229083
vt 0.344662 0.295363
vt 0.246172 0.507656
vn -0.678461 0.681792 0.273588
vn 0.420321 0.422384 0.80307
vn 0.649318 0.652506 -0.39067
vn -0.393511 0.395443 -0.829924
vn -0.463717 0 0.885983
vn 0.927434 0 0.373986
vn 0.428432 0 -0.903574
vn -0.856864 0 -0.515542
vn 1 -0 0
vn 0.883276 0.392952 0.255757
vn 0.883276 0.097011 0.458707
vn 0.883277 0.458706 -0.097011
vn 0.883277 0.255757 -0.392952
vn 0.883277 -0.097011 -0.458706
vn 0.883277 -0.392952 -0.255757
vn 0.883277 -0.458706 0.097011
vn 0.883277 -0.255757 0.392952
vn -0 0.707107 0.707107
vn 0 0 1
vn -0 1 -0
vn -0 0.707107 -0.707107
vn 0 -0 -1
vn 0 -0.707107 -0.707107
vn -0 -1 0
vn 0 -0.707107 0.707107
vn -0.883277 0.255757 0.392952
vn -0.883277 -0.097011 0.458706
vn -0.883277 0.458706 0.097011
vn -0.883277 0.392951 -0.255757
vn -0.883277 0.097011 -0.458706
vn -0.883277 -0.255757 -0.392951
vn -0.883277 -0.458706 -0.097011
vn -0.883277 -0.392952 0.255757
vn -1 -0 0
usemtl datan_common_powerac1_ba771092
f 1/1/1 2/2/2 3/3/3
f 3/3/3 4/4/4 1/1/1
f 5/5/5 6/6/6 2/2/2
f 2/2/2 1/1/1 5/5/5
f 6/6/6 7/7/7 3/3/3
f 3/3/3 2/2/2 6/6/6
f 7/7/7 8/8/8 4/4/4
f 4/4/4 3/3/3 7/7/7
f 8/8/8 5/5/5 1/1/1
f 1/1/1 4/4/4 8/8/8
f 9/9/9 10/10/10 11/11/11
f 9/9/9 12/12/12 10/10/10
f 9/9/9 13/13/13 12/12/12
f 9/9/9 14/14/14 13/13/13
f 9/9/9 15/15/15 14/14/14
f 9/9/9 16/16/16 15/15/15
f 9/9/9 17/17/17 16/16/16
f 9/9/9 11/11/11 17/17/17
f 11/11/11 18/18/18 19/19/19
f 11/11/11 10/10/10 18/18/18
f 10/10/10 20/20/20 18/18/18
f 10/10/10 12/12/12 20/20/20
f 12/12/12 21/21/21 20/20/20
f 12/12/12 13/13/13 21/21/21
f 13/13/13 22/22/22 21/21/21
f 13/13/13 14/14/14 22/22/22
f 14/14/14 23/23/23 22/22/22
f 14/14/14 15/15/15 23/23/23
f 15/15/15 24/24/24 23/23/23
f 15/15/15 16/16/16 24/24/24
f 16/16/16 25/25/25 24/24/24
f 16/16/16 17/17/17 25/25/25
f 17/17/17 19/19/19 25/25/25
f 17/17/17 11/11/11 19/19/19
f 19/19/19 26/26/26 27/27/27
f 19/19/19 18/18/18 26/26/26
f 18/18/18 28/28/28 26/26/26
f 18/18/18 20/20/20 28/28/28
f 20/20/20 29/29/29 28/28/28
f 20/20/20 21/21/21 29/29/29
f 21/21/21 30/30/30 29/29/29
f 21/21/21 22/22/22 30/30/30
f 22/22/22 31/31/31 30/30/30
f 22/22/22 23/23/23 31/31/31
f 23/23/23 32/32/32 31/31/31
f 23/23/23 24/24/24 32/32/32
f 24/24/24 33/33/33 32/32/32
f 24/24/24 25/25/25 33/33/33
f 25/25/25 27/27/27 33/33/33
f 25/25/25 19/19/19 27/27/27
f 34/34/34 27/27/27 26/26/26
f 34/34/34 26/26/26 28/28/28
f 34/34/34 28/28/28 29/29/29
f 34/34/34 29/29/29 30/30/30
f 34/34/34 30/30/30 31/31/31
f 34/34/34 31/31/31 32/32/32
f 34/34/34 32/32/32 33/33/33
f 34/34/34 33/33/33 27/27/27
o datan_common_powerac1_ba771092_mesh01
v -0.197226 0.16613 0.470145
v -0.075904 0.16613 -0.468749
v 0.075904 0.16613 -0.468749
v 0.197226 0.16613 0.470145
v -0.197226 1.086223 0.470145
v 0.197226 1.086223 0.470145
v 0.075904 1.086223 -0.468749
v -0.075904 1.086223 -0.468749
vt 0.48407 0.757517
vt 0.26593 0.757517
vt 0.26593 0.757517
vt 0.48407 0.759431
vt 0.48407 0.992483
vt 0.48407 0.992483
vt 0.26593 0.992483
vt 0.26593 0.994397
vn -0.340422 -0.686504 0.642515
vn -0.777243 -0.391852 -0.492286
vn 0.321554 -0.648455 -0.690006
vn 0.846742 -0.426891 0.317477
vn -0.680843 0.686504 0.255274
vn 0.423371 0.426891 0.799075
vn 0.643109 0.648455 -0.407329
vn -0.388621 0.391852 -0.833922
usemtl datan_common_powerac1_ba771092
f 35/35/35 36/36/36 37/37/37
f 37/37/37 38/38/38 35/35/35
f 39/39/39 40/40/40 41/41/41
f 41/41/41 42/42/42 39/39/39
f 35/35/35 38/38/38 40/40/40
f 40/40/40 39/39/39 35/35/35
f 38/38/38 37/37/37 41/41/41
f 41/41/41 40/40/40 38/38/38
f 37/37/37 36/36/36 42/42/42
f 42/42/42 41/41/41 37/37/37
f 36/36/36 35/35/35 39/39/39
f 39/39/39 42/42/42 36/36/36
