# Generated from Nova1492 GX by tools/nova1492/GxObjConverter
mtllib datan_common_delaydown_87651683.mtl
o datan_common_delaydown_87651683_mesh00
v -0.007242 0 -0.007242
v -0.007242 0 0.007242
v 0.007242 0 -0.007242
v 0.007242 0 0.007242
vt 0 1
vt 0 1
vt 0 1
vt 0 1
vn -0 1 0
vn 0 1 0
vn 0 1 0
vn 0 1 0
usemtl datan_common_delaydown_87651683
f 1/1/1 2/2/2 3/3/3
f 4/4/4 3/3/3 2/2/2
o datan_common_delaydown_87651683_mesh01
v 0.030568 0 -0.083985
v -0.083985 0 -0.030568
v 0.083985 0 0.030568
v -0.030568 0 0.083985
vt 0 1
vt 0 0
vt 1 1
vt 1 0
vn 0 1 -0
vn 0 1 0
vn 0 1 0
vn 0 1 0
usemtl datan_common_delaydown_87651683
f 5/5/5 6/6/6 7/7/7
f 8/8/8 7/7/7 6/6/6
o datan_common_delaydown_87651683_mesh02
v 0.025626 0 -0.145334
v -0.145334 0 -0.025626
v 0.145334 0 0.025626
v -0.025626 0 0.145334
vt 0 1
vt 0 0
vt 1 1
vt 1 0
vn 0 1 -0
vn 0 1 0
vn 0 1 0
vn 0 1 0
usemtl datan_common_delaydown_87651683
f 9/9/9 10/10/10 11/11/11
f 12/12/12 11/11/11 10/10/10
o datan_common_delaydown_87651683_mesh03
v -0.037314 0 -0.053291
v -0.053291 0 0.037314
v 0.053291 0 -0.037314
v 0.037314 0 0.053291
vt 0 1
vt 0 0
vt 1 1
vt 1 0
vn -0 1 -0
vn 0 1 0
vn 0 1 0
vn 0 1 0
usemtl datan_common_delaydown_87651683
f 13/13/13 14/14/14 15/15/15
f 16/16/16 15/15/15 14/14/14
o datan_common_delaydown_87651683_mesh04
v -0.065138 0 -0.065138
v -0.065138 0 0.065138
v 0.065138 0 -0.065138
v 0.065138 0 0.065138
vt 0 1
vt 0 0
vt 1 1
vt 1 0
vn -0 1 0
vn 0 1 0
vn 0 1 0
vn 0 1 0
usemtl datan_common_delaydown_87651683
f 17/17/17 18/18/18 19/19/19
f 20/20/20 19/19/19 18/18/18
o datan_common_delaydown_87651683_mesh05
v -0.029609 0 -0.110502
v -0.110502 0 0.029609
v 0.110502 0 -0.029609
v 0.029609 0 0.110502
vt 0 1
vt 0 0
vt 1 1
vt 1 0
vn -0 1 -0
vn 0 1 0
vn 0 1 0
vn 0 1 0
usemtl datan_common_delaydown_87651683
f 21/21/21 22/22/22 23/23/23
f 24/24/24 23/23/23 22/22/22
o datan_common_delaydown_87651683_mesh06
v -0.094354 0 0.034342
v 0.034342 0 0.094354
v -0.034342 0 -0.094354
v 0.094354 0 -0.034342
vt 0 1
vt 0 0
vt 1 1
vt 1 0
vn -0 1 0
vn 0 1 -0
vn 0 1 -0
vn 0 1 -0
usemtl datan_common_delaydown_87651683
f 25/25/25 26/26/26 27/27/27
f 28/28/28 27/27/27 26/26/26
o datan_common_delaydown_87651683_mesh07
v -0.084389 0 -0.030715
v -0.030715 0 0.084389
v 0.030715 0 -0.084389
v 0.084389 0 0.030715
vt 0 1
vt 0 0
vt 1 1
vt 1 0
vn -0 1 0
vn 0 1 0
vn 0 1 0
vn 0 1 0
usemtl datan_common_delaydown_87651683
f 29/29/29 30/30/30 31/31/31
f 32/32/32 31/31/31 30/30/30
o datan_common_delaydown_87651683_mesh08
v 0.016117 0 -0.091405
v -0.091405 0 -0.016117
v 0.091405 0 0.016117
v -0.016117 0 0.091405
vt 0 1
vt 0 0
vt 1 1
vt 1 0
vn 0 1 -0
vn 0 1 0
vn 0 1 0
vn 0 1 0
usemtl datan_common_delaydown_87651683
f 33/33/33 34/34/34 35/35/35
f 36/36/36 35/35/35 34/34/34
o datan_common_delaydown_87651683_mesh09
v -0.139751 0 0.050865
v 0.050865 0 0.139751
v -0.050865 0 -0.139751
v 0.139751 0 -0.050865
vt 0 1
vt 0 0
vt 1 1
vt 1 0
vn -0 1 0
vn 0 1 -0
vn 0 1 -0
vn 0 1 -0
usemtl datan_common_delaydown_87651683
f 37/37/37 38/38/38 39/39/39
f 40/40/40 39/39/39 38/38/38
o datan_common_delaydown_87651683_mesh10
v 0.009158 0 -0.104671
v -0.104671 0 -0.009158
v 0.104671 0 0.009158
v -0.009158 0 0.104671
vt 0 1
vt 0 0
vt 1 1
vt 1 0
vn 0 1 -0
vn 0 1 0
vn 0 1 0
vn 0 1 0
usemtl datan_common_delaydown_87651683
f 41/41/41 42/42/42 43/43/43
f 44/44/44 43/43/43 42/42/42
o datan_common_delaydown_87651683_mesh11
v -0.087399 0 -0.007646
v -0.007646 0 0.087399
v 0.007646 0 -0.087399
v 0.087399 0 0.007646
vt 0 1
vt 0 0
vt 1 1
vt 1 0
vn -0 1 0
vn 0 1 0
vn 0 1 0
vn 0 1 0
usemtl datan_common_delaydown_87651683
f 45/45/45 46/46/46 47/47/47
f 48/48/48 47/47/47 46/46/46
o datan_common_delaydown_87651683_mesh12
v -0.129287 0 -0.034642
v -0.034642 0 0.129287
v 0.034642 0 -0.129287
v 0.129287 0 0.034642
vt 0 1
vt 0 0
vt 1 1
vt 1 0
vn -0 1 0
vn 0 1 0
vn 0 1 0
vn 0 1 0
usemtl datan_common_delaydown_87651683
f 49/49/49 50/50/50 51/51/51
f 52/52/52 51/51/51 50/50/50
o datan_common_delaydown_87651683_mesh13
v -0.125035 0 -0
v 0 0 0.125035
v 0 0 -0.125035
v 0.125035 0 -0
vt 0 1
vt 0 0
vt 1 1
vt 1 0
vn -0 1 0
vn 0 1 -0
vn 0 1 -0
vn 0 1 -0
usemtl datan_common_delaydown_87651683
f 53/53/53 54/54/54 55/55/55
f 56/56/56 55/55/55 54/54/54
o datan_common_delaydown_87651683_mesh14
v -0.021347 0 -0.121066
v -0.121066 0 0.021347
v 0.121066 0 -0.021347
v 0.021347 0 0.121066
vt 0 1
vt 0 0
vt 1 1
vt 1 0
vn -0 1 -0
vn 0 1 0
vn 0 1 0
vn 0 1 0
usemtl datan_common_delaydown_87651683
f 57/57/57 58/58/58 59/59/59
f 60/60/60 59/59/59 58/58/58
o datan_common_delaydown_87651683_mesh15
v -0.007242 0 -0.007242
v -0.007242 0 0.007242
v 0.007242 0 -0.007242
v 0.007242 0 0.007242
vt 0 1
vt 0 1
vt 0 1
vt 0 1
vn -0 1 0
vn 0 1 0
vn 0 1 0
vn 0 1 0
usemtl datan_common_delaydown_87651683
f 61/61/61 62/62/62 63/63/63
f 64/64/64 63/63/63 62/62/62
o datan_common_delaydown_87651683_mesh16
v 0.030568 0 -0.083985
v -0.083985 0 -0.030568
v 0.083985 0 0.030568
v -0.030568 0 0.083985
vt 0 1
vt 0 0
vt 1 1
vt 1 0
vn 0 1 -0
vn 0 1 0
vn 0 1 0
vn 0 1 0
usemtl datan_common_delaydown_87651683
f 65/65/65 66/66/66 67/67/67
f 68/68/68 67/67/67 66/66/66
o datan_common_delaydown_87651683_mesh17
v 0.025626 0 -0.145334
v -0.145334 0 -0.025626
v 0.145334 0 0.025626
v -0.025626 0 0.145334
vt 0 1
vt 0 0
vt 1 1
vt 1 0
vn 0 1 -0
vn 0 1 0
vn 0 1 0
vn 0 1 0
usemtl datan_common_delaydown_87651683
f 69/69/69 70/70/70 71/71/71
f 72/72/72 71/71/71 70/70/70
o datan_common_delaydown_87651683_mesh18
v -0.037314 0 -0.053291
v -0.053291 0 0.037314
v 0.053291 0 -0.037314
v 0.037314 0 0.053291
vt 0 1
vt 0 0
vt 1 1
vt 1 0
vn -0 1 -0
vn 0 1 0
vn 0 1 0
vn 0 1 0
usemtl datan_common_delaydown_87651683
f 73/73/73 74/74/74 75/75/75
f 76/76/76 75/75/75 74/74/74
o datan_common_delaydown_87651683_mesh19
v -0.065138 0 -0.065138
v -0.065138 0 0.065138
v 0.065138 0 -0.065138
v 0.065138 0 0.065138
vt 0 1
vt 0 0
vt 1 1
vt 1 0
vn -0 1 0
vn 0 1 0
vn 0 1 0
vn 0 1 0
usemtl datan_common_delaydown_87651683
f 77/77/77 78/78/78 79/79/79
f 80/80/80 79/79/79 78/78/78
o datan_common_delaydown_87651683_mesh20
v -0.029609 0 -0.110502
v -0.110502 0 0.029609
v 0.110502 0 -0.029609
v 0.029609 0 0.110502
vt 0 1
vt 0 0
vt 1 1
vt 1 0
vn -0 1 -0
vn 0 1 0
vn 0 1 0
vn 0 1 0
usemtl datan_common_delaydown_87651683
f 81/81/81 82/82/82 83/83/83
f 84/84/84 83/83/83 82/82/82
o datan_common_delaydown_87651683_mesh21
v -0.094354 0 0.034342
v 0.034342 0 0.094354
v -0.034342 0 -0.094354
v 0.094354 0 -0.034342
vt 0 1
vt 0 0
vt 1 1
vt 1 0
vn -0 1 0
vn 0 1 -0
vn 0 1 -0
vn 0 1 -0
usemtl datan_common_delaydown_87651683
f 85/85/85 86/86/86 87/87/87
f 88/88/88 87/87/87 86/86/86
o datan_common_delaydown_87651683_mesh22
v 0.016117 0 -0.091405
v -0.091405 0 -0.016117
v 0.091405 0 0.016117
v -0.016117 0 0.091405
vt 0 1
vt 0 0
vt 1 1
vt 1 0
vn 0 1 -0
vn 0 1 0
vn 0 1 0
vn 0 1 0
usemtl datan_common_delaydown_87651683
f 89/89/89 90/90/90 91/91/91
f 92/92/92 91/91/91 90/90/90
o datan_common_delaydown_87651683_mesh23
v -0.139751 0 0.050865
v 0.050865 0 0.139751
v -0.050865 0 -0.139751
v 0.139751 0 -0.050865
vt 0 1
vt 0 0
vt 1 1
vt 1 0
vn -0 1 0
vn 0 1 -0
vn 0 1 -0
vn 0 1 -0
usemtl datan_common_delaydown_87651683
f 93/93/93 94/94/94 95/95/95
f 96/96/96 95/95/95 94/94/94
o datan_common_delaydown_87651683_mesh24
v 0.009158 0 -0.104671
v -0.104671 0 -0.009158
v 0.104671 0 0.009158
v -0.009158 0 0.104671
vt 0 1
vt 0 0
vt 1 1
vt 1 0
vn 0 1 -0
vn 0 1 0
vn 0 1 0
vn 0 1 0
usemtl datan_common_delaydown_87651683
f 97/97/97 98/98/98 99/99/99
f 100/100/100 99/99/99 98/98/98
o datan_common_delaydown_87651683_mesh25
v -0.087399 0 -0.007646
v -0.007646 0 0.087399
v 0.007646 0 -0.087399
v 0.087399 0 0.007646
vt 0 1
vt 0 0
vt 1 1
vt 1 0
vn -0 1 0
vn 0 1 0
vn 0 1 0
vn 0 1 0
usemtl datan_common_delaydown_87651683
f 101/101/101 102/102/102 103/103/103
f 104/104/104 103/103/103 102/102/102
o datan_common_delaydown_87651683_mesh26
v -0.129287 0 -0.034642
v -0.034642 0 0.129287
v 0.034642 0 -0.129287
v 0.129287 0 0.034642
vt 0 1
vt 0 0
vt 1 1
vt 1 0
vn -0 1 0
vn 0 1 0
vn 0 1 0
vn 0 1 0
usemtl datan_common_delaydown_87651683
f 105/105/105 106/106/106 107/107/107
f 108/108/108 107/107/107 106/106/106
o datan_common_delaydown_87651683_mesh27
v -0.125035 0 -0
v 0 0 0.125035
v 0 0 -0.125035
v 0.125035 0 -0
vt 0 1
vt 0 0
vt 1 1
vt 1 0
vn -0 1 0
vn 0 1 -0
vn 0 1 -0
vn 0 1 -0
usemtl datan_common_delaydown_87651683
f 109/109/109 110/110/110 111/111/111
f 112/112/112 111/111/111 110/110/110
o datan_common_delaydown_87651683_mesh28
v -0.021347 0 -0.121066
v -0.121066 0 0.021347
v 0.121066 0 -0.021347
v 0.021347 0 0.121066
vt 0 1
vt 0 0
vt 1 1
vt 1 0
vn -0 1 -0
vn 0 1 0
vn 0 1 0
vn 0 1 0
usemtl datan_common_delaydown_87651683
f 113/113/113 114/114/114 115/115/115
f 116/116/116 115/115/115 114/114/114
