# Generated from Nova1492 GX by tools/nova1492/GxObjConverter
mtllib datan_common_blockheal_1bf970d3.mtl
o datan_common_blockheal_1bf970d3_mesh00
v -2.95858 -2.95858 -0
v 2.95858 -2.95858 -0
v -2.95858 2.95858 -0
v 2.95858 2.95858 -0
vt 0.00582 0.49418
vt 0.00582 0.00582
vt 0.49418 0.49418
vt 0.49418 0.00582
vn 0 -0 1
vn 0 0 1
vn 0 0 1
vn 0 0 1
usemtl datan_common_blockheal_1bf970d3
f 1/1/1 2/2/2 3/3/3
f 4/4/4 3/3/3 2/2/2
o datan_common_blockheal_1bf970d3_mesh01
v 3.87597 3.875968 -0
v -3.875968 3.87597 -0
v 3.875968 -3.87597 -0
v -3.87597 -3.875968 -0
vt 0.00582 0.49418
vt 0.00582 0.00582
vt 0.49418 0.49418
vt 0.49418 0.00582
vn 0 0 1
vn -0 -0 1
vn -0 -0 1
vn -0 -0 1
usemtl datan_common_blockheal_1bf970d3
f 5/5/5 6/6/6 7/7/7
f 8/8/8 7/7/7 6/6/6
o datan_common_blockheal_1bf970d3_mesh02
v 3.264133 -3.264134 0
v 3.264133 3.264133 0
v -3.264133 -3.264133 -0
v -3.264133 3.264134 -0
vt 0.00582 0.49418
vt 0.00582 0.00582
vt 0.49418 0.49418
vt 0.49418 0.00582
vn -0 0 1
vn -0 0 1
vn -0 0 1
vn -0 0 1
usemtl datan_common_blockheal_1bf970d3
f 9/9/9 10/10/10 11/11/11
f 12/12/12 11/11/11 10/10/10
o datan_common_blockheal_1bf970d3_mesh03
v -2.642383 2.642382 -0
v -2.642383 -2.642382 0
v 2.642383 2.642382 -0
v 2.642383 -2.642382 0
vt 0.00582 0.49418
vt 0.00582 0.00582
vt 0.49418 0.49418
vt 0.49418 0.00582
vn 0 0 1
vn 0 0 1
vn 0 0 1
vn 0 0 1
usemtl datan_common_blockheal_1bf970d3
f 13/13/13 14/14/14 15/15/15
f 16/16/16 15/15/15 14/14/14
o datan_common_blockheal_1bf970d3_mesh04
v 2.601322 2.601321 0.335454
v -2.601321 2.601322 0.335454
v 2.601321 -2.601322 0.335454
v -2.601322 -2.601321 0.335454
vt 0.50582 0.49418
vt 0.50582 0.00582
vt 0.99418 0.49418
vt 0.99418 0.00582
vn 0 0 1
vn -0 -0 1
vn -0 -0 1
vn -0 -0 1
usemtl datan_common_blockheal_1bf970d3
f 17/17/17 18/18/18 19/19/19
f 20/20/20 19/19/19 18/18/18
o datan_common_blockheal_1bf970d3_mesh05
v 2.190693 -2.190694 0.335454
v 2.190694 2.190694 0.335454
v -2.190694 -2.190694 0.335454
v -2.190693 2.190694 0.335454
vt 0.50582 0.49418
vt 0.50582 0.00582
vt 0.99418 0.49418
vt 0.99418 0.00582
vn -0 0 1
vn -0 0 1
vn -0 0 1
vn -0 0 1
usemtl datan_common_blockheal_1bf970d3
f 21/21/21 22/22/22 23/23/23
f 24/24/24 23/23/23 22/22/22
o datan_common_blockheal_1bf970d3_mesh06
v -1.773412 1.773411 0.335454
v -1.773412 -1.773411 0.335454
v 1.773412 1.773411 0.335454
v 1.773412 -1.773411 0.335454
vt 0.50582 0.49418
vt 0.50582 0.00582
vt 0.99418 0.49418
vt 0.99418 0.00582
vn 0 0 1
vn 0 0 1
vn 0 0 1
vn 0 0 1
usemtl datan_common_blockheal_1bf970d3
f 25/25/25 26/26/26 27/27/27
f 28/28/28 27/27/27 26/26/26
o datan_common_blockheal_1bf970d3_mesh07
v -1.985624 -1.985624 0.335454
v 1.985624 -1.985624 0.335454
v -1.985624 1.985624 0.335454
v 1.985624 1.985624 0.335454
vt 0.50582 0.49418
vt 0.50582 0.00582
vt 0.99418 0.49418
vt 0.99418 0.00582
vn 0 -0 1
vn 0 0 1
vn 0 0 1
vn 0 0 1
usemtl datan_common_blockheal_1bf970d3
f 29/29/29 30/30/30 31/31/31
f 32/32/32 31/31/31 30/30/30
