# Generated from Nova1492 GX by tools/nova1492/GxObjConverter
mtllib datan_common_srup3_f83ceed7.mtl
o datan_common_srup3_f83ceed7
v 0.040655 -0.122902 -0.071577
v 0.040655 0.11338 -0.071577
v 0.127711 0.181689 -0.063005
v 0.151598 -0.122813 -0.060109
v 0.213529 0.112906 -0.053514
v 0.213529 -0.043989 -0.053514
v 0.040655 -0.122902 0.071435
v 0.151598 -0.122813 0.059967
v 0.127711 0.181689 0.062862
v 0.040655 0.11338 0.071435
v 0.213529 -0.043989 0.053372
v 0.213529 0.112906 0.053372
v 0.151598 -0.122813 -0.060109
v 0.213529 -0.043989 -0.053514
v 0.213529 -0.043989 0.053372
v 0.151598 -0.122813 0.059967
v 0.213529 0.112906 -0.053514
v 0.213529 0.112906 0.053372
v 0.213529 0.112906 -0.053514
v 0.127711 0.181689 -0.063005
v 0.127711 0.181689 0.062862
v 0.213529 0.112906 0.053372
v 0.040655 0.11338 -0.071577
v 0.040655 0.11338 0.071435
v -0.181209 -0.084842 -0.053514
v -0.181209 0.075319 -0.053514
v -0.03366 0.172167 -0.062875
v -0.03366 -0.181689 -0.062875
v -0.181209 -0.084842 0.053372
v -0.03366 -0.181689 0.062733
v -0.03366 0.172167 0.062733
v -0.181209 0.075319 0.053372
v -0.181209 -0.084842 -0.053514
v -0.03366 -0.181689 -0.062875
v -0.03366 -0.181689 0.062733
v -0.181209 -0.084842 0.053372
v 0.040655 -0.122902 -0.071577
v -0.03366 0.172167 -0.062875
v -0.03366 0.172167 0.062733
v -0.181209 0.075319 -0.053514
v -0.181209 0.075319 0.053372
v -0.181209 0.075319 -0.053514
v -0.181209 -0.084842 -0.053514
v -0.181209 -0.084842 0.053372
v -0.181209 0.075319 0.053372
v 0.097354 -0.034354 0.058121
v 0.078425 0.049338 0.058121
v 0.059687 0.034454 0.091791
v 0.074035 -0.028983 0.091791
v 0.001191 0.086719 0.058121
v 0.001144 0.062789 0.091791
v -0.07619 0.049641 0.058121
v -0.057511 0.034685 0.091791
v -0.095448 -0.033975 0.058121
v -0.072108 -0.028696 0.091791
v -0.042081 -0.101165 0.058121
v -0.031656 -0.079626 0.091791
v 0.043724 -0.101334 0.058121
v 0.033383 -0.079754 0.091791
v 0.000996 -0.012161 0.115201
v -0.166702 0.125286 -0.028195
v -0.081751 0.180251 -0.028195
v -0.040419 0.166779 -0.036831
v -0.173691 0.080747 -0.036831
v -0.166702 0.125286 0.031729
v -0.173691 0.080747 0.040365
v -0.040419 0.166779 0.040365
v -0.081751 0.180251 0.031729
v -0.230066 -0.049757 -0.025652
v -0.230066 0.037392 -0.025652
v -0.180942 0.062751 -0.034716
v -0.180942 -0.075116 -0.034716
v -0.230066 -0.049757 0.030738
v -0.180942 -0.075116 0.039801
v -0.180942 0.062751 0.039801
v -0.230066 0.037392 0.030738
v 0.201898 -0.119378 0.026009
v 0.192525 -0.131399 0.000388
v 0.202738 -0.1183 -0.024967
v 0.219853 -0.09635 0.025882
v 0.220693 -0.095273 -0.025094
v 0.230066 -0.083251 0.00037
v 0.170139 -0.098904 0.032691
v 0.158317 -0.114065 0.000377
v 0.171199 -0.097545 -0.031602
v 0.193843 -0.068502 -0.031762
v 0.205665 -0.05334 0.000355
v 0.192784 -0.069861 0.032531
v 0.097354 -0.034354 -0.058121
v 0.059687 0.034454 -0.091791
v 0.078425 0.049338 -0.058121
v 0.074035 -0.028983 -0.091791
v 0.001144 0.062789 -0.091791
v 0.001191 0.086719 -0.058121
v -0.057511 0.034685 -0.091791
v -0.07619 0.049641 -0.058121
v -0.072108 -0.028696 -0.091791
v -0.095448 -0.033975 -0.058121
v -0.031656 -0.079626 -0.091791
v -0.042081 -0.101165 -0.058121
v 0.033383 -0.079754 -0.091791
v 0.043724 -0.101334 -0.058121
v 0.000996 -0.012161 -0.115201
vt 0.422446 0.431306
vt 0.422446 0.864414
vt 0.58202 0.989627
vt 0.625805 0.43147
vt 0.739325 0.863546
vt 0.739325 0.575955
vt 0.422609 0.431612
vt 0.625969 0.431776
vt 0.582184 0.989933
vt 0.422609 0.86472
vt 0.739488 0.576261
vt 0.739488 0.863852
vt 0.983873 0.534752
vt 0.970909 0.728151
vt 0.762992 0.728032
vt 0.750299 0.534618
vt 0.970909 0.990182
vt 0.762992 0.990062
vt 0.842853 0.257216
vt 0.66988 0.27602
vt 0.66988 0.026624
vt 0.842853 0.045429
vt 0.482744 0.293006
vt 0.482744 0.009639
vt 0.015766 0.501071
vt 0.015766 0.794649
vt 0.286226 0.972171
vt 0.286226 0.323549
vt 0.015929 0.501377
vt 0.286389 0.323855
vt 0.286389 0.972477
vt 0.015929 0.794955
vt 0.015929 0.501377
vt 0.286389 0.323855
vt 0.286226 0.323549
vt 0.015766 0.501071
vt 0.422609 0.431612
vt 0.340433 0.275763
vt 0.340433 0.026882
vt 0.009807 0.257215
vt 0.009807 0.045429
vt 0.991929 0.490635
vt 0.687388 0.490635
vt 0.687388 0.287395
vt 0.991929 0.287395
vt 0.526539 0.593923
vt 0.491842 0.74733
vt 0.448776 0.711781
vt 0.47272 0.605915
vt 0.35027 0.815851
vt 0.351077 0.759067
vt 0.208429 0.747887
vt 0.253193 0.712166
vt 0.173129 0.594617
vt 0.228833 0.606394
vt 0.270952 0.471456
vt 0.29634 0.521401
vt 0.428234 0.471147
vt 0.40488 0.521188
vt 0.350831 0.633987
vt 0.085003 0.191163
vt 0.264737 0.191163
vt 0.324822 0.224158
vt 0.026894 0.224158
vt 0.085004 0.100666
vt 0.026894 0.071201
vt 0.324822 0.071201
vt 0.264737 0.100666
vt 0.767652 0.431924
vt 0.908166 0.431924
vt 0.968031 0.458473
vt 0.705881 0.458473
vt 0.767652 0.341003
vt 0.705881 0.316782
vt 0.968031 0.316782
vt 0.908166 0.341003
vt 0.823889 0.606233
vt 0.865527 0.581683
vt 0.906699 0.608483
vt 0.824062 0.653305
vt 0.906872 0.655555
vt 0.865488 0.680105
vt 0.803316 0.59307
vt 0.866199 0.555995
vt 0.928377 0.596468
vt 0.928639 0.667557
vt 0.866139 0.704632
vt 0.803578 0.664158
vt 0.526539 0.593923
vt 0.448776 0.711781
vt 0.491842 0.74733
vt 0.47272 0.605915
vt 0.351077 0.759067
vt 0.35027 0.815851
vt 0.253193 0.712166
vt 0.208429 0.747887
vt 0.228833 0.606394
vt 0.173129 0.594617
vt 0.29634 0.521401
vt 0.270952 0.471456
vt 0.40488 0.521188
vt 0.428234 0.471147
vt 0.350831 0.633987
vn 0.202321 -0.287507 -0.936166
vn -0.009057 0.465074 -0.885226
vn 0.032557 0.806516 -0.590315
vn 0.506105 -0.3329 -0.795635
vn 0.741889 0.335947 -0.580293
vn 0.761075 -0.246668 -0.599933
vn 0.202321 -0.287507 0.936166
vn 0.506105 -0.3329 0.795635
vn 0.032557 0.806516 0.590315
vn -0.009057 0.465074 0.885226
vn 0.761075 -0.246668 0.599933
vn 0.741889 0.335947 0.580293
vn 0.506105 -0.3329 -0.795635
vn 0.761075 -0.246668 -0.599933
vn 0.761075 -0.246668 0.599933
vn 0.506105 -0.3329 0.795635
vn 0.741889 0.335947 -0.580293
vn 0.741889 0.335947 0.580293
vn 0.741889 0.335947 -0.580293
vn 0.032557 0.806516 -0.590315
vn 0.032557 0.806516 0.590315
vn 0.741889 0.335947 0.580293
vn -0.009057 0.465074 -0.885226
vn -0.009057 0.465074 0.885226
vn -0.71509 -0.373645 -0.590793
vn -0.71509 0.373645 -0.590793
vn 0.009562 0.806222 -0.591535
vn 0.009562 -0.806222 -0.591535
vn -0.71509 -0.373645 0.590793
vn 0.009562 -0.806222 0.591536
vn 0.009562 0.806222 0.591535
vn -0.71509 0.373645 0.590793
vn -0.71509 -0.373645 -0.590793
vn 0.009562 -0.806222 -0.591535
vn 0.009562 -0.806222 0.591536
vn -0.71509 -0.373645 0.590793
vn 0.202321 -0.287507 -0.936166
vn 0.009562 0.806222 -0.591535
vn 0.009562 0.806222 0.591535
vn -0.71509 0.373645 -0.590793
vn -0.71509 0.373645 0.590793
vn -0.71509 0.373645 -0.590793
vn -0.71509 -0.373645 -0.590793
vn -0.71509 -0.373645 0.590793
vn -0.71509 0.373645 0.590793
vn 0.794318 -0.182941 0.579303
vn 0.638278 0.506961 0.579303
vn 0.501563 0.398373 0.767941
vn 0.62418 -0.143756 0.767941
vn 0.001602 0.815111 0.579303
vn 0.001259 0.640519 0.767942
vn -0.63628 0.509466 0.579303
vn -0.499993 0.400341 0.767942
vn -0.795031 -0.179817 0.579303
vn -0.62474 -0.141301 0.767941
vn -0.355107 -0.733694 0.579303
vn -0.279045 -0.576541 0.767941
vn 0.35222 -0.735085 0.579303
vn 0.276776 -0.577634 0.767941
vn -0 0 1
vn -0.691518 0.493298 -0.527694
vn -0.1469 0.838581 -0.524597
vn 0.172967 0.849942 -0.497676
vn -0.849571 0.225752 -0.476724
vn -0.691518 0.493298 0.527694
vn -0.849571 0.225752 0.476724
vn 0.172967 0.849942 0.497676
vn -0.1469 0.838582 0.524597
vn -0.734276 -0.413323 -0.538519
vn -0.734276 0.413323 -0.538519
vn -0.455117 0.673363 -0.582625
vn -0.455117 -0.673363 -0.582625
vn -0.734276 -0.413323 0.538519
vn -0.455117 -0.673363 0.582625
vn -0.455117 0.673363 0.582625
vn -0.734276 0.413323 0.538519
vn 0.316526 -0.705247 0.63438
vn 0.081037 -0.996567 -0.01697
vn 0.324749 -0.69766 -0.638599
vn 0.755483 -0.153857 0.636847
vn 0.759624 -0.146061 -0.633749
vn 0.9887 0.149163 0.014954
vn -0.141833 -0.499002 0.854915
vn -0.451911 -0.891838 -0.020043
vn -0.136511 -0.483778 -0.864479
vn 0.463604 0.253502 -0.849004
vn 0.774751 0.632038 0.017022
vn 0.451554 0.246189 0.857607
vn 0.794318 -0.182941 -0.579303
vn 0.501563 0.398373 -0.767942
vn 0.638278 0.506961 -0.579303
vn 0.62418 -0.143756 -0.767942
vn 0.001259 0.640519 -0.767942
vn 0.001602 0.815111 -0.579303
vn -0.499993 0.400341 -0.767942
vn -0.63628 0.509466 -0.579303
vn -0.62474 -0.141301 -0.767941
vn -0.795031 -0.179817 -0.579303
vn -0.279045 -0.576541 -0.767941
vn -0.355107 -0.733694 -0.579303
vn 0.276776 -0.577634 -0.767941
vn 0.35222 -0.735085 -0.579303
vn -0 0 -1
usemtl datan_common_srup3_f83ceed7
f 1/1/1 2/2/2 3/3/3
f 3/3/3 4/4/4 1/1/1
f 4/4/4 3/3/3 5/5/5
f 5/5/5 6/6/6 4/4/4
f 7/7/7 8/8/8 9/9/9
f 9/9/9 10/10/10 7/7/7
f 8/8/8 11/11/11 12/12/12
f 12/12/12 9/9/9 8/8/8
f 13/13/13 14/14/14 15/15/15
f 15/15/15 16/16/16 13/13/13
f 14/14/14 17/17/17 18/18/18
f 18/18/18 15/15/15 14/14/14
f 19/19/19 20/20/20 21/21/21
f 21/21/21 22/22/22 19/19/19
f 20/20/20 23/23/23 24/24/24
f 24/24/24 21/21/21 20/20/20
f 25/25/25 26/26/26 27/27/27
f 27/27/27 28/28/28 25/25/25
f 28/28/28 27/27/27 2/2/2
f 2/2/2 1/1/1 28/28/28
f 29/29/29 30/30/30 31/31/31
f 31/31/31 32/32/32 29/29/29
f 30/30/30 7/7/7 10/10/10
f 10/10/10 31/31/31 30/30/30
f 33/33/33 34/34/34 30/30/30
f 35/35/35 36/36/36 25/25/25
f 34/34/34 37/37/37 7/7/7
f 7/7/7 30/30/30 34/34/34
f 23/23/23 38/38/38 39/39/39
f 39/39/39 24/24/24 23/23/23
f 38/38/38 40/40/40 41/41/41
f 41/41/41 39/39/39 38/38/38
f 42/42/42 43/43/43 44/44/44
f 44/44/44 45/45/45 42/42/42
f 46/46/46 47/47/47 48/48/48
f 46/46/46 48/48/48 49/49/49
f 47/47/47 50/50/50 51/51/51
f 47/47/47 51/51/51 48/48/48
f 50/50/50 52/52/52 53/53/53
f 50/50/50 53/53/53 51/51/51
f 52/52/52 54/54/54 55/55/55
f 52/52/52 55/55/55 53/53/53
f 54/54/54 56/56/56 57/57/57
f 54/54/54 57/57/57 55/55/55
f 56/56/56 58/58/58 59/59/59
f 56/56/56 59/59/59 57/57/57
f 58/58/58 46/46/46 49/49/49
f 58/58/58 49/49/49 59/59/59
f 49/49/49 48/48/48 60/60/60
f 48/48/48 51/51/51 60/60/60
f 51/51/51 53/53/53 60/60/60
f 53/53/53 55/55/55 60/60/60
f 55/55/55 57/57/57 60/60/60
f 57/57/57 59/59/59 60/60/60
f 59/59/59 49/49/49 60/60/60
f 61/61/61 62/62/62 63/63/63
f 63/63/63 64/64/64 61/61/61
f 65/65/65 66/66/66 67/67/67
f 67/67/67 68/68/68 65/65/65
f 61/61/61 64/64/64 66/66/66
f 66/66/66 65/65/65 61/61/61
f 63/63/63 62/62/62 68/68/68
f 68/68/68 67/67/67 63/63/63
f 62/62/62 61/61/61 65/65/65
f 65/65/65 68/68/68 62/62/62
f 69/69/69 70/70/70 71/71/71
f 71/71/71 72/72/72 69/69/69
f 73/73/73 74/74/74 75/75/75
f 75/75/75 76/76/76 73/73/73
f 69/69/69 72/72/72 74/74/74
f 74/74/74 73/73/73 69/69/69
f 71/71/71 70/70/70 76/76/76
f 76/76/76 75/75/75 71/71/71
f 70/70/70 69/69/69 73/73/73
f 73/73/73 76/76/76 70/70/70
f 77/77/77 78/78/78 79/79/79
f 79/79/79 80/80/80 77/77/77
f 80/80/80 79/79/79 81/81/81
f 81/81/81 82/82/82 80/80/80
f 83/83/83 84/84/84 78/78/78
f 78/78/78 77/77/77 83/83/83
f 84/84/84 85/85/85 79/79/79
f 79/79/79 78/78/78 84/84/84
f 85/85/85 86/86/86 81/81/81
f 81/81/81 79/79/79 85/85/85
f 86/86/86 87/87/87 82/82/82
f 82/82/82 81/81/81 86/86/86
f 87/87/87 88/88/88 80/80/80
f 80/80/80 82/82/82 87/87/87
f 88/88/88 83/83/83 77/77/77
f 77/77/77 80/80/80 88/88/88
f 89/89/89 90/90/90 91/91/91
f 89/89/89 92/92/92 90/90/90
f 91/91/91 93/93/93 94/94/94
f 91/91/91 90/90/90 93/93/93
f 94/94/94 95/95/95 96/96/96
f 94/94/94 93/93/93 95/95/95
f 96/96/96 97/97/97 98/98/98
f 96/96/96 95/95/95 97/97/97
f 98/98/98 99/99/99 100/100/100
f 98/98/98 97/97/97 99/99/99
f 100/100/100 101/101/101 102/102/102
f 100/100/100 99/99/99 101/101/101
f 102/102/102 92/92/92 89/89/89
f 102/102/102 101/101/101 92/92/92
f 92/92/92 103/103/103 90/90/90
