# Generated from Nova1492 GX by tools/nova1492/GxObjConverter
mtllib datan_common_superluckac_7943121a.mtl
o datan_common_superluckac_7943121a
v -0.200629 0.332196 -0.000018
v -0.000053 0.431063 -0.000018
v -0.000053 0.332196 -0.238703
v -0.200629 0.262287 -0.168794
v -0.000053 0.065093 -0.381451
v -0.19714 0.065093 -0.269732
v -0.187367 -0.125624 -0.190734
v -0.000053 -0.184797 -0.235589
v -0.128949 -0.651774 -0.126304
v -0.000053 -0.765854 -0.16983
v -0.000053 -0.678911 -0.000169
v -0.143127 -0.596156 -0.000169
v -0.000053 -0.529844 0.158518
v -0.123566 -0.485936 0.131307
v -0.175751 -0.125624 0.190699
v -0.000053 -0.165362 0.269697
v -0.000053 0.065093 0.381416
v -0.19714 0.065093 0.269697
v -0.000053 0.332196 0.238667
v -0.200629 0.262287 0.168758
v 0.200523 0.332196 -0.000018
v 0.200523 0.262287 -0.168794
v 0.197035 0.065093 -0.269732
v 0.187262 -0.125624 -0.190734
v 0.128843 -0.651774 -0.126304
v 0.143021 -0.596156 -0.000169
v 0.12346 -0.485936 0.131307
v 0.175645 -0.125624 0.190699
v 0.197035 0.065093 0.269697
v 0.200523 0.262287 0.168758
v -0.226703 -0.204621 -0.000018
v 0.226598 -0.204621 -0.000018
v 0.145344 -0.630688 -0.162382
v 0.145344 -0.574503 -0.316751
v -0.145449 -0.574503 -0.316751
v -0.145449 -0.630688 -0.162382
v 0.145344 -0.68021 -0.420196
v -0.145449 -0.68021 -0.420196
v -0.145449 -0.778158 -0.151085
v 0.145344 -0.778158 -0.151085
v 0.309361 -0.663366 -0.512207
v 0.140639 -0.663366 -0.512207
v 0.140639 -0.519324 -0.242179
v 0.253562 -0.519324 -0.242179
v 0.309361 -0.836917 -0.055141
v 0.253562 -0.61423 -0.077796
v 0.140639 -0.61423 -0.077796
v 0.140639 -0.836917 -0.055141
v 0.253562 -0.61423 -0.077796
v 0.253562 -0.519324 -0.242179
v 0.140639 -0.61423 -0.077796
v 0.309361 -0.663366 -0.512207
v 0.253562 -0.519324 -0.242179
v 0.253562 -0.61423 -0.077796
v 0.140639 -0.836917 -0.055141
v 0.309361 -0.663366 -0.512207
v 0.309361 -0.836917 -0.055141
v 0.140639 -0.61423 -0.077796
v 0.140639 -0.519324 -0.242179
v 0.140639 -0.663366 -0.512207
v -0.140777 -0.663522 -0.512297
v -0.309499 -0.663522 -0.512297
v -0.253701 -0.519479 -0.242269
v -0.140777 -0.519479 -0.242269
v -0.140777 -0.837073 -0.055231
v -0.140777 -0.614386 -0.077886
v -0.253701 -0.614386 -0.077886
v -0.309499 -0.837073 -0.055231
v -0.140777 -0.614386 -0.077886
v -0.140777 -0.519479 -0.242269
v -0.253701 -0.614386 -0.077886
v -0.140777 -0.663522 -0.512297
v -0.140777 -0.519479 -0.242269
v -0.140777 -0.614386 -0.077886
v -0.309499 -0.837073 -0.055231
v -0.140777 -0.663522 -0.512297
v -0.140777 -0.837073 -0.055231
v -0.253701 -0.614386 -0.077886
v -0.253701 -0.519479 -0.242269
v -0.309499 -0.663522 -0.512297
vt 0.242716 0.916436
vt 0.242716 0.983881
vt 0.098973 0.922064
vt 0.135661 0.868959
vt 0.011883 0.71354
vt 0.075091 0.71354
vt 0.125199 0.569059
vt 0.069364 0.491909
vt 0.173724 0.152893
vt 0.146115 0.012132
vt 0.246076 0.083566
vt 0.246076 0.198589
vt 0.346732 0.198383
vt 0.329472 0.289145
vt 0.374801 0.569059
vt 0.434773 0.522143
vt 0.488117 0.705883
vt 0.417253 0.705883
vt 0.394116 0.914408
vt 0.349772 0.861303
vt 0.242716 0.90878
vt 0.143317 0.868959
vt 0.075091 0.71354
vt 0.125199 0.569059
vt 0.173724 0.152893
vt 0.246076 0.198589
vt 0.329472 0.289146
vt 0.367145 0.569059
vt 0.417253 0.705883
vt 0.349772 0.861303
vt 0.246172 0.496498
vt 0.246172 0.496498
vt 0.615042 0.488117
vt 0.884958 0.488117
vt 0.884958 0.011883
vt 0.615042 0.011883
vt 0.988118 0.488117
vt 0.988117 0.011883
vt 0.511883 0.011883
vt 0.511883 0.488118
vt 0.988359 0.988359
vt 0.988359 0.511641
vt 0.511641 0.511641
vt 0.511641 0.988359
vt 0.988359 0.988359
vt 0.988359 0.511641
vt 0.511641 0.511641
vt 0.511641 0.988359
vt 0.988359 0.988359
vt 0.988359 0.511641
vt 0.511641 0.988359
vt 0.988359 0.511641
vt 0.511641 0.511641
vt 0.511641 0.988359
vt 0.988359 0.988359
vt 0.511641 0.511641
vt 0.511641 0.988359
vt 0.988359 0.988359
vt 0.988359 0.511641
vt 0.511641 0.511641
vt 0.988359 0.988359
vt 0.988359 0.511641
vt 0.511641 0.511641
vt 0.511641 0.988359
vt 0.988359 0.988359
vt 0.988359 0.511641
vt 0.511641 0.511641
vt 0.511641 0.988359
vt 0.988359 0.988359
vt 0.988359 0.511641
vt 0.511641 0.988359
vt 0.988359 0.511641
vt 0.511641 0.511641
vt 0.511641 0.988359
vt 0.988359 0.988359
vt 0.511641 0.511641
vt 0.511641 0.988359
vt 0.988359 0.988359
vt 0.988359 0.511641
vt 0.511641 0.511641
vn -0.712703 -0.672458 -0.199637
vn 0 0.990602 0.136774
vn 0 0.815821 -0.578305
vn -0.977873 -0.12703 0.166217
vn 0 -0.002104 -0.999998
vn -0.97505 -0.0349 0.219226
vn -0.926471 0.260313 -0.271824
vn 0 -0.261241 -0.965274
vn -0.811669 -0.486852 -0.322752
vn 0 -0.851719 -0.523999
vn 0 -0.861247 0.508188
vn -0.757808 -0.513142 0.403005
vn 0 -0.60061 0.799543
vn -0.562385 -0.369156 0.739897
vn -0.960255 0.09777 0.26144
vn 0 -0.320302 0.947316
vn 0 -0.145306 0.989387
vn -0.885749 0.248126 0.392278
vn 0 0.65097 0.759103
vn -0.871691 0.176165 -0.457298
vn 0.853459 0.463095 -0.239064
vn 0.879903 -0.432943 -0.195783
vn 0.411194 -0.047614 0.910303
vn 0.787635 0.430757 -0.440544
vn 0.811669 -0.486852 -0.322752
vn 0.757808 -0.513142 0.403005
vn 0.562385 -0.369156 0.739897
vn 0.88814 0.240341 0.391718
vn 0.724346 0.163064 -0.669875
vn 0.978815 -0.168038 -0.116979
vn -0.671746 0.740664 0.013214
vn 0.909636 0.415021 0.017894
vn 0 0.758346 0.651852
vn 0 0.906764 -0.421639
vn 0 0.999929 -0.011892
vn 0 0.423597 0.905851
vn 0 0.69942 -0.714711
vn 0 0.69942 -0.714711
vn 0 0.07638 0.997079
vn 0 0.07638 0.997079
vn 0 0.882315 -0.470659
vn 0 -0.063531 -0.99798
vn 0 0.999859 0.01678
vn 0 0.882315 -0.470659
vn 0.638932 0.224322 0.73583
vn 0 0.101212 0.994865
vn 0 0.101212 0.994865
vn -0.707107 0.071568 0.703476
vn 0 0.866026 0.5
vn 0 0.866026 0.5
vn 0 0.866026 0.5
vn 0.971931 0.219945 0.083515
vn 0.964555 0.237363 0.115291
vn 0.95586 0.254457 0.146911
vn 0 -0.934875 -0.354978
vn 0 -0.934875 -0.354978
vn 0 -0.934875 -0.354978
vn -1 -0 -0
vn -1 -0 -0
vn -1 -0 -0
vn 0 0.882315 -0.470659
vn 0 -0.063531 -0.99798
vn 0 0.999859 0.01678
vn 0 0.882315 -0.470659
vn 0.707107 0.071568 0.703476
vn 0 0.101212 0.994865
vn 0 0.101212 0.994865
vn -0.643536 0.235348 0.728336
vn 0 0.866026 0.5
vn 0 0.866026 0.5
vn 0 0.866026 0.5
vn 1 0 0
vn 1 0 0
vn 1 0 0
vn 0 -0.934875 -0.354978
vn 0 -0.934875 -0.354978
vn 0 -0.934875 -0.354978
vn -0.971099 0.216611 0.100234
vn -0.977697 0.181882 0.10501
vn -0.971099 0.216611 0.100234
usemtl datan_common_superluckac_7943121a
f 1/1/1 2/2/2 3/3/3
f 1/1/1 3/3/3 4/4/4
f 4/4/4 3/3/3 5/5/5
f 4/4/4 5/5/5 6/6/6
f 7/7/7 5/5/5 8/8/8
f 6/6/6 5/5/5 7/7/7
f 9/9/9 10/10/10 11/11/11
f 9/9/9 11/11/11 12/12/12
f 12/12/12 11/11/11 13/13/13
f 12/12/12 13/13/13 14/14/14
f 15/15/15 16/16/16 17/17/17
f 15/15/15 17/17/17 18/18/18
f 18/18/18 17/17/17 19/19/19
f 18/18/18 19/19/19 20/20/20
f 20/20/20 19/19/19 2/2/2
f 20/20/20 2/2/2 1/1/1
f 3/3/3 21/21/21 22/22/22
f 2/2/2 21/21/21 3/3/3
f 5/5/5 22/22/22 23/23/23
f 3/3/3 22/22/22 5/5/5
f 5/5/5 23/23/23 24/24/24
f 5/5/5 24/24/24 8/8/8
f 11/11/11 25/25/25 26/26/26
f 10/10/10 25/25/25 11/11/11
f 13/13/13 26/26/26 27/27/27
f 11/11/11 26/26/26 13/13/13
f 17/17/17 28/28/28 29/29/29
f 16/16/16 28/28/28 17/17/17
f 19/19/19 29/29/29 30/30/30
f 17/17/17 29/29/29 19/19/19
f 2/2/2 30/30/30 21/21/21
f 19/19/19 30/30/30 2/2/2
f 31/31/31 7/7/7 9/9/9
f 9/9/9 12/12/12 31/31/31
f 15/15/15 31/31/31 12/12/12
f 12/12/12 14/14/14 15/15/15
f 9/9/9 8/8/8 10/10/10
f 8/8/8 9/9/9 7/7/7
f 16/16/16 15/15/15 14/14/14
f 14/14/14 13/13/13 16/16/16
f 8/8/8 24/24/24 25/25/25
f 25/25/25 10/10/10 8/8/8
f 25/25/25 32/32/32 26/26/26
f 32/32/32 25/25/25 24/24/24
f 26/26/26 28/28/28 27/27/27
f 28/28/28 26/26/26 32/32/32
f 27/27/27 16/16/16 13/13/13
f 16/16/16 27/27/27 28/28/28
f 28/28/28 32/32/32 31/31/31
f 28/28/28 31/31/31 15/15/15
f 29/29/29 28/28/28 15/15/15
f 29/29/29 15/15/15 18/18/18
f 20/20/20 30/30/30 29/29/29
f 20/20/20 29/29/29 18/18/18
f 1/1/1 21/21/21 30/30/30
f 1/1/1 30/30/30 20/20/20
f 1/1/1 4/4/4 22/22/22
f 1/1/1 22/22/22 21/21/21
f 4/4/4 6/6/6 23/23/23
f 4/4/4 23/23/23 22/22/22
f 23/23/23 6/6/6 7/7/7
f 23/23/23 7/7/7 24/24/24
f 24/24/24 7/7/7 31/31/31
f 24/24/24 31/31/31 32/32/32
f 33/33/33 34/34/34 35/35/35
f 35/35/35 36/36/36 33/33/33
f 34/34/34 37/37/37 38/38/38
f 38/38/38 35/35/35 34/34/34
f 36/36/36 39/39/39 40/40/40
f 40/40/40 33/33/33 36/36/36
f 41/41/41 42/42/42 43/43/43
f 43/43/43 44/44/44 41/41/41
f 45/45/45 46/46/46 47/47/47
f 47/47/47 48/48/48 45/45/45
f 49/49/49 50/50/50 43/43/43
f 43/43/43 51/51/51 49/49/49
f 45/45/45 52/52/52 53/53/53
f 53/53/53 54/54/54 45/45/45
f 55/55/55 42/42/42 56/56/56
f 56/56/56 57/57/57 55/55/55
f 58/58/58 59/59/59 60/60/60
f 60/60/60 48/48/48 58/58/58
f 61/61/61 62/62/62 63/63/63
f 63/63/63 64/64/64 61/61/61
f 65/65/65 66/66/66 67/67/67
f 67/67/67 68/68/68 65/65/65
f 69/69/69 70/70/70 63/63/63
f 63/63/63 71/71/71 69/69/69
f 65/65/65 72/72/72 73/73/73
f 73/73/73 74/74/74 65/65/65
f 75/75/75 62/62/62 76/76/76
f 76/76/76 77/77/77 75/75/75
f 78/78/78 79/79/79 80/80/80
