# Generated from Nova1492 GX by tools/nova1492/GxObjConverter
mtllib datan_common_eff116_0cc670e6.mtl
o datan_common_eff116_0cc670e6_mesh00
v 0.050475 0.018371 -0.136405
v -0.001875 0.053682 -0.136405
v -0.002948 0.084428 0.165311
v 0.050475 0.018371 -0.136405
v -0.002948 0.084428 0.165311
v 0.079385 0.028894 0.165311
v -0.001875 0.053682 -0.136405
v -0.051634 0.014806 -0.136405
v -0.081207 0.023286 0.165311
v -0.001875 0.053682 -0.136405
v -0.081207 0.023286 0.165311
v -0.002948 0.084428 0.165311
v -0.051634 0.014806 -0.136405
v -0.030037 -0.044531 -0.136405
v -0.04724 -0.070037 0.165311
v -0.051634 0.014806 -0.136405
v -0.04724 -0.070037 0.165311
v -0.081207 0.023286 0.165311
v -0.030037 -0.044531 -0.136405
v 0.03307 -0.042328 -0.136405
v 0.052011 -0.066571 0.165311
v -0.030037 -0.044531 -0.136405
v 0.052011 -0.066571 0.165311
v -0.04724 -0.070037 0.165311
v 0.03307 -0.042328 -0.136405
v 0.050475 0.018371 -0.136405
v 0.079385 0.028894 0.165311
v 0.052011 -0.066571 0.165311
v 0.079385 0.028894 0.165311
v -0.002948 0.084428 0.165311
v 0 -0 0.407578
v -0.002948 0.084428 0.165311
v -0.081207 0.023286 0.165311
v 0 -0 0.407578
v -0.081207 0.023286 0.165311
v -0.04724 -0.070037 0.165311
v 0 -0 0.407578
v -0.04724 -0.070037 0.165311
v 0.052011 -0.066571 0.165311
v 0 -0 0.407578
v 0.052011 -0.066571 0.165311
v 0.079385 0.028894 0.165311
v 0 -0 0.407578
v -0.051634 0.014806 -0.136405
v 0.03307 -0.042328 -0.136405
v -0.030037 -0.044531 -0.136405
v -0.001875 0.053682 -0.136405
v 0.03307 -0.042328 -0.136405
v -0.051634 0.014806 -0.136405
v 0.050475 0.018371 -0.136405
v 0.03307 -0.042328 -0.136405
v -0.001875 0.053682 -0.136405
vt 0.005941 0.322884
vt 0.005941 0.345818
vt 0.136306 0.369121
vt 0.005941 0.322884
vt 0.136306 0.369121
vt 0.136306 0.330859
vt 0.005941 0.345818
vt 0.005941 0.320182
vt 0.136306 0.326609
vt 0.005941 0.349646
vt 0.136306 0.326609
vt 0.136306 0.369121
vt 0.005941 0.316354
vt 0.005941 0.27521
vt 0.136306 0.255879
vt 0.005941 0.316354
vt 0.136306 0.255879
vt 0.136306 0.322781
vt 0.005941 0.271382
vt 0.005941 0.273052
vt 0.136306 0.258506
vt 0.005941 0.271382
vt 0.136306 0.258506
vt 0.136306 0.255879
vt 0.005941 0.27688
vt 0.005941 0.319056
vt 0.136306 0.327031
vt 0.136306 0.258506
vt 0.140134 0.330859
vt 0.140134 0.369121
vt 0.244059 0.30896
vt 0.140134 0.369121
vt 0.140134 0.326609
vt 0.244059 0.30896
vt 0.140134 0.322781
vt 0.140134 0.255879
vt 0.244059 0.305132
vt 0.140134 0.255879
vt 0.140134 0.258506
vt 0.244059 0.305132
vt 0.140134 0.258506
vt 0.140134 0.327031
vt 0.244059 0.305132
vt 0.004027 0.316354
vt 0.004027 0.27688
vt 0.004027 0.27521
vt 0.004027 0.345818
vt 0.004027 0.27688
vt 0.004027 0.316354
vt 0.004027 0.319056
vt 0.004027 0.27688
vt 0.004027 0.345818
vn 0.5573 0.826231 -0.082214
vn 0.5573 0.826231 -0.082214
vn 0.5573 0.826231 -0.082214
vn 0.5573 0.826231 -0.082214
vn 0.5573 0.826231 -0.082214
vn 0.5573 0.826231 -0.082214
vn -0.613577 0.785343 -0.082214
vn -0.613577 0.785343 -0.082214
vn -0.613577 0.785343 -0.082214
vn -0.613577 0.785343 -0.082214
vn -0.613577 0.785343 -0.082214
vn -0.613577 0.785343 -0.082214
vn -0.936512 -0.340862 -0.082214
vn -0.936512 -0.340862 -0.082214
vn -0.936512 -0.340862 -0.082214
vn -0.936512 -0.340862 -0.082214
vn -0.936512 -0.340862 -0.082214
vn -0.936512 -0.340862 -0.082214
vn 0.034781 -0.996008 -0.082215
vn 0.034781 -0.996008 -0.082215
vn 0.034781 -0.996008 -0.082215
vn 0.034781 -0.996008 -0.082215
vn 0.034781 -0.996008 -0.082215
vn 0.034781 -0.996008 -0.082215
vn 0.958008 -0.274704 -0.082215
vn 0.958008 -0.274704 -0.082215
vn 0.958008 -0.274704 -0.082215
vn 0.958008 -0.274704 -0.082215
vn 0.538187 0.797895 0.271511
vn 0.538187 0.797895 0.271511
vn 0.538187 0.797895 0.271511
vn -0.592534 0.758409 0.271511
vn -0.592534 0.758409 0.271511
vn -0.592534 0.758409 0.271511
vn -0.904393 -0.329172 0.271511
vn -0.904393 -0.329172 0.271511
vn -0.904393 -0.329172 0.271511
vn 0.033589 -0.961849 0.271511
vn 0.033589 -0.961849 0.271511
vn 0.033589 -0.961849 0.271511
vn 0.925152 -0.265283 0.271511
vn 0.925152 -0.265283 0.271511
vn 0.925152 -0.265283 0.271511
vn -0 0 -1
vn -0 0 -1
vn -0 0 -1
vn -0 0 -1
vn -0 0 -1
vn -0 0 -1
vn -0 0 -1
vn -0 0 -1
vn -0 0 -1
usemtl datan_common_eff116_0cc670e6
f 1/1/1 2/2/2 3/3/3
f 4/4/4 5/5/5 6/6/6
f 7/7/7 8/8/8 9/9/9
f 10/10/10 11/11/11 12/12/12
f 13/13/13 14/14/14 15/15/15
f 16/16/16 17/17/17 18/18/18
f 19/19/19 20/20/20 21/21/21
f 22/22/22 23/23/23 24/24/24
f 25/25/25 26/26/26 27/27/27
f 25/25/25 27/27/27 28/28/28
f 29/29/29 30/30/30 31/31/31
f 32/32/32 33/33/33 34/34/34
f 35/35/35 36/36/36 37/37/37
f 38/38/38 39/39/39 40/40/40
f 41/41/41 42/42/42 43/43/43
f 44/44/44 45/45/45 46/46/46
f 47/47/47 48/48/48 49/49/49
f 50/50/50 51/51/51 52/52/52
o datan_common_eff116_0cc670e6_mesh01
v -0.059527 0.230686 0.01408
v -0.059527 0.072064 0.01408
v -0.218149 0.072064 0.01408
v -0.218149 0.230686 0.01408
v -0.059527 0.230686 0.01408
v -0.218149 0.230686 0.01408
v -0.218149 0.072064 0.01408
v -0.059527 0.072064 0.01408
vt 0.005941 0.005941
vt 0.005941 0.244059
vt 0.244059 0.244059
vt 0.244059 0.005941
vt 0.005941 0.005941
vt 0.244059 0.005941
vt 0.244059 0.244059
vt 0.005941 0.244059
vn 0 0 -1
vn 0 0 -1
vn 0 0 -1
vn 0 0 -1
vn -0 -0 1
vn -0 -0 1
vn -0 -0 1
vn -0 -0 1
usemtl datan_common_eff116_0cc670e6
f 53/53/53 54/54/54 55/55/55
f 55/55/55 56/56/56 53/53/53
f 57/57/57 58/58/58 59/59/59
f 59/59/59 60/60/60 57/57/57
o datan_common_eff116_0cc670e6_mesh02
v 0.059477 -0.230737 0.01408
v 0.059477 -0.072014 0.01408
v 0.218199 -0.072014 0.01408
v 0.218199 -0.230737 0.01408
v 0.059477 -0.230737 0.01408
v 0.218199 -0.230737 0.01408
v 0.218199 -0.072014 0.01408
v 0.059477 -0.072014 0.01408
vt 0.005941 0.005941
vt 0.005941 0.244059
vt 0.244059 0.244059
vt 0.244059 0.005941
vt 0.005941 0.005941
vt 0.244059 0.005941
vt 0.244059 0.244059
vt 0.005941 0.244059
vn -0 0 -1
vn -0 0 -1
vn -0 0 -1
vn -0 0 -1
vn 0 -0 1
vn 0 -0 1
vn 0 -0 1
vn 0 -0 1
usemtl datan_common_eff116_0cc670e6
f 61/61/61 62/62/62 63/63/63
f 63/63/63 64/64/64 61/61/61
f 65/65/65 66/66/66 67/67/67
f 67/67/67 68/68/68 65/65/65
